<svg width="151" height="45" viewBox="0 0 151 45" fill="none" xmlns="http://www.w3.org/2000/svg">
<path d="M7.52418 6.3556C8.46833 5.42204 9.60187 4.68076 10.856 4.17671C12.1102 3.67267 13.4588 3.41636 14.8202 3.42333C16.0836 3.4123 17.3363 3.64478 18.5029 4.10679C19.6105 4.55858 20.6349 5.17638 21.5371 5.93671C21.9027 6.23535 22.3766 6.38573 22.8573 6.3556C23.1089 6.34153 23.3551 6.28023 23.5816 6.17523C23.8082 6.07023 24.0107 5.9236 24.1775 5.74379C24.4895 5.38289 24.6393 4.91944 24.5944 4.45403C24.5817 4.22749 24.5201 4.00586 24.4136 3.80294C24.307 3.60002 24.1576 3.42014 23.9749 3.27451C22.7724 2.23148 21.3762 1.41091 19.8578 0.854842C18.2486 0.275709 16.5405 -0.0139733 14.8202 0.000517986C12.9454 -0.0140045 11.0879 0.342616 9.36554 1.04775C5.9982 2.4132 3.33273 4.98803 1.94797 8.21307C0.868438 10.6819 0.575028 13.3983 1.10419 16.0246C1.63335 18.6509 2.96176 21.0712 4.92427 22.9846C6.19519 24.2068 7.70359 25.1821 9.36554 25.8563C11.0879 26.5614 12.9454 26.918 14.8202 26.9035C16.5405 26.918 18.2486 26.6283 19.8578 26.0492C21.3762 25.4931 22.7724 24.6726 23.9749 23.6295C24.1576 23.4839 24.307 23.304 24.4136 23.1011C24.5201 22.8982 24.5817 22.6766 24.5944 22.45C24.6393 21.9846 24.4895 21.5211 24.1775 21.1602C24.0107 20.9804 23.8082 20.8338 23.5816 20.7288C23.3551 20.6238 23.1089 20.5625 22.8573 20.5484C22.3766 20.5183 21.9027 20.6687 21.5371 20.9673C20.6349 21.7277 19.6105 22.3455 18.5029 22.7972C17.3363 23.2593 16.0836 23.4917 14.8202 23.4807C13.4263 23.4936 12.0452 23.227 10.7669 22.698C9.54466 22.1983 8.43713 21.4755 7.50683 20.5705C6.57755 19.6533 5.84402 18.5733 5.34696 17.3902C4.31225 14.8704 4.31225 12.0722 5.34696 9.55243C5.85176 8.36435 6.5908 7.27921 7.52418 6.3556Z" fill="white"/>
<path d="M32.5433 8.55866C32.3036 8.55372 32.0655 8.59736 31.8449 8.68669C31.6242 8.77602 31.4261 8.90898 31.2636 9.07677C31.0946 9.23911 30.9615 9.43197 30.872 9.64399C30.7826 9.85602 30.7385 10.0829 30.7424 10.3114V24.9617C30.7384 25.191 30.7823 25.4188 30.8718 25.6318C30.9613 25.8447 31.0945 26.0385 31.2636 26.2019C31.4284 26.3665 31.6271 26.497 31.8473 26.5852C32.0675 26.6734 32.3044 26.7174 32.5433 26.7145C32.7889 26.7228 33.0336 26.6814 33.2612 26.5931C33.4888 26.5047 33.6941 26.3714 33.8635 26.2019C34.0326 26.0385 34.1658 25.8447 34.2553 25.6318C34.3448 25.4188 34.3887 25.191 34.3846 24.9617V10.3059C34.3886 10.0774 34.3446 9.85051 34.2551 9.63849C34.1656 9.42646 34.0324 9.2336 33.8635 9.07126C33.6941 8.90178 33.4888 8.76845 33.2612 8.68008C33.0336 8.59172 32.7889 8.55034 32.5433 8.55866Z" fill="white"/>
<path d="M92.2258 3.50079V3.42914C92.2258 3.38504 92.2258 3.33544 92.2258 3.28583C92.2258 3.21969 92.2258 3.15355 92.1737 3.08741C92.1117 2.87722 92.0052 2.6813 91.8608 2.51165C91.7165 2.342 91.5372 2.2022 91.3341 2.1008H91.3051L91.2356 2.06773H91.1604C90.7592 1.89449 90.3038 1.87282 89.8865 2.0071C89.6577 2.07757 89.4461 2.19093 89.2641 2.3405C89.0821 2.49007 88.9334 2.67281 88.8268 2.87796L80.0659 18.8125L71.3802 2.80079C71.1622 2.38828 70.781 2.07504 70.3205 1.92994C69.9014 1.7942 69.4437 1.81588 69.0408 1.99057H68.9714L68.9018 2.02363C68.6994 2.12675 68.5205 2.26704 68.3754 2.43638C68.2303 2.60573 68.1219 2.80078 68.0565 3.01024C68.0565 3.07639 68.0217 3.14253 68.0101 3.20867C68.0076 3.25641 68.0076 3.30423 68.0101 3.35197C68.007 3.37577 68.007 3.39983 68.0101 3.42363C68.0101 3.42363 68.0101 3.47875 68.0101 3.50631V24.8865C68.006 25.1158 68.05 25.3436 68.1395 25.5565C68.229 25.7695 68.3622 25.9633 68.5313 26.1267C68.6961 26.2913 68.8948 26.4217 69.115 26.5099C69.3352 26.5981 69.5721 26.6422 69.811 26.6393C70.0566 26.6476 70.3013 26.6062 70.5289 26.5178C70.7564 26.4295 70.9618 26.2961 71.1312 26.1267C71.4685 25.7944 71.6538 25.3485 71.6466 24.8865V10.6771L78.5488 23.3542C78.6182 23.486 78.7058 23.6083 78.8093 23.718C79.0187 23.9494 79.2913 24.1211 79.5968 24.2141H79.6663H79.73H79.8111H79.9211H80.4191H80.5233H80.6044H80.6739H80.7375C81.0431 24.1211 81.3157 23.9494 81.5251 23.718C81.6324 23.6101 81.7222 23.4875 81.7914 23.3542L88.6879 10.6771V24.9637C88.6838 25.193 88.7277 25.4208 88.8172 25.6337C88.9067 25.8466 89.0399 26.0405 89.209 26.2038C89.3784 26.3733 89.5837 26.5066 89.8113 26.595C90.0389 26.6834 90.2836 26.7247 90.5292 26.7164C90.7681 26.7193 91.005 26.6753 91.2252 26.5871C91.4454 26.4989 91.6441 26.3684 91.8089 26.2038C92.1462 25.8716 92.3315 25.4257 92.3242 24.9637V3.58347C92.296 3.55138 92.2628 3.52351 92.2258 3.50079Z" fill="white"/>
<path d="M59.9285 9.09529C59.7593 8.93847 59.559 8.8153 59.3393 8.73296C59.1196 8.65063 58.8849 8.61079 58.6488 8.61577H47.1605V3.65516C47.165 3.42581 47.1211 3.19794 47.0316 2.98496C46.9421 2.77197 46.8088 2.57819 46.6394 2.41501C46.4699 2.24553 46.2647 2.1122 46.0371 2.02384C45.8095 1.93548 45.5648 1.89409 45.3192 1.90241C45.0803 1.89951 44.8434 1.94353 44.6232 2.03173C44.403 2.11993 44.2043 2.25041 44.0395 2.41501C43.8709 2.57846 43.7384 2.77242 43.6499 2.98542C43.5614 3.19843 43.5186 3.42616 43.5241 3.65516V8.61577H40.8953C40.6552 8.61199 40.4169 8.65393 40.1941 8.73912C39.9714 8.8243 39.7688 8.95103 39.5982 9.11183C39.4253 9.26871 39.2882 9.45785 39.1955 9.66744C39.1029 9.87703 39.0566 10.1026 39.0597 10.3299C39.0509 10.5637 39.0944 10.7967 39.1872 11.0133C39.2801 11.2299 39.4202 11.4253 39.5982 11.5866C39.7688 11.7474 39.9714 11.8741 40.1941 11.9593C40.4169 12.0445 40.6552 12.0865 40.8953 12.0827H43.5241V25.0188C43.5189 25.2478 43.5619 25.4754 43.6504 25.6884C43.7389 25.9014 43.8711 26.0953 44.0395 26.259C44.2043 26.4236 44.403 26.5541 44.6232 26.6423C44.8434 26.7305 45.0803 26.7745 45.3192 26.7716C45.5648 26.7799 45.8095 26.7385 46.0371 26.6502C46.2647 26.5618 46.4699 26.4285 46.6394 26.259C46.8085 26.0956 46.9417 25.9018 47.0311 25.6889C47.1206 25.4759 47.1646 25.2481 47.1605 25.0188V12.0331H56.7959V24.9692C56.7918 25.1985 56.8357 25.4263 56.9252 25.6393C57.0147 25.8522 57.1479 26.046 57.317 26.2094C57.4803 26.3759 57.6787 26.5076 57.8992 26.596C58.1198 26.6843 58.3575 26.7273 58.5967 26.722C58.8414 26.7295 59.0849 26.6877 59.3114 26.5994C59.538 26.5111 59.7423 26.3781 59.9111 26.2094C60.0802 26.046 60.2134 25.8522 60.3029 25.6393C60.3924 25.4263 60.4363 25.1985 60.4323 24.9692V10.2803C60.4351 10.0609 60.392 9.84305 60.3055 9.6396C60.2191 9.43614 60.0909 9.25111 59.9285 9.09529Z" fill="white"/>
<path d="M114.62 8.55902C114.38 8.55443 114.142 8.59823 113.922 8.68753C113.701 8.77684 113.503 8.90962 113.34 9.07712C113.171 9.23947 113.038 9.43232 112.949 9.64435C112.859 9.85637 112.815 10.0833 112.819 10.3118V11.4141C112.5 10.9089 112.095 10.458 111.62 10.0803C111.139 9.70033 110.607 9.38164 110.04 9.13224C109.452 8.88075 108.836 8.69576 108.204 8.58107C107.566 8.45685 106.916 8.39406 106.264 8.39366C105.02 8.38796 103.786 8.60678 102.628 9.03854C101.485 9.45916 100.445 10.0982 99.5712 10.9163C98.6978 11.7344 98.0097 12.7142 97.5495 13.7952C96.5304 16.2759 96.5304 19.031 97.5495 21.5117C98.0209 22.6041 98.7202 23.5942 99.6051 24.4219C100.484 25.2071 101.514 25.8229 102.639 26.2353C103.794 26.6825 105.029 26.9091 106.276 26.9022C106.929 26.9025 107.579 26.8322 108.216 26.6928C108.85 26.5599 109.466 26.3564 110.051 26.0865C110.616 25.8233 111.147 25.4977 111.632 25.1164C112.108 24.7399 112.514 24.2888 112.831 23.7826V24.9621C112.826 25.1914 112.87 25.4192 112.96 25.6321C113.049 25.8451 113.183 26.0389 113.352 26.2022C113.516 26.3668 113.715 26.4973 113.935 26.5855C114.156 26.6737 114.393 26.7177 114.631 26.7148C114.877 26.7232 115.122 26.6818 115.349 26.5934C115.577 26.505 115.782 26.3717 115.952 26.2022C116.121 26.0389 116.254 25.8451 116.343 25.6321C116.433 25.4192 116.477 25.1914 116.473 24.9621V10.3063C116.477 10.0778 116.433 9.85087 116.343 9.63884C116.254 9.42681 116.121 9.23396 115.952 9.07161C115.781 8.90071 115.574 8.76654 115.344 8.67813C115.114 8.58972 114.867 8.54911 114.62 8.55902ZM112.304 20.0897C111.991 20.7957 111.528 21.4321 110.943 21.9582C110.371 22.4638 109.7 22.8571 108.968 23.1156C108.213 23.3862 107.412 23.5225 106.606 23.518C105.79 23.5235 104.98 23.3736 104.226 23.0771C103.509 22.7958 102.857 22.3817 102.309 21.859C101.753 21.3245 101.313 20.6916 101.012 19.996C100.681 19.2309 100.517 18.4093 100.532 17.5818C100.516 16.7596 100.68 15.9433 101.012 15.1842C101.307 14.5022 101.744 13.884 102.296 13.3668C102.848 12.8496 103.505 12.4441 104.226 12.1747C104.984 11.8932 105.792 11.751 106.606 11.7559C107.37 11.7588 108.128 11.8875 108.847 12.1362C109.58 12.3805 110.257 12.7545 110.844 13.2385C111.449 13.7433 111.932 14.3654 112.263 15.0629C112.634 15.853 112.818 16.7111 112.802 17.5763C112.813 18.4394 112.659 19.2953 112.304 20.0897Z" fill="white"/>
<path d="M135.336 8.75181C134.969 8.59329 134.579 8.49097 134.178 8.44866C133.795 8.39705 133.408 8.37127 133.02 8.37149C131.875 8.34499 130.756 8.70195 129.858 9.38015C128.837 10.2807 128.126 11.4549 127.82 12.7478V10.3061C127.824 10.0782 127.78 9.85174 127.692 9.63987C127.604 9.42799 127.472 9.23483 127.305 9.07149C127.136 8.90101 126.931 8.76666 126.703 8.67733C126.476 8.58801 126.231 8.54576 125.985 8.55338C125.745 8.54844 125.507 8.59208 125.286 8.68141C125.066 8.77074 124.867 8.90371 124.705 9.07149C124.536 9.23384 124.403 9.42669 124.313 9.63872C124.224 9.85074 124.18 10.0777 124.184 10.3061V24.9564C124.18 25.1858 124.224 25.4135 124.313 25.6265C124.403 25.8394 124.536 26.0332 124.705 26.1966C124.87 26.3612 125.069 26.4917 125.289 26.5799C125.509 26.6681 125.746 26.7121 125.985 26.7092C126.23 26.7175 126.475 26.6761 126.703 26.5878C126.93 26.4994 127.135 26.3661 127.305 26.1966C127.642 25.8643 127.827 25.4184 127.82 24.9564V20.0454C127.816 18.9367 127.916 17.8298 128.121 16.7384C128.289 15.8127 128.599 14.9157 129.042 14.0762C129.411 13.3735 129.953 12.7664 130.623 12.3069C131.304 11.8632 132.114 11.6355 132.939 11.6565H133.362C133.502 11.6579 133.641 11.6708 133.779 11.6951C134.337 11.7558 134.903 11.7051 135.441 11.5463C135.675 11.4636 135.88 11.3193 136.032 11.1299C136.184 10.9406 136.276 10.7142 136.297 10.477C136.393 10.1014 136.329 9.70501 136.118 9.37464C135.92 9.10512 135.65 8.89027 135.336 8.75181Z" fill="white"/>
<path d="M150.385 9.17588C150.24 9.03962 150.068 8.93235 149.879 8.8604C149.69 8.78845 149.488 8.75329 149.284 8.75699H146.65V3.62001C146.654 3.39116 146.611 3.16378 146.522 2.95095C146.434 2.73812 146.302 2.54403 146.134 2.37985C145.965 2.21037 145.76 2.07704 145.532 1.98868C145.304 1.90032 145.06 1.85893 144.814 1.86726C144.575 1.86435 144.338 1.90837 144.118 1.99657C143.898 2.08477 143.699 2.21525 143.534 2.37985C143.365 2.54303 143.232 2.73682 143.142 2.9498C143.053 3.16278 143.009 3.39066 143.013 3.62001V8.75699H141.016C140.812 8.75329 140.61 8.78845 140.421 8.8604C140.232 8.93235 140.06 9.03962 139.915 9.17588C139.767 9.30619 139.65 9.46496 139.571 9.6417C139.492 9.81844 139.454 10.0091 139.458 10.2011C139.451 10.3999 139.488 10.598 139.566 10.7823C139.645 10.9666 139.764 11.1329 139.915 11.2704C140.21 11.5415 140.606 11.6902 141.016 11.6837H143.013V24.9671C143.009 25.1964 143.053 25.4242 143.143 25.6372C143.232 25.8501 143.365 26.0439 143.534 26.2073C143.699 26.3719 143.898 26.5024 144.118 26.5906C144.338 26.6788 144.575 26.7228 144.814 26.7199C145.06 26.7282 145.304 26.6868 145.532 26.5985C145.76 26.5101 145.965 26.3768 146.134 26.2073C146.472 25.875 146.657 25.4291 146.65 24.9671V11.6837H149.29C149.7 11.6902 150.096 11.5415 150.39 11.2704C150.538 11.1388 150.656 10.979 150.734 10.8014C150.813 10.6238 150.852 10.4324 150.848 10.2397C150.854 10.0412 150.816 9.84374 150.736 9.66033C150.656 9.47693 150.537 9.31179 150.385 9.17588Z" fill="white"/>
<path d="M58.6279 1.86622C58.1569 1.86513 57.6962 1.99706 57.3041 2.24531C56.9119 2.49357 56.606 2.84698 56.425 3.26082C56.244 3.67466 56.196 4.13032 56.2872 4.57012C56.3784 5.00991 56.6046 5.41408 56.9372 5.73144C57.2698 6.04881 57.6938 6.26511 58.1556 6.35296C58.6175 6.44082 59.0962 6.39628 59.5314 6.22498C59.9666 6.05369 60.3387 5.76334 60.6004 5.39069C60.8622 5.01804 61.0019 4.57984 61.0019 4.13156C61.0019 3.53171 60.752 2.95634 60.3069 2.53167C59.8619 2.10699 59.258 1.86768 58.6279 1.86622Z" fill="white"/>
<path d="M32.5244 1.86621C32.0537 1.86621 31.5936 1.99907 31.2022 2.24799C30.8108 2.49691 30.5058 2.85071 30.3257 3.26464C30.1456 3.67858 30.0984 4.13407 30.1903 4.5735C30.2821 5.01293 30.5087 5.41658 30.8416 5.73339C31.1744 6.0502 31.5985 6.26596 32.0601 6.35337C32.5218 6.44078 33.0003 6.39591 33.4351 6.22446C33.87 6.053 34.2417 5.76264 34.5032 5.39011C34.7647 5.01758 34.9043 4.5796 34.9043 4.13155C34.9043 3.53075 34.6535 2.95455 34.2072 2.52971C33.7609 2.10488 33.1556 1.86621 32.5244 1.86621Z" fill="white"/>
<path d="M126.142 29.7165C125.76 30.0472 125.372 30.3779 124.984 30.7031L124.405 31.1881L124.11 31.4307L123.803 31.6622L122.564 32.5771L121.944 33.0291L121.302 33.459C120.873 33.7401 120.445 34.0102 120.01 34.3023C119.79 34.4401 119.576 34.5889 119.356 34.7157L118.684 35.1125C117.798 35.6637 116.895 36.1598 115.974 36.6338C112.278 38.5628 108.401 40.1589 104.393 41.4015C96.315 43.8741 87.8698 45.0877 79.3845 44.9952C75.1448 44.9727 70.9138 44.6262 66.7323 43.9589C62.5532 43.301 58.4407 42.3053 54.4392 40.9826C50.4503 39.6662 46.6017 37.9923 42.9452 35.9834L42.2618 35.6086L41.596 35.2062C41.1501 34.9417 40.71 34.6551 40.27 34.4015C40.0499 34.2637 39.8299 34.1369 39.6098 33.9936L38.9671 33.5582C38.5386 33.2716 38.1159 32.9795 37.6932 32.6873C37.2705 32.3952 36.8594 32.0866 36.454 31.7724L35.2381 30.8354C35.0354 30.6811 34.8443 30.5102 34.659 30.3448L34.08 29.8433C33.6978 29.507 33.3156 29.1708 32.9219 28.8291C33.3967 29.0385 33.8715 29.248 34.3347 29.463C34.798 29.6779 35.2554 29.8984 35.7302 30.0968L37.1315 30.6921C37.6005 30.8905 38.058 31.1055 38.5328 31.2818C40.4205 32.037 42.2966 32.7535 44.2075 33.3929C47.9973 34.6744 51.8646 35.7383 55.7884 36.5787C63.5547 38.258 71.4899 39.1285 79.454 39.1747C87.4275 39.2461 95.3862 38.507 103.195 36.97C107.106 36.1997 110.965 35.2095 114.753 34.0047L115.471 33.7842L115.835 33.674L116.189 33.5472L117.619 33.0566L118.337 32.8141C118.58 32.7314 118.812 32.6377 119.049 32.5496C119.518 32.3677 119.993 32.1968 120.474 31.9984L121.174 31.8L121.881 31.5133L123.299 30.9622L123.653 30.8189L124.006 30.6645L124.706 30.3614L126.142 29.7165Z" fill="white"/>
</svg>
