<svg width="150" height="21" viewBox="0 0 150 21" fill="none" xmlns="http://www.w3.org/2000/svg">
<path d="M0 20.8594V8.32779H14.5387V12.2321H4.4335V16.9551H14.7484V20.8594H0ZM14.7584 0.00998292H0V3.91426H14.7584V0.00998292ZM35.8874 20.8594L43.9256 0H38.863L33.1114 16.0365L27.3299 0H22.2673L30.3355 20.8594H35.8874ZM68.9988 20.8594L64.3057 12.9211C66.5524 12.3918 68.869 10.4247 68.869 6.73013C68.869 2.85581 66.2129 0.00998292 61.8693 0.00998292H52.1136V20.8694H56.557V13.4603H59.8123L63.9063 20.8694H68.9988V20.8594ZM61.2102 9.546H56.5471V3.91426H61.2102C62.9876 3.91426 64.3356 4.97271 64.3356 6.73013C64.3356 8.47757 62.9976 9.546 61.2102 9.546ZM88.1607 20.8594V12.3219L96.129 0H91.0664L85.934 8.37772L80.7416 0H75.679L83.7172 12.3219V20.8594H88.1607ZM112.545 20.8594C119.075 20.8594 123.609 16.7355 123.609 10.4447C123.609 4.15391 119.075 0 112.545 0H104.317V20.8594H112.545ZM112.545 16.9551H108.76V3.91426H112.545C116.829 3.91426 119.075 6.76008 119.075 10.4447C119.085 13.9795 116.679 16.9551 112.545 16.9551ZM142.032 20.8594V12.3219L150 0H144.937L139.805 8.37772L134.613 0H129.55L137.588 12.3219V20.8594H142.032Z" fill="white"/>
</svg>
