<svg width="150" height="106" viewBox="0 0 150 106" fill="none" xmlns="http://www.w3.org/2000/svg">
<path d="M54.6085 69.7393C54.6085 72.1449 53.686 74.4524 52.0437 76.1533C50.4015 77.8545 48.1742 78.8101 45.852 78.8101H0C0 78.8101 0.133873 76.7238 3.5355 74.3977C6.93712 72.0716 9.56593 70.3002 11.0264 67.5015C11.0264 67.5015 14.215 71.3781 20.3854 71.3781H45.3955C45.9475 71.3781 46.4768 71.1512 46.8673 70.7467C47.2575 70.3424 47.4767 69.7942 47.4767 69.2224V51.301C47.4767 44.9093 43.7342 41.606 43.7342 41.606C46.436 40.0931 48.1705 37.3638 50.3915 33.8464C52.6125 30.3287 54.651 30.1839 54.651 30.1839V60.1261H65.5375V51.301C65.5375 44.9093 61.7952 41.606 61.7952 41.606C64.497 40.0931 66.2312 37.3638 68.4522 33.8464C70.6735 30.3287 72.712 30.1839 72.712 30.1839V60.1261H83.9695V51.301C83.9695 44.9093 80.221 41.606 80.221 41.606C82.929 40.0931 84.6633 37.3638 86.8783 33.8464C89.0933 30.3287 91.138 30.1839 91.138 30.1839V60.1261H98.4585V21.1255C98.4585 14.7336 94.716 11.4242 94.716 11.4242C97.4177 9.91759 99.1523 7.18812 101.373 3.67067C103.594 0.153246 105.603 0.00195312 105.603 0.00195312V60.1261H116.081C114.233 57.3452 113.246 54.0472 113.251 50.6707C113.279 46.6768 114.674 42.8224 117.187 39.7937C119.701 36.765 123.17 34.7587 126.978 34.1315C130.786 33.5043 134.685 34.2972 137.982 36.3688C141.278 38.4406 143.758 41.6568 144.98 45.4451L142.771 46.8443C140.598 44.8083 135.627 41.0262 129.523 41.1712C127.175 41.1637 124.914 42.0893 123.206 43.7573C121.497 45.4254 120.471 47.709 120.339 50.1372C120.208 52.5656 120.98 54.9536 122.497 56.8097C124.014 58.6658 126.161 59.8482 128.495 60.1137H149.495L145.753 67.8166H54.6085V69.7393ZM63.7362 71.4097C63.0142 71.4097 62.3083 71.6316 61.7077 72.0473C61.1075 72.4627 60.6395 73.0534 60.363 73.7446C60.0868 74.4355 60.0145 75.1961 60.1553 75.9298C60.2962 76.6635 60.644 77.3373 61.1545 77.8664C61.6652 78.3953 62.3158 78.7555 63.024 78.9013C63.7323 79.0473 64.4662 78.9725 65.1335 78.6861C65.8008 78.3999 66.371 77.9151 66.772 77.2931C67.1732 76.6712 67.3875 75.9399 67.3875 75.192C67.3875 74.1887 67.0028 73.2269 66.318 72.5176C65.6333 71.8082 64.7048 71.4097 63.7362 71.4097ZM29.209 56.4513C29.931 56.4513 30.637 56.2293 31.2375 55.8137C31.8377 55.3983 32.3057 54.8075 32.582 54.1163C32.8585 53.4251 32.9308 52.6648 32.79 51.9311C32.649 51.1974 32.3013 50.5236 31.7908 49.9945C31.28 49.4657 30.6295 49.1054 29.9212 48.9594C29.213 48.8136 28.4787 48.8884 27.8117 49.1746C27.1445 49.461 26.5743 49.9458 26.1733 50.5676C25.772 51.1897 25.5577 51.921 25.5577 52.6689C25.5577 53.6719 25.9425 54.634 26.6273 55.3434C27.312 56.0527 28.2405 56.4513 29.209 56.4513ZM68.9818 75.1666C68.9818 75.9148 69.1957 76.6461 69.597 77.2679C69.9983 77.89 70.5685 78.3748 71.2357 78.661C71.9028 78.9474 72.637 79.0222 73.3453 78.8762C74.0535 78.7304 74.704 78.3701 75.2145 77.841C75.7253 77.3122 76.073 76.6381 76.2138 75.9044C76.3548 75.1708 76.2825 74.4104 76.006 73.7192C75.7297 73.0283 75.2617 72.4375 74.6612 72.0219C74.061 71.6062 73.355 71.3845 72.6328 71.3845C71.6645 71.3845 70.7357 71.7828 70.0513 72.4922C69.3665 73.2015 68.9818 74.1636 68.9818 75.1666ZM81.998 71.3845C81.2757 71.3845 80.57 71.6062 79.9695 72.0219C79.369 72.4375 78.9013 73.0283 78.6247 73.7192C78.3485 74.4104 78.2763 75.1708 78.417 75.9044C78.558 76.6381 78.9058 77.3122 79.4163 77.841C79.927 78.3701 80.5775 78.7304 81.2858 78.8762C81.994 79.0222 82.728 78.9474 83.3952 78.661C84.0623 78.3748 84.6325 77.89 85.0338 77.2679C85.435 76.6461 85.649 75.9148 85.649 75.1666C85.649 74.1636 85.2645 73.2015 84.5798 72.4922C83.895 71.7828 82.9662 71.3845 81.998 71.3845ZM94.5518 75.1666C94.5518 74.4187 94.3375 73.6873 93.9365 73.0655C93.5352 72.4435 92.965 71.9587 92.2978 71.6725C91.6308 71.3861 90.8965 71.3112 90.1882 71.4571C89.48 71.6031 88.8295 71.9633 88.3187 72.4922C87.8083 73.0213 87.4605 73.6951 87.3197 74.4288C87.1787 75.1625 87.251 75.9231 87.5275 76.614C87.8038 77.3052 88.2718 77.896 88.8723 78.3116C89.4725 78.727 90.1785 78.9489 90.9005 78.9489C91.869 78.9489 92.7975 78.5504 93.4822 77.841C94.167 77.1317 94.5518 76.1699 94.5518 75.1666ZM0.0547645 105.513H2.33671V87.6228H0.0547645V105.513ZM15.7667 87.6228H13.4848V105.513H23.4706V103.401H15.7667V87.6228ZM36.28 87.6228H33.992V105.513H43.9778V103.401H36.28V87.6228ZM54.572 105.513H56.86V87.6228H54.572V105.513ZM76.1318 92.9051C75.3935 94.0778 74.7667 95.1282 74.2515 96.0571C73.7038 95.0484 73.1178 94.0397 72.493 93.0312L69.0912 87.6352H66.3285L72.9615 97.9481V105.513H75.2495V97.9481L82.15 87.6417H79.491L76.1318 92.9051ZM93.42 97.3178H102.17V95.2185H93.42V89.7534H102.84V87.6417H91.138V105.513H103.217V103.401H93.42V97.3178ZM116.166 97.3178H124.917V95.2185H116.166V89.7534H125.568V87.6417H113.884V105.513H125.964V103.401H116.166V97.3178ZM147.809 87.629V101.673L138.743 87.6417H136.4V105.513H138.59V91.4554L147.657 105.513H150V87.6228L147.809 87.629Z" fill="white"/>
</svg>
