<svg width="150" height="22" viewBox="0 0 150 22" fill="none" xmlns="http://www.w3.org/2000/svg">
<g clip-path="url(#clip0_116_17437)">
<path d="M10.0805 0.290039L0.30957 21.0215L13.1994 6.90821L10.0805 0.290039Z" fill="white"/>
<path d="M0 21.99H9.2957L14.8007 10.3039L13.3948 7.32227L0 21.99Z" fill="white"/>
<path d="M18.1854 16.1487L18.6593 11.2787L19.6593 0.985865L19.7159 0.401701L19.7201 0.357853L19.7512 0.0495054L19.7555 0H19.5079H10.4131L10.4145 0.00141444L13.5093 6.56866L13.6069 6.77658L13.7045 6.98451L15.0355 9.80632L15.1529 10.0553L15.2689 10.3042L18.1048 16.3198L18.1854 16.1487Z" fill="white"/>
<path d="M19.7396 4.53987L18.7227 15.0081L22.8245 6.30227L20.1258 0.575195L19.7396 4.53987Z" fill="white"/>
<path d="M25.9847 12.0117L25.9705 12.4813L25.9578 12.9495L25.8743 15.8237L25.8687 16.0387L25.8616 16.2551L25.7428 20.3923L25.7188 21.1929L30.8475 10.3045L26.3128 0.680664L25.9847 12.0117Z" fill="white"/>
<path d="M23.2946 6.30316L23.1772 6.5521L23.0599 6.80104L18.6015 16.2622L18.3328 16.8323L18.2225 17.0671L18.1051 17.3146V17.316L15.9014 21.9907H25.272L25.4361 16.3216L25.4418 16.1066L25.4474 15.8902L25.5578 12.1009L25.5719 11.6328L25.5846 11.1632L25.8845 0.806641L23.2946 6.30316Z" fill="white"/>
<path d="M36.2793 0.797852L36.8861 21.6623L42.9201 14.8899L36.2793 0.797852Z" fill="white"/>
<path d="M35.8373 0.212166L35.8302 0H26.4609V0.00141444L31.0819 9.80632L31.1993 10.0553L31.3167 10.3042L36.4469 21.1911L35.85 0.68176L35.8373 0.212166Z" fill="white"/>
<path d="M53.9185 19.4829V16.0883H52.6455V15.6328H55.6993V16.0883H54.4263V19.4829H53.9185Z" fill="white"/>
<path d="M56.7051 19.4823V15.6279H57.1789V17.0113C57.2802 16.8882 57.408 16.7897 57.5528 16.7231C57.6976 16.6565 57.8555 16.6235 58.0149 16.6265C58.2019 16.622 58.3872 16.6643 58.5538 16.7496C58.698 16.8217 58.8133 16.941 58.8805 17.0876C58.9557 17.2871 58.9894 17.4998 58.9795 17.7128V19.4823H58.5057V17.7128C58.5223 17.5273 58.4671 17.3425 58.3515 17.1965C58.2946 17.1405 58.2265 17.0972 58.1516 17.0694C58.0768 17.0417 57.9969 17.03 57.9173 17.0353C57.7778 17.0348 57.6408 17.0724 57.5212 17.1442C57.4032 17.2113 57.3103 17.3151 57.2567 17.4398C57.1979 17.6049 57.1715 17.7797 57.1789 17.9547V19.4823H56.7051Z" fill="white"/>
<path d="M62.1491 18.5785L62.637 18.6393C62.5758 18.9029 62.4261 19.1376 62.2127 19.3041C61.9436 19.4794 61.624 19.5607 61.3039 19.5351C60.9837 19.5095 60.6811 19.3785 60.4432 19.1626C60.2047 18.9109 60.0849 18.5582 60.084 18.1046C60.084 17.6332 60.2047 17.2682 60.4461 17.0099C60.5662 16.8815 60.7124 16.7804 60.8749 16.7133C61.0374 16.6462 61.2124 16.6147 61.3881 16.6209C61.5591 16.6152 61.7293 16.6464 61.8872 16.7123C62.0451 16.7782 62.187 16.8773 62.3032 17.0028C62.5395 17.2574 62.6569 17.6138 62.6569 18.0749C62.6569 18.1032 62.6569 18.1456 62.6569 18.2008H60.5691C60.5667 18.4604 60.6592 18.7119 60.8294 18.908C60.9036 18.9878 60.994 19.0509 61.0944 19.0931C61.1949 19.1353 61.3032 19.1556 61.4121 19.1527C61.5717 19.1558 61.7279 19.1061 61.8563 19.0113C61.9939 18.8985 62.0956 18.7481 62.1491 18.5785ZM60.5932 17.8133H62.1491C62.1444 17.6234 62.0823 17.4394 61.9709 17.2857C61.901 17.1978 61.8118 17.1274 61.7102 17.0798C61.6087 17.0322 61.4974 17.0087 61.3853 17.0113C61.2837 17.0089 61.1828 17.0271 61.0884 17.0648C60.9941 17.1024 60.9084 17.1588 60.8365 17.2305C60.6849 17.3871 60.5985 17.5954 60.5946 17.8133H60.5932Z" fill="white"/>
<path d="M65.8477 19.4828V15.6285H66.6143L67.5266 18.357C67.6115 18.6116 67.668 18.8011 67.7105 18.9227C67.7543 18.7813 67.8236 18.5762 67.9156 18.3046L68.8392 15.6172H69.5252V19.4828H69.033V16.2565L67.9142 19.4828H67.4545L66.3399 16.2014V19.4828H65.8477Z" fill="white"/>
<path d="M70.6572 18.0826C70.6572 17.5649 70.7987 17.183 71.0816 16.9341C71.326 16.7256 71.6388 16.6148 71.9599 16.6229C72.1344 16.6166 72.3083 16.6469 72.4703 16.712C72.6323 16.777 72.7788 16.8753 72.9005 17.0005C73.0275 17.1414 73.1253 17.3061 73.1882 17.485C73.2511 17.664 73.2778 17.8536 73.2669 18.043C73.281 18.3346 73.2257 18.6255 73.1056 18.8916C72.9996 19.095 72.8357 19.2623 72.6346 19.3725C72.4279 19.4857 72.1956 19.5442 71.9599 19.5423C71.7846 19.5494 71.6096 19.5197 71.4464 19.4552C71.2832 19.3906 71.1353 19.2926 71.0123 19.1675C70.7756 18.9147 70.6572 18.5531 70.6572 18.0826ZM71.1424 18.0826C71.1424 18.4404 71.2216 18.7078 71.3772 18.886C71.4505 18.9698 71.5408 19.0369 71.6422 19.0829C71.7435 19.1289 71.8536 19.1527 71.9649 19.1527C72.0762 19.1527 72.1862 19.1289 72.2876 19.0829C72.3889 19.0369 72.4793 18.9698 72.5526 18.886C72.7082 18.7064 72.786 18.4348 72.786 18.0684C72.8063 17.7869 72.7228 17.5076 72.5512 17.2834C72.478 17.1997 72.3878 17.1325 72.2865 17.0865C72.1853 17.0405 72.0754 17.0167 71.9642 17.0167C71.853 17.0167 71.743 17.0405 71.6418 17.0865C71.5406 17.1325 71.4503 17.1997 71.3772 17.2834C71.223 17.4574 71.1367 17.7247 71.1367 18.0826H71.1424Z" fill="white"/>
<path d="M74.1709 18.6456L74.6391 18.5721C74.6553 18.7363 74.7337 18.8882 74.8583 18.9964C75.003 19.1046 75.1815 19.1577 75.3619 19.1464C75.5337 19.1597 75.7048 19.1127 75.8456 19.0134C75.8938 18.9769 75.933 18.9299 75.9602 18.876C75.9874 18.8221 76.0019 18.7626 76.0026 18.7022C76.0038 18.6514 75.9913 18.6012 75.9664 18.5569C75.9415 18.5126 75.9052 18.4758 75.8611 18.4504C75.7073 18.3767 75.5448 18.3225 75.3774 18.2892C75.1307 18.2353 74.8893 18.1595 74.6561 18.0629C74.5325 18.0081 74.4278 17.9181 74.3551 17.8042C74.2824 17.6902 74.2449 17.5573 74.2473 17.4222C74.2463 17.3018 74.2755 17.1832 74.3321 17.077C74.3881 16.9722 74.4675 16.8817 74.5641 16.8125C74.6559 16.7489 74.7578 16.7011 74.8654 16.6711C74.9983 16.633 75.1359 16.614 75.2742 16.6145C75.4707 16.6111 75.6661 16.6432 75.8512 16.7093C75.996 16.7573 76.1234 16.8468 76.2176 16.9667C76.3045 17.0935 76.3606 17.2388 76.3817 17.391L75.9177 17.4547C75.9112 17.3893 75.8917 17.3258 75.8604 17.268C75.829 17.2102 75.7865 17.1592 75.7353 17.118C75.6117 17.0306 75.4621 16.9877 75.3109 16.9964C75.1482 16.9827 74.9853 17.0208 74.8456 17.1053C74.8037 17.133 74.769 17.1703 74.7444 17.2141C74.7198 17.2579 74.706 17.3069 74.7041 17.3571C74.7036 17.4173 74.7241 17.4758 74.7621 17.5226C74.8098 17.5803 74.8724 17.6239 74.9432 17.6485C74.9899 17.6669 75.1299 17.7065 75.3675 17.7701C75.6076 17.8284 75.8438 17.9016 76.0747 17.9893C76.2002 18.0408 76.3082 18.1272 76.3859 18.2383C76.4644 18.3582 76.5039 18.4995 76.4991 18.6428C76.4981 18.8022 76.4488 18.9576 76.3576 19.0884C76.2596 19.2328 76.1214 19.3454 75.9602 19.4123C75.7738 19.4898 75.5736 19.5284 75.3718 19.5254C75.0776 19.5453 74.7854 19.4661 74.5415 19.3005C74.3417 19.1352 74.2097 18.9021 74.1709 18.6456Z" fill="white"/>
<path d="M78.6233 19.0586L78.6912 19.4829C78.5737 19.5094 78.4538 19.5237 78.3334 19.5254C78.1955 19.5329 78.0581 19.5046 77.9345 19.4433C77.8462 19.3961 77.7761 19.321 77.735 19.2297C77.6834 19.0459 77.6638 18.8545 77.6771 18.6639V17.0571H77.3291V16.6894H77.6771V15.9977L78.1467 15.7148V16.6894H78.6233V17.0571H78.1537V18.6894C78.148 18.777 78.1566 18.8649 78.1792 18.9497C78.1956 18.9885 78.2245 19.0209 78.2612 19.0416C78.3108 19.0678 78.3665 19.08 78.4225 19.077C78.4897 19.0748 78.5568 19.0686 78.6233 19.0586Z" fill="white"/>
<path d="M82.6021 19.4829V16.0883H81.3291V15.6328H84.3843V16.0883H83.1113V19.4829H82.6021Z" fill="white"/>
<path d="M85.1816 19.4823V16.6902H85.606V17.1145C85.6772 16.9639 85.78 16.8303 85.9072 16.7227C85.9966 16.6609 86.1027 16.6278 86.2114 16.6279C86.3847 16.6322 86.5533 16.6851 86.6979 16.7807L86.5353 17.2206C86.431 17.1549 86.3106 17.1192 86.1873 17.1173C86.0852 17.1154 85.9854 17.1483 85.9044 17.2107C85.8198 17.276 85.7583 17.3667 85.729 17.4695C85.6743 17.6482 85.6475 17.8343 85.6498 18.0212V19.4823H85.1816Z" fill="white"/>
<path d="M89.3484 19.4825V19.0723C89.2537 19.2208 89.1224 19.3422 88.967 19.425C88.8116 19.5078 88.6375 19.549 88.4615 19.5448C88.3029 19.5461 88.1457 19.5139 88.0004 19.45C87.8749 19.4009 87.7649 19.3188 87.6822 19.2124C87.6104 19.107 87.5621 18.9873 87.5407 18.8616C87.5183 18.7156 87.5089 18.5679 87.5125 18.4203V16.6904H87.9849V18.2463C87.9793 18.4133 87.9892 18.5805 88.0146 18.7456C88.0394 18.8633 88.1069 18.9676 88.2041 19.0384C88.3083 19.1115 88.4334 19.1488 88.5606 19.1445C88.7014 19.1454 88.8399 19.1078 88.9608 19.0356C89.0799 18.9695 89.1728 18.8647 89.2239 18.7385C89.2839 18.5635 89.3103 18.3788 89.3017 18.194V16.6975H89.7756V19.4825H89.3484Z" fill="white"/>
<path d="M90.8623 18.6456L91.3305 18.5721C91.3467 18.7363 91.4251 18.8882 91.5497 18.9964C91.6944 19.1046 91.8729 19.1577 92.0533 19.1464C92.2251 19.1597 92.3962 19.1127 92.537 19.0134C92.5852 18.9769 92.6244 18.9299 92.6516 18.876C92.6788 18.8221 92.6933 18.7626 92.694 18.7022C92.6952 18.6514 92.6827 18.6012 92.6578 18.5569C92.6329 18.5126 92.5966 18.4758 92.5526 18.4504C92.3987 18.3767 92.2362 18.3225 92.0688 18.2892C91.8221 18.2353 91.5808 18.1595 91.3475 18.0629C91.2239 18.0081 91.1192 17.9181 91.0465 17.8042C90.9738 17.6902 90.9363 17.5573 90.9387 17.4222C90.9378 17.3018 90.9669 17.1832 91.0236 17.077C91.0795 16.9722 91.1589 16.8817 91.2555 16.8125C91.3473 16.7489 91.4492 16.7011 91.5568 16.6711C91.6897 16.633 91.8273 16.614 91.9656 16.6145C92.1621 16.6111 92.3576 16.6432 92.5427 16.7093C92.6874 16.7573 92.8148 16.8468 92.909 16.9667C92.9952 17.0939 93.0513 17.239 93.0731 17.391L92.6091 17.4547C92.6026 17.3893 92.5831 17.3258 92.5518 17.268C92.5204 17.2102 92.4779 17.1592 92.4267 17.118C92.3031 17.0306 92.1535 16.9877 92.0024 16.9964C91.8396 16.9827 91.6767 17.0208 91.537 17.1053C91.4951 17.133 91.4604 17.1703 91.4358 17.2141C91.4112 17.2579 91.3974 17.3069 91.3956 17.3571C91.395 17.4173 91.4156 17.4758 91.4535 17.5226C91.5012 17.5803 91.5639 17.6239 91.6346 17.6485C91.6813 17.6669 91.8213 17.7065 92.0589 17.7701C92.299 17.8284 92.5352 17.9016 92.7662 17.9893C92.8916 18.0408 92.9996 18.1272 93.0773 18.2383C93.1558 18.3582 93.1953 18.4995 93.1905 18.6428C93.1888 18.8021 93.1395 18.9573 93.049 19.0884C92.951 19.2328 92.8128 19.3454 92.6516 19.4123C92.4652 19.4898 92.265 19.5284 92.0632 19.5254C91.7691 19.5453 91.4768 19.4661 91.2329 19.3005C91.0331 19.1352 90.9012 18.9021 90.8623 18.6456Z" fill="white"/>
<path d="M95.3147 19.0586L95.3826 19.4829C95.2651 19.5094 95.1452 19.5237 95.0248 19.5254C94.8869 19.5329 94.7495 19.5046 94.6259 19.4433C94.5376 19.3961 94.4675 19.321 94.4265 19.2297C94.3748 19.0459 94.3552 18.8545 94.3685 18.6639V17.0571H94.0205V16.6894H94.3685V15.9977L94.838 15.7148V16.6894H95.3147V17.0571H94.8437V18.6894C94.8379 18.777 94.8466 18.8649 94.8692 18.9497C94.8856 18.9885 94.9144 19.0209 94.9512 19.0416C95.0008 19.0678 95.0565 19.08 95.1125 19.077C95.1802 19.0748 95.2477 19.0687 95.3147 19.0586Z" fill="white"/>
<path d="M98.2258 18.5785L98.7152 18.6393C98.654 18.9029 98.5042 19.1376 98.2908 19.3041C98.0215 19.4795 97.7017 19.5608 97.3813 19.5353C97.0609 19.5097 96.758 19.3786 96.52 19.1626C96.2814 18.9109 96.1621 18.5582 96.1621 18.1046C96.1621 17.6332 96.2828 17.2682 96.5242 17.0099C96.6443 16.8815 96.7906 16.7804 96.9531 16.7133C97.1155 16.6462 97.2905 16.6147 97.4662 16.6209C97.637 16.6152 97.8071 16.6463 97.9647 16.7122C98.1224 16.7781 98.264 16.8772 98.38 17.0028C98.6176 17.2574 98.735 17.6138 98.735 18.0749C98.735 18.1032 98.735 18.1456 98.735 18.2008H96.6543C96.6519 18.4604 96.7444 18.7119 96.9146 18.908C96.9888 18.9878 97.0792 19.0509 97.1796 19.0931C97.2801 19.1353 97.3884 19.1556 97.4974 19.1527C97.6569 19.1556 97.813 19.1059 97.9415 19.0113C98.0764 18.8978 98.1753 18.7474 98.2258 18.5785ZM96.6699 17.8133H98.2258C98.2205 17.6235 98.1584 17.4398 98.0476 17.2857C97.9776 17.1977 97.8882 17.1271 97.7863 17.0795C97.6845 17.0318 97.573 17.0085 97.4606 17.0113C97.3593 17.0091 97.2586 17.0274 97.1645 17.065C97.0705 17.1027 96.985 17.159 96.9132 17.2305C96.7622 17.3873 96.6762 17.5956 96.6727 17.8133H96.6699Z" fill="white"/>
<path d="M101.659 19.4823V19.1301C101.578 19.2628 101.462 19.3713 101.325 19.4443C101.188 19.5172 101.033 19.5518 100.878 19.5445C100.66 19.5459 100.446 19.4819 100.264 19.3606C100.074 19.2342 99.9237 19.0561 99.8313 18.8472C99.7245 18.609 99.6719 18.3501 99.6771 18.0891C99.6746 17.8296 99.7227 17.5721 99.8186 17.3309C99.902 17.1169 100.05 16.9343 100.243 16.809C100.428 16.6876 100.644 16.6241 100.865 16.6265C101.015 16.6244 101.163 16.6582 101.297 16.7251C101.432 16.7921 101.548 16.8902 101.636 17.0113V15.6279H102.107V19.4823H101.659ZM100.164 18.0891C100.164 18.4469 100.239 18.7128 100.39 18.891C100.453 18.9727 100.534 19.039 100.626 19.0848C100.718 19.1307 100.82 19.1548 100.923 19.1555C101.025 19.156 101.125 19.1334 101.216 19.0895C101.307 19.0457 101.388 18.9817 101.451 18.9024C101.595 18.7326 101.667 18.4747 101.667 18.1287C101.667 17.7468 101.594 17.4653 101.447 17.28C101.383 17.1963 101.3 17.1284 101.206 17.0818C101.111 17.0352 101.007 17.011 100.902 17.0113C100.8 17.0103 100.699 17.0332 100.608 17.0782C100.516 17.1231 100.436 17.1888 100.374 17.2701C100.234 17.4427 100.164 17.7142 100.164 18.0848V18.0891Z" fill="white"/>
<path d="M105.475 19.4825V15.6281H106.803C107.033 15.622 107.263 15.6405 107.489 15.6833C107.698 15.7297 107.892 15.8269 108.055 15.9662C108.261 16.1426 108.419 16.3697 108.511 16.6253C108.617 16.9192 108.668 17.2297 108.663 17.5418C108.666 17.8048 108.632 18.0669 108.559 18.3198C108.504 18.5218 108.415 18.7131 108.296 18.8856C108.201 19.022 108.082 19.1404 107.946 19.2349C107.805 19.3254 107.649 19.3905 107.486 19.4273C107.283 19.474 107.075 19.4963 106.866 19.4938L105.475 19.4825ZM105.985 19.027H106.807C107.009 19.0342 107.211 19.0104 107.405 18.9563C107.535 18.9184 107.654 18.85 107.752 18.7568C107.883 18.6185 107.98 18.4514 108.035 18.2689C108.108 18.0283 108.142 17.7777 108.137 17.5263C108.155 17.2044 108.087 16.8835 107.939 16.597C107.83 16.4029 107.66 16.2498 107.456 16.1613C107.242 16.099 107.019 16.0727 106.796 16.0835H105.987L105.985 19.027Z" fill="white"/>
<path d="M109.837 16.1686V15.624H110.311V16.1686H109.837ZM109.837 19.4784V16.6863H110.311V19.4826L109.837 19.4784Z" fill="white"/>
<path d="M111.489 19.7088L111.948 19.7781C111.952 19.838 111.969 19.8964 111.996 19.9497C112.024 20.003 112.062 20.0501 112.108 20.0879C112.25 20.1828 112.419 20.2289 112.589 20.2195C112.768 20.2303 112.946 20.1843 113.097 20.0879C113.218 19.9971 113.303 19.8671 113.339 19.7202C113.37 19.519 113.381 19.3153 113.373 19.112C113.281 19.228 113.163 19.3214 113.029 19.3849C112.895 19.4484 112.749 19.4803 112.601 19.4783C112.429 19.4869 112.259 19.4535 112.103 19.381C111.948 19.3085 111.813 19.1992 111.709 19.0625C111.497 18.7769 111.386 18.4283 111.394 18.0723C111.39 17.8192 111.439 17.568 111.535 17.334C111.622 17.1222 111.77 16.941 111.96 16.8135C112.151 16.6879 112.376 16.6233 112.605 16.6282C112.763 16.626 112.919 16.6612 113.061 16.7307C113.203 16.8003 113.326 16.9023 113.421 17.0285V16.6918H113.857V19.1049C113.857 19.5396 113.812 19.8475 113.724 20.0285C113.631 20.2118 113.483 20.3606 113.299 20.4528C113.081 20.5647 112.837 20.6192 112.592 20.6113C112.306 20.6245 112.023 20.5457 111.784 20.3864C111.682 20.3077 111.601 20.2042 111.549 20.0857C111.497 19.9672 111.477 19.8376 111.489 19.7088ZM111.879 18.0327C111.879 18.3991 111.953 18.665 112.098 18.8333C112.166 18.9124 112.25 18.9759 112.344 19.0194C112.438 19.063 112.541 19.0856 112.645 19.0856C112.749 19.0856 112.852 19.063 112.946 19.0194C113.04 18.9759 113.124 18.9124 113.192 18.8333C113.333 18.6664 113.412 18.409 113.412 18.0469C113.433 17.7699 113.352 17.4951 113.185 17.2732C113.118 17.1919 113.035 17.1265 112.94 17.0814C112.846 17.0364 112.742 17.013 112.637 17.0129C112.534 17.0126 112.433 17.0355 112.34 17.0801C112.247 17.1247 112.165 17.1897 112.101 17.2703C111.938 17.4893 111.859 17.7601 111.879 18.0327Z" fill="white"/>
<path d="M115.11 16.1686V15.624H115.584V16.1686H115.11ZM115.11 19.4784V16.6863H115.584V19.4826L115.11 19.4784Z" fill="white"/>
<path d="M117.875 19.0586L117.943 19.4829C117.825 19.5094 117.705 19.5237 117.585 19.5254C117.447 19.5329 117.31 19.5046 117.186 19.4433C117.098 19.3961 117.028 19.321 116.987 19.2297C116.935 19.0459 116.915 18.8545 116.929 18.6639V17.0571H116.582V16.6894H116.929V15.9977L117.4 15.7148V16.6894H117.875V17.0571H117.4V18.6894C117.394 18.7769 117.402 18.8648 117.424 18.9497C117.44 18.9885 117.469 19.0209 117.506 19.0416C117.555 19.0678 117.611 19.08 117.667 19.077C117.737 19.075 117.806 19.0689 117.875 19.0586Z" fill="white"/>
<path d="M120.698 19.1331C120.549 19.2665 120.377 19.3732 120.192 19.4485C120.025 19.511 119.848 19.5422 119.67 19.5404C119.414 19.5576 119.161 19.4773 118.963 19.3155C118.882 19.2436 118.818 19.155 118.775 19.0558C118.733 18.9566 118.712 18.8492 118.715 18.7413C118.714 18.6108 118.746 18.4822 118.809 18.3678C118.867 18.2588 118.951 18.1653 119.053 18.0949C119.157 18.0249 119.273 17.9728 119.394 17.9407C119.534 17.9068 119.675 17.8827 119.818 17.8685C120.106 17.8431 120.39 17.7886 120.667 17.7059C120.667 17.6408 120.667 17.5998 120.667 17.5828C120.674 17.5088 120.665 17.4341 120.641 17.3638C120.616 17.2936 120.577 17.2293 120.526 17.1755C120.372 17.0576 120.18 17.0002 119.987 17.0142C119.814 17.0014 119.642 17.0424 119.493 17.1316C119.37 17.2389 119.287 17.3852 119.258 17.5461L118.796 17.4824C118.827 17.3087 118.899 17.1447 119.004 17.0029C119.115 16.8702 119.263 16.7721 119.428 16.72C119.632 16.651 119.846 16.6175 120.062 16.621C120.259 16.6145 120.456 16.6433 120.643 16.7059C120.769 16.7466 120.882 16.8198 120.971 16.918C121.043 17.0122 121.092 17.1223 121.113 17.2391C121.133 17.3839 121.141 17.5301 121.137 17.6762V18.307C121.13 18.5855 121.139 18.8642 121.166 19.1415C121.188 19.2591 121.229 19.3723 121.287 19.4768H120.792C120.74 19.3687 120.709 19.2523 120.698 19.1331ZM120.659 18.0765C120.408 18.1658 120.149 18.226 119.885 18.2561C119.744 18.2708 119.605 18.3026 119.472 18.3509C119.407 18.3782 119.351 18.4216 119.307 18.477C119.264 18.5323 119.236 18.5978 119.225 18.6671C119.214 18.7365 119.221 18.8075 119.245 18.8734C119.269 18.9394 119.31 18.9981 119.363 19.044C119.484 19.137 119.635 19.1818 119.787 19.1698C119.957 19.1726 120.125 19.1317 120.274 19.051C120.41 18.9768 120.519 18.8621 120.586 18.7229C120.645 18.5726 120.671 18.4116 120.663 18.2505L120.659 18.0765Z" fill="white"/>
<path d="M122.397 19.4823V15.6279H122.871V19.4823H122.397Z" fill="white"/>
<path d="M126.244 19.483V15.6286H127.698C127.894 15.6247 128.09 15.637 128.284 15.6654C128.454 15.6901 128.617 15.7519 128.76 15.8465C128.894 15.9415 129 16.0697 129.069 16.2185C129.172 16.439 129.208 16.6849 129.174 16.9258C129.139 17.1668 129.035 17.3924 128.874 17.5749C128.664 17.8026 128.288 17.9158 127.742 17.9158H126.752V19.483H126.244ZM126.755 17.4617H127.745C128.074 17.4617 128.311 17.3995 128.452 17.2779C128.523 17.2119 128.578 17.1312 128.614 17.0415C128.65 16.9518 128.666 16.8553 128.66 16.7588C128.664 16.6117 128.621 16.4672 128.538 16.3458C128.461 16.2343 128.347 16.1537 128.216 16.118C128.059 16.0895 127.9 16.0781 127.741 16.0841H126.751L126.755 17.4617Z" fill="white"/>
<path d="M130.296 19.4823V15.6279H130.771V19.4823H130.296Z" fill="white"/>
<path d="M133.862 19.1331C133.713 19.2668 133.542 19.3735 133.356 19.4485C133.189 19.511 133.012 19.5422 132.834 19.5404C132.578 19.5574 132.326 19.477 132.127 19.3155C132.046 19.2436 131.982 19.155 131.939 19.0558C131.897 18.9566 131.876 18.8492 131.879 18.7413C131.878 18.6108 131.91 18.4822 131.973 18.3678C132.031 18.2588 132.115 18.1653 132.217 18.0949C132.322 18.0249 132.437 17.9728 132.558 17.9407C132.698 17.9071 132.84 17.883 132.982 17.8685C133.27 17.8431 133.554 17.7886 133.831 17.7059C133.831 17.6408 133.831 17.5998 133.831 17.5828C133.839 17.5093 133.831 17.4349 133.808 17.3647C133.785 17.2944 133.747 17.2299 133.697 17.1755C133.543 17.0576 133.351 17.0002 133.158 17.0142C132.985 17.0016 132.813 17.0426 132.664 17.1316C132.541 17.2393 132.459 17.3854 132.429 17.5461L131.967 17.4824C131.999 17.3087 132.07 17.1447 132.175 17.0029C132.285 16.8713 132.429 16.7733 132.592 16.72C132.796 16.6511 133.01 16.6176 133.226 16.621C133.423 16.6145 133.62 16.6433 133.807 16.7059C133.933 16.7466 134.046 16.8198 134.135 16.918C134.208 17.0119 134.257 17.1221 134.277 17.2391C134.297 17.3838 134.305 17.5301 134.301 17.6762V18.307C134.293 18.5856 134.303 18.8643 134.332 19.1415C134.352 19.2592 134.392 19.3725 134.451 19.4768H133.957C133.905 19.3688 133.873 19.2524 133.862 19.1331ZM133.823 18.0765C133.573 18.1656 133.314 18.2259 133.05 18.2561C132.909 18.2704 132.771 18.3022 132.637 18.3509C132.561 18.3814 132.496 18.4347 132.451 18.5036C132.407 18.5705 132.384 18.6487 132.384 18.7285C132.383 18.7883 132.395 18.8477 132.419 18.9022C132.444 18.9568 132.48 19.0052 132.526 19.044C132.646 19.1376 132.798 19.1825 132.95 19.1698C133.12 19.1726 133.287 19.1317 133.437 19.051C133.572 18.9768 133.682 18.8621 133.749 18.7229C133.808 18.5726 133.834 18.4116 133.825 18.2505L133.823 18.0765Z" fill="white"/>
<path d="M136.607 19.0586L136.675 19.4829C136.557 19.5094 136.437 19.5237 136.317 19.5254C136.179 19.5329 136.042 19.5046 135.918 19.4433C135.83 19.3958 135.759 19.3208 135.717 19.2297C135.667 19.0456 135.648 18.8544 135.66 18.6639V17.0571H135.312V16.6894H135.66V15.9977L136.13 15.7148V16.6894H136.607V17.0571H136.13V18.6894C136.124 18.777 136.133 18.8649 136.156 18.9497C136.172 18.9885 136.201 19.0209 136.238 19.0416C136.287 19.0678 136.343 19.08 136.399 19.077C136.468 19.075 136.538 19.0689 136.607 19.0586Z" fill="white"/>
<path d="M137.72 19.4826V17.0582H137.296V16.6905H137.72V16.3935C137.713 16.2502 137.73 16.1067 137.771 15.9691C137.816 15.8457 137.9 15.7406 138.012 15.6707C138.158 15.5863 138.325 15.5465 138.494 15.5561C138.642 15.5577 138.79 15.5733 138.935 15.6028L138.865 16.0158C138.771 15.9987 138.677 15.9898 138.582 15.9889C138.472 15.9787 138.362 16.0116 138.276 16.0809C138.205 16.1812 138.174 16.3039 138.187 16.426V16.6834H138.732V17.0512H138.187V19.4826H137.72Z" fill="white"/>
<path d="M139.465 18.0826C139.465 17.5649 139.606 17.183 139.889 16.9341C140.133 16.7257 140.445 16.6148 140.766 16.6229C140.941 16.6166 141.115 16.6469 141.277 16.712C141.439 16.777 141.586 16.8753 141.708 17.0005C141.835 17.1417 141.932 17.3064 141.995 17.4853C142.057 17.6642 142.084 17.8537 142.073 18.043C142.087 18.3346 142.032 18.6255 141.912 18.8916C141.807 19.0955 141.642 19.2631 141.441 19.3726C141.234 19.4861 141.002 19.5446 140.766 19.5423C140.591 19.5496 140.416 19.52 140.253 19.4554C140.09 19.3908 139.943 19.2927 139.82 19.1675C139.583 18.9148 139.465 18.5531 139.465 18.0826ZM139.951 18.0826C139.951 18.4409 140.029 18.7087 140.185 18.886C140.258 18.9698 140.348 19.0369 140.45 19.0829C140.551 19.1289 140.661 19.1527 140.772 19.1527C140.884 19.1527 140.994 19.1289 141.095 19.0829C141.197 19.0369 141.287 18.9698 141.36 18.886C141.516 18.7064 141.594 18.4348 141.594 18.0684C141.614 17.7869 141.53 17.5076 141.359 17.2834C141.286 17.1997 141.195 17.1325 141.094 17.0865C140.993 17.0405 140.883 17.0167 140.772 17.0167C140.661 17.0167 140.551 17.0405 140.449 17.0865C140.348 17.1325 140.258 17.1997 140.185 17.2834C140.029 17.4588 139.951 17.7252 139.951 18.0826Z" fill="white"/>
<path d="M143.168 19.4823V16.6902H143.592V17.1145C143.664 16.9639 143.766 16.8303 143.894 16.7227C143.983 16.6609 144.089 16.6278 144.198 16.6279C144.371 16.6324 144.54 16.6853 144.684 16.7807L144.52 17.2206C144.416 17.1547 144.296 17.119 144.174 17.1173C144.071 17.1154 143.972 17.1483 143.891 17.2107C143.806 17.276 143.745 17.3667 143.715 17.4695C143.661 17.6482 143.634 17.8343 143.636 18.0212V19.4823H143.168Z" fill="white"/>
<path d="M145.505 19.4828V16.6907H145.929V17.0783C146.017 16.9417 146.137 16.8286 146.279 16.7487C146.431 16.6637 146.602 16.6203 146.776 16.6228C146.955 16.6155 147.131 16.6608 147.284 16.753C147.417 16.8363 147.517 16.9633 147.567 17.1122C147.656 16.963 147.783 16.8395 147.934 16.7538C148.085 16.668 148.256 16.6229 148.43 16.6228C148.546 16.6153 148.663 16.632 148.773 16.6716C148.883 16.7113 148.983 16.7732 149.068 16.8534C149.218 17.0076 149.291 17.2424 149.291 17.5606V19.4828H148.822V17.7233C148.828 17.5854 148.813 17.4474 148.775 17.3145C148.743 17.2309 148.685 17.1602 148.608 17.1137C148.523 17.0616 148.425 17.0351 148.325 17.0373C148.235 17.0349 148.145 17.0511 148.061 17.0849C147.977 17.1187 147.901 17.1694 147.837 17.2339C147.692 17.4087 147.622 17.634 147.642 17.8605V19.4828H147.17V17.6681C147.181 17.5024 147.14 17.3374 147.054 17.1957C147.008 17.1405 146.95 17.0973 146.884 17.0697C146.818 17.0421 146.746 17.031 146.675 17.0373C146.544 17.0366 146.416 17.0734 146.305 17.1434C146.191 17.2147 146.104 17.323 146.059 17.4503C146.001 17.6393 145.976 17.8369 145.984 18.0345V19.4828H145.505Z" fill="white"/>
<path d="M56.8065 7.01857L54.5363 1.51074H52.6494V10.0016H54.2011V4.62675L56.4147 10.0016H57.1968L59.4218 4.6211V10.0016H60.9734V1.51074H59.0879L56.8065 7.01857Z" fill="white"/>
<path d="M66.1406 10.0011H68.4773L67.309 6.93457L66.1406 10.0011Z" fill="white"/>
<path d="M127.364 10.0011H129.701L128.531 6.93457L127.364 10.0011Z" fill="white"/>
<path d="M68.1049 1.51074H66.4995L63.0879 10.0016H64.8277L67.3072 3.58714L69.7909 10.0016H71.5293L68.1049 1.51074Z" fill="white"/>
<path d="M79.876 4.18218C79.876 2.60933 78.7445 1.51172 77.1108 1.51172H73.6426V9.99836H75.1985V6.85265H76.3413L78.3569 10.0054H80.1957L78.0118 6.6914C79.0019 6.43539 79.876 5.62067 79.876 4.18218ZM75.1956 2.95586H76.992C77.7671 2.95586 78.289 3.4495 78.289 4.18218C78.289 4.91486 77.7671 5.41982 76.992 5.41982H75.1956V2.95586Z" fill="white"/>
<path d="M89.2841 1.51074H87.294L84.202 5.12747V1.51074H82.6504V10.0016H84.202V7.16426L84.7112 6.58717L87.5896 10.0016H89.5628L85.7325 5.5617L89.2841 1.51074Z" fill="white"/>
<path d="M91.5723 10.0016H97.3305V8.55607H93.1239V6.38915H97.247V4.945H93.1239V2.9563H97.3305V1.51074H91.5723V10.0016Z" fill="white"/>
<path d="M99.5684 2.9563H102.076V10.0016H103.628V2.9563H106.147V1.51074H99.5684V2.9563Z" fill="white"/>
<path d="M112.136 1.51953H108.669V10.0062H110.225V6.85339H112.139C113.743 6.85339 114.905 5.73032 114.905 4.18292C114.902 2.61007 113.765 1.51953 112.136 1.51953ZM110.222 2.96368H112.017C112.793 2.96368 113.315 3.45732 113.315 4.19C113.315 4.92268 112.793 5.41631 112.017 5.41631H110.222V2.96368Z" fill="white"/>
<path d="M118.979 1.51074H117.426V10.0016H122.662V8.55607H118.979V1.51074Z" fill="white"/>
<path d="M129.33 1.51074H127.724L124.312 10.0016H126.051L128.532 3.58714L131.014 10.0016H132.754L129.33 1.51074Z" fill="white"/>
<path d="M140.405 7.6731C140.189 7.98899 139.9 8.24759 139.562 8.42652C139.224 8.60545 138.848 8.69932 138.465 8.69999C136.86 8.69999 135.694 7.46376 135.694 5.76219C135.694 4.06062 136.86 2.82581 138.465 2.82581C138.847 2.831 139.222 2.92697 139.559 3.10578C139.896 3.28459 140.186 3.54111 140.405 3.85411L140.546 4.06911L141.88 3.32511L141.697 3.0691C141.342 2.5399 140.861 2.10788 140.296 1.81241C139.732 1.51694 139.102 1.36741 138.465 1.37743C135.939 1.37743 134.107 3.2162 134.107 5.76219C134.107 8.30818 135.946 10.147 138.465 10.147C139.795 10.147 140.888 9.58118 141.71 8.46377L141.902 8.20352L140.547 7.45952L140.405 7.6731Z" fill="white"/>
<path d="M150 2.9563V1.51074H144.242V10.0016H150V8.55607H145.794V6.38915H149.917V4.945H145.794V2.9563H150Z" fill="white"/>
</g>
<defs>
<clipPath id="clip0_116_17437">
<rect width="150" height="21.9903" fill="white"/>
</clipPath>
</defs>
</svg>
