<svg xmlns="http://www.w3.org/2000/svg" width="50" height="50" fill="none" xmlns:v="https://vecta.io/nano"><rect width="50" height="50" rx="8" fill="url(#A)"/><g stroke="#fff" stroke-width="2" stroke-linecap="round" stroke-linejoin="round"><path d="M25 25L36.25 13.75"/><path d="M32.957 17.044c-1.994-2.001-4.667-3.179-7.489-3.303s-5.588.816-7.75 2.634-3.563 4.381-3.925 7.183.341 5.637 1.97 7.945 4.064 3.921 6.825 4.518 5.646.137 8.083-1.29 4.25-3.718 5.079-6.419.614-5.614-.602-8.163"/><path d="M28.973 21.028c-.929-.926-2.153-1.498-3.46-1.616s-2.613.226-3.693.972-1.864 1.845-2.217 3.109-.252 2.611.285 3.808 1.476 2.168 2.655 2.745 2.522.722 3.797.411 2.4-1.059 3.181-2.113 1.168-2.349 1.093-3.659"/></g><defs><linearGradient id="A" x1="0" y1="25.676" x2="50" y2="25.676" gradientUnits="userSpaceOnUse"><stop stop-color="#00469f"/><stop offset="1" stop-color="#1e79d6"/></linearGradient></defs></svg>