<svg xmlns="http://www.w3.org/2000/svg" width="50" height="50" fill="none" xmlns:v="https://vecta.io/nano"><rect width="50" height="50" rx="8" fill="url(#A)"/><path d="M17.5 35.313c-.249 0-.487-.099-.663-.275a.94.94 0 0 1-.275-.663v-5.004c-.514.245-1.084.35-1.652.305-.481-.035-.948-.176-1.368-.413a3.28 3.28 0 0 1-1.619-2.272 3.28 3.28 0 0 1 .056-1.428c.124-.466.348-.899.658-1.269a3.28 3.28 0 0 1 1.135-.869c.438-.203.915-.306 1.397-.303a3.28 3.28 0 0 1 1.393.319v-5.004c0-.249.099-.487.275-.663s.414-.275.663-.275h5.473c-.245-.514-.35-1.084-.305-1.652a3.28 3.28 0 0 1 1.368-2.432 3.28 3.28 0 0 1 2.745-.5 3.28 3.28 0 0 1 2.137 1.794c.202.438.306.915.303 1.397a3.28 3.28 0 0 1-.319 1.393h5.473a.94.94 0 0 1 .663.275c.176.176.275.414.275.663v5.004c-.514-.245-1.084-.351-1.652-.305a3.28 3.28 0 0 0-2.432 1.368 3.28 3.28 0 0 0-.5 2.745c.124.466.348.899.658 1.269a3.28 3.28 0 0 0 2.532 1.172 3.28 3.28 0 0 0 1.393-.319v5.004a.94.94 0 0 1-.937.938H17.5z" stroke="#fff" stroke-width="2" stroke-linejoin="round"/><defs><linearGradient id="A" x1="0" y1="25.676" x2="50" y2="25.676" gradientUnits="userSpaceOnUse"><stop stop-color="#00469f"/><stop offset="1" stop-color="#1e79d6"/></linearGradient></defs></svg>