<svg xmlns="http://www.w3.org/2000/svg" width="50" height="50" fill="none" xmlns:v="https://vecta.io/nano"><rect width="50" height="50" rx="8" fill="url(#A)"/><g stroke="#fff" stroke-width="2" stroke-linejoin="round"><path d="M25 28a3 3 0 1 0 0-6 3 3 0 1 0 0 6zm-4-9a3 3 0 1 0 0-6 3 3 0 1 0 0 6zm13 6a3 3 0 1 0 0-6 3 3 0 1 0 0 6zm0 10a3 3 0 1 0 0-6 3 3 0 1 0 0 6zm-18 1a3 3 0 1 0 0-6 3 3 0 1 0 0 6z"/><path d="M23.788 22.263l-1.575-3.525m8.937 4.211l-3.3 1.1m3.787 6.114l-4.275-3.325m-4.6.15l-4.525 4.025" stroke-linecap="round"/></g><defs><linearGradient id="A" x1="0" y1="25.676" x2="50" y2="25.676" gradientUnits="userSpaceOnUse"><stop stop-color="#00469f"/><stop offset="1" stop-color="#1e79d6"/></linearGradient></defs></svg>