<svg width="50" height="50" viewBox="0 0 50 50" fill="none" xmlns="http://www.w3.org/2000/svg">
<path d="M6.25 25H14.0625L17.1875 20.3125L23.4375 29.6875L26.5625 25H31.25" stroke="url(#paint0_linear_0_1770)" stroke-width="2" stroke-linecap="round" stroke-linejoin="round"/>
<path d="M5.48828 18.75C5.46875 18.4961 5.46875 18.2227 5.46875 17.9688C5.46875 15.6209 6.28222 13.3455 7.77074 11.5298C9.25927 9.7141 11.3309 8.4702 13.6332 8.00974C15.9355 7.54929 18.3262 7.90072 20.3986 9.00425C22.4709 10.1078 24.097 11.8952 25 14.0625V14.0625C25.903 11.8952 27.5291 10.1078 29.6014 9.00425C31.6738 7.90072 34.0645 7.54929 36.3668 8.00974C38.6691 8.4702 40.7407 9.7141 42.2293 11.5298C43.7178 13.3455 44.5313 15.6209 44.5312 17.9688C44.5313 31.25 25 42.1875 25 42.1875C25 42.1875 17.207 37.8125 11.4648 31.25" stroke="url(#paint1_linear_0_1770)" stroke-width="2" stroke-linecap="round" stroke-linejoin="round"/>
<defs>
<linearGradient id="paint0_linear_0_1770" x1="6.25" y1="25.1267" x2="31.25" y2="25.1267" gradientUnits="userSpaceOnUse">
<stop stop-color="#00469F"/>
<stop offset="1" stop-color="#1E79D6"/>
</linearGradient>
<linearGradient id="paint1_linear_0_1770" x1="5.46875" y1="25.4645" x2="44.5313" y2="25.4645" gradientUnits="userSpaceOnUse">
<stop stop-color="#00469F"/>
<stop offset="1" stop-color="#1E79D6"/>
</linearGradient>
</defs>
</svg>
