<svg width="55" height="53" viewBox="0 0 55 53" fill="none" xmlns="http://www.w3.org/2000/svg">
<path d="M25.7569 44.58V31.8663C25.756 31.6826 25.7066 31.5025 25.6137 31.344C25.5209 31.1856 25.388 31.0544 25.2283 30.9637L13.8813 24.581C13.7285 24.4928 13.555 24.4463 13.3785 24.4463C13.2019 24.4463 13.0285 24.4928 12.8756 24.581L1.52866 30.9637C1.36897 31.0544 1.23601 31.1856 1.14319 31.344C1.05038 31.5025 1.00099 31.6826 1 31.8663V44.58C1.00099 44.7636 1.05038 44.9438 1.14319 45.1023C1.23601 45.2607 1.36897 45.3919 1.52866 45.4826L12.8756 51.8652C13.0285 51.9535 13.2019 52 13.3785 52C13.555 52 13.7285 51.9535 13.8813 51.8652L25.2283 45.4826C25.388 45.3919 25.5209 45.2607 25.6137 45.1023C25.7066 44.9438 25.756 44.7636 25.7569 44.58V44.58Z" stroke="url(#paint0_linear_11_25876)" stroke-width="2" stroke-linecap="round" stroke-linejoin="round"/>
<path d="M53.4847 44.58V31.8663C53.4837 31.6826 53.4343 31.5025 53.3415 31.344C53.2487 31.1856 53.1158 31.0544 52.9561 30.9637L41.6091 24.581C41.4562 24.4928 41.2828 24.4463 41.1063 24.4463C40.9297 24.4463 40.7563 24.4928 40.6034 24.581L29.2564 30.9637C29.0968 31.0544 28.9638 31.1856 28.871 31.344C28.7782 31.5025 28.7288 31.6826 28.7278 31.8663V44.58C28.7288 44.7636 28.7782 44.9438 28.871 45.1023C28.9638 45.2607 29.0968 45.3919 29.2564 45.4826L40.6034 51.8652C40.7563 51.9535 40.9297 52 41.1063 52C41.2828 52 41.4562 51.9535 41.6091 51.8652L52.9561 45.4826C53.1158 45.3919 53.2487 45.2607 53.3415 45.1023C53.4343 44.9438 53.4837 44.7636 53.4847 44.58V44.58Z" stroke="url(#paint1_linear_11_25876)" stroke-width="2" stroke-linecap="round" stroke-linejoin="round"/>
<path d="M39.6202 21.1337V8.41999C39.6192 8.23635 39.5698 8.05621 39.477 7.89774C39.3842 7.73927 39.2513 7.60808 39.0916 7.51739L27.7446 1.13475C27.5917 1.04647 27.4183 1 27.2418 1C27.0652 1 26.8918 1.04647 26.7389 1.13475L15.3919 7.51739C15.2323 7.60808 15.0993 7.73927 15.0065 7.89774C14.9137 8.05621 14.8643 8.23635 14.8633 8.41999V21.1337C14.8643 21.3174 14.9137 21.4975 15.0065 21.656C15.0993 21.8144 15.2323 21.9456 15.3919 22.0363L26.7389 28.419C26.8918 28.5072 27.0652 28.5537 27.2418 28.5537C27.4183 28.5537 27.5917 28.5072 27.7446 28.419L39.0916 22.0363C39.2513 21.9456 39.3842 21.8144 39.477 21.656C39.5698 21.4975 39.6192 21.3174 39.6202 21.1337V21.1337Z" stroke="url(#paint2_linear_11_25876)" stroke-width="2" stroke-linecap="round" stroke-linejoin="round"/>
<path d="M25.6151 31.3369L13.4945 38.2224L1.14185 31.3369" stroke="url(#paint3_linear_11_25876)" stroke-width="2" stroke-linecap="round" stroke-linejoin="round"/>
<path d="M53.3429 31.3369L41.2223 38.2224L28.8696 31.3369" stroke="url(#paint4_linear_11_25876)" stroke-width="2" stroke-linecap="round" stroke-linejoin="round"/>
<path d="M39.4791 7.89062L27.3585 14.7761L15.0059 7.89062" stroke="url(#paint5_linear_11_25876)" stroke-width="2" stroke-linecap="round" stroke-linejoin="round"/>
<path d="M13.4945 38.2224L13.3784 51.9935" stroke="url(#paint6_linear_11_25876)" stroke-width="2" stroke-linecap="round" stroke-linejoin="round"/>
<path d="M41.2222 38.2224L41.1062 51.9935" stroke="url(#paint7_linear_11_25876)" stroke-width="2" stroke-linecap="round" stroke-linejoin="round"/>
<path d="M27.3582 14.7754L27.2422 28.5464" stroke="url(#paint8_linear_11_25876)" stroke-width="2" stroke-linecap="round" stroke-linejoin="round"/>
<defs>
<linearGradient id="paint0_linear_11_25876" x1="1" y1="38.5955" x2="25.7569" y2="38.5955" gradientUnits="userSpaceOnUse">
<stop stop-color="#00469F"/>
<stop offset="1" stop-color="#1E79D6"/>
</linearGradient>
<linearGradient id="paint1_linear_11_25876" x1="28.7278" y1="38.5955" x2="53.4847" y2="38.5955" gradientUnits="userSpaceOnUse">
<stop stop-color="#00469F"/>
<stop offset="1" stop-color="#1E79D6"/>
</linearGradient>
<linearGradient id="paint2_linear_11_25876" x1="14.8633" y1="15.1492" x2="39.6202" y2="15.1492" gradientUnits="userSpaceOnUse">
<stop stop-color="#00469F"/>
<stop offset="1" stop-color="#1E79D6"/>
</linearGradient>
<linearGradient id="paint3_linear_11_25876" x1="1.14185" y1="34.8727" x2="25.6151" y2="34.8727" gradientUnits="userSpaceOnUse">
<stop stop-color="#00469F"/>
<stop offset="1" stop-color="#1E79D6"/>
</linearGradient>
<linearGradient id="paint4_linear_11_25876" x1="28.8696" y1="34.8727" x2="53.3429" y2="34.8727" gradientUnits="userSpaceOnUse">
<stop stop-color="#00469F"/>
<stop offset="1" stop-color="#1E79D6"/>
</linearGradient>
<linearGradient id="paint5_linear_11_25876" x1="15.0059" y1="11.4264" x2="39.4791" y2="11.4264" gradientUnits="userSpaceOnUse">
<stop stop-color="#00469F"/>
<stop offset="1" stop-color="#1E79D6"/>
</linearGradient>
<linearGradient id="paint6_linear_11_25876" x1="13.3784" y1="45.294" x2="13.4945" y2="45.294" gradientUnits="userSpaceOnUse">
<stop stop-color="#00469F"/>
<stop offset="1" stop-color="#1E79D6"/>
</linearGradient>
<linearGradient id="paint7_linear_11_25876" x1="41.1062" y1="45.294" x2="41.2222" y2="45.294" gradientUnits="userSpaceOnUse">
<stop stop-color="#00469F"/>
<stop offset="1" stop-color="#1E79D6"/>
</linearGradient>
<linearGradient id="paint8_linear_11_25876" x1="27.2422" y1="21.847" x2="27.3582" y2="21.847" gradientUnits="userSpaceOnUse">
<stop stop-color="#00469F"/>
<stop offset="1" stop-color="#1E79D6"/>
</linearGradient>
</defs>
</svg>
