<svg width="648" height="451" viewBox="0 0 648 451" fill="none" xmlns="http://www.w3.org/2000/svg">
<g filter="url(#filter0_d_10_1005)">
<rect x="162" y="45.918" width="292" height="73" rx="5" fill="white" shape-rendering="crispEdges"/>
<rect x="169.618" y="52.418" width="60" height="60" rx="3" fill="#BFD5ED"/>
<path d="M192.118 88.668H184.618C184.286 88.668 183.968 88.5363 183.734 88.3019C183.5 88.0674 183.368 87.7495 183.368 87.418V77.418C183.368 77.0864 183.5 76.7685 183.734 76.5341C183.968 76.2997 184.286 76.168 184.618 76.168H192.118L203.368 67.418V97.418L192.118 88.668Z" stroke="#393E50" stroke-width="2" stroke-linecap="round" stroke-linejoin="round"/>
<path d="M217.118 78.668L209.618 86.168" stroke="#393E50" stroke-width="2" stroke-linecap="round" stroke-linejoin="round"/>
<path d="M217.118 86.168L209.618 78.668" stroke="#393E50" stroke-width="2" stroke-linecap="round" stroke-linejoin="round"/>
<rect x="245.618" y="63.918" width="200.764" height="12" rx="5" fill="#D9D9D9"/>
<rect x="245.618" y="88.918" width="92.7692" height="12" rx="5" fill="#D9D9D9"/>
</g>
<rect x="226" y="136.918" width="293" height="72" rx="5" fill="white"/>
<rect x="235.118" y="142.918" width="60" height="60" rx="3" fill="url(#paint0_linear_10_1005)"/>
<path d="M260.118 190.418L262.618 177.918L252.618 174.168L270.118 155.418L267.618 167.918L277.618 171.668L260.118 190.418Z" stroke="white" stroke-width="2" stroke-linecap="round" stroke-linejoin="round"/>
<rect x="309.118" y="154.418" width="200.764" height="12" rx="5" fill="#D9D9D9"/>
<rect x="309.118" y="179.418" width="92.7692" height="12" rx="5" fill="#D9D9D9"/>
<rect x="226.5" y="137.418" width="292" height="71" rx="4.5" stroke="#084C94" stroke-opacity="0.2"/>
<g filter="url(#filter1_d_10_1005)">
<rect x="226" y="316.918" width="293" height="72" rx="5" fill="white" shape-rendering="crispEdges"/>
<rect x="235.118" y="322.918" width="60" height="60" rx="3" fill="url(#paint1_linear_10_1005)"/>
<path d="M264.576 349.168V355.418" stroke="white" stroke-width="2" stroke-linecap="round" stroke-linejoin="round"/>
<path d="M262.962 339.168L249.212 362.918C248.993 363.297 248.877 363.728 248.877 364.166C248.876 364.604 248.991 365.034 249.209 365.414C249.428 365.794 249.742 366.11 250.121 366.33C250.5 366.55 250.93 366.666 251.368 366.668H278.868C279.306 366.666 279.736 366.55 280.115 366.33C280.494 366.11 280.808 365.794 281.026 365.414C281.245 365.034 281.359 364.604 281.359 364.166C281.359 363.728 281.243 363.297 281.024 362.918L267.274 339.168C267.057 338.788 266.743 338.472 266.364 338.253C265.986 338.033 265.556 337.918 265.118 337.918C264.68 337.918 264.25 338.033 263.872 338.253C263.493 338.472 263.179 338.788 262.962 339.168V339.168Z" stroke="white" stroke-width="2" stroke-linecap="round" stroke-linejoin="round"/>
<path d="M264.576 361.835C265.313 361.835 265.91 361.238 265.91 360.501C265.91 359.765 265.313 359.168 264.576 359.168C263.84 359.168 263.243 359.765 263.243 360.501C263.243 361.238 263.84 361.835 264.576 361.835Z" fill="white"/>
<rect x="309.118" y="334.418" width="200.764" height="12" rx="5" fill="#D9D9D9"/>
<rect x="309.118" y="359.418" width="92.7692" height="12" rx="5" fill="#D9D9D9"/>
</g>
<rect x="111" y="226.918" width="293" height="72" rx="5" fill="url(#paint2_linear_10_1005)"/>
<path d="M146.884 242.293L126.259 277.918C125.93 278.487 125.757 279.133 125.756 279.79C125.756 280.447 125.928 281.093 126.255 281.662C126.583 282.232 127.054 282.706 127.623 283.036C128.191 283.366 128.836 283.541 129.493 283.543H170.743C171.4 283.541 172.045 283.366 172.613 283.036C173.182 282.706 173.653 282.232 173.981 281.662C174.308 281.093 174.48 280.447 174.48 279.79C174.479 279.133 174.306 278.487 173.977 277.918L153.352 242.293C153.026 241.723 152.555 241.25 151.987 240.92C151.419 240.591 150.774 240.417 150.118 240.417C149.461 240.417 148.816 240.591 148.248 240.92C147.681 241.25 147.21 241.723 146.884 242.293Z" fill="white"/>
<path d="M149.305 257.293V266.668" stroke="#DB293D" stroke-width="2" stroke-linecap="round" stroke-linejoin="round"/>
<path d="M149.305 276.293C150.41 276.293 151.305 275.398 151.305 274.293C151.305 273.188 150.41 272.293 149.305 272.293C148.201 272.293 147.305 273.188 147.305 274.293C147.305 275.398 148.201 276.293 149.305 276.293Z" fill="#DB293D"/>
<rect x="194.118" y="244.418" width="200.764" height="12" rx="5" fill="white"/>
<rect x="194.118" y="269.418" width="92.7692" height="12" rx="5" fill="white"/>
<path d="M404.843 269.295C404.843 272.24 407.231 274.628 410.176 274.628C413.122 274.628 415.51 272.24 415.51 269.295C415.51 266.349 413.122 263.962 410.176 263.962C407.231 263.962 404.843 266.349 404.843 269.295ZM489.324 269.295V270.295C489.877 270.295 490.324 269.847 490.324 269.295H489.324ZM489.324 5.18457H490.324C490.324 4.63229 489.877 4.18457 489.324 4.18457V5.18457ZM321.306 5.18457V4.18457C320.754 4.18457 320.306 4.63229 320.306 5.18457H321.306ZM320.599 27.7561C320.989 28.1466 321.622 28.1466 322.013 27.7561L328.377 21.3921C328.768 21.0016 328.768 20.3684 328.377 19.9779C327.986 19.5874 327.353 19.5874 326.963 19.9779L321.306 25.6347L315.649 19.9779C315.259 19.5874 314.625 19.5874 314.235 19.9779C313.844 20.3684 313.844 21.0016 314.235 21.3921L320.599 27.7561ZM322.306 25.2269C322.306 24.6746 321.858 24.2269 321.306 24.2269C320.754 24.2269 320.306 24.6746 320.306 25.2269H322.306ZM320.306 21.5829C320.306 22.1351 320.754 22.5829 321.306 22.5829C321.858 22.5829 322.306 22.1351 322.306 21.5829H320.306ZM322.306 17.9388C322.306 17.3865 321.858 16.9388 321.306 16.9388C320.754 16.9388 320.306 17.3865 320.306 17.9388H322.306ZM320.306 14.2947C320.306 14.847 320.754 15.2947 321.306 15.2947C321.858 15.2947 322.306 14.847 322.306 14.2947H320.306ZM322.306 10.6507C322.306 10.0984 321.858 9.65067 321.306 9.65067C320.754 9.65067 320.306 10.0984 320.306 10.6507H322.306ZM320.306 7.0066C320.306 7.55889 320.754 8.0066 321.306 8.0066C321.858 8.0066 322.306 7.55889 322.306 7.0066H320.306ZM323.306 6.18457C323.858 6.18457 324.306 5.73686 324.306 5.18457C324.306 4.63229 323.858 4.18457 323.306 4.18457V6.18457ZM327.307 4.18457C326.754 4.18457 326.307 4.63229 326.307 5.18457C326.307 5.73686 326.754 6.18457 327.307 6.18457V4.18457ZM331.307 6.18457C331.859 6.18457 332.307 5.73686 332.307 5.18457C332.307 4.63229 331.859 4.18457 331.307 4.18457V6.18457ZM335.307 4.18457C334.755 4.18457 334.307 4.63229 334.307 5.18457C334.307 5.73686 334.755 6.18457 335.307 6.18457V4.18457ZM339.308 6.18457C339.86 6.18457 340.308 5.73686 340.308 5.18457C340.308 4.63229 339.86 4.18457 339.308 4.18457V6.18457ZM343.308 4.18457C342.756 4.18457 342.308 4.63229 342.308 5.18457C342.308 5.73686 342.756 6.18457 343.308 6.18457V4.18457ZM347.309 6.18457C347.861 6.18457 348.309 5.73686 348.309 5.18457C348.309 4.63229 347.861 4.18457 347.309 4.18457V6.18457ZM351.309 4.18457C350.757 4.18457 350.309 4.63229 350.309 5.18457C350.309 5.73686 350.757 6.18457 351.309 6.18457V4.18457ZM355.31 6.18457C355.862 6.18457 356.31 5.73686 356.31 5.18457C356.31 4.63229 355.862 4.18457 355.31 4.18457V6.18457ZM359.31 4.18457C358.758 4.18457 358.31 4.63229 358.31 5.18457C358.31 5.73686 358.758 6.18457 359.31 6.18457V4.18457ZM363.31 6.18457C363.863 6.18457 364.31 5.73686 364.31 5.18457C364.31 4.63229 363.863 4.18457 363.31 4.18457V6.18457ZM367.311 4.18457C366.759 4.18457 366.311 4.63229 366.311 5.18457C366.311 5.73686 366.759 6.18457 367.311 6.18457V4.18457ZM371.311 6.18457C371.864 6.18457 372.311 5.73686 372.311 5.18457C372.311 4.63229 371.864 4.18457 371.311 4.18457V6.18457ZM375.312 4.18457C374.76 4.18457 374.312 4.63229 374.312 5.18457C374.312 5.73686 374.76 6.18457 375.312 6.18457V4.18457ZM379.312 6.18457C379.865 6.18457 380.312 5.73686 380.312 5.18457C380.312 4.63229 379.865 4.18457 379.312 4.18457V6.18457ZM383.313 4.18457C382.76 4.18457 382.313 4.63229 382.313 5.18457C382.313 5.73686 382.76 6.18457 383.313 6.18457V4.18457ZM387.313 6.18457C387.865 6.18457 388.313 5.73686 388.313 5.18457C388.313 4.63229 387.865 4.18457 387.313 4.18457V6.18457ZM391.314 4.18457C390.761 4.18457 390.314 4.63229 390.314 5.18457C390.314 5.73686 390.761 6.18457 391.314 6.18457V4.18457ZM395.314 6.18457C395.866 6.18457 396.314 5.73686 396.314 5.18457C396.314 4.63229 395.866 4.18457 395.314 4.18457V6.18457ZM399.314 4.18457C398.762 4.18457 398.314 4.63229 398.314 5.18457C398.314 5.73686 398.762 6.18457 399.314 6.18457V4.18457ZM403.315 6.18457C403.867 6.18457 404.315 5.73686 404.315 5.18457C404.315 4.63229 403.867 4.18457 403.315 4.18457V6.18457ZM407.315 4.18457C406.763 4.18457 406.315 4.63229 406.315 5.18457C406.315 5.73686 406.763 6.18457 407.315 6.18457V4.18457ZM411.316 6.18457C411.868 6.18457 412.316 5.73686 412.316 5.18457C412.316 4.63229 411.868 4.18457 411.316 4.18457V6.18457ZM415.316 4.18457C414.764 4.18457 414.316 4.63229 414.316 5.18457C414.316 5.73686 414.764 6.18457 415.316 6.18457V4.18457ZM419.317 6.18457C419.869 6.18457 420.317 5.73686 420.317 5.18457C420.317 4.63229 419.869 4.18457 419.317 4.18457V6.18457ZM423.317 4.18457C422.765 4.18457 422.317 4.63229 422.317 5.18457C422.317 5.73686 422.765 6.18457 423.317 6.18457V4.18457ZM427.317 6.18457C427.87 6.18457 428.317 5.73686 428.317 5.18457C428.317 4.63229 427.87 4.18457 427.317 4.18457V6.18457ZM431.318 4.18457C430.766 4.18457 430.318 4.63229 430.318 5.18457C430.318 5.73686 430.766 6.18457 431.318 6.18457V4.18457ZM435.318 6.18457C435.871 6.18457 436.318 5.73686 436.318 5.18457C436.318 4.63229 435.871 4.18457 435.318 4.18457V6.18457ZM439.319 4.18457C438.766 4.18457 438.319 4.63229 438.319 5.18457C438.319 5.73686 438.766 6.18457 439.319 6.18457V4.18457ZM443.319 6.18457C443.871 6.18457 444.319 5.73686 444.319 5.18457C444.319 4.63229 443.871 4.18457 443.319 4.18457V6.18457ZM447.32 4.18457C446.767 4.18457 446.32 4.63229 446.32 5.18457C446.32 5.73686 446.767 6.18457 447.32 6.18457V4.18457ZM451.32 6.18457C451.872 6.18457 452.32 5.73686 452.32 5.18457C452.32 4.63229 451.872 4.18457 451.32 4.18457V6.18457ZM455.321 4.18457C454.768 4.18457 454.321 4.63229 454.321 5.18457C454.321 5.73686 454.768 6.18457 455.321 6.18457V4.18457ZM459.321 6.18457C459.873 6.18457 460.321 5.73686 460.321 5.18457C460.321 4.63229 459.873 4.18457 459.321 4.18457V6.18457ZM463.321 4.18457C462.769 4.18457 462.321 4.63229 462.321 5.18457C462.321 5.73686 462.769 6.18457 463.321 6.18457V4.18457ZM467.322 6.18457C467.874 6.18457 468.322 5.73686 468.322 5.18457C468.322 4.63229 467.874 4.18457 467.322 4.18457V6.18457ZM471.322 4.18457C470.77 4.18457 470.322 4.63229 470.322 5.18457C470.322 5.73686 470.77 6.18457 471.322 6.18457V4.18457ZM475.323 6.18457C475.875 6.18457 476.323 5.73686 476.323 5.18457C476.323 4.63229 475.875 4.18457 475.323 4.18457V6.18457ZM479.323 4.18457C478.771 4.18457 478.323 4.63229 478.323 5.18457C478.323 5.73686 478.771 6.18457 479.323 6.18457V4.18457ZM483.324 6.18457C483.876 6.18457 484.324 5.73686 484.324 5.18457C484.324 4.63229 483.876 4.18457 483.324 4.18457V6.18457ZM487.324 4.18457C486.772 4.18457 486.324 4.63229 486.324 5.18457C486.324 5.73686 486.772 6.18457 487.324 6.18457V4.18457ZM488.324 7.18541C488.324 7.73769 488.772 8.18541 489.324 8.18541C489.877 8.18541 490.324 7.73769 490.324 7.18541H488.324ZM490.324 11.1871C490.324 10.6348 489.877 10.1871 489.324 10.1871C488.772 10.1871 488.324 10.6348 488.324 11.1871H490.324ZM488.324 15.1887C488.324 15.741 488.772 16.1887 489.324 16.1887C489.877 16.1887 490.324 15.741 490.324 15.1887H488.324ZM490.324 19.1904C490.324 18.6381 489.877 18.1904 489.324 18.1904C488.772 18.1904 488.324 18.6381 488.324 19.1904H490.324ZM488.324 23.1921C488.324 23.7444 488.772 24.1921 489.324 24.1921C489.877 24.1921 490.324 23.7444 490.324 23.1921H488.324ZM490.324 27.1938C490.324 26.6415 489.877 26.1938 489.324 26.1938C488.772 26.1938 488.324 26.6415 488.324 27.1938H490.324ZM488.324 31.1954C488.324 31.7477 488.772 32.1954 489.324 32.1954C489.877 32.1954 490.324 31.7477 490.324 31.1954H488.324ZM490.324 35.1971C490.324 34.6448 489.877 34.1971 489.324 34.1971C488.772 34.1971 488.324 34.6448 488.324 35.1971H490.324ZM488.324 39.1988C488.324 39.7511 488.772 40.1988 489.324 40.1988C489.877 40.1988 490.324 39.7511 490.324 39.1988H488.324ZM490.324 43.2004C490.324 42.6482 489.877 42.2004 489.324 42.2004C488.772 42.2004 488.324 42.6482 488.324 43.2004H490.324ZM488.324 47.2021C488.324 47.7544 488.772 48.2021 489.324 48.2021C489.877 48.2021 490.324 47.7544 490.324 47.2021H488.324ZM490.324 51.2038C490.324 50.6515 489.877 50.2038 489.324 50.2038C488.772 50.2038 488.324 50.6515 488.324 51.2038H490.324ZM488.324 55.2055C488.324 55.7577 488.772 56.2055 489.324 56.2055C489.877 56.2055 490.324 55.7577 490.324 55.2055H488.324ZM490.324 59.2071C490.324 58.6548 489.877 58.2071 489.324 58.2071C488.772 58.2071 488.324 58.6548 488.324 59.2071H490.324ZM488.324 63.2088C488.324 63.7611 488.772 64.2088 489.324 64.2088C489.877 64.2088 490.324 63.7611 490.324 63.2088H488.324ZM490.324 67.2105C490.324 66.6582 489.877 66.2105 489.324 66.2105C488.772 66.2105 488.324 66.6582 488.324 67.2105H490.324ZM488.324 71.2121C488.324 71.7644 488.772 72.2121 489.324 72.2121C489.877 72.2121 490.324 71.7644 490.324 71.2121H488.324ZM490.324 75.2138C490.324 74.6615 489.877 74.2138 489.324 74.2138C488.772 74.2138 488.324 74.6615 488.324 75.2138H490.324ZM488.324 79.2155C488.324 79.7678 488.772 80.2155 489.324 80.2155C489.877 80.2155 490.324 79.7678 490.324 79.2155H488.324ZM490.324 83.2172C490.324 82.6649 489.877 82.2172 489.324 82.2172C488.772 82.2172 488.324 82.6649 488.324 83.2172H490.324ZM488.324 87.2188C488.324 87.7711 488.772 88.2188 489.324 88.2188C489.877 88.2188 490.324 87.7711 490.324 87.2188H488.324ZM490.324 91.2205C490.324 90.6682 489.877 90.2205 489.324 90.2205C488.772 90.2205 488.324 90.6682 488.324 91.2205H490.324ZM488.324 95.2222C488.324 95.7745 488.772 96.2222 489.324 96.2222C489.877 96.2222 490.324 95.7745 490.324 95.2222H488.324ZM490.324 99.2238C490.324 98.6716 489.877 98.2238 489.324 98.2238C488.772 98.2238 488.324 98.6716 488.324 99.2238H490.324ZM488.324 103.226C488.324 103.778 488.772 104.226 489.324 104.226C489.877 104.226 490.324 103.778 490.324 103.226H488.324ZM490.324 107.227C490.324 106.675 489.877 106.227 489.324 106.227C488.772 106.227 488.324 106.675 488.324 107.227H490.324ZM488.324 111.229C488.324 111.781 488.772 112.229 489.324 112.229C489.877 112.229 490.324 111.781 490.324 111.229H488.324ZM490.324 115.231C490.324 114.678 489.877 114.231 489.324 114.231C488.772 114.231 488.324 114.678 488.324 115.231H490.324ZM488.324 119.232C488.324 119.784 488.772 120.232 489.324 120.232C489.877 120.232 490.324 119.784 490.324 119.232H488.324ZM490.324 123.234C490.324 122.682 489.877 122.234 489.324 122.234C488.772 122.234 488.324 122.682 488.324 123.234H490.324ZM488.324 127.236C488.324 127.788 488.772 128.236 489.324 128.236C489.877 128.236 490.324 127.788 490.324 127.236H488.324ZM490.324 131.237C490.324 130.685 489.877 130.237 489.324 130.237C488.772 130.237 488.324 130.685 488.324 131.237H490.324ZM488.324 135.239C488.324 135.791 488.772 136.239 489.324 136.239C489.877 136.239 490.324 135.791 490.324 135.239H488.324ZM490.324 139.241C490.324 138.688 489.877 138.241 489.324 138.241C488.772 138.241 488.324 138.688 488.324 139.241H490.324ZM488.324 143.242C488.324 143.794 488.772 144.242 489.324 144.242C489.877 144.242 490.324 143.794 490.324 143.242H488.324ZM490.324 147.244C490.324 146.692 489.877 146.244 489.324 146.244C488.772 146.244 488.324 146.692 488.324 147.244H490.324ZM488.324 151.246C488.324 151.798 488.772 152.246 489.324 152.246C489.877 152.246 490.324 151.798 490.324 151.246H488.324ZM490.324 155.247C490.324 154.695 489.877 154.247 489.324 154.247C488.772 154.247 488.324 154.695 488.324 155.247H490.324ZM488.324 159.249C488.324 159.801 488.772 160.249 489.324 160.249C489.877 160.249 490.324 159.801 490.324 159.249H488.324ZM490.324 163.251C490.324 162.698 489.877 162.251 489.324 162.251C488.772 162.251 488.324 162.698 488.324 163.251H490.324ZM488.324 167.252C488.324 167.805 488.772 168.252 489.324 168.252C489.877 168.252 490.324 167.805 490.324 167.252H488.324ZM490.324 171.254C490.324 170.702 489.877 170.254 489.324 170.254C488.772 170.254 488.324 170.702 488.324 171.254H490.324ZM488.324 175.256C488.324 175.808 488.772 176.256 489.324 176.256C489.877 176.256 490.324 175.808 490.324 175.256H488.324ZM490.324 179.257C490.324 178.705 489.877 178.257 489.324 178.257C488.772 178.257 488.324 178.705 488.324 179.257H490.324ZM488.324 183.259C488.324 183.811 488.772 184.259 489.324 184.259C489.877 184.259 490.324 183.811 490.324 183.259H488.324ZM490.324 187.261C490.324 186.708 489.877 186.261 489.324 186.261C488.772 186.261 488.324 186.708 488.324 187.261H490.324ZM488.324 191.262C488.324 191.815 488.772 192.262 489.324 192.262C489.877 192.262 490.324 191.815 490.324 191.262H488.324ZM490.324 195.264C490.324 194.712 489.877 194.264 489.324 194.264C488.772 194.264 488.324 194.712 488.324 195.264H490.324ZM488.324 199.266C488.324 199.818 488.772 200.266 489.324 200.266C489.877 200.266 490.324 199.818 490.324 199.266H488.324ZM490.324 203.267C490.324 202.715 489.877 202.267 489.324 202.267C488.772 202.267 488.324 202.715 488.324 203.267H490.324ZM488.324 207.269C488.324 207.821 488.772 208.269 489.324 208.269C489.877 208.269 490.324 207.821 490.324 207.269H488.324ZM490.324 211.271C490.324 210.718 489.877 210.271 489.324 210.271C488.772 210.271 488.324 210.718 488.324 211.271H490.324ZM488.324 215.272C488.324 215.825 488.772 216.272 489.324 216.272C489.877 216.272 490.324 215.825 490.324 215.272H488.324ZM490.324 219.274C490.324 218.722 489.877 218.274 489.324 218.274C488.772 218.274 488.324 218.722 488.324 219.274H490.324ZM488.324 223.276C488.324 223.828 488.772 224.276 489.324 224.276C489.877 224.276 490.324 223.828 490.324 223.276H488.324ZM490.324 227.277C490.324 226.725 489.877 226.277 489.324 226.277C488.772 226.277 488.324 226.725 488.324 227.277H490.324ZM488.324 231.279C488.324 231.831 488.772 232.279 489.324 232.279C489.877 232.279 490.324 231.831 490.324 231.279H488.324ZM490.324 235.281C490.324 234.729 489.877 234.281 489.324 234.281C488.772 234.281 488.324 234.729 488.324 235.281H490.324ZM488.324 239.283C488.324 239.835 488.772 240.283 489.324 240.283C489.877 240.283 490.324 239.835 490.324 239.283H488.324ZM490.324 243.284C490.324 242.732 489.877 242.284 489.324 242.284C488.772 242.284 488.324 242.732 488.324 243.284H490.324ZM488.324 247.286C488.324 247.838 488.772 248.286 489.324 248.286C489.877 248.286 490.324 247.838 490.324 247.286H488.324ZM490.324 251.288C490.324 250.735 489.877 250.288 489.324 250.288C488.772 250.288 488.324 250.735 488.324 251.288H490.324ZM488.324 255.289C488.324 255.841 488.772 256.289 489.324 256.289C489.877 256.289 490.324 255.841 490.324 255.289H488.324ZM490.324 259.291C490.324 258.739 489.877 258.291 489.324 258.291C488.772 258.291 488.324 258.739 488.324 259.291H490.324ZM488.324 263.293C488.324 263.845 488.772 264.293 489.324 264.293C489.877 264.293 490.324 263.845 490.324 263.293H488.324ZM490.324 267.294C490.324 266.742 489.877 266.294 489.324 266.294C488.772 266.294 488.324 266.742 488.324 267.294H490.324ZM487.346 268.295C486.793 268.295 486.346 268.743 486.346 269.295C486.346 269.847 486.793 270.295 487.346 270.295V268.295ZM483.388 270.295C483.94 270.295 484.388 269.847 484.388 269.295C484.388 268.743 483.94 268.295 483.388 268.295V270.295ZM479.431 268.295C478.878 268.295 478.431 268.743 478.431 269.295C478.431 269.847 478.878 270.295 479.431 270.295V268.295ZM475.473 270.295C476.026 270.295 476.473 269.847 476.473 269.295C476.473 268.743 476.026 268.295 475.473 268.295V270.295ZM471.516 268.295C470.964 268.295 470.516 268.743 470.516 269.295C470.516 269.847 470.964 270.295 471.516 270.295V268.295ZM467.559 270.295C468.111 270.295 468.559 269.847 468.559 269.295C468.559 268.743 468.111 268.295 467.559 268.295V270.295ZM463.601 268.295C463.049 268.295 462.601 268.743 462.601 269.295C462.601 269.847 463.049 270.295 463.601 270.295V268.295ZM459.644 270.295C460.196 270.295 460.644 269.847 460.644 269.295C460.644 268.743 460.196 268.295 459.644 268.295V270.295ZM455.686 268.295C455.134 268.295 454.686 268.743 454.686 269.295C454.686 269.847 455.134 270.295 455.686 270.295V268.295ZM451.729 270.295C452.281 270.295 452.729 269.847 452.729 269.295C452.729 268.743 452.281 268.295 451.729 268.295V270.295ZM447.772 268.295C447.219 268.295 446.772 268.743 446.772 269.295C446.772 269.847 447.219 270.295 447.772 270.295V268.295ZM443.814 270.295C444.366 270.295 444.814 269.847 444.814 269.295C444.814 268.743 444.366 268.295 443.814 268.295V270.295ZM439.857 268.295C439.304 268.295 438.857 268.743 438.857 269.295C438.857 269.847 439.304 270.295 439.857 270.295V268.295ZM435.899 270.295C436.452 270.295 436.899 269.847 436.899 269.295C436.899 268.743 436.452 268.295 435.899 268.295V270.295ZM431.942 268.295C431.39 268.295 430.942 268.743 430.942 269.295C430.942 269.847 431.39 270.295 431.942 270.295V268.295ZM427.985 270.295C428.537 270.295 428.985 269.847 428.985 269.295C428.985 268.743 428.537 268.295 427.985 268.295V270.295ZM424.027 268.295C423.475 268.295 423.027 268.743 423.027 269.295C423.027 269.847 423.475 270.295 424.027 270.295V268.295ZM420.07 270.295C420.622 270.295 421.07 269.847 421.07 269.295C421.07 268.743 420.622 268.295 420.07 268.295V270.295ZM416.112 268.295C415.56 268.295 415.112 268.743 415.112 269.295C415.112 269.847 415.56 270.295 416.112 270.295V268.295ZM412.155 270.295C412.707 270.295 413.155 269.847 413.155 269.295C413.155 268.743 412.707 268.295 412.155 268.295V270.295ZM322.306 27.049V25.2269H320.306V27.049H322.306ZM322.306 21.5829V17.9388H320.306V21.5829H322.306ZM322.306 14.2947V10.6507H320.306V14.2947H322.306ZM322.306 7.0066V5.18457H320.306V7.0066H322.306ZM321.306 6.18457H323.306V4.18457H321.306V6.18457ZM327.307 6.18457H331.307V4.18457H327.307V6.18457ZM335.307 6.18457H339.308V4.18457H335.307V6.18457ZM343.308 6.18457H347.309V4.18457H343.308V6.18457ZM351.309 6.18457H355.31V4.18457H351.309V6.18457ZM359.31 6.18457H363.31V4.18457H359.31V6.18457ZM367.311 6.18457H371.311V4.18457H367.311V6.18457ZM375.312 6.18457H379.312V4.18457H375.312V6.18457ZM383.313 6.18457H387.313V4.18457H383.313V6.18457ZM391.314 6.18457H395.314V4.18457H391.314V6.18457ZM399.314 6.18457H403.315V4.18457H399.314V6.18457ZM407.315 6.18457H411.316V4.18457H407.315V6.18457ZM415.316 6.18457H419.317V4.18457H415.316V6.18457ZM423.317 6.18457H427.317V4.18457H423.317V6.18457ZM431.318 6.18457H435.318V4.18457H431.318V6.18457ZM439.319 6.18457H443.319V4.18457H439.319V6.18457ZM447.32 6.18457H451.32V4.18457H447.32V6.18457ZM455.321 6.18457H459.321V4.18457H455.321V6.18457ZM463.321 6.18457H467.322V4.18457H463.321V6.18457ZM471.322 6.18457H475.323V4.18457H471.322V6.18457ZM479.323 6.18457H483.324V4.18457H479.323V6.18457ZM487.324 6.18457H489.324V4.18457H487.324V6.18457ZM488.324 5.18457V7.18541H490.324V5.18457H488.324ZM488.324 11.1871V15.1887H490.324V11.1871H488.324ZM488.324 19.1904V23.1921H490.324V19.1904H488.324ZM488.324 27.1938V31.1954H490.324V27.1938H488.324ZM488.324 35.1971V39.1988H490.324V35.1971H488.324ZM488.324 43.2004V47.2021H490.324V43.2004H488.324ZM488.324 51.2038V55.2055H490.324V51.2038H488.324ZM488.324 59.2071V63.2088H490.324V59.2071H488.324ZM488.324 67.2105V71.2121H490.324V67.2105H488.324ZM488.324 75.2138V79.2155H490.324V75.2138H488.324ZM488.324 83.2172V87.2188H490.324V83.2172H488.324ZM488.324 91.2205V95.2222H490.324V91.2205H488.324ZM488.324 99.2238V103.226H490.324V99.2238H488.324ZM488.324 107.227V111.229H490.324V107.227H488.324ZM488.324 115.231V119.232H490.324V115.231H488.324ZM488.324 123.234V127.236H490.324V123.234H488.324ZM488.324 131.237V135.239H490.324V131.237H488.324ZM488.324 139.241V143.242H490.324V139.241H488.324ZM488.324 147.244V151.246H490.324V147.244H488.324ZM488.324 155.247V159.249H490.324V155.247H488.324ZM488.324 163.251V167.252H490.324V163.251H488.324ZM488.324 171.254V175.256H490.324V171.254H488.324ZM488.324 179.257V183.259H490.324V179.257H488.324ZM488.324 187.261V191.262H490.324V187.261H488.324ZM488.324 195.264V199.266H490.324V195.264H488.324ZM488.324 203.267V207.269H490.324V203.267H488.324ZM488.324 211.271V215.272H490.324V211.271H488.324ZM488.324 219.274V223.276H490.324V219.274H488.324ZM488.324 227.277V231.279H490.324V227.277H488.324ZM488.324 235.281V239.283H490.324V235.281H488.324ZM488.324 243.284V247.286H490.324V243.284H488.324ZM488.324 251.288V255.289H490.324V251.288H488.324ZM488.324 259.291V263.293H490.324V259.291H488.324ZM488.324 267.294V269.295H490.324V267.294H488.324ZM489.324 268.295H487.346V270.295H489.324V268.295ZM483.388 268.295H479.431V270.295H483.388V268.295ZM475.473 268.295H471.516V270.295H475.473V268.295ZM467.559 268.295H463.601V270.295H467.559V268.295ZM459.644 268.295H455.686V270.295H459.644V268.295ZM451.729 268.295H447.772V270.295H451.729V268.295ZM443.814 268.295H439.857V270.295H443.814V268.295ZM435.899 268.295H431.942V270.295H435.899V268.295ZM427.985 268.295H424.027V270.295H427.985V268.295ZM420.07 268.295H416.112V270.295H420.07V268.295ZM412.155 268.295H410.176V270.295H412.155V268.295Z" fill="#393E50"/>
<defs>
<filter id="filter0_d_10_1005" x="122" y="9.91797" width="372" height="153" filterUnits="userSpaceOnUse" color-interpolation-filters="sRGB">
<feFlood flood-opacity="0" result="BackgroundImageFix"/>
<feColorMatrix in="SourceAlpha" type="matrix" values="0 0 0 0 0 0 0 0 0 0 0 0 0 0 0 0 0 0 127 0" result="hardAlpha"/>
<feOffset dy="4"/>
<feGaussianBlur stdDeviation="20"/>
<feComposite in2="hardAlpha" operator="out"/>
<feColorMatrix type="matrix" values="0 0 0 0 0.117647 0 0 0 0 0.47451 0 0 0 0 0.839216 0 0 0 0.1 0"/>
<feBlend mode="normal" in2="BackgroundImageFix" result="effect1_dropShadow_10_1005"/>
<feBlend mode="normal" in="SourceGraphic" in2="effect1_dropShadow_10_1005" result="shape"/>
</filter>
<filter id="filter1_d_10_1005" x="194" y="288.918" width="357" height="136" filterUnits="userSpaceOnUse" color-interpolation-filters="sRGB">
<feFlood flood-opacity="0" result="BackgroundImageFix"/>
<feColorMatrix in="SourceAlpha" type="matrix" values="0 0 0 0 0 0 0 0 0 0 0 0 0 0 0 0 0 0 127 0" result="hardAlpha"/>
<feOffset dy="4"/>
<feGaussianBlur stdDeviation="16"/>
<feComposite in2="hardAlpha" operator="out"/>
<feColorMatrix type="matrix" values="0 0 0 0 0.0313726 0 0 0 0 0.298039 0 0 0 0 0.580392 0 0 0 0.08 0"/>
<feBlend mode="normal" in2="BackgroundImageFix" result="effect1_dropShadow_10_1005"/>
<feBlend mode="normal" in="SourceGraphic" in2="effect1_dropShadow_10_1005" result="shape"/>
</filter>
<linearGradient id="paint0_linear_10_1005" x1="295.118" y1="172.918" x2="235.118" y2="172.918" gradientUnits="userSpaceOnUse">
<stop stop-color="#DB293D"/>
<stop offset="1" stop-color="#B91D2F"/>
</linearGradient>
<linearGradient id="paint1_linear_10_1005" x1="235.118" y1="353.729" x2="295.118" y2="353.729" gradientUnits="userSpaceOnUse">
<stop stop-color="#00469F"/>
<stop offset="1" stop-color="#1E79D6"/>
</linearGradient>
<linearGradient id="paint2_linear_10_1005" x1="111" y1="263.891" x2="404" y2="263.891" gradientUnits="userSpaceOnUse">
<stop stop-color="#00469F"/>
<stop offset="1" stop-color="#1E79D6"/>
</linearGradient>
</defs>
</svg>
