<svg width="70" height="70" viewBox="0 0 70 70" fill="none" xmlns="http://www.w3.org/2000/svg">
<path d="M35 21.875V37.1875" stroke="url(#paint0_linear_3086_26204)" stroke-width="3" stroke-linecap="round" stroke-linejoin="round"/>
<path d="M44.9805 8.75001H25.0195C24.7355 8.74902 24.454 8.80405 24.1913 8.91197C23.9285 9.01989 23.6896 9.17856 23.4883 9.37892L9.37892 23.4883C9.17856 23.6896 9.01989 23.9285 8.91197 24.1913C8.80405 24.454 8.74902 24.7355 8.75001 25.0195V44.9805C8.74902 45.2645 8.80405 45.546 8.91197 45.8087C9.01989 46.0715 9.17856 46.3104 9.37892 46.5117L23.4883 60.6211C23.6896 60.8215 23.9285 60.9801 24.1913 61.0881C24.454 61.196 24.7355 61.251 25.0195 61.25H44.9805C45.2645 61.251 45.546 61.196 45.8087 61.0881C46.0715 60.9801 46.3104 60.8215 46.5117 60.6211L60.6211 46.5117C60.8215 46.3104 60.9801 46.0715 61.0881 45.8087C61.196 45.546 61.251 45.2645 61.25 44.9805V25.0195C61.251 24.7355 61.196 24.454 61.0881 24.1913C60.9801 23.9285 60.8215 23.6896 60.6211 23.4883L46.5117 9.37892C46.3104 9.17856 46.0715 9.01989 45.8087 8.91197C45.546 8.80405 45.2645 8.74902 44.9805 8.75001V8.75001Z" stroke="url(#paint1_linear_3086_26204)" stroke-width="3" stroke-miterlimit="10"/>
<path d="M35 50.3125C36.8122 50.3125 38.2812 48.8434 38.2812 47.0312C38.2812 45.2191 36.8122 43.75 35 43.75C33.1878 43.75 31.7188 45.2191 31.7188 47.0312C31.7188 48.8434 33.1878 50.3125 35 50.3125Z" fill="url(#paint2_linear_3086_26204)"/>
<defs>
<linearGradient id="paint0_linear_3086_26204" x1="35" y1="29.7382" x2="36" y2="29.7382" gradientUnits="userSpaceOnUse">
<stop stop-color="#00469F"/>
<stop offset="1" stop-color="#1E79D6"/>
</linearGradient>
<linearGradient id="paint1_linear_3086_26204" x1="8.75" y1="35.7095" x2="61.25" y2="35.7095" gradientUnits="userSpaceOnUse">
<stop stop-color="#00469F"/>
<stop offset="1" stop-color="#1E79D6"/>
</linearGradient>
<linearGradient id="paint2_linear_3086_26204" x1="31.7188" y1="47.1199" x2="38.2813" y2="47.1199" gradientUnits="userSpaceOnUse">
<stop stop-color="#00469F"/>
<stop offset="1" stop-color="#1E79D6"/>
</linearGradient>
</defs>
</svg>
