<svg width="35" height="35" viewBox="0 0 35 35" fill="none" xmlns="http://www.w3.org/2000/svg">
<path fill-rule="evenodd" clip-rule="evenodd" d="M15.8542 0.0412198C8.30503 0.827024 2.2108 6.13048 0.447972 13.4485C0.0874526 14.945 -0.000349045 15.7411 1.04131e-06 17.5095C0.00028111 19.1272 0.0373202 19.5266 0.32096 20.9754C0.940333 24.1384 2.58238 27.2533 4.89337 29.6489C7.96993 32.838 12.2273 34.7528 16.6932 34.956L17.6599 35L17.8424 34.8175C18.0755 34.5844 18.0845 34.262 17.8639 34.0415C17.719 33.8965 17.6135 33.8758 16.7962 33.8318C12.658 33.6086 8.99113 32.0344 6.09542 29.2379C-0.398747 22.9659 -0.580653 12.6099 5.68932 6.11781C7.8224 3.90911 10.4533 2.37952 13.4321 1.61605C14.875 1.24622 15.818 1.13314 17.4646 1.13244C19.0996 1.13174 20.0219 1.24293 21.5006 1.61885C27.8495 3.23289 32.591 8.47228 33.6336 15.026C33.8797 16.5724 33.8541 18.6494 33.5689 20.2909C32.8634 24.3511 30.564 28.1046 27.267 30.5778C25.9858 31.5389 25.9777 31.533 25.9528 29.6325L25.9338 28.1872H26.6647C27.0667 28.1872 27.4466 28.1676 27.5089 28.1437C27.7787 28.0402 27.8272 27.7607 27.8272 26.3099V24.9159L28.1798 24.8741C28.8946 24.7895 29.5662 24.2596 29.916 23.5044C30.0861 23.1373 30.1001 23.0282 30.1257 21.8746L30.1531 20.6383L30.8167 20.6143C31.4461 20.5916 31.4892 20.58 31.6521 20.3906L31.8238 20.1909L31.8035 17.9862L31.7832 15.7816L31.6178 15.6479C31.4817 15.5377 31.3381 15.5141 30.8028 15.5141H30.1531L30.1277 14.2345L30.1025 12.9549L29.8724 12.4877C29.5964 11.9269 29.1579 11.5156 28.6226 11.3153C28.3092 11.1981 28.0757 11.173 27.2994 11.173H26.3568V10.1874V9.20172L26.1522 8.99706L25.9475 8.7924H17.2903C10.8429 8.7924 8.5942 8.81319 8.48028 8.87383C8.18257 9.03242 8.15687 9.13513 8.15456 10.1752L8.15232 11.173H7.34978C6.71424 11.173 6.46799 11.2026 6.16663 11.3153C5.63128 11.5156 5.19283 11.9269 4.91675 12.4877L4.68675 12.9549L4.66147 14.2345L4.63612 15.5141H3.97544C3.36734 15.5141 3.30111 15.5277 3.14294 15.6859L2.97104 15.8578V18.0276V20.1974L3.13993 20.3938C3.29942 20.5794 3.34578 20.5916 3.97355 20.6143L4.63829 20.6384L4.66672 21.9096C4.69935 23.371 4.76356 23.5977 5.3106 24.1825C5.67259 24.5695 6.08681 24.7968 6.61152 24.8963C6.82725 24.9372 8.43603 24.9664 10.4759 24.9664C14.4383 24.9664 14.3229 24.9812 14.4521 24.4583C14.6331 23.7262 14.6865 23.6098 14.973 23.3234C15.4346 22.8617 15.5884 22.8309 17.4296 22.8309H19.04L19.4047 23.0329C19.918 23.3173 20.183 23.7279 20.2963 24.4142C20.375 24.891 20.4805 24.9286 21.8128 24.9535L22.996 24.9756V26.4414C22.996 28.2804 22.9399 28.1872 24.0462 28.1872H24.8164V29.6948C24.8164 30.8994 24.8383 31.2548 24.9252 31.4627C25.2238 32.1776 25.9723 32.5282 26.6883 32.2885C26.8782 32.2249 27.4006 31.8938 27.9006 31.5201C36.4616 25.1218 37.3855 12.689 29.8605 5.14653C27.1017 2.38134 23.879 0.758197 19.9152 0.137564C19.1166 0.0125127 16.6843 -0.0451815 15.8542 0.0412198ZM25.2015 10.5428V11.138L17.2371 11.1558L9.2726 11.1736V10.5428V9.91204L17.2371 9.9299L25.2015 9.94768V10.5428ZM28.3509 12.4534C28.5064 12.5415 28.6996 12.7343 28.7881 12.8898L28.9467 13.1685L28.9296 18.1102L28.9124 23.0519L28.7163 23.309C28.3478 23.7921 28.485 23.7761 24.7149 23.7761C21.9065 23.7761 21.3156 23.7596 21.3156 23.6815C21.3156 23.4853 20.942 22.8877 20.6026 22.541C20.2288 22.1591 19.7122 21.8662 19.207 21.7498C18.6936 21.6315 15.9563 21.6567 15.4663 21.7842C14.6366 22.0003 13.9595 22.56 13.6009 23.3264L13.3886 23.7799L9.97032 23.7605C6.62714 23.7415 6.54774 23.7379 6.35442 23.5946C6.24575 23.514 6.0859 23.3439 5.99929 23.2167L5.84175 22.9852V18.0558C5.84175 12.8223 5.83524 12.931 6.16733 12.6305C6.56125 12.2741 5.89188 12.2941 17.3946 12.2949L28.0722 12.2956L28.3509 12.4534ZM4.65146 18.0347V19.435H4.37139H4.09132V18.0347V16.6343H4.37139H4.65146V18.0347ZM30.6279 18.0347V19.435H30.3478H30.0677V18.0347V16.6343H30.3478H30.6279V18.0347ZM26.6369 26.0166V27.0669H25.3766H24.1163V26.0166V24.9664H25.3766H26.6369V26.0166Z" fill="url(#paint0_linear_2582_17248)"/>
<defs>
<linearGradient id="paint0_linear_2582_17248" x1="0" y1="17.973" x2="34.9612" y2="17.973" gradientUnits="userSpaceOnUse">
<stop stop-color="#00469F"/>
<stop offset="1" stop-color="#1E79D6"/>
</linearGradient>
</defs>
</svg>
