<svg width="37" height="33" viewBox="0 0 37 33" fill="none" xmlns="http://www.w3.org/2000/svg">
<path d="M10.8418 11.7615H26.1582L30.0044 1.43972C30.0559 1.3046 30.1486 1.18936 30.2692 1.11053C30.3898 1.03171 30.5322 0.993342 30.6758 1.00095C30.8195 1.00855 30.9571 1.06174 31.0688 1.15286C31.1805 1.24399 31.2607 1.36839 31.2978 1.50819L35.9608 19.0536C36.0263 19.3256 36.0094 19.6111 35.9124 19.8734C35.8154 20.1357 35.6426 20.3629 35.4162 20.5257L19.2828 31.7547C19.0527 31.9145 18.7796 32 18.5 32C18.2204 32 17.9473 31.9145 17.7172 31.7547L1.58379 20.5257C1.35744 20.3629 1.18465 20.1357 1.08761 19.8734C0.990567 19.6111 0.97371 19.3256 1.0392 19.0536L5.70222 1.50819C5.73931 1.36839 5.81947 1.24399 5.93121 1.15286C6.04294 1.06174 6.18051 1.00855 6.32417 1.00095C6.46782 0.993342 6.61018 1.03171 6.73081 1.11053C6.85144 1.18936 6.94414 1.3046 6.99561 1.43972L10.8418 11.7615Z" stroke="url(#paint0_linear_2582_17233)" stroke-width="2" stroke-linecap="round" stroke-linejoin="round"/>
<path d="M19 32L26.3425 12H34" stroke="url(#paint1_linear_2582_17233)" stroke-width="2" stroke-linecap="round" stroke-linejoin="round"/>
<path d="M3 12H10.6575L18 32" stroke="url(#paint2_linear_2582_17233)" stroke-width="2" stroke-linecap="round" stroke-linejoin="round"/>
<defs>
<linearGradient id="paint0_linear_2582_17233" x1="1" y1="16.9189" x2="36" y2="16.9189" gradientUnits="userSpaceOnUse">
<stop stop-color="#00469F"/>
<stop offset="1" stop-color="#1E79D6"/>
</linearGradient>
<linearGradient id="paint1_linear_2582_17233" x1="19" y1="22.2703" x2="34" y2="22.2703" gradientUnits="userSpaceOnUse">
<stop stop-color="#00469F"/>
<stop offset="1" stop-color="#1E79D6"/>
</linearGradient>
<linearGradient id="paint2_linear_2582_17233" x1="3" y1="22.2703" x2="18" y2="22.2703" gradientUnits="userSpaceOnUse">
<stop stop-color="#00469F"/>
<stop offset="1" stop-color="#1E79D6"/>
</linearGradient>
</defs>
</svg>
