<svg width="35" height="35" viewBox="0 0 35 35" fill="none" xmlns="http://www.w3.org/2000/svg">
<path fill-rule="evenodd" clip-rule="evenodd" d="M3.98582 0.111921C3.71406 0.169142 3.19095 0.361362 2.8234 0.5391C2.25406 0.814396 2.05938 0.957943 1.50895 1.50882C0.958092 2.06012 0.815296 2.25403 0.540434 2.82433C0.0165427 3.91097 -0.123783 4.98248 0.107811 6.1276C0.170985 6.43971 0.355568 6.95759 0.540434 7.34097C0.816285 7.91325 0.955833 8.10236 1.50669 8.65013C2.21439 9.3538 2.75268 9.68208 3.66818 9.96819C4.10468 10.1046 4.35237 10.1336 5.0799 10.1336C5.80744 10.1336 6.05512 10.1046 6.49163 9.96819C7.40967 9.68131 7.94556 9.35416 8.64677 8.65239C9.34797 7.95062 9.67485 7.4143 9.96151 6.49551C10.1988 5.73483 10.1988 4.43047 9.96151 3.66979C9.67563 2.75355 9.34762 2.21482 8.64451 1.50656C8.09718 0.955258 7.90822 0.815597 7.3364 0.539524C6.25545 0.0175417 5.12134 -0.127206 3.98582 0.111921ZM6.28495 1.33355C8.15422 1.91459 9.34028 3.94099 8.93412 5.85973C8.76217 6.6724 8.45703 7.22512 7.83884 7.84381C7.22064 8.4625 6.66838 8.76789 5.85635 8.93998C3.14316 9.51522 0.650901 7.02096 1.22568 4.30558C1.71534 1.99187 4.02944 0.63249 6.28495 1.33355ZM4.51521 2.045C4.51521 2.31839 4.49023 2.39821 4.40475 2.39821C4.34397 2.39821 4.12784 2.56507 3.92434 2.76909C3.49418 3.20044 3.34235 3.60981 3.40772 4.16217C3.45783 4.58547 3.58404 4.84169 3.8925 5.14602C4.19398 5.44343 4.42613 5.56267 4.80779 5.61622C5.2863 5.68326 5.48415 5.78385 5.57655 6.00709C5.76099 6.45277 5.31954 6.89458 4.87422 6.70999C4.76057 6.66287 4.63034 6.53253 4.58326 6.4188C4.4994 6.21605 4.48966 6.21294 3.94198 6.21294C3.32118 6.21294 3.31779 6.21654 3.46884 6.72108C3.57021 7.05967 4.01024 7.57487 4.30106 7.69546C4.49813 7.77719 4.51521 7.81166 4.51521 8.12885V8.47352H5.0799H5.64459V8.1203C5.64459 7.84692 5.66958 7.76709 5.75506 7.76709C5.94734 7.76709 6.59482 7.05056 6.68814 6.73457C6.98601 5.72543 6.35843 4.68232 5.37453 4.5512C4.87767 4.48501 4.67735 4.38555 4.58326 4.15822C4.39882 3.71253 4.84026 3.27073 5.28559 3.45532C5.39924 3.50244 5.52947 3.63277 5.57655 3.74651C5.6604 3.94925 5.67015 3.95236 6.21782 3.95236C6.84061 3.95236 6.84174 3.95109 6.68814 3.43073C6.59482 3.11475 5.94734 2.39821 5.75506 2.39821C5.66958 2.39821 5.64459 2.31839 5.64459 2.045V1.69178H5.0799H4.51521V2.045ZM15.809 2.33485C15.085 2.4163 13.9956 2.63812 13.2326 2.85937C12.475 3.07907 11.1694 3.58163 11.1112 3.67601C11.0884 3.71281 11.1709 3.96232 11.2943 4.23034L11.5188 4.71778L11.8463 4.57409C12.8656 4.12699 14.4645 3.67996 15.6325 3.51551C16.4504 3.40043 18.5558 3.40043 19.3736 3.51551C24.7483 4.27209 29.1706 7.9461 30.8739 13.07C31.3085 14.3772 31.6203 16.1197 31.6203 17.2408V17.5158H30.6642C29.7431 17.5158 29.7017 17.5222 29.5348 17.6893C29.4334 17.7908 29.3616 17.9446 29.3616 18.0604C29.3616 18.1938 29.736 18.8557 30.5119 20.094C31.7349 22.0459 31.8221 22.1423 32.2353 21.9969C32.3751 21.9477 32.7759 21.4345 33.7176 20.0989C35.1078 18.1275 35.1601 18.0144 34.8352 17.6893C34.6683 17.5222 34.6269 17.5158 33.7058 17.5158H32.7497V17.0892C32.7497 16.8545 32.7168 16.3538 32.6766 15.9766C31.9143 8.82624 26.3951 3.22128 19.2677 2.3595C18.3837 2.25262 16.6497 2.24026 15.809 2.33485ZM16.5149 9.07964C15.6735 9.22898 15.42 9.28669 14.9267 9.44098C12.8272 10.0976 10.953 11.7005 9.95416 13.6939C8.25438 17.0862 8.95996 21.0904 11.7144 23.6837C13.9903 25.8264 17.1831 26.5328 20.1854 25.558C21.2651 25.2074 22.402 24.5214 23.2917 23.6837C26.8586 20.3255 26.8586 14.7061 23.2917 11.348C22.1584 10.281 20.8871 9.60656 19.2677 9.21329C18.824 9.10556 16.8961 9.01196 16.5149 9.07964ZM19.1693 10.3752C19.758 10.5192 20.538 10.8079 20.5382 10.8818C20.5383 10.9301 20.0259 11.0473 19.2677 11.1723C18.1671 11.3538 16.0795 11.2746 14.8384 11.0042C14.6347 10.9599 14.4679 10.9005 14.4679 10.8723C14.4679 10.7477 15.8543 10.3357 16.6913 10.2116C17.1542 10.143 18.6136 10.2393 19.1693 10.3752ZM13.7372 11.8774L14.1711 12.0208L14.0111 12.3841C13.9231 12.584 13.7771 12.9779 13.6868 13.2596C13.5423 13.7099 13.5018 13.7718 13.3508 13.7718C13.1743 13.7718 11.5608 13.4262 11.5104 13.3776C11.3739 13.2461 12.9964 11.6138 13.1887 11.6891C13.2517 11.7138 13.4984 11.7985 13.7372 11.8774ZM22.5329 12.2135C23.0817 12.7334 23.5618 13.3139 23.4958 13.3776C23.4454 13.426 21.8321 13.7718 21.6561 13.7718C21.5044 13.7718 21.4632 13.7057 21.2928 13.1889C21.187 12.8684 21.043 12.479 20.9727 12.3236L20.845 12.041L21.3445 11.8525C21.6193 11.7489 21.8659 11.6615 21.8924 11.6583C21.919 11.6551 22.2072 11.9049 22.5329 12.2135ZM16.4619 12.4021L16.9384 12.449V13.2934V14.1377L16.3208 14.0944C14.9498 13.9984 14.6796 13.9693 14.6796 13.9181C14.6796 13.824 14.9389 13.1146 15.1301 12.6853L15.3152 12.2701L15.6503 12.3126C15.8346 12.3361 16.1998 12.3763 16.4619 12.4021ZM19.8801 12.6944C20.068 13.116 20.3265 13.8247 20.3265 13.9181C20.3265 13.9693 20.0563 13.9984 18.6854 14.0944L18.0678 14.1377V13.2922V12.4466L18.6854 12.3778C19.762 12.2577 19.6752 12.2346 19.8801 12.6944ZM2.61927 13.1183C2.53852 13.1863 1.91559 14.0345 1.23507 15.0033C-0.0976658 16.9005 -0.151805 17.0194 0.170985 17.3424C0.337851 17.5095 0.379285 17.5158 1.30036 17.5158H2.25645L2.25864 17.9927C2.25984 18.2549 2.30502 18.8351 2.35895 19.2819C3.03566 24.8881 6.67409 29.6207 11.9132 31.7097C15.2372 33.035 19.0858 33.1232 22.4632 31.9513C23.2879 31.6652 23.9264 31.389 23.9264 31.3184C23.9264 31.2902 23.8282 31.0539 23.7082 30.7933L23.49 30.3195L22.8082 30.5993C17.2068 32.8976 10.6385 31.2623 6.71786 26.5935C5.15282 24.7298 4.07278 22.4516 3.6367 20.0943C3.522 19.4744 3.38583 18.2242 3.38583 17.7909V17.5158H4.34192C5.263 17.5158 5.30444 17.5095 5.4713 17.3424C5.57041 17.2433 5.64459 17.0867 5.64459 16.9768C5.64459 16.7536 3.44428 13.1722 3.23993 13.0628C3.04448 12.9581 2.78169 12.9816 2.61927 13.1183ZM11.8915 14.65C12.2797 14.7425 12.7362 14.8404 12.9059 14.8677L13.2144 14.9174L13.1689 15.2452C13.1439 15.4256 13.0879 15.8831 13.0445 16.2619L12.9657 16.9507H11.5891H10.2126L10.2551 16.5445C10.2995 16.1189 10.5661 15.1294 10.7614 14.6652C10.8573 14.4373 10.901 14.4003 11.0307 14.4375C11.1159 14.4619 11.5032 14.5575 11.8915 14.65ZM24.295 14.7961C24.489 15.2858 24.7735 16.4252 24.7735 16.7125V16.9507H23.4027H22.0318L21.9852 16.4738C21.9595 16.2116 21.9096 15.8063 21.8742 15.5732C21.7714 14.8954 21.7359 14.9421 22.4618 14.8012C22.8208 14.7314 23.3053 14.6178 23.5382 14.5485C23.7711 14.4794 24.0052 14.4272 24.0584 14.4328C24.1116 14.4383 24.2181 14.6018 24.295 14.7961ZM3.52094 15.5378L4.02471 16.3502L3.46171 16.3707C3.15205 16.3819 2.62611 16.3819 2.29295 16.3707L1.68725 16.3502L2.2993 15.4805C2.63593 15.0022 2.93514 14.6366 2.96429 14.6681C2.99337 14.6996 3.24389 15.091 3.52094 15.5378ZM16.1443 15.2282L16.9384 15.2754V16.113V16.9507H15.5353H14.1323L14.1621 16.6151C14.1785 16.4305 14.2261 16.0133 14.2679 15.6878L14.3438 15.096L14.847 15.1386C15.1238 15.1619 15.7076 15.2023 16.1443 15.2282ZM20.7395 15.6968C20.7806 16.0173 20.8276 16.4305 20.8441 16.6151L20.8739 16.9507H19.4708H18.0678V16.111V15.2714L19.0736 15.2038C19.6268 15.1666 20.2112 15.1312 20.3722 15.1251L20.6648 15.114L20.7395 15.6968ZM13.0445 18.7697C13.0879 19.1486 13.1438 19.6056 13.1687 19.7854L13.2141 20.1122L12.7498 20.1931C12.4944 20.2376 11.9759 20.3526 11.5975 20.4487C11.2191 20.5447 10.8877 20.5997 10.8609 20.5708C10.6847 20.3802 10.2327 18.738 10.2327 18.2883V18.081H11.5992H12.9657L13.0445 18.7697ZM16.9384 18.9187V19.7563L16.1443 19.8035C15.7076 19.8294 15.1238 19.8697 14.847 19.8931L14.3438 19.9356L14.2679 19.3439C14.2261 19.0184 14.1785 18.6011 14.1621 18.4165L14.1323 18.081H15.5353H16.9384V18.9187ZM20.8472 18.3812C20.8304 18.5463 20.7806 18.9635 20.7366 19.3083L20.6565 19.9351L20.1562 19.8929C19.8811 19.8697 19.2986 19.8294 18.8619 19.8035L18.0678 19.7563V18.9187V18.081H19.4728H20.8778L20.8472 18.3812ZM24.7735 18.2606C24.7735 18.7043 24.3167 20.3853 24.1459 20.5701C24.1195 20.5987 23.7337 20.5302 23.2887 20.4179C22.8436 20.3055 22.3286 20.1911 22.1441 20.1636C21.7691 20.1077 21.7738 20.1201 21.8742 19.4585C21.9096 19.2254 21.9595 18.82 21.9852 18.5578L22.0318 18.081H23.4027H24.7735V18.2606ZM33.2701 18.7344C33.1675 18.9068 32.0992 20.4122 32.0795 20.4122C32.0628 20.4122 31.1854 19.0139 31.0268 18.7344C30.9876 18.6653 31.2317 18.6461 32.1497 18.6461C33.0691 18.6461 33.3114 18.6652 33.2701 18.7344ZM16.9384 21.7429V22.5791L16.1511 22.6646C15.7139 22.7121 15.3369 22.7231 15.3033 22.6895C15.2301 22.6162 14.778 21.5117 14.7136 21.2488C14.6676 21.0612 14.6678 21.0611 15.1854 21.0182C15.7124 20.9746 16.1982 20.9423 16.6737 20.9194L16.9384 20.9067V21.7429ZM19.8208 21.0209L20.3385 21.0612L20.2926 21.2488C20.2282 21.5117 19.776 22.6162 19.7028 22.6895C19.6692 22.7231 19.2923 22.7121 18.855 22.6646L18.0678 22.5791V21.7365V20.894L18.6854 20.9373C19.0251 20.9611 19.536 20.9987 19.8208 21.0209ZM13.6868 21.7721C13.7771 22.0538 13.9231 22.4477 14.0111 22.6476L14.1711 23.0109L13.7372 23.1543C13.4984 23.2332 13.2517 23.3179 13.1887 23.3425C12.9963 23.4179 11.3743 21.7859 11.5104 21.654C11.5649 21.6011 13.0942 21.2699 13.3069 21.265C13.5134 21.2601 13.5294 21.2815 13.6868 21.7721ZM22.8594 21.4841C23.194 21.5668 23.4802 21.6449 23.4958 21.6578C23.6197 21.7611 22.0132 23.4187 21.8537 23.3522C21.8096 23.3337 21.5631 23.2478 21.3058 23.1613L20.8382 23.0038L20.9966 22.644C21.0838 22.4462 21.2302 22.0503 21.3219 21.7643L21.4887 21.2443L21.87 21.2892C22.0797 21.3138 22.5249 21.4016 22.8594 21.4841ZM19.4795 23.9006C20.3371 24.0498 20.5383 24.0972 20.5383 24.1499C20.5383 24.2272 19.6225 24.5563 19.0207 24.6954C18.2509 24.8731 16.7678 24.8718 15.9855 24.6926C15.35 24.5472 14.4679 24.2371 14.4679 24.1593C14.4679 24.0789 15.3006 23.9172 16.4443 23.7757C16.9219 23.7165 18.8861 23.7974 19.4795 23.9006ZM28.8322 24.9783C28.5604 25.0355 28.0373 25.2277 27.6698 25.4055C27.1004 25.6808 26.9057 25.8243 26.3553 26.3752C25.8044 26.9265 25.6616 27.1204 25.3868 27.6907C24.663 29.192 24.663 30.706 25.3868 32.2073C25.6626 32.7796 25.8022 32.9687 26.353 33.5165C27.0607 34.2202 27.599 34.5484 28.5145 34.8346C28.951 34.971 29.1987 35 29.9263 35C30.6538 35 30.9015 34.971 31.338 34.8346C32.256 34.5477 32.7919 34.2205 33.4931 33.5188C34.1943 32.817 34.5212 32.2807 34.8079 31.3619C35.0452 30.6012 35.0452 29.2968 34.8079 28.5362C34.522 27.6199 34.194 27.0812 33.4909 26.3729C32.9435 25.8216 32.7546 25.682 32.1828 25.4059C31.1018 24.8839 29.9677 24.7392 28.8322 24.9783ZM31.1313 26.1999C33.0006 26.781 34.1866 28.8074 33.7805 30.7261C33.6085 31.5388 33.3034 32.0915 32.6852 32.7102C32.067 33.3289 31.5147 33.6343 30.7027 33.8063C27.9895 34.3816 25.4972 31.8873 26.072 29.1719C26.5617 26.8582 28.8758 25.4989 31.1313 26.1999ZM29.3616 26.9114C29.3616 27.1848 29.3366 27.2646 29.2511 27.2646C29.1903 27.2646 28.9742 27.4315 28.7707 27.6355C28.3405 28.0668 28.1887 28.4762 28.2541 29.0285C28.3042 29.4518 28.4304 29.7081 28.7389 30.0124C29.0403 30.3098 29.2725 30.429 29.6541 30.4826C30.1326 30.5496 30.3305 30.6502 30.4229 30.8735C30.6073 31.3191 30.1659 31.7609 29.7206 31.5764C29.6069 31.5292 29.4767 31.3989 29.4296 31.2852C29.3457 31.0824 29.336 31.0793 28.7883 31.0793C28.1675 31.0793 28.1641 31.0829 28.3152 31.5874C28.4166 31.926 28.8566 32.4412 29.1474 32.5618C29.3445 32.6436 29.3616 32.678 29.3616 32.9952V33.3399H29.9263H30.4909V32.9867C30.4909 32.7133 30.5159 32.6335 30.6014 32.6335C30.7937 32.6335 31.4412 31.9169 31.5345 31.6009C31.8324 30.5918 31.2048 29.5487 30.2209 29.4176C29.724 29.3514 29.5237 29.2519 29.4296 29.0246C29.3151 28.7479 29.4441 28.4363 29.7206 28.3217C29.997 28.2071 30.3083 28.3362 30.4229 28.6129C30.5068 28.8156 30.5165 28.8187 31.0642 28.8187C31.687 28.8187 31.6881 28.8175 31.5345 28.2971C31.4412 27.9811 30.7937 27.2646 30.6014 27.2646C30.5159 27.2646 30.4909 27.1848 30.4909 26.9114V26.5581H29.9263H29.3616V26.9114Z" fill="url(#paint0_linear_2582_17212)"/>
<defs>
<linearGradient id="paint0_linear_2582_17212" x1="0" y1="17.973" x2="35" y2="17.973" gradientUnits="userSpaceOnUse">
<stop stop-color="#00469F"/>
<stop offset="1" stop-color="#1E79D6"/>
</linearGradient>
</defs>
</svg>
