<svg width="205" height="205" viewBox="0 0 205 205" fill="none" xmlns="http://www.w3.org/2000/svg">
<g clip-path="url(#clip0_1294_26752)">
<path d="M71.1364 87.2076L89.6764 88.5736L58.9241 106.622L52.0934 106.119L45.2621 105.616L71.1364 87.2076Z" fill="url(#paint0_linear_1294_26752)"/>
<path d="M139.608 107.965L86.4814 90.7981L86.1094 88.2238L86.2821 85.8799L143.633 104.862L139.608 107.965Z" fill="#C7009A"/>
<path d="M101.084 23.8278L105.295 22.5V69.8805L104.007 70.9373L101.084 72.7393" fill="#5B34AE"/>
<path d="M105.295 69.8535L143.636 81.7901L141.789 83.3618L139.61 84.6354L101.084 72.6988L105.295 69.8535Z" fill="#58238E"/>
<path d="M143.636 81.79L139.61 84.6353V107.967L143.636 104.864V81.79Z" fill="#820098"/>
<path d="M86.2845 85.8799L86.4837 90.7981L58.8643 106.677V101.353L86.2845 85.8799Z" fill="#FF0093"/>
<path d="M30.6455 128.167H31.2035H31.7614H32.3194V128.736V145.076V145.645H31.7614H31.2035H30.6455V145.076V128.736V128.167Z" fill="#231F20"/>
<path d="M47.0701 128.167H47.3623L47.5085 128.411L56.5688 142.258V128.736V128.167H57.1268H57.6848H58.2427V128.736V138.193V145.076V145.645H57.6582H57.0604H56.7681L56.6087 145.388L47.5616 131.541V145.076V145.645H47.0036H46.4457H45.8877V145.076V128.736V128.167H46.4722H47.0701Z" fill="#231F20"/>
<path d="M71.8174 128.101H72.3621H84.8234H85.3813V128.67V129.239V129.794H84.8234H79.4164V145.077V145.646H78.885H78.3137H77.7823V145.077V129.794H72.3621H71.8174V129.239V128.67V128.101Z" fill="#231F20"/>
<path d="M98.9609 128.046H99.5189H108.712H109.244V128.615V129.184V129.753H108.712H100.635V137.354H108.712H109.244V137.923V138.492V139.061H108.712H100.635V143.939H108.712H109.244V144.508V145.077V145.646H108.712H99.5189H98.9609V145.077V128.615V128.046Z" fill="#231F20"/>
<path d="M122.819 128.114H123.364H123.922H124.48V128.683V143.939H133.434H133.979V144.508V145.077V145.647H133.434H123.364H122.819V145.077V128.683V128.114Z" fill="#231F20"/>
<path d="M147.553 128.114H148.111H148.669H149.227V128.683V143.939H158.167H158.725V144.508V145.077V145.647H158.167H148.111H147.553V145.077V128.683V128.114Z" fill="#231F20"/>
<path d="M172.305 128.167H172.863H173.407H173.965V128.736V145.076V145.645H173.407H172.863H172.305V145.076V128.736V128.167Z" fill="#231F20"/>
<path d="M29.6504 157.177H174.961" stroke="#888F95" stroke-width="1.59" stroke-miterlimit="10"/>
<path d="M93.1992 169.899H94.3949V171.376C95.0193 170.305 96.3212 169.723 97.5301 169.723C99.8948 169.723 101.781 171.498 101.781 174.194C101.781 176.876 99.8948 178.57 97.5301 178.57C96.3079 178.57 95.0193 178.096 94.3949 177.012V182.499H93.1992V169.899ZM97.5301 170.929C95.8164 170.929 94.3949 172.094 94.3949 174.18C94.3949 176.267 96.0289 177.337 97.5301 177.337C99.2572 177.337 100.586 176.145 100.586 174.18C100.586 172.297 99.2572 170.929 97.5301 170.929Z" fill="#656D70"/>
<path d="M77.1826 178.382L81.8988 165.876H83.1476L87.8637 178.382H86.6017L85.3529 175.089H79.6802L78.458 178.382H77.1826ZM82.5232 167.542L80.1053 173.965H84.941L82.5232 167.542Z" fill="#656D70"/>
<path d="M107.654 169.899H108.85V171.376C109.474 170.305 110.776 169.723 111.985 169.723C114.35 169.723 116.236 171.498 116.236 174.194C116.236 176.876 114.35 178.57 111.985 178.57C110.763 178.57 109.474 178.096 108.85 177.012V182.499H107.654V169.899ZM111.985 170.929C110.271 170.929 108.85 172.094 108.85 174.18C108.85 176.267 110.484 177.337 111.985 177.337C113.712 177.337 115.041 176.145 115.041 174.18C115.041 172.297 113.712 170.929 111.985 170.929Z" fill="#656D70"/>
<path d="M122.836 175.942C122.982 176.592 123.394 177.418 124.789 177.418C125.851 177.418 126.555 176.876 126.555 176.077C126.555 175.508 126.237 174.993 125.36 174.776L124.204 174.505C123.194 174.275 121.866 173.72 122.105 171.741C122.304 170.522 123.46 169.723 124.815 169.723C126.117 169.723 127.206 170.373 127.432 171.918H126.276C126.13 171.267 125.532 170.888 124.815 170.888C124.018 170.888 123.354 171.321 123.261 171.918C123.061 172.88 123.925 173.191 124.483 173.34L125.625 173.611C127.193 173.991 127.725 174.912 127.725 176.077C127.725 177.554 126.409 178.57 124.682 178.57C123.287 178.57 121.839 177.622 121.786 175.955H122.836V175.942Z" fill="#656D70"/>
</g>
<defs>
<linearGradient id="paint0_linear_1294_26752" x1="61.7625" y1="98.6863" x2="65.2916" y2="104.388" gradientUnits="userSpaceOnUse">
<stop stop-color="white" stop-opacity="0"/>
<stop offset="0.1372" stop-color="#CBCACB" stop-opacity="0.1425"/>
<stop offset="0.2908" stop-color="#999797" stop-opacity="0.3022"/>
<stop offset="0.4421" stop-color="#6E6C6C" stop-opacity="0.4594"/>
<stop offset="0.5877" stop-color="#4E4A4B" stop-opacity="0.6107"/>
<stop offset="0.7261" stop-color="#363233" stop-opacity="0.7545"/>
<stop offset="0.8543" stop-color="#282425" stop-opacity="0.8877"/>
<stop offset="0.9624" stop-color="#231F20"/>
</linearGradient>
<clipPath id="clip0_1294_26752">
<rect width="155" height="160" fill="white" transform="translate(25 22.5)"/>
</clipPath>
</defs>
</svg>
