<svg width="205" height="205" viewBox="0 0 205 205" fill="none" xmlns="http://www.w3.org/2000/svg">
<path d="M140.516 107.914L86.3752 90.761L85.9961 88.1887L86.1721 85.833L144.618 104.814L140.516 107.914Z" fill="#02A2D3"/>
<path d="M69.3472 90.057L86.2355 90.0583L58.6799 106.055L52.4577 106.055L46.235 106.054L69.3472 90.057Z" fill="url(#paint0_linear_1294_26812)"/>
<path d="M101.254 23.8278L105.546 22.501V69.8588L104.232 70.9013L101.254 72.7019" fill="#065560"/>
<path d="M105.546 69.8213L144.618 81.7623L142.736 83.3328L140.516 84.6054L101.254 72.6779L105.546 69.8213Z" fill="#106C79"/>
<path d="M144.618 81.7588L140.516 84.6019V107.915L144.618 104.815V81.7588Z" fill="#18778B"/>
<path d="M86.1719 85.833L86.375 90.761L58.6797 106.055V100.722L86.1719 85.833Z" fill="#22C4F4"/>
<path d="M29.4736 128.106H30.0422H30.6109H31.1795V128.662V144.989V145.558H30.6109H30.0422H29.4736V144.989V128.662V128.106Z" fill="#231F20"/>
<path d="M46.2079 128.106H46.5057L46.6546 128.35L55.8879 142.173V128.662V128.106H56.4565H57.0252H57.5938V128.662V138.125V144.989V145.558H56.9981H56.3889H56.091L55.9285 145.314L46.7088 131.478V144.989V145.558H46.1402H45.5716H45.0029V144.989V128.662V128.106H45.5986H46.2079Z" fill="#231F20"/>
<path d="M71.4297 128.024H71.9848H84.6839H85.2525V128.593V129.162V129.73H84.6839H79.1737V144.988V145.557H78.6322H78.05H77.5085V144.988V129.73H71.9848H71.4297V129.162V128.593V128.024Z" fill="#231F20"/>
<path d="M99.0889 127.981H99.6575H109.026H109.568V128.55V129.119V129.687H109.026H100.795V137.282H109.026H109.568V137.851V138.42V138.988H109.026H100.795V143.862H109.026H109.568V144.417V144.986V145.554H109.026H99.6575H99.0889V144.986V128.55V127.981Z" fill="#231F20"/>
<path d="M123.403 128.052H123.958H124.527H125.096V128.62V143.865H134.221H134.776V144.42V144.988V145.557H134.221H123.958H123.403V144.988V128.62V128.052Z" fill="#231F20"/>
<path d="M148.613 128.052H149.182H149.751H150.319V128.62V143.865H159.431H159.999V144.42V144.988V145.557H159.431H149.182H148.613V144.988V128.62V128.052Z" fill="#231F20"/>
<path d="M173.835 128.106H174.404H174.959H175.527V128.662V144.989V145.558H174.959H174.404H173.835V144.989V128.662V128.106Z" fill="#231F20"/>
<path d="M28.458 157.083H176.543" stroke="#889096" stroke-width="1.5924" stroke-miterlimit="10"/>
<path d="M65.1875 165.763H69.926C73.4596 165.763 75.5174 168.484 75.5174 172.045C75.5174 175.578 73.4731 178.272 69.926 178.272H65.1875V165.763ZM69.926 177.135C72.7691 177.135 74.3125 174.928 74.3125 172.045C74.3125 169.147 72.7691 166.9 69.926 166.9H66.3924V177.149H69.926V177.135Z" fill="#666E71"/>
<path d="M81.2842 166.668C81.2842 166.181 81.7039 165.829 82.1777 165.829C82.6922 165.829 83.0848 166.168 83.0848 166.668C83.0848 167.142 82.6922 167.481 82.1777 167.481C81.6903 167.494 81.2842 167.142 81.2842 166.668ZM81.582 169.796H82.7463V178.271H81.582V169.796Z" fill="#666E71"/>
<path d="M97.531 169.8V177.016C97.531 181.118 95.7033 182.499 92.9414 182.499C91.5063 182.499 90.1118 181.809 89.2724 180.428L90.2472 179.886C90.87 180.888 91.9125 181.389 92.9279 181.389C94.9993 181.389 96.3531 180.333 96.3531 177.07V176.637C95.7168 177.774 94.39 178.451 92.982 178.451C90.6263 178.451 88.6768 176.596 88.6768 174.024C88.6768 171.452 90.5992 169.61 92.982 169.61C94.4171 169.61 95.7168 170.287 96.3531 171.425V169.786H97.531V169.8ZM96.3667 174.065C96.3667 172.02 94.7691 170.721 93.0903 170.721C91.3168 170.721 89.8681 172.129 89.8681 173.997C89.8681 175.879 91.3168 177.341 93.0903 177.341C94.8503 177.341 96.3667 176.014 96.3667 174.065Z" fill="#666E71"/>
<path d="M103.744 166.668C103.744 166.181 104.164 165.829 104.638 165.829C105.152 165.829 105.545 166.168 105.545 166.668C105.545 167.142 105.152 167.481 104.638 167.481C104.164 167.494 103.744 167.142 103.744 166.668ZM104.056 169.796H105.22V178.271H104.056V169.796Z" fill="#666E71"/>
<path d="M115.414 170.8H113.478V178.273H112.341V170.8H110.798V169.798H112.341V166.427H113.478V169.798H115.414V170.8Z" fill="#666E71"/>
<path d="M128.888 169.8V178.275H127.723V176.623C127.087 177.788 125.76 178.451 124.352 178.451C121.996 178.451 120.047 176.596 120.047 174.024C120.047 171.452 121.969 169.61 124.352 169.61C125.787 169.61 127.087 170.287 127.723 171.425V169.786H128.888V169.8ZM127.737 174.065C127.737 172.02 126.139 170.721 124.46 170.721C122.687 170.721 121.238 172.129 121.238 173.997C121.238 175.879 122.687 177.341 124.46 177.341C126.207 177.341 127.737 176.014 127.737 174.065Z" fill="#666E71"/>
<path d="M135.425 165.032H136.589V178.273H135.425V165.032Z" fill="#666E71"/>
<defs>
<linearGradient id="paint0_linear_1294_26812" x1="61.0821" y1="99.6406" x2="63.8897" y2="104.249" gradientUnits="userSpaceOnUse">
<stop stop-color="white" stop-opacity="0"/>
<stop offset="0.1372" stop-color="#CBCACB" stop-opacity="0.1425"/>
<stop offset="0.2908" stop-color="#999797" stop-opacity="0.3022"/>
<stop offset="0.4421" stop-color="#6E6C6C" stop-opacity="0.4594"/>
<stop offset="0.5877" stop-color="#4E4A4B" stop-opacity="0.6107"/>
<stop offset="0.7261" stop-color="#363233" stop-opacity="0.7545"/>
<stop offset="0.8543" stop-color="#282425" stop-opacity="0.8877"/>
<stop offset="0.9624" stop-color="#231F20"/>
</linearGradient>
</defs>
</svg>
