<svg width="149" height="102" viewBox="0 0 149 102" fill="none" xmlns="http://www.w3.org/2000/svg">
<path d="M0.353516 14.7705H7.99605V61.7659H0.353516V14.7705ZM22.5415 37.0202C23.5277 37.1434 24.5754 37.4516 25.654 37.9755C26.7634 38.4994 27.7804 39.2081 28.7357 40.1326C29.691 41.0571 30.4922 42.1973 31.1394 43.5533C31.7865 44.8784 32.0947 46.4192 32.0947 48.1758C32.0947 50.3021 31.7865 52.1203 31.1394 53.6612C30.4922 55.202 29.691 56.4655 28.7357 57.4516C27.7804 58.4378 26.7326 59.239 25.6232 59.8245C24.483 60.41 23.4044 60.8414 22.3566 61.1188C21.3089 61.427 20.3843 61.6119 19.5831 61.6735C18.7819 61.7351 18.258 61.7659 17.9807 61.7659H10.5847V56.1573H17.5492C19.7988 56.1573 21.5554 55.4485 22.8497 54.0001C24.1132 52.5518 24.7603 50.6103 24.7603 48.2066C24.7603 45.8954 24.1132 43.9847 22.7881 42.4131C21.4629 40.8414 19.5215 40.0402 16.9945 40.0402H10.6155V34.863H13.6663C14.5908 34.863 15.5461 34.8322 16.5323 34.8014C17.5184 34.7705 18.4121 34.524 19.275 34.0926C20.1378 33.6611 20.8158 32.9524 21.3397 31.9354C21.8636 30.9185 22.1409 29.4392 22.1409 27.5286C22.1409 26.7582 22.0485 25.957 21.8328 25.1249C21.617 24.2929 21.1856 23.5533 20.5693 22.8753C19.9221 22.1973 19.0284 21.6426 17.8266 21.2112C16.6247 20.7798 15.0531 20.564 13.1116 20.564H10.6155V14.7705H13.882C15.8851 14.7705 17.8266 15.017 19.6756 15.4793C21.5554 15.9415 23.2195 16.6811 24.6371 17.6981C26.0854 18.715 27.2257 20.0402 28.0885 21.6734C28.9514 23.3067 29.352 25.2482 29.352 27.4978C29.352 28.8229 29.1363 30.0248 28.7049 31.1034C28.2734 32.1819 27.7495 33.1373 27.1024 33.9385C26.4552 34.7397 25.7465 35.4177 24.9144 35.9416C24.1132 36.4963 23.3119 36.8353 22.5415 37.0202Z" fill="black"/>
<path d="M49.1948 14.7705L56.2826 33.0756L52.8311 41.4269L40.4736 14.7705H49.1948ZM66.7294 14.7705H75.4506L61.4906 42.6288V61.7659H53.7248V46.0803L66.7294 14.7705Z" fill="black"/>
<path d="M85.3169 53.1651C85.9024 53.5041 86.6728 53.843 87.5665 54.1512C88.491 54.4594 89.4155 54.7676 90.4016 55.0449C91.3878 55.3223 92.3431 55.538 93.3292 55.7229C94.3154 55.9078 95.209 55.9694 96.0719 55.9694H96.2568V62.0403H96.1335C95.1166 62.0403 94.0688 61.9786 92.9902 61.8862C91.9117 61.7937 90.8022 61.6089 89.6928 61.3315C88.5834 61.085 87.5357 60.7152 86.5495 60.2837C85.5634 59.8523 84.7005 59.2976 83.9609 58.6504L85.3169 53.1651ZM84.2691 27.125C84.2691 25.2452 84.5773 23.5811 85.2244 22.1019C85.8716 20.6227 86.7344 19.2975 87.813 18.1881C88.8916 17.0479 90.1859 16.1542 91.6343 15.5071C93.1135 14.8599 94.6543 14.3977 96.2568 14.2128V20.8692C94.9009 21.3314 93.7607 22.1635 92.867 23.3345C91.9733 24.5056 91.5418 25.6766 91.5418 26.8784C91.5418 28.5425 91.9733 29.8677 92.867 30.8846C93.7607 31.9016 94.9009 32.7953 96.2568 33.5657V40.8384C94.8392 40.1604 93.4525 39.4208 92.0349 38.6504C90.6173 37.8492 89.3539 36.9247 88.2137 35.8769C87.0734 34.8292 86.1181 33.5965 85.3785 32.1789C84.6697 30.7614 84.2691 29.0972 84.2691 27.125ZM106.272 22.0402C106.057 21.9478 105.81 21.7937 105.502 21.6088C105.194 21.3931 104.793 21.2082 104.238 20.9925C103.684 20.8076 102.975 20.6535 102.143 20.4994C101.28 20.3761 100.201 20.3453 98.8762 20.4377V13.9971C100.756 14.0279 102.636 14.2436 104.577 14.6134C106.519 14.9832 108.06 15.5379 109.261 16.3083C109.015 16.863 108.707 17.4793 108.368 18.1265C108.029 18.7736 107.721 19.39 107.412 19.9755C107.104 20.561 106.858 21.0233 106.642 21.4239C106.457 21.7629 106.334 21.9786 106.272 22.0402ZM98.8762 34.86C100.294 35.5071 101.711 36.1851 103.191 36.8939C104.67 37.6027 105.995 38.4963 107.166 39.5441C108.368 40.5919 109.323 41.8554 110.094 43.3346C110.864 44.8138 111.234 46.6628 111.234 48.8816C111.234 50.4224 110.956 51.9016 110.371 53.35C109.785 54.7984 108.984 56.0927 107.936 57.2637C106.889 58.4347 105.594 59.4209 104.084 60.2221C102.543 61.0233 100.818 61.5472 98.8454 61.8246V55.6921C102.328 54.8292 104.084 52.5179 104.084 48.7275C104.084 47.2483 103.591 46.0156 102.605 45.0295C101.619 44.0433 100.386 43.1497 98.8454 42.2868V34.86H98.8762Z" fill="black"/>
<path d="M127.072 14.7705V55.9724H148.706V61.7659H119.307V14.7705H127.072Z" fill="black"/>
<path d="M49.9684 0.625H0.353516V6.88078H49.9684V0.625Z" fill="#C8C8C8"/>
<path d="M148.705 0.625H99.0898V6.88078H148.705V0.625Z" fill="#404040"/>
<path d="M99.1208 0.625H49.999V6.88078H99.1208V0.625Z" fill="#408CD9"/>
<path d="M49.9684 69.5947H0.353516V75.8505H49.9684V69.5947Z" fill="#C8C8C8"/>
<path d="M148.705 69.5947H99.0898V75.8505H148.705V69.5947Z" fill="#404040"/>
<path d="M99.1208 69.5947H49.999V75.8505H99.1208V69.5947Z" fill="#408CD9"/>
<path d="M30.585 100.222V89.2822H32.8038V98.3423H38.3508V100.222H30.585Z" fill="black"/>
<path d="M53.1124 89.1865H50.8936V100.219H53.1124V89.1865Z" fill="black"/>
<path d="M69.3498 100.219L65.4053 89.1865H67.809L70.6133 97.3529L73.2944 89.1865H75.6672L71.7227 100.219H69.3498Z" fill="black"/>
<path d="M88.1221 100.219V89.1865H96.2885V91.0355H90.3409V93.5009H95.8879V95.3499H90.3409V98.3391H96.5042V100.219H88.1221Z" fill="black"/>
<path d="M118.504 94.7122C118.504 98.102 115.762 100.876 112.341 100.876C108.951 100.876 106.178 98.1328 106.178 94.7122C106.178 91.2915 108.92 88.5488 112.341 88.5488C115.762 88.5488 118.504 91.3223 118.504 94.7122Z" stroke="#00E574" stroke-miterlimit="10"/>
<path d="M115.729 94.7086C115.729 96.5576 114.219 98.0677 112.37 98.0677C110.521 98.0677 109.011 96.5576 109.011 94.7086C109.011 92.8596 110.521 91.3496 112.37 91.3496C114.219 91.3496 115.729 92.8596 115.729 94.7086Z" fill="#00E574"/>
</svg>
