<svg width="205" height="205" viewBox="0 0 205 205" fill="none" xmlns="http://www.w3.org/2000/svg">
<path d="M95.2133 82.2974C95.2133 82.2921 95.2133 82.2869 95.2133 82.2816C95.1975 82.2081 95.0872 81.3678 95.082 81.2943C94.7039 78.5949 94.7354 75.927 95.124 73.3484C95.124 73.3221 95.1292 73.3011 95.1345 73.2748C95.3866 71.61 95.791 69.982 96.3372 68.4064C96.3477 68.3749 96.3582 68.3434 96.3687 68.3119C99.8768 58.2338 109.036 50.3614 120.663 48.7491C123.489 48.3604 126.278 48.3604 128.966 48.7176C128.998 48.7176 129.024 48.7228 129.05 48.728C129.14 48.7386 129.229 48.7543 129.318 48.7648C129.324 48.7648 129.324 48.7648 129.329 48.7648C129.355 48.7701 129.371 48.7701 129.397 48.7753C129.402 48.7753 129.408 48.7753 129.413 48.7753C129.418 48.7753 129.429 48.7753 129.434 48.7753C129.476 48.7806 129.507 48.7858 129.549 48.7911C131.083 49.0221 132.58 49.3688 134.029 49.8257C134.071 49.8414 134.118 49.8519 134.155 49.8677C137.9 51.0546 141.34 52.9505 144.281 55.4083C141.072 51.9264 137.033 49.1745 132.443 47.4991C132.391 47.4781 132.333 47.4571 132.28 47.4414C130.899 46.9425 129.465 46.5433 127.995 46.244C127.953 46.2335 127.906 46.223 127.869 46.2177C127.711 46.1862 127.554 46.1599 127.401 46.1337C127.375 46.1284 127.354 46.1232 127.328 46.1179C127.323 46.1179 127.317 46.1179 127.312 46.1179C127.286 46.1127 127.265 46.1074 127.233 46.1022C127.16 46.0864 127.086 46.0759 127.008 46.0602C126.976 46.0549 126.95 46.0497 126.918 46.0444C125.637 45.8291 124.334 45.6978 123 45.6558C107.755 45.1096 94.7616 55.8022 92.3458 70.1658C92.3406 70.2026 92.3353 70.2288 92.3301 70.2656C92.1305 71.4682 92.0097 72.7024 91.9572 73.9471C91.9414 74.3672 91.9362 74.7873 91.9414 75.2022C91.9414 75.2285 91.9414 75.2495 91.9414 75.2758C91.9519 76.5572 92.0517 77.8124 92.225 79.0465C92.225 79.078 92.2303 79.0991 92.2355 79.1306C92.2355 79.1358 92.2355 79.1358 92.2355 79.1411C92.2355 79.1673 92.2408 79.1936 92.2513 79.2198C92.2565 79.2619 92.3773 79.9814 92.4088 80.1967C93.2964 80.9529 94.2417 81.6619 95.2133 82.2974Z" fill="#FEAF13"/>
<path d="M124.592 97.6448C120.926 100.407 116.782 102.125 112.518 102.849C111.441 103.038 110.349 103.154 109.262 103.212C99.7509 103.726 90.0141 99.5039 83.6963 91.1221C83.3076 90.6022 82.9348 90.0822 82.5829 89.5466C82.5671 89.5203 82.5514 89.4993 82.5409 89.473C81.6638 88.1443 80.9076 86.7789 80.2721 85.3767C80.2564 85.3399 80.2354 85.3084 80.2248 85.2716C77.6042 79.4947 76.9162 73.182 78.0506 67.2686C75.7083 74.2744 75.9552 82.1888 79.2795 89.4363C79.3005 89.4783 79.3215 89.5256 79.3373 89.5623C79.4948 89.9089 79.6629 90.2503 79.8415 90.5917C80.4664 91.8048 81.1544 92.9602 81.9054 94.0578C81.9212 94.0841 81.9369 94.1051 81.9527 94.1314C88.7905 104.005 100.717 108.789 112.061 106.578C113.001 106.394 113.941 106.163 114.866 105.88C116.499 105.391 118.101 104.75 119.671 103.947C121.309 103.112 124.77 100.838 126.493 99.5354C126.698 98.3013 126.803 97.0408 126.824 95.7647C126.162 96.3844 125.327 97.0881 124.592 97.6448Z" fill="#FEAF13"/>
<path d="M84.9134 70.8555C85.3861 71.7326 85.906 72.5361 86.4732 73.3606C86.4732 73.3659 86.4837 73.3764 86.4889 73.3816C86.804 73.8385 87.1349 74.2902 87.4868 74.7313C87.5078 74.7628 87.5288 74.7838 87.5445 74.8101C87.5445 74.8048 87.5445 74.8048 87.5445 74.7996C87.6496 74.9204 87.7546 75.0464 87.8596 75.1725C87.8544 75.1252 87.8439 75.0727 87.8439 75.0569C87.8386 75.0149 87.8334 74.9781 87.8281 74.9309C87.8124 74.7996 87.7966 74.6578 87.7861 74.5212C87.7756 74.4792 87.7704 74.432 87.7704 74.3952C87.7651 74.3532 87.7599 74.3164 87.7546 74.2744C87.7493 74.2324 87.7441 74.1956 87.7388 74.1536C87.7336 74.1169 87.7283 74.0854 87.7283 74.0538C87.6811 73.5339 87.6443 73.0192 87.6233 72.5098C87.6233 72.4731 87.6181 72.4468 87.6181 72.41C87.0666 57.1064 99.0144 43.8036 115.027 42.2964C117.737 42.0443 120.389 42.1388 122.947 42.559C122.989 42.5642 123.02 42.5695 123.057 42.5747C123.099 42.58 123.136 42.5905 123.178 42.5957C123.22 42.601 123.251 42.6115 123.293 42.6167C123.335 42.622 123.377 42.6325 123.419 42.6377C123.461 42.643 123.493 42.6535 123.535 42.6587C123.939 42.7323 124.344 42.811 124.748 42.9056C124.795 42.9161 124.848 42.9318 124.9 42.9423C125.877 43.1629 126.844 43.436 127.789 43.7511C127.831 43.7669 127.862 43.7774 127.899 43.7931C128.172 43.8824 128.435 43.9822 128.697 44.0767C128.703 44.0767 128.708 44.082 128.713 44.082C128.745 44.0925 128.771 44.103 128.802 44.1187C128.844 44.1345 128.876 44.1502 128.918 44.1607C132.531 45.5262 135.824 47.5534 138.608 50.1005C135.614 46.5188 131.77 43.6198 127.358 41.7082C127.316 41.6872 127.285 41.6714 127.243 41.6609C126.733 41.4456 126.213 41.2408 125.693 41.0464C125.651 41.0307 125.609 41.0149 125.567 41.0044C125.079 40.8311 124.585 40.6631 124.092 40.516C123.971 40.474 123.85 40.4425 123.729 40.4057C123.036 40.2009 122.343 40.0328 121.629 39.8753C121.566 39.8595 121.497 39.8438 121.424 39.8333C120.552 39.6495 119.67 39.5077 118.777 39.3974C118.719 39.3869 118.651 39.3816 118.588 39.3764C118.472 39.3606 118.367 39.3501 118.252 39.3344C118.241 39.3344 118.231 39.3344 118.22 39.3344C118.173 39.3291 118.12 39.3239 118.078 39.3186C118.063 39.3186 118.047 39.3186 118.036 39.3134C117.868 39.2976 117.705 39.2818 117.537 39.2713C100.821 37.9269 86.2053 50.1058 84.8924 66.4703C84.8504 67.0112 84.8189 67.5521 84.8084 68.0878C84.8084 68.1561 84.8031 68.2244 84.8031 68.2926C84.8031 68.3819 84.7979 68.466 84.7979 68.5552C84.7979 68.6235 84.7979 68.6918 84.7979 68.76C84.7979 69.0489 84.8031 69.3325 84.8136 69.6213C84.8136 69.6791 84.8136 69.7421 84.8189 69.8104C84.8294 70.0625 84.8504 70.4826 84.8661 70.7925C84.8871 70.8082 84.9029 70.8293 84.9134 70.8555C84.9081 70.845 84.9081 70.8503 84.9134 70.8555Z" fill="#CE3C3F"/>
<path d="M122.542 108.353C123.635 106.672 124.464 104.897 125.11 102.996C124.359 103.7 123.419 104.508 122.584 105.139C121.172 106.199 119.691 107.113 118.162 107.869C118.12 107.89 118.089 107.911 118.047 107.927C106.062 113.814 91.0526 110.553 82.0458 99.6031C82.0196 99.5716 81.9985 99.5454 81.9723 99.5086C81.7149 99.1935 81.4681 98.8784 81.2213 98.5528C80.318 97.3554 79.5092 96.116 78.8055 94.8345C78.774 94.782 78.7477 94.7242 78.7162 94.6717C75.2448 88.2908 74.2207 81.1064 75.5021 74.4209C73.0075 81.8889 73.4171 90.3758 77.314 98.0171C78.317 99.9813 79.5039 101.798 80.8432 103.447C80.9009 103.521 80.9639 103.594 81.027 103.668C82.2716 105.17 83.6371 106.535 85.1023 107.754C85.1549 107.796 85.2074 107.843 85.2599 107.88C94.2089 115.185 106.829 117.013 117.606 111.519C119.197 110.711 121.103 109.461 122.526 108.374C122.532 108.363 122.542 108.353 122.547 108.342C122.542 108.353 122.542 108.353 122.542 108.353Z" fill="#CE3C3F"/>
<path d="M101.698 84.9433C101.293 80.0749 102.155 74.7024 104.124 70.4695C104.129 70.4484 104.14 70.4327 104.15 70.4169C104.817 68.9832 105.61 67.6125 106.514 66.3101C106.529 66.2838 106.55 66.2628 106.561 66.2365C110.873 60.0394 117.695 55.4599 125.877 54.0419C127.678 53.7321 129.469 53.585 131.228 53.5955H131.313C131.491 53.5955 131.664 53.6008 131.843 53.606C131.869 53.606 131.89 53.606 131.916 53.606C133.35 53.648 134.763 53.7898 136.144 54.0314C136.176 54.0367 136.207 54.0419 136.239 54.0472C141.023 54.8927 145.456 56.8936 149.153 59.7821C145.429 55.9746 140.65 53.1701 135.272 51.8204C135.236 51.8099 135.199 51.8047 135.162 51.7941C133.744 51.4423 132.289 51.1954 130.803 51.0589C130.772 51.0537 130.751 51.0537 130.719 51.0484C130.646 51.0379 130.567 51.0326 130.488 51.0274C130.456 51.0221 130.425 51.0221 130.388 51.0169C129.616 50.9591 128.839 50.9224 128.051 50.9171C116.765 50.8856 106.95 57.0984 102.023 66.247C102.008 66.2785 101.992 66.2995 101.981 66.3311C101.225 67.7438 100.584 69.2248 100.075 70.7636C100.064 70.7846 100.059 70.8056 100.054 70.8213C99.1454 73.5785 98.6517 76.509 98.6465 79.5603C98.6465 80.7734 98.7988 82.6221 98.9458 83.8352C99.429 84.061 99.9227 84.2816 100.416 84.4707C100.847 84.6545 101.272 84.8015 101.698 84.9433Z" fill="#2DB67E"/>
<path d="M125.328 88.8036C120.339 92.5638 114.457 94.3389 108.58 94.2917C107.32 94.2812 106.059 94.1866 104.809 94.0081C97.3992 92.9577 90.2988 89.0031 85.3516 82.4332C85.2151 82.2493 85.0733 82.0603 84.9473 81.8817C84.9315 81.8607 84.9157 81.8397 84.9052 81.824C84.1122 80.7106 83.398 79.5552 82.773 78.384C82.7573 78.3525 82.7415 78.3315 82.731 78.3053C79.6955 72.5441 78.7187 66.1317 79.6692 60.0816C79.685 59.8768 79.706 59.6615 79.727 59.4619C77.516 66.3312 77.8469 74.0671 81.1922 81.1307C81.208 81.1622 81.2237 81.1885 81.2342 81.22C81.3498 81.4563 81.4653 81.6927 81.5861 81.9343C82.127 82.9951 82.7205 84.0087 83.3665 84.9698C83.3822 84.9908 83.398 85.0118 83.4085 85.0328C88.718 92.9367 97.3309 97.6055 106.306 98.0362C107.493 98.094 108.691 98.0782 109.883 97.9837C113.496 97.7001 117.099 96.7232 120.512 94.9797C122.177 94.1341 124.735 92.4325 126.247 91.2509C126.126 90.3161 125.958 89.3918 125.738 88.4885C125.627 88.5777 125.444 88.7195 125.328 88.8036Z" fill="#2DB67E"/>
<path d="M138.616 57.4733C138.164 57.447 137.723 57.4312 137.271 57.4312C137.24 57.4312 137.213 57.4312 137.187 57.4312C135.806 57.426 134.425 57.5205 133.049 57.7149C133.023 57.7149 133.007 57.7201 132.981 57.7253C132.96 57.7253 132.939 57.7306 132.918 57.7358C132.891 57.7411 132.875 57.7411 132.849 57.7464C132.592 57.7831 132.329 57.8251 132.077 57.8724C132.051 57.8776 132.03 57.8829 132.004 57.8882C126.332 58.8965 120.844 61.6117 116.385 66.0231C115.665 66.7321 114.988 67.4726 114.352 68.2341C114.337 68.2552 114.316 68.2762 114.305 68.2972C113.344 69.4578 112.493 70.6762 111.737 71.9366C111.727 71.9524 111.716 71.9734 111.706 71.9839C109.174 76.2221 107.756 81.5054 107.557 86.232C106.317 86.1007 105.015 85.8538 103.691 85.5282C103.912 80.6021 105.456 75.1822 108.108 70.9178C108.119 70.902 108.129 70.881 108.14 70.8705C108.954 69.5628 109.883 68.3077 110.923 67.1208C110.944 67.0945 110.96 67.0787 110.976 67.0577C112.535 65.2774 114.347 63.6546 116.385 62.2419C121.148 58.9438 126.537 57.2317 131.893 56.9953C131.925 56.9953 131.946 56.9953 131.972 56.9953C132.209 56.9848 132.45 56.9796 132.692 56.9743C132.718 56.9743 132.739 56.9743 132.765 56.9743H132.823C132.849 56.9743 132.865 56.9743 132.891 56.9743C134.314 56.9586 135.738 57.0531 137.14 57.2474C137.171 57.2527 137.198 57.2579 137.229 57.2632C137.691 57.3105 138.154 57.3892 138.616 57.4733Z" fill="#3B3D4A"/>
<path d="M130.413 95.9795C130.335 97.1507 130.188 98.3113 129.967 99.4615C128.922 104.965 126.296 110.207 122.063 114.434C110.683 125.804 91.9705 125.615 80.3483 114.009C73.0326 106.698 69.9655 96.1161 72.2343 86.2112C72.2343 86.227 72.2291 86.2427 72.2291 86.2533L72.187 86.6209C72.1765 86.6944 72.1713 86.7732 72.1608 86.8467C72.1503 86.9307 72.145 87.02 72.1345 87.1093C72.1188 87.2458 72.1083 87.3876 72.0978 87.5294C72.0873 87.6607 72.0768 87.8025 72.0663 87.9338C72.0663 87.9548 72.0662 87.9758 72.061 87.9863C72.0557 88.0966 72.0452 88.2017 72.0452 88.3119C72.0452 88.354 72.04 88.396 72.04 88.438C72.0347 88.5535 72.0295 88.6638 72.0242 88.7794C72.019 88.9054 72.019 89.0419 72.0137 89.168V89.2625C72.0137 89.3518 72.0137 89.4463 72.0137 89.5356V89.7404C72.0137 89.8139 72.0137 89.8822 72.019 89.9505C72.019 90.0083 72.019 90.0713 72.0242 90.1396C72.0242 90.2183 72.0242 90.2971 72.0295 90.3706C72.0295 90.4179 72.0295 90.4704 72.0347 90.5177C72.0347 90.6227 72.04 90.7225 72.0505 90.8328C72.0505 90.8591 72.0505 90.8801 72.0557 90.9063C72.061 91.0061 72.0662 91.1111 72.0715 91.2057C72.0715 91.2582 72.0768 91.3107 72.082 91.358C72.0873 91.4473 72.0925 91.5365 72.103 91.6311C72.103 91.6783 72.1083 91.7361 72.1188 91.7834C72.124 91.8674 72.1345 91.9514 72.1398 92.0354C72.145 92.0775 72.1503 92.1247 72.1555 92.1667C72.166 92.2665 72.1765 92.3663 72.187 92.4608C72.1923 92.5028 72.1975 92.5449 72.2028 92.5869C72.2133 92.6814 72.2238 92.7812 72.2396 92.8757C72.2448 92.9177 72.2501 92.9598 72.2553 93.0018C72.2711 93.1016 72.2816 93.2066 72.2973 93.3011C72.3026 93.3326 72.3078 93.3536 72.3078 93.3852C72.3288 93.5112 72.3498 93.6477 72.3656 93.779C72.3866 93.8998 72.4076 94.0311 72.4234 94.1519C72.4286 94.1729 72.4286 94.1939 72.4339 94.2097C72.4549 94.3357 72.4759 94.4723 72.5022 94.5983C72.5022 94.6036 72.5021 94.6088 72.5074 94.6141C72.5337 94.7454 72.5547 94.8819 72.5809 95.0132C72.5809 95.0132 72.5809 95.0184 72.5809 95.0237C72.6124 95.1602 72.6387 95.302 72.6702 95.4333C72.7017 95.5594 72.728 95.6959 72.7595 95.822C72.7595 95.8325 72.7647 95.843 72.7647 95.8535C72.7962 95.9848 72.8278 96.1266 72.8645 96.2579C72.9013 96.3944 72.9328 96.5362 72.9696 96.6675C73.0063 96.8041 73.0431 96.9459 73.0851 97.0771C73.2374 97.6233 73.4107 98.1695 73.5945 98.7105C73.6365 98.826 73.6785 98.9415 73.7206 99.0623C73.7258 99.0728 73.7311 99.0886 73.7363 99.1043C73.7783 99.2251 73.8256 99.3407 73.8676 99.4667C73.9201 99.6138 73.9779 99.7556 74.0357 99.9079C74.0724 99.9971 74.1039 100.081 74.1407 100.17C74.1617 100.212 74.1775 100.26 74.1932 100.307C74.2247 100.37 74.2457 100.433 74.2772 100.507C74.3088 100.57 74.3298 100.638 74.3613 100.706C74.4033 100.801 74.4453 100.895 74.4873 100.995C74.5346 101.105 74.5871 101.216 74.6344 101.326C74.6554 101.368 74.6764 101.415 74.6921 101.457C74.7289 101.531 74.7604 101.604 74.8024 101.683C74.8339 101.746 74.8602 101.809 74.8917 101.872C74.9232 101.94 74.9495 101.998 74.9862 102.072C75.0072 102.119 75.0282 102.161 75.0493 102.208C75.0913 102.292 75.1333 102.371 75.1753 102.455C75.2383 102.581 75.3013 102.712 75.3749 102.838C75.4011 102.886 75.4221 102.933 75.4484 102.98C75.4904 103.059 75.5324 103.138 75.5744 103.216C75.6059 103.269 75.6322 103.322 75.6637 103.374C75.7057 103.448 75.7477 103.521 75.7898 103.595C75.816 103.637 75.8423 103.689 75.8685 103.731C75.9263 103.841 75.9946 103.946 76.0576 104.057C76.0944 104.12 76.1311 104.183 76.1731 104.246C76.2151 104.314 76.2572 104.382 76.2992 104.451C76.3464 104.535 76.4042 104.624 76.4567 104.713C76.5145 104.808 76.5723 104.902 76.6353 104.997C76.7298 105.149 76.8296 105.301 76.9294 105.454C76.9977 105.559 77.0659 105.659 77.1395 105.764C77.15 105.779 77.1605 105.8 77.171 105.811C77.2392 105.911 77.3023 106.01 77.3758 106.11C77.3916 106.136 77.4073 106.152 77.4178 106.173C77.4808 106.262 77.5438 106.357 77.6121 106.446C77.6331 106.478 77.6541 106.504 77.6699 106.536C77.7434 106.635 77.8117 106.73 77.88 106.824C77.9587 106.935 78.0375 107.035 78.1163 107.14C78.132 107.155 78.1426 107.171 78.1531 107.187C78.2318 107.292 78.3159 107.397 78.3946 107.502C78.4629 107.591 78.5259 107.675 78.5995 107.759C78.61 107.77 78.6152 107.78 78.6257 107.791C78.6572 107.833 78.6887 107.87 78.7255 107.912C78.7728 107.975 78.8305 108.038 78.8831 108.106C78.9146 108.148 78.9408 108.179 78.9723 108.221C79.0511 108.316 79.1299 108.41 79.2087 108.505C79.2087 108.505 79.2139 108.51 79.2139 108.516L79.445 108.789C79.466 108.815 79.487 108.831 79.5028 108.857C79.5815 108.946 79.6603 109.035 79.7391 109.125C79.7706 109.156 79.7916 109.182 79.8231 109.214C79.8966 109.293 79.9649 109.372 80.0384 109.45C80.154 109.576 80.2643 109.697 80.3851 109.823C80.4743 109.918 80.5636 110.012 80.6529 110.102L80.6634 110.112C80.7632 110.217 80.8682 110.322 80.968 110.422C86.3458 115.794 93.3097 118.951 100.562 119.303C101.455 119.35 102.348 119.35 103.22 119.303C103.472 119.287 103.724 119.271 103.976 119.255C106.287 119.077 108.535 118.594 110.683 117.806C112.221 117.249 113.671 116.545 115.036 115.705C115.136 115.647 115.241 115.584 115.336 115.516C115.341 115.516 115.346 115.511 115.346 115.511C116.417 114.828 117.431 114.067 118.387 113.211C118.492 113.116 118.597 113.022 118.697 112.922C118.928 112.712 119.159 112.491 119.379 112.271C120.771 110.874 121.764 109.555 122.531 108.368C122.536 108.358 122.546 108.347 122.552 108.337C123.639 106.662 124.468 104.887 125.114 102.985C125.12 102.975 125.125 102.964 125.13 102.954C125.445 102.009 125.703 101.047 125.907 100.065C125.923 99.9971 125.939 99.9341 125.949 99.8606C125.986 99.6873 126.018 99.5087 126.049 99.3354C126.081 99.1569 126.112 98.9783 126.138 98.7997C126.343 97.5656 126.454 96.2999 126.469 95.029C126.469 94.8872 126.475 94.7454 126.475 94.6036C126.475 93.4639 126.401 92.3401 126.259 91.2372C126.139 90.2971 125.965 89.378 125.75 88.4747C125.587 87.8078 125.398 87.1461 125.188 86.5001C125.188 86.4896 125.183 86.4791 125.177 86.4686C125.172 86.4581 125.172 86.4528 125.167 86.4423C125.162 86.4266 125.156 86.4108 125.151 86.4003C125.036 86.0589 124.92 85.7176 124.789 85.3867C124.694 85.1399 124.594 84.893 124.495 84.6462C124.353 84.2996 124.201 83.9635 124.033 83.6221C125.319 83.0129 126.574 82.3092 127.777 81.4951C127.798 81.4794 127.819 81.4636 127.84 81.4531C128.213 82.2619 128.465 83.1494 128.749 83.995C128.806 84.163 128.869 84.3364 128.927 84.5097C128.938 84.5359 128.943 84.5622 128.953 84.5884C129.001 84.7355 129.053 84.8878 129.095 85.0401C129.442 86.1377 129.72 87.2458 129.936 88.3697C130.429 90.8853 130.587 93.4429 130.413 95.9795Z" fill="#3B3D4A"/>
<path d="M83.3079 58.6008C83.0979 60.0503 83.0401 61.5366 83.1294 63.0123C83.3972 67.3293 84.9412 71.4204 87.6039 74.855C87.6354 74.8971 87.6617 74.9338 87.6984 74.9758C87.6984 74.9758 87.7037 74.9811 87.7089 74.9863C87.9242 75.2647 88.1606 75.5378 88.4179 75.8371C88.4914 75.9264 88.565 76.0157 88.6385 76.0997C88.6805 76.147 88.7225 76.1943 88.7645 76.2415C88.8223 76.3098 88.8906 76.3781 88.9536 76.4463C88.9641 76.4621 88.9799 76.4778 88.9956 76.4936C89.7204 77.2919 90.4766 78.0481 91.2696 78.7624C91.527 78.9987 91.7843 79.2245 92.0469 79.4556C92.9449 80.2329 93.885 80.9366 94.8566 81.5773C95.5866 82.0552 96.3323 82.4964 97.0991 82.9008C97.5455 83.1476 97.9866 83.3944 98.4435 83.6098C98.6169 83.6938 98.7902 83.7778 98.9635 83.8566C99.4466 84.0877 99.9403 84.3082 100.434 84.4921C100.854 84.6549 101.274 84.8019 101.7 84.9437C102.356 85.159 103.018 85.3481 103.69 85.5109C104.583 85.7262 105.444 85.9153 106.305 86.0466C106.726 86.1096 107.151 86.1779 107.555 86.2251C107.561 86.2251 107.566 86.2251 107.571 86.2251C109.168 86.4405 110.775 86.5875 112.377 86.535C112.497 86.5297 112.613 86.5245 112.728 86.5192C116.426 86.3564 120.601 85.2378 124.035 83.6308C124.193 83.9669 124.351 84.3082 124.498 84.6549C124.603 84.9017 124.702 85.1433 124.792 85.3954C124.918 85.7315 125.039 86.0676 125.154 86.4089C125.159 86.4247 125.165 86.4405 125.17 86.451C125.17 86.4615 125.175 86.4667 125.18 86.4772C125.18 86.4877 125.186 86.4982 125.191 86.5087C124.828 86.7136 123.92 87.0654 123.558 87.2597C118.369 89.9014 112.76 90.852 107.335 90.3058C106.038 90.1797 104.74 89.9591 103.464 89.6598C102.986 89.5443 102.503 89.4235 102.031 89.2869C101.784 89.2134 101.542 89.1451 101.301 89.0716C96.3954 87.5223 91.8578 84.7126 88.2131 80.8211C88.024 80.6162 87.835 80.4062 87.6459 80.1961C87.3045 79.8127 86.9684 79.4136 86.6481 79.0039C86.6323 78.9882 86.6166 78.9672 86.6061 78.9514C85.813 77.9483 85.0673 76.8875 84.3898 75.7688C84.3741 75.7426 84.3583 75.7268 84.3478 75.7006C83.9697 75.0756 83.6125 74.4244 83.2712 73.7574C83.1819 73.5789 83.0926 73.3951 83.0033 73.2218C82.5464 72.2869 82.142 71.3469 81.7902 70.3858C81.1232 68.5739 80.6348 66.7306 80.3197 64.8819C80.1936 64.0154 80.0991 63.1278 80.0518 62.2403C79.8418 58.3855 80.4405 54.6147 81.7692 51.1275C81.8322 50.9595 81.8952 50.7914 81.9687 50.6234C82.5622 49.1476 83.2922 47.7191 84.1535 46.3642C84.3058 46.1331 84.4633 45.9073 84.6261 45.6815C84.7154 45.5607 84.8047 45.4346 84.8992 45.3086C85.4087 44.6258 85.9443 43.9641 86.5063 43.3287C86.5063 43.3287 86.5063 43.3287 86.5063 43.3234C87.9715 41.6638 89.6311 40.1671 91.4272 38.8699C92.3147 38.2239 93.2443 37.6252 94.2054 37.0843C99.3626 34.1538 105.444 32.6833 111.83 33.1875C112.361 33.2295 112.886 33.2873 113.406 33.3503C113.574 33.3765 113.742 33.3923 113.91 33.4238C116.588 33.8125 119.141 34.5424 121.53 35.5613C121.63 35.6033 121.725 35.6453 121.819 35.6873C126.162 37.5937 129.944 40.4559 132.911 43.9904C130.674 41.9527 128.116 40.2459 125.333 38.9487L125.17 38.8751C124.203 38.4287 123.2 38.0349 122.176 37.6883C122.119 37.662 122.056 37.6462 121.993 37.6305C120.002 36.9793 117.928 36.5171 115.785 36.2808C115.68 36.265 115.575 36.2545 115.47 36.244C113.474 36.0392 111.426 36.034 109.351 36.2283C109.057 36.2598 108.774 36.286 108.485 36.3228C108.427 36.328 108.369 36.3386 108.312 36.3438C108.249 36.3543 108.18 36.3596 108.112 36.3753C108.075 36.3806 108.039 36.3858 108.002 36.3911C107.666 36.4331 107.335 36.4856 107.004 36.5434C106.878 36.5696 106.757 36.5854 106.626 36.6116C105.239 36.869 103.884 37.2156 102.571 37.641C102.571 37.641 102.571 37.641 102.566 37.641C101.027 38.0821 99.5359 38.6546 98.0864 39.3636C94.8881 40.9286 92.0574 43.0766 89.6678 45.7497C88.817 46.7003 88.0345 47.6981 87.3308 48.7485C86.8424 49.4785 86.3802 50.2347 85.9601 51.0067C85.8235 51.2483 85.687 51.4899 85.5662 51.7315C85.4507 51.9468 85.3404 52.1726 85.2353 52.3932C85.1461 52.5823 85.0568 52.7661 84.9728 52.9552C84.957 52.9919 84.9412 53.0234 84.9307 53.0602C84.915 53.097 84.8992 53.1285 84.8887 53.16C84.8047 53.3543 84.7259 53.5434 84.6471 53.7377C84.6051 53.8532 84.5579 53.9635 84.5158 54.0843C84.4738 54.1998 84.4318 54.3154 84.3898 54.4309C84.3846 54.4362 84.3846 54.4467 84.3793 54.4519C84.3005 54.6725 84.2217 54.9036 84.1535 55.1294C84.1482 55.1399 84.143 55.1504 84.1377 55.1662C83.7386 56.2743 83.476 57.4349 83.3079 58.6008Z" fill="#3B3D4A"/>
<path d="M85.9281 50.9902C85.8966 51.0428 85.8703 51.0953 85.844 51.1478C85.2138 52.3294 84.6729 53.5531 84.2107 54.824C84.1897 54.8713 84.174 54.9238 84.1582 54.9711C84.1425 55.0131 84.1267 55.0604 84.1162 55.1024C84.1845 54.8766 84.2633 54.6455 84.342 54.4249C84.342 54.4196 84.3473 54.4091 84.3525 54.4039C84.3946 54.2883 84.4366 54.1728 84.4786 54.0573C84.5206 53.9417 84.5679 53.8262 84.6099 53.7106C84.6834 53.5163 84.7674 53.3273 84.8515 53.133C84.8672 53.0962 84.883 53.0647 84.8935 53.0332C84.9092 52.9964 84.925 52.9649 84.9355 52.9281C85.0195 52.7391 85.1088 52.5553 85.1981 52.3662C85.3031 52.1456 85.4134 51.9251 85.5289 51.7045C85.655 51.4787 85.7915 51.2371 85.9281 50.9902Z" fill="#3B3D4A"/>
<path d="M88.4092 75.8264C88.1519 75.5375 87.9208 75.2539 87.7002 74.9756C87.7475 75.0334 87.8052 75.0964 87.8578 75.1541C87.8683 75.1699 87.8788 75.1804 87.8893 75.1909C87.8998 75.2014 87.905 75.2119 87.9155 75.2224C87.9628 75.2802 88.0153 75.3485 88.0678 75.4115C88.0783 75.422 88.0836 75.4325 88.0941 75.443C88.1939 75.569 88.2989 75.7056 88.4092 75.8264Z" fill="#3B3D4A"/>
<path d="M83.1439 58.6748C83.0284 59.2157 82.9391 59.7619 82.8604 60.3081C82.9286 59.7619 83.0232 59.221 83.1439 58.6748Z" fill="#3B3D4A"/>
<path d="M86.4641 73.3475C86.2383 73.0272 86.0124 72.6963 85.7971 72.3549C85.7236 72.2341 85.6448 72.1133 85.5713 71.9873C85.7131 72.2236 85.8654 72.4547 86.0229 72.691C86.0387 72.712 86.0492 72.7278 86.0597 72.7436C86.1385 72.8644 86.2173 72.9799 86.296 73.1007C86.3485 73.1795 86.4063 73.2635 86.4641 73.3475Z" fill="#3B3D4A"/>
<path d="M86.4697 73.3486C86.4754 73.3543 86.481 73.3656 86.4867 73.3713L86.481 73.3656C86.4754 73.3599 86.4754 73.3543 86.4697 73.3486Z" fill="#3B3D4A"/>
<path d="M86.6876 73.665C86.619 73.5648 86.5504 73.4645 86.4766 73.3643C86.4818 73.3695 86.4818 73.3748 86.4871 73.3801C86.5557 73.4803 86.619 73.5701 86.6876 73.665Z" fill="#3B3D4A"/>
<path d="M124.04 83.6309C124.192 83.9565 124.345 84.3031 124.497 84.655C124.35 84.3083 124.198 83.9722 124.04 83.6309Z" fill="#3B3D4A"/>
<path d="M125.188 86.504C125.182 86.504 125.182 86.504 125.188 86.504C125.182 86.4935 125.177 86.483 125.172 86.4725C125.167 86.462 125.167 86.4567 125.161 86.4462C125.156 86.4305 125.151 86.4147 125.146 86.4042C125.03 86.0628 124.914 85.7215 124.783 85.3906C124.925 85.753 125.056 86.1154 125.172 86.4725C125.182 86.483 125.188 86.4935 125.188 86.504Z" fill="#3B3D4A"/>
<path d="M43.2855 164.587C43.2855 164.007 43.297 163.3 43.323 162.871H43.3114C43.1355 163.577 42.9019 164.526 42.5356 165.821H41.555C41.2666 164.618 41.0272 163.603 40.8484 162.862H40.8397C40.8628 163.292 40.906 163.995 40.906 164.624V165.821H39.8418V162.158H41.5492C41.7857 162.983 42.0193 163.886 42.1232 164.5H42.1318C42.2731 163.851 42.5067 162.995 42.7519 162.158H44.4536V165.821H43.2912V164.587H43.2855Z" fill="#3B3D4A"/>
<path d="M52.2695 165.139L52.0387 165.823H50.8418L52.2291 162.16H53.7836L55.2632 165.823H53.9826L53.7317 165.139H52.2695ZM53.4519 164.292C53.2126 163.631 53.0741 163.216 52.9818 162.907H52.9616C52.8838 163.21 52.7194 163.732 52.5233 164.292H53.4519Z" fill="#3B3D4A"/>
<path d="M61.6377 162.158H63.498C64.8218 162.158 65.4938 162.969 65.4938 163.932C65.4938 165.063 64.6661 165.821 63.4893 165.821H61.6435L61.6377 162.158ZM62.8288 164.999H63.3451C63.9364 164.999 64.2305 164.644 64.2305 163.961C64.2305 163.398 63.9969 162.986 63.3451 162.98H62.8288V164.999Z" fill="#3B3D4A"/>
<path d="M75.262 164.365H73.3036V164.976H75.4927L75.3543 165.821H72.124V162.158H75.3629V163.006H73.3008V163.517H75.2591L75.262 164.365Z" fill="#3B3D4A"/>
<path d="M89.043 162.158H92.2386V163H90.2255V163.661H92.1088V164.509H90.2255V165.821H89.043V162.158Z" fill="#3B3D4A"/>
<path d="M102.832 163.985C102.832 165.02 102.149 165.911 100.707 165.911C99.3859 165.911 98.6533 165.069 98.6533 163.99C98.6533 162.981 99.3628 162.078 100.762 162.078C102.083 162.075 102.832 162.943 102.832 163.985ZM99.9108 163.97C99.9108 164.608 100.162 165.081 100.764 165.081C101.385 165.081 101.575 164.541 101.575 163.99C101.575 163.353 101.35 162.886 100.73 162.886C100.142 162.889 99.9108 163.373 99.9108 163.97Z" fill="#3B3D4A"/>
<path d="M110.644 164.476V165.823H109.473V162.16H111.691C112.602 162.16 113.078 162.604 113.078 163.213C113.078 163.686 112.804 163.966 112.446 164.093C112.645 164.176 112.98 164.352 112.98 164.975V165.174C112.98 165.382 112.98 165.65 113.032 165.829H111.846C111.786 165.673 111.771 165.448 111.771 165.07V164.946C111.771 164.606 111.662 164.479 111.2 164.479L110.644 164.476ZM110.644 163.712H111.373C111.699 163.712 111.878 163.594 111.878 163.328C111.878 163.083 111.714 162.945 111.37 162.945H110.641L110.644 163.712Z" fill="#3B3D4A"/>
<path d="M127.651 163.002H126.439V162.16H130.045V163.002H128.842V165.823H127.651V163.002Z" fill="#3B3D4A"/>
<path d="M139.688 164.365H137.729V164.976H139.918L139.78 165.821H136.55V162.158H139.789V163.006H137.727V163.517H139.685V164.362H139.688V164.365Z" fill="#3B3D4A"/>
<path d="M147.627 165.139L147.396 165.823H146.199L147.586 162.16H149.141L150.621 165.823H149.34L149.089 165.139H147.627ZM148.809 164.292C148.57 163.631 148.432 163.216 148.339 162.907H148.322C148.244 163.21 148.08 163.732 147.884 164.292H148.809Z" fill="#3B3D4A"/>
<path d="M160.394 164.587C160.394 164.007 160.405 163.3 160.431 162.871H160.42C160.244 163.577 160.01 164.526 159.644 165.821H158.663C158.375 164.618 158.136 163.603 157.957 162.862H157.948C157.971 163.292 158.014 163.995 158.014 164.624V165.821H156.95V162.158H158.658C158.894 162.983 159.128 163.886 159.232 164.5H159.24C159.382 163.851 159.615 162.995 159.863 162.158H161.565V165.821H160.403V164.587H160.394Z" fill="#3B3D4A"/>
<path d="M169.26 164.72C169.335 164.962 169.525 165.147 170.004 165.147C170.428 165.147 170.56 165.02 170.56 164.838C170.56 164.642 170.445 164.53 169.756 164.409C168.4 164.172 168.207 163.708 168.207 163.226C168.207 162.502 168.89 162.078 169.891 162.078C171.108 162.078 171.601 162.643 171.648 163.186H170.488C170.448 163.024 170.341 162.837 169.888 162.837C169.565 162.837 169.412 162.943 169.412 163.114C169.412 163.281 169.565 163.362 170.133 163.465C171.521 163.713 171.789 164.149 171.789 164.7C171.789 165.401 171.201 165.905 169.955 165.905C168.726 165.905 168.178 165.383 168.068 164.723L169.26 164.72Z" fill="#3B3D4A"/>
<path d="M74.0819 141.782V137.09H56.0791V157.374H74.0819V152.69H62.5828V149.304H73.4301V144.612H62.5828V141.779H74.0819V141.782Z" fill="#3B3D4A"/>
<path d="M149.997 141.782V137.09H131.994V157.374H149.997V152.69H138.498V149.304H149.345V144.612H138.498V141.779H149.997V141.782Z" fill="#3B3D4A"/>
<path d="M171.787 141.782V137.09H153.784V157.374H171.787V152.69H160.288V149.304H171.135V144.612H160.288V141.779H171.787V141.782Z" fill="#3B3D4A"/>
<path d="M84.2171 153.595L82.9336 157.379H76.3174L83.995 137.095H92.5955L100.778 157.379H93.6886L92.31 153.595H84.2171ZM90.7727 148.902C89.4489 145.251 88.6817 142.944 88.1741 141.248H88.0732C87.6319 142.926 86.732 145.805 85.6534 148.902H90.7727Z" fill="#3B3D4A"/>
<path d="M121.76 156.992V157.376H128.195V156.992H121.76ZM111.68 155.262C111.709 155.383 111.741 155.51 111.767 155.631H118.095C118.129 155.507 118.161 155.383 118.198 155.262H111.68ZM111.68 155.262C111.709 155.383 111.741 155.51 111.767 155.631H118.095C118.129 155.507 118.161 155.383 118.198 155.262H111.68ZM111.68 155.262C111.709 155.383 111.741 155.51 111.767 155.631H118.095C118.129 155.507 118.161 155.383 118.198 155.262H111.68ZM111.68 155.262C111.709 155.383 111.741 155.51 111.767 155.631H118.095C118.129 155.507 118.161 155.383 118.198 155.262H111.68ZM111.68 155.262C111.709 155.383 111.741 155.51 111.767 155.631H118.095C118.129 155.507 118.161 155.383 118.198 155.262H111.68ZM111.68 155.262C111.709 155.383 111.741 155.51 111.767 155.631H118.095C118.129 155.507 118.161 155.383 118.198 155.262H111.68ZM111.68 155.262C111.709 155.383 111.741 155.51 111.767 155.631H118.095C118.129 155.507 118.161 155.383 118.198 155.262H111.68ZM111.68 155.262C111.709 155.383 111.741 155.51 111.767 155.631H118.095C118.129 155.507 118.161 155.383 118.198 155.262H111.68ZM111.68 155.262C111.709 155.383 111.741 155.51 111.767 155.631H118.095C118.129 155.507 118.161 155.383 118.198 155.262H111.68ZM111.68 155.262C111.709 155.383 111.741 155.51 111.767 155.631H118.095C118.129 155.507 118.161 155.383 118.198 155.262H111.68ZM111.68 155.262C111.709 155.383 111.741 155.51 111.767 155.631H118.095C118.129 155.507 118.161 155.383 118.198 155.262H111.68ZM121.76 155.262V155.631H128.195V155.262H121.76ZM111.68 155.262C111.709 155.383 111.741 155.51 111.767 155.631H118.095C118.129 155.507 118.161 155.383 118.198 155.262H111.68ZM111.68 155.262C111.709 155.383 111.741 155.51 111.767 155.631H118.095C118.129 155.507 118.161 155.383 118.198 155.262H111.68ZM111.68 155.262C111.709 155.383 111.741 155.51 111.767 155.631H118.095C118.129 155.507 118.161 155.383 118.198 155.262H111.68ZM111.68 155.262C111.709 155.383 111.741 155.51 111.767 155.631H118.095C118.129 155.507 118.161 155.383 118.198 155.262H111.68ZM111.68 155.262C111.709 155.383 111.741 155.51 111.767 155.631H118.095C118.129 155.507 118.161 155.383 118.198 155.262H111.68ZM111.68 155.262C111.709 155.383 111.741 155.51 111.767 155.631H118.095C118.129 155.507 118.161 155.383 118.198 155.262H111.68ZM111.68 155.262C111.709 155.383 111.741 155.51 111.767 155.631H118.095C118.129 155.507 118.161 155.383 118.198 155.262H111.68ZM111.68 155.262C111.709 155.383 111.741 155.51 111.767 155.631H118.095C118.129 155.507 118.161 155.383 118.198 155.262H111.68ZM111.68 155.262C111.709 155.383 111.741 155.51 111.767 155.631H118.095C118.129 155.507 118.161 155.383 118.198 155.262H111.68ZM111.68 155.262C111.709 155.383 111.741 155.51 111.767 155.631H118.095C118.129 155.507 118.161 155.383 118.198 155.262H111.68ZM111.268 153.534C111.297 153.655 111.328 153.782 111.357 153.906H118.576C118.608 153.782 118.643 153.658 118.677 153.534H111.268ZM111.268 153.534C111.297 153.655 111.328 153.782 111.357 153.906H118.576C118.608 153.782 118.643 153.658 118.677 153.534H111.268ZM111.268 153.534C111.297 153.655 111.328 153.782 111.357 153.906H118.576C118.608 153.782 118.643 153.658 118.677 153.534H111.268ZM111.268 153.534C111.297 153.655 111.328 153.782 111.357 153.906H118.576C118.608 153.782 118.643 153.658 118.677 153.534H111.268ZM111.268 153.534C111.297 153.655 111.328 153.782 111.357 153.906H118.576C118.608 153.782 118.643 153.658 118.677 153.534H111.268ZM111.268 153.534C111.297 153.655 111.328 153.782 111.357 153.906H118.576C118.608 153.782 118.643 153.658 118.677 153.534H111.268ZM111.268 153.534C111.297 153.655 111.328 153.782 111.357 153.906H118.576C118.608 153.782 118.643 153.658 118.677 153.534H111.268ZM111.268 153.534C111.297 153.655 111.328 153.782 111.357 153.906H118.576C118.608 153.782 118.643 153.658 118.677 153.534H111.268ZM111.268 153.534C111.297 153.655 111.328 153.782 111.357 153.906H118.576C118.608 153.782 118.643 153.658 118.677 153.534H111.268ZM111.268 153.534C111.297 153.655 111.328 153.782 111.357 153.906H118.576C118.608 153.782 118.643 153.658 118.677 153.534H111.268ZM121.76 153.534V153.906H128.195V153.534H121.76ZM111.268 153.534C111.297 153.655 111.328 153.782 111.357 153.906H118.576C118.608 153.782 118.643 153.658 118.677 153.534H111.268ZM111.268 153.534C111.297 153.655 111.328 153.782 111.357 153.906H118.576C118.608 153.782 118.643 153.658 118.677 153.534H111.268ZM111.268 153.534C111.297 153.655 111.328 153.782 111.357 153.906H118.576C118.608 153.782 118.643 153.658 118.677 153.534H111.268ZM111.268 153.534C111.297 153.655 111.328 153.782 111.357 153.906H118.576C118.608 153.782 118.643 153.658 118.677 153.534H111.268ZM111.268 153.534C111.297 153.655 111.328 153.782 111.357 153.906H118.576C118.608 153.782 118.643 153.658 118.677 153.534H111.268ZM111.268 153.534C111.297 153.655 111.328 153.782 111.357 153.906H118.576C118.608 153.782 118.643 153.658 118.677 153.534H111.268ZM111.268 153.534C111.297 153.655 111.328 153.782 111.357 153.906H118.576C118.608 153.782 118.643 153.658 118.677 153.534H111.268ZM111.268 153.534C111.297 153.655 111.328 153.782 111.357 153.906H118.576C118.608 153.782 118.643 153.658 118.677 153.534H111.268ZM111.268 153.534C111.297 153.655 111.328 153.782 111.357 153.906H118.576C118.608 153.782 118.643 153.658 118.677 153.534H111.268ZM110.855 151.804C110.884 151.925 110.913 152.052 110.942 152.173H119.043C119.075 152.049 119.11 151.925 119.142 151.804H110.855ZM110.855 151.804C110.884 151.925 110.913 152.052 110.942 152.173H119.043C119.075 152.049 119.11 151.925 119.142 151.804H110.855ZM110.855 151.804C110.884 151.925 110.913 152.052 110.942 152.173H119.043C119.075 152.049 119.11 151.925 119.142 151.804H110.855ZM110.855 151.804C110.884 151.925 110.913 152.052 110.942 152.173H119.043C119.075 152.049 119.11 151.925 119.142 151.804H110.855ZM110.855 151.804C110.884 151.925 110.913 152.052 110.942 152.173H119.043C119.075 152.049 119.11 151.925 119.142 151.804H110.855ZM110.855 151.804C110.884 151.925 110.913 152.052 110.942 152.173H119.043C119.075 152.049 119.11 151.925 119.142 151.804H110.855ZM110.855 151.804C110.884 151.925 110.913 152.052 110.942 152.173H119.043C119.075 152.049 119.11 151.925 119.142 151.804H110.855ZM110.855 151.804C110.884 151.925 110.913 152.052 110.942 152.173H119.043C119.075 152.049 119.11 151.925 119.142 151.804H110.855ZM110.855 151.804C110.884 151.925 110.913 152.052 110.942 152.173H119.043C119.075 152.049 119.11 151.925 119.142 151.804H110.855ZM121.76 151.804V152.173H128.195V151.804H121.76ZM110.855 151.804C110.884 151.925 110.913 152.052 110.942 152.173H119.043C119.075 152.049 119.11 151.925 119.142 151.804H110.855ZM110.855 151.804C110.884 151.925 110.913 152.052 110.942 152.173H119.043C119.075 152.049 119.11 151.925 119.142 151.804H110.855ZM110.855 151.804C110.884 151.925 110.913 152.052 110.942 152.173H119.043C119.075 152.049 119.11 151.925 119.142 151.804H110.855ZM110.855 151.804C110.884 151.925 110.913 152.052 110.942 152.173H119.043C119.075 152.049 119.11 151.925 119.142 151.804H110.855ZM110.855 151.804C110.884 151.925 110.913 152.052 110.942 152.173H119.043C119.075 152.049 119.11 151.925 119.142 151.804H110.855ZM110.855 151.804C110.884 151.925 110.913 152.052 110.942 152.173H119.043C119.075 152.049 119.11 151.925 119.142 151.804H110.855ZM110.855 151.804C110.884 151.925 110.913 152.052 110.942 152.173H119.043C119.075 152.049 119.11 151.925 119.142 151.804H110.855ZM110.855 151.804C110.884 151.925 110.913 152.052 110.942 152.173H119.043C119.075 152.049 119.11 151.925 119.142 151.804H110.855ZM110.443 150.073C110.472 150.194 110.503 150.321 110.529 150.445H119.505C119.537 150.321 119.571 150.197 119.603 150.073H110.443ZM110.443 150.073C110.472 150.194 110.503 150.321 110.529 150.445H119.505C119.537 150.321 119.571 150.197 119.603 150.073H110.443ZM110.443 150.073C110.472 150.194 110.503 150.321 110.529 150.445H119.505C119.537 150.321 119.571 150.197 119.603 150.073H110.443ZM110.443 150.073C110.472 150.194 110.503 150.321 110.529 150.445H119.505C119.537 150.321 119.571 150.197 119.603 150.073H110.443ZM110.443 150.073C110.472 150.194 110.503 150.321 110.529 150.445H119.505C119.537 150.321 119.571 150.197 119.603 150.073H110.443ZM110.443 150.073C110.472 150.194 110.503 150.321 110.529 150.445H119.505C119.537 150.321 119.571 150.197 119.603 150.073H110.443ZM110.443 150.073C110.472 150.194 110.503 150.321 110.529 150.445H119.505C119.537 150.321 119.571 150.197 119.603 150.073H110.443ZM110.443 150.073C110.472 150.194 110.503 150.321 110.529 150.445H119.505C119.537 150.321 119.571 150.197 119.603 150.073H110.443ZM121.76 150.073C121.76 150.197 121.76 150.321 121.76 150.445H128.195V150.073H121.76ZM110.443 150.073C110.472 150.194 110.503 150.321 110.529 150.445H119.505C119.537 150.321 119.571 150.197 119.603 150.073H110.443ZM110.443 150.073C110.472 150.194 110.503 150.321 110.529 150.445H119.505C119.537 150.321 119.571 150.197 119.603 150.073H110.443ZM110.443 150.073C110.472 150.194 110.503 150.321 110.529 150.445H119.505C119.537 150.321 119.571 150.197 119.603 150.073H110.443ZM110.443 150.073C110.472 150.194 110.503 150.321 110.529 150.445H119.505C119.537 150.321 119.571 150.197 119.603 150.073H110.443ZM110.443 150.073C110.472 150.194 110.503 150.321 110.529 150.445H119.505C119.537 150.321 119.571 150.197 119.603 150.073H110.443ZM110.443 150.073C110.472 150.194 110.503 150.321 110.529 150.445H119.505C119.537 150.321 119.571 150.197 119.603 150.073H110.443ZM110.443 150.073C110.472 150.194 110.503 150.321 110.529 150.445H119.505C119.537 150.321 119.571 150.197 119.603 150.073H110.443ZM115.735 148.343C115.706 148.467 115.675 148.591 115.649 148.712H119.961C119.992 148.588 120.027 148.464 120.056 148.343H115.735ZM115.735 148.343C115.706 148.467 115.675 148.591 115.649 148.712H119.961C119.992 148.588 120.027 148.464 120.056 148.343H115.735ZM115.735 148.343C115.706 148.467 115.675 148.591 115.649 148.712H119.961C119.992 148.588 120.027 148.464 120.056 148.343H115.735ZM115.735 148.343C115.706 148.467 115.675 148.591 115.649 148.712H119.961C119.992 148.588 120.027 148.464 120.056 148.343H115.735ZM115.735 148.343C115.706 148.467 115.675 148.591 115.649 148.712H119.961C119.992 148.588 120.027 148.464 120.056 148.343H115.735ZM115.735 148.343C115.706 148.467 115.675 148.591 115.649 148.712H119.961C119.992 148.588 120.027 148.464 120.056 148.343H115.735ZM115.735 148.343C115.706 148.467 115.675 148.591 115.649 148.712H119.961C119.992 148.588 120.027 148.464 120.056 148.343H115.735ZM121.769 148.343C121.769 148.464 121.766 148.591 121.766 148.712H128.192V148.343H121.769ZM115.735 148.343C115.706 148.467 115.675 148.591 115.649 148.712H119.961C119.992 148.588 120.027 148.464 120.056 148.343H115.735ZM115.735 148.343C115.706 148.467 115.675 148.591 115.649 148.712H119.961C119.992 148.588 120.027 148.464 120.056 148.343H115.735ZM115.735 148.343C115.706 148.467 115.675 148.591 115.649 148.712H119.961C119.992 148.588 120.027 148.464 120.056 148.343H115.735ZM115.735 148.343C115.706 148.467 115.675 148.591 115.649 148.712H119.961C119.992 148.588 120.027 148.464 120.056 148.343H115.735ZM115.735 148.343C115.706 148.467 115.675 148.591 115.649 148.712H119.961C119.992 148.588 120.027 148.464 120.056 148.343H115.735ZM115.735 148.343C115.706 148.467 115.675 148.591 115.649 148.712H119.961C119.992 148.588 120.027 148.464 120.056 148.343H115.735ZM116.156 146.609C116.125 146.733 116.093 146.858 116.064 146.979H120.408C120.439 146.855 120.474 146.731 120.503 146.609H116.156ZM116.156 146.609C116.125 146.733 116.093 146.858 116.064 146.979H120.408C120.439 146.855 120.474 146.731 120.503 146.609H116.156ZM116.156 146.609C116.125 146.733 116.093 146.858 116.064 146.979H120.408C120.439 146.855 120.474 146.731 120.503 146.609H116.156ZM116.156 146.609C116.125 146.733 116.093 146.858 116.064 146.979H120.408C120.439 146.855 120.474 146.731 120.503 146.609H116.156ZM116.156 146.609C116.125 146.733 116.093 146.858 116.064 146.979H120.408C120.439 146.855 120.474 146.731 120.503 146.609H116.156ZM116.156 146.609C116.125 146.733 116.093 146.858 116.064 146.979H120.408C120.439 146.855 120.474 146.731 120.503 146.609H116.156ZM121.792 146.609C121.789 146.731 121.789 146.858 121.786 146.979H128.198V146.609H121.792ZM116.156 146.609C116.125 146.733 116.093 146.858 116.064 146.979H120.408C120.439 146.855 120.474 146.731 120.503 146.609H116.156ZM116.156 146.609C116.125 146.733 116.093 146.858 116.064 146.979H120.408C120.439 146.855 120.474 146.731 120.503 146.609H116.156ZM116.156 146.609C116.125 146.733 116.093 146.858 116.064 146.979H120.408C120.439 146.855 120.474 146.731 120.503 146.609H116.156ZM116.156 146.609C116.125 146.733 116.093 146.858 116.064 146.979H120.408C120.439 146.855 120.474 146.731 120.503 146.609H116.156ZM116.156 146.609C116.125 146.733 116.093 146.858 116.064 146.979H120.408C120.439 146.855 120.474 146.731 120.503 146.609H116.156ZM116.601 144.879C116.569 145.003 116.534 145.127 116.505 145.251H120.852C120.884 145.127 120.915 145.003 120.947 144.879H116.601ZM116.601 144.879C116.569 145.003 116.534 145.127 116.505 145.251H120.852C120.884 145.127 120.915 145.003 120.947 144.879H116.601ZM116.601 144.879C116.569 145.003 116.534 145.127 116.505 145.251H120.852C120.884 145.127 120.915 145.003 120.947 144.879H116.601ZM116.601 144.879C116.569 145.003 116.534 145.127 116.505 145.251H120.852C120.884 145.127 120.915 145.003 120.947 144.879H116.601ZM116.601 144.879C116.569 145.003 116.534 145.127 116.505 145.251H120.852C120.884 145.127 120.915 145.003 120.947 144.879H116.601ZM121.824 144.879C121.821 145 121.818 145.127 121.815 145.251H128.195V144.879H121.824ZM116.601 144.879C116.569 145.003 116.534 145.127 116.505 145.251H120.852C120.884 145.127 120.915 145.003 120.947 144.879H116.601ZM116.601 144.879C116.569 145.003 116.534 145.127 116.505 145.251H120.852C120.884 145.127 120.915 145.003 120.947 144.879H116.601ZM116.601 144.879C116.569 145.003 116.534 145.127 116.505 145.251H120.852C120.884 145.127 120.915 145.003 120.947 144.879H116.601ZM116.601 144.879C116.569 145.003 116.534 145.127 116.505 145.251H120.852C120.884 145.127 120.915 145.003 120.947 144.879H116.601ZM117.062 143.149C117.03 143.273 116.996 143.397 116.961 143.518H121.284C121.316 143.394 121.348 143.27 121.377 143.149H117.062ZM117.062 143.149C117.03 143.273 116.996 143.397 116.961 143.518H121.284C121.316 143.394 121.348 143.27 121.377 143.149H117.062ZM117.062 143.149C117.03 143.273 116.996 143.397 116.961 143.518H121.284C121.316 143.394 121.348 143.27 121.377 143.149H117.062ZM117.062 143.149C117.03 143.273 116.996 143.397 116.961 143.518H121.284C121.316 143.394 121.348 143.27 121.377 143.149H117.062ZM121.873 143.149C121.867 143.27 121.864 143.394 121.861 143.518H128.198V143.149H121.873ZM117.062 143.149C117.03 143.273 116.996 143.397 116.961 143.518H121.284C121.316 143.394 121.348 143.27 121.377 143.149H117.062ZM117.062 143.149C117.03 143.273 116.996 143.397 116.961 143.518H121.284C121.316 143.394 121.348 143.27 121.377 143.149H117.062ZM117.062 143.149C117.03 143.273 116.996 143.397 116.961 143.518H121.284C121.316 143.394 121.348 143.27 121.377 143.149H117.062ZM117.541 141.415C117.506 141.539 117.472 141.663 117.437 141.787H121.72C121.752 141.663 121.783 141.539 121.812 141.415H117.541ZM117.541 141.415C117.506 141.539 117.472 141.663 117.437 141.787H121.72C121.752 141.663 121.783 141.539 121.812 141.415H117.541ZM117.541 141.415C117.506 141.539 117.472 141.663 117.437 141.787H121.72C121.752 141.663 121.783 141.539 121.812 141.415H117.541ZM121.945 141.415C121.936 141.533 121.93 141.66 121.925 141.787H128.195V141.415H121.945ZM117.541 141.415C117.506 141.539 117.472 141.663 117.437 141.787H121.72C121.752 141.663 121.783 141.539 121.812 141.415H117.541ZM117.541 141.415C117.506 141.539 117.472 141.663 117.437 141.787H121.72C121.752 141.663 121.783 141.539 121.812 141.415H117.541ZM118.028 139.69C117.994 139.814 117.959 139.938 117.922 140.06H128.195V139.69H118.028ZM118.53 137.957C118.495 138.081 118.461 138.205 118.423 138.329H128.195V137.957H118.53ZM118.781 137.092C118.746 137.213 118.712 137.34 118.671 137.461H128.195V137.092H118.781ZM118.276 138.822C118.242 138.946 118.207 139.07 118.17 139.194H128.195V138.822H118.276ZM117.783 140.553C117.748 140.674 117.714 140.801 117.679 140.922H128.192V140.553H117.783ZM111.885 156.127C111.914 156.248 111.946 156.375 111.974 156.499H117.852C117.887 156.375 117.922 156.251 117.956 156.127H111.885ZM111.473 154.4C111.501 154.521 111.533 154.648 111.562 154.769H118.337C118.371 154.645 118.403 154.521 118.441 154.4H111.473ZM111.06 152.669C111.089 152.79 111.118 152.917 111.147 153.041H118.807C118.839 152.917 118.876 152.793 118.911 152.669H111.06ZM110.648 150.939C110.677 151.06 110.705 151.187 110.734 151.311H119.271C119.303 151.187 119.338 151.063 119.372 150.939H110.648ZM115.533 149.208C115.505 149.332 115.476 149.456 115.45 149.577H119.736C119.767 149.453 119.802 149.329 119.834 149.208H115.533ZM117.299 142.28C117.267 142.404 117.229 142.528 117.198 142.652H121.501C121.532 142.528 121.564 142.404 121.593 142.28H117.299ZM116.831 144.014C116.8 144.138 116.765 144.262 116.733 144.386H121.071C121.103 144.262 121.134 144.138 121.166 144.014H116.831ZM116.376 145.744C116.344 145.868 116.312 145.992 116.28 146.113H120.63C120.661 145.989 120.693 145.865 120.725 145.744H116.376ZM115.943 147.475C115.914 147.599 115.882 147.723 115.854 147.847H120.188C120.22 147.723 120.252 147.599 120.284 147.475H115.943ZM115.735 148.343C115.706 148.467 115.675 148.591 115.649 148.712H119.961C119.992 148.588 120.027 148.464 120.056 148.343H115.735ZM116.156 146.609C116.125 146.733 116.093 146.858 116.064 146.979H120.408C120.439 146.855 120.474 146.731 120.503 146.609H116.156ZM116.601 144.879C116.569 145.003 116.534 145.127 116.505 145.251H120.852C120.884 145.127 120.915 145.003 120.947 144.879H116.601ZM117.062 143.149C117.03 143.273 116.996 143.397 116.961 143.518H121.284C121.316 143.394 121.348 143.27 121.377 143.149H117.062ZM117.541 141.415C117.506 141.539 117.472 141.663 117.437 141.787H121.72C121.752 141.663 121.783 141.539 121.812 141.415H117.541ZM110.443 150.073C110.472 150.194 110.503 150.321 110.529 150.445H119.505C119.537 150.321 119.571 150.197 119.603 150.073H110.443ZM114.985 148.343H110.033C110.062 148.464 110.094 148.591 110.12 148.712H115.058C115.034 148.588 115.009 148.464 114.985 148.343ZM114.613 146.609H109.618C109.647 146.731 109.679 146.858 109.705 146.979H114.691C114.668 146.858 114.639 146.733 114.613 146.609ZM114.21 144.879H109.209C109.237 145 109.269 145.127 109.295 145.251H114.296C114.264 145.127 114.238 145.003 114.21 144.879ZM113.777 143.149H108.79C108.819 143.27 108.851 143.397 108.877 143.518H113.866C113.843 143.397 113.809 143.275 113.777 143.149ZM113.33 141.415H108.378C108.407 141.536 108.438 141.663 108.467 141.787H113.428C113.393 141.666 113.362 141.542 113.33 141.415ZM112.863 139.69H102.687V140.06H112.961C112.929 139.933 112.894 139.812 112.863 139.69ZM112.378 137.957H102.685V138.326H112.482C112.45 138.202 112.416 138.078 112.378 137.957ZM112.136 137.092H102.687V137.461H112.24C112.205 137.337 112.171 137.213 112.136 137.092ZM112.623 138.822H102.687V139.194H112.727C112.693 139.067 112.655 138.946 112.623 138.822ZM113.099 140.553H102.687V140.922H113.197C113.163 140.798 113.131 140.677 113.099 140.553ZM108.248 141.415H102.687V141.787H108.268C108.26 141.663 108.254 141.539 108.248 141.415ZM108.337 143.149H102.685V143.518H108.358C108.352 143.394 108.346 143.273 108.337 143.149ZM108.424 144.879H102.687V145.251H108.441C108.436 145.127 108.43 145.003 108.424 144.879ZM108.496 146.609H102.687V146.979H108.508C108.508 146.858 108.502 146.733 108.496 146.609ZM108.551 148.343H102.69V148.712H108.562C108.557 148.588 108.554 148.464 108.551 148.343ZM108.58 150.073H102.687V150.445H108.583C108.583 150.318 108.58 150.194 108.58 150.073ZM102.687 151.804V152.173H108.583V151.804H102.687ZM102.739 156.992H102.685V157.373H108.58V156.99L102.739 156.992ZM102.687 155.262V155.631H108.583V155.262H102.687ZM102.687 154.4V154.769H108.583V154.4H102.687ZM102.687 156.127V156.499H108.583V156.127H102.687ZM102.687 153.534V153.906H108.583V153.534H102.687ZM102.687 152.669V153.041H108.583V152.669H102.687ZM102.687 150.939V151.311H108.583V150.939H102.687ZM108.565 149.208H102.685V149.577H108.571C108.571 149.453 108.571 149.329 108.565 149.208ZM108.525 147.475H102.687V147.847H108.539C108.534 147.723 108.531 147.596 108.525 147.475ZM108.464 145.744H102.69V146.113H108.479C108.47 145.992 108.467 145.868 108.464 145.744ZM108.384 144.014H102.687V144.386H108.404C108.395 144.259 108.389 144.138 108.384 144.014ZM108.294 142.28H102.687V142.652H108.314C108.306 142.528 108.3 142.404 108.294 142.28ZM113.558 142.28H108.586C108.614 142.402 108.646 142.528 108.675 142.652H113.653C113.618 142.531 113.587 142.407 113.558 142.28ZM113.996 144.014H109.004C109.033 144.135 109.061 144.262 109.09 144.386H114.088C114.057 144.262 114.028 144.141 113.996 144.014ZM114.414 145.744H109.416C109.445 145.865 109.474 145.992 109.503 146.113H114.501C114.472 145.995 114.44 145.868 114.414 145.744ZM114.804 147.475H109.826C109.855 147.596 109.883 147.723 109.912 147.847H114.879C114.856 147.726 114.83 147.599 114.804 147.475ZM115.153 149.208H110.238C110.267 149.329 110.296 149.456 110.325 149.577H115.222C115.199 149.453 115.179 149.332 115.153 149.208ZM110.855 151.804C110.884 151.925 110.913 152.052 110.942 152.173H119.043C119.075 152.049 119.11 151.925 119.142 151.804H110.855ZM111.268 153.534C111.297 153.655 111.328 153.782 111.357 153.906H118.576C118.608 153.782 118.643 153.658 118.677 153.534H111.268ZM111.68 155.262C111.709 155.383 111.741 155.51 111.767 155.631H118.095C118.129 155.507 118.161 155.383 118.198 155.262H111.68ZM112.093 156.992C112.121 157.114 112.153 157.24 112.182 157.364C112.182 157.367 112.182 157.373 112.185 157.376H117.607C117.607 157.373 117.61 157.367 117.61 157.364C117.645 157.24 117.679 157.116 117.714 156.992H112.093ZM117.299 142.28C117.267 142.404 117.229 142.528 117.198 142.652H121.501C121.532 142.528 121.564 142.404 121.593 142.28H117.299ZM117.299 142.28C117.267 142.404 117.229 142.528 117.198 142.652H121.501C121.532 142.528 121.564 142.404 121.593 142.28H117.299ZM117.299 142.28C117.267 142.404 117.229 142.528 117.198 142.652H121.501C121.532 142.528 121.564 142.404 121.593 142.28H117.299ZM121.905 142.28C121.899 142.402 121.893 142.526 121.887 142.652H128.195V142.28H121.905ZM117.299 142.28C117.267 142.404 117.229 142.528 117.198 142.652H121.501C121.532 142.528 121.564 142.404 121.593 142.28H117.299ZM117.299 142.28C117.267 142.404 117.229 142.528 117.198 142.652H121.501C121.532 142.528 121.564 142.404 121.593 142.28H117.299ZM117.299 142.28C117.267 142.404 117.229 142.528 117.198 142.652H121.501C121.532 142.528 121.564 142.404 121.593 142.28H117.299ZM116.831 144.014C116.8 144.138 116.765 144.262 116.733 144.386H121.071C121.103 144.262 121.134 144.138 121.166 144.014H116.831ZM116.831 144.014C116.8 144.138 116.765 144.262 116.733 144.386H121.071C121.103 144.262 121.134 144.138 121.166 144.014H116.831ZM116.831 144.014C116.8 144.138 116.765 144.262 116.733 144.386H121.071C121.103 144.262 121.134 144.138 121.166 144.014H116.831ZM116.831 144.014C116.8 144.138 116.765 144.262 116.733 144.386H121.071C121.103 144.262 121.134 144.138 121.166 144.014H116.831ZM121.841 144.014C121.838 144.135 121.835 144.262 121.832 144.386H128.195V144.014H121.841ZM116.831 144.014C116.8 144.138 116.765 144.262 116.733 144.386H121.071C121.103 144.262 121.134 144.138 121.166 144.014H116.831ZM116.831 144.014C116.8 144.138 116.765 144.262 116.733 144.386H121.071C121.103 144.262 121.134 144.138 121.166 144.014H116.831ZM116.831 144.014C116.8 144.138 116.765 144.262 116.733 144.386H121.071C121.103 144.262 121.134 144.138 121.166 144.014H116.831ZM116.831 144.014C116.8 144.138 116.765 144.262 116.733 144.386H121.071C121.103 144.262 121.134 144.138 121.166 144.014H116.831ZM116.376 145.744C116.344 145.868 116.312 145.992 116.28 146.113H120.63C120.661 145.989 120.693 145.865 120.725 145.744H116.376ZM116.376 145.744C116.344 145.868 116.312 145.992 116.28 146.113H120.63C120.661 145.989 120.693 145.865 120.725 145.744H116.376ZM116.376 145.744C116.344 145.868 116.312 145.992 116.28 146.113H120.63C120.661 145.989 120.693 145.865 120.725 145.744H116.376ZM116.376 145.744C116.344 145.868 116.312 145.992 116.28 146.113H120.63C120.661 145.989 120.693 145.865 120.725 145.744H116.376ZM116.376 145.744C116.344 145.868 116.312 145.992 116.28 146.113H120.63C120.661 145.989 120.693 145.865 120.725 145.744H116.376ZM121.804 145.744C121.801 145.865 121.798 145.992 121.795 146.113H128.192V145.744H121.804ZM116.376 145.744C116.344 145.868 116.312 145.992 116.28 146.113H120.63C120.661 145.989 120.693 145.865 120.725 145.744H116.376ZM116.376 145.744C116.344 145.868 116.312 145.992 116.28 146.113H120.63C120.661 145.989 120.693 145.865 120.725 145.744H116.376ZM116.376 145.744C116.344 145.868 116.312 145.992 116.28 146.113H120.63C120.661 145.989 120.693 145.865 120.725 145.744H116.376ZM116.376 145.744C116.344 145.868 116.312 145.992 116.28 146.113H120.63C120.661 145.989 120.693 145.865 120.725 145.744H116.376ZM116.376 145.744C116.344 145.868 116.312 145.992 116.28 146.113H120.63C120.661 145.989 120.693 145.865 120.725 145.744H116.376ZM115.943 147.475C115.914 147.599 115.882 147.723 115.854 147.847H120.188C120.22 147.723 120.252 147.599 120.284 147.475H115.943ZM115.943 147.475C115.914 147.599 115.882 147.723 115.854 147.847H120.188C120.22 147.723 120.252 147.599 120.284 147.475H115.943ZM115.943 147.475C115.914 147.599 115.882 147.723 115.854 147.847H120.188C120.22 147.723 120.252 147.599 120.284 147.475H115.943ZM115.943 147.475C115.914 147.599 115.882 147.723 115.854 147.847H120.188C120.22 147.723 120.252 147.599 120.284 147.475H115.943ZM115.943 147.475C115.914 147.599 115.882 147.723 115.854 147.847H120.188C120.22 147.723 120.252 147.599 120.284 147.475H115.943ZM115.943 147.475C115.914 147.599 115.882 147.723 115.854 147.847H120.188C120.22 147.723 120.252 147.599 120.284 147.475H115.943ZM121.778 147.475C121.778 147.599 121.775 147.723 121.775 147.847H128.195V147.475H121.778ZM115.943 147.475C115.914 147.599 115.882 147.723 115.854 147.847H120.188C120.22 147.723 120.252 147.599 120.284 147.475H115.943ZM115.943 147.475C115.914 147.599 115.882 147.723 115.854 147.847H120.188C120.22 147.723 120.252 147.599 120.284 147.475H115.943ZM115.943 147.475C115.914 147.599 115.882 147.723 115.854 147.847H120.188C120.22 147.723 120.252 147.599 120.284 147.475H115.943ZM115.943 147.475C115.914 147.599 115.882 147.723 115.854 147.847H120.188C120.22 147.723 120.252 147.599 120.284 147.475H115.943ZM115.943 147.475C115.914 147.599 115.882 147.723 115.854 147.847H120.188C120.22 147.723 120.252 147.599 120.284 147.475H115.943ZM115.943 147.475C115.914 147.599 115.882 147.723 115.854 147.847H120.188C120.22 147.723 120.252 147.599 120.284 147.475H115.943ZM115.533 149.208C115.505 149.332 115.476 149.456 115.45 149.577H119.736C119.767 149.453 119.802 149.329 119.834 149.208H115.533ZM115.533 149.208C115.505 149.332 115.476 149.456 115.45 149.577H119.736C119.767 149.453 119.802 149.329 119.834 149.208H115.533ZM115.533 149.208C115.505 149.332 115.476 149.456 115.45 149.577H119.736C119.767 149.453 119.802 149.329 119.834 149.208H115.533ZM115.533 149.208C115.505 149.332 115.476 149.456 115.45 149.577H119.736C119.767 149.453 119.802 149.329 119.834 149.208H115.533ZM115.533 149.208C115.505 149.332 115.476 149.456 115.45 149.577H119.736C119.767 149.453 119.802 149.329 119.834 149.208H115.533ZM115.533 149.208C115.505 149.332 115.476 149.456 115.45 149.577H119.736C119.767 149.453 119.802 149.329 119.834 149.208H115.533ZM115.533 149.208C115.505 149.332 115.476 149.456 115.45 149.577H119.736C119.767 149.453 119.802 149.329 119.834 149.208H115.533ZM121.763 149.208C121.763 149.332 121.763 149.456 121.76 149.577H128.192V149.208H121.763ZM115.533 149.208C115.505 149.332 115.476 149.456 115.45 149.577H119.736C119.767 149.453 119.802 149.329 119.834 149.208H115.533ZM115.533 149.208C115.505 149.332 115.476 149.456 115.45 149.577H119.736C119.767 149.453 119.802 149.329 119.834 149.208H115.533ZM115.533 149.208C115.505 149.332 115.476 149.456 115.45 149.577H119.736C119.767 149.453 119.802 149.329 119.834 149.208H115.533ZM115.533 149.208C115.505 149.332 115.476 149.456 115.45 149.577H119.736C119.767 149.453 119.802 149.329 119.834 149.208H115.533ZM115.533 149.208C115.505 149.332 115.476 149.456 115.45 149.577H119.736C119.767 149.453 119.802 149.329 119.834 149.208H115.533ZM115.533 149.208C115.505 149.332 115.476 149.456 115.45 149.577H119.736C119.767 149.453 119.802 149.329 119.834 149.208H115.533ZM115.533 149.208C115.505 149.332 115.476 149.456 115.45 149.577H119.736C119.767 149.453 119.802 149.329 119.834 149.208H115.533ZM110.648 150.939C110.677 151.06 110.705 151.187 110.734 151.311H119.271C119.303 151.187 119.338 151.063 119.372 150.939H110.648ZM110.648 150.939C110.677 151.06 110.705 151.187 110.734 151.311H119.271C119.303 151.187 119.338 151.063 119.372 150.939H110.648ZM110.648 150.939C110.677 151.06 110.705 151.187 110.734 151.311H119.271C119.303 151.187 119.338 151.063 119.372 150.939H110.648ZM110.648 150.939C110.677 151.06 110.705 151.187 110.734 151.311H119.271C119.303 151.187 119.338 151.063 119.372 150.939H110.648ZM110.648 150.939C110.677 151.06 110.705 151.187 110.734 151.311H119.271C119.303 151.187 119.338 151.063 119.372 150.939H110.648ZM110.648 150.939C110.677 151.06 110.705 151.187 110.734 151.311H119.271C119.303 151.187 119.338 151.063 119.372 150.939H110.648ZM110.648 150.939C110.677 151.06 110.705 151.187 110.734 151.311H119.271C119.303 151.187 119.338 151.063 119.372 150.939H110.648ZM110.648 150.939C110.677 151.06 110.705 151.187 110.734 151.311H119.271C119.303 151.187 119.338 151.063 119.372 150.939H110.648ZM121.76 150.939V151.311H128.195V150.939H121.76ZM110.648 150.939C110.677 151.06 110.705 151.187 110.734 151.311H119.271C119.303 151.187 119.338 151.063 119.372 150.939H110.648ZM110.648 150.939C110.677 151.06 110.705 151.187 110.734 151.311H119.271C119.303 151.187 119.338 151.063 119.372 150.939H110.648ZM110.648 150.939C110.677 151.06 110.705 151.187 110.734 151.311H119.271C119.303 151.187 119.338 151.063 119.372 150.939H110.648ZM110.648 150.939C110.677 151.06 110.705 151.187 110.734 151.311H119.271C119.303 151.187 119.338 151.063 119.372 150.939H110.648ZM110.648 150.939C110.677 151.06 110.705 151.187 110.734 151.311H119.271C119.303 151.187 119.338 151.063 119.372 150.939H110.648ZM110.648 150.939C110.677 151.06 110.705 151.187 110.734 151.311H119.271C119.303 151.187 119.338 151.063 119.372 150.939H110.648ZM110.648 150.939C110.677 151.06 110.705 151.187 110.734 151.311H119.271C119.303 151.187 119.338 151.063 119.372 150.939H110.648ZM110.648 150.939C110.677 151.06 110.705 151.187 110.734 151.311H119.271C119.303 151.187 119.338 151.063 119.372 150.939H110.648ZM111.06 152.669C111.089 152.79 111.118 152.917 111.147 153.041H118.807C118.839 152.917 118.876 152.793 118.911 152.669H111.06ZM111.06 152.669C111.089 152.79 111.118 152.917 111.147 153.041H118.807C118.839 152.917 118.876 152.793 118.911 152.669H111.06ZM111.06 152.669C111.089 152.79 111.118 152.917 111.147 153.041H118.807C118.839 152.917 118.876 152.793 118.911 152.669H111.06ZM111.06 152.669C111.089 152.79 111.118 152.917 111.147 153.041H118.807C118.839 152.917 118.876 152.793 118.911 152.669H111.06ZM111.06 152.669C111.089 152.79 111.118 152.917 111.147 153.041H118.807C118.839 152.917 118.876 152.793 118.911 152.669H111.06ZM111.06 152.669C111.089 152.79 111.118 152.917 111.147 153.041H118.807C118.839 152.917 118.876 152.793 118.911 152.669H111.06ZM111.06 152.669C111.089 152.79 111.118 152.917 111.147 153.041H118.807C118.839 152.917 118.876 152.793 118.911 152.669H111.06ZM111.06 152.669C111.089 152.79 111.118 152.917 111.147 153.041H118.807C118.839 152.917 118.876 152.793 118.911 152.669H111.06ZM111.06 152.669C111.089 152.79 111.118 152.917 111.147 153.041H118.807C118.839 152.917 118.876 152.793 118.911 152.669H111.06ZM121.76 152.669V153.041H128.195V152.669H121.76ZM111.06 152.669C111.089 152.79 111.118 152.917 111.147 153.041H118.807C118.839 152.917 118.876 152.793 118.911 152.669H111.06ZM111.06 152.669C111.089 152.79 111.118 152.917 111.147 153.041H118.807C118.839 152.917 118.876 152.793 118.911 152.669H111.06ZM111.06 152.669C111.089 152.79 111.118 152.917 111.147 153.041H118.807C118.839 152.917 118.876 152.793 118.911 152.669H111.06ZM111.06 152.669C111.089 152.79 111.118 152.917 111.147 153.041H118.807C118.839 152.917 118.876 152.793 118.911 152.669H111.06ZM111.06 152.669C111.089 152.79 111.118 152.917 111.147 153.041H118.807C118.839 152.917 118.876 152.793 118.911 152.669H111.06ZM111.06 152.669C111.089 152.79 111.118 152.917 111.147 153.041H118.807C118.839 152.917 118.876 152.793 118.911 152.669H111.06ZM111.06 152.669C111.089 152.79 111.118 152.917 111.147 153.041H118.807C118.839 152.917 118.876 152.793 118.911 152.669H111.06ZM111.06 152.669C111.089 152.79 111.118 152.917 111.147 153.041H118.807C118.839 152.917 118.876 152.793 118.911 152.669H111.06ZM111.06 152.669C111.089 152.79 111.118 152.917 111.147 153.041H118.807C118.839 152.917 118.876 152.793 118.911 152.669H111.06ZM111.473 154.4C111.501 154.521 111.533 154.648 111.562 154.769H118.337C118.371 154.645 118.403 154.521 118.441 154.4H111.473ZM111.473 154.4C111.501 154.521 111.533 154.648 111.562 154.769H118.337C118.371 154.645 118.403 154.521 118.441 154.4H111.473ZM111.473 154.4C111.501 154.521 111.533 154.648 111.562 154.769H118.337C118.371 154.645 118.403 154.521 118.441 154.4H111.473ZM111.473 154.4C111.501 154.521 111.533 154.648 111.562 154.769H118.337C118.371 154.645 118.403 154.521 118.441 154.4H111.473ZM111.473 154.4C111.501 154.521 111.533 154.648 111.562 154.769H118.337C118.371 154.645 118.403 154.521 118.441 154.4H111.473ZM111.473 154.4C111.501 154.521 111.533 154.648 111.562 154.769H118.337C118.371 154.645 118.403 154.521 118.441 154.4H111.473ZM111.473 154.4C111.501 154.521 111.533 154.648 111.562 154.769H118.337C118.371 154.645 118.403 154.521 118.441 154.4H111.473ZM111.473 154.4C111.501 154.521 111.533 154.648 111.562 154.769H118.337C118.371 154.645 118.403 154.521 118.441 154.4H111.473ZM111.473 154.4C111.501 154.521 111.533 154.648 111.562 154.769H118.337C118.371 154.645 118.403 154.521 118.441 154.4H111.473ZM111.473 154.4C111.501 154.521 111.533 154.648 111.562 154.769H118.337C118.371 154.645 118.403 154.521 118.441 154.4H111.473ZM121.76 154.4V154.769H128.195V154.4H121.76ZM111.473 154.4C111.501 154.521 111.533 154.648 111.562 154.769H118.337C118.371 154.645 118.403 154.521 118.441 154.4H111.473ZM111.473 154.4C111.501 154.521 111.533 154.648 111.562 154.769H118.337C118.371 154.645 118.403 154.521 118.441 154.4H111.473ZM111.473 154.4C111.501 154.521 111.533 154.648 111.562 154.769H118.337C118.371 154.645 118.403 154.521 118.441 154.4H111.473ZM111.473 154.4C111.501 154.521 111.533 154.648 111.562 154.769H118.337C118.371 154.645 118.403 154.521 118.441 154.4H111.473ZM111.473 154.4C111.501 154.521 111.533 154.648 111.562 154.769H118.337C118.371 154.645 118.403 154.521 118.441 154.4H111.473ZM111.473 154.4C111.501 154.521 111.533 154.648 111.562 154.769H118.337C118.371 154.645 118.403 154.521 118.441 154.4H111.473ZM111.473 154.4C111.501 154.521 111.533 154.648 111.562 154.769H118.337C118.371 154.645 118.403 154.521 118.441 154.4H111.473ZM111.473 154.4C111.501 154.521 111.533 154.648 111.562 154.769H118.337C118.371 154.645 118.403 154.521 118.441 154.4H111.473ZM111.473 154.4C111.501 154.521 111.533 154.648 111.562 154.769H118.337C118.371 154.645 118.403 154.521 118.441 154.4H111.473ZM111.473 154.4C111.501 154.521 111.533 154.648 111.562 154.769H118.337C118.371 154.645 118.403 154.521 118.441 154.4H111.473ZM111.885 156.127C111.914 156.248 111.946 156.375 111.974 156.499H117.852C117.887 156.375 117.922 156.251 117.956 156.127H111.885ZM111.885 156.127C111.914 156.248 111.946 156.375 111.974 156.499H117.852C117.887 156.375 117.922 156.251 117.956 156.127H111.885ZM111.885 156.127C111.914 156.248 111.946 156.375 111.974 156.499H117.852C117.887 156.375 117.922 156.251 117.956 156.127H111.885ZM111.885 156.127C111.914 156.248 111.946 156.375 111.974 156.499H117.852C117.887 156.375 117.922 156.251 117.956 156.127H111.885ZM111.885 156.127C111.914 156.248 111.946 156.375 111.974 156.499H117.852C117.887 156.375 117.922 156.251 117.956 156.127H111.885ZM111.885 156.127C111.914 156.248 111.946 156.375 111.974 156.499H117.852C117.887 156.375 117.922 156.251 117.956 156.127H111.885ZM111.885 156.127C111.914 156.248 111.946 156.375 111.974 156.499H117.852C117.887 156.375 117.922 156.251 117.956 156.127H111.885ZM111.885 156.127C111.914 156.248 111.946 156.375 111.974 156.499H117.852C117.887 156.375 117.922 156.251 117.956 156.127H111.885ZM111.885 156.127C111.914 156.248 111.946 156.375 111.974 156.499H117.852C117.887 156.375 117.922 156.251 117.956 156.127H111.885ZM111.885 156.127C111.914 156.248 111.946 156.375 111.974 156.499H117.852C117.887 156.375 117.922 156.251 117.956 156.127H111.885ZM111.885 156.127C111.914 156.248 111.946 156.375 111.974 156.499H117.852C117.887 156.375 117.922 156.251 117.956 156.127H111.885ZM121.76 156.127V156.499H128.195V156.127H121.76ZM111.885 156.127C111.914 156.248 111.946 156.375 111.974 156.499H117.852C117.887 156.375 117.922 156.251 117.956 156.127H111.885ZM111.885 156.127C111.914 156.248 111.946 156.375 111.974 156.499H117.852C117.887 156.375 117.922 156.251 117.956 156.127H111.885ZM111.885 156.127C111.914 156.248 111.946 156.375 111.974 156.499H117.852C117.887 156.375 117.922 156.251 117.956 156.127H111.885ZM111.885 156.127C111.914 156.248 111.946 156.375 111.974 156.499H117.852C117.887 156.375 117.922 156.251 117.956 156.127H111.885ZM111.885 156.127C111.914 156.248 111.946 156.375 111.974 156.499H117.852C117.887 156.375 117.922 156.251 117.956 156.127H111.885ZM111.885 156.127C111.914 156.248 111.946 156.375 111.974 156.499H117.852C117.887 156.375 117.922 156.251 117.956 156.127H111.885ZM111.885 156.127C111.914 156.248 111.946 156.375 111.974 156.499H117.852C117.887 156.375 117.922 156.251 117.956 156.127H111.885ZM111.885 156.127C111.914 156.248 111.946 156.375 111.974 156.499H117.852C117.887 156.375 117.922 156.251 117.956 156.127H111.885ZM111.885 156.127C111.914 156.248 111.946 156.375 111.974 156.499H117.852C117.887 156.375 117.922 156.251 117.956 156.127H111.885ZM111.885 156.127C111.914 156.248 111.946 156.375 111.974 156.499H117.852C117.887 156.375 117.922 156.251 117.956 156.127H111.885ZM111.885 156.127C111.914 156.248 111.946 156.375 111.974 156.499H117.852C117.887 156.375 117.922 156.251 117.956 156.127H111.885Z" fill="#3B3D4A"/>
<path d="M33.2119 137.092V137.461H53.1673V137.092H33.2119ZM33.2119 138.822V139.194H53.1673V138.822H33.2119ZM33.2119 140.553V140.922H53.1673V140.553H33.2119ZM33.2119 141.415V141.787H53.1673V141.415H33.2119ZM39.9118 142.28V142.652H46.5078V142.28H39.9118ZM39.9118 144.014V144.383H46.5078V144.014H39.9118ZM39.9118 145.744V146.113H46.5078V145.744H39.9118ZM39.9118 147.475V147.847H46.5078V147.475H39.9118ZM39.9118 149.208V149.577H46.5078V149.208H39.9118ZM39.9118 150.939V151.311H46.5078V150.939H39.9118ZM39.9118 152.669V153.038H46.5078V152.669H39.9118ZM39.9118 154.4V154.772H46.5078V154.4H39.9118ZM39.9118 156.127V156.499H46.5078V156.127H39.9118ZM39.9118 156.992V157.376H46.5078V156.992H39.9118ZM39.9118 155.262V155.631H46.5078V155.262H39.9118ZM39.9118 153.534V153.906H46.5078V153.534H39.9118ZM39.9118 151.804V152.173H46.5078V151.804H39.9118ZM39.9118 150.073V150.445H46.5078V150.073H39.9118ZM39.9118 148.34V148.712H46.5078V148.34H39.9118ZM39.9118 146.609V146.979H46.5078V146.609H39.9118ZM39.9118 144.879V145.251H46.5078V144.879H39.9118ZM39.9118 143.149V143.518H46.5078V143.149H39.9118ZM33.2119 139.688V140.06H53.1673V139.688H33.2119ZM33.2119 137.957V138.326H53.1673V137.957H33.2119Z" fill="#3B3D4A"/>
</svg>
