<svg width="205" height="205" viewBox="0 0 205 205" fill="none" xmlns="http://www.w3.org/2000/svg">
<path d="M76.1623 140.196L53.7331 105.573C53.0531 104.696 52.6331 103.627 52.5236 102.498C52.6514 101.375 53.0713 100.311 53.7331 99.4237L76.1623 64.8007C77.6685 62.0948 79.6768 59.7448 82.0639 57.8899C84.4557 56.0349 87.176 54.7159 90.0607 54.0129H54.5729C52.2451 53.9181 49.9356 54.4998 47.8953 55.6991C45.8551 56.8984 44.1617 58.6698 43.0024 60.8172L24.0148 93.6161C22.221 96.2045 21.1712 99.289 20.9932 102.498C21.1712 105.709 22.221 108.799 24.0148 111.39L43.0024 144.176C44.1617 146.326 45.8505 148.099 47.8908 149.301C49.9311 150.502 52.2406 151.087 54.5729 150.993H90.0607C87.176 150.289 84.4557 148.969 82.0639 147.113C79.6768 145.257 77.6685 142.902 76.1623 140.196Z" fill="black"/>
<path d="M170.061 140.196L147.641 105.573C146.961 104.696 146.541 103.627 146.431 102.498C146.559 101.375 146.979 100.311 147.641 99.4237L170.061 64.8007C171.567 62.0946 173.576 59.7449 175.967 57.8899C178.354 56.0349 181.075 54.7156 183.959 54.0129H148.467C146.139 53.9181 143.83 54.4998 141.789 55.6991C139.749 56.8984 138.056 58.6698 136.897 60.8172L117.904 93.6161C116.111 96.2043 115.061 99.2889 114.883 102.498C115.061 105.71 116.111 108.799 117.904 111.39L136.928 144.176C138.088 146.326 139.777 148.099 141.817 149.301C143.857 150.502 146.167 151.087 148.495 150.993H183.991C181.098 150.293 178.373 148.976 175.981 147.119C173.585 145.263 171.572 142.906 170.061 140.196Z" fill="#EC1C24"/>
<path d="M83.9199 140.196L106.344 105.573C107.024 104.696 107.444 103.627 107.554 102.498C107.426 101.375 107.006 100.311 106.344 99.4238L83.9199 64.8008C82.4091 62.0952 80.4007 59.7449 78.0136 57.89C75.6219 56.0351 72.9061 54.7164 70.0215 54.0131H105.514C107.842 53.9175 110.151 54.4999 112.191 55.6992C114.232 56.8986 115.925 58.6695 117.084 60.8173L136.067 93.6163C137.866 96.2038 138.916 99.2888 139.089 102.498C138.916 105.71 137.866 108.8 136.067 111.39L117.084 144.176C115.925 146.327 114.232 148.099 112.191 149.301C110.156 150.502 107.842 151.088 105.514 150.993H70.0215C72.9061 150.289 75.6219 148.969 78.0136 147.113C80.4007 145.257 82.4091 142.902 83.9199 140.196Z" fill="#EC1C24"/>
</svg>
