<svg width="205" height="205" viewBox="0 0 205 205" fill="none" xmlns="http://www.w3.org/2000/svg">
<path d="M107.898 101.421L108.394 101.073L107.916 100.837L107.898 101.421ZM71.4764 74.0578C70.0267 75.5309 68.813 77.5771 67.5137 79.7063L87.955 90.9617L107.916 100.837L108.184 92.7693L108.002 86.2987L79.0803 72.4966C78.6187 72.2762 77.9184 71.9416 77.9184 70.6553C77.9184 69.5712 78.4138 69.1641 78.8469 68.9307C77.9937 69.3715 74.6637 70.8187 71.4764 74.0578Z" fill="url(#paint0_linear_1294_26687)"/>
<path d="M64.4092 86.0003C63.8387 87.8312 63.6805 89.8255 63.4756 91.9885C64.9486 93.1114 66.5773 94.1125 68.3616 94.9657L107.678 113.729L108.399 107.142L107.833 100.666L67.5187 79.7061C66.3984 81.5448 65.1457 83.6377 64.4092 86.0003Z" fill="url(#paint1_linear_1294_26687)"/>
<path d="M43.3576 171.106C42.4759 170.286 41.3503 169.773 40.0381 169.773C37.232 169.773 35.0587 172.109 35.0587 174.957C35.0587 177.804 37.232 180.141 40.0381 180.141C42.3332 180.141 44.1772 178.79 44.2809 176.679H40.3259V174.814H46.7809C46.7809 179.856 44.076 182.19 40.0406 182.19C36.0235 182.19 32.8906 178.974 32.8906 174.957C32.8906 170.96 36.026 167.703 40.0406 167.703C42.0091 167.703 43.7285 168.46 44.9578 169.69L43.3576 171.106Z" fill="#939598"/>
<path d="M66.8591 167.211H64.748V181.986H66.8591V167.211Z" fill="#939598"/>
<path d="M85.0791 177.169C85.0791 174.137 87.3535 172.21 90.0585 172.21C92.7841 172.21 95.0793 174.137 95.0793 177.169C95.0793 180.2 92.7841 182.189 90.0585 182.189C87.3535 182.189 85.0791 180.203 85.0791 177.169ZM92.9657 177.169C92.9657 175.426 91.6534 174.279 90.0559 174.279C88.4791 174.279 87.1668 175.428 87.1668 177.169C87.1668 178.971 88.4791 180.141 90.0559 180.141C91.656 180.141 92.9657 178.974 92.9657 177.169Z" fill="#939598"/>
<path d="M113.287 181.986V167.211H115.398V173.788C115.992 172.743 117.242 172.211 118.614 172.211C121.215 172.211 123.388 174.138 123.388 177.211C123.388 180.222 121.156 182.19 118.593 182.19C117.281 182.19 115.992 181.638 115.396 180.593V181.986H113.287ZM118.349 180.142C119.947 180.142 121.239 178.933 121.239 177.17C121.239 175.409 119.947 174.26 118.349 174.26C116.915 174.26 115.419 175.305 115.419 177.17C115.419 179.034 116.793 180.142 118.349 180.142Z" fill="#939598"/>
<path d="M149.082 180.613C148.426 181.658 147.096 182.189 145.866 182.189C143.304 182.189 141.009 180.242 141.009 177.189C141.009 174.137 143.304 172.21 145.866 172.21C147.015 172.21 148.429 172.682 149.082 173.766V172.415H151.172V181.985H149.082V180.613ZM146.11 180.141C147.666 180.141 149.061 179.054 149.061 177.169C149.061 175.304 147.544 174.259 146.11 174.259C144.533 174.259 143.179 175.408 143.179 177.169C143.179 178.932 144.533 180.141 146.11 180.141Z" fill="#939598"/>
<path d="M172.113 167.211H170.002V181.986H172.113V167.211Z" fill="#939598"/>
<path d="M19.2808 131.181H14.999V159.008H19.2808V131.181Z" fill="black"/>
<path d="M34.0251 159.008H29.8652V140.146H34.0251V142.973C35.1143 140.833 37.7414 139.741 39.8006 139.741C44.365 139.741 46.9895 142.648 46.9895 148.022V159.008H42.8297V148.507C42.8297 145.478 41.2944 143.823 38.8722 143.823C36.4084 143.823 34.0251 145.156 34.0251 148.873V159.008Z" fill="black"/>
<path d="M67.9465 133.885H65.8874C63.1409 133.885 62.5341 135.985 62.5341 138.408V140.145H66.7743V143.579H62.5341V159.007H58.3327V143.579H54.7383V140.145H58.3327V138.408C58.3327 133.239 60.7161 129.886 65.8848 129.886H67.9439V133.885H67.9465Z" fill="black"/>
<path d="M73.1992 149.516C73.1992 143.538 77.6832 139.741 83.0127 139.741C88.3836 139.741 92.9066 143.538 92.9066 149.516C92.9066 155.494 88.3836 159.41 83.0127 159.41C77.6806 159.412 73.1992 155.494 73.1992 149.516ZM88.7467 149.516C88.7467 146.082 86.1611 143.821 83.0127 143.821C79.9032 143.821 77.3176 146.082 77.3176 149.516C77.3176 153.069 79.9032 155.372 83.0127 155.372C86.1637 155.372 88.7467 153.071 88.7467 149.516Z" fill="black"/>
<path d="M125.422 154.282C122.997 157.472 119.161 159.412 114.597 159.412C106.72 159.412 100.543 153.071 100.543 145.156C100.543 137.28 106.723 130.858 114.597 130.858C119.081 130.858 122.875 132.798 125.339 135.866L122.027 138.452C120.209 136.393 117.665 134.979 114.597 134.979C109.065 134.979 104.822 139.544 104.822 145.156C104.822 150.81 109.062 155.294 114.597 155.294C117.667 155.294 120.372 153.922 122.107 151.658L125.422 154.282Z" fill="black"/>
<path d="M132.004 149.516C132.004 143.538 136.488 139.741 141.817 139.741C147.188 139.741 151.711 143.538 151.711 149.516C151.711 155.494 147.188 159.41 141.817 159.41C136.488 159.412 132.004 155.494 132.004 149.516ZM147.554 149.516C147.554 146.082 144.968 143.821 141.82 143.821C138.71 143.821 136.125 146.082 136.125 149.516C136.125 153.069 138.71 155.372 141.82 155.372C144.968 155.372 147.554 153.071 147.554 149.516Z" fill="black"/>
<path d="M177.279 148.869V159.007H173.12V148.426C173.078 145.519 171.545 143.823 169.284 143.823C166.862 143.823 164.517 145.156 164.517 148.872V159.01H160.357V140.148H164.517V142.975C165.809 140.389 168.918 139.743 170.454 139.743C173.483 139.743 175.301 141.076 176.39 143.498C178.128 140.228 181.035 139.743 182.731 139.743C187.417 139.743 190 142.772 190 148.143V159.007H185.84V148.506C185.84 145.558 184.264 143.82 181.841 143.82C179.097 143.82 177.279 145.801 177.279 148.869Z" fill="black"/>
<path d="M74.1158 56.2004C62.57 64.5175 55.5366 76.0789 63.4725 91.9869L63.4751 91.9895C63.9419 87.0361 65.529 82.9722 67.5208 79.7097C71.6806 72.8968 77.6118 69.5747 78.8514 68.9315C78.9266 68.89 78.9992 68.8563 79.0667 68.8226C79.077 68.8174 79.0848 68.8122 79.0848 68.8122L99.7751 58.9365C104.106 56.8695 106.863 52.4996 106.863 47.7018C106.863 45.6634 106.386 43.7806 105.558 42.126C94.775 44.8413 82.8816 49.8855 74.1158 56.2004Z" fill="url(#paint2_linear_1294_26687)"/>
<path d="M89.0422 36.4699L68.3519 46.3456C49.6923 55.2514 48.0662 80.2648 63.4633 91.987C50.8542 64.0897 80.6214 50.132 105.549 42.1313C103.454 37.9481 99.0916 35.2432 94.4027 35.2432C92.6263 35.2406 90.8057 35.6296 89.0422 36.4699Z" fill="url(#paint3_linear_1294_26687)"/>
<path d="M115.153 53.2063C112.29 54.5549 110.106 56.9097 108.944 59.7339C110.353 64.0856 113.208 72.9032 118.763 81.7027C122.324 87.3434 127.145 92.6728 132.905 97.8156V64.4669C132.905 57.2702 127.002 52.0055 120.456 52.0029C118.701 52.0029 116.898 52.3816 115.153 53.2063Z" fill="url(#paint4_linear_1294_26687)"/>
<path d="M108.001 64.4644V86.2958L107.672 113.726C112.267 115.92 117.143 115.936 121.37 114.362C127.908 111.926 132.898 105.689 132.898 97.8157C118.152 84.6464 111.251 66.8737 108.937 59.7314C108.331 61.2071 108.001 62.8098 108.001 64.4644Z" fill="url(#paint5_linear_1294_26687)"/>
<path d="M120.694 34.8393L114.247 46.3256C117.587 48.2499 121.812 48.6596 125.757 46.8002C130.116 44.7462 132.899 40.3581 132.899 35.5396V35.2776C132.899 30.9103 130.723 27.2614 127.554 25.0596L120.694 34.8393Z" fill="url(#paint6_linear_1294_26687)"/>
<path d="M115.092 24.0388C110.763 26.1058 108.004 30.4757 108.004 35.2735V35.5354C108.004 40.3021 110.597 44.2182 114.246 46.3214L127.556 25.0555C125.499 23.6265 123.02 22.8096 120.444 22.8096C118.673 22.8096 116.853 23.196 115.092 24.0388Z" fill="url(#paint7_linear_1294_26687)"/>
<defs>
<linearGradient id="paint0_linear_1294_26687" x1="67.515" y1="85.1758" x2="108.395" y2="85.1758" gradientUnits="userSpaceOnUse">
<stop stop-color="#735AE2"/>
<stop offset="1" stop-color="#00A1F7"/>
</linearGradient>
<linearGradient id="paint1_linear_1294_26687" x1="63.4745" y1="96.7178" x2="108.4" y2="96.7178" gradientUnits="userSpaceOnUse">
<stop stop-color="#00A1F7"/>
<stop offset="1" stop-color="#735AE2"/>
</linearGradient>
<linearGradient id="paint2_linear_1294_26687" x1="60.0886" y1="67.0588" x2="106.862" y2="67.0588" gradientUnits="userSpaceOnUse">
<stop stop-color="#BD0070"/>
<stop offset="1" stop-color="#FF3AB9"/>
</linearGradient>
<linearGradient id="paint3_linear_1294_26687" x1="53.0189" y1="63.6138" x2="105.548" y2="63.6138" gradientUnits="userSpaceOnUse">
<stop stop-color="#FF3AB9"/>
<stop offset="1" stop-color="#BD0070"/>
</linearGradient>
<linearGradient id="paint4_linear_1294_26687" x1="108.943" y1="74.9094" x2="132.905" y2="74.9094" gradientUnits="userSpaceOnUse">
<stop stop-color="#3485A9"/>
<stop offset="0.2288" stop-color="#33ABB9"/>
<stop offset="0.5043" stop-color="#33D3C9"/>
<stop offset="0.7237" stop-color="#32EBD3"/>
<stop offset="0.8581" stop-color="#32F4D7"/>
<stop offset="1" stop-color="#32F4D7"/>
</linearGradient>
<linearGradient id="paint5_linear_1294_26687" x1="107.672" y1="87.5983" x2="132.898" y2="87.5983" gradientUnits="userSpaceOnUse">
<stop stop-color="#32F4D7"/>
<stop offset="0.1419" stop-color="#32F4D7"/>
<stop offset="0.2763" stop-color="#32EBD3"/>
<stop offset="0.4957" stop-color="#33D3C9"/>
<stop offset="0.7712" stop-color="#33ABB9"/>
<stop offset="1" stop-color="#3485A9"/>
</linearGradient>
<linearGradient id="paint6_linear_1294_26687" x1="114.248" y1="36.5297" x2="132.902" y2="36.5297" gradientUnits="userSpaceOnUse">
<stop stop-color="#FF5100"/>
<stop offset="1" stop-color="#FDC200"/>
</linearGradient>
<linearGradient id="paint7_linear_1294_26687" x1="108.004" y1="34.5652" x2="127.557" y2="34.5652" gradientUnits="userSpaceOnUse">
<stop stop-color="#FDC200"/>
<stop offset="1" stop-color="#FF5100"/>
</linearGradient>
</defs>
</svg>
