<svg width="205" height="205" viewBox="0 0 205 205" fill="none" xmlns="http://www.w3.org/2000/svg">
<path d="M128.216 46.7257C126.834 46.4906 125.393 46.373 123.953 46.373C122.218 46.373 120.484 46.5494 118.837 46.8727C113.84 47.8719 109.224 50.3113 105.549 53.985C103.756 55.7778 103.756 58.7168 105.549 60.5095C107.342 62.3023 110.282 62.3023 112.076 60.5095C115.251 57.3354 119.484 55.5721 123.953 55.5721C133.213 55.5721 140.769 63.1252 140.769 72.383C140.769 80.3477 135.183 87.0485 127.716 88.7531C128.069 90.2814 126.893 91.8391 126.981 93.3967C127.069 94.9544 128.421 96.512 128.186 98.0697C140.534 96.0418 150 85.2851 150 72.383C150 59.5103 140.563 48.7536 128.216 46.7257Z" fill="#FFBB00"/>
<path d="M100.715 82.1687C98.7162 80.5817 95.8057 80.9049 94.2181 82.8741C91.0136 86.9005 86.2216 89.1929 81.0768 89.1929C71.8162 89.1929 64.2607 81.6397 64.2607 72.3819C64.2607 65.7398 68.2001 59.7737 74.5503 56.8935C75.3146 56.5408 76.1084 56.2763 76.961 56.0706C76.6376 54.4248 77.8723 52.6907 77.8723 50.9567C77.8723 49.5166 76.5788 48.1059 76.7846 46.7246C74.6385 47.0185 72.5805 47.6357 70.699 48.488C66.054 50.6041 62.1439 53.9251 59.3804 58.0691C56.5287 62.3306 55 67.2975 55 72.3819C55 85.284 64.437 96.0407 76.7846 98.0686C78.1663 98.3037 79.6069 98.4213 81.0474 98.4213C82.7819 98.4213 84.5165 98.2449 86.1628 97.9216C92.1308 96.7461 97.4814 93.5132 101.391 88.6345C103.008 86.6654 102.685 83.7852 100.715 82.1687Z" fill="#FF004F"/>
<path d="M127.704 88.7751C126.469 83.5731 123.618 78.6944 119.414 75.2264C114.416 71.053 108.624 69.3484 103.009 67.7026C99.1873 66.5858 95.5712 65.5277 92.4843 63.735C89.6326 62.0891 87.4571 59.1795 86.3987 55.7409C85.9284 54.2421 85.6932 52.6256 85.6932 50.9798C85.6932 49.4221 85.899 47.9527 86.3105 46.5125C88.2803 39.4002 94.8068 34.1688 102.509 34.1688C109.447 34.1688 115.445 38.401 118.003 44.4259C121.031 43.7205 124.294 43.5148 127.616 44.0144C124.559 33.0226 114.475 24.9404 102.509 24.9404C89.6032 24.9404 78.8432 34.4039 76.8147 46.7477C76.5795 48.129 76.4619 49.5397 76.4619 50.9798C76.4619 52.7138 76.6383 54.4478 76.9617 56.0936C78.314 62.7651 82.2241 68.4961 87.8687 71.7584C91.8963 74.0802 96.218 75.3439 100.393 76.5783C105.332 78.0184 109.977 79.3997 113.505 82.3387C115.68 84.1609 117.268 86.6002 118.208 89.2453C119.267 92.2431 119.502 95.5347 118.679 98.4737C118.502 99.1203 118.267 99.7669 118.003 100.384C115.092 106.732 109.153 110.67 102.509 110.67C95.336 110.67 89.1916 106.144 86.7809 99.8256C83.7528 100.531 80.5189 100.737 77.2557 100.266C80.1074 111.552 90.3382 119.928 102.509 119.928C107.625 119.928 112.564 118.429 116.827 115.549C120.972 112.787 124.265 108.878 126.411 104.234C127.293 102.294 127.881 100.237 128.175 98.1504C128.616 95.0351 128.439 91.8316 127.704 88.7751Z" fill="#00A1F1"/>
<path d="M74.5494 56.8935C75.3137 56.5408 76.1075 56.2763 76.9601 56.0706C76.6367 54.4248 76.4603 52.6907 76.4603 50.9567C76.4603 49.5166 76.5779 48.1059 76.8131 46.7246C74.667 47.0185 72.609 47.6357 70.7275 48.488C68.9342 49.3109 67.229 50.3102 65.6709 51.4858L71.1685 58.892C72.1975 58.1279 73.344 57.4519 74.5494 56.8935Z" fill="url(#paint0_linear_1294_26868)"/>
<path d="M127.692 88.7728C128.427 91.8293 128.604 95.0034 128.163 98.0894C133.102 97.2664 137.57 95.0916 141.157 91.9175L136.042 84.041C133.807 86.3628 130.926 88.038 127.692 88.7728Z" fill="url(#paint1_linear_1294_26868)"/>
<path d="M39.8669 152.031V171.806C39.8669 176.338 36.145 180.06 31.5622 180.06C28.3972 180.06 25.5362 178.262 24.1436 175.401C23.6625 174.439 24.0676 173.224 25.0551 172.743C26.0172 172.262 27.2326 172.692 27.663 173.654C28.4226 175.148 29.9164 176.059 31.5622 176.059C33.9675 176.059 35.8918 174.135 35.8918 171.755V168.869C34.6765 169.603 33.2839 169.983 31.7647 169.983C27.3591 169.983 23.7385 166.413 23.7132 162.007V161.957V151.981C23.7132 150.892 24.5993 150.006 25.6881 150.006C26.7768 150.006 27.663 150.892 27.663 151.981V161.931C27.663 164.21 29.5366 166.058 31.79 166.058C34.0688 166.058 35.9171 164.21 35.9171 161.931V151.981C35.9171 150.892 36.8033 150.006 37.892 150.006C39.0061 150.056 39.8669 150.943 39.8669 152.031ZM66.4016 159.982V168.033C66.4016 169.147 65.5155 170.033 64.4014 170.033C63.3127 170.033 62.4265 169.147 62.4265 168.033V159.982C62.4265 156.614 59.692 153.88 56.3245 153.88C52.957 153.88 50.2226 156.614 50.2226 159.982V168.033C50.2226 169.147 49.3364 170.033 48.2223 170.033C47.1336 170.033 46.2474 169.147 46.2474 168.033V159.982C46.2474 154.411 50.7796 149.905 56.3245 149.905C61.8695 149.905 66.4016 154.386 66.4016 159.982ZM72.7568 160.007C72.7568 154.437 77.2383 149.93 82.7833 149.93C86.4039 149.93 89.7208 151.854 91.5185 154.943C92.0755 155.905 91.721 157.121 90.7842 157.678C89.8221 158.209 88.6067 157.88 88.0497 156.943C86.961 155.07 84.9607 153.905 82.758 153.905C79.4411 153.905 76.656 156.64 76.656 160.007C76.656 163.324 79.4158 166.109 82.758 166.109C84.8341 166.109 86.7584 165.071 87.8978 163.299C88.5055 162.387 89.7461 162.134 90.6576 162.691C91.5691 163.299 91.8223 164.539 91.2146 165.451C89.3663 168.337 86.2014 170.059 82.758 170.059C77.2636 170.084 72.7568 165.552 72.7568 160.007ZM116.281 169.704C115.926 169.983 115.471 170.135 115.04 170.135C114.483 170.135 113.926 169.882 113.521 169.4L104.685 157.804L102.203 160.412V168.109C102.203 169.223 101.317 170.109 100.203 170.109C99.1143 170.109 98.2281 169.223 98.2281 168.109V143.853C98.2281 142.739 99.1143 141.853 100.203 141.853C101.317 141.853 102.203 142.739 102.203 143.853V154.715L113.318 142.84C113.951 141.954 115.192 141.802 116.078 142.486C116.964 143.119 117.116 144.36 116.433 145.246L107.444 154.918L116.559 166.869C117.294 167.755 117.167 168.995 116.281 169.704ZM123.497 168.084V141.954C123.497 140.866 124.383 139.979 125.497 139.979C126.586 139.979 127.472 140.866 127.472 141.954V168.059C127.472 169.173 126.586 170.059 125.497 170.059C124.383 170.084 123.497 169.198 123.497 168.084ZM133.777 159.982C133.777 154.411 138.309 149.905 143.854 149.905C149.424 149.905 153.931 154.386 153.931 159.982C153.931 165.527 149.449 170.059 143.854 170.059C138.309 170.033 133.777 165.501 133.777 159.982ZM137.752 159.982C137.752 163.298 140.486 166.084 143.854 166.084C147.221 166.084 149.956 163.324 149.956 159.982C149.956 156.614 147.221 153.88 143.854 153.88C140.486 153.88 137.752 156.589 137.752 159.982ZM176.465 151.905V161.982V162.033C176.414 166.489 172.819 170.084 168.312 170.084C163.856 170.084 160.261 166.463 160.21 162.033V161.982V151.905C160.21 150.816 161.096 149.93 162.185 149.93C163.299 149.93 164.185 150.816 164.185 151.905V161.931C164.185 164.21 166.033 166.109 168.312 166.109C170.642 166.109 172.49 164.235 172.49 161.931V151.905C172.49 150.816 173.376 149.93 174.49 149.93C175.579 149.93 176.465 150.816 176.465 151.905ZM198.949 151.879V141.904C198.949 140.815 199.835 139.929 200.923 139.929C202.038 139.929 202.924 140.815 202.924 141.904V159.88V159.931C202.924 165.476 198.392 170.008 192.847 170.008C187.276 170.008 182.77 165.476 182.77 159.931C182.77 154.361 187.251 149.854 192.847 149.854C195.151 149.829 197.278 150.588 198.949 151.879ZM198.949 159.88V159.83C198.949 156.513 196.214 153.778 192.847 153.778C189.479 153.778 186.745 156.513 186.745 159.88C186.745 163.197 189.479 165.982 192.847 165.982C196.239 165.982 198.949 163.248 198.949 159.88ZM15.4084 156.791C13.9146 155.399 12.1929 154.766 10.5218 154.158C9.40772 153.753 8.4709 153.399 7.66068 152.867C7.00238 152.436 6.52131 151.702 6.29343 150.791C6.19215 150.386 6.16683 149.98 6.19215 149.575C6.21747 149.196 6.29343 148.816 6.42003 148.436C7.05301 146.613 8.82536 145.423 10.7496 145.55C12.2182 145.651 13.5348 146.461 14.2437 147.752C14.5982 148.385 15.2818 148.765 16.0161 148.74C16.0667 148.74 16.1174 148.74 16.168 148.74C16.8263 148.715 17.4086 148.36 17.7378 147.778C18.0669 147.221 18.0669 146.512 17.7631 145.929C16.4212 143.423 13.8133 141.752 10.9775 141.574C6.92642 141.321 3.30575 144.005 2.41957 147.98C2.31829 148.411 2.24234 148.866 2.21702 149.322C2.1917 149.854 2.19169 150.411 2.26764 150.943C2.57148 153.12 3.73618 155.019 5.4579 156.158C6.64791 156.943 7.98983 157.424 9.15452 157.855C10.4964 158.336 11.7877 158.817 12.6739 159.653C13.1803 160.134 13.5601 160.767 13.7626 161.475C13.9905 162.26 13.9905 163.096 13.7373 163.805C13.6867 163.957 13.6107 164.109 13.5348 164.261C12.6992 165.856 11.1041 166.767 9.40771 166.666C7.91387 166.565 6.54662 165.679 5.863 164.337C5.50853 163.678 4.82491 163.273 4.06533 163.299C4.01469 163.299 3.96404 163.299 3.9134 163.299C3.2551 163.324 2.67277 163.653 2.34361 164.21C2.01446 164.767 1.98913 165.451 2.26764 166.033C3.58425 168.666 6.21747 170.439 9.15452 170.616C9.33175 170.616 9.48367 170.641 9.66091 170.641C11.1041 170.641 12.522 170.261 13.788 169.527C15.1552 168.742 16.2693 167.552 17.0289 166.134C17.3327 165.552 17.5859 164.894 17.7125 164.21C17.915 163.248 17.915 162.235 17.7378 161.248C17.4846 159.526 16.6237 157.956 15.4084 156.791Z" fill="#AAAAAA"/>
<defs>
<linearGradient id="paint0_linear_1294_26868" x1="66.9807" y1="55.1146" x2="78.3455" y2="50.9769" gradientUnits="userSpaceOnUse">
<stop offset="0.2142" stopColor="#EA4235" stop-opacity="0"/>
<stop offset="0.2612" stopColor="#DF4235" stop-opacity="0.0711098"/>
<stop offset="0.4347" stopColor="#BD4235" stop-opacity="0.3336"/>
<stop offset="0.5995" stopColor="#A54235" stop-opacity="0.5829"/>
<stop offset="0.7506" stopColor="#964235" stop-opacity="0.8115"/>
<stop offset="0.8752" stopColor="#914235"/>
</linearGradient>
<linearGradient id="paint1_linear_1294_26868" x1="127.076" y1="91.951" x2="140.726" y2="89.5433" gradientUnits="userSpaceOnUse">
<stop offset="0.1258" stopColor="#AE8207"/>
<stop offset="0.3184" stopColor="#C29005" stop-opacity="0.7082"/>
<stop offset="0.7098" stopColor="#F4B401" stop-opacity="0.1152"/>
<stop offset="0.7858" stopColor="#FFBB00" stop-opacity="0"/>
</linearGradient>
</defs>
</svg>
