<svg width="205" height="205" viewBox="0 0 205 205" fill="none" xmlns="http://www.w3.org/2000/svg">
<path d="M90.4067 146.453H54.9979C50.8077 146.453 47.4004 143.046 47.4004 138.856V43.8182C47.4004 39.6281 50.8077 36.2207 54.9979 36.2207H90.4067C94.5968 36.2207 98.0042 39.6281 98.0042 43.8182V138.81C98.0042 143.046 94.5968 146.453 90.4067 146.453Z" fill="#C8C8C8"/>
<path d="M147.516 86.8606H106.996V46.3407C106.996 40.7693 111.509 36.2568 117.08 36.2568H147.516C153.087 36.2568 157.6 40.7693 157.6 46.3407V76.7767C157.6 82.3021 153.087 86.8606 147.516 86.8606Z" fill="#488AC9"/>
<path d="M149.45 146.396H115.146C110.634 146.396 106.996 142.758 106.996 138.246V95.792H149.45C153.962 95.792 157.6 99.4296 157.6 103.942V138.246C157.6 142.758 153.962 146.396 149.45 146.396Z" fill="#414141"/>
<path d="M58.541 168.126V157.187H60.7598V166.247H66.3068V168.126H58.541Z" fill="black"/>
<path d="M81.0684 157.091H78.8496V168.123H81.0684V157.091Z" fill="black"/>
<path d="M97.3059 168.123L93.3613 157.091H95.765L98.5694 165.257L101.25 157.091H103.623L99.6787 168.123H97.3059Z" fill="black"/>
<path d="M116.078 168.123V157.091H124.245V158.94H118.297V161.405H123.844V163.254H118.297V166.243H124.46V168.123H116.078Z" fill="black"/>
<path d="M146.46 162.616C146.46 166.006 143.718 168.78 140.297 168.78C136.907 168.78 134.134 166.037 134.134 162.616C134.134 159.196 136.876 156.453 140.297 156.453C143.718 156.453 146.46 159.227 146.46 162.616Z" stroke="#00E574" stroke-miterlimit="10"/>
<path d="M143.685 162.613C143.685 164.462 142.175 165.972 140.326 165.972C138.477 165.972 136.967 164.462 136.967 162.613C136.967 160.764 138.477 159.254 140.326 159.254C142.175 159.254 143.685 160.764 143.685 162.613Z" fill="#00E574"/>
</svg>
