<svg width="76" height="76" viewBox="0 0 76 76" fill="none" xmlns="http://www.w3.org/2000/svg">
<path d="M49.9385 22.2119H26.0667C23.9249 22.2142 22.1898 23.9498 22.1875 26.0911V49.9629C22.1898 52.1042 23.9249 53.8398 26.0667 53.8421H49.9385C52.0798 53.8398 53.8154 52.1042 53.8177 49.9629V26.0911C53.8154 23.9498 52.0798 22.2142 49.9385 22.2119ZM52.0273 49.9629C52.0256 51.1157 51.0913 52.0506 49.9385 52.0517H26.0667C24.9133 52.0506 23.9791 51.1157 23.9779 49.9629V26.0911C23.9791 24.9377 24.9133 24.0035 26.0667 24.0023H49.9385C51.0913 24.0035 52.0261 24.9377 52.0273 26.0911V49.9629Z" fill="url(#paint0_linear_116_17340)"/>
<path d="M52.92 17.7334H23.0801C20.1148 17.7369 17.7119 20.1392 17.709 23.1046V52.9444C17.7119 55.9091 20.1148 58.312 23.0801 58.3155H52.92C55.8847 58.312 58.2876 55.9091 58.2911 52.9444V23.1046C58.2876 20.1392 55.8847 17.7369 52.92 17.7334ZM56.5007 52.9444C56.4984 54.9213 54.8963 56.5228 52.92 56.5251H23.0801C21.1033 56.5228 19.5017 54.9213 19.4994 52.9444V23.1046C19.5011 21.1277 21.1033 19.5261 23.0801 19.5238H52.92C54.8963 19.5261 56.4984 21.1277 56.5007 23.1046V52.9444Z" fill="url(#paint1_linear_116_17340)"/>
<path d="M41.2321 61.248C40.7373 61.248 40.3369 61.649 40.3369 62.1432V69.6032C40.3369 70.098 40.7373 70.4984 41.2321 70.4984C41.7263 70.4984 42.1273 70.098 42.1273 69.6032V62.1432C42.1273 61.649 41.7263 61.248 41.2321 61.248Z" fill="url(#paint2_linear_116_17340)"/>
<path d="M34.7731 61.248C34.2783 61.248 33.8779 61.649 33.8779 62.1432V69.6032C33.8779 70.098 34.2783 70.4984 34.7731 70.4984C35.2673 70.4984 35.6683 70.098 35.6683 69.6032V62.1432C35.6683 61.649 35.2673 61.248 34.7731 61.248Z" fill="url(#paint3_linear_116_17340)"/>
<path d="M28.3239 61.248C27.8297 61.248 27.4287 61.649 27.4287 62.1432V69.6032C27.4287 70.098 27.8297 70.4984 28.3239 70.4984C28.8181 70.4984 29.2191 70.098 29.2191 69.6032V62.1432C29.2191 61.649 28.8181 61.248 28.3239 61.248Z" fill="url(#paint4_linear_116_17340)"/>
<path d="M47.6813 61.248C47.1865 61.248 46.7861 61.649 46.7861 62.1432V69.6032C46.7861 70.098 47.1865 70.4984 47.6813 70.4984C48.1755 70.4984 48.5765 70.098 48.5765 69.6032V62.1432C48.5765 61.649 48.1755 61.248 47.6813 61.248Z" fill="url(#paint5_linear_116_17340)"/>
<path d="M35.6683 13.8551V6.39519C35.6683 5.90097 35.2673 5.5 34.7731 5.5C34.2783 5.5 33.8779 5.90097 33.8779 6.39519V13.8551C33.8779 14.3494 34.2783 14.7503 34.7731 14.7503C35.2673 14.7503 35.6683 14.3494 35.6683 13.8551Z" fill="url(#paint6_linear_116_17340)"/>
<path d="M42.1273 13.8551V6.39519C42.1273 5.90097 41.7263 5.5 41.2321 5.5C40.7373 5.5 40.3369 5.90097 40.3369 6.39519V13.8551C40.3369 14.3494 40.7373 14.7503 41.2321 14.7503C41.7263 14.7503 42.1273 14.3494 42.1273 13.8551Z" fill="url(#paint7_linear_116_17340)"/>
<path d="M48.5765 13.8551V6.39519C48.5765 5.90097 48.1755 5.5 47.6813 5.5C47.1865 5.5 46.7861 5.90097 46.7861 6.39519V13.8551C46.7861 14.3494 47.1865 14.7503 47.6813 14.7503C48.1755 14.7503 48.5765 14.3494 48.5765 13.8551Z" fill="url(#paint8_linear_116_17340)"/>
<path d="M29.2191 13.8551V6.39519C29.2191 5.90097 28.8181 5.5 28.3239 5.5C27.8297 5.5 27.4287 5.90097 27.4287 6.39519V13.8551C27.4287 14.3494 27.8297 14.7503 28.3239 14.7503C28.8181 14.7503 29.2191 14.3494 29.2191 13.8551Z" fill="url(#paint9_linear_116_17340)"/>
<path d="M69.6042 33.8818H62.1442C61.65 33.8818 61.249 34.2822 61.249 34.777C61.249 35.2713 61.65 35.6722 62.1442 35.6722H69.6042C70.099 35.6722 70.4994 35.2713 70.4994 34.777C70.4994 34.2822 70.099 33.8818 69.6042 33.8818Z" fill="url(#paint10_linear_116_17340)"/>
<path d="M69.6042 40.3311H62.1442C61.65 40.3311 61.249 40.7314 61.249 41.2262C61.249 41.7205 61.65 42.1214 62.1442 42.1214H69.6042C70.099 42.1214 70.4994 41.7205 70.4994 41.2262C70.4994 40.7314 70.099 40.3311 69.6042 40.3311Z" fill="url(#paint11_linear_116_17340)"/>
<path d="M69.6042 46.7754H62.1442C61.65 46.7754 61.249 47.1758 61.249 47.6706C61.249 48.1648 61.65 48.5658 62.1442 48.5658H69.6042C70.099 48.5658 70.4994 48.1648 70.4994 47.6706C70.4994 47.1758 70.099 46.7754 69.6042 46.7754Z" fill="url(#paint12_linear_116_17340)"/>
<path d="M69.6042 27.4326H62.1442C61.65 27.4326 61.249 27.8336 61.249 28.3278C61.249 28.822 61.65 29.223 62.1442 29.223H69.6042C70.099 29.223 70.4994 28.822 70.4994 28.3278C70.4994 27.8336 70.099 27.4326 69.6042 27.4326Z" fill="url(#paint13_linear_116_17340)"/>
<path d="M13.8561 40.3311H6.39617C5.90195 40.3311 5.50098 40.7314 5.50098 41.2262C5.50098 41.7205 5.90195 42.1214 6.39617 42.1214H13.8561C14.3503 42.1214 14.7513 41.7205 14.7513 41.2262C14.7513 40.7314 14.3503 40.3311 13.8561 40.3311Z" fill="url(#paint14_linear_116_17340)"/>
<path d="M13.8561 33.8818H6.39617C5.90195 33.8818 5.50098 34.2822 5.50098 34.777C5.50098 35.2713 5.90195 35.6722 6.39617 35.6722H13.8561C14.3503 35.6722 14.7513 35.2713 14.7513 34.777C14.7513 34.2822 14.3503 33.8818 13.8561 33.8818Z" fill="url(#paint15_linear_116_17340)"/>
<path d="M13.8561 27.4326H6.39617C5.90195 27.4326 5.50098 27.8336 5.50098 28.3278C5.50098 28.822 5.90195 29.223 6.39617 29.223H13.8561C14.3503 29.223 14.7513 28.822 14.7513 28.3278C14.7513 27.8336 14.3503 27.4326 13.8561 27.4326Z" fill="url(#paint16_linear_116_17340)"/>
<path d="M13.8561 46.7754H6.39617C5.90195 46.7754 5.50098 47.1758 5.50098 47.6706C5.50098 48.1648 5.90195 48.5658 6.39617 48.5658H13.8561C14.3503 48.5658 14.7513 48.1648 14.7513 47.6706C14.7513 47.1758 14.3503 46.7754 13.8561 46.7754Z" fill="url(#paint17_linear_116_17340)"/>
<defs>
<linearGradient id="paint0_linear_116_17340" x1="22.1875" y1="38.4544" x2="53.8177" y2="38.4544" gradientUnits="userSpaceOnUse">
<stop stop-color="#00469F"/>
<stop offset="1" stop-color="#1E79D6"/>
</linearGradient>
<linearGradient id="paint1_linear_116_17340" x1="17.709" y1="38.5729" x2="58.2911" y2="38.5729" gradientUnits="userSpaceOnUse">
<stop stop-color="#00469F"/>
<stop offset="1" stop-color="#1E79D6"/>
</linearGradient>
<linearGradient id="paint2_linear_116_17340" x1="40.3369" y1="65.9982" x2="42.1273" y2="65.9982" gradientUnits="userSpaceOnUse">
<stop stop-color="#00469F"/>
<stop offset="1" stop-color="#1E79D6"/>
</linearGradient>
<linearGradient id="paint3_linear_116_17340" x1="33.8779" y1="65.9982" x2="35.6683" y2="65.9982" gradientUnits="userSpaceOnUse">
<stop stop-color="#00469F"/>
<stop offset="1" stop-color="#1E79D6"/>
</linearGradient>
<linearGradient id="paint4_linear_116_17340" x1="27.4287" y1="65.9982" x2="29.2191" y2="65.9982" gradientUnits="userSpaceOnUse">
<stop stop-color="#00469F"/>
<stop offset="1" stop-color="#1E79D6"/>
</linearGradient>
<linearGradient id="paint5_linear_116_17340" x1="46.7861" y1="65.9982" x2="48.5765" y2="65.9982" gradientUnits="userSpaceOnUse">
<stop stop-color="#00469F"/>
<stop offset="1" stop-color="#1E79D6"/>
</linearGradient>
<linearGradient id="paint6_linear_116_17340" x1="33.8779" y1="10.2502" x2="35.6683" y2="10.2502" gradientUnits="userSpaceOnUse">
<stop stop-color="#00469F"/>
<stop offset="1" stop-color="#1E79D6"/>
</linearGradient>
<linearGradient id="paint7_linear_116_17340" x1="40.3369" y1="10.2502" x2="42.1273" y2="10.2502" gradientUnits="userSpaceOnUse">
<stop stop-color="#00469F"/>
<stop offset="1" stop-color="#1E79D6"/>
</linearGradient>
<linearGradient id="paint8_linear_116_17340" x1="46.7861" y1="10.2502" x2="48.5765" y2="10.2502" gradientUnits="userSpaceOnUse">
<stop stop-color="#00469F"/>
<stop offset="1" stop-color="#1E79D6"/>
</linearGradient>
<linearGradient id="paint9_linear_116_17340" x1="27.4287" y1="10.2502" x2="29.2191" y2="10.2502" gradientUnits="userSpaceOnUse">
<stop stop-color="#00469F"/>
<stop offset="1" stop-color="#1E79D6"/>
</linearGradient>
<linearGradient id="paint10_linear_116_17340" x1="61.249" y1="34.8012" x2="70.4994" y2="34.8012" gradientUnits="userSpaceOnUse">
<stop stop-color="#00469F"/>
<stop offset="1" stop-color="#1E79D6"/>
</linearGradient>
<linearGradient id="paint11_linear_116_17340" x1="61.249" y1="41.2504" x2="70.4994" y2="41.2504" gradientUnits="userSpaceOnUse">
<stop stop-color="#00469F"/>
<stop offset="1" stop-color="#1E79D6"/>
</linearGradient>
<linearGradient id="paint12_linear_116_17340" x1="61.249" y1="47.6948" x2="70.4994" y2="47.6948" gradientUnits="userSpaceOnUse">
<stop stop-color="#00469F"/>
<stop offset="1" stop-color="#1E79D6"/>
</linearGradient>
<linearGradient id="paint13_linear_116_17340" x1="61.249" y1="28.352" x2="70.4994" y2="28.352" gradientUnits="userSpaceOnUse">
<stop stop-color="#00469F"/>
<stop offset="1" stop-color="#1E79D6"/>
</linearGradient>
<linearGradient id="paint14_linear_116_17340" x1="5.50098" y1="41.2504" x2="14.7513" y2="41.2504" gradientUnits="userSpaceOnUse">
<stop stop-color="#00469F"/>
<stop offset="1" stop-color="#1E79D6"/>
</linearGradient>
<linearGradient id="paint15_linear_116_17340" x1="5.50098" y1="34.8012" x2="14.7513" y2="34.8012" gradientUnits="userSpaceOnUse">
<stop stop-color="#00469F"/>
<stop offset="1" stop-color="#1E79D6"/>
</linearGradient>
<linearGradient id="paint16_linear_116_17340" x1="5.50098" y1="28.352" x2="14.7513" y2="28.352" gradientUnits="userSpaceOnUse">
<stop stop-color="#00469F"/>
<stop offset="1" stop-color="#1E79D6"/>
</linearGradient>
<linearGradient id="paint17_linear_116_17340" x1="5.50098" y1="47.6948" x2="14.7513" y2="47.6948" gradientUnits="userSpaceOnUse">
<stop stop-color="#00469F"/>
<stop offset="1" stop-color="#1E79D6"/>
</linearGradient>
</defs>
</svg>
