<svg width="70" height="70" viewBox="0 0 70 70" fill="none" xmlns="http://www.w3.org/2000/svg">
<path fill-rule="evenodd" clip-rule="evenodd" d="M5.66244 7.64729C4.17366 8.0755 2.94021 9.44185 2.61917 11.0188C2.51 11.555 2.48166 16.5998 2.51063 30.3931L2.54965 49.0426L2.90539 49.7937C3.34323 50.7185 4.23517 51.6519 4.98287 51.9681C5.55708 52.2109 5.57207 52.2367 5.73031 53.2601C5.924 54.5119 7.13711 56.0011 8.30142 56.4163C9.00311 56.6664 7.70738 56.5078 36.9286 59.9225C53.4385 61.8519 59.8225 62.5528 60.3774 62.4969C61.9127 62.3425 63.3057 61.3152 63.9453 59.8658C64.2203 59.243 64.3715 57.7703 65.9101 40.7393C66.9929 28.7542 67.549 22.0595 67.4966 21.6369C67.3267 20.2634 66.2635 18.7301 65.0635 18.1276C64.7388 17.9647 63.9298 17.7599 63.1965 17.655C62.4849 17.5532 61.7226 17.4404 61.5027 17.4042L61.1028 17.3383L61.0488 14.2115C60.9997 11.3752 60.9686 11.0155 60.7136 10.3405C60.3191 9.29582 59.582 8.47986 58.5624 7.95939L57.7138 7.52617L31.9746 7.50442C11.7195 7.48715 6.11337 7.5176 5.66244 7.64729ZM57.6487 9.99738C57.9601 10.1604 58.3401 10.4896 58.4934 10.7289C58.7644 11.1518 58.9879 12.3128 58.8949 12.8136C58.85 13.0555 58.1673 13.0625 31.7339 13.0949L4.61887 13.1282L4.66653 12.1491C4.70822 11.2943 4.76363 11.1059 5.10259 10.666C5.31611 10.389 5.68697 10.0584 5.92667 9.93174C6.33731 9.71454 7.82977 9.70123 31.7226 9.7011L57.0826 9.70083L57.6487 9.99738ZM58.9159 18.729V22.0899H31.7813H4.6467V18.729V15.3682H31.7813H58.9159V18.729ZM62.7591 19.6536C64.237 19.759 64.6756 19.9972 65.1261 20.9386L65.4263 21.5662L63.7545 40.1098C61.8705 61.0064 62.1012 59.3952 60.9023 60.0336L60.2833 60.3632L50.989 59.2792C13.448 54.901 9.39265 54.4104 9.00145 54.2008C8.52917 53.9474 8.00682 53.2774 7.88404 52.7672L7.79711 52.4061L32.8163 52.3718L57.8356 52.3375L58.4298 52.0527C59.7366 51.4264 60.6685 50.1625 60.938 48.6506C61.0324 48.121 61.0765 43.3496 61.0765 33.655C61.0765 20.1765 61.088 19.4395 61.2989 19.5007C61.4211 19.5361 62.0783 19.6049 62.7591 19.6536ZM58.8873 36.4229C58.8556 47.3852 58.8326 48.5523 58.642 48.9108C58.3695 49.4231 57.9266 49.846 57.4778 50.0222C57.2287 50.1202 49.4111 50.1629 31.7496 50.1629C6.70067 50.1629 6.37264 50.1596 5.86248 49.9012C5.5783 49.7573 5.20274 49.4207 5.02799 49.153L4.71025 48.6666L4.67657 36.4986L4.64276 24.3304H31.7825H58.9222L58.8873 36.4229ZM7.28454 29.0723C6.70639 29.5438 6.71605 30.4145 7.30462 30.8832C7.45459 31.0026 8.71587 31.0449 12.2234 31.0479C16.8063 31.052 16.95 31.0444 17.2754 30.7789C17.692 30.4391 17.737 29.6622 17.3674 29.1886L17.1245 28.8775L12.37 28.84C7.74335 28.8035 7.60634 28.8099 7.28454 29.0723ZM20.4464 28.9443C19.813 29.2089 19.6824 30.33 20.2329 30.7789C20.5582 31.0444 20.702 31.052 25.2849 31.0479C30.3665 31.0434 30.3085 31.0512 30.5691 30.3403C30.7447 29.8613 30.6175 29.3935 30.2248 29.0731C29.918 28.8229 29.7061 28.812 25.3141 28.8199C22.7896 28.8245 20.5992 28.8805 20.4464 28.9443ZM7.44277 33.4632C6.78315 33.8092 6.65708 34.7185 7.19176 35.273C7.43604 35.5263 7.64447 35.5333 14.947 35.5333H22.4514L22.7633 35.2097C23.2937 34.6598 23.0955 33.6812 22.4034 33.4311C21.8088 33.2161 7.85672 33.2462 7.44277 33.4632ZM25.8714 33.4632C25.2118 33.8092 25.0857 34.7185 25.6204 35.273C25.8495 35.5106 26.0496 35.5333 27.9133 35.5333C29.0363 35.5333 30.0612 35.4744 30.1908 35.4025C30.3203 35.3306 30.4922 35.0654 30.5724 34.8131C30.7507 34.2531 30.5494 33.7171 30.0655 33.4632C29.6286 33.2341 26.3084 33.2341 25.8714 33.4632ZM36.7006 33.4294C36.0616 33.6984 36.025 34.0632 36.0652 39.7716L36.1025 45.0458L36.4591 45.3638L36.8157 45.6817L45.8641 45.6775C52.7765 45.6743 54.9601 45.6355 55.1141 45.5128C55.592 45.1323 55.6114 44.8953 55.6114 39.4374V34.0983L55.3047 33.7284L54.9981 33.3586L45.9951 33.3326C40.6668 33.3173 36.873 33.3568 36.7006 33.4294ZM53.4508 39.4872V43.4412H45.8887H38.3266V39.4872V35.5333H45.8887H53.4508V39.4872Z" fill="url(#paint0_linear_116_17379)"/>
<defs>
<linearGradient id="paint0_linear_116_17379" x1="2.5" y1="35.7432" x2="67.5" y2="35.7432" gradientUnits="userSpaceOnUse">
<stop stop-color="#00469F"/>
<stop offset="1" stop-color="#1E79D6"/>
</linearGradient>
</defs>
</svg>
