<svg width="76" height="76" viewBox="0 0 76 76" fill="none" xmlns="http://www.w3.org/2000/svg">
<path fill-rule="evenodd" clip-rule="evenodd" d="M33.0185 5.53204C29.2543 6.21318 26.8589 7.11357 24.354 8.78851C20.9942 11.0351 18.455 14.126 16.8527 17.9194L16.3201 19.1805L15.3503 19.2739C11.7713 19.6182 8.89868 20.9261 6.49557 23.3056C3.49562 26.2759 2.06814 30.3419 2.46428 34.7887C2.90003 39.682 4.93026 43.4342 8.46348 45.8768C9.99233 46.9337 9.91022 46.9596 9.91022 45.4207V44.0991L8.55385 42.7582C7.69802 41.912 6.98744 41.0589 6.6283 40.4464C5.34015 38.2499 4.73122 35.6029 4.86217 32.7694C4.95502 30.7589 5.17771 29.8815 6.05362 28.0748C7.16282 25.7868 9.10253 23.8813 11.4274 22.7959C13.1513 21.991 13.9877 21.8019 16.1922 21.7185L18.1413 21.6448L18.5074 20.4707C21.3718 11.2836 30.8179 5.99654 40.0717 8.4009C44.9281 9.66263 49.14 13.0397 51.411 17.4926L52.0635 18.7721L56.0552 18.8237C59.6812 18.8704 60.146 18.9033 61.1299 19.1829C65.837 20.5205 69.6021 24.3669 70.7693 29.0306C71.7692 33.0252 70.937 37.1127 68.4309 40.5171L67.8184 41.3491V43.03V44.7108L68.7911 43.7517C70.182 42.3805 71.0226 41.2211 71.8802 39.4914C74.1268 34.9604 74.1759 29.9402 72.0175 25.4311C71.2232 23.7719 70.4852 22.7021 69.2069 21.3577C66.6812 18.7014 63.3162 16.9536 59.7808 16.4618C59.1975 16.3808 57.5638 16.3144 56.1502 16.3144H53.5804L52.9896 15.3123C50.1588 10.5105 45.4035 7.08098 39.8581 5.84207C38.8819 5.62392 37.9863 5.54827 35.9758 5.51415C34.5384 5.48967 33.2076 5.49779 33.0185 5.53204ZM12.4649 26.4338C12.3461 26.5525 12.2162 26.7847 12.1761 26.9497C12.136 27.1146 12.1205 34.6358 12.1415 43.6634C12.179 59.7294 12.1854 60.0814 12.4468 60.2724C12.6728 60.4376 14.6251 60.4676 25.1357 60.4676H37.5576V63.2604V66.0532L37.1039 66.4928L36.6504 66.9324H30.8365C26.6802 66.9324 24.9369 66.9781 24.722 67.0924C24.2632 67.3368 24.087 67.6398 24.0822 68.1925C24.0787 68.5889 24.1679 68.7718 24.501 69.0522L24.9241 69.4083H30.8428H36.7614L37.0182 69.7347C37.8089 70.7398 39.7673 70.7587 40.546 69.7688L40.8296 69.4083H46.6991C52.7031 69.4083 52.9383 69.3892 53.3369 68.8701C53.5173 68.6351 53.5668 67.9197 53.4278 67.5576C53.1999 66.9636 52.8665 66.9324 46.7384 66.9324H40.9127L40.4731 66.4788L40.0335 66.0253V63.2464V60.4676H52.5472H65.061L65.2722 60.1453C65.4595 59.8594 65.4792 57.9547 65.4473 43.2158C65.4119 26.9567 65.4056 26.6043 65.1443 26.4131C64.9159 26.2461 61.1007 26.2179 38.779 26.2179C15.2474 26.2179 12.6595 26.2391 12.4649 26.4338ZM62.8666 41.3483V53.5901H38.7955H14.7244V41.3483V29.1064H38.7955H62.8666V41.3483ZM35.9961 33.1933C35.9488 33.4798 35.9093 33.9465 35.9085 34.2301C35.9074 34.6286 35.8522 34.7462 35.6663 34.7473C35.534 34.748 35.0895 34.9051 34.6789 35.0961L33.9322 35.4437L33.2986 34.8198C32.9502 34.4765 32.6054 34.1971 32.5324 34.1989C32.3216 34.2038 30.9552 35.6495 30.9552 35.8674C30.9552 35.9756 31.2276 36.3315 31.5606 36.6583L32.1659 37.2523L31.9161 37.6841C31.7789 37.9215 31.5895 38.379 31.4954 38.7005L31.3243 39.285H30.3833H29.4422V40.523V41.7609H30.3833H31.3243L31.4805 42.2767C31.5665 42.5605 31.7563 43.0092 31.9024 43.274L32.168 43.7554L31.493 44.4473L30.8181 45.1391L31.6989 46.0123L32.5799 46.8855L33.2626 46.2468L33.9454 45.6083L34.6854 45.9529C35.0926 46.1423 35.534 46.298 35.6663 46.2987C35.8587 46.2998 35.907 46.421 35.907 46.9018C35.907 47.2328 35.9462 47.6993 35.994 47.9387L36.081 48.3739L37.1976 48.3341L38.3141 48.2945L38.3829 47.344L38.4516 46.3937L39.1485 46.1575C39.5317 46.0277 39.9764 45.8395 40.1365 45.7394C40.4021 45.5737 40.4905 45.6162 41.1374 46.2214L41.8472 46.8852L42.6597 46.0811C43.1066 45.6388 43.4722 45.2107 43.4722 45.1295C43.4722 45.0482 43.1972 44.7119 42.861 44.3821L42.2499 43.7824L42.4986 43.2874C42.6353 43.0152 42.8223 42.5605 42.914 42.2767L43.0809 41.7609H44.0331H44.9852V40.523V39.285H44.0334H43.0817L42.8593 38.6317C42.737 38.2723 42.5517 37.8243 42.4476 37.636C42.269 37.3131 42.2928 37.2563 42.8652 36.6447C43.199 36.2877 43.4722 35.9447 43.4722 35.8824C43.4722 35.8199 43.1009 35.4016 42.6473 34.9527L41.8224 34.1364L41.1589 34.7901L40.4952 35.4437L39.7485 35.0961C39.3379 34.9051 38.8947 34.748 38.7637 34.7473C38.4963 34.7458 38.4028 34.4502 38.35 33.4392L38.3141 32.7515L37.1982 32.7119L36.0822 32.6722L35.9961 33.1933ZM38.9221 36.4152C39.9311 36.8495 40.6633 37.5519 41.1614 38.5636C42.5912 41.4678 40.6545 44.7478 37.42 44.9001C36.048 44.9647 35.0042 44.5854 34.121 43.7013C33.1361 42.7152 32.8121 41.9286 32.8121 40.523C32.8121 39.5229 32.8674 39.2412 33.1945 38.5752C34.2384 36.4495 36.777 35.4921 38.9221 36.4152ZM35.8121 37.6944C34.5201 38.2959 33.7754 39.8236 34.1118 41.1817C34.6601 43.3943 37.0928 44.3723 38.9647 43.1324C40.9026 41.8488 40.7407 38.8185 38.6767 37.7435C37.7228 37.2468 36.8071 37.2312 35.8121 37.6944ZM38.3902 39.2233C39.1827 39.9826 39.1728 41.1439 38.3683 41.8209C37.8576 42.2506 37.4298 42.3693 36.8107 42.2532C36.2612 42.1502 35.5642 41.4296 35.432 40.8278C35.3069 40.2577 35.7015 39.3575 36.2293 39.0094C36.8543 38.5972 37.8383 38.6945 38.3902 39.2233ZM49.4579 39.406C49.3739 40.0168 49.3197 40.1103 49.0505 40.1103C48.8798 40.1103 48.5424 40.1793 48.3007 40.2636C47.8846 40.4086 47.837 40.3887 47.4095 39.8942L46.9579 39.3717L46.3155 39.8332C45.9621 40.087 45.673 40.3501 45.673 40.4179C45.673 40.4858 45.8307 40.7483 46.0237 41.0012L46.3745 41.4611L45.9893 42.1569L45.6042 42.8528L44.9001 42.7714L44.1958 42.6901L44.0995 43.461C43.9899 44.338 44.0521 44.5111 44.4775 44.5138C45.1548 44.518 45.3629 44.661 45.443 45.177C45.4859 45.4543 45.5571 45.8049 45.6013 45.9562C45.6618 46.1639 45.5626 46.3113 45.1958 46.5585C44.9287 46.7384 44.7101 46.9463 44.7101 47.0201C44.7101 47.094 44.9078 47.411 45.1493 47.7245C45.3909 48.038 45.6063 48.319 45.628 48.349C45.6496 48.379 45.9155 48.2394 46.2188 48.0387L46.7701 47.6737L47.4577 48.053L48.1451 48.4321L48.0608 49.0831C47.9666 49.8107 47.9575 49.8026 49.0095 49.9434C49.7232 50.0389 49.7155 50.0461 49.8637 49.1542C49.9231 48.7971 50.0216 48.6365 50.1839 48.6323C50.3129 48.629 50.6455 48.5453 50.9229 48.4461C51.4249 48.2669 51.4295 48.2687 51.817 48.7927C52.0313 49.0825 52.2441 49.321 52.2899 49.3228C52.3358 49.3246 52.6643 49.104 53.0199 48.8325C53.6254 48.3702 53.6541 48.32 53.4732 48.0416C52.9043 47.1658 52.9104 47.2285 53.3274 46.5313L53.7196 45.8757L54.3626 45.9537C55.0805 46.0408 55.072 46.0509 55.2267 44.9086L55.3127 44.2738L54.6408 44.1847L53.9688 44.0956L53.7951 43.3188L53.6212 42.5422L54.1237 42.1172L54.626 41.6922L54.1728 41.0402C53.9236 40.6816 53.6699 40.3875 53.6091 40.3868C53.5483 40.386 53.2775 40.5358 53.0071 40.7195L52.5155 41.0535L51.8379 40.6852L51.1603 40.3167L51.2463 39.5945C51.3239 38.9428 51.3063 38.8724 51.0665 38.8724C50.9203 38.8724 50.5203 38.834 50.1777 38.787L49.5547 38.7016L49.4579 39.406ZM25.3845 40.7208C24.8656 40.8726 24.8363 40.9094 24.8714 41.3649C24.9015 41.755 24.8284 41.9195 24.4915 42.2198C24.0937 42.5741 24.0553 42.5817 23.6702 42.3825C23.4479 42.2677 23.2382 42.1736 23.2041 42.1736C23.1699 42.1736 23.0069 42.4027 22.8418 42.6826C22.522 43.2246 22.5188 43.2159 23.1797 43.6178C23.3592 43.7271 23.3864 43.8759 23.3116 44.34C23.2598 44.6614 23.1673 44.9246 23.1063 44.9246C23.0452 44.9246 22.8422 44.9827 22.655 45.054C22.3321 45.1767 22.3222 45.2127 22.4603 45.757C22.6031 46.3196 22.6159 46.3293 23.114 46.2626C23.5592 46.2029 23.665 46.2486 23.972 46.6333C24.2877 47.0289 24.3039 47.1054 24.1361 47.4083C23.8569 47.9124 23.8939 48.0151 24.4497 48.2802C24.994 48.5398 25.0086 48.5337 25.4282 47.8715C25.4812 47.7882 25.7715 47.7489 26.0938 47.7816C26.6194 47.8348 26.6726 47.8773 26.7534 48.3077C26.8521 48.8341 26.8388 48.8289 27.5667 48.6268C28.082 48.4838 28.0961 48.4636 28.0242 47.9742C27.9595 47.5339 28.0031 47.427 28.3638 47.1398C28.7635 46.8214 28.7934 46.8178 29.246 47.0337L29.7147 47.2571L30.0085 46.6812C30.1997 46.3064 30.2488 46.0875 30.1492 46.0542C30.065 46.0262 29.8757 45.8998 29.7286 45.7734C29.5108 45.5863 29.4786 45.4427 29.5557 45.0019C29.6372 44.5353 29.7133 44.4438 30.1039 44.3426C30.4416 44.2551 30.5395 44.1651 30.4877 43.9902C30.4495 43.861 30.3775 43.5855 30.328 43.3778C30.2448 43.0287 30.1991 43.0066 29.7222 43.0828C29.2569 43.1572 29.1759 43.1224 28.8945 42.7273C28.6327 42.3595 28.6074 42.2349 28.7374 41.9499C28.8224 41.7631 28.892 41.5576 28.892 41.493C28.892 41.2977 27.8747 40.755 27.8195 40.9208C27.7923 41.0025 27.663 41.2017 27.5322 41.363C27.3322 41.61 27.2067 41.6417 26.74 41.5629C26.2604 41.4818 26.1685 41.4077 26.0601 41.0145L25.9347 40.5599L25.3845 40.7208ZM50.5324 42.2236C52.0079 42.8401 52.3638 44.7902 51.2111 45.943C50.1194 47.0347 48.425 46.774 47.6352 45.3931C46.5934 43.5709 48.5732 41.4051 50.5324 42.2236ZM27.5327 43.5328C28.1283 44.1286 28.236 44.7485 27.8674 45.4611C27.2949 46.5683 25.5429 46.5793 24.9742 45.4793C24.5965 44.7488 24.6993 44.1331 25.2995 43.5328C25.7517 43.0807 25.9228 42.9989 26.4161 42.9989C26.9094 42.9989 27.0805 43.0807 27.5327 43.5328ZM39.3959 56.3512C40.1292 56.9279 39.7189 58.0375 38.7723 58.0375C37.8915 58.0375 37.5012 56.897 38.1951 56.3512C38.3944 56.1944 38.6646 56.066 38.7955 56.066C38.9265 56.066 39.1966 56.1944 39.3959 56.3512Z" fill="url(#paint0_linear_116_17362)"/>
<defs>
<linearGradient id="paint0_linear_116_17362" x1="2.39941" y1="38.8784" x2="73.6014" y2="38.8784" gradientUnits="userSpaceOnUse">
<stop stop-color="#00469F"/>
<stop offset="1" stop-color="#1E79D6"/>
</linearGradient>
</defs>
</svg>
