<svg width="70" height="70" viewBox="0 0 70 70" fill="none" xmlns="http://www.w3.org/2000/svg">
<path fill-rule="evenodd" clip-rule="evenodd" d="M12.6818 4.29016C12.1829 4.62095 11.7533 5.50352 11.7533 6.19769C11.7533 7.6168 13.0028 10.6283 15.0323 14.1007C16.3032 16.275 16.421 16.6939 15.905 17.2031C15.7436 17.3626 15.0904 17.8669 14.4535 18.324C8.20874 22.8057 2.924 33.0401 2.52126 41.4321C2.29391 46.1687 3.89601 50.5565 7.05397 53.8466C10.4455 57.3802 14.9245 59.3791 20.6176 59.9003C21.5336 59.984 22.7485 60.0308 23.3174 60.004C24.2643 59.9596 24.3777 59.9243 24.6571 59.588C25.0473 59.1185 25.045 58.6517 24.6505 58.2435C24.3645 57.9472 24.2415 57.9206 23.1581 57.9195C15.0401 57.9119 8.71169 54.5467 5.97667 48.7834C4.84947 46.4081 4.41903 44.1967 4.55645 41.4867C4.93939 33.9373 9.48506 24.8114 15.0162 20.4886C16.9077 19.0101 16.3429 19.1364 21.0635 19.1364C25.2492 19.1364 25.7287 19.0885 26.0593 18.6382C26.326 18.2747 26.2678 17.6391 25.9385 17.3187C25.6504 17.0386 25.5688 17.0328 21.9377 17.0328H18.2308V16.332C18.2308 15.5333 18.1053 15.2494 16.7157 12.9066C15.1504 10.2675 13.7855 7.21884 13.7855 6.3619C13.7855 6.1597 13.8894 6.12065 14.4279 6.12065C15.3919 6.12065 16.704 6.35493 18.6118 6.86794C21.5563 7.6594 24.1117 7.62851 27.5528 6.75961C29.1319 6.36085 31.3777 6.01258 31.507 6.14629C31.7335 6.38083 30.3771 9.66014 28.9561 12.3127L28.118 13.8775H24.0577H19.9974L19.6857 14.2003C19.3072 14.5919 19.2786 15.1728 19.6165 15.6049L19.8592 15.9153L23.5538 15.9538L27.2485 15.9925L27.2497 16.5455C27.2513 17.2454 27.7325 18.3269 28.2294 18.7474C28.4396 18.9251 29.1479 19.454 29.8034 19.9226C31.3493 21.0276 34.2722 24.0471 35.4054 25.71C35.8735 26.3969 36.5514 27.508 36.9118 28.1791C37.2723 28.8501 37.6709 29.4566 37.7975 29.5266C38.4695 29.899 39.3144 29.4183 39.3144 28.6637C39.3144 28.1487 38.0035 25.8035 36.7277 24.0357C35.4244 22.2302 33.1483 19.8784 31.4398 18.5723C30.7063 18.0115 29.9204 17.4036 29.6934 17.2215C29.031 16.6898 29.1099 16.2976 30.3165 14.1207C32.2227 10.6816 33.3694 7.92379 33.5483 6.34862C33.6508 5.44633 33.3113 4.60294 32.6936 4.22522C32.3394 4.00868 32.1207 3.98896 30.8809 4.06153C30.1055 4.10702 28.8424 4.29542 28.074 4.48027C24.7985 5.26792 24.8405 5.26201 22.6761 5.25635C20.7086 5.25123 20.4872 5.2244 19.0564 4.81829C16.0752 3.97226 13.485 3.75757 12.6818 4.29016ZM51.7613 22.3036C45.7136 22.5724 41.274 24.123 40.3138 26.3016C40.1037 26.7782 40.082 27.2523 40.082 31.3633C40.082 36.5266 40.0786 36.5065 41.1254 37.5014C42.4256 38.7372 45.1154 39.668 48.9036 40.1931C50.6089 40.4295 56.9684 40.4303 58.6833 40.1944C61.2557 39.8405 63.2661 39.2924 65.256 38.4026C65.4523 38.3149 65.4783 38.3869 65.4783 39.0175C65.4783 39.8605 65.3132 40.0649 64.1447 40.6685C61.8776 41.8394 58.4165 42.4134 53.6198 42.4139C52.0921 42.4141 50.7427 42.4696 50.6207 42.537C50.2689 42.732 50.0479 43.4101 50.2135 43.7864C50.5193 44.4809 50.7545 44.5303 53.7538 44.5287C58.3759 44.5263 62.1569 43.9176 64.575 42.7865C65.0213 42.5778 65.407 42.407 65.4323 42.407C65.4576 42.407 65.4783 42.7271 65.4783 43.1184C65.4783 43.7593 65.4374 43.8655 65.0655 44.1909C63.7064 45.3797 60.1099 46.254 55.5716 46.4989C54.1395 46.5762 52.8384 46.692 52.6802 46.7563C52.0091 47.029 52.0063 47.979 52.6752 48.4944C53.0079 48.7508 53.0925 48.7539 55.66 48.6059C59.8746 48.3627 62.9055 47.7589 64.7438 46.7963C65.0733 46.6238 65.3733 46.4826 65.4106 46.4826C65.4478 46.4826 65.4783 46.797 65.4783 47.1811C65.4783 48.039 65.1817 48.3848 63.9537 48.9593C61.9789 49.883 59.096 50.4311 55.1347 50.6362C53.5169 50.72 53.3386 50.7541 53.0708 51.0316C52.669 51.4473 52.697 51.9415 53.1486 52.409C53.5798 52.8553 53.6565 52.8611 56.4606 52.656C59.8758 52.4062 62.3108 51.912 64.3962 51.0452L65.4783 50.5955V51.3562C65.4783 52.0752 65.4523 52.1391 65.002 52.5236C63.6151 53.7083 59.6788 54.6113 54.9365 54.8325C52.9058 54.9273 52.5983 55.0334 52.4597 55.6866C52.3547 56.1813 52.6396 56.6887 53.1332 56.8863C53.5525 57.0542 57.6502 56.8288 59.5625 56.5327C63.4294 55.9341 66.1777 54.7325 67.0659 53.252L67.4469 52.6168L67.4821 39.7879C67.5218 25.3011 67.5906 26.324 66.5052 25.2731C65.5719 24.3694 63.3646 23.3435 62.3535 23.3435C61.5474 23.3435 61.1138 24.4548 61.6998 25.019C61.857 25.1702 62.357 25.4222 62.8111 25.5789C63.9099 25.9582 65.08 26.6123 65.3101 26.9758C65.5607 27.3718 65.3761 27.7111 64.6822 28.1291C62.7042 29.3205 59.3285 30.017 54.9365 30.1398C49.8502 30.282 45.2899 29.5389 43.0224 28.1984C42.1912 27.7069 41.9625 27.2811 42.3106 26.8734C42.9444 26.1315 45.6486 25.1664 48.3476 24.7188C50.2179 24.4087 55.4485 24.3089 57.6392 24.5415C58.5628 24.6396 59.4327 24.7057 59.5724 24.6885C59.9188 24.6457 60.3979 24.0558 60.3979 23.6722C60.3979 23.4994 60.2694 23.2072 60.1122 23.0226C59.7626 22.6123 58.8767 22.4578 56.2701 22.3529C55.2921 22.3134 54.3205 22.2666 54.111 22.2487C53.9014 22.2307 52.844 22.2554 51.7613 22.3036ZM44.3317 31.0307C49.8236 32.8864 60.1325 32.6224 64.5428 30.5132L65.4783 30.0657V30.7863C65.4783 31.3692 65.4208 31.5663 65.1768 31.8189C64.2332 32.7956 60.9998 33.7649 57.495 34.1217C55.8034 34.294 51.7835 34.294 50.0919 34.1217C46.587 33.7649 43.3536 32.7956 42.4101 31.8189C42.165 31.5651 42.1086 31.3698 42.1086 30.7755V30.0441L42.7389 30.3748C43.0855 30.5566 43.8024 30.8518 44.3317 31.0307ZM42.9325 34.5892C45.6763 35.8453 49.8469 36.4472 54.927 36.3205C59.4972 36.2063 62.3103 35.659 65.3264 34.297C65.4542 34.2393 65.4831 34.3985 65.4534 34.9948C65.4154 35.7546 65.4046 35.7746 64.8168 36.1814C63.7004 36.9536 61.7404 37.5833 59.0589 38.0308C57.0539 38.3655 50.533 38.3655 48.528 38.0308C45.8465 37.5833 43.8864 36.9536 42.77 36.1814C42.1849 35.7764 42.1713 35.7515 42.134 35.0117C42.113 34.5959 42.1203 34.2557 42.15 34.2557C42.1797 34.2557 42.5318 34.4058 42.9325 34.5892ZM37.2822 38.5366C37.1076 38.5675 36.5646 38.6598 36.0756 38.7417C34.5035 39.0047 32.118 39.9842 31.5724 40.5904C31.219 40.983 31.2409 41.5557 31.6246 41.9527C32.0513 42.3946 32.3861 42.3608 33.6185 41.7509C35.3423 40.8979 36.4158 40.6568 38.4888 40.6568C40.6433 40.6568 41.6789 40.9037 43.5692 41.8685C45.8158 43.0149 47.4527 44.7118 48.591 47.0742C49.4924 48.9452 49.7577 50.0976 49.7713 52.2017C49.7801 53.5538 49.7239 54.1524 49.5025 55.0679C48.4374 59.4726 45.0733 62.8491 40.8292 63.7732C39.5129 64.0599 37.2064 64.0265 35.8987 63.702C32.6158 62.8874 29.8862 60.6224 28.3439 57.4331C27.0737 54.8065 26.8571 51.4866 27.7711 48.6519C28.2576 47.1435 28.8252 46.0962 29.9263 44.6755C30.8271 43.5133 30.9696 43.1027 30.6316 42.6422C30.3899 42.313 29.8396 42.1298 29.5029 42.2667C28.6405 42.6171 26.896 45.1409 26.1079 47.1784C23.4375 54.0814 26.6549 62.097 33.2521 64.9772C35.1866 65.8216 36.0867 65.9974 38.4888 65.9999C40.4474 66.0019 40.7621 65.9693 41.8769 65.6484C46.5442 64.3047 49.9725 60.8034 51.3146 56.0092C51.8941 53.9392 51.9452 51.2639 51.4476 49.043C50.4902 44.7694 47.2697 40.9902 43.2552 39.4294C42.6296 39.186 41.7016 38.8964 41.1932 38.7857C40.2653 38.5838 37.876 38.4315 37.2822 38.5366ZM37.6535 43.3172C37.2977 43.6854 37.2822 43.7511 37.2822 44.8948V46.0882H36.8537C35.6857 46.0882 34.5606 46.8852 33.9673 48.1327C33.6043 48.8962 33.5707 49.0664 33.6262 49.8674C33.728 51.3331 34.43 52.4008 35.6919 53.0092C36.265 53.2854 36.5113 53.3167 38.1207 53.3178C39.7738 53.319 39.945 53.3423 40.3416 53.6189C40.5779 53.7838 40.8458 54.0649 40.9369 54.2434C41.1978 54.7552 41.0454 55.5321 40.5918 56.0021L40.1992 56.4088L38.455 56.4508C36.7993 56.4908 36.6881 56.4773 36.2661 56.1837C35.9519 55.965 35.7709 55.7021 35.6486 55.2869C35.3678 54.3335 35.1991 54.0532 34.8247 53.9168C34.3921 53.7595 33.8874 54.0111 33.6101 54.5224C33.4535 54.8112 33.4494 54.9798 33.5841 55.6027C33.9123 57.1207 34.9892 58.1872 36.4923 58.4829L37.2595 58.6338L37.3027 59.8666C37.3414 60.9754 37.3759 61.1248 37.6456 61.3507C38.0631 61.7005 38.6242 61.6709 39.0026 61.2792C39.2869 60.9848 39.3144 60.8536 39.3144 59.7842V58.612L39.9668 58.5223C41.2129 58.3513 42.1688 57.65 42.7585 56.4745C42.9912 56.0108 43.0559 55.6698 43.0582 54.8968C43.0608 54.034 43.012 53.8205 42.6672 53.1877C41.8417 51.6729 40.8057 51.2156 38.199 51.2156H36.4948L36.0629 50.7686C35.6943 50.3871 35.6311 50.2311 35.6311 49.7037C35.6311 49.1762 35.6943 49.0203 36.0629 48.6388L36.4948 48.1917H38.3208C39.7701 48.1917 40.2053 48.2341 40.4299 48.397C40.7794 48.6503 41.0925 49.2564 41.0925 49.6794C41.0925 50.2334 41.5514 50.6897 42.1086 50.6897C43.8762 50.6897 43.118 47.3948 41.1234 46.4079C40.8618 46.2787 40.3478 46.1464 39.9812 46.1142L39.3144 46.0556V44.8994C39.3144 43.5321 39.2694 43.378 38.7972 43.1252C38.2809 42.8489 38.0721 42.884 37.6535 43.3172Z" fill="url(#paint0_linear_116_17392)"/>
<defs>
<linearGradient id="paint0_linear_116_17392" x1="2.5" y1="35.8378" x2="67.5" y2="35.8378" gradientUnits="userSpaceOnUse">
<stop stop-color="#00469F"/>
<stop offset="1" stop-color="#1E79D6"/>
</linearGradient>
</defs>
</svg>
