<svg width="76" height="75" viewBox="0 0 76 75" fill="none" xmlns="http://www.w3.org/2000/svg">
<path fill-rule="evenodd" clip-rule="evenodd" d="M7.87689 5.16679C7.27241 5.36113 6.30331 6.37203 6.13626 6.98258C6.05205 7.29014 6.00113 9.10262 6.00075 11.8056C6 15.9949 6.00851 16.1468 6.25939 16.4704C6.618 16.9329 7.25889 16.9329 7.6175 16.4704C7.86838 16.1469 7.87689 15.994 7.87689 11.8316V7.52712L8.18407 7.21563L8.49113 6.90401H24.0125H39.5338L39.5345 11.5688C39.5349 14.4658 39.5854 16.4174 39.6679 16.7186C39.8376 17.3382 40.5793 18.1747 41.223 18.472C41.6786 18.6824 42.1477 18.7035 46.447 18.706L51.1705 18.7088V21.6419C51.1705 24.3832 51.1562 24.5694 50.9515 24.4897C50.3644 24.2609 48.8648 23.8885 47.8547 23.7206C46.9212 23.5653 44.7871 23.5332 35.3825 23.5328L24.0363 23.5323L23.777 23.8668C23.4537 24.2838 23.4469 24.685 23.7568 25.0732L23.9959 25.3729L30.73 25.4363L37.4642 25.4998L36.5908 26.0273C36.1105 26.3176 35.3096 26.903 34.8113 27.3284L33.9051 28.1019H29.1432C25.2085 28.1019 24.3196 28.1342 24.0272 28.2876C23.4376 28.597 23.3336 29.2786 23.8072 29.73C24.0922 30.0015 24.161 30.0059 28.1393 30.0059H32.1819L31.9813 30.2915C30.8215 31.9432 29.7741 34.1714 29.326 35.9401L29.0929 36.8604H26.6124C24.1457 36.8604 24.1303 36.8621 23.8248 37.172C23.4333 37.569 23.4333 38.0557 23.8248 38.4527C24.1288 38.7612 24.1555 38.7644 26.4525 38.7644H28.7729V40.1606V41.5569H26.4047H24.0363L23.777 41.8914C23.4537 42.3082 23.4469 42.7095 23.7566 43.0978C23.9901 43.3907 24.0527 43.3988 26.5353 43.4609L29.075 43.5244L29.1766 44.0321C29.5047 45.6712 30.5103 48.0224 31.5654 49.6172L32.1532 50.5057L28.1232 50.5392C24.1884 50.572 24.0862 50.5792 23.8053 50.8469C23.3336 51.2966 23.4386 51.9788 24.0272 52.2875C24.3197 52.441 25.2136 52.4732 29.1852 52.4732C33.8981 52.4732 33.9939 52.4783 34.2259 52.7382C34.5765 53.1314 36.1191 54.2821 36.9061 54.738L37.5943 55.1364L30.8632 55.1377L24.1319 55.1388L23.8248 55.4504C23.4494 55.8311 23.4329 56.2647 23.777 56.7083L24.0363 57.0428H35.2795C42.6564 57.0428 46.8573 56.9956 47.4957 56.9056C48.3195 56.7893 49.7911 56.4343 50.889 56.0869L51.1705 55.9978V61.7303V67.4629L50.8633 67.7744L50.5563 68.086H29.5237H8.49113L8.18407 67.7744L7.87689 67.4629V43.4172C7.87689 20.1126 7.86963 19.3625 7.64278 19.0783C7.31745 18.6708 6.55944 18.6708 6.23411 19.0783C6.00726 19.3625 6 20.1129 6 43.4285C6 62.0139 6.03479 67.6042 6.1529 68.0079C6.35411 68.6948 7.27679 69.6308 7.95397 69.8349C8.64229 70.0422 50.3517 70.0606 51.0855 69.854C51.3484 69.7799 51.7885 69.5132 52.0634 69.2613C53.0285 68.3767 52.9776 68.7757 53.0474 61.5577L53.1099 55.093L53.7258 54.726L54.3416 54.3591L55.4597 55.4933C56.4562 56.5041 56.5628 56.6562 56.4393 56.8904C56.0687 57.5929 56.1411 57.6939 59.3975 61.0087C61.1009 62.7426 62.7759 64.3581 63.12 64.5985C65.3537 66.1594 68.5172 65.2804 69.6659 62.7797C69.9474 62.167 69.9983 61.882 70 60.9116C70.0032 59.0127 69.8395 58.7678 65.9046 54.7897C63.0741 51.9283 62.5565 51.458 62.2388 51.4596C62.0352 51.4608 61.7843 51.5162 61.6811 51.5829C61.5358 51.6767 61.2351 51.4435 60.3517 50.5522L59.2101 49.4001L59.6968 48.5567C61.0547 46.2036 62.1986 41.612 61.6417 40.7499C61.1283 39.955 59.9432 40.3951 59.9333 41.3843C59.9311 41.6034 59.8424 42.2602 59.736 42.844C58.3818 50.278 51.9966 55.4626 44.6344 55.1062C40.9114 54.9259 37.7233 53.5171 35.0854 50.8865C32.7172 48.5248 31.3543 45.8935 30.843 42.6959C30.2402 38.9249 31.055 35.1419 33.1546 31.9629C34.0046 30.676 35.8149 28.8395 37.0834 27.9773C43.079 23.9023 50.9658 24.7863 55.9372 30.0905C57.7964 32.0741 59.011 34.3784 59.6319 37.1C59.7372 37.5617 59.9123 38.0392 60.0209 38.1614C60.2984 38.4737 60.9919 38.448 61.3218 38.1133C61.5557 37.8761 61.5786 37.7502 61.51 37.0835C61.4168 36.1794 60.7269 34.0266 60.1703 32.9037C58.7772 30.0926 56.5908 27.6504 54.0018 26.0135L53.0474 25.41V21.3945V17.379L46.9461 11.1894L40.8447 5L24.5798 5.01295C13.047 5.02209 8.18745 5.06689 7.87689 5.16679ZM45.6649 12.5526L49.8553 16.8048H45.9401H42.0249L41.7178 16.4932L41.4107 16.1817V12.2409C41.4107 10.0735 41.4251 8.30028 41.4427 8.30028C41.4602 8.30028 43.3603 10.2138 45.6649 12.5526ZM13.8204 22.7075C13.2048 22.9282 12.6902 23.4884 12.5149 24.1285C12.4422 24.3941 12.3849 25.6109 12.3876 26.8326C12.3938 29.7264 12.57 30.2585 13.6953 30.7826C14.1231 30.9819 14.5322 31.0161 16.5106 31.0179C17.7837 31.019 19.031 30.962 19.2824 30.8913C19.8521 30.7307 20.5981 29.9159 20.7051 29.3375C20.7487 29.1012 20.766 27.7936 20.7435 26.4319L20.7023 23.9562L20.3414 23.4765C19.7052 22.631 19.2809 22.5221 16.6357 22.5252C14.9659 22.5273 14.1814 22.578 13.8204 22.7075ZM18.8254 26.7691V29.0539L16.645 29.0887C14.9843 29.1152 14.4404 29.085 14.3633 28.9618C14.1924 28.6885 14.2354 24.7487 14.4113 24.5703C14.5227 24.4573 15.1435 24.4245 16.6949 24.4497L18.8254 24.4843V26.7691ZM44.0383 27.9259C38.0285 28.6701 33.5828 33.3522 33.0837 39.4625C32.9365 41.2651 33.4455 44.1298 33.9871 44.5462C34.4608 44.9104 35.1094 44.7408 35.3364 44.1933C35.4652 43.8825 35.4504 43.6615 35.2465 42.8478C34.8938 41.4414 34.9031 39.0573 35.2665 37.6854C36.259 33.9385 39.0284 31.1288 42.7245 30.119C44.2577 29.7003 46.5968 29.7266 48.0784 30.1793C51.1101 31.1058 53.3696 33.054 54.6653 35.8589C55.3929 37.4338 55.5973 38.4053 55.5973 40.2876C55.5973 42.1699 55.3929 43.1413 54.6653 44.7163C53.3736 47.5125 51.1008 49.4722 48.0784 50.3958C47.1313 50.6852 46.753 50.7317 45.3521 50.7307C42.1741 50.7284 39.9397 49.7417 37.6924 47.3484C36.9159 46.5214 36.5847 46.2535 36.3391 46.2535C35.5679 46.2535 35.1579 46.8558 35.449 47.5606C35.7127 48.1986 37.3934 49.8487 38.5761 50.6308C40.7664 52.0791 42.6893 52.6489 45.3521 52.6386C46.829 52.6329 47.3002 52.5794 48.3552 52.298C53.2741 50.9858 56.891 46.7476 57.4541 41.6361C58.2401 34.5007 52.897 28.208 45.8117 27.925C45.0772 27.8957 44.2792 27.896 44.0383 27.9259ZM47.9798 35.2081C47.7045 35.3464 46.7532 36.198 45.8658 37.1005L44.2524 38.7413L43.639 38.2494C42.6218 37.4337 41.5511 37.2808 40.4722 37.7967C40.1281 37.9614 39.7233 38.2321 39.5728 38.3985C39.1663 38.8476 38.7889 39.7768 38.7858 40.3363C38.7798 41.4213 38.9959 41.783 40.7147 43.5642C42.5309 45.4463 42.8348 45.6772 43.763 45.8791C44.2924 45.9943 44.5371 45.9816 45.1302 45.8083C45.8266 45.6049 45.9542 45.4919 48.668 42.6733C50.2164 41.0652 51.5798 39.6009 51.6978 39.4193C52.2782 38.5264 52.2114 37.0509 51.5484 36.1224C50.8004 35.0749 49.1075 34.6413 47.9798 35.2081ZM13.5197 36.2324C12.5341 36.8506 12.3812 37.3819 12.3822 40.1851C12.3829 42.4595 12.4768 43.0008 12.9748 43.6012C13.5426 44.2857 13.8585 44.3497 16.663 44.3474C19.0573 44.3454 19.2286 44.3293 19.6919 44.0618C19.9981 43.885 20.2926 43.5675 20.474 43.2188C20.7501 42.6878 20.7647 42.533 20.7621 40.1724C20.759 37.3653 20.652 36.9042 19.8723 36.3401C19.4624 36.0435 19.377 36.0344 16.6983 36.0003C14.0859 35.967 13.9237 35.9788 13.5197 36.2324ZM49.8831 37.146C50.2673 37.5718 50.3191 37.8975 50.0751 38.3514C49.7892 38.8832 44.9385 43.8366 44.5596 43.9839C44.08 44.1703 43.5546 43.8106 42.0557 42.2694C40.506 40.676 40.3784 40.379 40.9667 39.7349C41.4731 39.1806 41.8888 39.2758 42.8749 40.1721C43.8491 41.0573 44.1027 41.1882 44.5388 41.0306C44.7109 40.9686 45.7244 40.0039 46.7911 38.8871C48.5878 37.0061 48.7634 36.8568 49.178 36.8585C49.4805 36.8597 49.7088 36.9528 49.8831 37.146ZM18.8254 40.1606V42.382H16.5731H14.3209L14.2863 40.2924C14.2675 39.1433 14.2802 38.128 14.3149 38.0364C14.3642 37.9059 14.8578 37.8775 16.6017 37.9046L18.8254 37.9393V40.1606ZM13.6953 49.7925C12.57 50.3166 12.3938 50.8487 12.3876 53.7425C12.3822 56.2459 12.4828 56.7902 13.0587 57.3745C13.661 57.9854 14.2249 58.0833 16.8721 58.0362C19.4798 57.9899 19.7203 57.9241 20.3517 57.085L20.7023 56.619L20.7435 54.1433C20.766 52.7815 20.7487 51.474 20.7051 51.2376C20.5981 50.6592 19.8521 49.8444 19.2824 49.6838C19.031 49.6131 17.7837 49.5561 16.5106 49.5573C14.5322 49.5591 14.1231 49.5932 13.6953 49.7925ZM59.117 52.0934L60.1131 53.1099L59.0203 54.2187L57.9273 55.3273L56.9023 54.2875L55.8772 53.2476L56.9335 52.1677C57.5145 51.5736 58.0194 51.0853 58.0553 51.0823C58.0913 51.0793 58.5691 51.5344 59.117 52.0934ZM18.8254 53.806V56.0908L16.7148 56.1257C15.2645 56.1496 14.5501 56.1151 14.4312 56.0149C14.2975 55.9023 14.2583 55.4158 14.2583 53.8643C14.2583 52.7616 14.293 51.7677 14.3354 51.6556C14.4027 51.4775 14.689 51.4563 16.6189 51.4865L18.8254 51.5212V53.806ZM65.0745 56.6303C68.032 59.6654 68.1919 59.8898 68.1849 60.9925C68.1769 62.2505 66.8923 63.515 65.6225 63.515C64.7108 63.515 64.4295 63.2979 61.4611 60.3022L58.5509 57.3654L60.3333 55.5539C61.3137 54.5577 62.1484 53.7425 62.1882 53.7425C62.228 53.7425 63.5268 55.0421 65.0745 56.6303Z" fill="url(#paint0_linear_116_17366)"/>
<defs>
<linearGradient id="paint0_linear_116_17366" x1="6" y1="38.3784" x2="70" y2="38.3784" gradientUnits="userSpaceOnUse">
<stop stop-color="#00469F"/>
<stop offset="1" stop-color="#1E79D6"/>
</linearGradient>
</defs>
</svg>
