<svg width="70" height="71" viewBox="0 0 70 71" fill="none" xmlns="http://www.w3.org/2000/svg">
<path fill-rule="evenodd" clip-rule="evenodd" d="M28.9227 10.3814C27.9893 10.4455 27.0194 10.5658 26.7674 10.6485C26.2235 10.8272 25.9944 11.2998 26.1865 11.8462C26.3848 12.4099 26.7694 12.5125 28.0806 12.3514C28.7531 12.2687 31.5736 12.2087 34.9361 12.2054C41.1002 12.1994 42.5708 12.2967 46.4253 12.9644C49.5171 13.5002 52.2342 14.4069 52.9129 15.1294C53.1921 15.4264 53.1926 15.4337 52.9525 15.6994C52.2275 16.5021 49.3534 17.4494 45.9175 18.0182C42.6321 18.5619 40.9417 18.6628 35.063 18.6665C28.8817 18.6705 27.0357 18.5482 23.4468 17.8971C20.35 17.3352 17.6795 16.421 17.0477 15.7065C16.81 15.4375 16.81 15.4285 17.0477 15.1652C17.5754 14.5809 19.6853 13.755 21.8599 13.2813C22.6747 13.1038 23.0662 12.954 23.2246 12.7586C23.5437 12.3656 23.5037 11.849 23.127 11.4951C22.8128 11.1999 22.7903 11.1976 21.8313 11.3587C19.4341 11.7615 16.8885 12.7527 15.8866 13.6733C15.0368 14.4543 14.941 14.7589 14.941 16.6788V18.3138L13.1953 18.3909C10.1617 18.525 6.74765 19.0899 5.0084 19.7456C4.0532 20.1058 3.14815 20.7232 2.78862 21.2598L2.49955 21.6912V36.3418C2.49955 52.2959 2.45372 51.2951 3.21823 52.0195C4.42314 53.1612 8.5754 54.155 13.0854 54.3811L14.8775 54.471L14.9487 55.3597C15.0336 56.4179 15.1244 56.6053 15.8972 57.3175C17.6437 58.9274 22.5919 60.1449 29.3501 60.6273C31.6507 60.7915 38.3498 60.7893 40.7124 60.6235C47.3947 60.1547 52.3519 58.9307 54.1019 57.3175C54.8747 56.6053 54.9655 56.4179 55.0504 55.3597L55.1216 54.471L56.9624 54.3753C58.4496 54.2978 58.8642 54.2345 59.1206 54.0452C59.5529 53.7263 59.6189 53.0015 59.2495 52.6321C58.9957 52.3783 58.8973 52.3694 57.1793 52.4447C56.1873 52.4882 55.3029 52.5464 55.2143 52.5739C55.0867 52.6137 55.0602 52.0741 55.0873 49.9928L55.1216 47.3616L56.8355 47.2705C60.1577 47.0936 63.5392 46.5115 65.1218 45.844L65.6006 45.642L65.5662 48.1478L65.5318 50.6535L64.8379 51.0001C64.4562 51.1908 63.7607 51.4406 63.2921 51.5555C62.342 51.7883 61.9983 52.0725 61.9983 52.6251C61.9983 53.0538 62.2224 53.3708 62.6369 53.5284C63.2235 53.7514 65.8178 52.8136 66.7243 52.0508C67.5529 51.3535 67.4995 52.432 67.4995 36.3802C67.4995 23.7991 67.4737 21.718 67.3137 21.4085C66.5984 20.0254 63.7556 19.0539 58.9302 18.5435C57.9527 18.4402 56.6816 18.355 56.1055 18.3542L55.0581 18.3528V16.6984C55.0581 15.594 55.001 14.9081 54.8865 14.6354C54.6607 14.0981 53.7232 13.2475 52.8938 12.8272C50.6225 11.6762 45.9736 10.7478 40.522 10.3564C38.3891 10.2033 31.2939 10.2187 28.9227 10.3814ZM17.6236 18.274C20.0381 19.3418 24.2372 20.1422 29.3501 20.5094C31.6749 20.6762 38.3205 20.6738 40.6887 20.5052C45.7068 20.1479 49.9728 19.3366 52.3416 18.289C52.7359 18.1147 53.08 17.972 53.1061 17.972C53.1324 17.972 53.1538 19.6759 53.1538 21.7585C53.1538 25.5212 53.1521 25.5466 52.8682 25.8123C52.1042 26.5275 50.0245 27.2535 47.1236 27.8176C45.3183 28.1687 44.9866 28.3536 44.9866 29.0083C44.9866 29.5718 45.346 29.9056 45.9529 29.9056C47.1537 29.9056 50.8216 28.9905 52.3755 28.3033C52.7512 28.1372 53.08 28.0013 53.1061 28.0013C53.1324 28.0013 53.1538 29.7052 53.1538 31.7878C53.1538 35.5522 53.1522 35.5757 52.8682 35.8362C51.6798 36.9264 47.9325 37.912 42.7437 38.4989C39.8649 38.8246 30.229 38.8262 27.3189 38.5013C22.0836 37.9171 18.3284 36.9348 17.1309 35.8362C16.8469 35.5757 16.8453 35.5527 16.8453 31.7742C16.8453 28.7816 16.879 27.9889 17.0039 28.0437C21.1377 29.8564 26.8714 30.6886 35.1265 30.6737C40.1996 30.6646 41.7689 30.5558 42.1372 30.1875C42.4734 29.8513 42.485 29.2359 42.1619 28.8767C41.9254 28.6139 41.8591 28.6089 39.8238 28.6982C36.8496 28.829 31.6787 28.7995 29.4611 28.6395C23.481 28.2077 18.5008 27.0637 17.1309 25.8069C16.8469 25.5464 16.8453 25.5229 16.8453 21.7585C16.8453 19.6759 16.8667 17.972 16.893 17.972C16.9191 17.972 17.2479 18.1079 17.6236 18.274ZM14.941 22.1938V24.1306L13.3223 24.0431C9.59115 23.8416 6.66475 23.3015 5.14157 22.5331C4.84056 22.3814 4.5699 22.235 4.54007 22.208C4.29594 21.9865 6.56967 21.1684 8.36377 20.8322C9.89241 20.5457 12.3749 20.288 13.7666 20.2712L14.941 20.2571V22.1938ZM60.3866 20.6375C62.7733 20.9861 65.4683 21.7903 65.4683 22.1539C65.4683 22.2072 65.0826 22.4252 64.6114 22.6384C62.9837 23.3746 60.3182 23.8465 56.6768 24.0431L55.0581 24.1306V22.1741V20.2176L56.8404 20.2988C57.8208 20.3433 59.4166 20.4958 60.3866 20.6375ZM6.75248 25.0791C8.36313 25.4957 10.7102 25.8117 13.1636 25.9423L14.8775 26.0335L14.9118 28.6365L14.9459 31.2397L13.1474 31.144C9.7812 30.9651 6.56141 30.3668 5.16556 29.661L4.46732 29.308L4.43292 26.8109L4.39851 24.3139L4.87725 24.5159C5.14055 24.627 5.98441 24.8804 6.75248 25.0791ZM65.5493 29.2073C65.462 29.4352 64.1752 30.0019 63.1154 30.2796C61.6809 30.6552 58.9463 31.0326 56.8517 31.144L55.0532 31.2397L55.0873 28.6365L55.1216 26.0335L56.8355 25.9423C60.1219 25.7674 63.2512 25.2455 64.9017 24.5969L65.5318 24.3492L65.5664 26.7109C65.5855 28.0098 65.5777 29.1332 65.5493 29.2073ZM6.75248 32.1884C8.36313 32.6051 10.7102 32.9211 13.1636 33.0517L14.8775 33.1429L14.9118 35.7459L14.9459 38.3491L13.1474 38.2534C9.7812 38.0745 6.56141 37.4762 5.16556 36.7704L4.46732 36.4174L4.43292 33.9203L4.39851 31.4233L4.87725 31.6253C5.14055 31.7363 5.98441 31.9897 6.75248 32.1884ZM65.5493 36.3167C65.462 36.5446 64.1752 37.1113 63.1154 37.3889C61.6809 37.7646 58.9463 38.142 56.8517 38.2534L55.0532 38.3491L55.0873 35.7459L55.1216 33.1429L56.8355 33.0517C60.1219 32.8768 63.2512 32.3549 64.9017 31.7063L65.5318 31.4586L65.5664 33.8203C65.5855 35.1191 65.5777 36.2425 65.5493 36.3167ZM17.6236 38.3326C20.0983 39.427 24.3064 40.2172 29.5954 40.5807C32.4751 40.7786 40.513 40.6632 42.9976 40.3882C47.377 39.9035 50.3308 39.2229 52.9317 38.0994C53.1405 38.0092 53.1538 38.2324 53.1538 41.8035C53.1538 45.582 53.1522 45.605 52.8682 45.8655C51.6798 46.9557 47.9325 47.9413 42.7437 48.5282C39.8405 48.8566 30.2375 48.8548 27.2554 48.5253C23.3136 48.0897 20.1877 47.4043 18.3714 46.5774C16.721 45.8261 16.8453 46.2138 16.8453 41.8171C16.8453 39.7345 16.8667 38.0306 16.893 38.0306C16.9191 38.0306 17.2479 38.1665 17.6236 38.3326ZM6.75248 39.2978C8.38179 39.7193 10.7476 40.0388 13.1636 40.1636L14.8775 40.2522L14.9118 42.8835C14.9389 44.9647 14.9124 45.5043 14.7848 45.4648C14.6962 45.4374 13.8394 45.3801 12.881 45.3379C11.2451 45.2655 11.1228 45.2764 10.8815 45.5177C10.5293 45.8699 10.5399 46.5746 10.9024 46.9123C11.0629 47.0619 11.3712 47.178 11.6324 47.1873C11.881 47.1962 12.7129 47.2391 13.481 47.2825L14.8775 47.3616L14.9118 49.9652L14.9459 52.5687L13.1979 52.4727C9.8363 52.288 6.55684 51.6891 5.16556 51.0054L4.46732 50.6624L4.43292 48.1783L4.39864 45.6942L5.50593 46.0645C6.11492 46.2682 6.80504 46.4349 7.03965 46.4349C7.59177 46.4349 7.95853 46.0988 7.95853 45.5929C7.95853 44.947 7.6739 44.6832 6.72366 44.4487C6.25076 44.332 5.5496 44.0828 5.16556 43.8948L4.46732 43.553L4.43292 41.0429L4.39851 38.5327L4.87725 38.7346C5.14055 38.8457 5.98441 39.0991 6.75248 39.2978ZM65.5362 43.4602C65.4343 43.7258 64.1508 44.2375 62.7504 44.5708C61.1048 44.9625 59.0044 45.2423 56.8012 45.3634L55.0532 45.4593L55.0873 42.8558L55.1216 40.2522L56.8355 40.1611C60.1307 39.9856 63.5526 39.3999 65.0874 38.7483L65.5318 38.5598L65.5664 40.9256C65.5855 42.2267 65.5719 43.3673 65.5362 43.4602ZM17.952 48.4934C20.3584 49.4899 24.488 50.2526 29.3501 50.5984C31.6487 50.7619 38.3648 50.7612 40.649 50.5973C45.7863 50.2285 49.9496 49.4348 52.3755 48.3619C52.7512 48.1958 53.08 48.0599 53.1061 48.0599C53.1324 48.0599 53.1538 49.7638 53.1538 51.8464C53.1538 55.6108 53.1522 55.6343 52.8682 55.8948C51.6798 56.985 47.9325 57.9706 42.7437 58.5575C39.8405 58.8859 30.2366 58.8851 27.2554 58.5563C23.3307 58.1233 20.1878 57.4337 18.3714 56.6067C16.7206 55.8553 16.8453 56.2452 16.8453 51.8328C16.8453 48.8416 16.879 48.0469 17.0039 48.0996C17.0913 48.1364 17.5178 48.3136 17.952 48.4934Z" fill="url(#paint0_linear_116_17370)"/>
<defs>
<linearGradient id="paint0_linear_116_17370" x1="2.49902" y1="36.182" x2="67.5002" y2="36.182" gradientUnits="userSpaceOnUse">
<stop stop-color="#00469F"/>
<stop offset="1" stop-color="#1E79D6"/>
</linearGradient>
</defs>
</svg>
