<svg width="70" height="70" viewBox="0 0 70 70" fill="none" xmlns="http://www.w3.org/2000/svg">
<path fill-rule="evenodd" clip-rule="evenodd" d="M22.6002 2.63973C18.1589 3.37196 13.2486 5.69639 8.76223 9.19015C6.99762 10.5644 6.65941 10.9092 6.65941 11.3333C6.65941 12.219 9.57989 16.9426 11.6618 19.4242C12.2658 20.1441 13.3874 21.3262 14.1543 22.0512L15.5488 23.3695L14.4784 24.4043C11.2084 27.5652 9.14915 31.273 8.12528 35.8425C7.84703 37.0843 7.81311 37.5823 7.818 40.3575C7.82288 43.0888 7.861 43.6371 8.12447 44.7652C8.62467 46.9074 9.06491 48.1325 10.0498 50.1223C12.1898 54.446 15.7296 57.9609 20.0783 60.0802C20.8552 60.4589 21.6336 60.7687 21.808 60.7687C22.3168 60.7687 22.6904 60.2941 22.6418 59.7099C22.6007 59.215 22.5808 59.1994 20.9712 58.3953C20.0753 57.9477 19.0693 57.391 18.7359 57.158L18.1296 56.7344L18.1155 55.1237C18.0982 53.1571 17.8538 52.1069 16.9831 50.2579C16.2023 48.6002 16.1988 48.6307 17.5039 45.8596C19.1396 42.3864 19.3529 41.2972 18.622 40.1468C18.1775 39.4467 17.4371 39.0066 15.8045 38.4715C15.1125 38.2448 14.5782 37.9754 14.3586 37.7428C14.167 37.5398 13.5103 36.4584 12.8992 35.3395C12.2882 34.2206 11.64 33.1088 11.4586 32.8686L11.1291 32.4322L11.6635 31.3695C12.5215 29.6636 13.796 27.8754 15.184 26.4296C15.8949 25.6893 16.645 24.9636 16.8508 24.8171L17.2252 24.5506L17.9455 25.0104C19.5632 26.043 22.2099 27.0998 23.7533 27.3294C25.2241 27.548 25.1998 27.4289 24.0179 28.6247C22.0882 30.5774 21.281 32.8457 21.7604 34.968C22.3236 37.4612 23.6969 39.0226 25.7261 39.4772C26.7422 39.7049 28.8165 39.6505 30.8182 39.3439C31.8043 39.1928 32.7533 39.0691 32.9271 39.0691C33.6716 39.0691 33.9283 40.6684 33.9283 45.3077C33.9283 49.9535 34.2086 51.6074 35.1843 52.7183C35.8634 53.4916 36.5228 53.752 37.6567 53.6947C40.4779 53.5523 43.9498 50.2513 44.6526 47.0431C44.796 46.3886 44.7853 46.0024 44.5835 44.5337C44.2639 42.2064 44.3305 40.584 44.7821 39.6955C45.2271 38.8205 46.6291 37.5435 48.1163 36.6588C49.507 35.8315 49.4101 35.7746 49.673 37.5722C49.8866 39.0318 49.7645 42.9924 49.4638 44.3584C48.5809 48.3701 46.827 51.5644 43.9121 54.4695C39.8429 58.5252 35.2702 60.3618 29.242 60.3618C26.9643 60.3618 26.8824 60.3714 26.6779 60.6633C26.3949 61.067 26.4117 61.4846 26.7265 61.8725C26.9852 62.1913 26.9985 62.1927 29.8807 62.1851C32.552 62.178 32.9006 62.1483 34.4031 61.7995C41.1135 60.2422 46.4997 56.0295 49.507 49.9867C54.1453 40.6665 51.4193 29.167 43.0551 22.7687L41.8035 21.8112L42.1733 21.5289C42.3766 21.3738 42.9813 20.8929 43.5169 20.4602L44.4906 19.6738L45.3484 20.3568C46.6181 21.3679 48.6322 23.3916 49.5967 24.6253C50.832 26.2055 51.6199 27.4773 52.5203 29.3451C55.1683 34.8382 55.7388 40.7911 54.1865 46.7318C52.6331 52.6761 48.9147 57.8632 43.682 61.3848C42.2267 62.3643 39.3841 63.7469 37.727 64.2816C34.8019 65.2253 32.6764 65.5597 29.6548 65.5515C25.3541 65.54 21.8042 64.6628 17.9197 62.6519C14.241 60.7476 10.7702 57.581 8.47679 54.0365C5.09084 48.8034 3.79007 42.7045 4.70256 36.339C4.77867 35.8078 4.74814 35.6666 4.50503 35.4236C4.10482 35.0235 3.33979 35.033 3.07931 35.4412C2.62321 36.1561 2.35662 39.8725 2.58088 42.3918C3.19151 49.2512 5.99966 55.169 10.8841 59.8892C17.3449 66.1329 26.3485 68.7428 35.2137 66.9415C44.4329 65.0683 52.2373 58.2896 55.3584 49.4442C56.4557 46.3345 56.9175 43.5459 56.908 40.0863C56.8985 36.6078 56.4025 33.9099 55.1687 30.6263C54.8726 29.8381 54.7689 29.4049 54.8699 29.3767C56.7046 28.8651 59.7617 27.4474 61.4175 26.3401C64.492 24.2844 66.4107 21.8194 67.1866 18.9292C67.6046 17.3725 67.6044 14.3405 67.1863 12.3827C66.7506 10.3416 65.9963 8.18546 65.0682 6.32757C63.9489 4.08669 64.0328 4.12141 61.6472 4.91249C56.3984 6.65347 52.4319 9.56488 50.7375 12.9207C49.5626 15.2472 49.2195 18.8347 49.8968 21.7094C49.9571 21.9658 49.6322 21.7151 48.5655 20.6825C47.7895 19.9312 46.6375 18.9333 46.0056 18.465C45.0433 17.7516 44.7774 17.467 44.367 16.7116C43.2927 14.734 41.4439 11.9946 40.5321 11.0292C40.045 10.5134 39.4944 10.449 39.0836 10.8597C38.6163 11.3269 38.7442 11.7438 39.7752 13.1151C40.743 14.4021 42.5019 17.1169 42.4207 17.198C42.3506 17.2681 33.8693 15.5994 33.7726 15.4966C33.7241 15.4451 31.8728 12.9313 29.6584 9.91031L25.6322 4.41761L26.1654 4.37692C26.4585 4.35441 27.272 4.45395 27.9731 4.59785C30.3319 5.08216 32.2572 6.00208 34.6579 7.79175C35.3204 8.28569 35.9428 8.68971 36.0409 8.68971C36.3053 8.68971 36.8776 8.1262 36.9828 7.76192C37.2664 6.78204 32.4619 3.7734 29.2478 2.91803C28.1227 2.61858 27.5322 2.54873 25.7883 2.50899C24.4575 2.47848 23.2871 2.52649 22.6002 2.63973ZM27.1017 9.64259C29.1775 12.479 30.893 14.8497 30.9141 14.911C30.9472 15.0073 23.6435 13.652 23.5501 13.5444C23.3075 13.2651 18.1558 6.17893 18.1117 6.06392C18.0125 5.8057 20.0495 5.10982 22.4645 4.57683C23.2848 4.39577 23.1716 4.27208 27.1017 9.64259ZM18.5202 9.90692C19.7482 11.5833 20.7384 12.9695 20.7205 12.9873C20.6832 13.0246 10.2223 11.0144 9.91635 10.9112C9.67106 10.8285 9.8089 10.714 11.8147 9.33513C13.4661 8.19998 15.8767 6.79995 16.12 6.8348C16.2119 6.84796 17.292 8.23049 18.5202 9.90692ZM61.703 7.09615C61.2484 8.26629 57.4819 17.1931 57.4108 17.2693C57.3577 17.326 56.7201 15.929 55.994 14.1648L54.6737 10.9573L54.978 10.6333C55.7627 9.79842 58.1898 8.34075 60.3832 7.38706C61.493 6.90451 61.8042 6.83602 61.703 7.09615ZM64.5872 10.1556C65.1585 11.8759 65.4914 13.3607 65.5617 14.5002L65.6064 15.2247L62.506 16.5091C60.8008 17.2156 59.389 17.7745 59.3687 17.7512C59.3485 17.7277 60.2839 15.4342 61.4476 12.6545L63.5632 7.60053L63.812 8.08524C63.9489 8.35187 64.2977 9.28346 64.5872 10.1556ZM54.8087 16.2973L56.328 19.9717L55.016 23.1123C54.2944 24.8396 53.658 26.3028 53.6017 26.364C53.4684 26.509 52.5977 24.4235 52.1716 22.939C51.2845 19.8483 51.2243 17.1474 51.9917 14.8693C52.2647 14.059 53.0404 12.6228 53.205 12.6228C53.2514 12.6228 53.9731 14.2763 54.8087 16.2973ZM14.935 13.8382C17.6585 14.3666 19.9897 14.8433 20.1153 14.8975C20.2886 14.9724 19.6264 15.5196 17.3719 17.1649C15.7374 18.3575 14.343 19.3525 14.2731 19.3758C13.993 19.4691 11.026 15.5502 9.79004 13.4541C9.37165 12.7445 9.36866 12.7279 9.67188 12.8016C9.84309 12.8433 12.2115 13.3097 14.935 13.8382ZM26.817 16.1518C28.7509 16.5262 30.4394 16.8771 30.5693 16.9316C30.7502 17.0073 29.6244 17.8943 25.7574 20.7224L20.7094 24.4142L19.8232 23.9297C18.788 23.3635 17.1699 22.223 16.24 21.404L15.586 20.8279L19.2287 18.1552C21.2323 16.6853 22.9681 15.4799 23.0861 15.4767C23.2043 15.4735 24.8832 15.7772 26.817 16.1518ZM65.5365 17.4712C65.5354 17.5271 65.4426 17.9627 65.3303 18.4391C64.5537 21.7325 61.2561 24.832 56.4526 26.7832C55.9772 26.9763 55.5436 27.1343 55.4891 27.1343C55.3414 27.1343 58.1742 20.4393 58.3772 20.3086C58.5825 20.1762 65.2875 17.3945 65.4368 17.3797C65.4928 17.3741 65.5376 17.4154 65.5365 17.4712ZM37.5913 18.253C39.7179 18.6642 41.6089 19.035 41.7936 19.0769L42.1295 19.1531L41.7936 19.4162C40.9485 20.078 38.2209 21.8649 37.1165 22.4802C34.7983 23.7716 32.3425 24.7466 30.1297 25.2541C28.0473 25.7316 24.4756 25.73 23.1797 25.2507C22.9864 25.1792 24.1012 24.297 28.124 21.3382C30.9806 19.2372 33.4094 17.5152 33.5213 17.5117C33.6332 17.5081 35.4647 17.8416 37.5913 18.253ZM41.2271 23.7777C44.1119 25.7629 46.7756 29.0215 48.1834 32.288C48.968 34.1082 48.9752 33.9614 48.0765 34.468C45.4259 35.9623 43.6931 37.521 42.9646 39.0664C42.5925 39.8558 42.5423 40.1141 42.497 41.4746C42.4644 42.4484 42.5289 43.5789 42.6754 44.6057C42.8611 45.9073 42.8744 46.3267 42.7454 46.8114C41.9526 49.7902 37.9424 52.8627 36.6468 51.4841C36.0412 50.8396 35.9394 50.0394 35.8268 45.0365C35.7133 39.992 35.6163 39.2508 34.9344 38.2162C34.2 37.1018 33.621 36.9971 30.6506 37.4407C28.1 37.8218 26.4657 37.8046 25.569 37.3871C24.3305 36.8106 23.5716 35.4409 23.5702 33.7798C23.5695 32.9086 23.6333 32.6291 24.0148 31.8318C24.5387 30.737 25.8132 29.3782 27.145 28.4944C27.63 28.1725 28.1489 27.8062 28.2982 27.6801C28.4516 27.5504 29.1409 27.3531 29.8855 27.2257C32.4632 26.7847 36.289 25.2683 38.948 23.6337C39.433 23.3356 39.9113 23.0857 40.0112 23.0787C40.1109 23.0715 40.658 23.3861 41.2271 23.7777ZM11.6782 37.0702C12.4864 38.5488 13.1398 39.3825 13.7297 39.6875C13.9471 39.8 14.6534 40.0783 15.2993 40.3062C16.8231 40.8439 17.1057 41.0341 17.1057 41.5228C17.1057 42.0097 16.6637 43.1687 15.7138 45.1721C14.2379 48.2852 14.1677 48.9518 15.122 50.8004C15.7759 52.067 16.0764 53.0716 16.2174 54.4622L16.2998 55.276L15.0938 54.037C12.6491 51.5257 10.9866 48.3961 10.0971 44.6296C9.48221 42.0266 9.50351 38.1633 10.1471 35.5688L10.3594 34.7132L10.6571 35.2298C10.8207 35.5139 11.2803 36.342 11.6782 37.0702Z" fill="url(#paint0_linear_116_17375)"/>
<defs>
<linearGradient id="paint0_linear_116_17375" x1="2.5" y1="35.8784" x2="67.5" y2="35.8784" gradientUnits="userSpaceOnUse">
<stop stop-color="#00469F"/>
<stop offset="1" stop-color="#1E79D6"/>
</linearGradient>
</defs>
</svg>
