<svg width="75" height="75" viewBox="0 0 75 75" fill="none" xmlns="http://www.w3.org/2000/svg">
<rect width="75" height="75" rx="8" fill="url(#paint0_linear_2414_13439)"/>
<path fill-rule="evenodd" clip-rule="evenodd" d="M30.9468 15.9765C29.2811 17.1018 27.8179 18.1206 27.6954 18.2408C27.522 18.411 27.476 18.543 27.4876 18.8363C27.4959 19.0436 27.5351 19.2439 27.5747 19.2813C27.6998 19.3995 34.7532 21.8085 34.9743 21.8085C35.0903 21.8085 35.313 21.7009 35.4692 21.5694C35.7734 21.3135 35.7692 21.3586 35.5879 20.2822L35.5364 19.9769L37.4706 20.0244C39.0803 20.064 39.5816 20.1104 40.4584 20.3009C41.886 20.6111 42.993 20.9916 44.3 21.6209C50.054 24.3916 53.7404 30.2006 53.7404 36.4967V37.6119L54.1601 37.6694C54.3908 37.7011 54.7164 37.7269 54.8837 37.7269H55.1876L55.186 36.7094C55.1753 29.7397 51.2943 23.5013 45.0475 20.4123C41.9492 18.8802 38.4234 18.2716 34.9729 18.6732L34.0685 18.7785L34.0951 19.4297L34.1216 20.0809L32.0148 19.3566C30.856 18.9582 29.8772 18.6019 29.8397 18.5648C29.8021 18.5276 30.6236 17.9194 31.665 17.2131C33.746 15.8018 33.5964 15.8371 33.7098 16.7289L33.7711 17.2119L34.2363 17.1619C34.4922 17.1344 35.5156 17.0848 36.5105 17.0517C37.9527 17.0037 38.5629 17.0225 39.5206 17.1445C43.9434 17.7077 47.8399 19.6162 50.9818 22.7581C54.7094 26.4857 56.7252 31.3397 56.7252 36.5884V37.973L57.2 38.0301C57.4611 38.0615 57.7926 38.0876 57.9365 38.0879L58.1982 38.0887L58.1462 36.2572C58.0508 32.888 57.4162 30.2597 56.0005 27.3709C53.9476 23.1816 50.5726 19.8059 46.3691 17.7375C44.4223 16.7796 42.6385 16.2085 40.3943 15.8247C39.4267 15.6592 38.8595 15.6236 37.1199 15.6188C35.3302 15.6138 35.0104 15.5927 34.9784 15.4773C34.9577 15.4026 34.9142 15.1319 34.8818 14.8757C34.843 14.5696 34.7554 14.3469 34.6265 14.2267C34.1656 13.7965 34.1947 13.7827 30.9468 15.9765ZM21.2424 22.7521C21.0091 23.0224 20.8204 23.2768 20.8232 23.3174C20.8285 23.3943 21.7644 24.1601 21.8532 24.1601C21.9169 24.1601 22.5537 23.4633 22.6631 23.2739C22.7252 23.1663 22.6292 23.0309 22.2561 22.6998C21.9875 22.4615 21.745 22.2651 21.7173 22.2636C21.6894 22.262 21.4758 22.4818 21.2424 22.7521ZM34.8272 23.7304C34.8216 23.7429 34.6894 24.3999 34.5333 25.1906C34.3421 26.1586 34.205 26.6502 34.1137 26.6957C34.0391 26.7329 33.571 26.9317 33.0736 27.1374L32.1691 27.5116L30.9588 26.6847L29.7486 25.8576L28.1204 27.4858L26.4922 29.1141L27.3165 30.3257L28.1408 31.5373L27.784 32.3649C27.5877 32.8201 27.4035 33.2869 27.3746 33.4022C27.3261 33.5952 27.2052 33.634 25.8563 33.8891L24.3908 34.1664V36.4646V38.7627L25.8524 39.0343L27.314 39.3057L27.4217 39.6695C27.4809 39.8696 27.6693 40.3376 27.8404 40.7095L28.1514 41.3857L27.3338 42.58C26.8842 43.2368 26.5162 43.8081 26.5162 43.8493C26.5162 43.9462 29.6148 47.0429 29.7117 47.0429C29.7519 47.0429 30.3213 46.6763 30.9769 46.2282L32.1691 45.4135L33.0283 45.7787C33.5009 45.9795 33.969 46.1772 34.0685 46.2179C34.2202 46.2801 34.2933 46.5233 34.5228 47.7302L34.7962 49.1684L37.0676 49.1925C38.8355 49.2113 39.3487 49.1912 39.3825 49.1021C39.4064 49.039 39.5401 48.3712 39.6795 47.6178L39.9331 46.2482L40.2881 46.1418C40.4833 46.0834 40.9511 45.8952 41.3276 45.7236L42.0121 45.4117L43.2286 46.2393L44.4451 47.0669L46.0715 45.4405L47.6978 43.8142L46.8738 42.6021L46.0497 41.39L46.4097 40.5594C46.6076 40.1027 46.7933 39.6345 46.8222 39.5192C46.8707 39.3262 46.9916 39.2874 48.3405 39.0323L49.806 38.755V36.4555V34.156L48.3377 33.8887L46.8693 33.6213L46.7179 33.1643C46.6347 32.9129 46.4488 32.4444 46.3049 32.1231L46.0432 31.539L46.8735 30.3261L47.7038 29.1132L46.0749 27.4842L44.4459 25.8553L43.2346 26.6845L42.0233 27.5137L41.4366 27.2477C41.114 27.1014 40.6441 26.9144 40.3924 26.832L39.9348 26.6824L39.6804 25.3082C39.5404 24.5523 39.4067 23.8831 39.3831 23.8209C39.3503 23.7346 38.8067 23.7078 37.0887 23.7078C35.8504 23.7078 34.8327 23.718 34.8272 23.7304ZM23.6625 24.5425C23.5139 24.7053 23.2914 24.9543 23.1679 25.0959L22.9436 25.3533L23.2602 25.6226C23.4343 25.7706 23.6841 25.9697 23.8153 26.065L24.054 26.2382L24.4848 25.7339L24.9157 25.2296L24.4241 24.7381L23.9326 24.2465L23.6625 24.5425ZM18.9899 25.8584C18.7628 26.2425 18.4319 26.8473 18.2545 27.2023L17.932 27.8477L18.5717 28.1338C18.9236 28.2911 19.2221 28.4077 19.2352 28.3928C19.2484 28.3779 19.3917 28.1013 19.5538 27.7782C19.7158 27.455 20.0056 26.9319 20.1976 26.6158C20.3897 26.2996 20.5468 26.0071 20.5468 25.9659C20.5468 25.8873 20.271 25.6818 19.726 25.3541L19.4027 25.1598L18.9899 25.8584ZM38.2171 25.3132C38.2421 25.4003 38.348 25.9192 38.4525 26.4664C38.5568 27.0136 38.6609 27.5484 38.6836 27.6549C38.7168 27.8106 38.8511 27.8794 39.3696 28.0065C39.7242 28.0934 40.4784 28.397 41.0456 28.6812L42.0767 29.1979L43.1376 28.4802C43.721 28.0854 44.2216 27.7476 44.2501 27.7296C44.2785 27.7115 44.6557 28.0522 45.0881 28.4866L45.8744 29.2766L45.1077 30.3938L44.3409 31.511L44.5792 31.9282C44.7102 32.1576 44.845 32.3861 44.8786 32.4359C45.0182 32.6423 45.4961 33.9169 45.5973 34.353L45.7065 34.8231L46.1735 34.9145C46.4303 34.9647 47.0271 35.0805 47.4997 35.1717L48.3589 35.3375V36.4594V37.5814L47.0596 37.8304C46.345 37.9674 45.7493 38.0917 45.7358 38.1067C45.7222 38.1217 45.6248 38.4513 45.5192 38.8392C45.3382 39.504 44.9029 40.4911 44.5111 41.1249L44.3362 41.4078L45.0399 42.439C45.4269 43.0062 45.7704 43.5139 45.803 43.5672C45.8357 43.6205 45.5069 44.018 45.0725 44.4504L44.2825 45.2367L43.1718 44.4745L42.0613 43.7123L41.4171 44.0837C40.7927 44.4436 39.2058 45.0506 38.8847 45.0522C38.7977 45.0527 38.725 45.0633 38.7232 45.0757C38.7214 45.0881 38.6064 45.6884 38.4678 46.4098L38.2156 47.7212H37.093H35.9704L35.8106 46.862C35.4507 44.9251 35.5268 45.1014 34.9926 44.9668C34.3017 44.7928 33.2298 44.3556 32.7118 44.0367C32.4631 43.8836 32.2188 43.7595 32.1691 43.7609C32.1194 43.7623 31.5915 44.0948 30.9962 44.4997L29.9137 45.2361L29.1271 44.4531L28.3405 43.6702L29.0984 42.5355L29.8562 41.4009L29.6836 41.1215C29.2938 40.4909 28.8582 39.5026 28.6776 38.8392C28.572 38.4513 28.4746 38.1217 28.461 38.1067C28.4475 38.0917 27.8518 37.9674 27.1372 37.8304L25.8379 37.5814V36.4607V35.34L27.1372 35.091C27.8518 34.954 28.4458 34.8297 28.4572 34.8147C28.4685 34.7997 28.5893 34.4211 28.7257 33.9734C28.862 33.5257 29.1698 32.7843 29.4098 32.3258L29.8459 31.4921L29.1496 30.4716C28.7666 29.9103 28.4265 29.4075 28.3938 29.3542C28.3611 29.3009 28.6892 28.9041 29.1229 28.4724L29.9114 27.6876L31.0209 28.4477L32.1304 29.2079L32.9638 28.7719C33.4221 28.5321 34.1634 28.2243 34.6111 28.088C35.0588 27.9516 35.4368 27.8313 35.4511 27.8207C35.4654 27.81 35.58 27.2567 35.7058 26.5912C35.8316 25.9257 35.9509 25.3302 35.9709 25.268C35.9974 25.1859 36.3036 25.155 37.0894 25.155C38.0424 25.155 38.177 25.1739 38.2171 25.3132ZM21.5233 27.4401C21.3442 27.7502 21.0735 28.2533 20.9219 28.558L20.6461 29.1119L21.2802 29.4042C21.6291 29.5649 21.9276 29.682 21.9436 29.6642C21.9596 29.6465 22.1251 29.3268 22.3112 28.9537C22.4975 28.5806 22.7261 28.1674 22.8193 28.0353C23.0874 27.6556 23.1202 27.7002 22.0798 27.0257L21.849 26.8762L21.5233 27.4401ZM17.0626 30.0664C16.7695 30.9044 16.3262 32.8129 16.4062 32.8929C16.4306 32.9174 16.739 32.9924 17.0916 33.0595C17.7747 33.1897 17.8334 33.1661 17.8334 32.761C17.8334 32.6744 17.9687 32.1092 18.1341 31.505L18.4346 30.4064L17.7677 30.1822C17.2868 30.0205 17.0901 29.9882 17.0626 30.0664ZM19.8648 31.0458C19.6575 31.6988 19.3054 33.2592 19.3555 33.3031C19.4238 33.363 20.6484 33.5899 20.678 33.5481C20.6884 33.5333 20.8112 33.0735 20.9508 32.5263C21.0905 31.9791 21.2221 31.4851 21.2433 31.4285C21.2661 31.3678 21.0024 31.2316 20.6015 31.0967C19.9358 30.873 19.9199 30.8718 19.8648 31.0458ZM36.1487 31.6625C34.2731 32.0677 32.8259 33.4641 32.3516 35.3265C31.5848 38.3373 33.9759 41.3509 37.1254 41.3434C39.7943 41.3371 41.9825 39.1235 41.9825 36.43C41.9825 34.4202 40.6651 32.5731 38.7278 31.8665C38.0763 31.629 36.7791 31.5263 36.1487 31.6625ZM38.5888 33.34C39.2739 33.6684 39.8856 34.2777 40.225 34.9703C40.4671 35.4639 40.4901 35.5938 40.4901 36.4607C40.4901 37.3212 40.466 37.4596 40.2328 37.9347C40.0913 38.2231 39.7778 38.6568 39.5361 38.8984C39.2945 39.1401 38.8608 39.4536 38.5724 39.5951C38.0973 39.8283 37.9589 39.8524 37.0984 39.8524C36.239 39.8524 36.0992 39.8281 35.6273 39.5965C34.4557 39.0214 33.7513 37.9656 33.6805 36.6786C33.6097 35.3909 34.1052 34.3336 35.1078 33.6332C35.805 33.1461 36.264 33.021 37.2341 33.0535C37.9088 33.0761 38.1406 33.1251 38.5888 33.34ZM16.0506 37.026C16.0783 38.0333 16.1684 39.2849 16.2507 39.8072C17.6575 48.7357 24.4093 55.6822 33.3449 57.3944C35.0668 57.7244 36.3348 57.7638 39.8493 57.5966L40.2034 57.5798L40.3105 58.0516C40.4401 58.6226 40.5455 58.7603 40.956 58.8958L41.2718 59L44.2938 56.7181C45.9559 55.4632 47.3665 54.3752 47.4285 54.3005C47.5634 54.1381 47.562 53.4907 47.4266 53.3553C47.2785 53.2072 40.3532 51.2103 39.9751 51.2066C39.7523 51.2045 39.5594 51.2735 39.3964 51.4138L39.1517 51.6242L39.2672 52.367C39.3308 52.7755 39.3604 53.1321 39.333 53.1594C39.2363 53.2562 37.0829 53.3283 36.0248 53.2702C30.7516 52.9804 25.6929 49.9413 22.912 45.3925C21.2656 42.6995 20.4564 39.8236 20.4564 36.6652V35.3101L19.9815 35.2531C19.7203 35.2217 19.3948 35.1956 19.258 35.1953L19.0092 35.1945V36.419C19.0092 40.7704 20.3893 44.7351 23.0542 48.0391C23.7521 48.9044 25.3691 50.4662 26.246 51.1219C28.7691 53.0087 31.6783 54.1867 34.8373 54.6007C36.2529 54.7862 38.7952 54.7409 40.1283 54.5063C40.6258 54.4187 41.0424 54.3391 41.0541 54.3291C41.0659 54.3192 41.0145 53.9923 40.94 53.6026C40.8654 53.2128 40.8151 52.8851 40.8281 52.8743C40.8886 52.8241 45.2403 54.1371 45.2183 54.1989C45.1781 54.3117 41.5772 56.9882 41.5586 56.919C41.5493 56.8846 41.4973 56.6308 41.4431 56.3552L41.3445 55.8542L40.3746 56.0329C39.0306 56.2806 35.3102 56.2972 34.0232 56.0613C32.6647 55.8123 31.3887 55.4741 30.3371 55.0842C24.7061 52.9968 20.319 48.4598 18.4706 42.8125C17.766 40.6595 17.4737 38.8364 17.4724 36.5856L17.4716 35.3086L17.1325 35.2525C16.946 35.2217 16.6149 35.196 16.3967 35.1955L16 35.1945L16.0506 37.026ZM53.5199 39.6401C53.2676 40.7656 53.1978 41.0962 53.1978 41.1657C53.1978 41.2432 54.4541 41.6599 54.5069 41.5999C54.5807 41.5161 54.9205 39.8582 54.8836 39.762C54.8597 39.6998 54.6436 39.6206 54.4034 39.586C54.1631 39.5512 53.8768 39.5015 53.767 39.4754C53.6119 39.4384 53.5568 39.4752 53.5199 39.6401ZM56.5065 39.9107C56.4847 39.9781 56.3821 40.4403 56.2785 40.9378C56.175 41.4352 56.0674 41.9263 56.0397 42.0292C55.9956 42.1923 56.0564 42.2349 56.5154 42.3625C56.8049 42.443 57.106 42.5335 57.1845 42.5637C57.2911 42.6046 57.3539 42.5299 57.4319 42.2699C57.5341 41.9286 57.901 40.2162 57.901 40.0803C57.901 40.0424 57.6872 39.9836 57.4261 39.9495C57.165 39.9154 56.8601 39.8652 56.7486 39.8378C56.622 39.8067 56.5312 39.834 56.5065 39.9107ZM52.2021 43.7543C52.0035 44.1841 51.8413 44.5605 51.8414 44.5909C51.8419 44.6663 53.0138 45.2672 53.0635 45.2175C53.1322 45.1488 53.8309 43.6065 53.8309 43.5234C53.8309 43.4579 52.7539 42.9728 52.6082 42.9728C52.5834 42.9728 52.4007 43.3245 52.2021 43.7543ZM54.8797 45.0176C54.6021 45.595 54.3957 46.1011 54.4211 46.1423C54.4728 46.2258 55.4552 46.7715 55.5539 46.7715C55.6157 46.7715 56.1018 45.8202 56.5088 44.9026L56.716 44.4355L56.1317 44.2016C55.8104 44.073 55.5108 43.9677 55.466 43.9677C55.4212 43.9677 55.1574 44.4401 54.8797 45.0176ZM50.5115 46.5388L50.2221 46.9328L50.7526 47.3497C51.0444 47.5789 51.3034 47.7664 51.3282 47.7664C51.3882 47.7664 51.9315 47.025 51.9315 46.9431C51.9315 46.8742 51.0777 46.2399 50.9051 46.1806C50.8478 46.1608 50.6707 46.3221 50.5115 46.5388ZM52.9833 48.2319L52.5729 48.7842L53.1263 49.2143L53.6797 49.6444L53.8711 49.4064C54.2533 48.9314 54.572 48.4775 54.541 48.4528C54.5235 48.4389 54.2583 48.2593 53.9515 48.0535L53.3938 47.6795L52.9833 48.2319Z" fill="white"/>
<defs>
<linearGradient id="paint0_linear_2414_13439" x1="0" y1="38.5135" x2="75" y2="38.5135" gradientUnits="userSpaceOnUse">
<stop stop-color="#00469F"/>
<stop offset="1" stop-color="#1E79D6"/>
</linearGradient>
</defs>
</svg>
