<svg width="75" height="75" viewBox="0 0 75 75" fill="none" xmlns="http://www.w3.org/2000/svg">
<rect width="75" height="75" rx="8" fill="url(#paint0_linear_3071_20013)"/>
<path d="M31 48C34.3137 48 37 45.3137 37 42C37 38.6863 34.3137 36 31 36C27.6863 36 25 38.6863 25 42C25 45.3137 27.6863 48 31 48Z" stroke="white" stroke-width="2" stroke-linecap="round" stroke-linejoin="round"/>
<path d="M37.9625 34.1367C38.2791 34.4284 38.5791 34.7284 38.8624 35.0367L42.275 35.5242C42.831 36.4899 43.2595 37.5235 43.5499 38.5992L41.475 41.3617C41.475 41.3617 41.5125 42.2117 41.475 42.6367L43.5499 45.3992C43.2609 46.4754 42.8322 47.5092 42.275 48.4742L38.8624 48.9617C38.8624 48.9617 38.275 49.5742 37.9625 49.8617L37.475 53.2742C36.5093 53.8302 35.4757 54.2588 34.4 54.5492L31.6375 52.4742C31.2133 52.5117 30.7866 52.5117 30.3625 52.4742L27.6 54.5492C26.5237 54.2602 25.49 53.8315 24.525 53.2742L24.0375 49.8617C23.7291 49.5701 23.4291 49.2701 23.1375 48.9617L19.725 48.4742C19.1689 47.5086 18.7404 46.475 18.45 45.3992L20.525 42.6367C20.525 42.6367 20.4875 41.7867 20.525 41.3617L18.45 38.5992C18.739 37.523 19.1677 36.4892 19.725 35.5242L23.1375 35.0367C23.4291 34.7284 23.7291 34.4284 24.0375 34.1367L24.525 30.7242C25.4906 30.1682 26.5242 29.7396 27.6 29.4492L30.3625 31.5242C30.7866 31.4867 31.2133 31.4867 31.6375 31.5242L34.4 29.4492C35.4762 29.7383 36.5099 30.1669 37.475 30.7242L37.9625 34.1367Z" stroke="white" stroke-width="2" stroke-linecap="round" stroke-linejoin="round"/>
<path d="M50 31.125C52.2782 31.125 54.125 29.2782 54.125 27C54.125 24.7218 52.2782 22.875 50 22.875C47.7218 22.875 45.875 24.7218 45.875 27C45.875 29.2782 47.7218 31.125 50 31.125Z" stroke="white" stroke-width="1.5" stroke-linecap="round" stroke-linejoin="round"/>
<path d="M54.7867 21.5938C55.0044 21.7943 55.2106 22.0005 55.4054 22.2125L57.7515 22.5477C58.1338 23.2115 58.4284 23.9221 58.6281 24.6617L57.2015 26.5609C57.2015 26.5609 57.2273 27.1453 57.2015 27.4375L58.6281 29.3367C58.4293 30.0766 58.1347 30.7873 57.7515 31.4508L55.4054 31.7859C55.4054 31.7859 55.0015 32.207 54.7867 32.4047L54.4515 34.7508C53.7876 35.133 53.077 35.4277 52.3375 35.6273L50.4382 34.2008C50.1466 34.2266 49.8533 34.2266 49.5617 34.2008L47.6625 35.6273C46.9225 35.4286 46.2118 35.1339 45.5484 34.7508L45.2132 32.4047C45.0013 32.2042 44.795 31.9979 44.5945 31.7859L42.2484 31.4508C41.8661 30.7869 41.5715 30.0763 41.3718 29.3367L42.7984 27.4375C42.7984 27.4375 42.7726 26.8531 42.7984 26.5609L41.3718 24.6617C41.5706 23.9218 41.8652 23.2111 42.2484 22.5477L44.5945 22.2125C44.795 22.0005 45.0013 21.7943 45.2132 21.5938L45.5484 19.2477C46.2123 18.8654 46.9229 18.5708 47.6625 18.3711L49.5617 19.7977C49.8533 19.7719 50.1466 19.7719 50.4382 19.7977L52.3375 18.3711C53.0774 18.5698 53.7881 18.8645 54.4515 19.2477L54.7867 21.5938Z" stroke="white" stroke-width="1.8" stroke-linecap="round" stroke-linejoin="round"/>
<defs>
<linearGradient id="paint0_linear_3071_20013" x1="0" y1="38.5135" x2="75" y2="38.5135" gradientUnits="userSpaceOnUse">
<stop stop-color="#00469F"/>
<stop offset="1" stop-color="#1E79D6"/>
</linearGradient>
</defs>
</svg>
