<svg width="39" height="27" viewBox="0 0 39 27" fill="none" xmlns="http://www.w3.org/2000/svg">
<path d="M27 4.00003H34.3219C34.5958 3.99847 34.8639 4.06927 35.0909 4.20312C35.3179 4.33698 35.4932 4.52762 35.5938 4.75002L38 10" stroke="white" stroke-width="2" stroke-linecap="round" stroke-linejoin="round"/>
<path d="M1 14H27" stroke="white" stroke-width="2" stroke-linecap="round" stroke-linejoin="round"/>
<path d="M29 26C31.2091 26 33 24.2091 33 22C33 19.7909 31.2091 18 29 18C26.7909 18 25 19.7909 25 22C25 24.2091 26.7909 26 29 26Z" stroke="white" stroke-width="2" stroke-miterlimit="10"/>
<path d="M10 26C12.2091 26 14 24.2091 14 22C14 19.7909 12.2091 18 10 18C7.79086 18 6 19.7909 6 22C6 24.2091 7.79086 26 10 26Z" stroke="white" stroke-width="2" stroke-miterlimit="10"/>
<path d="M25 22H14" stroke="white" stroke-width="2" stroke-linecap="round" stroke-linejoin="round"/>
<path d="M5.55 22H2.3C1.95522 22 1.62456 21.8617 1.38076 21.6156C1.13696 21.3694 1 21.0356 1 20.6875V2.3125C1 1.9644 1.13696 1.63056 1.38076 1.38442C1.62456 1.13828 1.95522 1 2.3 1H27V18.5875" stroke="white" stroke-width="2" stroke-linecap="round" stroke-linejoin="round"/>
<path d="M27 10H38V20.6667C38 21.0203 37.8551 21.3594 37.5973 21.6095C37.3394 21.8595 36.9897 22 36.625 22H33.1875" stroke="white" stroke-width="2" stroke-linecap="round" stroke-linejoin="round"/>
</svg>
