<svg width="51" height="50" viewBox="0 0 51 50" fill="none" xmlns="http://www.w3.org/2000/svg">
<path d="M25.5 37.5V28.125" stroke="white" stroke-width="2" stroke-linecap="round" stroke-linejoin="round"/>
<path d="M19.25 21.875L25.5 28.125L31.75 21.875" stroke="white" stroke-width="2" stroke-linecap="round" stroke-linejoin="round"/>
<path d="M17.6875 45.3125H33.3125" stroke="white" stroke-width="2" stroke-linecap="round" stroke-linejoin="round"/>
<path d="M16.1252 32.8128C14.1955 31.3694 12.6269 29.4982 11.5424 27.3463C10.458 25.1943 9.88727 22.8202 9.87517 20.4105C9.8361 11.9339 16.6525 4.88314 25.1291 4.68783C28.4421 4.61067 31.6938 5.58884 34.4144 7.48098C37.135 9.37313 39.1835 12.0813 40.264 15.214C41.3445 18.3468 41.401 21.742 40.4253 24.909C39.4496 28.076 37.4923 30.8508 34.8361 32.8324C34.3608 33.1983 33.9761 33.6687 33.7119 34.2073C33.4477 34.7458 33.3111 35.338 33.3127 35.9378C33.3127 36.3522 33.148 36.7497 32.855 37.0427C32.562 37.3357 32.1646 37.5003 31.7502 37.5003H19.2502C18.8358 37.5003 18.4383 37.3357 18.1453 37.0427C17.8523 36.7497 17.6877 36.3522 17.6877 35.9378V35.8988C17.6877 35.2979 17.5463 34.7054 17.2748 34.1693C17.0034 33.6332 16.6095 33.1685 16.1252 32.8128V32.8128Z" stroke="white" stroke-width="2" stroke-linecap="round" stroke-linejoin="round"/>
</svg>
