<svg xmlns="http://www.w3.org/2000/svg" xmlns:xlink="http://www.w3.org/1999/xlink" width="358" height="327" fill="none" xmlns:v="https://vecta.io/nano"><path d="M179 98l56.292 32.5v65L179 228l-56.292-32.5v-65L179 98z" fill="url(#A)"/><path d="M146.263 145.818h2.257l3.023 7.378h.119l3.023-7.378h2.257V156h-1.77v-6.995h-.094l-2.814 6.965h-1.323l-2.814-6.98h-.094V156h-1.77v-10.182zm14.805 10.336c-.483 0-.919-.086-1.307-.258a2.14 2.14 0 0 1-.915-.776c-.222-.341-.333-.762-.333-1.263 0-.431.08-.787.239-1.069a1.85 1.85 0 0 1 .651-.676c.275-.169.585-.296.93-.383a7.72 7.72 0 0 1 1.078-.193l1.089-.125c.279-.04.481-.099.607-.179s.194-.21.194-.383v-.029c0-.375-.111-.665-.333-.87s-.542-.309-.96-.309c-.441 0-.79.096-1.049.289s-.427.419-.517.681l-1.68-.239c.132-.464.351-.852.656-1.163a2.86 2.86 0 0 1 1.118-.706c.441-.159.929-.239 1.462-.239.368 0 .734.043 1.099.129s.698.229.999.428.544.462.726.8.278.761.278 1.268V156h-1.73v-1.049h-.059a2.22 2.22 0 0 1-.463.597c-.195.182-.442.329-.74.442s-.642.164-1.04.164zm.468-1.322a1.96 1.96 0 0 0 .939-.214 1.58 1.58 0 0 0 .612-.577c.146-.238.219-.499.219-.78v-.9a.87.87 0 0 1-.289.129c-.132.04-.281.075-.447.104l-.492.08-.423.06c-.268.036-.509.096-.721.179s-.379.199-.502.348-.184.334-.184.566c0 .332.121.582.363.751s.55.254.925.254zM166.91 156v-7.636h1.745v1.272h.08c.139-.44.377-.78.716-1.019s.73-.363 1.168-.363l.333.015c.126.007.23.018.313.035v1.656a1.85 1.85 0 0 0-.363-.07c-.162-.023-.32-.035-.472-.035-.328 0-.623.071-.885.214s-.462.333-.611.582a1.64 1.64 0 0 0-.224.86V156h-1.8zm7.191-2.396l-.004-2.173h.288l2.744-3.067h2.103l-3.376 3.758h-.372l-1.383 1.482zm-1.64 2.396v-10.182h1.8V156h-1.8zm4.792 0l-2.485-3.475 1.213-1.268 3.425 4.743h-2.153zm6.245.149c-.766 0-1.427-.159-1.984-.477s-.979-.776-1.278-1.362-.447-1.285-.447-2.083c0-.786.149-1.475.447-2.069a3.38 3.38 0 0 1 1.263-1.392c.54-.332 1.175-.502 1.904-.502.471 0 .915.076 1.333.229a3 3 0 0 1 1.113.696c.325.315.58.716.766 1.203s.278 1.061.278 1.73v.552h-6.259v-1.213h4.534c-.003-.345-.078-.651-.223-.92a1.64 1.64 0 0 0-.612-.641c-.262-.156-.56-.234-.905-.234a1.75 1.75 0 0 0-.969.269 1.84 1.84 0 0 0-.652.696c-.152.285-.23.598-.233.939v1.059c0 .444.081.826.243 1.144a1.72 1.72 0 0 0 .681.726c.291.169.634.248 1.025.248.261 0 .498-.036.711-.109a1.56 1.56 0 0 0 .551-.333c.156-.146.274-.327.353-.542l1.681.189a2.61 2.61 0 0 1-.607 1.163 2.97 2.97 0 0 1-1.133.766c-.461.179-.988.268-1.581.268zm8.731-7.785v1.392h-4.39v-1.392h4.39zm-3.306-1.83h1.8v7.169c0 .242.036.428.109.557s.176.212.298.258.259.07.408.07c.113 0 .216-.008.308-.025l.219-.045.303 1.407c-.096.034-.233.07-.412.11a3.32 3.32 0 0 1-.647.069c-.45.014-.856-.054-1.218-.203a1.9 1.9 0 0 1-.86-.706c-.209-.319-.311-.716-.308-1.194v-7.467zm4.811 9.466v-7.636h1.8V156h-1.8zm.905-8.72a1.05 1.05 0 0 1-.736-.284c-.205-.192-.308-.422-.308-.691a.91.91 0 0 1 .308-.691 1.04 1.04 0 0 1 .736-.288 1.03 1.03 0 0 1 .736.288c.205.189.308.42.308.691a.91.91 0 0 1-.308.691 1.04 1.04 0 0 1-.736.284zm4.545 4.246V156h-1.799v-7.636h1.72v1.297h.089c.176-.427.456-.767.841-1.019s.866-.378 1.436-.378c.527 0 .986.113 1.377.338s.7.552.915.98.327.946.323 1.556V156h-1.799v-4.584c0-.51-.133-.91-.398-1.198s-.625-.432-1.089-.432c-.315 0-.595.069-.84.208s-.433.333-.572.592-.204.572-.204.94zm10.053 7.497c-.646 0-1.202-.088-1.666-.264s-.836-.404-1.118-.696a2.42 2.42 0 0 1-.587-.969l1.621-.393c.073.149.179.297.318.442a1.62 1.62 0 0 0 .562.368c.235.096.539.15.9.15.51 0 .933-.125 1.268-.373s.502-.65.502-1.213v-1.447h-.09c-.093.185-.229.376-.407.572a2.11 2.11 0 0 1-.701.492c-.289.132-.652.199-1.089.199-.587 0-1.119-.138-1.596-.413s-.852-.693-1.134-1.243-.417-1.246-.417-2.078c0-.839.139-1.546.417-2.123s.662-1.019 1.139-1.317a2.92 2.92 0 0 1 1.596-.453c.447 0 .815.076 1.103.229a2.12 2.12 0 0 1 .696.542 2.96 2.96 0 0 1 .393.591h.1v-1.262h1.774v7.76c0 .653-.155 1.193-.467 1.621s-.737.747-1.278.96-1.153.318-1.839.318zm.015-4.544c.381 0 .706-.093.974-.279s.473-.452.612-.8.209-.766.209-1.253c0-.481-.07-.901-.209-1.263s-.338-.641-.607-.84-.591-.303-.979-.303c-.401 0-.736.104-1.004.313s-.471.495-.607.86a3.48 3.48 0 0 0-.204 1.233c0 .467.068.877.204 1.228s.343.62.612.815.604.289.999.289zm-52.322 15.138c-.046-.434-.242-.772-.586-1.014s-.786-.363-1.333-.363c-.384 0-.714.058-.989.174s-.486.273-.632.472a1.15 1.15 0 0 0-.223.681c0 .213.048.397.144.552a1.31 1.31 0 0 0 .403.398c.169.106.356.196.561.269a6.12 6.12 0 0 0 .622.183l.954.239a6.66 6.66 0 0 1 1.109.363 3.9 3.9 0 0 1 .96.577c.285.232.51.512.676.84s.248.713.248 1.153c0 .597-.152 1.122-.457 1.576s-.746.804-1.323 1.059-1.267.378-2.083.378c-.792 0-1.48-.123-2.063-.368s-1.034-.603-1.362-1.074-.501-1.044-.527-1.72h1.815c.026.355.135.65.328.885s.442.411.75.527.66.174 1.044.174c.401 0 .753-.06 1.054-.179s.544-.292.716-.507a1.22 1.22 0 0 0 .264-.766.97.97 0 0 0-.234-.656c-.152-.175-.366-.321-.641-.437a6.7 6.7 0 0 0-.955-.319l-1.158-.298c-.839-.215-1.502-.542-1.989-.979s-.726-1.026-.726-1.755c0-.6.163-1.125.488-1.576s.774-.801 1.337-1.049 1.201-.378 1.914-.378c.723 0 1.356.126 1.899.378s.976.595 1.288 1.039.472.948.482 1.521h-1.775zm7.292-.253v1.392h-4.39v-1.392h4.39zm-3.306-1.83h1.8v7.169c0 .242.036.428.109.557a.59.59 0 0 0 .299.258c.122.047.258.07.407.07.113 0 .216-.008.308-.025l.219-.045.304 1.407a3.9 3.9 0 0 1-.413.11c-.176.04-.391.063-.646.069-.451.014-.857-.054-1.218-.203a1.88 1.88 0 0 1-.861-.706c-.208-.319-.311-.716-.308-1.194v-7.467zm4.811 9.466v-7.636h1.745v1.272h.08c.139-.44.378-.78.716-1.019a1.97 1.97 0 0 1 1.168-.363l.333.015c.126.007.231.018.314.035v1.656c-.077-.027-.198-.05-.363-.07a3.38 3.38 0 0 0-.473-.035c-.328 0-.623.071-.885.214a1.56 1.56 0 0 0-.611.582c-.149.248-.224.535-.224.86V177h-1.8zm7.612.154c-.484 0-.92-.086-1.308-.258a2.09 2.09 0 0 1-.914-.776c-.225-.341-.333-.762-.333-1.263 0-.431.079-.787.238-1.069a1.85 1.85 0 0 1 .651-.676 3.32 3.32 0 0 1 .93-.383 7.53 7.53 0 0 1 1.079-.193l1.089-.125c.278-.04.48-.099.606-.179a.42.42 0 0 0 .194-.383v-.029c0-.375-.111-.665-.333-.87s-.542-.309-.959-.309c-.441 0-.791.096-1.049.289a1.42 1.42 0 0 0-.517.681l-1.681-.239c.133-.464.351-.852.656-1.163s.678-.55 1.119-.706.928-.239 1.462-.239a4.76 4.76 0 0 1 1.098.129 3.11 3.11 0 0 1 1 .428 2.16 2.16 0 0 1 .726.8c.185.339.278.761.278 1.268V177h-1.73v-1.049h-.06c-.109.212-.263.411-.462.597s-.443.329-.741.442-.641.164-1.039.164zm.467-1.322c.362 0 .675-.072.94-.214s.469-.338.611-.577.219-.499.219-.78v-.9c-.056.046-.152.089-.288.129s-.282.075-.448.104l-.492.08-.422.06c-.269.036-.509.096-.721.179s-.38.199-.502.348-.184.334-.184.566c0 .332.121.582.363.751s.55.254.924.254zm9.188-6.468v1.392h-4.39v-1.392h4.39zm-3.306-1.83h1.799v7.169c0 .242.037.428.11.557a.56.56 0 0 0 .298.258c.123.046.259.07.408.07.112 0 .215-.008.308-.025l.219-.045.303 1.407c-.096.034-.234.07-.413.11s-.391.063-.646.069c-.451.014-.857-.054-1.218-.203a1.9 1.9 0 0 1-.86-.706c-.209-.319-.312-.716-.308-1.194v-7.467zm8.11 9.615c-.766 0-1.427-.159-1.984-.477a3.24 3.24 0 0 1-1.278-1.362c-.298-.59-.447-1.285-.447-2.083 0-.786.149-1.475.447-2.069a3.38 3.38 0 0 1 1.263-1.392c.54-.332 1.175-.502 1.904-.502.471 0 .915.076 1.333.229a3.01 3.01 0 0 1 1.113.696c.325.315.58.716.766 1.203s.278 1.061.278 1.73v.552h-6.259v-1.213h4.534c-.003-.345-.078-.651-.224-.92s-.349-.485-.611-.641-.56-.234-.905-.234a1.75 1.75 0 0 0-.969.269 1.84 1.84 0 0 0-.652.696c-.152.285-.23.598-.233.939v1.059c0 .444.081.826.243 1.144a1.72 1.72 0 0 0 .681.726c.291.169.633.248 1.024.248.262 0 .499-.036.711-.109a1.53 1.53 0 0 0 .552-.333c.156-.146.274-.327.353-.542l1.681.189a2.62 2.62 0 0 1-.607 1.163 2.97 2.97 0 0 1-1.133.766c-.461.179-.988.268-1.581.268zm8.239 2.874c-.647 0-1.202-.088-1.666-.264s-.837-.404-1.118-.696a2.4 2.4 0 0 1-.587-.969l1.621-.393c.073.149.179.297.318.442a1.61 1.61 0 0 0 .562.368c.236.096.538.15.9.15.51 0 .933-.125 1.267-.373s.502-.65.502-1.213v-1.447h-.089c-.093.185-.229.376-.408.572s-.409.359-.701.492-.651.199-1.088.199c-.587 0-1.119-.138-1.596-.413s-.852-.693-1.134-1.243-.417-1.246-.417-2.078c0-.839.139-1.546.417-2.123s.661-1.019 1.139-1.317a2.92 2.92 0 0 1 1.596-.453c.447 0 .815.076 1.103.229a2.12 2.12 0 0 1 .696.542c.173.209.303.406.393.591h.099v-1.262h1.775v7.76c0 .653-.156 1.193-.467 1.621s-.738.747-1.278.96-1.153.318-1.839.318zm.015-4.544c.381 0 .706-.093.974-.279s.472-.452.612-.8.208-.766.208-1.253c0-.481-.069-.901-.208-1.263s-.338-.641-.607-.84-.592-.303-.979-.303c-.401 0-.736.104-1.005.313a1.9 1.9 0 0 0-.606.86 3.48 3.48 0 0 0-.204 1.233c0 .467.068.877.204 1.228s.343.62.611.815.605.289 1 .289zm6.532 4.385c-.245 0-.472-.02-.681-.06s-.369-.08-.492-.129l.418-1.402c.261.076.495.112.701.109a.86.86 0 0 0 .542-.194c.159-.122.293-.328.402-.616l.154-.413-2.769-7.795h1.909l1.76 5.767h.08l1.765-5.767h1.914l-3.058 8.561c-.142.404-.331.75-.567 1.039s-.523.514-.865.666-.742.234-1.213.234zM236 0l56.292 32.5v65L236 130l-56.292-32.5v-65L236 0z" fill="#fff"/><path d="M206.037 60V49.818h6.623v1.546h-4.778v2.764h4.435v1.546h-4.435v2.779h4.817V60h-6.662zm14.46-5.618l-1.64.179a1.33 1.33 0 0 0-.244-.467c-.113-.146-.265-.264-.457-.353a1.67 1.67 0 0 0-.706-.134c-.375 0-.69.081-.945.244s-.376.373-.373.631a.66.66 0 0 0 .244.542c.169.139.447.254.835.343l1.303.278c.722.156 1.259.403 1.61.741s.534.781.537 1.327c-.003.481-.144.905-.422 1.273s-.658.65-1.149.855-1.054.308-1.69.308c-.935 0-1.687-.195-2.257-.587s-.91-.943-1.019-1.646l1.755-.169c.079.345.248.605.507.78s.595.264 1.009.264c.428 0 .771-.088 1.029-.264s.393-.393.393-.651a.68.68 0 0 0-.254-.542c-.165-.142-.424-.252-.775-.328l-1.303-.273c-.732-.152-1.274-.409-1.625-.771s-.526-.825-.522-1.382c-.004-.471.124-.878.382-1.223s.625-.616 1.089-.805 1.006-.288 1.616-.288c.895 0 1.599.191 2.113.572a2.4 2.4 0 0 1 .959 1.546zm5.462-2.019v1.392h-4.39v-1.392h4.39zm-3.306-1.829h1.799v7.169c0 .242.037.428.11.557s.175.212.298.259.258.07.408.07a1.76 1.76 0 0 0 .308-.025l.219-.045.303 1.407a4.01 4.01 0 0 1-.413.109c-.175.04-.391.063-.646.07-.451.013-.857-.055-1.218-.204s-.648-.388-.86-.706-.312-.716-.308-1.193v-7.467zm7.008 9.62c-.484 0-.92-.086-1.307-.258a2.13 2.13 0 0 1-.915-.776c-.222-.341-.333-.762-.333-1.263 0-.431.079-.787.238-1.069s.377-.507.652-.676a3.29 3.29 0 0 1 .929-.383 7.57 7.57 0 0 1 1.079-.194l1.089-.124c.278-.04.481-.099.607-.179s.193-.21.193-.383v-.03c0-.375-.111-.665-.333-.87s-.542-.308-.959-.308c-.441 0-.791.096-1.049.288s-.428.419-.517.681l-1.681-.239c.133-.464.352-.852.657-1.163a2.85 2.85 0 0 1 1.118-.706c.441-.159.928-.239 1.462-.239.368 0 .734.043 1.099.129a3.1 3.1 0 0 1 .999.427 2.15 2.15 0 0 1 .726.8c.185.338.278.761.278 1.268V60h-1.73v-1.049h-.06c-.109.212-.263.411-.462.597s-.442.33-.741.442-.641.164-1.039.164zm.468-1.322c.361 0 .674-.071.939-.214s.469-.338.612-.577.218-.499.218-.781v-.9a.84.84 0 0 1-.288.129c-.132.04-.282.075-.447.104l-.493.08-.422.06c-.269.036-.509.096-.721.179s-.38.199-.502.348-.184.335-.184.567c0 .332.121.582.363.751s.55.254.925.254zM235.582 60V49.818h1.8v3.808h.075c.092-.186.223-.383.392-.592a2.08 2.08 0 0 1 .687-.542c.288-.152.656-.229 1.103-.229a2.91 2.91 0 0 1 1.596.452c.477.298.855.741 1.134 1.327s.422 1.299.422 2.148c0 .838-.137 1.551-.412 2.138s-.65 1.034-1.124 1.342a2.89 2.89 0 0 1-1.611.462c-.437 0-.8-.073-1.089-.219s-.52-.322-.696-.527-.306-.406-.402-.592h-.105V60h-1.77zm1.765-3.818c0 .494.07.926.209 1.298s.346.661.612.87.593.308.974.308c.398 0 .731-.106.999-.318s.471-.509.607-.88.209-.8.209-1.278-.068-.895-.204-1.263-.338-.656-.607-.865-.603-.313-1.004-.313a1.58 1.58 0 0 0-.979.303 1.86 1.86 0 0 0-.612.85c-.136.365-.204.794-.204 1.288zm8.774-6.364V60h-1.8V49.818h1.8zM247.972 60v-7.636h1.799V60h-1.799zm.904-8.72c-.285 0-.53-.094-.735-.283a.91.91 0 0 1-.309-.691.9.9 0 0 1 .309-.691c.205-.192.45-.288.735-.288s.534.096.736.288a.9.9 0 0 1 .308.691.91.91 0 0 1-.308.691c-.202.189-.447.283-.736.283zm8.781 3.102l-1.64.179a1.33 1.33 0 0 0-.244-.467c-.112-.146-.265-.264-.457-.353s-.428-.134-.706-.134c-.375 0-.689.081-.945.244s-.376.373-.373.631a.66.66 0 0 0 .244.542c.169.139.447.254.835.343l1.303.278c.722.156 1.259.403 1.611.741s.533.781.537 1.327c-.004.481-.145.905-.423 1.273s-.658.65-1.148.855-1.054.308-1.691.308c-.934 0-1.687-.195-2.257-.587s-.91-.943-1.019-1.646l1.755-.169c.079.345.248.605.507.78s.595.264 1.009.264c.428 0 .771-.088 1.029-.264s.393-.393.393-.651c0-.219-.084-.399-.253-.542s-.425-.252-.776-.328l-1.303-.273c-.732-.152-1.274-.409-1.625-.771s-.526-.825-.522-1.382c-.004-.471.124-.878.383-1.223s.624-.616 1.088-.805 1.006-.288 1.616-.288c.895 0 1.599.191 2.113.572a2.4 2.4 0 0 1 .959 1.546zm3.448 1.143V60h-1.799V49.818h1.76v3.843h.089c.179-.431.456-.771.83-1.019s.859-.378 1.442-.378c.53 0 .993.111 1.387.333s.699.547.915.974.328.95.328 1.566V60h-1.8v-4.584c0-.514-.132-.913-.397-1.198s-.63-.433-1.104-.433c-.318 0-.603.07-.855.209s-.444.333-.587.592-.209.572-.209.94zM191.728 81h-3.45V70.818h3.52c1.01 0 1.879.204 2.605.611s1.289.986 1.68 1.745.587 1.667.587 2.724-.197 1.972-.592 2.734-.956 1.347-1.695 1.755-1.621.612-2.655.612zm-1.606-1.596h1.516c.71 0 1.301-.129 1.775-.388s.831-.651 1.069-1.168.358-1.17.358-1.949-.119-1.425-.358-1.939-.591-.903-1.059-1.158-1.04-.388-1.73-.388h-1.571v6.99zM198.343 81v-7.636h1.799V81h-1.799zm.905-8.72c-.286 0-.531-.094-.736-.283a.91.91 0 0 1-.309-.691.9.9 0 0 1 .309-.691c.205-.192.45-.288.736-.288s.533.096.735.288a.9.9 0 0 1 .309.691.91.91 0 0 1-.309.691c-.202.189-.447.283-.735.283zm6.613 1.084v1.392h-4.514v-1.392h4.514zM202.475 81v-8.357c0-.514.106-.941.319-1.283s.503-.597.865-.766a2.8 2.8 0 0 1 1.203-.254c.311 0 .588.025.83.075l.537.134-.358 1.392c-.076-.023-.172-.046-.288-.07s-.246-.04-.388-.04c-.335 0-.572.081-.711.244s-.204.388-.204.686V81h-1.805zm8.663-7.636v1.392h-4.514v-1.392h4.514zM207.753 81v-8.357c0-.514.106-.941.318-1.283a2.01 2.01 0 0 1 .865-.766 2.8 2.8 0 0 1 1.203-.254c.312 0 .588.025.83.075l.537.134-.358 1.392c-.076-.023-.172-.046-.288-.07s-.245-.04-.388-.04c-.335 0-.572.081-.711.244s-.204.388-.204.686V81h-1.804zm7.888.149c-.765 0-1.427-.159-1.983-.477s-.98-.776-1.278-1.362-.447-1.284-.447-2.083c0-.785.149-1.475.447-2.068s.723-1.061 1.263-1.392 1.175-.502 1.904-.502c.471 0 .915.076 1.332.229s.792.381 1.114.696.58.716.766 1.203.278 1.061.278 1.73v.552h-6.259v-1.213h4.534c-.004-.345-.078-.651-.224-.92a1.63 1.63 0 0 0-.611-.641c-.259-.156-.561-.234-.905-.234-.368 0-.691.09-.97.269s-.495.408-.651.696-.23.598-.234.94v1.059c0 .444.082.825.244 1.143s.389.557.681.726.633.249 1.024.249c.262 0 .499-.037.711-.109a1.58 1.58 0 0 0 .552-.333 1.39 1.39 0 0 0 .353-.542l1.68.189a2.62 2.62 0 0 1-.606 1.163c-.295.328-.673.583-1.134.766s-.987.268-1.581.268zm4.918-.149v-7.636h1.746v1.273h.079c.139-.441.378-.781.716-1.019a1.97 1.97 0 0 1 1.168-.363l.333.015c.126.007.231.018.314.035v1.656a1.92 1.92 0 0 0-.363-.07 3.35 3.35 0 0 0-.473-.035c-.328 0-.623.071-.885.214s-.462.333-.611.582a1.64 1.64 0 0 0-.224.86V81h-1.8zm8.617.149c-.765 0-1.426-.159-1.983-.477s-.98-.776-1.278-1.362-.447-1.284-.447-2.083c0-.785.149-1.475.447-2.068s.723-1.061 1.263-1.392 1.175-.502 1.904-.502c.471 0 .915.076 1.332.229a3.01 3.01 0 0 1 1.114.696c.325.315.58.716.766 1.203s.278 1.061.278 1.73v.552h-6.259v-1.213h4.534a1.93 1.93 0 0 0-.224-.92c-.146-.272-.349-.486-.611-.641a1.72 1.72 0 0 0-.905-.234c-.368 0-.691.09-.97.269s-.495.408-.651.696-.23.598-.234.94v1.059c0 .444.082.825.244 1.143a1.74 1.74 0 0 0 .681.726c.292.166.633.249 1.024.249.262 0 .499-.037.711-.109a1.58 1.58 0 0 0 .552-.333 1.38 1.38 0 0 0 .353-.542l1.681.189c-.107.444-.309.832-.607 1.163s-.673.583-1.134.766-.987.268-1.581.268zm6.718-4.624V81h-1.799v-7.636h1.72v1.298h.089c.176-.427.456-.767.84-1.019s.867-.378 1.437-.378c.527 0 .986.113 1.377.338a2.27 2.27 0 0 1 .915.979c.219.428.327.946.323 1.556V81h-1.799v-4.584c0-.51-.133-.91-.398-1.198s-.625-.433-1.089-.433a1.67 1.67 0 0 0-.84.209c-.242.136-.433.333-.572.592s-.204.572-.204.94zm10.545-3.162v1.392h-4.39v-1.392h4.39zm-3.306-1.83h1.8v7.169c0 .242.036.428.109.557a.59.59 0 0 0 .298.259c.123.046.259.07.408.07.113 0 .215-.008.308-.025l.219-.045.303 1.407c-.096.033-.233.07-.412.109s-.391.063-.647.07c-.45.013-.856-.055-1.218-.204s-.648-.388-.86-.706-.311-.716-.308-1.193v-7.467zM247.944 81v-7.636h1.8V81h-1.8zm.905-8.72a1.05 1.05 0 0 1-.736-.283c-.205-.192-.308-.422-.308-.691s.103-.502.308-.691a1.04 1.04 0 0 1 .736-.288 1.03 1.03 0 0 1 .736.288c.205.189.308.419.308.691s-.103.499-.308.691a1.04 1.04 0 0 1-.736.283zm4.943 8.874c-.484 0-.92-.086-1.307-.258a2.13 2.13 0 0 1-.915-.776c-.222-.341-.333-.762-.333-1.263 0-.431.079-.787.238-1.069a1.85 1.85 0 0 1 .652-.676 3.29 3.29 0 0 1 .929-.383 7.57 7.57 0 0 1 1.079-.194l1.089-.124c.278-.04.48-.099.606-.179a.42.42 0 0 0 .194-.383v-.03c0-.374-.111-.664-.333-.87s-.542-.308-.959-.308c-.441 0-.791.096-1.049.288s-.428.419-.517.681l-1.681-.239c.133-.464.352-.852.657-1.163s.677-.55 1.118-.706.928-.239 1.462-.239a4.75 4.75 0 0 1 1.098.129c.365.086.698.229 1 .427a2.16 2.16 0 0 1 .726.8c.185.338.278.761.278 1.268V81h-1.73v-1.049h-.06c-.109.212-.263.411-.462.597s-.443.33-.741.442-.641.164-1.039.164zm.467-1.322c.362 0 .675-.071.94-.214s.469-.338.612-.577.218-.499.218-.781v-.9a.84.84 0 0 1-.288.129 4.17 4.17 0 0 1-.447.104l-.493.08-.422.06c-.269.036-.509.096-.721.179s-.38.199-.502.348-.184.335-.184.567c0 .332.121.582.363.751s.55.254.924.254zm9.188-6.468v1.392h-4.39v-1.392h4.39zm-3.306-1.83h1.8v7.169c0 .242.036.428.109.557a.59.59 0 0 0 .298.259c.123.046.259.07.408.07.113 0 .215-.008.308-.025l.219-.045.303 1.407a4.01 4.01 0 0 1-.413.109c-.175.04-.391.063-.646.07-.451.013-.857-.055-1.218-.204s-.648-.388-.86-.706-.312-.716-.308-1.193v-7.467zM264.952 81v-7.636h1.8V81h-1.8zm.905-8.72a1.05 1.05 0 0 1-.736-.283c-.205-.192-.308-.422-.308-.691s.103-.502.308-.691a1.04 1.04 0 0 1 .736-.288 1.03 1.03 0 0 1 .736.288c.205.189.308.419.308.691s-.103.499-.308.691a1.04 1.04 0 0 1-.736.283zm6.076 8.869c-.745 0-1.392-.164-1.939-.492s-.971-.787-1.272-1.377-.448-1.279-.448-2.068.149-1.48.448-2.073.726-1.054 1.272-1.382 1.194-.492 1.939-.492 1.392.164 1.939.492a3.3 3.3 0 0 1 1.268 1.382c.302.593.453 1.284.453 2.073s-.151 1.478-.453 2.068-.721 1.049-1.268 1.377-1.193.492-1.939.492zm.01-1.442c.405 0 .743-.111 1.015-.333s.474-.527.606-.905.204-.799.204-1.263-.068-.89-.204-1.268-.335-.684-.606-.91-.61-.338-1.015-.338c-.414 0-.759.113-1.034.338s-.475.529-.611.91a3.8 3.8 0 0 0-.199 1.268c0 .464.066.885.199 1.263s.339.679.611.905.62.333 1.034.333zm6.977-3.182V81h-1.8v-7.636h1.72v1.298h.09c.175-.427.455-.767.84-1.019s.867-.378 1.437-.378c.527 0 .986.113 1.377.338s.699.552.915.979.326.946.323 1.556V81h-1.8v-4.584c0-.51-.133-.91-.398-1.198s-.624-.433-1.088-.433c-.315 0-.595.07-.841.209s-.432.333-.571.592-.204.572-.204.94z" fill="url(#B)"/><path d="M293 98l56.292 32.5v65L293 228l-56.292-32.5v-65L293 98z" fill="#fff"/><path d="M270.398 149.364v-1.546h8.123v1.546h-3.147V158h-1.829v-8.636h-3.147zm10.768 8.79c-.484 0-.92-.086-1.307-.258s-.69-.435-.915-.776-.333-.762-.333-1.263c0-.431.079-.787.238-1.069s.377-.507.652-.676.585-.296.929-.383a7.53 7.53 0 0 1 1.079-.193l1.089-.125c.278-.04.481-.099.606-.179a.42.42 0 0 0 .194-.383v-.029c0-.375-.111-.665-.333-.87s-.542-.309-.959-.309c-.441 0-.791.096-1.049.289s-.428.419-.517.681l-1.681-.239c.133-.464.352-.852.657-1.163s.677-.55 1.118-.706.928-.239 1.462-.239c.368 0 .734.043 1.099.129s.697.229.999.428a2.16 2.16 0 0 1 .726.8c.185.339.278.761.278 1.268V158h-1.73v-1.049h-.06c-.109.212-.263.411-.462.597s-.443.329-.741.442-.641.164-1.039.164zm.467-1.322c.362 0 .675-.072.94-.214s.469-.338.612-.577.218-.499.218-.78v-.9c-.056.046-.152.089-.288.129s-.282.075-.447.104l-.493.08-.422.06c-.269.036-.509.096-.721.179s-.38.199-.502.348-.184.334-.184.566c0 .332.121.582.363.751s.55.254.924.254zm5.375 1.168v-7.636h1.745v1.272h.079c.14-.44.378-.78.716-1.019s.731-.363 1.169-.363l.333.015c.126.007.23.018.313.035v1.656a1.85 1.85 0 0 0-.363-.07c-.162-.023-.32-.035-.472-.035-.329 0-.623.071-.885.214a1.56 1.56 0 0 0-.612.582c-.149.248-.224.535-.224.86V158h-1.799zm8.557 3.023c-.646 0-1.201-.088-1.665-.264s-.837-.404-1.119-.696-.477-.615-.587-.969l1.621-.393c.073.149.179.297.318.442s.327.272.562.368.539.15.9.15c.51 0 .933-.125 1.268-.373s.502-.65.502-1.213v-1.447h-.09a2.58 2.58 0 0 1-.407.572 2.11 2.11 0 0 1-.701.492c-.289.132-.652.199-1.089.199-.587 0-1.119-.138-1.596-.413s-.852-.693-1.134-1.243-.417-1.246-.417-2.078c0-.839.139-1.546.417-2.123s.662-1.019 1.139-1.317a2.92 2.92 0 0 1 1.596-.453c.447 0 .815.076 1.104.229a2.14 2.14 0 0 1 .696.542c.172.209.303.406.392.591h.1v-1.262h1.775v7.76c0 .653-.156 1.193-.468 1.621s-.737.747-1.277.96-1.154.318-1.84.318zm.015-4.544c.381 0 .706-.093.974-.279s.473-.452.612-.8.209-.766.209-1.253c0-.481-.07-.901-.209-1.263s-.338-.641-.607-.84-.591-.303-.979-.303c-.401 0-.736.104-1.004.313s-.471.495-.607.86a3.48 3.48 0 0 0-.204 1.233c0 .467.068.877.204 1.228s.343.62.612.815.605.289.999.289zm8.795 1.67c-.766 0-1.427-.159-1.984-.477s-.979-.776-1.278-1.362-.447-1.285-.447-2.083c0-.786.149-1.475.447-2.069s.723-1.06 1.263-1.392 1.175-.502 1.904-.502c.471 0 .915.076 1.333.229a3 3 0 0 1 1.113.696c.325.315.58.716.766 1.203s.278 1.061.278 1.73v.552h-6.259v-1.213h4.534c-.003-.345-.078-.651-.224-.92a1.62 1.62 0 0 0-.611-.641c-.259-.156-.56-.234-.905-.234a1.75 1.75 0 0 0-.969.269 1.84 1.84 0 0 0-.652.696c-.152.285-.23.598-.233.939v1.059c0 .444.081.826.243 1.144s.39.557.681.726.633.248 1.025.248c.261 0 .498-.036.711-.109a1.56 1.56 0 0 0 .551-.333c.156-.146.274-.327.353-.542l1.681.189a2.61 2.61 0 0 1-.607 1.163 2.97 2.97 0 0 1-1.133.766c-.461.179-.988.268-1.581.268zm8.731-7.785v1.392h-4.39v-1.392h4.39zm-3.306-1.83h1.8v7.169c0 .242.036.428.109.557s.176.212.298.258.259.07.408.07c.113 0 .215-.008.308-.025l.219-.045.303 1.407c-.096.034-.233.07-.412.11a3.32 3.32 0 0 1-.647.069c-.45.014-.856-.054-1.218-.203a1.9 1.9 0 0 1-.86-.706c-.209-.319-.311-.716-.308-1.194v-7.467zm-57.217 23.083c-.047-.434-.242-.772-.587-1.014s-.786-.363-1.332-.363c-.385 0-.715.058-.99.174s-.485.273-.631.472-.221.426-.224.681c0 .213.048.397.144.552a1.32 1.32 0 0 0 .403.398c.169.106.356.196.562.269a6.03 6.03 0 0 0 .621.183l.955.239a6.65 6.65 0 0 1 1.108.363 3.9 3.9 0 0 1 .96.577c.285.232.51.512.676.84s.249.713.249 1.153c0 .597-.153 1.122-.458 1.576s-.745.804-1.322 1.059-1.268.378-2.083.378c-.792 0-1.48-.123-2.064-.368s-1.034-.603-1.362-1.074-.5-1.044-.527-1.72h1.815c.026.355.136.65.328.885a1.74 1.74 0 0 0 .751.527 2.97 2.97 0 0 0 1.044.174c.401 0 .752-.06 1.054-.179s.543-.292.716-.507.26-.474.263-.766c-.003-.265-.081-.483-.233-.656s-.367-.321-.642-.437-.59-.226-.954-.319l-1.159-.298c-.838-.215-1.501-.542-1.988-.979s-.726-1.026-.726-1.755c0-.6.162-1.125.487-1.576s.774-.801 1.337-1.049 1.202-.378 1.914-.378c.723 0 1.356.126 1.9.378s.976.595 1.287 1.039a2.65 2.65 0 0 1 .482 1.521h-1.774zm6.859 7.532c-.766 0-1.427-.159-1.984-.477s-.979-.776-1.277-1.362-.448-1.285-.448-2.083c0-.786.149-1.475.448-2.069s.722-1.06 1.263-1.392 1.174-.502 1.904-.502c.47 0 .914.076 1.332.229s.792.381 1.114.696.58.716.765 1.203.279 1.061.279 1.73v.552h-6.26v-1.213h4.535c-.004-.345-.078-.651-.224-.92s-.35-.485-.612-.641-.56-.234-.904-.234c-.368 0-.692.09-.97.269s-.495.407-.651.696a1.99 1.99 0 0 0-.234.939v1.059c0 .444.081.826.244 1.144s.389.557.681.726.633.248 1.024.248c.262 0 .499-.036.711-.109s.396-.187.552-.333.273-.327.353-.542l1.68.189a2.62 2.62 0 0 1-.606 1.163c-.295.328-.673.583-1.134.766s-.988.268-1.581.268zm8.239 2.874c-.646 0-1.201-.088-1.665-.264s-.837-.404-1.119-.696a2.4 2.4 0 0 1-.586-.969l1.62-.393c.073.149.179.297.318.442a1.56 1.56 0 0 0 .562.368c.239.1.539.15.9.15.511 0 .933-.125 1.268-.373s.502-.65.502-1.213v-1.447h-.089c-.093.185-.229.376-.408.572s-.409.359-.701.492-.651.199-1.089.199c-.587 0-1.119-.138-1.596-.413s-.852-.693-1.133-1.243-.418-1.246-.418-2.078c0-.839.139-1.546.418-2.123s.661-1.019 1.138-1.317a2.92 2.92 0 0 1 1.596-.453c.447 0 .815.076 1.104.229a2.14 2.14 0 0 1 .696.542 3.05 3.05 0 0 1 .393.591h.099v-1.262h1.775v7.76c0 .653-.156 1.193-.468 1.621s-.737.747-1.277.96-1.154.318-1.84.318zm.015-4.544c.381 0 .706-.093.975-.279s.472-.452.611-.8.209-.766.209-1.253c0-.481-.07-.901-.209-1.263s-.338-.641-.606-.84-.592-.303-.98-.303c-.401 0-.736.104-1.004.313s-.471.495-.607.86-.203.772-.203 1.233c0 .467.068.877.203 1.228a1.81 1.81 0 0 0 .612.815c.272.193.605.289.999.289zM273.11 179v-7.636h1.72v1.297h.09a2.03 2.03 0 0 1 .79-1.024c.368-.249.807-.373 1.318-.373.517 0 .953.126 1.307.378s.61.588.756 1.019h.08c.169-.424.454-.762.855-1.014s.883-.383 1.437-.383c.702 0 1.276.222 1.72.666s.666 1.092.666 1.944V179h-1.805v-4.847c0-.474-.126-.821-.378-1.039s-.56-.333-.924-.333c-.435 0-.774.135-1.02.407-.241.269-.362.618-.362 1.049V179h-1.765v-4.922c0-.394-.12-.709-.358-.944s-.544-.353-.925-.353a1.31 1.31 0 0 0-.706.198c-.212.13-.381.314-.507.552s-.189.511-.189.826V179h-1.8zm15.945.149c-.765 0-1.426-.159-1.983-.477s-.98-.776-1.278-1.362-.447-1.285-.447-2.083c0-.786.149-1.475.447-2.069s.723-1.06 1.263-1.392 1.175-.502 1.904-.502c.471 0 .915.076 1.332.229s.792.381 1.114.696.58.716.766 1.203.278 1.061.278 1.73v.552h-6.259v-1.213h4.534c-.003-.345-.078-.651-.224-.92a1.63 1.63 0 0 0-.611-.641 1.72 1.72 0 0 0-.905-.234c-.368 0-.691.09-.97.269s-.495.407-.651.696-.23.598-.234.939v1.059c0 .444.082.826.244 1.144s.389.557.681.726.633.248 1.024.248c.262 0 .499-.036.711-.109s.396-.187.552-.333.273-.327.353-.542l1.68.189a2.62 2.62 0 0 1-.606 1.163c-.295.328-.673.583-1.134.766s-.987.268-1.581.268zm6.718-4.623V179h-1.799v-7.636h1.72v1.297h.089a2.19 2.19 0 0 1 .84-1.019c.388-.252.867-.378 1.437-.378.527 0 .986.113 1.377.338s.7.552.915.98.327.946.323 1.556V179h-1.799v-4.584c0-.51-.133-.91-.398-1.198s-.625-.432-1.089-.432c-.315 0-.595.069-.84.208s-.433.333-.572.592-.204.572-.204.94zm10.545-3.162v1.392h-4.39v-1.392h4.39zm-3.306-1.83h1.8v7.169c0 .242.036.428.109.557s.176.212.298.258.259.07.408.07c.113 0 .215-.008.308-.025l.219-.045.303 1.407c-.096.034-.233.07-.412.11s-.392.063-.647.069c-.45.014-.857-.054-1.218-.203a1.9 1.9 0 0 1-.86-.706c-.209-.319-.311-.716-.308-1.194v-7.467zm7.009 9.62c-.484 0-.92-.086-1.308-.258s-.689-.435-.915-.776-.333-.762-.333-1.263c0-.431.08-.787.239-1.069a1.85 1.85 0 0 1 .651-.676c.275-.169.585-.296.93-.383s.707-.154 1.079-.193l1.088-.125c.279-.04.481-.099.607-.179s.194-.21.194-.383v-.029c0-.375-.111-.665-.333-.87s-.542-.309-.96-.309c-.441 0-.79.096-1.049.289s-.427.419-.517.681l-1.68-.239c.132-.464.351-.852.656-1.163s.678-.55 1.119-.706.928-.239 1.461-.239c.368 0 .734.043 1.099.129s.698.229.999.428.544.462.726.8.279.761.279 1.268V179h-1.731v-1.049h-.059a2.22 2.22 0 0 1-.463.597c-.195.182-.442.329-.74.442s-.642.164-1.039.164zm.467-1.322c.361 0 .674-.072.94-.214s.469-.338.611-.577.219-.499.219-.78v-.9a.87.87 0 0 1-.289.129c-.132.04-.281.075-.447.104l-.492.08-.423.06c-.268.036-.509.096-.721.179s-.379.199-.502.348a.85.85 0 0 0-.184.566c0 .332.121.582.363.751s.55.254.925.254zm9.187-6.468v1.392h-4.389v-1.392h4.389zm-3.306-1.83h1.8v7.169c0 .242.036.428.109.557a.59.59 0 0 0 .299.258c.122.047.258.07.407.07.113 0 .216-.008.309-.025l.218-.045.304 1.407c-.096.034-.234.07-.413.11s-.391.063-.646.069c-.451.014-.857-.054-1.218-.203s-.648-.388-.86-.706-.312-.716-.309-1.194v-7.467zm4.812 9.466v-7.636h1.799V179h-1.799zm.904-8.72c-.285 0-.53-.095-.735-.284a.91.91 0 0 1-.309-.691c0-.271.103-.502.309-.691s.45-.288.735-.288.534.096.736.288a.9.9 0 0 1 .308.691.91.91 0 0 1-.308.691c-.202.189-.447.284-.736.284zm6.077 8.869c-.746 0-1.392-.164-1.939-.492s-.971-.787-1.273-1.377-.447-1.28-.447-2.068.149-1.48.447-2.074.726-1.053 1.273-1.382 1.193-.492 1.939-.492 1.392.164 1.939.492.969.789 1.268 1.382.452 1.285.452 2.074-.151 1.478-.452 2.068-.721 1.049-1.268 1.377-1.193.492-1.939.492zm.01-1.442c.404 0 .742-.111 1.014-.333s.474-.527.607-.905a3.7 3.7 0 0 0 .203-1.262c0-.468-.067-.89-.203-1.268s-.335-.685-.607-.91-.61-.338-1.014-.338c-.414 0-.759.113-1.034.338a2.04 2.04 0 0 0-.612.91c-.132.378-.199.8-.199 1.268s.067.885.199 1.262a2.04 2.04 0 0 0 .612.905c.275.222.62.333 1.034.333zm6.976-3.181V179h-1.799v-7.636h1.72v1.297h.089a2.19 2.19 0 0 1 .84-1.019c.388-.252.867-.378 1.437-.378.527 0 .986.113 1.377.338s.7.552.915.98.327.946.323 1.556V179h-1.799v-4.584c0-.51-.133-.91-.398-1.198s-.625-.432-1.089-.432c-.315 0-.595.069-.84.208s-.433.333-.572.592-.204.572-.204.94z" fill="url(#C)"/><path d="M65 98l56.292 32.5v65L65 228 8.708 195.5v-65L65 98z" fill="#fff"/><path d="M40.598 150.617c-.046-.434-.242-.772-.587-1.014s-.785-.363-1.332-.363c-.385 0-.714.058-.989.174s-.486.273-.631.472a1.15 1.15 0 0 0-.224.681c0 .213.048.397.144.552a1.31 1.31 0 0 0 .403.398 2.85 2.85 0 0 0 .562.269c.206.072.413.134.621.183l.955.239c.384.09.754.211 1.109.363s.678.345.959.577a2.56 2.56 0 0 1 .676.84c.166.328.249.713.249 1.153 0 .597-.153 1.122-.457 1.576s-.746.804-1.323 1.059-1.268.378-2.083.378c-.792 0-1.48-.123-2.063-.368s-1.034-.603-1.362-1.074-.501-1.044-.527-1.72h1.815c.027.355.136.65.328.885a1.74 1.74 0 0 0 .751.527c.311.116.659.174 1.044.174a2.86 2.86 0 0 0 1.054-.179c.305-.122.544-.292.716-.507s.26-.474.264-.766c-.003-.265-.081-.483-.234-.656s-.366-.321-.641-.437-.59-.226-.955-.319l-1.158-.298c-.839-.215-1.501-.542-1.989-.979s-.726-1.026-.726-1.755c0-.6.162-1.125.487-1.576s.774-.801 1.337-1.049 1.201-.378 1.914-.378c.723 0 1.356.126 1.899.378s.976.595 1.288 1.039.472.948.482 1.521h-1.775zm7.292-.253v1.392H43.5v-1.392h4.39zm-3.306-1.83h1.8v7.169c0 .242.036.428.109.557s.176.212.298.258a1.13 1.13 0 0 0 .408.07 1.72 1.72 0 0 0 .308-.025l.219-.045.303 1.407c-.096.034-.234.07-.413.11s-.391.063-.646.069c-.451.014-.857-.054-1.218-.203a1.9 1.9 0 0 1-.86-.706c-.209-.319-.312-.716-.308-1.194v-7.467zM49.395 158v-7.636h1.745v1.272h.08c.139-.44.378-.78.716-1.019a1.97 1.97 0 0 1 1.168-.363l.333.015c.126.007.23.018.313.035v1.656c-.076-.027-.197-.05-.363-.07a3.37 3.37 0 0 0-.472-.035c-.328 0-.623.071-.885.214a1.56 1.56 0 0 0-.611.582c-.149.248-.224.535-.224.86V158h-1.8zm7.611.154c-.484 0-.92-.086-1.308-.258a2.14 2.14 0 0 1-.915-.776c-.222-.341-.333-.762-.333-1.263 0-.431.08-.787.239-1.069a1.85 1.85 0 0 1 .651-.676 3.31 3.31 0 0 1 .93-.383 7.52 7.52 0 0 1 1.079-.193l1.089-.125c.279-.04.481-.099.607-.179s.194-.21.194-.383v-.029c0-.375-.111-.665-.333-.87s-.542-.309-.96-.309c-.441 0-.79.096-1.049.289s-.428.419-.517.681l-1.68-.239c.133-.464.351-.852.656-1.163s.678-.55 1.119-.706a4.28 4.28 0 0 1 1.462-.239 4.77 4.77 0 0 1 1.099.129c.365.087.698.229.999.428a2.15 2.15 0 0 1 .726.8c.186.339.278.761.278 1.268V158h-1.73v-1.049h-.06c-.109.212-.264.411-.462.597s-.443.329-.741.442-.641.164-1.039.164zm.467-1.322c.361 0 .674-.072.94-.214a1.58 1.58 0 0 0 .611-.577c.146-.238.219-.499.219-.78v-.9c-.056.046-.152.089-.288.129s-.282.075-.448.104l-.492.08-.423.06a3.11 3.11 0 0 0-.721.179 1.2 1.2 0 0 0-.502.348c-.123.145-.184.334-.184.566 0 .332.121.582.363.751s.55.254.925.254zm9.188-6.468v1.392h-4.39v-1.392h4.39zm-3.306-1.83h1.8v7.169c0 .242.036.428.109.557s.176.212.298.258a1.13 1.13 0 0 0 .408.07 1.72 1.72 0 0 0 .308-.025l.219-.045.303 1.407a3.84 3.84 0 0 1-.413.11c-.176.04-.391.063-.646.069-.451.014-.857-.054-1.218-.203a1.9 1.9 0 0 1-.86-.706c-.209-.319-.312-.716-.308-1.194v-7.467zm8.11 9.615c-.766 0-1.427-.159-1.984-.477s-.979-.776-1.278-1.362-.448-1.285-.448-2.083c0-.786.149-1.475.448-2.069a3.39 3.39 0 0 1 1.263-1.392c.54-.334 1.175-.502 1.904-.502.471 0 .915.076 1.332.229a3.01 3.01 0 0 1 1.114.696c.325.315.58.716.766 1.203s.278 1.061.278 1.73v.552h-6.259v-1.213h4.534c-.003-.345-.078-.651-.224-.92s-.35-.485-.612-.641-.56-.234-.905-.234c-.368 0-.691.09-.969.269a1.84 1.84 0 0 0-.651.696c-.152.285-.23.598-.234.939v1.059c0 .444.081.826.244 1.144s.389.557.681.726.633.248 1.024.248c.262 0 .499-.036.711-.109a1.57 1.57 0 0 0 .552-.333c.156-.146.273-.327.353-.542l1.68.189c-.106.444-.308.832-.607 1.163s-.673.583-1.134.766-.988.268-1.581.268zm8.239 2.874c-.646 0-1.201-.088-1.666-.264s-.837-.404-1.119-.696-.477-.615-.587-.969l1.621-.393c.073.149.179.297.318.442a1.55 1.55 0 0 0 .562.368c.239.1.539.15.9.15.51 0 .933-.125 1.268-.373s.502-.65.502-1.213v-1.447h-.089c-.093.185-.229.376-.408.572s-.409.359-.701.492-.651.199-1.089.199a3.14 3.14 0 0 1-1.596-.413c-.474-.278-.852-.693-1.133-1.243s-.418-1.246-.418-2.078c0-.839.139-1.546.418-2.123s.661-1.019 1.138-1.317 1.009-.453 1.596-.453c.447 0 .815.076 1.104.229s.524.33.696.542a3.01 3.01 0 0 1 .393.591h.099v-1.262h1.775v7.76c0 .653-.156 1.193-.467 1.621s-.737.747-1.278.96-1.153.318-1.84.318zm.015-4.544c.381 0 .706-.093.975-.279s.472-.452.611-.8.209-.766.209-1.253c0-.481-.07-.901-.209-1.263s-.338-.641-.607-.84-.592-.303-.979-.303c-.401 0-.736.104-1.004.313s-.471.495-.607.86-.204.772-.204 1.233c0 .467.068.877.204 1.228s.343.62.611.815.605.289.999.289zM85.134 158v-7.636h1.8V158h-1.8zm.905-8.72a1.05 1.05 0 0 1-.736-.284.91.91 0 0 1-.308-.691c0-.271.103-.502.308-.691a1.04 1.04 0 0 1 .736-.288 1.03 1.03 0 0 1 .736.288c.206.189.308.42.308.691a.91.91 0 0 1-.308.691 1.04 1.04 0 0 1-.736.284zm6.077 8.869c-.762 0-1.417-.167-1.964-.502s-.963-.797-1.258-1.387-.437-1.276-.437-2.048.149-1.46.447-2.054.719-1.06 1.263-1.392 1.193-.502 1.939-.502c.62 0 1.168.115 1.646.343a2.81 2.81 0 0 1 1.148.96c.285.411.447.891.487 1.442h-1.72c-.07-.368-.235-.675-.497-.92s-.605-.373-1.039-.373c-.368 0-.691.099-.969.298s-.495.477-.651.845-.229.809-.229 1.323c0 .52.076.968.229 1.342s.366.658.641.86a1.64 1.64 0 0 0 .979.299c.265 0 .502-.05.711-.15s.389-.25.532-.442.24-.426.293-.701h1.72c-.043.54-.202 1.019-.477 1.437s-.65.739-1.124.974-1.031.348-1.67.348zM36.658 179v-10.182h3.818c.782 0 1.438.146 1.969.438s.936.692 1.208 1.203.413 1.084.413 1.73c0 .653-.138 1.233-.413 1.74a2.95 2.95 0 0 1-1.218 1.198c-.537.288-1.198.433-1.984.433h-2.53v-1.517h2.282c.457 0 .832-.079 1.124-.238s.507-.378.646-.657.214-.598.214-.959-.071-.68-.214-.955-.356-.488-.651-.641-.668-.234-1.129-.234h-1.69V179h-1.844zm10.73-10.182V179h-1.8v-10.182h1.8zm4.048 10.336c-.484 0-.92-.086-1.307-.258a2.14 2.14 0 0 1-.915-.776c-.222-.341-.333-.762-.333-1.263 0-.431.08-.787.239-1.069a1.85 1.85 0 0 1 .651-.676 3.31 3.31 0 0 1 .93-.383c.348-.089.708-.154 1.079-.193l1.089-.125c.278-.04.48-.099.606-.179s.194-.21.194-.383v-.029c0-.375-.111-.665-.333-.87s-.542-.309-.959-.309c-.441 0-.791.096-1.049.289s-.428.419-.517.681l-1.68-.239c.133-.464.351-.852.656-1.163s.678-.55 1.119-.706a4.28 4.28 0 0 1 1.462-.239 4.77 4.77 0 0 1 1.099.129c.365.087.698.229.999.428a2.15 2.15 0 0 1 .726.8c.186.339.278.761.278 1.268V179h-1.73v-1.049h-.06c-.109.212-.264.411-.462.597s-.442.329-.741.442-.641.164-1.039.164zm.467-1.322c.361 0 .674-.072.94-.214a1.58 1.58 0 0 0 .611-.577c.146-.238.219-.499.219-.78v-.9a.86.86 0 0 1-.288.129c-.133.04-.282.075-.447.104l-.492.08-.423.06a3.11 3.11 0 0 0-.721.179 1.2 1.2 0 0 0-.502.348c-.123.145-.184.334-.184.566 0 .332.121.582.363.751s.55.254.925.254zm7.174-3.306V179h-1.8v-7.636h1.72v1.297h.09c.176-.427.456-.767.84-1.019s.867-.378 1.437-.378c.527 0 .986.113 1.377.338a2.28 2.28 0 0 1 .915.98c.219.427.327.946.323 1.556V179h-1.8v-4.584c0-.51-.133-.91-.398-1.198s-.625-.432-1.089-.432c-.315 0-.595.069-.84.208s-.432.333-.572.592-.204.572-.204.94zm8.531 0V179h-1.8v-7.636h1.72v1.297h.09c.176-.427.456-.767.84-1.019s.867-.378 1.437-.378c.527 0 .986.113 1.377.338a2.28 2.28 0 0 1 .915.98c.219.427.326.946.323 1.556V179h-1.8v-4.584c0-.51-.133-.91-.398-1.198s-.625-.432-1.089-.432c-.315 0-.595.069-.84.208s-.432.333-.572.592-.204.572-.204.94zM74.34 179v-7.636h1.8V179h-1.8zm.905-8.72a1.05 1.05 0 0 1-.736-.284.91.91 0 0 1-.308-.691c0-.271.103-.502.308-.691a1.04 1.04 0 0 1 .736-.288 1.03 1.03 0 0 1 .736.288c.206.189.308.42.308.691a.91.91 0 0 1-.308.691 1.04 1.04 0 0 1-.736.284zm4.545 4.246V179h-1.8v-7.636h1.72v1.297h.09c.176-.427.456-.767.84-1.019s.867-.378 1.437-.378c.527 0 .986.113 1.377.338a2.28 2.28 0 0 1 .915.98c.219.427.326.946.323 1.556V179h-1.8v-4.584c0-.51-.132-.91-.398-1.198s-.625-.432-1.089-.432c-.315 0-.595.069-.84.208s-.432.333-.572.592-.204.572-.204.94zm10.052 7.497c-.646 0-1.201-.088-1.665-.264s-.837-.404-1.119-.696-.477-.615-.587-.969l1.621-.393c.073.149.179.297.318.442a1.55 1.55 0 0 0 .562.368c.239.1.539.15.9.15.51 0 .933-.125 1.268-.373s.502-.65.502-1.213v-1.447h-.09c-.093.185-.229.376-.408.572a2.1 2.1 0 0 1-.701.492c-.288.132-.651.199-1.089.199a3.14 3.14 0 0 1-1.596-.413c-.474-.278-.852-.693-1.133-1.243s-.418-1.246-.418-2.078c0-.839.139-1.546.418-2.123s.661-1.019 1.139-1.317 1.009-.453 1.596-.453c.447 0 .815.076 1.104.229s.524.33.696.542.303.406.393.591h.1v-1.262h1.775v7.76c0 .653-.156 1.193-.467 1.621s-.737.747-1.278.96-1.153.318-1.84.318zm.015-4.544c.381 0 .706-.093.975-.279s.472-.452.611-.8.209-.766.209-1.253c0-.481-.07-.901-.209-1.263s-.338-.641-.607-.84-.592-.303-.979-.303c-.401 0-.736.104-1.004.313s-.471.495-.607.86-.204.772-.204 1.233c0 .467.068.877.204 1.228s.343.62.612.815.605.289.999.289z" fill="url(#D)"/><path d="M122 197l56.292 32.5v65L122 327l-56.292-32.5v-65L122 197z" fill="#fff"/><path d="M99.229 246.818h2.257l3.023 7.378h.119l3.023-7.378h2.257V257h-1.77v-6.995h-.094l-2.814 6.965h-1.323l-2.814-6.98h-.094V257h-1.77v-10.182zm14.805 10.336a3.19 3.19 0 0 1-1.307-.258c-.385-.176-.69-.435-.915-.776s-.333-.762-.333-1.263c0-.431.079-.787.239-1.069a1.85 1.85 0 0 1 .651-.676c.275-.169.585-.296.929-.383a7.53 7.53 0 0 1 1.079-.193l1.089-.125c.278-.04.481-.099.607-.179s.194-.21.194-.383v-.029c0-.375-.112-.665-.334-.87s-.541-.309-.959-.309c-.441 0-.791.096-1.049.289s-.428.419-.517.681l-1.681-.239c.133-.464.352-.852.657-1.163s.677-.55 1.118-.706.928-.239 1.462-.239c.368 0 .734.043 1.099.129s.697.229.999.428.544.462.726.8.278.761.278 1.268V257h-1.73v-1.049h-.06c-.109.212-.263.411-.462.597s-.442.329-.741.442-.641.164-1.039.164zm.468-1.322a1.96 1.96 0 0 0 .939-.214c.265-.146.469-.338.612-.577s.218-.499.218-.78v-.9c-.056.046-.152.089-.288.129s-.282.075-.447.104l-.492.08-.423.06c-.269.036-.509.096-.721.179s-.379.199-.502.348-.184.334-.184.566c0 .332.121.582.363.751s.55.254.925.254zm5.374 1.168v-7.636h1.745v1.272h.079c.14-.44.378-.78.716-1.019s.731-.363 1.169-.363l.333.015c.126.007.23.018.313.035v1.656a1.85 1.85 0 0 0-.363-.07c-.162-.023-.32-.035-.472-.035-.328 0-.623.071-.885.214a1.56 1.56 0 0 0-.612.582c-.149.248-.223.535-.223.86V257h-1.8zm7.191-2.396l-.005-2.173h.289l2.744-3.067h2.103l-3.376 3.758h-.373l-1.382 1.482zm-1.64 2.396v-10.182h1.799V257h-1.799zm4.792 0l-2.486-3.475 1.214-1.268 3.425 4.743h-2.153zm6.245.149c-.766 0-1.427-.159-1.984-.477a3.24 3.24 0 0 1-1.278-1.362c-.298-.59-.447-1.285-.447-2.083 0-.786.149-1.475.447-2.069s.723-1.06 1.263-1.392 1.175-.502 1.904-.502c.471 0 .915.076 1.333.229a3.01 3.01 0 0 1 1.113.696c.325.315.58.716.766 1.203s.278 1.061.278 1.73v.552H133.6v-1.213h4.534c-.003-.345-.078-.651-.224-.92a1.62 1.62 0 0 0-.611-.641c-.259-.156-.56-.234-.905-.234a1.75 1.75 0 0 0-.969.269 1.84 1.84 0 0 0-.652.696c-.152.285-.23.598-.233.939v1.059c0 .444.081.826.243 1.144s.39.557.681.726.633.248 1.024.248c.262 0 .499-.036.711-.109s.396-.187.552-.333.274-.327.353-.542l1.681.189a2.62 2.62 0 0 1-.607 1.163 2.97 2.97 0 0 1-1.133.766c-.461.179-.988.268-1.581.268zm8.731-7.785v1.392h-4.39v-1.392h4.39zm-3.306-1.83h1.8v7.169c0 .242.036.428.109.557s.176.212.298.258.259.07.408.07c.113 0 .215-.008.308-.025l.219-.045.303 1.407a3.87 3.87 0 0 1-.412.11c-.176.04-.392.063-.647.069-.451.014-.857-.054-1.218-.203a1.9 1.9 0 0 1-.86-.706c-.209-.319-.311-.716-.308-1.194v-7.467zM91.395 278v-10.182h3.818c.782 0 1.438.136 1.969.408s.936.653 1.208 1.143.413 1.056.413 1.706-.139 1.219-.418 1.7-.681.847-1.218 1.109-1.197.387-1.979.387h-2.719v-1.531h2.471c.457 0 .832-.063 1.124-.189s.507-.316.646-.562.214-.553.214-.914-.071-.67-.214-.925a1.36 1.36 0 0 0-.651-.587c-.292-.136-.668-.204-1.129-.204h-1.69V278h-1.844zm5.26-4.614L99.175 278h-2.058l-2.476-4.614h2.013zm7.037 4.763c-.766 0-1.427-.159-1.984-.477s-.979-.776-1.277-1.362-.448-1.285-.448-2.083c0-.786.149-1.475.448-2.069s.722-1.06 1.263-1.392 1.174-.502 1.904-.502c.47 0 .914.076 1.332.229s.792.381 1.114.696.58.716.765 1.203.279 1.061.279 1.73v.552h-6.26v-1.213h4.535c-.004-.345-.078-.651-.224-.92s-.35-.485-.612-.641-.56-.234-.904-.234c-.368 0-.692.09-.97.269s-.495.407-.651.696a1.99 1.99 0 0 0-.234.939v1.059c0 .444.081.826.244 1.144s.389.557.681.726.633.248 1.024.248c.262 0 .499-.036.711-.109s.396-.187.552-.333.273-.327.353-.542l1.68.189a2.62 2.62 0 0 1-.606 1.163c-.295.328-.673.583-1.134.766s-.988.268-1.581.268zm10.954-5.767l-1.641.179c-.046-.166-.127-.321-.243-.467a1.21 1.21 0 0 0-.458-.353c-.192-.09-.427-.134-.706-.134-.374 0-.689.081-.944.243s-.377.373-.373.632c-.004.222.078.402.243.541s.448.254.836.343l1.302.279c.723.156 1.26.403 1.611.741s.534.78.537 1.327a2.07 2.07 0 0 1-.423 1.273c-.275.364-.658.649-1.148.855s-1.054.308-1.691.308c-.934 0-1.687-.195-2.257-.587s-.909-.942-1.019-1.645l1.755-.169c.08.345.249.605.507.78s.595.264 1.01.264c.427 0 .77-.088 1.029-.264s.392-.392.392-.651a.68.68 0 0 0-.253-.542c-.166-.142-.424-.252-.776-.328l-1.302-.273c-.733-.153-1.275-.41-1.626-.771s-.525-.825-.522-1.382c-.003-.471.124-.878.383-1.223s.625-.617 1.089-.805 1.005-.289 1.615-.289c.895 0 1.6.191 2.113.572s.837.896.96 1.546zm5.029 5.767c-.766 0-1.427-.159-1.984-.477s-.98-.776-1.278-1.362-.447-1.285-.447-2.083c0-.786.149-1.475.447-2.069s.723-1.06 1.263-1.392 1.175-.502 1.904-.502c.471 0 .915.076 1.332.229s.793.381 1.114.696.58.716.766 1.203.278 1.061.278 1.73v.552h-6.259v-1.213h4.534c-.003-.345-.078-.651-.224-.92s-.349-.485-.611-.641-.56-.234-.905-.234c-.368 0-.691.09-.97.269s-.495.407-.651.696-.23.598-.233.939v1.059c0 .444.081.826.243 1.144s.39.557.681.726.633.248 1.024.248c.262 0 .499-.036.711-.109s.396-.187.552-.333.274-.327.353-.542l1.681.189a2.62 2.62 0 0 1-.607 1.163 2.97 2.97 0 0 1-1.133.766c-.461.179-.988.268-1.581.268zm7.115.005c-.484 0-.92-.086-1.307-.258s-.69-.435-.915-.776-.333-.762-.333-1.263c0-.431.079-.787.238-1.069s.377-.507.652-.676.585-.296.929-.383a7.53 7.53 0 0 1 1.079-.193l1.089-.125c.278-.04.481-.099.606-.179a.42.42 0 0 0 .194-.383v-.029c0-.375-.111-.665-.333-.87s-.542-.309-.959-.309c-.441 0-.791.096-1.049.289s-.428.419-.517.681l-1.681-.239c.133-.464.352-.852.657-1.163s.677-.55 1.118-.706.928-.239 1.462-.239c.368 0 .734.043 1.099.129s.697.229.999.428a2.16 2.16 0 0 1 .726.8c.185.339.278.761.278 1.268V278h-1.73v-1.049h-.06c-.109.212-.263.411-.462.597s-.443.329-.741.442-.641.164-1.039.164zm.467-1.322c.362 0 .675-.072.94-.214s.469-.338.612-.577.218-.499.218-.78v-.9c-.056.046-.152.089-.288.129s-.282.075-.447.104l-.493.08-.422.06c-.269.036-.509.096-.721.179s-.38.199-.502.348-.184.334-.184.566c0 .332.121.582.363.751s.55.254.924.254zm5.375 1.168v-7.636h1.745v1.272h.079c.14-.44.378-.78.716-1.019s.731-.363 1.169-.363l.333.015c.126.007.23.018.313.035v1.656a1.85 1.85 0 0 0-.363-.07c-.162-.023-.32-.035-.472-.035-.328 0-.623.071-.885.214a1.56 1.56 0 0 0-.612.582c-.149.248-.224.535-.224.86V278h-1.799zm8.567.149c-.762 0-1.417-.167-1.964-.502s-.963-.797-1.258-1.387-.437-1.276-.437-2.048.149-1.46.447-2.054.72-1.06 1.263-1.392 1.193-.502 1.939-.502c.62 0 1.168.115 1.646.343s.863.545 1.148.96.448.891.487 1.442h-1.72a1.64 1.64 0 0 0-.497-.92c-.259-.249-.605-.373-1.039-.373-.368 0-.691.099-.97.298s-.495.477-.651.845-.228.809-.228 1.323c0 .52.076.968.228 1.342s.366.658.642.86.604.299.979.299c.265 0 .502-.05.711-.15a1.43 1.43 0 0 0 .532-.442c.142-.192.24-.426.293-.701h1.72c-.043.54-.202 1.019-.477 1.437s-.65.739-1.124.974-1.03.348-1.67.348zm6.549-4.623V278h-1.8v-10.182h1.76v3.843h.09c.179-.431.455-.77.83-1.019s.858-.378 1.442-.378c.53 0 .992.111 1.387.333s.699.547.914.975.329.949.329 1.566V278h-1.8v-4.584c0-.514-.133-.913-.398-1.198s-.63-.432-1.104-.432a1.74 1.74 0 0 0-.855.208 1.46 1.46 0 0 0-.586.592c-.14.258-.209.572-.209.94z" fill="url(#E)"/><path d="M122 0l56.292 32.5v65L122 130 65.708 97.5v-65L122 0z" fill="#fff"/><path d="M98.831 60h-3.45V49.818h3.52c1.011 0 1.879.204 2.605.611a4.09 4.09 0 0 1 1.681 1.745c.391.759.586 1.667.586 2.724s-.197 1.972-.591 2.734a4.09 4.09 0 0 1-1.696 1.755c-.735.408-1.62.611-2.654.611zm-1.606-1.596h1.516c.709 0 1.301-.129 1.775-.388s.83-.651 1.069-1.168.358-1.17.358-1.949-.12-1.425-.358-1.939-.592-.903-1.059-1.158-1.041-.388-1.73-.388h-1.571v6.99zm11.601 1.745c-.766 0-1.427-.159-1.984-.477a3.23 3.23 0 0 1-1.277-1.362c-.299-.59-.448-1.284-.448-2.083 0-.785.149-1.475.448-2.068a3.38 3.38 0 0 1 1.262-1.392c.541-.335 1.175-.502 1.904-.502.471 0 .915.076 1.333.229s.792.381 1.113.696.58.716.766 1.203.279 1.061.279 1.73v.552h-6.26v-1.213h4.534c-.003-.345-.078-.651-.223-.92s-.35-.486-.612-.641-.56-.234-.905-.234a1.75 1.75 0 0 0-.969.268c-.279.176-.496.408-.651.696s-.231.598-.234.94v1.059c0 .444.081.825.244 1.143s.389.557.681.726.633.249 1.024.249c.262 0 .499-.036.711-.109a1.58 1.58 0 0 0 .552-.333 1.4 1.4 0 0 0 .353-.542l1.68.189c-.106.444-.308.832-.607 1.163s-.672.583-1.133.766-.988.268-1.581.268zm11.52-7.785L117.627 60h-1.989l-2.719-7.636h1.919l1.755 5.673h.079l1.76-5.673h1.914zm4.367 7.785c-.766 0-1.427-.159-1.984-.477s-.979-.776-1.278-1.362-.447-1.284-.447-2.083c0-.785.149-1.475.447-2.068s.723-1.061 1.263-1.392 1.175-.502 1.904-.502c.471 0 .915.076 1.333.229a3.01 3.01 0 0 1 1.113.696c.325.315.58.716.766 1.203s.278 1.061.278 1.73v.552h-6.259v-1.213h4.534a1.93 1.93 0 0 0-.224-.92 1.62 1.62 0 0 0-.611-.641 1.72 1.72 0 0 0-.905-.234 1.75 1.75 0 0 0-.969.268 1.85 1.85 0 0 0-.652.696c-.152.285-.23.598-.233.94v1.059c0 .444.081.825.243 1.143s.39.557.681.726.633.249 1.024.249c.262 0 .499-.036.711-.109s.396-.187.552-.333a1.38 1.38 0 0 0 .353-.542l1.681.189c-.106.444-.309.832-.607 1.163s-.673.583-1.133.766-.988.268-1.581.268zm6.717-10.331V60h-1.799V49.818h1.799zm5.182 10.331c-.746 0-1.392-.164-1.939-.492s-.971-.787-1.273-1.377-.447-1.279-.447-2.068.149-1.48.447-2.073.726-1.054 1.273-1.382 1.193-.492 1.939-.492 1.392.164 1.939.492a3.3 3.3 0 0 1 1.268 1.382c.301.593.452 1.284.452 2.073s-.151 1.478-.452 2.068-.721 1.049-1.268 1.377-1.193.492-1.939.492zm.01-1.442c.404 0 .742-.111 1.014-.333a2.01 2.01 0 0 0 .607-.905c.136-.378.204-.799.204-1.263s-.068-.89-.204-1.268-.335-.684-.607-.91-.61-.338-1.014-.338c-.414 0-.759.113-1.034.338s-.476.529-.612.91-.198.8-.198 1.268a3.81 3.81 0 0 0 .198 1.263c.136.378.34.679.612.905s.62.333 1.034.333zm5.177 4.156v-10.5h1.77v1.263h.104c.093-.186.224-.383.393-.592s.398-.393.686-.542.656-.229 1.104-.229c.59 0 1.121.151 1.595.452s.856.741 1.134 1.327.423 1.299.423 2.148c0 .838-.138 1.551-.413 2.138s-.65 1.034-1.124 1.342-1.011.462-1.61.462c-.438 0-.801-.073-1.089-.219a2.2 2.2 0 0 1-.696-.527c-.173-.209-.307-.406-.403-.592h-.075v4.067h-1.799zm1.765-6.682c0 .494.069.926.208 1.298s.347.661.612.87.593.308.974.308c.398 0 .731-.106 1-.318s.47-.509.606-.88.209-.8.209-1.278-.068-.895-.204-1.263-.338-.656-.606-.865-.604-.313-1.005-.313a1.58 1.58 0 0 0-.979.303c-.268.202-.472.486-.612.85-.135.365-.203.794-.203 1.288zM80.973 73.617c-.046-.434-.242-.772-.587-1.014s-.785-.363-1.332-.363c-.384 0-.714.058-.989.174s-.486.273-.631.472a1.15 1.15 0 0 0-.224.681 1.03 1.03 0 0 0 .144.552c.099.156.234.288.403.398s.356.196.562.269a6.07 6.07 0 0 0 .621.184l.955.239a6.58 6.58 0 0 1 1.109.363c.358.153.678.345.96.577a2.56 2.56 0 0 1 .676.84c.166.328.249.713.249 1.153 0 .597-.152 1.122-.457 1.576s-.746.804-1.323 1.059-1.268.378-2.083.378c-.792 0-1.48-.123-2.063-.368s-1.034-.603-1.362-1.074-.501-1.044-.527-1.72h1.815c.027.355.136.65.328.885s.442.411.751.527.659.174 1.044.174c.401 0 .752-.06 1.054-.179s.543-.292.716-.507.26-.474.263-.766c-.003-.265-.081-.484-.234-.656s-.366-.322-.641-.437-.59-.225-.955-.318l-1.158-.298c-.839-.215-1.502-.542-1.989-.979s-.726-1.026-.726-1.755c0-.6.162-1.125.487-1.576s.774-.8 1.337-1.049 1.201-.378 1.914-.378c.723 0 1.356.126 1.899.378s.976.595 1.288 1.039.472.948.482 1.521h-1.775zm3.479 10.246v-10.5h1.77v1.263h.104a3.32 3.32 0 0 1 .393-.592c.169-.212.398-.393.686-.542s.656-.229 1.104-.229a2.91 2.91 0 0 1 1.596.452c.477.298.855.741 1.133 1.327s.423 1.299.423 2.148c0 .838-.138 1.551-.413 2.138s-.65 1.034-1.124 1.342-1.011.462-1.611.462c-.437 0-.8-.073-1.089-.219s-.52-.322-.696-.527a3.42 3.42 0 0 1-.403-.592h-.075v4.067h-1.8zm1.765-6.682c0 .494.07.926.209 1.298s.346.661.612.87.593.308.974.308c.398 0 .731-.106.999-.318a1.96 1.96 0 0 0 .607-.88 3.65 3.65 0 0 0 .209-1.278c0-.474-.068-.895-.204-1.263s-.338-.656-.606-.865-.603-.313-1.004-.313c-.385 0-.711.101-.979.303s-.472.486-.612.85-.204.794-.204 1.288zm10.366 3.967c-.766 0-1.427-.159-1.984-.477s-.979-.776-1.278-1.362-.447-1.284-.447-2.083c0-.785.149-1.475.447-2.068s.722-1.061 1.263-1.392 1.175-.502 1.904-.502c.471 0 .915.076 1.332.229a3.01 3.01 0 0 1 1.114.696c.325.315.58.716.766 1.203s.278 1.061.278 1.73v.552h-6.259v-1.213h4.534c-.003-.345-.078-.651-.224-.92s-.35-.486-.611-.641-.56-.234-.905-.234c-.368 0-.691.09-.969.269a1.85 1.85 0 0 0-.651.696c-.152.285-.23.598-.234.94v1.059c0 .444.081.825.244 1.143s.389.557.681.726.633.249 1.024.249c.262 0 .499-.037.711-.109s.396-.187.552-.333.273-.326.353-.542l1.68.189a2.62 2.62 0 0 1-.607 1.163c-.295.328-.673.583-1.133.766s-.988.268-1.581.268zm8.249 0c-.762 0-1.417-.167-1.964-.502s-.963-.797-1.258-1.387-.437-1.276-.437-2.048.149-1.46.447-2.053.719-1.061 1.263-1.392 1.193-.502 1.939-.502c.62 0 1.168.114 1.646.343s.863.545 1.148.96.447.891.487 1.442h-1.72c-.07-.368-.235-.674-.497-.92s-.605-.373-1.039-.373c-.368 0-.691.099-.97.298s-.495.477-.651.845-.229.809-.229 1.322c0 .52.077.968.229 1.342s.366.658.641.86.605.298.98.298c.265 0 .502-.05.711-.149s.389-.25.532-.442.24-.426.293-.701h1.72c-.043.54-.202 1.019-.477 1.437s-.65.739-1.124.974-1.03.348-1.67.348zm4.749-.149v-7.636h1.8V81h-1.8zm.905-8.72a1.05 1.05 0 0 1-.736-.283c-.205-.192-.308-.422-.308-.691s.103-.502.308-.691a1.04 1.04 0 0 1 .736-.288 1.03 1.03 0 0 1 .736.288c.205.189.308.419.308.691s-.103.499-.308.691a1.04 1.04 0 0 1-.736.283zm4.943 8.874a3.19 3.19 0 0 1-1.308-.258 2.14 2.14 0 0 1-.915-.776c-.222-.341-.333-.762-.333-1.263 0-.431.08-.787.239-1.069s.376-.507.651-.676.585-.297.93-.383a7.57 7.57 0 0 1 1.079-.194l1.089-.124c.278-.04.48-.099.606-.179s.194-.21.194-.383v-.03c0-.374-.111-.664-.333-.87s-.542-.308-.96-.308c-.44 0-.79.096-1.049.288s-.427.419-.517.681l-1.68-.239c.133-.464.351-.852.656-1.163s.678-.55 1.119-.706a4.28 4.28 0 0 1 1.461-.239 4.76 4.76 0 0 1 1.099.129 3.08 3.08 0 0 1 .999.427c.302.196.544.462.726.8s.279.761.279 1.268V81h-1.73v-1.049h-.06c-.109.212-.264.411-.462.597s-.443.33-.741.442-.641.164-1.039.164zm.467-1.322c.361 0 .675-.071.94-.214s.469-.338.611-.577.219-.499.219-.781v-.9a.84.84 0 0 1-.288.129c-.133.04-.282.075-.448.104l-.492.08-.423.06a3.14 3.14 0 0 0-.72.179c-.213.083-.38.199-.503.348s-.184.335-.184.567c0 .332.121.582.363.751s.551.254.925.254zm7.174-9.013V81h-1.8V70.818h1.8zM124.921 81v-7.636h1.8V81h-1.8zm.905-8.72a1.05 1.05 0 0 1-.736-.283.91.91 0 0 1-.308-.691.9.9 0 0 1 .308-.691 1.04 1.04 0 0 1 .736-.288c.288 0 .533.096.735.288a.9.9 0 0 1 .309.691.91.91 0 0 1-.309.691c-.202.189-.447.283-.735.283zm2.646 8.72v-1.144l3.937-4.937v-.065h-3.808v-1.491h6.011v1.228l-3.749 4.852v.065h3.878V81h-6.269zm10.158.154a3.19 3.19 0 0 1-1.308-.258c-.384-.176-.689-.434-.914-.776s-.333-.762-.333-1.263c0-.431.079-.787.238-1.069s.376-.507.651-.676.585-.297.93-.383a7.57 7.57 0 0 1 1.079-.194l1.089-.124c.278-.04.48-.099.606-.179a.42.42 0 0 0 .194-.383v-.03c0-.374-.111-.664-.333-.87s-.542-.308-.959-.308c-.441 0-.791.096-1.049.288s-.428.419-.517.681l-1.681-.239c.133-.464.351-.852.656-1.163s.678-.55 1.119-.706.928-.239 1.462-.239a4.75 4.75 0 0 1 1.098.129c.365.086.698.229 1 .427a2.16 2.16 0 0 1 .726.8c.185.338.278.761.278 1.268V81h-1.73v-1.049h-.06c-.109.212-.263.411-.462.597s-.443.33-.741.442-.641.164-1.039.164zm.467-1.322c.362 0 .675-.071.94-.214s.469-.338.611-.577.219-.499.219-.781v-.9a.84.84 0 0 1-.288.129c-.133.04-.282.075-.448.104l-.492.08-.422.06c-.269.036-.509.096-.721.179s-.38.199-.502.348-.184.335-.184.567c0 .332.121.582.363.751s.55.254.924.254zm9.188-6.468v1.392h-4.39v-1.392h4.39zm-3.306-1.83h1.799v7.169c0 .242.037.428.11.557s.175.212.298.259.259.07.408.07a1.76 1.76 0 0 0 .308-.025l.219-.045.303 1.407a4.01 4.01 0 0 1-.413.109c-.175.04-.391.063-.646.07-.451.013-.857-.055-1.218-.204s-.648-.388-.86-.706-.312-.716-.308-1.193v-7.467zM149.79 81v-7.636h1.8V81h-1.8zm.905-8.72a1.05 1.05 0 0 1-.736-.283.91.91 0 0 1-.308-.691.9.9 0 0 1 .308-.691 1.04 1.04 0 0 1 .736-.288 1.03 1.03 0 0 1 .736.288c.205.189.308.419.308.691s-.103.499-.308.691a1.04 1.04 0 0 1-.736.283zm6.076 8.869c-.745 0-1.392-.164-1.939-.492s-.971-.787-1.272-1.377-.448-1.279-.448-2.068.149-1.48.448-2.073.726-1.054 1.272-1.382 1.194-.492 1.939-.492 1.392.164 1.939.492a3.3 3.3 0 0 1 1.268 1.382c.302.593.452 1.284.452 2.073s-.15 1.478-.452 2.068-.721 1.049-1.268 1.377-1.193.492-1.939.492zm.01-1.442c.405 0 .743-.111 1.014-.333a2.01 2.01 0 0 0 .607-.905c.136-.378.204-.799.204-1.263s-.068-.89-.204-1.268-.335-.684-.607-.91-.609-.338-1.014-.338c-.414 0-.759.113-1.034.338s-.475.529-.611.91a3.8 3.8 0 0 0-.199 1.268c0 .464.066.885.199 1.263s.339.679.611.905.62.333 1.034.333zm6.977-3.182V81h-1.8v-7.636h1.72v1.298h.09c.175-.427.455-.767.84-1.019s.866-.378 1.437-.378c.527 0 .986.113 1.377.338s.699.552.914.979.327.946.324 1.556V81h-1.8v-4.584c0-.51-.133-.91-.398-1.198s-.625-.433-1.089-.433c-.314 0-.595.07-.84.209s-.432.333-.572.592-.203.572-.203.94z" fill="url(#F)"/><path d="M236 197l56.292 32.5v65L236 327l-56.292-32.5v-65L236 197z" fill="#fff"/><path d="M211.291 238.617c-.047-.434-.242-.772-.587-1.014s-.786-.363-1.332-.363c-.385 0-.715.058-.99.174s-.485.273-.631.472-.221.426-.224.681c0 .213.048.397.144.552a1.32 1.32 0 0 0 .403.398c.169.106.356.196.562.269a6.03 6.03 0 0 0 .621.183l.955.239a6.65 6.65 0 0 1 1.108.363 3.9 3.9 0 0 1 .96.577c.285.232.51.512.676.84s.249.713.249 1.153c0 .597-.153 1.122-.458 1.576s-.745.804-1.322 1.059-1.268.378-2.083.378c-.792 0-1.48-.123-2.064-.368s-1.034-.603-1.362-1.074-.5-1.044-.527-1.72h1.815c.026.355.136.65.328.885a1.74 1.74 0 0 0 .751.527 2.97 2.97 0 0 0 1.044.174c.401 0 .752-.06 1.054-.179s.543-.292.716-.507.26-.474.263-.766c-.003-.265-.081-.483-.233-.656s-.367-.321-.642-.437-.59-.226-.954-.319l-1.159-.298c-.838-.215-1.501-.542-1.988-.979s-.726-1.026-.726-1.755c0-.6.162-1.125.487-1.576s.774-.801 1.337-1.049 1.202-.378 1.914-.378c.723 0 1.356.126 1.9.378s.976.595 1.287 1.039a2.65 2.65 0 0 1 .482 1.521h-1.774zm6.859 7.532c-.766 0-1.427-.159-1.984-.477s-.979-.776-1.277-1.362-.448-1.285-.448-2.083c0-.786.149-1.475.448-2.069s.722-1.06 1.263-1.392 1.174-.502 1.904-.502c.47 0 .914.076 1.332.229s.792.381 1.114.696.58.716.765 1.203.279 1.061.279 1.73v.552h-6.26v-1.213h4.535c-.004-.345-.078-.651-.224-.92s-.35-.485-.612-.641-.56-.234-.904-.234c-.368 0-.692.09-.97.269s-.495.407-.651.696a1.99 1.99 0 0 0-.234.939v1.059c0 .444.081.826.244 1.144s.389.557.681.726.633.248 1.024.248c.262 0 .499-.036.711-.109s.396-.187.552-.333.273-.327.353-.542l1.68.189a2.62 2.62 0 0 1-.606 1.163c-.295.328-.673.583-1.134.766s-.988.268-1.581.268zm6.718-10.331V246h-1.8v-10.182h1.8zm5.231 10.331c-.765 0-1.427-.159-1.983-.477s-.98-.776-1.278-1.362-.447-1.285-.447-2.083c0-.786.149-1.475.447-2.069s.723-1.06 1.263-1.392 1.175-.502 1.904-.502c.471 0 .915.076 1.332.229s.792.381 1.114.696.58.716.766 1.203.278 1.061.278 1.73v.552h-6.259v-1.213h4.534c-.004-.345-.078-.651-.224-.92a1.63 1.63 0 0 0-.611-.641 1.72 1.72 0 0 0-.905-.234c-.368 0-.691.09-.97.269s-.495.407-.651.696-.23.598-.234.939v1.059c0 .444.082.826.244 1.144s.389.557.681.726.633.248 1.024.248c.262 0 .499-.036.711-.109s.396-.187.552-.333.273-.327.353-.542l1.68.189a2.62 2.62 0 0 1-.606 1.163c-.295.328-.673.583-1.134.766s-.987.268-1.581.268zm8.249 0c-.762 0-1.416-.167-1.963-.502a3.35 3.35 0 0 1-1.258-1.387c-.292-.593-.438-1.276-.438-2.048s.15-1.46.448-2.054.719-1.06 1.263-1.392 1.193-.502 1.939-.502c.619 0 1.168.115 1.645.343a2.81 2.81 0 0 1 1.149.96c.285.411.447.891.487 1.442h-1.72c-.07-.368-.236-.675-.498-.92s-.604-.373-1.039-.373a1.62 1.62 0 0 0-.969.298c-.278.196-.496.477-.651.845s-.229.809-.229 1.323c0 .52.076.968.229 1.342s.366.658.641.86a1.64 1.64 0 0 0 .979.299 1.62 1.62 0 0 0 .711-.15 1.42 1.42 0 0 0 .532-.442c.143-.192.241-.426.294-.701h1.72c-.043.54-.202 1.019-.478 1.437s-.649.739-1.123.974-1.031.348-1.671.348zm8.563-7.785v1.392h-4.39v-1.392h4.39zm-3.306-1.83h1.799v7.169c0 .242.037.428.11.557s.175.212.298.258.259.07.408.07c.112 0 .215-.008.308-.025l.219-.045.303 1.407c-.096.034-.234.07-.413.11s-.391.063-.646.069c-.451.014-.857-.054-1.218-.203a1.9 1.9 0 0 1-.86-.706c-.209-.319-.312-.716-.308-1.194v-7.467zm4.811 9.466v-7.636h1.8V246h-1.8zm.905-8.72a1.05 1.05 0 0 1-.736-.284.91.91 0 0 1-.308-.691.9.9 0 0 1 .308-.691 1.04 1.04 0 0 1 .736-.288 1.03 1.03 0 0 1 .736.288c.205.189.308.42.308.691s-.103.499-.308.691a1.04 1.04 0 0 1-.736.284zm9.566 1.084L256.168 246h-1.989l-2.719-7.636h1.919l1.755 5.672h.079l1.76-5.672h1.914zm4.367 7.785c-.766 0-1.427-.159-1.984-.477a3.24 3.24 0 0 1-1.278-1.362c-.298-.59-.447-1.285-.447-2.083 0-.786.149-1.475.447-2.069s.723-1.06 1.263-1.392 1.175-.502 1.904-.502c.471 0 .915.076 1.333.229a3.01 3.01 0 0 1 1.113.696c.325.315.58.716.766 1.203s.278 1.061.278 1.73v.552h-6.259v-1.213h4.534c-.003-.345-.078-.651-.224-.92a1.62 1.62 0 0 0-.611-.641c-.259-.156-.56-.234-.905-.234a1.75 1.75 0 0 0-.969.269 1.84 1.84 0 0 0-.652.696c-.152.285-.23.598-.233.939v1.059c0 .444.081.826.243 1.144s.39.557.681.726.633.248 1.024.248c.262 0 .499-.036.711-.109s.397-.187.552-.333.274-.327.353-.542l1.681.189a2.62 2.62 0 0 1-.607 1.163 2.97 2.97 0 0 1-1.133.766c-.461.179-.988.268-1.581.268zm-66.111 14.105h-1.859a2.33 2.33 0 0 0-.293-.811c-.143-.238-.32-.441-.532-.606a2.21 2.21 0 0 0-.726-.373 2.84 2.84 0 0 0-.87-.129 2.64 2.64 0 0 0-1.472.417c-.427.275-.762.68-1.004 1.213s-.363 1.178-.363 1.944c0 .779.121 1.435.363 1.969s.58.931 1.004 1.203.917.403 1.467.403c.305 0 .59-.04.855-.12a2.33 2.33 0 0 0 .721-.363 2.14 2.14 0 0 0 .542-.586 2.21 2.21 0 0 0 .308-.796l1.859.01c-.069.484-.22.938-.452 1.362a4.02 4.02 0 0 1-.9 1.124c-.371.322-.805.573-1.303.756s-1.049.268-1.655.268c-.895 0-1.694-.207-2.396-.621s-1.257-1.013-1.661-1.795-.606-1.72-.606-2.814.203-2.035.611-2.814.963-1.38 1.666-1.795 1.498-.621 2.386-.621c.567 0 1.094.08 1.581.239a4.03 4.03 0 0 1 1.302.701c.382.305.695.679.94 1.123s.411.945.487 1.512zm4.941 6.895c-.746 0-1.392-.164-1.939-.492s-.971-.787-1.273-1.377-.447-1.28-.447-2.068.149-1.48.447-2.074.726-1.053 1.273-1.382 1.193-.492 1.939-.492 1.392.164 1.939.492.969.789 1.267 1.382.453 1.285.453 2.074-.151 1.478-.453 2.068-.72 1.049-1.267 1.377-1.193.492-1.939.492zm.01-1.442c.404 0 .742-.111 1.014-.333s.474-.527.606-.905a3.7 3.7 0 0 0 .204-1.262c0-.468-.068-.89-.204-1.268s-.334-.685-.606-.91-.61-.338-1.014-.338c-.415 0-.759.113-1.034.338a2.04 2.04 0 0 0-.612.91c-.132.378-.199.8-.199 1.268s.067.885.199 1.262a2.04 2.04 0 0 0 .612.905c.275.222.619.333 1.034.333zm6.976-3.181V267h-1.8v-7.636h1.721v1.297h.089a2.19 2.19 0 0 1 .84-1.019c.388-.252.867-.378 1.437-.378.527 0 .986.113 1.377.338s.7.552.915.98.326.946.323 1.556V267h-1.8v-4.584c0-.51-.132-.91-.397-1.198s-.625-.432-1.089-.432c-.315 0-.595.069-.84.208s-.433.333-.572.592-.204.572-.204.94zm10.063 4.623c-.763 0-1.417-.167-1.964-.502a3.35 3.35 0 0 1-1.258-1.387c-.292-.593-.437-1.276-.437-2.048s.149-1.46.447-2.054.719-1.06 1.263-1.392 1.193-.502 1.939-.502c.619 0 1.168.115 1.645.343a2.81 2.81 0 0 1 1.149.96c.285.411.447.891.487 1.442h-1.72a1.65 1.65 0 0 0-.497-.92c-.259-.249-.605-.373-1.039-.373-.368 0-.692.099-.97.298s-.495.477-.651.845-.229.809-.229 1.323c0 .52.076.968.229 1.342s.366.658.641.86.605.299.98.299a1.62 1.62 0 0 0 .71-.15c.213-.102.39-.25.532-.442s.241-.426.294-.701h1.72c-.043.54-.202 1.019-.477 1.437s-.65.739-1.124.974-1.031.348-1.67.348zm8.129 0c-.765 0-1.426-.159-1.983-.477s-.98-.776-1.278-1.362-.447-1.285-.447-2.083c0-.786.149-1.475.447-2.069s.723-1.06 1.263-1.392 1.175-.502 1.904-.502c.471 0 .915.076 1.332.229s.792.381 1.114.696.58.716.766 1.203.278 1.061.278 1.73v.552h-6.259v-1.213h4.534c-.003-.345-.078-.651-.224-.92a1.63 1.63 0 0 0-.611-.641c-.259-.156-.56-.234-.905-.234-.368 0-.691.09-.97.269s-.495.407-.651.696-.23.598-.234.939v1.059c0 .444.082.826.244 1.144s.389.557.681.726.633.248 1.024.248c.262 0 .499-.036.711-.109s.396-.187.552-.333.274-.327.353-.542l1.68.189a2.62 2.62 0 0 1-.606 1.163c-.295.328-.673.583-1.134.766s-.987.268-1.581.268zm6.718-4.623V267h-1.799v-7.636h1.72v1.297h.089a2.19 2.19 0 0 1 .84-1.019c.388-.252.867-.378 1.437-.378.527 0 .986.113 1.377.338s.7.552.915.98.327.946.323 1.556V267h-1.799v-4.584c0-.51-.133-.91-.398-1.198s-.625-.432-1.089-.432c-.315 0-.595.069-.84.208s-.433.333-.572.592-.204.572-.204.94zm10.545-3.162v1.392h-4.39v-1.392h4.39zm-3.306-1.83h1.8v7.169c0 .242.036.428.109.557s.176.212.298.258.259.07.408.07c.113 0 .215-.008.308-.025l.219-.045.303 1.407c-.096.034-.233.07-.412.11s-.392.063-.647.069c-.45.014-.856-.054-1.218-.203a1.9 1.9 0 0 1-.86-.706c-.209-.319-.311-.716-.308-1.194v-7.467zM246.03 267v-7.636h1.745v1.272h.08c.139-.44.378-.78.716-1.019s.73-.363 1.168-.363l.333.015c.126.007.23.018.313.035v1.656a1.85 1.85 0 0 0-.363-.07c-.162-.023-.319-.035-.472-.035-.328 0-.623.071-.885.214a1.56 1.56 0 0 0-.611.582c-.15.248-.224.535-.224.86V267h-1.8zm7.612.154c-.484 0-.92-.086-1.308-.258s-.689-.435-.915-.776-.333-.762-.333-1.263c0-.431.08-.787.239-1.069a1.85 1.85 0 0 1 .651-.676c.275-.169.585-.296.93-.383a7.53 7.53 0 0 1 1.079-.193l1.089-.125c.278-.04.48-.099.606-.179s.194-.21.194-.383v-.029c0-.375-.111-.665-.333-.87s-.542-.309-.96-.309c-.44 0-.79.096-1.049.289s-.427.419-.517.681l-1.68-.239c.132-.464.351-.852.656-1.163s.678-.55 1.119-.706a4.28 4.28 0 0 1 1.461-.239 4.77 4.77 0 0 1 1.099.129c.365.087.698.229.999.428s.544.462.726.8.279.761.279 1.268V267h-1.73v-1.049h-.06c-.109.212-.264.411-.462.597s-.443.329-.741.442-.642.164-1.039.164zm.467-1.322c.361 0 .674-.072.94-.214s.469-.338.611-.577.219-.499.219-.78v-.9c-.056.046-.153.089-.288.129s-.282.075-.448.104l-.492.08-.423.06a3.13 3.13 0 0 0-.721.179c-.212.083-.379.199-.502.348a.85.85 0 0 0-.184.566c0 .332.121.582.363.751s.55.254.925.254zm9.188-6.468v1.392h-4.39v-1.392h4.39zm-3.307-1.83h1.8v7.169c0 .242.037.428.11.557s.175.212.298.258.258.07.407.07c.113 0 .216-.008.309-.025l.218-.045.304 1.407c-.096.034-.234.07-.413.11s-.391.063-.646.069c-.451.014-.857-.054-1.218-.203s-.648-.388-.86-.706-.312-.716-.309-1.194v-7.467zm4.812 9.466v-7.636h1.799V267h-1.799zm.904-8.72c-.285 0-.53-.095-.735-.284a.91.91 0 0 1-.309-.691c0-.271.103-.502.309-.691s.45-.288.735-.288.534.096.736.288.309.42.309.691a.91.91 0 0 1-.309.691c-.202.189-.447.284-.736.284zm6.077 8.869c-.746 0-1.392-.164-1.939-.492s-.971-.787-1.273-1.377-.447-1.28-.447-2.068.149-1.48.447-2.074.726-1.053 1.273-1.382 1.193-.492 1.939-.492 1.392.164 1.939.492.969.789 1.268 1.382.452 1.285.452 2.074-.151 1.478-.452 2.068-.721 1.049-1.268 1.377-1.193.492-1.939.492zm.01-1.442c.404 0 .742-.111 1.014-.333s.474-.527.607-.905a3.7 3.7 0 0 0 .204-1.262c0-.468-.068-.89-.204-1.268s-.335-.685-.607-.91-.61-.338-1.014-.338c-.414 0-.759.113-1.034.338a2.04 2.04 0 0 0-.612.91c-.132.378-.198.8-.198 1.268s.066.885.198 1.262a2.04 2.04 0 0 0 .612.905c.275.222.62.333 1.034.333zm6.976-3.181V267h-1.799v-7.636h1.72v1.297h.089a2.19 2.19 0 0 1 .84-1.019c.388-.252.867-.378 1.437-.378.527 0 .986.113 1.377.338s.7.552.915.98.327.946.323 1.556V267h-1.799v-4.584c0-.51-.133-.91-.398-1.198s-.625-.432-1.089-.432c-.315 0-.595.069-.84.208s-.433.333-.572.592-.204.572-.204.94z" fill="url(#G)"/><defs><linearGradient id="A" x1="114" y1="164.757" x2="244" y2="164.757" xlink:href="#H"><stop stop-color="#00469f"/><stop offset="1" stop-color="#1e79d6"/></linearGradient><linearGradient id="B" x1="187" y1="65.568" x2="285" y2="65.568" xlink:href="#H"><stop stop-color="#00469f"/><stop offset="1" stop-color="#1e79d6"/></linearGradient><linearGradient id="C" x1="246" y1="163.568" x2="341" y2="163.568" xlink:href="#H"><stop stop-color="#00469f"/><stop offset="1" stop-color="#1e79d6"/></linearGradient><linearGradient id="D" x1="34" y1="163.568" x2="96" y2="163.568" xlink:href="#H"><stop stop-color="#00469f"/><stop offset="1" stop-color="#1e79d6"/></linearGradient><linearGradient id="E" x1="90" y1="262.568" x2="154" y2="262.568" xlink:href="#H"><stop stop-color="#00469f"/><stop offset="1" stop-color="#1e79d6"/></linearGradient><linearGradient id="F" x1="74" y1="65.568" x2="170" y2="65.568" xlink:href="#H"><stop stop-color="#00469f"/><stop offset="1" stop-color="#1e79d6"/></linearGradient><linearGradient id="G" x1="187" y1="251.568" x2="285" y2="251.568" xlink:href="#H"><stop stop-color="#00469f"/><stop offset="1" stop-color="#1e79d6"/></linearGradient><linearGradient id="H" gradientUnits="userSpaceOnUse"/></defs></svg>