<svg width="692" height="478" viewBox="0 0 692 478" fill="none" xmlns="http://www.w3.org/2000/svg">
<path d="M600.656 246.563V291.858" stroke="#638CC6" stroke-width="2" stroke-miterlimit="10"/>
<path d="M103.801 246.563V291.858" stroke="#638CC6" stroke-width="2" stroke-miterlimit="10"/>
<path d="M98.1133 252.016L103.802 242.168L109.491 252.016H98.1133Z" fill="#638CC6"/>
<path d="M109.491 286.934L103.802 296.782L98.1133 286.934H109.491Z" fill="#638CC6"/>
<path d="M362.254 122.007V104.695H513.376" stroke="#638CC6" stroke-width="2" stroke-miterlimit="10"/>
<path d="M508.449 98.5625L518.302 104.249L508.449 109.935V98.5625Z" fill="#638CC6"/>
<path d="M367.944 117.083L362.256 126.932L356.566 117.083H367.944Z" fill="#638CC6"/>
<path d="M267.177 373.044H191.441" stroke="#638CC6" stroke-width="2" stroke-miterlimit="10"/>
<path d="M262.25 367.357L272.104 373.044L262.25 378.729V367.357Z" fill="#638CC6"/>
<path d="M196.37 378.729L186.516 373.044L196.37 367.357V378.729Z" fill="#638CC6"/>
<path d="M675.069 121.571C684.251 81.7709 659.412 42.067 619.589 32.8904C579.767 23.7138 540.041 48.5394 530.859 88.34C521.678 128.141 546.517 167.844 586.339 177.021C626.162 186.198 665.888 161.372 675.069 121.571Z" fill="url(#paint0_linear_393_3422)"/>
<path d="M602.963 167.99C637.795 167.99 666.032 139.769 666.032 104.956C666.032 70.1431 637.795 41.9219 602.963 41.9219C568.131 41.9219 539.895 70.1431 539.895 104.956C539.895 139.769 568.131 167.99 602.963 167.99Z" fill="white"/>
<path d="M565.526 117.286H640.399C641.27 117.286 642.105 117.631 642.721 118.247C643.336 118.862 643.682 119.697 643.682 120.567V133.167C643.682 133.598 643.597 134.024 643.432 134.422C643.267 134.821 643.026 135.182 642.721 135.487C642.416 135.792 642.054 136.033 641.655 136.198C641.257 136.363 640.83 136.448 640.399 136.448H565.526C565.094 136.448 564.667 136.363 564.269 136.198C563.871 136.033 563.509 135.792 563.204 135.487C562.899 135.182 562.657 134.821 562.492 134.422C562.327 134.024 562.242 133.598 562.242 133.167V120.567C562.242 119.697 562.588 118.862 563.204 118.247C563.82 117.631 564.655 117.286 565.526 117.286Z" fill="url(#paint1_linear_393_3422)"/>
<path d="M568.522 121.548H573.098C573.509 121.548 573.902 121.711 574.193 122.001C574.483 122.292 574.647 122.685 574.647 123.096V130.638C574.647 131.048 574.483 131.442 574.193 131.732C573.902 132.023 573.509 132.186 573.098 132.186H568.522C568.111 132.186 567.717 132.023 567.426 131.732C567.136 131.442 566.973 131.048 566.973 130.638V123.096C566.973 122.893 567.013 122.691 567.091 122.504C567.168 122.316 567.282 122.145 567.426 122.001C567.57 121.858 567.741 121.743 567.929 121.666C568.117 121.588 568.318 121.548 568.522 121.548Z" fill="url(#paint2_linear_393_3422)"/>
<path d="M578.276 121.548H582.852C583.262 121.548 583.656 121.711 583.947 122.001C584.237 122.292 584.4 122.685 584.4 123.096V130.638C584.4 131.048 584.237 131.442 583.947 131.732C583.656 132.023 583.262 132.186 582.852 132.186H578.275C577.865 132.186 577.471 132.023 577.18 131.732C576.89 131.442 576.727 131.048 576.727 130.638V123.096C576.727 122.893 576.767 122.691 576.844 122.504C576.922 122.316 577.036 122.145 577.18 122.001C577.324 121.858 577.495 121.743 577.683 121.666C577.871 121.588 578.072 121.548 578.276 121.548Z" fill="url(#paint3_linear_393_3422)"/>
<path d="M588.033 121.548H613.28C613.484 121.548 613.685 121.588 613.873 121.666C614.061 121.744 614.232 121.858 614.375 122.001C614.519 122.145 614.633 122.316 614.711 122.504C614.789 122.691 614.829 122.893 614.829 123.096V130.638C614.829 130.841 614.789 131.042 614.711 131.23C614.633 131.418 614.519 131.589 614.376 131.732C614.232 131.876 614.061 131.99 613.873 132.068C613.685 132.146 613.484 132.186 613.28 132.186H588.033C587.622 132.186 587.229 132.023 586.938 131.732C586.648 131.442 586.484 131.048 586.484 130.638V123.096C586.484 122.893 586.524 122.691 586.602 122.504C586.68 122.316 586.794 122.145 586.938 122.001C587.082 121.858 587.253 121.743 587.441 121.666C587.629 121.588 587.83 121.548 588.033 121.548Z" fill="white"/>
<path d="M606.045 129.618C607.556 129.618 608.782 128.394 608.782 126.883C608.782 125.373 607.556 124.148 606.045 124.148C604.534 124.148 603.309 125.373 603.309 126.883C603.309 128.394 604.534 129.618 606.045 129.618Z" fill="url(#paint4_linear_393_3422)"/>
<path d="M630.504 126.883C630.504 127.424 630.344 127.953 630.043 128.403C629.742 128.853 629.315 129.203 628.815 129.41C628.315 129.617 627.765 129.671 627.234 129.566C626.703 129.46 626.216 129.2 625.833 128.817C625.45 128.435 625.189 127.948 625.084 127.417C624.978 126.887 625.032 126.337 625.24 125.837C625.447 125.337 625.797 124.91 626.247 124.609C626.697 124.309 627.226 124.148 627.768 124.148C628.493 124.148 629.189 124.437 629.703 124.95C630.216 125.462 630.504 126.158 630.504 126.883Z" fill="white"/>
<path d="M632.986 125.678H638.081C638.313 125.678 638.535 125.77 638.699 125.933C638.863 126.097 638.955 126.319 638.955 126.55V127.183C638.955 127.298 638.932 127.411 638.888 127.517C638.844 127.623 638.78 127.719 638.699 127.8C638.618 127.881 638.521 127.946 638.415 127.99C638.309 128.033 638.196 128.056 638.081 128.056H632.987C632.872 128.056 632.758 128.033 632.652 127.99C632.546 127.946 632.45 127.881 632.369 127.8C632.288 127.719 632.224 127.623 632.18 127.517C632.136 127.411 632.113 127.298 632.113 127.183V126.55C632.113 126.319 632.205 126.097 632.369 125.933C632.533 125.77 632.755 125.678 632.986 125.678Z" fill="url(#paint5_linear_393_3422)"/>
<path d="M577.652 136.448H570.809V138.728H577.652V136.448Z" fill="url(#paint6_linear_393_3422)"/>
<path d="M635.535 136.448H628.691V138.728H635.535V136.448Z" fill="url(#paint7_linear_393_3422)"/>
<path d="M565.525 95.8433H640.399C641.27 95.8433 642.105 96.189 642.721 96.8044C643.336 97.4199 643.682 98.2546 643.682 99.1249V111.724C643.682 112.155 643.597 112.582 643.432 112.98C643.267 113.378 643.026 113.74 642.721 114.045C642.416 114.35 642.054 114.591 641.655 114.756C641.257 114.921 640.83 115.006 640.399 115.006H565.526C565.094 115.006 564.667 114.921 564.269 114.756C563.871 114.591 563.509 114.35 563.204 114.045C562.899 113.74 562.657 113.378 562.492 112.98C562.327 112.582 562.242 112.155 562.242 111.724V99.1247C562.242 98.6937 562.327 98.267 562.492 97.8689C562.657 97.4708 562.899 97.1091 563.204 96.8044C563.509 96.4997 563.871 96.2579 564.269 96.093C564.667 95.9281 565.094 95.8433 565.525 95.8433Z" fill="url(#paint8_linear_393_3422)"/>
<path d="M573.098 100.106H568.522C567.666 100.106 566.973 100.799 566.973 101.654V109.196C566.973 110.051 567.666 110.744 568.522 110.744H573.098C573.953 110.744 574.647 110.051 574.647 109.196V101.654C574.647 100.799 573.953 100.106 573.098 100.106Z" fill="white"/>
<path d="M578.276 100.106H582.852C583.262 100.106 583.656 100.269 583.947 100.559C584.237 100.85 584.4 101.243 584.4 101.654V109.196C584.4 109.606 584.237 110 583.947 110.29C583.656 110.581 583.262 110.744 582.852 110.744H578.275C577.865 110.744 577.471 110.581 577.18 110.29C576.89 110 576.727 109.606 576.727 109.196V101.654C576.727 101.244 576.89 100.85 577.18 100.559C577.471 100.269 577.865 100.106 578.276 100.106Z" fill="white"/>
<path d="M588.033 100.106H613.28C613.484 100.106 613.685 100.146 613.873 100.224C614.061 100.302 614.232 100.416 614.375 100.559C614.519 100.703 614.633 100.874 614.711 101.062C614.789 101.25 614.829 101.451 614.829 101.654V109.196C614.829 109.606 614.666 110 614.376 110.29C614.085 110.581 613.691 110.744 613.28 110.744H588.033C587.622 110.744 587.229 110.581 586.938 110.29C586.648 110 586.484 109.606 586.484 109.196V101.654C586.484 101.244 586.648 100.85 586.938 100.559C587.229 100.269 587.623 100.106 588.033 100.106Z" fill="white"/>
<path d="M623.039 105.441C623.04 105.982 622.879 106.511 622.578 106.96C622.278 107.41 621.85 107.761 621.35 107.968C620.85 108.175 620.3 108.229 619.769 108.124C619.238 108.018 618.751 107.758 618.368 107.375C617.985 106.993 617.725 106.505 617.619 105.975C617.513 105.444 617.568 104.894 617.775 104.394C617.982 103.895 618.333 103.468 618.783 103.167C619.233 102.866 619.762 102.706 620.303 102.706C620.662 102.706 621.018 102.777 621.35 102.914C621.682 103.052 621.984 103.253 622.238 103.507C622.492 103.761 622.694 104.062 622.831 104.394C622.969 104.726 623.039 105.082 623.039 105.441Z" fill="url(#paint9_linear_393_3422)"/>
<path d="M630.504 105.441C630.504 105.982 630.344 106.511 630.043 106.96C629.743 107.41 629.315 107.761 628.815 107.968C628.315 108.175 627.765 108.229 627.234 108.124C626.703 108.018 626.216 107.758 625.833 107.375C625.45 106.993 625.189 106.505 625.084 105.975C624.978 105.444 625.032 104.894 625.24 104.395C625.447 103.895 625.797 103.468 626.247 103.167C626.697 102.867 627.226 102.706 627.768 102.706C628.493 102.706 629.189 102.994 629.703 103.507C630.216 104.02 630.504 104.716 630.504 105.441Z" fill="url(#paint10_linear_393_3422)"/>
<path d="M632.986 104.236H638.081C638.313 104.236 638.535 104.328 638.699 104.491C638.863 104.655 638.955 104.877 638.955 105.109V105.741C638.955 105.973 638.863 106.195 638.699 106.358C638.535 106.522 638.313 106.614 638.081 106.614H632.986C632.755 106.614 632.533 106.522 632.369 106.358C632.205 106.195 632.113 105.973 632.113 105.741V105.109C632.113 104.877 632.205 104.655 632.369 104.491C632.533 104.328 632.755 104.236 632.986 104.236Z" fill="white"/>
<path d="M577.652 115.006H570.809V117.285H577.652V115.006Z" fill="url(#paint11_linear_393_3422)"/>
<path d="M635.535 115.006H628.691V117.285H635.535V115.006Z" fill="url(#paint12_linear_393_3422)"/>
<path d="M565.525 74.4014H640.399C641.27 74.4014 642.105 74.7471 642.721 75.3625C643.336 75.978 643.682 76.8127 643.682 77.683V90.2824C643.682 91.1527 643.336 91.9874 642.721 92.6028C642.105 93.2182 641.27 93.5639 640.399 93.5639H565.526C564.655 93.5639 563.82 93.2182 563.204 92.6028C562.588 91.9874 562.242 91.1527 562.242 90.2824V77.6828C562.242 77.2518 562.327 76.8251 562.492 76.427C562.657 76.0289 562.899 75.6672 563.204 75.3625C563.509 75.0578 563.871 74.816 564.269 74.6511C564.667 74.4862 565.094 74.4014 565.525 74.4014Z" fill="url(#paint13_linear_393_3422)"/>
<path d="M573.098 78.6636H568.522C567.666 78.6636 566.973 79.3567 566.973 80.2116V87.7534C566.973 88.6084 567.666 89.3015 568.522 89.3015H573.098C573.953 89.3015 574.647 88.6084 574.647 87.7534V80.2116C574.647 79.3567 573.953 78.6636 573.098 78.6636Z" fill="url(#paint14_linear_393_3422)"/>
<path d="M578.276 78.6636H582.852C583.262 78.6636 583.656 78.8267 583.947 79.117C584.237 79.4073 584.4 79.801 584.4 80.2116V87.7534C584.4 88.164 584.237 88.5577 583.947 88.848C583.656 89.1384 583.262 89.3015 582.852 89.3015H578.275C577.865 89.3015 577.471 89.1384 577.18 88.848C576.89 88.5577 576.727 88.164 576.727 87.7534V80.2117C576.727 79.8011 576.89 79.4074 577.18 79.117C577.471 78.8267 577.865 78.6636 578.276 78.6636Z" fill="white"/>
<path d="M588.033 78.6636H613.28C613.484 78.6636 613.685 78.7036 613.873 78.7814C614.061 78.8592 614.232 78.9733 614.375 79.1171C614.519 79.2608 614.633 79.4315 614.711 79.6193C614.789 79.8072 614.829 80.0085 614.829 80.2118V87.7534C614.829 88.164 614.666 88.5577 614.376 88.848C614.085 89.1384 613.691 89.3015 613.28 89.3015H588.033C587.622 89.3015 587.229 89.1384 586.938 88.848C586.648 88.5577 586.484 88.164 586.484 87.7534V80.2117C586.484 79.8011 586.648 79.4074 586.938 79.117C587.229 78.8267 587.623 78.6636 588.033 78.6636Z" fill="white"/>
<path d="M620.303 86.7337C621.814 86.7337 623.039 85.5092 623.039 83.9987C623.039 82.4882 621.814 81.2637 620.303 81.2637C618.792 81.2637 617.566 82.4882 617.566 83.9987C617.566 85.5092 618.792 86.7337 620.303 86.7337Z" fill="white"/>
<path d="M630.504 83.9987C630.504 84.5396 630.344 85.0684 630.043 85.5181C629.742 85.9679 629.315 86.3185 628.815 86.5255C628.315 86.7325 627.765 86.7867 627.234 86.6811C626.703 86.5756 626.216 86.3151 625.833 85.9327C625.45 85.5502 625.189 85.0629 625.084 84.5323C624.978 84.0018 625.032 83.4519 625.24 82.9521C625.447 82.4524 625.797 82.0252 626.247 81.7247C626.697 81.4241 627.226 81.2637 627.768 81.2637C628.493 81.2637 629.19 81.5518 629.703 82.0647C630.216 82.5777 630.504 83.2733 630.504 83.9987Z" fill="url(#paint15_linear_393_3422)"/>
<path d="M632.986 82.7935H638.081C638.313 82.7935 638.535 82.8854 638.699 83.0491C638.863 83.2127 638.955 83.4347 638.955 83.6662V84.2989C638.955 84.5303 638.863 84.7523 638.699 84.9159C638.535 85.0796 638.313 85.1715 638.081 85.1715H632.986C632.755 85.1715 632.533 85.0795 632.369 84.9159C632.205 84.7522 632.113 84.5302 632.113 84.2988V83.6662C632.113 83.4347 632.205 83.2127 632.369 83.0491C632.533 82.8854 632.755 82.7935 632.986 82.7935Z" fill="white"/>
<path d="M577.652 93.5635H570.809V95.8431H577.652V93.5635Z" fill="url(#paint16_linear_393_3422)"/>
<path d="M635.535 93.5635H628.691V95.8431H635.535V93.5635Z" fill="url(#paint17_linear_393_3422)"/>
<path d="M675.069 389.659C684.251 349.859 659.412 310.155 619.589 300.978C579.767 291.802 540.041 316.627 530.859 356.428C521.678 396.228 546.517 435.932 586.339 445.109C626.162 454.286 665.888 429.46 675.069 389.659Z" fill="url(#paint18_linear_393_3422)"/>
<path d="M603.377 436.078C638.209 436.078 666.446 407.856 666.446 373.044C666.446 338.231 638.209 310.01 603.377 310.01C568.545 310.01 540.309 338.231 540.309 373.044C540.309 407.856 568.545 436.078 603.377 436.078Z" fill="white"/>
<path d="M566.375 389.422V407.299C566.375 410.308 581.723 412.748 600.656 412.748C619.589 412.748 634.937 410.308 634.937 407.299V389.422H566.375Z" fill="url(#paint19_linear_393_3422)"/>
<path d="M634.937 389.422C634.937 392.432 619.589 394.872 600.656 394.872C581.723 394.872 566.375 392.432 566.375 389.422C566.375 386.413 581.723 383.973 600.656 383.973C619.589 383.973 634.937 386.413 634.937 389.422Z" fill="url(#paint20_linear_393_3422)"/>
<path d="M628.153 398.246C629.021 398.246 629.724 397.543 629.724 396.675C629.724 395.808 629.021 395.105 628.153 395.105C627.285 395.105 626.582 395.808 626.582 396.675C626.582 397.543 627.285 398.246 628.153 398.246Z" fill="white"/>
<path d="M628.153 403.225C629.021 403.225 629.724 402.522 629.724 401.655C629.724 400.788 629.021 400.085 628.153 400.085C627.285 400.085 626.582 400.788 626.582 401.655C626.582 402.522 627.285 403.225 628.153 403.225Z" fill="white"/>
<path d="M628.153 408.204C629.021 408.204 629.724 407.501 629.724 406.634C629.724 405.767 629.021 405.064 628.153 405.064C627.285 405.064 626.582 405.767 626.582 406.634C626.582 407.501 627.285 408.204 628.153 408.204Z" fill="white"/>
<path d="M566.375 366.097V383.973C566.375 386.983 581.723 389.422 600.656 389.422C619.589 389.422 634.937 386.982 634.937 383.973V366.097H566.375Z" fill="url(#paint21_linear_393_3422)"/>
<path d="M634.937 366.097C634.937 369.107 619.589 371.546 600.656 371.546C581.723 371.546 566.375 369.107 566.375 366.097C566.375 363.088 581.723 360.648 600.656 360.648C619.589 360.648 634.937 363.088 634.937 366.097Z" fill="url(#paint22_linear_393_3422)"/>
<path d="M628.153 374.92C629.021 374.92 629.724 374.217 629.724 373.35C629.724 372.483 629.021 371.78 628.153 371.78C627.285 371.78 626.582 372.483 626.582 373.35C626.582 374.217 627.285 374.92 628.153 374.92Z" fill="white"/>
<path d="M629.724 378.329C629.724 378.64 629.632 378.943 629.459 379.202C629.286 379.46 629.041 379.661 628.754 379.78C628.467 379.899 628.151 379.93 627.846 379.869C627.542 379.809 627.262 379.659 627.042 379.44C626.822 379.22 626.673 378.94 626.612 378.636C626.552 378.331 626.583 378.015 626.702 377.728C626.821 377.442 627.022 377.196 627.28 377.024C627.539 376.851 627.842 376.759 628.153 376.759C628.359 376.759 628.563 376.8 628.754 376.879C628.945 376.958 629.118 377.073 629.264 377.219C629.41 377.365 629.525 377.538 629.604 377.728C629.683 377.919 629.724 378.123 629.724 378.329Z" fill="white"/>
<path d="M628.153 384.879C629.021 384.879 629.724 384.176 629.724 383.309C629.724 382.442 629.021 381.739 628.153 381.739C627.285 381.739 626.582 382.442 626.582 383.309C626.582 384.176 627.285 384.879 628.153 384.879Z" fill="white"/>
<path d="M566.375 342.771V360.648C566.375 363.657 581.723 366.097 600.656 366.097C619.589 366.097 634.937 363.657 634.937 360.648V342.771H566.375Z" fill="url(#paint23_linear_393_3422)"/>
<path d="M634.937 342.772C634.937 345.781 619.589 348.221 600.656 348.221C581.723 348.221 566.375 345.781 566.375 342.772C566.375 339.762 581.723 337.322 600.656 337.322C619.589 337.322 634.937 339.762 634.937 342.772Z" fill="url(#paint24_linear_393_3422)"/>
<path d="M628.153 351.594C629.021 351.594 629.724 350.891 629.724 350.024C629.724 349.157 629.021 348.454 628.153 348.454C627.285 348.454 626.582 349.157 626.582 350.024C626.582 350.891 627.285 351.594 628.153 351.594Z" fill="white"/>
<path d="M628.153 356.574C629.021 356.574 629.724 355.871 629.724 355.004C629.724 354.137 629.021 353.434 628.153 353.434C627.285 353.434 626.582 354.137 626.582 355.004C626.582 355.871 627.285 356.574 628.153 356.574Z" fill="white"/>
<path d="M628.153 361.553C629.021 361.553 629.724 360.85 629.724 359.983C629.724 359.116 629.021 358.413 628.153 358.413C627.285 358.413 626.582 359.116 626.582 359.983C626.582 360.85 627.285 361.553 628.153 361.553Z" fill="white"/>
<path d="M157.279 425.339C186.177 396.457 186.177 349.631 157.279 320.749C128.382 291.868 81.5297 291.868 52.6322 320.749C23.7347 349.631 23.7347 396.457 52.6322 425.339C81.5297 454.22 128.382 454.22 157.279 425.339Z" fill="url(#paint25_linear_393_3422)"/>
<path d="M104.955 436.078C139.787 436.078 168.024 407.856 168.024 373.044C168.024 338.231 139.787 310.01 104.955 310.01C70.1236 310.01 41.8867 338.231 41.8867 373.044C41.8867 407.856 70.1236 436.078 104.955 436.078Z" fill="white"/>
<path d="M142.495 402.177H69.7226C67.3748 402.175 65.124 401.241 63.4638 399.582C61.8037 397.923 60.8699 395.673 60.8672 393.327V347.234C60.8698 344.887 61.8037 342.638 63.4638 340.979C65.1239 339.319 67.3748 338.386 69.7226 338.383H142.495C144.843 338.386 147.093 339.319 148.754 340.979C150.414 342.638 151.347 344.887 151.35 347.234V393.327C151.347 395.673 150.414 397.923 148.753 399.582C147.093 401.241 144.842 402.175 142.495 402.177ZM69.7226 342.59C68.4906 342.591 67.3095 343.081 66.4383 343.951C65.5672 344.822 65.0771 346.003 65.0757 347.234V393.327C65.0772 394.558 65.5672 395.738 66.4384 396.609C67.3095 397.48 68.4906 397.97 69.7226 397.971H142.495C143.727 397.97 144.908 397.48 145.779 396.609C146.65 395.738 147.14 394.558 147.142 393.327V347.234C147.14 346.003 146.65 344.822 145.779 343.951C144.908 343.081 143.727 342.591 142.495 342.59H69.7226Z" fill="url(#paint26_linear_393_3422)"/>
<path d="M109.653 402.177H91.3086V413.078H109.653V402.177Z" fill="url(#paint27_linear_393_3422)"/>
<path d="M86.6923 413.078H125.525C126.09 413.078 126.633 413.303 127.033 413.703C127.433 414.103 127.658 414.645 127.658 415.211V419.563H84.5586V415.211C84.5586 414.931 84.6138 414.653 84.721 414.395C84.8282 414.136 84.9854 413.901 85.1835 413.703C85.3817 413.505 85.6169 413.348 85.8758 413.24C86.1346 413.133 86.4121 413.078 86.6923 413.078Z" fill="url(#paint28_linear_393_3422)"/>
<path d="M140.251 367.223C144.703 348.377 133.025 329.492 114.169 325.043C95.3123 320.595 76.4176 332.266 71.9662 351.112C67.5148 369.958 79.1924 388.842 98.0488 393.291C116.905 397.74 135.8 386.069 140.251 367.223Z" fill="white"/>
<path d="M105.707 324C99.6338 324 93.6971 325.799 88.6475 329.171C83.5978 332.543 79.662 337.336 77.3378 342.943C75.0135 348.551 74.4052 354.721 75.5898 360.674C76.7744 366.627 79.6986 372.095 83.9927 376.387C88.2868 380.679 93.7579 383.602 99.7141 384.786C105.67 385.971 111.844 385.363 117.455 383.04C123.066 380.718 127.861 376.784 131.235 371.738C134.609 366.691 136.41 360.758 136.41 354.688C136.401 346.552 133.163 338.752 127.407 332.999C121.651 327.246 113.847 324.01 105.707 324ZM125.919 350.277H132.734C133.219 353.198 133.219 356.178 132.734 359.099H125.919C126.061 357.622 126.134 356.141 126.134 354.688C126.134 353.237 126.061 351.756 125.919 350.277H125.919ZM124.539 374.545C122.619 376.365 120.446 377.899 118.088 379.098C119.305 377.692 120.376 376.167 121.285 374.545H124.539ZM90.1263 374.545C91.0363 376.168 92.1081 377.693 93.3254 379.1C90.9669 377.899 88.7938 376.365 86.873 374.545H90.1263ZM85.4931 359.099H78.6774C78.1929 356.178 78.1929 353.198 78.6774 350.277H85.4931C85.3504 351.756 85.2779 353.237 85.2779 354.688C85.2779 356.141 85.3504 357.622 85.4931 359.099H85.4931ZM86.873 334.832C88.7887 333.017 90.9553 331.487 93.3065 330.287C92.0953 331.691 91.0298 333.214 90.1264 334.832H86.873ZM121.285 334.832C120.382 333.213 119.317 331.691 118.106 330.287C120.456 331.487 122.623 333.018 124.539 334.832H121.285ZM122.91 371.234C124.105 368.402 124.966 365.441 125.476 362.411H131.985C131.046 365.601 129.527 368.592 127.505 371.234H122.91ZM85.9359 362.411C86.4458 365.441 87.307 368.402 88.502 371.234H83.9066C81.8846 368.592 80.3661 365.601 79.427 362.411H85.9359ZM88.5013 338.144C87.3064 340.975 86.4455 343.935 85.9359 346.966H79.427C80.3664 343.775 81.8849 340.785 83.9066 338.144H88.5013ZM125.476 346.966C124.966 343.935 124.105 340.975 122.91 338.144H127.505C129.527 340.785 131.045 343.775 131.985 346.966H125.476ZM115.028 346.966C114.816 344.007 114.446 341.062 113.92 338.144H119.308C120.629 340.948 121.576 343.914 122.122 346.966H115.028ZM112.004 354.688C112.004 356.147 111.972 357.628 111.911 359.099H99.501C99.4395 357.628 99.4081 356.147 99.4081 354.688C99.4081 353.229 99.4395 351.75 99.501 350.277H111.911C111.972 351.75 112.004 353.229 112.004 354.688H112.004ZM99.6957 346.966C99.9078 344.005 100.292 341.059 100.847 338.144H110.565C111.119 341.059 111.504 344.005 111.716 346.966H99.6957ZM97.4921 338.144C96.9663 341.063 96.5961 344.007 96.3833 346.966H89.2901C89.8362 343.914 90.7822 340.948 92.1038 338.144H97.4921ZM96.3833 362.411C96.5958 365.369 96.9659 368.315 97.4921 371.234H92.1038C90.7824 368.429 89.8363 365.462 89.2902 362.411H96.3833ZM111.716 362.411C111.504 365.372 111.119 368.318 110.564 371.234H100.848C100.293 368.318 99.9078 365.372 99.6957 362.411H111.716ZM113.92 371.234C114.447 368.315 114.817 365.369 115.028 362.411H122.122C121.575 365.462 120.629 368.429 119.308 371.234H113.92ZM96.1894 359.099H88.8189C88.5151 356.166 88.5151 353.21 88.8189 350.277H96.1894C96.1263 351.761 96.0947 353.24 96.0947 354.688C96.0948 356.137 96.1263 357.617 96.1894 359.099ZM115.222 350.277H122.593C122.897 353.21 122.897 356.166 122.593 359.099H115.222C115.285 357.617 115.317 356.137 115.317 354.688C115.317 353.24 115.285 351.761 115.222 350.277H115.222ZM117.45 334.832H113.214C112.731 332.735 112.035 330.692 111.136 328.736C113.713 330.215 115.882 332.31 117.45 334.832H117.45ZM98.1983 334.832H93.9645C95.5433 332.324 97.7073 330.237 100.271 328.748C99.3748 330.701 98.6803 332.739 98.1983 334.832H98.1983ZM93.9645 374.545H98.1983C98.6805 376.639 99.375 378.677 100.271 380.63C97.7076 379.141 95.5437 377.053 93.9645 374.545H93.9645ZM113.214 374.545H117.45C115.881 377.068 113.712 379.163 111.135 380.642C112.034 378.686 112.731 376.643 113.214 374.545H113.214ZM101.607 334.832C102.983 329.673 104.668 327.311 105.707 327.311C106.745 327.311 108.43 329.673 109.806 334.832H101.607ZM109.806 374.545C108.43 379.703 106.745 382.065 105.707 382.065C104.668 382.065 102.983 379.703 101.607 374.545H109.806Z" fill="url(#paint29_linear_393_3422)"/>
<path d="M157.279 157.25C186.177 128.369 186.177 81.5424 157.279 52.6608C128.382 23.7792 81.5297 23.7792 52.6322 52.6608C23.7347 81.5424 23.7347 128.369 52.6322 157.25C81.5297 186.132 128.382 186.132 157.279 157.25Z" fill="url(#paint30_linear_393_3422)"/>
<path d="M104.955 167.99C139.787 167.99 168.024 139.769 168.024 104.956C168.024 70.1432 139.787 41.9219 104.955 41.9219C70.1236 41.9219 41.8867 70.1432 41.8867 104.956C41.8867 139.769 70.1236 167.99 104.955 167.99Z" fill="white"/>
<path d="M145.628 69.5796H64.2876C62.4538 69.5818 60.6958 70.3109 59.3991 71.607C58.1025 72.903 57.3731 74.6602 57.3711 76.493V133.418C57.3731 135.251 58.1025 137.008 59.3991 138.304C60.6958 139.601 62.4538 140.33 64.2876 140.332H145.628C147.461 140.33 149.219 139.601 150.516 138.305C151.813 137.008 152.542 135.251 152.544 133.418V76.493C152.542 74.6602 151.813 72.903 150.516 71.607C149.219 70.3109 147.461 69.5818 145.628 69.5796ZM149.657 133.418C149.657 134.487 149.232 135.511 148.477 136.267C147.721 137.022 146.696 137.446 145.627 137.446H64.2876C63.7585 137.446 63.2345 137.342 62.7456 137.14C62.2567 136.938 61.8125 136.641 61.4383 136.267C61.0642 135.893 60.7673 135.449 60.5648 134.96C60.3623 134.472 60.2581 133.948 60.2581 133.419V83.1022C60.2581 82.6196 60.3532 82.1417 60.538 81.6959C60.7228 81.25 60.9937 80.8449 61.3351 80.5036C61.6765 80.1624 62.0819 79.8917 62.528 79.707C62.9741 79.5223 63.4522 79.4273 63.9351 79.4273H145.98C146.463 79.4273 146.941 79.5223 147.387 79.707C147.833 79.8917 148.239 80.1624 148.58 80.5036C148.922 80.8449 149.192 81.25 149.377 81.6959C149.562 82.1417 149.657 82.6196 149.657 83.1022L149.657 133.418Z" fill="url(#paint31_linear_393_3422)"/>
<path d="M132.596 74.6331C132.596 75.0522 132.471 75.4619 132.238 75.8103C132.005 76.1588 131.674 76.4304 131.287 76.5908C130.9 76.7512 130.473 76.7931 130.062 76.7114C129.651 76.6296 129.273 76.4278 128.976 76.1314C128.68 75.8351 128.478 75.4575 128.396 75.0465C128.314 74.6355 128.356 74.2094 128.517 73.8222C128.677 73.435 128.949 73.1041 129.298 72.8713C129.646 72.6384 130.056 72.5142 130.476 72.5142C131.038 72.5142 131.577 72.7375 131.975 73.1348C132.372 73.5322 132.596 74.0711 132.596 74.6331Z" fill="white"/>
<path d="M139.455 74.6331C139.455 75.0522 139.331 75.4619 139.098 75.8103C138.865 76.1588 138.534 76.4304 138.146 76.5908C137.759 76.7512 137.333 76.7931 136.921 76.7114C136.51 76.6296 136.132 76.4278 135.836 76.1315C135.539 75.8352 135.337 75.4576 135.256 75.0466C135.174 74.6356 135.216 74.2095 135.376 73.8223C135.537 73.4351 135.808 73.1042 136.157 72.8713C136.506 72.6385 136.916 72.5142 137.335 72.5142C137.897 72.5142 138.436 72.7374 138.834 73.1348C139.232 73.5322 139.455 74.0711 139.455 74.6331Z" fill="white"/>
<path d="M146.311 74.6331C146.311 75.0522 146.186 75.4619 145.953 75.8103C145.72 76.1588 145.389 76.4304 145.002 76.5908C144.614 76.7512 144.188 76.7931 143.777 76.7114C143.366 76.6296 142.988 76.4278 142.691 76.1314C142.395 75.8351 142.193 75.4575 142.111 75.0465C142.029 74.6355 142.071 74.2094 142.232 73.8222C142.392 73.435 142.664 73.1041 143.013 72.8713C143.361 72.6384 143.771 72.5142 144.19 72.5142C144.753 72.5142 145.292 72.7374 145.69 73.1348C146.087 73.5322 146.311 74.0711 146.311 74.6331Z" fill="white"/>
<path d="M95.2867 99.8257H65.6144C64.2913 99.8257 63.2188 100.898 63.2188 102.22V131.876C63.2188 133.198 64.2913 134.27 65.6144 134.27H95.2867C96.6098 134.27 97.6824 133.198 97.6824 131.876V102.22C97.6824 100.898 96.6098 99.8257 95.2867 99.8257Z" fill="url(#paint32_linear_393_3422)"/>
<path d="M143.915 99.8257H103.146C101.823 99.8257 100.75 100.898 100.75 102.22V131.876C100.75 133.198 101.823 134.27 103.146 134.27H143.915C145.238 134.27 146.31 133.198 146.31 131.876V102.22C146.31 100.898 145.238 99.8257 143.915 99.8257Z" fill="url(#paint33_linear_393_3422)" fill-opacity="0.25"/>
<path d="M143.696 81H65.3956C64.0726 81 63 82.072 63 83.3943V93.0628C63 94.3851 64.0726 95.4571 65.3956 95.4571H143.696C145.019 95.4571 146.091 94.3851 146.091 93.0628V83.3943C146.091 82.072 145.019 81 143.696 81Z" fill="url(#paint34_linear_393_3422)" fill-opacity="0.25"/>
<path d="M106.691 103.225H140.37C140.753 103.225 141.121 103.377 141.392 103.648C141.663 103.918 141.815 104.286 141.815 104.669V105.261C141.815 105.645 141.663 106.012 141.392 106.283C141.121 106.554 140.753 106.706 140.37 106.706H106.691C106.308 106.706 105.94 106.554 105.669 106.283C105.398 106.012 105.246 105.645 105.246 105.261V104.669C105.246 104.286 105.398 103.918 105.669 103.648C105.94 103.377 106.308 103.225 106.691 103.225Z" fill="white"/>
<path d="M140.37 109.266H106.691C105.893 109.266 105.246 109.913 105.246 110.71V111.303C105.246 112.101 105.893 112.747 106.691 112.747H140.37C141.168 112.747 141.815 112.101 141.815 111.303V110.71C141.815 109.913 141.168 109.266 140.37 109.266Z" fill="white"/>
<path d="M140.37 115.308H106.691C105.893 115.308 105.246 115.954 105.246 116.752V117.344C105.246 118.142 105.893 118.789 106.691 118.789H140.37C141.168 118.789 141.815 118.142 141.815 117.344V116.752C141.815 115.954 141.168 115.308 140.37 115.308Z" fill="white"/>
<path d="M140.37 121.349H106.691C105.893 121.349 105.246 121.995 105.246 122.793V123.385C105.246 124.183 105.893 124.83 106.691 124.83H140.37C141.168 124.83 141.815 124.183 141.815 123.385V122.793C141.815 121.995 141.168 121.349 140.37 121.349Z" fill="white"/>
<path d="M106.445 127H121.839C122.029 127 122.217 127.037 122.392 127.11C122.568 127.183 122.727 127.289 122.861 127.423C122.995 127.557 123.102 127.716 123.174 127.892C123.247 128.067 123.284 128.255 123.284 128.444V129.037C123.284 129.42 123.132 129.787 122.861 130.058C122.59 130.329 122.223 130.481 121.839 130.481H106.445C106.062 130.481 105.694 130.329 105.423 130.058C105.152 129.787 105 129.42 105 129.037V128.444C105 128.255 105.037 128.067 105.11 127.892C105.183 127.716 105.289 127.557 105.423 127.423C105.557 127.289 105.717 127.183 105.892 127.11C106.067 127.037 106.255 127 106.445 127Z" fill="white"/>
<path d="M97.6817 115.615V131.384C97.6818 131.763 97.6072 132.138 97.4621 132.488C97.3171 132.838 97.1044 133.157 96.8363 133.425C96.5682 133.693 96.2499 133.905 95.8996 134.05C95.5493 134.195 95.1738 134.27 94.7947 134.269H66.1124C65.3429 134.269 64.6049 133.964 64.0608 133.42C63.5167 132.876 63.211 132.139 63.2109 131.37V117.043L74.1167 127.943C74.3254 128.152 74.6083 128.269 74.9034 128.269C75.1984 128.269 75.4814 128.152 75.6901 127.944L90.7652 112.889C91.3209 112.334 92.0745 112.022 92.8601 112.022C93.6458 112.023 94.3992 112.335 94.9547 112.89L97.6817 115.615Z" fill="white"/>
<path d="M79.9099 109.654C79.9099 110.671 79.6083 111.665 79.0432 112.51C78.4781 113.355 77.675 114.014 76.7353 114.403C75.7957 114.792 74.7617 114.893 73.7642 114.695C72.7667 114.497 71.8504 114.007 71.1312 113.289C70.412 112.57 69.9222 111.654 69.7238 110.657C69.5254 109.66 69.6272 108.627 70.0164 107.687C70.4056 106.748 71.0648 105.946 71.9104 105.381C72.7561 104.816 73.7503 104.515 74.7674 104.515C76.1313 104.515 77.4393 105.056 78.4037 106.02C79.3681 106.984 79.9099 108.291 79.9099 109.654Z" fill="white"/>
<path d="M94.7947 101.234C95.1882 101.235 95.5654 101.391 95.8436 101.669C96.1219 101.947 96.2784 102.324 96.2789 102.717V131.384C96.2784 131.777 96.1219 132.154 95.8436 132.432C95.5654 132.71 95.1882 132.867 94.7947 132.867H66.1124C65.717 132.869 65.3372 132.713 65.0562 132.435C64.7753 132.157 64.6162 131.779 64.6138 131.384V102.717C64.6162 102.322 64.7753 101.944 65.0562 101.666C65.3372 101.388 65.717 101.233 66.1124 101.234H94.7947V101.234ZM94.7947 99.8321H66.1124C65.7322 99.8305 65.3553 99.9039 65.0036 100.048C64.6518 100.192 64.3319 100.405 64.0624 100.673C63.7928 100.941 63.5788 101.259 63.4327 101.61C63.2866 101.961 63.2113 102.337 63.2109 102.717V131.384C63.2112 131.764 63.2866 132.14 63.4327 132.491C63.5788 132.842 63.7928 133.161 64.0623 133.429C64.3319 133.697 64.6517 133.909 65.0035 134.053C65.3553 134.198 65.7322 134.271 66.1124 134.269H94.7947C95.1738 134.269 95.5493 134.195 95.8996 134.05C96.2499 133.905 96.5682 133.692 96.8363 133.424C97.1044 133.157 97.3171 132.838 97.4621 132.488C97.6072 132.138 97.6818 131.763 97.6817 131.384V102.717C97.6818 102.338 97.6072 101.963 97.4621 101.613C97.3171 101.263 97.1044 100.945 96.8363 100.677C96.5682 100.409 96.2499 100.196 95.8996 100.051C95.5493 99.9065 95.1738 99.832 94.7947 99.8321V99.8321Z" fill="url(#paint35_linear_393_3422)"/>
<path d="M457.091 264.954C471.434 212.573 440.574 158.489 388.163 144.155C335.753 129.82 281.64 160.663 267.297 213.045C252.955 265.426 283.815 319.51 336.225 333.844C388.635 348.179 442.749 317.336 457.091 264.954Z" fill="url(#paint36_linear_393_3422)"/>
<path d="M421.195 298.262C453.943 265.532 453.943 212.467 421.195 179.737C388.447 147.007 335.352 147.007 302.604 179.737C269.856 212.467 269.856 265.532 302.604 298.262C335.352 330.992 388.447 330.992 421.195 298.262Z" fill="white"/>
<path d="M407.572 227.241C407.193 227.241 406.816 227.253 406.44 227.27L406.441 227.241C406.44 218.97 403.464 210.974 398.056 204.714C392.647 198.454 385.167 194.346 376.979 193.14C368.792 191.935 360.444 193.711 353.458 198.146C346.473 202.581 341.316 209.379 338.928 217.298C336.998 216.669 334.96 216.431 332.936 216.6C330.912 216.769 328.943 217.341 327.143 218.282C325.344 219.223 323.751 220.514 322.458 222.079C321.165 223.645 320.198 225.453 319.615 227.397C316.163 227.016 312.671 227.343 309.35 228.357C306.03 229.371 302.951 231.051 300.302 233.294C297.653 235.537 295.49 238.297 293.944 241.404C292.398 244.512 291.503 247.901 291.312 251.366C291.121 254.831 291.64 258.299 292.835 261.557C294.03 264.815 295.878 267.795 298.265 270.315C300.652 272.835 303.528 274.843 306.717 276.214C309.906 277.586 313.342 278.294 316.814 278.293H407.572C414.346 278.293 420.842 275.604 425.632 270.817C430.422 266.03 433.113 259.537 433.113 252.767C433.113 245.997 430.422 239.504 425.632 234.717C420.842 229.93 414.346 227.241 407.572 227.241V227.241Z" fill="url(#paint37_linear_393_3422)"/>
<path d="M400.467 250.233V244.791C400.467 244.664 400.442 244.539 400.393 244.422C400.345 244.305 400.274 244.199 400.184 244.109C400.095 244.02 399.989 243.949 399.872 243.9C399.755 243.852 399.629 243.827 399.502 243.827H398.101C397.901 243.828 397.707 243.762 397.55 243.638C397.393 243.515 397.282 243.342 397.236 243.148C396.759 241.066 395.94 239.078 394.81 237.265C394.701 237.094 394.652 236.89 394.674 236.688C394.695 236.485 394.784 236.296 394.927 236.151L395.913 235.166C396.002 235.077 396.073 234.97 396.122 234.854C396.17 234.737 396.195 234.611 396.195 234.485C396.195 234.358 396.17 234.233 396.122 234.116C396.073 233.999 396.002 233.893 395.913 233.803L392.063 229.955C391.882 229.774 391.637 229.673 391.381 229.673C391.125 229.673 390.88 229.774 390.699 229.955L389.715 230.939C389.57 231.082 389.38 231.171 389.178 231.192C388.975 231.214 388.772 231.165 388.6 231.056C386.786 229.926 384.796 229.106 382.712 228.629C382.518 228.582 382.345 228.472 382.222 228.315C382.099 228.158 382.032 227.964 382.034 227.764V226.368C382.034 226.241 382.009 226.116 381.96 225.999C381.912 225.882 381.841 225.776 381.751 225.686C381.662 225.597 381.555 225.526 381.438 225.477C381.321 225.429 381.196 225.404 381.069 225.404H375.624C375.498 225.404 375.372 225.429 375.255 225.477C375.138 225.526 375.032 225.597 374.942 225.686C374.853 225.776 374.782 225.882 374.733 225.999C374.685 226.116 374.66 226.241 374.66 226.368V227.764C374.661 227.963 374.595 228.158 374.471 228.315C374.348 228.472 374.175 228.582 373.981 228.629C371.897 229.105 369.907 229.925 368.092 231.055C367.92 231.165 367.717 231.213 367.514 231.192C367.312 231.17 367.122 231.081 366.977 230.938L365.994 229.955C365.905 229.866 365.798 229.795 365.681 229.746C365.564 229.698 365.439 229.673 365.312 229.673C365.186 229.673 365.06 229.698 364.943 229.746C364.826 229.795 364.72 229.866 364.63 229.955L360.78 233.803C360.6 233.984 360.498 234.229 360.498 234.485C360.498 234.74 360.6 234.985 360.78 235.166L361.765 236.15C361.908 236.295 361.997 236.484 362.019 236.686C362.04 236.889 361.992 237.092 361.882 237.264C360.753 239.077 359.933 241.066 359.456 243.148C359.409 243.343 359.299 243.515 359.142 243.638C358.985 243.762 358.79 243.828 358.591 243.827H357.191C357.064 243.827 356.939 243.852 356.822 243.9C356.705 243.949 356.599 244.02 356.509 244.109C356.419 244.199 356.348 244.305 356.3 244.422C356.251 244.539 356.227 244.664 356.227 244.791V250.233C356.227 250.488 356.328 250.733 356.509 250.914C356.69 251.095 356.935 251.197 357.191 251.197H358.591C358.791 251.195 358.985 251.262 359.142 251.385C359.299 251.508 359.41 251.681 359.456 251.875C359.934 253.957 360.754 255.945 361.883 257.758C361.993 257.929 362.041 258.133 362.02 258.335C361.999 258.538 361.909 258.727 361.766 258.872L360.78 259.857C360.691 259.947 360.62 260.053 360.571 260.17C360.523 260.287 360.498 260.412 360.498 260.539C360.498 260.665 360.523 260.791 360.571 260.908C360.62 261.024 360.691 261.131 360.78 261.22L364.63 265.068C364.72 265.158 364.826 265.229 364.943 265.277C365.06 265.326 365.186 265.351 365.312 265.351C365.439 265.351 365.564 265.326 365.681 265.277C365.798 265.229 365.905 265.158 365.994 265.068L366.981 264.082C367.126 263.939 367.315 263.85 367.517 263.829C367.72 263.807 367.924 263.855 368.095 263.965C369.909 265.093 371.898 265.911 373.981 266.387C374.175 266.434 374.348 266.545 374.471 266.702C374.594 266.859 374.661 267.053 374.66 267.252V268.656C374.66 268.911 374.761 269.157 374.942 269.337C375.123 269.518 375.368 269.62 375.624 269.62H381.069C381.325 269.62 381.57 269.518 381.751 269.337C381.932 269.157 382.034 268.911 382.034 268.656V267.252C382.032 267.052 382.099 266.858 382.222 266.701C382.345 266.544 382.518 266.433 382.712 266.387C384.795 265.911 386.784 265.092 388.598 263.965C388.769 263.855 388.973 263.807 389.175 263.828C389.378 263.849 389.567 263.939 389.712 264.082L390.699 265.068C390.88 265.249 391.125 265.351 391.381 265.351C391.637 265.351 391.882 265.249 392.063 265.068L395.913 261.22C396.002 261.131 396.073 261.025 396.122 260.908C396.17 260.791 396.195 260.665 396.195 260.539C396.195 260.412 396.17 260.287 396.122 260.17C396.073 260.053 396.002 259.947 395.913 259.857L394.926 258.871C394.783 258.727 394.694 258.537 394.672 258.335C394.651 258.133 394.699 257.929 394.809 257.758C395.938 255.945 396.758 253.957 397.235 251.875C397.281 251.681 397.392 251.508 397.549 251.385C397.706 251.262 397.9 251.195 398.1 251.197H399.502C399.629 251.197 399.754 251.172 399.871 251.123C399.989 251.075 400.095 251.004 400.184 250.914C400.274 250.825 400.345 250.718 400.393 250.602C400.442 250.485 400.467 250.359 400.467 250.233ZM378.346 260.267C375.822 260.268 373.354 259.521 371.255 258.121C369.156 256.72 367.52 254.729 366.553 252.399C365.586 250.069 365.332 247.505 365.824 245.031C366.315 242.557 367.529 240.284 369.313 238.5C371.097 236.715 373.37 235.5 375.845 235.006C378.32 234.513 380.886 234.765 383.218 235.729C385.55 236.693 387.544 238.327 388.947 240.424C390.35 242.521 391.099 244.986 391.1 247.508C391.101 249.183 390.772 250.842 390.132 252.389C389.491 253.937 388.552 255.344 387.367 256.528C386.183 257.713 384.777 258.653 383.229 259.295C381.681 259.936 380.021 260.267 378.346 260.267Z" fill="url(#paint38_linear_393_3422)"/>
<path d="M356.015 240.778V237.64C356.015 237.567 356.001 237.495 355.973 237.428C355.945 237.36 355.904 237.299 355.852 237.247C355.801 237.196 355.739 237.155 355.672 237.127C355.604 237.099 355.532 237.084 355.459 237.084H354.651C354.536 237.085 354.424 237.047 354.333 236.976C354.243 236.905 354.179 236.805 354.152 236.693C353.877 235.493 353.405 234.346 352.754 233.301C352.69 233.202 352.663 233.085 352.675 232.968C352.687 232.852 352.739 232.743 352.821 232.659L353.389 232.091C353.441 232.039 353.482 231.978 353.51 231.911C353.538 231.843 353.552 231.771 353.552 231.698C353.552 231.625 353.538 231.553 353.51 231.485C353.482 231.418 353.441 231.357 353.389 231.305L351.17 229.087C351.065 228.982 350.924 228.924 350.776 228.924C350.629 228.924 350.488 228.982 350.383 229.087L349.816 229.654C349.732 229.736 349.623 229.788 349.506 229.8C349.39 229.812 349.272 229.784 349.173 229.721C348.127 229.07 346.98 228.597 345.778 228.322C345.666 228.295 345.567 228.231 345.496 228.141C345.425 228.05 345.386 227.938 345.387 227.823V227.018C345.387 226.945 345.373 226.873 345.345 226.806C345.317 226.738 345.276 226.677 345.224 226.625C345.173 226.574 345.111 226.533 345.044 226.505C344.976 226.477 344.904 226.462 344.831 226.462H341.692C341.544 226.462 341.403 226.521 341.299 226.625C341.194 226.729 341.136 226.871 341.136 227.018V227.823C341.136 227.938 341.098 228.05 341.027 228.141C340.956 228.231 340.856 228.295 340.744 228.322C339.543 228.597 338.395 229.069 337.349 229.721C337.25 229.784 337.133 229.812 337.016 229.799C336.899 229.787 336.79 229.736 336.706 229.653L336.139 229.087C336.035 228.982 335.894 228.924 335.746 228.924C335.599 228.924 335.457 228.982 335.353 229.087L333.133 231.305C333.029 231.409 332.971 231.551 332.971 231.698C332.971 231.845 333.029 231.987 333.133 232.091L333.701 232.658C333.783 232.742 333.835 232.851 333.847 232.968C333.86 233.084 333.832 233.202 333.769 233.3C333.117 234.346 332.645 235.493 332.37 236.693C332.343 236.805 332.279 236.905 332.189 236.976C332.098 237.047 331.986 237.085 331.871 237.084H331.064C330.991 237.084 330.919 237.099 330.851 237.127C330.784 237.155 330.722 237.196 330.671 237.247C330.619 237.299 330.578 237.36 330.55 237.428C330.522 237.495 330.508 237.567 330.508 237.64V240.778C330.508 240.851 330.522 240.923 330.55 240.99C330.578 241.058 330.619 241.119 330.671 241.171C330.722 241.222 330.784 241.263 330.851 241.291C330.919 241.319 330.991 241.334 331.064 241.334H331.871C331.986 241.333 332.098 241.371 332.189 241.442C332.279 241.513 332.343 241.613 332.37 241.725C332.645 242.925 333.118 244.071 333.769 245.117C333.832 245.216 333.86 245.333 333.848 245.45C333.836 245.566 333.784 245.675 333.702 245.759L333.133 246.327C333.082 246.379 333.041 246.44 333.013 246.507C332.985 246.575 332.97 246.647 332.97 246.72C332.97 246.793 332.985 246.865 333.013 246.933C333.041 247 333.082 247.061 333.133 247.113L335.353 249.331C335.405 249.383 335.466 249.424 335.533 249.452C335.601 249.48 335.673 249.494 335.746 249.494C335.819 249.494 335.892 249.48 335.959 249.452C336.027 249.424 336.088 249.383 336.139 249.331L336.708 248.763C336.792 248.681 336.901 248.629 337.018 248.617C337.134 248.605 337.252 248.632 337.351 248.695C338.397 249.345 339.544 249.818 340.744 250.092C340.856 250.119 340.956 250.183 341.027 250.273C341.098 250.364 341.136 250.476 341.136 250.591V251.4C341.136 251.473 341.15 251.545 341.178 251.613C341.206 251.68 341.247 251.741 341.299 251.793C341.35 251.844 341.412 251.885 341.479 251.913C341.546 251.941 341.619 251.956 341.692 251.956H344.831C344.904 251.956 344.976 251.941 345.044 251.913C345.111 251.885 345.173 251.844 345.224 251.793C345.276 251.741 345.317 251.68 345.345 251.613C345.373 251.545 345.387 251.473 345.387 251.4V250.59C345.386 250.475 345.425 250.363 345.496 250.273C345.567 250.182 345.667 250.119 345.779 250.092C346.979 249.817 348.126 249.345 349.172 248.695C349.271 248.632 349.388 248.604 349.505 248.616C349.622 248.629 349.731 248.68 349.814 248.763L350.383 249.331C350.435 249.383 350.496 249.424 350.564 249.452C350.631 249.48 350.703 249.494 350.777 249.494C350.85 249.494 350.922 249.48 350.989 249.452C351.057 249.424 351.118 249.383 351.17 249.331L353.389 247.113C353.441 247.061 353.482 247 353.51 246.933C353.538 246.865 353.552 246.793 353.552 246.72C353.552 246.647 353.538 246.575 353.51 246.507C353.482 246.44 353.441 246.379 353.389 246.327L352.821 245.759C352.738 245.675 352.687 245.566 352.674 245.449C352.662 245.333 352.69 245.215 352.753 245.116C353.404 244.071 353.877 242.925 354.152 241.725C354.178 241.613 354.242 241.513 354.333 241.442C354.423 241.371 354.535 241.333 354.651 241.334H355.459C355.532 241.334 355.604 241.319 355.672 241.291C355.739 241.263 355.801 241.222 355.852 241.171C355.904 241.119 355.945 241.058 355.973 240.99C356.001 240.923 356.015 240.851 356.015 240.778ZM343.261 246.563C341.806 246.564 340.383 246.133 339.173 245.326C337.962 244.518 337.019 243.37 336.462 242.027C335.904 240.684 335.758 239.205 336.041 237.779C336.324 236.352 337.024 235.042 338.053 234.013C339.081 232.984 340.392 232.283 341.819 231.999C343.246 231.715 344.725 231.86 346.07 232.416C347.415 232.971 348.564 233.913 349.373 235.122C350.182 236.331 350.614 237.753 350.615 239.207C350.615 240.173 350.425 241.129 350.056 242.021C349.687 242.914 349.145 243.724 348.462 244.408C347.779 245.091 346.969 245.633 346.076 246.003C345.184 246.372 344.227 246.563 343.261 246.563Z" fill="white"/>
<path d="M391.708 293.026V281.109H379.96V293.026H375.882C375.665 293.026 375.454 293.088 375.271 293.204C375.089 293.321 374.943 293.486 374.852 293.682C374.761 293.878 374.728 294.096 374.756 294.311C374.784 294.525 374.874 294.727 375.013 294.892L384.965 306.716C385.072 306.842 385.205 306.944 385.355 307.014C385.505 307.084 385.669 307.12 385.834 307.12C386 307.12 386.163 307.084 386.313 307.014C386.464 306.944 386.597 306.842 386.703 306.716L396.656 294.892C396.795 294.727 396.884 294.525 396.912 294.311C396.941 294.096 396.907 293.878 396.816 293.682C396.725 293.486 396.579 293.321 396.397 293.204C396.215 293.088 396.003 293.026 395.787 293.026H391.708Z" fill="url(#paint39_linear_393_3422)"/>
<path d="M320.905 202.127V214.044H332.654V202.127H336.732C336.948 202.127 337.16 202.065 337.342 201.949C337.525 201.833 337.67 201.667 337.761 201.471C337.853 201.275 337.886 201.057 337.858 200.843C337.829 200.628 337.74 200.427 337.601 200.261L327.648 188.438C327.542 188.311 327.409 188.209 327.259 188.139C327.109 188.069 326.945 188.033 326.779 188.033C326.614 188.033 326.45 188.069 326.3 188.139C326.15 188.209 326.017 188.311 325.91 188.438L315.958 200.261C315.819 200.427 315.73 200.628 315.701 200.843C315.673 201.057 315.706 201.275 315.798 201.471C315.889 201.667 316.034 201.833 316.217 201.949C316.399 202.065 316.611 202.127 316.827 202.127H320.905Z" fill="url(#paint40_linear_393_3422)"/>
<path d="M565.137 200.297H565.207L567.348 208H569.574L572.566 196.727H570.121L568.34 204.891H568.277L566.168 196.727H564.176L562.066 204.891H562.004L560.23 196.727H557.785L560.77 208H562.996L565.137 200.297ZM581.309 206.047H576.199V203.203H581.02V201.391H576.199V198.672H581.309V196.727H573.84V208H581.309V206.047ZM588.004 208C590.41 208 591.902 206.758 591.902 204.773C591.902 203.281 590.777 202.164 589.246 202.047V201.984C590.441 201.805 591.363 200.773 591.363 199.539C591.363 197.812 590.035 196.727 587.918 196.727H583.012V208H588.004ZM585.371 198.484H587.309C588.41 198.484 589.043 199 589.043 199.906C589.043 200.859 588.324 201.414 587.066 201.414H585.371V198.484ZM585.371 206.242V202.969H587.348C588.738 202.969 589.496 203.531 589.496 204.586C589.496 205.664 588.762 206.242 587.402 206.242H585.371ZM595.996 204.789C596.066 206.906 597.793 208.195 600.504 208.195C603.301 208.195 605.074 206.812 605.074 204.625C605.074 202.906 604.09 201.938 601.832 201.453L600.465 201.164C599.168 200.867 598.621 200.477 598.621 199.781C598.621 198.945 599.402 198.391 600.566 198.391C601.746 198.391 602.582 198.969 602.66 199.922H604.871C604.832 197.883 603.184 196.531 600.559 196.531C598.043 196.531 596.246 197.906 596.246 199.984C596.246 201.633 597.27 202.688 599.348 203.133L600.816 203.453C602.176 203.758 602.715 204.164 602.715 204.898C602.715 205.727 601.855 206.328 600.598 206.328C599.348 206.328 598.379 205.719 598.27 204.789H595.996ZM613.996 206.047H608.887V203.203H613.707V201.391H608.887V198.672H613.996V196.727H606.527V208H613.996V206.047ZM618.059 198.57H620.066C621.238 198.57 621.973 199.273 621.973 200.367C621.973 201.484 621.277 202.164 620.09 202.164H618.059V198.57ZM618.059 203.875H619.949L622.051 208H624.723L622.348 203.523C623.645 203.016 624.395 201.766 624.395 200.32C624.395 198.094 622.91 196.727 620.316 196.727H615.699V208H618.059V203.875ZM631.738 208L635.527 196.727H632.957L630.379 205.57H630.324L627.746 196.727H625.105L628.895 208H631.738ZM644.152 206.047H639.043V203.203H643.863V201.391H639.043V198.672H644.152V196.727H636.684V208H644.152V206.047ZM648.215 198.57H650.223C651.395 198.57 652.129 199.273 652.129 200.367C652.129 201.484 651.434 202.164 650.246 202.164H648.215V198.57ZM648.215 203.875H650.105L652.207 208H654.879L652.504 203.523C653.801 203.016 654.551 201.766 654.551 200.32C654.551 198.094 653.066 196.727 650.473 196.727H645.855V208H648.215V203.875Z" fill="#393E50"/>
<path d="M338.395 373.297H338.465L340.605 381H342.832L345.824 369.727H343.379L341.598 377.891H341.535L339.426 369.727H337.434L335.324 377.891H335.262L333.488 369.727H331.043L334.027 381H336.254L338.395 373.297ZM354.566 379.047H349.457V376.203H354.277V374.391H349.457V371.672H354.566V369.727H347.098V381H354.566V379.047ZM361.262 381C363.668 381 365.16 379.758 365.16 377.773C365.16 376.281 364.035 375.164 362.504 375.047V374.984C363.699 374.805 364.621 373.773 364.621 372.539C364.621 370.812 363.293 369.727 361.176 369.727H356.27V381H361.262ZM358.629 371.484H360.566C361.668 371.484 362.301 372 362.301 372.906C362.301 373.859 361.582 374.414 360.324 374.414H358.629V371.484ZM358.629 379.242V375.969H360.605C361.996 375.969 362.754 376.531 362.754 377.586C362.754 378.664 362.02 379.242 360.66 379.242H358.629ZM377.059 381H379.566L375.645 369.727H372.871L368.957 381H371.379L372.238 378.266H376.199L377.059 381ZM374.191 371.883H374.246L375.691 376.5H372.746L374.191 371.883ZM380.723 369.727V381H383.082V377.445H385.191C387.566 377.445 389.215 375.898 389.215 373.586C389.215 371.266 387.621 369.727 385.309 369.727H380.723ZM383.082 371.594H384.684C386.035 371.594 386.816 372.312 386.816 373.594C386.816 374.883 386.027 375.602 384.676 375.602H383.082V371.594ZM392.973 381V369.727H390.613V381H392.973Z" fill="#393E50"/>
<path d="M42.1133 204.297H42.1836L44.3242 212H46.5508L49.543 200.727H47.0977L45.3164 208.891H45.2539L43.1445 200.727H41.1523L39.043 208.891H38.9805L37.207 200.727H34.7617L37.7461 212H39.9727L42.1133 204.297ZM58.2852 210.047H53.1758V207.203H57.9961V205.391H53.1758V202.672H58.2852V200.727H50.8164V212H58.2852V210.047ZM64.9805 212C67.3867 212 68.8789 210.758 68.8789 208.773C68.8789 207.281 67.7539 206.164 66.2227 206.047V205.984C67.418 205.805 68.3398 204.773 68.3398 203.539C68.3398 201.812 67.0117 200.727 64.8945 200.727H59.9883V212H64.9805ZM62.3477 202.484H64.2852C65.3867 202.484 66.0195 203 66.0195 203.906C66.0195 204.859 65.3008 205.414 64.043 205.414H62.3477V202.484ZM62.3477 210.242V206.969H64.3242C65.7148 206.969 66.4727 207.531 66.4727 208.586C66.4727 209.664 65.7383 210.242 64.3789 210.242H62.3477ZM80.7773 212H83.2852L79.3633 200.727H76.5898L72.6758 212H75.0977L75.957 209.266H79.918L80.7773 212ZM77.9102 202.883H77.9648L79.4102 207.5H76.4648L77.9102 202.883ZM84.4414 200.727V212H86.8008V208.445H88.9102C91.2852 208.445 92.9336 206.898 92.9336 204.586C92.9336 202.266 91.3398 200.727 89.0273 200.727H84.4414ZM86.8008 202.594H88.4023C89.7539 202.594 90.5352 203.312 90.5352 204.594C90.5352 205.883 89.7461 206.602 88.3945 206.602H86.8008V202.594ZM94.332 200.727V212H96.6914V208.445H98.8008C101.176 208.445 102.824 206.898 102.824 204.586C102.824 202.266 101.23 200.727 98.918 200.727H94.332ZM96.6914 202.594H98.293C99.6445 202.594 100.426 203.312 100.426 204.594C100.426 205.883 99.6367 206.602 98.2852 206.602H96.6914V202.594ZM111.512 210.047H106.582V200.727H104.223V212H111.512V210.047ZM115.27 212V200.727H112.91V212H115.27ZM122.129 212.195C124.895 212.195 126.824 210.602 127.09 208.086H124.793C124.543 209.422 123.535 210.242 122.137 210.242C120.332 210.242 119.199 208.758 119.199 206.352C119.199 203.977 120.348 202.484 122.129 202.484C123.504 202.484 124.566 203.391 124.785 204.773H127.082C126.902 202.25 124.84 200.531 122.129 200.531C118.863 200.531 116.793 202.727 116.793 206.359C116.793 210 118.848 212.195 122.129 212.195ZM135.543 212H138.051L134.129 200.727H131.355L127.441 212H129.863L130.723 209.266H134.684L135.543 212ZM132.676 202.883H132.73L134.176 207.5H131.23L132.676 202.883ZM142.73 212V202.672H145.996V200.727H137.113V202.672H140.371V212H142.73ZM149.66 212V200.727H147.301V212H149.66ZM156.621 200.531C153.277 200.531 151.184 202.773 151.184 206.367C151.184 209.953 153.277 212.195 156.621 212.195C159.957 212.195 162.059 209.953 162.059 206.367C162.059 202.773 159.957 200.531 156.621 200.531ZM156.621 202.5C158.465 202.5 159.645 204 159.645 206.367C159.645 208.727 158.465 210.219 156.621 210.219C154.77 210.219 153.59 208.727 153.59 206.367C153.59 204 154.777 202.5 156.621 202.5ZM165.84 212V204.617H165.91L171.184 212H173.137V200.727H170.879V208.07H170.816L165.551 200.727H163.582V212H165.84ZM174.598 208.789C174.668 210.906 176.395 212.195 179.105 212.195C181.902 212.195 183.676 210.812 183.676 208.625C183.676 206.906 182.691 205.938 180.434 205.453L179.066 205.164C177.77 204.867 177.223 204.477 177.223 203.781C177.223 202.945 178.004 202.391 179.168 202.391C180.348 202.391 181.184 202.969 181.262 203.922H183.473C183.434 201.883 181.785 200.531 179.16 200.531C176.645 200.531 174.848 201.906 174.848 203.984C174.848 205.633 175.871 206.688 177.949 207.133L179.418 207.453C180.777 207.758 181.316 208.164 181.316 208.898C181.316 209.727 180.457 210.328 179.199 210.328C177.949 210.328 176.98 209.719 176.871 208.789H174.598Z" fill="#393E50"/>
<path d="M66.6289 471.366V460.093H64.2695V471.366H66.6289ZM70.7617 471.366V463.983H70.832L76.1055 471.366H78.0586V460.093H75.8008V467.437H75.7383L70.4727 460.093H68.5039V471.366H70.7617ZM84.9961 471.366V462.038H88.2617V460.093H79.3789V462.038H82.6367V471.366H84.9961ZM97.0352 469.413H91.9258V466.569H96.7461V464.757H91.9258V462.038H97.0352V460.093H89.5664V471.366H97.0352V469.413ZM101.098 461.937H103.105C104.277 461.937 105.012 462.64 105.012 463.733C105.012 464.851 104.316 465.53 103.129 465.53H101.098V461.937ZM101.098 467.241H102.988L105.09 471.366H107.762L105.387 466.89C106.684 466.382 107.434 465.132 107.434 463.687C107.434 461.46 105.949 460.093 103.355 460.093H98.7383V471.366H101.098V467.241ZM111.246 471.366V463.983H111.316L116.59 471.366H118.543V460.093H116.285V467.437H116.223L110.957 460.093H108.988V471.366H111.246ZM127.895 469.413H122.785V466.569H127.605V464.757H122.785V462.038H127.895V460.093H120.426V471.366H127.895V469.413ZM134.652 471.366V462.038H137.918V460.093H129.035V462.038H132.293V471.366H134.652Z" fill="#393E50"/>
<path d="M564.387 460.093V471.366H568.691C572.074 471.366 574.066 469.265 574.066 465.687C574.066 462.108 572.074 460.093 568.691 460.093H564.387ZM566.746 462.038H568.41C570.488 462.038 571.66 463.335 571.66 465.694C571.66 468.132 570.52 469.413 568.41 469.413H566.746V462.038ZM582.504 471.366H585.012L581.09 460.093H578.316L574.402 471.366H576.824L577.684 468.632H581.645L582.504 471.366ZM579.637 462.249H579.691L581.137 466.866H578.191L579.637 462.249ZM589.691 471.366V462.038H592.957V460.093H584.074V462.038H587.332V471.366H589.691ZM600.113 471.366H602.621L598.699 460.093H595.926L592.012 471.366H594.434L595.293 468.632H599.254L600.113 471.366ZM597.246 462.249H597.301L598.746 466.866H595.801L597.246 462.249ZM608.77 471.366C611.176 471.366 612.668 470.124 612.668 468.14C612.668 466.647 611.543 465.53 610.012 465.413V465.351C611.207 465.171 612.129 464.14 612.129 462.905C612.129 461.179 610.801 460.093 608.684 460.093H603.777V471.366H608.77ZM606.137 461.851H608.074C609.176 461.851 609.809 462.366 609.809 463.272C609.809 464.226 609.09 464.78 607.832 464.78H606.137V461.851ZM606.137 469.608V466.335H608.113C609.504 466.335 610.262 466.897 610.262 467.952C610.262 469.03 609.527 469.608 608.168 469.608H606.137ZM621.395 471.366H623.902L619.98 460.093H617.207L613.293 471.366H615.715L616.574 468.632H620.535L621.395 471.366ZM618.527 462.249H618.582L620.027 466.866H617.082L618.527 462.249ZM624.402 468.155C624.473 470.272 626.199 471.562 628.91 471.562C631.707 471.562 633.48 470.179 633.48 467.991C633.48 466.272 632.496 465.304 630.238 464.819L628.871 464.53C627.574 464.233 627.027 463.843 627.027 463.147C627.027 462.312 627.809 461.757 628.973 461.757C630.152 461.757 630.988 462.335 631.066 463.288H633.277C633.238 461.249 631.59 459.897 628.965 459.897C626.449 459.897 624.652 461.272 624.652 463.351C624.652 464.999 625.676 466.054 627.754 466.499L629.223 466.819C630.582 467.124 631.121 467.53 631.121 468.265C631.121 469.093 630.262 469.694 629.004 469.694C627.754 469.694 626.785 469.085 626.676 468.155H624.402ZM642.402 469.413H637.293V466.569H642.113V464.757H637.293V462.038H642.402V460.093H634.934V471.366H642.402V469.413Z" fill="#393E50"/>
<defs>
<linearGradient id="paint0_linear_393_3422" x1="653.311" y1="155.274" x2="569.735" y2="71.6525" gradientUnits="userSpaceOnUse">
<stop stop-color="#4647AA"/>
<stop offset="1" stop-color="#7F5EC1"/>
</linearGradient>
<linearGradient id="paint1_linear_393_3422" x1="563.837" y1="126.867" x2="659.122" y2="126.867" gradientUnits="userSpaceOnUse">
<stop stop-color="#414F92"/>
<stop offset="1" stop-color="#5CA5F7"/>
</linearGradient>
<linearGradient id="paint2_linear_393_3422" x1="570.81" y1="121.221" x2="570.81" y2="131.141" gradientUnits="userSpaceOnUse">
<stop stop-color="#71D2F9"/>
<stop offset="1" stop-color="#51B9F8"/>
</linearGradient>
<linearGradient id="paint3_linear_393_3422" x1="580.564" y1="121.221" x2="580.564" y2="131.141" gradientUnits="userSpaceOnUse">
<stop stop-color="#71D2F9"/>
<stop offset="1" stop-color="#51B9F8"/>
</linearGradient>
<linearGradient id="paint4_linear_393_3422" x1="626.316" y1="126.883" x2="555.061" y2="126.883" gradientUnits="userSpaceOnUse">
<stop stop-color="#CBE1F2"/>
<stop offset="1" stop-color="#AED2ED"/>
</linearGradient>
<linearGradient id="paint5_linear_393_3422" x1="640.575" y1="126.867" x2="569.321" y2="126.867" gradientUnits="userSpaceOnUse">
<stop stop-color="#CBE1F2"/>
<stop offset="1" stop-color="#AED2ED"/>
</linearGradient>
<linearGradient id="paint6_linear_393_3422" x1="579.327" y1="134.48" x2="571.218" y2="139.43" gradientUnits="userSpaceOnUse">
<stop stop-color="#71D2F9"/>
<stop offset="1" stop-color="#51B9F8"/>
</linearGradient>
<linearGradient id="paint7_linear_393_3422" x1="637.21" y1="134.48" x2="629.101" y2="139.43" gradientUnits="userSpaceOnUse">
<stop stop-color="#71D2F9"/>
<stop offset="1" stop-color="#51B9F8"/>
</linearGradient>
<linearGradient id="paint8_linear_393_3422" x1="563.837" y1="105.425" x2="659.122" y2="105.425" gradientUnits="userSpaceOnUse">
<stop stop-color="#414F92"/>
<stop offset="1" stop-color="#5CA5F7"/>
</linearGradient>
<linearGradient id="paint9_linear_393_3422" x1="620.303" y1="100.867" x2="620.303" y2="108.601" gradientUnits="userSpaceOnUse">
<stop stop-color="#71D2F9"/>
<stop offset="1" stop-color="#51B9F8"/>
</linearGradient>
<linearGradient id="paint10_linear_393_3422" x1="627.768" y1="100.867" x2="627.768" y2="108.601" gradientUnits="userSpaceOnUse">
<stop stop-color="#71D2F9"/>
<stop offset="1" stop-color="#51B9F8"/>
</linearGradient>
<linearGradient id="paint11_linear_393_3422" x1="579.327" y1="113.037" x2="571.218" y2="117.988" gradientUnits="userSpaceOnUse">
<stop stop-color="#71D2F9"/>
<stop offset="1" stop-color="#51B9F8"/>
</linearGradient>
<linearGradient id="paint12_linear_393_3422" x1="637.21" y1="113.037" x2="629.101" y2="117.988" gradientUnits="userSpaceOnUse">
<stop stop-color="#71D2F9"/>
<stop offset="1" stop-color="#51B9F8"/>
</linearGradient>
<linearGradient id="paint13_linear_393_3422" x1="563.837" y1="83.9827" x2="659.122" y2="83.9827" gradientUnits="userSpaceOnUse">
<stop stop-color="#414F92"/>
<stop offset="1" stop-color="#5CA5F7"/>
</linearGradient>
<linearGradient id="paint14_linear_393_3422" x1="566.245" y1="83.9825" x2="590.393" y2="83.9825" gradientUnits="userSpaceOnUse">
<stop stop-color="#CBE1F2"/>
<stop offset="1" stop-color="#AED2ED"/>
</linearGradient>
<linearGradient id="paint15_linear_393_3422" x1="627.768" y1="79.425" x2="627.768" y2="87.1587" gradientUnits="userSpaceOnUse">
<stop stop-color="#71D2F9"/>
<stop offset="1" stop-color="#51B9F8"/>
</linearGradient>
<linearGradient id="paint16_linear_393_3422" x1="579.327" y1="91.5951" x2="571.218" y2="96.5457" gradientUnits="userSpaceOnUse">
<stop stop-color="#71D2F9"/>
<stop offset="1" stop-color="#51B9F8"/>
</linearGradient>
<linearGradient id="paint17_linear_393_3422" x1="637.21" y1="91.5951" x2="629.101" y2="96.5457" gradientUnits="userSpaceOnUse">
<stop stop-color="#71D2F9"/>
<stop offset="1" stop-color="#51B9F8"/>
</linearGradient>
<linearGradient id="paint18_linear_393_3422" x1="659.944" y1="429.992" x2="554.663" y2="324.653" gradientUnits="userSpaceOnUse">
<stop stop-color="#4E7AC5"/>
<stop offset="1" stop-color="#6FCCF9"/>
</linearGradient>
<linearGradient id="paint19_linear_393_3422" x1="644.669" y1="422.332" x2="571.27" y2="382.977" gradientUnits="userSpaceOnUse">
<stop stop-color="#414F92"/>
<stop offset="1" stop-color="#5CA5F7"/>
</linearGradient>
<linearGradient id="paint20_linear_393_3422" x1="569.347" y1="379.205" x2="637.878" y2="401.595" gradientUnits="userSpaceOnUse">
<stop stop-color="#71D2F9"/>
<stop offset="1" stop-color="#51B9F8"/>
</linearGradient>
<linearGradient id="paint21_linear_393_3422" x1="644.669" y1="399.006" x2="571.27" y2="359.651" gradientUnits="userSpaceOnUse">
<stop stop-color="#414F92"/>
<stop offset="1" stop-color="#5CA5F7"/>
</linearGradient>
<linearGradient id="paint22_linear_393_3422" x1="569.347" y1="355.879" x2="637.878" y2="378.269" gradientUnits="userSpaceOnUse">
<stop stop-color="#71D2F9"/>
<stop offset="1" stop-color="#51B9F8"/>
</linearGradient>
<linearGradient id="paint23_linear_393_3422" x1="644.669" y1="375.681" x2="571.27" y2="336.326" gradientUnits="userSpaceOnUse">
<stop stop-color="#414F92"/>
<stop offset="1" stop-color="#5CA5F7"/>
</linearGradient>
<linearGradient id="paint24_linear_393_3422" x1="569.347" y1="332.554" x2="637.878" y2="354.944" gradientUnits="userSpaceOnUse">
<stop stop-color="#71D2F9"/>
<stop offset="1" stop-color="#51B9F8"/>
</linearGradient>
<linearGradient id="paint25_linear_393_3422" x1="162.388" y1="430.444" x2="20.7246" y2="288.703" gradientUnits="userSpaceOnUse">
<stop stop-color="#4183C7"/>
<stop offset="0.99505" stop-color="#15EEFF"/>
</linearGradient>
<linearGradient id="paint26_linear_393_3422" x1="156.369" y1="418.525" x2="58.9232" y2="324.884" gradientUnits="userSpaceOnUse">
<stop stop-color="#414F92"/>
<stop offset="1" stop-color="#5CA5F7"/>
</linearGradient>
<linearGradient id="paint27_linear_393_3422" x1="132.072" y1="437.952" x2="34.627" y2="344.311" gradientUnits="userSpaceOnUse">
<stop stop-color="#414F92"/>
<stop offset="1" stop-color="#5CA5F7"/>
</linearGradient>
<linearGradient id="paint28_linear_393_3422" x1="133.112" y1="442.853" x2="35.2401" y2="348.802" gradientUnits="userSpaceOnUse">
<stop stop-color="#414F92"/>
<stop offset="1" stop-color="#5CA5F7"/>
</linearGradient>
<linearGradient id="paint29_linear_393_3422" x1="75" y1="355.518" x2="136.41" y2="355.518" gradientUnits="userSpaceOnUse">
<stop stop-color="#00469F"/>
<stop offset="1" stop-color="#1E79D6"/>
</linearGradient>
<linearGradient id="paint30_linear_393_3422" x1="54.0464" y1="158.664" x2="158.636" y2="54.0165" gradientUnits="userSpaceOnUse">
<stop stop-color="#00469F"/>
<stop offset="1" stop-color="#1E79D6"/>
</linearGradient>
<linearGradient id="paint31_linear_393_3422" x1="152.015" y1="146.283" x2="61.2984" y2="66.5244" gradientUnits="userSpaceOnUse">
<stop stop-color="#414F92"/>
<stop offset="1" stop-color="#5CA5F7"/>
</linearGradient>
<linearGradient id="paint32_linear_393_3422" x1="107.915" y1="144.497" x2="65.7183" y2="102.277" gradientUnits="userSpaceOnUse">
<stop stop-color="#414F92"/>
<stop offset="1" stop-color="#5CA5F7"/>
</linearGradient>
<linearGradient id="paint33_linear_393_3422" x1="100.75" y1="117.513" x2="146.31" y2="117.513" gradientUnits="userSpaceOnUse">
<stop stop-color="#00469F"/>
<stop offset="1" stop-color="#1E79D6"/>
</linearGradient>
<linearGradient id="paint34_linear_393_3422" x1="63" y1="88.4239" x2="146.091" y2="88.4239" gradientUnits="userSpaceOnUse">
<stop stop-color="#00469F"/>
<stop offset="1" stop-color="#1E79D6"/>
</linearGradient>
<linearGradient id="paint35_linear_393_3422" x1="64.0613" y1="100.674" x2="96.8151" y2="133.446" gradientUnits="userSpaceOnUse">
<stop stop-color="#71D2F9"/>
<stop offset="1" stop-color="#51B9F8"/>
</linearGradient>
<linearGradient id="paint36_linear_393_3422" x1="438.556" y1="315.319" x2="250.2" y2="126.86" gradientUnits="userSpaceOnUse">
<stop stop-color="#414F92"/>
<stop offset="1" stop-color="#5CA5F7"/>
</linearGradient>
<linearGradient id="paint37_linear_393_3422" x1="362.193" y1="193.246" x2="362.193" y2="266.872" gradientUnits="userSpaceOnUse">
<stop stop-color="#71D2F9"/>
<stop offset="1" stop-color="#51B9F8"/>
</linearGradient>
<linearGradient id="paint38_linear_393_3422" x1="399.717" y1="268.871" x2="361.637" y2="230.77" gradientUnits="userSpaceOnUse">
<stop stop-color="#4647AA"/>
<stop offset="1" stop-color="#7F5EC1"/>
</linearGradient>
<linearGradient id="paint39_linear_393_3422" x1="406.047" y1="311.615" x2="376.783" y2="282.336" gradientUnits="userSpaceOnUse">
<stop stop-color="#4647AA"/>
<stop offset="1" stop-color="#7F5EC1"/>
</linearGradient>
<linearGradient id="paint40_linear_393_3422" x1="326.779" y1="181.796" x2="326.779" y2="212.172" gradientUnits="userSpaceOnUse">
<stop stop-color="#71D2F9"/>
<stop offset="1" stop-color="#51B9F8"/>
</linearGradient>
</defs>
</svg>
