<svg width="51" height="50" viewBox="0 0 51 50" fill="none" xmlns="http://www.w3.org/2000/svg">
<path d="M25.6914 35.1562C30.0061 35.1562 33.5039 31.6585 33.5039 27.3438C33.5039 23.029 30.0061 19.5312 25.6914 19.5312C21.3767 19.5312 17.8789 23.029 17.8789 27.3438C17.8789 31.6585 21.3767 35.1562 25.6914 35.1562Z" stroke="url(#paint0_linear_3091_48627)" stroke-width="2" stroke-linecap="round" stroke-linejoin="round"/>
<path d="M14.4414 42.1884C15.4704 40.0811 17.0705 38.3052 19.0595 37.063C21.0485 35.8207 23.3464 35.1621 25.6914 35.1621C28.0365 35.1621 30.3344 35.8207 32.3233 37.063C34.3123 38.3052 35.9125 40.0811 36.9414 42.1884" stroke="url(#paint1_linear_3091_48627)" stroke-width="2" stroke-linecap="round" stroke-linejoin="round"/>
<path d="M40.6328 22.7734C43.7079 23.2159 46.4822 24.8594 48.3477 27.3438" stroke="url(#paint2_linear_3091_48627)" stroke-width="2" stroke-linecap="round" stroke-linejoin="round"/>
<path d="M33.3281 13.7116C33.7819 12.7645 34.467 11.947 35.3202 11.3346C36.1733 10.7223 37.1671 10.3347 38.2096 10.2079C39.2521 10.081 40.3097 10.2189 41.2848 10.6088C42.26 10.9986 43.1211 11.6279 43.7888 12.4386C44.4565 13.2492 44.9091 14.215 45.105 15.2467C45.3008 16.2785 45.2334 17.343 44.9092 18.3419C44.5849 19.3407 44.0142 20.2418 43.2497 20.9618C42.4852 21.6819 41.5516 22.1976 40.5352 22.4616" stroke="url(#paint3_linear_3091_48627)" stroke-width="2" stroke-linecap="round" stroke-linejoin="round"/>
<path d="M10.8474 22.4616C9.8309 22.1976 8.8973 21.6819 8.13281 20.9618C7.36832 20.2418 6.7976 19.3407 6.47334 18.3419C6.14909 17.343 6.08176 16.2785 6.27758 15.2467C6.47339 14.215 6.92604 13.2492 7.59372 12.4386C8.26139 11.6279 9.12256 10.9986 10.0977 10.6088C11.0728 10.2189 12.1305 10.081 13.173 10.2079C14.2155 10.3347 15.2092 10.7223 16.0624 11.3346C16.9155 11.947 17.6006 12.7645 18.0544 13.7116" stroke="url(#paint4_linear_3091_48627)" stroke-width="2" stroke-linecap="round" stroke-linejoin="round"/>
<path d="M3.03516 27.3438C4.90063 24.8594 7.6749 23.2159 10.75 22.7734" stroke="url(#paint5_linear_3091_48627)" stroke-width="2" stroke-linecap="round" stroke-linejoin="round"/>
<defs>
<linearGradient id="paint0_linear_3091_48627" x1="17.8789" y1="27.5549" x2="33.5039" y2="27.5549" gradientUnits="userSpaceOnUse">
<stop stop-color="#00469F"/>
<stop offset="1" stop-color="#1E79D6"/>
</linearGradient>
<linearGradient id="paint1_linear_3091_48627" x1="14.4414" y1="38.7702" x2="36.9414" y2="38.7702" gradientUnits="userSpaceOnUse">
<stop stop-color="#00469F"/>
<stop offset="1" stop-color="#1E79D6"/>
</linearGradient>
<linearGradient id="paint2_linear_3091_48627" x1="40.6328" y1="25.1204" x2="48.3477" y2="25.1204" gradientUnits="userSpaceOnUse">
<stop stop-color="#00469F"/>
<stop offset="1" stop-color="#1E79D6"/>
</linearGradient>
<linearGradient id="paint3_linear_3091_48627" x1="33.3281" y1="16.478" x2="45.2146" y2="16.478" gradientUnits="userSpaceOnUse">
<stop stop-color="#00469F"/>
<stop offset="1" stop-color="#1E79D6"/>
</linearGradient>
<linearGradient id="paint4_linear_3091_48627" x1="6.16797" y1="16.478" x2="18.0544" y2="16.478" gradientUnits="userSpaceOnUse">
<stop stop-color="#00469F"/>
<stop offset="1" stop-color="#1E79D6"/>
</linearGradient>
<linearGradient id="paint5_linear_3091_48627" x1="3.03516" y1="25.1204" x2="10.75" y2="25.1204" gradientUnits="userSpaceOnUse">
<stop stop-color="#00469F"/>
<stop offset="1" stop-color="#1E79D6"/>
</linearGradient>
</defs>
</svg>
