<svg width="604" height="346" viewBox="0 0 604 346" fill="none" xmlns="http://www.w3.org/2000/svg">
<path d="M20.334 45.3135C18.1913 45.3136 16.0967 44.6783 14.3151 43.488C12.5335 42.2976 11.1448 40.6057 10.3248 38.6261C9.50476 36.6466 9.29015 34.4683 9.70811 32.3668C10.1261 30.2653 11.1578 28.3349 12.6729 26.8197C14.188 25.3046 16.1183 24.2727 18.2198 23.8547C20.3213 23.4366 22.4996 23.6511 24.4792 24.4711C26.4588 25.291 28.1508 26.6796 29.3412 28.4612C30.5316 30.2427 31.167 32.3373 31.167 34.48C31.1638 37.3521 30.0214 40.1057 27.9905 42.1367C25.9597 44.1676 23.2061 45.3101 20.334 45.3135ZM20.334 26.6465C18.7847 26.6464 17.2701 27.1057 15.9818 27.9664C14.6935 28.8271 13.6894 30.0505 13.0964 31.4819C12.5035 32.9133 12.3483 34.4883 12.6505 36.0079C12.9527 37.5275 13.6987 38.9233 14.7942 40.0189C15.8897 41.1145 17.2855 41.8606 18.8051 42.1629C20.3246 42.4652 21.8997 42.3101 23.3311 41.7173C24.7626 41.1244 25.986 40.1203 26.8468 38.8321C27.7076 37.5439 28.167 36.0293 28.167 34.48C28.1646 32.4032 27.3386 30.4122 25.8702 28.9437C24.4017 27.4751 22.4108 26.649 20.334 26.6465Z" fill="url(#paint0_linear_410_2756)"/>
<path d="M59.1773 112.01C57.0346 112.01 54.9401 111.375 53.1586 110.184C51.377 108.994 49.9885 107.302 49.1685 105.322C48.3485 103.343 48.1339 101.165 48.5519 99.0633C48.9698 96.9618 50.0015 95.0315 51.5166 93.5164C53.0316 92.0013 54.9619 90.9695 57.0633 90.5515C59.1647 90.1334 61.3429 90.3479 63.3225 91.1678C65.302 91.9877 66.994 93.3762 68.1844 95.1577C69.3748 96.9392 70.0102 99.0337 70.0103 101.176C70.007 104.048 68.8647 106.802 66.8338 108.833C64.8029 110.864 62.0494 112.006 59.1773 112.01ZM59.1773 93.3433C57.628 93.3432 56.1134 93.8026 54.8252 94.6633C53.537 95.524 52.533 96.7474 51.9401 98.1787C51.3472 99.6101 51.192 101.185 51.4943 102.705C51.7965 104.224 52.5425 105.62 53.6381 106.715C54.7336 107.811 56.1294 108.557 57.6489 108.859C59.1684 109.162 60.7434 109.006 62.1748 108.413C63.6061 107.821 64.8295 106.816 65.6902 105.528C66.5509 104.24 67.0103 102.726 67.0103 101.176C67.0079 99.0996 66.1818 97.1086 64.7134 95.6401C63.2449 94.1717 61.254 93.3457 59.1773 93.3433Z" fill="url(#paint1_linear_410_2756)"/>
<path d="M43.5249 69.1377C43.1406 69.1376 42.7649 69.0235 42.4454 68.8099C42.1258 68.5963 41.8768 68.2928 41.7298 67.9377C41.5828 67.5826 41.5444 67.1919 41.6194 66.8149C41.6945 66.438 41.8796 66.0917 42.1514 65.82C42.4232 65.5483 42.7694 65.3632 43.1464 65.2883C43.5234 65.2133 43.9141 65.2518 44.2691 65.3989C44.6242 65.546 44.9277 65.7951 45.1412 66.1147C45.3547 66.4342 45.4687 66.8099 45.4687 67.1943C45.4682 67.7096 45.2632 68.2037 44.8988 68.5681C44.5344 68.9324 44.0402 69.1373 43.5249 69.1377ZM43.5249 66.251C43.3383 66.2511 43.156 66.3065 43.0009 66.4102C42.8459 66.5139 42.725 66.6613 42.6537 66.8337C42.5824 67.0061 42.5638 67.1957 42.6002 67.3787C42.6367 67.5616 42.7266 67.7297 42.8585 67.8616C42.9905 67.9934 43.1586 68.0832 43.3416 68.1196C43.5245 68.1559 43.7142 68.1372 43.8865 68.0658C44.0589 67.9944 44.2062 67.8735 44.3098 67.7183C44.4134 67.5632 44.4687 67.3808 44.4687 67.1943C44.4684 66.9441 44.3688 66.7043 44.1919 66.5274C44.0149 66.3506 43.7751 66.2512 43.5249 66.251Z" fill="url(#paint2_linear_410_2756)"/>
<path d="M2.11137 93.2681C1.72698 93.268 1.35123 93.154 1.03164 92.9404C0.712048 92.7268 0.462963 92.4233 0.315882 92.0682C0.1688 91.713 0.130324 91.3222 0.205324 90.9452C0.280325 90.5682 0.465433 90.2219 0.737238 89.9501C1.00904 89.6783 1.35534 89.4932 1.73234 89.4182C2.10934 89.3432 2.50013 89.3817 2.85526 89.5288C3.2104 89.6759 3.51395 89.9249 3.72753 90.2445C3.94111 90.5641 4.05513 90.9399 4.05517 91.3243C4.05467 91.8396 3.84972 92.3338 3.48529 92.6982C3.12087 93.0626 2.62674 93.2676 2.11137 93.2681ZM2.11137 90.3809C1.92474 90.3809 1.74232 90.4363 1.58717 90.54C1.43202 90.6437 1.3111 90.7911 1.23972 90.9635C1.16834 91.136 1.14969 91.3257 1.18614 91.5087C1.22258 91.6918 1.31249 91.8599 1.44448 91.9918C1.57648 92.1238 1.74463 92.2136 1.92768 92.25C2.11072 92.2863 2.30045 92.2676 2.47286 92.1962C2.64526 92.1247 2.79261 92.0037 2.89626 91.8485C2.99991 91.6933 3.05521 91.5109 3.05517 91.3243C3.05481 91.0741 2.95524 90.8343 2.77831 90.6575C2.60138 90.4806 2.36153 90.3811 2.11137 90.3809V90.3809Z" fill="url(#paint3_linear_410_2756)"/>
<path d="M88.0097 91.8242C87.6254 91.8242 87.2496 91.7102 86.9301 91.4967C86.6105 91.2831 86.3614 90.9796 86.2143 90.6245C86.0672 90.2694 86.0288 89.8787 86.1037 89.5017C86.1787 89.1247 86.3638 88.7785 86.6356 88.5067C86.9074 88.2349 87.2537 88.0498 87.6306 87.9748C88.0076 87.8999 88.3983 87.9383 88.7534 88.0854C89.1085 88.2325 89.412 88.4816 89.6256 88.8012C89.8391 89.1207 89.9531 89.4964 89.9531 89.8808C89.9525 90.396 89.7475 90.89 89.3832 91.2543C89.0189 91.6186 88.5249 91.8236 88.0097 91.8242ZM88.0097 88.9375C87.8231 88.9375 87.6407 88.9929 87.4856 89.0965C87.3305 89.2002 87.2096 89.3475 87.1382 89.5199C87.0668 89.6923 87.0481 89.882 87.0845 90.0649C87.1209 90.2479 87.2108 90.416 87.3427 90.5479C87.4747 90.6799 87.6428 90.7697 87.8258 90.8061C88.0088 90.8425 88.1984 90.8238 88.3708 90.7524C88.5432 90.681 88.6905 90.5601 88.7941 90.4049C88.8978 90.2498 88.9531 90.0674 88.9531 89.8808C88.9527 89.6307 88.8532 89.391 88.6764 89.2142C88.4995 89.0374 88.2598 88.9379 88.0097 88.9375Z" fill="url(#paint4_linear_410_2756)"/>
<path d="M132.475 74.1992C132.09 74.1992 131.715 74.0852 131.395 73.8717C131.075 73.6582 130.826 73.3547 130.679 72.9996C130.532 72.6445 130.494 72.2537 130.569 71.8768C130.644 71.4998 130.829 71.1535 131.1 70.8817C131.372 70.6099 131.718 70.4248 132.095 70.3499C132.472 70.2749 132.863 70.3133 133.218 70.4604C133.573 70.6075 133.877 70.8566 134.09 71.1761C134.304 71.4957 134.418 71.8714 134.418 72.2558C134.417 72.771 134.213 73.2651 133.848 73.6294C133.484 73.9937 132.99 74.1987 132.475 74.1992ZM132.475 71.3125C132.288 71.3125 132.106 71.3678 131.951 71.4715C131.795 71.5751 131.674 71.7224 131.603 71.8948C131.532 72.0672 131.513 72.2569 131.549 72.4399C131.586 72.6229 131.676 72.791 131.808 72.9229C131.939 73.0548 132.108 73.1447 132.291 73.1811C132.474 73.2175 132.663 73.1988 132.836 73.1274C133.008 73.056 133.155 72.9351 133.259 72.7799C133.363 72.6248 133.418 72.4424 133.418 72.2558C133.418 72.0057 133.318 71.766 133.141 71.5892C132.964 71.4123 132.725 71.3128 132.475 71.3125Z" fill="url(#paint5_linear_410_2756)"/>
<path d="M116.331 104.564C115.946 104.564 115.57 104.45 115.251 104.236C114.931 104.023 114.682 103.719 114.535 103.364C114.388 103.009 114.349 102.618 114.424 102.241C114.499 101.864 114.684 101.517 114.956 101.246C115.228 100.974 115.574 100.789 115.951 100.714C116.328 100.639 116.719 100.677 117.074 100.824C117.429 100.971 117.733 101.221 117.947 101.54C118.16 101.86 118.274 102.236 118.274 102.62C118.273 103.135 118.068 103.629 117.704 103.994C117.34 104.358 116.846 104.563 116.331 104.564ZM116.331 101.676C116.144 101.676 115.962 101.732 115.806 101.835C115.651 101.939 115.53 102.086 115.459 102.259C115.387 102.431 115.368 102.621 115.405 102.804C115.441 102.987 115.531 103.155 115.663 103.287C115.795 103.419 115.963 103.509 116.146 103.545C116.329 103.582 116.519 103.563 116.691 103.492C116.864 103.42 117.011 103.3 117.115 103.144C117.219 102.989 117.274 102.807 117.274 102.62C117.274 102.37 117.174 102.13 116.997 101.953C116.821 101.776 116.581 101.677 116.331 101.676Z" fill="url(#paint6_linear_410_2756)"/>
<path d="M5.00008 86.98C4.33022 86.98 3.67541 86.7814 3.11845 86.4092C2.56149 86.037 2.12741 85.508 1.87108 84.8891C1.61474 84.2703 1.54768 83.5893 1.67836 82.9323C1.80905 82.2753 2.13162 81.6718 2.60528 81.1981C3.07893 80.7244 3.68241 80.4019 4.3394 80.2712C4.99639 80.1405 5.67738 80.2075 6.29627 80.4638C6.91516 80.7201 7.44414 81.1542 7.81633 81.7111C8.18853 82.2681 8.38722 82.9229 8.38728 83.5928C8.38627 84.4908 8.02908 85.3518 7.39408 85.9868C6.75908 86.6218 5.89812 86.979 5.00008 86.98ZM5.00008 81.2061C4.52797 81.2061 4.06648 81.3461 3.67396 81.6085C3.28143 81.8708 2.97552 82.2436 2.7949 82.6798C2.61427 83.116 2.56704 83.5959 2.65919 84.059C2.75134 84.522 2.97873 84.9473 3.3126 85.2811C3.64646 85.6149 4.07181 85.8422 4.53486 85.9342C4.9979 86.0263 5.47785 85.979 5.914 85.7983C6.35015 85.6175 6.72292 85.3115 6.98516 84.919C7.2474 84.5264 7.38734 84.0649 7.38728 83.5928C7.38649 82.9599 7.13471 82.3532 6.68718 81.9058C6.23965 81.4584 5.63292 81.2067 5.00008 81.2061Z" fill="url(#paint7_linear_410_2756)"/>
<path d="M35.086 116.647C34.4161 116.647 33.7613 116.448 33.2043 116.076C32.6474 115.703 32.2133 115.174 31.957 114.556C31.7006 113.937 31.6336 113.256 31.7643 112.599C31.8951 111.942 32.2177 111.338 32.6914 110.864C33.1651 110.391 33.7686 110.068 34.4256 109.938C35.0827 109.807 35.7637 109.874 36.3826 110.13C37.0014 110.387 37.5304 110.821 37.9025 111.378C38.2747 111.935 38.4733 112.59 38.4732 113.26C38.4723 114.158 38.1151 115.019 37.4801 115.654C36.845 116.289 35.984 116.646 35.086 116.647ZM35.086 110.873C34.6139 110.873 34.1525 111.013 33.7599 111.275C33.3674 111.537 33.0615 111.91 32.8809 112.346C32.7002 112.782 32.653 113.262 32.7451 113.725C32.8372 114.188 33.0645 114.614 33.3984 114.947C33.7322 115.281 34.1575 115.509 34.6205 115.601C35.0835 115.693 35.5634 115.646 35.9996 115.465C36.4358 115.284 36.8085 114.978 37.0709 114.586C37.3332 114.193 37.4732 113.732 37.4732 113.26C37.4726 112.627 37.2208 112.02 36.7733 111.572C36.3258 111.125 35.7189 110.873 35.086 110.873Z" fill="url(#paint8_linear_410_2756)"/>
<path d="M80.7623 44.3136C80.0924 44.3136 79.4375 44.1149 78.8804 43.7427C78.3234 43.3706 77.8892 42.8415 77.6329 42.2226C77.3765 41.6037 77.3094 40.9226 77.4401 40.2655C77.5708 39.6085 77.8934 39.0049 78.3671 38.5312C78.8408 38.0575 79.4443 37.7349 80.1014 37.6042C80.7584 37.4735 81.4395 37.5405 82.0585 37.7969C82.6774 38.0532 83.2064 38.4874 83.5786 39.0444C83.9508 39.6014 84.1495 40.2563 84.1495 40.9263C84.1486 41.8243 83.7914 42.6854 83.1564 43.3204C82.5214 43.9554 81.6604 44.3126 80.7623 44.3136ZM80.7623 38.5391C80.2901 38.5391 79.8286 38.6791 79.436 38.9414C79.0434 39.2037 78.7374 39.5765 78.5567 40.0127C78.376 40.4489 78.3288 40.9289 78.4209 41.392C78.513 41.8551 78.7404 42.2805 79.0742 42.6144C79.4081 42.9482 79.8335 43.1756 80.2965 43.2677C80.7596 43.3598 81.2396 43.3125 81.6758 43.1318C82.1121 42.9511 82.4849 42.6452 82.7472 42.2526C83.0095 41.86 83.1495 41.3984 83.1495 40.9263C83.1488 40.2933 82.8971 39.6865 82.4496 39.239C82.002 38.7914 81.3952 38.5397 80.7623 38.5391Z" fill="url(#paint9_linear_410_2756)"/>
<path d="M124.594 91.5059C123.924 91.5059 123.269 91.3072 122.712 90.935C122.155 90.5628 121.721 90.0338 121.465 89.4149C121.208 88.796 121.141 88.1149 121.272 87.4579C121.403 86.8009 121.726 86.1974 122.199 85.7238C122.673 85.2501 123.276 84.9276 123.934 84.797C124.591 84.6663 125.272 84.7335 125.89 84.9899C126.509 85.2463 127.038 85.6804 127.41 86.2375C127.782 86.7945 127.981 87.4494 127.981 88.1192C127.98 89.0172 127.623 89.8782 126.988 90.5131C126.353 91.1481 125.492 91.5051 124.594 91.5059ZM124.594 85.732C124.122 85.7321 123.66 85.8721 123.268 86.1344C122.875 86.3967 122.569 86.7695 122.389 87.2057C122.208 87.6418 122.161 88.1218 122.253 88.5848C122.345 89.0478 122.572 89.4731 122.906 89.8069C123.24 90.1407 123.665 90.3681 124.128 90.4602C124.591 90.5523 125.071 90.505 125.507 90.3244C125.944 90.1437 126.316 89.8378 126.579 89.4453C126.841 89.0528 126.981 88.5913 126.981 88.1192C126.98 87.4863 126.729 86.8795 126.281 86.432C125.834 85.9844 125.227 85.7327 124.594 85.732V85.732Z" fill="url(#paint10_linear_410_2756)"/>
<path d="M136.805 52.5865C136.135 52.5866 135.481 52.388 134.924 52.0158C134.366 51.6437 133.932 51.1148 133.676 50.4959C133.419 49.877 133.352 49.196 133.483 48.539C133.614 47.882 133.936 47.2784 134.41 46.8047C134.883 46.331 135.487 46.0084 136.144 45.8776C136.801 45.7469 137.482 45.8139 138.101 46.0702C138.72 46.3266 139.249 46.7606 139.621 47.3176C139.993 47.8746 140.192 48.5294 140.192 49.1993C140.191 50.0972 139.834 50.9581 139.199 51.5931C138.564 52.2281 137.703 52.5853 136.805 52.5865ZM136.805 46.8126C136.333 46.8125 135.872 46.9525 135.479 47.2148C135.086 47.477 134.78 47.8498 134.6 48.286C134.419 48.7222 134.372 49.2021 134.464 49.6652C134.556 50.1283 134.783 50.5536 135.117 50.8875C135.451 51.2213 135.876 51.4487 136.339 51.5408C136.802 51.6328 137.282 51.5856 137.719 51.4048C138.155 51.2241 138.528 50.9181 138.79 50.5256C139.052 50.133 139.192 49.6714 139.192 49.1993C139.191 48.5666 138.939 47.9599 138.492 47.5125C138.045 47.0651 137.438 46.8134 136.805 46.8126Z" fill="url(#paint11_linear_410_2756)"/>
<path d="M45.3599 51.1173C44.69 51.1173 44.0351 50.9186 43.4781 50.5464C42.921 50.1742 42.4869 49.6452 42.2305 49.0263C41.9741 48.4073 41.907 47.7263 42.0377 47.0692C42.1684 46.4121 42.491 45.8086 42.9648 45.3349C43.4385 44.8612 44.042 44.5386 44.6991 44.4079C45.3562 44.2772 46.0372 44.3442 46.6562 44.6006C47.2751 44.857 47.8041 45.2912 48.1763 45.8482C48.5485 46.4052 48.7472 47.0601 48.7472 47.7301C48.7462 48.6281 48.3891 49.4892 47.754 50.1242C47.119 50.7592 46.258 51.1164 45.3599 51.1173ZM45.3599 45.3428C44.8878 45.3428 44.4262 45.4828 44.0337 45.7451C43.6411 46.0074 43.3351 46.3802 43.1544 46.8164C42.9737 47.2526 42.9264 47.7326 43.0185 48.1957C43.1106 48.6588 43.338 49.0842 43.6718 49.418C44.0057 49.7519 44.4311 49.9793 44.8941 50.0714C45.3572 50.1635 45.8372 50.1163 46.2734 49.9356C46.7096 49.7549 47.0825 49.4489 47.3448 49.0563C47.6071 48.6638 47.7471 48.2022 47.7472 47.7301C47.7465 47.0971 47.4948 46.4903 47.0472 46.0428C46.5997 45.5952 45.9929 45.3435 45.3599 45.3428Z" fill="url(#paint12_linear_410_2756)"/>
<path d="M102.181 75.1992C100.038 75.1992 97.9436 74.5638 96.1621 73.3734C94.3806 72.1829 92.9921 70.491 92.1722 68.5114C91.3523 66.5319 91.1378 64.3537 91.5559 62.2523C91.9739 60.1508 93.0057 58.2206 94.5208 56.7055C96.0359 55.1905 97.9662 54.1588 100.068 53.7408C102.169 53.3229 104.347 53.5375 106.327 54.3574C108.306 55.1774 109.998 56.566 111.189 58.3475C112.379 60.1291 113.014 62.2236 113.014 64.3662C113.011 67.2384 111.868 69.9919 109.837 72.0228C107.806 74.0537 105.053 75.196 102.181 75.1992ZM102.181 56.5327C100.631 56.5328 99.117 56.9922 97.8288 57.853C96.5407 58.7137 95.5367 59.9371 94.9439 61.3684C94.351 62.7998 94.1959 64.3747 94.4982 65.8942C94.8004 67.4137 95.5465 68.8094 96.642 69.9049C97.7374 71.0004 99.1332 71.7464 100.653 72.0487C102.172 72.3509 103.747 72.1958 105.178 71.603C106.61 71.0101 107.833 70.0062 108.694 68.718C109.555 67.4299 110.014 65.9155 110.014 64.3662C110.012 62.2893 109.186 60.2982 107.717 58.8296C106.249 57.361 104.258 56.535 102.181 56.5327Z" fill="url(#paint13_linear_410_2756)"/>
<path d="M572.832 34.48C572.832 32.3374 573.467 30.2429 574.658 28.4614C575.848 26.6799 577.54 25.2914 579.52 24.4715C581.499 23.6516 583.678 23.4371 585.779 23.8552C587.88 24.2732 589.811 25.305 591.326 26.8201C592.841 28.3352 593.873 30.2656 594.29 32.367C594.708 34.4685 594.494 36.6467 593.674 38.6262C592.854 40.6057 591.465 42.2976 589.684 43.4879C587.902 44.6782 585.808 45.3135 583.665 45.3135C580.793 45.3102 578.039 44.1677 576.008 42.1367C573.978 40.1058 572.835 37.3522 572.832 34.48ZM575.832 34.48C575.832 36.0293 576.292 37.5437 577.152 38.8319C578.013 40.12 579.236 41.124 580.668 41.7168C582.099 42.3097 583.674 42.4648 585.194 42.1625C586.713 41.8602 588.109 41.1141 589.204 40.0185C590.3 38.923 591.046 37.5272 591.348 36.0077C591.65 34.4882 591.495 32.9132 590.902 31.4819C590.309 30.0505 589.305 28.8272 588.017 27.9665C586.729 27.1058 585.214 26.6464 583.665 26.6465C581.588 26.6489 579.597 27.475 578.129 28.9436C576.66 30.4121 575.834 32.4032 575.832 34.48Z" fill="url(#paint14_linear_410_2756)"/>
<path d="M533.984 101.176C533.984 99.0337 534.62 96.9392 535.81 95.1577C537.001 93.3762 538.693 91.9877 540.672 91.1678C542.652 90.3479 544.83 90.1334 546.931 90.5515C549.033 90.9695 550.963 92.0013 552.478 93.5164C553.993 95.0315 555.025 96.9618 555.443 99.0633C555.861 101.165 555.646 103.343 554.826 105.322C554.006 107.302 552.618 108.994 550.836 110.184C549.055 111.375 546.96 112.01 544.817 112.01C541.945 112.006 539.192 110.864 537.161 108.833C535.13 106.802 533.988 104.048 533.984 101.176ZM536.984 101.176C536.984 102.726 537.444 104.24 538.304 105.528C539.165 106.816 540.388 107.821 541.82 108.413C543.251 109.006 544.826 109.162 546.346 108.859C547.865 108.557 549.261 107.811 550.357 106.715C551.452 105.62 552.198 104.224 552.5 102.705C552.803 101.185 552.647 99.6101 552.055 98.1787C551.462 96.7474 550.458 95.524 549.169 94.6633C547.881 93.8026 546.367 93.3432 544.817 93.3433C542.741 93.3456 540.75 94.1717 539.281 95.6401C537.813 97.1086 536.987 99.0996 536.984 101.176Z" fill="url(#paint15_linear_410_2756)"/>
<path d="M558.527 67.1943C558.527 66.8099 558.641 66.4341 558.855 66.1145C559.068 65.7948 559.372 65.5457 559.727 65.3985C560.082 65.2514 560.473 65.2128 560.85 65.2878C561.227 65.3627 561.573 65.5478 561.845 65.8196C562.117 66.0914 562.302 66.4377 562.377 66.8147C562.452 67.1917 562.414 67.5825 562.267 67.9377C562.12 68.2929 561.871 68.5965 561.551 68.8101C561.231 69.0237 560.856 69.1377 560.471 69.1377C559.956 69.1372 559.462 68.9323 559.097 68.568C558.733 68.2036 558.528 67.7096 558.527 67.1943ZM559.527 67.1943C559.527 67.381 559.583 67.5634 559.686 67.7186C559.79 67.8738 559.937 67.9948 560.11 68.0663C560.282 68.1378 560.472 68.1565 560.655 68.1202C560.838 68.0838 561.006 67.994 561.138 67.862C561.27 67.7301 561.36 67.562 561.396 67.3789C561.433 67.1959 561.414 67.0062 561.343 66.8337C561.271 66.6613 561.151 66.5139 560.995 66.4102C560.84 66.3064 560.658 66.2511 560.471 66.251C560.221 66.2513 559.981 66.3507 559.804 66.5275C559.627 66.7044 559.528 66.9442 559.527 67.1943Z" fill="url(#paint16_linear_410_2756)"/>
<path d="M599.941 91.3243C599.941 90.9399 600.055 90.5641 600.269 90.2445C600.483 89.9249 600.786 89.6759 601.141 89.5288C601.496 89.3817 601.887 89.3432 602.264 89.4182C602.641 89.4932 602.988 89.6783 603.259 89.9501C603.531 90.2219 603.716 90.5682 603.791 90.9452C603.866 91.3222 603.828 91.713 603.681 92.0682C603.534 92.4233 603.284 92.7268 602.965 92.9404C602.645 93.154 602.27 93.268 601.885 93.2681C601.37 93.2676 600.876 93.0626 600.511 92.6982C600.147 92.3338 599.942 91.8396 599.941 91.3243ZM600.941 91.3243C600.941 91.5109 600.997 91.6933 601.1 91.8485C601.204 92.0037 601.351 92.1247 601.524 92.1962C601.696 92.2676 601.886 92.2863 602.069 92.25C602.252 92.2136 602.42 92.1238 602.552 91.9918C602.684 91.8599 602.774 91.6918 602.81 91.5087C602.847 91.3257 602.828 91.136 602.757 90.9635C602.685 90.7911 602.565 90.6437 602.409 90.54C602.254 90.4363 602.072 90.3809 601.885 90.3809C601.635 90.3811 601.395 90.4806 601.218 90.6574C601.041 90.8343 600.942 91.0741 600.941 91.3243Z" fill="url(#paint17_linear_410_2756)"/>
<path d="M514.043 89.8809C514.043 89.4965 514.157 89.1206 514.37 88.801C514.584 88.4813 514.888 88.2321 515.243 88.085C515.598 87.9379 515.989 87.8994 516.366 87.9743C516.743 88.0493 517.089 88.2345 517.361 88.5063C517.633 88.7781 517.818 89.1245 517.893 89.5015C517.968 89.8786 517.929 90.2694 517.782 90.6246C517.635 90.9798 517.386 91.2833 517.066 91.4969C516.747 91.7104 516.371 91.8244 515.986 91.8243C515.471 91.8238 514.977 91.6189 514.613 91.2545C514.248 90.8902 514.043 90.3962 514.043 89.8809ZM515.043 89.8809C515.043 90.0676 515.098 90.2501 515.202 90.4053C515.306 90.5605 515.453 90.6815 515.625 90.753C515.798 90.8245 515.988 90.8432 516.171 90.8068C516.354 90.7704 516.522 90.6805 516.654 90.5486C516.786 90.4166 516.876 90.2484 516.912 90.0653C516.949 89.8823 516.93 89.6925 516.858 89.52C516.787 89.3476 516.666 89.2002 516.511 89.0965C516.356 88.9929 516.173 88.9376 515.986 88.9376C515.736 88.9379 515.497 89.0374 515.32 89.2143C515.143 89.3911 515.043 89.6308 515.043 89.8809Z" fill="url(#paint18_linear_410_2756)"/>
<path d="M469.578 72.2558C469.578 71.8714 469.692 71.4957 469.906 71.1761C470.119 70.8566 470.423 70.6075 470.778 70.4604C471.133 70.3133 471.524 70.2749 471.901 70.3498C472.278 70.4248 472.624 70.6099 472.896 70.8817C473.167 71.1535 473.353 71.4998 473.427 71.8768C473.502 72.2537 473.464 72.6445 473.317 72.9996C473.17 73.3547 472.921 73.6582 472.601 73.8717C472.282 74.0852 471.906 74.1992 471.521 74.1992C471.006 74.1987 470.512 73.9938 470.148 73.6294C469.784 73.2651 469.579 72.771 469.578 72.2558ZM470.578 72.2558C470.578 72.4424 470.633 72.6248 470.737 72.7799C470.841 72.9351 470.988 73.056 471.16 73.1274C471.333 73.1988 471.523 73.2175 471.706 73.1811C471.889 73.1447 472.057 73.0548 472.189 72.9229C472.32 72.791 472.41 72.6229 472.447 72.4399C472.483 72.2569 472.464 72.0672 472.393 71.8948C472.322 71.7224 472.201 71.5751 472.046 71.4715C471.89 71.3678 471.708 71.3125 471.521 71.3125C471.271 71.3128 471.032 71.4123 470.855 71.5892C470.678 71.766 470.578 72.0057 470.578 72.2558Z" fill="url(#paint19_linear_410_2756)"/>
<path d="M485.723 102.62C485.723 102.236 485.837 101.86 486.05 101.54C486.264 101.221 486.567 100.971 486.922 100.824C487.278 100.677 487.668 100.639 488.045 100.714C488.423 100.789 488.769 100.974 489.041 101.246C489.313 101.517 489.498 101.864 489.573 102.241C489.648 102.618 489.609 103.009 489.462 103.364C489.315 103.719 489.066 104.023 488.746 104.236C488.426 104.45 488.051 104.564 487.666 104.564C487.151 104.563 486.657 104.358 486.293 103.994C485.928 103.629 485.723 103.135 485.723 102.62ZM486.723 102.62C486.723 102.807 486.778 102.989 486.882 103.144C486.986 103.3 487.133 103.42 487.305 103.492C487.478 103.563 487.668 103.582 487.851 103.545C488.034 103.509 488.202 103.419 488.334 103.287C488.466 103.155 488.556 102.987 488.592 102.804C488.628 102.621 488.609 102.431 488.538 102.259C488.467 102.086 488.346 101.939 488.19 101.835C488.035 101.732 487.853 101.676 487.666 101.676C487.416 101.677 487.176 101.776 486.999 101.953C486.822 102.13 486.723 102.37 486.723 102.62Z" fill="url(#paint20_linear_410_2756)"/>
<path d="M595.609 83.5927C595.609 82.9227 595.808 82.2679 596.18 81.7109C596.552 81.1539 597.082 80.7197 597.7 80.4634C598.319 80.207 599 80.14 599.657 80.2707C600.314 80.4014 600.918 80.724 601.392 81.1977C601.865 81.6714 602.188 82.2749 602.319 82.932C602.449 83.589 602.382 84.2701 602.126 84.889C601.87 85.5079 601.435 86.0369 600.878 86.4091C600.321 86.7813 599.667 86.98 598.997 86.98C598.099 86.979 597.238 86.6219 596.602 85.9868C595.967 85.3518 595.61 84.4907 595.609 83.5927ZM596.609 83.5927C596.609 84.0648 596.749 84.5264 597.011 84.9191C597.274 85.3117 597.647 85.6178 598.083 85.7985C598.519 85.9793 598.999 86.0266 599.462 85.9346C599.925 85.8425 600.35 85.6152 600.684 85.2814C601.018 84.9475 601.246 84.5222 601.338 84.0591C601.43 83.596 601.383 83.116 601.202 82.6797C601.021 82.2435 600.715 81.8707 600.323 81.6083C599.93 81.346 599.469 81.206 598.997 81.206C598.364 81.2067 597.757 81.4583 597.31 81.9057C596.862 82.3532 596.61 82.9598 596.609 83.5927Z" fill="url(#paint21_linear_410_2756)"/>
<path d="M565.523 113.26C565.523 112.59 565.722 111.935 566.094 111.378C566.466 110.821 566.995 110.387 567.614 110.13C568.233 109.874 568.914 109.807 569.571 109.938C570.228 110.068 570.832 110.391 571.305 110.864C571.779 111.338 572.102 111.942 572.232 112.599C572.363 113.256 572.296 113.937 572.04 114.556C571.783 115.174 571.349 115.703 570.792 116.076C570.235 116.448 569.581 116.647 568.911 116.647C568.013 116.645 567.152 116.288 566.517 115.653C565.882 115.019 565.525 114.158 565.523 113.26ZM566.523 113.26C566.523 113.732 566.664 114.193 566.926 114.586C567.188 114.978 567.561 115.284 567.997 115.465C568.433 115.646 568.913 115.693 569.376 115.601C569.839 115.509 570.265 115.281 570.598 114.947C570.932 114.614 571.159 114.188 571.252 113.725C571.344 113.262 571.296 112.782 571.116 112.346C570.935 111.91 570.629 111.537 570.237 111.275C569.844 111.013 569.383 110.873 568.911 110.873C568.278 110.873 567.671 111.125 567.223 111.572C566.776 112.02 566.524 112.627 566.523 113.26Z" fill="url(#paint22_linear_410_2756)"/>
<path d="M519.848 40.9262C519.848 40.2564 520.046 39.6016 520.419 39.0446C520.791 38.4877 521.32 38.0536 521.939 37.7973C522.558 37.541 523.239 37.4739 523.896 37.6047C524.553 37.7354 525.156 38.0579 525.63 38.5316C526.103 39.0053 526.426 39.6088 526.557 40.2658C526.687 40.9228 526.62 41.6037 526.364 42.2226C526.108 42.8415 525.673 43.3705 525.117 43.7427C524.56 44.1148 523.905 44.3135 523.235 44.3135C522.337 44.3125 521.476 43.9553 520.841 43.3203C520.206 42.6852 519.849 41.8243 519.848 40.9262ZM520.848 40.9262C520.848 41.3983 520.988 41.8598 521.25 42.2523C521.512 42.6448 521.885 42.9507 522.321 43.1314C522.757 43.312 523.237 43.3593 523.7 43.2672C524.163 43.1751 524.589 42.9477 524.923 42.6139C525.256 42.2801 525.484 41.8548 525.576 41.3918C525.668 40.9288 525.621 40.4488 525.44 40.0127C525.259 39.5765 524.953 39.2037 524.561 38.9414C524.168 38.6791 523.707 38.5391 523.235 38.539C522.602 38.5397 521.995 38.7915 521.548 39.239C521.1 39.6865 520.848 40.2933 520.848 40.9262Z" fill="url(#paint23_linear_410_2756)"/>
<path d="M476.016 88.1192C476.016 87.4493 476.214 86.7945 476.586 86.2375C476.958 85.6804 477.487 85.2463 478.106 84.9899C478.725 84.7335 479.406 84.6663 480.063 84.797C480.72 84.9276 481.324 85.2501 481.797 85.7238C482.271 86.1974 482.594 86.8009 482.724 87.4579C482.855 88.1149 482.788 88.796 482.532 89.4149C482.276 90.0338 481.841 90.5628 481.284 90.935C480.728 91.3072 480.073 91.5059 479.403 91.5059C478.505 91.5049 477.644 91.1478 477.009 90.5129C476.374 89.878 476.017 89.0172 476.016 88.1192ZM477.016 88.1192C477.016 88.5913 477.156 89.0528 477.418 89.4453C477.68 89.8378 478.053 90.1437 478.489 90.3244C478.925 90.505 479.405 90.5523 479.868 90.4602C480.331 90.368 480.757 90.1407 481.09 89.8069C481.424 89.4731 481.652 89.0478 481.744 88.5848C481.836 88.1217 481.789 87.6418 481.608 87.2057C481.427 86.7695 481.121 86.3967 480.729 86.1344C480.336 85.8721 479.875 85.7321 479.403 85.732C478.77 85.7327 478.163 85.9844 477.716 86.432C477.268 86.8795 477.016 87.4863 477.016 88.1192Z" fill="url(#paint24_linear_410_2756)"/>
<path d="M463.805 49.1993C463.805 48.5294 464.003 47.8746 464.376 47.3176C464.748 46.7606 465.277 46.3266 465.896 46.0702C466.515 45.8139 467.196 45.7469 467.853 45.8776C468.51 46.0084 469.113 46.331 469.587 46.8047C470.06 47.2784 470.383 47.882 470.514 48.539C470.644 49.196 470.577 49.877 470.321 50.4959C470.064 51.1148 469.63 51.6437 469.073 52.0158C468.516 52.388 467.861 52.5866 467.191 52.5865C466.293 52.5856 465.432 52.2284 464.797 51.5934C464.163 50.9583 463.805 50.0973 463.805 49.1993ZM464.805 49.1993C464.805 49.6714 464.945 50.133 465.207 50.5256C465.469 50.9181 465.842 51.2241 466.278 51.4048C466.714 51.5856 467.194 51.6328 467.657 51.5408C468.12 51.4487 468.546 51.2213 468.88 50.8875C469.213 50.5536 469.441 50.1283 469.533 49.6652C469.625 49.2021 469.578 48.7222 469.397 48.286C469.216 47.8498 468.91 47.477 468.518 47.2148C468.125 46.9525 467.663 46.8125 467.191 46.8126C466.559 46.8134 465.952 47.0651 465.505 47.5125C465.057 47.9599 464.805 48.5666 464.805 49.1993Z" fill="url(#paint25_linear_410_2756)"/>
<path d="M555.25 47.7299C555.25 47.0601 555.449 46.4053 555.821 45.8484C556.193 45.2914 556.722 44.8573 557.341 44.601C557.96 44.3447 558.641 44.2777 559.298 44.4084C559.955 44.5391 560.558 44.8616 561.032 45.3353C561.506 45.8089 561.828 46.4124 561.959 47.0694C562.089 47.7264 562.022 48.4074 561.766 49.0262C561.51 49.6451 561.076 50.1741 560.519 50.5462C559.962 50.9184 559.307 51.1171 558.637 51.1171C557.739 51.1161 556.878 50.7589 556.243 50.1239C555.608 49.4889 555.251 48.628 555.25 47.7299ZM556.25 47.7299C556.25 48.202 556.39 48.6635 556.652 49.0559C556.915 49.4484 557.288 49.7543 557.724 49.9349C558.16 50.1155 558.64 50.1628 559.103 50.0706C559.566 49.9785 559.991 49.7512 560.325 49.4174C560.659 49.0836 560.886 48.6583 560.978 48.1953C561.07 47.7323 561.023 47.2524 560.842 46.8162C560.662 46.3801 560.356 46.0073 559.963 45.745C559.571 45.4827 559.109 45.3427 558.637 45.3426C558.004 45.3433 557.397 45.5951 556.95 46.0426C556.502 46.4902 556.251 47.097 556.25 47.7299Z" fill="url(#paint26_linear_410_2756)"/>
<path d="M490.984 64.3662C490.984 62.2236 491.62 60.1291 492.81 58.3475C494 56.566 495.692 55.1774 497.672 54.3574C499.651 53.5375 501.829 53.3229 503.931 53.7408C506.032 54.1588 507.963 55.1905 509.478 56.7055C510.993 58.2206 512.025 60.1508 512.443 62.2523C512.861 64.3537 512.646 66.5319 511.826 68.5114C511.006 70.491 509.618 72.1829 507.836 73.3734C506.055 74.5638 503.96 75.1992 501.818 75.1992C498.946 75.196 496.192 74.0536 494.161 72.0227C492.13 69.9919 490.988 67.2384 490.984 64.3662ZM493.984 64.3662C493.984 65.9155 494.444 67.4299 495.305 68.718C496.165 70.0062 497.389 71.0101 498.82 71.603C500.251 72.1958 501.826 72.3509 503.346 72.0487C504.865 71.7464 506.261 71.0004 507.357 69.9049C508.452 68.8094 509.198 67.4137 509.5 65.8942C509.803 64.3747 509.648 62.7998 509.055 61.3684C508.462 59.9371 507.458 58.7137 506.17 57.853C504.882 56.9922 503.367 56.5328 501.818 56.5327C499.741 56.535 497.75 57.361 496.281 58.8296C494.813 60.2982 493.987 62.2893 493.984 64.3662Z" fill="url(#paint27_linear_410_2756)"/>
<path d="M187.711 165.562H416.29C418.605 165.562 420.825 166.482 422.463 168.119C424.1 169.757 425.02 171.977 425.02 174.293V330.031H178.98V174.293C178.98 171.977 179.9 169.757 181.537 168.119C183.175 166.482 185.395 165.562 187.711 165.562Z" fill="#99A3B0"/>
<path d="M422.398 174.293V327.412H181.597V174.293C181.597 172.672 182.241 171.118 183.387 169.972C184.533 168.826 186.088 168.182 187.708 168.182L416.287 168.182C417.908 168.182 419.462 168.826 420.609 169.972C421.755 171.118 422.398 172.672 422.398 174.293Z" fill="#495375"/>
<path d="M412.797 317.809V177.785H191.202V317.809H412.797Z" fill="url(#paint28_linear_410_2756)" fill-opacity="0.12"/>
<path d="M444.087 330.031H159.906V337.527H444.087V330.031Z" fill="#C7D2D7"/>
<path d="M430.72 345.02H173.274C170.59 345.02 167.952 344.331 165.611 343.019C163.271 341.707 161.306 339.816 159.906 337.527H444.087C442.687 339.816 440.723 341.707 438.382 343.019C436.042 344.331 433.403 345.02 430.72 345.02Z" fill="#99A3B0"/>
<path d="M320.656 333.779H283.338C282.846 333.779 282.358 333.682 281.904 333.494C281.449 333.305 281.036 333.029 280.688 332.681C280.34 332.333 280.064 331.92 279.875 331.465C279.687 331.01 279.59 330.523 279.59 330.031H324.404C324.404 330.523 324.307 331.01 324.119 331.465C323.931 331.92 323.655 332.333 323.307 332.681C322.959 333.029 322.545 333.305 322.091 333.494C321.636 333.682 321.148 333.779 320.656 333.779Z" fill="#AAB4BF"/>
<path d="M320.15 227.91H283.848V242.283H320.15V227.91Z" fill="#CAFFFB"/>
<path d="M296.293 235.792V233.022H281.5V235.792V237.319V267.684H322.495V235.792H296.293Z" fill="#7DD3E9"/>
<path d="M216.223 190.438H209.676V193.93H216.223V190.438Z" fill="white"/>
<path d="M253.547 190.438H222.773V193.93H253.547V190.438Z" fill="white"/>
<path d="M206.948 190.438H204.656V193.93H206.948V190.438Z" fill="white"/>
<path d="M216.223 200.041H209.676V203.533H216.223V200.041Z" fill="white"/>
<path d="M253.547 200.041H222.773V203.533H253.547V200.041Z" fill="white"/>
<path d="M206.948 200.041H204.656V203.533H206.948V200.041Z" fill="white"/>
<path d="M216.223 209.644H209.676V213.136H216.223V209.644Z" fill="white"/>
<path d="M253.547 209.644H222.773V213.136H253.547V209.644Z" fill="white"/>
<path d="M206.948 209.644H204.656V213.136H206.948V209.644Z" fill="white"/>
<path d="M216.223 219.247H209.676V222.739H216.223V219.247Z" fill="white"/>
<path d="M253.547 219.247H222.773V222.739H253.547V219.247Z" fill="white"/>
<path d="M206.948 219.247H204.656V222.739H206.948V219.247Z" fill="white"/>
<path d="M216.226 228.85H200.73V232.342H216.226V228.85Z" fill="white"/>
<path d="M262.277 228.85H222.773V232.342H262.277V228.85Z" fill="white"/>
<path d="M216.225 238.454H206.949V241.946H216.225V238.454Z" fill="white"/>
<path d="M266.497 238.454H222.773V241.946H266.497V238.454Z" fill="white"/>
<path d="M350.196 255.806H343.648V259.298H350.196V255.806Z" fill="white"/>
<path d="M387.516 255.806H356.742V259.298H387.516V255.806Z" fill="white"/>
<path d="M340.921 255.806H338.629V259.298H340.921V255.806Z" fill="white"/>
<path d="M350.196 265.409H343.648V268.901H350.196V265.409Z" fill="white"/>
<path d="M374.167 265.409H356.742V268.901H374.167V265.409Z" fill="white"/>
<path d="M340.921 265.409H338.629V268.901H340.921V265.409Z" fill="white"/>
<path d="M350.196 275.013H343.648V278.505H350.196V275.013Z" fill="white"/>
<path d="M394.755 275.013H356.742V278.505H394.755V275.013Z" fill="white"/>
<path d="M340.921 275.013H338.629V278.505H340.921V275.013Z" fill="white"/>
<path d="M350.196 284.616H343.648V288.108H350.196V284.616Z" fill="white"/>
<path d="M382.024 284.616H356.742V288.108H382.024V284.616Z" fill="white"/>
<path d="M340.921 284.616H338.629V288.108H340.921V284.616Z" fill="white"/>
<path d="M216.223 257.66H209.676V261.152H216.223V257.66Z" fill="white"/>
<path d="M253.547 257.66H222.773V261.152H253.547V257.66Z" fill="white"/>
<path d="M206.948 257.66H204.656V261.152H206.948V257.66Z" fill="white"/>
<path d="M216.224 267.263H199.855V270.755H216.224V267.263Z" fill="white"/>
<path d="M258.785 267.263H222.773V270.755H258.785V267.263Z" fill="white"/>
<path d="M216.223 286.469H209.676V289.961H216.223V286.469Z" fill="white"/>
<path d="M253.547 286.469H222.773V289.961H253.547V286.469Z" fill="white"/>
<path d="M206.948 286.469H204.656V289.961H206.948V286.469Z" fill="white"/>
<path d="M216.223 296.072H209.676V299.564H216.223V296.072Z" fill="white"/>
<path d="M253.547 296.072H222.773V299.564H253.547V296.072Z" fill="white"/>
<path d="M206.948 296.072H204.656V299.564H206.948V296.072Z" fill="white"/>
<path d="M216.223 305.675H209.676V309.167H216.223V305.675Z" fill="white"/>
<path d="M253.547 305.675H222.773V309.167H253.547V305.675Z" fill="white"/>
<path d="M206.948 305.675H204.656V309.167H206.948V305.675Z" fill="white"/>
<path d="M341.447 197.007H333.59V200.499H341.447V197.007Z" fill="white"/>
<path d="M388.261 197.007H346.902V200.499H388.261V197.007Z" fill="white"/>
<path d="M397.211 197.007H392.301V200.499H397.211V197.007Z" fill="white"/>
<path d="M341.447 206.807H333.59V210.299H341.447V206.807Z" fill="white"/>
<path d="M388.261 206.807H346.902V210.299H388.261V206.807Z" fill="white"/>
<path d="M397.211 206.807H392.301V210.299H397.211V206.807Z" fill="white"/>
<path d="M341.447 216.607H333.59V220.099H341.447V216.607Z" fill="white"/>
<path d="M375.112 216.607H346.902V220.099H375.112V216.607Z" fill="white"/>
<path d="M341.447 226.406H333.59V229.898H341.447V226.406Z" fill="white"/>
<path d="M367.582 226.406H346.902V229.898H367.582V226.406Z" fill="white"/>
<path d="M264.459 189.384H263.586V220.993H264.459V189.384Z" fill="white"/>
<path d="M293.706 245.437H292.833V217.483H283.685L275.192 208.989H269.043V208.116H275.553L284.047 216.61H293.706V245.437Z" fill="white"/>
<path d="M274.898 263.771H264.023V262.898H274.536L283.03 254.404H293.268V255.277H283.391L274.898 263.771Z" fill="white"/>
<path d="M281.334 298.255H263.148V297.382H280.973L301.906 276.449V260.861H302.779V276.811L281.334 298.255Z" fill="white"/>
<path d="M309.893 243.982H309.02V220.121L321.025 208.116H326.735V208.989H321.387L309.893 220.482V243.982Z" fill="white"/>
<path d="M333.592 275.556H324.226L312.039 263.369V254.84H312.912V263.008L324.588 274.683H333.592V275.556Z" fill="white"/>
<path d="M334.025 251.839H333.152V243.109H342.301V243.982H334.025V251.839Z" fill="white"/>
<path d="M400.21 300.655H382.023V299.782H399.337V284.941H400.21V300.655Z" fill="white"/>
<path d="M379.696 243.109H352.414V243.982H379.696V243.109Z" fill="white"/>
<path d="M394.755 243.109H388.426V243.982H394.755V243.109Z" fill="white"/>
<path d="M275.348 183.787C260.31 177.931 247.391 167.671 238.282 154.35C229.174 141.029 224.3 125.267 224.3 109.13V70.748C224.298 70.1289 224.507 69.5275 224.891 69.0423C225.276 68.5572 225.814 68.2171 226.417 68.0778L248.775 62.8372V43.7311C248.778 43.0695 249.018 42.4309 249.453 41.932C249.887 41.4332 250.487 41.1075 251.142 41.0145L301.998 33.9801V25.167L249.946 32.3666C247.202 32.7462 244.688 34.106 242.868 36.1949C241.048 38.2838 240.045 40.9607 240.046 43.7312V55.9168L224.425 59.5779C221.906 60.1684 219.66 61.5932 218.052 63.621C216.445 65.6488 215.57 68.1604 215.57 70.748V109.13C215.57 127.026 220.975 144.505 231.076 159.278C241.177 174.051 255.503 185.429 272.18 191.922L301.998 203.533V194.164L275.348 183.787Z" fill="#5AA0F1"/>
<path d="M379.573 59.5779L363.953 55.9168V43.7312C363.953 40.9608 362.95 38.2839 361.131 36.195C359.311 34.106 356.796 32.7462 354.052 32.3666L302 25.167V33.9801L352.856 41.0145C353.511 41.1074 354.111 41.433 354.546 41.9319C354.98 42.4308 355.221 43.0695 355.223 43.7311V62.8372L377.581 68.0778C378.184 68.2171 378.722 68.5572 379.107 69.0423C379.492 69.5275 379.7 70.1289 379.698 70.748V109.13C379.698 125.267 374.825 141.029 365.716 154.35C356.608 167.671 343.689 177.931 328.652 183.787L302 194.164V203.533L331.818 191.922C348.495 185.429 362.822 174.051 372.923 159.278C383.024 144.505 388.428 127.026 388.428 109.13V70.748C388.428 68.1604 387.553 65.6488 385.946 63.621C384.339 61.5933 382.093 60.1685 379.573 59.5779Z" fill="#4D89E2"/>
<path d="M248.776 43.731V62.8371L226.418 68.0777C225.814 68.217 225.276 68.5571 224.892 69.0422C224.507 69.5274 224.299 70.1288 224.301 70.7479V109.13C224.301 125.267 229.174 141.029 238.283 154.35C247.391 167.671 260.31 177.931 275.348 183.787L301.999 194.164V33.98L251.142 41.0144C250.487 41.1074 249.888 41.4331 249.453 41.9319C249.019 42.4308 248.778 43.0694 248.776 43.731Z" fill="#4D89E2"/>
<path d="M302 189.48V194.164L328.652 183.787C343.689 177.931 356.608 167.671 365.716 154.35C374.825 141.028 379.698 125.267 379.698 109.13V70.7479C379.7 70.1288 379.492 69.5274 379.107 69.0422C378.722 68.5571 378.184 68.217 377.581 68.0777L355.223 62.8371V43.731C355.221 43.0693 354.98 42.4306 354.546 41.9318C354.111 41.4329 353.511 41.1072 352.856 41.0144L302 33.98V189.48Z" fill="url(#paint29_linear_410_2756)"/>
<path d="M339.975 102.741H264.023V153.376H339.975V102.741Z" fill="#D6F7EE"/>
<path d="M283.228 95.1851H273.625V102.741H283.228V95.1851Z" fill="#9DD3E4"/>
<path d="M329.06 95.1851H319.457V102.741H329.06V95.1851Z" fill="#9DD3E4"/>
<path d="M329.061 87.6815C329.061 80.3302 326.141 73.28 320.943 68.0818C315.745 62.8837 308.694 59.9634 301.343 59.9634C293.992 59.9634 286.942 62.8837 281.743 68.0818C276.545 73.28 273.625 80.3302 273.625 87.6815V95.1851H283.228V87.6815C283.223 85.2991 283.687 82.9389 284.595 80.7362C285.503 78.5334 286.836 76.5314 288.519 74.8448C290.202 73.1581 292.2 71.82 294.401 70.907C296.602 69.9939 298.961 69.524 301.343 69.524C303.726 69.524 306.085 69.9939 308.285 70.907C310.486 71.82 312.485 73.1581 314.167 74.8448C315.85 76.5314 317.184 78.5334 318.091 80.7362C318.999 82.9389 319.464 85.2991 319.458 87.6815V95.1851H329.061V87.6815Z" fill="#D6F7EE"/>
<path d="M308.563 121.366C308.564 120.228 308.269 119.109 307.706 118.119C307.144 117.13 306.335 116.304 305.357 115.722C304.379 115.14 303.266 114.822 302.129 114.8C300.991 114.777 299.867 115.051 298.867 115.595C297.867 116.138 297.025 116.932 296.425 117.899C295.825 118.866 295.486 119.972 295.442 121.109C295.399 122.246 295.651 123.375 296.176 124.385C296.7 125.395 297.478 126.251 298.433 126.87L295.438 141.314H308.563L305.567 126.87C306.486 126.276 307.242 125.461 307.766 124.499C308.289 123.538 308.563 122.46 308.563 121.366Z" fill="#252735"/>
<path opacity="0.6" d="M372.363 141.404H519.029C520.418 141.404 521.75 141.956 522.733 142.938C523.715 143.92 524.267 145.253 524.267 146.642V195.531C524.267 196.92 523.715 198.252 522.733 199.234C521.75 200.217 520.418 200.769 519.029 200.769H372.363C370.974 200.769 369.642 200.217 368.659 199.234C367.677 198.252 367.125 196.92 367.125 195.531V146.642C367.125 145.253 367.677 143.92 368.659 142.938C369.641 141.956 370.974 141.404 372.363 141.404Z" fill="url(#paint30_linear_410_2756)"/>
<g opacity="0.7">
<path opacity="0.7" d="M386.141 149.916H381.066V153.408H386.141V149.916Z" fill="white"/>
<path opacity="0.7" d="M430.74 149.916H390.125V153.408H430.74V149.916Z" fill="white"/>
<path opacity="0.7" d="M386.141 157.7H381.066V161.192H386.141V157.7Z" fill="white"/>
<path opacity="0.7" d="M430.74 157.7H390.125V161.192H430.74V157.7Z" fill="white"/>
<path opacity="0.7" d="M444.418 165.484H390.125V168.976H444.418V165.484Z" fill="white"/>
<path opacity="0.7" d="M510.328 150.134H456.492V156.245H510.328V150.134Z" fill="white"/>
<path opacity="0.7" d="M510.328 160.61H456.492V166.721H510.328V160.61Z" fill="white"/>
<path opacity="0.7" d="M390.124 181.134C390.124 182.029 389.858 182.905 389.361 183.65C388.863 184.395 388.156 184.975 387.328 185.318C386.501 185.661 385.59 185.75 384.712 185.575C383.833 185.401 383.026 184.969 382.393 184.336C381.76 183.703 381.328 182.896 381.153 182.017C380.979 181.139 381.068 180.228 381.411 179.401C381.754 178.573 382.334 177.866 383.079 177.368C383.824 176.871 384.699 176.605 385.595 176.605C386.19 176.605 386.779 176.722 387.328 176.95C387.878 177.177 388.377 177.511 388.797 177.931C389.218 178.352 389.552 178.851 389.779 179.401C390.007 179.95 390.124 180.539 390.124 181.134Z" fill="#8BF6F1"/>
<path opacity="0.7" d="M404.964 181.134C404.964 182.029 404.698 182.905 404.2 183.65C403.703 184.395 402.996 184.975 402.168 185.318C401.341 185.661 400.43 185.75 399.551 185.575C398.673 185.401 397.866 184.969 397.233 184.336C396.599 183.703 396.168 182.896 395.993 182.017C395.819 181.139 395.908 180.228 396.251 179.401C396.594 178.573 397.174 177.866 397.919 177.368C398.664 176.871 399.539 176.605 400.435 176.605C401.03 176.605 401.619 176.722 402.168 176.95C402.718 177.177 403.217 177.511 403.637 177.931C404.058 178.352 404.391 178.851 404.619 179.401C404.847 179.95 404.964 180.539 404.964 181.134Z" fill="#8BF6F1"/>
<path opacity="0.7" d="M419.808 181.134C419.808 182.029 419.542 182.905 419.044 183.65C418.547 184.395 417.839 184.975 417.012 185.318C416.184 185.661 415.274 185.75 414.395 185.575C413.517 185.401 412.71 184.969 412.076 184.336C411.443 183.703 411.012 182.896 410.837 182.017C410.662 181.139 410.752 180.228 411.095 179.401C411.437 178.573 412.018 177.866 412.763 177.368C413.507 176.871 414.383 176.605 415.279 176.605C415.873 176.605 416.462 176.722 417.012 176.95C417.561 177.177 418.061 177.511 418.481 177.931C418.902 178.352 419.235 178.851 419.463 179.401C419.69 179.95 419.808 180.539 419.808 181.134Z" fill="#8BF6F1"/>
<path opacity="0.7" d="M390.124 190.059H381.066V193.551H390.124V190.059Z" fill="white"/>
<path opacity="0.7" d="M404.964 190.059H395.906V193.551H404.964V190.059Z" fill="white"/>
<path opacity="0.7" d="M419.808 190.059H410.75V193.551H419.808V190.059Z" fill="white"/>
<path opacity="0.7" d="M434.647 190.059H425.59V193.551H434.647V190.059Z" fill="white"/>
<path opacity="0.7" d="M449.487 190.059H440.43V193.551H449.487V190.059Z" fill="white"/>
<path opacity="0.7" d="M498.544 176.469H476.863V179.961H498.544V176.469Z" fill="white"/>
<path opacity="0.7" d="M498.544 183.163H476.863V186.655H498.544V183.163Z" fill="white"/>
<path opacity="0.7" d="M498.544 189.856H476.863V193.348H498.544V189.856Z" fill="white"/>
</g>
<path opacity="0.6" d="M402.019 242.935H537.773C539.162 242.935 540.494 243.487 541.477 244.469C542.459 245.452 543.011 246.784 543.011 248.173V297.062C543.011 298.451 542.459 299.783 541.476 300.766C540.494 301.748 539.162 302.3 537.773 302.3H402.019C401.331 302.3 400.65 302.164 400.015 301.901C399.379 301.638 398.802 301.252 398.315 300.766C397.829 300.279 397.443 299.702 397.18 299.066C396.917 298.431 396.781 297.75 396.781 297.062V248.173C396.781 246.784 397.333 245.452 398.315 244.469C399.298 243.487 400.63 242.935 402.019 242.935Z" fill="url(#paint31_linear_410_2756)"/>
<g opacity="0.7">
<path opacity="0.7" d="M442.128 290.192H424.555V289.319H441.255V272.619H442.128V290.192Z" fill="white"/>
<path opacity="0.7" d="M407.853 272.619H406.98V255.044H424.554V255.917H407.853V272.619Z" fill="white"/>
<path opacity="0.7" d="M433.834 263.338H415.273V281.899H433.834V263.338Z" fill="white"/>
<path opacity="0.7" d="M475.263 253.449H454.035V256.941H475.263V253.449Z" fill="white"/>
<path opacity="0.7" d="M498.688 260.141H454.035V263.633H498.688V260.141Z" fill="white"/>
<path opacity="0.7" d="M498.688 266.834H454.035V270.327H498.688V266.834Z" fill="white"/>
<path opacity="0.7" d="M487.339 273.528H454.035V277.02H487.339V273.528Z" fill="white"/>
<path opacity="0.7" d="M459.258 282.549H454.035V285.168H459.258V282.549Z" fill="white"/>
<path opacity="0.7" d="M483.412 282.549H463.203V285.168H483.412V282.549Z" fill="white"/>
<path opacity="0.7" d="M505.092 282.549H487.938V285.168H505.092V282.549Z" fill="white"/>
<path opacity="0.7" d="M459.258 288.732H454.035V291.351H459.258V288.732Z" fill="white"/>
<path opacity="0.7" d="M483.412 288.732H463.203V291.351H483.412V288.732Z" fill="white"/>
<path opacity="0.7" d="M498.689 288.732H487.938V291.351H498.689V288.732Z" fill="white"/>
<path opacity="0.7" d="M512.514 251.448H511.641V293.789H512.514V251.448Z" fill="white"/>
<path opacity="0.7" d="M519.57 254.148H516.805V255.894H519.57V254.148Z" fill="white"/>
<path opacity="0.7" d="M532.809 254.148H522.914V255.894H532.809V254.148Z" fill="white"/>
<path opacity="0.7" d="M519.57 258.059H516.805V259.805H519.57V258.059Z" fill="white"/>
<path opacity="0.7" d="M532.809 258.059H522.914V259.805H532.809V258.059Z" fill="white"/>
<path opacity="0.7" d="M519.57 261.969H516.805V263.715H519.57V261.969Z" fill="white"/>
<path opacity="0.7" d="M532.809 261.969H522.914V263.715H532.809V261.969Z" fill="white"/>
<path opacity="0.7" d="M519.57 269.79H516.805V271.536H519.57V269.79Z" fill="white"/>
<path opacity="0.7" d="M532.809 269.79H522.914V271.536H532.809V269.79Z" fill="white"/>
<path opacity="0.7" d="M519.57 273.7H516.805V275.446H519.57V273.7Z" fill="white"/>
<path opacity="0.7" d="M532.809 273.7H522.914V275.446H532.809V273.7Z" fill="white"/>
<path opacity="0.7" d="M519.57 277.61H516.805V279.356H519.57V277.61Z" fill="white"/>
<path opacity="0.7" d="M532.809 277.61H522.914V279.356H532.809V277.61Z" fill="white"/>
<path opacity="0.7" d="M519.57 285.431H516.805V287.177H519.57V285.431Z" fill="white"/>
<path opacity="0.7" d="M532.809 285.431H522.914V287.177H532.809V285.431Z" fill="white"/>
<path opacity="0.7" d="M519.57 289.341H516.805V291.087H519.57V289.341Z" fill="white"/>
<path opacity="0.7" d="M532.809 289.341H522.914V291.087H532.809V289.341Z" fill="white"/>
</g>
<path opacity="0.6" d="M208.12 228.588L88.2001 228.588C86.6488 228.588 85.161 227.972 84.0641 226.875C82.9672 225.778 82.351 224.291 82.351 222.739V157.613C82.351 156.061 82.9672 154.574 84.0641 153.477C85.1611 152.38 86.6489 151.764 88.2002 151.764H208.12C209.671 151.764 211.159 152.38 212.256 153.477C213.352 154.574 213.969 156.061 213.969 157.613V222.739C213.969 224.29 213.352 225.778 212.256 226.875C211.159 227.972 209.671 228.588 208.12 228.588Z" fill="url(#paint32_linear_410_2756)"/>
<g opacity="0.8">
<path opacity="0.8" d="M115.186 187.385C120.208 187.385 124.279 183.314 124.279 178.293C124.279 173.271 120.208 169.2 115.186 169.2C110.165 169.2 106.094 173.271 106.094 178.293C106.094 183.314 110.165 187.385 115.186 187.385Z" fill="white"/>
<path opacity="0.8" d="M115.188 190.147C118.777 190.147 122.219 191.573 124.756 194.11C127.294 196.648 128.72 200.09 128.72 203.679V210.881H101.656V203.679C101.656 201.902 102.006 200.142 102.686 198.5C103.366 196.859 104.363 195.367 105.62 194.11C106.876 192.854 108.368 191.857 110.01 191.177C111.651 190.497 113.411 190.147 115.188 190.147Z" fill="white"/>
<path opacity="0.8" d="M96.8535 182.872H95.9805V164.102H113.586V164.975H96.8535V182.872Z" fill="white"/>
<path opacity="0.8" d="M134.032 216.774H116.426V215.901H133.159V198.004H134.032V216.774Z" fill="white"/>
<path opacity="0.8" d="M108.86 215.901H96.418V216.774H108.86V215.901Z" fill="white"/>
<path opacity="0.8" d="M134.032 169.2H133.159V164.975H121.082V164.102H134.032V169.2Z" fill="white"/>
<path opacity="0.8" d="M134.029 175.306H133.156V180.398H134.029V175.306Z" fill="white"/>
<path d="M172.371 164.539H143.195V168.031H172.371V164.539Z" fill="white"/>
<path d="M200.341 172.978H143.195V176.47H200.341V172.978Z" fill="white"/>
<path d="M185.391 179.962H143.195V183.454H185.391V179.962Z" fill="white"/>
<path opacity="0.8" d="M147.124 190.438H143.195V193.93H147.124V190.438Z" fill="#8BF6F1"/>
<path d="M170.551 190.438H151.418V193.93H170.551V190.438Z" fill="white"/>
<path opacity="0.8" d="M147.124 197.568H143.195V201.06H147.124V197.568Z" fill="#8BF6F1"/>
<path d="M178.554 197.568H151.418V201.06H178.554V197.568Z" fill="white"/>
<path opacity="0.8" d="M147.124 204.697H143.195V208.189H147.124V204.697Z" fill="#8BF6F1"/>
<path d="M192.959 204.697H151.418V208.189H192.959V204.697Z" fill="white"/>
<path opacity="0.8" d="M147.124 211.827H143.195V215.319H147.124V211.827Z" fill="#8BF6F1"/>
<path d="M184.595 211.827H151.418V215.319H184.595V211.827Z" fill="white"/>
</g>
<path opacity="0.6" d="M191.211 310.879H66.225C64.8358 310.879 63.5034 310.327 62.5211 309.345C61.5388 308.362 60.9869 307.03 60.9869 305.641V270.575C60.9869 269.186 61.5388 267.853 62.5211 266.871C63.5034 265.889 64.8358 265.337 66.225 265.337H191.211C192.6 265.337 193.933 265.889 194.915 266.871C195.897 267.853 196.449 269.186 196.449 270.575V305.641C196.449 306.329 196.314 307.01 196.05 307.645C195.787 308.281 195.401 308.858 194.915 309.345C194.429 309.831 193.851 310.217 193.216 310.48C192.58 310.743 191.899 310.879 191.211 310.879Z" fill="url(#paint33_linear_410_2756)"/>
<g opacity="0.8">
<path opacity="0.8" d="M88.1224 274.465H71.5352V291.053H88.1224V274.465Z" fill="white"/>
<path opacity="0.8" d="M111.548 272.865H104.418V276.357H111.548V272.865Z" fill="white"/>
<path opacity="0.8" d="M137.591 272.865H117.512V276.357H137.591V272.865Z" fill="white"/>
<path opacity="0.8" d="M185.9 272.865H172.914V276.357H185.9V272.865Z" fill="#8BF6F1"/>
<path opacity="0.8" d="M185.9 279.558H172.914V283.05H185.9V279.558Z" fill="#8BF6F1"/>
<path opacity="0.8" d="M185.9 286.251H172.914V289.743H185.9V286.251Z" fill="#8BF6F1"/>
<path opacity="0.8" d="M185.9 292.944H172.914V296.436H185.9V292.944Z" fill="#8BF6F1"/>
<path opacity="0.8" d="M185.9 299.637H172.914V303.129H185.9V299.637Z" fill="#8BF6F1"/>
<path opacity="0.8" d="M149.7 279.558H104.418V283.05H149.7V279.558Z" fill="white"/>
<path opacity="0.8" d="M139.993 286.396H104.418V289.889H139.993V286.396Z" fill="white"/>
<path opacity="0.8" d="M153.161 293.235H104.418V296.727H153.161V293.235Z" fill="white"/>
<path opacity="0.8" d="M158.108 300.073H104.418V303.565H158.108V300.073Z" fill="white"/>
<path opacity="0.8" d="M98.3066 272.028H97.4336V304.403H98.3066V272.028Z" fill="white"/>
<path opacity="0.8" d="M166.33 272.028H165.457V304.403H166.33V272.028Z" fill="white"/>
</g>
<path d="M198.75 30.48C197.019 30.48 195.328 29.9668 193.889 29.0053C192.45 28.0439 191.328 26.6773 190.666 25.0785C190.004 23.4796 189.831 21.7203 190.168 20.0229C190.506 18.3256 191.339 16.7665 192.563 15.5428C193.787 14.3191 195.346 13.4857 197.043 13.1481C198.74 12.8105 200.5 12.9838 202.098 13.646C203.697 14.3083 205.064 15.4298 206.025 16.8687C206.987 18.3077 207.5 19.9994 207.5 21.73C207.497 24.0498 206.575 26.2739 204.934 27.9142C203.294 29.5546 201.07 30.4773 198.75 30.48ZM198.75 13.98C197.217 13.98 195.719 14.4345 194.444 15.2861C193.17 16.1377 192.177 17.3481 191.59 18.7642C191.003 20.1803 190.85 21.7386 191.149 23.2419C191.448 24.7453 192.186 26.1262 193.27 27.2101C194.354 28.2939 195.735 29.032 197.238 29.3311C198.741 29.6301 200.3 29.4766 201.716 28.89C203.132 28.3035 204.342 27.3101 205.194 26.0356C206.045 24.7612 206.5 23.2628 206.5 21.73C206.498 19.6753 205.68 17.7053 204.228 16.2524C202.775 14.7995 200.805 13.9823 198.75 13.98Z" fill="url(#paint34_linear_410_2756)"/>
<path d="M220.5 21.98C219.61 21.98 218.74 21.7161 218 21.2216C217.26 20.7271 216.683 20.0243 216.343 19.2021C216.002 18.3798 215.913 17.475 216.086 16.6021C216.26 15.7292 216.689 14.9273 217.318 14.298C217.947 13.6687 218.749 13.2401 219.622 13.0664C220.495 12.8928 221.4 12.9819 222.222 13.3225C223.044 13.6631 223.747 14.2399 224.242 14.9799C224.736 15.7199 225 16.59 225 17.48C224.999 18.6731 224.524 19.8169 223.681 20.6605C222.837 21.5041 221.693 21.9787 220.5 21.98ZM220.5 13.98C219.808 13.98 219.131 14.1853 218.556 14.5698C217.98 14.9544 217.531 15.5011 217.266 16.1406C217.002 16.7801 216.932 17.4839 217.067 18.1628C217.202 18.8417 217.536 19.4654 218.025 19.9549C218.515 20.4443 219.138 20.7777 219.817 20.9127C220.496 21.0478 221.2 20.9785 221.839 20.7136C222.479 20.4487 223.026 20.0001 223.41 19.4245C223.795 18.8489 224 18.1722 224 17.48C223.999 16.5521 223.63 15.6625 222.974 15.0063C222.318 14.3502 221.428 13.9811 220.5 13.98Z" fill="url(#paint35_linear_410_2756)"/>
<path d="M388.813 31.105C388.108 31.105 387.419 30.896 386.833 30.5046C386.247 30.1131 385.791 29.5567 385.521 28.9058C385.252 28.2548 385.181 27.5385 385.318 26.8475C385.456 26.1564 385.795 25.5216 386.293 25.0234C386.792 24.5252 387.426 24.1859 388.117 24.0484C388.809 23.911 389.525 23.9815 390.176 24.2512C390.827 24.5208 391.383 24.9774 391.775 25.5633C392.166 26.1491 392.375 26.8379 392.375 27.5425C392.374 28.487 391.998 29.3926 391.33 30.0604C390.663 30.7283 389.757 31.104 388.813 31.105ZM388.813 24.98C388.306 24.98 387.81 25.1303 387.389 25.4118C386.967 25.6934 386.639 26.0936 386.445 26.5619C386.251 27.0301 386.2 27.5453 386.299 28.0424C386.398 28.5395 386.642 28.9961 387.001 29.3544C387.359 29.7128 387.816 29.9569 388.313 30.0557C388.81 30.1546 389.325 30.1039 389.793 29.9099C390.261 29.716 390.662 29.3875 390.943 28.9661C391.225 28.5447 391.375 28.0493 391.375 27.5425C391.374 26.8631 391.104 26.2117 390.624 25.7313C390.143 25.2509 389.492 24.9807 388.813 24.98Z" fill="url(#paint36_linear_410_2756)"/>
<path d="M405.5 17.98C404.511 17.98 403.544 17.6867 402.722 17.1373C401.9 16.5879 401.259 15.807 400.881 14.8934C400.502 13.9798 400.403 12.9744 400.596 12.0045C400.789 11.0346 401.265 10.1437 401.964 9.44445C402.664 8.74519 403.555 8.26898 404.525 8.07606C405.494 7.88313 406.5 7.98215 407.413 8.36059C408.327 8.73902 409.108 9.37989 409.657 10.2021C410.207 11.0244 410.5 11.9911 410.5 12.98C410.498 14.3056 409.971 15.5764 409.034 16.5138C408.096 17.4511 406.826 17.9784 405.5 17.98ZM405.5 8.97999C404.709 8.97999 403.936 9.21458 403.278 9.6541C402.62 10.0936 402.107 10.7183 401.804 11.4492C401.502 12.1802 401.423 12.9844 401.577 13.7603C401.731 14.5363 402.112 15.249 402.672 15.8084C403.231 16.3678 403.944 16.7488 404.72 16.9031C405.496 17.0575 406.3 16.9783 407.031 16.6755C407.762 16.3728 408.386 15.8601 408.826 15.2023C409.265 14.5445 409.5 13.7711 409.5 12.98C409.499 11.9195 409.077 10.9027 408.327 10.1528C407.577 9.40288 406.561 8.9811 405.5 8.97999Z" fill="url(#paint37_linear_410_2756)"/>
<path d="M410.741 34.7471C410.15 34.747 409.571 34.5714 409.079 34.2426C408.587 33.9138 408.204 33.4466 407.978 32.8999C407.751 32.3532 407.692 31.7517 407.808 31.1714C407.923 30.5911 408.208 30.0581 408.626 29.6397C409.045 29.2214 409.578 28.9365 410.158 28.8211C410.739 28.7057 411.34 28.765 411.887 28.9914C412.433 29.2179 412.901 29.6014 413.229 30.0933C413.558 30.5853 413.733 31.1637 413.733 31.7554C413.733 32.5486 413.417 33.3092 412.856 33.87C412.295 34.4309 411.534 34.7463 410.741 34.7471ZM410.741 29.7637C410.347 29.7638 409.962 29.8807 409.635 30.0996C409.307 30.3185 409.052 30.6296 408.901 30.9935C408.751 31.3575 408.711 31.7579 408.788 32.1442C408.865 32.5306 409.055 32.8854 409.334 33.1639C409.612 33.4424 409.967 33.632 410.353 33.7088C410.74 33.7857 411.14 33.7462 411.504 33.5954C411.868 33.4447 412.179 33.1894 412.398 32.8618C412.617 32.5343 412.733 32.1493 412.733 31.7554C412.733 31.2272 412.523 30.7209 412.149 30.3475C411.776 29.9741 411.269 29.7641 410.741 29.7637Z" fill="url(#paint38_linear_410_2756)"/>
<path d="M305.5 8.97999C304.709 8.97999 303.935 8.74539 303.278 8.30586C302.62 7.86633 302.107 7.24162 301.804 6.51072C301.502 5.77981 301.423 4.97554 301.577 4.19962C301.731 3.4237 302.112 2.71097 302.672 2.15156C303.231 1.59215 303.944 1.21118 304.72 1.05684C305.496 0.902499 306.3 0.981716 307.031 1.28447C307.762 1.58722 308.386 2.09991 308.826 2.7577C309.265 3.4155 309.5 4.18886 309.5 4.97999C309.499 6.0405 309.077 7.05726 308.327 7.80716C307.577 8.55706 306.561 8.97885 305.5 8.97999ZM305.5 1.97999C304.907 1.97999 304.327 2.15593 303.833 2.48557C303.34 2.81521 302.955 3.28375 302.728 3.83193C302.501 4.38011 302.442 4.98331 302.558 5.56525C302.673 6.14719 302.959 6.68174 303.379 7.1013C303.798 7.52086 304.333 7.80658 304.915 7.92234C305.497 8.03809 306.1 7.97868 306.648 7.75162C307.196 7.52456 307.665 7.14004 307.994 6.6467C308.324 6.15335 308.5 5.57333 308.5 4.97999C308.499 4.1846 308.183 3.42204 307.62 2.85962C307.058 2.29719 306.295 1.98085 305.5 1.97999Z" fill="url(#paint39_linear_410_2756)"/>
<defs>
<linearGradient id="paint0_linear_410_2756" x1="9.5" y1="34.7728" x2="31.167" y2="34.7728" gradientUnits="userSpaceOnUse">
<stop stop-color="#00469F"/>
<stop offset="1" stop-color="#1E79D6"/>
</linearGradient>
<linearGradient id="paint1_linear_410_2756" x1="48.3438" y1="101.469" x2="70.0103" y2="101.469" gradientUnits="userSpaceOnUse">
<stop stop-color="#00469F"/>
<stop offset="1" stop-color="#1E79D6"/>
</linearGradient>
<linearGradient id="paint2_linear_410_2756" x1="41.582" y1="67.2468" x2="45.4687" y2="67.2468" gradientUnits="userSpaceOnUse">
<stop stop-color="#00469F"/>
<stop offset="1" stop-color="#1E79D6"/>
</linearGradient>
<linearGradient id="paint3_linear_410_2756" x1="0.167969" y1="91.377" x2="4.05517" y2="91.377" gradientUnits="userSpaceOnUse">
<stop stop-color="#00469F"/>
<stop offset="1" stop-color="#1E79D6"/>
</linearGradient>
<linearGradient id="paint4_linear_410_2756" x1="86.0664" y1="89.9334" x2="89.9531" y2="89.9334" gradientUnits="userSpaceOnUse">
<stop stop-color="#00469F"/>
<stop offset="1" stop-color="#1E79D6"/>
</linearGradient>
<linearGradient id="paint5_linear_410_2756" x1="130.531" y1="72.3084" x2="134.418" y2="72.3084" gradientUnits="userSpaceOnUse">
<stop stop-color="#00469F"/>
<stop offset="1" stop-color="#1E79D6"/>
</linearGradient>
<linearGradient id="paint6_linear_410_2756" x1="114.387" y1="102.672" x2="118.274" y2="102.672" gradientUnits="userSpaceOnUse">
<stop stop-color="#00469F"/>
<stop offset="1" stop-color="#1E79D6"/>
</linearGradient>
<linearGradient id="paint7_linear_410_2756" x1="1.61328" y1="83.6846" x2="8.38728" y2="83.6846" gradientUnits="userSpaceOnUse">
<stop stop-color="#00469F"/>
<stop offset="1" stop-color="#1E79D6"/>
</linearGradient>
<linearGradient id="paint8_linear_410_2756" x1="31.6992" y1="113.351" x2="38.4732" y2="113.351" gradientUnits="userSpaceOnUse">
<stop stop-color="#00469F"/>
<stop offset="1" stop-color="#1E79D6"/>
</linearGradient>
<linearGradient id="paint9_linear_410_2756" x1="77.375" y1="41.0179" x2="84.1495" y2="41.0179" gradientUnits="userSpaceOnUse">
<stop stop-color="#00469F"/>
<stop offset="1" stop-color="#1E79D6"/>
</linearGradient>
<linearGradient id="paint10_linear_410_2756" x1="121.207" y1="88.2105" x2="127.981" y2="88.2105" gradientUnits="userSpaceOnUse">
<stop stop-color="#00469F"/>
<stop offset="1" stop-color="#1E79D6"/>
</linearGradient>
<linearGradient id="paint11_linear_410_2756" x1="133.418" y1="49.291" x2="140.192" y2="49.291" gradientUnits="userSpaceOnUse">
<stop stop-color="#00469F"/>
<stop offset="1" stop-color="#1E79D6"/>
</linearGradient>
<linearGradient id="paint12_linear_410_2756" x1="41.9727" y1="47.8216" x2="48.7472" y2="47.8216" gradientUnits="userSpaceOnUse">
<stop stop-color="#00469F"/>
<stop offset="1" stop-color="#1E79D6"/>
</linearGradient>
<linearGradient id="paint13_linear_410_2756" x1="91.3477" y1="64.6588" x2="113.014" y2="64.6588" gradientUnits="userSpaceOnUse">
<stop stop-color="#00469F"/>
<stop offset="1" stop-color="#1E79D6"/>
</linearGradient>
<linearGradient id="paint14_linear_410_2756" x1="572.832" y1="34.773" x2="594.499" y2="34.773" gradientUnits="userSpaceOnUse">
<stop stop-color="#00469F"/>
<stop offset="1" stop-color="#1E79D6"/>
</linearGradient>
<linearGradient id="paint15_linear_410_2756" x1="533.984" y1="101.469" x2="555.651" y2="101.469" gradientUnits="userSpaceOnUse">
<stop stop-color="#00469F"/>
<stop offset="1" stop-color="#1E79D6"/>
</linearGradient>
<linearGradient id="paint16_linear_410_2756" x1="558.527" y1="67.2466" x2="562.415" y2="67.2466" gradientUnits="userSpaceOnUse">
<stop stop-color="#00469F"/>
<stop offset="1" stop-color="#1E79D6"/>
</linearGradient>
<linearGradient id="paint17_linear_410_2756" x1="599.941" y1="91.377" x2="603.829" y2="91.377" gradientUnits="userSpaceOnUse">
<stop stop-color="#00469F"/>
<stop offset="1" stop-color="#1E79D6"/>
</linearGradient>
<linearGradient id="paint18_linear_410_2756" x1="514.043" y1="89.9332" x2="517.93" y2="89.9332" gradientUnits="userSpaceOnUse">
<stop stop-color="#00469F"/>
<stop offset="1" stop-color="#1E79D6"/>
</linearGradient>
<linearGradient id="paint19_linear_410_2756" x1="469.578" y1="72.3084" x2="473.465" y2="72.3084" gradientUnits="userSpaceOnUse">
<stop stop-color="#00469F"/>
<stop offset="1" stop-color="#1E79D6"/>
</linearGradient>
<linearGradient id="paint20_linear_410_2756" x1="485.723" y1="102.672" x2="489.61" y2="102.672" gradientUnits="userSpaceOnUse">
<stop stop-color="#00469F"/>
<stop offset="1" stop-color="#1E79D6"/>
</linearGradient>
<linearGradient id="paint21_linear_410_2756" x1="595.609" y1="83.6843" x2="602.384" y2="83.6843" gradientUnits="userSpaceOnUse">
<stop stop-color="#00469F"/>
<stop offset="1" stop-color="#1E79D6"/>
</linearGradient>
<linearGradient id="paint22_linear_410_2756" x1="565.523" y1="113.351" x2="572.297" y2="113.351" gradientUnits="userSpaceOnUse">
<stop stop-color="#00469F"/>
<stop offset="1" stop-color="#1E79D6"/>
</linearGradient>
<linearGradient id="paint23_linear_410_2756" x1="519.848" y1="41.0181" x2="526.622" y2="41.0181" gradientUnits="userSpaceOnUse">
<stop stop-color="#00469F"/>
<stop offset="1" stop-color="#1E79D6"/>
</linearGradient>
<linearGradient id="paint24_linear_410_2756" x1="476.016" y1="88.2105" x2="482.79" y2="88.2105" gradientUnits="userSpaceOnUse">
<stop stop-color="#00469F"/>
<stop offset="1" stop-color="#1E79D6"/>
</linearGradient>
<linearGradient id="paint25_linear_410_2756" x1="463.805" y1="49.291" x2="470.579" y2="49.291" gradientUnits="userSpaceOnUse">
<stop stop-color="#00469F"/>
<stop offset="1" stop-color="#1E79D6"/>
</linearGradient>
<linearGradient id="paint26_linear_410_2756" x1="555.25" y1="47.8217" x2="562.024" y2="47.8217" gradientUnits="userSpaceOnUse">
<stop stop-color="#00469F"/>
<stop offset="1" stop-color="#1E79D6"/>
</linearGradient>
<linearGradient id="paint27_linear_410_2756" x1="490.984" y1="64.6588" x2="512.651" y2="64.6588" gradientUnits="userSpaceOnUse">
<stop stop-color="#00469F"/>
<stop offset="1" stop-color="#1E79D6"/>
</linearGradient>
<linearGradient id="paint28_linear_410_2756" x1="299.005" y1="177.785" x2="299.005" y2="317.809" gradientUnits="userSpaceOnUse">
<stop stop-color="#00469F"/>
<stop offset="1" stop-color="#1E79D6"/>
</linearGradient>
<linearGradient id="paint29_linear_410_2756" x1="302" y1="116.237" x2="379.698" y2="116.237" gradientUnits="userSpaceOnUse">
<stop stop-color="#00469F"/>
<stop offset="1" stop-color="#1E79D6"/>
</linearGradient>
<linearGradient id="paint30_linear_410_2756" x1="367.125" y1="171.888" x2="524.267" y2="171.888" gradientUnits="userSpaceOnUse">
<stop stop-color="#00469F"/>
<stop offset="1" stop-color="#1E79D6"/>
</linearGradient>
<linearGradient id="paint31_linear_410_2756" x1="396.781" y1="273.42" x2="543.011" y2="273.42" gradientUnits="userSpaceOnUse">
<stop stop-color="#00469F"/>
<stop offset="1" stop-color="#1E79D6"/>
</linearGradient>
<linearGradient id="paint32_linear_410_2756" x1="213.969" y1="189.138" x2="82.351" y2="189.138" gradientUnits="userSpaceOnUse">
<stop stop-color="#00469F"/>
<stop offset="1" stop-color="#1E79D6"/>
</linearGradient>
<linearGradient id="paint33_linear_410_2756" x1="196.449" y1="287.492" x2="60.9869" y2="287.492" gradientUnits="userSpaceOnUse">
<stop stop-color="#00469F"/>
<stop offset="1" stop-color="#1E79D6"/>
</linearGradient>
<linearGradient id="paint34_linear_410_2756" x1="190" y1="21.9665" x2="207.5" y2="21.9665" gradientUnits="userSpaceOnUse">
<stop stop-color="#00469F"/>
<stop offset="1" stop-color="#1E79D6"/>
</linearGradient>
<linearGradient id="paint35_linear_410_2756" x1="216" y1="17.6016" x2="225" y2="17.6016" gradientUnits="userSpaceOnUse">
<stop stop-color="#00469F"/>
<stop offset="1" stop-color="#1E79D6"/>
</linearGradient>
<linearGradient id="paint36_linear_410_2756" x1="385.25" y1="27.6388" x2="392.375" y2="27.6388" gradientUnits="userSpaceOnUse">
<stop stop-color="#00469F"/>
<stop offset="1" stop-color="#1E79D6"/>
</linearGradient>
<linearGradient id="paint37_linear_410_2756" x1="400.5" y1="13.1151" x2="410.5" y2="13.1151" gradientUnits="userSpaceOnUse">
<stop stop-color="#00469F"/>
<stop offset="1" stop-color="#1E79D6"/>
</linearGradient>
<linearGradient id="paint38_linear_410_2756" x1="407.75" y1="31.8362" x2="413.733" y2="31.8362" gradientUnits="userSpaceOnUse">
<stop stop-color="#00469F"/>
<stop offset="1" stop-color="#1E79D6"/>
</linearGradient>
<linearGradient id="paint39_linear_410_2756" x1="301.5" y1="5.08809" x2="309.5" y2="5.08809" gradientUnits="userSpaceOnUse">
<stop stop-color="#00469F"/>
<stop offset="1" stop-color="#1E79D6"/>
</linearGradient>
</defs>
</svg>
