<svg width="56" height="57" viewBox="0 0 56 57" fill="none" xmlns="http://www.w3.org/2000/svg">
<path d="M35 19.75H10.5C9.5335 19.75 8.75 20.5335 8.75 21.5V46C8.75 46.9665 9.5335 47.75 10.5 47.75H35C35.9665 47.75 36.75 46.9665 36.75 46V21.5C36.75 20.5335 35.9665 19.75 35 19.75Z" stroke="url(#paint0_linear_3086_26056)" stroke-width="2" stroke-linecap="round" stroke-linejoin="round"/>
<path d="M35 9.25H31.5" stroke="url(#paint1_linear_3086_26056)" stroke-width="2" stroke-linecap="round" stroke-linejoin="round"/>
<path d="M43.75 9.25H45.5C45.9641 9.25 46.4092 9.43437 46.7374 9.76256C47.0656 10.0908 47.25 10.5359 47.25 11V12.75" stroke="url(#paint2_linear_3086_26056)" stroke-width="2" stroke-linecap="round" stroke-linejoin="round"/>
<path d="M47.25 25V21.5" stroke="url(#paint3_linear_3086_26056)" stroke-width="2" stroke-linecap="round" stroke-linejoin="round"/>
<path d="M43.75 37.25H45.5C45.9641 37.25 46.4092 37.0656 46.7374 36.7374C47.0656 36.4092 47.25 35.9641 47.25 35.5V33.75" stroke="url(#paint4_linear_3086_26056)" stroke-width="2" stroke-linecap="round" stroke-linejoin="round"/>
<path d="M22.75 9.25H21C20.5359 9.25 20.0908 9.43437 19.7626 9.76256C19.4344 10.0908 19.25 10.5359 19.25 11V12.75" stroke="url(#paint5_linear_3086_26056)" stroke-width="2" stroke-linecap="round" stroke-linejoin="round"/>
<defs>
<linearGradient id="paint0_linear_3086_26056" x1="8.75" y1="34.1284" x2="36.75" y2="34.1284" gradientUnits="userSpaceOnUse">
<stop stop-color="#00469F"/>
<stop offset="1" stop-color="#1E79D6"/>
</linearGradient>
<linearGradient id="paint1_linear_3086_26056" x1="31.5" y1="9.76351" x2="35" y2="9.76351" gradientUnits="userSpaceOnUse">
<stop stop-color="#00469F"/>
<stop offset="1" stop-color="#1E79D6"/>
</linearGradient>
<linearGradient id="paint2_linear_3086_26056" x1="43.75" y1="11.0473" x2="47.25" y2="11.0473" gradientUnits="userSpaceOnUse">
<stop stop-color="#00469F"/>
<stop offset="1" stop-color="#1E79D6"/>
</linearGradient>
<linearGradient id="paint3_linear_3086_26056" x1="47.25" y1="23.2973" x2="48.25" y2="23.2973" gradientUnits="userSpaceOnUse">
<stop stop-color="#00469F"/>
<stop offset="1" stop-color="#1E79D6"/>
</linearGradient>
<linearGradient id="paint4_linear_3086_26056" x1="43.75" y1="35.5473" x2="47.25" y2="35.5473" gradientUnits="userSpaceOnUse">
<stop stop-color="#00469F"/>
<stop offset="1" stop-color="#1E79D6"/>
</linearGradient>
<linearGradient id="paint5_linear_3086_26056" x1="19.25" y1="11.0473" x2="22.75" y2="11.0473" gradientUnits="userSpaceOnUse">
<stop stop-color="#00469F"/>
<stop offset="1" stop-color="#1E79D6"/>
</linearGradient>
</defs>
</svg>
