<svg width="1684" height="1669" viewBox="0 0 1684 1669" fill="none" xmlns="http://www.w3.org/2000/svg">
<g filter="url(#filter0_f_1_180)">
<path d="M616.699 621.325C684.463 548.577 953.336 688.889 1026.08 756.654C1098.83 824.419 1102.87 938.326 1035.11 1011.07C967.341 1083.82 853.433 1087.86 780.686 1020.1C707.939 952.331 548.934 694.072 616.699 621.325Z" fill="url(#paint0_angular_1_180)"/>
</g>
<g filter="url(#filter1_f_1_180)">
<path d="M980.62 439.12C1018.55 481.712 924.048 627.798 881.456 665.732C838.863 703.665 773.584 699.889 735.65 657.297C697.717 614.705 701.493 549.425 744.085 511.491C786.677 473.558 942.686 396.528 980.62 439.12Z" fill="#00469F"/>
</g>
<defs>
<filter id="filter0_f_1_180" x="0.261475" y="0.953125" width="1683.14" height="1667.44" filterUnits="userSpaceOnUse" color-interpolation-filters="sRGB">
<feFlood flood-opacity="0" result="BackgroundImageFix"/>
<feBlend mode="normal" in="SourceGraphic" in2="BackgroundImageFix" result="shape"/>
<feGaussianBlur stdDeviation="300" result="effect1_foregroundBlur_1_180"/>
</filter>
<filter id="filter1_f_1_180" x="459.497" y="176.639" width="779.915" height="765.245" filterUnits="userSpaceOnUse" color-interpolation-filters="sRGB">
<feFlood flood-opacity="0" result="BackgroundImageFix"/>
<feBlend mode="normal" in="SourceGraphic" in2="BackgroundImageFix" result="shape"/>
<feGaussianBlur stdDeviation="125" result="effect1_foregroundBlur_1_180"/>
</filter>
<radialGradient id="paint0_angular_1_180" cx="0" cy="0" r="1" gradientUnits="userSpaceOnUse" gradientTransform="translate(825.902 816.199) rotate(-20.9843) scale(288.174 457.688)">
<stop stop-color="#6972CD"/>
<stop offset="1" stop-color="#FF00FF"/>
</radialGradient>
</defs>
</svg>
