<svg width="65" height="65" viewBox="0 0 65 65" fill="none" xmlns="http://www.w3.org/2000/svg">
<rect width="65" height="65" rx="8" fill="white"/>
<path fill-rule="evenodd" clip-rule="evenodd" d="M24.0159 15.0759C23.721 15.2098 23.4157 15.5819 23.3619 15.8731C23.338 16.0024 23.3284 17.0002 23.3407 18.0906C23.3618 19.9604 23.3716 20.0847 23.5134 20.2745C23.7994 20.6572 24.0324 20.7765 24.4937 20.7765C24.955 20.7765 25.1881 20.6571 25.4739 20.2743C25.618 20.0814 25.6243 19.9809 25.6243 17.8952C25.6243 15.8096 25.618 15.709 25.4739 15.5161C25.3912 15.4053 25.2377 15.2506 25.1329 15.1723C24.8914 14.9921 24.3112 14.942 24.0159 15.0759ZM17.0131 17.4143C16.5256 17.6266 16.2536 18.1816 16.3573 18.7523C16.3995 18.9848 16.6225 19.2413 17.8425 20.4614C19.389 22.0079 19.4721 22.0626 20.0951 21.9457C20.4542 21.8784 20.8905 21.442 20.9579 21.083C21.0733 20.4674 21.0109 20.3703 19.5457 18.8901C18.7967 18.1334 18.0783 17.4687 17.9492 17.413C17.6575 17.2871 17.3041 17.2875 17.0131 17.4143ZM31.0223 17.416C30.9019 17.4702 30.1906 18.1336 29.4416 18.8902C27.9764 20.3703 27.9139 20.4674 28.0295 21.083C28.0968 21.442 28.5332 21.8784 28.8922 21.9457C29.5152 22.0626 29.5983 22.0079 31.1448 20.4614C32.3648 19.2413 32.5878 18.9848 32.6301 18.7523C32.8063 17.7826 31.8932 17.0236 31.0223 17.416ZM14.6789 24.4153C14.1953 24.6296 13.9182 25.1875 14.0215 25.7383C14.0853 26.0788 14.4492 26.482 14.7805 26.5795C14.9517 26.6299 15.7704 26.6498 17.0663 26.6351C18.9725 26.6135 19.0966 26.6038 19.2866 26.4617C19.6694 26.1758 19.7887 25.9427 19.7887 25.4815C19.7887 25.0203 19.6693 24.7872 19.2866 24.5013C19.0957 24.3586 18.9782 24.35 16.9934 24.3338C15.3649 24.3206 14.8521 24.3386 14.6789 24.4153ZM24.0195 24.4174C23.6158 24.5968 23.3276 25.0333 23.3257 25.468C23.3252 25.5758 24.9236 30.998 26.8776 37.5175C30.3448 49.0859 30.4366 49.3775 30.6934 49.6386C31.0994 50.0513 31.7509 50.1042 32.1884 49.7599C32.2964 49.675 33.2683 48.2808 34.3482 46.6617C35.4282 45.0426 36.3356 43.7178 36.3648 43.7178C36.394 43.7178 37.8135 45.1106 39.5193 46.8129C42.8776 50.1645 42.771 50.079 43.4412 49.9579C43.6799 49.9148 44.0466 49.5765 46.3177 47.3055C48.5887 45.0345 48.927 44.6677 48.9701 44.429C49.0912 43.7587 49.178 43.8668 45.8092 40.4912C43.5613 38.2388 42.7203 37.352 42.7779 37.2945C42.8217 37.2506 44.1651 36.3392 45.7633 35.269C47.3614 34.1988 48.736 33.2305 48.8179 33.1172C48.9274 32.9658 48.9668 32.7982 48.9668 32.4842C48.9668 32.0301 48.8448 31.7855 48.4881 31.5241C48.2637 31.3595 24.7787 24.3134 24.4678 24.3172C24.3417 24.3188 24.1399 24.3638 24.0195 24.4174ZM35.7299 30.0768C40.8438 31.6103 45.0391 32.8755 45.053 32.8883C45.0668 32.9011 43.9472 33.666 42.5649 34.5881C41.1825 35.5103 39.9821 36.353 39.8973 36.4609C39.708 36.7015 39.6339 37.0637 39.6997 37.4263C39.7432 37.6661 40.1473 38.0985 42.9715 40.9281L46.1936 44.1564L44.681 45.6689L43.1685 47.1814L39.9403 43.9593C37.1107 41.1352 36.6782 40.7311 36.4384 40.6875C36.0758 40.6217 35.7137 40.6958 35.473 40.8851C35.3651 40.97 34.5225 42.1703 33.6003 43.5527C32.6782 44.935 31.9132 46.0547 31.9005 46.0408C31.8876 46.027 30.6225 41.8316 29.089 36.7178C27.5555 31.604 26.2824 27.372 26.2599 27.3135C26.2324 27.2416 26.2538 27.2202 26.3256 27.2477C26.3842 27.2703 30.6162 28.5433 35.7299 30.0768ZM19.351 29.0872C19.2307 29.1414 18.5194 29.8048 17.7704 30.5614C16.3052 32.0415 16.2427 32.1386 16.3582 32.7542C16.4256 33.1133 16.8619 33.5496 17.221 33.6169C17.844 33.7339 17.9271 33.6791 19.4736 32.1327C20.6936 30.9126 20.9166 30.656 20.9588 30.4235C21.1351 29.4538 20.222 28.6948 19.351 29.0872Z" fill="url(#paint0_linear_2542_26785)"/>
<defs>
<linearGradient id="paint0_linear_2542_26785" x1="14" y1="32.973" x2="49.0122" y2="32.973" gradientUnits="userSpaceOnUse">
<stop stop-color="#00469F"/>
<stop offset="1" stop-color="#1E79D6"/>
</linearGradient>
</defs>
</svg>
