<svg xmlns="http://www.w3.org/2000/svg" width="24" height="24" fill="none" xmlns:v="https://vecta.io/nano"><path opacity=".3" d="M5.109 18.891c-.862-.863-.291-2.672-.731-3.731S2.25 13.172 2.25 12s1.669-2.062 2.128-3.159-.131-2.869.731-3.731 2.672-.291 3.731-.731S10.828 2.25 12 2.25s2.063 1.669 3.159 2.128 2.869-.131 3.731.731.291 2.672.731 3.731S21.75 10.828 21.75 12s-1.669 2.063-2.128 3.159.131 2.869-.731 3.731-2.672.291-3.731.731S13.172 21.75 12 21.75s-2.062-1.669-3.159-2.128-2.869.131-3.731-.731z" fill="url(#A)"/><path d="M16.125 9.75L10.6219 15L7.875 12.375" stroke="url(#B)" stroke-width="2" stroke-linecap="round" stroke-linejoin="round"/><defs><linearGradient id="A" x1="2.25" y1="12.264" x2="21.75" y2="12.264" gradientUnits="userSpaceOnUse"><stop stop-color="#00469f"/><stop offset="1" stop-color="#1e79d6"/></linearGradient><linearGradient id="B" x1="7.875" y1="12.446" x2="16.125" y2="12.446" gradientUnits="userSpaceOnUse"><stop stop-color="#00469f"/><stop offset="1" stop-color="#1e79d6"/></linearGradient></defs></svg>