<svg width="82" height="43" viewBox="0 0 82 43" fill="none" xmlns="http://www.w3.org/2000/svg">
<path d="M14.7422 22.1172C15.2513 22.1836 15.7936 22.3496 16.3691 22.6152C16.9447 22.8809 17.4759 23.2572 17.9629 23.7441C18.472 24.2311 18.8926 24.8288 19.2246 25.5371C19.5566 26.2233 19.7227 27.0202 19.7227 27.9277C19.7227 29.0345 19.5566 29.9863 19.2246 30.7832C18.8926 31.5801 18.472 32.2441 17.9629 32.7754C17.4759 33.2845 16.9336 33.694 16.3359 34.0039C15.7604 34.2917 15.196 34.513 14.6426 34.668C14.1113 34.8229 13.6354 34.9225 13.2148 34.9668C12.7943 34.9889 12.5176 35 12.3848 35H8.5332V32.0781H12.1523C13.3255 32.0781 14.2441 31.7018 14.9082 30.9492C15.5723 30.1966 15.9043 29.1895 15.9043 27.9277C15.9043 26.7324 15.5612 25.7253 14.875 24.9062C14.1888 24.0872 13.1816 23.6777 11.8535 23.6777H8.5332V20.9883H10.127C10.6139 20.9883 11.112 20.9772 11.6211 20.9551C12.1302 20.9329 12.6061 20.8112 13.0488 20.5898C13.4915 20.3685 13.8457 19.9922 14.1113 19.4609C14.3991 18.9297 14.543 18.166 14.543 17.1699C14.543 16.7715 14.4876 16.362 14.377 15.9414C14.2663 15.4987 14.0449 15.1003 13.7129 14.7461C13.3809 14.3919 12.9049 14.1042 12.2852 13.8828C11.6654 13.6615 10.8464 13.5508 9.82812 13.5508H8.5332V10.5293H10.2266C11.2669 10.5293 12.2741 10.651 13.248 10.8945C14.222 11.138 15.0853 11.5254 15.8379 12.0566C16.5905 12.5879 17.1882 13.2852 17.6309 14.1484C18.0736 14.9896 18.2949 15.9967 18.2949 17.1699C18.2949 17.8561 18.1842 18.487 17.9629 19.0625C17.7415 19.6159 17.4648 20.1029 17.1328 20.5234C16.8008 20.944 16.4134 21.2982 15.9707 21.5859C15.5501 21.8516 15.1406 22.0286 14.7422 22.1172ZM3.1875 10.5293H7.17188V35H3.1875V10.5293ZM37.752 10.5293H42.3008L35.0293 25.0391V35H30.9785V26.832L37.752 10.5293ZM28.6211 10.5293L32.3066 20.0586L30.5137 24.4082L24.0723 10.5293H28.6211ZM58.3379 14.3145C58.2272 14.2702 58.0944 14.1927 57.9395 14.082C57.7845 13.9714 57.5632 13.8717 57.2754 13.7832C56.9876 13.6725 56.6224 13.584 56.1797 13.5176C55.737 13.4512 55.1725 13.4401 54.4863 13.4844V10.1309C55.4603 10.153 56.4453 10.2637 57.4414 10.4629C58.4596 10.64 59.2786 10.9277 59.8984 11.3262C59.7656 11.6139 59.6107 11.9349 59.4336 12.2891C59.2565 12.6211 59.0905 12.9421 58.9355 13.252C58.7806 13.5397 58.6478 13.7832 58.5371 13.9824C58.4264 14.1816 58.36 14.2923 58.3379 14.3145ZM46.8828 16.9707C46.8828 15.9967 47.0488 15.1224 47.3809 14.3477C47.7129 13.5729 48.1556 12.8978 48.709 12.3223C49.2845 11.7246 49.9486 11.2598 50.7012 10.9277C51.4759 10.5736 52.2839 10.3411 53.125 10.2305V13.7168C52.4167 13.9603 51.8301 14.3919 51.3652 15.0117C50.9004 15.6094 50.668 16.2181 50.668 16.8379C50.668 17.7012 50.9004 18.3984 51.3652 18.9297C51.8301 19.4609 52.4167 19.9258 53.125 20.3242V24.1094C52.3945 23.7552 51.6641 23.3789 50.9336 22.9805C50.2031 22.5599 49.5391 22.0729 48.9414 21.5195C48.3438 20.9661 47.8457 20.3242 47.4473 19.5938C47.071 18.8633 46.8828 17.9889 46.8828 16.9707ZM47.4141 30.5176C47.724 30.6947 48.1113 30.8717 48.5762 31.0488C49.0632 31.2038 49.5612 31.3587 50.0703 31.5137C50.5794 31.6465 51.0885 31.7572 51.5977 31.8457C52.1068 31.9342 52.5827 31.9785 53.0254 31.9785H53.125V35.1328H53.0586C52.5273 35.1328 51.974 35.0996 51.3984 35.0332C50.8451 34.9889 50.2806 34.9004 49.7051 34.7676C49.1296 34.6348 48.5762 34.4577 48.0449 34.2363C47.5358 33.9928 47.0931 33.7051 46.7168 33.373L47.4141 30.5176ZM54.4863 20.9883C55.2168 21.3203 55.9583 21.6745 56.7109 22.0508C57.4857 22.4271 58.1829 22.8919 58.8027 23.4453C59.4225 23.9766 59.9316 24.6296 60.3301 25.4043C60.7285 26.179 60.9277 27.1419 60.9277 28.293C60.9277 29.0898 60.7728 29.8646 60.4629 30.6172C60.1751 31.3698 59.7546 32.056 59.2012 32.6758C58.6699 33.2734 58.0059 33.7826 57.209 34.2031C56.4121 34.6237 55.5046 34.9004 54.4863 35.0332V31.8457C56.3014 31.403 57.209 30.1966 57.209 28.2266C57.209 27.4518 56.9544 26.8099 56.4453 26.3008C55.9362 25.7917 55.2832 25.3158 54.4863 24.873V20.9883ZM69.1621 10.5293V31.9785H80.418V35H65.1113V10.5293H69.1621Z" fill="white"/>
<rect x="2.61133" y="3.52539" width="26.1796" height="3.08335" fill="#C8C8C8"/>
<rect x="28.791" y="3.52539" width="26.1796" height="3.08335" fill="#408CD9"/>
<rect x="54.9707" y="3.52539" width="26.1796" height="3.08335" fill="#404040"/>
<rect x="2.61133" y="39.4043" width="26.1796" height="3.08335" fill="#C8C8C8"/>
<rect x="28.791" y="39.4043" width="26.1796" height="3.08335" fill="#408CD9"/>
<rect x="54.9707" y="39.4043" width="26.1796" height="3.08335" fill="#404040"/>
</svg>
