<svg width="101" height="51" viewBox="0 0 101 51" fill="none" xmlns="http://www.w3.org/2000/svg">
<path d="M5.1562 9.39062H0V40.6299H5.1562V9.39062Z" fill="white"/>
<path d="M14.9605 24.1807C15.6896 24.2893 16.3985 24.5034 17.0642 24.8161C17.8428 25.1888 18.5488 25.6936 19.1499 26.3075C19.823 26.9621 20.3717 27.7302 20.7702 28.5754C21.2159 29.5385 21.4362 30.5881 21.4147 31.6464C21.4455 32.8913 21.2265 34.1298 20.7702 35.291C20.3888 36.2111 19.8397 37.0545 19.1499 37.7795C18.535 38.4134 17.8144 38.9387 17.0194 39.3327C16.3211 39.7005 15.5862 39.9962 14.8263 40.2151C14.2156 40.3938 13.5892 40.5149 12.9553 40.5769C12.4093 40.5769 12.0602 40.6387 11.8811 40.6387H6.92188V36.8971H11.6484C12.3163 36.9364 12.9847 36.8276 13.6044 36.5787C14.2241 36.3298 14.7793 35.947 15.2291 35.4587C16.1111 34.3684 16.5513 32.9942 16.4644 31.6023C16.511 30.1996 16.0367 28.8284 15.1306 27.7459C14.6433 27.2072 14.0375 26.7856 13.3594 26.5133C12.6814 26.2411 11.9491 26.1254 11.2187 26.1751H6.92188V22.7776H8.96287C9.58949 22.7776 10.234 22.7776 10.8964 22.7776C11.538 22.7539 12.167 22.5944 12.7405 22.3099C13.3511 21.9914 13.8409 21.4868 14.137 20.8715C14.5436 19.9522 14.7275 18.9521 14.6741 17.9505C14.6708 17.4142 14.5987 16.8805 14.4592 16.3621C14.2991 15.7909 13.9905 15.2708 13.5641 14.8531C13.0455 14.3481 12.4138 13.9703 11.72 13.75C10.689 13.4351 9.61196 13.2919 8.53318 13.3264H6.92188V9.39064H9.11505C10.4335 9.38897 11.7472 9.54604 13.027 9.85834C14.2279 10.1295 15.3666 10.6204 16.3839 11.3056C17.3603 11.9926 18.1554 12.9005 18.7023 13.953C19.3141 15.1571 19.6212 16.4893 19.5975 17.8358C19.6077 18.6525 19.4619 19.4638 19.1678 20.2273C18.9064 20.9057 18.5444 21.5421 18.0936 22.1158C17.6791 22.6403 17.1765 23.091 16.6076 23.4483C16.1103 23.7925 15.5515 24.041 14.9605 24.1807Z" fill="white"/>
<path d="M32.9371 9.39062L37.7084 21.5598L35.3899 27.1105L27.0469 9.39062H32.9371Z" fill="white"/>
<path d="M44.761 9.39062H50.6512L41.234 27.9136V40.6299H35.9883V30.1992L44.761 9.39062Z" fill="white"/>
<path d="M57.3004 34.9121C57.791 35.1721 58.3031 35.3905 58.8312 35.5651C59.4489 35.7769 60.0844 35.9711 60.7469 36.1564C61.395 36.3398 62.0523 36.49 62.7162 36.6064C63.3284 36.7108 63.948 36.7669 64.5692 36.7741H64.6946V40.7981H64.614C63.9247 40.7981 63.2175 40.7982 62.4835 40.6923C61.7388 40.6226 61 40.5017 60.2724 40.3304C59.54 40.1702 58.8262 39.9366 58.1419 39.6333C57.494 39.3644 56.8906 39.0015 56.3516 38.5567L57.3004 34.9121Z" fill="white"/>
<path d="M56.5745 17.6158C56.5566 16.4665 56.7759 15.3256 57.219 14.2624C57.6513 13.2951 58.2579 12.4131 59.0093 11.6591C59.7474 10.915 60.6223 10.316 61.5874 9.89418C62.5778 9.45486 63.6268 9.15769 64.7026 9.01172V13.424C63.795 13.7296 63.0024 14.2987 62.4289 15.0566C61.8421 15.7655 61.5217 16.6523 61.5217 17.5672C61.5217 18.4821 61.8421 19.369 62.4289 20.0778C63.0805 20.7882 63.8493 21.385 64.7026 21.8428V26.6787C63.7627 26.2198 62.8138 25.7344 61.865 25.2138C60.936 24.6995 60.0708 24.0806 59.2869 23.3694C58.4913 22.6826 57.8194 21.8681 57.2996 20.9603C56.7834 19.9209 56.5344 18.7723 56.5745 17.6158Z" fill="white"/>
<path d="M71.4086 14.2266C71.2282 14.1448 71.0572 14.0442 70.8984 13.9266C70.6188 13.7541 70.318 13.6177 70.0032 13.5207C69.5383 13.3768 69.0623 13.2705 68.5799 13.203C67.8508 13.1292 67.1159 13.1292 66.3867 13.203V8.87891C67.6785 8.91598 68.9654 9.0517 70.236 9.28484C71.3596 9.45952 72.4386 9.84603 73.4138 10.4232C73.2437 10.7939 73.0468 11.1998 72.8141 11.6322C72.5813 12.0646 72.3665 12.5147 72.1695 12.8676L71.6503 13.8207C71.5806 13.962 71.4998 14.0978 71.4086 14.2266Z" fill="white"/>
<path d="M66.4219 22.7773C67.3708 23.2009 68.3375 23.6598 69.3312 24.1363C70.2998 24.6081 71.2024 25.2013 72.0167 25.9013C72.8289 26.6146 73.4997 27.4704 73.995 28.4251C74.4697 29.4672 74.7307 30.5916 74.7629 31.7335C74.7952 32.8754 74.5981 34.0124 74.183 35.0789C73.8044 36.05 73.2526 36.9466 72.5538 37.7263C71.8108 38.5318 70.9288 39.201 69.9489 39.703C68.8479 40.2634 67.6528 40.6222 66.4219 40.762V36.6056C68.7732 36.0173 69.9489 34.4759 69.9489 31.9815C69.9626 31.528 69.8823 31.0766 69.713 30.6548C69.5437 30.233 69.2889 29.8496 68.9642 29.5282C68.2078 28.8049 67.352 28.1899 66.4219 27.7015V22.7773Z" fill="white"/>
<path d="M85.4254 9.39062V36.7735H99.9988V40.6299H80.1797V9.39062H85.4254Z" fill="white"/>
<path d="M32.459 45.8359H0V50.0012H32.459V45.8359Z" fill="white"/>
<path d="M66.2363 45.8359H33.7773V50.0012H66.2363V45.8359Z" fill="white"/>
<path d="M100.002 45.8359H67.543V50.0012H100.002V45.8359Z" fill="white"/>
<path d="M32.459 0H0V4.16524H32.459V0Z" fill="white"/>
<path d="M66.2363 0H33.7773V4.16524H66.2363V0Z" fill="white"/>
<path d="M100.002 0H67.543V4.16524H100.002V0Z" fill="white"/>
</svg>
