<svg width="80" height="40" viewBox="0 0 80 40" fill="none" xmlns="http://www.w3.org/2000/svg">
<path d="M4.12467 7.57471H0V32.7747H4.12467V7.57471Z" fill="white"/>
<path d="M11.9695 19.5056C12.5528 19.5932 13.1198 19.7659 13.6524 20.0181C14.2752 20.3187 14.84 20.7259 15.3208 21.2212C15.8592 21.7492 16.2982 22.3688 16.617 23.0507C16.9735 23.8275 17.1497 24.6742 17.1325 25.5279C17.1572 26.5321 16.982 27.5313 16.617 28.4679C16.3119 29.2102 15.8726 29.8906 15.3208 30.4754C14.8289 30.9867 14.2525 31.4105 13.6165 31.7283C13.058 32.025 12.47 32.2636 11.8621 32.4401C11.3737 32.5843 10.8725 32.682 10.3655 32.732C9.92869 32.732 9.64941 32.7818 9.5062 32.7818H5.53906V29.7635H9.32001C9.85434 29.7953 10.389 29.7075 10.8847 29.5067C11.3804 29.3059 11.8245 28.9972 12.1844 28.6032C12.89 27.7237 13.2421 26.6152 13.1726 25.4923C13.2098 24.3608 12.8305 23.2547 12.1056 22.3815C11.7158 21.9469 11.2312 21.6068 10.6887 21.3872C10.1463 21.1676 9.56057 21.0742 8.97629 21.1144H5.53906V18.3737H7.17174C7.67301 18.3737 8.18859 18.3737 8.7185 18.3737C9.23174 18.3546 9.73484 18.2259 10.1936 17.9964C10.6821 17.7394 11.0739 17.3324 11.3107 16.8361C11.636 16.0945 11.7831 15.2877 11.7404 14.4798C11.7378 14.0472 11.6801 13.6166 11.5685 13.1984C11.4404 12.7377 11.1936 12.3181 10.8524 11.9812C10.4376 11.5738 9.93232 11.269 9.3773 11.0913C8.55257 10.8373 7.69098 10.7218 6.82802 10.7496H5.53906V7.57472H7.29348C8.34814 7.57338 9.39903 7.70008 10.4228 7.952C11.3835 8.17073 12.2944 8.56673 13.1081 9.11946C13.8892 9.67366 14.5252 10.406 14.9628 11.2551C15.4521 12.2264 15.6978 13.3011 15.6789 14.3873C15.687 15.046 15.5704 15.7005 15.3352 16.3164C15.126 16.8636 14.8364 17.377 14.4759 17.8398C14.1442 18.2629 13.7422 18.6265 13.2871 18.9147C12.8893 19.1924 12.4423 19.3929 11.9695 19.5056Z" fill="white"/>
<path d="M26.3447 7.57471L30.1614 17.3913L28.3068 21.8689L21.6328 7.57471H26.3447Z" fill="white"/>
<path d="M35.8067 7.57471H40.5186L32.9853 22.5167V32.7747H28.7891V24.3605L35.8067 7.57471Z" fill="white"/>
<path d="M45.8372 28.166C46.2296 28.3757 46.6393 28.5519 47.0617 28.6928C47.5558 28.8636 48.0642 29.0203 48.5941 29.1697C49.1126 29.3177 49.6384 29.4389 50.1695 29.5328C50.6592 29.617 51.1549 29.6622 51.6518 29.6681H51.7521V32.9142H51.6876C51.1362 32.9142 50.5705 32.9142 49.9833 32.8287C49.3876 32.7726 48.7966 32.675 48.2146 32.5369C47.6287 32.4076 47.0577 32.2191 46.5103 31.9745C45.992 31.7576 45.5093 31.4648 45.0781 31.106L45.8372 28.166Z" fill="white"/>
<path d="M45.2533 14.2102C45.239 13.2831 45.4144 12.3628 45.7689 11.5051C46.1147 10.7248 46.6 10.0133 47.2011 9.40512C47.7915 8.80485 48.4914 8.32169 49.2634 7.9814C50.0556 7.62701 50.8948 7.38728 51.7554 7.26953V10.8289C51.0294 11.0754 50.3953 11.5345 49.9366 12.1458C49.4672 12.7176 49.2108 13.433 49.2108 14.1711C49.2108 14.9091 49.4672 15.6245 49.9366 16.1963C50.4578 16.7694 51.0728 17.2507 51.7554 17.62V21.5211C51.0035 21.1509 50.2445 20.7594 49.4854 20.3394C48.7423 19.9245 48.0502 19.4252 47.4231 18.8516C46.7867 18.2976 46.2492 17.6405 45.8334 16.9082C45.4205 16.0697 45.2213 15.1432 45.2533 14.2102Z" fill="white"/>
<path d="M57.1266 11.476C56.9823 11.41 56.8455 11.3289 56.7185 11.234C56.4948 11.0948 56.2542 10.9848 56.0024 10.9065C55.6305 10.7904 55.2497 10.7047 54.8638 10.6502C54.2805 10.5907 53.6926 10.5907 53.1094 10.6502V7.16211C54.1427 7.19202 55.1722 7.3015 56.1886 7.48957C57.0874 7.63048 57.9505 7.94226 58.7307 8.40787C58.5946 8.70686 58.4371 9.03431 58.2509 9.38313C58.0647 9.73194 57.8929 10.095 57.7353 10.3797L57.32 11.1485C57.2642 11.2626 57.1996 11.372 57.1266 11.476Z" fill="white"/>
<path d="M53.1328 18.3735C53.8919 18.7152 54.6652 19.0854 55.4601 19.4698C56.2349 19.8504 56.957 20.3289 57.6084 20.8935C58.2581 21.469 58.7947 22.1593 59.1909 22.9295C59.5706 23.7701 59.7794 24.6771 59.8052 25.5983C59.831 26.5194 59.6734 27.4366 59.3413 28.2969C59.0384 29.0803 58.597 29.8036 58.038 30.4325C57.4436 31.0823 56.7381 31.6221 55.9542 32.0271C55.0735 32.4792 54.1175 32.7686 53.1328 32.8813V29.5285C55.0137 29.0539 55.9542 27.8105 55.9542 25.7983C55.9652 25.4325 55.901 25.0684 55.7655 24.7281C55.6301 24.3878 55.4263 24.0786 55.1665 23.8193C54.5614 23.2358 53.8768 22.7398 53.1328 22.3457V18.3735Z" fill="white"/>
<path d="M68.3369 7.57471V29.6639H79.9948V32.7747H64.1406V7.57471H68.3369Z" fill="white"/>
<path d="M27 37H0V40H27V37Z" fill="white"/>
<path d="M54 37H27V40H54V37Z" fill="white"/>
<path d="M79.9654 37H54V40H79.9654V37Z" fill="white"/>
<path d="M27 0H0V3H27V0Z" fill="white"/>
<path d="M54 0H27V3H54V0Z" fill="white"/>
<path d="M80 0H54V3H80V0Z" fill="white"/>
</svg>
