<svg width="80" height="40" viewBox="0 0 80 40" fill="none" xmlns="http://www.w3.org/2000/svg">
<path d="M4.12467 7.57422H0V32.7742H4.12467V7.57422Z" fill="black"/>
<path d="M11.9695 19.5051C12.5528 19.5927 13.1198 19.7654 13.6524 20.0176C14.2752 20.3182 14.84 20.7254 15.3208 21.2207C15.8592 21.7487 16.2982 22.3683 16.617 23.0502C16.9735 23.8271 17.1497 24.6737 17.1325 25.5275C17.1572 26.5316 16.982 27.5308 16.617 28.4675C16.3119 29.2097 15.8726 29.8901 15.3208 30.4749C14.8289 30.9862 14.2525 31.41 13.6165 31.7278C13.058 32.0245 12.47 32.2631 11.8621 32.4397C11.3737 32.5838 10.8725 32.6815 10.3655 32.7315C9.92869 32.7315 9.64941 32.7813 9.5062 32.7813H5.53906V29.763H9.32001C9.85434 29.7948 10.389 29.707 10.8847 29.5062C11.3804 29.3054 11.8245 28.9967 12.1844 28.6027C12.89 27.7232 13.2421 26.6147 13.1726 25.4919C13.2098 24.3603 12.8305 23.2542 12.1056 22.381C11.7158 21.9465 11.2312 21.6063 10.6887 21.3867C10.1463 21.1671 9.56057 21.0738 8.97629 21.1139H5.53906V18.3732H7.17174C7.67301 18.3732 8.18859 18.3732 8.7185 18.3732C9.23174 18.3541 9.73484 18.2254 10.1936 17.9959C10.6821 17.739 11.0739 17.3319 11.3107 16.8356C11.636 16.094 11.7831 15.2872 11.7404 14.4793C11.7378 14.0467 11.6801 13.6161 11.5685 13.198C11.4404 12.7372 11.1936 12.3176 10.8524 11.9807C10.4376 11.5733 9.93232 11.2685 9.3773 11.0908C8.55257 10.8368 7.69098 10.7213 6.82802 10.7491H5.53906V7.57423H7.29348C8.34814 7.57289 9.39903 7.69959 10.4228 7.95152C11.3835 8.17024 12.2944 8.56624 13.1081 9.11897C13.8892 9.67317 14.5252 10.4055 14.9628 11.2546C15.4521 12.2259 15.6978 13.3006 15.6789 14.3868C15.687 15.0456 15.5704 15.7 15.3352 16.3159C15.126 16.8631 14.8364 17.3765 14.4759 17.8393C14.1442 18.2624 13.7422 18.626 13.2871 18.9142C12.8893 19.1919 12.4423 19.3924 11.9695 19.5051Z" fill="black"/>
<path d="M26.3447 7.57422L30.1614 17.3908L28.3068 21.8685L21.6328 7.57422H26.3447Z" fill="black"/>
<path d="M35.8067 7.57422H40.5186L32.9853 22.5163V32.7742H28.7891V24.36L35.8067 7.57422Z" fill="black"/>
<path d="M45.8372 28.166C46.2296 28.3757 46.6393 28.5519 47.0617 28.6928C47.5558 28.8636 48.0642 29.0203 48.5941 29.1697C49.1126 29.3177 49.6384 29.4389 50.1695 29.5328C50.6592 29.617 51.1549 29.6622 51.6518 29.6681H51.7521V32.9142H51.6876C51.1362 32.9142 50.5705 32.9142 49.9833 32.8287C49.3876 32.7726 48.7966 32.675 48.2146 32.5369C47.6287 32.4076 47.0577 32.2191 46.5103 31.9745C45.992 31.7576 45.5093 31.4648 45.0781 31.106L45.8372 28.166Z" fill="black"/>
<path d="M45.2533 14.2102C45.239 13.2831 45.4144 12.3628 45.7689 11.5051C46.1147 10.7248 46.6 10.0133 47.2011 9.40512C47.7915 8.80485 48.4914 8.32169 49.2634 7.9814C50.0556 7.62701 50.8948 7.38728 51.7554 7.26953V10.8289C51.0294 11.0754 50.3953 11.5345 49.9366 12.1458C49.4672 12.7176 49.2108 13.433 49.2108 14.1711C49.2108 14.9091 49.4672 15.6245 49.9366 16.1963C50.4578 16.7694 51.0728 17.2507 51.7554 17.62V21.5211C51.0035 21.1509 50.2445 20.7594 49.4854 20.3394C48.7423 19.9245 48.0502 19.4252 47.4231 18.8516C46.7867 18.2976 46.2492 17.6405 45.8334 16.9082C45.4205 16.0697 45.2213 15.1432 45.2533 14.2102Z" fill="black"/>
<path d="M57.1266 11.476C56.9823 11.41 56.8455 11.3289 56.7185 11.234C56.4948 11.0948 56.2542 10.9848 56.0024 10.9065C55.6305 10.7904 55.2497 10.7047 54.8638 10.6502C54.2805 10.5907 53.6926 10.5907 53.1094 10.6502V7.16211C54.1427 7.19202 55.1722 7.3015 56.1886 7.48957C57.0874 7.63048 57.9505 7.94226 58.7307 8.40787C58.5946 8.70686 58.4371 9.03431 58.2509 9.38313C58.0647 9.73194 57.8929 10.095 57.7353 10.3797L57.32 11.1485C57.2642 11.2626 57.1996 11.372 57.1266 11.476Z" fill="black"/>
<path d="M53.1328 18.373C53.8919 18.7147 54.6652 19.0849 55.4601 19.4693C56.2349 19.8499 56.957 20.3284 57.6084 20.893C58.2581 21.4685 58.7947 22.1588 59.1909 22.929C59.5706 23.7696 59.7794 24.6766 59.8052 25.5978C59.831 26.5189 59.6734 27.4361 59.3413 28.2964C59.0384 29.0798 58.597 29.8031 58.038 30.432C57.4436 31.0818 56.7381 31.6217 55.9542 32.0266C55.0735 32.4787 54.1175 32.7681 53.1328 32.8808V29.528C55.0137 29.0534 55.9542 27.81 55.9542 25.7978C55.9652 25.432 55.901 25.0679 55.7655 24.7276C55.6301 24.3873 55.4263 24.0781 55.1665 23.8188C54.5614 23.2353 53.8768 22.7393 53.1328 22.3453V18.373Z" fill="black"/>
<path d="M68.3369 7.57422V29.6634H79.9948V32.7742H64.1406V7.57422H68.3369Z" fill="black"/>
<path d="M27 37H0V40H27V37Z" fill="#C8C8C8"/>
<path d="M54 37H27V40H54V37Z" fill="#408CD9"/>
<path d="M79.9654 37H54V40H79.9654V37Z" fill="#404040"/>
<path d="M27 0H0V3H27V0Z" fill="#C8C8C8"/>
<path d="M54 0H27V3H54V0Z" fill="#408CD9"/>
<path d="M80 0H54V3H80V0Z" fill="#404040"/>
</svg>
