<svg width="18" height="14" viewBox="0 0 18 14" fill="none" xmlns="http://www.w3.org/2000/svg">
<path d="M16.5066 2.24177H0.660262C0.299319 2.24177 0 1.86113 0 1.40213C0 0.943134 0.299319 0.5625 0.660262 0.5625H16.5066C16.8675 0.5625 17.1668 0.943134 17.1668 1.40213C17.1668 1.86113 16.8675 2.24177 16.5066 2.24177Z" fill="white"/>
<path d="M16.5066 7.83942H0.660262C0.299319 7.83942 0 7.45879 0 6.99979C0 6.54079 0.299319 6.16016 0.660262 6.16016H16.5066C16.8675 6.16016 17.1668 6.54079 17.1668 6.99979C17.1668 7.45879 16.8675 7.83942 16.5066 7.83942Z" fill="white"/>
<path d="M16.5066 13.4371H0.660262C0.299319 13.4371 0 13.0564 0 12.5974C0 12.1384 0.299319 11.7578 0.660262 11.7578H16.5066C16.8675 11.7578 17.1668 12.1384 17.1668 12.5974C17.1668 13.0564 16.8675 13.4371 16.5066 13.4371Z" fill="white"/>
</svg>
