<svg width="18" height="14" viewBox="0 0 18 14" fill="none" xmlns="http://www.w3.org/2000/svg">
<path d="M16.5066 2.24177H0.660262C0.299319 2.24177 0 1.86113 0 1.40213C0 0.943134 0.299319 0.5625 0.660262 0.5625H16.5066C16.8675 0.5625 17.1668 0.943134 17.1668 1.40213C17.1668 1.86113 16.8675 2.24177 16.5066 2.24177Z" fill="#C8C8C8"/>
<path d="M16.5066 7.8404H0.660262C0.299319 7.8404 0 7.45977 0 7.00077C0 6.54177 0.299319 6.16113 0.660262 6.16113H16.5066C16.8675 6.16113 17.1668 6.54177 17.1668 7.00077C17.1668 7.45977 16.8675 7.8404 16.5066 7.8404Z" fill="#408CD9"/>
<path d="M16.5066 13.4376H0.660262C0.299319 13.4376 0 13.0569 0 12.5979C0 12.1389 0.299319 11.7583 0.660262 11.7583H16.5066C16.8675 11.7583 17.1668 12.1389 17.1668 12.5979C17.1668 13.0569 16.8675 13.4376 16.5066 13.4376Z" fill="#404040"/>
</svg>
