<svg width="41" height="41" viewBox="0 0 41 41" fill="none" xmlns="http://www.w3.org/2000/svg">
<path d="M35.7344 20.5005H30.7344C30.0713 20.5005 29.4354 20.7639 28.9666 21.2328C28.4978 21.7016 28.2344 22.3375 28.2344 23.0005V29.2505C28.2344 29.9136 28.4978 30.5494 28.9666 31.0183C29.4354 31.4871 30.0713 31.7505 30.7344 31.7505H33.2344C33.8974 31.7505 34.5333 31.4871 35.0021 31.0183C35.471 30.5494 35.7344 29.9136 35.7344 29.2505V20.5005ZM35.7344 20.5005C35.7344 18.5201 35.3424 16.5593 34.5807 14.7313C33.8191 12.9032 32.703 11.244 31.2969 9.84948C29.8907 8.45495 28.2224 7.35268 26.388 6.60625C24.5537 5.85982 22.5897 5.48402 20.6094 5.50052C18.6304 5.48609 16.6681 5.86342 14.8355 6.61078C13.003 7.35814 11.3365 8.46074 9.932 9.85506C8.52751 11.2494 7.41283 12.9078 6.65218 14.7349C5.89153 16.5619 5.49995 18.5215 5.5 20.5005V29.2505C5.5 29.9136 5.76339 30.5494 6.23223 31.0183C6.70107 31.4871 7.33696 31.7505 8 31.7505H10.5C11.163 31.7505 11.7989 31.4871 12.2678 31.0183C12.7366 30.5494 13 29.9136 13 29.2505V23.0005C13 22.3375 12.7366 21.7016 12.2678 21.2328C11.7989 20.7639 11.163 20.5005 10.5 20.5005H5.5" stroke="white" stroke-width="2" stroke-linecap="round" stroke-linejoin="round"/>
<path d="M35.7344 29.25V33C35.7344 34.3261 35.2076 35.5979 34.2699 36.5355C33.3322 37.4732 32.0605 38 30.7344 38H21.75" stroke="white" stroke-width="2" stroke-linecap="round" stroke-linejoin="round"/>
</svg>
