<svg width="35" height="35" viewBox="0 0 35 35" fill="none" xmlns="http://www.w3.org/2000/svg">
<path d="M17.5002 17.5V4.375" stroke="white" stroke-width="2" stroke-linecap="round" stroke-linejoin="round"/>
<path d="M28.8581 10.9375L6.13547 24.0625" stroke="white" stroke-width="2" stroke-linecap="round" stroke-linejoin="round"/>
<path d="M4.5941 19.9063C4.44488 19.1129 4.37163 18.3072 4.37535 17.5C4.37362 14.7856 5.21441 12.1375 6.7817 9.92128C8.34899 7.70504 10.5655 6.02987 13.1253 5.12695V14.9707L4.5941 19.9063Z" stroke="white" stroke-width="2" stroke-linecap="round" stroke-linejoin="round"/>
<path d="M17.4985 4.375C19.7983 4.37526 22.0577 4.97983 24.0504 6.12814C26.043 7.27645 27.6989 8.9282 28.8523 10.9179C30.0056 12.9077 30.6159 15.1655 30.622 17.4653C30.628 19.7652 30.0297 22.0262 28.8869 24.022C27.7441 26.0178 26.0969 27.6783 24.1103 28.8371C22.1238 29.9959 19.8676 30.6124 17.5678 30.6248C15.268 30.6372 13.0053 30.0451 11.0064 28.9078C9.00748 27.7705 7.34248 26.1279 6.17819 24.1445" stroke="white" stroke-width="2" stroke-linecap="round" stroke-linejoin="round"/>
</svg>
