<svg width="40" height="40" viewBox="0 0 40 40" fill="none" xmlns="http://www.w3.org/2000/svg">
<path d="M35.2344 20.0005H30.2344C29.5713 20.0005 28.9354 20.2639 28.4666 20.7328C27.9978 21.2016 27.7344 21.8375 27.7344 22.5005V28.7505C27.7344 29.4136 27.9978 30.0494 28.4666 30.5183C28.9354 30.9871 29.5713 31.2505 30.2344 31.2505H32.7344C33.3974 31.2505 34.0333 30.9871 34.5021 30.5183C34.971 30.0494 35.2344 29.4136 35.2344 28.7505V20.0005ZM35.2344 20.0005C35.2344 18.0201 34.8424 16.0593 34.0807 14.2313C33.3191 12.4032 32.203 10.744 30.7969 9.34948C29.3907 7.95495 27.7224 6.85268 25.888 6.10625C24.0537 5.35982 22.0897 4.98402 20.1094 5.00052C18.1304 4.98609 16.1681 5.36342 14.3355 6.11078C12.503 6.85814 10.8365 7.96074 9.432 9.35506C8.02751 10.7494 6.91283 12.4078 6.15218 14.2349C5.39153 16.0619 4.99995 18.0215 5 20.0005V28.7505C5 29.4136 5.26339 30.0494 5.73223 30.5183C6.20107 30.9871 6.83696 31.2505 7.5 31.2505H10C10.663 31.2505 11.2989 30.9871 11.7678 30.5183C12.2366 30.0494 12.5 29.4136 12.5 28.7505V22.5005C12.5 21.8375 12.2366 21.2016 11.7678 20.7328C11.2989 20.2639 10.663 20.0005 10 20.0005H5" stroke="url(#paint0_linear_20_30800)" stroke-width="2" stroke-linecap="round" stroke-linejoin="round"/>
<path d="M35.2344 28.75V32.5C35.2344 33.8261 34.7076 35.0979 33.7699 36.0355C32.8322 36.9732 31.5605 37.5 30.2344 37.5H21.25" stroke="url(#paint1_linear_20_30800)" stroke-width="2" stroke-linecap="round" stroke-linejoin="round"/>
<defs>
<linearGradient id="paint0_linear_20_30800" x1="5" y1="18.48" x2="35.2344" y2="18.48" gradientUnits="userSpaceOnUse">
<stop stop-color="#00469F"/>
<stop offset="1" stop-color="#1E79D6"/>
</linearGradient>
<linearGradient id="paint1_linear_20_30800" x1="21.25" y1="33.2432" x2="35.2344" y2="33.2432" gradientUnits="userSpaceOnUse">
<stop stop-color="#00469F"/>
<stop offset="1" stop-color="#1E79D6"/>
</linearGradient>
</defs>
</svg>
