<svg width="43" height="40" viewBox="0 0 43 40" fill="none" xmlns="http://www.w3.org/2000/svg">
<path d="M36.25 10H3.75C3.05964 10 2.5 10.5596 2.5 11.25V28.75C2.5 29.4404 3.05964 30 3.75 30H36.25C36.9404 30 37.5 29.4404 37.5 28.75V11.25C37.5 10.5596 36.9404 10 36.25 10Z" stroke="url(#paint0_linear_20_30765)" stroke-width="2" stroke-linecap="round" stroke-linejoin="round"/>
<path d="M6.5 10V7.75C6.5 7.05964 7.05964 6.5 7.75 6.5H40.25C40.9404 6.5 41.5 7.05964 41.5 7.75V25.25C41.5 25.9404 40.9404 26.5 40.25 26.5H37.5" stroke="url(#paint1_linear_20_30765)" stroke-width="2" stroke-linecap="round" stroke-linejoin="round"/>
<path d="M20 25C22.7614 25 25 22.7614 25 20C25 17.2386 22.7614 15 20 15C17.2386 15 15 17.2386 15 20C15 22.7614 17.2386 25 20 25Z" stroke="url(#paint2_linear_20_30765)" stroke-width="2" stroke-linecap="round" stroke-linejoin="round"/>
<path d="M27.5 10L37.5 18.75" stroke="url(#paint3_linear_20_30765)" stroke-width="2" stroke-linecap="round" stroke-linejoin="round"/>
<path d="M27.5 30L37.5 21.25" stroke="url(#paint4_linear_20_30765)" stroke-width="2" stroke-linecap="round" stroke-linejoin="round"/>
<path d="M12.5 10L2.5 18.75" stroke="url(#paint5_linear_20_30765)" stroke-width="2" stroke-linecap="round" stroke-linejoin="round"/>
<path d="M12.5 30L2.5 21.25" stroke="url(#paint6_linear_20_30765)" stroke-width="2" stroke-linecap="round" stroke-linejoin="round"/>
<defs>
<linearGradient id="paint0_linear_20_30765" x1="2.5" y1="20.2703" x2="37.5" y2="20.2703" gradientUnits="userSpaceOnUse">
<stop stop-color="#00469F"/>
<stop offset="1" stop-color="#1E79D6"/>
</linearGradient>
<linearGradient id="paint1_linear_20_30765" x1="6.5" y1="16.7703" x2="41.5" y2="16.7703" gradientUnits="userSpaceOnUse">
<stop stop-color="#00469F"/>
<stop offset="1" stop-color="#1E79D6"/>
</linearGradient>
<linearGradient id="paint2_linear_20_30765" x1="15" y1="20.1351" x2="25" y2="20.1351" gradientUnits="userSpaceOnUse">
<stop stop-color="#00469F"/>
<stop offset="1" stop-color="#1E79D6"/>
</linearGradient>
<linearGradient id="paint3_linear_20_30765" x1="27.5" y1="14.4932" x2="37.5" y2="14.4932" gradientUnits="userSpaceOnUse">
<stop stop-color="#00469F"/>
<stop offset="1" stop-color="#1E79D6"/>
</linearGradient>
<linearGradient id="paint4_linear_20_30765" x1="27.5" y1="25.7432" x2="37.5" y2="25.7432" gradientUnits="userSpaceOnUse">
<stop stop-color="#00469F"/>
<stop offset="1" stop-color="#1E79D6"/>
</linearGradient>
<linearGradient id="paint5_linear_20_30765" x1="2.5" y1="14.4932" x2="12.5" y2="14.4932" gradientUnits="userSpaceOnUse">
<stop stop-color="#00469F"/>
<stop offset="1" stop-color="#1E79D6"/>
</linearGradient>
<linearGradient id="paint6_linear_20_30765" x1="2.5" y1="25.7432" x2="12.5" y2="25.7432" gradientUnits="userSpaceOnUse">
<stop stop-color="#00469F"/>
<stop offset="1" stop-color="#1E79D6"/>
</linearGradient>
</defs>
</svg>
