<svg width="36" height="36" viewBox="0 0 36 36" fill="none" xmlns="http://www.w3.org/2000/svg">
<path d="M18.0002 18V4.875" stroke="url(#paint0_linear_11_21272)" stroke-width="2" stroke-linecap="round" stroke-linejoin="round"/>
<path d="M29.3582 11.4375L6.6355 24.5625" stroke="url(#paint1_linear_11_21272)" stroke-width="2" stroke-linecap="round" stroke-linejoin="round"/>
<path d="M5.09413 20.4063C4.94491 19.6129 4.87167 18.8072 4.87538 18C4.87365 15.2856 5.71444 12.6375 7.28173 10.4213C8.84902 8.20504 11.0655 6.52987 13.6254 5.62695V15.4707L5.09413 20.4063Z" stroke="url(#paint2_linear_11_21272)" stroke-width="2" stroke-linecap="round" stroke-linejoin="round"/>
<path d="M17.9985 4.875C20.2984 4.87526 22.5578 5.47983 24.5504 6.62814C26.543 7.77645 28.199 9.4282 29.3523 11.4179C30.5057 13.4077 31.1159 15.6655 31.122 17.9653C31.1281 20.2652 30.5297 22.5262 29.3869 24.522C28.2441 26.5178 26.5969 28.1783 24.6104 29.3371C22.6238 30.4959 20.3677 31.1124 18.0679 31.1248C15.7681 31.1372 13.5054 30.5451 11.5064 29.4078C9.50751 28.2705 7.84251 26.6279 6.67822 24.6445" stroke="url(#paint3_linear_11_21272)" stroke-width="2" stroke-linecap="round" stroke-linejoin="round"/>
<defs>
<linearGradient id="paint0_linear_11_21272" x1="18.0002" y1="11.6149" x2="19.0002" y2="11.6149" gradientUnits="userSpaceOnUse">
<stop stop-color="#00469F"/>
<stop offset="1" stop-color="#1E79D6"/>
</linearGradient>
<linearGradient id="paint1_linear_11_21272" x1="6.6355" y1="18.1774" x2="29.3582" y2="18.1774" gradientUnits="userSpaceOnUse">
<stop stop-color="#00469F"/>
<stop offset="1" stop-color="#1E79D6"/>
</linearGradient>
<linearGradient id="paint2_linear_11_21272" x1="4.87524" y1="13.2163" x2="13.6254" y2="13.2163" gradientUnits="userSpaceOnUse">
<stop stop-color="#00469F"/>
<stop offset="1" stop-color="#1E79D6"/>
</linearGradient>
<linearGradient id="paint3_linear_11_21272" x1="6.67822" y1="18.3547" x2="31.122" y2="18.3547" gradientUnits="userSpaceOnUse">
<stop stop-color="#00469F"/>
<stop offset="1" stop-color="#1E79D6"/>
</linearGradient>
</defs>
</svg>
