<svg width="40" height="40" viewBox="0 0 40 40" fill="none" xmlns="http://www.w3.org/2000/svg">
<path d="M12.5 25H32.5C32.8315 25 33.1495 24.8683 33.3839 24.6339C33.6183 24.3995 33.75 24.0815 33.75 23.75V7.5C33.75 7.16848 33.6183 6.85054 33.3839 6.61612C33.1495 6.3817 32.8315 6.25 32.5 6.25H15C14.6685 6.25 14.3505 6.3817 14.1161 6.61612C13.8817 6.85054 13.75 7.16848 13.75 7.5V8.75" stroke="white" stroke-width="2" stroke-linecap="round" stroke-linejoin="round"/>
<path d="M16.25 21.25L12.5 25L16.25 28.75" stroke="white" stroke-width="2" stroke-linecap="round" stroke-linejoin="round"/>
<path d="M27.5 15H7.5C7.16848 15 6.85054 15.1317 6.61612 15.3661C6.3817 15.6005 6.25 15.9185 6.25 16.25V32.5C6.25 32.8315 6.3817 33.1495 6.61612 33.3839C6.85054 33.6183 7.16848 33.75 7.5 33.75H25C25.3315 33.75 25.6495 33.6183 25.8839 33.3839C26.1183 33.1495 26.25 32.8315 26.25 32.5V31.25" stroke="white" stroke-width="2" stroke-linecap="round" stroke-linejoin="round"/>
<path d="M23.75 18.75L27.5 15L23.75 11.25" stroke="white" stroke-width="2" stroke-linecap="round" stroke-linejoin="round"/>
</svg>
