<svg width="40" height="40" viewBox="0 0 40 40" fill="none" xmlns="http://www.w3.org/2000/svg">
<path d="M16.25 7.5H8.75C8.05964 7.5 7.5 8.05964 7.5 8.75V16.25C7.5 16.9404 8.05964 17.5 8.75 17.5H16.25C16.9404 17.5 17.5 16.9404 17.5 16.25V8.75C17.5 8.05964 16.9404 7.5 16.25 7.5Z" stroke="url(#paint0_linear_20_30782)" stroke-width="2" stroke-linecap="round" stroke-linejoin="round"/>
<path d="M16.25 22.5H8.75C8.05964 22.5 7.5 23.0596 7.5 23.75V31.25C7.5 31.9404 8.05964 32.5 8.75 32.5H16.25C16.9404 32.5 17.5 31.9404 17.5 31.25V23.75C17.5 23.0596 16.9404 22.5 16.25 22.5Z" stroke="url(#paint1_linear_20_30782)" stroke-width="2" stroke-linecap="round" stroke-linejoin="round"/>
<path d="M31.25 7.5H23.75C23.0596 7.5 22.5 8.05964 22.5 8.75V16.25C22.5 16.9404 23.0596 17.5 23.75 17.5H31.25C31.9404 17.5 32.5 16.9404 32.5 16.25V8.75C32.5 8.05964 31.9404 7.5 31.25 7.5Z" stroke="url(#paint2_linear_20_30782)" stroke-width="2" stroke-linecap="round" stroke-linejoin="round"/>
<path d="M22.5 22.5V27.5" stroke="url(#paint3_linear_20_30782)" stroke-width="2" stroke-linecap="round" stroke-linejoin="round"/>
<path d="M22.5 32.5H27.5V22.5" stroke="url(#paint4_linear_20_30782)" stroke-width="2" stroke-linecap="round" stroke-linejoin="round"/>
<path d="M27.5 25H32.5" stroke="url(#paint5_linear_20_30782)" stroke-width="2" stroke-linecap="round" stroke-linejoin="round"/>
<path d="M32.5 30V32.5" stroke="url(#paint6_linear_20_30782)" stroke-width="2" stroke-linecap="round" stroke-linejoin="round"/>
<defs>
<linearGradient id="paint0_linear_20_30782" x1="7.5" y1="12.6351" x2="17.5" y2="12.6351" gradientUnits="userSpaceOnUse">
<stop stop-color="#00469F"/>
<stop offset="1" stop-color="#1E79D6"/>
</linearGradient>
<linearGradient id="paint1_linear_20_30782" x1="7.5" y1="27.6351" x2="17.5" y2="27.6351" gradientUnits="userSpaceOnUse">
<stop stop-color="#00469F"/>
<stop offset="1" stop-color="#1E79D6"/>
</linearGradient>
<linearGradient id="paint2_linear_20_30782" x1="22.5" y1="12.6351" x2="32.5" y2="12.6351" gradientUnits="userSpaceOnUse">
<stop stop-color="#00469F"/>
<stop offset="1" stop-color="#1E79D6"/>
</linearGradient>
<linearGradient id="paint3_linear_20_30782" x1="22.5" y1="25.0676" x2="23.5" y2="25.0676" gradientUnits="userSpaceOnUse">
<stop stop-color="#00469F"/>
<stop offset="1" stop-color="#1E79D6"/>
</linearGradient>
<linearGradient id="paint4_linear_20_30782" x1="22.5" y1="27.6351" x2="27.5" y2="27.6351" gradientUnits="userSpaceOnUse">
<stop stop-color="#00469F"/>
<stop offset="1" stop-color="#1E79D6"/>
</linearGradient>
<linearGradient id="paint5_linear_20_30782" x1="27.5" y1="25.5135" x2="32.5" y2="25.5135" gradientUnits="userSpaceOnUse">
<stop stop-color="#00469F"/>
<stop offset="1" stop-color="#1E79D6"/>
</linearGradient>
<linearGradient id="paint6_linear_20_30782" x1="32.5" y1="31.2838" x2="33.5" y2="31.2838" gradientUnits="userSpaceOnUse">
<stop stop-color="#00469F"/>
<stop offset="1" stop-color="#1E79D6"/>
</linearGradient>
</defs>
</svg>
