<svg width="41" height="41" viewBox="0 0 41 41" fill="none" xmlns="http://www.w3.org/2000/svg">
<path d="M10.8374 27.6125C11.9351 25.4025 12.5043 22.9676 12.4999 20.5C12.5009 19.3002 12.771 18.116 13.2902 17.0343C13.8094 15.9527 14.5645 15.0013 15.4999 14.25" stroke="white" stroke-width="2" stroke-linecap="round" stroke-linejoin="round"/>
<path d="M20.5 20.5C20.5054 24.5671 19.4728 28.5684 17.5 32.125" stroke="white" stroke-width="2" stroke-linecap="round" stroke-linejoin="round"/>
<path d="M16.5 20.5C16.5 19.4391 16.9214 18.4217 17.6716 17.6716C18.4217 16.9214 19.4391 16.5 20.5 16.5C21.5609 16.5 22.5783 16.9214 23.3284 17.6716C24.0786 18.4217 24.5 19.4391 24.5 20.5C24.5083 24.6233 23.5988 28.6968 21.8375 32.425" stroke="white" stroke-width="2" stroke-linecap="round" stroke-linejoin="round"/>
<path d="M31.825 27.5C32.2728 25.1935 32.4988 22.8495 32.5 20.5C32.5 17.3174 31.2357 14.2652 28.9853 12.0147C26.7348 9.76428 23.6826 8.5 20.5 8.5C17.3174 8.5 14.2652 9.76428 12.0147 12.0147C9.76428 14.2652 8.5 17.3174 8.5 20.5C8.50358 21.863 8.27097 23.2164 7.8125 24.5" stroke="white" stroke-width="2" stroke-linecap="round" stroke-linejoin="round"/>
<path d="M16.0999 24.5C15.6681 26.6032 14.9044 28.6243 13.8374 30.4875" stroke="white" stroke-width="2" stroke-linecap="round" stroke-linejoin="round"/>
<path d="M19.5 12.5625C19.8319 12.5226 20.1657 12.5017 20.5 12.5C22.6217 12.5 24.6566 13.3429 26.1569 14.8431C27.6571 16.3434 28.5 18.3783 28.5 20.5C28.4988 21.8372 28.4154 23.1731 28.25 24.5" stroke="white" stroke-width="2" stroke-linecap="round" stroke-linejoin="round"/>
<path d="M27.4876 28.5C27.3001 29.2375 27.0876 29.975 26.8501 30.6875" stroke="white" stroke-width="2" stroke-linecap="round" stroke-linejoin="round"/>
</svg>
