<svg width="43" height="41" viewBox="0 0 43 41" fill="none" xmlns="http://www.w3.org/2000/svg">
<path d="M36.75 10.5H4.25C3.55964 10.5 3 11.0596 3 11.75V29.25C3 29.9404 3.55964 30.5 4.25 30.5H36.75C37.4404 30.5 38 29.9404 38 29.25V11.75C38 11.0596 37.4404 10.5 36.75 10.5Z" stroke="white" stroke-width="2" stroke-linecap="round" stroke-linejoin="round"/>
<path d="M7 10.5V8.25C7 7.55964 7.55964 7 8.25 7H40.75C41.4404 7 42 7.55964 42 8.25V25.75C42 26.4404 41.4404 27 40.75 27H38" stroke="white" stroke-width="2" stroke-linecap="round" stroke-linejoin="round"/>
<path d="M20.5 25.5C23.2614 25.5 25.5 23.2614 25.5 20.5C25.5 17.7386 23.2614 15.5 20.5 15.5C17.7386 15.5 15.5 17.7386 15.5 20.5C15.5 23.2614 17.7386 25.5 20.5 25.5Z" stroke="white" stroke-width="2" stroke-linecap="round" stroke-linejoin="round"/>
<path d="M28 10.5L38 19.25" stroke="white" stroke-width="2" stroke-linecap="round" stroke-linejoin="round"/>
<path d="M28 30.5L38 21.75" stroke="white" stroke-width="2" stroke-linecap="round" stroke-linejoin="round"/>
<path d="M13 10.5L3 19.25" stroke="white" stroke-width="2" stroke-linecap="round" stroke-linejoin="round"/>
<path d="M13 30.5L3 21.75" stroke="white" stroke-width="2" stroke-linecap="round" stroke-linejoin="round"/>
</svg>
