<svg width="42" height="53" viewBox="0 0 42 53" fill="none" xmlns="http://www.w3.org/2000/svg">
<path d="M30.9998 51.7622H2.99999C2.46956 51.7622 1.96085 51.5427 1.58578 51.152C1.21071 50.7613 1 50.2315 1 49.6789V12.18C1 11.6274 1.21071 11.0975 1.58578 10.7069C1.96085 10.3162 2.46956 10.0967 2.99999 10.0967H22.9999L32.9998 20.5131V49.6789C32.9998 50.2315 32.7891 50.7613 32.414 51.152C32.039 51.5427 31.5303 51.7622 30.9998 51.7622Z" stroke="white" stroke-width="2" stroke-linecap="round" stroke-linejoin="round"/>
<path d="M8.99902 10.0938V3.84402C8.99902 3.2915 9.20974 2.76161 9.58481 2.37092C9.95988 1.98023 10.4686 1.76074 10.999 1.76074H30.9989L40.9988 12.1771V41.343C40.9988 41.8955 40.7881 42.4254 40.4131 42.8161C40.038 43.2068 39.5293 43.4263 38.9988 43.4263H32.9989" stroke="white" stroke-width="2" stroke-linecap="round" stroke-linejoin="round"/>
<path d="M10.9978 33.0088H22.9977" stroke="white" stroke-width="2" stroke-linecap="round" stroke-linejoin="round"/>
<path d="M10.9978 41.3408H22.9977" stroke="white" stroke-width="2" stroke-linecap="round" stroke-linejoin="round"/>
</svg>
