<svg width="50" height="44" viewBox="0 0 50 44" fill="none" xmlns="http://www.w3.org/2000/svg">
<g opacity="0.4">
<path d="M5.19891 7.28537H3.53735V3.04834H7.69124V4.74315H5.19891V7.28537Z" fill="#393E50"/>
<path d="M32.6145 36.9407H31.0841V35.5283H32.6145V36.9407ZM29.5538 36.9407H28.0234V35.5283H29.5538V36.9407ZM26.493 36.9407H24.9626V35.5283H26.493V36.9407ZM23.4323 36.9407H21.9019V35.5283H23.4323V36.9407ZM20.3715 36.9407H18.8411V35.5283H20.3715V36.9407ZM17.3108 36.9407H15.7804V35.5283H17.3108V36.9407ZM14.25 36.9407H12.7196V35.5283H14.25V36.9407ZM11.1892 36.9407H9.65886V35.5283H11.1892V36.9407ZM8.12849 36.9407H6.59811V35.5283H8.12849V36.9407ZM5.06773 36.9407H3.53735V35.5283H5.06773V36.9407Z" fill="#393E50"/>
<path d="M32.6145 40.4715H31.0841V38.353H32.6145V40.4715ZM29.5538 40.4715H28.0234V38.353H29.5538V40.4715ZM26.493 40.4715H24.9626V38.353H26.493V40.4715ZM23.4323 40.4715H21.9019V38.353H23.4323V40.4715ZM20.3715 40.4715H18.8411V38.353H20.3715V40.4715ZM17.3108 40.4715H15.7804V38.353H17.3108V40.4715ZM14.25 40.4715H12.7196V38.353H14.25V40.4715ZM11.1892 40.4715H9.65886V38.353H11.1892V40.4715ZM8.12849 40.4715H6.59811V38.353H8.12849V40.4715ZM5.06773 40.4715H3.53735V38.353H5.06773V40.4715Z" fill="#393E50"/>
<path d="M40.2285 3.04834H46.4593V5.16686H40.2285V3.04834Z" fill="#393E50"/>
<path d="M40.2285 6.57764H46.4593V7.98998H40.2285V6.57764Z" fill="#393E50"/>
<path d="M40.2285 9.40039H46.4593V10.8127H40.2285V9.40039Z" fill="#393E50"/>
<path d="M32.6137 13.6358H29.1521V12.2235H31.229V10.105H32.6137V13.6358Z" fill="#393E50"/>
<path d="M46.8956 0.221191H39.1071C37.8167 0.221191 36.7705 1.26962 36.7705 2.56271V29.8804H49.2322V2.56271C49.2322 1.26962 48.186 0.221191 46.8956 0.221191ZM47.6744 28.3194H38.3282V2.56271C38.3282 2.13168 38.6769 1.7822 39.1071 1.7822H46.8956C47.3257 1.7822 47.6744 2.13168 47.6744 2.56271V28.3194Z" fill="#393E50"/>
<path d="M33.1274 32.7056H3.02683C1.78011 32.7056 0.769287 33.7219 0.769287 34.9754V41.0283C0.769287 42.2818 1.78011 43.2981 3.02683 43.2981H33.1274C34.3741 43.2981 35.385 42.2818 35.385 41.0283V34.9754C35.385 33.7219 34.3741 32.7056 33.1274 32.7056ZM33.8799 41.0283C33.8799 41.4461 33.543 41.7849 33.1274 41.7849H3.02683C2.61126 41.7849 2.27432 41.4461 2.27432 41.0283V34.9754C2.27432 34.5576 2.61126 34.2188 3.02683 34.2188H33.1274C33.543 34.2188 33.8799 34.5576 33.8799 34.9754V41.0283Z" fill="#393E50"/>
<path d="M42.3084 32.7056C40.0153 32.7082 38.1574 34.4002 38.1545 36.4886V39.5151C38.1545 41.6043 40.0145 43.2981 42.3084 43.2981C44.6024 43.2981 46.4623 41.6043 46.4623 39.5151V36.4886C46.4595 34.4002 44.6016 32.7082 42.3084 32.7056ZM44.8008 39.5151C44.8008 40.7686 43.6848 41.7849 42.3084 41.7849C40.932 41.7849 39.8161 40.7686 39.8161 39.5151V36.4886C39.8206 35.5303 40.4854 34.6776 41.4776 34.3581V37.2452H43.1392V34.3581C44.1314 34.6776 44.7963 35.5303 44.8008 36.4886V39.5151Z" fill="#393E50"/>
<path d="M33.1274 0.221191H3.02683C1.78011 0.221191 0.769287 1.26962 0.769287 2.56271V21.2949C0.769287 22.5879 1.78011 23.6364 3.02683 23.6364H13.562V26.8887C13.5613 27.6784 12.944 28.3186 12.1827 28.3194H9.79947V29.8804H24.8498V28.3194H22.4666C21.7052 28.3186 21.0879 27.6784 21.0872 26.8887V23.6364H33.1274C34.3741 23.6364 35.385 22.5879 35.385 21.2949V2.56271C35.385 1.26962 34.3741 0.221191 33.1274 0.221191ZM14.7151 28.3194C14.9466 27.8808 15.0678 27.3887 15.0671 26.8887V23.6364H16.5721V26.9535H18.0771V23.6364H19.5822V26.8887C19.5814 27.3887 19.7027 27.8808 19.9342 28.3194H14.7151ZM33.8799 21.2949C33.8799 21.7259 33.543 22.0754 33.1274 22.0754H3.02683C2.61126 22.0754 2.27432 21.7259 2.27432 21.2949V17.3923H33.8799V21.2949ZM33.8799 15.8313H2.27432V2.56271C2.27432 2.13168 2.61126 1.7822 3.02683 1.7822H33.1274C33.543 1.7822 33.8799 2.13168 33.8799 2.56271V15.8313Z" fill="#393E50"/>
<path d="M44.1227 20.2449V18.5835H42.5652V20.2449C41.0464 20.6354 40.0559 22.09 40.2536 23.6398C40.4513 25.1895 41.7754 26.3514 43.3439 26.3514C44.9125 26.3514 46.2365 25.1895 46.4343 23.6398C46.632 22.09 45.6414 20.6354 44.1227 20.2449ZM43.3439 24.7884C42.6401 24.7903 42.0229 24.3203 41.8404 23.6432C41.6579 22.966 41.9552 22.2514 42.5652 21.9014V23.2372H44.1227V21.9014C44.7326 22.2514 45.03 22.966 44.8475 23.6432C44.6649 24.3203 44.0478 24.7903 43.3439 24.7884Z" fill="#393E50"/>
<path d="M16.6917 18.5835H18.0763V19.9958H16.6917V18.5835Z" fill="#393E50"/>
</g>
</svg>
