<svg width="50" height="51" viewBox="0 0 50 51" fill="none" xmlns="http://www.w3.org/2000/svg">
<path fill-rule="evenodd" clip-rule="evenodd" d="M22.2016 0.977539C22.0763 1.08076 21.7059 1.89756 21.2659 3.04072C20.8654 4.08145 20.5249 4.9415 20.5093 4.95195C20.4937 4.96231 20.0191 5.09189 19.4545 5.23994C17.6858 5.70371 16.0424 6.40723 13.8238 7.65059L13.4234 7.875L11.4948 7.01748C9.74924 6.24141 9.54052 6.17061 9.29572 6.27187C8.95219 6.41406 5.51989 9.86348 5.43093 10.1561C5.38264 10.3148 5.5982 10.899 6.22016 12.2951L7.07596 14.2156L6.8513 14.6156C5.60661 16.8318 4.90233 18.4734 4.43807 20.2402C4.28986 20.8042 4.16013 21.2783 4.14977 21.2939C4.13931 21.3095 3.27832 21.6496 2.23648 22.0497C1.09209 22.4893 0.274416 22.8593 0.171082 22.9844C0.017597 23.1703 0 23.4601 0 25.8066C0 28.1532 0.017597 28.443 0.171082 28.6289C0.274416 28.754 1.09209 29.124 2.23648 29.5636C3.27832 29.9637 4.13931 30.3038 4.14977 30.3193C4.16013 30.335 4.28986 30.8091 4.43807 31.373C4.90233 33.1398 5.60661 34.7814 6.8513 36.9977L7.07596 37.3977L6.22016 39.3182C5.5982 40.7143 5.38264 41.2984 5.43093 41.4572C5.51989 41.7498 8.95219 45.1992 9.29572 45.3414C9.54042 45.4426 9.7465 45.3731 11.4553 44.6139C12.4943 44.1522 13.3791 43.7747 13.4214 43.7749C13.4639 43.7752 14.0079 44.0584 14.6306 44.4042C16.0701 45.2039 17.8516 45.9361 19.3263 46.3343C19.9614 46.5058 20.4937 46.6537 20.5093 46.6632C20.5249 46.6726 20.8654 47.5318 21.2659 48.5726C21.7059 49.7157 22.0763 50.5325 22.2016 50.6357C22.3877 50.7891 22.6778 50.8066 25.0269 50.8066C27.3755 50.8066 27.6662 50.7891 27.8533 50.6357C28.0516 50.4733 29.7194 46.3217 29.7194 45.9905C29.7194 45.912 29.6383 45.7478 29.5391 45.6254C29.3291 45.3662 28.8124 45.3232 28.589 45.5463C28.5101 45.6252 28.1246 46.5224 27.7325 47.5401L27.0195 49.3906H25.0269H23.0342L22.3261 47.5528C21.9366 46.5421 21.5676 45.6544 21.506 45.5803C21.4443 45.5061 21.0565 45.3718 20.6441 45.2818C18.7064 44.8591 16.2569 43.861 14.5919 42.8161C14.1489 42.5381 13.6771 42.3105 13.5433 42.3105C13.4095 42.3105 12.5062 42.6621 11.5358 43.0918C10.5654 43.5215 9.73897 43.873 9.69918 43.873C9.60641 43.873 6.94105 41.208 6.94105 41.1153C6.94105 41.077 7.29299 40.2525 7.72314 39.2832C8.15329 38.3139 8.50523 37.4154 8.50523 37.2867C8.50523 37.1579 8.27744 36.6865 7.99902 36.2392C6.94232 34.5412 5.95239 32.1128 5.53074 30.1847C5.44071 29.7728 5.30628 29.3854 5.23199 29.3237C5.15778 29.2622 4.26913 28.8936 3.25731 28.5045L1.41754 27.7972V25.8066V23.8161L3.25731 23.1088C4.26913 22.7197 5.15778 22.3511 5.23199 22.2896C5.30628 22.2279 5.44071 21.8405 5.53074 21.4286C5.95239 19.5005 6.94232 17.0721 7.99902 15.3741C8.27744 14.9268 8.50523 14.4554 8.50523 14.3266C8.50523 14.1979 8.15329 13.2994 7.72314 12.3301C7.29299 11.3607 6.94105 10.5352 6.94105 10.4954C6.94105 10.4027 9.60895 7.74023 9.70173 7.74023C9.74015 7.74023 10.5654 8.0918 11.5358 8.52148C12.5062 8.95117 13.4056 9.30273 13.5345 9.30273C13.6634 9.30273 14.1353 9.0752 14.5831 8.79707C16.2829 7.7415 18.7139 6.75264 20.6441 6.33145C21.0565 6.2415 21.4443 6.10723 21.506 6.03301C21.5676 5.95889 21.9366 5.07119 22.3261 4.06045L23.0342 2.22266H25.0269H27.0195L27.7325 4.07314C28.1246 5.09092 28.5101 5.98809 28.589 6.06699C28.8124 6.29004 29.3291 6.24707 29.5391 5.98789C29.6383 5.86553 29.7189 5.69346 29.7184 5.60537C29.7162 5.26504 28.0544 1.14463 27.8519 0.977539C27.666 0.824219 27.3761 0.806641 25.0269 0.806641C22.6778 0.806641 22.3877 0.824219 22.2016 0.977539ZM35.0466 3.71055C33.2753 4.34385 32.4514 6.3834 33.2819 8.0791C33.5986 8.72549 34.2762 9.34414 34.9162 9.57129L35.3896 9.73916V10.8157V11.8922L33.1647 14.1131L30.9399 16.334H28.3255H25.7112V13.8081C25.7112 11.3588 25.7048 11.274 25.4976 11.0109L25.284 10.7396L24.1894 10.7982C21.4569 10.9445 18.8355 11.8411 16.4728 13.4375C15.3234 14.2141 13.4218 16.1136 12.6444 17.2617C11.4705 18.9954 10.6948 20.8161 10.2518 22.877C9.93234 24.363 9.93215 27.2485 10.2513 28.7363C10.6873 30.7682 11.4842 32.6381 12.6444 34.3516C13.4218 35.4997 15.3234 37.3992 16.4728 38.1758C18.8258 39.7656 21.4681 40.6693 24.1894 40.815L25.284 40.8736L25.4976 40.6023C25.7048 40.3393 25.7112 40.2545 25.7112 37.8052V35.2793H28.3271H30.943L33.1663 37.5018L35.3896 39.7242V40.7991V41.8741L34.9162 42.042C34.2664 42.2726 33.5992 42.887 33.2687 43.5592C33.0325 44.0396 32.9947 44.2325 32.9969 44.9473C32.9997 45.9256 33.2313 46.5067 33.8745 47.1496C34.5201 47.795 35.0952 48.0234 36.0739 48.0234C36.7847 48.0234 36.9849 47.9842 37.4583 47.752C38.0662 47.4538 38.5839 46.9406 38.9289 46.2944C39.117 45.942 39.1529 45.7268 39.1531 44.9473C39.1534 44.1012 39.1279 43.9735 38.8634 43.4966C38.5006 42.8424 37.8483 42.2608 37.2316 42.042L36.7582 41.8741V40.5108V39.1477L34.1915 36.5787L31.6249 34.0098H28.668H25.7112V32.4473V30.8848H29.0001H32.289L33.6787 32.252L35.0685 33.6191H36.1421H37.2157L37.3417 34.0002C37.555 34.6459 38.1153 35.2796 38.8112 35.6619C39.4028 35.987 39.504 36.0107 40.2776 36.0064C41.2899 36.0008 41.8562 35.7652 42.5431 35.0643C43.1832 34.411 43.4385 33.7045 43.3829 32.7402C43.3156 31.5741 42.7346 30.6721 41.6952 30.1199C41.2651 29.8915 41.0948 29.8603 40.2776 29.8599C39.4304 29.8594 39.3029 29.8848 38.8254 30.149C38.1705 30.5114 37.5883 31.1631 37.3692 31.7791L37.2012 32.252H36.3699H35.5387L34.1921 30.9092L32.8453 29.5664L29.2783 29.5385L25.7112 29.5106V28.0004V26.4902H34.803C43.3963 26.4902 43.8949 26.4996 43.8957 26.6611C43.8963 26.7551 44.0261 27.0575 44.1844 27.3331C45.422 29.4888 48.4525 29.4546 49.6547 27.2715C49.9801 26.6806 50.0039 26.5794 49.9996 25.8066C49.9958 25.1336 49.95 24.8842 49.7578 24.4883C48.8541 22.6271 46.4355 22.1002 44.8844 23.4265C44.4561 23.7927 43.8973 24.655 43.8957 24.9521C43.8949 25.1137 43.3963 25.123 34.803 25.123H25.7112V23.6094V22.0957H29.1482H32.5852L34.2164 20.4844L35.8477 18.873H36.493H37.1383L37.4008 19.4574C37.7084 20.1421 38.4027 20.8387 39.0833 21.1456C39.7738 21.4571 40.8343 21.438 41.5637 21.1009C42.2146 20.8002 42.8157 20.2151 43.1311 19.5755C43.3168 19.1988 43.3569 18.9605 43.3562 18.2383C43.3554 17.4745 43.3209 17.294 43.0928 16.8605C41.8518 14.5028 38.5196 14.5808 37.4244 16.9932L37.1473 17.6035H36.1939H35.2407L33.6787 19.166L32.1168 20.7285H28.9141H25.7112V19.166V17.6035H28.6646H31.618L34.1881 15.0361L36.7582 12.4688V11.104V9.73916L37.2316 9.57129C37.492 9.47891 37.9004 9.23154 38.1392 9.02148C39.442 7.87598 39.5647 5.88857 38.4134 4.58193C37.6228 3.68477 36.1704 3.30879 35.0466 3.71055ZM36.7274 5.01211C37.0646 5.13936 37.5105 5.55029 37.6957 5.9043C37.9095 6.31309 37.8705 7.11084 37.6147 7.56562C37.1966 8.30869 36.0451 8.66894 35.3114 8.28604C33.6487 7.41836 34.1886 4.92939 36.0431 4.91201C36.2681 4.90996 36.5761 4.95498 36.7274 5.01211ZM24.3425 25.8066V39.4785L24.1226 39.4779C23.6277 39.4767 21.9891 39.1794 21.1653 38.9414C20.6814 38.8017 19.7915 38.4509 19.1877 38.1619C15.2266 36.2662 12.4943 32.7818 11.5667 28.4434C11.316 27.2706 11.316 24.3427 11.5667 23.1699C12.6519 18.0946 16.3228 14.0851 21.1819 12.668C22.0444 12.4164 23.425 12.1621 24.0248 12.1442L24.3425 12.1348V25.8066ZM41.294 16.7981C41.8576 17.195 42.0564 17.6226 42.0148 18.3486C41.9878 18.8238 41.9233 19.0224 41.7026 19.3114C41.2059 19.9619 40.3518 20.201 39.6181 19.8947C38.9227 19.6044 38.5179 18.995 38.5179 18.2383C38.5179 16.7937 40.1127 15.9664 41.294 16.7981ZM19.2574 17.4529C17.9312 18.3469 16.6828 19.789 15.9477 21.2764C15.1879 22.8138 14.9151 24.0104 14.9151 25.8066C14.9151 27.6028 15.1879 28.7995 15.9477 30.3369C16.6844 31.8276 17.9447 33.2781 19.2721 34.1632C20.0144 34.6581 20.2465 34.6923 20.5831 34.356C21.0289 33.9107 20.9197 33.6854 19.8995 32.9448C18.1622 31.684 17.0297 30.0204 16.4638 27.898C16.2105 26.9478 16.2105 24.6654 16.4638 23.7152C17.0297 21.5929 18.1622 19.9293 19.8995 18.6685C20.9197 17.9279 21.0289 17.7025 20.5831 17.2573C20.2472 16.9217 19.9891 16.9598 19.2574 17.4529ZM47.7005 24.2199C47.8849 24.3138 48.1709 24.5595 48.336 24.7659C48.605 25.1021 48.6362 25.2104 48.6362 25.8066C48.6362 26.4029 48.605 26.5111 48.336 26.8474C47.9471 27.3335 47.4818 27.5642 46.8898 27.5643C45.1275 27.5648 44.4798 25.1933 45.9946 24.2861C46.475 23.9984 47.2098 23.9699 47.7005 24.2199ZM41.1777 31.387C41.9271 31.7614 42.27 32.9185 41.866 33.7099C41.0605 35.288 38.6841 34.839 38.5383 33.081C38.4159 31.6069 39.8175 30.7074 41.1777 31.387ZM36.9951 43.424C37.5278 43.7358 37.8336 44.2891 37.8336 44.941C37.8336 45.5077 37.687 45.8505 37.2802 46.235C36.1593 47.2943 34.3142 46.4933 34.3142 44.9473C34.3142 44.4579 34.4584 44.0876 34.7848 43.7391C35.3422 43.1437 36.2865 43.0092 36.9951 43.424Z" fill="#393E50"/>
</svg>
