<svg width="42" height="51" viewBox="0 0 42 51" fill="none" xmlns="http://www.w3.org/2000/svg">
<path fill-rule="evenodd" clip-rule="evenodd" d="M10.8741 0.97281C9.11938 1.46386 7.80878 3.00656 7.57836 4.85221C7.529 5.24774 7.4893 10.0055 7.4877 15.7329L7.48479 25.9107L4.2066 25.9388C1.06413 25.9656 0.917618 25.9751 0.66937 26.1682C0.00158684 26.6873 -0.176739 27.3679 0.180382 28.0351C0.389961 28.4268 19.4573 49.8898 20.1111 50.4699C20.5525 50.8617 21.1925 50.9174 21.6779 50.6066C22.1282 50.3182 41.5304 28.5753 41.8196 28.0349C42.1767 27.368 41.9984 26.6873 41.3306 26.1682C41.0824 25.9752 40.9358 25.9656 37.7973 25.9388L34.523 25.9107L34.4941 15.2446C34.4655 4.6436 34.4641 4.57513 34.2659 4.03281C33.9556 3.18343 33.8042 2.9252 33.2529 2.30563C32.6814 1.66329 31.9223 1.1947 31.0855 0.967927C30.281 0.749844 11.6547 0.754336 10.8741 0.97281ZM30.7591 3.96806C31.2638 4.23644 31.5084 4.56927 31.6124 5.12947C31.6558 5.36357 31.6933 10.5652 31.6958 16.6887C31.7001 27.5482 31.7047 27.8301 31.8831 28.1345C32.2594 28.7767 32.3339 28.794 34.9581 28.8479L37.3341 28.8967L29.2072 38.0038C24.7375 43.0128 21.0442 47.111 21 47.111C20.9558 47.111 17.2625 43.0127 12.7928 38.0038L4.66593 28.8967L7.04189 28.8479C9.66609 28.794 9.74061 28.7767 10.1169 28.1345C10.2953 27.83 10.2998 27.5495 10.3023 16.6399C10.3038 10.281 10.3418 5.29218 10.3903 5.07429C10.5078 4.5473 10.7542 4.22687 11.2409 3.96806L11.6542 3.74831H21H30.3458L30.7591 3.96806ZM20.5888 8.72945C19.8716 8.96101 19.5922 9.54807 19.5922 10.8239C19.5922 11.8712 19.6645 11.7841 18.7005 11.8965C18.0085 11.9772 16.9801 12.5428 16.3686 13.179C15.4494 14.1355 15.0197 15.3536 15.1133 16.7376C15.2365 18.5602 16.3784 20.1248 18.0435 20.7527C18.5412 20.9404 18.8695 20.972 20.8668 21.0243L23.127 21.0836L23.4581 21.3467C24.398 22.0934 24.2704 23.6236 23.2242 24.1506C22.8421 24.3431 22.6651 24.3553 20.2571 24.3553C17.4221 24.3553 17.2502 24.3867 16.845 24.9778C16.5529 25.404 16.5529 26.2366 16.845 26.6628C17.1805 27.1522 17.5651 27.2853 18.6443 27.2853H19.5922V28.2716C19.5922 29.3946 19.72 29.7947 20.1903 30.1439C20.4084 30.3057 20.6163 30.3617 21 30.3617C21.3837 30.3617 21.5916 30.3057 21.8097 30.1439C22.28 29.7947 22.4078 29.3946 22.4078 28.2716V27.2853H22.7166C23.6428 27.2853 24.8423 26.721 25.6064 25.9258C26.953 24.5246 27.2942 22.4697 26.4784 20.6752C26.1745 20.0069 25.3908 19.1249 24.7405 18.7194C23.9077 18.2002 23.3605 18.1052 21.1915 18.1027C19.5244 18.1009 19.2123 18.0764 18.8844 17.9213C17.4426 17.2399 17.6372 15.1518 19.177 14.7801C19.3796 14.7313 20.6433 14.6901 21.9855 14.6886C24.2527 14.6861 24.4474 14.6722 24.7316 14.4918C25.3949 14.0711 25.6117 13.1664 25.2 12.5371C24.7946 11.9172 24.5823 11.8249 23.4509 11.7764L22.4238 11.7323L22.3923 10.6771C22.3661 9.79584 22.329 9.57737 22.1674 9.35245C21.7586 8.78346 21.1571 8.54604 20.5888 8.72945Z" fill="#393E50"/>
</svg>
