<svg width="50" height="41" viewBox="0 0 50 41" fill="none" xmlns="http://www.w3.org/2000/svg">
<path fill-rule="evenodd" clip-rule="evenodd" d="M35.0617 0.905078C34.7458 1.03297 34.3061 1.45994 34.1004 1.83854C33.9616 2.09393 33.9336 2.56469 33.9071 5.09597L33.8763 8.05492L27.3539 8.08179L20.8317 8.10876L20.4882 8.34862C19.119 9.30448 19.4997 11.2952 21.1173 11.6373C21.4862 11.7153 23.8253 11.7402 28.9148 11.7203C36.845 11.6892 36.4449 11.7185 36.9866 11.1275C37.4245 10.6498 37.5042 10.2582 37.5042 8.5849V7.01426L41.5831 11.1693L45.662 15.3245L41.5831 19.4796L37.5042 23.6347V22.0641C37.5042 20.0582 37.3581 19.6382 36.5067 19.1955C36.158 19.0142 35.7639 19.007 26.1325 19.007H16.1207L16.0898 16.0461C16.06 13.1979 16.0504 13.0692 15.8392 12.6664C15.4384 11.9025 14.4269 11.532 13.5982 11.8456C13.1879 12.0008 0.402663 25.0308 0.174531 25.526C-0.0580956 26.0313 -0.0581933 26.5133 0.174336 27.0189C0.299002 27.2901 2.42303 29.5145 6.84029 33.9999C13.8151 41.0821 13.5895 40.8829 14.5144 40.7767C15.0141 40.7194 15.5591 40.3237 15.8634 39.7976C16.0448 39.484 16.0611 39.2475 16.0908 36.501L16.1229 33.542L22.644 33.5152L29.1652 33.4882L29.5087 33.2483C30.8779 32.2925 30.4972 30.3017 28.8796 29.9597C28.5107 29.8816 26.1716 29.8568 21.0821 29.8767C13.1539 29.9078 13.5415 29.8793 13.0178 30.468C12.5849 30.9546 12.5431 31.1459 12.4927 32.8671L12.4438 34.535L8.36482 30.3785L4.2858 26.2218L8.38925 22.0426L12.4927 17.8633V19.4834C12.4927 21.5438 12.6336 21.9562 13.4902 22.4015C13.8389 22.5828 14.2331 22.59 23.8644 22.59H33.8762L33.9071 25.5509C33.9369 28.3991 33.9465 28.5278 34.1577 28.9306C34.5585 29.6944 35.57 30.065 36.3987 29.7514C36.809 29.5962 49.5942 16.5662 49.8224 16.0709C50.0463 15.5846 50.0581 15.1384 49.86 14.6495C49.6524 14.137 37.0313 1.24884 36.4783 0.9846C36.0543 0.782062 35.4494 0.748024 35.0617 0.905078Z" fill="black"/>
</svg>
