<svg width="38" height="51" viewBox="0 0 38 51" fill="none" xmlns="http://www.w3.org/2000/svg">
<path fill-rule="evenodd" clip-rule="evenodd" d="M17.8256 0.978703C17.0941 1.2206 16.74 1.46015 15.0768 2.83798C13.4882 4.1539 13.234 4.33788 12.8028 4.48398C12.6282 4.54316 11.5296 4.68407 10.3614 4.79706C9.19333 4.91005 8.01793 5.07294 7.74938 5.15898C6.49567 5.56073 5.51559 6.53944 5.12917 7.77538C5.04528 8.04394 4.88405 9.21933 4.77106 10.3874C4.65807 11.5556 4.51715 12.6542 4.45797 12.8288C4.31159 13.2609 4.12838 13.5136 2.7945 15.1237C2.16061 15.889 1.5154 16.7145 1.36081 16.9583C0.685318 18.0234 0.595963 19.4981 1.13698 20.6508C1.30866 21.0166 1.96657 21.921 2.81764 22.9609C3.58678 23.9009 4.29372 24.8457 4.38874 25.0605C4.50602 25.3258 4.6277 26.1408 4.76794 27.5996C4.99733 29.9867 5.11032 30.5027 5.55788 31.2072C6.36784 32.482 7.29254 32.9552 9.38434 33.165C10.1354 33.2404 10.7594 33.3154 10.771 33.3317C10.7825 33.3479 9.58366 36.2397 8.107 39.7578C6.43112 43.7502 5.42077 46.2782 5.41872 46.4841C5.41462 46.8907 5.89919 47.3749 6.31051 47.3751C6.45739 47.3752 7.60358 47.0865 8.85758 46.7336C10.1116 46.3807 11.1922 46.1128 11.2587 46.1384C11.3253 46.1639 11.8793 47.1008 12.4897 48.2203C13.1003 49.3398 13.7248 50.3822 13.8775 50.5366C14.1193 50.781 14.2072 50.8104 14.5555 50.7638C14.7757 50.7342 15.0356 50.6298 15.1332 50.5317C15.2307 50.4337 16.5877 47.2993 18.1486 43.5664C20.4315 38.1069 21.0384 36.7411 21.2512 36.584C21.3967 36.4766 22.1977 35.8242 23.031 35.1343C24.4983 33.9195 25.2132 33.4618 25.5432 33.5259C25.6522 33.547 26.4911 35.4417 28.2159 39.5625C29.5986 42.8657 30.7176 45.5808 30.7028 45.596C30.688 45.6112 29.8899 45.3973 28.9294 45.1206C26.0003 44.2767 25.964 44.291 24.5951 46.825C24.0848 47.7695 23.6409 48.5434 23.6085 48.5445C23.576 48.5458 23.0071 47.2469 22.344 45.658C21.5968 43.8676 21.0632 42.7165 20.9408 42.6307C20.467 42.2988 19.8099 42.6097 19.8099 43.1657C19.8099 43.3213 20.449 44.9803 21.2301 46.8522C22.7177 50.4175 22.932 50.793 23.4784 50.793C24.0579 50.793 24.2202 50.5909 25.4717 48.3108C26.1375 47.0978 26.7385 46.1055 26.8073 46.1055C26.8761 46.1055 27.9427 46.3911 29.1775 46.7402C30.4124 47.0893 31.5597 47.375 31.7273 47.375C32.1407 47.375 32.6029 46.9142 32.6029 46.502C32.6029 46.3272 31.4719 43.4998 29.9175 39.7886C28.4407 36.2623 27.2483 33.3611 27.2679 33.3415C27.2875 33.3219 27.8917 33.2436 28.6104 33.1677C30.4447 32.9736 31.2031 32.6705 31.9899 31.8169C32.8039 30.9339 32.9539 30.4349 33.2307 27.6893C33.401 26.0011 33.5076 25.3269 33.6553 25.0038C33.7638 24.7664 34.4553 23.8472 35.1922 22.9609C37.024 20.7573 37.3707 19.962 37.169 18.4263C37.0477 17.5032 36.7306 16.9695 35.1922 15.0996C34.3967 14.1328 33.6819 13.1894 33.6037 13.0031C33.5255 12.8169 33.3563 11.6207 33.2279 10.3449C32.9934 8.01669 32.89 7.55009 32.4526 6.84765C31.9567 6.05126 31.0852 5.3871 30.2103 5.13866C29.9418 5.06239 28.7552 4.90673 27.5736 4.79267C26.1337 4.6537 25.2964 4.529 25.0345 4.41435C24.8197 4.3203 23.9919 3.70585 23.1948 3.04882C20.7996 1.0745 20.4745 0.895011 19.1752 0.829875C18.5841 0.800285 18.2555 0.836515 17.8256 0.978703ZM20.0839 2.54101C20.3019 2.65234 21.1315 3.28085 21.9274 3.93788C23.7032 5.4039 24.1768 5.7287 24.8168 5.91864C25.0915 6.00028 26.2636 6.15595 27.4215 6.26464C29.7195 6.48027 30.1899 6.5998 30.7567 7.11181C31.4127 7.70439 31.5058 8.02812 31.7673 10.6221C32.0814 13.737 32.0266 13.6074 34.0728 16.0762C34.785 16.9355 35.4478 17.8144 35.5457 18.0293C35.7498 18.4772 35.781 19.2942 35.6153 19.8475C35.5533 20.0542 35.1688 20.6357 34.7608 21.1397C34.3527 21.6437 33.6612 22.4968 33.2241 23.0354C32.1308 24.3824 32.0498 24.628 31.7706 27.4363C31.5718 29.4364 31.5126 29.7791 31.2847 30.2447C30.761 31.3152 30.2646 31.5129 27.3802 31.7996C24.6054 32.0754 24.3539 32.1589 23.0094 33.2501C22.4708 33.6872 21.6177 34.3787 21.1137 34.7868C20.1275 35.5851 19.7434 35.7539 18.9118 35.7539C18.1615 35.7539 17.778 35.5292 15.9037 33.9911C15.0174 33.2639 14.1684 32.5909 14.017 32.4956C13.459 32.1448 12.8743 32.0249 10.5882 31.7926C7.99879 31.5294 7.67643 31.4365 7.08581 30.7827C6.57379 30.2159 6.45426 29.7455 6.23864 27.4475C6.12995 26.2896 5.97428 25.1175 5.89264 24.8428C5.7027 24.2028 5.3779 23.7292 3.91188 21.9534C2.61881 20.3871 2.3571 19.9668 2.26754 19.314C2.14782 18.4406 2.39899 17.9455 3.87243 16.1497C4.61071 15.2499 5.31628 14.3699 5.4404 14.1942C5.86628 13.5911 6.01842 12.921 6.23219 10.7051C6.34616 9.52343 6.507 8.34784 6.58961 8.09257C6.78854 7.47792 7.45309 6.81386 8.06657 6.61659C8.32184 6.53456 9.49694 6.37392 10.6779 6.25956C12.8877 6.0457 13.5604 5.89335 14.1682 5.46903C14.3439 5.34638 15.2091 4.65234 16.0909 3.92665C17.8695 2.46308 18.328 2.22157 19.1871 2.29569C19.4623 2.31933 19.8658 2.42978 20.0839 2.54101ZM17.7213 7.51894C16.9377 7.63896 16.6547 8.19472 17.0933 8.75234L17.3064 9.02323L18.2336 8.9623C23.168 8.63818 27.5476 11.8 28.8076 16.5962C29.0895 17.6693 29.1549 19.5291 28.9514 20.694C28.1887 25.0624 24.7821 28.3802 20.4016 29.0207C19.3509 29.1743 17.5594 29.0854 16.5776 28.8309C11.0293 27.3928 7.73756 21.7137 9.30905 16.2907C10.1182 13.4982 11.9869 11.2567 14.6062 9.93661C15.359 9.55722 15.527 9.09882 15.078 8.64989C14.7715 8.34335 14.4605 8.34716 13.8253 8.66513C10.708 10.2255 8.42223 13.2211 7.64303 16.7674C7.40475 17.8521 7.40524 20.177 7.64411 21.3008C8.50651 25.3581 11.4455 28.7041 15.2693 29.9819C17.6173 30.7666 20.3437 30.785 22.5975 30.0314C26.1709 28.8366 28.8937 26.0725 30.0434 22.4726C30.8507 19.9447 30.6967 16.9049 29.6374 14.4545C28.1758 11.074 25.082 8.52265 21.4701 7.71923C20.5559 7.51591 18.4692 7.40439 17.7213 7.51894ZM22.642 13.8863C22.321 14.0312 21.4337 14.8516 19.3497 16.9302L16.4968 19.7755L15.4893 18.7953C14.6687 17.997 14.3852 17.783 13.9605 17.642C12.8464 17.2719 11.6163 17.8184 11.1725 18.8807C10.9782 19.3459 10.978 20.2279 11.1721 20.6925C11.3548 21.1298 14.7898 24.6254 15.3666 24.9609C15.9348 25.2916 16.4736 25.3513 17.1452 25.158C17.6979 24.9988 17.7942 24.9116 21.5464 21.1705C24.1406 18.5838 25.4471 17.2119 25.5826 16.9323C25.848 16.3843 25.8486 15.496 25.5839 14.977C25.0195 13.8708 23.7328 13.3937 22.642 13.8863ZM24.0624 15.3882C24.2201 15.5458 24.3021 15.7382 24.3021 15.9501C24.3021 16.244 23.972 16.6024 20.55 20.0236C17.1997 23.373 16.7649 23.7747 16.4901 23.7747C16.2208 23.7747 15.9509 23.5436 14.334 21.9284C12.4432 20.0395 12.3512 19.9095 12.5464 19.4009C12.6354 19.1689 13.1425 18.936 13.3939 19.0116C13.5121 19.0472 14.1837 19.6427 14.8864 20.335C16.0099 21.442 16.2034 21.5937 16.4902 21.5937C16.788 21.5937 17.0976 21.3136 20.0526 18.3711C23.5576 14.8809 23.5562 14.8819 24.0624 15.3882ZM13.0015 33.6398C13.1744 33.7125 14.1068 34.4227 15.0736 35.2182C16.9513 36.7631 17.4719 37.0712 18.4248 37.2015C18.7571 37.247 19.0514 37.3066 19.079 37.3342C19.1325 37.3877 14.5771 48.3464 14.4459 48.48C14.4028 48.5237 13.9639 47.8206 13.4705 46.9175C12.977 46.0143 12.4278 45.1374 12.2498 44.9688C11.7084 44.4558 11.424 44.4658 9.26754 45.0741C8.22272 45.3688 7.35124 45.5934 7.33102 45.5731C7.31081 45.5529 8.42692 42.83 9.81129 39.5221C12.5268 33.0336 12.3471 33.3648 13.0015 33.6398Z" fill="#393E50"/>
</svg>
