<svg width="60" height="55" viewBox="0 0 60 55" fill="none" xmlns="http://www.w3.org/2000/svg">
<path d="M22.5 30.9375C27.1599 30.9375 30.9375 27.1599 30.9375 22.5C30.9375 17.8401 27.1599 14.0625 22.5 14.0625C17.8401 14.0625 14.0625 17.8401 14.0625 22.5C14.0625 27.1599 17.8401 30.9375 22.5 30.9375Z" stroke="url(#paint0_linear_20_30439)" stroke-width="2" stroke-linecap="round" stroke-linejoin="round"/>
<path d="M34.6992 14.1855C35.1224 14.7914 35.4929 15.4324 35.8066 16.1016L40.3593 18.6328C40.9278 21.179 40.9338 23.8185 40.3769 26.3672L35.8066 28.8984C35.4929 29.5676 35.1224 30.2086 34.6992 30.8145L34.7871 36.0352C32.8576 37.7934 30.574 39.118 28.0898 39.9199L23.6074 37.2305C22.87 37.2832 22.1299 37.2832 21.3925 37.2305L16.9277 39.9023C14.4356 39.115 12.1445 37.7955 10.2128 36.0352L10.3007 30.832C9.88109 30.2178 9.51079 29.5712 9.1933 28.8984L4.64057 26.3672C4.07209 23.821 4.06609 21.1815 4.62299 18.6328L9.1933 16.1016C9.50704 15.4324 9.87754 14.7914 10.3007 14.1855L10.2128 8.96484C12.1423 7.20662 14.4259 5.88199 16.9101 5.08008L21.3925 7.76953C22.1299 7.71679 22.87 7.71679 23.6074 7.76953L28.0722 5.09766C30.5643 5.88497 32.8554 7.20449 34.7871 8.96484L34.6992 14.1855Z" stroke="url(#paint1_linear_20_30439)" stroke-width="2" stroke-linecap="round" stroke-linejoin="round"/>
<rect width="27" height="27" rx="13.5" transform="matrix(-0.907871 0.41925 0.41925 0.907871 48.1377 19.125)" fill="#F8F8FA"/>
<path d="M41 29.875V31.75" stroke="url(#paint2_linear_20_30439)" stroke-width="2" stroke-linecap="round" stroke-linejoin="round"/>
<path d="M41 44.25V46.125" stroke="url(#paint3_linear_20_30439)" stroke-width="2" stroke-linecap="round" stroke-linejoin="round"/>
<path d="M45.375 34.875C45.375 34.4646 45.2942 34.0583 45.1371 33.6791C44.9801 33.3 44.7499 32.9555 44.4597 32.6653C44.1695 32.3751 43.825 32.1449 43.4459 31.9879C43.0667 31.8308 42.6604 31.75 42.25 31.75H39.4375C38.6087 31.75 37.8138 32.0792 37.2278 32.6653C36.6417 33.2513 36.3125 34.0462 36.3125 34.875C36.3125 35.7038 36.6417 36.4987 37.2278 37.0847C37.8138 37.6708 38.6087 38 39.4375 38H42.875C43.7038 38 44.4987 38.3292 45.0847 38.9153C45.6708 39.5013 46 40.2962 46 41.125C46 41.9538 45.6708 42.7487 45.0847 43.3347C44.4987 43.9208 43.7038 44.25 42.875 44.25H39.125C38.2962 44.25 37.5013 43.9208 36.9153 43.3347C36.3292 42.7487 36 41.9538 36 41.125" stroke="url(#paint4_linear_20_30439)" stroke-width="2" stroke-linecap="round" stroke-linejoin="round"/>
<defs>
<linearGradient id="paint0_linear_20_30439" x1="14.0625" y1="22.728" x2="30.9375" y2="22.728" gradientUnits="userSpaceOnUse">
<stop stop-color="#00469F"/>
<stop offset="1" stop-color="#1E79D6"/>
</linearGradient>
<linearGradient id="paint1_linear_20_30439" x1="4.20972" y1="22.9708" x2="40.7902" y2="22.9708" gradientUnits="userSpaceOnUse">
<stop stop-color="#00469F"/>
<stop offset="1" stop-color="#1E79D6"/>
</linearGradient>
<linearGradient id="paint2_linear_20_30439" x1="41" y1="30.8378" x2="42" y2="30.8378" gradientUnits="userSpaceOnUse">
<stop stop-color="#00469F"/>
<stop offset="1" stop-color="#1E79D6"/>
</linearGradient>
<linearGradient id="paint3_linear_20_30439" x1="41" y1="45.2128" x2="42" y2="45.2128" gradientUnits="userSpaceOnUse">
<stop stop-color="#00469F"/>
<stop offset="1" stop-color="#1E79D6"/>
</linearGradient>
<linearGradient id="paint4_linear_20_30439" x1="36" y1="38.1689" x2="46" y2="38.1689" gradientUnits="userSpaceOnUse">
<stop stop-color="#00469F"/>
<stop offset="1" stop-color="#1E79D6"/>
</linearGradient>
</defs>
</svg>
