<svg width="51" height="51" viewBox="0 0 51 51" fill="none" xmlns="http://www.w3.org/2000/svg">
<path fill-rule="evenodd" clip-rule="evenodd" d="M42.5189 1.40691C40.7559 1.76535 39.2953 2.07712 39.2732 2.09973C39.2511 2.12233 39.3054 2.50337 39.3938 2.9465C39.54 3.6792 39.5746 3.74754 39.7749 3.70025C40.4019 3.55212 43.6271 2.92577 43.6476 2.94806C43.6607 2.96243 39.3122 8.02806 33.9843 14.2051C27.3894 21.8512 24.1475 25.3789 24.1475 25.3789C24.0653 25.3473 21.7112 23.9144 18.9164 22.1946C15.7148 20.2246 13.7358 19.0679 13.5672 19.0679C13.42 19.0679 13.2055 19.1498 13.0905 19.2501C12.8177 19.4882 2.92457 31.8788 2.97645 31.9175C2.99822 31.9339 3.29009 32.1667 3.62499 32.435L4.23405 32.9228L8.91603 27.0631C11.4911 23.8401 13.6548 21.1639 13.7241 21.1159C13.806 21.059 15.6569 22.1428 19.0163 24.2148C22.5473 26.3925 24.2744 27.4012 24.4724 27.4012C24.6669 27.4012 25.0871 27.053 25.0871 27.053C25.0871 27.053 29.865 21.5422 35.3077 15.2326L45.2035 3.76056L45.2317 5.99754L45.2597 8.23452H46.091H46.9223V4.74025V1.24587L46.6666 0.990246C46.4914 0.815038 46.3027 0.737746 46.0676 0.74483C45.8788 0.750559 44.2819 1.04848 42.5189 1.40691ZM43.8447 14.3236C43.5983 14.5698 43.5889 14.631 43.5889 15.9902V17.4012H44.4223H45.2556V16.5679V15.7345H46.9223H48.5889V16.5679V17.4012H49.4223H50.2556V15.9902C50.2556 14.631 50.2462 14.5698 49.9999 14.3236L49.7443 14.0679H46.9223H44.1003L43.8447 14.3236ZM43.5889 22.4012V24.0679H44.4223H45.2556V22.4012V20.7345H44.4223H43.5889V22.4012ZM48.5889 22.4012V24.0679H49.4223H50.2556V22.4012V20.7345H49.4223H48.5889V22.4012ZM33.0113 27.6569C32.765 27.9032 32.7556 27.9643 32.7556 29.3236V30.7345H33.5889H34.4223V29.9012V29.0679H36.0889H37.7556V29.9012V30.7345H38.5889H39.4223V29.3236C39.4223 27.9643 39.4129 27.9032 39.1666 27.6569L38.9109 27.4012H36.0889H33.267L33.0113 27.6569ZM43.5889 29.0679V30.7345H44.4223H45.2556V29.0679V27.4012H44.4223H43.5889V29.0679ZM48.5889 29.0679V30.7345H49.4223H50.2556V29.0679V27.4012H49.4223H48.5889V29.0679ZM11.3447 30.1569L11.0889 30.4125V40.3178V50.2232L11.3447 50.4788L11.6003 50.7345H14.4223H17.2443L17.4999 50.4788L17.7556 50.2232V40.3178V30.4125L17.4999 30.1569L17.2443 29.9012H14.4223H11.6003L11.3447 30.1569ZM16.0889 40.3178V49.0678H14.4223H12.7556V40.3178V31.5679H14.4223H16.0889V40.3178ZM22.178 33.4902L21.9223 33.7459V41.9845V50.2232L22.178 50.4788L22.4336 50.7345H25.2556H28.0776L28.3332 50.4788L28.5889 50.2232V41.9845V33.7459L28.3332 33.4902L28.0776 33.2345H25.2556H22.4336L22.178 33.4902ZM32.7556 35.7345V37.4012H33.5889H34.4223V35.7345V34.0678H33.5889H32.7556V35.7345ZM37.7556 35.7345V37.4012H38.5889H39.4223V35.7345V34.0678H38.5889H37.7556V35.7345ZM43.5889 35.7345V37.4012H44.4223H45.2556V35.7345V34.0678H44.4223H43.5889V35.7345ZM48.5889 35.7345V37.4012H49.4223H50.2556V35.7345V34.0678H49.4223H48.5889V35.7345ZM26.9223 41.9845V49.0678H25.2556H23.5889V41.9845V34.9012H25.2556H26.9223V41.9845ZM0.511344 39.3236L0.255615 39.5792V44.9012V50.2232L0.511344 50.4788L0.766969 50.7345H3.58895H6.41093L6.66655 50.4788L6.92228 50.2232V44.9012V39.5792L6.66655 39.3236L6.41093 39.0678H3.58895H0.766969L0.511344 39.3236ZM5.25562 44.9012V49.0678H3.58895H1.92228V44.9012V40.7345H3.58895H5.25562V44.9012ZM32.7556 42.4012V44.0678H33.5889H34.4223V42.4012V40.7345H33.5889H32.7556V42.4012ZM37.7556 42.4012V44.0678H38.5889H39.4223V42.4012V40.7345H38.5889H37.7556V42.4012ZM43.5889 42.4012V44.0678H44.4223H45.2556V42.4012V40.7345H44.4223H43.5889V42.4012ZM48.5889 42.4012V44.0678H49.4223H50.2556V42.4012V40.7345H49.4223H48.5889V42.4012ZM32.7556 48.8121C32.7556 50.1714 32.765 50.2325 33.0113 50.4788L33.267 50.7345H36.0889H38.9109L39.1666 50.4788C39.4129 50.2325 39.4223 50.1714 39.4223 48.8121V47.4012H38.5889H37.7556V48.2345V49.0678H36.0889H34.4223V48.2345V47.4012H33.5889H32.7556V48.8121ZM43.5889 48.8121C43.5889 50.1714 43.5983 50.2325 43.8447 50.4788L44.1003 50.7345H46.9223H49.7443L49.9999 50.4788C50.2462 50.2325 50.2556 50.1714 50.2556 48.8121V47.4012H49.4223H48.5889V48.2345V49.0678H46.9223H45.2556V48.2345V47.4012H44.4223H43.5889V48.8121Z" fill="url(#paint0_linear_20_30475)"/>
<defs>
<linearGradient id="paint0_linear_20_30475" x1="0.255615" y1="26.415" x2="50.2556" y2="26.415" gradientUnits="userSpaceOnUse">
<stop stop-color="#00469F"/>
<stop offset="1" stop-color="#1E79D6"/>
</linearGradient>
</defs>
</svg>
