<svg width="60" height="55" viewBox="0 0 60 55" fill="none" xmlns="http://www.w3.org/2000/svg">
<path d="M22.5 30.9375C27.1599 30.9375 30.9375 27.1599 30.9375 22.5C30.9375 17.8401 27.1599 14.0625 22.5 14.0625C17.8401 14.0625 14.0625 17.8401 14.0625 22.5C14.0625 27.1599 17.8401 30.9375 22.5 30.9375Z" stroke="url(#paint0_linear_20_30453)" stroke-width="2" stroke-linecap="round" stroke-linejoin="round"/>
<path d="M34.6992 14.1855C35.1224 14.7914 35.4929 15.4324 35.8066 16.1016L40.3593 18.6328C40.9278 21.179 40.9338 23.8185 40.3769 26.3672L35.8066 28.8984C35.4929 29.5676 35.1224 30.2086 34.6992 30.8145L34.7871 36.0352C32.8576 37.7934 30.574 39.118 28.0898 39.9199L23.6074 37.2305C22.87 37.2832 22.1299 37.2832 21.3925 37.2305L16.9277 39.9023C14.4356 39.115 12.1445 37.7955 10.2128 36.0352L10.3007 30.832C9.88109 30.2178 9.51079 29.5712 9.1933 28.8984L4.64057 26.3672C4.07209 23.821 4.06609 21.1815 4.62299 18.6328L9.1933 16.1016C9.50704 15.4324 9.87754 14.7914 10.3007 14.1855L10.2128 8.96484C12.1423 7.20662 14.4259 5.88199 16.9101 5.08008L21.3925 7.76953C22.1299 7.71679 22.87 7.71679 23.6074 7.76953L28.0722 5.09766C30.5643 5.88497 32.8554 7.20449 34.7871 8.96484L34.6992 14.1855Z" stroke="url(#paint1_linear_20_30453)" stroke-width="2" stroke-linecap="round" stroke-linejoin="round"/>
<rect width="27" height="27" rx="13.5" transform="matrix(-0.907871 0.41925 0.41925 0.907871 48.1377 19.125)" fill="#F8F8FA"/>
<path d="M38.0002 34.501L42.2276 43.894C42.2781 44.001 42.3023 44.1184 42.2978 44.2353C42.2933 44.3522 42.2603 44.4648 42.2018 44.5627L41.6316 45.5417C41.5765 45.6368 41.4996 45.716 41.4073 45.7725C41.315 45.8289 41.2101 45.861 41.1013 45.8661C40.9925 45.8712 40.8831 45.8491 40.7822 45.8016C40.6814 45.7542 40.592 45.6828 40.5217 45.5935L39.5002 43.501L37.5002 42.001" stroke="url(#paint2_linear_20_30453)" stroke-width="2" stroke-linecap="round" stroke-linejoin="round"/>
<path d="M37.629 41.9861C36.8164 42.3613 35.8863 42.3949 35.0434 42.0794C34.2006 41.7639 33.514 41.1252 33.1346 40.3037C32.7553 39.4823 32.7143 38.5454 33.0207 37.6992C33.3271 36.853 33.9557 36.1667 34.7684 35.7915L37.8324 34.3765C37.8324 34.3765 42.0072 32.4486 44.4514 27.1957C44.5061 27.0798 44.5926 26.9822 44.7006 26.9142C44.8087 26.8462 44.9339 26.8106 45.0618 26.8115C45.1897 26.8124 45.315 26.8499 45.4232 26.9195C45.5313 26.989 45.6179 27.0879 45.673 27.2046L51.2369 39.2531C51.2901 39.3707 51.3092 39.5008 51.292 39.6282C51.2748 39.7557 51.2221 39.8754 51.1399 39.9733C51.0576 40.0713 50.9493 40.1435 50.8275 40.1817C50.7057 40.2198 50.5753 40.2223 50.4515 40.1889C44.8678 38.6432 40.6931 40.5711 40.6931 40.5711L37.629 41.9861Z" stroke="url(#paint3_linear_20_30453)" stroke-width="2" stroke-linecap="round" stroke-linejoin="round"/>
<defs>
<linearGradient id="paint0_linear_20_30453" x1="14.0625" y1="22.728" x2="30.9375" y2="22.728" gradientUnits="userSpaceOnUse">
<stop stop-color="#00469F"/>
<stop offset="1" stop-color="#1E79D6"/>
</linearGradient>
<linearGradient id="paint1_linear_20_30453" x1="4.20972" y1="22.9708" x2="40.7902" y2="22.9708" gradientUnits="userSpaceOnUse">
<stop stop-color="#00469F"/>
<stop offset="1" stop-color="#1E79D6"/>
</linearGradient>
<linearGradient id="paint2_linear_20_30453" x1="40.5118" y1="39.9396" x2="37.245" y2="41.4482" gradientUnits="userSpaceOnUse">
<stop stop-color="#00469F"/>
<stop offset="1" stop-color="#1E79D6"/>
</linearGradient>
<linearGradient id="paint3_linear_20_30453" x1="48.5378" y1="33.4083" x2="33.2175" y2="40.4832" gradientUnits="userSpaceOnUse">
<stop stop-color="#00469F"/>
<stop offset="1" stop-color="#1E79D6"/>
</linearGradient>
</defs>
</svg>
