<svg width="40" height="40" viewBox="0 0 40 40" fill="none" xmlns="http://www.w3.org/2000/svg">
<path fill-rule="evenodd" clip-rule="evenodd" d="M5.29188 0.166154C4.33087 0.474516 3.46813 1.34743 3.16527 2.31777C3.00275 2.83873 3 3.12859 3 19.9982C3 36.8677 3.00275 37.1576 3.16527 37.6785C3.47279 38.6636 4.33637 39.5272 5.32146 39.8347C5.8351 39.995 6.10829 40 14.3344 40C22.5605 40 22.8337 39.995 23.3473 39.8347C24.3324 39.5272 25.196 38.6636 25.5035 37.6785C25.6609 37.174 25.6688 36.9007 25.6688 31.9149V26.681L27.6064 26.6524L29.5441 26.6238L30.1044 26.3583C30.4126 26.2123 30.8526 25.9172 31.0822 25.7024C31.4913 25.3198 32.0027 24.4583 32.0027 24.1519C32.0027 24.0086 32.1021 23.9985 33.5181 23.9985C35.2575 23.9985 35.7284 23.9073 36.3616 23.4476C36.7928 23.1347 37.2056 22.5578 37.3371 22.0846C37.4622 21.6341 37.4355 20.8242 37.2806 20.3672C36.994 19.5223 35.8656 18.6647 35.0405 18.6647C34.7757 18.6647 34.7742 18.6624 34.7188 18.1438C34.3209 14.4213 31.5507 10.9968 27.9925 9.82871L27.4584 9.65336L27.3089 9.14615C27.1851 8.72594 27.0694 8.54876 26.6348 8.1143C26.3463 7.82578 26.011 7.56484 25.8895 7.53433L25.6688 7.47891V5.1632C25.6688 3.08742 25.6516 2.79256 25.5035 2.31777C25.196 1.33268 24.3324 0.469098 23.3473 0.16157C22.8332 0.00113848 22.5674 -0.00352863 14.3048 0.00097179C6.13779 0.00547221 5.77159 0.0122229 5.29188 0.166154ZM23.1685 1.52678C23.5777 1.74472 23.9038 2.06541 24.1124 2.45487C24.2675 2.74464 24.2947 2.95458 24.3206 4.05918L24.3502 5.33013H14.3344H4.31854L4.34796 4.05918C4.37196 3.02242 4.4058 2.73447 4.53164 2.49654C4.82033 1.95049 5.25821 1.58387 5.8331 1.40685C5.94794 1.37143 9.8298 1.34901 14.4594 1.35693C22.497 1.37076 22.89 1.37843 23.1685 1.52678ZM12.5388 2.86782C12.4098 2.99675 12.3342 3.1676 12.3342 3.32995C12.3342 3.49229 12.4098 3.66314 12.5388 3.79207C12.7416 3.99501 12.7562 3.99667 14.3344 3.99667C15.9125 3.99667 15.9271 3.99501 16.13 3.79207C16.259 3.66314 16.3346 3.49229 16.3346 3.32995C16.3346 3.1676 16.259 2.99675 16.13 2.86782C15.9271 2.66488 15.9125 2.66322 14.3344 2.66322C12.7562 2.66322 12.7416 2.66488 12.5388 2.86782ZM24.3353 6.9937C24.3353 7.30715 24.3188 7.32831 24.0092 7.41166C23.2409 7.61859 22.4624 8.41125 22.2237 9.22974L22.1132 9.60903L21.1543 9.99306C20.627 10.2042 19.8671 10.5822 19.4656 10.8331C18.5684 11.3936 17.4207 12.4559 16.7486 13.3478C15.7887 14.6217 15.0242 16.5174 14.8568 18.0386L14.7928 18.6211L14.4177 18.6747C13.5066 18.805 12.811 19.3114 12.402 20.1422C12.1641 20.6253 12.1284 20.7815 12.1311 21.3276C12.1361 22.3762 12.6912 23.2531 13.6454 23.72C14.0388 23.9124 14.2475 23.9518 15.0909 23.9925L16.0766 24.0402L15.5783 24.5971L15.08 25.154L14.696 24.9841C14.2691 24.7953 13.8071 24.8201 13.455 25.0508C13.0808 25.296 11.229 27.4218 11.1174 27.7344C10.8285 28.5434 10.926 28.6785 13.4233 30.9275C14.6123 31.9983 15.6881 32.9195 15.814 32.9748C16.1201 33.109 16.5308 33.1074 16.8581 32.9706C17.1115 32.8647 18.9501 30.916 19.2889 30.3944C19.4839 30.0941 19.4394 29.2527 19.2155 29.0052C19.1325 28.9136 19.0837 28.7902 19.107 28.7312C19.1302 28.6722 19.5494 28.1833 20.0383 27.6447L20.9273 26.6654H22.6313H24.3353V29.9991V33.3327H14.3344H4.33346V19.9982V6.66359H14.3344H24.3353V6.9937ZM25.4121 8.8367C25.5813 8.93188 25.7626 9.07814 25.8149 9.16173C25.9049 9.30616 25.853 9.31383 24.7892 9.31383C24.1729 9.31383 23.6686 9.28591 23.6686 9.25174C23.6686 9.16023 23.9256 8.94363 24.2105 8.79503C24.5568 8.61452 25.047 8.63152 25.4121 8.8367ZM26.6474 10.8645C28.4522 11.254 30.1484 12.2774 31.368 13.7127C32.429 14.9614 33.157 16.5921 33.3647 18.1855L33.4163 18.5814H24.7825H16.1487L16.2085 18.103C16.4318 16.315 17.4023 14.4236 18.7658 13.1188C20.0487 11.8912 21.5384 11.1114 23.1269 10.836C23.4019 10.7883 23.7207 10.7326 23.8353 10.7123C24.248 10.6391 26.0566 10.737 26.6474 10.8645ZM26.8735 11.952C26.6203 12.2051 26.5968 12.6565 26.826 12.8638C26.9125 12.9421 27.2516 13.1347 27.5797 13.2919C28.4675 13.7175 28.8848 14.0255 29.6793 14.8423C30.4633 15.6483 30.7081 15.7486 31.0692 15.4121C31.5142 14.9975 31.3699 14.6036 30.4302 13.6677C29.7049 12.9454 28.8276 12.3351 28.0175 11.9895C27.3317 11.697 27.1349 11.6905 26.8735 11.952ZM35.4193 20.1747C36.2989 20.669 36.2992 21.9357 35.4197 22.4506C35.1529 22.6068 34.8674 22.6111 24.7985 22.6073C15.6623 22.6039 14.4227 22.5885 14.2055 22.4755C13.2425 21.9748 13.2242 20.6283 14.1736 20.1442C14.4411 20.0077 15.1191 19.9984 24.7823 19.9983L35.1053 19.9982L35.4193 20.1747ZM30.543 24.2277C30.278 24.6454 29.9653 24.9348 29.5858 25.1136C29.2221 25.285 29.0762 25.2916 24.746 25.332L20.2812 25.3736L19.821 25.8737C19.5678 26.1487 19.0675 26.7019 18.7092 27.103C18.3508 27.5041 18.0423 27.8322 18.0236 27.8322C17.9575 27.8322 16.1262 26.1381 16.1262 26.0769C16.1262 26.0427 16.5324 25.5611 17.0289 25.0066L17.9316 23.9985H24.31H30.6884L30.543 24.2277ZM16.0873 27.9572C17.1043 28.874 17.9785 29.6504 18.03 29.6826C18.0923 29.7216 18.0526 29.8188 17.9108 29.9743C17.7939 30.1025 17.404 30.5356 17.0445 30.9367C16.685 31.3378 16.3633 31.6659 16.3296 31.6659C16.2354 31.6659 12.4592 28.2535 12.4592 28.1682C12.4592 28.056 14.0964 26.2386 14.1725 26.2664C14.2087 26.2796 15.0703 27.0405 16.0873 27.9572ZM24.3206 35.9371C24.2947 37.0417 24.2675 37.2517 24.1124 37.5414C23.9038 37.9309 23.5777 38.2516 23.1685 38.4695C22.8894 38.6182 22.5095 38.6249 14.3344 38.6249H5.79192L5.45856 38.445C5.06769 38.2341 4.74691 37.907 4.53164 37.4998C4.4058 37.2618 4.37196 36.9739 4.34796 35.9371L4.31854 34.6662H14.3344H24.3502L24.3206 35.9371ZM12.5388 36.2042C12.4098 36.3332 12.3342 36.504 12.3342 36.6664C12.3342 36.8287 12.4098 36.9996 12.5388 37.1285C12.7416 37.3314 12.7562 37.3331 14.3344 37.3331C15.9125 37.3331 15.9271 37.3314 16.13 37.1285C16.259 36.9996 16.3346 36.8287 16.3346 36.6664C16.3346 36.504 16.259 36.3332 16.13 36.2042C15.9271 36.0013 15.9125 35.9996 14.3344 35.9996C12.7562 35.9996 12.7416 36.0013 12.5388 36.2042Z" fill="white"/>
</svg>
