<svg width="35" height="36" viewBox="0 0 35 36" fill="none" xmlns="http://www.w3.org/2000/svg">
<path fill-rule="evenodd" clip-rule="evenodd" d="M13.4069 0.0694831C12.9576 0.157226 12.2481 0.522668 12.0348 0.776156C11.9242 0.907594 11.8539 1.07771 11.8539 1.21423C11.8539 1.41626 12.5359 2.11955 19.035 8.61979L26.2161 15.8021L16.1938 15.8207L6.17147 15.8393L5.83998 15.9925C5.65765 16.0768 5.36124 16.2929 5.18138 16.4728C4.09734 17.5568 4.36798 19.3164 5.72923 20.0354L6.20458 20.2865L6.20571 21.9983L6.20677 23.7101H5.61007C5.2819 23.7101 4.93601 23.6748 4.84135 23.6317C4.56697 23.5067 4.39219 23.0042 4.62309 23.0042C4.68387 23.0042 4.90001 22.8374 5.10352 22.6336C5.53369 22.2026 5.68553 21.7935 5.62017 21.2416C5.57075 20.8246 5.43925 20.5534 5.14249 20.2566C4.68669 19.8008 4.64434 19.7924 2.81846 19.7924C0.992594 19.7924 0.95024 19.8008 0.494443 20.2566C0.057705 20.6933 -0.102463 21.3102 0.0651875 21.9091C0.169378 22.2813 0.601598 22.8048 0.910145 22.9326C1.12107 23.02 1.12431 23.0291 1.12431 23.5387C1.12431 24.5692 1.42467 25.3493 2.08984 26.0467C2.52517 26.503 3.2197 26.9001 3.79253 27.02C3.9983 27.0632 4.62563 27.0984 5.18668 27.0984H6.20677L6.20783 29.3043C6.20895 31.7931 6.24679 32.0793 6.68438 32.9148C7.18055 33.862 8.19831 34.6482 9.24939 34.8959C9.92769 35.0558 25.0745 35.0558 25.7528 34.8959C26.8102 34.6467 27.8166 33.8671 28.3216 32.906C28.755 32.0813 28.7933 31.7898 28.7944 29.3043L28.7954 27.0984H29.8395C30.5492 27.0984 31.0163 27.0638 31.2984 26.9903C32.8618 26.5831 33.8779 25.2295 33.8779 23.5541C33.8779 23.1022 33.8976 23.0042 33.9884 23.0042C34.0491 23.0042 34.2653 22.8374 34.4688 22.6336C34.899 22.2026 35.0508 21.7935 34.9854 21.2416C34.936 20.8246 34.8045 20.5534 34.5078 20.2566C34.052 19.8008 34.0096 19.7924 32.1837 19.7924C30.3579 19.7924 30.3155 19.8008 29.8597 20.2566C29.423 20.6933 29.2628 21.3102 29.4305 21.9091C29.5347 22.2813 29.9669 22.8048 30.2754 22.9326C30.5068 23.0285 30.5328 23.1145 30.4112 23.3814C30.2962 23.6338 30.0598 23.7101 29.3921 23.7101H28.7954V21.9927V20.2753L29.1659 20.1044C30.8416 19.3314 30.9342 17.0024 29.3249 16.1109C29.0919 15.9819 28.8277 15.8759 28.7378 15.8755C28.6144 15.8749 28.5837 15.8443 28.613 15.7511C28.7021 15.468 28.7954 14.8447 28.7954 14.5331C28.7954 12.7158 27.5291 9.9 25.6169 7.46565L25.1387 6.85689L25.6083 6.39657C25.9919 6.02033 26.1036 5.94684 26.2189 5.99449C26.4787 6.10172 27.1931 6.066 27.4895 5.93096C28.1668 5.62249 28.5986 4.78346 28.4461 4.07206C28.4032 3.87208 28.3075 3.61075 28.2334 3.49139C28.1594 3.37202 27.4693 2.65017 26.6998 1.88731C25.3639 0.562622 25.2818 0.494644 24.8776 0.37676C24.52 0.272499 24.3938 0.265934 24.0663 0.334335C23.2559 0.503539 22.7202 1.1687 22.7297 1.99418C22.7324 2.23242 22.7609 2.49085 22.7929 2.5685C22.8406 2.68384 22.7671 2.79551 22.3908 3.17917L21.9305 3.64873L21.3218 3.16794C18.446 0.896935 15.3586 -0.311701 13.4069 0.0694831ZM15.4626 1.29047C18.4056 2.04211 22.3552 5.04753 24.9565 8.51483C26.8723 11.0684 27.9644 13.817 27.598 15.1627L27.5131 15.4744L20.4264 8.38798C16.5287 4.49044 13.3628 1.27995 13.391 1.25362C13.5893 1.06811 14.6669 1.08724 15.4626 1.29047ZM26.0298 2.84006C27.1853 4.00168 27.3131 4.15387 27.3131 4.36832C27.3131 4.67997 27.0784 4.93325 26.7896 4.93325C26.6027 4.93325 26.3878 4.74802 25.2137 3.5751C23.8189 2.18167 23.7565 2.0935 23.9001 1.71937C23.9697 1.53796 24.3375 1.40737 24.5601 1.48495C24.6626 1.52066 25.324 2.13049 26.0298 2.84006ZM24.7907 5.58514L24.3869 5.99322L23.5916 5.20008L22.7962 4.407L23.2 3.999L23.6038 3.59092L24.3991 4.38406L25.1945 5.17714L24.7907 5.58514ZM9.04002 6.51841C8.09433 7.49036 7.93621 7.80935 7.93621 8.74509C7.93621 9.61715 8.09603 9.97151 8.86284 10.799C9.57488 11.5676 9.70406 11.9242 9.5093 12.584C9.44641 12.7971 9.23979 13.0641 8.73493 13.5848L8.04626 14.2949L8.45448 14.6989L8.8627 15.1029L9.5854 14.3601C10.5311 13.3881 10.6892 13.0691 10.6892 12.1334C10.6892 11.2613 10.5294 10.907 9.76258 10.0794C9.05054 9.31086 8.92136 8.95424 9.11612 8.29444C9.17901 8.0814 9.38563 7.81436 9.89049 7.2937L10.5792 6.58356L10.1709 6.17958L9.76272 5.77559L9.04002 6.51841ZM14.1225 6.51841C13.1768 7.49036 13.0187 7.80935 13.0187 8.74509C13.0187 9.61715 13.1785 9.97151 13.9453 10.799C14.6573 11.5676 14.7865 11.9242 14.5918 12.584C14.5289 12.7971 14.3222 13.0641 13.8174 13.5848L13.1287 14.2949L13.5369 14.6989L13.9452 15.1029L14.6679 14.3601C15.6135 13.3881 15.7717 13.0691 15.7717 12.1334C15.7717 11.2613 15.6118 10.907 14.845 10.0794C14.133 9.31086 14.0038 8.95424 14.1986 8.29444C14.2615 8.0814 14.4681 7.81436 14.9729 7.2937L15.6616 6.58356L15.2534 6.17958L14.8452 5.77559L14.1225 6.51841ZM28.7275 17.0923C29.0666 17.2633 29.3602 17.7137 29.3602 18.0629C29.3602 18.4121 29.0666 18.8626 28.7275 19.0335L28.4126 19.1924H17.5011H6.58964L6.27467 19.0335C5.93563 18.8626 5.64205 18.4121 5.64205 18.0629C5.64205 17.7137 5.93563 17.2633 6.27467 17.0923L6.58964 16.9335H17.5011H28.4126L28.7275 17.0923ZM27.666 25.813C27.666 31.6979 27.6659 31.7011 27.307 32.4045C27.1064 32.7977 26.5593 33.3312 26.1375 33.5449C25.4723 33.8821 25.4314 33.8835 17.254 33.8609L9.55977 33.8397L9.18014 33.6843C8.39003 33.3606 7.84332 32.8199 7.53547 32.0575L7.37149 31.6514L7.3518 25.9866L7.33218 20.3218H17.4991H27.666V25.813ZM4.18684 20.9663C4.5789 21.1449 4.5789 21.7576 4.18684 21.9362C4.07884 21.9854 3.55507 22.0159 2.81846 22.0159C1.5139 22.0159 1.32352 21.9736 1.19109 21.6538C1.08711 21.4027 1.19893 21.0818 1.42933 20.9704C1.64308 20.8671 3.96152 20.8636 4.18684 20.9663ZM33.5521 20.9663C33.9442 21.1449 33.9442 21.7576 33.5521 21.9362C33.4441 21.9854 32.9203 22.0159 32.1837 22.0159C30.8792 22.0159 30.6888 21.9736 30.5564 21.6538C30.4524 21.4027 30.5642 21.0818 30.7946 20.9704C31.0084 20.8671 33.3268 20.8636 33.5521 20.9663ZM3.41396 23.4577C3.49881 24.0232 4.02505 24.615 4.58031 24.7693C4.71775 24.8075 5.14002 24.8389 5.51852 24.8391L6.20677 24.8395V25.4105V25.9814L5.09498 25.9575C4.0691 25.9355 3.95319 25.9194 3.59495 25.7492C2.78246 25.3632 2.32278 24.6516 2.26737 23.6939L2.23561 23.1454H2.80138H3.36716L3.41396 23.4577ZM25.9703 27.1866C25.9688 31.0191 25.9618 31.2433 25.8332 31.5264C25.6932 31.8347 25.3913 32.0715 25.0394 32.1488C24.8437 32.1918 24.8424 32.1957 24.8424 32.7607V33.3295L25.1743 33.2839C25.8801 33.1872 26.5594 32.6808 26.8932 32.0025L27.066 31.6514L27.0858 27.3984L27.1055 23.1454H26.5387H25.9719L25.9703 27.1866ZM32.7348 23.6939C32.6788 24.6625 32.225 25.3681 31.4133 25.7487C31.0498 25.9193 30.9323 25.9355 29.9072 25.9575L28.7954 25.9814V25.4105V24.8395L29.4837 24.8391C30.3575 24.8386 30.6399 24.7579 31.0318 24.3966C31.3978 24.0593 31.5263 23.8383 31.5907 23.4351L31.6371 23.1454H32.2018H32.7666L32.7348 23.6939Z" fill="url(#paint0_linear_13_7745)"/>
<defs>
<linearGradient id="paint0_linear_13_7745" x1="0" y1="17.9811" x2="35" y2="17.9811" gradientUnits="userSpaceOnUse">
<stop stop-color="#00469F"/>
<stop offset="1" stop-color="#1E79D6"/>
</linearGradient>
</defs>
</svg>
