<svg width="41" height="40" viewBox="0 0 41 40" fill="none" xmlns="http://www.w3.org/2000/svg">
<path fill-rule="evenodd" clip-rule="evenodd" d="M5.79188 0.166154C4.83087 0.474516 3.96813 1.34743 3.66527 2.31777C3.50275 2.83873 3.5 3.12859 3.5 19.9982C3.5 36.8677 3.50275 37.1576 3.66527 37.6785C3.97279 38.6636 4.83637 39.5272 5.82146 39.8347C6.3351 39.995 6.60829 40 14.8344 40C23.0605 40 23.3337 39.995 23.8473 39.8347C24.8324 39.5272 25.696 38.6636 26.0035 37.6785C26.1609 37.174 26.1688 36.9007 26.1688 31.9149V26.681L28.1064 26.6524L30.0441 26.6238L30.6044 26.3583C30.9126 26.2123 31.3526 25.9172 31.5822 25.7024C31.9913 25.3198 32.5027 24.4583 32.5027 24.1519C32.5027 24.0086 32.6021 23.9985 34.0181 23.9985C35.7575 23.9985 36.2284 23.9073 36.8616 23.4476C37.2928 23.1347 37.7056 22.5578 37.8371 22.0846C37.9622 21.6341 37.9355 20.8242 37.7806 20.3672C37.494 19.5223 36.3656 18.6647 35.5405 18.6647C35.2757 18.6647 35.2742 18.6624 35.2188 18.1438C34.8209 14.4213 32.0507 10.9968 28.4925 9.82871L27.9584 9.65336L27.8089 9.14615C27.6851 8.72594 27.5694 8.54876 27.1348 8.1143C26.8463 7.82578 26.511 7.56484 26.3895 7.53433L26.1688 7.47891V5.1632C26.1688 3.08742 26.1516 2.79256 26.0035 2.31777C25.696 1.33268 24.8324 0.469098 23.8473 0.16157C23.3332 0.00113848 23.0674 -0.00352863 14.8048 0.00097179C6.63779 0.00547221 6.27159 0.0122229 5.79188 0.166154ZM23.6685 1.52678C24.0777 1.74472 24.4038 2.06541 24.6124 2.45487C24.7675 2.74464 24.7947 2.95458 24.8206 4.05918L24.8502 5.33013H14.8344H4.81854L4.84796 4.05918C4.87196 3.02242 4.9058 2.73447 5.03164 2.49654C5.32033 1.95049 5.75821 1.58387 6.3331 1.40685C6.44794 1.37143 10.3298 1.34901 14.9594 1.35693C22.997 1.37076 23.39 1.37843 23.6685 1.52678ZM13.0388 2.86782C12.9098 2.99675 12.8342 3.1676 12.8342 3.32995C12.8342 3.49229 12.9098 3.66314 13.0388 3.79207C13.2416 3.99501 13.2562 3.99667 14.8344 3.99667C16.4125 3.99667 16.4271 3.99501 16.63 3.79207C16.759 3.66314 16.8346 3.49229 16.8346 3.32995C16.8346 3.1676 16.759 2.99675 16.63 2.86782C16.4271 2.66488 16.4125 2.66322 14.8344 2.66322C13.2562 2.66322 13.2416 2.66488 13.0388 2.86782ZM24.8353 6.9937C24.8353 7.30715 24.8188 7.32831 24.5092 7.41166C23.7409 7.61859 22.9624 8.41125 22.7237 9.22974L22.6132 9.60903L21.6543 9.99306C21.127 10.2042 20.3671 10.5822 19.9656 10.8331C19.0684 11.3936 17.9207 12.4559 17.2486 13.3478C16.2887 14.6217 15.5242 16.5174 15.3568 18.0386L15.2928 18.6211L14.9177 18.6747C14.0066 18.805 13.311 19.3114 12.902 20.1422C12.6641 20.6253 12.6284 20.7815 12.6311 21.3276C12.6361 22.3762 13.1912 23.2531 14.1454 23.72C14.5388 23.9124 14.7475 23.9518 15.5909 23.9925L16.5766 24.0402L16.0783 24.5971L15.58 25.154L15.196 24.9841C14.7691 24.7953 14.3071 24.8201 13.955 25.0508C13.5808 25.296 11.729 27.4218 11.6174 27.7344C11.3285 28.5434 11.426 28.6785 13.9233 30.9275C15.1123 31.9983 16.1881 32.9195 16.314 32.9748C16.6201 33.109 17.0308 33.1074 17.3581 32.9706C17.6115 32.8647 19.4501 30.916 19.7889 30.3944C19.9839 30.0941 19.9394 29.2527 19.7155 29.0052C19.6325 28.9136 19.5837 28.7902 19.607 28.7312C19.6302 28.6722 20.0494 28.1833 20.5383 27.6447L21.4273 26.6654H23.1313H24.8353V29.9991V33.3327H14.8344H4.83346V19.9982V6.66359H14.8344H24.8353V6.9937ZM25.9121 8.8367C26.0813 8.93188 26.2626 9.07814 26.3149 9.16173C26.4049 9.30616 26.353 9.31383 25.2892 9.31383C24.6729 9.31383 24.1686 9.28591 24.1686 9.25174C24.1686 9.16023 24.4256 8.94363 24.7105 8.79503C25.0568 8.61452 25.547 8.63152 25.9121 8.8367ZM27.1474 10.8645C28.9522 11.254 30.6484 12.2774 31.868 13.7127C32.929 14.9614 33.657 16.5921 33.8647 18.1855L33.9163 18.5814H25.2825H16.6487L16.7085 18.103C16.9318 16.315 17.9023 14.4236 19.2658 13.1188C20.5487 11.8912 22.0384 11.1114 23.6269 10.836C23.9019 10.7883 24.2207 10.7326 24.3353 10.7123C24.748 10.6391 26.5566 10.737 27.1474 10.8645ZM27.3735 11.952C27.1203 12.2051 27.0968 12.6565 27.326 12.8638C27.4125 12.9421 27.7516 13.1347 28.0797 13.2919C28.9675 13.7175 29.3848 14.0255 30.1793 14.8423C30.9633 15.6483 31.2081 15.7486 31.5692 15.4121C32.0142 14.9975 31.8699 14.6036 30.9302 13.6677C30.2049 12.9454 29.3276 12.3351 28.5175 11.9895C27.8317 11.697 27.6349 11.6905 27.3735 11.952ZM35.9193 20.1747C36.7989 20.669 36.7992 21.9357 35.9197 22.4506C35.6529 22.6068 35.3674 22.6111 25.2985 22.6073C16.1623 22.6039 14.9227 22.5885 14.7055 22.4755C13.7425 21.9748 13.7242 20.6283 14.6736 20.1442C14.9411 20.0077 15.6191 19.9984 25.2823 19.9983L35.6053 19.9982L35.9193 20.1747ZM31.043 24.2277C30.778 24.6454 30.4653 24.9348 30.0858 25.1136C29.7221 25.285 29.5762 25.2916 25.246 25.332L20.7812 25.3736L20.321 25.8737C20.0678 26.1487 19.5675 26.7019 19.2092 27.103C18.8508 27.5041 18.5423 27.8322 18.5236 27.8322C18.4575 27.8322 16.6262 26.1381 16.6262 26.0769C16.6262 26.0427 17.0324 25.5611 17.5289 25.0066L18.4316 23.9985H24.81H31.1884L31.043 24.2277ZM16.5873 27.9572C17.6043 28.874 18.4785 29.6504 18.53 29.6826C18.5923 29.7216 18.5526 29.8188 18.4108 29.9743C18.2939 30.1025 17.904 30.5356 17.5445 30.9367C17.185 31.3378 16.8633 31.6659 16.8296 31.6659C16.7354 31.6659 12.9592 28.2535 12.9592 28.1682C12.9592 28.056 14.5964 26.2386 14.6725 26.2664C14.7087 26.2796 15.5703 27.0405 16.5873 27.9572ZM24.8206 35.9371C24.7947 37.0417 24.7675 37.2517 24.6124 37.5414C24.4038 37.9309 24.0777 38.2516 23.6685 38.4695C23.3894 38.6182 23.0095 38.6249 14.8344 38.6249H6.29192L5.95856 38.445C5.56769 38.2341 5.24691 37.907 5.03164 37.4998C4.9058 37.2618 4.87196 36.9739 4.84796 35.9371L4.81854 34.6662H14.8344H24.8502L24.8206 35.9371ZM13.0388 36.2042C12.9098 36.3332 12.8342 36.504 12.8342 36.6664C12.8342 36.8287 12.9098 36.9996 13.0388 37.1285C13.2416 37.3314 13.2562 37.3331 14.8344 37.3331C16.4125 37.3331 16.4271 37.3314 16.63 37.1285C16.759 36.9996 16.8346 36.8287 16.8346 36.6664C16.8346 36.504 16.759 36.3332 16.63 36.2042C16.4271 36.0013 16.4125 35.9996 14.8344 35.9996C13.2562 35.9996 13.2416 36.0013 13.0388 36.2042Z" fill="url(#paint0_linear_13_7756)"/>
<defs>
<linearGradient id="paint0_linear_13_7756" x1="3.5" y1="20.5405" x2="37.9161" y2="20.5405" gradientUnits="userSpaceOnUse">
<stop stop-color="#00469F"/>
<stop offset="1" stop-color="#1E79D6"/>
</linearGradient>
</defs>
</svg>
