<svg width="41" height="45" viewBox="0 0 41 45" fill="none" xmlns="http://www.w3.org/2000/svg">
<path fill-rule="evenodd" clip-rule="evenodd" d="M15.3981 3.0427C14.3478 3.17658 13.1675 3.86489 12.496 4.73537L12.1221 5.21995H10.6071C8.71744 5.21995 8.80092 5.16172 8.80092 6.48037V7.41902H5.33281H1.86461L1.68235 7.65081L1.5 7.88259V25.1945V42.5064L1.71234 42.7532L1.9246 43H15.8964H29.868L30.3728 42.7962C31.4579 42.358 32.2554 41.5932 32.6514 40.6113L32.8588 40.0972L32.8826 32.3423L32.9064 24.5874L32.6728 24.4037C32.3666 24.1628 32.1514 24.1716 31.8872 24.4359L31.6713 24.6517V32.1166C31.6713 38.4857 31.6519 39.6465 31.5398 40.0244C31.3686 40.6009 30.796 41.2497 30.2232 41.5164L29.7801 41.7228L16.2558 41.7237L2.73148 41.7245V25.1875V8.6505H5.7662H8.80092V10.1395V11.6285L9.0327 11.8107C9.2592 11.989 9.35253 11.9931 13.1269 11.9931H16.9895L17.2053 11.7771C17.4668 11.5156 17.4831 11.1753 17.2454 10.9375C17.0753 10.7675 16.9522 10.7616 13.5509 10.7616H10.0324V8.60652V6.45143H11.3037C12.0203 6.45143 12.6632 6.41044 12.7771 6.35749C12.8882 6.30585 13.1094 6.04988 13.2686 5.78872C13.6032 5.23983 14.1285 4.78023 14.7454 4.49655C15.1031 4.33206 15.3311 4.2974 16.0592 4.29696C16.8727 4.29643 16.9839 4.31789 17.5106 4.57703C18.1353 4.88455 18.5169 5.23385 18.9457 5.89049C19.1867 6.25967 19.2709 6.32327 19.55 6.34649C19.9285 6.37798 20.2361 6.13538 20.2361 5.80535C20.2361 5.54295 19.6583 4.65769 19.2138 4.2389C18.1943 3.27844 16.8514 2.85745 15.3981 3.0427ZM27.493 4.78269C26.2835 5.36597 24.245 6.34315 22.9629 6.95423C21.6809 7.56522 20.5627 8.12387 20.478 8.19556C20.3347 8.31695 20.3241 8.67399 20.3241 13.3604C20.3241 18.0289 20.3352 18.4078 20.478 18.5724C20.5626 18.67 22.5913 19.689 24.9861 20.8368C27.3809 21.9847 29.3779 22.9582 29.4238 23.0001C29.4698 23.0421 29.6112 23.0764 29.738 23.0764C29.9972 23.0764 38.8177 18.8719 39.1261 18.6014L39.324 18.4277V13.3768C39.324 8.67549 39.3134 8.31677 39.1701 8.19363C38.9572 8.01066 30.184 3.81105 29.912 3.76197C29.7572 3.734 29.0414 4.03597 27.493 4.78269ZM31.3205 5.77218L32.8395 6.50034L29.1154 8.2844L25.3913 10.0684L23.8619 9.33996L22.3326 8.61154L22.6253 8.47713C22.7863 8.40315 24.462 7.60137 26.3491 6.69544C28.2361 5.78951 29.7849 5.04728 29.7907 5.04614C29.7966 5.04499 30.485 5.37169 31.3205 5.77218ZM35.814 7.93915L37.2569 8.6352L36.6851 8.89654C36.3707 9.04036 34.7527 9.81461 33.0896 10.6171C31.4265 11.4197 29.9976 12.0979 29.9142 12.1243C29.8263 12.1522 29.1413 11.8751 28.282 11.464L26.8012 10.7556L30.4458 9.00271C32.4502 8.03864 34.1535 7.24838 34.2307 7.24653C34.308 7.24459 35.0205 7.55633 35.814 7.93915ZM27.5571 12.5245L29.1166 13.2686L29.1185 17.3368C29.1195 19.5744 29.1064 21.4051 29.0895 21.4051C29.0725 21.4051 27.3803 20.5988 25.329 19.6131L21.5995 17.8212L21.5766 13.7237L21.5538 9.62628L23.7757 10.7033C24.9978 11.2957 26.6994 12.1153 27.5571 12.5245ZM38.0925 13.6939V17.7697L34.3321 19.5891C32.264 20.5898 30.5416 21.4078 30.5049 21.4068C30.4681 21.4059 30.4483 19.5764 30.4609 17.3413L30.4838 13.2775L34.2662 11.4543C36.3465 10.4515 38.0585 9.62812 38.0706 9.62461C38.0826 9.621 38.0925 11.4522 38.0925 13.6939ZM23.5042 13.2026C23.2136 13.4484 23.1797 13.7783 23.4183 14.0374C23.5307 14.1595 24.2693 14.5674 25.0596 14.9438C26.644 15.6984 26.8401 15.7239 27.088 15.2067C27.309 14.7455 27.1267 14.5802 25.5139 13.7797C24.7156 13.3836 23.9778 13.057 23.8743 13.054C23.7708 13.0511 23.6043 13.1179 23.5042 13.2026ZM11.6422 20.1424C11.5841 20.166 10.876 20.9942 10.0684 21.9827C9.26087 22.9713 8.576 23.7791 8.54662 23.7779C8.51715 23.7767 8.26619 23.4447 7.98893 23.0402C7.41902 22.2087 7.17026 22.067 6.78419 22.3538C6.35397 22.6735 6.42478 22.9184 7.3242 24.2216C8.13381 25.3947 8.14647 25.4077 8.50483 25.4339L8.86707 25.4605L10.6767 23.2243C11.672 21.9943 12.5104 20.8921 12.5398 20.775C12.6495 20.338 12.1051 19.9543 11.6422 20.1424ZM14.4894 24.3999C14.1921 24.6337 14.1681 25.082 14.4398 25.3278C14.6168 25.488 14.8229 25.4954 19.1095 25.4954H23.5942L23.7623 25.2877C23.9763 25.0236 23.9763 24.7357 23.7624 24.4716L23.5943 24.2639L19.1592 24.2396C14.7692 24.2155 14.7217 24.2171 14.4894 24.3999ZM11.6479 26.2681C11.5447 26.3269 10.8055 27.1763 10.0054 28.1555L8.55057 29.936L8.04523 29.211C7.47065 28.3868 7.43846 28.3574 7.10763 28.3555C6.80574 28.3538 6.51388 28.6351 6.51388 28.9278C6.51388 29.1901 7.92226 31.2839 8.23769 31.4906C8.64338 31.7563 8.8025 31.6165 10.6303 29.3869C11.5918 28.2141 12.4278 27.162 12.4882 27.0487C12.6319 26.7794 12.4806 26.3926 12.1774 26.2545C11.9113 26.1332 11.8838 26.134 11.6479 26.2681ZM14.52 29.8738C14.0065 30.1357 14.1036 30.8646 14.6716 31.0117C14.828 31.0523 17.8497 31.0746 21.3863 31.0612L27.8165 31.0371L27.9846 30.8294C28.1985 30.5652 28.1985 30.2774 27.9846 30.0133L27.8165 29.8056L21.2775 29.7839C16.139 29.767 14.6916 29.7862 14.52 29.8738ZM11.6397 32.3583C11.5346 32.432 10.8101 33.2732 10.0296 34.2276C9.24918 35.182 8.58409 35.9714 8.55181 35.9817C8.51952 35.992 8.27534 35.6759 8.00925 35.2792C7.44312 34.4351 7.18434 34.2832 6.79959 34.5692C6.35617 34.8988 6.42073 35.1342 7.30133 36.3986C7.73771 37.0252 8.15571 37.572 8.23013 37.6137C8.63185 37.8385 8.793 37.6954 10.584 35.5232C11.5414 34.362 12.386 33.2991 12.461 33.1611C12.6312 32.8476 12.5042 32.4729 12.1774 32.3239C11.8974 32.1963 11.8684 32.1982 11.6397 32.3583ZM14.4864 35.4856C14.1921 35.717 14.1695 36.1665 14.4398 36.4111C14.6176 36.5722 14.8747 36.5798 21.015 36.6051C25.2592 36.6226 27.511 36.6008 27.7204 36.5399C28.2996 36.3718 28.3724 35.6476 27.8348 35.4026C27.6791 35.3317 25.7733 35.3033 21.1674 35.3033C14.7761 35.3033 14.7161 35.3049 14.4864 35.4856Z" fill="url(#paint0_linear_13_7757)"/>
<defs>
<linearGradient id="paint0_linear_13_7757" x1="1.5" y1="23.5405" x2="39.324" y2="23.5405" gradientUnits="userSpaceOnUse">
<stop stop-color="#00469F"/>
<stop offset="1" stop-color="#1E79D6"/>
</linearGradient>
</defs>
</svg>
