<svg width="38" height="40" viewBox="0 0 38 40" fill="none" xmlns="http://www.w3.org/2000/svg">
<path fill-rule="evenodd" clip-rule="evenodd" d="M5.82655 0.124575C5.46745 0.280352 5.22221 0.516051 5.02068 0.899316C4.87593 1.17451 4.85232 1.37846 4.82416 2.59457L4.79218 3.97693L3.2172 4.00219C1.6854 4.02667 1.63152 4.03308 1.25122 4.23546C0.78522 4.48344 0.435738 4.83793 0.184399 5.31769L0 5.6696V22.0137V38.3578L0.176422 38.6879C0.439414 39.1801 0.761838 39.5123 1.22628 39.7696L1.64223 40H10.5963H19.5503L19.9463 39.791C20.1641 39.6761 20.4755 39.4347 20.6382 39.2545C21.201 38.6316 21.1882 38.7208 21.2317 35.1124L21.2708 31.8671L28.6217 31.828L35.9726 31.7889L36.3127 31.6073C36.8307 31.331 37.3143 30.8426 37.5546 30.3532L37.7713 29.912V22.0137V14.1153L37.6023 13.7497C37.3766 13.2614 36.8445 12.6969 36.3951 12.4692C36.1939 12.3673 35.8054 12.2475 35.5317 12.2031C35.2168 12.152 32.5014 12.1222 28.1329 12.1218L21.2317 12.1212V9.00708C21.2317 5.35828 21.2368 5.38972 20.5273 4.67949C19.9055 4.05709 19.6356 3.98827 17.8157 3.98827H16.3832V3.51906V3.04985H17.3877C18.6896 3.04985 18.676 3.06205 18.6387 1.93439C18.6142 1.19093 18.5917 1.08841 18.3773 0.742522C18.2234 0.494233 18.0242 0.301466 17.7981 0.182053L17.4534 0L11.7766 0.00304985C6.88305 0.0057087 6.06201 0.0224438 5.82655 0.124575ZM15.5844 1.03617C15.5088 1.16841 15.4777 1.92641 15.4592 4.08602L15.4344 6.95992H10.5911H5.7478V4.22796C5.7478 2.68387 5.78025 1.41067 5.8224 1.29978C5.98905 0.861388 5.92579 0.866784 11.0096 0.863343L15.6848 0.860215L15.5844 1.03617ZM17.5474 1.13501C17.6805 1.2635 17.7452 1.43007 17.7724 1.71347L17.8107 2.11144H17.0969H16.3832V1.80371C16.3832 1.34952 16.5062 1.1017 16.7931 0.977673C17.0944 0.847546 17.2929 0.888915 17.5474 1.13501ZM4.80938 5.9042V6.95992H4.18377C3.6624 6.95992 3.53212 6.98596 3.40176 7.11632C3.20039 7.31769 3.20321 7.52313 3.40997 7.71026C3.5688 7.854 3.81544 7.86002 10.4676 7.88113C14.2588 7.89326 17.4374 7.88442 17.5312 7.86151C17.9354 7.76289 18.0651 7.39058 17.7908 7.11632C17.6604 6.98596 17.5302 6.95992 17.0088 6.95992H16.3832V5.9042V4.84848L17.6931 4.84895C18.4135 4.84919 19.1338 4.88571 19.2938 4.93013C19.6827 5.0382 20.0493 5.35891 20.2244 5.74459C20.3622 6.04786 20.368 6.70334 20.368 22.0137C20.368 37.324 20.3622 37.9795 20.2244 38.2828C20.0468 38.6739 19.6782 38.9925 19.2792 39.1C19.0752 39.155 16.1794 39.1747 10.4137 39.1607L1.85118 39.1398L1.51586 38.9041C1.33138 38.7745 1.10843 38.5458 1.02037 38.3958C0.860528 38.1238 0.860137 38.0885 0.839883 22.1812C0.825728 11.0459 0.844809 6.14561 0.903304 5.9286C1.01146 5.5268 1.40301 5.10585 1.79863 4.96594C2.02018 4.88759 2.50487 4.85435 3.46041 4.85193L4.80938 4.84848V5.9042ZM3.37329 10.0278C2.96626 10.1355 2.42518 10.6664 2.31554 11.0655C2.1937 11.5089 2.19574 19.4284 2.31773 19.7928C2.45114 20.1912 2.74854 20.5497 3.09036 20.7241C3.38854 20.8762 3.56098 20.8798 10.5963 20.8798C17.5205 20.8798 17.8082 20.8741 18.0872 20.7309C18.454 20.5429 18.6887 20.2919 18.8428 19.9232C18.9469 19.674 18.9638 19.0487 18.9638 15.4448C18.9638 10.8298 18.9742 10.9358 18.4733 10.4182C17.9905 9.91945 18.1767 9.93071 10.5625 9.93963C6.14326 9.94487 3.56716 9.97638 3.37329 10.0278ZM17.8451 11.0587L18.0645 11.2474L18.0887 15.2229C18.1052 17.9517 18.0858 19.2905 18.0267 19.492C17.8606 20.0589 18.3692 20.0243 10.523 20.0013L3.46612 19.9804L3.3166 19.7958C3.17365 19.6192 3.16716 19.4301 3.16716 15.4326V11.2539L3.35914 11.062L3.55105 10.87H10.5884H17.6257L17.8451 11.0587ZM35.7206 13.1425C36.4098 13.334 36.8748 14.014 36.9337 14.9169L36.9707 15.4839H29.1012H21.2317V14.2717V13.0596L28.3284 13.0601C33.0393 13.0603 35.5245 13.0881 35.7206 13.1425ZM36.9501 17.6344V18.9247H29.0909H21.2317V17.6344V16.3441H29.0909H36.9501V17.6344ZM36.9329 24.7312C36.911 29.6716 36.9108 29.6778 36.7374 30.0022C36.5241 30.401 36.1015 30.7596 35.705 30.8785C35.4913 30.9425 33.4039 30.9677 28.3194 30.9677H21.2317V25.3763V19.7849H29.0932H36.9546L36.9329 24.7312ZM22.7687 21.492C22.6627 21.6092 22.6393 21.8132 22.6393 22.6203C22.6393 23.7042 22.6942 23.8514 23.0984 23.8514C23.4647 23.8514 23.4995 23.7458 23.4995 22.6358C23.4995 21.7392 23.4812 21.5912 23.3565 21.4784C23.1689 21.3086 22.9297 21.3142 22.7687 21.492ZM24.6379 21.5228C24.544 21.6569 24.5161 21.9131 24.5161 22.6446C24.5161 23.6845 24.5832 23.8514 25.0014 23.8514C25.3231 23.8514 25.4061 23.6658 25.4409 22.8685C25.4773 22.0368 25.4236 21.642 25.2504 21.4688C25.0768 21.2952 24.7789 21.3214 24.6379 21.5228ZM26.5494 21.5054C26.4106 21.6441 26.393 21.766 26.393 22.5828C26.393 23.6325 26.4744 23.8514 26.8648 23.8514C27.2669 23.8514 27.3486 23.6117 27.3185 22.5191C27.2955 21.6882 27.2734 21.5569 27.1405 21.4598C26.93 21.3061 26.7335 21.3213 26.5494 21.5054ZM28.4607 21.4598C28.3277 21.5569 28.3057 21.6882 28.2827 22.5191C28.2526 23.6117 28.3342 23.8514 28.7363 23.8514C29.1267 23.8514 29.2082 23.6325 29.2082 22.5828C29.2082 21.766 29.1905 21.6441 29.0518 21.5054C28.8677 21.3213 28.6711 21.3061 28.4607 21.4598ZM3.40176 23.1898C2.70983 23.4994 2.27363 24.1785 2.27363 24.9462C2.27363 25.5275 2.44395 25.9248 2.86702 26.3303C3.86276 27.2848 5.54901 26.8459 5.98717 25.5183C6.13662 25.0656 6.04684 24.3884 5.78025 23.9573C5.43382 23.3969 4.93263 23.116 4.23046 23.0889C3.85478 23.0743 3.58702 23.1069 3.40176 23.1898ZM7.70283 23.1939C6.48211 23.7218 6.18151 25.3501 7.12798 26.3077C7.69314 26.8795 8.62811 27.0102 9.34827 26.6183C10.7119 25.8761 10.6976 23.9535 9.32332 23.2687C8.8549 23.0353 8.14538 23.0025 7.70283 23.1939ZM12.0039 23.1939C11.6475 23.348 11.2501 23.733 11.0427 24.1251C10.8217 24.5429 10.8099 25.3334 11.0183 25.7533C11.7763 27.2796 13.9848 27.1785 14.5512 25.5916C14.8759 24.6818 14.4215 23.6203 13.5352 23.2178C13.1435 23.0399 12.3873 23.0281 12.0039 23.1939ZM16.2628 23.2163C15.865 23.3971 15.3442 23.9822 15.2239 24.3837C14.7368 26.0096 16.458 27.4305 17.9385 26.6247C19.0502 26.0197 19.2957 24.6628 18.4644 23.7182C18.0604 23.2593 17.6511 23.0728 17.0479 23.0728C16.7597 23.0728 16.4569 23.1282 16.2628 23.2163ZM4.63218 24.0608C4.96868 24.2205 5.24192 24.7582 5.16981 25.1187C5.00113 25.9619 3.99914 26.2474 3.42139 25.6169C3.20852 25.3846 3.16716 25.2786 3.16716 24.9648C3.16716 24.5404 3.30174 24.3012 3.66506 24.0796C3.96739 23.8953 4.27081 23.8893 4.63218 24.0608ZM8.91926 24.0542C9.27124 24.2212 9.53142 24.746 9.45752 25.1399C9.39777 25.4588 9.03859 25.8605 8.74823 25.9333C8.38029 26.0257 7.98983 25.9044 7.72239 25.6148C7.50929 25.384 7.46823 25.279 7.46823 24.9648C7.46823 24.5404 7.60281 24.3012 7.96614 24.0796C8.26502 23.8973 8.5715 23.8892 8.91926 24.0542ZM13.4179 24.2095C14.1871 24.9464 13.5282 26.1555 12.4825 25.9258C12.3519 25.8972 12.138 25.7517 12.0072 25.6027C11.4081 24.9204 11.9491 23.8637 12.8505 23.9555C13.0833 23.9792 13.2603 24.0584 13.4179 24.2095ZM17.5324 24.0826C18.0404 24.3923 18.1968 24.9838 17.9026 25.4818C17.3934 26.3439 16.049 25.9497 16.049 24.9382C16.049 24.4202 16.5346 23.9302 17.0479 23.9302C17.1769 23.9302 17.395 23.9987 17.5324 24.0826ZM31.0232 24.7856C30.8816 24.8208 30.692 24.9153 30.6018 24.9957C30.2745 25.2873 30.2248 25.5639 30.2248 27.0968C30.2248 28.7315 30.2819 28.985 30.7089 29.2453C30.9465 29.3901 31.0997 29.4031 32.5709 29.4023C34.3346 29.4013 34.4443 29.378 34.7386 28.9414C34.9096 28.6877 34.9169 28.6118 34.9166 27.1047C34.9164 25.6845 34.9016 25.5086 34.7639 25.2828C34.4608 24.7857 34.3366 24.7523 32.7309 24.7362C31.9332 24.7282 31.1647 24.7505 31.0232 24.7856ZM34.0176 27.0968V28.5044L32.5904 28.5257L31.1632 28.547V27.0968V25.6465L32.5904 25.6678L34.0176 25.6891V27.0968ZM3.40176 28.2729C2.70983 28.5824 2.27363 29.2616 2.27363 30.0293C2.27363 31.1218 3.08927 31.9218 4.19777 31.9165C5.65466 31.9095 6.54913 30.2839 5.78025 29.0404C5.43382 28.48 4.93263 28.1991 4.23046 28.172C3.85478 28.1574 3.58702 28.19 3.40176 28.2729ZM7.70283 28.277C7.01654 28.5738 6.5747 29.2601 6.5747 30.0293C6.5747 31.4813 8.10995 32.3923 9.37079 31.6886C11.0829 30.7331 10.4125 28.1431 8.45638 28.1555C8.19245 28.1573 7.85337 28.2118 7.70283 28.277ZM11.9618 28.2994C11.7881 28.3783 11.5009 28.6076 11.3237 28.8089C9.95894 30.3594 11.7408 32.6272 13.6066 31.7143C15.0307 31.0176 14.9876 28.9605 13.5352 28.3008C13.1152 28.1101 12.38 28.1095 11.9618 28.2994ZM16.2659 28.2987C15.6127 28.5966 15.132 29.3322 15.132 30.0334C15.132 31.0591 15.9995 31.9173 17.0362 31.9173C18.7396 31.9173 19.5887 29.8842 18.3871 28.6826C17.8676 28.1631 16.9335 27.9941 16.2659 28.2987ZM4.64813 29.1556C4.94186 29.3131 5.20039 29.7222 5.20039 30.0293C5.20039 30.3424 4.93748 30.76 4.64633 30.9089C3.94143 31.2698 3.16716 30.813 3.16716 30.0362C3.16716 29.6242 3.30518 29.3821 3.66506 29.1627C3.97349 28.9746 4.30624 28.9722 4.64813 29.1556ZM9.0529 29.2034C9.16614 29.2775 9.31902 29.4959 9.39261 29.6886C9.52063 30.0239 9.51992 30.0544 9.37705 30.3968C9.08074 31.1069 8.23836 31.263 7.72504 30.7029C7.50944 30.4676 7.46823 30.3625 7.46823 30.0479C7.46823 29.6249 7.60102 29.3875 7.96614 29.1582C8.25627 28.9758 8.73611 28.9957 9.0529 29.2034ZM13.4179 29.2926C14.183 30.0255 13.5225 31.2373 12.4825 31.0089C12.3519 30.9803 12.138 30.8348 12.0072 30.6858C11.6819 30.3154 11.6694 29.769 11.9779 29.4023C12.2458 29.0841 12.4325 29.0073 12.8505 29.0437C13.0884 29.0643 13.2569 29.1382 13.4179 29.2926ZM17.719 29.2926C18.4772 30.0189 17.816 31.2357 16.786 31.0094C16.2898 30.9005 15.9309 30.2808 16.0744 29.7807C16.153 29.5066 16.4192 29.1878 16.6569 29.0832C16.9507 28.9537 17.4728 29.0567 17.719 29.2926ZM3.81826 33.2468C3.39136 33.3211 3.10561 33.4758 2.80446 33.7959C2.4043 34.2212 2.27308 34.5465 2.27339 35.1124C2.2737 35.7176 2.45474 36.1182 2.91668 36.5355C3.31441 36.8948 3.68962 37.014 4.30053 36.9752C4.94068 36.9344 5.45353 36.6299 5.78487 36.094C5.99429 35.7552 6.02151 35.6424 6.02151 35.1124C6.02151 34.5824 5.99429 34.4697 5.78487 34.1308C5.37392 33.4662 4.58823 33.113 3.81826 33.2468ZM8.11933 33.2468C7.69243 33.3211 7.40669 33.4758 7.10553 33.7959C6.70538 34.2212 6.57415 34.5465 6.57447 35.1124C6.57478 35.7176 6.75582 36.1182 7.21775 36.5355C7.61548 36.8948 7.99069 37.014 8.6016 36.9752C9.24176 36.9344 9.7546 36.6299 10.0859 36.094C10.2954 35.7552 10.3226 35.6424 10.3226 35.1124C10.3226 34.5824 10.2954 34.4697 10.0859 34.1308C9.675 33.4662 8.88931 33.113 8.11933 33.2468ZM12.4204 33.2461C11.9966 33.3207 11.7006 33.4776 11.3968 33.7885C10.6857 34.5157 10.6554 35.5735 11.3237 36.3328C11.734 36.7988 12.1404 36.9853 12.751 36.9875C14.3168 36.9932 15.1963 35.2953 14.2986 33.9999C13.9129 33.4434 13.1159 33.1234 12.4204 33.2461ZM16.7215 33.2461C15.8175 33.4054 15.132 34.2103 15.132 35.1124C15.132 35.8096 15.6144 36.5458 16.2659 36.8431C16.9335 37.1477 17.8676 36.9786 18.3871 36.4591C19.6942 35.1521 18.54 32.9255 16.7215 33.2461ZM4.64813 34.2387C4.94186 34.3962 5.20039 34.8052 5.20039 35.1124C5.20039 35.4196 4.94186 35.8287 4.64813 35.9862C3.95277 36.3591 3.16716 35.8992 3.16716 35.1193C3.16716 34.7073 3.30518 34.4652 3.66506 34.2458C3.97349 34.0577 4.30624 34.0553 4.64813 34.2387ZM8.93325 34.227C9.33106 34.4158 9.55574 34.9358 9.42624 35.368C9.31183 35.7498 9.02029 36.0314 8.67136 36.0968C8.29302 36.1677 8.02776 36.0786 7.7295 35.7803C7.50264 35.5535 7.46823 35.4674 7.46823 35.1263C7.46823 34.3213 8.19363 33.8761 8.93325 34.227ZM13.2077 34.2143C13.5231 34.364 13.7457 34.7356 13.7457 35.1124C13.7457 36.0358 12.6472 36.4637 12.0235 35.7831C11.8085 35.5485 11.7693 35.4463 11.7693 35.1195C11.7693 34.3359 12.4977 33.8775 13.2077 34.2143ZM17.719 34.3757C18.1666 34.8045 18.162 35.4248 17.708 35.8598C17.503 36.0561 17.4061 36.0899 17.0479 36.0899C16.6897 36.0899 16.5928 36.0561 16.3878 35.8598C15.9558 35.4459 15.9288 34.8509 16.3227 34.4267C16.5692 34.1611 16.7585 34.0926 17.1516 34.1268C17.3895 34.1474 17.5579 34.2213 17.719 34.3757Z" fill="white"/>
</svg>
