<svg width="40" height="45" viewBox="0 0 40 45" fill="none" xmlns="http://www.w3.org/2000/svg">
<path fill-rule="evenodd" clip-rule="evenodd" d="M14.8981 3.0427C13.8478 3.17658 12.6675 3.86489 11.996 4.73537L11.6221 5.21995H10.1071C8.21744 5.21995 8.30092 5.16172 8.30092 6.48037V7.41902H4.83281H1.36461L1.18235 7.65081L1 7.88259V25.1945V42.5064L1.21234 42.7532L1.4246 43H15.3964H29.368L29.8728 42.7962C30.9579 42.358 31.7554 41.5932 32.1514 40.6113L32.3588 40.0972L32.3826 32.3423L32.4064 24.5874L32.1728 24.4037C31.8666 24.1628 31.6514 24.1716 31.3872 24.4359L31.1713 24.6517V32.1166C31.1713 38.4857 31.1519 39.6465 31.0398 40.0244C30.8686 40.6009 30.296 41.2497 29.7232 41.5164L29.2801 41.7228L15.7558 41.7237L2.23148 41.7245V25.1875V8.6505H5.2662H8.30092V10.1395V11.6285L8.5327 11.8107C8.7592 11.989 8.85253 11.9931 12.6269 11.9931H16.4895L16.7053 11.7771C16.9668 11.5156 16.9831 11.1753 16.7454 10.9375C16.5753 10.7675 16.4522 10.7616 13.0509 10.7616H9.5324V8.60652V6.45143H10.8037C11.5203 6.45143 12.1632 6.41044 12.2771 6.35749C12.3882 6.30585 12.6094 6.04988 12.7686 5.78872C13.1032 5.23983 13.6285 4.78023 14.2454 4.49655C14.6031 4.33206 14.8311 4.2974 15.5592 4.29696C16.3727 4.29643 16.4839 4.31789 17.0106 4.57703C17.6353 4.88455 18.0169 5.23385 18.4457 5.89049C18.6867 6.25967 18.7709 6.32327 19.05 6.34649C19.4285 6.37798 19.7361 6.13538 19.7361 5.80535C19.7361 5.54295 19.1583 4.65769 18.7138 4.2389C17.6943 3.27844 16.3514 2.85745 14.8981 3.0427ZM26.993 4.78269C25.7835 5.36597 23.745 6.34315 22.4629 6.95423C21.1809 7.56522 20.0627 8.12387 19.978 8.19556C19.8347 8.31695 19.8241 8.67399 19.8241 13.3604C19.8241 18.0289 19.8352 18.4078 19.978 18.5724C20.0626 18.67 22.0913 19.689 24.4861 20.8368C26.8809 21.9847 28.8779 22.9582 28.9238 23.0001C28.9698 23.0421 29.1112 23.0764 29.238 23.0764C29.4972 23.0764 38.3177 18.8719 38.6261 18.6014L38.824 18.4277V13.3768C38.824 8.67549 38.8134 8.31677 38.6701 8.19363C38.4572 8.01066 29.684 3.81105 29.412 3.76197C29.2572 3.734 28.5414 4.03597 26.993 4.78269ZM30.8205 5.77218L32.3395 6.50034L28.6154 8.2844L24.8913 10.0684L23.3619 9.33996L21.8326 8.61154L22.1253 8.47713C22.2863 8.40315 23.962 7.60137 25.8491 6.69544C27.7361 5.78951 29.2849 5.04728 29.2907 5.04614C29.2966 5.04499 29.985 5.37169 30.8205 5.77218ZM35.314 7.93915L36.7569 8.6352L36.1851 8.89654C35.8707 9.04036 34.2527 9.81461 32.5896 10.6171C30.9265 11.4197 29.4976 12.0979 29.4142 12.1243C29.3263 12.1522 28.6413 11.8751 27.782 11.464L26.3012 10.7556L29.9458 9.00271C31.9502 8.03864 33.6535 7.24838 33.7307 7.24653C33.808 7.24459 34.5205 7.55633 35.314 7.93915ZM27.0571 12.5245L28.6166 13.2686L28.6185 17.3368C28.6195 19.5744 28.6064 21.4051 28.5895 21.4051C28.5725 21.4051 26.8803 20.5988 24.829 19.6131L21.0995 17.8212L21.0766 13.7237L21.0538 9.62628L23.2757 10.7033C24.4978 11.2957 26.1994 12.1153 27.0571 12.5245ZM37.5925 13.6939V17.7697L33.8321 19.5891C31.764 20.5898 30.0416 21.4078 30.0049 21.4068C29.9681 21.4059 29.9483 19.5764 29.9609 17.3413L29.9838 13.2775L33.7662 11.4543C35.8465 10.4515 37.5585 9.62812 37.5706 9.62461C37.5826 9.621 37.5925 11.4522 37.5925 13.6939ZM23.0042 13.2026C22.7136 13.4484 22.6797 13.7783 22.9183 14.0374C23.0307 14.1595 23.7693 14.5674 24.5596 14.9438C26.144 15.6984 26.3401 15.7239 26.588 15.2067C26.809 14.7455 26.6267 14.5802 25.0139 13.7797C24.2156 13.3836 23.4778 13.057 23.3743 13.054C23.2708 13.0511 23.1043 13.1179 23.0042 13.2026ZM11.1422 20.1424C11.0841 20.166 10.376 20.9942 9.56837 21.9827C8.76087 22.9713 8.076 23.7791 8.04662 23.7779C8.01715 23.7767 7.76619 23.4447 7.48893 23.0402C6.91902 22.2087 6.67026 22.067 6.28419 22.3538C5.85397 22.6735 5.92478 22.9184 6.8242 24.2216C7.63381 25.3947 7.64647 25.4077 8.00483 25.4339L8.36707 25.4605L10.1767 23.2243C11.172 21.9943 12.0104 20.8921 12.0398 20.775C12.1495 20.338 11.6051 19.9543 11.1422 20.1424ZM13.9894 24.3999C13.6921 24.6337 13.6681 25.082 13.9398 25.3278C14.1168 25.488 14.3229 25.4954 18.6095 25.4954H23.0942L23.2623 25.2877C23.4763 25.0236 23.4763 24.7357 23.2624 24.4716L23.0943 24.2639L18.6592 24.2396C14.2692 24.2155 14.2217 24.2171 13.9894 24.3999ZM11.1479 26.2681C11.0447 26.3269 10.3055 27.1763 9.50539 28.1555L8.05057 29.936L7.54523 29.211C6.97065 28.3868 6.93846 28.3574 6.60763 28.3555C6.30574 28.3538 6.01388 28.6351 6.01388 28.9278C6.01388 29.1901 7.42226 31.2839 7.73769 31.4906C8.14338 31.7563 8.3025 31.6165 10.1303 29.3869C11.0918 28.2141 11.9278 27.162 11.9882 27.0487C12.1319 26.7794 11.9806 26.3926 11.6774 26.2545C11.4113 26.1332 11.3838 26.134 11.1479 26.2681ZM14.02 29.8738C13.5065 30.1357 13.6036 30.8646 14.1716 31.0117C14.328 31.0523 17.3497 31.0746 20.8863 31.0612L27.3165 31.0371L27.4846 30.8294C27.6985 30.5652 27.6985 30.2774 27.4846 30.0133L27.3165 29.8056L20.7775 29.7839C15.639 29.767 14.1916 29.7862 14.02 29.8738ZM11.1397 32.3583C11.0346 32.432 10.3101 33.2732 9.52958 34.2276C8.74918 35.182 8.08409 35.9714 8.05181 35.9817C8.01952 35.992 7.77534 35.6759 7.50925 35.2792C6.94312 34.4351 6.68434 34.2832 6.29959 34.5692C5.85617 34.8988 5.92073 35.1342 6.80133 36.3986C7.23771 37.0252 7.65571 37.572 7.73013 37.6137C8.13185 37.8385 8.293 37.6954 10.084 35.5232C11.0414 34.362 11.886 33.2991 11.961 33.1611C12.1312 32.8476 12.0042 32.4729 11.6774 32.3239C11.3974 32.1963 11.3684 32.1982 11.1397 32.3583ZM13.9864 35.4856C13.6921 35.717 13.6695 36.1665 13.9398 36.4111C14.1176 36.5722 14.3747 36.5798 20.515 36.6051C24.7592 36.6226 27.011 36.6008 27.2204 36.5399C27.7996 36.3718 27.8724 35.6476 27.3348 35.4026C27.1791 35.3317 25.2733 35.3033 20.6674 35.3033C14.2761 35.3033 14.2161 35.3049 13.9864 35.4856Z" fill="white"/>
</svg>
