<svg width="39" height="40" viewBox="0 0 39 40" fill="none" xmlns="http://www.w3.org/2000/svg">
<path fill-rule="evenodd" clip-rule="evenodd" d="M6.32655 0.124575C5.96745 0.280352 5.72221 0.516051 5.52068 0.899316C5.37593 1.17451 5.35232 1.37846 5.32416 2.59457L5.29218 3.97693L3.7172 4.00219C2.1854 4.02667 2.13152 4.03308 1.75122 4.23546C1.28522 4.48344 0.935738 4.83793 0.684399 5.31769L0.5 5.6696V22.0137V38.3578L0.676422 38.6879C0.939414 39.1801 1.26184 39.5123 1.72628 39.7696L2.14223 40H11.0963H20.0503L20.4463 39.791C20.6641 39.6761 20.9755 39.4347 21.1382 39.2545C21.701 38.6316 21.6882 38.7208 21.7317 35.1124L21.7708 31.8671L29.1217 31.828L36.4726 31.7889L36.8127 31.6073C37.3307 31.331 37.8143 30.8426 38.0546 30.3532L38.2713 29.912V22.0137V14.1153L38.1023 13.7497C37.8766 13.2614 37.3445 12.6969 36.8951 12.4692C36.6939 12.3673 36.3054 12.2475 36.0317 12.2031C35.7168 12.152 33.0014 12.1222 28.6329 12.1218L21.7317 12.1212V9.00708C21.7317 5.35828 21.7368 5.38972 21.0273 4.67949C20.4055 4.05709 20.1356 3.98827 18.3157 3.98827H16.8832V3.51906V3.04985H17.8877C19.1896 3.04985 19.176 3.06205 19.1387 1.93439C19.1142 1.19093 19.0917 1.08841 18.8773 0.742522C18.7234 0.494233 18.5242 0.301466 18.2981 0.182053L17.9534 0L12.2766 0.00304985C7.38305 0.0057087 6.56201 0.0224438 6.32655 0.124575ZM16.0844 1.03617C16.0088 1.16841 15.9777 1.92641 15.9592 4.08602L15.9344 6.95992H11.0911H6.2478V4.22796C6.2478 2.68387 6.28025 1.41067 6.3224 1.29978C6.48905 0.861388 6.42579 0.866784 11.5096 0.863343L16.1848 0.860215L16.0844 1.03617ZM18.0474 1.13501C18.1805 1.2635 18.2452 1.43007 18.2724 1.71347L18.3107 2.11144H17.5969H16.8832V1.80371C16.8832 1.34952 17.0062 1.1017 17.2931 0.977673C17.5944 0.847546 17.7929 0.888915 18.0474 1.13501ZM5.30938 5.9042V6.95992H4.68377C4.1624 6.95992 4.03212 6.98596 3.90176 7.11632C3.70039 7.31769 3.70321 7.52313 3.90997 7.71026C4.0688 7.854 4.31544 7.86002 10.9676 7.88113C14.7588 7.89326 17.9374 7.88442 18.0312 7.86151C18.4354 7.76289 18.5651 7.39058 18.2908 7.11632C18.1604 6.98596 18.0302 6.95992 17.5088 6.95992H16.8832V5.9042V4.84848L18.1931 4.84895C18.9135 4.84919 19.6338 4.88571 19.7938 4.93013C20.1827 5.0382 20.5493 5.35891 20.7244 5.74459C20.8622 6.04786 20.868 6.70334 20.868 22.0137C20.868 37.324 20.8622 37.9795 20.7244 38.2828C20.5468 38.6739 20.1782 38.9925 19.7792 39.1C19.5752 39.155 16.6794 39.1747 10.9137 39.1607L2.35118 39.1398L2.01586 38.9041C1.83138 38.7745 1.60843 38.5458 1.52037 38.3958C1.36053 38.1238 1.36014 38.0885 1.33988 22.1812C1.32573 11.0459 1.34481 6.14561 1.4033 5.9286C1.51146 5.5268 1.90301 5.10585 2.29863 4.96594C2.52018 4.88759 3.00487 4.85435 3.96041 4.85193L5.30938 4.84848V5.9042ZM3.87329 10.0278C3.46626 10.1355 2.92518 10.6664 2.81554 11.0655C2.6937 11.5089 2.69574 19.4284 2.81773 19.7928C2.95114 20.1912 3.24854 20.5497 3.59036 20.7241C3.88854 20.8762 4.06098 20.8798 11.0963 20.8798C18.0205 20.8798 18.3082 20.8741 18.5872 20.7309C18.954 20.5429 19.1887 20.2919 19.3428 19.9232C19.4469 19.674 19.4638 19.0487 19.4638 15.4448C19.4638 10.8298 19.4742 10.9358 18.9733 10.4182C18.4905 9.91945 18.6767 9.93071 11.0625 9.93963C6.64326 9.94487 4.06716 9.97638 3.87329 10.0278ZM18.3451 11.0587L18.5645 11.2474L18.5887 15.2229C18.6052 17.9517 18.5858 19.2905 18.5267 19.492C18.3606 20.0589 18.8692 20.0243 11.023 20.0013L3.96612 19.9804L3.8166 19.7958C3.67365 19.6192 3.66716 19.4301 3.66716 15.4326V11.2539L3.85914 11.062L4.05105 10.87H11.0884H18.1257L18.3451 11.0587ZM36.2206 13.1425C36.9098 13.334 37.3748 14.014 37.4337 14.9169L37.4707 15.4839H29.6012H21.7317V14.2717V13.0596L28.8284 13.0601C33.5393 13.0603 36.0245 13.0881 36.2206 13.1425ZM37.4501 17.6344V18.9247H29.5909H21.7317V17.6344V16.3441H29.5909H37.4501V17.6344ZM37.4329 24.7312C37.411 29.6716 37.4108 29.6778 37.2374 30.0022C37.0241 30.401 36.6015 30.7596 36.205 30.8785C35.9913 30.9425 33.9039 30.9677 28.8194 30.9677H21.7317V25.3763V19.7849H29.5932H37.4546L37.4329 24.7312ZM23.2687 21.492C23.1627 21.6092 23.1393 21.8132 23.1393 22.6203C23.1393 23.7042 23.1942 23.8514 23.5984 23.8514C23.9647 23.8514 23.9995 23.7458 23.9995 22.6358C23.9995 21.7392 23.9812 21.5912 23.8565 21.4784C23.6689 21.3086 23.4297 21.3142 23.2687 21.492ZM25.1379 21.5228C25.044 21.6569 25.0161 21.9131 25.0161 22.6446C25.0161 23.6845 25.0832 23.8514 25.5014 23.8514C25.8231 23.8514 25.9061 23.6658 25.9409 22.8685C25.9773 22.0368 25.9236 21.642 25.7504 21.4688C25.5768 21.2952 25.2789 21.3214 25.1379 21.5228ZM27.0494 21.5054C26.9106 21.6441 26.893 21.766 26.893 22.5828C26.893 23.6325 26.9744 23.8514 27.3648 23.8514C27.7669 23.8514 27.8486 23.6117 27.8185 22.5191C27.7955 21.6882 27.7734 21.5569 27.6405 21.4598C27.43 21.3061 27.2335 21.3213 27.0494 21.5054ZM28.9607 21.4598C28.8277 21.5569 28.8057 21.6882 28.7827 22.5191C28.7526 23.6117 28.8342 23.8514 29.2363 23.8514C29.6267 23.8514 29.7082 23.6325 29.7082 22.5828C29.7082 21.766 29.6905 21.6441 29.5518 21.5054C29.3677 21.3213 29.1711 21.3061 28.9607 21.4598ZM3.90176 23.1898C3.20983 23.4994 2.77363 24.1785 2.77363 24.9462C2.77363 25.5275 2.94395 25.9248 3.36702 26.3303C4.36276 27.2848 6.04901 26.8459 6.48717 25.5183C6.63662 25.0656 6.54684 24.3884 6.28025 23.9573C5.93382 23.3969 5.43263 23.116 4.73046 23.0889C4.35478 23.0743 4.08702 23.1069 3.90176 23.1898ZM8.20283 23.1939C6.98211 23.7218 6.68151 25.3501 7.62798 26.3077C8.19314 26.8795 9.12811 27.0102 9.84827 26.6183C11.2119 25.8761 11.1976 23.9535 9.82332 23.2687C9.3549 23.0353 8.64538 23.0025 8.20283 23.1939ZM12.5039 23.1939C12.1475 23.348 11.7501 23.733 11.5427 24.1251C11.3217 24.5429 11.3099 25.3334 11.5183 25.7533C12.2763 27.2796 14.4848 27.1785 15.0512 25.5916C15.3759 24.6818 14.9215 23.6203 14.0352 23.2178C13.6435 23.0399 12.8873 23.0281 12.5039 23.1939ZM16.7628 23.2163C16.365 23.3971 15.8442 23.9822 15.7239 24.3837C15.2368 26.0096 16.958 27.4305 18.4385 26.6247C19.5502 26.0197 19.7957 24.6628 18.9644 23.7182C18.5604 23.2593 18.1511 23.0728 17.5479 23.0728C17.2597 23.0728 16.9569 23.1282 16.7628 23.2163ZM5.13218 24.0608C5.46868 24.2205 5.74192 24.7582 5.66981 25.1187C5.50113 25.9619 4.49914 26.2474 3.92139 25.6169C3.70852 25.3846 3.66716 25.2786 3.66716 24.9648C3.66716 24.5404 3.80174 24.3012 4.16506 24.0796C4.46739 23.8953 4.77081 23.8893 5.13218 24.0608ZM9.41926 24.0542C9.77124 24.2212 10.0314 24.746 9.95752 25.1399C9.89777 25.4588 9.53859 25.8605 9.24823 25.9333C8.88029 26.0257 8.48983 25.9044 8.22239 25.6148C8.00929 25.384 7.96823 25.279 7.96823 24.9648C7.96823 24.5404 8.10281 24.3012 8.46614 24.0796C8.76502 23.8973 9.0715 23.8892 9.41926 24.0542ZM13.9179 24.2095C14.6871 24.9464 14.0282 26.1555 12.9825 25.9258C12.8519 25.8972 12.638 25.7517 12.5072 25.6027C11.9081 24.9204 12.4491 23.8637 13.3505 23.9555C13.5833 23.9792 13.7603 24.0584 13.9179 24.2095ZM18.0324 24.0826C18.5404 24.3923 18.6968 24.9838 18.4026 25.4818C17.8934 26.3439 16.549 25.9497 16.549 24.9382C16.549 24.4202 17.0346 23.9302 17.5479 23.9302C17.6769 23.9302 17.895 23.9987 18.0324 24.0826ZM31.5232 24.7856C31.3816 24.8208 31.192 24.9153 31.1018 24.9957C30.7745 25.2873 30.7248 25.5639 30.7248 27.0968C30.7248 28.7315 30.7819 28.985 31.2089 29.2453C31.4465 29.3901 31.5997 29.4031 33.0709 29.4023C34.8346 29.4013 34.9443 29.378 35.2386 28.9414C35.4096 28.6877 35.4169 28.6118 35.4166 27.1047C35.4164 25.6845 35.4016 25.5086 35.2639 25.2828C34.9608 24.7857 34.8366 24.7523 33.2309 24.7362C32.4332 24.7282 31.6647 24.7505 31.5232 24.7856ZM34.5176 27.0968V28.5044L33.0904 28.5257L31.6632 28.547V27.0968V25.6465L33.0904 25.6678L34.5176 25.6891V27.0968ZM3.90176 28.2729C3.20983 28.5824 2.77363 29.2616 2.77363 30.0293C2.77363 31.1218 3.58927 31.9218 4.69777 31.9165C6.15466 31.9095 7.04913 30.2839 6.28025 29.0404C5.93382 28.48 5.43263 28.1991 4.73046 28.172C4.35478 28.1574 4.08702 28.19 3.90176 28.2729ZM8.20283 28.277C7.51654 28.5738 7.0747 29.2601 7.0747 30.0293C7.0747 31.4813 8.60995 32.3923 9.87079 31.6886C11.5829 30.7331 10.9125 28.1431 8.95638 28.1555C8.69245 28.1573 8.35337 28.2118 8.20283 28.277ZM12.4618 28.2994C12.2881 28.3783 12.0009 28.6076 11.8237 28.8089C10.4589 30.3594 12.2408 32.6272 14.1066 31.7143C15.5307 31.0176 15.4876 28.9605 14.0352 28.3008C13.6152 28.1101 12.88 28.1095 12.4618 28.2994ZM16.7659 28.2987C16.1127 28.5966 15.632 29.3322 15.632 30.0334C15.632 31.0591 16.4995 31.9173 17.5362 31.9173C19.2396 31.9173 20.0887 29.8842 18.8871 28.6826C18.3676 28.1631 17.4335 27.9941 16.7659 28.2987ZM5.14813 29.1556C5.44186 29.3131 5.70039 29.7222 5.70039 30.0293C5.70039 30.3424 5.43748 30.76 5.14633 30.9089C4.44143 31.2698 3.66716 30.813 3.66716 30.0362C3.66716 29.6242 3.80518 29.3821 4.16506 29.1627C4.47349 28.9746 4.80624 28.9722 5.14813 29.1556ZM9.5529 29.2034C9.66614 29.2775 9.81902 29.4959 9.89261 29.6886C10.0206 30.0239 10.0199 30.0544 9.87705 30.3968C9.58074 31.1069 8.73836 31.263 8.22504 30.7029C8.00944 30.4676 7.96823 30.3625 7.96823 30.0479C7.96823 29.6249 8.10102 29.3875 8.46614 29.1582C8.75627 28.9758 9.23611 28.9957 9.5529 29.2034ZM13.9179 29.2926C14.683 30.0255 14.0225 31.2373 12.9825 31.0089C12.8519 30.9803 12.638 30.8348 12.5072 30.6858C12.1819 30.3154 12.1694 29.769 12.4779 29.4023C12.7458 29.0841 12.9325 29.0073 13.3505 29.0437C13.5884 29.0643 13.7569 29.1382 13.9179 29.2926ZM18.219 29.2926C18.9772 30.0189 18.316 31.2357 17.286 31.0094C16.7898 30.9005 16.4309 30.2808 16.5744 29.7807C16.653 29.5066 16.9192 29.1878 17.1569 29.0832C17.4507 28.9537 17.9728 29.0567 18.219 29.2926ZM4.31826 33.2468C3.89136 33.3211 3.60561 33.4758 3.30446 33.7959C2.9043 34.2212 2.77308 34.5465 2.77339 35.1124C2.7737 35.7176 2.95474 36.1182 3.41668 36.5355C3.81441 36.8948 4.18962 37.014 4.80053 36.9752C5.44068 36.9344 5.95353 36.6299 6.28487 36.094C6.49429 35.7552 6.52151 35.6424 6.52151 35.1124C6.52151 34.5824 6.49429 34.4697 6.28487 34.1308C5.87392 33.4662 5.08823 33.113 4.31826 33.2468ZM8.61933 33.2468C8.19243 33.3211 7.90669 33.4758 7.60553 33.7959C7.20538 34.2212 7.07415 34.5465 7.07447 35.1124C7.07478 35.7176 7.25582 36.1182 7.71775 36.5355C8.11548 36.8948 8.49069 37.014 9.1016 36.9752C9.74176 36.9344 10.2546 36.6299 10.5859 36.094C10.7954 35.7552 10.8226 35.6424 10.8226 35.1124C10.8226 34.5824 10.7954 34.4697 10.5859 34.1308C10.175 33.4662 9.38931 33.113 8.61933 33.2468ZM12.9204 33.2461C12.4966 33.3207 12.2006 33.4776 11.8968 33.7885C11.1857 34.5157 11.1554 35.5735 11.8237 36.3328C12.234 36.7988 12.6404 36.9853 13.251 36.9875C14.8168 36.9932 15.6963 35.2953 14.7986 33.9999C14.4129 33.4434 13.6159 33.1234 12.9204 33.2461ZM17.2215 33.2461C16.3175 33.4054 15.632 34.2103 15.632 35.1124C15.632 35.8096 16.1144 36.5458 16.7659 36.8431C17.4335 37.1477 18.3676 36.9786 18.8871 36.4591C20.1942 35.1521 19.04 32.9255 17.2215 33.2461ZM5.14813 34.2387C5.44186 34.3962 5.70039 34.8052 5.70039 35.1124C5.70039 35.4196 5.44186 35.8287 5.14813 35.9862C4.45277 36.3591 3.66716 35.8992 3.66716 35.1193C3.66716 34.7073 3.80518 34.4652 4.16506 34.2458C4.47349 34.0577 4.80624 34.0553 5.14813 34.2387ZM9.43325 34.227C9.83106 34.4158 10.0557 34.9358 9.92624 35.368C9.81183 35.7498 9.52029 36.0314 9.17136 36.0968C8.79302 36.1677 8.52776 36.0786 8.2295 35.7803C8.00264 35.5535 7.96823 35.4674 7.96823 35.1263C7.96823 34.3213 8.69363 33.8761 9.43325 34.227ZM13.7077 34.2143C14.0231 34.364 14.2457 34.7356 14.2457 35.1124C14.2457 36.0358 13.1472 36.4637 12.5235 35.7831C12.3085 35.5485 12.2693 35.4463 12.2693 35.1195C12.2693 34.3359 12.9977 33.8775 13.7077 34.2143ZM18.219 34.3757C18.6666 34.8045 18.662 35.4248 18.208 35.8598C18.003 36.0561 17.9061 36.0899 17.5479 36.0899C17.1897 36.0899 17.0928 36.0561 16.8878 35.8598C16.4558 35.4459 16.4288 34.8509 16.8227 34.4267C17.0692 34.1611 17.2585 34.0926 17.6516 34.1268C17.8895 34.1474 18.0579 34.2213 18.219 34.3757Z" fill="url(#paint0_linear_13_7477)"/>
<defs>
<linearGradient id="paint0_linear_13_7477" x1="0.5" y1="20.5405" x2="38.2713" y2="20.5405" gradientUnits="userSpaceOnUse">
<stop stop-color="#00469F"/>
<stop offset="1" stop-color="#1E79D6"/>
</linearGradient>
</defs>
</svg>
