<svg width="36" height="36" viewBox="0 0 36 36" fill="none" xmlns="http://www.w3.org/2000/svg">
<path fill-rule="evenodd" clip-rule="evenodd" d="M13.9069 0.0694831C13.4576 0.157226 12.7481 0.522668 12.5348 0.776156C12.4242 0.907594 12.3539 1.07771 12.3539 1.21423C12.3539 1.41626 13.0359 2.11955 19.535 8.61979L26.7161 15.8021L16.6938 15.8207L6.67147 15.8393L6.33998 15.9925C6.15765 16.0768 5.86124 16.2929 5.68138 16.4728C4.59734 17.5568 4.86798 19.3164 6.22923 20.0354L6.70458 20.2865L6.70571 21.9983L6.70677 23.7101H6.11007C5.7819 23.7101 5.43601 23.6748 5.34135 23.6317C5.06697 23.5067 4.89219 23.0042 5.12309 23.0042C5.18387 23.0042 5.40001 22.8374 5.60352 22.6336C6.03369 22.2026 6.18553 21.7935 6.12017 21.2416C6.07075 20.8246 5.93925 20.5534 5.64249 20.2566C5.18669 19.8008 5.14434 19.7924 3.31846 19.7924C1.49259 19.7924 1.45024 19.8008 0.994443 20.2566C0.557705 20.6933 0.397537 21.3102 0.565187 21.9091C0.669378 22.2813 1.1016 22.8048 1.41015 22.9326C1.62107 23.02 1.62431 23.0291 1.62431 23.5387C1.62431 24.5692 1.92467 25.3493 2.58984 26.0467C3.02517 26.503 3.7197 26.9001 4.29253 27.02C4.4983 27.0632 5.12563 27.0984 5.68668 27.0984H6.70677L6.70783 29.3043C6.70895 31.7931 6.74679 32.0793 7.18438 32.9148C7.68055 33.862 8.69831 34.6482 9.74939 34.8959C10.4277 35.0558 25.5745 35.0558 26.2528 34.8959C27.3102 34.6467 28.3166 33.8671 28.8216 32.906C29.255 32.0813 29.2933 31.7898 29.2944 29.3043L29.2954 27.0984H30.3395C31.0492 27.0984 31.5163 27.0638 31.7984 26.9903C33.3618 26.5831 34.3779 25.2295 34.3779 23.5541C34.3779 23.1022 34.3976 23.0042 34.4884 23.0042C34.5491 23.0042 34.7653 22.8374 34.9688 22.6336C35.399 22.2026 35.5508 21.7935 35.4854 21.2416C35.436 20.8246 35.3045 20.5534 35.0078 20.2566C34.552 19.8008 34.5096 19.7924 32.6837 19.7924C30.8579 19.7924 30.8155 19.8008 30.3597 20.2566C29.923 20.6933 29.7628 21.3102 29.9305 21.9091C30.0347 22.2813 30.4669 22.8048 30.7754 22.9326C31.0068 23.0285 31.0328 23.1145 30.9112 23.3814C30.7962 23.6338 30.5598 23.7101 29.8921 23.7101H29.2954V21.9927V20.2753L29.6659 20.1044C31.3416 19.3314 31.4342 17.0024 29.8249 16.1109C29.5919 15.9819 29.3277 15.8759 29.2378 15.8755C29.1144 15.8749 29.0837 15.8443 29.113 15.7511C29.2021 15.468 29.2954 14.8447 29.2954 14.5331C29.2954 12.7158 28.0291 9.9 26.1169 7.46565L25.6387 6.85689L26.1083 6.39657C26.4919 6.02033 26.6036 5.94684 26.7189 5.99449C26.9787 6.10172 27.6931 6.066 27.9895 5.93096C28.6668 5.62249 29.0986 4.78346 28.9461 4.07206C28.9032 3.87208 28.8075 3.61075 28.7334 3.49139C28.6594 3.37202 27.9693 2.65017 27.1998 1.88731C25.8639 0.562622 25.7818 0.494644 25.3776 0.37676C25.02 0.272499 24.8938 0.265934 24.5663 0.334335C23.7559 0.503539 23.2202 1.1687 23.2297 1.99418C23.2324 2.23242 23.2609 2.49085 23.2929 2.5685C23.3406 2.68384 23.2671 2.79551 22.8908 3.17917L22.4305 3.64873L21.8218 3.16794C18.946 0.896935 15.8586 -0.311701 13.9069 0.0694831ZM15.9626 1.29047C18.9056 2.04211 22.8552 5.04753 25.4565 8.51483C27.3723 11.0684 28.4644 13.817 28.098 15.1627L28.0131 15.4744L20.9264 8.38798C17.0287 4.49044 13.8628 1.27995 13.891 1.25362C14.0893 1.06811 15.1669 1.08724 15.9626 1.29047ZM26.5298 2.84006C27.6853 4.00168 27.8131 4.15387 27.8131 4.36832C27.8131 4.67997 27.5784 4.93325 27.2896 4.93325C27.1027 4.93325 26.8878 4.74802 25.7137 3.5751C24.3189 2.18167 24.2565 2.0935 24.4001 1.71937C24.4697 1.53796 24.8375 1.40737 25.0601 1.48495C25.1626 1.52066 25.824 2.13049 26.5298 2.84006ZM25.2907 5.58514L24.8869 5.99322L24.0916 5.20008L23.2962 4.407L23.7 3.999L24.1038 3.59092L24.8991 4.38406L25.6945 5.17714L25.2907 5.58514ZM9.54002 6.51841C8.59433 7.49036 8.43621 7.80935 8.43621 8.74509C8.43621 9.61715 8.59603 9.97151 9.36284 10.799C10.0749 11.5676 10.2041 11.9242 10.0093 12.584C9.94641 12.7971 9.73979 13.0641 9.23493 13.5848L8.54626 14.2949L8.95448 14.6989L9.3627 15.1029L10.0854 14.3601C11.0311 13.3881 11.1892 13.0691 11.1892 12.1334C11.1892 11.2613 11.0294 10.907 10.2626 10.0794C9.55054 9.31086 9.42136 8.95424 9.61612 8.29444C9.67901 8.0814 9.88563 7.81436 10.3905 7.2937L11.0792 6.58356L10.6709 6.17958L10.2627 5.77559L9.54002 6.51841ZM14.6225 6.51841C13.6768 7.49036 13.5187 7.80935 13.5187 8.74509C13.5187 9.61715 13.6785 9.97151 14.4453 10.799C15.1573 11.5676 15.2865 11.9242 15.0918 12.584C15.0289 12.7971 14.8222 13.0641 14.3174 13.5848L13.6287 14.2949L14.0369 14.6989L14.4452 15.1029L15.1679 14.3601C16.1135 13.3881 16.2717 13.0691 16.2717 12.1334C16.2717 11.2613 16.1118 10.907 15.345 10.0794C14.633 9.31086 14.5038 8.95424 14.6986 8.29444C14.7615 8.0814 14.9681 7.81436 15.4729 7.2937L16.1616 6.58356L15.7534 6.17958L15.3452 5.77559L14.6225 6.51841ZM29.2275 17.0923C29.5666 17.2633 29.8602 17.7137 29.8602 18.0629C29.8602 18.4121 29.5666 18.8626 29.2275 19.0335L28.9126 19.1924H18.0011H7.08964L6.77467 19.0335C6.43563 18.8626 6.14205 18.4121 6.14205 18.0629C6.14205 17.7137 6.43563 17.2633 6.77467 17.0923L7.08964 16.9335H18.0011H28.9126L29.2275 17.0923ZM28.166 25.813C28.166 31.6979 28.1659 31.7011 27.807 32.4045C27.6064 32.7977 27.0593 33.3312 26.6375 33.5449C25.9723 33.8821 25.9314 33.8835 17.754 33.8609L10.0598 33.8397L9.68014 33.6843C8.89003 33.3606 8.34332 32.8199 8.03547 32.0575L7.87149 31.6514L7.8518 25.9866L7.83218 20.3218H17.9991H28.166V25.813ZM4.68684 20.9663C5.0789 21.1449 5.0789 21.7576 4.68684 21.9362C4.57884 21.9854 4.05507 22.0159 3.31846 22.0159C2.0139 22.0159 1.82352 21.9736 1.69109 21.6538C1.58711 21.4027 1.69893 21.0818 1.92933 20.9704C2.14308 20.8671 4.46152 20.8636 4.68684 20.9663ZM34.0521 20.9663C34.4442 21.1449 34.4442 21.7576 34.0521 21.9362C33.9441 21.9854 33.4203 22.0159 32.6837 22.0159C31.3792 22.0159 31.1888 21.9736 31.0564 21.6538C30.9524 21.4027 31.0642 21.0818 31.2946 20.9704C31.5084 20.8671 33.8268 20.8636 34.0521 20.9663ZM3.91396 23.4577C3.99881 24.0232 4.52505 24.615 5.08031 24.7693C5.21775 24.8075 5.64002 24.8389 6.01852 24.8391L6.70677 24.8395V25.4105V25.9814L5.59498 25.9575C4.5691 25.9355 4.45319 25.9194 4.09495 25.7492C3.28246 25.3632 2.82278 24.6516 2.76737 23.6939L2.73561 23.1454H3.30138H3.86716L3.91396 23.4577ZM26.4703 27.1866C26.4688 31.0191 26.4618 31.2433 26.3332 31.5264C26.1932 31.8347 25.8913 32.0715 25.5394 32.1488C25.3437 32.1918 25.3424 32.1957 25.3424 32.7607V33.3295L25.6743 33.2839C26.3801 33.1872 27.0594 32.6808 27.3932 32.0025L27.566 31.6514L27.5858 27.3984L27.6055 23.1454H27.0387H26.4719L26.4703 27.1866ZM33.2348 23.6939C33.1788 24.6625 32.725 25.3681 31.9133 25.7487C31.5498 25.9193 31.4323 25.9355 30.4072 25.9575L29.2954 25.9814V25.4105V24.8395L29.9837 24.8391C30.8575 24.8386 31.1399 24.7579 31.5318 24.3966C31.8978 24.0593 32.0263 23.8383 32.0907 23.4351L32.1371 23.1454H32.7018H33.2666L33.2348 23.6939Z" fill="white"/>
</svg>
