<svg width="41" height="40" viewBox="0 0 41 40" fill="none" xmlns="http://www.w3.org/2000/svg">
<path d="M27.8454 10.2856H13.1548C11.8367 10.2871 10.769 11.3552 10.7676 12.6729V27.3634C10.769 28.6811 11.8367 29.7492 13.1548 29.7506H27.8454C29.1631 29.7492 30.2311 28.6811 30.2326 27.3634V12.6729C30.2311 11.3552 29.1631 10.2871 27.8454 10.2856ZM29.1308 27.3634C29.1297 28.0729 28.5548 28.6481 27.8454 28.6489H13.1548C12.445 28.6481 11.8701 28.0729 11.8694 27.3634V12.6729C11.8701 11.9631 12.445 11.3882 13.1548 11.3874H27.8454C28.5548 11.3882 29.1301 11.9631 29.1308 12.6729V27.3634Z" fill="url(#paint0_linear_19_17532)"/>
<path d="M29.6813 7.52661H11.3181C9.49323 7.52876 8.01449 9.00715 8.0127 10.832V29.1952C8.01449 31.0197 9.49323 32.4984 11.3181 32.5006H29.6813C31.5058 32.4984 32.9845 31.0197 32.9867 29.1952V10.832C32.9845 9.00715 31.5058 7.52876 29.6813 7.52661ZM31.8849 29.1952C31.8834 30.4118 30.8975 31.3974 29.6813 31.3988H11.3181C10.1015 31.3974 9.11592 30.4118 9.11449 29.1952V10.832C9.11556 9.61543 10.1015 8.62984 11.3181 8.6284H29.6813C30.8975 8.62984 31.8834 9.61543 31.8849 10.832V29.1952Z" fill="url(#paint1_linear_19_17532)"/>
<path d="M22.4855 34.3074C22.181 34.3074 21.9346 34.5541 21.9346 34.8583V39.4491C21.9346 39.7536 22.181 40 22.4855 40C22.7896 40 23.0364 39.7536 23.0364 39.4491V34.8583C23.0364 34.5541 22.7896 34.3074 22.4855 34.3074Z" fill="url(#paint2_linear_19_17532)"/>
<path d="M18.5148 34.3074C18.2103 34.3074 17.9639 34.5541 17.9639 34.8583V39.4491C17.9639 39.7536 18.2103 40 18.5148 40C18.8189 40 19.0657 39.7536 19.0657 39.4491V34.8583C19.0657 34.5541 18.8189 34.3074 18.5148 34.3074Z" fill="url(#paint3_linear_19_17532)"/>
<path d="M14.547 34.3074C14.2428 34.3074 13.9961 34.5541 13.9961 34.8583V39.4491C13.9961 39.7536 14.2428 40 14.547 40C14.8511 40 15.0979 39.7536 15.0979 39.4491V34.8583C15.0979 34.5541 14.8511 34.3074 14.547 34.3074Z" fill="url(#paint4_linear_19_17532)"/>
<path d="M26.4542 34.3074C26.1497 34.3074 25.9033 34.5541 25.9033 34.8583V39.4491C25.9033 39.7536 26.1497 40 26.4542 40C26.7584 40 27.0051 39.7536 27.0051 39.4491V34.8583C27.0051 34.5541 26.7584 34.3074 26.4542 34.3074Z" fill="url(#paint5_linear_19_17532)"/>
<path d="M19.0657 5.1417V0.550896C19.0657 0.246756 18.8189 0 18.5148 0C18.2103 0 17.9639 0.246756 17.9639 0.550896V5.1417C17.9639 5.44584 18.2103 5.6926 18.5148 5.6926C18.8189 5.6926 19.0657 5.44584 19.0657 5.1417Z" fill="url(#paint6_linear_19_17532)"/>
<path d="M23.0364 5.1417V0.550896C23.0364 0.246756 22.7896 0 22.4855 0C22.181 0 21.9346 0.246756 21.9346 0.550896V5.1417C21.9346 5.44584 22.181 5.6926 22.4855 5.6926C22.7896 5.6926 23.0364 5.44584 23.0364 5.1417Z" fill="url(#paint7_linear_19_17532)"/>
<path d="M27.0051 5.1417V0.550896C27.0051 0.246756 26.7584 0 26.4542 0C26.1497 0 25.9033 0.246756 25.9033 0.550896V5.1417C25.9033 5.44584 26.1497 5.6926 26.4542 5.6926C26.7584 5.6926 27.0051 5.44584 27.0051 5.1417Z" fill="url(#paint8_linear_19_17532)"/>
<path d="M15.0979 5.1417V0.550896C15.0979 0.246756 14.8511 0 14.547 0C14.2428 0 13.9961 0.246756 13.9961 0.550896V5.1417C13.9961 5.44584 14.2428 5.6926 14.547 5.6926C14.8511 5.6926 15.0979 5.44584 15.0979 5.1417Z" fill="url(#paint9_linear_19_17532)"/>
<path d="M39.9493 17.4639H35.3585C35.0544 17.4639 34.8076 17.7103 34.8076 18.0148C34.8076 18.3189 35.0544 18.5657 35.3585 18.5657H39.9493C40.2538 18.5657 40.5002 18.3189 40.5002 18.0148C40.5002 17.7103 40.2538 17.4639 39.9493 17.4639Z" fill="url(#paint10_linear_19_17532)"/>
<path d="M39.9493 21.4326H35.3585C35.0544 21.4326 34.8076 21.679 34.8076 21.9835C34.8076 22.2877 35.0544 22.5344 35.3585 22.5344H39.9493C40.2538 22.5344 40.5002 22.2877 40.5002 21.9835C40.5002 21.679 40.2538 21.4326 39.9493 21.4326Z" fill="url(#paint11_linear_19_17532)"/>
<path d="M39.9493 25.4014H35.3585C35.0544 25.4014 34.8076 25.6478 34.8076 25.9523C34.8076 26.2564 35.0544 26.5032 35.3585 26.5032H39.9493C40.2538 26.5032 40.5002 26.2564 40.5002 25.9523C40.5002 25.6478 40.2538 25.4014 39.9493 25.4014Z" fill="url(#paint12_linear_19_17532)"/>
<path d="M39.9493 13.4951H35.3585C35.0544 13.4951 34.8076 13.7419 34.8076 14.046C34.8076 14.3502 35.0544 14.5969 35.3585 14.5969H39.9493C40.2538 14.5969 40.5002 14.3502 40.5002 14.046C40.5002 13.7419 40.2538 13.4951 39.9493 13.4951Z" fill="url(#paint13_linear_19_17532)"/>
<path d="M5.6417 21.4326H1.0509C0.746756 21.4326 0.5 21.679 0.5 21.9835C0.5 22.2877 0.746756 22.5344 1.0509 22.5344H5.6417C5.94584 22.5344 6.1926 22.2877 6.1926 21.9835C6.1926 21.679 5.94584 21.4326 5.6417 21.4326Z" fill="url(#paint14_linear_19_17532)"/>
<path d="M5.6417 17.4639H1.0509C0.746756 17.4639 0.5 17.7103 0.5 18.0148C0.5 18.3189 0.746756 18.5657 1.0509 18.5657H5.6417C5.94584 18.5657 6.1926 18.3189 6.1926 18.0148C6.1926 17.7103 5.94584 17.4639 5.6417 17.4639Z" fill="url(#paint15_linear_19_17532)"/>
<path d="M5.6417 13.4951H1.0509C0.746756 13.4951 0.5 13.7419 0.5 14.046C0.5 14.3502 0.746756 14.5969 1.0509 14.5969H5.6417C5.94584 14.5969 6.1926 14.3502 6.1926 14.046C6.1926 13.7419 5.94584 13.4951 5.6417 13.4951Z" fill="url(#paint16_linear_19_17532)"/>
<path d="M5.6417 25.4014H1.0509C0.746756 25.4014 0.5 25.6478 0.5 25.9523C0.5 26.2564 0.746756 26.5032 1.0509 26.5032H5.6417C5.94584 26.5032 6.1926 26.2564 6.1926 25.9523C6.1926 25.6478 5.94584 25.4014 5.6417 25.4014Z" fill="url(#paint17_linear_19_17532)"/>
<defs>
<linearGradient id="paint0_linear_19_17532" x1="10.7676" y1="20.2812" x2="30.2326" y2="20.2812" gradientUnits="userSpaceOnUse">
<stop stop-color="#00469F"/>
<stop offset="1" stop-color="#1E79D6"/>
</linearGradient>
<linearGradient id="paint1_linear_19_17532" x1="8.0127" y1="20.3511" x2="32.9867" y2="20.3511" gradientUnits="userSpaceOnUse">
<stop stop-color="#00469F"/>
<stop offset="1" stop-color="#1E79D6"/>
</linearGradient>
<linearGradient id="paint2_linear_19_17532" x1="21.9346" y1="37.2306" x2="23.0364" y2="37.2306" gradientUnits="userSpaceOnUse">
<stop stop-color="#00469F"/>
<stop offset="1" stop-color="#1E79D6"/>
</linearGradient>
<linearGradient id="paint3_linear_19_17532" x1="17.9639" y1="37.2306" x2="19.0657" y2="37.2306" gradientUnits="userSpaceOnUse">
<stop stop-color="#00469F"/>
<stop offset="1" stop-color="#1E79D6"/>
</linearGradient>
<linearGradient id="paint4_linear_19_17532" x1="13.9961" y1="37.2306" x2="15.0979" y2="37.2306" gradientUnits="userSpaceOnUse">
<stop stop-color="#00469F"/>
<stop offset="1" stop-color="#1E79D6"/>
</linearGradient>
<linearGradient id="paint5_linear_19_17532" x1="25.9033" y1="37.2306" x2="27.0051" y2="37.2306" gradientUnits="userSpaceOnUse">
<stop stop-color="#00469F"/>
<stop offset="1" stop-color="#1E79D6"/>
</linearGradient>
<linearGradient id="paint6_linear_19_17532" x1="17.9639" y1="2.92322" x2="19.0657" y2="2.92322" gradientUnits="userSpaceOnUse">
<stop stop-color="#00469F"/>
<stop offset="1" stop-color="#1E79D6"/>
</linearGradient>
<linearGradient id="paint7_linear_19_17532" x1="21.9346" y1="2.92322" x2="23.0364" y2="2.92322" gradientUnits="userSpaceOnUse">
<stop stop-color="#00469F"/>
<stop offset="1" stop-color="#1E79D6"/>
</linearGradient>
<linearGradient id="paint8_linear_19_17532" x1="25.9033" y1="2.92322" x2="27.0051" y2="2.92322" gradientUnits="userSpaceOnUse">
<stop stop-color="#00469F"/>
<stop offset="1" stop-color="#1E79D6"/>
</linearGradient>
<linearGradient id="paint9_linear_19_17532" x1="13.9961" y1="2.92322" x2="15.0979" y2="2.92322" gradientUnits="userSpaceOnUse">
<stop stop-color="#00469F"/>
<stop offset="1" stop-color="#1E79D6"/>
</linearGradient>
<linearGradient id="paint10_linear_19_17532" x1="34.8076" y1="18.0297" x2="40.5002" y2="18.0297" gradientUnits="userSpaceOnUse">
<stop stop-color="#00469F"/>
<stop offset="1" stop-color="#1E79D6"/>
</linearGradient>
<linearGradient id="paint11_linear_19_17532" x1="34.8076" y1="21.9984" x2="40.5002" y2="21.9984" gradientUnits="userSpaceOnUse">
<stop stop-color="#00469F"/>
<stop offset="1" stop-color="#1E79D6"/>
</linearGradient>
<linearGradient id="paint12_linear_19_17532" x1="34.8076" y1="25.9672" x2="40.5002" y2="25.9672" gradientUnits="userSpaceOnUse">
<stop stop-color="#00469F"/>
<stop offset="1" stop-color="#1E79D6"/>
</linearGradient>
<linearGradient id="paint13_linear_19_17532" x1="34.8076" y1="14.0609" x2="40.5002" y2="14.0609" gradientUnits="userSpaceOnUse">
<stop stop-color="#00469F"/>
<stop offset="1" stop-color="#1E79D6"/>
</linearGradient>
<linearGradient id="paint14_linear_19_17532" x1="0.5" y1="21.9984" x2="6.1926" y2="21.9984" gradientUnits="userSpaceOnUse">
<stop stop-color="#00469F"/>
<stop offset="1" stop-color="#1E79D6"/>
</linearGradient>
<linearGradient id="paint15_linear_19_17532" x1="0.5" y1="18.0297" x2="6.1926" y2="18.0297" gradientUnits="userSpaceOnUse">
<stop stop-color="#00469F"/>
<stop offset="1" stop-color="#1E79D6"/>
</linearGradient>
<linearGradient id="paint16_linear_19_17532" x1="0.5" y1="14.0609" x2="6.1926" y2="14.0609" gradientUnits="userSpaceOnUse">
<stop stop-color="#00469F"/>
<stop offset="1" stop-color="#1E79D6"/>
</linearGradient>
<linearGradient id="paint17_linear_19_17532" x1="0.5" y1="25.9672" x2="6.1926" y2="25.9672" gradientUnits="userSpaceOnUse">
<stop stop-color="#00469F"/>
<stop offset="1" stop-color="#1E79D6"/>
</linearGradient>
</defs>
</svg>
