<svg width="45" height="46" viewBox="0 0 45 46" fill="none" xmlns="http://www.w3.org/2000/svg">
<path d="M30.7638 12.0713H14.2369C12.7541 12.0729 11.5529 13.2745 11.5513 14.7569V31.2838C11.5529 32.7662 12.7541 33.9678 14.2369 33.9694H30.7638C32.2462 33.9678 33.4478 32.7662 33.4494 31.2838V14.7569C33.4478 13.2745 32.2462 12.0729 30.7638 12.0713ZM32.2099 31.2838C32.2087 32.0819 31.5619 32.7291 30.7638 32.7299H14.2369C13.4384 32.7291 12.7916 32.0819 12.7908 31.2838V14.7569C12.7916 13.9584 13.4384 13.3116 14.2369 13.3108H30.7638C31.5619 13.3116 32.2091 13.9584 32.2099 14.7569V31.2838Z" fill="white"/>
<path d="M32.8293 8.96753H12.1707C10.1177 8.96995 8.45417 10.6331 8.45215 12.6861V33.3447C8.45417 35.3972 10.1177 37.0608 12.1707 37.0632H32.8293C34.8819 37.0608 36.5454 35.3972 36.5479 33.3447V12.6861C36.5454 10.6331 34.8819 8.96995 32.8293 8.96753ZM35.3083 33.3447C35.3067 34.7133 34.1975 35.8221 32.8293 35.8237H12.1707C10.8021 35.8221 9.69328 34.7133 9.69167 33.3447V12.6861C9.69288 11.3174 10.8021 10.2087 12.1707 10.207H32.8293C34.1975 10.2087 35.3067 11.3174 35.3083 12.6861V33.3447Z" fill="white"/>
<path d="M24.734 39.0957C24.3915 39.0957 24.1143 39.3733 24.1143 39.7155V44.8801C24.1143 45.2227 24.3915 45.4999 24.734 45.4999C25.0762 45.4999 25.3538 45.2227 25.3538 44.8801V39.7155C25.3538 39.3733 25.0762 39.0957 24.734 39.0957Z" fill="white"/>
<path d="M20.2667 39.0957C19.9242 39.0957 19.647 39.3733 19.647 39.7155V44.8801C19.647 45.2227 19.9242 45.4999 20.2667 45.4999C20.6089 45.4999 20.8865 45.2227 20.8865 44.8801V39.7155C20.8865 39.3733 20.6089 39.0957 20.2667 39.0957Z" fill="white"/>
<path d="M15.8019 39.0957C15.4597 39.0957 15.1821 39.3733 15.1821 39.7155V44.8801C15.1821 45.2227 15.4597 45.4999 15.8019 45.4999C16.144 45.4999 16.4216 45.2227 16.4216 44.8801V39.7155C16.4216 39.3733 16.144 39.0957 15.8019 39.0957Z" fill="white"/>
<path d="M29.1989 39.0957C28.8563 39.0957 28.5791 39.3733 28.5791 39.7155V44.8801C28.5791 45.2227 28.8563 45.4999 29.1989 45.4999C29.541 45.4999 29.8186 45.2227 29.8186 44.8801V39.7155C29.8186 39.3733 29.541 39.0957 29.1989 39.0957Z" fill="white"/>
<path d="M20.8865 6.28441V1.11976C20.8865 0.7776 20.6089 0.5 20.2667 0.5C19.9242 0.5 19.647 0.7776 19.647 1.11976V6.28441C19.647 6.62657 19.9242 6.90417 20.2667 6.90417C20.6089 6.90417 20.8865 6.62657 20.8865 6.28441Z" fill="white"/>
<path d="M25.3538 6.28441V1.11976C25.3538 0.7776 25.0762 0.5 24.734 0.5C24.3915 0.5 24.1143 0.7776 24.1143 1.11976V6.28441C24.1143 6.62657 24.3915 6.90417 24.734 6.90417C25.0762 6.90417 25.3538 6.62657 25.3538 6.28441Z" fill="white"/>
<path d="M29.8186 6.28441V1.11976C29.8186 0.7776 29.541 0.5 29.1989 0.5C28.8563 0.5 28.5791 0.7776 28.5791 1.11976V6.28441C28.5791 6.62657 28.8563 6.90417 29.1989 6.90417C29.541 6.90417 29.8186 6.62657 29.8186 6.28441Z" fill="white"/>
<path d="M16.4216 6.28441V1.11976C16.4216 0.7776 16.144 0.5 15.8019 0.5C15.4597 0.5 15.1821 0.7776 15.1821 1.11976V6.28441C15.1821 6.62657 15.4597 6.90417 15.8019 6.90417C16.144 6.90417 16.4216 6.62657 16.4216 6.28441Z" fill="white"/>
<path d="M44.3801 20.147H39.2155C38.8733 20.147 38.5957 20.4242 38.5957 20.7667C38.5957 21.1089 38.8733 21.3865 39.2155 21.3865H44.3801C44.7227 21.3865 44.9999 21.1089 44.9999 20.7667C44.9999 20.4242 44.7227 20.147 44.3801 20.147Z" fill="white"/>
<path d="M44.3801 24.6116H39.2155C38.8733 24.6116 38.5957 24.8888 38.5957 25.2313C38.5957 25.5735 38.8733 25.8511 39.2155 25.8511H44.3801C44.7227 25.8511 44.9999 25.5735 44.9999 25.2313C44.9999 24.8888 44.7227 24.6116 44.3801 24.6116Z" fill="white"/>
<path d="M44.3801 29.0764H39.2155C38.8733 29.0764 38.5957 29.3536 38.5957 29.6962C38.5957 30.0383 38.8733 30.3159 39.2155 30.3159H44.3801C44.7227 30.3159 44.9999 30.0383 44.9999 29.6962C44.9999 29.3536 44.7227 29.0764 44.3801 29.0764Z" fill="white"/>
<path d="M44.3801 15.6821H39.2155C38.8733 15.6821 38.5957 15.9597 38.5957 16.3019C38.5957 16.644 38.8733 16.9216 39.2155 16.9216H44.3801C44.7227 16.9216 44.9999 16.644 44.9999 16.3019C44.9999 15.9597 44.7227 15.6821 44.3801 15.6821Z" fill="white"/>
<path d="M5.78441 24.6116H0.619758C0.2776 24.6116 0 24.8888 0 25.2313C0 25.5735 0.2776 25.8511 0.619758 25.8511H5.78441C6.12657 25.8511 6.40417 25.5735 6.40417 25.2313C6.40417 24.8888 6.12657 24.6116 5.78441 24.6116Z" fill="white"/>
<path d="M5.78441 20.147H0.619758C0.2776 20.147 0 20.4242 0 20.7667C0 21.1089 0.2776 21.3865 0.619758 21.3865H5.78441C6.12657 21.3865 6.40417 21.1089 6.40417 20.7667C6.40417 20.4242 6.12657 20.147 5.78441 20.147Z" fill="white"/>
<path d="M5.78441 15.6821H0.619758C0.2776 15.6821 0 15.9597 0 16.3019C0 16.644 0.2776 16.9216 0.619758 16.9216H5.78441C6.12657 16.9216 6.40417 16.644 6.40417 16.3019C6.40417 15.9597 6.12657 15.6821 5.78441 15.6821Z" fill="white"/>
<path d="M5.78441 29.0764H0.619758C0.2776 29.0764 0 29.3536 0 29.6962C0 30.0383 0.2776 30.3159 0.619758 30.3159H5.78441C6.12657 30.3159 6.40417 30.0383 6.40417 29.6962C6.40417 29.3536 6.12657 29.0764 5.78441 29.0764Z" fill="white"/>
</svg>
