<svg width="40" height="40" viewBox="0 0 40 40" fill="none" xmlns="http://www.w3.org/2000/svg">
<path fill-rule="evenodd" clip-rule="evenodd" d="M28.3236 3.16782C28.1731 3.31828 28.1558 3.39265 28.1558 3.88797V4.44037L27.8386 4.57634L27.5215 4.7123L27.0926 4.30044C26.7761 3.99652 26.6134 3.88866 26.4718 3.88866C26.3136 3.88866 26.0478 4.12066 24.962 5.20646C23.7517 6.41681 23.6441 6.54389 23.6441 6.764C23.6441 6.96388 23.7065 7.06519 24.0201 7.37492C24.2269 7.5791 24.3961 7.78466 24.3961 7.83169C24.3961 7.87872 24.3456 8.02288 24.284 8.15208L24.172 8.38703L23.5945 8.41075C23.0606 8.43269 23.0047 8.44889 22.8521 8.62628L22.6871 8.81809V10.631V12.4439L22.8869 12.6438C23.0744 12.8313 23.1204 12.8436 23.6332 12.8436H24.1797L24.2987 13.1553L24.4178 13.4671L24.031 13.8579C23.4015 14.4941 23.3886 14.464 24.962 16.0374C26.5302 17.6056 26.4726 17.5814 27.145 16.9547L27.5747 16.5541L27.8653 16.6785L28.1558 16.8027V17.3555C28.1558 17.8513 28.1731 17.9256 28.3236 18.076L28.4913 18.2439L30.3572 18.2417C31.9116 18.2399 32.2459 18.2223 32.3598 18.1365C32.4735 18.0507 32.5023 17.9291 32.5307 17.4123L32.5649 16.7913L32.8725 16.6703L33.1801 16.5494L33.6014 16.9523C33.911 17.2483 34.0737 17.3552 34.2148 17.3552C34.3731 17.3552 34.6434 17.1185 35.7587 16.0032C36.874 14.8879 37.1107 14.6177 37.1107 14.4593C37.1107 14.3185 37.0036 14.1549 36.7094 13.8459L36.308 13.4246L36.4159 13.1341L36.5237 12.8436H37.0257C37.5498 12.8436 37.8799 12.7334 37.9569 12.5329C38.0278 12.3481 38.0054 8.81269 37.9324 8.67639C37.8369 8.4979 37.5016 8.40043 36.9809 8.39961L36.5296 8.39892L36.4102 8.11469L36.2907 7.83046L36.7007 7.40356C37.0032 7.08863 37.1107 6.92621 37.1107 6.78458C37.1107 6.62619 36.874 6.3559 35.7587 5.24064C34.6434 4.12538 34.3731 3.88866 34.2148 3.88866C34.0731 3.88866 33.9106 3.99639 33.5948 4.29956L33.1668 4.71052L32.8488 4.56984L32.5307 4.42909V3.86323C32.5307 3.36004 32.5131 3.28082 32.3725 3.14861C32.218 3.00355 32.1699 3 30.3528 3H28.4913L28.3236 3.16782ZM31.5053 4.49465C31.5053 5.0262 31.6381 5.27468 31.9656 5.35548C32.0696 5.38112 32.3893 5.50765 32.676 5.63657C32.9627 5.76556 33.2491 5.87104 33.3124 5.87104C33.3757 5.87104 33.5902 5.71723 33.7889 5.52925C33.9877 5.34126 34.1786 5.18746 34.2132 5.18746C34.2478 5.18746 34.6267 5.53909 35.0552 5.96879L35.8343 6.75012L35.4813 7.13642C35.2872 7.34887 35.1283 7.58553 35.1283 7.66236C35.1283 7.7392 35.2338 8.03662 35.3628 8.32332C35.4917 8.61001 35.6175 8.92692 35.6424 9.02754C35.7221 9.35088 35.9111 9.45526 36.4673 9.48335L36.974 9.50899V10.6294V11.7498L36.5467 11.7509C36.1066 11.7519 35.8321 11.8442 35.7362 12.0233C35.6141 12.2515 35.1817 13.3686 35.1489 13.5407C35.12 13.6928 35.177 13.792 35.4757 14.1078L35.8376 14.4904L35.0569 15.2734C34.6274 15.7041 34.2478 16.0564 34.2132 16.0564C34.1786 16.0564 33.9877 15.9026 33.7889 15.7146C33.5902 15.5266 33.3838 15.3728 33.3303 15.3728C33.2769 15.3728 33.0367 15.4617 32.7965 15.5704C32.5563 15.6791 32.227 15.8076 32.0646 15.856C31.6282 15.9863 31.5053 16.1825 31.5053 16.7492V17.2185H30.3432H29.1811V16.7189C29.1811 16.4244 29.1461 16.1734 29.0957 16.1075C29.0487 16.046 28.8083 15.9206 28.5613 15.8288C28.3144 15.7369 27.985 15.5968 27.8292 15.5173C27.6734 15.4378 27.4814 15.3728 27.4025 15.3728C27.3233 15.3728 27.0908 15.5318 26.8839 15.7275L26.5089 16.0822L25.6923 15.2677L24.8757 14.4532L25.2252 14.0993C25.6408 13.6784 25.6418 13.6221 25.2502 12.6727C24.9107 11.8496 24.8513 11.7949 24.2597 11.7615L23.7809 11.7344V10.6142V9.49402H24.2214C24.7921 9.49402 24.9202 9.37959 25.2537 8.57118C25.6429 7.62791 25.6417 7.56632 25.2252 7.14455L24.8757 6.79066L25.6923 5.97617L26.5089 5.16169L26.8839 5.51633C27.0908 5.71204 27.3233 5.87104 27.4025 5.87104C27.4814 5.87104 27.6747 5.80542 27.832 5.72516C27.9893 5.64491 28.3187 5.50662 28.5641 5.41783C28.8095 5.32903 29.0487 5.20421 29.0957 5.1405C29.1457 5.07269 29.1811 4.8173 29.1811 4.525V4.02537H30.3432H31.5053V4.49465ZM29.2837 6.68484C28.4388 6.93312 28.1558 7.13655 28.1558 7.49577C28.1558 7.68643 28.4406 7.99014 28.6194 7.99014C28.6898 7.99014 28.945 7.90982 29.1865 7.81166C29.9978 7.4819 31.0045 7.52681 31.7907 7.92787C32.1877 8.13041 32.7684 8.69717 33.008 9.116C33.518 10.0073 33.5416 11.1137 33.0703 12.0374C32.8812 12.4081 32.3017 13.0169 31.9311 13.234C30.1876 14.2558 27.9263 13.3483 27.4066 11.4182C27.277 10.9371 27.3088 10.1109 27.4744 9.65432C27.6981 9.03732 27.7056 8.93321 27.541 8.72396C27.3615 8.49579 26.9951 8.46721 26.7965 8.66586C26.6169 8.84544 26.3934 9.47447 26.3036 10.0527C25.994 12.0488 27.3606 14.0731 29.3619 14.5823C29.8884 14.7163 30.8747 14.719 31.3686 14.5877C32.8304 14.1992 33.9797 13.0264 34.3501 11.5452C34.5005 10.944 34.4482 9.89883 34.2378 9.29865C34.0281 8.70059 33.4834 7.91173 33.0057 7.51416C32.5412 7.12767 31.9135 6.80577 31.3372 6.65866C30.7916 6.51935 29.8041 6.53199 29.2837 6.68484ZM13.6854 13.3909C13.4444 13.488 13.3904 13.6806 13.3904 14.4442V15.1651L13.2024 15.2066C13.0991 15.2293 12.7472 15.3222 12.4206 15.4129C12.0939 15.5037 11.8104 15.5779 11.7905 15.5779C11.7706 15.5779 11.5843 15.289 11.3765 14.9359C11.0034 14.3021 10.9115 14.2107 10.6464 14.2107C10.5109 14.2107 7.9751 15.6398 7.78848 15.8213C7.60193 16.0027 7.67774 16.3381 8.04237 16.945L8.39147 17.5261L7.7932 18.1283L7.19486 18.7306L6.59591 18.3847C5.95218 18.0129 5.62789 17.949 5.44722 18.1584C5.39048 18.2242 5.01656 18.8497 4.61633 19.5484C4.13686 20.3854 3.88866 20.8885 3.88866 21.0233C3.88866 21.2773 4.03733 21.4156 4.72604 21.8019C5.01745 21.9654 5.25582 22.1189 5.25582 22.1431C5.25582 22.1674 5.1973 22.3574 5.12573 22.5654C5.05416 22.7733 4.95969 23.1165 4.9158 23.328L4.83596 23.7125H4.0858C3.38041 23.7125 3.32552 23.7225 3.16782 23.8803L3 24.0481V25.6607V27.2733L3.16782 27.4411C3.32532 27.5987 3.38089 27.6089 4.07808 27.6089H4.82051L4.99872 28.3096C5.09675 28.6949 5.19669 29.0606 5.22075 29.1222C5.25465 29.2089 5.12443 29.3144 4.64449 29.589C3.99222 29.9623 3.88531 30.0765 3.89406 30.39C3.90185 30.6694 5.37483 33.1471 5.61162 33.2793C5.78409 33.3755 5.82107 33.3701 6.15849 33.1989C6.35754 33.0979 6.67466 32.9233 6.86319 32.8108L7.20594 32.6064L7.79833 33.2009L8.39072 33.7954L8.02001 34.4448C7.81617 34.8019 7.64917 35.1462 7.6489 35.2099C7.64856 35.2736 7.7176 35.4026 7.80216 35.4966C8.01126 35.729 10.4423 37.1107 10.642 37.1107C10.9233 37.1107 11.0478 36.9883 11.4103 36.3549C11.6849 35.8749 11.7904 35.7447 11.8771 35.7786C11.9387 35.8027 12.3044 35.9026 12.6898 36.0006L13.3904 36.1788V36.9213C13.3904 37.6185 13.4007 37.674 13.5582 37.8315L13.726 37.9993H15.3386H16.9513L17.119 37.8315C17.2768 37.6738 17.2868 37.6189 17.2868 36.9144V36.165L17.6457 36.0883C17.8431 36.046 18.2015 35.9507 18.4422 35.8765C18.6829 35.8023 18.8872 35.7497 18.8961 35.7597C18.9049 35.7696 19.0567 36.0238 19.2333 36.3246C19.41 36.6253 19.6028 36.9252 19.6617 36.9911C19.8723 37.226 20.1353 37.1367 21.4509 36.383C22.1496 35.9828 22.7751 35.6089 22.8409 35.5521C23.0552 35.3673 22.9891 35.0309 22.6134 34.3948L22.2662 33.807L22.8697 33.2065L23.4732 32.606L24.0505 32.9487C24.7754 33.379 24.9498 33.4192 25.1622 33.2048C25.3904 32.9744 26.7886 30.5277 26.7886 30.3588C26.7886 30.0854 26.6975 29.9926 26.0625 29.6188C25.7099 29.4113 25.4215 29.2293 25.4215 29.2144C25.4215 29.1995 25.496 28.9167 25.5872 28.5861C25.6784 28.2554 25.7712 27.9003 25.7936 27.7969L25.8342 27.6089H26.588C27.2971 27.6089 27.3516 27.599 27.5095 27.4411L27.6773 27.2733V25.7354C27.6773 24.7539 27.6498 24.1372 27.6014 24.0308C27.4868 23.7793 27.2586 23.7125 26.5146 23.7125H25.8369L25.765 23.422C25.7255 23.2622 25.632 22.9111 25.5573 22.6417C25.4826 22.3724 25.4215 22.1362 25.4215 22.1167C25.4215 22.0973 25.6599 21.95 25.9512 21.7891C26.5821 21.441 26.7886 21.25 26.7886 21.0149C26.7886 20.8296 25.349 18.2704 25.1626 18.1242C24.9629 17.9678 24.674 18.0356 24.0643 18.3823L23.4601 18.7258L22.8685 18.1342L22.2768 17.5426L22.6187 16.9452C22.9656 16.339 23.0348 16.0401 22.8751 15.8373C22.7469 15.6746 20.1707 14.2107 20.0126 14.2107C19.7559 14.2107 19.6221 14.346 19.2695 14.9622C19.0757 15.3008 18.9045 15.5779 18.8889 15.5779C18.8733 15.5779 18.6373 15.5181 18.3642 15.4451C18.0913 15.372 17.7372 15.2785 17.5774 15.2373L17.2868 15.1625V14.4848C17.2868 13.7407 17.2201 13.5126 16.9685 13.3979C16.7678 13.3066 13.9101 13.3004 13.6854 13.3909ZM16.2615 15.1564C16.2893 15.7872 16.3177 15.9472 16.4144 16.0178C16.4797 16.0653 16.8165 16.1591 17.163 16.2261C17.5094 16.293 18.0539 16.4361 18.373 16.5439C19.0408 16.7696 19.3415 16.7902 19.4875 16.6203C19.544 16.5545 19.7233 16.2638 19.8858 15.9742C20.0484 15.6846 20.1992 15.457 20.2209 15.4684C20.6872 15.7143 21.6722 16.2914 21.6987 16.3343C21.7183 16.366 21.577 16.6686 21.3847 17.0068C21.141 17.4354 21.0485 17.6638 21.0793 17.761C21.1418 17.958 23.0766 19.877 23.2563 19.9202C23.3553 19.944 23.6075 19.8417 24.0116 19.6139C24.3454 19.4258 24.6419 19.2863 24.6705 19.304C24.7116 19.3294 25.4569 20.5905 25.5446 20.7829C25.5558 20.8078 25.328 20.9589 25.0382 21.1189C24.1579 21.6048 24.1324 21.6708 24.4555 22.6264C24.5633 22.9455 24.7064 23.4899 24.7733 23.8364C24.8402 24.1828 24.934 24.5197 24.9816 24.585C25.0521 24.6816 25.2121 24.71 25.8429 24.7379L26.6177 24.7721L26.6368 25.6778L26.6559 26.5835H25.9399C25.0058 26.5835 24.9381 26.637 24.7729 27.5054C24.7087 27.8432 24.5668 28.3861 24.4577 28.7117C24.3486 29.0374 24.2594 29.3977 24.2594 29.5125C24.2594 29.7474 24.4247 29.8951 25.1138 30.2758C25.3394 30.4003 25.534 30.5099 25.5463 30.5192C25.5586 30.5285 25.3641 30.8896 25.114 31.3215L24.6593 32.107L24.0901 31.772C23.5126 31.432 23.214 31.3625 23.0195 31.5224C22.9623 31.5694 22.7488 31.8038 22.545 32.0434C22.3412 32.283 21.9591 32.664 21.6959 32.8901C21.1679 33.3437 21.0169 33.5602 21.0831 33.7687C21.1072 33.8448 21.2628 34.1366 21.4286 34.4171C21.5944 34.6976 21.7296 34.9493 21.729 34.9765C21.7279 35.0223 20.2852 35.8802 20.2092 35.8802C20.1903 35.8802 20.0151 35.6035 19.8198 35.2652C19.3783 34.5 19.3374 34.4853 18.4537 34.7745C18.0939 34.8923 17.5139 35.047 17.1647 35.1185C16.2788 35.2997 16.2615 35.3211 16.2615 36.2326V36.974H15.3386H14.4158V36.2638C14.4158 35.3336 14.3874 35.2974 13.5277 35.1248C13.1724 35.0536 12.5812 34.8962 12.2138 34.775C11.3471 34.4892 11.2839 34.5103 10.853 35.2308C10.6731 35.5316 10.5145 35.8076 10.5005 35.844C10.4693 35.9258 8.94688 35.0592 8.94791 34.9603C8.94832 34.9211 9.0864 34.6583 9.25477 34.3764C9.42313 34.0944 9.56121 33.7786 9.56162 33.6746C9.56224 33.5215 9.36694 33.29 8.5381 32.4612C7.70933 31.6324 7.4778 31.4371 7.32474 31.4377C7.22077 31.4381 6.90496 31.5762 6.62298 31.7446C6.341 31.9129 6.07823 32.051 6.03906 32.0514C5.94035 32.0525 5.07337 30.53 5.15533 30.4994C5.19177 30.4858 5.46739 30.3287 5.76775 30.1501C6.4892 29.7212 6.51121 29.6554 6.22438 28.7856C6.10318 28.4181 5.94576 27.8269 5.87453 27.4716C5.70199 26.6119 5.66569 26.5835 4.73554 26.5835H4.02537V25.6607V24.7379H4.76671C5.41236 24.7379 5.52351 24.7208 5.62748 24.6059C5.69358 24.5329 5.81813 24.1438 5.90659 23.7344C5.99436 23.3276 6.14536 22.7664 6.24209 22.4872C6.52618 21.6672 6.51128 21.6315 5.68305 21.1505C5.37285 20.9704 5.1191 20.811 5.1191 20.7965C5.1191 20.725 5.98021 19.2707 6.02286 19.27C6.05 19.2696 6.3017 19.4049 6.58224 19.5708C6.86271 19.7366 7.15228 19.8914 7.22569 19.9147C7.44341 19.9838 7.68239 19.8264 8.06807 19.3601C8.26808 19.1184 8.61692 18.7607 8.84325 18.5653C9.72124 17.8072 9.7304 17.7675 9.22503 16.9118L8.88768 16.3407L9.67988 15.89C10.1155 15.6422 10.4777 15.4475 10.4845 15.4574C10.4914 15.4673 10.599 15.6599 10.7236 15.8855C11.1042 16.5746 11.2519 16.74 11.4869 16.74C11.6016 16.74 11.9665 16.6492 12.2976 16.5382C12.6288 16.4273 13.1716 16.2861 13.504 16.2244C14.3787 16.0621 14.4158 16.0159 14.4158 15.0855V14.3435L15.3215 14.3625L16.2273 14.3816L16.2615 15.1564ZM14.4737 18.3788C11.7126 18.7282 9.35593 20.6072 8.43016 23.1974C8.09616 24.132 7.96792 24.9924 8.01229 26.0025C8.04961 26.8532 8.26043 27.8621 8.51199 28.3941C8.74078 28.8778 9.21936 28.9767 9.47125 28.5922C9.57208 28.4384 9.57577 28.379 9.49997 28.1319C9.05769 26.6898 8.95167 25.8759 9.0797 24.9056C9.35963 22.7843 10.6353 20.9864 12.5208 20.0558C13.4705 19.5872 13.9523 19.4668 15.0487 19.4246C15.6404 19.4018 16.1474 19.4183 16.4158 19.4691C19.679 20.0864 21.8778 22.9713 21.5853 26.2515C21.5111 27.0834 21.3632 27.6066 20.9769 28.4045C20.0195 30.382 18.202 31.669 16.0022 31.9271C15.1694 32.0248 14.2958 31.9364 13.4449 31.6681C12.4104 31.3421 11.7461 30.9377 10.8476 30.0869C10.5122 29.7694 10.1926 29.5229 10.1161 29.5229C10.0413 29.5229 9.89637 29.595 9.79404 29.683C9.40645 30.0164 9.61071 30.4274 10.5697 31.2436C11.8319 32.3179 13.3308 32.9076 14.9968 32.9852C20.6594 33.2491 24.4759 27.2024 21.7938 22.2163C20.7583 20.2915 18.9535 18.9421 16.7996 18.4826C16.2128 18.3574 15.0519 18.3056 14.4737 18.3788ZM33.351 19.1175C33.0968 19.1979 32.9408 19.4285 32.9408 19.7241C32.9408 19.99 32.9226 20.0225 32.7529 20.0587C32.3988 20.1343 31.813 20.3696 31.5526 20.5408L31.2923 20.7119L31.0546 20.5033C30.7926 20.2732 30.5266 20.2353 30.2979 20.3956C30.0061 20.5999 30.0518 21.0286 30.3989 21.3426L30.5368 21.4675L30.3747 21.7065C30.2055 21.9558 29.9509 22.581 29.8856 22.9075C29.8532 23.0693 29.8141 23.0973 29.6201 23.0973C29.2917 23.0973 29.066 23.222 28.9685 23.4573C28.818 23.8207 29.1474 24.1877 29.6263 24.19C29.821 24.1909 29.8392 24.2153 29.9601 24.6372C30.0304 24.8827 30.1881 25.2501 30.3107 25.4536C30.5323 25.8216 30.5328 25.8244 30.3972 25.9471C30.0518 26.2598 30.0067 26.6888 30.2979 26.8927C30.5266 27.053 30.7926 27.0151 31.0546 26.785L31.2923 26.5764L31.5526 26.7464C31.8387 26.9332 32.2041 27.0836 32.6503 27.1979C32.9285 27.2692 32.9408 27.2835 32.9408 27.534C32.9408 27.9003 33.1536 28.1558 33.4585 28.1558C33.7936 28.1558 33.9662 27.9587 33.9662 27.576C33.9662 27.2972 33.983 27.2661 34.1542 27.2296C34.5076 27.1541 35.0939 26.9188 35.3531 26.7484L35.6122 26.578L35.8643 26.7859C36.1743 27.0413 36.4408 27.0546 36.6694 26.8259C36.8962 26.5991 36.8809 26.3645 36.6196 26.067C36.4234 25.8435 36.411 25.8046 36.4942 25.6716C36.7116 25.3238 36.9096 24.868 36.9849 24.5416C37.0591 24.2203 37.0821 24.191 37.2613 24.191C37.585 24.191 37.9211 24.0148 37.9701 23.8195C38.0741 23.4052 37.789 23.0973 37.3011 23.0973C37.0857 23.0973 37.0707 23.0806 36.9932 22.7545C36.9174 22.435 36.7096 21.9613 36.4942 21.6167C36.411 21.4837 36.4234 21.4448 36.6196 21.2213C36.8726 20.9332 36.8936 20.7265 36.6955 20.4747C36.4973 20.2226 36.1606 20.2292 35.8677 20.4909L35.648 20.6872L35.2343 20.4641C34.8419 20.2523 34.5801 20.1545 34.1542 20.0602C33.9869 20.0231 33.9662 19.9881 33.9662 19.7419C33.9662 19.5898 33.9361 19.409 33.8993 19.3402C33.8233 19.1983 33.5047 19.0689 33.351 19.1175ZM14.6551 20.5439C11.6555 21.0265 9.68679 23.8031 10.2864 26.7056C10.629 28.3647 11.7893 29.7719 13.3599 30.4329C15.8344 31.4744 18.7431 30.3626 19.9779 27.9035C20.3175 27.2272 20.4602 26.5617 20.4588 25.6607C20.4569 24.4423 20.1455 23.4923 19.4444 22.5671C18.9425 21.9048 18.7084 21.7994 18.3556 22.0769C18.0816 22.2924 18.1125 22.5792 18.454 22.9925C19.7035 24.5045 19.772 26.5105 18.629 28.1123C17.7554 29.3365 16.0971 30.0014 14.6052 29.7256C13.2172 29.4691 12.0516 28.517 11.5181 27.2042C11.06 26.0767 11.1129 24.9557 11.6784 23.8084C12.4232 22.2971 14.1562 21.3665 15.794 21.5983C16.9157 21.757 16.9182 21.757 17.0738 21.6013C17.1544 21.5208 17.2185 21.3691 17.2185 21.2592C17.2185 20.9514 17.0243 20.7739 16.5675 20.6643C16.1339 20.5602 14.9981 20.4887 14.6551 20.5439ZM34.6028 21.3086C35.9144 21.9543 36.4259 23.4919 35.7671 24.8088C34.757 26.8277 31.817 26.6632 31.0238 24.5433C30.6238 23.474 31.0297 22.158 31.9563 21.5205C32.4859 21.156 32.8947 21.0405 33.5647 21.0657C34.0646 21.0845 34.2227 21.1215 34.6028 21.3086ZM33.0088 21.999C32.6724 22.1014 32.4042 22.2775 32.1726 22.5481C31.4734 23.365 31.7299 24.6579 32.6918 25.1655C33.0856 25.3732 33.8192 25.3744 34.2101 25.168C35.2161 24.6369 35.4678 23.3525 34.727 22.5307C34.2895 22.0455 33.579 21.8256 33.0088 21.999ZM33.7625 23.0638C34.0033 23.1883 34.1029 23.3581 34.1029 23.6441C34.1029 23.9487 33.991 24.1193 33.7156 24.2343C32.9525 24.5532 32.4297 23.4571 33.1534 23.056C33.3688 22.9366 33.5203 22.9386 33.7625 23.0638Z" fill="url(#paint0_linear_1_8278)"/>
<defs>
<linearGradient id="paint0_linear_1_8278" x1="3" y1="20.9726" x2="38" y2="20.9726" gradientUnits="userSpaceOnUse">
<stop stop-color="#00469F"/>
<stop offset="1" stop-color="#1E79D6"/>
</linearGradient>
</defs>
</svg>
