<svg width="41" height="41" viewBox="0 0 41 41" fill="none" xmlns="http://www.w3.org/2000/svg">
<path fill-rule="evenodd" clip-rule="evenodd" d="M10.8639 3.53642C10.7802 3.55262 10.6335 3.6589 10.5378 3.77266L10.3638 3.97938V10.5255V17.0716L10.5347 17.2746C10.7399 17.5185 11.0071 17.5826 11.3032 17.4588C11.758 17.2688 11.7369 17.5872 11.7369 10.9062V4.86085L20.1301 4.87829L28.5232 4.89573L28.5578 7.67627C28.5908 10.3255 28.5995 10.4739 28.7408 10.8194C29.1008 11.6989 29.6843 12.3255 30.5158 12.7255C31.2064 13.0575 31.6166 13.0954 34.5485 13.0979L37.0724 13.1L37.0544 24.0334L37.0365 34.9668L36.8832 35.2957C36.655 35.7856 36.1116 36.3228 35.6099 36.5545L35.1828 36.7518L32.1619 36.7692C30.5005 36.7788 29.0706 36.8028 28.9845 36.8225C28.7931 36.8665 28.5581 37.2334 28.5578 37.4888C28.5576 37.5995 28.6397 37.7685 28.7579 37.9007L28.9583 38.1249H32.1049C34.9643 38.1249 35.289 38.1134 35.6633 37.9987C36.9722 37.5976 37.9599 36.609 38.3496 35.3101C38.4661 34.922 38.4744 34.2498 38.4948 23.722C38.5094 16.2257 38.4933 12.4596 38.446 12.284C38.3858 12.0605 37.7375 11.4104 34.0149 7.84111C31.6167 5.54143 29.5698 3.62272 29.4664 3.5772C29.3226 3.5139 27.1316 3.49598 20.1472 3.50072C15.1251 3.50415 10.9476 3.52022 10.8639 3.53642ZM35.629 11.2932L36.0753 11.7331L33.7753 11.7129C31.6051 11.6938 31.4577 11.6844 31.1629 11.548C30.6936 11.3309 30.3434 10.9857 30.1259 10.5261L29.9308 10.1135L29.9307 7.96394L29.9306 5.81434L32.5567 8.33385C34.0011 9.71952 35.3836 11.0513 35.629 11.2932ZM15.4002 10.4906C15.082 10.619 14.9261 11.1255 15.1031 11.4561C15.2868 11.7994 15.228 11.7956 20.3909 11.7956H25.2071L25.4406 11.5622C25.6974 11.3053 25.7356 11.0841 25.5761 10.7757C25.5223 10.6716 25.3973 10.5496 25.2983 10.5045C25.0831 10.4065 15.6415 10.3932 15.4002 10.4906ZM15.4443 13.794C14.9991 13.9687 14.888 14.5453 15.2331 14.8904L15.4338 15.0911H18.0532H20.6727L20.8734 14.8904C21.2055 14.5582 21.1155 14.0244 20.6937 13.8242C20.5041 13.7342 20.0978 13.7186 18.0429 13.7223C16.6301 13.7248 15.5442 13.7548 15.4443 13.794ZM6.41861 18.8739C5.83374 18.9605 5.11464 19.3255 4.61167 19.7911C4.09484 20.2697 3.67638 21.0557 3.56859 21.7506C3.52568 22.027 3.49959 24.6148 3.5 28.5475C3.50076 35.5327 3.4963 35.4508 3.91908 36.287C4.35435 37.148 5.32768 37.8828 6.29936 38.084C6.78654 38.1848 24.5304 38.1901 25.0639 38.0896C26.355 37.8462 27.4241 36.8249 27.7674 35.507C27.9227 34.9108 27.9207 22.142 27.7652 21.4824C27.488 20.3063 26.6011 19.3607 25.3994 18.96C25.0414 18.8407 24.5481 18.8335 15.9249 18.8237C10.9217 18.8179 6.6438 18.8405 6.41861 18.8739ZM25.2666 20.3851C25.7187 20.5971 26.0907 20.9594 26.307 21.3986L26.4635 21.7163L26.4792 27.5863L26.4948 33.4564L24.835 31.74C23.9221 30.796 22.7244 29.5679 22.1736 29.0109C21.2194 28.0462 21.1591 27.9983 20.8999 27.9977C20.635 27.9972 20.5795 28.0457 18.7825 29.8514C17.7676 30.8712 16.9179 31.7044 16.8945 31.7028C16.871 31.7013 15.6778 30.2162 14.2429 28.4027C12.1772 25.792 11.595 25.0975 11.4468 25.0675C10.9071 24.9581 11.0204 24.8398 7.89223 28.7787L4.97438 32.4528L4.95426 27.1875C4.94129 23.7907 4.95873 21.837 5.00335 21.682C5.11602 21.291 5.45462 20.8199 5.78747 20.5909C6.41443 20.1595 5.94716 20.178 15.8563 20.1926L24.8844 20.2059L25.2666 20.3851ZM20.9872 22.2332C20.3743 22.3872 19.7934 22.8663 19.4913 23.467C19.2588 23.9293 19.2328 24.6219 19.4281 25.1491C19.633 25.702 20.2081 26.2783 20.7355 26.459C22.1649 26.9489 23.5935 26.005 23.6716 24.5192C23.7038 23.9045 23.5642 23.4523 23.1994 22.9907C22.7178 22.3816 21.7356 22.0452 20.9872 22.2332ZM21.8734 23.6479C22.4727 23.9322 22.4537 24.8645 21.8428 25.1544C21.3424 25.3918 20.7418 25.0491 20.6869 24.4946C20.6501 24.1235 20.7546 23.9035 21.068 23.6922C21.3431 23.5068 21.5519 23.4953 21.8734 23.6479ZM14.8309 31.3281C16.6553 33.6314 18.3756 35.8025 18.654 36.1525L19.16 36.7889L12.7881 36.7704L6.41614 36.7518L6.10033 36.5962C5.49891 36.2999 5.02635 35.6658 4.90415 34.991C4.85931 34.7436 4.89577 34.6945 8.03051 30.7776L11.2022 26.8145L11.3581 26.9773C11.4438 27.0668 13.0066 29.0247 14.8309 31.3281ZM24.8313 33.6853L26.4259 35.3241L26.2513 35.6745C26.049 36.0802 25.7089 36.4021 25.2656 36.6072C24.9734 36.7424 24.8193 36.7531 22.8934 36.7718L20.8338 36.7918L19.3577 34.8927C18.5458 33.8483 17.8561 32.9496 17.825 32.8958C17.7835 32.8242 18.1879 32.3743 19.3354 31.2159L20.9024 29.6337L22.0696 30.8401C22.7115 31.5035 23.9543 32.7839 24.8313 33.6853Z" fill="url(#paint0_linear_37_15494)"/>
<defs>
<linearGradient id="paint0_linear_37_15494" x1="3.5" y1="21.2996" x2="38.5" y2="21.2996" gradientUnits="userSpaceOnUse">
<stop stop-color="#00469F"/>
<stop offset="1" stop-color="#1E79D6"/>
</linearGradient>
</defs>
</svg>
