<svg width="40" height="40" viewBox="0 0 40 40" fill="none" xmlns="http://www.w3.org/2000/svg">
<path fill-rule="evenodd" clip-rule="evenodd" d="M10.0449 6.08899C9.59503 6.21034 9.1691 6.48008 8.79348 6.88171C8.20616 7.50955 8.17262 7.6463 7.86106 10.6839C7.74525 11.8132 7.63533 12.8065 7.61678 12.8912C7.58372 13.0428 7.56668 13.0452 6.52694 13.0452C5.94605 13.0452 5.30754 13.0798 5.10802 13.1221C4.16082 13.3229 3.45338 13.9538 3.14319 14.8745C3.0011 15.2963 3 15.362 3 23.4052C3 31.3267 3.00315 31.5207 3.13723 31.9458C3.39691 32.7692 4.02324 33.3925 4.848 33.6482C5.2883 33.7848 5.42615 33.786 18.1604 33.7679L31.028 33.7496L31.4866 33.5324C32.2686 33.162 32.7945 32.5037 32.9702 31.6758C33.0125 31.4763 33.0471 30.7208 33.0471 29.9968V28.6804L33.9205 28.6826C34.769 28.6847 34.8067 28.6785 35.2452 28.4629C36.0882 28.0486 36.6115 27.2976 36.7385 26.3199C36.7749 26.0395 37.0898 22.3834 37.4382 18.195C38.1254 9.93276 38.1141 10.2314 37.7683 9.51723C37.4258 8.80972 36.5708 8.18708 35.807 8.089C35.2035 8.01152 10.901 5.99535 10.627 6.00001C10.4789 6.00261 10.217 6.04265 10.0449 6.08899ZM23.3964 8.42992C30.0407 8.98008 35.5928 9.45953 35.7344 9.49526C36.0819 9.58301 36.4363 9.90846 36.5724 10.2648C36.6803 10.5472 36.6602 10.8468 36.0279 18.4236C35.6668 22.7497 35.3423 26.3752 35.3069 26.4804C35.1958 26.8097 34.974 27.0591 34.6546 27.2137C34.377 27.348 34.2826 27.358 33.6986 27.3142L33.0507 27.2656L33.0318 21.1992L33.0129 15.1328L32.848 14.7221C32.6202 14.1546 31.9377 13.4721 31.3702 13.2443L30.9596 13.0794L19.9913 13.0613C9.95088 13.0447 9.02311 13.0338 9.02311 12.9327C9.02311 12.872 9.13221 11.806 9.26554 10.564C9.52762 8.1224 9.57553 7.92706 9.98263 7.6372C10.2851 7.4218 10.5134 7.36506 10.9396 7.39935C11.1466 7.41606 16.7522 7.87977 23.3964 8.42992ZM30.7006 14.4934C31.1196 14.5989 31.4934 14.9727 31.5989 15.3917C31.6426 15.565 31.6782 16.0164 31.6782 16.3951V17.0834H18.0236H4.36889L4.37039 16.2792C4.37156 15.6474 4.39887 15.4157 4.49756 15.1984C4.64205 14.8802 4.98106 14.5691 5.24683 14.5107C5.34744 14.4886 5.46058 14.4603 5.49822 14.4477C5.53587 14.4352 11.1509 14.4224 17.9761 14.4195C27.171 14.4155 30.4672 14.4346 30.7006 14.4934ZM31.644 19.8896V21.2928L18.0064 21.31L4.36889 21.3273V19.8896V18.452L18.0064 18.4693L31.644 18.4865V19.8896ZM31.6635 27.0934C31.6458 31.0948 31.6335 31.5103 31.5267 31.7053C31.3675 31.996 31.0424 32.2582 30.735 32.3435C30.5642 32.391 26.3645 32.4144 17.97 32.4146C6.83248 32.4149 5.43176 32.4033 5.2061 32.309C4.86785 32.1678 4.65115 31.9592 4.49825 31.6279C4.3797 31.3709 4.37183 31.0875 4.37039 27.025L4.36889 22.6959H18.026H31.683L31.6635 27.0934ZM22.0499 24.7284C21.9681 24.7443 21.8218 24.8367 21.7248 24.9337L21.5484 25.1101V27.5519V29.9938L21.7404 30.1777L21.9324 30.3616H25.4751C27.7741 30.3616 29.0641 30.3369 29.1495 30.2911C29.4691 30.1202 29.4881 29.9659 29.487 27.5417C29.4859 25.035 29.4812 25.0037 29.0764 24.8007C28.8582 24.6912 28.5532 24.6818 25.5182 24.6902C23.6925 24.6953 22.1317 24.7124 22.0499 24.7284ZM28.1191 27.5554V28.9928H25.5182H22.9173V27.5554V26.1181H25.5182H28.1191V27.5554Z" fill="url(#paint0_linear_1_8284)"/>
<defs>
<linearGradient id="paint0_linear_1_8284" x1="3" y1="20.2634" x2="38" y2="20.2634" gradientUnits="userSpaceOnUse">
<stop stop-color="#00469F"/>
<stop offset="1" stop-color="#1E79D6"/>
</linearGradient>
</defs>
</svg>
