<svg width="41" height="40" viewBox="0 0 41 40" fill="none" xmlns="http://www.w3.org/2000/svg">
<path fill-rule="evenodd" clip-rule="evenodd" d="M10.4298 6.1054C9.07997 6.33516 7.98791 6.75449 6.88819 7.4653C4.56025 8.96991 2.9993 11.4268 2.60398 14.2084C2.37681 15.8068 2.54792 17.0204 3.2359 18.6914L3.38035 19.0422L3.11729 19.0842C2.81125 19.1332 2.5 19.452 2.5 19.7164C2.5 19.9394 2.67343 20.2671 2.83804 20.3551C2.91037 20.3939 3.23194 20.4255 3.55268 20.4255C4.08801 20.4255 4.14243 20.4381 4.21626 20.5794C4.38456 20.9013 5.28049 22.2005 5.85438 22.9549C7.67044 25.342 10.6123 28.3721 13.9399 31.2828C15.2862 32.4604 16.871 33.7817 17.5455 34.2888C18.1585 34.7497 18.2083 34.7348 19.4946 33.7046C20.8681 32.6046 22.321 31.3552 23.74 30.0538C24.6469 29.2222 24.8558 28.9958 24.8913 28.8063C24.9699 28.3874 24.6581 28.0177 24.2239 28.0151C23.9399 28.0134 23.9136 28.0328 22.7005 29.1438C21.611 30.1415 20.5148 31.0896 19.385 32.0111C18.8399 32.4558 18.3408 32.8652 18.2759 32.9208C18.169 33.0125 18.1111 32.9845 17.6606 32.6239C13.7936 29.5279 9.75783 25.6105 7.34546 22.6112C6.83562 21.9773 5.7813 20.5271 5.7813 20.4596C5.7813 20.4409 7.21003 20.4255 8.95623 20.4255H12.1312L12.3056 20.2717C12.4498 20.1445 12.581 19.7644 13.0667 18.0671C13.3894 16.9392 13.6749 15.9939 13.7012 15.9666C13.7275 15.9393 14.4865 18.2886 15.3878 21.1873C17.178 26.9445 17.141 26.8514 17.6396 26.8514C17.9583 26.8514 18.1277 26.7598 18.2515 26.5204C18.3056 26.4157 18.7524 25.0441 19.2443 23.4724C19.7363 21.9006 20.1556 20.5875 20.1761 20.5543C20.1966 20.521 20.9365 20.4939 21.8204 20.4939C22.7918 20.4939 23.4793 20.4661 23.5588 20.4235C23.7246 20.3348 23.8968 20.0073 23.8968 19.7806C23.8968 19.6853 23.8071 19.5069 23.6973 19.3841L23.4979 19.1609H21.4358H19.3738L19.1914 19.3661C19.0526 19.5223 18.8539 20.0733 18.3596 21.6724C18.0024 22.8281 17.6948 23.7735 17.676 23.7735C17.6572 23.7734 16.9232 21.459 16.0447 18.6302C15.1663 15.8014 14.3923 13.3584 14.3246 13.2013C14.1578 12.8139 13.8584 12.6555 13.4974 12.7637C13.3545 12.8065 13.1952 12.902 13.1434 12.9759C13.0917 13.0498 12.6676 14.4483 12.201 16.0837L11.3527 19.0572L8.1316 19.0578L4.91046 19.0583L4.72199 18.6311C3.97782 16.9443 3.78559 15.9873 3.93454 14.711C4.11782 13.1409 4.62464 11.8333 5.53514 10.5816C6.1821 9.69221 7.39427 8.67705 8.41318 8.17132C10.1813 7.29364 12.4251 7.14605 14.3266 7.78235C15.5601 8.19511 16.3462 8.68827 17.5216 9.78689C17.8275 10.0728 17.92 10.1218 18.1545 10.1218C18.3891 10.1218 18.4816 10.0728 18.7875 9.78689C19.9625 8.68874 20.7491 8.19505 21.9809 7.78283C23.0765 7.41628 24.3503 7.2905 25.4372 7.44171C28.1077 7.81312 30.3519 9.42991 31.5478 11.8441C31.8197 12.393 32.2368 13.568 32.2368 13.7852C32.2368 13.8091 31.8599 13.8328 31.3994 13.8377C29.7782 13.8552 28.4135 14.4258 27.2586 15.5694C25.315 17.4938 24.9183 20.4041 26.2705 22.8182C26.6544 23.5035 27.668 24.5643 28.2844 24.9258C29.339 25.5441 30.3411 25.826 31.4848 25.826C33.1532 25.826 34.5167 25.2543 35.7237 24.0487C36.9034 22.8701 37.4984 21.4473 37.5 19.8007C37.5023 17.5785 36.1774 15.4601 34.1509 14.445C33.9441 14.3414 33.7655 14.2484 33.7541 14.2383C33.7426 14.2283 33.6772 13.947 33.6089 13.6134C32.9944 10.6143 31.0479 8.13209 28.3054 6.85046C25.0868 5.34647 21.2359 5.8673 18.5134 8.17488L18.1545 8.47908L17.7956 8.17488C16.5221 7.0954 14.9475 6.37447 13.2688 6.10219C12.5318 5.98263 11.1419 5.9842 10.4298 6.1054ZM32.7181 15.3771C33.9462 15.6958 35.0407 16.5997 35.6109 17.7661C36.1765 18.9228 36.2691 20.0457 35.8963 21.2258C35.2891 23.1479 33.5023 24.4564 31.4848 24.4564C29.4673 24.4564 27.6806 23.1479 27.0733 21.2258C26.5534 19.58 26.9792 17.8227 28.1946 16.5974C29.4197 15.3626 31.0097 14.9336 32.7181 15.3771ZM31.1259 16.7396C30.863 16.8927 30.8012 17.1643 30.8012 18.1662V19.1267H29.8762C28.7926 19.1267 28.5239 19.2029 28.3782 19.5515C28.2583 19.8385 28.3098 20.103 28.5281 20.3214C28.6976 20.4909 28.7191 20.4939 29.7509 20.4939H30.8012V21.5182V22.5425L30.9993 22.7642C31.1633 22.9477 31.2469 22.986 31.4848 22.986C31.7227 22.986 31.8064 22.9477 31.9703 22.7642L32.1684 22.5425V21.5182V20.4939H33.2187C34.2506 20.4939 34.272 20.4909 34.4416 20.3214C34.6599 20.103 34.7114 19.8385 34.5915 19.5515C34.4458 19.2029 34.1771 19.1267 33.0935 19.1267H32.1684V18.1662C32.1684 17.1516 32.105 16.883 31.8304 16.7361C31.6636 16.6469 31.2819 16.6487 31.1259 16.7396ZM25.9058 26.1639C25.6648 26.2656 25.4691 26.5736 25.4691 26.8513C25.4691 27.1485 25.7048 27.4304 26.0005 27.487C26.4085 27.565 26.8363 27.2065 26.8363 26.7866C26.8363 26.3709 26.2868 26.0031 25.9058 26.1639Z" fill="white"/>
</svg>
