<svg width="41" height="40" viewBox="0 0 41 40" fill="none" xmlns="http://www.w3.org/2000/svg">
<path fill-rule="evenodd" clip-rule="evenodd" d="M10.5449 6.08899C10.095 6.21034 9.6691 6.48008 9.29348 6.88171C8.70616 7.50955 8.67262 7.6463 8.36106 10.6839C8.24525 11.8132 8.13533 12.8065 8.11678 12.8912C8.08372 13.0428 8.06668 13.0452 7.02694 13.0452C6.44605 13.0452 5.80754 13.0798 5.60802 13.1221C4.66082 13.3229 3.95338 13.9538 3.64319 14.8745C3.5011 15.2963 3.5 15.362 3.5 23.4052C3.5 31.3267 3.50315 31.5207 3.63723 31.9458C3.89691 32.7692 4.52324 33.3925 5.348 33.6482C5.7883 33.7848 5.92615 33.786 18.6604 33.7679L31.528 33.7496L31.9866 33.5324C32.7686 33.162 33.2945 32.5037 33.4702 31.6758C33.5125 31.4763 33.5471 30.7208 33.5471 29.9968V28.6804L34.4205 28.6826C35.269 28.6847 35.3067 28.6785 35.7452 28.4629C36.5882 28.0486 37.1115 27.2976 37.2385 26.3199C37.2749 26.0395 37.5898 22.3834 37.9382 18.195C38.6254 9.93276 38.6141 10.2314 38.2683 9.51723C37.9258 8.80972 37.0708 8.18708 36.307 8.089C35.7035 8.01152 11.401 5.99535 11.127 6.00001C10.9789 6.00261 10.717 6.04265 10.5449 6.08899ZM23.8964 8.42992C30.5407 8.98008 36.0928 9.45953 36.2344 9.49526C36.5819 9.58301 36.9363 9.90846 37.0724 10.2648C37.1803 10.5472 37.1602 10.8468 36.5279 18.4236C36.1668 22.7497 35.8423 26.3752 35.8069 26.4804C35.6958 26.8097 35.474 27.0591 35.1546 27.2137C34.877 27.348 34.7826 27.358 34.1986 27.3142L33.5507 27.2656L33.5318 21.1992L33.5129 15.1328L33.348 14.7221C33.1202 14.1546 32.4377 13.4721 31.8702 13.2443L31.4596 13.0794L20.4913 13.0613C10.4509 13.0447 9.52311 13.0338 9.52311 12.9327C9.52311 12.872 9.63221 11.806 9.76554 10.564C10.0276 8.1224 10.0755 7.92706 10.4826 7.6372C10.7851 7.4218 11.0134 7.36506 11.4396 7.39935C11.6466 7.41606 17.2522 7.87977 23.8964 8.42992ZM31.2006 14.4934C31.6196 14.5989 31.9934 14.9727 32.0989 15.3917C32.1426 15.565 32.1782 16.0164 32.1782 16.3951V17.0834H18.5236H4.86889L4.87039 16.2792C4.87156 15.6474 4.89887 15.4157 4.99756 15.1984C5.14205 14.8802 5.48106 14.5691 5.74683 14.5107C5.84744 14.4886 5.96058 14.4603 5.99822 14.4477C6.03587 14.4352 11.6509 14.4224 18.4761 14.4195C27.671 14.4155 30.9672 14.4346 31.2006 14.4934ZM32.144 19.8896V21.2928L18.5064 21.31L4.86889 21.3273V19.8896V18.452L18.5064 18.4693L32.144 18.4865V19.8896ZM32.1635 27.0934C32.1458 31.0948 32.1335 31.5103 32.0267 31.7053C31.8675 31.996 31.5424 32.2582 31.235 32.3435C31.0642 32.391 26.8645 32.4144 18.47 32.4146C7.33248 32.4149 5.93176 32.4033 5.7061 32.309C5.36785 32.1678 5.15115 31.9592 4.99825 31.6279C4.8797 31.3709 4.87183 31.0875 4.87039 27.025L4.86889 22.6959H18.526H32.183L32.1635 27.0934ZM22.5499 24.7284C22.4681 24.7443 22.3218 24.8367 22.2248 24.9337L22.0484 25.1101V27.5519V29.9938L22.2404 30.1777L22.4324 30.3616H25.9751C28.2741 30.3616 29.5641 30.3369 29.6495 30.2911C29.9691 30.1202 29.9881 29.9659 29.987 27.5417C29.9859 25.035 29.9812 25.0037 29.5764 24.8007C29.3582 24.6912 29.0532 24.6818 26.0182 24.6902C24.1925 24.6953 22.6317 24.7124 22.5499 24.7284ZM28.6191 27.5554V28.9928H26.0182H23.4173V27.5554V26.1181H26.0182H28.6191V27.5554Z" fill="white"/>
</svg>
