<svg width="40" height="40" viewBox="0 0 40 40" fill="none" xmlns="http://www.w3.org/2000/svg">
<path fill-rule="evenodd" clip-rule="evenodd" d="M16.0462 5.03717C15.7214 5.14372 15.4643 5.30885 15.2158 5.57053C14.8783 5.9259 14.7455 6.21222 14.6902 6.70322L14.6437 7.1171L12.336 8.61836L10.0282 10.1196L9.80372 9.94827C9.47853 9.70027 9.2265 9.62219 8.75089 9.62219C8.04269 9.62219 7.49694 9.93574 7.15102 10.5414C7.03961 10.7365 6.92827 11.0309 6.90357 11.1956C6.84321 11.5978 6.97857 12.1623 7.21282 12.4857L7.40449 12.7503L6.51625 14.0511L5.62793 15.3519L5.03764 15.3247C4.27742 15.2897 3.81872 15.4497 3.28728 15.9355C2.83009 16.3532 2.56683 16.8632 2.51537 17.4305C2.48184 17.8008 2.49525 17.8661 2.63608 18.016C2.84213 18.2353 3.17396 18.242 3.3657 18.0308C3.44673 17.9415 3.52371 17.733 3.54897 17.5346C3.66516 16.6197 4.63717 16.0803 5.47382 16.4664C6.32354 16.8586 6.51768 17.93 5.86368 18.6185C5.51632 18.9843 5.07541 19.116 4.57462 19.0038C4.05331 18.8869 3.70656 19.1828 3.82262 19.6452C3.87128 19.8392 4.17094 20.0317 4.42681 20.0334C4.51338 20.0341 4.62383 20.0596 4.67228 20.0904C4.7637 20.1484 5.50735 22.1734 5.50776 22.3656C5.5079 22.4256 5.44843 22.5287 5.37562 22.5946C5.12844 22.8183 4.95038 23.3086 4.94772 23.7729C4.9419 24.783 5.78224 25.6438 6.77403 25.6438C7.15834 25.6438 7.67035 25.4457 7.97871 25.1777L8.27953 24.9161L9.59685 25.1572L10.9142 25.3983V25.6151C10.9142 25.9118 11.0859 26.3738 11.3009 26.6557C11.5001 26.9169 12.0401 27.2862 12.2229 27.2862C12.3088 27.2862 12.3722 27.3949 12.4529 27.6797C12.5142 27.8961 12.5803 28.1281 12.6 28.1952C12.6569 28.3901 12.9094 28.5866 13.0998 28.5842C13.5079 28.5792 13.6973 28.2116 13.547 27.7162C13.4119 27.271 13.4129 27.2668 13.6928 27.116C14.4786 26.6929 14.8314 25.5679 14.4366 24.744L14.317 24.4944L15.1923 23.3412C15.6737 22.7069 16.0914 22.1611 16.1204 22.1281C16.1503 22.0942 16.3464 22.1104 16.5714 22.1653L16.9696 22.2625L17.2155 23.5398L17.4615 24.8172L17.0659 25.2239C16.7331 25.5662 16.6467 25.7087 16.5207 26.1233C16.2541 27.0014 16.457 27.902 17.0568 28.5018L17.3283 28.7732L16.6458 29.8945C16.2705 30.5112 15.9416 31.0393 15.915 31.0681C15.8884 31.0969 15.7608 31.067 15.6315 31.0015C15.4979 30.934 15.1875 30.8714 14.9128 30.8568L14.4291 30.831L14.2969 30.4108C14.1998 30.1022 14.116 29.9638 13.9812 29.8896C13.7431 29.7585 13.4554 29.8527 13.3117 30.1088C13.2161 30.2791 13.2197 30.3424 13.3545 30.8505L13.5019 31.4061L13.3034 31.6899C12.8002 32.4094 12.9621 33.4892 13.6632 34.0894C13.9628 34.3459 14.4737 34.54 14.849 34.54C15.5073 34.54 16.2369 34.0725 16.5289 33.4636C16.6777 33.1534 16.7118 32.7375 16.644 32.0593C16.6345 31.9639 16.9397 31.398 17.4466 30.5709L18.2646 29.2365L18.8183 29.2356C19.3045 29.2349 19.4275 29.2074 19.8271 29.0107C20.2391 28.8079 20.8368 28.2674 20.8368 28.0977C20.8368 28.0008 21.022 28.0272 22.2739 28.3028L23.4714 28.5666L23.5243 28.933C23.6267 29.6438 24.1817 30.3303 24.7905 30.4994C26.0329 30.8445 27.1984 29.9927 27.2003 28.7382C27.2007 28.5018 27.1542 28.1962 27.097 28.0593L26.9929 27.8103L27.5589 27.2232L28.1248 26.6361L28.7065 26.636C29.3431 26.6359 29.5349 26.5664 29.9824 26.1734C30.3504 25.8503 30.5526 25.3682 30.5535 24.8122L30.5542 24.357L31.324 24.1786C31.7475 24.0805 32.1111 24.0005 32.1321 24.0008C32.1532 24.0012 32.3283 24.1537 32.5213 24.3397C33.0521 24.8513 33.6569 24.9987 34.3639 24.7888C35.1115 24.5668 35.6364 23.8307 35.6302 23.013C35.6265 22.5192 35.4947 22.1764 35.1706 21.8176L34.9314 21.5529L35.0353 20.8615C35.0924 20.4813 35.1391 20.158 35.1391 20.1433C35.1391 20.1285 35.2853 20.0952 35.4641 20.0694C36.2433 19.9569 36.9751 19.4071 37.3173 18.6772C37.4729 18.3453 37.5 18.196 37.5 17.6715C37.5 17.1358 37.4751 17.0049 37.3088 16.6662C37.0596 16.1587 36.4936 15.6402 35.9772 15.4464C35.6595 15.3272 35.4786 15.3042 35.0364 15.3272C34.7353 15.3428 34.4427 15.3767 34.3861 15.4024C34.3087 15.4376 34.1229 15.1928 33.6334 14.4102C33.276 13.8389 32.9727 13.3442 32.9595 13.3109C32.9463 13.2777 33.0036 13.0922 33.0868 12.8986C33.2663 12.4814 33.2862 11.8305 33.1308 11.4585C32.9735 11.0822 32.5089 10.6223 32.1145 10.4526C31.7719 10.3052 31.4765 10.2936 30.7142 10.3975C30.6085 10.412 30.1857 10.1059 29.2299 9.3228L27.8935 8.22789L27.8894 7.74517C27.8798 6.61446 26.9953 5.78596 25.9034 5.88498C25.4088 5.9298 25.0466 6.11539 24.6823 6.51065L24.3938 6.82366L23.6885 6.78048L22.9833 6.7373L22.8339 6.92727C22.7517 7.03176 22.6845 7.19141 22.6845 7.28216C22.6845 7.52413 22.9743 7.78294 23.246 7.78369C23.37 7.78397 23.6301 7.80333 23.824 7.8266L24.1766 7.86896L24.3133 8.28592C24.472 8.77007 24.5192 8.66996 23.7261 9.53069L23.2296 10.0695L23.0084 9.93568C22.8306 9.8281 22.6728 9.8036 22.2054 9.81092C21.8855 9.81592 21.5598 9.83132 21.4816 9.84514C21.3713 9.86464 21.1033 9.6122 20.284 8.7167C19.7036 8.08226 19.2173 7.53241 19.2035 7.49484C19.1896 7.45727 19.2358 7.44297 19.3061 7.46309C19.3764 7.48314 19.7806 7.52057 20.2044 7.54617C21.06 7.59797 21.2594 7.53816 21.3431 7.20476C21.3958 6.99495 21.2336 6.64512 21.06 6.59387C20.9937 6.57429 20.5083 6.52523 19.9814 6.48479C18.3347 6.35839 18.3219 6.35593 18.2481 6.15043C18.024 5.5266 17.3473 5.04532 16.6375 5.00487C16.4066 4.99167 16.1405 5.00624 16.0462 5.03717ZM16.8186 6.09705C17.2767 6.29092 17.4572 6.74277 17.2505 7.17828C17.0093 7.68652 16.3655 7.79149 15.9623 7.38829C15.5654 6.99132 15.6891 6.32821 16.2019 6.10533C16.4818 5.98359 16.5485 5.9827 16.8186 6.09705ZM26.4067 6.9972C26.8138 7.19039 26.9747 7.70267 26.7592 8.11942C26.6503 8.32992 26.285 8.53583 26.0203 8.53583C25.7541 8.53583 25.3977 8.25382 25.3038 7.96873C25.1877 7.61679 25.3113 7.25766 25.6201 7.04997C25.8914 6.86732 26.1031 6.85315 26.4067 6.9972ZM19.131 8.99775C19.7063 9.62821 20.2674 10.2414 20.3778 10.3604L20.5784 10.577L20.4454 10.9763L20.3123 11.3758L19.1281 11.6983L17.9438 12.0209L17.6282 11.7401C17.1083 11.2775 16.6618 11.1052 15.9781 11.1035C15.4712 11.1022 15.3437 11.1279 14.9859 11.3035C14.76 11.4143 14.4278 11.6562 14.2476 11.8411L13.9199 12.1772L12.2973 11.7879C11.4048 11.5737 10.6489 11.3738 10.6175 11.3437C10.5861 11.3136 10.5707 11.2195 10.5833 11.1348C10.6009 11.0167 11.13 10.6399 12.8498 9.52105L15.0934 8.06146L15.4005 8.29584C15.7631 8.57258 16.0785 8.6718 16.5977 8.67228C17.0602 8.67276 17.5932 8.43017 17.8747 8.09109C17.9795 7.96476 18.0698 7.85917 18.0751 7.85644C18.0805 7.8537 18.5557 8.36728 19.131 8.99775ZM28.6246 10.1672C29.5238 10.9177 29.7972 11.1819 29.761 11.2656C29.5796 11.6843 29.5171 12.1308 29.593 12.4653C29.6363 12.6565 29.6779 12.8687 29.6853 12.9369C29.6954 13.03 29.4691 13.1898 28.779 13.5771L27.8593 14.0935L27.5473 13.9415C27.1374 13.7419 26.5757 13.6977 26.1458 13.831L25.8092 13.9355L25.3589 13.5334C25.1111 13.3121 24.6967 12.9162 24.4378 12.6535L23.9672 12.1759L24.0153 11.8546C24.0435 11.6666 24.0301 11.3942 23.983 11.1979L23.9026 10.8625L24.572 10.1397C25.1833 9.47951 25.2566 9.42168 25.4171 9.47246C25.5137 9.50305 25.8263 9.52803 26.1117 9.52796C26.5736 9.52775 26.6676 9.50449 26.9671 9.31589C27.1522 9.19935 27.3344 9.12092 27.3721 9.14159C27.4097 9.16226 27.9734 9.62383 28.6246 10.1672ZM9.18852 10.764C9.39956 10.9119 9.54553 11.2193 9.54553 11.516C9.54553 11.8867 9.18455 12.2312 8.7962 12.2312C8.31998 12.2312 8.06938 12.0376 7.93867 11.5689C7.88187 11.3654 8.05213 10.9852 8.28049 10.8056C8.507 10.6274 8.96358 10.6064 9.18852 10.764ZM22.6787 10.9708C23.052 11.2849 23.0837 11.8214 22.7488 12.1563C22.3897 12.5155 21.8561 12.4696 21.5259 12.0513C21.2451 11.6955 21.4147 11.0284 21.8291 10.8588C22.1133 10.7424 22.4619 10.7884 22.6787 10.9708ZM31.7852 11.4438C32.3911 11.7572 32.3263 12.617 31.676 12.8887C31.3781 13.0131 31.072 12.9438 30.8238 12.6955C30.6571 12.529 30.6226 12.438 30.6226 12.1667C30.6226 11.5145 31.2125 11.1477 31.7852 11.4438ZM16.3423 12.1677C16.9406 12.3338 17.3993 13.0185 17.3291 13.6409C17.1949 14.8315 15.5934 15.2537 14.8908 14.2837C14.3213 13.4976 14.7292 12.3849 15.6702 12.1579C15.9688 12.0858 16.0518 12.087 16.3423 12.1677ZM13.5927 13.6492C13.6234 13.9904 13.6988 14.2634 13.8412 14.5483L14.0456 14.9574L12.7152 16.1943C11.3909 17.4256 11.384 17.4308 11.1985 17.3348C11.096 17.2818 10.8992 17.2173 10.7612 17.1914C10.4712 17.137 10.5545 17.4167 10.037 14.7584L9.70976 13.0771L10.0509 12.736L10.392 12.3948L11.9704 12.777L13.5488 13.1592L13.5927 13.6492ZM20.7342 12.7247C20.8471 12.8787 21.1088 13.1 21.3158 13.2166C21.6378 13.3981 21.7618 13.4287 22.1741 13.4287C22.5683 13.4287 22.7231 13.3939 23.0251 13.2372L23.3943 13.0456L24.2297 13.8791L25.0652 14.7125L24.9698 14.9409C24.9173 15.0666 24.8743 15.3674 24.8743 15.6094C24.8743 15.964 24.9134 16.1237 25.0754 16.4318L25.2765 16.8142L24.5793 18.0101C23.9685 19.0577 23.8651 19.1999 23.7452 19.1573C23.6111 19.1096 22.6715 19.107 22.3515 19.1535C22.2158 19.1732 21.8558 18.8182 20.1213 16.9541L18.0529 14.7311L18.191 14.4221C18.2791 14.2247 18.3401 13.9088 18.3597 13.5479L18.3905 12.9827L18.7411 12.8841C19.837 12.5759 20.3349 12.4463 20.4262 12.4456C20.4827 12.4451 20.6212 12.5708 20.7342 12.7247ZM8.69799 13.3487C8.70244 13.3551 8.88228 14.2687 9.09757 15.379L9.489 17.3978L9.14369 17.7539C8.57427 18.3412 8.44233 19.1401 8.79927 19.8398C8.96077 20.1565 9.02818 20.0445 7.98124 21.2001L7.27228 21.9827L6.8829 21.9602L6.49346 21.9378L6.17347 21.0292C5.99753 20.5295 5.83644 20.0762 5.81557 20.0218C5.79087 19.9575 5.85615 19.8847 6.00212 19.8137C7.23704 19.213 7.67986 17.4228 6.86135 16.3396C6.73803 16.1765 6.60979 16.0065 6.57633 15.9619C6.53582 15.908 6.7962 15.4716 7.35604 14.6549C8.41188 13.1147 8.30492 13.2406 8.51384 13.293C8.61061 13.3173 8.69348 13.3424 8.69799 13.3487ZM31.0785 13.9576C31.3398 14.0157 31.5182 14.0164 31.7628 13.9604C31.9448 13.9188 32.0962 13.8899 32.0993 13.8962C32.1025 13.9025 32.3995 14.3814 32.7594 14.9603L33.4137 16.0129L33.1821 16.3163C32.4648 17.256 32.6645 18.7563 33.609 19.5246C33.8025 19.682 33.9994 19.8236 34.0466 19.8393C34.1149 19.8621 34.113 19.9994 34.037 20.5147L33.9415 21.1615L33.6336 21.202C33.4642 21.2243 33.2464 21.2647 33.1495 21.292C32.9867 21.3377 32.7989 21.157 30.6643 18.9005C28.9374 17.0752 28.3671 16.4313 28.4023 16.3471C28.5206 16.0646 28.5792 15.6131 28.5355 15.3215C28.5092 15.1462 28.487 14.9884 28.4862 14.9711C28.4855 14.9537 28.9273 14.6853 29.4681 14.3746C30.1145 14.0032 30.4984 13.8215 30.5884 13.8442C30.6636 13.8633 30.8843 13.9143 31.0785 13.9576ZM27.1395 14.9194C27.4705 15.1417 27.5979 15.5291 27.4532 15.8737C27.3371 16.1502 26.9918 16.4048 26.7323 16.4052C26.4742 16.4056 26.1082 16.1975 26.0004 15.9891C25.7875 15.5775 25.9436 15.066 26.3421 14.8693C26.6366 14.7239 26.8705 14.7386 27.1395 14.9194ZM19.4305 17.7345C20.5428 18.936 21.4527 19.9643 21.4527 20.0197C21.4527 20.1026 21.3706 20.1132 20.9908 20.0791C20.7368 20.0563 20.1255 20.0015 19.6325 19.9573L18.7361 19.8769L18.6574 19.659C18.4811 19.1715 17.6961 18.5302 17.2725 18.5276C17.1798 18.527 17.1508 18.32 17.074 17.1135C16.9875 15.7529 16.9889 15.6966 17.1128 15.606C17.1836 15.5543 17.279 15.5205 17.3249 15.531C17.3708 15.5415 18.3184 16.5331 19.4305 17.7345ZM15.1354 15.7278C15.2413 15.769 15.4666 15.8232 15.636 15.8482L15.9439 15.8936L16.023 16.9537C16.1524 18.6873 16.155 18.6625 15.8268 18.9033C15.1994 19.3634 14.9451 20.2368 15.2194 20.989L15.3692 21.3999L14.459 22.6015C13.7034 23.599 13.5255 23.7964 13.4119 23.7637C13.3367 23.742 13.1349 23.706 12.9636 23.6839L12.6521 23.6434L12.1274 22.0663L11.6028 20.4891L11.8305 20.237C12.2618 19.7596 12.3395 19.3457 12.2003 18.2682C12.1842 18.1435 12.4405 17.8669 13.4804 16.887C14.1955 16.2131 14.817 15.6597 14.8617 15.6573C14.9063 15.6547 15.0295 15.6865 15.1354 15.7278ZM35.7336 16.4702C36.2953 16.7252 36.6241 17.4581 36.445 18.0558C36.3501 18.3728 36.0249 18.7635 35.7277 18.9179C35.4555 19.0592 34.8249 19.0606 34.5574 18.9205C34.1067 18.6842 33.7705 18.1507 33.7705 17.6715C33.7705 16.6995 34.8218 16.0562 35.7336 16.4702ZM29.9306 19.6322C31.603 21.4024 32.1907 22.0666 32.156 22.1471C32.1301 22.2072 32.0673 22.4084 32.0164 22.5942C31.9656 22.78 31.8957 22.9494 31.8612 22.9706C31.8266 22.9918 31.3951 23.0988 30.9021 23.2083L30.0057 23.4075L29.6127 23.2083C29.0946 22.9458 28.3559 22.928 27.9017 23.1672L27.6101 23.3207L26.2506 22.3884L24.8911 21.4561L24.9241 21.0351C24.949 20.7165 24.9233 20.5258 24.8183 20.2512L24.6794 19.8883L25.4098 18.6371L26.1403 17.3859L26.5851 17.4165C26.8927 17.4377 27.1038 17.4149 27.2694 17.3426C27.4011 17.2849 27.5425 17.2353 27.5835 17.2323C27.6245 17.2292 28.6807 18.3092 29.9306 19.6322ZM10.7338 18.2791C11.5807 18.633 11.3337 19.8271 10.4136 19.8271C9.93107 19.8271 9.54888 19.2965 9.68013 18.809C9.75609 18.527 9.89686 18.3673 10.1629 18.2611C10.3963 18.1679 10.4735 18.1704 10.7338 18.2791ZM17.349 19.6572C17.9588 19.9725 17.8425 20.9072 17.1656 21.1307C16.5352 21.3387 15.9093 20.6287 16.2103 20.0468C16.4465 19.5899 16.9113 19.4309 17.349 19.6572ZM23.5111 20.2176C23.7271 20.3452 23.9164 20.6794 23.916 20.9324C23.9156 21.1919 23.6609 21.5372 23.3844 21.6533C23.1625 21.7464 23.0939 21.7481 22.8578 21.6663C22.5555 21.5615 22.2739 21.2109 22.2739 20.9393C22.2739 20.3066 22.9722 19.8992 23.5111 20.2176ZM10.4038 20.8536H10.6291L11.1509 22.4193L11.6728 23.985L11.4616 24.1963L11.2502 24.4076L9.9735 24.1703C9.27125 24.0398 8.68752 23.933 8.6763 23.933C8.66508 23.933 8.65591 23.8883 8.65591 23.8337C8.65591 23.5625 8.48982 23.0195 8.33886 22.797C8.17271 22.5522 8.17189 22.5441 8.2965 22.4018C8.36644 22.3219 8.72852 21.9228 9.10106 21.515C9.72612 20.8309 9.79387 20.7767 9.9785 20.8136C10.0885 20.8356 10.2799 20.8536 10.4038 20.8536ZM20.3065 21.0656L21.2475 21.1472L21.315 21.3939C21.3522 21.5296 21.445 21.742 21.5211 21.866L21.6597 22.0915L20.6494 23.3435C19.6555 24.5754 19.636 24.5946 19.4344 24.538C19.3217 24.5064 19.0561 24.4805 18.8441 24.4805H18.4587L18.2104 23.2148L17.9621 21.9491L18.2421 21.669C18.3961 21.5151 18.5676 21.2803 18.6231 21.1473C18.7225 20.9094 18.7293 20.9061 19.0448 20.9448C19.2212 20.9664 19.789 21.0207 20.3065 21.0656ZM34.1803 22.3245C34.4564 22.4673 34.5916 22.6872 34.5916 22.9936C34.5916 23.356 34.4373 23.6195 34.1432 23.7591C33.606 24.014 33.0177 23.6516 33.0177 23.0659C33.0177 22.6889 33.1007 22.5268 33.3814 22.3557C33.6426 22.1964 33.9122 22.1858 34.1803 22.3245ZM25.7216 23.282C26.9375 24.1141 26.9923 24.1613 26.9438 24.3339C26.8367 24.7153 26.8952 25.272 27.082 25.6496L27.2631 26.0154L26.7944 26.5311C26.2955 27.0799 26.3105 27.0743 25.7187 26.9345C25.2501 26.8238 24.7166 26.9399 24.3217 27.2386C24.1627 27.3589 23.9945 27.4857 23.9479 27.5205C23.8699 27.5787 23.3463 27.4836 21.6409 27.1012L21.179 26.9976V26.6997C21.179 26.3381 20.9549 25.7133 20.7288 25.4447C20.6377 25.3364 20.5631 25.2129 20.5631 25.1704C20.5631 25.1279 20.9933 24.5635 21.5191 23.9161L22.4751 22.7392L23.0417 22.7373C23.5317 22.7357 23.65 22.7107 23.9162 22.5525C24.0856 22.4518 24.2747 22.3787 24.3364 22.3901C24.3981 22.4015 25.0214 22.8028 25.7216 23.282ZM7.37062 23.243C7.52404 23.4148 7.561 23.5213 7.561 23.792C7.561 24.0748 7.52822 24.1606 7.35303 24.3358C6.82296 24.8658 5.98706 24.5159 5.98706 23.764C5.98706 23.4424 6.07951 23.2748 6.35071 23.1045C6.67384 22.9015 7.11947 22.962 7.37062 23.243ZM29.0805 24.0987C29.7162 24.3644 29.6539 25.3817 28.9897 25.5807C28.8408 25.6253 28.6441 25.643 28.5527 25.6201C27.8694 25.4486 27.7072 24.5494 28.2889 24.158C28.5576 23.9771 28.7543 23.9624 29.0805 24.0987ZM13.0705 24.7843C13.3291 24.8924 13.5823 25.2445 13.5827 25.4966C13.5834 25.9323 13.1765 26.3282 12.7278 26.3282C12.2784 26.3282 11.8895 25.8486 11.9645 25.3868C12.0102 25.1049 12.1704 24.9069 12.4539 24.7818C12.7184 24.665 12.7856 24.6653 13.0705 24.7843ZM19.3854 25.6372C20.0887 25.9978 20.3368 26.7554 19.9826 27.461C19.5563 28.3101 18.4359 28.4694 17.8046 27.7706C17.3234 27.238 17.3004 26.5896 17.7418 25.9956C18.0796 25.541 18.8641 25.3699 19.3854 25.6372ZM25.652 27.9965C26.5013 28.3513 26.2514 29.5445 25.3277 29.5445C25.0185 29.5445 24.6963 29.2752 24.593 28.9302C24.4884 28.5812 24.6667 28.194 25.0112 28.022C25.3001 27.8776 25.3616 27.8751 25.652 27.9965ZM15.4456 32.1392C15.599 32.311 15.636 32.4175 15.636 32.6882C15.636 32.971 15.6032 33.0568 15.428 33.2319C14.892 33.7679 14.062 33.4187 14.062 32.657C14.062 32.3386 14.1552 32.1705 14.4257 32.0006C14.7488 31.7976 15.1945 31.8582 15.4456 32.1392Z" fill="url(#paint0_linear_1_8281)"/>
<defs>
<linearGradient id="paint0_linear_1_8281" x1="2.5" y1="20.1692" x2="37.5" y2="20.1692" gradientUnits="userSpaceOnUse">
<stop stop-color="#00469F"/>
<stop offset="1" stop-color="#1E79D6"/>
</linearGradient>
</defs>
</svg>
