<svg width="41" height="40" viewBox="0 0 41 40" fill="none" xmlns="http://www.w3.org/2000/svg">
<path fill-rule="evenodd" clip-rule="evenodd" d="M16.5462 5.03717C16.2214 5.14372 15.9643 5.30885 15.7158 5.57053C15.3783 5.9259 15.2455 6.21222 15.1902 6.70322L15.1437 7.1171L12.836 8.61836L10.5282 10.1196L10.3037 9.94827C9.97853 9.70027 9.7265 9.62219 9.25089 9.62219C8.54269 9.62219 7.99694 9.93574 7.65102 10.5414C7.53961 10.7365 7.42827 11.0309 7.40357 11.1956C7.34321 11.5978 7.47857 12.1623 7.71282 12.4857L7.90449 12.7503L7.01625 14.0511L6.12793 15.3519L5.53764 15.3247C4.77742 15.2897 4.31872 15.4497 3.78728 15.9355C3.33009 16.3532 3.06683 16.8632 3.01537 17.4305C2.98184 17.8008 2.99525 17.8661 3.13608 18.016C3.34213 18.2353 3.67396 18.242 3.8657 18.0308C3.94673 17.9415 4.02371 17.733 4.04897 17.5346C4.16516 16.6197 5.13717 16.0803 5.97382 16.4664C6.82354 16.8586 7.01768 17.93 6.36368 18.6185C6.01632 18.9843 5.57541 19.116 5.07462 19.0038C4.55331 18.8869 4.20656 19.1828 4.32262 19.6452C4.37128 19.8392 4.67094 20.0317 4.92681 20.0334C5.01338 20.0341 5.12383 20.0596 5.17228 20.0904C5.2637 20.1484 6.00735 22.1734 6.00776 22.3656C6.0079 22.4256 5.94843 22.5287 5.87562 22.5946C5.62844 22.8183 5.45038 23.3086 5.44772 23.7729C5.4419 24.783 6.28224 25.6438 7.27403 25.6438C7.65834 25.6438 8.17035 25.4457 8.47871 25.1777L8.77953 24.9161L10.0968 25.1572L11.4142 25.3983V25.6151C11.4142 25.9118 11.5859 26.3738 11.8009 26.6557C12.0001 26.9169 12.5401 27.2862 12.7229 27.2862C12.8088 27.2862 12.8722 27.3949 12.9529 27.6797C13.0142 27.8961 13.0803 28.1281 13.1 28.1952C13.1569 28.3901 13.4094 28.5866 13.5998 28.5842C14.0079 28.5792 14.1973 28.2116 14.047 27.7162C13.9119 27.271 13.9129 27.2668 14.1928 27.116C14.9786 26.6929 15.3314 25.5679 14.9366 24.744L14.817 24.4944L15.6923 23.3412C16.1737 22.7069 16.5914 22.1611 16.6204 22.1281C16.6503 22.0942 16.8464 22.1104 17.0714 22.1653L17.4696 22.2625L17.7155 23.5398L17.9615 24.8172L17.5659 25.2239C17.2331 25.5662 17.1467 25.7087 17.0207 26.1233C16.7541 27.0014 16.957 27.902 17.5568 28.5018L17.8283 28.7732L17.1458 29.8945C16.7705 30.5112 16.4416 31.0393 16.415 31.0681C16.3884 31.0969 16.2608 31.067 16.1315 31.0015C15.9979 30.934 15.6875 30.8714 15.4128 30.8568L14.9291 30.831L14.7969 30.4108C14.6998 30.1022 14.616 29.9638 14.4812 29.8896C14.2431 29.7585 13.9554 29.8527 13.8117 30.1088C13.7161 30.2791 13.7197 30.3424 13.8545 30.8505L14.0019 31.4061L13.8034 31.6899C13.3002 32.4094 13.4621 33.4892 14.1632 34.0894C14.4628 34.3459 14.9737 34.54 15.349 34.54C16.0073 34.54 16.7369 34.0725 17.0289 33.4636C17.1777 33.1534 17.2118 32.7375 17.144 32.0593C17.1345 31.9639 17.4397 31.398 17.9466 30.5709L18.7646 29.2365L19.3183 29.2356C19.8045 29.2349 19.9275 29.2074 20.3271 29.0107C20.7391 28.8079 21.3368 28.2674 21.3368 28.0977C21.3368 28.0008 21.522 28.0272 22.7739 28.3028L23.9714 28.5666L24.0243 28.933C24.1267 29.6438 24.6817 30.3303 25.2905 30.4994C26.5329 30.8445 27.6984 29.9927 27.7003 28.7382C27.7007 28.5018 27.6542 28.1962 27.597 28.0593L27.4929 27.8103L28.0589 27.2232L28.6248 26.6361L29.2065 26.636C29.8431 26.6359 30.0349 26.5664 30.4824 26.1734C30.8504 25.8503 31.0526 25.3682 31.0535 24.8122L31.0542 24.357L31.824 24.1786C32.2475 24.0805 32.6111 24.0005 32.6321 24.0008C32.6532 24.0012 32.8283 24.1537 33.0213 24.3397C33.5521 24.8513 34.1569 24.9987 34.8639 24.7888C35.6115 24.5668 36.1364 23.8307 36.1302 23.013C36.1265 22.5192 35.9947 22.1764 35.6706 21.8176L35.4314 21.5529L35.5353 20.8615C35.5924 20.4813 35.6391 20.158 35.6391 20.1433C35.6391 20.1285 35.7853 20.0952 35.9641 20.0694C36.7433 19.9569 37.4751 19.4071 37.8173 18.6772C37.9729 18.3453 38 18.196 38 17.6715C38 17.1358 37.9751 17.0049 37.8088 16.6662C37.5596 16.1587 36.9936 15.6402 36.4772 15.4464C36.1595 15.3272 35.9786 15.3042 35.5364 15.3272C35.2353 15.3428 34.9427 15.3767 34.8861 15.4024C34.8087 15.4376 34.6229 15.1928 34.1334 14.4102C33.776 13.8389 33.4727 13.3442 33.4595 13.3109C33.4463 13.2777 33.5036 13.0922 33.5868 12.8986C33.7663 12.4814 33.7862 11.8305 33.6308 11.4585C33.4735 11.0822 33.0089 10.6223 32.6145 10.4526C32.2719 10.3052 31.9765 10.2936 31.2142 10.3975C31.1085 10.412 30.6857 10.1059 29.7299 9.3228L28.3935 8.22789L28.3894 7.74517C28.3798 6.61446 27.4953 5.78596 26.4034 5.88498C25.9088 5.9298 25.5466 6.11539 25.1823 6.51065L24.8938 6.82366L24.1885 6.78048L23.4833 6.7373L23.3339 6.92727C23.2517 7.03176 23.1845 7.19141 23.1845 7.28216C23.1845 7.52413 23.4743 7.78294 23.746 7.78369C23.87 7.78397 24.1301 7.80333 24.324 7.8266L24.6766 7.86896L24.8133 8.28592C24.972 8.77007 25.0192 8.66996 24.2261 9.53069L23.7296 10.0695L23.5084 9.93568C23.3306 9.8281 23.1728 9.8036 22.7054 9.81092C22.3855 9.81592 22.0598 9.83132 21.9816 9.84514C21.8713 9.86464 21.6033 9.6122 20.784 8.7167C20.2036 8.08226 19.7173 7.53241 19.7035 7.49484C19.6896 7.45727 19.7358 7.44297 19.8061 7.46309C19.8764 7.48314 20.2806 7.52057 20.7044 7.54617C21.56 7.59797 21.7594 7.53816 21.8431 7.20476C21.8958 6.99495 21.7336 6.64512 21.56 6.59387C21.4937 6.57429 21.0083 6.52523 20.4814 6.48479C18.8347 6.35839 18.8219 6.35593 18.7481 6.15043C18.524 5.5266 17.8473 5.04532 17.1375 5.00487C16.9066 4.99167 16.6405 5.00624 16.5462 5.03717ZM17.3186 6.09705C17.7767 6.29092 17.9572 6.74277 17.7505 7.17828C17.5093 7.68652 16.8655 7.79149 16.4623 7.38829C16.0654 6.99132 16.1891 6.32821 16.7019 6.10533C16.9818 5.98359 17.0485 5.9827 17.3186 6.09705ZM26.9067 6.9972C27.3138 7.19039 27.4747 7.70267 27.2592 8.11942C27.1503 8.32992 26.785 8.53583 26.5203 8.53583C26.2541 8.53583 25.8977 8.25382 25.8038 7.96873C25.6877 7.61679 25.8113 7.25766 26.1201 7.04997C26.3914 6.86732 26.6031 6.85315 26.9067 6.9972ZM19.631 8.99775C20.2063 9.62821 20.7674 10.2414 20.8778 10.3604L21.0784 10.577L20.9454 10.9763L20.8123 11.3758L19.6281 11.6983L18.4438 12.0209L18.1282 11.7401C17.6083 11.2775 17.1618 11.1052 16.4781 11.1035C15.9712 11.1022 15.8437 11.1279 15.4859 11.3035C15.26 11.4143 14.9278 11.6562 14.7476 11.8411L14.4199 12.1772L12.7973 11.7879C11.9048 11.5737 11.1489 11.3738 11.1175 11.3437C11.0861 11.3136 11.0707 11.2195 11.0833 11.1348C11.1009 11.0167 11.63 10.6399 13.3498 9.52105L15.5934 8.06146L15.9005 8.29584C16.2631 8.57258 16.5785 8.6718 17.0977 8.67228C17.5602 8.67276 18.0932 8.43017 18.3747 8.09109C18.4795 7.96476 18.5698 7.85917 18.5751 7.85644C18.5805 7.8537 19.0557 8.36728 19.631 8.99775ZM29.1246 10.1672C30.0238 10.9177 30.2972 11.1819 30.261 11.2656C30.0796 11.6843 30.0171 12.1308 30.093 12.4653C30.1363 12.6565 30.1779 12.8687 30.1853 12.9369C30.1954 13.03 29.9691 13.1898 29.279 13.5771L28.3593 14.0935L28.0473 13.9415C27.6374 13.7419 27.0757 13.6977 26.6458 13.831L26.3092 13.9355L25.8589 13.5334C25.6111 13.3121 25.1967 12.9162 24.9378 12.6535L24.4672 12.1759L24.5153 11.8546C24.5435 11.6666 24.5301 11.3942 24.483 11.1979L24.4026 10.8625L25.072 10.1397C25.6833 9.47951 25.7566 9.42168 25.9171 9.47246C26.0137 9.50305 26.3263 9.52803 26.6117 9.52796C27.0736 9.52775 27.1676 9.50449 27.4671 9.31589C27.6522 9.19935 27.8344 9.12092 27.8721 9.14159C27.9097 9.16226 28.4734 9.62383 29.1246 10.1672ZM9.68852 10.764C9.89956 10.9119 10.0455 11.2193 10.0455 11.516C10.0455 11.8867 9.68455 12.2312 9.2962 12.2312C8.81998 12.2312 8.56938 12.0376 8.43867 11.5689C8.38187 11.3654 8.55213 10.9852 8.78049 10.8056C9.007 10.6274 9.46358 10.6064 9.68852 10.764ZM23.1787 10.9708C23.552 11.2849 23.5837 11.8214 23.2488 12.1563C22.8897 12.5155 22.3561 12.4696 22.0259 12.0513C21.7451 11.6955 21.9147 11.0284 22.3291 10.8588C22.6133 10.7424 22.9619 10.7884 23.1787 10.9708ZM32.2852 11.4438C32.8911 11.7572 32.8263 12.617 32.176 12.8887C31.8781 13.0131 31.572 12.9438 31.3238 12.6955C31.1571 12.529 31.1226 12.438 31.1226 12.1667C31.1226 11.5145 31.7125 11.1477 32.2852 11.4438ZM16.8423 12.1677C17.4406 12.3338 17.8993 13.0185 17.8291 13.6409C17.6949 14.8315 16.0934 15.2537 15.3908 14.2837C14.8213 13.4976 15.2292 12.3849 16.1702 12.1579C16.4688 12.0858 16.5518 12.087 16.8423 12.1677ZM14.0927 13.6492C14.1234 13.9904 14.1988 14.2634 14.3412 14.5483L14.5456 14.9574L13.2152 16.1943C11.8909 17.4256 11.884 17.4308 11.6985 17.3348C11.596 17.2818 11.3992 17.2173 11.2612 17.1914C10.9712 17.137 11.0545 17.4167 10.537 14.7584L10.2098 13.0771L10.5509 12.736L10.892 12.3948L12.4704 12.777L14.0488 13.1592L14.0927 13.6492ZM21.2342 12.7247C21.3471 12.8787 21.6088 13.1 21.8158 13.2166C22.1378 13.3981 22.2618 13.4287 22.6741 13.4287C23.0683 13.4287 23.2231 13.3939 23.5251 13.2372L23.8943 13.0456L24.7297 13.8791L25.5652 14.7125L25.4698 14.9409C25.4173 15.0666 25.3743 15.3674 25.3743 15.6094C25.3743 15.964 25.4134 16.1237 25.5754 16.4318L25.7765 16.8142L25.0793 18.0101C24.4685 19.0577 24.3651 19.1999 24.2452 19.1573C24.1111 19.1096 23.1715 19.107 22.8515 19.1535C22.7158 19.1732 22.3558 18.8182 20.6213 16.9541L18.5529 14.7311L18.691 14.4221C18.7791 14.2247 18.8401 13.9088 18.8597 13.5479L18.8905 12.9827L19.2411 12.8841C20.337 12.5759 20.8349 12.4463 20.9262 12.4456C20.9827 12.4451 21.1212 12.5708 21.2342 12.7247ZM9.19799 13.3487C9.20244 13.3551 9.38228 14.2687 9.59757 15.379L9.989 17.3978L9.64369 17.7539C9.07427 18.3412 8.94233 19.1401 9.29927 19.8398C9.46077 20.1565 9.52818 20.0445 8.48124 21.2001L7.77228 21.9827L7.3829 21.9602L6.99346 21.9378L6.67347 21.0292C6.49753 20.5295 6.33644 20.0762 6.31557 20.0218C6.29087 19.9575 6.35615 19.8847 6.50212 19.8137C7.73704 19.213 8.17986 17.4228 7.36135 16.3396C7.23803 16.1765 7.10979 16.0065 7.07633 15.9619C7.03582 15.908 7.2962 15.4716 7.85604 14.6549C8.91188 13.1147 8.80492 13.2406 9.01384 13.293C9.11061 13.3173 9.19348 13.3424 9.19799 13.3487ZM31.5785 13.9576C31.8398 14.0157 32.0182 14.0164 32.2628 13.9604C32.4448 13.9188 32.5962 13.8899 32.5993 13.8962C32.6025 13.9025 32.8995 14.3814 33.2594 14.9603L33.9137 16.0129L33.6821 16.3163C32.9648 17.256 33.1645 18.7563 34.109 19.5246C34.3025 19.682 34.4994 19.8236 34.5466 19.8393C34.6149 19.8621 34.613 19.9994 34.537 20.5147L34.4415 21.1615L34.1336 21.202C33.9642 21.2243 33.7464 21.2647 33.6495 21.292C33.4867 21.3377 33.2989 21.157 31.1643 18.9005C29.4374 17.0752 28.8671 16.4313 28.9023 16.3471C29.0206 16.0646 29.0792 15.6131 29.0355 15.3215C29.0092 15.1462 28.987 14.9884 28.9862 14.9711C28.9855 14.9537 29.4273 14.6853 29.9681 14.3746C30.6145 14.0032 30.9984 13.8215 31.0884 13.8442C31.1636 13.8633 31.3843 13.9143 31.5785 13.9576ZM27.6395 14.9194C27.9705 15.1417 28.0979 15.5291 27.9532 15.8737C27.8371 16.1502 27.4918 16.4048 27.2323 16.4052C26.9742 16.4056 26.6082 16.1975 26.5004 15.9891C26.2875 15.5775 26.4436 15.066 26.8421 14.8693C27.1366 14.7239 27.3705 14.7386 27.6395 14.9194ZM19.9305 17.7345C21.0428 18.936 21.9527 19.9643 21.9527 20.0197C21.9527 20.1026 21.8706 20.1132 21.4908 20.0791C21.2368 20.0563 20.6255 20.0015 20.1325 19.9573L19.2361 19.8769L19.1574 19.659C18.9811 19.1715 18.1961 18.5302 17.7725 18.5276C17.6798 18.527 17.6508 18.32 17.574 17.1135C17.4875 15.7529 17.4889 15.6966 17.6128 15.606C17.6836 15.5543 17.779 15.5205 17.8249 15.531C17.8708 15.5415 18.8184 16.5331 19.9305 17.7345ZM15.6354 15.7278C15.7413 15.769 15.9666 15.8232 16.136 15.8482L16.4439 15.8936L16.523 16.9537C16.6524 18.6873 16.655 18.6625 16.3268 18.9033C15.6994 19.3634 15.4451 20.2368 15.7194 20.989L15.8692 21.3999L14.959 22.6015C14.2034 23.599 14.0255 23.7964 13.9119 23.7637C13.8367 23.742 13.6349 23.706 13.4636 23.6839L13.1521 23.6434L12.6274 22.0663L12.1028 20.4891L12.3305 20.237C12.7618 19.7596 12.8395 19.3457 12.7003 18.2682C12.6842 18.1435 12.9405 17.8669 13.9804 16.887C14.6955 16.2131 15.317 15.6597 15.3617 15.6573C15.4063 15.6547 15.5295 15.6865 15.6354 15.7278ZM36.2336 16.4702C36.7953 16.7252 37.1241 17.4581 36.945 18.0558C36.8501 18.3728 36.5249 18.7635 36.2277 18.9179C35.9555 19.0592 35.3249 19.0606 35.0574 18.9205C34.6067 18.6842 34.2705 18.1507 34.2705 17.6715C34.2705 16.6995 35.3218 16.0562 36.2336 16.4702ZM30.4306 19.6322C32.103 21.4024 32.6907 22.0666 32.656 22.1471C32.6301 22.2072 32.5673 22.4084 32.5164 22.5942C32.4656 22.78 32.3957 22.9494 32.3612 22.9706C32.3266 22.9918 31.8951 23.0988 31.4021 23.2083L30.5057 23.4075L30.1127 23.2083C29.5946 22.9458 28.8559 22.928 28.4017 23.1672L28.1101 23.3207L26.7506 22.3884L25.3911 21.4561L25.4241 21.0351C25.449 20.7165 25.4233 20.5258 25.3183 20.2512L25.1794 19.8883L25.9098 18.6371L26.6403 17.3859L27.0851 17.4165C27.3927 17.4377 27.6038 17.4149 27.7694 17.3426C27.9011 17.2849 28.0425 17.2353 28.0835 17.2323C28.1245 17.2292 29.1807 18.3092 30.4306 19.6322ZM11.2338 18.2791C12.0807 18.633 11.8337 19.8271 10.9136 19.8271C10.4311 19.8271 10.0489 19.2965 10.1801 18.809C10.2561 18.527 10.3969 18.3673 10.6629 18.2611C10.8963 18.1679 10.9735 18.1704 11.2338 18.2791ZM17.849 19.6572C18.4588 19.9725 18.3425 20.9072 17.6656 21.1307C17.0352 21.3387 16.4093 20.6287 16.7103 20.0468C16.9465 19.5899 17.4113 19.4309 17.849 19.6572ZM24.0111 20.2176C24.2271 20.3452 24.4164 20.6794 24.416 20.9324C24.4156 21.1919 24.1609 21.5372 23.8844 21.6533C23.6625 21.7464 23.5939 21.7481 23.3578 21.6663C23.0555 21.5615 22.7739 21.2109 22.7739 20.9393C22.7739 20.3066 23.4722 19.8992 24.0111 20.2176ZM10.9038 20.8536H11.1291L11.6509 22.4193L12.1728 23.985L11.9616 24.1963L11.7502 24.4076L10.4735 24.1703C9.77125 24.0398 9.18752 23.933 9.1763 23.933C9.16508 23.933 9.15591 23.8883 9.15591 23.8337C9.15591 23.5625 8.98982 23.0195 8.83886 22.797C8.67271 22.5522 8.67189 22.5441 8.7965 22.4018C8.86644 22.3219 9.22852 21.9228 9.60106 21.515C10.2261 20.8309 10.2939 20.7767 10.4785 20.8136C10.5885 20.8356 10.7799 20.8536 10.9038 20.8536ZM20.8065 21.0656L21.7475 21.1472L21.815 21.3939C21.8522 21.5296 21.945 21.742 22.0211 21.866L22.1597 22.0915L21.1494 23.3435C20.1555 24.5754 20.136 24.5946 19.9344 24.538C19.8217 24.5064 19.5561 24.4805 19.3441 24.4805H18.9587L18.7104 23.2148L18.4621 21.9491L18.7421 21.669C18.8961 21.5151 19.0676 21.2803 19.1231 21.1473C19.2225 20.9094 19.2293 20.9061 19.5448 20.9448C19.7212 20.9664 20.289 21.0207 20.8065 21.0656ZM34.6803 22.3245C34.9564 22.4673 35.0916 22.6872 35.0916 22.9936C35.0916 23.356 34.9373 23.6195 34.6432 23.7591C34.106 24.014 33.5177 23.6516 33.5177 23.0659C33.5177 22.6889 33.6007 22.5268 33.8814 22.3557C34.1426 22.1964 34.4122 22.1858 34.6803 22.3245ZM26.2216 23.282C27.4375 24.1141 27.4923 24.1613 27.4438 24.3339C27.3367 24.7153 27.3952 25.272 27.582 25.6496L27.7631 26.0154L27.2944 26.5311C26.7955 27.0799 26.8105 27.0743 26.2187 26.9345C25.7501 26.8238 25.2166 26.9399 24.8217 27.2386C24.6627 27.3589 24.4945 27.4857 24.4479 27.5205C24.3699 27.5787 23.8463 27.4836 22.1409 27.1012L21.679 26.9976V26.6997C21.679 26.3381 21.4549 25.7133 21.2288 25.4447C21.1377 25.3364 21.0631 25.2129 21.0631 25.1704C21.0631 25.1279 21.4933 24.5635 22.0191 23.9161L22.9751 22.7392L23.5417 22.7373C24.0317 22.7357 24.15 22.7107 24.4162 22.5525C24.5856 22.4518 24.7747 22.3787 24.8364 22.3901C24.8981 22.4015 25.5214 22.8028 26.2216 23.282ZM7.87062 23.243C8.02404 23.4148 8.061 23.5213 8.061 23.792C8.061 24.0748 8.02822 24.1606 7.85303 24.3358C7.32296 24.8658 6.48706 24.5159 6.48706 23.764C6.48706 23.4424 6.57951 23.2748 6.85071 23.1045C7.17384 22.9015 7.61947 22.962 7.87062 23.243ZM29.5805 24.0987C30.2162 24.3644 30.1539 25.3817 29.4897 25.5807C29.3408 25.6253 29.1441 25.643 29.0527 25.6201C28.3694 25.4486 28.2072 24.5494 28.7889 24.158C29.0576 23.9771 29.2543 23.9624 29.5805 24.0987ZM13.5705 24.7843C13.8291 24.8924 14.0823 25.2445 14.0827 25.4966C14.0834 25.9323 13.6765 26.3282 13.2278 26.3282C12.7784 26.3282 12.3895 25.8486 12.4645 25.3868C12.5102 25.1049 12.6704 24.9069 12.9539 24.7818C13.2184 24.665 13.2856 24.6653 13.5705 24.7843ZM19.8854 25.6372C20.5887 25.9978 20.8368 26.7554 20.4826 27.461C20.0563 28.3101 18.9359 28.4694 18.3046 27.7706C17.8234 27.238 17.8004 26.5896 18.2418 25.9956C18.5796 25.541 19.3641 25.3699 19.8854 25.6372ZM26.152 27.9965C27.0013 28.3513 26.7514 29.5445 25.8277 29.5445C25.5185 29.5445 25.1963 29.2752 25.093 28.9302C24.9884 28.5812 25.1667 28.194 25.5112 28.022C25.8001 27.8776 25.8616 27.8751 26.152 27.9965ZM15.9456 32.1392C16.099 32.311 16.136 32.4175 16.136 32.6882C16.136 32.971 16.1032 33.0568 15.928 33.2319C15.392 33.7679 14.562 33.4187 14.562 32.657C14.562 32.3386 14.6552 32.1705 14.9257 32.0006C15.2488 31.7976 15.6945 31.8582 15.9456 32.1392Z" fill="white"/>
</svg>
