<svg width="40" height="40" viewBox="0 0 40 40" fill="none" xmlns="http://www.w3.org/2000/svg">
<path fill-rule="evenodd" clip-rule="evenodd" d="M9.92981 6.1054C8.57997 6.33516 7.48791 6.75449 6.38819 7.4653C4.06025 8.96991 2.4993 11.4268 2.10398 14.2084C1.87681 15.8068 2.04792 17.0204 2.7359 18.6914L2.88035 19.0422L2.61729 19.0842C2.31125 19.1332 2 19.452 2 19.7164C2 19.9394 2.17343 20.2671 2.33804 20.3551C2.41037 20.3939 2.73194 20.4255 3.05268 20.4255C3.58801 20.4255 3.64243 20.4381 3.71626 20.5794C3.88456 20.9013 4.78049 22.2005 5.35438 22.9549C7.17044 25.342 10.1123 28.3721 13.4399 31.2828C14.7862 32.4604 16.371 33.7817 17.0455 34.2888C17.6585 34.7497 17.7083 34.7348 18.9946 33.7046C20.3681 32.6046 21.821 31.3552 23.24 30.0538C24.1469 29.2222 24.3558 28.9958 24.3913 28.8063C24.4699 28.3874 24.1581 28.0177 23.7239 28.0151C23.4399 28.0134 23.4136 28.0328 22.2005 29.1438C21.111 30.1415 20.0148 31.0896 18.885 32.0111C18.3399 32.4558 17.8408 32.8652 17.7759 32.9208C17.669 33.0125 17.6111 32.9845 17.1606 32.6239C13.2936 29.5279 9.25783 25.6105 6.84546 22.6112C6.33562 21.9773 5.2813 20.5271 5.2813 20.4596C5.2813 20.4409 6.71003 20.4255 8.45623 20.4255H11.6312L11.8056 20.2717C11.9498 20.1445 12.081 19.7644 12.5667 18.0671C12.8894 16.9392 13.1749 15.9939 13.2012 15.9666C13.2275 15.9393 13.9865 18.2886 14.8878 21.1873C16.678 26.9445 16.641 26.8514 17.1396 26.8514C17.4583 26.8514 17.6277 26.7598 17.7515 26.5204C17.8056 26.4157 18.2524 25.0441 18.7443 23.4724C19.2363 21.9006 19.6556 20.5875 19.6761 20.5543C19.6966 20.521 20.4365 20.4939 21.3204 20.4939C22.2918 20.4939 22.9793 20.4661 23.0588 20.4235C23.2246 20.3348 23.3968 20.0073 23.3968 19.7806C23.3968 19.6853 23.3071 19.5069 23.1973 19.3841L22.9979 19.1609H20.9358H18.8738L18.6914 19.3661C18.5526 19.5223 18.3539 20.0733 17.8596 21.6724C17.5024 22.8281 17.1948 23.7735 17.176 23.7735C17.1572 23.7734 16.4232 21.459 15.5447 18.6302C14.6663 15.8014 13.8923 13.3584 13.8246 13.2013C13.6578 12.8139 13.3584 12.6555 12.9974 12.7637C12.8545 12.8065 12.6952 12.902 12.6434 12.9759C12.5917 13.0498 12.1676 14.4483 11.701 16.0837L10.8527 19.0572L7.6316 19.0578L4.41046 19.0583L4.22199 18.6311C3.47782 16.9443 3.28559 15.9873 3.43454 14.711C3.61782 13.1409 4.12464 11.8333 5.03514 10.5816C5.6821 9.69221 6.89427 8.67705 7.91318 8.17132C9.68125 7.29364 11.9251 7.14605 13.8266 7.78235C15.0601 8.19511 15.8462 8.68827 17.0216 9.78689C17.3275 10.0728 17.42 10.1218 17.6545 10.1218C17.8891 10.1218 17.9816 10.0728 18.2875 9.78689C19.4625 8.68874 20.2491 8.19505 21.4809 7.78283C22.5765 7.41628 23.8503 7.2905 24.9372 7.44171C27.6077 7.81312 29.8519 9.42991 31.0478 11.8441C31.3197 12.393 31.7368 13.568 31.7368 13.7852C31.7368 13.8091 31.3599 13.8328 30.8994 13.8377C29.2782 13.8552 27.9135 14.4258 26.7586 15.5694C24.815 17.4938 24.4183 20.4041 25.7705 22.8182C26.1544 23.5035 27.168 24.5643 27.7844 24.9258C28.839 25.5441 29.8411 25.826 30.9848 25.826C32.6532 25.826 34.0167 25.2543 35.2237 24.0487C36.4034 22.8701 36.9984 21.4473 37 19.8007C37.0023 17.5785 35.6774 15.4601 33.6509 14.445C33.4441 14.3414 33.2655 14.2484 33.2541 14.2383C33.2426 14.2283 33.1772 13.947 33.1089 13.6134C32.4944 10.6143 30.5479 8.13209 27.8054 6.85046C24.5868 5.34647 20.7359 5.8673 18.0134 8.17488L17.6545 8.47908L17.2956 8.17488C16.0221 7.0954 14.4475 6.37447 12.7688 6.10219C12.0318 5.98263 10.6419 5.9842 9.92981 6.1054ZM32.2181 15.3771C33.4462 15.6958 34.5407 16.5997 35.1109 17.7661C35.6765 18.9228 35.7691 20.0457 35.3963 21.2258C34.7891 23.1479 33.0023 24.4564 30.9848 24.4564C28.9673 24.4564 27.1806 23.1479 26.5733 21.2258C26.0534 19.58 26.4792 17.8227 27.6946 16.5974C28.9197 15.3626 30.5097 14.9336 32.2181 15.3771ZM30.6259 16.7396C30.363 16.8927 30.3012 17.1643 30.3012 18.1662V19.1267H29.3762C28.2926 19.1267 28.0239 19.2029 27.8782 19.5515C27.7583 19.8385 27.8098 20.103 28.0281 20.3214C28.1976 20.4909 28.2191 20.4939 29.2509 20.4939H30.3012V21.5182V22.5425L30.4993 22.7642C30.6633 22.9477 30.7469 22.986 30.9848 22.986C31.2227 22.986 31.3064 22.9477 31.4703 22.7642L31.6684 22.5425V21.5182V20.4939H32.7187C33.7506 20.4939 33.772 20.4909 33.9416 20.3214C34.1599 20.103 34.2114 19.8385 34.0915 19.5515C33.9458 19.2029 33.6771 19.1267 32.5935 19.1267H31.6684V18.1662C31.6684 17.1516 31.605 16.883 31.3304 16.7361C31.1636 16.6469 30.7819 16.6487 30.6259 16.7396ZM25.4058 26.1639C25.1648 26.2656 24.9691 26.5736 24.9691 26.8513C24.9691 27.1485 25.2048 27.4304 25.5005 27.487C25.9085 27.565 26.3363 27.2065 26.3363 26.7866C26.3363 26.3709 25.7868 26.0031 25.4058 26.1639Z" fill="url(#paint0_linear_1_8290)"/>
<defs>
<linearGradient id="paint0_linear_1_8290" x1="2" y1="20.6757" x2="37" y2="20.6757" gradientUnits="userSpaceOnUse">
<stop stop-color="#00469F"/>
<stop offset="1" stop-color="#1E79D6"/>
</linearGradient>
</defs>
</svg>
