<svg width="41" height="40" viewBox="0 0 41 40" fill="none" xmlns="http://www.w3.org/2000/svg">
<path fill-rule="evenodd" clip-rule="evenodd" d="M28.8236 3.16782C28.6731 3.31828 28.6558 3.39265 28.6558 3.88797V4.44037L28.3386 4.57634L28.0215 4.7123L27.5926 4.30044C27.2761 3.99652 27.1134 3.88866 26.9718 3.88866C26.8136 3.88866 26.5478 4.12066 25.462 5.20646C24.2517 6.41681 24.1441 6.54389 24.1441 6.764C24.1441 6.96388 24.2065 7.06519 24.5201 7.37492C24.7269 7.5791 24.8961 7.78466 24.8961 7.83169C24.8961 7.87872 24.8456 8.02288 24.784 8.15208L24.672 8.38703L24.0945 8.41075C23.5606 8.43269 23.5047 8.44889 23.3521 8.62628L23.1871 8.81809V10.631V12.4439L23.3869 12.6438C23.5744 12.8313 23.6204 12.8436 24.1332 12.8436H24.6797L24.7987 13.1553L24.9178 13.4671L24.531 13.8579C23.9015 14.4941 23.8886 14.464 25.462 16.0374C27.0302 17.6056 26.9726 17.5814 27.645 16.9547L28.0747 16.5541L28.3653 16.6785L28.6558 16.8027V17.3555C28.6558 17.8513 28.6731 17.9256 28.8236 18.076L28.9913 18.2439L30.8572 18.2417C32.4116 18.2399 32.7459 18.2223 32.8598 18.1365C32.9735 18.0507 33.0023 17.9291 33.0307 17.4123L33.0649 16.7913L33.3725 16.6703L33.6801 16.5494L34.1014 16.9523C34.411 17.2483 34.5737 17.3552 34.7148 17.3552C34.8731 17.3552 35.1434 17.1185 36.2587 16.0032C37.374 14.8879 37.6107 14.6177 37.6107 14.4593C37.6107 14.3185 37.5036 14.1549 37.2094 13.8459L36.808 13.4246L36.9159 13.1341L37.0237 12.8436H37.5257C38.0498 12.8436 38.3799 12.7334 38.4569 12.5329C38.5278 12.3481 38.5054 8.81269 38.4324 8.67639C38.3369 8.4979 38.0016 8.40043 37.4809 8.39961L37.0296 8.39892L36.9102 8.11469L36.7907 7.83046L37.2007 7.40356C37.5032 7.08863 37.6107 6.92621 37.6107 6.78458C37.6107 6.62619 37.374 6.3559 36.2587 5.24064C35.1434 4.12538 34.8731 3.88866 34.7148 3.88866C34.5731 3.88866 34.4106 3.99639 34.0948 4.29956L33.6668 4.71052L33.3488 4.56984L33.0307 4.42909V3.86323C33.0307 3.36004 33.0131 3.28082 32.8725 3.14861C32.718 3.00355 32.6699 3 30.8528 3H28.9913L28.8236 3.16782ZM32.0053 4.49465C32.0053 5.0262 32.1381 5.27468 32.4656 5.35548C32.5696 5.38112 32.8893 5.50765 33.176 5.63657C33.4627 5.76556 33.7491 5.87104 33.8124 5.87104C33.8757 5.87104 34.0902 5.71723 34.2889 5.52925C34.4877 5.34126 34.6786 5.18746 34.7132 5.18746C34.7478 5.18746 35.1267 5.53909 35.5552 5.96879L36.3343 6.75012L35.9813 7.13642C35.7872 7.34887 35.6283 7.58553 35.6283 7.66236C35.6283 7.7392 35.7338 8.03662 35.8628 8.32332C35.9917 8.61001 36.1175 8.92692 36.1424 9.02754C36.2221 9.35088 36.4111 9.45526 36.9673 9.48335L37.474 9.50899V10.6294V11.7498L37.0467 11.7509C36.6066 11.7519 36.3321 11.8442 36.2362 12.0233C36.1141 12.2515 35.6817 13.3686 35.6489 13.5407C35.62 13.6928 35.677 13.792 35.9757 14.1078L36.3376 14.4904L35.5569 15.2734C35.1274 15.7041 34.7478 16.0564 34.7132 16.0564C34.6786 16.0564 34.4877 15.9026 34.2889 15.7146C34.0902 15.5266 33.8838 15.3728 33.8303 15.3728C33.7769 15.3728 33.5367 15.4617 33.2965 15.5704C33.0563 15.6791 32.727 15.8076 32.5646 15.856C32.1282 15.9863 32.0053 16.1825 32.0053 16.7492V17.2185H30.8432H29.6811V16.7189C29.6811 16.4244 29.6461 16.1734 29.5957 16.1075C29.5487 16.046 29.3083 15.9206 29.0613 15.8288C28.8144 15.7369 28.485 15.5968 28.3292 15.5173C28.1734 15.4378 27.9814 15.3728 27.9025 15.3728C27.8233 15.3728 27.5908 15.5318 27.3839 15.7275L27.0089 16.0822L26.1923 15.2677L25.3757 14.4532L25.7252 14.0993C26.1408 13.6784 26.1418 13.6221 25.7502 12.6727C25.4107 11.8496 25.3513 11.7949 24.7597 11.7615L24.2809 11.7344V10.6142V9.49402H24.7214C25.2921 9.49402 25.4202 9.37959 25.7537 8.57118C26.1429 7.62791 26.1417 7.56632 25.7252 7.14455L25.3757 6.79066L26.1923 5.97617L27.0089 5.16169L27.3839 5.51633C27.5908 5.71204 27.8233 5.87104 27.9025 5.87104C27.9814 5.87104 28.1747 5.80542 28.332 5.72516C28.4893 5.64491 28.8187 5.50662 29.0641 5.41783C29.3095 5.32903 29.5487 5.20421 29.5957 5.1405C29.6457 5.07269 29.6811 4.8173 29.6811 4.525V4.02537H30.8432H32.0053V4.49465ZM29.7837 6.68484C28.9388 6.93312 28.6558 7.13655 28.6558 7.49577C28.6558 7.68643 28.9406 7.99014 29.1194 7.99014C29.1898 7.99014 29.445 7.90982 29.6865 7.81166C30.4978 7.4819 31.5045 7.52681 32.2907 7.92787C32.6877 8.13041 33.2684 8.69717 33.508 9.116C34.018 10.0073 34.0416 11.1137 33.5703 12.0374C33.3812 12.4081 32.8017 13.0169 32.4311 13.234C30.6876 14.2558 28.4263 13.3483 27.9066 11.4182C27.777 10.9371 27.8088 10.1109 27.9744 9.65432C28.1981 9.03732 28.2056 8.93321 28.041 8.72396C27.8615 8.49579 27.4951 8.46721 27.2965 8.66586C27.1169 8.84544 26.8934 9.47447 26.8036 10.0527C26.494 12.0488 27.8606 14.0731 29.8619 14.5823C30.3884 14.7163 31.3747 14.719 31.8686 14.5877C33.3304 14.1992 34.4797 13.0264 34.8501 11.5452C35.0005 10.944 34.9482 9.89883 34.7378 9.29865C34.5281 8.70059 33.9834 7.91173 33.5057 7.51416C33.0412 7.12767 32.4135 6.80577 31.8372 6.65866C31.2916 6.51935 30.3041 6.53199 29.7837 6.68484ZM14.1854 13.3909C13.9444 13.488 13.8904 13.6806 13.8904 14.4442V15.1651L13.7024 15.2066C13.5991 15.2293 13.2472 15.3222 12.9206 15.4129C12.5939 15.5037 12.3104 15.5779 12.2905 15.5779C12.2706 15.5779 12.0843 15.289 11.8765 14.9359C11.5034 14.3021 11.4115 14.2107 11.1464 14.2107C11.0109 14.2107 8.4751 15.6398 8.28848 15.8213C8.10193 16.0027 8.17774 16.3381 8.54237 16.945L8.89147 17.5261L8.2932 18.1283L7.69486 18.7306L7.09591 18.3847C6.45218 18.0129 6.12789 17.949 5.94722 18.1584C5.89048 18.2242 5.51656 18.8497 5.11633 19.5484C4.63686 20.3854 4.38866 20.8885 4.38866 21.0233C4.38866 21.2773 4.53733 21.4156 5.22604 21.8019C5.51745 21.9654 5.75582 22.1189 5.75582 22.1431C5.75582 22.1674 5.6973 22.3574 5.62573 22.5654C5.55416 22.7733 5.45969 23.1165 5.4158 23.328L5.33596 23.7125H4.5858C3.88041 23.7125 3.82552 23.7225 3.66782 23.8803L3.5 24.0481V25.6607V27.2733L3.66782 27.4411C3.82532 27.5987 3.88089 27.6089 4.57808 27.6089H5.32051L5.49872 28.3096C5.59675 28.6949 5.69669 29.0606 5.72075 29.1222C5.75465 29.2089 5.62443 29.3144 5.14449 29.589C4.49222 29.9623 4.38531 30.0765 4.39406 30.39C4.40185 30.6694 5.87483 33.1471 6.11162 33.2793C6.28409 33.3755 6.32107 33.3701 6.65849 33.1989C6.85754 33.0979 7.17466 32.9233 7.36319 32.8108L7.70594 32.6064L8.29833 33.2009L8.89072 33.7954L8.52001 34.4448C8.31617 34.8019 8.14917 35.1462 8.1489 35.2099C8.14856 35.2736 8.2176 35.4026 8.30216 35.4966C8.51126 35.729 10.9423 37.1107 11.142 37.1107C11.4233 37.1107 11.5478 36.9883 11.9103 36.3549C12.1849 35.8749 12.2904 35.7447 12.3771 35.7786C12.4387 35.8027 12.8044 35.9026 13.1898 36.0006L13.8904 36.1788V36.9213C13.8904 37.6185 13.9007 37.674 14.0582 37.8315L14.226 37.9993H15.8386H17.4513L17.619 37.8315C17.7768 37.6738 17.7868 37.6189 17.7868 36.9144V36.165L18.1457 36.0883C18.3431 36.046 18.7015 35.9507 18.9422 35.8765C19.1829 35.8023 19.3872 35.7497 19.3961 35.7597C19.4049 35.7696 19.5567 36.0238 19.7333 36.3246C19.91 36.6253 20.1028 36.9252 20.1617 36.9911C20.3723 37.226 20.6353 37.1367 21.9509 36.383C22.6496 35.9828 23.2751 35.6089 23.3409 35.5521C23.5552 35.3673 23.4891 35.0309 23.1134 34.3948L22.7662 33.807L23.3697 33.2065L23.9732 32.606L24.5505 32.9487C25.2754 33.379 25.4498 33.4192 25.6622 33.2048C25.8904 32.9744 27.2886 30.5277 27.2886 30.3588C27.2886 30.0854 27.1975 29.9926 26.5625 29.6188C26.2099 29.4113 25.9215 29.2293 25.9215 29.2144C25.9215 29.1995 25.996 28.9167 26.0872 28.5861C26.1784 28.2554 26.2712 27.9003 26.2936 27.7969L26.3342 27.6089H27.088C27.7971 27.6089 27.8516 27.599 28.0095 27.4411L28.1773 27.2733V25.7354C28.1773 24.7539 28.1498 24.1372 28.1014 24.0308C27.9868 23.7793 27.7586 23.7125 27.0146 23.7125H26.3369L26.265 23.422C26.2255 23.2622 26.132 22.9111 26.0573 22.6417C25.9826 22.3724 25.9215 22.1362 25.9215 22.1167C25.9215 22.0973 26.1599 21.95 26.4512 21.7891C27.0821 21.441 27.2886 21.25 27.2886 21.0149C27.2886 20.8296 25.849 18.2704 25.6626 18.1242C25.4629 17.9678 25.174 18.0356 24.5643 18.3823L23.9601 18.7258L23.3685 18.1342L22.7768 17.5426L23.1187 16.9452C23.4656 16.339 23.5348 16.0401 23.3751 15.8373C23.2469 15.6746 20.6707 14.2107 20.5126 14.2107C20.2559 14.2107 20.1221 14.346 19.7695 14.9622C19.5757 15.3008 19.4045 15.5779 19.3889 15.5779C19.3733 15.5779 19.1373 15.5181 18.8642 15.4451C18.5913 15.372 18.2372 15.2785 18.0774 15.2373L17.7868 15.1625V14.4848C17.7868 13.7407 17.7201 13.5126 17.4685 13.3979C17.2678 13.3066 14.4101 13.3004 14.1854 13.3909ZM16.7615 15.1564C16.7893 15.7872 16.8177 15.9472 16.9144 16.0178C16.9797 16.0653 17.3165 16.1591 17.663 16.2261C18.0094 16.293 18.5539 16.4361 18.873 16.5439C19.5408 16.7696 19.8415 16.7902 19.9875 16.6203C20.044 16.5545 20.2233 16.2638 20.3858 15.9742C20.5484 15.6846 20.6992 15.457 20.7209 15.4684C21.1872 15.7143 22.1722 16.2914 22.1987 16.3343C22.2183 16.366 22.077 16.6686 21.8847 17.0068C21.641 17.4354 21.5485 17.6638 21.5793 17.761C21.6418 17.958 23.5766 19.877 23.7563 19.9202C23.8553 19.944 24.1075 19.8417 24.5116 19.6139C24.8454 19.4258 25.1419 19.2863 25.1705 19.304C25.2116 19.3294 25.9569 20.5905 26.0446 20.7829C26.0558 20.8078 25.828 20.9589 25.5382 21.1189C24.6579 21.6048 24.6324 21.6708 24.9555 22.6264C25.0633 22.9455 25.2064 23.4899 25.2733 23.8364C25.3402 24.1828 25.434 24.5197 25.4816 24.585C25.5521 24.6816 25.7121 24.71 26.3429 24.7379L27.1177 24.7721L27.1368 25.6778L27.1559 26.5835H26.4399C25.5058 26.5835 25.4381 26.637 25.2729 27.5054C25.2087 27.8432 25.0668 28.3861 24.9577 28.7117C24.8486 29.0374 24.7594 29.3977 24.7594 29.5125C24.7594 29.7474 24.9247 29.8951 25.6138 30.2758C25.8394 30.4003 26.034 30.5099 26.0463 30.5192C26.0586 30.5285 25.8641 30.8896 25.614 31.3215L25.1593 32.107L24.5901 31.772C24.0126 31.432 23.714 31.3625 23.5195 31.5224C23.4623 31.5694 23.2488 31.8038 23.045 32.0434C22.8412 32.283 22.4591 32.664 22.1959 32.8901C21.6679 33.3437 21.5169 33.5602 21.5831 33.7687C21.6072 33.8448 21.7628 34.1366 21.9286 34.4171C22.0944 34.6976 22.2296 34.9493 22.229 34.9765C22.2279 35.0223 20.7852 35.8802 20.7092 35.8802C20.6903 35.8802 20.5151 35.6035 20.3198 35.2652C19.8783 34.5 19.8374 34.4853 18.9537 34.7745C18.5939 34.8923 18.0139 35.047 17.6647 35.1185C16.7788 35.2997 16.7615 35.3211 16.7615 36.2326V36.974H15.8386H14.9158V36.2638C14.9158 35.3336 14.8874 35.2974 14.0277 35.1248C13.6724 35.0536 13.0812 34.8962 12.7138 34.775C11.8471 34.4892 11.7839 34.5103 11.353 35.2308C11.1731 35.5316 11.0145 35.8076 11.0005 35.844C10.9693 35.9258 9.44688 35.0592 9.44791 34.9603C9.44832 34.9211 9.5864 34.6583 9.75477 34.3764C9.92313 34.0944 10.0612 33.7786 10.0616 33.6746C10.0622 33.5215 9.86694 33.29 9.0381 32.4612C8.20933 31.6324 7.9778 31.4371 7.82474 31.4377C7.72077 31.4381 7.40496 31.5762 7.12298 31.7446C6.841 31.9129 6.57823 32.051 6.53906 32.0514C6.44035 32.0525 5.57337 30.53 5.65533 30.4994C5.69177 30.4858 5.96739 30.3287 6.26775 30.1501C6.9892 29.7212 7.01121 29.6554 6.72438 28.7856C6.60318 28.4181 6.44576 27.8269 6.37453 27.4716C6.20199 26.6119 6.16569 26.5835 5.23554 26.5835H4.52537V25.6607V24.7379H5.26671C5.91236 24.7379 6.02351 24.7208 6.12748 24.6059C6.19358 24.5329 6.31813 24.1438 6.40659 23.7344C6.49436 23.3276 6.64536 22.7664 6.74209 22.4872C7.02618 21.6672 7.01128 21.6315 6.18305 21.1505C5.87285 20.9704 5.6191 20.811 5.6191 20.7965C5.6191 20.725 6.48021 19.2707 6.52286 19.27C6.55 19.2696 6.8017 19.4049 7.08224 19.5708C7.36271 19.7366 7.65228 19.8914 7.72569 19.9147C7.94341 19.9838 8.18239 19.8264 8.56807 19.3601C8.76808 19.1184 9.11692 18.7607 9.34325 18.5653C10.2212 17.8072 10.2304 17.7675 9.72503 16.9118L9.38768 16.3407L10.1799 15.89C10.6155 15.6422 10.9777 15.4475 10.9845 15.4574C10.9914 15.4673 11.099 15.6599 11.2236 15.8855C11.6042 16.5746 11.7519 16.74 11.9869 16.74C12.1016 16.74 12.4665 16.6492 12.7976 16.5382C13.1288 16.4273 13.6716 16.2861 14.004 16.2244C14.8787 16.0621 14.9158 16.0159 14.9158 15.0855V14.3435L15.8215 14.3625L16.7273 14.3816L16.7615 15.1564ZM14.9737 18.3788C12.2126 18.7282 9.85593 20.6072 8.93016 23.1974C8.59616 24.132 8.46792 24.9924 8.51229 26.0025C8.54961 26.8532 8.76043 27.8621 9.01199 28.3941C9.24078 28.8778 9.71936 28.9767 9.97125 28.5922C10.0721 28.4384 10.0758 28.379 9.99997 28.1319C9.55769 26.6898 9.45167 25.8759 9.5797 24.9056C9.85963 22.7843 11.1353 20.9864 13.0208 20.0558C13.9705 19.5872 14.4523 19.4668 15.5487 19.4246C16.1404 19.4018 16.6474 19.4183 16.9158 19.4691C20.179 20.0864 22.3778 22.9713 22.0853 26.2515C22.0111 27.0834 21.8632 27.6066 21.4769 28.4045C20.5195 30.382 18.702 31.669 16.5022 31.9271C15.6694 32.0248 14.7958 31.9364 13.9449 31.6681C12.9104 31.3421 12.2461 30.9377 11.3476 30.0869C11.0122 29.7694 10.6926 29.5229 10.6161 29.5229C10.5413 29.5229 10.3964 29.595 10.294 29.683C9.90645 30.0164 10.1107 30.4274 11.0697 31.2436C12.3319 32.3179 13.8308 32.9076 15.4968 32.9852C21.1594 33.2491 24.9759 27.2024 22.2938 22.2163C21.2583 20.2915 19.4535 18.9421 17.2996 18.4826C16.7128 18.3574 15.5519 18.3056 14.9737 18.3788ZM33.851 19.1175C33.5968 19.1979 33.4408 19.4285 33.4408 19.7241C33.4408 19.99 33.4226 20.0225 33.2529 20.0587C32.8988 20.1343 32.313 20.3696 32.0526 20.5408L31.7923 20.7119L31.5546 20.5033C31.2926 20.2732 31.0266 20.2353 30.7979 20.3956C30.5061 20.5999 30.5518 21.0286 30.8989 21.3426L31.0368 21.4675L30.8747 21.7065C30.7055 21.9558 30.4509 22.581 30.3856 22.9075C30.3532 23.0693 30.3141 23.0973 30.1201 23.0973C29.7917 23.0973 29.566 23.222 29.4685 23.4573C29.318 23.8207 29.6474 24.1877 30.1263 24.19C30.321 24.1909 30.3392 24.2153 30.4601 24.6372C30.5304 24.8827 30.6881 25.2501 30.8107 25.4536C31.0323 25.8216 31.0328 25.8244 30.8972 25.9471C30.5518 26.2598 30.5067 26.6888 30.7979 26.8927C31.0266 27.053 31.2926 27.0151 31.5546 26.785L31.7923 26.5764L32.0526 26.7464C32.3387 26.9332 32.7041 27.0836 33.1503 27.1979C33.4285 27.2692 33.4408 27.2835 33.4408 27.534C33.4408 27.9003 33.6536 28.1558 33.9585 28.1558C34.2936 28.1558 34.4662 27.9587 34.4662 27.576C34.4662 27.2972 34.483 27.2661 34.6542 27.2296C35.0076 27.1541 35.5939 26.9188 35.8531 26.7484L36.1122 26.578L36.3643 26.7859C36.6743 27.0413 36.9408 27.0546 37.1694 26.8259C37.3962 26.5991 37.3809 26.3645 37.1196 26.067C36.9234 25.8435 36.911 25.8046 36.9942 25.6716C37.2116 25.3238 37.4096 24.868 37.4849 24.5416C37.5591 24.2203 37.5821 24.191 37.7613 24.191C38.085 24.191 38.4211 24.0148 38.4701 23.8195C38.5741 23.4052 38.289 23.0973 37.8011 23.0973C37.5857 23.0973 37.5707 23.0806 37.4932 22.7545C37.4174 22.435 37.2096 21.9613 36.9942 21.6167C36.911 21.4837 36.9234 21.4448 37.1196 21.2213C37.3726 20.9332 37.3936 20.7265 37.1955 20.4747C36.9973 20.2226 36.6606 20.2292 36.3677 20.4909L36.148 20.6872L35.7343 20.4641C35.3419 20.2523 35.0801 20.1545 34.6542 20.0602C34.4869 20.0231 34.4662 19.9881 34.4662 19.7419C34.4662 19.5898 34.4361 19.409 34.3993 19.3402C34.3233 19.1983 34.0047 19.0689 33.851 19.1175ZM15.1551 20.5439C12.1555 21.0265 10.1868 23.8031 10.7864 26.7056C11.129 28.3647 12.2893 29.7719 13.8599 30.4329C16.3344 31.4744 19.2431 30.3626 20.4779 27.9035C20.8175 27.2272 20.9602 26.5617 20.9588 25.6607C20.9569 24.4423 20.6455 23.4923 19.9444 22.5671C19.4425 21.9048 19.2084 21.7994 18.8556 22.0769C18.5816 22.2924 18.6125 22.5792 18.954 22.9925C20.2035 24.5045 20.272 26.5105 19.129 28.1123C18.2554 29.3365 16.5971 30.0014 15.1052 29.7256C13.7172 29.4691 12.5516 28.517 12.0181 27.2042C11.56 26.0767 11.6129 24.9557 12.1784 23.8084C12.9232 22.2971 14.6562 21.3665 16.294 21.5983C17.4157 21.757 17.4182 21.757 17.5738 21.6013C17.6544 21.5208 17.7185 21.3691 17.7185 21.2592C17.7185 20.9514 17.5243 20.7739 17.0675 20.6643C16.6339 20.5602 15.4981 20.4887 15.1551 20.5439ZM35.1028 21.3086C36.4144 21.9543 36.9259 23.4919 36.2671 24.8088C35.257 26.8277 32.317 26.6632 31.5238 24.5433C31.1238 23.474 31.5297 22.158 32.4563 21.5205C32.9859 21.156 33.3947 21.0405 34.0647 21.0657C34.5646 21.0845 34.7227 21.1215 35.1028 21.3086ZM33.5088 21.999C33.1724 22.1014 32.9042 22.2775 32.6726 22.5481C31.9734 23.365 32.2299 24.6579 33.1918 25.1655C33.5856 25.3732 34.3192 25.3744 34.7101 25.168C35.7161 24.6369 35.9678 23.3525 35.227 22.5307C34.7895 22.0455 34.079 21.8256 33.5088 21.999ZM34.2625 23.0638C34.5033 23.1883 34.6029 23.3581 34.6029 23.6441C34.6029 23.9487 34.491 24.1193 34.2156 24.2343C33.4525 24.5532 32.9297 23.4571 33.6534 23.056C33.8688 22.9366 34.0203 22.9386 34.2625 23.0638Z" fill="white"/>
</svg>
