<svg width="40" height="40" viewBox="0 0 40 40" fill="none" xmlns="http://www.w3.org/2000/svg">
<path fill-rule="evenodd" clip-rule="evenodd" d="M10.3639 3.03642C10.2802 3.05262 10.1335 3.1589 10.0378 3.27266L9.86383 3.47938V10.0255V16.5716L10.0347 16.7746C10.2399 17.0185 10.5071 17.0826 10.8032 16.9588C11.258 16.7688 11.2369 17.0872 11.2369 10.4062V4.36085L19.6301 4.37829L28.0232 4.39573L28.0578 7.17627C28.0908 9.82555 28.0995 9.97391 28.2408 10.3194C28.6008 11.1989 29.1843 11.8255 30.0158 12.2255C30.7064 12.5575 31.1166 12.5954 34.0485 12.5979L36.5724 12.6L36.5544 23.5334L36.5365 34.4668L36.3832 34.7957C36.155 35.2856 35.6116 35.8228 35.1099 36.0545L34.6828 36.2518L31.6619 36.2692C30.0005 36.2788 28.5706 36.3028 28.4845 36.3225C28.2931 36.3665 28.0581 36.7334 28.0578 36.9888C28.0576 37.0995 28.1397 37.2685 28.2579 37.4007L28.4583 37.6249H31.6049C34.4643 37.6249 34.789 37.6134 35.1633 37.4987C36.4722 37.0976 37.4599 36.109 37.8496 34.8101C37.9661 34.422 37.9744 33.7498 37.9948 23.222C38.0094 15.7257 37.9933 11.9596 37.946 11.784C37.8858 11.5605 37.2375 10.9104 33.5149 7.34111C31.1167 5.04143 29.0698 3.12272 28.9664 3.0772C28.8226 3.0139 26.6316 2.99598 19.6472 3.00072C14.6251 3.00415 10.4476 3.02022 10.3639 3.03642ZM35.129 10.7932L35.5753 11.2331L33.2753 11.2129C31.1051 11.1938 30.9577 11.1844 30.6629 11.048C30.1936 10.8309 29.8434 10.4857 29.6259 10.0261L29.4308 9.61354L29.4307 7.46394L29.4306 5.31434L32.0567 7.83385C33.5011 9.21952 34.8836 10.5513 35.129 10.7932ZM14.9002 9.99059C14.582 10.119 14.4261 10.6255 14.6031 10.9561C14.7868 11.2994 14.728 11.2956 19.8909 11.2956H24.7071L24.9406 11.0622C25.1974 10.8053 25.2356 10.584 25.0761 10.2757C25.0223 10.1716 24.8973 10.0496 24.7983 10.0045C24.5831 9.90649 15.1415 9.89317 14.9002 9.99059ZM14.9443 13.294C14.4991 13.4687 14.388 14.0453 14.7331 14.3904L14.9338 14.5911H17.5532H20.1727L20.3734 14.3904C20.7055 14.0582 20.6155 13.5244 20.1937 13.3242C20.0041 13.2342 19.5978 13.2186 17.5429 13.2223C16.1301 13.2248 15.0442 13.2548 14.9443 13.294ZM5.91861 18.3739C5.33374 18.4605 4.61464 18.8255 4.11167 19.2911C3.59484 19.7697 3.17638 20.5557 3.06859 21.2506C3.02568 21.527 2.99959 24.1148 3 28.0475C3.00076 35.0327 2.9963 34.9508 3.41908 35.787C3.85435 36.648 4.82768 37.3828 5.79936 37.584C6.28654 37.6848 24.0304 37.6901 24.5639 37.5896C25.855 37.3462 26.9241 36.3249 27.2674 35.007C27.4227 34.4108 27.4207 21.642 27.2652 20.9824C26.988 19.8063 26.1011 18.8607 24.8994 18.46C24.5414 18.3407 24.0481 18.3335 15.4249 18.3237C10.4217 18.3179 6.1438 18.3405 5.91861 18.3739ZM24.7666 19.8851C25.2187 20.0971 25.5907 20.4594 25.807 20.8986L25.9635 21.2163L25.9792 27.0863L25.9948 32.9564L24.335 31.24C23.4221 30.296 22.2244 29.0679 21.6736 28.5109C20.7194 27.5462 20.6591 27.4983 20.3999 27.4977C20.135 27.4972 20.0795 27.5457 18.2825 29.3514C17.2676 30.3712 16.4179 31.2044 16.3945 31.2028C16.371 31.2013 15.1778 29.7162 13.7429 27.9027C11.6772 25.292 11.095 24.5975 10.9468 24.5675C10.4071 24.4581 10.5204 24.3398 7.39223 28.2787L4.47438 31.9528L4.45426 26.6875C4.44129 23.2907 4.45873 21.337 4.50335 21.182C4.61602 20.791 4.95462 20.3199 5.28747 20.0909C5.91443 19.6595 5.44716 19.678 15.3563 19.6926L24.3844 19.7059L24.7666 19.8851ZM20.4872 21.7332C19.8743 21.8872 19.2934 22.3663 18.9913 22.967C18.7588 23.4293 18.7328 24.1219 18.9281 24.6491C19.133 25.202 19.7081 25.7783 20.2355 25.959C21.6649 26.4489 23.0935 25.505 23.1716 24.0192C23.2038 23.4045 23.0642 22.9523 22.6994 22.4907C22.2178 21.8816 21.2356 21.5452 20.4872 21.7332ZM21.3734 23.1479C21.9727 23.4322 21.9537 24.3645 21.3428 24.6544C20.8424 24.8918 20.2418 24.5491 20.1869 23.9946C20.1501 23.6235 20.2546 23.4035 20.568 23.1922C20.8431 23.0068 21.0519 22.9953 21.3734 23.1479ZM14.3309 30.8281C16.1553 33.1314 17.8756 35.3025 18.154 35.6525L18.66 36.2889L12.2881 36.2704L5.91614 36.2518L5.60033 36.0962C4.99891 35.7999 4.52635 35.1658 4.40414 34.491C4.35931 34.2436 4.39577 34.1945 7.53051 30.2776L10.7022 26.3145L10.8581 26.4773C10.9438 26.5668 12.5066 28.5247 14.3309 30.8281ZM24.3313 33.1853L25.9259 34.8241L25.7513 35.1745C25.549 35.5802 25.2089 35.9021 24.7656 36.1072C24.4734 36.2424 24.3193 36.2531 22.3934 36.2718L20.3338 36.2918L18.8577 34.3927C18.0458 33.3483 17.3561 32.4496 17.325 32.3958C17.2835 32.3242 17.6879 31.8743 18.8354 30.7159L20.4024 29.1337L21.5696 30.3401C22.2115 31.0035 23.4543 32.2839 24.3313 33.1853Z" fill="url(#paint0_linear_19_17526)"/>
<defs>
<linearGradient id="paint0_linear_19_17526" x1="3" y1="20.7996" x2="38" y2="20.7996" gradientUnits="userSpaceOnUse">
<stop stop-color="white"/>
<stop offset="1" stop-color="white"/>
</linearGradient>
</defs>
</svg>
