<svg width="36" height="36" viewBox="0 0 36 36" fill="none" xmlns="http://www.w3.org/2000/svg">
<path d="M23.6511 23.2973L12.7021 12.3483L22.0881 4.52734L31.4731 13.9123L23.6511 23.2973Z" fill="#BE1931"/>
<path d="M34.5998 13.9118C32.8728 15.6408 30.0718 15.6408 28.3448 13.9118L22.0878 7.65579C20.3588 5.92879 20.3588 3.12579 22.0878 1.39779C23.8138 -0.329211 26.6158 -0.329211 28.3448 1.39779L34.5998 7.65579C36.3278 9.38279 36.3278 12.1848 34.5998 13.9118V13.9118Z" fill="#DD2E44"/>
<path d="M14.0005 17.8232C14.0005 17.8232 -0.59253 35.0292 0.18847 35.8132C0.97047 36.5962 18.1775 22.0002 18.1775 22.0002L14.0005 17.8232Z" fill="#99AAB5"/>
<path d="M25.2151 27.991C23.4891 29.72 20.6871 29.72 18.9571 27.991L8.00912 17.041C6.28212 15.313 6.28212 12.513 8.00912 10.785C9.73712 9.05603 12.5391 9.05603 14.2671 10.785L25.2151 21.734C26.9431 23.463 26.9431 26.262 25.2151 27.991Z" fill="#DD2E44"/>
</svg>
