<svg width="36" height="36" viewBox="0 0 36 36" fill="none" xmlns="http://www.w3.org/2000/svg">
<path d="M29 11.0596C29 17.4986 24 18.4986 24 24.4996C24 27.5976 20.877 27.8586 18.5 27.8586C16.447 27.8586 11.914 27.0796 11.914 24.4976C11.914 18.4996 7 17.4996 7 11.0596C7 5.02865 12.285 0.139648 18.083 0.139648C23.883 0.139648 29 5.02865 29 11.0596Z" fill="#FFD983"/>
<path d="M22.167 32.4996C22.167 33.3276 19.933 34.9996 18 34.9996C16.067 34.9996 13.833 33.3276 13.833 32.4996C13.833 31.6716 16.066 31.9996 18 31.9996C19.933 31.9996 22.167 31.6716 22.167 32.4996Z" fill="#CCD6DD"/>
<path d="M22.7073 10.2932C22.3163 9.90225 21.6842 9.90225 21.2932 10.2932L18.0002 13.5863L14.7072 10.2932C14.3162 9.90225 13.6842 9.90225 13.2932 10.2932C12.9022 10.6842 12.9022 11.3162 13.2932 11.7072L17.0002 15.4142V26.0002C17.0002 26.5532 17.4482 27.0002 18.0002 27.0002C18.5522 27.0002 19.0002 26.5532 19.0002 26.0002V15.4142L22.7073 11.7072C23.0983 11.3162 23.0983 10.6842 22.7073 10.2932V10.2932Z" fill="#FFCC4D"/>
<path d="M24 31C24 32.104 23.104 33 22 33H14C12.896 33 12 32.104 12 31V25H24V31Z" fill="#99AAB5"/>
<path d="M11.9988 32.0004C11.5188 32.0004 11.0948 31.6534 11.0138 31.1644C10.9228 30.6204 11.2908 30.1044 11.8358 30.0144L23.8358 28.0144C24.3798 27.9164 24.8958 28.2914 24.9858 28.8364C25.0768 29.3804 24.7088 29.8964 24.1638 29.9864L12.1638 31.9864C12.1088 31.9964 12.0528 32.0004 11.9988 32.0004V32.0004ZM11.9988 28.0004C11.5188 28.0004 11.0948 27.6534 11.0138 27.1644C10.9228 26.6204 11.2908 26.1044 11.8358 26.0144L23.8358 24.0144C24.3798 23.9174 24.8958 24.2914 24.9858 24.8364C25.0768 25.3804 24.7088 25.8964 24.1638 25.9864L12.1638 27.9864C12.1088 27.9964 12.0528 28.0004 11.9988 28.0004V28.0004Z" fill="#CCD6DD"/>
</svg>
