<svg width="36" height="36" viewBox="0 0 36 36" fill="none" xmlns="http://www.w3.org/2000/svg">
<path d="M18 36C27.3888 36 35 28.3888 35 19C35 9.61116 27.3888 2 18 2C8.61116 2 1 9.61116 1 19C1 28.3888 8.61116 36 18 36Z" fill="#F4900C"/>
<path d="M18 34C27.3888 34 35 26.3888 35 17C35 7.61116 27.3888 0 18 0C8.61116 0 1 7.61116 1 17C1 26.3888 8.61116 34 18 34Z" fill="#FFCC4D"/>
<path d="M18 32C25.732 32 32 25.732 32 18C32 10.268 25.732 4 18 4C10.268 4 4 10.268 4 18C4 25.732 10.268 32 18 32Z" fill="#FFE8B6"/>
<path d="M18 31C25.732 31 32 24.732 32 17C32 9.26801 25.732 3 18 3C10.268 3 4 9.26801 4 17C4 24.732 10.268 31 18 31Z" fill="#FFAC33"/>
<path d="M9.54297 10.8556C9.54297 10.3106 10.078 10.0926 10.078 10.0926L17.956 6.39258L25.909 10.0926C25.909 10.0926 26.457 10.2146 26.457 10.8596V11.5006H9.54297V10.8556Z" fill="#FFE8B6"/>
<path d="M25.9293 12.8363C25.9293 12.2523 25.4243 11.7793 24.8023 11.7793H11.1293C10.5063 11.7793 10.0723 12.2523 10.0723 12.8363C10.0723 13.2333 10.2763 13.5753 10.6013 13.7563V14.4223H12.7153V13.8933H14.8293V14.4223H16.9433V13.8933H19.0573V14.4223H21.1713V13.8933H23.2853V14.4223H25.4003V13.7293C25.7173 13.5413 25.9293 13.2123 25.9293 12.8363ZM27.5143 24.0003C27.5143 24.4383 27.1593 24.7933 26.7213 24.7933H9.27933C8.84133 24.7933 8.48633 24.4383 8.48633 24.0003C8.48633 23.5623 8.84133 23.2073 9.27933 23.2073H26.7223C27.1593 23.2073 27.5143 23.5623 27.5143 24.0003V24.0003Z" fill="#F4900C"/>
<path d="M26.457 12.1999C26.457 12.4919 26.221 12.7289 25.928 12.7289H10.071C9.77899 12.7289 9.54199 12.4919 9.54199 12.1999C9.54199 11.9079 9.77899 11.6709 10.071 11.6709L25.928 11.6739C26.221 11.6749 26.457 11.9079 26.457 12.1999V12.1999ZM12.186 12.8139H23.815V13.9999H12.186V12.8139Z" fill="#F4900C"/>
<path d="M12.7136 20.8288C12.7136 21.4128 12.3976 21.8858 12.0086 21.8858H11.3036C10.9146 21.8858 10.5986 21.4128 10.5986 20.8288V12.8148C10.5986 12.2308 10.9146 11.7578 11.3036 11.7578H12.0086C12.3976 11.7578 12.7136 12.2308 12.7136 12.8148V20.8288ZM25.3996 20.8288C25.3996 21.4128 25.0846 21.8858 24.6946 21.8858H23.9896C23.6006 21.8858 23.2846 21.4128 23.2846 20.8288V12.8148C23.2846 12.2308 23.5996 11.7578 23.9896 11.7578H24.6946C25.0836 11.7578 25.3996 12.2308 25.3996 12.8148V20.8288ZM16.9426 20.8288C16.9426 21.4128 16.6266 21.8858 16.2376 21.8858H15.5326C15.1436 21.8858 14.8276 21.4128 14.8276 20.8288V12.8148C14.8276 12.2308 15.1436 11.7578 15.5326 11.7578H16.2376C16.6266 11.7578 16.9426 12.2308 16.9426 12.8148V20.8288ZM21.1706 20.8288C21.1706 21.4128 20.8546 21.8858 20.4656 21.8858H19.7616C19.3726 21.8858 19.0566 21.4128 19.0566 20.8288V12.8148C19.0566 12.2308 19.3726 11.7578 19.7616 11.7578H20.4656C20.8546 11.7578 21.1706 12.2308 21.1706 12.8148V20.8288Z" fill="#FFD983"/>
<path d="M25.9293 21.3568C25.9293 21.9408 25.4563 22.4138 24.8723 22.4138H11.1293C10.5453 22.4138 10.0723 21.9408 10.0723 21.3568C10.0723 20.7728 10.5453 20.2998 11.1293 20.2998H24.8723C25.4553 20.2998 25.9293 20.7728 25.9293 21.3568Z" fill="#FFCC4D"/>
<path d="M26.9857 22.4144C26.9857 22.9984 26.5127 23.4714 25.9287 23.4714H10.0707C9.48667 23.4714 9.01367 22.9984 9.01367 22.4144C9.01367 21.8304 9.48667 21.3574 10.0707 21.3574H25.9277C26.5117 21.3574 26.9857 21.8304 26.9857 22.4144V22.4144Z" fill="#FFD983"/>
<path d="M27.5143 23.2071C27.5143 23.6451 27.1593 24.0001 26.7213 24.0001H9.27933C8.84133 24.0001 8.48633 23.6451 8.48633 23.2071C8.48633 22.7691 8.84133 22.4141 9.27933 22.4141H26.7223C27.1593 22.4141 27.5143 22.7691 27.5143 23.2071V23.2071Z" fill="#FFD983"/>
<path d="M25.9293 12.2855C25.9293 11.7015 25.4243 11.2285 24.8023 11.2285H11.1293C10.5063 11.2285 10.0723 11.7015 10.0723 12.2855C10.0723 12.6825 10.2763 13.0245 10.6013 13.2055V13.8715H12.7153V13.3425H14.8293V13.8715H16.9433V13.3425H19.0573V13.8715H21.1713V13.3425H23.2853V13.8715H25.4003V13.1785C25.7173 12.9905 25.9293 12.6615 25.9293 12.2855Z" fill="#FFCC4D"/>
<path d="M9.54297 11.463C9.54297 10.918 10.078 10.7 10.078 10.7L17.956 7L25.909 10.7C25.909 10.7 26.457 10.822 26.457 11.467V11.758H9.54297V11.463Z" fill="#FFD983"/>
<path d="M18 8.34277C18 8.34277 12.545 10.9138 12.001 11.1458C11.456 11.3768 11.638 11.7568 12.002 11.7568H23.972C24.534 11.7568 24.401 11.3278 23.955 11.0958C23.509 10.8648 18 8.34277 18 8.34277Z" fill="#FFAC33"/>
<path d="M26.457 11.7565C26.457 12.0485 26.221 12.2855 25.928 12.2855H10.071C9.77899 12.2855 9.54199 12.0485 9.54199 11.7565C9.54199 11.4645 9.77899 11.2275 10.071 11.2275L25.928 11.2305C26.221 11.2315 26.457 11.4645 26.457 11.7565V11.7565Z" fill="#FFD983"/>
</svg>
