<svg width="36" height="36" viewBox="0 0 36 36" fill="none" xmlns="http://www.w3.org/2000/svg">
<path d="M18 36C20.2091 36 22 35.3284 22 34.5C22 33.6716 20.2091 33 18 33C15.7909 33 14 33.6716 14 34.5C14 35.3284 15.7909 36 18 36Z" fill="#292F33"/>
<path d="M14.3389 10.7246C14.3389 10.7246 16.8939 34.9976 18.0009 34.9996C19.1069 35.0006 21.6609 10.7246 21.6609 10.7246H14.3389V10.7246Z" fill="#99AAB5"/>
<path d="M18 16C22.4183 16 26 12.4183 26 8C26 3.58172 22.4183 0 18 0C13.5817 0 10 3.58172 10 8C10 12.4183 13.5817 16 18 16Z" fill="#DD2E44"/>
</svg>
