<svg width="636" height="636" viewBox="0 0 636 636" fill="none" xmlns="http://www.w3.org/2000/svg">
<g opacity="0.4" filter="url(#filter0_f_1934_83491)">
<circle cx="365.239" cy="322.204" r="221.559" transform="rotate(-42.132 365.239 322.204)" fill="url(#paint0_linear_1934_83491)"/>
</g>
<g filter="url(#filter1_b_1934_83491)">
<circle cx="271.302" cy="272.16" r="271.302" fill="url(#paint1_linear_1934_83491)" fill-opacity="0.4"/>
</g>
<g clip-path="url(#clip0_1934_83491)">
<path d="M172.244 385.17H335.732C347.41 385.17 357.517 372.703 357.517 360.235C357.517 333.087 330.46 291.664 253.988 291.664C175.21 291.664 150.016 331.928 150.016 360.235C150.016 372.703 160.566 385.17 172.244 385.17Z" fill="url(#paint2_linear_1934_83491)"/>
<path d="M214.82 344.651C214.82 344.651 220.414 348.809 226.253 348.809C239.145 318.419 302.158 302.056 307.997 302.056C308.873 302.056 309.924 301.944 310.986 301.763C306.806 300.017 302.216 298.515 297.382 297.168C270.371 297.561 221.296 321.586 214.82 344.651Z" fill="#408CD9"/>
<path d="M221.874 366.469C242.835 366.469 259.827 359.492 259.827 350.885C259.827 342.278 242.835 335.3 221.874 335.3C200.914 335.3 183.922 342.278 183.922 350.885C183.922 359.492 200.914 366.469 221.874 366.469Z" fill="#292F33"/>
<path d="M207.277 185.691V347.768C207.277 351.215 209.893 353.029 213.116 353.029C216.339 353.029 218.955 351.215 218.955 347.768V185.691H207.277Z" fill="#FFAC33"/>
<path d="M207.277 179.457C207.277 165.742 217.174 158.293 229.272 162.906L284.543 183.982C296.635 188.595 296.635 196.144 284.543 200.751L229.272 221.827C217.174 226.447 207.277 218.997 207.277 205.283V179.457Z" fill="#DD2E44"/>
</g>
<defs>
<filter id="filter0_f_1934_83491" x="96.9839" y="53.9484" width="536.511" height="536.512" filterUnits="userSpaceOnUse" color-interpolation-filters="sRGB">
<feFlood flood-opacity="0" result="BackgroundImageFix"/>
<feBlend mode="normal" in="SourceGraphic" in2="BackgroundImageFix" result="shape"/>
<feGaussianBlur stdDeviation="23.3479" result="effect1_foregroundBlur_1934_83491"/>
</filter>
<filter id="filter1_b_1934_83491" x="-93.3915" y="-92.5334" width="729.388" height="729.388" filterUnits="userSpaceOnUse" color-interpolation-filters="sRGB">
<feFlood flood-opacity="0" result="BackgroundImageFix"/>
<feGaussianBlur in="BackgroundImage" stdDeviation="46.6957"/>
<feComposite in2="SourceAlpha" operator="in" result="effect1_backgroundBlur_1934_83491"/>
<feBlend mode="normal" in="SourceGraphic" in2="effect1_backgroundBlur_1934_83491" result="shape"/>
</filter>
<linearGradient id="paint0_linear_1934_83491" x1="153.592" y1="543.763" x2="619.975" y2="502.302" gradientUnits="userSpaceOnUse">
<stop stop-color="#BB0768"/>
<stop offset="1" stop-color="#4CA1F8"/>
</linearGradient>
<linearGradient id="paint1_linear_1934_83491" x1="34.5548" y1="130.205" x2="473.962" y2="438.864" gradientUnits="userSpaceOnUse">
<stop stop-color="#EFEFEF"/>
<stop offset="1" stop-color="white"/>
</linearGradient>
<linearGradient id="paint2_linear_1934_83491" x1="154.657" y1="385.17" x2="366.533" y2="343.372" gradientUnits="userSpaceOnUse">
<stop stop-color="#00469F"/>
<stop offset="1" stop-color="#1E79D6"/>
</linearGradient>
<clipPath id="clip0_1934_83491">
<rect width="210.199" height="224.415" fill="white" transform="translate(148.889 160.756)"/>
</clipPath>
</defs>
</svg>
