<svg xmlns="http://www.w3.org/2000/svg" xmlns:xlink="http://www.w3.org/1999/xlink" width="408" height="443" fill="none" xmlns:v="https://vecta.io/nano"><style><![CDATA[.B{fill:#fff}.C{fill-rule:evenodd}.D{fill:#0f1828}.E{fill:#00469f}.F{fill:#c6c9cc}.G{fill:#8a9099}.H{stroke-width:.345}.I{fill-opacity:.8}.J{stroke:#000}.K{stroke-opacity:.1}.L{fill:#232a38}.M{stroke-width:.23}.N{fill:#1c278e}.O{fill:#393e50}.P{fill:#4f5560}.Q{stroke-linecap:round}.R{stroke-linejoin:round}.S{stroke-dasharray:6.9 6.9}.T{color-interpolation-filters:sRGB}]]></style><g stroke-width=".69" class="J K"><circle cx="202.5" cy="221.5" r="202.155" class="S"/><circle cx="202.844" cy="221.846" r="162.483"/><circle cx="202.848" cy="221.846" r="121.776"/><circle cx="202.498" cy="221.5" r="73.825" class="S"/></g><g filter="url(#A)"><rect x="151.528" y="41.92" width="171.399" height="353.159" rx="26.688" stroke="#232a38" stroke-width="1.841" class="P"/><g clip-path="url(#D)"><path d="M316.227 48.939H157.512V392.652H316.227V48.939Z" class="B"/><path d="M316.021 49.15H157.73v37.673h158.291V49.15z" class="B"/><path d="M168.298 60.368h.679v-4.474h-.685l-1.178.837v.682l1.169-.831h.015v3.786zm2.902 0h.679v-4.474h-.686l-1.177.837v.682l1.168-.831h.016v3.786zm2.256-.692c.227 0 .406-.18.406-.406s-.179-.406-.406-.406-.406.18-.406.406.18.406.406.406zm0-2.26a.4.4 0 0 0 .406-.406c0-.226-.179-.406-.406-.406s-.406.18-.406.406a.4.4 0 0 0 .406.406zm2.313 2.952h.679v-4.474h-.685l-1.178.837v.682l1.168-.831h.016v3.786zm2.901 0h.679v-4.474h-.685l-1.178.837v.682l1.169-.831h.015v3.786z" class="D"/><path d="M300.603 61.109a1.72 1.72 0 0 1-.912-.158 1.07 1.07 0 0 1-.448-.448 1.71 1.71 0 0 1-.159-.913v-1.83a1.71 1.71 0 0 1 .159-.913 1.07 1.07 0 0 1 .448-.448 1.72 1.72 0 0 1 .912-.158h6.273c.313-.032.628.023.913.158a1.08 1.08 0 0 1 .448.448 1.74 1.74 0 0 1 .159.913v1.83a1.73 1.73 0 0 1-.159.913c-.101.191-.257.347-.448.448a1.72 1.72 0 0 1-.912.158h-6.274zm-.715-4.336a.65.65 0 0 0-.274.275c-.097.224-.134.47-.107.713v1.83c-.027.244.011.49.109.715.061.117.157.213.274.274.225.098.47.135.714.109h6.272a1.4 1.4 0 0 0 .713-.109.65.65 0 0 0 .275-.274c.097-.225.134-.471.108-.715v-1.83c.026-.244-.011-.49-.108-.715a.65.65 0 0 0-.275-.275c-.224-.097-.47-.133-.713-.106h-6.273c-.244-.027-.49.011-.715.108zm8.931 1.03s.634.323.634.847-.634.846-.634.846v-1.693z" fill="#000" fill-opacity=".36"/><path d="M306.878 57.052h-6.264c-.374 0-.676.303-.676.677v1.891c0 .374.302.677.676.677h6.264a.68.68 0 0 0 .678-.677v-1.891a.68.68 0 0 0-.678-.677z" class="D"/><path d="M287.575 60.956a.51.51 0 0 1-.508-.508v-3.513a.51.51 0 0 1 .508-.508h.253a.51.51 0 0 1 .359.149c.096.095.149.224.149.359v3.513c0 .135-.053.264-.149.359a.51.51 0 0 1-.359.149h-.253zm-1.99 0c-.134 0-.264-.053-.36-.149s-.148-.225-.148-.359v-2.497c0-.135.054-.264.148-.359s.226-.149.36-.149h.254c.135 0 .264.053.359.149a.51.51 0 0 1 .149.359v2.497a.51.51 0 0 1-.149.359c-.095.095-.224.149-.359.149h-.254zm-1.947 0a.51.51 0 0 1-.508-.508v-1.524a.51.51 0 0 1 .508-.508h.254a.51.51 0 0 1 .36.149c.094.095.148.224.148.359v1.524c0 .135-.054.264-.148.359a.51.51 0 0 1-.36.149h-.254zm-2.031 0c-.135 0-.264-.053-.359-.149s-.149-.225-.149-.359v-.677c0-.135.053-.264.149-.359s.224-.149.359-.149h.254a.51.51 0 0 1 .359.149c.096.095.148.224.148.359v.677c0 .135-.052.264-.148.359a.51.51 0 0 1-.359.149h-.254z" class="D"/><path d="M293.719 61.023c-.017 0-.035-.004-.051-.01s-.031-.017-.044-.029l-.852-.86c-.013-.013-.024-.028-.03-.045s-.011-.035-.01-.053.004-.036.012-.053a.12.12 0 0 1 .032-.044 1.46 1.46 0 0 1 1.886 0c.013.012.024.027.032.044s.011.034.011.053-.003.036-.01.053-.017.032-.031.045l-.85.86c-.012.013-.027.022-.044.029s-.033.01-.051.01zm1.497-1.51c-.034 0-.067-.013-.091-.037-.385-.349-.886-.542-1.405-.542s-1.021.193-1.406.542c-.025.024-.058.037-.093.037s-.067-.014-.092-.039l-.493-.498c-.012-.013-.022-.028-.029-.045s-.011-.035-.011-.053.004-.036.011-.053a.15.15 0 0 1 .029-.045 3.06 3.06 0 0 1 2.082-.818c.772 0 1.515.292 2.081.818.013.013.023.028.031.045s.01.035.01.053-.004.036-.01.053-.018.032-.031.045l-.489.498c-.012.012-.027.022-.043.029s-.034.01-.051.01h0zm1.136-1.146c-.034 0-.067-.013-.092-.037a3.69 3.69 0 0 0-5.082 0c-.024.024-.057.037-.092.037a.13.13 0 0 1-.093-.039l-.493-.498c-.013-.013-.023-.028-.03-.045s-.01-.035-.01-.053.003-.036.01-.053.017-.032.03-.045a4.65 4.65 0 0 1 3.218-1.293c1.199 0 2.352.463 3.217 1.293.013.013.023.028.03.045s.011.035.011.053-.004.036-.011.053-.017.032-.03.045l-.491.498c-.012.012-.026.022-.042.029s-.033.01-.05.01z" class="D"/><path d="M167.798 75.183l2.543 2.544.599-.599-1.947-1.947 1.947-1.947-.599-.595-2.543 2.544z" class="D"/><path d="M179.268 77.723v-5.368h-.96v5.368h.96zm.781-2.812c0 .569.368.949 1.097 1.12l.718.168c.383.097.529.219.529.45 0 .294-.279.476-.73.476-.468 0-.747-.201-.803-.562h-.911c.063.748.692 1.239 1.681 1.239.997 0 1.685-.502 1.685-1.246 0-.584-.309-.889-1.097-1.075l-.703-.156c-.387-.093-.566-.242-.566-.465 0-.286.268-.48.677-.48.432 0 .703.208.733.547h.863c-.022-.729-.651-1.228-1.577-1.228-.96 0-1.596.491-1.596 1.213zm3.884 2.813h.926v-2.266c0-.58.338-.967.896-.967.536 0 .811.331.811.882v2.351h.927v-2.541c0-.904-.51-1.477-1.381-1.477-.598 0-1.034.272-1.246.752h-.018v-2.102h-.915v5.368zm4.56 0h.926v-3.229h.774v-.703h-.788v-.324c0-.32.16-.487.513-.487.108 0 .216.011.294.022v-.647c-.116-.022-.316-.041-.499-.041-.855 0-1.22.361-1.22 1.127v.35h-.539v.703h.539v3.229zm3.534-.636c-.402 0-.67-.205-.67-.528 0-.312.257-.513.703-.543l.912-.056v.301c0 .476-.42.826-.945.826zm-.279.699c.506 0 1.001-.264 1.228-.692h.018v.629h.893v-2.716c0-.793-.636-1.31-1.614-1.31-1.005 0-1.633.528-1.674 1.265h.859c.059-.327.338-.539.777-.539.458 0 .737.238.737.651v.283l-1.042.059c-.959.059-1.499.48-1.499 1.179 0 .711.554 1.191 1.317 1.191zm3.85-2.362h-.011v-3.069h-.926v5.368h.926v-1.369l.312-.316 1.247 1.685h1.071l-1.644-2.247 1.577-1.697h-1.068l-1.484 1.644zm8.113 2.299h1.012l-1.905-5.368h-1.082l-1.905 5.368h.99l.457-1.388h1.976l.457 1.388zm-1.458-4.42h.026l.748 2.292h-1.525l.751-2.292zm3.902.476h-.926v4.115c0 .365-.145.502-.528.502-.023 0-.104 0-.123-.004v.707c.033.004.175.007.23.007.897 0 1.347-.398 1.347-1.198v-4.13zm-.465-.517c.29 0 .517-.223.517-.502s-.227-.506-.517-.506-.513.223-.513.506.227.502.513.502zm2.682 3.825c-.402 0-.67-.205-.67-.528 0-.312.257-.513.704-.543l.911-.056v.301c0 .476-.42.826-.945.826zm-.279.699c.506 0 1.001-.264 1.228-.692h.019v.629h.892v-2.716c0-.793-.636-1.31-1.615-1.31-1.004 0-1.632.528-1.673 1.265h.859c.059-.327.338-.539.778-.539.457 0 .736.238.736.651v.283l-1.042.059c-.959.059-1.499.48-1.499 1.179 0 .711.554 1.191 1.317 1.191zm4.36 0c.576 0 1.03-.294 1.246-.737h.015v.673h.907v-5.368h-.925v2.087h-.023c-.208-.435-.655-.729-1.22-.729-.993 0-1.637.789-1.637 2.035 0 1.254.644 2.039 1.637 2.039zm.279-3.311c.584 0 .967.502.967 1.276 0 .781-.383 1.276-.967 1.276-.599 0-.967-.491-.967-1.276s.372-1.276.967-1.276z" class="D"/><path d="M293.659 78.403l-2.419-2.42a2.54 2.54 0 0 1-3.267-3.866 2.54 2.54 0 0 1 3.865 3.267l2.419 2.42-.598.599h0zm-3.891-6.183c-.802 0-1.495.563-1.659 1.349s.249 1.578.985 1.898 1.596.077 2.058-.579.399-1.547-.15-2.133l.257.254-.29-.288-.005-.005a1.68 1.68 0 0 0-1.196-.496z" class="D"/><path d="M308.178 77.722h-7.619v-.847h7.619v.847zm0-2.116h-7.619v-.847h7.619v.847zm0-2.117h-7.619v-.847h7.619v.847z" class="D"/><path d="M316.021 49.15H157.73v37.673h158.291V49.15z" stroke="#ededed" class="M"/><path d="M289.569 95.712H167.253c-1.87 0-3.386 1.516-3.386 3.386v9.313c0 1.87 1.516 3.386 3.386 3.386h122.316c1.87 0 3.386-1.516 3.386-3.386v-9.312c0-1.87-1.516-3.386-3.386-3.386z" class="E"/><path d="M168.504 105.872h.695v-1.981h2.297v1.981h.694v-4.474h-.694v1.892h-2.297v-1.892h-.695v4.474zm4.79-3.764c.22 0 .39-.173.39-.384s-.17-.388-.39-.388a.39.39 0 0 0-.391.388c0 .211.174.384.391.384zm-.335 3.764h.67v-3.261h-.67v3.261zm2.731 0h.694v-4.474h-.694v4.474zm2.66.065c.768 0 1.326-.409 1.326-1.004v-.004c0-.468-.254-.731-.92-.886l-.53-.121c-.351-.084-.484-.22-.484-.422v-.003c0-.26.226-.431.586-.431.378 0 .601.199.642.484l.003.021h.629l-.003-.036c-.034-.555-.499-.987-1.271-.987-.75 0-1.259.4-1.259.983v.004c0 .474.307.771.927.914l.533.121c.351.084.469.204.469.415v.004c0 .263-.242.43-.645.43-.412 0-.636-.176-.698-.477l-.006-.031h-.663l.003.028c.068.595.545.998 1.361.998zm1.872-.065h.67v-1.888c0-.509.306-.862.768-.862.472 0 .744.322.744.862v1.888h.67v-2.015c0-.788-.459-1.309-1.156-1.309-.487 0-.837.22-1.011.599h-.015v-1.749h-.67v4.474zm3.698 0h.673v-2.728h.651v-.533h-.663v-.335c0-.289.142-.434.443-.434.083 0 .167.006.232.015v-.496c-.09-.015-.238-.028-.375-.028-.663 0-.961.298-.961.93v.348h-.449v.533h.449v2.728zm2.629.059c.431 0 .809-.223.998-.574h.012v.515h.673v-2.248c0-.654-.505-1.076-1.302-1.076-.803 0-1.289.432-1.336.993l-.003.034h.632l.007-.028c.055-.26.294-.444.682-.444.415 0 .647.217.647.577v.245l-.886.053c-.772.046-1.212.393-1.212.961v.006c0 .586.437.986 1.088.986zm-.412-1.002v-.006c0-.276.223-.453.626-.477l.796-.05v.254c0 .425-.356.745-.827.745-.36 0-.595-.18-.595-.466zm2.783.943h.67v-1.175l.279-.276 1.107 1.451h.778l-1.392-1.854 1.339-1.407h-.787l-1.309 1.391h-.015v-2.604h-.67v4.474zm3.55.047c.226 0 .406-.18.406-.407a.4.4 0 1 0-.815 0c0 .227.179.407.409.407zm2.08-.047h.694v-1.981h2.297v1.981h.694v-4.474h-.694v1.892h-2.297v-1.892h-.694v4.474zm5.828.065c.932 0 1.547-.645 1.547-1.696v-.006c0-1.045-.62-1.687-1.551-1.687-.926 0-1.543.645-1.543 1.687v.006c0 1.048.61 1.696 1.547 1.696zm.003-.561c-.524 0-.865-.412-.865-1.135v-.006c0-.713.344-1.125.858-1.125.524 0 .865.412.865 1.125v.006c0 .72-.334 1.135-.858 1.135zm2.69.496h.692l.679-2.443h.015l.685 2.443h.698l.892-3.261h-.663l-.595 2.566h-.016l-.682-2.566h-.645l-.678 2.566h-.013l-.595-2.566h-.669l.895 3.261zm6.578.065c.468 0 .828-.236 1.023-.617h.013v.552h.672v-4.474h-.672v1.767h-.013c-.195-.384-.567-.617-1.029-.617-.818 0-1.358.652-1.358 1.69v.003c0 1.039.534 1.696 1.364 1.696zm.177-.576c-.53 0-.856-.425-.856-1.12v-.003c0-.688.329-1.116.856-1.116.502 0 .862.44.862 1.116v.003c0 .679-.357 1.12-.862 1.12zm3.621.576c.933 0 1.546-.645 1.546-1.696v-.006c0-1.045-.619-1.687-1.549-1.687s-1.544.645-1.544 1.687v.006c0 1.048.611 1.696 1.547 1.696zm.003-.561c-.524 0-.865-.412-.865-1.135v-.006c0-.713.344-1.125.859-1.125.523 0 .865.412.865 1.125v.006c0 .72-.335 1.135-.859 1.135zm3.735 1.584c.639 0 .98-.26 1.221-.936l1.215-3.413h-.706l-.821 2.653h-.022l-.822-2.653h-.725l1.187 3.264-.056.155c-.111.317-.285.4-.601.4-.09 0-.167-.012-.22-.025v.524c.08.016.22.031.35.031zm4.104-1.023c.934 0 1.547-.645 1.547-1.696v-.006c0-1.045-.62-1.687-1.549-1.687s-1.544.645-1.544 1.687v.006c0 1.048.61 1.696 1.546 1.696zm.003-.561c-.524 0-.864-.412-.864-1.135v-.006c0-.713.344-1.125.859-1.125.523 0 .864.412.864 1.125v.006c0 .72-.335 1.135-.859 1.135zm3.172.561c.496 0 .827-.226.998-.555h.015v.49h.673v-3.261h-.673v1.903c0 .508-.303.847-.774.847s-.695-.273-.695-.766v-1.984h-.67v2.114c0 .75.41 1.212 1.126 1.212zm3.834-.065h.673v-2.728h.651v-.533h-.663v-.335c0-.289.142-.434.443-.434.083 0 .167.006.232.015v-.496c-.09-.015-.238-.028-.375-.028-.663 0-.961.298-.961.93v.348h-.449v.533h.449v2.728zm2.957.065c.791 0 1.293-.471 1.399-.989l.006-.034h-.635l-.01.025c-.084.245-.347.449-.744.449-.533 0-.871-.359-.883-.976h2.309v-.226c0-.98-.561-1.638-1.475-1.638s-1.504.683-1.504 1.702v.004c0 1.029.58 1.683 1.537 1.683zm-.03-2.84c.437 0 .753.276.809.841h-1.637c.059-.546.394-.841.828-.841zm3.385 2.84c.79 0 1.292-.471 1.398-.989l.006-.034h-.636l-.009.025c-.083.245-.347.449-.744.449-.533 0-.871-.359-.883-.976h2.309v-.226c0-.98-.561-1.638-1.475-1.638s-1.504.683-1.504 1.702v.004c0 1.029.58 1.683 1.538 1.683zm-.031-2.84c.437 0 .753.276.809.841h-1.637c.059-.546.394-.841.828-.841zm2.018 2.775h.669v-4.474h-.669v4.474zm3.791.065c.136 0 .263-.015.341-.028v-.517c-.05.006-.108.012-.18.012-.282 0-.431-.099-.431-.431v-1.829h.611v-.533h-.611v-.85h-.685v.85h-.468v.533h.468v1.869c0 .651.31.924.955.924zm2.216 0c.933 0 1.547-.645 1.547-1.696v-.006c0-1.045-.62-1.687-1.55-1.687s-1.544.645-1.544 1.687v.006c0 1.048.611 1.696 1.547 1.696zm.004-.561c-.524 0-.866-.412-.866-1.135v-.006c0-.713.345-1.125.859-1.125.524 0 .865.412.865 1.125v.006c0 .72-.335 1.135-.858 1.135zm3.279.561c.468 0 .828-.236 1.023-.617h.013v.552h.672v-4.474h-.672v1.767h-.013c-.195-.384-.567-.617-1.029-.617-.819 0-1.358.652-1.358 1.69v.003c0 1.039.533 1.696 1.364 1.696zm.177-.576c-.53 0-.856-.425-.856-1.12v-.003c0-.688.329-1.116.856-1.116.502 0 .862.44.862 1.116v.003c0 .679-.357 1.12-.862 1.12zm3.177.57c.431 0 .809-.223.998-.574h.013v.515h.672v-2.248c0-.654-.505-1.076-1.302-1.076-.803 0-1.289.432-1.335.993l-.004.034h.633l.006-.028c.056-.26.295-.444.682-.444.415 0 .648.217.648.577v.245l-.887.053c-.772.046-1.212.393-1.212.961v.006c0 .586.437.986 1.088.986zm-.412-1.002v-.006c0-.276.223-.453.626-.477l.797-.05v.254c0 .425-.357.745-.828.745-.359 0-.595-.18-.595-.466zm3.125 2.031c.638 0 .979-.26 1.221-.936l1.215-3.413h-.707l-.821 2.653h-.022l-.821-2.653h-.726l1.187 3.264-.055.155c-.112.317-.285.4-.602.4-.09 0-.167-.012-.22-.025v.524c.081.016.22.031.351.031zm3.636-2.492h.642v-.177c0-.313.114-.481.514-.716.409-.245.65-.583.65-1.061v-.002c0-.667-.554-1.151-1.369-1.151-.899 0-1.364.533-1.404 1.2l-.003.037h.641l.003-.028c.034-.378.301-.638.729-.638.422 0 .7.254.7.607v.003c0 .317-.133.496-.508.722-.425.255-.608.534-.598.955l.003.249zm.325 1.438a.4.4 0 0 0 .409-.403c0-.226-.176-.4-.409-.4-.226 0-.406.174-.406.4a.4.4 0 0 0 .406.403z" class="B"/><path d="M302.9 103.755c0 .351-.284.635-.634.635s-.635-.284-.635-.635.284-.635.635-.635.634.284.634.635zm2.54 0c0 .351-.285.635-.635.635s-.634-.284-.634-.635.284-.635.634-.635.635.284.635.635zm1.905.635c.35 0 .635-.284.635-.635s-.285-.635-.635-.635-.636.284-.636.635.285.635.636.635z" class="C F"/><path d="M281.013 120.687h.543v-3.579h-.548l-.942.67v.546l.934-.665h.013v3.028zm2.72.067c.858 0 1.361-.721 1.361-1.862 0-1.134-.506-1.85-1.361-1.85s-1.366.719-1.366 1.852c0 1.141.508 1.86 1.366 1.86zm0-.466c-.511 0-.803-.531-.803-1.394 0-.851.297-1.386.803-1.386s.802.533.802 1.386c0 .866-.291 1.394-.802 1.394zm2.879.399h.536v-1.612c0-.335.226-.583.543-.583.302 0 .494.191.494.492v1.703h.525v-1.629c0-.33.221-.566.539-.566s.498.194.498.531v1.664h.539v-1.793c0-.518-.338-.861-.854-.861-.372 0-.679.194-.813.512h-.013c-.104-.325-.367-.512-.728-.512a.77.77 0 0 0-.742.484h-.013v-.439h-.511v2.609zm4.208 0h.536v-2.609h-.536v2.609zm.269-2.991c.173 0 .312-.136.312-.305a.31.31 0 0 0-.312-.308.31.31 0 0 0-.311.308c0 .169.139.305.311.305zm.815 2.991h.536v-1.52c0-.404.243-.672.621-.672.371 0 .555.216.555.608v1.584h.537v-1.689c0-.597-.329-.965-.905-.965-.401 0-.678.184-.82.482h-.013v-.437h-.511v2.609zm4.712-.379c-.287 0-.476-.149-.476-.377 0-.223.181-.365.501-.387l.642-.04v.206c0 .34-.293.598-.667.598zm-.148.424c.342 0 .671-.183.823-.474h.012v.429h.514v-1.798c0-.523-.404-.858-1.037-.858-.645 0-1.047.347-1.076.818h.505c.048-.233.242-.381.551-.381.327 0 .523.173.523.464v.2l-.714.042c-.619.035-.97.315-.97.772 0 .468.358.786.869.786zm2.98-.479c-.411 0-.679-.332-.679-.878s.268-.888.679-.888c.419 0 .695.353.695.888s-.276.878-.695.878zm.005 1.416c.745 0 1.226-.406 1.226-1.029v-2.562h-.521v.447h-.01a.91.91 0 0 0-.831-.489c-.67 0-1.096.516-1.096 1.337 0 .813.429 1.324 1.084 1.324.372 0 .679-.186.826-.469h.009v.43c0 .357-.248.595-.667.595-.305 0-.543-.144-.619-.363h-.539c.067.452.524.779 1.138.779zm2.877-.932c.747 0 1.238-.514 1.238-1.354s-.494-1.352-1.238-1.352-1.237.514-1.237 1.352.491 1.354 1.237 1.354zm0-.442c-.419 0-.692-.332-.692-.912s.273-.91.692-.91.692.332.692.91-.271.912-.692.912z" class="G"/><path d="M289.569 189.683H167.253c-1.87 0-3.386 1.515-3.386 3.386v16.932c0 1.87 1.516 3.386 3.386 3.386h122.316c1.87 0 3.386-1.516 3.386-3.386v-16.932c0-1.871-1.516-3.386-3.386-3.386z" class="E"/><path d="M168.17 199.842h.729l.412-1.209h1.724l.409 1.209h.728l-1.624-4.474h-.75l-1.628 4.474zm1.997-3.732h.012l.667 1.964h-1.349l.67-1.964zm2.446 3.732h.669v-4.474h-.669v4.474zm1.382 0h.67v-1.887c0-.51.307-.863.768-.863.472 0 .744.322.744.863v1.887h.67v-2.015c0-.788-.459-1.309-1.156-1.309-.487 0-.837.221-1.011.599h-.015v-1.749h-.67v4.474zm4.461.059c.431 0 .809-.223.998-.574h.012v.515h.673v-2.248c0-.654-.505-1.076-1.302-1.076-.803 0-1.289.431-1.336.992l-.003.035h.632l.007-.028c.055-.26.294-.444.682-.444.415 0 .647.218.647.577v.245l-.886.053c-.772.046-1.212.394-1.212.961v.006c0 .586.437.986 1.088.986zm-.412-1.002v-.006c0-.276.223-.452.626-.477l.796-.049v.253c0 .426-.356.744-.827.744-.36 0-.595-.18-.595-.465zm2.746.943h.67v-2.015c0-.422.282-.735.679-.735.378 0 .616.242.616.62v2.13h.658v-2.04c0-.413.275-.71.672-.71s.623.245.623.67v2.08h.673V197.6c0-.654-.422-1.082-1.066-1.082-.465 0-.85.245-1.017.643h-.016a.89.89 0 0 0-.908-.643c-.428 0-.759.227-.899.568h-.015v-.505h-.67v3.261zm6.457.065c.468 0 .828-.235 1.023-.617h.013v.552h.672v-4.474h-.672v1.768h-.013c-.195-.384-.567-.618-1.029-.618-.818 0-1.358.652-1.358 1.69v.003c0 1.038.533 1.696 1.364 1.696zm.177-.577c-.53 0-.856-.424-.856-1.119v-.003c0-.688.329-1.116.856-1.116.502 0 .862.44.862 1.116v.003c0 .679-.357 1.119-.862 1.119zm3.329.577c.496 0 .828-.226.998-.555h.016v.49h.672v-3.261h-.672v1.903c0 .509-.304.846-.775.846-.465 0-.695-.272-.695-.766v-1.983h-.669v2.114c0 .75.409 1.212 1.125 1.212zm2.375-.065h.669v-4.474h-.669v4.474zm1.72-3.764c.22 0 .391-.173.391-.385s-.171-.387-.391-.387-.39.174-.39.387.173.385.39.385zm-.335 3.764h.67v-3.261h-.67v3.261zm1.386 0h.67v-4.474h-.67v4.474zm1.383 0h.669v-4.474h-.669v4.474zm2.315.059c.431 0 .809-.223.998-.574h.013v.515h.672v-2.248c0-.654-.505-1.076-1.302-1.076-.802 0-1.289.431-1.336.992l-.003.035h.633l.006-.028c.056-.26.294-.444.682-.444.415 0 .648.218.648.577v.245l-.887.053c-.772.046-1.212.394-1.212.961v.006c0 .586.437.986 1.088.986zm-.412-1.002v-.006c0-.276.223-.452.626-.477l.797-.049v.253c0 .426-.357.744-.828.744-.359 0-.595-.18-.595-.465zm2.771.943h.67v-1.887c0-.51.307-.863.769-.863.471 0 .743.322.743.863v1.887h.67v-2.015c0-.788-.459-1.309-1.156-1.309-.487 0-.837.221-1.011.599h-.015v-1.749h-.67v4.474zm3.884.046c.227 0 .407-.179.407-.406a.4.4 0 1 0-.816 0c0 .227.18.406.409.406zm2.08-.046h2.778v-.599h-2.083v-3.875h-.695v4.474zm4.604.065c.79 0 1.293-.471 1.398-.989l.006-.034h-.635l-.01.025c-.083.244-.347.449-.744.449-.533 0-.871-.359-.883-.976h2.309v-.227c0-.979-.561-1.637-1.475-1.637s-1.504.683-1.504 1.702v.004c0 1.028.58 1.683 1.538 1.683zm-.031-2.84c.437 0 .753.277.809.841h-1.637c.059-.547.394-.841.828-.841zm3.137 2.84c.136 0 .263-.016.341-.028v-.518l-.18.013c-.282 0-.431-.1-.431-.431v-1.829h.611v-.533h-.611v-.85h-.685v.85h-.468v.533h.468v1.869c0 .651.31.924.955.924zm.734-2.952h.472l.452-1.587h-.669l-.255 1.587zm2.276 2.952c.768 0 1.327-.409 1.327-1.004v-.004c0-.468-.255-.731-.921-.887l-.53-.12c-.351-.084-.484-.22-.484-.422v-.003c0-.26.226-.431.586-.431.378 0 .602.199.642.484l.003.021h.629l-.003-.037c-.034-.555-.499-.986-1.271-.986-.75 0-1.258.4-1.258.983v.003c0 .474.306.772.926.915l.534.121c.35.083.468.204.468.415v.004c0 .262-.242.43-.645.43-.413 0-.636-.177-.698-.477l-.006-.031h-.663l.003.028c.068.595.546.998 1.361.998zm3.137-.065h.669v-2.015c0-.422.283-.735.679-.735.379 0 .617.242.617.62v2.13h.657v-2.04c0-.413.276-.71.673-.71s.623.245.623.67v2.08h.673V197.6c0-.654-.422-1.082-1.066-1.082-.466 0-.85.245-1.018.643h-.015c-.13-.409-.459-.643-.908-.643-.428 0-.76.227-.899.568h-.016v-.505h-.669v3.261zm6.631.065c.79 0 1.292-.471 1.398-.989l.006-.034h-.636l-.009.025c-.084.244-.347.449-.744.449-.533 0-.871-.359-.883-.976h2.309v-.227c0-.979-.561-1.637-1.476-1.637s-1.503.683-1.503 1.702v.004c0 1.028.58 1.683 1.538 1.683zm-.032-2.84c.438 0 .754.277.81.841h-1.637c.059-.547.394-.841.827-.841zm3.386 2.84c.79 0 1.293-.471 1.398-.989l.006-.034h-.635l-.01.025c-.084.244-.347.449-.744.449-.533 0-.871-.359-.883-.976h2.309v-.227c0-.979-.561-1.637-1.475-1.637s-1.504.683-1.504 1.702v.004c0 1.028.58 1.683 1.538 1.683zm-.031-2.84c.437 0 .753.277.809.841h-1.637c.059-.547.394-.841.828-.841zm3.137 2.84c.136 0 .263-.016.341-.028v-.518l-.18.013c-.282 0-.431-.1-.431-.431v-1.829h.611v-.533h-.611v-.85h-.685v.85h-.468v.533h.468v1.869c0 .651.31.924.955.924zm3.329 0a2.29 2.29 0 0 0 .341-.028v-.518l-.18.013c-.282 0-.431-.1-.431-.431v-1.829h.611v-.533h-.611v-.85h-.685v.85h-.468v.533h.468v1.869c0 .651.31.924.955.924zm2.216 0c.934 0 1.547-.645 1.547-1.696v-.006c0-1.044-.62-1.687-1.55-1.687s-1.543.646-1.543 1.687v.006c0 1.048.61 1.696 1.546 1.696zm.004-.561c-.524 0-.865-.412-.865-1.135v-.006c0-.713.344-1.125.858-1.125.524 0 .865.412.865 1.125v.006c0 .72-.335 1.135-.858 1.135zm3.279.561a1.1 1.1 0 0 0 1.023-.617h.013v.552h.672v-4.474h-.672v1.768h-.013c-.195-.384-.567-.618-1.029-.618-.818 0-1.358.652-1.358 1.69v.003c0 1.038.534 1.696 1.364 1.696zm.177-.577c-.53 0-.855-.424-.855-1.119v-.003c0-.688.328-1.116.855-1.116.502 0 .862.44.862 1.116v.003c0 .679-.357 1.119-.862 1.119zm3.177.571c.431 0 .809-.223.999-.574h.012v.515h.673v-2.248c0-.654-.506-1.076-1.303-1.076-.802 0-1.289.431-1.335.992l-.004.035h.633l.006-.028c.056-.26.295-.444.682-.444.415 0 .648.218.648.577v.245l-.887.053c-.771.046-1.212.394-1.212.961v.006c0 .586.437.986 1.088.986zm-.412-1.002v-.006c0-.276.223-.452.626-.477l.797-.049v.253c0 .426-.356.744-.828.744-.359 0-.595-.18-.595-.465zm3.125 2.032c.638 0 .979-.261 1.221-.937l1.215-3.413h-.707l-.821 2.653h-.022l-.821-2.653h-.726l1.188 3.264-.056.155c-.112.317-.285.399-.601.399-.09 0-.168-.012-.22-.024v.525c.08.015.22.031.35.031zm3.636-2.493h.642v-.177c0-.313.114-.481.514-.716.409-.245.651-.583.651-1.061v-.003c0-.666-.555-1.15-1.37-1.15-.899 0-1.364.533-1.404 1.2l-.003.037h.641l.003-.028c.035-.379.301-.638.729-.638.422 0 .701.254.701.607v.003c0 .316-.134.496-.509.723-.425.254-.607.533-.598.954l.003.249zm.326 1.438c.232 0 .408-.176.408-.403s-.176-.399-.408-.399-.407.172-.407.399a.4.4 0 0 0 .407.403zm5.359.04c.989 0 1.73-.598 1.869-1.488l.003-.031h-.687l-.01.028c-.168.568-.58.877-1.175.877-.827 0-1.364-.663-1.364-1.699v-.003c0-1.035.533-1.692 1.364-1.692.602 0 1.017.319 1.166.844l.019.06h.687l-.006-.028c-.139-.882-.88-1.49-1.866-1.49-1.267 0-2.074.886-2.074 2.306v.003c0 1.421.807 2.313 2.074 2.313zm3.373-.015c.43 0 .808-.223.998-.574h.013v.515h.672v-2.248c0-.654-.505-1.076-1.302-1.076-.803 0-1.289.431-1.336.992l-.003.035h.633l.005-.028c.056-.26.295-.444.682-.444.416 0 .649.218.649.577v.245l-.887.053c-.772.046-1.213.394-1.213.961v.006c0 .586.438.986 1.089.986zm-.412-1.002v-.006c0-.276.223-.452.626-.477l.797-.049v.253c0 .426-.357.744-.828.744-.36 0-.595-.18-.595-.465zm2.746.943h.67v-1.9c0-.509.303-.85.774-.85.465 0 .695.275.695.766v1.984h.672v-2.111c0-.751-.412-1.213-1.127-1.213-.493 0-.828.224-.999.555h-.015v-.492h-.67v3.261zm5.134 1.089c.638 0 .978-.261 1.221-.937l1.215-3.413h-.707l-.821 2.653h-.021l-.823-2.653h-.725l1.187 3.264-.055.155c-.111.317-.286.399-.602.399a1.01 1.01 0 0 1-.22-.024v.525a2.12 2.12 0 0 0 .351.031zm4.104-1.024c.933 0 1.547-.645 1.547-1.696v-.006c0-1.044-.62-1.687-1.55-1.687s-1.544.646-1.544 1.687v.006c0 1.048.611 1.696 1.547 1.696zm.003-.561c-.524 0-.865-.412-.865-1.135v-.006c0-.713.344-1.125.859-1.125.524 0 .864.412.864 1.125v.006c0 .72-.334 1.135-.858 1.135zm3.171.561c.496 0 .828-.226.998-.555h.015v.49h.674v-3.261h-.674v1.903c0 .509-.303.846-.774.846-.465 0-.695-.272-.695-.766v-1.983h-.669v2.114c0 .75.409 1.212 1.125 1.212zm-107.38 7.619c.784 0 1.329-.502 1.401-1.156l.003-.022h-.645l-.003.024c-.081.355-.344.593-.756.593-.518 0-.862-.419-.862-1.132v-.003c0-.697.338-1.131.859-1.131.437 0 .685.27.756.589l.006.024h.639l-.003-.021c-.056-.614-.565-1.154-1.405-1.154-.93 0-1.537.655-1.537 1.687v.003c0 1.045.595 1.699 1.547 1.699zm3.279 0c.933 0 1.547-.644 1.547-1.696v-.006c0-1.044-.62-1.687-1.55-1.687s-1.543.646-1.543 1.687v.006c0 1.049.61 1.696 1.546 1.696zm.003-.561c-.523 0-.864-.412-.864-1.135v-.006c0-.712.344-1.125.858-1.125.524 0 .865.413.865 1.125v.006c0 .72-.335 1.135-.859 1.135zm2.062.497h.669v-2.016c0-.421.283-.735.679-.735.379 0 .617.242.617.62v2.131h.657v-2.041c0-.412.276-.71.673-.71s.623.245.623.67v2.081h.673v-2.243c0-.654-.422-1.082-1.067-1.082-.465 0-.849.246-1.016.643h-.016c-.13-.409-.459-.643-.908-.643-.428 0-.76.227-.899.568h-.016v-.505h-.669v3.262zm6.631.064c.79 0 1.292-.471 1.398-.989l.006-.034h-.636l-.009.025c-.084.245-.347.449-.744.449-.533 0-.871-.359-.883-.976h2.309v-.227c0-.979-.561-1.637-1.476-1.637s-1.503.683-1.503 1.702v.004c0 1.029.58 1.683 1.538 1.683zm-.031-2.84c.437 0 .753.277.809.841h-1.637c.059-.546.394-.841.828-.841zm2.783 1.371h.642v-.177c0-.313.115-.481.515-.716.409-.245.65-.583.65-1.061v-.003c0-.666-.554-1.15-1.37-1.15-.899 0-1.364.533-1.404 1.2l-.003.037h.642l.003-.028c.034-.378.3-.638.728-.638.422 0 .701.254.701.607v.003c0 .317-.133.496-.509.723-.424.255-.607.533-.598.954l.003.249zm.326 1.439a.4.4 0 0 0 .409-.404c0-.226-.177-.399-.409-.399s-.406.173-.406.399a.4.4 0 0 0 .406.404z" class="B"/><path d="M302.9 201.536c0 .35-.284.635-.634.635s-.635-.285-.635-.635.284-.636.635-.636.634.285.634.636zm2.54 0c0 .35-.285.635-.635.635s-.634-.285-.634-.635.284-.636.634-.636.635.285.635.636zm1.905.635c.35 0 .635-.285.635-.635s-.285-.636-.635-.636-.636.285-.636.636.285.635.636.635z" class="C F"/><path d="M286.553 222.277h.543v-3.579h-.548l-.943.669v.546l.935-.665h.013v3.029zm1.386-2.531v.005h.526v-.007c0-.371.295-.654.686-.654.373 0 .66.252.66.57 0 .28-.114.469-.55.923l-1.292 1.317v.377h2.448v-.469h-1.7v-.012l.895-.9c.524-.537.748-.846.748-1.263 0-.568-.509-1.002-1.191-1.002-.711 0-1.23.472-1.23 1.115zm3.99 2.531h.536v-1.612c0-.335.226-.583.543-.583.303 0 .493.191.493.491v1.704h.526v-1.63c0-.329.221-.565.538-.565s.499.193.499.53v1.665h.538v-1.793c0-.519-.338-.861-.853-.861-.373 0-.68.193-.814.511h-.012c-.104-.325-.367-.511-.729-.511-.352 0-.625.193-.742.484h-.012v-.439h-.511v2.609zm4.209 0h.536v-2.609h-.536v2.609zm.267-2.991c.174 0 .312-.137.312-.305s-.138-.308-.312-.308-.309.137-.309.308.138.305.309.305zm.816 2.991h.535v-1.52c0-.405.244-.673.621-.673s.556.217.556.608v1.585h.538v-1.689c0-.598-.331-.965-.905-.965-.403 0-.68.183-.822.481h-.012v-.436h-.511v2.609zm4.713-.379c-.289 0-.476-.15-.476-.377s.18-.365.499-.388l.643-.039v.206c0 .339-.292.598-.666.598zm-.15.423c.343 0 .672-.183.823-.473h.013v.429h.514v-1.799c0-.523-.405-.857-1.038-.857-.643 0-1.046.347-1.076.818h.506c.047-.233.241-.382.551-.382.328 0 .523.174.523.464v.201l-.714.042c-.62.035-.969.315-.969.771 0 .469.357.786.867.786zm2.982-.478c-.413 0-.68-.332-.68-.879s.267-.887.68-.887.694.352.694.887-.276.879-.694.879zm.005 1.416c.743 0 1.224-.407 1.224-1.029v-2.562h-.521v.446h-.01c-.159-.303-.461-.488-.83-.488-.67 0-1.096.516-1.096 1.336 0 .814.428 1.324 1.083 1.324.372 0 .68-.185.826-.468h.01v.429c0 .357-.248.595-.666.595-.306 0-.544-.143-.621-.362h-.538c.067.452.523.779 1.139.779zm2.876-.933c.746 0 1.237-.513 1.237-1.354s-.493-1.351-1.237-1.351-1.238.513-1.238 1.351.491 1.354 1.238 1.354zm0-.441c-.42 0-.692-.333-.692-.913s.272-.91.692-.91.691.332.691.91-.269.913-.691.913z" class="G"/><path d="M289.989 339.952H167.672c-1.87 0-3.386 1.516-3.386 3.386v9.313c0 1.87 1.516 3.386 3.386 3.386h122.317a3.39 3.39 0 0 0 3.386-3.386v-9.313a3.39 3.39 0 0 0-3.386-3.386z" class="E"/><path d="M170.456 350.185c1.06 0 1.705-.518 1.705-1.333v-.003c0-.691-.396-1.067-1.32-1.262l-.49-.102c-.558-.121-.812-.326-.812-.661v-.003c0-.39.353-.654.908-.657.53 0 .89.252.952.667l.003.043h.676l-.003-.053c-.047-.75-.686-1.259-1.619-1.259-.945 0-1.618.524-1.621 1.287v.003c0 .664.425 1.067 1.302 1.253l.487.102c.592.13.837.325.837.685v.003c0 .419-.378.688-.977.688s-1.01-.257-1.072-.67l-.006-.04h-.676l.003.047c.056.787.719 1.265 1.723 1.265zm3.643-.01c.79 0 1.292-.471 1.398-.988l.006-.034h-.635l-.01.024c-.083.246-.347.449-.744.449-.533 0-.871-.359-.883-.976h2.309v-.226c0-.98-.561-1.637-1.475-1.637s-1.504.682-1.504 1.702v.003c0 1.029.58 1.683 1.538 1.683zm-.031-2.839c.437 0 .753.276.809.84h-1.637c.059-.545.394-.84.828-.84zm3.385 2.839c.79 0 1.293-.471 1.398-.988l.006-.034h-.635l-.01.024c-.083.246-.347.449-.744.449-.533 0-.871-.359-.883-.976h2.309v-.226c0-.98-.561-1.637-1.475-1.637s-1.504.682-1.504 1.702v.003c0 1.029.58 1.683 1.538 1.683zm-.031-2.839c.437 0 .753.276.809.84h-1.637c.059-.545.394-.84.828-.84zm3.667 3.863c.639 0 .98-.261 1.221-.937l1.216-3.413h-.707l-.822 2.653h-.021l-.822-2.653h-.725l1.187 3.264-.056.156c-.111.316-.285.399-.601.399-.09 0-.168-.012-.22-.024v.524c.08.015.22.031.35.031zm4.104-1.024c.933 0 1.547-.645 1.547-1.696v-.006c0-1.044-.62-1.686-1.55-1.686s-1.544.645-1.544 1.686v.006c0 1.048.611 1.696 1.547 1.696zm.003-.561c-.523 0-.864-.412-.864-1.135v-.006c0-.713.344-1.125.858-1.125.524 0 .865.412.865 1.125v.006c0 .72-.335 1.135-.859 1.135zm3.172.561c.496 0 .827-.225.998-.554h.015v.489h.673v-3.261h-.673v1.904c0 .508-.304.846-.775.846-.465 0-.694-.273-.694-.766v-1.984h-.67v2.114c0 .75.409 1.212 1.126 1.212zm4.86 0c.769 0 1.327-.409 1.327-1.004v-.003c0-.468-.254-.732-.921-.887l-.53-.12c-.35-.084-.483-.221-.483-.423v-.003c0-.26.226-.43.586-.43.378 0 .601.198.641.483l.003.022h.63l-.004-.037c-.034-.555-.499-.986-1.27-.986-.751 0-1.259.4-1.259.982v.004c0 .475.307.772.927.915l.533.121c.35.083.468.204.468.415v.003c0 .263-.242.431-.645.431-.412 0-.635-.177-.697-.477l-.006-.032h-.664l.003.028c.068.596.546.998 1.361.998zm3.249 0c.933 0 1.547-.645 1.547-1.696v-.006c0-1.044-.62-1.686-1.55-1.686s-1.544.645-1.544 1.686v.006c0 1.048.611 1.696 1.547 1.696zm.003-.561c-.524 0-.865-.412-.865-1.135v-.006c0-.713.344-1.125.859-1.125.524 0 .865.412.865 1.125v.006c0 .72-.335 1.135-.859 1.135zm3.463.561c.933 0 1.546-.645 1.546-1.696v-.006c0-1.044-.619-1.686-1.55-1.686-.926 0-1.543.645-1.543 1.686v.006c0 1.048.61 1.696 1.547 1.696zm.003-.561c-.524 0-.865-.412-.865-1.135v-.006c0-.713.344-1.125.858-1.125.524 0 .866.412.866 1.125v.006c0 .72-.335 1.135-.859 1.135zm2.061.496h.67v-1.9c0-.509.303-.85.775-.85.465 0 .694.277.694.766v1.984h.673v-2.111c0-.75-.413-1.212-1.128-1.212-.494 0-.828.224-.999.555h-.015v-.493h-.67v3.261zm3.841.047c.226 0 .406-.179.406-.406a.4.4 0 0 0-.406-.406c-.23 0-.41.176-.41.406s.18.406.41.406z" class="B"/><path d="M303.327 347.995c0 .35-.284.635-.634.635s-.635-.285-.635-.635.285-.636.635-.636.634.285.634.636zm2.54 0c0 .35-.284.635-.635.635s-.634-.285-.634-.635.284-.636.634-.636.635.285.635.636zm1.905.635c.35 0 .635-.285.635-.635s-.285-.636-.635-.636-.636.285-.636.636.285.635.636.635z" class="C F"/><path d="M287.081 364.926h.543v-3.579h-.548l-.943.67v.546l.935-.665h.013v3.028zm1.615 0h.582l1.555-3.098v-.481h-2.435v.469h1.887v.012l-1.589 3.098zm3.647 0h.536v-1.612c0-.335.225-.583.543-.583.303 0 .494.191.494.492v1.703h.526v-1.629c0-.33.22-.566.538-.566s.497.193.497.531v1.664h.539v-1.793c0-.518-.337-.861-.853-.861-.372 0-.679.194-.813.512h-.013c-.104-.326-.366-.512-.729-.512-.352 0-.624.194-.742.484h-.012v-.439h-.511v2.609zm4.208 0h.536v-2.609h-.536v2.609zm.269-2.991c.173 0 .312-.137.312-.305a.31.31 0 0 0-.312-.308.31.31 0 0 0-.311.308c0 .168.139.305.311.305zm.816 2.991h.535v-1.52c0-.405.243-.672.62-.672s.555.215.555.608v1.584h.538v-1.688c0-.598-.329-.966-.904-.966-.402 0-.68.184-.821.482h-.013v-.437h-.51v2.609zm4.711-.379c-.287 0-.476-.149-.476-.377s.181-.364.501-.387l.643-.04v.206c0 .34-.294.598-.668.598zm-.149.424c.343 0 .673-.184.824-.474h.013v.429h.513v-1.798c0-.523-.405-.858-1.037-.858-.645 0-1.046.347-1.077.818h.507c.047-.233.24-.381.55-.381.327 0 .524.173.524.464v.2l-.715.043c-.621.034-.97.314-.97.77 0 .469.357.787.868.787zm2.981-.478c-.412 0-.679-.334-.679-.879s.267-.887.679-.887c.419 0 .695.352.695.887s-.276.879-.695.879zm.005 1.415c.745 0 1.226-.407 1.226-1.029v-2.562h-.521v.447h-.01a.91.91 0 0 0-.832-.49c-.669 0-1.095.517-1.095 1.338 0 .813.429 1.324 1.083 1.324.373 0 .68-.186.826-.468h.011v.429c0 .356-.249.595-.668.595-.305 0-.543-.144-.62-.362h-.538c.066.451.523.778 1.138.778zm2.877-.932c.747 0 1.238-.513 1.238-1.354s-.494-1.352-1.238-1.352-1.237.514-1.237 1.352.491 1.354 1.237 1.354zm0-.441c-.419 0-.691-.333-.691-.913s.272-.91.691-.91.692.332.692.91-.271.913-.692.913z" class="G"/><path d="M166.403 150.741c0 .35-.284.635-.635.635s-.635-.285-.635-.635.284-.636.635-.636.635.285.635.636zm2.539 0c0 .35-.284.635-.635.635s-.634-.285-.634-.635.284-.636.634-.636.635.285.635.636zm1.905.635c.35 0 .635-.285.635-.635s-.285-.636-.635-.636-.635.285-.635.636.284.635.635.635z" class="C F"/><path d="M184.797 145.238h.694v-1.981h2.297v1.981h.695v-4.474h-.695v1.891h-2.297v-1.891h-.694v4.474zm5.819.065c.79 0 1.292-.471 1.398-.989l.006-.034h-.636l-.009.024c-.084.245-.347.45-.744.45-.533 0-.871-.359-.883-.977h2.309v-.226c0-.98-.561-1.637-1.476-1.637s-1.503.682-1.503 1.702v.003c0 1.03.58 1.684 1.538 1.684zm-.031-2.84c.437 0 .753.276.809.84h-1.637c.059-.545.394-.84.828-.84zm2.018 2.775h.669v-4.474h-.669v4.474zm1.382 0h.67v-4.474h-.67v4.474zm2.759.065c.933 0 1.547-.645 1.547-1.696v-.006c0-1.045-.62-1.687-1.55-1.687s-1.544.645-1.544 1.687v.006c0 1.048.611 1.696 1.547 1.696zm.003-.561c-.524 0-.865-.413-.865-1.135v-.006c0-.713.344-1.126.859-1.126.524 0 .865.413.865 1.126v.006c0 .719-.335 1.135-.859 1.135zm5.084.561c.828 0 1.364-.657 1.364-1.696v-.003c0-1.039-.539-1.69-1.358-1.69-.462 0-.834.233-1.029.617h-.015v-1.767h-.67v4.474h.67v-.552h.015a1.1 1.1 0 0 0 1.023.617zm-.177-.577c-.508 0-.864-.44-.864-1.119v-.003c0-.676.359-1.116.864-1.116.527 0 .856.428.856 1.116v.003c0 .694-.329 1.119-.856 1.119zm3.169.577c.495 0 .827-.227.998-.555h.015v.49h.673v-3.262h-.673v1.904c0 .508-.304.846-.775.846-.465 0-.694-.273-.694-.766v-1.984h-.67v2.115c0 .75.409 1.212 1.126 1.212zm3.567 0c.469 0 .828-.236 1.023-.617h.013v.552h.672v-4.474h-.672v1.767h-.013c-.195-.384-.567-.617-1.029-.617-.818 0-1.358.651-1.358 1.69v.003c0 1.039.534 1.696 1.364 1.696zm.177-.577c-.53 0-.855-.425-.855-1.119v-.003c0-.688.328-1.116.855-1.116.502 0 .862.44.862 1.116v.003c0 .679-.357 1.119-.862 1.119zm3.438.577c.468 0 .827-.236 1.023-.617h.012v.552h.673v-4.474h-.673v1.767h-.012c-.196-.384-.568-.617-1.029-.617-.819 0-1.358.651-1.358 1.69v.003c0 1.039.533 1.696 1.364 1.696zm.176-.577c-.529 0-.855-.425-.855-1.119v-.003c0-.688.328-1.116.855-1.116.503 0 .862.44.862 1.116v.003c0 .679-.356 1.119-.862 1.119zm2.605 1.6c.638 0 .979-.26 1.221-.936l1.215-3.414h-.707l-.821 2.654h-.022l-.822-2.654h-.725l1.188 3.265-.056.155c-.112.316-.286.4-.602.4a1.01 1.01 0 0 1-.22-.025v.524a2.12 2.12 0 0 0 .351.031zm2.755-1.042c.227 0 .406-.18.406-.406a.4.4 0 0 0-.406-.406c-.229 0-.409.177-.409.406s.18.406.409.406zm-31.634 7.573h.694v-3.875h1.367v-.599h-3.431v.599h1.37v3.875zm2.573 0h.669v-1.888c0-.509.307-.862.769-.862.471 0 .744.322.744.862v1.888h.67v-2.016c0-.786-.459-1.307-1.157-1.307-.486 0-.837.219-1.01.598h-.016v-1.749h-.669v4.474zm4.46.059c.431 0 .81-.224.999-.574h.012v.515h.673v-2.248c0-.654-.506-1.075-1.302-1.075-.803 0-1.29.431-1.336.991l-.003.035h.632l.006-.028c.056-.261.295-.444.682-.444.416 0 .648.217.648.577v.244l-.886.053c-.772.047-1.213.395-1.213.962v.006c0 .586.438.986 1.088.986zm-.412-1.001v-.006c0-.277.223-.454.626-.479l.797-.048v.253c0 .425-.356.745-.828.745-.359 0-.595-.181-.595-.465zm2.747.942h.669v-1.901c0-.508.304-.849.775-.849.465 0 .695.276.695.765v1.985h.672v-2.111c0-.75-.412-1.212-1.128-1.212-.493 0-.828.222-.998.554h-.016v-.492h-.669v3.261zm3.496 0h.67v-1.175l.279-.276 1.107 1.451h.778l-1.392-1.854 1.339-1.407h-.787l-1.308 1.391h-.016v-2.604h-.67v4.474zm4.842 1.088c.639 0 .98-.26 1.222-.936l1.215-3.413h-.707l-.821 2.653h-.022l-.821-2.653h-.726l1.187 3.264-.056.155c-.111.316-.284.4-.601.4-.09 0-.167-.013-.22-.025v.524a2.12 2.12 0 0 0 .35.031zm4.105-1.023c.933 0 1.546-.645 1.546-1.696v-.006c0-1.044-.62-1.686-1.549-1.686s-1.544.645-1.544 1.686v.006c0 1.048.61 1.696 1.547 1.696zm.003-.561c-.524 0-.865-.412-.865-1.135v-.006c0-.713.344-1.125.859-1.125.524 0 .865.412.865 1.125v.006c0 .72-.335 1.135-.859 1.135zm3.171.561c.496 0 .828-.227.998-.555h.016v.49h.672v-3.261h-.672v1.903c0 .508-.304.847-.775.847-.465 0-.695-.274-.695-.767v-1.983h-.669v2.114c0 .75.409 1.212 1.125 1.212zm2.35-.065h.669v-1.944c0-.487.267-.769.698-.769.13 0 .248.016.301.038v-.623a1.24 1.24 0 0 0-.233-.025c-.372 0-.645.238-.75.62h-.016v-.558h-.669v3.261zm3.568 0h.673v-2.728h.65v-.533h-.663v-.335c0-.288.142-.434.443-.434.084 0 .168.006.233.015v-.496c-.09-.015-.239-.028-.375-.028-.664 0-.961.298-.961.93v.348h-.45v.533h.45v2.728zm2.966.065c.933 0 1.547-.645 1.547-1.696v-.006c0-1.044-.62-1.686-1.55-1.686s-1.544.645-1.544 1.686v.006c0 1.048.611 1.696 1.547 1.696zm.003-.561c-.524 0-.865-.412-.865-1.135v-.006c0-.713.344-1.125.859-1.125.524 0 .865.412.865 1.125v.006c0 .72-.335 1.135-.859 1.135zm2.062.496h.67v-1.944c0-.487.266-.769.697-.769.13 0 .248.016.301.038v-.623a1.24 1.24 0 0 0-.233-.025c-.372 0-.645.238-.75.62h-.015v-.558h-.67v3.261zm4.33.059c.431 0 .809-.224.999-.574h.012v.515h.673v-2.248c0-.654-.506-1.075-1.302-1.075-.803 0-1.29.431-1.336.991l-.004.035h.633l.006-.028c.056-.261.295-.444.682-.444.415 0 .648.217.648.577v.244l-.887.053c-.771.047-1.212.395-1.212.962v.006c0 .586.437.986 1.088.986zm-.412-1.001v-.006c0-.277.223-.454.626-.479l.797-.048v.253c0 .425-.357.745-.828.745-.359 0-.595-.181-.595-.465zm3.968 1.007c.769 0 1.327-.409 1.327-1.004v-.003c0-.469-.254-.732-.921-.887l-.53-.122c-.35-.083-.484-.219-.484-.421v-.003c0-.261.226-.43.586-.43.379 0 .602.197.642.483l.003.021h.629l-.003-.036c-.034-.555-.499-.986-1.271-.986-.75 0-1.258.399-1.258.982v.004c0 .473.307.771.926.913l.534.122c.35.084.468.204.468.416v.003c0 .263-.242.431-.645.431-.412 0-.635-.178-.697-.478l-.007-.031h-.663l.003.028c.068.596.546.998 1.361.998zm1.885-.065h.67v-1.175l.278-.276 1.107 1.451h.778l-1.392-1.854 1.339-1.407h-.787l-1.308 1.391h-.015v-2.604h-.67v4.474zm3.531-3.764c.22 0 .39-.173.39-.384s-.17-.388-.39-.388a.39.39 0 0 0-.391.388c0 .211.173.384.391.384zm-.335 3.764h.669v-3.261h-.669v3.261zm1.36 0h.67v-1.901c0-.508.304-.849.775-.849.465 0 .695.276.695.765v1.985h.672v-2.111c0-.75-.412-1.212-1.128-1.212-.493 0-.828.222-.998.554h-.016v-.492h-.67v3.261zm4.889 1.15c.921 0 1.497-.496 1.497-1.24v-3.171h-.672v.555h-.016a1.11 1.11 0 0 0-1.011-.617c-.827 0-1.373.642-1.373 1.665v.003c0 1.016.54 1.658 1.358 1.658.468 0 .84-.227 1.026-.58h.016v.446c0 .457-.295.742-.828.742-.419 0-.7-.143-.791-.35l-.012-.025h-.663l.003.028c.099.499.629.886 1.466.886zm-.028-1.693c-.53 0-.862-.421-.862-1.103v-.003c0-.673.332-1.101.862-1.101.509 0 .853.431.853 1.101v.003c0 .673-.341 1.103-.853 1.103zm2.57.589c.226 0 .406-.18.406-.406a.4.4 0 1 0-.815 0c0 .226.179.406.409.406zm2.08-.046h.694v-4.474h-.694v4.474zm3.686.059c.431 0 .809-.224.998-.574h.012v.515h.673v-2.248c0-.654-.505-1.075-1.302-1.075-.803 0-1.29.431-1.336.991l-.003.035h.632l.007-.028c.055-.261.294-.444.681-.444.416 0 .648.217.648.577v.244l-.886.053c-.772.047-1.213.395-1.213.962v.006c0 .586.438.986 1.089.986zm-.413-1.001v-.006c0-.277.224-.454.627-.479l.796-.048v.253c0 .425-.356.745-.827.745-.36 0-.596-.181-.596-.465zm2.747.942h.669v-2.016c0-.421.283-.734.679-.734.379 0 .617.242.617.62v2.13h.658v-2.04c0-.412.276-.71.672-.71s.623.245.623.67v2.08h.673v-2.241c0-.655-.422-1.082-1.066-1.082-.466 0-.85.244-1.017.642h-.016c-.13-.41-.459-.642-.908-.642-.428 0-.759.225-.899.567h-.016v-.505h-.669v3.261zm6.724 0h.673v-2.728h.65v-.533h-.663v-.335c0-.288.142-.434.444-.434.083 0 .166.006.231.015v-.496c-.09-.015-.238-.028-.374-.028-.664 0-.961.298-.961.93v.348h-.45v.533h.45v2.728zm2.957.065c.79 0 1.292-.471 1.398-.989l.006-.034h-.636l-.009.025c-.083.244-.347.449-.743.449-.534 0-.871-.36-.884-.976h2.31v-.226c0-.98-.562-1.637-1.476-1.637s-1.504.681-1.504 1.702v.003c0 1.029.58 1.683 1.538 1.683zm-.031-2.839c.437 0 .753.275.809.839h-1.636c.059-.545.393-.839.827-.839zm3.385 2.839c.79 0 1.293-.471 1.398-.989l.007-.034h-.636l-.01.025c-.084.244-.347.449-.743.449-.533 0-.871-.36-.884-.976h2.31v-.226c0-.98-.561-1.637-1.476-1.637s-1.503.681-1.503 1.702v.003c0 1.029.58 1.683 1.537 1.683zm-.031-2.839c.437 0 .753.275.809.839h-1.636c.058-.545.393-.839.827-.839zm2.019 2.774h.669v-4.474h-.669v4.474zm1.72-3.764c.22 0 .39-.173.39-.384s-.17-.388-.39-.388a.39.39 0 0 0-.391.388c0 .211.173.384.391.384zm-.335 3.764h.669v-3.261h-.669v3.261zm1.361 0h.669v-1.901c0-.508.304-.849.775-.849.465 0 .694.276.694.765v1.985h.673v-2.111c0-.75-.412-1.212-1.128-1.212-.494 0-.828.222-.999.554h-.015v-.492h-.669v3.261zm4.888 1.15c.921 0 1.497-.496 1.497-1.24v-3.171h-.672v.555h-.016a1.11 1.11 0 0 0-1.01-.617c-.828 0-1.374.642-1.374 1.665v.003c0 1.016.54 1.658 1.358 1.658.468 0 .84-.227 1.026-.58h.016v.446c0 .457-.294.742-.827.742-.419 0-.701-.143-.792-.35l-.012-.025h-.663l.003.028c.1.499.629.886 1.466.886zm-.028-1.693c-.53 0-.862-.421-.862-1.103v-.003c0-.673.332-1.101.862-1.101.509 0 .853.431.853 1.101v.003c0 .673-.341 1.103-.853 1.103zm5.211.608c.828 0 1.364-.657 1.364-1.696v-.003c0-1.038-.539-1.689-1.357-1.689-.462 0-.834.232-1.03.617h-.015v-1.768h-.67v4.474h.67v-.552h.015c.193.381.555.617 1.023.617zm-.177-.576c-.508 0-.864-.441-.864-1.12v-.003c0-.676.359-1.116.864-1.116.527 0 .856.428.856 1.116v.003c0 .695-.329 1.12-.856 1.12zm3.451.576c.79 0 1.292-.471 1.398-.989l.006-.034h-.636l-.009.025c-.084.244-.347.449-.744.449-.533 0-.871-.36-.883-.976h2.309v-.226c0-.98-.561-1.637-1.475-1.637s-1.504.681-1.504 1.702v.003c0 1.029.58 1.683 1.538 1.683zm-.031-2.839c.437 0 .752.275.808.839h-1.636c.059-.545.394-.839.828-.839zm3.136 2.839c.137 0 .264-.016.342-.028v-.517a1.46 1.46 0 0 1-.18.012c-.282 0-.431-.099-.431-.431v-1.829h.611v-.533h-.611v-.85h-.685v.85h-.468v.533h.468v1.87c0 .65.31.923.954.923zm2.04 0a2.28 2.28 0 0 0 .341-.028v-.517a1.43 1.43 0 0 1-.179.012c-.283 0-.431-.099-.431-.431v-1.829h.61v-.533h-.61v-.85h-.685v.85h-.468v.533h.468v1.87c0 .65.309.923.954.923zm2.208 0c.79 0 1.293-.471 1.398-.989l.007-.034h-.637l-.009.025c-.084.244-.347.449-.744.449-.533 0-.871-.36-.884-.976h2.309v-.226c0-.98-.56-1.637-1.474-1.637s-1.504.681-1.504 1.702v.003c0 1.029.58 1.683 1.538 1.683zm-.031-2.839c.437 0 .753.275.809.839h-1.637c.059-.545.393-.839.828-.839zm1.993 2.774h.669v-1.944c0-.487.267-.769.698-.769.13 0 .248.016.301.038v-.623a1.24 1.24 0 0 0-.233-.025c-.372 0-.644.238-.75.62h-.016v-.558h-.669v3.261zm-106.268 7.684a2.28 2.28 0 0 0 .341-.028v-.517a1.43 1.43 0 0 1-.179.012c-.283 0-.431-.099-.431-.431v-1.829h.61v-.533h-.61v-.85h-.685v.85h-.468v.533h.468v1.87c0 .651.31.923.954.923zm2.217 0c.933 0 1.547-.645 1.547-1.696v-.006c0-1.044-.62-1.686-1.55-1.686s-1.544.645-1.544 1.686v.006c0 1.048.611 1.696 1.547 1.696zm.003-.561c-.524 0-.865-.412-.865-1.135v-.006c0-.713.344-1.125.859-1.125.524 0 .865.412.865 1.125v.006c0 .72-.335 1.135-.859 1.135zm3.28.561c.468 0 .827-.235 1.023-.617h.012v.552h.673v-4.473h-.673v1.767h-.012c-.196-.385-.568-.617-1.03-.617-.818 0-1.357.651-1.357 1.689v.003c0 1.039.533 1.696 1.364 1.696zm.176-.576c-.53 0-.855-.425-.855-1.12v-.003c0-.688.328-1.116.855-1.116.502 0 .862.44.862 1.116v.003c0 .679-.356 1.12-.862 1.12zm3.178.57c.431 0 .809-.223.998-.574h.012v.515h.673v-2.248c0-.654-.505-1.075-1.302-1.075-.803 0-1.29.431-1.336.991l-.003.035h.632l.006-.028c.056-.26.295-.444.682-.444.416 0 .648.218.648.577v.245l-.886.052c-.772.047-1.212.395-1.212.962v.006c0 .586.437.986 1.088.986zm-.413-1.001v-.006c0-.277.224-.453.627-.478l.796-.049v.253c0 .426-.356.745-.828.745-.359 0-.595-.181-.595-.465zm3.125 2.031c.639 0 .98-.261 1.221-.937l1.216-3.413h-.707l-.822 2.653h-.021l-.822-2.653h-.725l1.187 3.264-.056.155c-.111.317-.285.4-.601.4-.09 0-.167-.013-.22-.025v.525c.08.015.22.031.35.031zm2.756-1.043c.226 0 .406-.179.406-.406a.4.4 0 1 0-.815 0c0 .227.179.406.409.406z" fill="#595f69"/><path d="M304.911 158.094c.137-.138.137-.361 0-.499s-.362-.138-.499 0l-3.723 3.723-1.168-1.168c-.137-.137-.36-.137-.498 0s-.138.362 0 .499l1.399 1.399c.006.007.011.013.017.018.069.069.16.104.249.104.017 0 .034-.001.051-.004.073-.01.144-.043.2-.1.006-.005.012-.011.017-.018l3.955-3.954z" class="C E"/><path d="M305.857 135.29H183.541c-1.753 0-3.174 1.421-3.174 3.174v24.551c0 1.753 1.421 3.175 3.174 3.175h122.316c1.754 0 3.175-1.422 3.175-3.175v-24.551c0-1.753-1.421-3.174-3.175-3.174z" stroke="#00469f" class="M"/><path d="M165.474 175.291h.544v-3.579h-.549l-.942.67v.546l.935-.665h.012v3.028zm2.322 0h.543v-3.579h-.548l-.943.67v.546l.935-.665h.013v3.028zm2.435 0h.536v-1.612c0-.335.225-.583.543-.583.302 0 .493.191.493.492v1.703h.526v-1.629c0-.331.221-.566.538-.566s.499.193.499.531v1.664h.538v-1.793c0-.518-.338-.861-.853-.861-.372 0-.68.194-.814.512h-.012c-.104-.326-.367-.512-.729-.512-.352 0-.625.194-.742.484h-.012v-.439h-.511v2.609zm4.208 0h.536v-2.609h-.536v2.609zm.268-2.991c.174 0 .313-.137.313-.305a.31.31 0 0 0-.313-.308c-.171 0-.31.137-.31.308s.139.305.31.305zm.816 2.991h.536v-1.52c0-.405.243-.672.62-.672.372 0 .555.215.555.608v1.584h.538v-1.689c0-.597-.33-.965-.905-.965-.402 0-.679.184-.821.482h-.012v-.437h-.511v2.609zm4.712-.379c-.288 0-.476-.149-.476-.378 0-.222.181-.364.501-.386l.642-.04v.206c0 .34-.293.598-.667.598zm-.149.424c.342 0 .672-.184.823-.474h.013v.429h.513v-1.798c0-.523-.404-.858-1.036-.858-.645 0-1.047.347-1.077.818h.506c.047-.234.241-.381.551-.381.327 0 .523.173.523.463v.201l-.714.043c-.62.034-.97.314-.97.77 0 .469.357.787.868.787zm2.981-.478c-.412 0-.679-.334-.679-.879s.267-.887.679-.887c.419 0 .694.351.694.887s-.275.879-.694.879zm.005 1.415c.744 0 1.225-.407 1.225-1.029v-2.562h-.521v.447h-.01a.91.91 0 0 0-.83-.49c-.67 0-1.097.517-1.097 1.338 0 .813.429 1.324 1.084 1.324.372 0 .68-.186.826-.468h.01v.428c0 .357-.248.596-.667.596-.305 0-.543-.145-.62-.362h-.538c.067.451.523.778 1.138.778zm2.877-.932c.746 0 1.237-.514 1.237-1.355s-.493-1.351-1.237-1.351-1.238.514-1.238 1.351.491 1.355 1.238 1.355zm0-.441c-.419 0-.692-.333-.692-.914s.273-.909.692-.909.692.332.692.909-.271.914-.692.914z" class="G"/><path d="M166.185 244.711c0 .351-.284.636-.635.636s-.634-.285-.634-.636.284-.635.634-.635.635.285.635.635zm2.54 0c0 .351-.285.636-.635.636s-.635-.285-.635-.636.284-.635.635-.635.635.285.635.635zm1.904.636c.351 0 .635-.285.635-.636s-.284-.635-.635-.635-.635.285-.635.635.285.636.635.636z" class="C F"/><path d="M186.528 246.827v-1.832l1.578-2.641h-.769l-1.141 1.975h-.022l-1.14-1.975h-.775l1.574 2.641v1.832h.695zm2.731-2.781c.468 0 .784.351.8.85h-1.631c.034-.493.363-.85.831-.85zm.797 1.824c-.09.285-.372.477-.754.477-.536 0-.877-.375-.877-.942v-.041h2.303v-.23c0-.988-.564-1.627-1.469-1.627-.921 0-1.51.682-1.51 1.705 0 1.029.58 1.677 1.538 1.677.747 0 1.311-.424 1.404-1.019h-.635zm1.134-1.38c0 .456.298.762.887.905l.582.143c.341.086.466.201.466.409 0 .263-.248.431-.652.431-.409 0-.65-.174-.703-.487h-.664c.053.599.565.998 1.337.998.799 0 1.354-.409 1.354-1.004 0-.48-.248-.729-.905-.886l-.549-.128c-.338-.083-.499-.22-.499-.422 0-.257.242-.434.605-.434.375 0 .613.184.644.478h.63c-.022-.58-.53-.986-1.256-.986-.762 0-1.277.4-1.277.983zm4.359 0c0 .456.297.762.886.905l.583.143c.341.086.465.201.465.409 0 .263-.248.431-.651.431-.409 0-.651-.174-.704-.487h-.663c.053.599.564.998 1.336.998.8 0 1.355-.409 1.355-1.004 0-.48-.248-.729-.906-.886l-.548-.128c-.338-.083-.499-.22-.499-.422 0-.257.241-.434.604-.434.375 0 .614.184.645.478h.629c-.021-.58-.53-.986-1.255-.986-.763 0-1.277.4-1.277.983zm5.924-.924h-.67v1.901c0 .508-.292.842-.775.842-.462 0-.697-.266-.697-.762v-1.981h-.67v2.111c0 .747.434 1.209 1.144 1.209.499 0 .83-.22 1.01-.611h.016v.552h.642v-3.261zm.663 3.261h.669v-1.952c0-.463.267-.751.698-.751.13 0 .248.016.301.037v-.623c-.05-.009-.133-.025-.23-.025-.384 0-.675.227-.784.608h-.016v-.555h-.638v3.261zm3.304-2.781c.469 0 .785.351.8.85h-1.63c.033-.493.362-.85.83-.85zm.797 1.824c-.09.285-.372.477-.753.477-.537 0-.877-.375-.877-.942v-.041h2.303v-.23c0-.988-.565-1.627-1.47-1.627-.92 0-1.509.682-1.509 1.705 0 1.029.58 1.677 1.537 1.677.747 0 1.312-.424 1.405-1.019h-.636zm1.695.991c.227 0 .407-.179.407-.406s-.18-.405-.407-.405a.4.4 0 0 0-.405.405c0 .227.179.406.405.406zm6.055-1.893v-.457h-1.842v.561h1.157v.078c-.01.679-.512 1.144-1.237 1.144-.852 0-1.383-.661-1.383-1.73 0-1.051.515-1.677 1.37-1.677.583 0 1.02.32 1.188.875h.713c-.155-.894-.909-1.483-1.904-1.483-1.274 0-2.076.881-2.076 2.291 0 1.436.805 2.332 2.086 2.332 1.212 0 1.928-.722 1.928-1.934zm.62 1.859h.669v-3.261h-.669v3.261zm.335-3.738c.216 0 .39-.171.39-.382s-.174-.384-.39-.384-.388.171-.388.384.174.382.388.382zm3.803.477h-.701l-.818 2.608h-.012l-.818-2.608h-.714l1.175 3.261h.719l1.169-3.261zm1.655.48c.468 0 .785.351.8.85h-1.63c.034-.493.363-.85.83-.85zm.797 1.824c-.09.285-.372.477-.753.477-.536 0-.878-.375-.878-.942v-.041h2.304v-.23c0-.988-.564-1.627-1.47-1.627-.92 0-1.509.682-1.509 1.705 0 1.029.579 1.677 1.537 1.677.748 0 1.312-.424 1.405-1.019h-.636zm2.483.957h.67v-2.015c0-.418.282-.728.679-.728a.57.57 0 0 1 .616.613v2.13h.658v-2.036c0-.412.276-.707.672-.707s.623.242.623.663v2.08h.673v-2.241c0-.648-.421-1.076-1.066-1.076-.465 0-.85.242-1.017.639h-.016c-.13-.406-.458-.639-.911-.639-.44 0-.781.242-.927.605h-.015v-.549h-.639v3.261zm6.603-2.781c.468 0 .784.351.8.85h-1.631c.034-.493.363-.85.831-.85zm.796 1.824c-.089.285-.371.477-.753.477-.536 0-.877-.375-.877-.942v-.041h2.303v-.23c0-.988-.564-1.627-1.469-1.627-.921 0-1.51.682-1.51 1.705 0 1.029.58 1.677 1.538 1.677.747 0 1.311-.424 1.404-1.019h-.636zm3.624.483c-.359 0-.595-.185-.595-.471 0-.28.227-.456.627-.483l.802-.05v.256c0 .426-.366.748-.834.748zm-.186.53c.428 0 .84-.229 1.03-.592h.015v.536h.642v-2.247c0-.654-.505-1.073-1.296-1.073-.806 0-1.308.434-1.345 1.023h.632c.059-.291.301-.477.688-.477.409 0 .654.217.654.579v.252l-.893.053c-.775.043-1.211.393-1.211.963 0 .586.446.983 1.084.983zm3.568-2.393c0 .456.298.762.887.905l.583.143c.341.086.465.201.465.409 0 .263-.248.431-.651.431-.409 0-.651-.174-.704-.487h-.663c.052.599.564.998 1.336.998.8 0 1.354-.409 1.354-1.004 0-.48-.248-.729-.905-.886l-.548-.128c-.339-.083-.499-.22-.499-.422 0-.257.241-.434.604-.434.375 0 .614.184.645.478h.629c-.022-.58-.53-.986-1.255-.986-.763 0-1.278.4-1.278.983zm4.492-.444c.468 0 .784.351.8.85h-1.631c.035-.493.363-.85.831-.85zm.797 1.824c-.09.285-.372.477-.754.477-.536 0-.877-.375-.877-.942v-.041h2.304v-.23c0-.988-.565-1.627-1.47-1.627-.92 0-1.51.682-1.51 1.705 0 1.029.58 1.677 1.538 1.677.747 0 1.311-.424 1.404-1.019h-.635zm3.993-1.182c-.059-.642-.571-1.181-1.411-1.181-.927 0-1.534.654-1.534 1.689 0 1.055.607 1.693 1.54 1.693.785 0 1.339-.471 1.411-1.165h-.645c-.078.378-.347.604-.759.604-.521 0-.866-.415-.866-1.132 0-.7.342-1.131.859-1.131a.74.74 0 0 1 .766.623h.639zm1.881 2.201c.933 0 1.547-.642 1.547-1.693s-.617-1.689-1.547-1.689-1.547.642-1.547 1.689.614 1.693 1.547 1.693zm0-.552c-.524 0-.865-.415-.865-1.141s.341-1.137.865-1.137.865.415.865 1.137-.338 1.141-.865 1.141zm2.065.49h.669v-1.9c0-.506.304-.84.775-.84.465 0 .694.27.694.76v1.98h.673v-2.111c0-.747-.412-1.206-1.131-1.206-.502 0-.85.23-1.026.602h-.016v-.546h-.638v3.261zm4.684.056c.474 0 .846-.238 1.038-.611h.012v.555h.651v-4.473h-.672v1.755h-.013c-.182-.36-.554-.596-1.023-.596-.818 0-1.364.655-1.364 1.683s.546 1.687 1.371 1.687zm.176-2.806c.515 0 .859.444.859 1.119 0 .683-.344 1.12-.859 1.12-.53 0-.861-.431-.861-1.12s.331-1.119.861-1.119zm2.716 2.784c.226 0 .406-.179.406-.406s-.18-.405-.406-.405-.407.178-.407.405.18.406.407.406z" fill="#595f69"/><path d="M304.701 244.445c.138-.138.138-.362 0-.499s-.36-.138-.499 0l-3.722 3.722-1.169-1.167c-.137-.137-.36-.137-.498 0s-.137.362 0 .499l1.399 1.4.017.017a.35.35 0 0 0 .25.104c.017 0 .034-.001.051-.004.072-.01.143-.043.199-.1.006-.005.012-.011.017-.017l3.955-3.955z" class="C E"/><path d="M305.64 236.879H183.324c-1.754 0-3.175 1.422-3.175 3.175v9.312c0 1.754 1.421 3.175 3.175 3.175H305.64c1.753 0 3.174-1.421 3.174-3.175v-9.312c0-1.753-1.421-3.175-3.174-3.175z" stroke="#00469f" class="M"/><path d="M165.047 261.643h.543v-3.579h-.548l-.942.67v.546l.935-.665h.012v3.028zm1.386-2.53v.005h.526v-.007c0-.372.295-.654.687-.654.372 0 .66.252.66.57 0 .28-.114.469-.551.922l-1.292 1.317v.377h2.448v-.468h-1.699v-.013l.895-.9c.524-.536.747-.846.747-1.262 0-.568-.509-1.003-1.19-1.003-.712 0-1.231.472-1.231 1.116zm3.991 2.53h.535v-1.612c0-.335.226-.583.543-.583.303 0 .494.192.494.492v1.703h.526v-1.629c0-.33.22-.566.538-.566s.498.194.498.531v1.664h.538v-1.793c0-.518-.337-.86-.853-.86-.372 0-.679.193-.813.511h-.012c-.105-.326-.367-.511-.73-.511a.77.77 0 0 0-.741.483h-.012v-.438h-.511v2.608zm4.208 0h.536v-2.608h-.536v2.608zm.268-2.991c.173 0 .312-.137.312-.304a.31.31 0 1 0-.622 0c0 .167.139.304.31.304zm.816 2.991h.535v-1.52c0-.405.244-.672.62-.672s.556.216.556.608v1.584h.538v-1.689c0-.597-.33-.964-.905-.964-.402 0-.68.183-.821.481h-.012v-.436h-.511v2.608zm4.712-.379c-.288 0-.477-.149-.477-.377s.181-.365.501-.387l.643-.04v.206c0 .34-.293.598-.667.598zm-.149.424c.342 0 .672-.184.823-.474h.013v.429h.513v-1.798c0-.523-.404-.857-1.037-.857-.645 0-1.046.346-1.076.817h.506c.047-.232.241-.381.55-.381.328 0 .524.174.524.463v.201l-.715.043c-.619.035-.969.314-.969.77 0 .47.357.787.868.787zm2.981-.478c-.412 0-.68-.334-.68-.879s.268-.887.68-.887c.419 0 .694.351.694.887s-.275.879-.694.879zm.005 1.416c.744 0 1.225-.408 1.225-1.03v-2.561h-.521v.446h-.01a.91.91 0 0 0-.831-.489c-.669 0-1.096.516-1.096 1.337 0 .813.429 1.324 1.084 1.324.372 0 .679-.186.826-.468h.01v.429c0 .357-.248.595-.668.595-.304 0-.543-.144-.62-.362h-.538c.067.451.524.779 1.139.779zm2.876-.933c.747 0 1.238-.513 1.238-1.355s-.494-1.35-1.238-1.35-1.237.513-1.237 1.35.491 1.355 1.237 1.355zm0-.441c-.419 0-.692-.333-.692-.914s.273-.909.692-.909.692.332.692.909-.27.914-.692.914z" class="G"/><path d="M219.095 296.141c0 .351-.284.635-.634.635s-.635-.284-.635-.635.284-.635.635-.635.634.284.634.635zm2.54 0c0 .351-.285.635-.635.635s-.635-.284-.635-.635.285-.635.635-.635.635.284.635.635zm1.904.635c.351 0 .635-.284.635-.635s-.284-.635-.635-.635-.634.284-.634.635.284.635.634.635z" class="C F"/><path d="M232.858 279.21a3.39 3.39 0 0 1 3.386-3.387h69.411a3.39 3.39 0 0 1 3.386 3.387v24.55h-76.183v-24.55z" fill="#e8f2ff"/><path d="M239.02 286.056c1.06 0 1.705-.518 1.705-1.333v-.003c0-.692-.397-1.066-1.321-1.262l-.489-.103c-.559-.121-.813-.325-.813-.66v-.003c0-.39.354-.654.909-.658.53 0 .889.252.951.667l.004.044h.675l-.003-.053c-.047-.75-.685-1.259-1.618-1.259-.945 0-1.618.524-1.621 1.287v.003c0 .664.424 1.066 1.301 1.252l.487.103c.592.131.837.325.837.685v.003c0 .419-.378.689-.976.689s-1.011-.258-1.073-.67l-.006-.04h-.676l.003.046c.056.787.72 1.265 1.724 1.265zm3.642-.009c.791 0 1.293-.472 1.398-.99l.006-.034h-.635l-.009.025c-.084.245-.347.45-.744.45-.534 0-.871-.36-.884-.977h2.31v-.225c0-.981-.561-1.638-1.476-1.638s-1.503.682-1.503 1.701v.004c0 1.03.579 1.684 1.537 1.684zm-.031-2.841c.437 0 .753.277.809.841h-1.636c.059-.545.393-.841.827-.841zm1.994 2.776h.669v-2.016c0-.421.282-.735.679-.735.378 0 .617.243.617.62v2.131h.657v-2.04c0-.412.276-.711.673-.711s.623.246.623.67v2.081h.672v-2.242c0-.654-.421-1.082-1.066-1.082-.465 0-.849.245-1.017.642h-.015c-.13-.409-.459-.642-.909-.642-.427 0-.759.226-.899.567h-.015v-.505h-.669v3.262zm6.63.065c.791 0 1.293-.472 1.398-.99l.006-.034h-.635l-.009.025c-.084.245-.348.45-.744.45-.534 0-.871-.36-.884-.977h2.31v-.225c0-.981-.562-1.638-1.476-1.638s-1.503.682-1.503 1.701v.004c0 1.03.579 1.684 1.537 1.684zm-.031-2.841c.437 0 .754.277.809.841h-1.636c.059-.545.393-.841.827-.841zm3.215 2.841c.769 0 1.326-.41 1.326-1.005v-.003c0-.468-.254-.731-.92-.886l-.53-.122c-.35-.084-.484-.22-.484-.421v-.003c0-.261.226-.432.586-.432.378 0 .601.199.642.485l.003.021h.629l-.003-.037c-.034-.554-.499-.986-1.271-.986-.75 0-1.259.4-1.259.983v.003c0 .474.307.771.927.914l.533.122c.351.083.469.204.469.414v.004c0 .264-.242.431-.645.431-.412 0-.636-.177-.697-.478l-.007-.031h-.663l.003.028c.068.595.545.999 1.361.999zm2.991 0a2.28 2.28 0 0 0 .341-.028v-.517l-.18.012c-.282 0-.431-.099-.431-.432v-1.829h.611v-.533h-.611v-.849h-.685v.849h-.468v.533h.468v1.869c0 .652.311.925.955.925zm2.207 0c.791 0 1.292-.472 1.398-.99l.006-.034h-.635l-.009.025c-.084.245-.348.45-.744.45-.534 0-.871-.36-.884-.977h2.31v-.225c0-.981-.562-1.638-1.476-1.638s-1.504.682-1.504 1.701v.004c0 1.03.58 1.684 1.538 1.684zm-.031-2.841c.437 0 .754.277.81.841h-1.637c.059-.545.393-.841.827-.841zm1.993 2.776h.67v-1.944c0-.487.267-.77.697-.77.131 0 .249.016.302.038v-.623a1.24 1.24 0 0 0-.233-.025c-.372 0-.645.239-.75.62h-.016v-.558h-.67v3.262zm1.751.914h3.457v-.605h-3.457v.605zm3.792-.914h.67v-1.944c0-.487.266-.77.698-.77.129 0 .247.016.3.038v-.623a1.24 1.24 0 0 0-.233-.025c-.372 0-.644.239-.75.62h-.015v-.558h-.67v3.262zm3.332.065c.791 0 1.294-.472 1.399-.99l.006-.034h-.635l-.01.025c-.084.245-.347.45-.744.45-.533 0-.871-.36-.884-.977h2.309v-.225c0-.981-.56-1.638-1.474-1.638s-1.504.682-1.504 1.701v.004c0 1.03.579 1.684 1.537 1.684zm-.03-2.841c.437 0 .753.277.809.841h-1.637c.059-.545.393-.841.828-.841zm3.214 2.841c.769 0 1.327-.41 1.327-1.005v-.003c0-.468-.254-.731-.921-.886l-.53-.122c-.35-.084-.483-.22-.483-.421v-.003c0-.261.226-.432.586-.432.378 0 .601.199.64.485l.004.021h.629l-.003-.037c-.034-.554-.499-.986-1.27-.986-.751 0-1.259.4-1.259.983v.003c0 .474.307.771.927.914l.532.122c.352.083.468.204.468.414v.004c0 .264-.241.431-.643.431-.413 0-.636-.177-.698-.478l-.007-.031h-.662l.003.028c.068.595.545.999 1.36.999zm2.958 0c.496 0 .827-.227.998-.555h.015v.49h.673v-3.262h-.673v1.904c0 .508-.304.847-.775.847-.465 0-.694-.274-.694-.767v-1.984h-.67v2.115c0 .749.409 1.212 1.126 1.212zm2.374-.065h.669v-4.474h-.669v4.474zm2.501.065c.137 0 .264-.016.342-.028v-.517l-.18.012c-.282 0-.431-.099-.431-.432v-1.829h.611v-.533h-.611v-.849h-.686v.849h-.468v.533h.468v1.869c0 .652.311.925.955.925zm1.278-.019c.226 0 .406-.18.406-.407a.4.4 0 1 0-.815 0c0 .227.179.407.409.407zm1.045 1.038h.669v-1.633h.015c.193.378.568.614 1.03.614.818 0 1.354-.654 1.354-1.694v-.003c0-1.041-.533-1.692-1.364-1.692a1.1 1.1 0 0 0-1.02.623h-.015v-.561h-.669v4.346zm1.531-1.595c-.506 0-.865-.442-.865-1.118v-.003c0-.678.356-1.119.865-1.119.524 0 .856.426.856 1.119v.003c0 .689-.329 1.118-.856 1.118zm3.276.576c.468 0 .828-.236 1.023-.617h.013v.552h.672v-4.474h-.672v1.767h-.013c-.195-.384-.568-.617-1.029-.617-.818 0-1.358.651-1.358 1.689v.003c0 1.04.534 1.697 1.364 1.697zm.177-.576c-.53 0-.856-.426-.856-1.121v-.003c0-.687.329-1.116.856-1.116.502 0 .862.441.862 1.116v.003c0 .679-.357 1.121-.862 1.121zm2.415.511h.673v-2.729h.65v-.533h-.662v-.335c0-.288.141-.434.443-.434.084 0 .166.006.232.015v-.496c-.09-.015-.239-.028-.375-.028-.664 0-.961.298-.961.931v.347h-.45v.533h.45v2.729z" fill="#3f434a"/><path d="M239.547 297.834h.666v-.883h.614v-.583h-.614v-3.008h-1.004l-1.9 2.983v.608h2.238v.883zm-1.591-1.473c.357-.647.81-1.345 1.585-2.464h.012v2.48h-1.597v-.016zm5.022 1.557c.992 0 1.693-.533 1.693-1.293 0-.567-.4-1.026-.995-1.15v-.015c.496-.143.812-.527.812-1.001 0-.686-.629-1.182-1.51-1.182s-1.513.5-1.513 1.179c0 .48.32.867.816 1.004v.015c-.592.124-.995.58-.995 1.15 0 .757.694 1.293 1.692 1.293zm0-.558c-.57 0-.976-.329-.976-.785s.406-.79.976-.79.974.329.974.79-.403.785-.974.785zm0-2.133c-.486 0-.824-.291-.824-.697s.338-.701.824-.701.825.291.825.701-.344.697-.825.697zm2.558 2.607h.728l1.944-3.872v-.602h-3.044v.586h2.359v.016l-1.987 3.872zm5.335 0v-1.491l.458-.524 1.55 2.015h.862l-1.922-2.493 1.774-1.981h-.825l-1.869 2.131h-.028v-2.131h-.695v4.474h.695zm5.111 0c.952 0 1.526-.477 1.526-1.265 0-.595-.41-1.026-1.017-1.094v-.025c.446-.074.796-.499.796-.973 0-.676-.52-1.117-1.314-1.117h-1.785v4.474h1.794zm-1.1-3.906h.924c.502 0 .787.229.787.644 0 .444-.332.692-.933.692h-.778v-1.336zm0 3.339v-1.473h.918c.657 0 .998.249.998.732s-.332.741-.958.741h-.958z" class="E"/><path d="M232.858 303.76h76.183v9.313c0 1.87-1.516 3.386-3.386 3.386h-69.411c-1.87 0-3.386-1.516-3.386-3.386v-9.313z" fill="#67b7e4"/><path d="M237.324 312.227h1.873c1.429 0 2.4-.902 2.4-2.222s-.971-2.223-2.4-2.223h-1.873v4.445zm.635-.552v-3.34h1.2c1.099 0 1.803.672 1.803 1.67s-.704 1.67-1.803 1.67h-1.2zm5.963.59a1.67 1.67 0 0 0 1.746-1.72c0-1.004-.737-1.715-1.746-1.715s-1.752.711-1.752 1.715.742 1.72 1.752 1.72zm0-.533c-.648 0-1.136-.47-1.136-1.187s.488-1.181 1.136-1.181 1.13.463 1.13 1.181-.483 1.187-1.13 1.187zm7.041-2.87l-1.003 2.692-.997-2.692h-.514l-1.016 2.679-.978-2.679h-.577l1.25 3.365h.584l.984-2.553.972 2.553h.584l1.257-3.365h-.546zm2.961-.032c-.533 0-.965.197-1.212.54v-.508h-.584v3.365h.609v-1.733c0-.731.419-1.118 1.067-1.118.577 0 .908.324.908.984v1.867h.609v-1.937c0-.99-.578-1.46-1.397-1.46zm2.525 3.397h.609v-4.711h-.609v4.711zm3.214.038c1.009 0 1.745-.718 1.745-1.72s-.736-1.715-1.745-1.715-1.752.711-1.752 1.715.742 1.72 1.752 1.72zm0-.533c-.648 0-1.136-.47-1.136-1.187s.488-1.181 1.136-1.181 1.13.463 1.13 1.181-.482 1.187-1.13 1.187zm3.783-2.902c-.54 0-1.042.152-1.391.432l.255.457c.26-.222.666-.362 1.066-.362.603 0 .901.298.901.812v.121h-.965c-1.002 0-1.352.444-1.352.985 0 .584.483.99 1.245.99.527 0 .901-.178 1.104-.482v.444h.578v-2.032c0-.92-.521-1.365-1.441-1.365zm-.139 2.966c-.465 0-.744-.21-.744-.546 0-.287.172-.522.775-.522h.939v.471c-.152.387-.513.597-.97.597zm5.291-4.28v1.854c-.279-.363-.698-.54-1.174-.54-.984 0-1.702.686-1.702 1.715s.718 1.72 1.702 1.72c.495 0 .927-.191 1.199-.571v.533h.585v-4.711h-.61zm-1.123 4.216c-.648 0-1.137-.47-1.137-1.187s.489-1.181 1.137-1.181c.641 0 1.129.463 1.129 1.181s-.488 1.187-1.129 1.187z" class="B"/><path d="M302.211 310.007c.128-.116.325-.107.441.021s.106.323-.02.439l-1.648 1.5-1.647-1.5a.31.31 0 1 1 .42-.46l.916.834v-3.805a.31.31 0 1 1 .622 0v3.805l.916-.834zm-3.996 1.95c0-.169-.138-.307-.309-.307s-.307.138-.307.307v.411a1.13 1.13 0 0 0 1.129 1.129h4.514a1.13 1.13 0 0 0 1.129-1.129v-.411a.31.31 0 0 0-.308-.307c-.17 0-.308.138-.308.307v.411c0 .283-.229.513-.513.513h-4.514c-.284 0-.513-.23-.513-.513v-.411z" class="B C"/><path d="M286.443 325.349h.544v-3.579h-.549l-.942.669v.546l.935-.665h.012v3.029zm2.698.066c.772 0 1.313-.508 1.313-1.242 0-.694-.494-1.198-1.181-1.198-.35 0-.642.136-.798.362h-.013l.1-1.099h1.683v-.468h-2.13l-.188 2.023h.508c.139-.235.407-.376.716-.376.447 0 .759.321.759.771s-.312.763-.764.763c-.399 0-.704-.242-.743-.598h-.531c.032.626.555 1.062 1.269 1.062zm2.783-.066h.535v-1.613c0-.335.226-.583.544-.583.303 0 .493.192.493.491v1.705h.526v-1.631c0-.329.221-.565.538-.565s.499.194.499.531v1.665h.538v-1.793c0-.52-.337-.862-.853-.862-.373 0-.68.194-.814.511h-.012c-.104-.324-.367-.511-.729-.511a.77.77 0 0 0-.741.484h-.013v-.439h-.511v2.61zm4.209 0h.535v-2.61h-.535v2.61zm.267-2.991c.174 0 .313-.137.313-.306s-.139-.307-.313-.307-.309.136-.309.307.139.306.309.306zm.817 2.991h.534v-1.521c0-.404.244-.673.621-.673.371 0 .555.217.555.608v1.586h.539v-1.69c0-.598-.33-.965-.905-.965-.402 0-.68.184-.822.481h-.012v-.436h-.51v2.61zm4.712-.38c-.289 0-.477-.149-.477-.377 0-.223.18-.365.501-.386l.642-.04v.205c0 .34-.293.598-.666.598zm-.15.424c.342 0 .673-.183.823-.474h.013v.43h.513v-1.798c0-.524-.404-.859-1.037-.859-.644 0-1.045.347-1.075.819h.506c.046-.234.24-.383.549-.383.329 0 .524.174.524.465v.2l-.714.042c-.62.035-.97.316-.97.772 0 .468.357.786.868.786zm2.981-.479c-.411 0-.679-.332-.679-.878s.268-.888.679-.888c.419 0 .694.353.694.888s-.275.878-.694.878zm.005 1.416c.744 0 1.225-.406 1.225-1.028v-2.563h-.521v.447h-.01c-.158-.303-.461-.489-.831-.489-.67 0-1.096.516-1.096 1.337 0 .813.429 1.324 1.084 1.324.372 0 .68-.186.826-.469h.01v.43c0 .356-.248.595-.667.595-.305 0-.543-.144-.62-.363h-.538c.067.453.523.779 1.138.779zm2.877-.932c.746 0 1.237-.514 1.237-1.354s-.494-1.352-1.237-1.352-1.238.513-1.238 1.352.491 1.354 1.238 1.354zm0-.442c-.419 0-.692-.332-.692-.912s.273-.911.692-.911.691.333.691.911-.269.912-.691.912z" class="G"/><use xlink:href="#E" class="B"/><path d="M316.227 368.947H157.512v23.704h158.715v-23.704z" class="B"/><path d="M168.099 381.223v2.54h-.846v-2.54h-2.539v-.846h2.539v-2.54h.846v2.54h2.54v.846h-2.54z" fill="#adb5bd"/><path d="M294.217 373.18H179.519c-.935 0-1.693.759-1.693 1.693v11.852c0 .936.758 1.693 1.693 1.693h114.698c.935 0 1.694-.757 1.694-1.693v-11.852c0-.934-.759-1.693-1.694-1.693z" fill="#f7f7fc"/><path d="M183.027 382.985c.99 0 1.591-.484 1.591-1.243v-.003c0-.646-.37-.997-1.232-1.179l-.457-.095c-.521-.113-.758-.304-.758-.616v-.003c0-.365.33-.611.847-.614.495 0 .831.234.889.623l.003.04h.63l-.003-.049c-.043-.7-.639-1.175-1.51-1.175-.882 0-1.51.489-1.513 1.201v.003c0 .619.396.995 1.215 1.169l.454.096c.553.12.781.303.781.638v.003c0 .391-.352.642-.911.642s-.943-.239-1.001-.625l-.006-.038h-.63l.002.044c.053.735.672 1.181 1.609 1.181zm3.136-.009c.463 0 .773-.21.932-.518h.014v.458h.628v-3.044h-.628v1.777c0 .474-.283.789-.723.789-.434 0-.648-.254-.648-.714v-1.852h-.625v1.973c0 .7.382 1.131 1.05 1.131zm2.193-.06h.625v-1.814c0-.455.249-.718.651-.718a.9.9 0 0 1 .281.035v-.582c-.049-.009-.127-.023-.217-.023-.347 0-.602.222-.7.579h-.015v-.521h-.625v3.044zm3.111.06c.737 0 1.206-.44 1.305-.923l.005-.031h-.593l-.009.023c-.078.229-.324.419-.694.419-.498 0-.813-.335-.824-.911h2.155v-.212c0-.914-.524-1.527-1.377-1.527s-1.403.637-1.403 1.588v.003c0 .96.541 1.571 1.435 1.571zm-.029-2.65c.408 0 .703.257.755.784h-1.528c.055-.51.368-.784.773-.784zm2.216 2.633c.211 0 .379-.168.379-.379s-.168-.379-.379-.379-.382.164-.382.379.168.379.382.379z" class="D"/><path d="M308.687 377.546c-.038-.037-.086-.063-.137-.074s-.106-.008-.155.01l-6.111 2.222c-.053.02-.097.056-.129.103a.27.27 0 0 0-.05.158c0 .056.017.111.05.158s.076.082.129.102l2.386.952 1.761-1.766.392.391-1.769 1.769.956 2.386c.02.052.055.097.101.128a.28.28 0 0 0 .156.048c.057-.001.111-.02.157-.052s.08-.079.098-.132l2.223-6.11c.019-.05.023-.103.013-.155s-.035-.099-.071-.138z" class="E"/><use xlink:href="#E" stroke="#ededed" class="M"/></g><path d="M149 97.792a.46.46 0 0 1 .46-.46h1.15v13.335h-1.15a.46.46 0 0 1-.46-.46V97.792z" class="L"/><path d="M149.466 123.313a.46.46 0 0 1 .46-.46h.69v26.671h-.69a.46.46 0 0 1-.46-.46v-25.751z" class="L"/><path d="M149.466 157.111a.46.46 0 0 1 .46-.46h.69v26.671h-.69a.46.46 0 0 1-.46-.461v-25.75z" class="L"/><path d="M325 173.665a.46.46 0 0 1-.46.46h-.69V131.82h.69a.46.46 0 0 1 .46.46v41.385z" class="L"/><path d="M153.386 69.067c0-13.85 11.228-25.077 25.077-25.077h117.334c13.849 0 25.077 11.228 25.077 25.077v299.098c0 13.849-11.228 25.077-25.077 25.077H178.463c-13.849 0-25.077-11.228-25.077-25.077V69.067zm5.524-.234a19.33 19.33 0 0 1 19.325-19.326h117.793a19.33 19.33 0 0 1 19.326 19.326v299.335a19.33 19.33 0 0 1-19.326 19.325H178.235c-10.673 0-19.325-8.652-19.325-19.325V68.833zm36.097-17.101a2.3 2.3 0 0 0-2.299-2.224h2.299v2.224zm83.987-2.224H195.02v4.363c0 4.574 3.708 8.282 8.282 8.282h67.41c4.574 0 8.282-3.708 8.282-8.282v-4.363zm2.306 0a2.3 2.3 0 0 0-2.299 2.224v-2.224h2.299z" class="C L"/><rect x="227.445" y="52.497" width="19.556" height="3.219" rx="1.609" class="P"/><ellipse cx="254.59" cy="54.107" rx="1.61" ry="1.609" class="P"/></g><rect x="88.693" y="97.654" width="99.353" height="75.204" rx="6.899" class="B"/><path d="M128.496 109.143h.407v-1.609h.563v-.335h-1.532v.335h.562v1.609zm1.783.03c.436 0 .715-.281.715-.752v-.003c0-.468-.284-.749-.717-.749s-.714.284-.714.749v.003c0 .47.276.752.716.752zm.001-.309c-.194 0-.317-.16-.317-.443v-.003c0-.279.124-.441.314-.441s.317.162.317.441v.003c0 .281-.123.443-.314.443zm1.768.309a1.2 1.2 0 0 0 .19-.015v-.288l-.085.006a.15.15 0 0 1-.179-.18v-.701h.264v-.297h-.264v-.353h-.398v.353h-.201v.297h.201v.744c0 .31.151.434.472.434zm1.099-.007c.19 0 .344-.09.426-.239h.008v.216h.394v-.99c0-.291-.242-.484-.615-.484-.381 0-.61.191-.632.458l-.001.016h.36l.002-.012c.019-.093.108-.162.255-.162.154 0 .237.08.237.208v.089l-.357.021c-.358.023-.562.177-.562.44v.002c0 .255.195.437.485.437zm-.095-.457v-.003c0-.102.079-.167.231-.176l.298-.019v.104c0 .151-.129.264-.306.264-.136 0-.223-.063-.223-.17zm1.463.434h.393v-1.944h-.393v1.944zm1.791 0h.861c.416 0 .673-.213.673-.554v-.002c0-.255-.195-.447-.466-.467v-.008a.43.43 0 0 0 .376-.423v-.003c0-.299-.231-.487-.597-.487h-.847v1.944zm.742-1.643c.19 0 .301.089.301.244v.003c0 .168-.122.264-.351.264h-.285v-.511h.335zm-.002.787c.25 0 .379.096.379.274v.003c0 .18-.128.276-.361.276h-.351v-.553h.333zm1.698.879a.47.47 0 0 0 .426-.239h.008v.216h.393v-.99c0-.291-.241-.484-.614-.484-.382 0-.611.191-.632.458l-.002.016h.36l.003-.012c.019-.093.108-.162.255-.162.153 0 .237.08.237.208v.089l-.357.021c-.359.023-.562.177-.562.44v.002c0 .255.195.437.485.437zm-.096-.457v-.003c0-.102.08-.167.232-.176l.298-.019v.104c0 .151-.13.264-.306.264-.136 0-.224-.063-.224-.17zm1.463.434h.394v-1.944h-.394v1.944zm1.365.023c.19 0 .344-.09.426-.239h.008v.216h.394v-.99c0-.291-.242-.484-.615-.484-.381 0-.61.191-.632.458l-.001.016h.36l.002-.012c.019-.093.108-.162.255-.162.154 0 .237.08.237.208v.089l-.357.021c-.358.023-.562.177-.562.44v.002c0 .255.195.437.485.437zm-.095-.457v-.003c0-.102.079-.167.231-.176l.298-.019v.104c0 .151-.129.264-.306.264-.136 0-.223-.063-.223-.17zm1.453.434h.394v-.83c0-.189.112-.318.288-.318s.266.108.266.296v.852h.393v-.932c0-.339-.181-.542-.499-.542-.218 0-.366.101-.44.267h-.008v-.238h-.394v1.445zm2.527.03c.385 0 .634-.24.653-.555v-.009h-.366l-.002.013c-.027.145-.125.242-.283.242-.194 0-.315-.16-.315-.443v-.002c0-.276.121-.442.314-.442.163 0 .259.106.283.243l.003.012h.365v-.009c-.015-.313-.264-.554-.656-.554-.433 0-.709.287-.709.749v.001c0 .467.272.754.713.754zm1.777 0c.412 0 .612-.244.656-.457l.004-.015h-.361l-.003.008c-.028.081-.126.17-.288.17-.201 0-.326-.135-.33-.365h.994v-.122c0-.436-.265-.723-.688-.723s-.694.294-.694.753v.001c0 .463.268.75.71.75zm-.01-1.21c.163 0 .281.103.305.303h-.613c.025-.196.147-.303.308-.303z" fill="#37456c" fill-opacity=".3"/><path d="M121.597 118.984h.24v-.45c.865-.041 1.42-.464 1.42-1.162v-.003c0-.595-.361-.913-1.14-1.067l-.28-.056v-.777c.297.03.464.159.507.391l.005.024h.852l-.006-.051c-.062-.652-.544-1.027-1.358-1.07v-.45h-.24v.45c-.841.027-1.393.464-1.393 1.124v.006c0 .592.369.943 1.116 1.091l.277.054v.792c-.353-.027-.528-.161-.571-.377l-.006-.024h-.851l.002.037c.044.653.577 1.038 1.426 1.068v.45zm-.493-3.17v-.002c0-.192.167-.329.493-.348v.736c-.358-.078-.493-.194-.493-.386zm1.253 1.655v.003c0 .207-.164.339-.52.361v-.747c.399.084.52.186.52.383zm3.615 1.194c.9 0 1.563-.571 1.563-1.383v-.005a1.19 1.19 0 0 0-1.256-1.248c-.525 0-.897.256-1.051.626h-.018l.005-.184c.038-.617.261-1.075.749-1.075.278 0 .461.14.545.329l.008.019h.967l-.003-.022c-.113-.62-.714-1.086-1.517-1.086-1.046 0-1.695.768-1.695 2.024v.005c0 1.254.647 2 1.703 2zm-.636-1.353v-.003c0-.345.275-.587.631-.587.345 0 .614.242.614.593v.005c0 .329-.28.582-.622.582-.351 0-.623-.253-.623-.59zm3.181 1.283h2.965v-.76h-1.693v-.032l.76-.647c.645-.558.884-.857.884-1.353v-.006c0-.689-.593-1.161-1.477-1.161-.875 0-1.495.525-1.495 1.288v.024h.905l.003-.029c.016-.313.24-.537.59-.537.305 0 .518.197.518.472v.005c0 .243-.095.421-.583.852l-1.377 1.21v.674zm3.782.838h.655l.396-1.582h-.878l-.173 1.582zm3.564-.768c1.035 0 1.666-.773 1.666-2.013v-.006c0-1.239-.631-2.01-1.666-2.01s-1.668.771-1.668 2.01v.006c0 1.24.633 2.013 1.668 2.013zm0-.773c-.428 0-.668-.45-.668-1.24v-.006c0-.789.24-1.237.668-1.237s.666.448.666 1.237v.006c0 .79-.237 1.24-.666 1.24zm4.259.773c1.035 0 1.666-.773 1.666-2.013v-.006c0-1.239-.631-2.01-1.666-2.01s-1.668.771-1.668 2.01v.006c0 1.24.633 2.013 1.668 2.013zm0-.773c-.428 0-.668-.45-.668-1.24v-.006c0-.789.24-1.237.668-1.237s.666.448.666 1.237v.006c0 .79-.237 1.24-.666 1.24zm4.259.773c1.035 0 1.666-.773 1.666-2.013v-.006c0-1.239-.631-2.01-1.666-2.01s-1.668.771-1.668 2.01v.006c0 1.24.634 2.013 1.668 2.013zm0-.773c-.428 0-.668-.45-.668-1.24v-.006c0-.789.24-1.237.668-1.237s.666.448.666 1.237v.006c0 .79-.237 1.24-.666 1.24zm2.926.754a.5.5 0 1 0 0-1.01.5.5 0 1 0 0 1.01zm2.962.019c1.035 0 1.666-.773 1.666-2.013v-.006c0-1.239-.631-2.01-1.666-2.01s-1.668.771-1.668 2.01v.006c0 1.24.633 2.013 1.668 2.013zm0-.773c-.428 0-.668-.45-.668-1.24v-.006c0-.789.24-1.237.668-1.237s.666.448.666 1.237v.006c0 .79-.237 1.24-.666 1.24zm4.259.773c1.035 0 1.666-.773 1.666-2.013v-.006c0-1.239-.631-2.01-1.666-2.01s-1.668.771-1.668 2.01v.006c0 1.24.634 2.013 1.668 2.013zm0-.773c-.428 0-.668-.45-.668-1.24v-.006c0-.789.24-1.237.668-1.237s.666.448.666 1.237v.006c0 .79-.237 1.24-.666 1.24z" class="N"/><rect x="95.075" y="104.036" width="86.589" height="19.664" rx="3.277" stroke="#393e50" class="H K"/><path d="M96.466 136.532h.618v-2.431h-.618v2.431zm.947 0h.598v-1.041c0-.204.118-.346.308-.346.195 0 .295.123.295.334v1.053h.596v-1.181c0-.435-.227-.692-.63-.692-.278 0-.467.131-.558.362h-.012v-.324h-.598v1.835zm2.956.038c.529 0 .851-.32.863-.746v-.012h-.548l-.003.017c-.024.176-.13.288-.305.288-.212 0-.334-.178-.334-.502v-.001c0-.319.125-.502.332-.502.175 0 .283.118.307.288l.001.017h.55l-.002-.012c-.008-.436-.349-.746-.866-.746-.571 0-.928.362-.928.953v.002c0 .594.355.956.933.956zm1.966 0c.578 0 .938-.348.938-.955v-.003c0-.598-.367-.953-.938-.953s-.938.358-.938.953v.003c0 .605.357.955.938.955zm.002-.453c-.208 0-.334-.178-.334-.502v-.003c0-.317.13-.5.332-.5s.333.183.333.5v.003c0 .322-.128.502-.331.502zm1.167.415h.598v-1.085c0-.182.104-.302.266-.302s.254.102.254.287v1.1h.571v-1.088c0-.182.101-.299.263-.299.169 0 .258.1.258.292v1.095h.598v-1.248a.58.58 0 0 0-.603-.625c-.273 0-.495.155-.566.392h-.012c-.052-.249-.239-.392-.5-.392a.52.52 0 0 0-.517.369h-.012v-.331h-.598v1.835zm3.965.038c.585 0 .815-.343.871-.597l.005-.021h-.539l-.002.009c-.027.076-.131.185-.323.185-.217 0-.352-.147-.359-.394h1.233v-.175c0-.556-.352-.918-.906-.918s-.911.365-.911.955v.001c0 .593.352.955.931.955zm-.007-1.487c.176 0 .3.111.331.317h-.662c.03-.202.156-.317.331-.317z" class="I O"/><path d="M97.362 142.846h.15v-.281c.541-.026.888-.29.888-.726v-.002c0-.372-.226-.571-.713-.667l-.175-.036v-.485c.185.019.29.1.317.245l.003.015h.532l-.003-.032c-.039-.408-.34-.642-.849-.669v-.281h-.15v.281c-.525.017-.871.29-.871.702v.004c0 .37.231.589.697.682l.173.034v.495c-.221-.017-.33-.101-.357-.236l-.003-.015h-.532l.002.023c.027.408.36.649.891.668v.281zm-.308-1.981v-.002c0-.119.104-.205.308-.217v.46c-.224-.049-.308-.122-.308-.241zm.783 1.034v.002c0 .13-.103.212-.325.226v-.467c.249.052.325.116.325.239zm1.516.703h.615v-2.431h-.617l-.618.421v.529l.608-.408h.012v1.889zm1.383.032c.177 0 .317-.14.317-.317s-.14-.315-.317-.315-.315.14-.315.315.14.317.315.317zm1.606.011c.613 0 1.031-.288 1.031-.71v-.004c0-.322-.246-.547-.58-.605v-.011c.288-.064.49-.268.49-.529v-.004c0-.379-.382-.655-.941-.655s-.942.276-.942.655v.004c0 .261.204.465.492.529v.011c-.334.058-.581.283-.581.605v.004c0 .422.418.71 1.031.71zm0-1.506c-.196 0-.332-.119-.332-.294v-.004c0-.171.14-.289.332-.289s.333.118.333.289v.004c0 .175-.138.294-.333.294zm0 1.08c-.228 0-.388-.136-.388-.327v-.003c0-.189.157-.327.388-.327s.387.138.387.327v.003c0 .191-.158.327-.387.327zm1.923.383h.615v-2.431h-.616l-.619.421v.529l.609-.408h.011v1.889zm2.129.043c.614 0 1.031-.288 1.031-.71v-.004c0-.322-.246-.547-.579-.605v-.011c.288-.064.49-.268.49-.529v-.004c0-.379-.382-.655-.942-.655s-.941.276-.941.655v.004c0 .261.204.465.492.529v.011c-.334.058-.581.283-.581.605v.004c0 .422.417.71 1.03.71zm0-1.506c-.195 0-.331-.119-.331-.294v-.004c0-.171.139-.289.331-.289s.334.118.334.289v.004c0 .175-.138.294-.334.294zm0 1.08c-.227 0-.387-.136-.387-.327v-.003c0-.189.157-.327.387-.327s.388.138.388.327v.003c0 .191-.158.327-.388.327zm1.213.906h.41l.247-.988h-.549l-.108.988zm1.932-.48c.563 0 .977-.357.977-.864v-.003c0-.452-.311-.78-.785-.78-.328 0-.561.16-.657.391h-.011l.003-.115c.024-.386.163-.672.468-.672.174 0 .288.088.341.206l.005.011h.604l-.001-.013c-.071-.387-.447-.679-.949-.679-.653 0-1.059.48-1.059 1.265v.003c0 .784.404 1.25 1.064 1.25zm-.397-.845v-.002c0-.216.172-.367.394-.367.216 0 .384.151.384.37v.004c0 .205-.175.364-.389.364-.219 0-.389-.159-.389-.369zm2.697.845c.646 0 1.041-.483 1.041-1.258v-.003c0-.775-.395-1.257-1.041-1.257s-1.043.482-1.043 1.257v.003c0 .775.396 1.258 1.043 1.258zm0-.483c-.268 0-.418-.281-.418-.775v-.003c0-.494.15-.773.418-.773s.416.279.416.773v.003c0 .494-.149.775-.416.775z" class="I N"/><path d="M120.182 143.051l2.07-2.759 2.07-1.38 2.76-3.795 3.104-1.035 1.035 1.035v3.105l1.38 1.38v1.724l4.485.69 3.795-1.034 2.069-6.21 1.725 4.83h2.76l1.38 1.38h2.76v-2.07l2.07-2.07 2.069-1.035 2.415-1.035" stroke="#37409b" class="H"/><path d="M165.236 138.834h.691v.621h.513v-.621h.691v-.512h-.691v-.623h-.513v.623h-.691v.512zm2.84-.42c.372 0 .6-.249.6-.65v-.001c0-.4-.228-.651-.6-.651s-.601.251-.601.651v.001c0 .401.229.65.601.65zm.327 1.153l1.522-2.431h-.426l-1.526 2.431h.43zm-.327-1.473c-.121 0-.187-.112-.187-.328v-.002c0-.217.066-.328.187-.328s.185.111.185.328v.002c0 .216-.065.328-.185.328zm1.75 1.496c.372 0 .6-.251.6-.652v-.001c0-.4-.228-.649-.6-.649s-.603.249-.603.649v.001c0 .401.231.652.603.652zm0-.321c-.121 0-.187-.113-.187-.329v-.002c0-.215.066-.328.187-.328s.184.113.184.328v.002c0 .216-.064.329-.184.329zm1.855-2.177c-.561 0-.976.357-.976.864v.004c0 .451.31.78.784.78.328 0 .561-.16.657-.391h.011l-.003.114c-.022.386-.163.672-.468.672-.172 0-.287-.087-.341-.205l-.005-.012h-.604l.003.014c.069.387.445.678.947.678.653 0 1.059-.48 1.059-1.265v-.003c0-.783-.402-1.25-1.064-1.25zm.005 1.215c-.218 0-.386-.152-.386-.371v-.003c0-.206.175-.364.391-.364s.387.158.387.369v.001c0 .216-.172.368-.392.368zm1.533 1.292c.176 0 .316-.14.316-.317s-.14-.315-.316-.315-.315.14-.315.315.139.317.315.317zm1.605.011c.613 0 1.031-.288 1.031-.71v-.004c0-.321-.246-.547-.58-.604v-.012c.288-.064.49-.268.49-.529v-.004c0-.379-.382-.655-.941-.655s-.942.276-.942.655v.004c0 .261.204.465.492.529v.012c-.333.057-.581.283-.581.604v.004c0 .422.418.71 1.031.71zm0-1.505c-.196 0-.332-.12-.332-.295v-.004c0-.171.14-.289.332-.289s.333.118.333.289v.004c0 .175-.138.295-.333.295zm0 1.079c-.228 0-.388-.136-.388-.327v-.003c0-.189.157-.327.388-.327s.387.138.387.327v.003c0 .191-.158.327-.387.327zm2.284-2.092c-.561 0-.975.357-.975.864v.004c0 .451.31.78.783.78.328 0 .561-.16.657-.391h.012l-.004.114c-.022.386-.163.672-.468.672-.172 0-.286-.087-.34-.205l-.005-.012h-.605l.003.014c.069.387.445.678.947.678.654 0 1.06-.48 1.06-1.265v-.003c0-.783-.403-1.25-1.065-1.25zm.005 1.215c-.217 0-.386-.152-.386-.371v-.003c0-.206.175-.364.391-.364s.387.158.387.369v.001c0 .216-.171.368-.392.368z" class="I N"/><rect x="94.903" y="153.261" width="82.506" height="12.83" rx="1.38" fill="#f9f9f9"/><path d="M96.466 157.641h1.666v-.497h-1.048v-.492h.985v-.465h-.985v-.48h1.048v-.497h-1.666v2.431zm1.858 0h.618l.296-.605h.012l.302.605h.645l-.547-.925.549-.91h-.643l-.271.586h-.012l-.273-.586h-.674l.547.923-.549.912zm2.047.589h.598v-.904h.012c.091.22.293.353.557.353.458 0 .726-.352.726-.955v-.001c0-.607-.269-.955-.733-.955-.261 0-.456.136-.549.365h-.013v-.327h-.598v2.424zm.941-1.036c-.208 0-.347-.178-.347-.468v-.002c0-.293.14-.47.347-.47s.346.176.346.469v.001c0 .29-.135.47-.346.47zm2.064.485c.584 0 .815-.343.871-.598l.005-.02h-.539l-.002.009c-.027.075-.131.185-.323.185-.218 0-.352-.147-.359-.394h1.233v-.175c0-.556-.352-.918-.906-.918s-.912.365-.912.955v.001c0 .593.352.955.932.955zm-.007-1.487c.175 0 .3.111.33.317h-.662c.031-.202.157-.317.332-.317zm1.125 1.449h.598V156.6c0-.204.118-.346.309-.346s.294.123.294.334v1.053h.597v-1.181c0-.435-.228-.692-.63-.692-.278 0-.467.131-.558.362h-.012v-.324h-.598v1.835zm2.886.038c.503 0 .847-.241.847-.62v-.001c0-.275-.168-.426-.557-.504l-.324-.064c-.173-.035-.229-.082-.229-.162v-.001c0-.096.094-.157.241-.157.165 0 .258.089.271.197l.002.014h.546l-.002-.014c-.005-.328-.286-.599-.817-.599-.502 0-.815.227-.815.592v.002c0 .28.187.467.545.536l.324.064c.163.033.222.079.222.162v.001c0 .095-.096.152-.254.152-.175 0-.27-.073-.298-.197l-.004-.014h-.579l.002.015c.04.357.333.598.879.598zm1.935 0c.585 0 .816-.343.871-.598l.005-.02h-.539l-.002.009c-.026.075-.131.185-.323.185-.217 0-.352-.147-.359-.394h1.233v-.175c0-.556-.352-.918-.906-.918s-.911.365-.911.955v.001c0 .593.352.955.931.955zm-.006-1.487c.175 0 .299.111.33.317h-.662c.03-.202.156-.317.332-.317z" class="I O"/><path d="M97.362 163.955h.15v-.282c.541-.025.888-.289.888-.726v-.001c0-.373-.226-.571-.713-.667l-.175-.036v-.485c.185.019.29.1.317.244l.003.016h.532l-.003-.032c-.039-.408-.34-.642-.849-.669v-.281h-.15v.281c-.525.017-.871.29-.871.702v.004c0 .37.231.589.697.682l.173.034v.495c-.221-.017-.33-.101-.357-.236l-.003-.015h-.532l.002.023c.027.408.36.649.891.667v.282zm-.308-1.981v-.002c0-.119.104-.205.308-.217v.46c-.224-.049-.308-.122-.308-.241zm.783 1.034v.002c0 .129-.103.212-.325.225v-.466c.249.052.325.116.325.239zm1.92.746c.613 0 1.031-.288 1.031-.711v-.003c0-.322-.246-.547-.58-.605v-.011c.288-.064.49-.268.49-.529v-.004c0-.379-.382-.655-.941-.655s-.942.276-.942.655v.004c0 .261.204.465.492.529v.011c-.334.058-.581.283-.581.605v.003c0 .423.418.711 1.031.711zm0-1.506c-.195 0-.332-.119-.332-.294v-.004c0-.172.14-.29.332-.29s.333.118.333.29v.004c0 .175-.138.294-.333.294zm0 1.08c-.227 0-.387-.136-.387-.327v-.003c0-.189.157-.327.387-.327s.387.138.387.327v.003c0 .191-.158.327-.387.327zm1.923.382h.615v-2.43h-.616l-.619.421v.529l.609-.408h.011v1.888zm2.13.044c.613 0 1.03-.288 1.03-.711v-.003c0-.322-.246-.547-.579-.605v-.011c.288-.064.49-.268.49-.529v-.004c0-.379-.382-.655-.941-.655s-.942.276-.942.655v.004c0 .261.204.465.492.529v.011c-.334.058-.581.283-.581.605v.003c0 .423.417.711 1.031.711zm0-1.506c-.196 0-.332-.119-.332-.294v-.004c0-.172.139-.29.332-.29s.333.118.333.29v.004c0 .175-.138.294-.333.294zm0 1.08c-.228 0-.388-.136-.388-.327v-.003c0-.189.157-.327.388-.327s.387.138.387.327v.003c0 .191-.158.327-.387.327zm1.212.906h.41l.247-.988h-.549l-.108.988zm1.932-.48c.563 0 .977-.357.977-.864v-.003c0-.452-.311-.78-.785-.78-.328 0-.561.16-.657.391h-.011l.003-.115c.024-.386.163-.672.468-.672.174 0 .288.088.341.206l.005.011h.604l-.001-.013c-.071-.388-.447-.679-.949-.679-.653 0-1.059.48-1.059 1.265v.003c0 .784.404 1.25 1.064 1.25zm-.397-.845v-.002c0-.216.172-.367.394-.367.216 0 .384.151.384.37v.004c0 .205-.175.364-.389.364-.219 0-.389-.159-.389-.369zm2.697.845c.646 0 1.041-.483 1.041-1.258v-.003c0-.775-.395-1.257-1.041-1.257s-1.043.482-1.043 1.257v.003c0 .775.396 1.258 1.043 1.258zm0-.483c-.268 0-.418-.281-.418-.775v-.003c0-.494.15-.774.418-.774s.416.28.416.774v.003c0 .494-.149.775-.416.775z" class="I N"/><path d="M118.182 164.16l2.07-2.76 2.07-1.379 2.76-3.795 3.104-1.035 1.035 1.035v3.105l1.38 1.38v1.724l4.485.69 3.795-1.035 2.069-6.209 1.725 4.83h2.76l1.38 1.379h2.76v-2.069l2.07-2.07 2.069-1.035 2.415-1.035" stroke="#e55c5e" class="H"/><path d="M163.251 159.943h1.098v-.512h-1.098v.512zm2.057-.42c.372 0 .6-.249.6-.65v-.002c0-.399-.228-.65-.6-.65s-.601.251-.601.65v.002c0 .401.229.65.601.65zm.327 1.153l1.522-2.431h-.426l-1.526 2.431h.43zm-.327-1.473c-.121 0-.187-.113-.187-.328v-.002c0-.217.066-.328.187-.328s.185.111.185.328v.002c0 .215-.066.328-.185.328zm1.75 1.496c.372 0 .6-.251.6-.652v-.001c0-.4-.228-.649-.6-.649s-.603.249-.603.649v.001c0 .401.231.652.603.652zm0-.322c-.121 0-.187-.112-.187-.328v-.002c0-.215.066-.328.187-.328s.184.113.184.328v.002c0 .216-.064.328-.184.328zm1.912.342c.647 0 1.041-.483 1.041-1.258v-.003c0-.775-.394-1.257-1.041-1.257s-1.043.482-1.043 1.257v.003c0 .775.396 1.258 1.043 1.258zm0-.483c-.268 0-.418-.281-.418-.775v-.003c0-.494.15-.773.418-.773s.416.279.416.773v.003c0 .494-.148.775-.416.775zm1.518.472c.176 0 .316-.14.316-.317s-.14-.315-.316-.315-.315.14-.315.315.139.317.315.317zm1.605.011c.613 0 1.031-.288 1.031-.711v-.003c0-.322-.246-.547-.58-.605v-.011c.288-.064.49-.268.49-.529v-.004c0-.379-.382-.655-.941-.655s-.942.276-.942.655v.004c0 .261.204.465.492.529v.011c-.333.058-.581.283-.581.605v.003c0 .423.418.711 1.031.711zm0-1.506c-.196 0-.332-.119-.332-.294v-.004c0-.172.14-.289.332-.289s.333.117.333.289v.004c0 .175-.138.294-.333.294zm0 1.08c-.228 0-.388-.136-.388-.327v-.003c0-.189.157-.327.388-.327s.387.138.387.327v.003c0 .191-.158.327-.387.327zm2.284-2.092c-.561 0-.975.357-.975.864v.004a.74.74 0 0 0 .783.779c.328 0 .561-.16.657-.39h.012l-.004.114c-.022.386-.163.672-.468.672-.172 0-.286-.087-.34-.205l-.005-.012h-.605l.003.014c.069.387.445.678.947.678.654 0 1.059-.48 1.059-1.265v-.003c0-.783-.402-1.25-1.064-1.25zm.005 1.215c-.217 0-.386-.152-.386-.371v-.003c0-.206.175-.364.391-.364s.387.158.387.369v.001c0 .216-.171.368-.392.368z" fill="#e55c5e" class="I"/><g filter="url(#B)"><rect x="292.228" y="25.21" width="87.624" height="58.646" rx="6.899" shape-rendering="crispEdges" class="B"/><rect x="329.486" y="36.148" width="13.109" height="12.419" rx="1.38" fill="#f2f2f2"/><path d="M335.696 41.322v1.38h1.38" class="H J Q R"/><path d="M336.041 45.462c1.715 0 3.105-1.39 3.105-3.105s-1.39-3.105-3.105-3.105-3.104 1.39-3.104 3.105 1.39 3.105 3.104 3.105z" stroke-width=".69" stroke-miterlimit="10" class="J"/><path d="M338.456 38.563l1.38 1.38" class="H J Q R"/><path d="M332.247 39.942l1.379-1.38" class="H J Q R"/><path d="M318.443 61.467h.673v-3.241h.019l2.252 3.241h.625v-4.375h-.673v3.235h-.018l-2.25-3.235h-.628v4.375zm5.661.064c.773 0 1.264-.461 1.367-.967l.007-.033h-.622l-.009.024c-.082.239-.34.44-.728.44-.521 0-.852-.352-.864-.955h2.259v-.221c0-.958-.549-1.601-1.443-1.601s-1.471.667-1.471 1.665v.003c0 1.007.567 1.646 1.504 1.646zm-.03-2.777c.427 0 .736.27.791.822h-1.601c.058-.534.385-.822.81-.822zm1.655 2.714h.71l.706-1.173h.015l.707 1.173h.721l-1.037-1.613 1.05-1.577h-.725l-.685 1.155h-.016l-.694-1.155h-.737l1.04 1.598-1.055 1.592zm4.403.064c.133 0 .257-.015.333-.027v-.506c-.048.006-.106.012-.176.012-.276 0-.421-.097-.421-.422v-1.789h.597v-.522h-.597v-.831h-.67v.831h-.458v.522h.458v1.828c0 .637.303.904.934.904zm2.216-.064h.619v-3.229h.021l1.319 3.229h.503l1.319-3.229h.021v3.229h.619v-4.375h-.783l-1.419 3.493h-.018l-1.416-3.493h-.785v4.375zm6.51.064c.773 0 1.264-.461 1.367-.967l.006-.033h-.621l-.009.024c-.082.239-.34.44-.728.44-.522 0-.852-.352-.864-.955h2.259v-.221c0-.958-.549-1.601-1.444-1.601s-1.47.667-1.47 1.665v.003c0 1.007.567 1.646 1.504 1.646zm-.031-2.777c.428 0 .737.27.792.822h-1.601c.058-.534.385-.822.809-.822zm3.311 2.777c.774 0 1.265-.461 1.368-.967l.006-.033h-.622l-.009.024c-.082.239-.339.44-.727.44-.522 0-.852-.352-.865-.955h2.259v-.221c0-.958-.549-1.601-1.443-1.601s-1.47.667-1.47 1.665v.003c0 1.007.567 1.646 1.503 1.646zm-.03-2.777c.428 0 .737.27.791.822h-1.6c.057-.534.385-.822.809-.822zm3.068 2.777c.134 0 .258-.015.334-.027v-.506c-.049.006-.106.012-.176.012-.276 0-.421-.097-.421-.422v-1.789h.597v-.522h-.597v-.831h-.67v.831h-.458v.522h.458v1.828c0 .637.303.904.933.904zm1.231-3.745c.216 0 .382-.17.382-.376s-.166-.379-.382-.379a.38.38 0 0 0-.382.379.38.38 0 0 0 .382.376zm-.327 3.681h.655v-3.19h-.655v3.19zm1.331 0h.655v-1.859c0-.497.297-.831.758-.831.455 0 .679.27.679.749v1.941h.658v-2.065c0-.734-.403-1.185-1.104-1.185-.482 0-.809.218-.976.543h-.015v-.482h-.655v3.19zm4.782 1.125c.9 0 1.464-.485 1.464-1.213v-3.102h-.658v.543h-.015a1.09 1.09 0 0 0-.989-.603c-.809 0-1.343.628-1.343 1.628v.003c0 .994.528 1.622 1.328 1.622.458 0 .822-.221 1.004-.567h.015v.437c0 .446-.288.725-.81.725-.409 0-.685-.14-.773-.343l-.012-.024h-.649l.003.027c.097.488.616.867 1.435.867zm-.028-1.656c-.518 0-.843-.412-.843-1.079v-.003c0-.658.325-1.076.843-1.076.497 0 .834.422.834 1.076v.003c0 .658-.333 1.079-.834 1.079z" class="O"/><path d="M325.351 70.984c.987 0 1.585-.773 1.585-2.011v-.005c0-1.237-.598-2.008-1.585-2.008s-1.585.771-1.585 2.008v.005c0 1.237.599 2.011 1.585 2.011zm0-.652c-.485 0-.763-.504-.763-1.358v-.005c0-.854.278-1.356.763-1.356s.763.501.763 1.356v.005c0 .854-.278 1.358-.763 1.358zm2.059.585h2.827v-.647h-1.762v-.032l.814-.744c.671-.617.894-.924.894-1.396v-.005c0-.663-.565-1.132-1.387-1.132s-1.432.515-1.432 1.248v.022h.755l.003-.024c.011-.35.28-.612.679-.612.345 0 .587.226.59.544v.005c0 .27-.105.461-.606.93l-1.375 1.286v.558zm3.722.046c.243 0 .437-.194.437-.437s-.194-.437-.437-.437a.43.43 0 0 0-.436.437c0 .243.191.437.436.437zm2.334.022c.908 0 1.512-.469 1.512-1.164v-.005c0-.528-.377-.862-.954-.916v-.016c.456-.094.811-.41.811-.895v-.005c0-.612-.539-1.021-1.377-1.021-.817 0-1.364.442-1.418 1.116l-.002.032h.746l.003-.024c.032-.302.291-.499.671-.499s.606.189.606.504v.005c0 .315-.264.531-.671.531h-.434v.579h.445c.469 0 .747.205.747.577v.005c0 .318-.27.542-.688.542s-.695-.208-.73-.485l-.005-.03h-.777l.003.035c.054.671.631 1.135 1.512 1.135zm3.55 0c.986 0 1.584-.773 1.584-2.011v-.005c0-1.237-.598-2.008-1.584-2.008s-1.585.771-1.585 2.008v.005c0 1.237.598 2.011 1.585 2.011zm0-.652c-.486 0-.763-.504-.763-1.358v-.005c0-.854.277-1.356.763-1.356s.762.501.762 1.356v.005c0 .854-.277 1.358-.762 1.358zm3.228.585h.814V69.69h.75c.819 0 1.366-.528 1.366-1.329v-.005c0-.8-.547-1.329-1.366-1.329h-1.564v3.889zm1.364-3.245c.466 0 .741.245.741.687v.005c0 .442-.275.69-.741.69h-.55v-1.383h.55zm2.048 3.245h.725v-2.63h.022l1.051 2.63h.512l1.048-2.63h.025v2.63h.725v-3.889h-.941l-1.105 2.795h-.016l-1.105-2.795h-.941v3.889z" fill-opacity=".4" class="O"/></g><rect x="40.016" y="327.406" width="155.238" height="45.537" rx="6.899" fill="url(#C)"/><path d="M51.037 347.755h1.132v-2.799h1.556l1.486 2.799h1.304l-1.632-2.971c.874-.298 1.415-1.086 1.415-2.077v-.01c0-1.369-.94-2.234-2.431-2.234h-2.83v7.292zm1.132-3.729v-2.613h1.556c.869 0 1.405.486 1.405 1.294v.01c0 .829-.5 1.309-1.375 1.309h-1.587zm5.225 3.729h4.629v-.975h-3.497v-2.264h3.31v-.95h-3.31v-2.127h3.497v-.976h-4.629v7.292zm5.791 0h1.031v-5.381h.035l2.198 5.381h.839l2.198-5.381h.035v5.381h1.031v-7.292h-1.304l-2.365 5.822h-.03l-2.36-5.822h-1.309v7.292zm8.712 0h1.132v-7.292h-1.132v7.292zm2.476 0h1.122v-5.402h.03l3.755 5.402h1.041v-7.292h-1.122v5.392h-.03l-3.75-5.392h-1.046v7.292zm7.297 0h2.572c2.173 0 3.451-1.354 3.451-3.658v-.01c0-2.295-1.289-3.624-3.451-3.624H81.67v7.292zm1.132-.98v-5.336h1.334c1.536 0 2.4.945 2.4 2.658v.01c0 1.723-.854 2.668-2.4 2.668h-1.334zm5.973.98h4.629v-.975h-3.497v-2.264h3.31v-.95h-3.31v-2.127h3.497v-.976h-4.629v7.292zm5.791 0h1.132v-2.799h1.556l1.486 2.799h1.304l-1.632-2.971c.874-.298 1.415-1.086 1.415-2.077v-.01c0-1.369-.94-2.234-2.431-2.234h-2.83v7.292zm1.132-3.729v-2.613h1.556c.869 0 1.405.486 1.405 1.294v.01c0 .829-.5 1.309-1.374 1.309h-1.587zm5.716.01a.66.66 0 1 0 0-1.329.66.66 0 1 0 0 1.329zm0 3.795a.66.66 0 0 0 .662-.662c0-.374-.294-.662-.662-.662-.374 0-.667.288-.667.662a.66.66 0 0 0 .667.662zm5.366.02c.703 0 1.319-.363 1.627-.934h.021v.838h1.096v-3.663c0-1.067-.824-1.754-2.122-1.754-1.309 0-2.102.703-2.178 1.617l-.005.056h1.031l.01-.046c.091-.424.48-.722 1.111-.722.678 0 1.057.353 1.057.94v.399l-1.446.086c-1.258.076-1.976.642-1.976 1.566v.01c0 .956.713 1.607 1.774 1.607zm-.672-1.632v-.01c0-.45.364-.738 1.021-.778l1.299-.081v.414c0 .693-.582 1.213-1.35 1.213-.586 0-.97-.293-.97-.758zm4.477 3.305h1.092v-2.663h.025c.313.616.925 1 1.678 1 1.334 0 2.208-1.066 2.208-2.759v-.005c0-1.698-.869-2.759-2.223-2.759a1.79 1.79 0 0 0-1.663 1.016h-.025v-.915h-1.092v7.085zm2.497-2.602c-.824 0-1.41-.718-1.41-1.82v-.005c0-1.106.581-1.824 1.41-1.824.854 0 1.394.692 1.394 1.824v.005c0 1.122-.535 1.82-1.394 1.82zm3.355 2.602h1.092v-2.663h.025c.313.616.925 1 1.678 1 1.334 0 2.208-1.066 2.208-2.759v-.005c0-1.698-.869-2.759-2.224-2.759-.758 0-1.344.384-1.662 1.016h-.025v-.915h-1.092v7.085zm2.496-2.602c-.823 0-1.409-.718-1.409-1.82v-.005c0-1.106.581-1.824 1.409-1.824.854 0 1.395.692 1.395 1.824v.005c0 1.122-.535 1.82-1.395 1.82zm5.64.939c1.521 0 2.522-1.051 2.522-2.764v-.01c0-1.703-1.011-2.749-2.527-2.749-1.511 0-2.517 1.051-2.517 2.749v.01c0 1.708.996 2.764 2.522 2.764zm.005-.914c-.854 0-1.41-.672-1.41-1.85v-.01c0-1.162.561-1.834 1.4-1.834.854 0 1.41.672 1.41 1.834v.01c0 1.173-.546 1.85-1.4 1.85zm3.952-5.326c.359 0 .636-.283.636-.627a.63.63 0 0 0-.636-.632c-.354 0-.637.283-.637.632 0 .344.283.627.637.627zm-.546 6.134h1.092v-5.316h-1.092v5.316zm2.218 0h1.092v-3.097c0-.829.495-1.385 1.263-1.385.758 0 1.132.45 1.132 1.248v3.234h1.097v-3.441c0-1.223-.672-1.976-1.84-1.976-.803 0-1.349.364-1.627.905h-.025v-.804h-1.092v5.316zm7.505.106c.222 0 .429-.025.555-.045v-.844c-.08.01-.176.02-.293.02-.459 0-.702-.161-.702-.702v-2.982h.995v-.869h-.995v-1.384h-1.117v1.384h-.763v.869h.763v3.048c0 1.061.506 1.505 1.557 1.505zm1.46-.106h1.092v-3.284c0-.688.459-1.198 1.106-1.198.617 0 1.006.394 1.006 1.011v3.471h1.071v-3.325c0-.672.45-1.157 1.097-1.157s1.015.399 1.015 1.092v3.39h1.097v-3.653c0-1.066-.687-1.764-1.738-1.764-.758 0-1.385.399-1.658 1.046h-.025c-.212-.667-.748-1.046-1.481-1.046-.697 0-1.238.369-1.465.925h-.025v-.824h-1.092v5.316zm10.809.106c1.289 0 2.107-.768 2.279-1.612l.01-.055h-1.036l-.015.04c-.136.4-.566.733-1.213.733-.869 0-1.42-.586-1.44-1.592h3.765v-.369c0-1.596-.915-2.668-2.405-2.668s-2.451 1.112-2.451 2.774v.006c0 1.677.945 2.743 2.506 2.743zm-.05-4.628c.712 0 1.228.449 1.319 1.369h-2.669c.096-.889.642-1.369 1.35-1.369zm3.249 4.522h1.091v-3.097c0-.829.496-1.385 1.264-1.385.758 0 1.132.45 1.132 1.248v3.234h1.096v-3.441c0-1.223-.672-1.976-1.839-1.976-.804 0-1.349.364-1.627.905h-.026v-.804h-1.091v5.316zm7.504.106c.222 0 .43-.025.556-.045v-.844a2.31 2.31 0 0 1-.293.02c-.46 0-.703-.161-.703-.702v-2.982h.996v-.869h-.996v-1.384h-1.116v1.384h-.763v.869h.763v3.048c0 1.061.505 1.505 1.556 1.505zm4.609-.106h1.127l1.106-3.982h.026l1.116 3.982h1.137l1.456-5.316h-1.082l-.97 4.184h-.025l-1.112-4.184h-1.051l-1.107 4.184h-.02l-.97-4.184h-1.092l1.461 5.316zm7.226-6.134a.63.63 0 0 0 .637-.627.63.63 0 0 0-.637-.632c-.354 0-.637.283-.637.632 0 .344.283.627.637.627zm-.546 6.134h1.092v-5.316h-1.092v5.316zm4.083.106a3.68 3.68 0 0 0 .556-.045v-.844a2.31 2.31 0 0 1-.293.02c-.46 0-.702-.161-.702-.702v-2.982h.995v-.869h-.995v-1.384h-1.117v1.384h-.763v.869h.763v3.048c0 1.061.505 1.505 1.556 1.505zm1.501-.106h1.092v-3.077c0-.829.5-1.405 1.253-1.405.768 0 1.213.526 1.213 1.405v3.077h1.091v-3.284c0-1.284-.748-2.133-1.885-2.133-.793 0-1.364.359-1.647.975h-.025v-2.85h-1.092v7.292zM54.155 359.877c1.612 0 2.82-.976 3.047-2.426l.005-.05h-1.122l-.015.045c-.273.925-.945 1.43-1.915 1.43-1.349 0-2.223-1.081-2.223-2.769v-.005c0-1.688.869-2.759 2.223-2.759.98 0 1.657.52 1.9 1.374l.03.101h1.122l-.01-.045c-.227-1.44-1.435-2.431-3.042-2.431-2.067 0-3.381 1.445-3.381 3.76v.005c0 2.314 1.314 3.77 3.381 3.77zm4.078-.122h4.629v-.975h-3.497v-2.264h3.31v-.95h-3.31v-2.127h3.497v-.976h-4.629v7.292zm8.944.122c2.107 0 3.416-1.451 3.416-3.765v-.01c0-2.31-1.314-3.76-3.416-3.76-2.097 0-3.416 1.445-3.416 3.76v.01c0 2.319 1.314 3.765 3.416 3.765zm0-1.001c-1.385 0-2.264-1.066-2.264-2.764v-.01c0-1.698.884-2.759 2.264-2.759 1.385 0 2.259 1.066 2.259 2.759v.01c0 1.683-.859 2.764-2.259 2.764zm8.03.975c.703 0 1.319-.363 1.627-.934h.02v.838h1.097v-3.663c0-1.067-.824-1.754-2.122-1.754-1.309 0-2.102.703-2.178 1.617l-.005.056h1.031l.01-.046c.091-.424.48-.722 1.112-.722.677 0 1.056.353 1.056.94v.399l-1.445.086c-1.258.076-1.976.642-1.976 1.566v.01c0 .956.713 1.607 1.774 1.607zm-.672-1.632v-.01c0-.45.364-.738 1.021-.778l1.299-.081v.414c0 .693-.581 1.213-1.349 1.213-.586 0-.97-.293-.97-.758zm6.342 1.642c.222 0 .429-.025.556-.045v-.844a2.31 2.31 0 0 1-.293.02c-.46 0-.702-.161-.702-.702v-2.982h.995v-.869h-.995v-1.384H79.32v1.384h-.763v.869h.763v3.048c0 1.061.505 1.505 1.556 1.505zm5.432-.106h1.107v-7.292h-1.117l-1.92 1.365v1.071l1.905-1.314h.025v6.17zm4.73 0h1.107v-7.292h-1.117l-1.92 1.365v1.071l1.905-1.314h.025v6.17zm3.269.076a.66.66 0 0 0 .662-.662c0-.374-.293-.662-.662-.662-.374 0-.667.288-.667.662a.66.66 0 0 0 .667.662zm4.214.046c1.546 0 2.643-.89 2.643-2.138v-.01c0-1.021-.718-1.668-1.789-1.764v-.025c.889-.187 1.536-.793 1.536-1.698v-.01c0-1.122-.95-1.89-2.4-1.89-1.425 0-2.395.804-2.506 2.021l-.005.051h1.061l.005-.045c.071-.678.637-1.102 1.445-1.102.824 0 1.299.409 1.299 1.112v.01c0 .677-.566 1.167-1.4 1.167h-.854v.879h.884c.975 0 1.572.46 1.572 1.284v.01c0 .707-.602 1.203-1.491 1.203-.904 0-1.516-.455-1.587-1.102l-.005-.056h-1.086l.005.066c.101 1.188 1.117 2.037 2.673 2.037zm6.372 0c1.739 0 2.785-1.451 2.785-3.765v-.01c0-2.315-1.046-3.76-2.785-3.76s-2.784 1.445-2.784 3.76v.01c0 2.314 1.041 3.765 2.784 3.765zm0-.945c-1.041 0-1.642-1.072-1.642-2.82v-.01c0-1.749.601-2.81 1.642-2.81s1.643 1.061 1.643 2.81v.01c0 1.748-.607 2.82-1.643 2.82zm7.434.919c.702 0 1.319-.363 1.627-.934h.02v.838h1.097v-3.663c0-1.067-.824-1.754-2.123-1.754-1.308 0-2.102.703-2.178 1.617l-.005.056h1.031l.01-.046c.091-.424.48-.722 1.112-.722.677 0 1.056.353 1.056.94v.399l-1.445.086c-1.258.076-1.976.642-1.976 1.566v.01c0 .956.713 1.607 1.774 1.607zm-.672-1.632v-.01c0-.45.364-.738 1.02-.778l1.299-.081v.414c0 .693-.581 1.213-1.349 1.213-.586 0-.97-.293-.97-.758zm4.477 1.536h1.091v-3.284c0-.688.46-1.198 1.107-1.198.617 0 1.006.394 1.006 1.011v3.471h1.071v-3.325c0-.672.45-1.157 1.097-1.157s1.015.399 1.015 1.092v3.39h1.097v-3.653c0-1.066-.687-1.764-1.738-1.764-.758 0-1.385.399-1.658 1.046h-.025c-.212-.667-.748-1.046-1.481-1.046-.697 0-1.238.369-1.465.925h-.026v-.824h-1.091v5.316z" class="B"/><defs><filter id="A" x="121.445" y="32.249" width="231.11" height="410.11" filterUnits="userSpaceOnUse" class="T"><feFlood flood-opacity="0" result="A"/><feColorMatrix in="SourceAlpha" values="0 0 0 0 0 0 0 0 0 0 0 0 0 0 0 0 0 0 127 0"/><feOffset dy="1.81009"/><feGaussianBlur stdDeviation=".911"/><feColorMatrix values="0 0 0 0 0.0705882 0 0 0 0 0.0980392 0 0 0 0 0.133333 0 0 0 0.0443301 0"/><feBlend in2="A" result="C"/><feColorMatrix in="SourceAlpha" values="0 0 0 0 0 0 0 0 0 0 0 0 0 0 0 0 0 0 127 0"/><feOffset dy="4.36728"/><feGaussianBlur stdDeviation="2.536"/><feColorMatrix values="0 0 0 0 0.0705882 0 0 0 0 0.0980392 0 0 0 0 0.133333 0 0 0 0.0542688 0"/><feBlend in2="C" result="D"/><feColorMatrix in="SourceAlpha" values="0 0 0 0 0 0 0 0 0 0 0 0 0 0 0 0 0 0 127 0"/><feOffset dy="7.85241"/><feGaussianBlur stdDeviation="5.048"/><feColorMatrix values="0 0 0 0 0.0705882 0 0 0 0 0.0980392 0 0 0 0 0.133333 0 0 0 0.0593946 0"/><feBlend in2="D" result="E"/><feColorMatrix in="SourceAlpha" values="0 0 0 0 0 0 0 0 0 0 0 0 0 0 0 0 0 0 127 0"/><feOffset dy="12.5293"/><feGaussianBlur stdDeviation="8.687"/><feColorMatrix values="0 0 0 0 0.0705882 0 0 0 0 0.0980392 0 0 0 0 0.133333 0 0 0 0.0627343 0"/><feBlend in2="E" result="F"/><feColorMatrix in="SourceAlpha" values="0 0 0 0 0 0 0 0 0 0 0 0 0 0 0 0 0 0 127 0"/><feOffset dy="18.8038"/><feGaussianBlur stdDeviation="13.777"/><feColorMatrix values="0 0 0 0 0.0705882 0 0 0 0 0.0980392 0 0 0 0 0.133333 0 0 0 0.0657962 0"/><feBlend in2="F"/><feBlend in="SourceGraphic"/></filter><filter id="B" x="264.63" y=".371" width="142.819" height="113.842" filterUnits="userSpaceOnUse" class="T"><feFlood flood-opacity="0" result="A"/><feColorMatrix in="SourceAlpha" values="0 0 0 0 0 0 0 0 0 0 0 0 0 0 0 0 0 0 127 0" result="B"/><feOffset dy="2.7598"/><feGaussianBlur stdDeviation="13.799"/><feComposite in2="B" operator="out"/><feColorMatrix values="0 0 0 0 0 0 0 0 0 0 0 0 0 0 0 0 0 0 0.1 0"/><feBlend in2="A"/><feBlend in="SourceGraphic"/></filter><linearGradient id="C" x1="40.016" y1="350.79" x2="195.254" y2="350.79" gradientUnits="userSpaceOnUse"><stop stop-color="#00469f"/><stop offset="1" stop-color="#1e79d6"/></linearGradient><clipPath id="D"><rect x="157.506" y="48.818" width="159.665" height="344.424" rx="21.166" class="B"/></clipPath><path id="E" d="M157.514 368.736h-.212v.212 23.704.212h.212 158.714.212v-.212-23.704-.212h-.212-158.714z"/></defs></svg>