<svg xmlns="http://www.w3.org/2000/svg" width="66" height="66" fill="none" xmlns:v="https://vecta.io/nano"><rect x=".5" y=".687" width="65" height="65" rx="8" fill="url(#A)"/><path fill-rule="evenodd" d="M43.16 12.787c-.614.276-.806.704-.806 1.795v.8h-.47c-.386 0-.508.037-.678.208l-.208.208.001 3.672.093 4.011c.124.456.87 1.186 1.34 1.312.235.063 1.784.085 4.863.069 4.999-.026 4.73.003 5.315-.59.562-.57.558-.543.586-3.271l.026-2.48-.213-.213c-.176-.176-.294-.213-.679-.213h-.466l-.025-2.284c-.024-2.153-.035-2.297-.2-2.518a2.43 2.43 0 0 0-.409-.409c-.227-.17-.344-.175-4.023-.194-3.03-.015-3.84.004-4.044.095zm7.336 3.274v2.035h-.527-.527l-1.366-1.357-1.366-1.357h-1.5-1.5v-.678-.678h3.392 3.393v2.035zm-3.008 2.035l1.366 1.357h1.5 1.5v1.735c0 1.845-.042 2.081-.395 2.242-.289.132-8.42.132-8.709 0a.71.71 0 0 1-.301-.301c-.064-.139-.094-1.213-.094-3.298V16.74h1.884 1.884l1.366 1.357zm-12.389 1.565l-.208.208v6.238 6.238h-1.018-1.018v.678.678h1.018 1.018v7.255 7.255l.208.208.208.208h2.167 2.166v-.678-.678h-1.696-1.696v-6.785-6.785h1.696 1.696v-.678-.678h-1.696-1.696v-5.767-5.767h1.696 1.696v-.678-.678h-2.166-2.167l-.208.208zm-14.915 4.059c-.15.15-.22.363-.297.912-.181 1.282-.174 1.263-.464 1.384-.899.375-.807.386-1.547-.176-.786-.597-.974-.705-1.229-.705-.232 0-2.433 2.145-2.508 2.444-.067.267.052.502.664 1.306.576.756.564.661.188 1.561-.121.29-.102.283-1.384.464-1.122.158-1.108.13-1.108 2.112s-.015 1.954 1.108 2.112c1.283.181 1.263.174 1.384.464.376.9.388.805-.188 1.561-.612.804-.732 1.039-.664 1.306.075.299 2.276 2.444 2.508 2.444.255 0 .443-.108 1.229-.705.74-.562.648-.551 1.547-.176.29.121.283.102.464 1.384.158 1.123.13 1.108 2.112 1.108s1.954.015 2.112-1.108c.181-1.282.174-1.263.464-1.384.899-.376.807-.386 1.547.176.786.597.974.705 1.229.705.232 0 2.433-2.145 2.508-2.444.067-.267-.052-.502-.664-1.306-.576-.756-.564-.661-.188-1.561.121-.29.102-.283 1.384-.464 1.122-.158 1.108-.13 1.108-2.112s.015-1.954-1.108-2.112c-1.282-.181-1.263-.174-1.384-.464-.376-.9-.388-.805.188-1.561.612-.804.731-1.039.664-1.306-.075-.299-2.276-2.444-2.508-2.444-.255 0-.443.108-1.229.705-.74.562-.648.551-1.547.176-.29-.121-.283-.102-.464-1.384-.158-1.122-.13-1.108-2.112-1.108-1.579 0-1.624.005-1.815.196zm2.578 1.204c0 .153.261 1.742.305 1.857.067.174.202.247.971.525.336.121.73.293.876.382.454.277.73.215 1.466-.33l.756-.547c.05-.03.327.182.615.473l.524.529-.552.748c-.369.5-.552.827-.552.985 0 .13.129.518.286.861l.431 1.027c.08.222.215.441.299.486.118.063 1.672.34 1.908.34.024 0 .043.343.043.763s-.019.763-.043.763c-.237 0-1.79.276-1.908.34-.085.045-.22.264-.299.486s-.274.684-.431 1.028-.286.731-.286.862c0 .157.167.464.492.903l.547.756c.03.05-.182.327-.473.615l-.528.524-.748-.551c-.5-.368-.827-.551-.985-.551-.13 0-.518.129-.861.286l-1.027.431c-.222.08-.441.215-.486.299-.063.118-.34 1.672-.34 1.908 0 .024-.343.043-.763.043s-.763-.019-.763-.043c0-.237-.277-1.79-.34-1.908-.045-.085-.264-.22-.486-.299a16.58 16.58 0 0 1-1.027-.431c-.343-.158-.733-.286-.866-.286-.167 0-.472.173-.981.557l-.739.557-.538-.538-.538-.538.552-.749c.608-.825.673-1.084.39-1.548-.089-.146-.261-.54-.382-.876-.278-.77-.35-.904-.525-.971a23.84 23.84 0 0 0-1.857-.305c-.024 0-.043-.343-.043-.763s.019-.763.043-.763a23.84 23.84 0 0 0 1.857-.305c.175-.067.247-.202.525-.971.121-.336.293-.73.382-.876.283-.464.218-.723-.39-1.548l-.552-.749.538-.538.538-.538.739.557c.815.615 1.078.682 1.548.395.146-.089.54-.261.876-.382.77-.278.904-.35.971-.525.044-.114.305-1.704.305-1.857 0-.024.343-.043.763-.043s.763.019.763.043zm20.397 2.111c-.614.276-.806.704-.806 1.795v.8h-.47c-.386 0-.508.037-.678.208l-.208.208.001 3.672.093 4.011c.124.456.87 1.186 1.34 1.312.235.063 1.784.085 4.863.069 4.999-.026 4.73.003 5.315-.59.562-.57.558-.543.586-3.271l.026-2.48-.213-.213c-.176-.176-.294-.213-.679-.213h-.466l-.025-2.284c-.024-2.153-.035-2.297-.2-2.518a2.43 2.43 0 0 0-.409-.409c-.227-.17-.344-.175-4.023-.194-3.03-.015-3.84.004-4.044.095zm7.336 3.274v2.036h-.527-.527l-1.366-1.357-1.366-1.357h-1.5-1.5v-.678-.678h3.392 3.393v2.035zm-29.537-1.231c-2.496.687-3.714 3.387-2.603 5.768.268.575 1.266 1.56 1.861 1.838 1.661.774 3.496.425 4.731-.901.991-1.063 1.342-2.386.991-3.732-.569-2.184-2.866-3.555-4.981-2.973zm2.162 1.506c1.69.774 2.097 3.031.784 4.344-1.031 1.031-2.78 1.031-3.811 0-.661-.661-.947-1.726-.695-2.592.478-1.645 2.193-2.452 3.722-1.752zm24.367 1.76l1.366 1.357h1.5 1.5v1.735c0 1.845-.042 2.081-.395 2.242-.289.132-8.42.132-8.709 0a.71.71 0 0 1-.301-.301c-.064-.139-.094-1.213-.094-3.298v-3.092h1.884 1.884l1.366 1.357zm-4.328 8.26c-.614.276-.806.704-.806 1.795v.8h-.47c-.386 0-.508.037-.678.208l-.208.208.001 3.672.093 4.011c.124.456.87 1.186 1.34 1.312.235.063 1.784.085 4.863.069 4.999-.027 4.73.003 5.315-.59.562-.57.558-.543.586-3.271l.026-2.48-.213-.213c-.176-.176-.294-.213-.679-.213h-.466l-.025-2.284c-.024-2.153-.035-2.297-.2-2.518a2.43 2.43 0 0 0-.409-.409c-.227-.17-.344-.175-4.023-.194-3.03-.015-3.84.004-4.044.095zm7.336 3.274v2.035h-.527-.527l-1.366-1.357-1.366-1.357h-1.5-1.5v-.678-.678h3.392 3.393v2.035zm-3.008 2.035l1.366 1.357h1.5 1.5v1.735c0 1.845-.042 2.081-.395 2.242-.289.132-8.42.132-8.709 0a.71.71 0 0 1-.301-.301c-.064-.139-.094-1.213-.094-3.298v-3.092h1.884 1.884l1.366 1.357z" fill="#fff"/><defs><linearGradient id="A" x1=".5" y1="34.065" x2="65.5" y2="34.065" gradientUnits="userSpaceOnUse"><stop stop-color="#00469f"/><stop offset="1" stop-color="#1e79d6"/></linearGradient></defs></svg>
