<svg xmlns="http://www.w3.org/2000/svg" width="66" height="66" fill="none" xmlns:v="https://vecta.io/nano"><rect x=".5" y=".687" width="65" height="65" rx="8" fill="url(#A)"/><path fill-rule="evenodd" d="M18.859 12.885l-.198.198v2.383 2.383H17.46c-.972 0-1.299.031-1.714.16-.953.298-1.789 1.133-2.086 2.087-.156.5-.16.768-.16 11.302l.16 11.302c.298.953 1.133 1.789 2.086 2.087.488.152.752.16 5.456.16h4.943l.424.464c.838.915 1.249 2.217 1.058 3.347-.131.774-.536 1.607-1.058 2.177l-.424.464h-3.097-3.097v.645.645H33.5h13.548v-.645-.645h-3.094-3.094l-.364-.389c-.458-.489-.711-.89-.95-1.506-.27-.695-.27-1.967 0-2.661.239-.616.492-1.017.95-1.506l.364-.389h4.94c4.7 0 4.965-.008 5.453-.16.953-.298 1.789-1.133 2.087-2.087.156-.5.16-.769.16-11.302l-.16-11.302c-.298-.953-1.133-1.789-2.087-2.087-.415-.129-.742-.16-1.714-.16h-1.201v-2.383-2.383l-.198-.198-.198-.198H33.5 19.057l-.198.198zM47.048 23.01v9.032H33.5 19.952V23.01v-9.032H33.5h13.548v9.032zM21.44 15.466l-.198.198v2.06 2.06h.645.645v-1.613-1.613h1.613 1.613v-.645-.645h-2.06-2.06l-.198.198zm19.802.447v.645h1.613 1.613v1.613 1.613h.645.645v-2.06-2.06l-.198-.198-.198-.198h-2.06-2.06v.645zm-9.113 1.986c-3.26.412-5.954 1.767-8.286 4.165-.893.918-.893.973 0 1.892 2.104 2.163 4.486 3.467 7.359 4.028 1.042.203 3.493.202 4.597-.002 2.866-.531 5.358-1.918 7.52-4.187.757-.794.747-.832-.487-2.035-1.207-1.175-2.202-1.898-3.484-2.531-1.887-.932-3.37-1.291-5.524-1.336-.776-.016-1.538-.014-1.694.006zm-13.468 8.139v6.899l.198.198.198.198H33.5h14.443l.198-.198.198-.198V26.03v-6.906l1.23.029c1.069.025 1.272.051 1.553.201.377.202.687.517.898.913.144.27.151.678.172 9.254l.022 8.972H33.5 14.788l.022-8.972c.021-8.576.028-8.984.172-9.254.282-.53.707-.885 1.26-1.054.111-.034.701-.064 1.311-.068l1.109-.007v6.899zm15.707-6.777a3.58 3.58 0 0 1 1.837 1.038c1.537 1.541 1.532 3.887-.012 5.435a3.7 3.7 0 0 1-2.109 1.081c-2.501.426-4.811-1.883-4.39-4.389.374-2.224 2.515-3.674 4.674-3.165zm-5.388 1.277a5.14 5.14 0 0 0 0 4.945c.175.326.298.592.271.592s-.395-.165-.82-.366c-1.061-.503-2.181-1.267-2.997-2.045l-.686-.654.686-.654a12.15 12.15 0 0 1 2.985-2.042c.421-.201.79-.366.822-.367s-.087.265-.262.59zm9.587-.226c1.061.503 2.181 1.267 2.997 2.045l.685.654-.685.654c-.816.778-1.936 1.542-2.997 2.045-.425.201-.791.366-.813.366s.119-.318.315-.706.408-.96.473-1.27c.248-1.201.095-2.323-.473-3.448-.196-.388-.337-.706-.315-.706s.389.165.813.366zm-5.842.228c-1.836.602-2.402 2.928-1.042 4.288.535.535 1.008.724 1.817.724.564 0 .757-.035 1.087-.197.512-.252 1.005-.745 1.256-1.256.283-.576.283-1.597 0-2.173-.255-.517-.799-1.059-1.279-1.272-.47-.208-1.377-.264-1.839-.113zm1.342 1.362c.387.195.723.71.723 1.109 0 .114-.082.37-.181.568-.195.387-.71.723-1.109.723-.114 0-.37-.082-.568-.181-.387-.195-.723-.71-.723-1.109s.335-.914.723-1.109c.198-.1.453-.181.568-.181s.37.082.568.181zm-12.826 6.395v2.06l.198.198.198.198h2.06 2.06v-.645-.645h-1.613-1.613v-1.613-1.613h-.645-.645v2.06zm23.226-.447v1.613h-1.613-1.613v.645.645h2.06 2.06l.198-.198.198-.198v-2.06-2.06h-.645-.645v1.613zm7.728 13.165c-.023 1.003-.056 1.282-.178 1.512a2.2 2.2 0 0 1-.897.915l-.323.174H33.5 16.202l-.323-.174a2.2 2.2 0 0 1-.897-.915c-.122-.23-.155-.509-.178-1.512l-.028-1.23H33.5h18.724l-.029 1.23zm-2.567.706v.645h.645.645v-.645-.645h-.645-.645v.645zm-10.768 3.569c-1.122 1.811-1.122 3.955 0 5.766l.212.343H33.5h-5.574l.212-.343a5.31 5.31 0 0 0 .686-1.643c.347-1.358.097-2.859-.686-4.123l-.212-.343H33.5h5.574l-.212.343z" fill="#fff"/><defs><linearGradient id="A" x1=".5" y1="34.065" x2="65.5" y2="34.065" gradientUnits="userSpaceOnUse"><stop stop-color="#00469f"/><stop offset="1" stop-color="#1e79d6"/></linearGradient></defs></svg>
