<svg xmlns="http://www.w3.org/2000/svg" width="66" height="66" fill="none" xmlns:v="https://vecta.io/nano"><rect x=".5" y=".687" width="65" height="65" rx="8" fill="url(#A)"/><path fill-rule="evenodd" d="M14.865 12.79c-.388.149-.767.417-.958.675-.389.526-.404.672-.404 3.856l.081 3.266c.113.408.53.925.917 1.14l.328.181v1.116 1.116l-.236.098c-.329.136-.887.78-.998 1.151-.12.4-.13 6.088-.011 6.514.113.408.53.925.917 1.14l.328.181v1.121c0 1.072-.007 1.123-.165 1.173-.29.092-.791.61-.978 1.012-.181.388-.182.407-.182 3.473 0 3.074.001 3.084.184 3.478a2.42 2.42 0 0 0 .523.685c.638.546.158.521 9.808.521h8.692l.133.241c.968 1.755 2.553 3.644 4.116 4.905 1.318 1.064 3.269 2.18 4.662 2.669l.528.185.526-.18c.289-.099.985-.405 1.545-.679 4.284-2.098 7.472-5.985 8.699-10.607.434-1.635.503-2.241.5-4.416-.002-1.925-.095-3.084-.351-4.351-.182-.901-.971-1.588-1.85-1.609-.251-.006-.891.09-1.461.219-.916.207-1.147.229-2.38.227-1.154-.002-1.462-.028-1.983-.171-.738-.202-1.325-.461-1.958-.867-.614-.393-.979-.502-1.494-.449l-.418.043V27.99c0-1.021-.036-2.046-.079-2.277-.11-.585-.431-1.072-.917-1.392l-.408-.269v-1.059-1.059l.277-.149a2.67 2.67 0 0 0 .96-1.046c.113-.249.129-.666.129-3.367v-3.083l-.234-.468c-.259-.518-.712-.917-1.192-1.05-.438-.122-24.875-.101-25.193.022zm24.888 1.314c.361.192.36.186.363 3.249l.003 2.911-.192.191-.192.192H27.522c-6.717 0-12.269-.022-12.338-.048-.331-.127-.355-.351-.355-3.31v-2.82l.228-.228.228-.228h12.148l12.319.091zm-7.993 2.039c-.068.052-.165.172-.215.265-.109.206-.121 1.573-.016 1.85.204.536.932.566 1.197.048.113-.221.136-.425.117-1.067-.021-.716-.042-.814-.212-.995-.209-.222-.648-.273-.871-.101zm2.577.101c-.171.181-.192.279-.212.995-.019.642.004.846.117 1.067.265.518.993.488 1.197-.048.041-.108.075-.542.075-.965 0-.714-.015-.787-.202-1.01-.268-.319-.695-.336-.975-.039zm2.673-.021c-.154.164-.17.264-.17 1.086 0 .498.022.963.049 1.032.059.154.43.355.656.355.091 0 .269-.103.394-.228.224-.223.228-.245.228-1.058 0-1.131-.127-1.368-.734-1.368-.164 0-.313.064-.423.181zm-19.8.534c-.399.218-.487.77-.171 1.067.201.189.638.225.841.07.358-.275.39-.686.077-.999-.238-.238-.482-.283-.747-.138zm2.654.004c-.244.14-.346.313-.349.592-.006.655.912.899 1.21.323.169-.328.14-.527-.114-.781-.239-.24-.486-.284-.748-.134zm2.543.108c-.476.4-.203 1.125.423 1.125.614 0 .875-.659.435-1.099-.283-.283-.544-.291-.859-.026zm16.385 6.159v.976H27.474 16.156v-.976-.976h11.317 11.317v.976zm.961 2.393c.358.191.36.212.363 2.811l.003 2.473-.445.166c-.95.356-1.405.424-2.794.42-1.169-.003-1.447-.03-2.342-.229-.558-.124-1.213-.222-1.456-.217-.574.012-1.176.328-1.501.788l-.234.332h-8.018c-4.41 0-8.075-.022-8.144-.049-.33-.127-.355-.352-.355-3.286 0-3.016.005-3.055.418-3.222.271-.109 24.299-.096 24.505.013zm-8.102 2.186c-.203.242-.208.27-.183 1.139s.032.896.245 1.079c.284.244.629.244.872.002.235-.235.298-.572.263-1.404-.024-.57-.053-.688-.217-.862-.282-.301-.706-.281-.981.046zm2.686-.046c-.163.174-.193.292-.217.862-.035.833.028 1.169.264 1.404.243.243.588.242.872-.002.213-.183.22-.214.245-1.079s.021-.897-.183-1.139c-.275-.327-.699-.347-.981-.046zm2.673-.021c-.155.165-.17.263-.17 1.135 0 .909.009.964.192 1.146.268.268.616.255.907-.037.224-.224.228-.245.228-1.059 0-1.085-.142-1.359-.708-1.364a.56.56 0 0 0-.449.178zm-19.8.534c-.252.138-.351.311-.351.614 0 .356.259.623.604.623.352 0 .48-.068.614-.327.299-.578-.308-1.215-.866-.909zm2.654.004c-.381.218-.465.676-.189 1.027.126.161.23.206.472.206.644 0 .918-.646.465-1.099-.239-.24-.486-.284-.748-.134zm2.543.108c-.476.4-.203 1.125.423 1.125.614 0 .875-.659.435-1.099-.283-.283-.544-.291-.859-.026zm20.485 3.312c.709.448 1.515.776 2.417.985.493.114.938.145 2.107.144 1.319-.001 1.601-.025 2.551-.22 1.217-.25 1.437-.247 1.633.026.182.253.357 1.438.475 3.231.265 4.008-.766 7.514-3.124 10.623-.472.623-1.716 1.898-2.394 2.456-1.084.891-2.668 1.826-3.961 2.34l-.449.178-.449-.177a18.84 18.84 0 0 1-2.751-1.445c-4.226-2.799-6.794-7.601-6.79-12.695.001-1.016.109-2.397.281-3.574.133-.915.28-1.171.67-1.171.123 0 .67.095 1.216.21.885.188 1.162.211 2.554.213 1.362.002 1.649-.02 2.252-.172a7.66 7.66 0 0 0 2.312-.979c.321-.201.638-.365.706-.365s.402.176.743.392zm-11.855 2.109c-.026.13-.071.569-.099.976l-.052.739H23.52h-7.364v-.976-.976h7.464 7.464l-.047.237zm16.002 1.89c-.105.097-1.517 1.774-3.137 3.727l-3.053 3.667c-.093.1-.26-.036-1.258-1.024-.633-.626-1.214-1.161-1.291-1.188s-.262.002-.41.064c-.303.126-.456.423-.385.744.06.274 2.887 3.091 3.173 3.162a.62.62 0 0 0 .401-.053c.186-.1 6.814-7.987 6.993-8.322.143-.267.1-.484-.141-.725-.281-.281-.62-.301-.891-.053zM30.83 37.464c0 1.523.322 3.303.893 4.937.153.438.278.816.278.839 0 .059-16.662.053-16.817-.006-.33-.127-.355-.354-.354-3.245.001-2.945.014-3.05.391-3.24.151-.077 1.876-.098 7.901-.099l7.708-.001v.816zm-13.62 1.929a.63.63 0 0 0-.349.617c-.004.472.482.757.97.57.196-.075.371-.479.316-.73-.09-.408-.601-.658-.937-.458zm2.551.104c-.479.403-.231 1.132.385 1.132.602 0 .903-.611.518-1.049-.269-.306-.601-.336-.903-.082zm2.634.033c-.291.291-.305.639-.037.907.405.405 1.135.125 1.135-.435 0-.311-.369-.7-.663-.7-.125 0-.298.091-.435.228z" fill="#fff"/><defs><linearGradient id="A" x1=".5" y1="34.065" x2="65.5" y2="34.065" gradientUnits="userSpaceOnUse"><stop stop-color="#00469f"/><stop offset="1" stop-color="#1e79d6"/></linearGradient></defs></svg>
