<svg xmlns="http://www.w3.org/2000/svg" width="66" height="66" fill="none" xmlns:v="https://vecta.io/nano"><rect x=".5" y=".687" width="65" height="65" rx="8" fill="url(#A)"/><path fill-rule="evenodd" d="M14.764 12.776c-.378.109-1.074.818-1.178 1.2-.055.201-.085 1.428-.086 3.448L13.5 20.56l.218.418c.277.53.74.889 1.298 1.005.286.059 1.406.081 3.42.065 2.897-.023 3.004-.029 3.307-.193a2.5 2.5 0 0 0 .946-.964c.118-.225.148-.505.173-1.582l.03-1.309h.74c.721 0 .747-.006.978-.238.199-.199.23-.278.189-.488-.084-.437-.277-.524-1.15-.524h-.773v-1.09c0-.599-.038-1.269-.085-1.488-.113-.528-.483-.997-.999-1.267l-.418-.218-3.175.007-3.434.082zm6.577 1.323l.206.162v3.08l-.156 3.236c-.151.151-.26.156-3.236.156h-3.08l-.162-.206c-.157-.2-.162-.29-.162-3.121 0-3.045.018-3.222.341-3.378.105-.051 1.252-.083 3.106-.086 2.859-.005 2.944-.001 3.145.157zm-2.008 1.42c-.105.097-.479.66-.831 1.252l-.64 1.077-.287-.172-.482-.305c-.319-.216-.522-.248-.768-.121-.252.13-.326.263-.326.584 0 .306.102.405 1.011.978.834.527 1.165.623 1.428.417.163-.128 1.843-2.899 1.903-3.14.05-.2-.073-.494-.272-.647s-.528-.116-.736.076zm7.371 1.386c-.239.238-.235.65.007.899.15.154.281.157 10.176.195l10.024.039.382.236c.575.356.834.825.878 1.596l.036.615-1.357.026c-1.326.025-1.366.031-1.732.246-.468.275-.8.726-.909 1.233-.046.215-.084.969-.084 1.676v1.285h-2.877-2.877l-.17.181c-.233.248-.223.632.022.877l.192.192h2.846 2.846l.03 1.113c.029 1.056.042 1.135.26 1.531a1.95 1.95 0 0 0 1.174.94c.202.056 1.344.087 3.246.087 3.25.001 3.458-.024 4.009-.48a2.2 2.2 0 0 0 .487-.647c.184-.395.184-.402.185-3.512.001-2.22-.026-3.208-.094-3.437-.127-.429-.774-1.076-1.203-1.203-.192-.057-.81-.095-1.534-.095h-1.212l-.032-.723c-.026-.601-.072-.808-.27-1.231a3.23 3.23 0 0 0-1.514-1.517l-.508-.241-10.136-.02c-10.064-.02-10.137-.019-10.293.137zm25.182 4.931c.105.048.229.172.277.277.059.129.087 1.136.087 3.106 0 2.831-.005 2.921-.162 3.121l-.162.206h-3.08c-2.976 0-3.086-.005-3.236-.156s-.156-.26-.156-3.236v-3.08l.206-.162c.2-.157.29-.162 3.121-.162 1.97 0 2.977.028 3.106.087zm-1.842 1.473c-.107.084-.464.603-.792 1.152l-.668 1.11c-.058.09-.164.051-.572-.215-.614-.4-.978-.436-1.226-.12-.358.455-.199.701.899 1.402.921.587 1.179.647 1.47.339.098-.104.553-.81 1.011-1.569.91-1.509.977-1.724.64-2.061-.232-.232-.501-.245-.764-.038zm-18.004 1.033c-.218.105-.304.331-.455 1.196-.14.804-.228 1.055-.369 1.055-.169.001-1.171.543-1.6.866-.224.168-.429.306-.457.306s-.449-.146-.937-.324c-1.209-.442-1.17-.462-2.027 1.034-.366.639-.664 1.223-.663 1.3.005.248.181.46.847 1.022l.654.552v1.339 1.339l-.654.554c-.759.642-.844.74-.847.981-.001.098.297.7.663 1.339.855 1.493.814 1.472 2.021 1.033.487-.178.91-.323.939-.323s.236.138.46.306c.424.319 1.431.865 1.596.866.151.001.229.221.366 1.035.152.901.234 1.106.489 1.222s2.612.116 2.866 0 .317-.277.481-1.241c.077-.451.178-.859.226-.906s.28-.165.516-.263c.35-.144.999-.54 1.593-.969.057-.042.442.06 1.004.265 1.225.447 1.173.473 2.04-1.016.372-.638.675-1.225.673-1.304-.005-.256-.181-.468-.847-1.021l-.654-.543-.01-1.344-.01-1.344.677-.563c.647-.537.846-.782.846-1.037 0-.064-.299-.638-.665-1.276-.859-1.499-.814-1.476-2.051-1.025-.562.205-.946.307-1.004.265-.594-.43-1.243-.825-1.593-.969-.236-.098-.469-.216-.516-.263s-.149-.454-.226-.906c-.164-.964-.226-1.125-.481-1.241-.245-.112-2.659-.107-2.892.006zm-11.228.729c-1.107.304-2.247 1.207-2.758 2.186-.475.91-.492 1.078-.492 4.835V35.5h-1.158c-1.728 0-2.306.241-2.721 1.132-.181.389-.182.408-.183 3.507-.001 2.141.028 3.211.09 3.419.117.392.543.886.953 1.105.317.169.393.174 3.477.196 3.583.026 3.686.013 4.246-.547.505-.505.559-.707.593-2.23l.031-1.348h2.808 2.808l.192-.192c.254-.254.254-.613 0-.866l-.192-.192h-2.808-2.808l-.029-1.27c-.028-1.238-.035-1.28-.262-1.694a2.01 2.01 0 0 0-1.207-.944c-.152-.042-.796-.077-1.432-.077h-1.155l.023-3.457c.023-3.445.023-3.459.211-3.926.26-.648 1.039-1.427 1.687-1.687.468-.188.474-.188 4.362-.227l3.894-.039.149-.184c.207-.256.193-.646-.032-.857l-.181-.17-3.862.007c-2.973.005-3.95.031-4.244.112zm13.312.454c0 .184.319 1.716.382 1.834.048.09.262.217.496.293.672.22 1.313.573 1.925 1.06.317.252.622.459.677.459s.483-.137.95-.304l.849-.304.29.508c.16.279.29.53.29.558s-.3.297-.665.597c-.37.305-.686.63-.714.734s-.01.406.04.673c.116.629.114 1.456-.005 2.15-.067.391-.071.591-.012.685.045.073.36.374.7.669s.618.576.618.625-.12.305-.268.57l-.268.481-.852-.305c-.469-.168-.897-.305-.952-.305s-.342.193-.638.43c-.595.475-1.337.887-1.964 1.091-.235.076-.447.201-.496.292-.063.118-.382 1.649-.382 1.834 0 .014-.281.026-.625.026s-.625-.012-.625-.026c0-.184-.319-1.716-.382-1.834-.049-.091-.261-.216-.496-.292-.628-.204-1.37-.617-1.959-1.091-.293-.236-.58-.429-.638-.429s-.489.137-.957.305l-.852.305-.268-.481c-.147-.264-.268-.521-.268-.57s.278-.33.618-.625.655-.596.7-.669c.058-.094.055-.294-.012-.685-.119-.694-.121-1.521-.005-2.15.049-.267.067-.57.041-.673s-.336-.421-.715-.729c-.366-.298-.666-.573-.666-.611s.131-.291.292-.562l.292-.494.847.304c.466.167.893.303.948.303s.36-.206.677-.459c.546-.435 1.28-.858 1.709-.985.695-.206.774-.316.936-1.291.173-1.043.085-.937.789-.937.34 0 .619.012.619.026zm-1.457 3.522c-1.89.459-3.172 2.344-2.854 4.198a3.79 3.79 0 0 0 3.127 3.127c2.412.414 4.653-1.83 4.246-4.252-.36-2.14-2.464-3.571-4.519-3.073zm1.73 1.352c.551.176 1.215.849 1.407 1.428.321.966.114 1.89-.58 2.584-.502.502-1.028.723-1.725.723s-1.223-.22-1.725-.723c-.32-.32-.476-.553-.58-.866-.491-1.477.353-2.975 1.847-3.276.402-.081.818-.041 1.356.131zm-13.007 6.584c.151.151.156.26.156 3.194 0 2.875-.008 3.048-.149 3.223l-.149.184-3.018.022-3.018.022-.231-.231-.231-.231v-2.964c0-2.881.005-2.97.162-3.17l.162-.206h3.08c2.976 0 3.086.005 3.236.156zm-1.937 1.269c-.104.05-.445.532-.812 1.147-.348.584-.675 1.107-.727 1.164-.077.084-.186.045-.594-.214-.303-.192-.594-.317-.74-.318-.482-.002-.763.632-.443.998.222.254 1.75 1.189 1.943 1.189.098 0 .263-.079.367-.176.278-.257 1.928-3.039 1.928-3.25 0-.217-.401-.638-.599-.631a1 1 0 0 0-.322.092zm18.549 1.393c-.275.216-.287.672-.025.918l.181.17H42.3c4.568 0 4.642.007 5.215.48.431.357.672.915.673 1.562l.001.519-1.309.03c-1.431.033-1.673.098-2.157.582-.498.498-.551.709-.583 2.314l-.029 1.465h-.731c-.653 0-.753.019-.943.183-.273.235-.286.6-.03.872.171.182.233.195.95.195h.768v.934c0 .514.038 1.113.085 1.331.116.541.484 1.007 1.004 1.27l.424.215h3.136c3.625 0 3.645-.003 4.203-.624.186-.207.38-.515.431-.686.065-.217.093-1.246.093-3.431v-3.121l-.215-.424c-.264-.519-.729-.887-1.27-1.003-.219-.047-.884-.085-1.479-.085h-1.081l-.033-.762c-.027-.623-.072-.842-.244-1.201-.276-.574-.715-1.063-1.236-1.374-.806-.482-.911-.492-5.542-.492-4.122 0-4.195.003-4.398.162zm14.085 5.2c.157.2.162.29.162 3.121 0 1.97-.028 2.977-.087 3.106a.65.65 0 0 1-.277.277c-.129.059-1.136.087-3.106.087-2.831 0-2.921-.005-3.121-.162l-.206-.162v-3.08c0-2.976.005-3.086.156-3.236s.26-.156 3.236-.156h3.08l.162.206zm-17.963.444c-.219.115-3.202 2.294-3.535 2.583-.253.219-.286.572-.078.816.139.162 3.306 2.505 3.6 2.662.254.136.474.1.686-.111a.51.51 0 0 0 .172-.488c-.023-.274-.085-.338-1.03-1.054l-1.006-.762h3.686 3.686l.192-.192c.288-.287.235-.788-.099-.951-.076-.037-1.772-.085-3.768-.107L33 47.648l.738-.541c1.022-.749 1.246-.97 1.246-1.225 0-.319-.074-.454-.318-.58-.269-.139-.296-.14-.541-.011zm16.016.778c-.121.06-.453.524-.871 1.215l-.72 1.162c-.024.024-.285-.101-.579-.279s-.621-.323-.727-.323c-.43 0-.712.444-.542.853.091.219 1.743 1.334 1.977 1.334.345 0 .531-.218 1.388-1.628.488-.802.902-1.557.92-1.679a.6.6 0 0 0-.399-.674 4.79 4.79 0 0 0-.243-.081c-.004.001-.096.045-.203.099z" fill="#fff"/><defs><linearGradient id="A" x1=".5" y1="34.065" x2="65.5" y2="34.065" gradientUnits="userSpaceOnUse"><stop stop-color="#00469f"/><stop offset="1" stop-color="#1e79d6"/></linearGradient></defs></svg>
