<svg width="50" height="50" viewBox="0 0 50 50" fill="none" xmlns="http://www.w3.org/2000/svg">
<path d="M44.042 25.0009H37.792C36.9632 25.0009 36.1683 25.3301 35.5823 25.9162C34.9962 26.5022 34.667 27.2971 34.667 28.1259V35.9384C34.667 36.7672 34.9962 37.5621 35.5823 38.1481C36.1683 38.7342 36.9632 39.0634 37.792 39.0634H40.917C41.7458 39.0634 42.5406 38.7342 43.1267 38.1481C43.7128 37.5621 44.042 36.7672 44.042 35.9384V25.0009ZM44.042 25.0009C44.0421 22.5254 43.552 20.0744 42.5999 17.7893C41.6479 15.5042 40.2528 13.4302 38.4951 11.6871C36.7374 9.94394 34.652 8.56609 32.359 7.63306C30.0661 6.70002 27.6111 6.23027 25.1357 6.2509C22.662 6.23286 20.2091 6.70453 17.9184 7.63872C15.6278 8.57292 13.5446 9.95117 11.789 11.6941C10.0334 13.437 8.64006 15.51 7.68925 17.7939C6.73843 20.0777 6.24896 22.5271 6.24902 25.0009V35.9384C6.24902 36.7672 6.57826 37.5621 7.16431 38.1481C7.75037 38.7342 8.54522 39.0634 9.37402 39.0634H12.499C13.3278 39.0634 14.1227 38.7342 14.7087 38.1481C15.2948 37.5621 15.624 36.7672 15.624 35.9384V28.1259C15.624 27.2971 15.2948 26.5022 14.7087 25.9162C14.1227 25.3301 13.3278 25.0009 12.499 25.0009H6.24902" stroke="url(#paint0_linear_10_8684)" stroke-width="2" stroke-linecap="round" stroke-linejoin="round"/>
<path d="M44.042 35.9377V40.6252C44.042 42.2828 43.3835 43.8726 42.2114 45.0447C41.0393 46.2168 39.4496 46.8752 37.792 46.8752H26.5615" stroke="url(#paint1_linear_10_8684)" stroke-width="2" stroke-linecap="round" stroke-linejoin="round"/>
<defs>
<linearGradient id="paint0_linear_10_8684" x1="6.24902" y1="23.1002" x2="44.042" y2="23.1002" gradientUnits="userSpaceOnUse">
<stop stop-color="#00469F"/>
<stop offset="1" stop-color="#1E79D6"/>
</linearGradient>
<linearGradient id="paint1_linear_10_8684" x1="26.5615" y1="41.5543" x2="44.042" y2="41.5543" gradientUnits="userSpaceOnUse">
<stop stop-color="#00469F"/>
<stop offset="1" stop-color="#1E79D6"/>
</linearGradient>
</defs>
</svg>
