<svg width="50" height="50" viewBox="0 0 50 50" fill="none" xmlns="http://www.w3.org/2000/svg">
<path d="M15.2344 39.3164L8.80859 44.707C8.58096 44.8954 8.30458 45.0154 8.01152 45.053C7.71846 45.0907 7.42073 45.0444 7.15288 44.9197C6.88502 44.795 6.65803 44.5969 6.49822 44.3483C6.33841 44.0998 6.25234 43.8111 6.25 43.5156V12.5C6.25 12.0856 6.41462 11.6882 6.70765 11.3951C7.00067 11.1021 7.3981 10.9375 7.8125 10.9375H42.1875C42.6019 10.9375 42.9993 11.1021 43.2924 11.3951C43.5854 11.6882 43.75 12.0856 43.75 12.5V37.5C43.75 37.9144 43.5854 38.3118 43.2924 38.6049C42.9993 38.8979 42.6019 39.0625 42.1875 39.0625H15.957L15.2344 39.3164Z" stroke="url(#paint0_linear_10_8673)" stroke-width="2" stroke-linecap="round" stroke-linejoin="round"/>
<path d="M18.75 21.875H31.25" stroke="url(#paint1_linear_10_8673)" stroke-width="2" stroke-linecap="round" stroke-linejoin="round"/>
<path d="M18.75 28.125H31.25" stroke="url(#paint2_linear_10_8673)" stroke-width="2" stroke-linecap="round" stroke-linejoin="round"/>
<defs>
<linearGradient id="paint0_linear_10_8673" x1="6.25" y1="28.4628" x2="43.75" y2="28.4628" gradientUnits="userSpaceOnUse">
<stop stop-color="#00469F"/>
<stop offset="1" stop-color="#1E79D6"/>
</linearGradient>
<linearGradient id="paint1_linear_10_8673" x1="18.75" y1="22.3885" x2="31.25" y2="22.3885" gradientUnits="userSpaceOnUse">
<stop stop-color="#00469F"/>
<stop offset="1" stop-color="#1E79D6"/>
</linearGradient>
<linearGradient id="paint2_linear_10_8673" x1="18.75" y1="28.6385" x2="31.25" y2="28.6385" gradientUnits="userSpaceOnUse">
<stop stop-color="#00469F"/>
<stop offset="1" stop-color="#1E79D6"/>
</linearGradient>
</defs>
</svg>
