<svg width="354" height="474" viewBox="0 0 354 474" fill="none" xmlns="http://www.w3.org/2000/svg">
<path d="M356.218 359.879H0.503906" stroke="#0071BC" stroke-miterlimit="10" stroke-linecap="round" stroke-linejoin="round"/>
<path d="M230.934 359.879L158.906 431.746" stroke="#0071BC" stroke-miterlimit="10" stroke-linecap="round" stroke-linejoin="round"/>
<path d="M356.219 344.926H109.616L68.8711 304.338" stroke="#0071BC" stroke-miterlimit="10" stroke-linecap="round" stroke-linejoin="round"/>
<path d="M93.2845 328.752H34.6856L2.33398 295.336" stroke="#0071BC" stroke-miterlimit="10" stroke-linecap="round" stroke-linejoin="round"/>
<path d="M356.215 294.267H153.865L98.3184 241.777" stroke="#0071BC" stroke-miterlimit="10" stroke-linecap="round" stroke-linejoin="round"/>
<path d="M186.068 359.879L134.031 400.467H21.8691" stroke="#0071BC" stroke-miterlimit="10" stroke-linecap="round" stroke-linejoin="round"/>
<path d="M118.77 400.469L102.899 416.338H44.6055" stroke="#0071BC" stroke-miterlimit="10" stroke-linecap="round" stroke-linejoin="round"/>
<path d="M355.759 177.082H132.809" stroke="#0071BC" stroke-miterlimit="10" stroke-linecap="round" stroke-linejoin="round"/>
<path d="M324.631 177.082L252.756 105.215" stroke="#0071BC" stroke-miterlimit="10" stroke-linecap="round" stroke-linejoin="round"/>
<path d="M355.763 192.035H203.315L162.723 232.623" stroke="#0071BC" stroke-miterlimit="10" stroke-linecap="round" stroke-linejoin="round"/>
<path d="M355.761 207.145H247.719L192.172 259.634" stroke="#0071BC" stroke-miterlimit="10" stroke-linecap="round" stroke-linejoin="round"/>
<path d="M355.761 22.2129H273.967" stroke="#0071BC" stroke-miterlimit="10" stroke-linecap="round" stroke-linejoin="round"/>
<path d="M314.862 22.2129L297.465 54.2558H84.4336" stroke="#0071BC" stroke-miterlimit="10" stroke-linecap="round" stroke-linejoin="round"/>
<path d="M235.511 54.2522L181.795 1H19.7324" stroke="#0071BC" stroke-miterlimit="10" stroke-linecap="round" stroke-linejoin="round"/>
<path d="M279.155 416.336L227.118 456.771H46.1328" stroke="#0071BC" stroke-miterlimit="10" stroke-linecap="round" stroke-linejoin="round"/>
<path d="M143.035 456.773L127.012 472.795H68.8711" stroke="#0071BC" stroke-miterlimit="10" stroke-linecap="round" stroke-linejoin="round"/>
<path d="M356.219 416.336H235.512" stroke="#0071BC" stroke-miterlimit="10" stroke-linecap="round" stroke-linejoin="round"/>
</svg>
