<svg width="21" height="20" viewBox="0 0 21 20" fill="none" xmlns="http://www.w3.org/2000/svg">
<g clip-path="url(#clip0_2201_12763)">
<path fill-rule="evenodd" clip-rule="evenodd" d="M10.334 6.6664C8.4931 6.6664 7.00118 8.15912 7.00118 10C7.00118 11.8409 8.4931 13.3336 10.334 13.3336C12.1749 13.3336 13.6676 11.8409 13.6676 10C13.6676 8.15912 12.1749 6.6664 10.334 6.6664ZM10.334 15.1349C7.49798 15.1349 5.1991 12.836 5.1991 10C5.1991 7.164 7.49798 4.86512 10.334 4.86512C13.17 4.86512 15.4689 7.164 15.4689 10C15.4689 12.836 13.17 15.1349 10.334 15.1349ZM14.6741 5.32829C14.5423 5.13089 14.472 4.89886 14.4721 4.66152C14.4724 4.34339 14.599 4.03837 14.8239 3.81347C15.0489 3.58856 15.354 3.46215 15.6721 3.462H15.6726C15.91 3.4621 16.1419 3.53257 16.3392 3.6645C16.5365 3.79644 16.6902 3.98392 16.781 4.20322C16.8717 4.42253 16.8954 4.66382 16.849 4.89658C16.8026 5.12934 16.6882 5.34311 16.5203 5.51087C16.3524 5.67862 16.1386 5.79283 15.9058 5.83904C15.673 5.88524 15.4317 5.86138 15.2125 5.77047C14.9932 5.67956 14.8059 5.52568 14.6741 5.32829ZM4.43694 17.7958C4.7891 17.933 5.31902 18.0954 6.29398 18.1398C7.34774 18.1882 7.6635 18.1979 10.334 18.1979C13.0045 18.1979 13.3211 18.1882 14.3752 18.1398C15.3501 18.0954 15.8802 17.933 16.2322 17.7958C16.6991 17.614 17.0327 17.3972 17.3825 17.0478C17.7322 16.6983 17.9487 16.3652 18.1305 15.8983C18.2669 15.5462 18.4301 15.0162 18.4745 14.0413C18.5229 12.9863 18.5326 12.6706 18.5326 10.0001C18.5326 7.3296 18.5229 7.01384 18.4745 5.95888C18.4301 4.98392 18.2677 4.45384 18.1305 4.10184C17.9487 3.63496 17.7327 3.30136 17.3825 2.9516C17.0322 2.60184 16.6991 2.38456 16.2322 2.2036C15.8792 2.0676 15.3501 1.904 14.3752 1.8596C13.3202 1.81192 13.0033 1.80144 10.334 1.80144C7.6647 1.80144 7.34806 1.81112 6.29398 1.8596C5.31902 1.90392 4.78894 2.06632 4.43694 2.2036C3.96926 2.38456 3.63646 2.60136 3.2867 2.9516C2.93694 3.30184 2.72046 3.63496 2.5387 4.10184C2.4027 4.45488 2.2391 4.98392 2.1947 5.95888C2.14702 7.01384 2.13654 7.3296 2.13654 10.0001C2.13654 12.6706 2.14622 12.9872 2.1947 14.0413C2.23902 15.0162 2.40142 15.5463 2.5387 15.8983C2.71966 16.3652 2.93646 16.698 3.2867 17.0478C3.63694 17.3975 3.97006 17.614 4.43694 17.7958ZM3.7839 0.52504C4.41918 0.27784 5.14662 0.10904 6.21118 0.06056C7.27798 0.01128 7.6191 0 10.3348 0C13.0505 0 13.3913 0.01208 14.4576 0.06056C15.5213 0.10824 16.2484 0.27784 16.8849 0.52504C17.5416 0.78032 18.0998 1.12192 18.6555 1.67848C19.2112 2.23504 19.5529 2.7924 19.8089 3.44992C20.0561 4.0852 20.2249 4.81256 20.2734 5.8772C20.3219 6.94344 20.3332 7.28432 20.3332 10C20.3332 12.7157 20.3219 13.0558 20.2734 14.1228C20.2257 15.1874 20.0561 15.9144 19.8089 16.5501C19.5529 17.2076 19.2121 17.7658 18.6555 18.3215C18.0989 18.8772 17.5416 19.219 16.8841 19.475C16.2484 19.7222 15.5214 19.891 14.4568 19.9394C13.3905 19.9887 13.0497 20 10.334 20C7.6183 20 7.27798 19.9879 6.21118 19.9394C5.14662 19.891 4.42038 19.7222 3.7839 19.475C3.12598 19.219 2.56894 18.877 2.01246 18.3215C1.45598 17.7661 1.1143 17.2076 0.859024 16.5501C0.611824 15.9144 0.443024 15.1874 0.394544 14.1228C0.345264 13.0566 0.333984 12.7157 0.333984 10C0.333984 7.28432 0.345264 6.94344 0.394544 5.8772C0.443024 4.81264 0.611824 4.0856 0.859024 3.44992C1.1143 2.792 1.4559 2.23416 2.01246 1.67848C2.56902 1.1228 3.12598 0.78032 3.7839 0.52504Z" fill="url(#paint0_linear_2201_12763)"/>
</g>
<defs>
<linearGradient id="paint0_linear_2201_12763" x1="0.333984" y1="10.2703" x2="20.3332" y2="10.2703" gradientUnits="userSpaceOnUse">
<stop stop-color="#00469F"/>
<stop offset="1" stop-color="#1E79D6"/>
</linearGradient>
<clipPath id="clip0_2201_12763">
<rect width="20" height="20" fill="white" transform="translate(0.333984)"/>
</clipPath>
</defs>
</svg>
