<svg width="23" height="20" viewBox="0 0 23 20" fill="none" xmlns="http://www.w3.org/2000/svg">
<path d="M0.333984 2.32323C0.333984 1.64982 0.581739 1.09426 1.07723 0.656565C1.57272 0.218848 2.21687 0 3.00966 0C3.7883 0 4.41828 0.215474 4.89962 0.646464C5.39511 1.09091 5.64286 1.67002 5.64286 2.38383C5.64286 3.0303 5.4022 3.569 4.92086 3.99999C4.42537 4.44444 3.77414 4.66666 2.96719 4.66666H2.94595C2.16731 4.66666 1.53734 4.44444 1.05599 3.99999C0.574647 3.55555 0.333984 2.99662 0.333984 2.32323ZM0.610046 20V6.50504H5.32433V20H0.610046ZM7.9363 20H12.6506V12.4646C12.6506 11.9932 12.7072 11.6296 12.8205 11.3737C13.0187 10.9158 13.3195 10.5286 13.723 10.2121C14.1265 9.8956 14.6326 9.73736 15.2413 9.73736C16.8269 9.73736 17.6197 10.7542 17.6197 12.7879V20H22.334V12.2626C22.334 10.2693 21.8385 8.75756 20.8475 7.72726C19.8565 6.69696 18.547 6.18181 16.9189 6.18181C15.0927 6.18181 13.6699 6.92928 12.6506 8.42423V8.46463H12.6294L12.6506 8.42423V6.50504H7.9363C7.96461 6.93601 7.97877 8.27607 7.97877 10.5252C7.97877 12.7744 7.96461 15.9326 7.9363 20Z" fill="url(#paint0_linear_2201_12762)"/>
<defs>
<linearGradient id="paint0_linear_2201_12762" x1="0.333984" y1="10.2703" x2="22.334" y2="10.2703" gradientUnits="userSpaceOnUse">
<stop stop-color="#00469F"/>
<stop offset="1" stop-color="#1E79D6"/>
</linearGradient>
</defs>
</svg>
