<svg width="24" height="20" viewBox="0 0 24 20" fill="none" xmlns="http://www.w3.org/2000/svg">
<path d="M7.3381 20C16.1435 20 20.9589 12.3062 20.9589 5.6344C20.9589 5.4159 20.9547 5.1984 20.9454 4.9818C21.8823 4.26676 22.691 3.38142 23.3333 2.3673C22.4755 2.7695 21.5525 3.0402 20.5842 3.16225C21.5726 2.5372 22.3313 1.54835 22.6893 0.36965C21.7496 0.957597 20.7215 1.37207 19.6495 1.5952C18.7759 0.6138 17.5322 0 16.1551 0C13.5114 0 11.3676 2.2611 11.3676 5.04825C11.3676 5.4445 11.4096 5.8298 11.4918 6.1995C7.513 5.98835 3.98493 3.97925 1.62375 0.9243C1.19848 1.69482 0.974799 2.57053 0.975542 3.462C0.975542 5.2137 1.82066 6.76005 3.10589 7.66475C2.34566 7.64026 1.60212 7.42369 0.937791 7.03325C0.93708 7.05445 0.93708 7.0751 0.93708 7.09775C0.93708 9.5429 2.5872 11.5844 4.77769 12.047C4.36629 12.1652 3.94176 12.225 3.51537 12.2247C3.20743 12.2247 2.90732 12.1927 2.61566 12.1337C3.22512 14.1398 4.99239 15.5996 7.08769 15.6404C5.44919 16.9949 3.38518 17.8016 1.14191 17.8016C0.760301 17.802 0.379004 17.7786 0 17.7317C2.11869 19.1639 4.63442 19.9997 7.33833 19.9997" fill="url(#paint0_linear_2201_12760)"/>
<defs>
<linearGradient id="paint0_linear_2201_12760" x1="0" y1="10.2703" x2="23.3333" y2="10.2703" gradientUnits="userSpaceOnUse">
<stop stop-color="#00469F"/>
<stop offset="1" stop-color="#1E79D6"/>
</linearGradient>
</defs>
</svg>
