<svg width="290" height="180" viewBox="0 0 290 180" fill="none" xmlns="http://www.w3.org/2000/svg">
<path d="M105.977 126.586C105.646 126.587 105.328 126.719 105.093 126.955C104.859 127.19 104.727 127.509 104.727 127.842V178.013C104.727 178.346 104.859 178.666 105.093 178.901C105.328 179.136 105.646 179.269 105.977 179.269H114.461C114.792 179.269 115.11 179.136 115.345 178.901C115.579 178.666 115.711 178.346 115.711 178.013V127.842C115.711 127.509 115.579 127.19 115.345 126.955C115.11 126.719 114.792 126.587 114.461 126.586H105.977Z" fill="url(#paint0_linear_48_8144)"/>
<path d="M177.009 126.586C176.677 126.587 176.359 126.719 176.125 126.955C175.89 127.19 175.758 127.509 175.758 127.842V178.013C175.758 178.346 175.89 178.666 176.125 178.901C176.359 179.136 176.677 179.269 177.009 179.269H185.492C185.823 179.269 186.141 179.136 186.376 178.901C186.61 178.666 186.742 178.346 186.743 178.013V127.842C186.742 127.509 186.61 127.19 186.376 126.955C186.141 126.719 185.823 126.587 185.492 126.586H177.009Z" fill="url(#paint1_linear_48_8144)"/>
<path d="M216.771 86.9352L151.594 81.9517L203.591 90.7321L216.052 88.5963L216.771 86.9352Z" fill="url(#paint2_linear_48_8144)"/>
<path d="M204.176 90.0264L216.776 87.8704L216.9 87.5849L217.503 87.631L216.776 89.3079L204.176 91.4639L151.594 81.9517L167.176 83.7897L204.176 90.0264Z" fill="url(#paint3_linear_48_8144)"/>
<path d="M68.1065 86.9352L2.92969 81.9517L54.9273 90.7321L67.3877 88.5963L68.1065 86.9352Z" fill="url(#paint4_linear_48_8144)"/>
<path d="M54.193 90.0264L66.653 87.8704L66.7757 87.5849L67.3721 87.631L66.653 89.3079L54.193 91.4639L2.19531 81.9517L17.6047 83.7897L54.193 90.0264Z" fill="url(#paint5_linear_48_8144)"/>
<path d="M227.752 112.857L222.204 113.099L171.378 134.664L168.469 137.114L159.248 144.877H130.303L121.585 137.114L118.271 134.162L69.5176 113.342L65.1758 112.857L79.6484 105.822H79.7256C83.006 102.69 111.416 100.243 145.981 100.243C180.547 100.243 208.956 102.69 212.237 105.822H212.555L227.752 112.857Z" fill="url(#paint6_linear_48_8144)"/>
<path d="M79.2398 106.203C79.343 105.919 79.3961 105.619 79.3967 105.318V94.0598C79.3967 93.3525 79.1098 92.6742 78.5992 92.174C78.0885 91.6738 77.396 91.3929 76.6739 91.3929H75.5683C76.476 90.4955 77.0923 89.3551 77.3396 88.1153C77.5868 86.8755 77.4539 85.5918 76.9577 84.4258C76.4614 83.2599 75.6239 82.2638 74.5508 81.5632C73.4777 80.8626 72.2168 80.4888 70.9272 80.4888C69.6375 80.4888 68.3767 80.8626 67.3036 81.5632C66.2304 82.2638 65.393 83.2599 64.8967 84.4258C64.4004 85.5918 64.2675 86.8755 64.5148 88.1153C64.762 89.3551 65.3783 90.4955 66.286 91.3929H65.1805C64.823 91.3929 64.4689 91.4618 64.1385 91.5959C63.8082 91.7299 63.508 91.9263 63.2552 92.174C63.0024 92.4217 62.8018 92.7157 62.665 93.0392C62.5281 93.3628 62.4577 93.7096 62.4577 94.0598V105.318C62.4575 105.779 62.58 106.232 62.8131 106.632C61.9914 106.773 61.1695 106.926 60.3478 107.104C59.8471 107.213 59.3997 107.487 59.0794 107.879C58.759 108.272 58.585 108.759 58.5859 109.262V111.937C58.5859 112.523 58.8237 113.085 59.247 113.5C59.6702 113.914 60.2443 114.147 60.8429 114.147H86.4142V107.511C84.053 106.928 81.6569 106.491 79.2398 106.203V106.203Z" fill="url(#paint7_linear_48_8144)"/>
<path d="M230.383 107.104C229.561 106.926 228.739 106.773 227.917 106.632C228.151 106.232 228.273 105.779 228.273 105.318V94.0599C228.273 93.7096 228.202 93.3628 228.066 93.0392C227.929 92.7157 227.728 92.4217 227.475 92.174C227.223 91.9264 226.922 91.7299 226.592 91.5959C226.262 91.4618 225.908 91.3929 225.55 91.3929H224.445C225.352 90.4955 225.969 89.3551 226.216 88.1153C226.463 86.8755 226.33 85.5918 225.834 84.4258C225.338 83.2599 224.5 82.2638 223.427 81.5632C222.354 80.8626 221.093 80.4888 219.803 80.4888C218.514 80.4888 217.253 80.8626 216.18 81.5632C215.107 82.2638 214.269 83.2599 213.773 84.4258C213.277 85.5918 213.144 86.8755 213.391 88.1153C213.638 89.3551 214.255 90.4955 215.162 91.3929H214.057C213.699 91.3929 213.345 91.4618 213.015 91.5959C212.684 91.7299 212.384 91.9264 212.131 92.174C211.879 92.4217 211.678 92.7157 211.541 93.0392C211.404 93.3628 211.334 93.7096 211.334 94.0599V105.318C211.334 105.619 211.388 105.919 211.491 106.203C209.074 106.491 206.678 106.928 204.316 107.511V114.147H229.888C230.486 114.147 231.06 113.914 231.484 113.5C231.907 113.085 232.145 112.523 232.145 111.937V109.262C232.146 108.759 231.972 108.272 231.651 107.879C231.331 107.487 230.883 107.213 230.383 107.104V107.104Z" fill="url(#paint8_linear_48_8144)"/>
<path d="M222.625 86.9352L288.534 81.9517L235.952 90.7321L223.352 88.5963L222.625 86.9352Z" fill="url(#paint9_linear_48_8144)"/>
<path d="M150.147 142.684H139.847C139.465 142.684 139.087 142.759 138.735 142.905C138.382 143.051 138.062 143.265 137.792 143.534C137.523 143.804 137.309 144.124 137.163 144.476C137.017 144.828 136.941 145.206 136.941 145.587V147.83C136.942 148.419 137.122 148.994 137.457 149.479C137.793 149.964 138.268 150.335 138.82 150.543C138.394 151.054 138.161 151.698 138.162 152.362V153.006C138.162 153.464 138.273 153.916 138.485 154.323C138.698 154.73 139.006 155.079 139.382 155.341V163.904H150.611V155.341C150.988 155.079 151.296 154.73 151.509 154.323C151.721 153.916 151.832 153.464 151.832 153.006V152.362C151.833 151.698 151.6 151.054 151.174 150.543C151.726 150.335 152.201 149.964 152.537 149.479C152.872 148.994 153.052 148.419 153.053 147.83V145.587C153.053 145.206 152.977 144.828 152.831 144.476C152.685 144.124 152.471 143.804 152.202 143.534C151.932 143.265 151.612 143.051 151.259 142.905C150.907 142.759 150.529 142.684 150.147 142.684V142.684Z" fill="#3F3D56"/>
<path d="M134.947 162.438C134.506 162.439 134.084 162.616 133.772 162.931C133.461 163.246 133.286 163.673 133.285 164.119V177.586C133.286 178.032 133.461 178.459 133.772 178.774C134.084 179.089 134.506 179.267 134.947 179.267H155.058C155.498 179.267 155.921 179.089 156.232 178.774C156.544 178.459 156.719 178.032 156.719 177.586V164.119C156.719 163.673 156.544 163.246 156.232 162.931C155.921 162.616 155.498 162.439 155.058 162.438H134.947Z" fill="url(#paint10_linear_48_8144)"/>
<path d="M168.435 137.075L159.217 144.88H130.281L121.566 137.075H130.233L130.611 135.165C130.722 134.603 131.022 134.098 131.46 133.735C131.898 133.371 132.447 133.173 133.013 133.172H157.208C157.774 133.173 158.323 133.371 158.761 133.735C159.199 134.098 159.499 134.603 159.61 135.165L159.988 137.075H168.435Z" fill="url(#paint11_linear_48_8144)"/>
<path d="M145.001 177.801C148.641 177.801 151.592 174.689 151.592 170.85C151.592 167.011 148.641 163.899 145.001 163.899C141.361 163.899 138.41 167.011 138.41 170.85C138.41 174.689 141.361 177.801 145.001 177.801Z" fill="#3F3D56"/>
<path d="M144.998 174.877C147.02 174.877 148.659 173.076 148.659 170.853C148.659 168.63 147.02 166.829 144.998 166.829C142.975 166.829 141.336 168.63 141.336 170.853C141.336 173.076 142.975 174.877 144.998 174.877Z" fill="white"/>
<path d="M147.213 167.563C147.751 168.347 148.016 169.32 147.956 170.304C147.897 171.287 147.518 172.213 146.891 172.91C146.263 173.607 145.429 174.027 144.543 174.093C143.657 174.159 142.78 173.866 142.074 173.268C142.391 173.731 142.793 174.114 143.254 174.391C143.715 174.667 144.224 174.831 144.747 174.871C145.269 174.91 145.794 174.825 146.284 174.621C146.775 174.417 147.22 174.099 147.591 173.687C147.961 173.276 148.248 172.781 148.432 172.237C148.616 171.692 148.692 171.11 148.657 170.53C148.621 169.949 148.473 169.384 148.224 168.873C147.975 168.361 147.631 167.914 147.213 167.563V167.563Z" fill="white"/>
<path d="M232.149 109.758H59.3203V111.222H232.149V109.758Z" fill="white"/>
<path d="M236.539 90.0264L224.078 87.8704L223.956 87.5849L223.359 87.631L224.078 89.3079L236.539 91.4639L288.536 81.9517L273.127 83.7897L236.539 90.0264Z" fill="url(#paint12_linear_48_8144)"/>
<path d="M73.9648 86.9352L139.874 81.9517L87.292 90.7321L74.692 88.5963L73.9648 86.9352Z" fill="url(#paint13_linear_48_8144)"/>
<path d="M88.0226 90.0264L75.4222 87.8704L75.2984 87.5849L74.6953 87.631L75.4222 89.3079L88.0226 91.4639L140.604 81.9517L125.022 83.7897L88.0226 90.0264Z" fill="url(#paint14_linear_48_8144)"/>
<path d="M155.253 135.368H135.48V139.026H155.253V135.368Z" fill="white"/>
<path d="M82.9999 0.000488281H24.6523C22.582 0.00283631 20.5973 0.830412 19.1334 2.30166C17.6695 3.77291 16.8461 5.76767 16.8438 7.84833V38.9819C16.8461 41.0626 17.6695 43.0573 19.1334 44.5286C20.5973 45.9998 22.582 46.8274 24.6523 46.8298H82.9999C85.0701 46.8274 87.0549 45.9998 88.5188 44.5286C89.9826 43.0573 90.8061 41.0626 90.8084 38.9819V7.84833C90.8061 5.76768 89.9826 3.77292 88.5188 2.30167C87.0549 0.830422 85.0701 0.00284151 82.9999 0.000488281V0.000488281Z" fill="#E6E6E6"/>
<path d="M24.8946 6.58643C24.5073 6.58683 24.1359 6.73918 23.8621 7.01006C23.5882 7.28093 23.4342 7.6482 23.4338 8.03127V38.8001C23.4342 39.1832 23.5882 39.5505 23.8621 39.8213C24.1359 40.0922 24.5073 40.2446 24.8946 40.245H83.4881C83.8754 40.2446 84.2468 40.0922 84.5206 39.8213C84.7945 39.5505 84.9485 39.1832 84.9489 38.8001V8.03127C84.9485 7.6482 84.7945 7.28093 84.5206 7.01006C84.2468 6.73918 83.8754 6.58683 83.4881 6.58643H24.8946Z" fill="white"/>
<path d="M53.0343 37.3171C53.0147 37.3171 52.995 37.3165 52.9752 37.3154C52.74 37.3017 52.5164 37.2059 52.3411 37.0438C52.1658 36.8817 52.0492 36.663 52.0105 36.4235L48.6807 15.8293L45.7407 27.9517C45.6845 28.1831 45.555 28.3885 45.3726 28.5353C45.1903 28.682 44.9655 28.7618 44.7342 28.7618H40.5843C40.3092 28.7618 40.0453 28.6491 39.8507 28.4485C39.6562 28.248 39.5469 27.976 39.5469 27.6923C39.5469 27.4087 39.6562 27.1367 39.8507 26.9361C40.0453 26.7356 40.3092 26.6229 40.5843 26.6229H43.9242L47.8775 10.3223C47.9353 10.0838 48.0711 9.87316 48.2619 9.72577C48.4528 9.57837 48.6871 9.50325 48.9254 9.51306C49.1637 9.52287 49.3914 9.61701 49.5703 9.77962C49.7491 9.94224 49.8681 10.1634 49.9073 10.4059L53.3006 31.3925L56.1861 20.982C56.247 20.7624 56.3745 20.5686 56.5499 20.4291C56.7254 20.2896 56.9396 20.2116 57.1611 20.2067C57.3827 20.2017 57.5999 20.27 57.7811 20.4015C57.9623 20.5331 58.0978 20.721 58.1679 20.9377L60.0063 26.6229H63.4084C63.6836 26.6229 63.9474 26.7356 64.142 26.9361C64.3366 27.1367 64.4459 27.4087 64.4459 27.6923C64.4459 27.976 64.3366 28.248 64.142 28.4485C63.9474 28.6491 63.6836 28.7618 63.4084 28.7618H59.2586C59.0408 28.7618 58.8286 28.6911 58.652 28.5599C58.4753 28.4286 58.3432 28.2434 58.2744 28.0305L57.2599 24.8934L54.0314 36.5415C53.9694 36.7648 53.8386 36.9613 53.6588 37.1013C53.4789 37.2412 53.2597 37.317 53.0343 37.3171Z" fill="url(#paint15_linear_48_8144)"/>
<path d="M65.9098 30.7323C67.5276 30.7323 68.8391 29.2582 68.8391 27.4397C68.8391 25.6212 67.5276 24.147 65.9098 24.147C64.292 24.147 62.9805 25.6212 62.9805 27.4397C62.9805 29.2582 64.292 30.7323 65.9098 30.7323Z" fill="#3F3D56"/>
<path d="M173.805 0.000488281H115.457C113.387 0.00284151 111.402 0.830422 109.938 2.30167C108.474 3.77292 107.651 5.76768 107.648 7.84833V38.9819C107.651 41.0626 108.474 43.0573 109.938 44.5286C111.402 45.9998 113.387 46.8274 115.457 46.8298H173.805C175.875 46.8274 177.86 45.9998 179.323 44.5286C180.787 43.0573 181.611 41.0626 181.613 38.9819V7.84833C181.611 5.76768 180.787 3.77291 179.323 2.30166C177.86 0.830417 175.875 0.00283978 173.805 0.000488281V0.000488281Z" fill="#E6E6E6"/>
<path d="M115.703 6.58643C115.316 6.58683 114.944 6.73918 114.67 7.01006C114.397 7.28093 114.243 7.6482 114.242 8.03127V38.8001C114.243 39.1832 114.397 39.5505 114.67 39.8213C114.944 40.0922 115.316 40.2446 115.703 40.245H174.297C174.684 40.2446 175.055 40.0922 175.329 39.8213C175.603 39.5505 175.757 39.1832 175.757 38.8001V8.03127C175.757 7.6482 175.603 7.28093 175.329 7.01006C175.055 6.73918 174.684 6.58683 174.297 6.58643H115.703Z" fill="white"/>
<path d="M144.631 24.8781C148.878 24.8781 152.32 21.4383 152.32 17.1951C152.32 12.952 148.878 9.51221 144.631 9.51221C140.384 9.51221 136.941 12.952 136.941 17.1951C136.941 21.4383 140.384 24.8781 144.631 24.8781Z" fill="url(#paint16_linear_48_8144)"/>
<path d="M144.999 26.3423H144.999C147.718 26.3423 150.326 27.4436 152.248 29.4039C154.171 31.3642 155.251 34.0229 155.251 36.7952V37.3179H134.746V36.7952C134.746 34.0229 135.826 31.3642 137.749 29.4039C139.672 27.4436 142.28 26.3423 144.999 26.3423V26.3423Z" fill="url(#paint17_linear_48_8144)"/>
<path d="M129.258 28.5354C132.291 28.5354 134.75 26.2422 134.75 23.4135C134.75 20.5847 132.291 18.2915 129.258 18.2915C126.225 18.2915 123.766 20.5847 123.766 23.4135C123.766 26.2422 126.225 28.5354 129.258 28.5354Z" fill="#3F3D56"/>
<path d="M134.746 31.1978C133.667 30.218 132.335 29.5783 130.909 29.3557C129.483 29.133 128.025 29.3369 126.71 29.9429C125.395 30.5488 124.279 31.531 123.496 32.7712C122.713 34.0114 122.297 35.4568 122.297 36.9336V37.3168H133.258V36.7693C133.256 34.8089 133.77 32.8841 134.746 31.1978V31.1978Z" fill="#3F3D56"/>
<path d="M160.742 28.5354C163.776 28.5354 166.235 26.2422 166.235 23.4135C166.235 20.5847 163.776 18.2915 160.742 18.2915C157.709 18.2915 155.25 20.5847 155.25 23.4135C155.25 26.2422 157.709 28.5354 160.742 28.5354Z" fill="#3F3D56"/>
<path d="M155.25 31.1978C156.266 30.218 157.52 29.5783 158.861 29.3557C160.203 29.133 161.576 29.3369 162.813 29.9429C164.051 30.5488 165.102 31.531 165.839 32.7712C166.576 34.0114 166.967 35.4568 166.967 36.9336V37.3168H156.651V36.7693C156.653 34.8089 156.169 32.8841 155.25 31.1978V31.1978Z" fill="#3F3D56"/>
<path d="M264.617 0.000488281H206.269C204.199 0.00283545 202.214 0.830412 200.751 2.30166C199.287 3.77291 198.463 5.76767 198.461 7.84833V38.9819C198.463 41.0626 199.287 43.0573 200.751 44.5286C202.214 45.9998 204.199 46.8274 206.269 46.8298H264.617C266.687 46.8274 268.672 45.9998 270.136 44.5286C271.6 43.0573 272.423 41.0626 272.426 38.9819V7.84833C272.423 5.76768 271.6 3.77291 270.136 2.30166C268.672 0.830417 266.687 0.00283978 264.617 0.000488281V0.000488281Z" fill="#E6E6E6"/>
<path d="M206.512 6.58643C206.124 6.58683 205.753 6.73918 205.479 7.01006C205.205 7.28093 205.051 7.6482 205.051 8.03127V38.8001C205.051 39.1832 205.205 39.5505 205.479 39.8213C205.753 40.0922 206.124 40.2446 206.512 40.245H265.105C265.492 40.2446 265.864 40.0922 266.138 39.8213C266.411 39.5505 266.566 39.1832 266.566 38.8001V8.03127C266.566 7.6482 266.411 7.28093 266.138 7.01006C265.864 6.73918 265.492 6.58683 265.105 6.58643H206.512Z" fill="white"/>
<path d="M234.708 37.3174C234.564 37.3174 234.421 37.2928 234.287 37.245C234.154 37.1972 234.033 37.1271 233.931 37.0387C233.829 36.9504 233.748 36.8455 233.693 36.7301C233.638 36.6146 233.609 36.4909 233.609 36.366V28.7548C233.61 28.5028 233.726 28.2612 233.932 28.0832C234.138 27.9052 234.417 27.8052 234.708 27.8052C234.999 27.8052 235.278 27.9052 235.484 28.0832C235.69 28.2612 235.806 28.5028 235.806 28.7548V36.366C235.806 36.4909 235.778 36.6146 235.723 36.7301C235.668 36.8455 235.587 36.9504 235.485 37.0387C235.383 37.1271 235.262 37.1972 235.128 37.245C234.995 37.2928 234.852 37.3174 234.708 37.3174V37.3174Z" fill="url(#paint18_linear_48_8144)"/>
<path d="M237.844 33.6592H231.579C231.341 33.6592 231.114 33.5821 230.946 33.4449C230.778 33.3077 230.684 33.1216 230.684 32.9275C230.684 32.7334 230.778 32.5473 230.946 32.4101C231.114 32.2729 231.341 32.1958 231.579 32.1958H237.844C238.081 32.1958 238.309 32.2729 238.477 32.4101C238.645 32.5473 238.739 32.7334 238.739 32.9275C238.739 33.1216 238.645 33.3077 238.477 33.4449C238.309 33.5821 238.081 33.6592 237.844 33.6592Z" fill="url(#paint19_linear_48_8144)"/>
<path d="M247.317 15.3671C247.194 15.3671 247.071 15.3428 246.957 15.2955C246.843 15.2482 246.739 15.1789 246.652 15.0916C246.564 15.0042 246.495 14.9005 246.448 14.7864C246.4 14.6722 246.376 14.5499 246.376 14.4263V10.6633H242.61C242.486 10.6633 242.364 10.6389 242.249 10.5917C242.135 10.5444 242.031 10.4751 241.944 10.3877C241.856 10.3004 241.787 10.1967 241.74 10.0825C241.692 9.96838 241.668 9.84605 241.668 9.72251C241.668 9.59896 241.692 9.47663 241.74 9.36249C241.787 9.24835 241.856 9.14464 241.944 9.05728C242.031 8.96993 242.135 8.90063 242.249 8.85335C242.364 8.80607 242.486 8.78174 242.61 8.78174H247.317C247.441 8.78174 247.564 8.80607 247.678 8.85335C247.792 8.90063 247.896 8.96993 247.983 9.05728C248.071 9.14464 248.14 9.24835 248.187 9.36249C248.235 9.47663 248.259 9.59896 248.259 9.72251V14.4263C248.259 14.5499 248.235 14.6722 248.187 14.7864C248.14 14.9005 248.071 15.0042 247.983 15.0916C247.896 15.1789 247.792 15.2482 247.678 15.2955C247.564 15.3428 247.441 15.3671 247.317 15.3671V15.3671Z" fill="url(#paint20_linear_48_8144)"/>
<path d="M241.844 16.8305C241.664 16.8305 241.488 16.7718 241.338 16.6619C241.188 16.5519 241.072 16.3957 241.003 16.2128C240.934 16.03 240.916 15.8288 240.951 15.6347C240.986 15.4406 241.073 15.2623 241.2 15.1224L246.704 9.07387C246.874 8.88663 247.106 8.78156 247.347 8.78174C247.588 8.78192 247.82 8.88733 247.99 9.07482C248.161 9.26231 248.257 9.51654 248.257 9.78169C248.257 10.0468 248.161 10.3012 247.991 10.4889L242.488 16.5375C242.403 16.6305 242.303 16.7043 242.192 16.7546C242.082 16.8049 241.964 16.8307 241.844 16.8305V16.8305Z" fill="url(#paint21_linear_48_8144)"/>
<path d="M234.713 29.2697C232.902 29.2697 231.132 28.7333 229.627 27.7283C228.122 26.7233 226.948 25.2948 226.255 23.6235C225.563 21.9523 225.381 20.1132 225.734 18.339C226.088 16.5648 226.96 14.9351 228.24 13.656C229.52 12.3768 231.151 11.5057 232.927 11.1528C234.702 10.7999 236.543 10.981 238.216 11.6733C239.888 12.3655 241.318 13.5379 242.324 15.042C243.33 16.5461 243.867 18.3144 243.867 20.1234C243.864 22.5483 242.899 24.8731 241.182 26.5878C239.466 28.3025 237.14 29.267 234.713 29.2697V29.2697ZM234.713 12.9026C233.283 12.9026 231.886 13.3261 230.698 14.1195C229.509 14.913 228.583 16.0407 228.036 17.3601C227.489 18.6795 227.346 20.1314 227.625 21.5321C227.903 22.9328 228.592 24.2194 229.602 25.2293C230.613 26.2391 231.901 26.9268 233.303 27.2055C234.705 27.4841 236.158 27.3411 237.478 26.7945C238.799 26.248 239.927 25.3225 240.722 24.1351C241.516 22.9476 241.94 21.5515 241.94 20.1234C241.937 18.209 241.175 16.3736 239.82 15.0199C238.466 13.6662 236.629 12.9048 234.713 12.9026V12.9026Z" fill="#3F3D56"/>
<path d="M290 179.266H0V179.998H290V179.266Z" fill="url(#paint22_linear_48_8144)"/>
<defs>
<linearGradient id="paint0_linear_48_8144" x1="104.972" y1="179.269" x2="116.621" y2="179.053" gradientUnits="userSpaceOnUse">
<stop stop-color="#F7BA2C"/>
<stop offset="1" stop-color="#EA5459"/>
</linearGradient>
<linearGradient id="paint1_linear_48_8144" x1="176.004" y1="179.269" x2="187.652" y2="179.053" gradientUnits="userSpaceOnUse">
<stop stop-color="#F7BA2C"/>
<stop offset="1" stop-color="#EA5459"/>
</linearGradient>
<linearGradient id="paint2_linear_48_8144" x1="153.295" y1="90.0743" x2="202.941" y2="59.821" gradientUnits="userSpaceOnUse">
<stop stop-color="#560BAD"/>
<stop offset="0.520833" stop-color="#B5179E"/>
<stop offset="1" stop-color="#F72585"/>
</linearGradient>
<linearGradient id="paint3_linear_48_8144" x1="153.068" y1="91.4639" x2="203.754" y2="60.2426" gradientUnits="userSpaceOnUse">
<stop stop-color="#F7BA2C"/>
<stop offset="1" stop-color="#EA5459"/>
</linearGradient>
<linearGradient id="paint4_linear_48_8144" x1="4.63048" y1="90.0743" x2="54.277" y2="59.821" gradientUnits="userSpaceOnUse">
<stop stop-color="#560BAD"/>
<stop offset="0.520833" stop-color="#B5179E"/>
<stop offset="1" stop-color="#F72585"/>
</linearGradient>
<linearGradient id="paint5_linear_48_8144" x1="3.65313" y1="91.4639" x2="54.083" y2="60.7458" gradientUnits="userSpaceOnUse">
<stop stop-color="#F7BA2C"/>
<stop offset="1" stop-color="#EA5459"/>
</linearGradient>
<linearGradient id="paint6_linear_48_8144" x1="68.8121" y1="144.877" x2="224.909" y2="94.3319" gradientUnits="userSpaceOnUse">
<stop stop-color="#F7BA2C"/>
<stop offset="1" stop-color="#EA5459"/>
</linearGradient>
<linearGradient id="paint7_linear_48_8144" x1="59.2084" y1="114.147" x2="88.5706" y2="111.989" gradientUnits="userSpaceOnUse">
<stop stop-color="#F7BA2C"/>
<stop offset="1" stop-color="#EA5459"/>
</linearGradient>
<linearGradient id="paint8_linear_48_8144" x1="204.939" y1="114.147" x2="234.301" y2="111.989" gradientUnits="userSpaceOnUse">
<stop stop-color="#F7BA2C"/>
<stop offset="1" stop-color="#EA5459"/>
</linearGradient>
<linearGradient id="paint9_linear_48_8144" x1="224.345" y1="90.0743" x2="274.244" y2="59.3255" gradientUnits="userSpaceOnUse">
<stop stop-color="#560BAD"/>
<stop offset="0.520833" stop-color="#B5179E"/>
<stop offset="1" stop-color="#F72585"/>
</linearGradient>
<linearGradient id="paint10_linear_48_8144" x1="133.897" y1="178.006" x2="158.06" y2="175.244" gradientUnits="userSpaceOnUse">
<stop stop-color="#560BAD"/>
<stop offset="0.520833" stop-color="#B5179E"/>
<stop offset="1" stop-color="#F72585"/>
</linearGradient>
<linearGradient id="paint11_linear_48_8144" x1="122.789" y1="144.003" x2="166.975" y2="129.481" gradientUnits="userSpaceOnUse">
<stop stop-color="#560BAD"/>
<stop offset="0.520833" stop-color="#B5179E"/>
<stop offset="1" stop-color="#F72585"/>
</linearGradient>
<linearGradient id="paint12_linear_48_8144" x1="224.817" y1="91.4639" x2="275.247" y2="60.7458" gradientUnits="userSpaceOnUse">
<stop stop-color="#F7BA2C"/>
<stop offset="1" stop-color="#EA5459"/>
</linearGradient>
<linearGradient id="paint13_linear_48_8144" x1="75.6847" y1="90.0743" x2="125.584" y2="59.3255" gradientUnits="userSpaceOnUse">
<stop stop-color="#560BAD"/>
<stop offset="0.520833" stop-color="#B5179E"/>
<stop offset="1" stop-color="#F72585"/>
</linearGradient>
<linearGradient id="paint14_linear_48_8144" x1="76.1695" y1="91.4639" x2="126.856" y2="60.2426" gradientUnits="userSpaceOnUse">
<stop stop-color="#F7BA2C"/>
<stop offset="1" stop-color="#EA5459"/>
</linearGradient>
<linearGradient id="paint15_linear_48_8144" x1="40.1966" y1="35.2338" x2="66.0657" y2="33.3321" gradientUnits="userSpaceOnUse">
<stop stop-color="#560BAD"/>
<stop offset="0.520833" stop-color="#B5179E"/>
<stop offset="1" stop-color="#F72585"/>
</linearGradient>
<linearGradient id="paint16_linear_48_8144" x1="137.343" y1="23.7268" x2="153.299" y2="22.4158" gradientUnits="userSpaceOnUse">
<stop stop-color="#560BAD"/>
<stop offset="0.520833" stop-color="#B5179E"/>
<stop offset="1" stop-color="#F72585"/>
</linearGradient>
<linearGradient id="paint17_linear_48_8144" x1="135.281" y1="36.4956" x2="156.208" y2="33.286" gradientUnits="userSpaceOnUse">
<stop stop-color="#560BAD"/>
<stop offset="0.520833" stop-color="#B5179E"/>
<stop offset="1" stop-color="#F72585"/>
</linearGradient>
<linearGradient id="paint18_linear_48_8144" x1="233.667" y1="36.6047" x2="235.961" y2="36.5612" gradientUnits="userSpaceOnUse">
<stop stop-color="#560BAD"/>
<stop offset="0.520833" stop-color="#B5179E"/>
<stop offset="1" stop-color="#F72585"/>
</linearGradient>
<linearGradient id="paint19_linear_48_8144" x1="230.894" y1="33.5496" x2="237.881" y2="30.3919" gradientUnits="userSpaceOnUse">
<stop stop-color="#560BAD"/>
<stop offset="0.520833" stop-color="#B5179E"/>
<stop offset="1" stop-color="#F72585"/>
</linearGradient>
<linearGradient id="paint20_linear_48_8144" x1="241.84" y1="14.8737" x2="248.679" y2="14.3118" gradientUnits="userSpaceOnUse">
<stop stop-color="#560BAD"/>
<stop offset="0.520833" stop-color="#B5179E"/>
<stop offset="1" stop-color="#F72585"/>
</linearGradient>
<linearGradient id="paint21_linear_48_8144" x1="241.125" y1="16.2275" x2="248.732" y2="15.6593" gradientUnits="userSpaceOnUse">
<stop stop-color="#560BAD"/>
<stop offset="0.520833" stop-color="#B5179E"/>
<stop offset="1" stop-color="#F72585"/>
</linearGradient>
<linearGradient id="paint22_linear_48_8144" x1="6.48649" y1="179.998" x2="6.73411" y2="171.273" gradientUnits="userSpaceOnUse">
<stop stop-color="#F7BA2C"/>
<stop offset="1" stop-color="#EA5459"/>
</linearGradient>
</defs>
</svg>
