<svg width="310" height="181" viewBox="0 0 310 181" fill="none" xmlns="http://www.w3.org/2000/svg">
<path d="M209.829 22.6555L5.45791 143.523C2.44346 145.306 1.44915 149.192 3.23707 152.203C5.02498 155.215 8.91808 156.211 11.9325 154.428L216.304 33.5608C219.318 31.778 220.313 27.8915 218.525 24.8801C216.737 21.8687 212.844 20.8727 209.829 22.6555Z" fill="url(#paint0_linear_48_8232)"/>
<path d="M256.618 33.3312L52.247 154.199C49.2325 155.981 48.2382 159.868 50.0261 162.879C51.814 165.891 55.7071 166.887 58.7216 165.104L263.093 44.2365C266.107 42.4537 267.102 38.5673 265.314 35.5559C263.526 32.5445 259.633 31.5485 256.618 33.3312Z" fill="url(#paint1_linear_48_8232)"/>
<path d="M298.067 45.0031L93.6962 165.87C90.6817 167.653 89.6874 171.54 91.4753 174.551C93.2633 177.562 97.1564 178.558 100.171 176.776L304.542 55.9084C307.557 54.1256 308.551 50.2392 306.763 47.2278C304.975 44.2164 301.082 43.2204 298.067 45.0031Z" fill="url(#paint2_linear_48_8232)"/>
<path d="M140.228 168.676C177.454 168.676 207.632 138.557 207.632 101.403C207.632 64.2489 177.454 34.1296 140.228 34.1296C103.002 34.1296 72.824 64.2489 72.824 101.403C72.824 138.557 103.002 168.676 140.228 168.676Z" fill="white"/>
<path d="M72.324 101.399C72.324 64.0288 102.786 33.6257 140.229 33.6257C177.673 33.6257 208.135 64.0288 208.135 101.399C208.135 138.77 177.673 169.173 140.229 169.173C102.786 169.173 72.324 138.77 72.324 101.399ZM73.3267 101.399C73.3267 138.218 103.339 168.172 140.229 168.172C177.12 168.172 207.132 138.218 207.132 101.399C207.132 64.5807 177.12 34.6265 140.229 34.6265C103.339 34.6265 73.3267 64.5807 73.3267 101.399H73.3267Z" fill="url(#paint3_linear_48_8232)"/>
<path d="M128.215 101.7C128.215 99.3281 128.919 97.0096 130.24 95.0375C131.56 93.0654 133.436 91.5283 135.632 90.6206C137.828 89.713 140.243 89.4755 142.574 89.9382C144.905 90.4009 147.046 91.5431 148.726 93.2202C150.407 94.8973 151.551 97.0341 152.015 99.3604C152.478 101.687 152.24 104.098 151.331 106.289C150.422 108.48 148.881 110.353 146.906 111.671C144.93 112.989 142.607 113.692 140.23 113.692C137.043 113.692 133.987 112.429 131.734 110.18C129.481 107.931 128.215 104.88 128.215 101.7ZM140.23 90.2928C137.2 90.2962 134.295 91.4991 132.152 93.6376C130.009 95.7761 128.804 98.6756 128.801 101.7C128.801 103.956 129.471 106.162 130.727 108.037C131.983 109.913 133.768 111.375 135.856 112.239C137.945 113.102 140.243 113.328 142.46 112.888C144.677 112.448 146.713 111.361 148.312 109.766C149.91 108.171 150.999 106.138 151.44 103.925C151.881 101.713 151.655 99.419 150.789 97.3346C149.924 95.2502 148.459 93.4687 146.58 92.2152C144.7 90.9618 142.491 90.2928 140.23 90.2928Z" fill="url(#paint4_linear_48_8232)"/>
<path d="M117.367 101.698C117.367 97.1857 118.708 92.7747 121.219 89.0229C123.731 85.2711 127.301 82.347 131.478 80.6202C135.655 78.8934 140.251 78.4416 144.685 79.3219C149.119 80.2022 153.192 82.3751 156.389 85.5657C159.586 88.7564 161.763 92.8215 162.645 97.2471C163.527 101.673 163.075 106.26 161.344 110.429C159.614 114.597 156.684 118.161 152.925 120.667C149.166 123.174 144.747 124.512 140.226 124.512C137.224 124.512 134.251 123.922 131.478 122.776C128.705 121.629 126.185 119.949 124.062 117.83C121.939 115.712 120.256 113.197 119.107 110.429C117.958 107.661 117.367 104.694 117.367 101.698V101.698ZM140.226 79.4685C135.821 79.4685 131.514 80.7723 127.852 83.2149C124.189 85.6574 121.334 89.1292 119.648 93.1911C117.963 97.253 117.522 101.723 118.381 106.035C119.24 110.347 121.362 114.308 124.477 117.416C127.591 120.525 131.56 122.642 135.881 123.5C140.201 124.358 144.679 123.918 148.749 122.235C152.819 120.553 156.297 117.704 158.745 114.048C161.192 110.392 162.498 106.094 162.498 101.698C162.492 95.8044 160.143 90.1541 155.967 85.9867C151.792 81.8193 146.131 79.4752 140.226 79.4685Z" fill="url(#paint5_linear_48_8232)"/>
<path d="M95.6833 101.694C95.6834 92.9008 98.2959 84.3051 103.191 76.9939C108.085 69.6827 115.042 63.9843 123.182 60.6193C131.321 57.2544 140.278 56.3739 148.919 58.0894C157.56 59.8048 165.497 64.0391 171.727 70.2568C177.957 76.4745 182.199 84.3963 183.918 93.0204C185.637 101.645 184.755 110.584 181.383 118.708C178.012 126.831 172.302 133.775 164.977 138.66C157.651 143.545 149.039 146.153 140.229 146.153C128.419 146.139 117.096 141.451 108.745 133.116C100.394 124.782 95.6967 113.481 95.6833 101.694V101.694ZM140.229 57.8201C131.534 57.8201 123.035 60.3933 115.806 65.2142C108.577 70.0351 102.943 76.8873 99.6157 84.9042C96.2885 92.921 95.418 101.743 97.1142 110.253C98.8103 118.764 102.997 126.582 109.145 132.717C115.293 138.853 123.125 143.032 131.653 144.725C140.18 146.418 149.019 145.549 157.051 142.228C165.084 138.907 171.949 133.284 176.779 126.069C181.61 118.854 184.188 110.371 184.188 101.694C184.175 90.0619 179.539 78.9101 171.298 70.685C163.057 62.4599 151.883 57.8333 140.229 57.8201V57.8201Z" fill="url(#paint6_linear_48_8232)"/>
<path d="M140.228 106.959C143.303 106.959 145.796 104.471 145.796 101.402C145.796 98.3326 143.303 95.8445 140.228 95.8445C137.153 95.8445 134.66 98.3326 134.66 101.402C134.66 104.471 137.153 106.959 140.228 106.959Z" fill="url(#paint7_linear_48_8232)"/>
<path d="M125.869 123.053C128.944 123.053 131.437 120.565 131.437 117.496C131.437 114.426 128.944 111.938 125.869 111.938C122.793 111.938 120.301 114.426 120.301 117.496C120.301 120.565 122.793 123.053 125.869 123.053Z" fill="url(#paint8_linear_48_8232)"/>
<path d="M181.892 120.709C184.967 120.709 187.46 118.221 187.46 115.152C187.46 112.083 184.967 109.594 181.892 109.594C178.817 109.594 176.324 112.083 176.324 115.152C176.324 118.221 178.817 120.709 181.892 120.709Z" fill="url(#paint9_linear_48_8232)"/>
<path d="M140.227 104.039C141.684 104.039 142.865 102.86 142.865 101.407C142.865 99.9527 141.684 98.7742 140.227 98.7742C138.77 98.7742 137.59 99.9527 137.59 101.407C137.59 102.86 138.77 104.039 140.227 104.039Z" fill="url(#paint10_linear_48_8232)"/>
<path d="M181.891 117.789C183.348 117.789 184.529 116.61 184.529 115.157C184.529 113.703 183.348 112.524 181.891 112.524C180.435 112.524 179.254 113.703 179.254 115.157C179.254 116.61 180.435 117.789 181.891 117.789Z" fill="url(#paint11_linear_48_8232)"/>
<path d="M125.868 120.426C127.324 120.426 128.505 119.247 128.505 117.793C128.505 116.339 127.324 115.161 125.868 115.161C124.411 115.161 123.23 116.339 123.23 117.793C123.23 119.247 124.411 120.426 125.868 120.426Z" fill="url(#paint12_linear_48_8232)"/>
<path d="M17.1412 74.5039C18.5979 74.5039 19.7788 73.3253 19.7788 71.8714C19.7788 70.4176 18.5979 69.239 17.1412 69.239C15.6845 69.239 14.5037 70.4176 14.5037 71.8714C14.5037 73.3253 15.6845 74.5039 17.1412 74.5039Z" fill="url(#paint13_linear_48_8232)"/>
<path d="M140.079 72.0115H24.3201V71.4265H140.666V101.553H140.079V72.0115Z" fill="url(#paint14_linear_48_8232)"/>
<path d="M9.52319 71.8712C9.52319 70.3671 9.97007 68.8968 10.8073 67.6462C11.6446 66.3956 12.8346 65.4208 14.2269 64.8452C15.6192 64.2697 17.1512 64.1191 18.6293 64.4125C20.1073 64.7059 21.465 65.4302 22.5306 66.4937C23.5963 67.5573 24.322 68.9123 24.616 70.3875C24.91 71.8627 24.7591 73.3918 24.1824 74.7814C23.6057 76.171 22.629 77.3587 21.376 78.1943C20.123 79.0299 18.6498 79.476 17.1428 79.476C16.1422 79.476 15.1513 79.2793 14.2269 78.8971C13.3024 78.5149 12.4625 77.9547 11.7549 77.2486C11.0474 76.5424 10.4861 75.7041 10.1032 74.7814C9.72028 73.8587 9.52319 72.8698 9.52319 71.8712V71.8712ZM17.1428 64.8514C15.7517 64.8514 14.3919 65.2631 13.2352 66.0344C12.0786 66.8058 11.1771 67.9021 10.6447 69.1848C10.1124 70.4675 9.97307 71.879 10.2445 73.2407C10.5158 74.6024 11.1857 75.8532 12.1694 76.8349C13.153 77.8167 14.4063 78.4852 15.7706 78.7561C17.135 79.027 18.5492 78.8879 19.8344 78.3566C21.1196 77.8253 22.218 76.9256 22.9909 75.7712C23.7637 74.6168 24.1762 73.2596 24.1762 71.8712C24.1741 70.0101 23.4324 68.2258 22.1138 66.9098C20.7953 65.5938 19.0075 64.8535 17.1428 64.8514V64.8514Z" fill="url(#paint15_linear_48_8232)"/>
<path d="M34.7271 150.25C36.1838 150.25 37.3647 149.071 37.3647 147.618C37.3647 146.164 36.1838 144.985 34.7271 144.985C33.2705 144.985 32.0896 146.164 32.0896 147.618C32.0896 149.071 33.2705 150.25 34.7271 150.25Z" fill="url(#paint16_linear_48_8232)"/>
<path d="M27.1052 147.617C27.1052 146.113 27.5521 144.643 28.3894 143.392C29.2266 142.142 30.4166 141.167 31.8089 140.591C33.2012 140.016 34.7333 139.865 36.2113 140.159C37.6894 140.452 39.047 141.176 40.1127 142.24C41.1783 143.303 41.904 144.658 42.198 146.134C42.492 147.609 42.3411 149.138 41.7644 150.527C41.1877 151.917 40.2111 153.105 38.958 153.94C37.705 154.776 36.2318 155.222 34.7248 155.222C32.704 155.222 30.7659 154.421 29.337 152.995C27.908 151.568 27.1052 149.634 27.1052 147.617V147.617ZM34.7248 140.597C33.3337 140.597 31.9739 141.009 30.8172 141.78C29.6606 142.552 28.7591 143.648 28.2267 144.931C27.6944 146.214 27.5551 147.625 27.8265 148.987C28.0979 150.348 28.7677 151.599 29.7514 152.581C30.735 153.563 31.9883 154.231 33.3526 154.502C34.717 154.773 36.1312 154.634 37.4164 154.103C38.7016 153.571 39.8001 152.672 40.5729 151.517C41.3458 150.363 41.7583 149.006 41.7583 147.617C41.7561 145.756 41.0144 143.972 39.6958 142.656C38.3773 141.34 36.5895 140.6 34.7248 140.597Z" fill="url(#paint17_linear_48_8232)"/>
<path d="M263.657 86.7773C265.114 86.7773 266.294 85.5987 266.294 84.1449C266.294 82.691 265.114 81.5125 263.657 81.5125C262.2 81.5125 261.019 82.691 261.019 84.1449C261.019 85.5987 262.2 86.7773 263.657 86.7773Z" fill="url(#paint18_linear_48_8232)"/>
<path d="M256.035 84.1485C256.035 82.6444 256.482 81.1741 257.319 79.9235C258.156 78.6729 259.346 77.6982 260.739 77.1226C262.131 76.547 263.663 76.3964 265.141 76.6898C266.619 76.9833 267.977 77.7075 269.042 78.7711C270.108 79.8346 270.834 81.1897 271.128 82.6649C271.422 84.1401 271.271 85.6691 270.694 87.0587C270.117 88.4483 269.141 89.636 267.888 90.4716C266.635 91.3073 265.162 91.7533 263.655 91.7533C262.654 91.7533 261.663 91.5566 260.739 91.1744C259.814 90.7922 258.974 90.2321 258.267 89.5259C257.559 88.8197 256.998 87.9814 256.615 87.0587C256.232 86.1361 256.035 85.1472 256.035 84.1485V84.1485ZM263.655 77.1287C261.79 77.1308 260.002 77.8711 258.683 79.1871C257.365 80.5031 256.623 82.2874 256.621 84.1485V84.1485C256.621 85.5369 257.034 86.8941 257.806 88.0485C258.579 89.2029 259.678 90.1026 260.963 90.634C262.248 91.1653 263.662 91.3043 265.027 91.0334C266.391 90.7626 267.644 90.094 268.628 89.1122C269.612 88.1305 270.281 86.8797 270.553 85.518C270.824 84.1563 270.685 82.7448 270.153 81.4621C269.62 80.1794 268.719 79.0831 267.562 78.3117C266.405 77.5404 265.046 77.1287 263.655 77.1287V77.1287Z" fill="url(#paint19_linear_48_8232)"/>
<path d="M181.597 85.0227L256.323 83.8484L256.333 84.433L182.184 85.5986V115.145H181.597V85.0227Z" fill="url(#paint20_linear_48_8232)"/>
<path d="M42.0544 147.328H125.577V117.786H126.163V147.912H42.0544V147.328Z" fill="url(#paint21_linear_48_8232)"/>
<path d="M32.2362 85.6101H2.04691C1.48153 85.6101 1.02319 86.0684 1.02319 86.6338C1.02319 87.1992 1.48153 87.6575 2.04691 87.6575H32.2362C32.8016 87.6575 33.2599 87.1992 33.2599 86.6338C33.2599 86.0684 32.8016 85.6101 32.2362 85.6101Z" fill="#DBDBDB"/>
<path d="M32.2362 91.4578H2.04691C1.48153 91.4578 1.02319 91.9161 1.02319 92.4815C1.02319 93.0469 1.48153 93.5052 2.04691 93.5052H32.2362C32.8016 93.5052 33.2599 93.0469 33.2599 92.4815C33.2599 91.9161 32.8016 91.4578 32.2362 91.4578Z" fill="#DBDBDB"/>
<path d="M32.2362 97.3132H2.04691C1.48153 97.3132 1.02319 97.7716 1.02319 98.337C1.02319 98.9023 1.48153 99.3607 2.04691 99.3607H32.2362C32.8016 99.3607 33.2599 98.9023 33.2599 98.337C33.2599 97.7716 32.8016 97.3132 32.2362 97.3132Z" fill="#DBDBDB"/>
<path d="M49.8182 161.372H19.6289C19.0636 161.372 18.6052 161.83 18.6052 162.396C18.6052 162.961 19.0636 163.419 19.6289 163.419H49.8182C50.3836 163.419 50.8419 162.961 50.8419 162.396C50.8419 161.83 50.3836 161.372 49.8182 161.372Z" fill="#DBDBDB"/>
<path d="M49.8182 167.216H19.6289C19.0636 167.216 18.6052 167.674 18.6052 168.239C18.6052 168.805 19.0636 169.263 19.6289 169.263H49.8182C50.3836 169.263 50.8419 168.805 50.8419 168.239C50.8419 167.674 50.3836 167.216 49.8182 167.216Z" fill="#DBDBDB"/>
<path d="M49.8182 173.063H19.6289C19.0636 173.063 18.6052 173.522 18.6052 174.087C18.6052 174.652 19.0636 175.111 19.6289 175.111H49.8182C50.3836 175.111 50.8419 174.652 50.8419 174.087C50.8419 173.522 50.3836 173.063 49.8182 173.063Z" fill="#DBDBDB"/>
<path d="M278.752 98.1804H248.563C247.997 98.1804 247.539 98.6388 247.539 99.2041C247.539 99.7695 247.997 100.228 248.563 100.228H278.752C279.317 100.228 279.776 99.7695 279.776 99.2041C279.776 98.6388 279.317 98.1804 278.752 98.1804Z" fill="#DBDBDB"/>
<path d="M278.752 104.036H248.563C247.997 104.036 247.539 104.494 247.539 105.06C247.539 105.625 247.997 106.083 248.563 106.083H278.752C279.317 106.083 279.776 105.625 279.776 105.06C279.776 104.494 279.317 104.036 278.752 104.036Z" fill="#DBDBDB"/>
<path d="M278.752 109.895H248.563C247.997 109.895 247.539 110.354 247.539 110.919C247.539 111.484 247.997 111.943 248.563 111.943H278.752C279.317 111.943 279.776 111.484 279.776 110.919C279.776 110.354 279.317 109.895 278.752 109.895Z" fill="#DBDBDB"/>
<path d="M85.4816 85.4268C84.1554 85.4224 82.8349 85.2519 81.5512 84.9194L81.2981 84.8495L81.0634 84.7321C72.5777 80.486 65.4187 74.8774 59.7854 68.062C55.1222 62.3873 51.4865 55.9442 49.0419 49.0225C46.1185 40.7355 44.7121 31.9914 44.8897 23.2076C44.8933 23.0232 44.8963 22.8809 44.8963 22.7828C44.8963 18.5129 47.2711 14.7665 50.9464 13.2381C53.7592 12.0684 79.2986 1.59906 81.1439 0.842623C84.6191 -0.895223 88.3265 0.555282 88.9198 0.808937C90.2506 1.35195 113.86 10.9895 118.962 13.4142C124.22 15.9131 125.623 20.4023 125.623 22.6609C125.623 32.8864 123.849 42.4428 120.349 51.0649C117.523 58.0439 113.517 64.4868 108.506 70.113C98.8389 80.971 89.1687 84.8202 89.0754 84.8541C87.9197 85.251 86.7037 85.4448 85.4816 85.4268ZM83.2075 79.8049C84.0459 79.9925 85.9761 80.2738 87.2342 79.8158C88.8324 79.2341 96.9262 75.0453 104.49 66.5507C114.94 54.814 120.242 40.0601 120.25 22.6986C120.231 22.3469 119.981 19.8382 116.652 18.2563C111.649 15.8786 87.1086 5.86393 86.8613 5.76299L86.7935 5.7343C86.2792 5.51922 84.6425 5.06618 83.5143 5.65623L83.2885 5.76133C83.0149 5.87346 55.9045 16.9863 53.0132 18.1886C50.9906 19.0297 50.27 21.1133 50.27 22.7828C50.27 22.9048 50.2668 23.0823 50.2624 23.3117C50.0313 35.191 52.7857 64.4224 83.2075 79.8049Z" fill="#404040"/>
<path d="M82.2785 3.41098C82.2785 3.41098 55.0241 14.5861 52.104 15.8008C49.1839 17.0155 47.7238 19.9307 47.7238 22.846C47.7238 25.7612 45.5337 63.8012 82.2785 82.1935C82.2785 82.1935 85.6135 83.1147 88.1436 82.1935C90.6738 81.2723 122.795 65.7243 122.795 22.7245C122.795 22.7245 122.795 18.3516 117.685 15.9222C112.575 13.4929 87.8677 3.41098 87.8677 3.41098C87.8677 3.41098 84.8336 2.07483 82.2785 3.41098Z" fill="url(#paint22_linear_48_8232)"/>
<path opacity="0.1" d="M85.2472 12.0906V71.7284C85.2472 71.7284 57.5492 58.5092 57.7943 23.756L85.2472 12.0906Z" fill="url(#paint23_linear_48_8232)"/>
<path d="M85.3372 52.1672C84.9153 52.6193 84.1884 52.5839 83.8124 52.0931L76.3961 42.4135C76.0636 41.9796 76.1412 41.3591 76.5702 41.0204L80.0797 38.2497C80.5176 37.9039 81.1538 37.9835 81.4931 38.4264L84.2931 42.0806C84.6692 42.5714 85.3961 42.6067 85.818 42.1547L98.2903 28.7898C98.6711 28.3817 99.3123 28.3644 99.7146 28.7513L102.945 31.858C103.339 32.2368 103.356 32.8616 102.983 33.261L85.3372 52.1672Z" fill="white"/>
<defs>
<linearGradient id="paint0_linear_48_8232" x1="11.6072" y1="153.516" x2="14.1795" y2="16.3487" gradientUnits="userSpaceOnUse">
<stop stop-color="#560BAD"/>
<stop offset="0.520833" stop-color="#B5179E"/>
<stop offset="1" stop-color="#F72585"/>
</linearGradient>
<linearGradient id="paint1_linear_48_8232" x1="58.3963" y1="164.192" x2="60.9685" y2="27.0246" gradientUnits="userSpaceOnUse">
<stop stop-color="#560BAD"/>
<stop offset="0.520833" stop-color="#B5179E"/>
<stop offset="1" stop-color="#F72585"/>
</linearGradient>
<linearGradient id="paint2_linear_48_8232" x1="99.8455" y1="175.864" x2="102.418" y2="38.6964" gradientUnits="userSpaceOnUse">
<stop stop-color="#560BAD"/>
<stop offset="0.520833" stop-color="#B5179E"/>
<stop offset="1" stop-color="#F72585"/>
</linearGradient>
<linearGradient id="paint3_linear_48_8232" x1="75.868" y1="159.017" x2="216.779" y2="147.427" gradientUnits="userSpaceOnUse">
<stop stop-color="#560BAD"/>
<stop offset="0.520833" stop-color="#B5179E"/>
<stop offset="1" stop-color="#F72585"/>
</linearGradient>
<linearGradient id="paint4_linear_48_8232" x1="128.842" y1="111.895" x2="153.775" y2="109.844" gradientUnits="userSpaceOnUse">
<stop stop-color="#560BAD"/>
<stop offset="0.520833" stop-color="#B5179E"/>
<stop offset="1" stop-color="#F72585"/>
</linearGradient>
<linearGradient id="paint5_linear_48_8232" x1="118.39" y1="124.512" x2="166.506" y2="120.227" gradientUnits="userSpaceOnUse">
<stop stop-color="#F7BA2C"/>
<stop offset="1" stop-color="#EA5459"/>
</linearGradient>
<linearGradient id="paint6_linear_48_8232" x1="97.6761" y1="146.153" x2="191.441" y2="137.801" gradientUnits="userSpaceOnUse">
<stop stop-color="#F7BA2C"/>
<stop offset="1" stop-color="#EA5459"/>
</linearGradient>
<linearGradient id="paint7_linear_48_8232" x1="134.951" y1="106.126" x2="146.505" y2="105.176" gradientUnits="userSpaceOnUse">
<stop stop-color="#560BAD"/>
<stop offset="0.520833" stop-color="#B5179E"/>
<stop offset="1" stop-color="#F72585"/>
</linearGradient>
<linearGradient id="paint8_linear_48_8232" x1="120.591" y1="122.22" x2="132.146" y2="121.27" gradientUnits="userSpaceOnUse">
<stop stop-color="#560BAD"/>
<stop offset="0.520833" stop-color="#B5179E"/>
<stop offset="1" stop-color="#F72585"/>
</linearGradient>
<linearGradient id="paint9_linear_48_8232" x1="176.615" y1="119.876" x2="188.169" y2="118.926" gradientUnits="userSpaceOnUse">
<stop stop-color="#560BAD"/>
<stop offset="0.520833" stop-color="#B5179E"/>
<stop offset="1" stop-color="#F72585"/>
</linearGradient>
<linearGradient id="paint10_linear_48_8232" x1="137.708" y1="104.039" x2="143.259" y2="103.545" gradientUnits="userSpaceOnUse">
<stop stop-color="#F7BA2C"/>
<stop offset="1" stop-color="#EA5459"/>
</linearGradient>
<linearGradient id="paint11_linear_48_8232" x1="179.372" y1="117.789" x2="184.924" y2="117.295" gradientUnits="userSpaceOnUse">
<stop stop-color="#F7BA2C"/>
<stop offset="1" stop-color="#EA5459"/>
</linearGradient>
<linearGradient id="paint12_linear_48_8232" x1="123.348" y1="120.426" x2="128.9" y2="119.931" gradientUnits="userSpaceOnUse">
<stop stop-color="#F7BA2C"/>
<stop offset="1" stop-color="#EA5459"/>
</linearGradient>
<linearGradient id="paint13_linear_48_8232" x1="14.6413" y1="74.1094" x2="20.1145" y2="73.6592" gradientUnits="userSpaceOnUse">
<stop stop-color="#560BAD"/>
<stop offset="0.520833" stop-color="#B5179E"/>
<stop offset="1" stop-color="#F72585"/>
</linearGradient>
<linearGradient id="paint14_linear_48_8232" x1="27.3561" y1="99.2956" x2="137.788" y2="64.2841" gradientUnits="userSpaceOnUse">
<stop stop-color="#560BAD"/>
<stop offset="0.520833" stop-color="#B5179E"/>
<stop offset="1" stop-color="#F72585"/>
</linearGradient>
<linearGradient id="paint15_linear_48_8232" x1="9.92086" y1="78.3364" x2="25.7324" y2="77.0359" gradientUnits="userSpaceOnUse">
<stop stop-color="#560BAD"/>
<stop offset="0.520833" stop-color="#B5179E"/>
<stop offset="1" stop-color="#F72585"/>
</linearGradient>
<linearGradient id="paint16_linear_48_8232" x1="32.2273" y1="149.855" x2="37.7005" y2="149.405" gradientUnits="userSpaceOnUse">
<stop stop-color="#560BAD"/>
<stop offset="0.520833" stop-color="#B5179E"/>
<stop offset="1" stop-color="#F72585"/>
</linearGradient>
<linearGradient id="paint17_linear_48_8232" x1="27.5029" y1="154.082" x2="43.3144" y2="152.782" gradientUnits="userSpaceOnUse">
<stop stop-color="#560BAD"/>
<stop offset="0.520833" stop-color="#B5179E"/>
<stop offset="1" stop-color="#F72585"/>
</linearGradient>
<linearGradient id="paint18_linear_48_8232" x1="261.157" y1="86.3828" x2="266.63" y2="85.9327" gradientUnits="userSpaceOnUse">
<stop stop-color="#560BAD"/>
<stop offset="0.520833" stop-color="#B5179E"/>
<stop offset="1" stop-color="#F72585"/>
</linearGradient>
<linearGradient id="paint19_linear_48_8232" x1="256.433" y1="90.6137" x2="272.244" y2="89.3132" gradientUnits="userSpaceOnUse">
<stop stop-color="#560BAD"/>
<stop offset="0.520833" stop-color="#B5179E"/>
<stop offset="1" stop-color="#F72585"/>
</linearGradient>
<linearGradient id="paint20_linear_48_8232" x1="183.548" y1="112.8" x2="258.725" y2="98.0626" gradientUnits="userSpaceOnUse">
<stop stop-color="#560BAD"/>
<stop offset="0.520833" stop-color="#B5179E"/>
<stop offset="1" stop-color="#F72585"/>
</linearGradient>
<linearGradient id="paint21_linear_48_8232" x1="44.2493" y1="145.655" x2="127.722" y2="126.524" gradientUnits="userSpaceOnUse">
<stop stop-color="#560BAD"/>
<stop offset="0.520833" stop-color="#B5179E"/>
<stop offset="1" stop-color="#F72585"/>
</linearGradient>
<linearGradient id="paint22_linear_48_8232" x1="49.3787" y1="82.6029" x2="128.488" y2="75.9836" gradientUnits="userSpaceOnUse">
<stop stop-color="#F7BA2C"/>
<stop offset="1" stop-color="#EA5459"/>
</linearGradient>
<linearGradient id="paint23_linear_48_8232" x1="58.5092" y1="67.2602" x2="87.1466" y2="66.1779" gradientUnits="userSpaceOnUse">
<stop stop-color="#560BAD"/>
<stop offset="0.520833" stop-color="#B5179E"/>
<stop offset="1" stop-color="#F72585"/>
</linearGradient>
</defs>
</svg>
