<svg width="266" height="180" viewBox="0 0 266 180" fill="none" xmlns="http://www.w3.org/2000/svg">
<path d="M265.501 73.9278H265.018V60.6784C265.018 59.6714 264.82 58.6742 264.436 57.7438C264.051 56.8135 263.488 55.9681 262.777 55.256C262.066 54.5439 261.223 53.9791 260.294 53.5937C259.366 53.2084 258.371 53.01 257.366 53.01H229.354C228.35 53.01 227.354 53.2084 226.426 53.5937C225.498 53.9791 224.654 54.5439 223.943 55.256C223.233 55.9681 222.669 56.8135 222.285 57.7438C221.9 58.6742 221.702 59.6714 221.702 60.6784V133.366C221.702 134.373 221.9 135.37 222.285 136.3C222.669 137.231 223.233 138.076 223.943 138.788C224.654 139.5 225.498 140.065 226.426 140.45C227.354 140.836 228.35 141.034 229.354 141.034H257.366C258.371 141.034 259.366 140.836 260.294 140.45C261.223 140.065 262.066 139.5 262.777 138.788C263.488 138.076 264.051 137.231 264.436 136.3C264.82 135.37 265.018 134.373 265.018 133.366V83.359H265.501V73.9278Z" fill="url(#paint0_linear_48_8320)"/>
<path d="M263.386 61.1295V133.711C263.386 135.23 262.784 136.687 261.712 137.761C260.64 138.835 259.186 139.439 257.671 139.439H229.524C228.774 139.438 228.031 139.29 227.338 139.002C226.644 138.714 226.015 138.293 225.484 137.761C224.954 137.229 224.533 136.597 224.246 135.903C223.959 135.208 223.811 134.463 223.812 133.711V61.1295C223.812 59.6111 224.413 58.155 225.485 57.0814C226.556 56.0077 228.009 55.4046 229.524 55.4045H232.939C232.772 55.8176 232.708 56.2656 232.754 56.7092C232.799 57.1527 232.953 57.5782 233.201 57.9483C233.449 58.3183 233.785 58.6216 234.177 58.8315C234.57 59.0413 235.008 59.1513 235.453 59.1518H251.501C251.946 59.1526 252.385 59.0435 252.778 58.834C253.172 58.6245 253.507 58.3211 253.756 57.9506C254.004 57.5802 254.158 57.1541 254.203 56.71C254.248 56.2659 254.183 55.8176 254.014 55.4045H257.671C259.186 55.4045 260.639 56.0075 261.711 57.0811C262.783 58.1547 263.386 59.6109 263.386 61.1295Z" fill="white"/>
<path d="M258.062 92.5647H225.343V101.412H258.062V92.5647Z" fill="url(#paint1_linear_48_8320)"/>
<path d="M259.357 99.8546H227.677C227.47 99.8544 227.272 99.7721 227.126 99.6257C226.98 99.4794 226.898 99.2809 226.897 99.074V91.2672C226.898 91.0603 226.98 90.8618 227.126 90.7155C227.272 90.5691 227.47 90.4868 227.677 90.4866H259.357C259.563 90.4868 259.762 90.5691 259.908 90.7155C260.054 90.8618 260.136 91.0603 260.136 91.2672V99.074C260.136 99.2809 260.054 99.4794 259.908 99.6257C259.762 99.7721 259.563 99.8544 259.357 99.8546ZM227.677 91.007C227.608 91.0071 227.542 91.0345 227.493 91.0833C227.444 91.1321 227.417 91.1982 227.417 91.2672V99.074C227.417 99.143 227.444 99.2091 227.493 99.2579C227.542 99.3067 227.608 99.3341 227.677 99.3342H259.357C259.426 99.3341 259.492 99.3067 259.541 99.2579C259.589 99.2091 259.617 99.143 259.617 99.074V91.2672C259.617 91.1982 259.589 91.1321 259.541 91.0833C259.492 91.0345 259.426 91.0071 259.357 91.007H227.677Z" fill="url(#paint2_linear_48_8320)"/>
<path d="M233.13 97.51H228.976V98.0305H233.13V97.51Z" fill="url(#paint3_linear_48_8320)"/>
<path d="M238.841 97.51H234.687V98.0305H238.841V97.51Z" fill="url(#paint4_linear_48_8320)"/>
<path d="M244.552 97.51H240.397V98.0305H244.552V97.51Z" fill="url(#paint5_linear_48_8320)"/>
<path d="M250.267 97.51H246.112V98.0305H250.267V97.51Z" fill="url(#paint6_linear_48_8320)"/>
<path d="M255.982 97.51H251.827V98.0305H255.982V97.51Z" fill="url(#paint7_linear_48_8320)"/>
<path opacity="0.1" d="M263.386 126.329V133.709C263.386 135.228 262.784 136.685 261.712 137.759C260.64 138.833 259.186 139.436 257.671 139.436H229.524C228.774 139.436 228.031 139.288 227.338 139C226.644 138.712 226.015 138.29 225.484 137.758C224.954 137.227 224.533 136.595 224.246 135.9C223.959 135.205 223.811 134.461 223.812 133.709V99.76L263.386 126.329Z" fill="url(#paint8_linear_48_8320)"/>
<path d="M149.255 119.627H26.4287V179.999H149.255V119.627Z" fill="white"/>
<path opacity="0.1" d="M118.029 179.999H26.9481C26.8105 179.999 26.6786 179.944 26.5813 179.846C26.484 179.749 26.4291 179.617 26.4287 179.479V120.148C26.4291 120.01 26.484 119.878 26.5813 119.78C26.6786 119.683 26.8105 119.628 26.9481 119.627H28.101L118.029 179.999Z" fill="url(#paint9_linear_48_8320)"/>
<path d="M252.903 127.772H83.335V128.292H252.903V127.772Z" fill="url(#paint10_linear_48_8320)"/>
<path d="M143.474 1.12578H89.0746V0.00219727H64.4078V1.12578H9.78413C9.3009 1.12578 8.8224 1.22116 8.37596 1.40647C7.92952 1.59179 7.52387 1.8634 7.18218 2.20582C6.84049 2.54823 6.56944 2.95473 6.38452 3.40212C6.19959 3.8495 6.10442 4.32901 6.10442 4.81326V79.46C6.10441 80.4379 6.4921 81.3759 7.18218 82.0674C7.87226 82.7589 8.80821 83.1474 9.78413 83.1474H143.474C144.45 83.1474 145.386 82.7589 146.076 82.0674C146.766 81.3759 147.154 80.4379 147.154 79.46V4.81326C147.154 4.32901 147.059 3.8495 146.874 3.40212C146.689 2.95473 146.418 2.54823 146.076 2.20582C145.734 1.8634 145.329 1.59179 144.882 1.40647C144.436 1.22116 143.957 1.12578 143.474 1.12578V1.12578Z" fill="url(#paint11_linear_48_8320)"/>
<path d="M142.219 7.64282H11.0381V81.8014H142.219V7.64282Z" fill="#FDFDFD"/>
<path d="M76.5164 5.62068C77.2595 5.62068 77.8619 5.01702 77.8619 4.27237C77.8619 3.52773 77.2595 2.92407 76.5164 2.92407C75.7733 2.92407 75.1709 3.52773 75.1709 4.27237C75.1709 5.01702 75.7733 5.62068 76.5164 5.62068Z" fill="url(#paint12_linear_48_8320)"/>
<path d="M50.0583 35.319H46.9421C46.7356 35.3188 46.5376 35.2365 46.3915 35.0901C46.2455 34.9438 46.1633 34.7453 46.1631 34.5384V31.4157C46.1633 31.2087 46.2455 31.0103 46.3915 30.8639C46.5376 30.7176 46.7356 30.6352 46.9421 30.635H50.0583C50.2648 30.6352 50.4628 30.7176 50.6089 30.8639C50.7549 31.0103 50.8371 31.2087 50.8373 31.4157V34.5384C50.8371 34.7453 50.7549 34.9438 50.6089 35.0901C50.4628 35.2365 50.2648 35.3188 50.0583 35.319V35.319ZM46.9421 31.1555C46.8733 31.1555 46.8073 31.183 46.7586 31.2318C46.7099 31.2806 46.6826 31.3467 46.6825 31.4157V34.5384C46.6826 34.6074 46.7099 34.6735 46.7586 34.7223C46.8073 34.7711 46.8733 34.7985 46.9421 34.7986H50.0583C50.1271 34.7985 50.1931 34.7711 50.2418 34.7223C50.2905 34.6735 50.3178 34.6074 50.3179 34.5384V31.4157C50.3178 31.3467 50.2905 31.2806 50.2418 31.2318C50.1931 31.183 50.1271 31.1555 50.0583 31.1555H46.9421Z" fill="url(#paint13_linear_48_8320)"/>
<path d="M105.627 34.7952H46.4209V35.3156H105.627V34.7952Z" fill="url(#paint14_linear_48_8320)"/>
<path d="M104.07 49.1116H90.3076V53.2752H104.07V49.1116Z" fill="url(#paint15_linear_48_8320)"/>
<path d="M105.112 52.2292H92.3875C92.1809 52.229 91.9829 52.1466 91.8368 52.0003C91.6908 51.8539 91.6087 51.6555 91.6084 51.4485V48.3258C91.6087 48.1189 91.6908 47.9204 91.8368 47.7741C91.9829 47.6277 92.1809 47.5454 92.3875 47.5452H105.112C105.318 47.5454 105.516 47.6277 105.662 47.7741C105.808 47.9204 105.89 48.1189 105.891 48.3258V51.4485C105.89 51.6555 105.808 51.8539 105.662 52.0003C105.516 52.1466 105.318 52.229 105.112 52.2292V52.2292ZM92.3875 48.0656C92.3186 48.0657 92.2526 48.0931 92.2039 48.1419C92.1553 48.1907 92.1279 48.2568 92.1278 48.3258V51.4485C92.1279 51.5175 92.1553 51.5836 92.2039 51.6324C92.2526 51.6812 92.3186 51.7087 92.3875 51.7087H105.112C105.18 51.7087 105.246 51.6812 105.295 51.6324C105.344 51.5836 105.371 51.5175 105.371 51.4485V48.3258C105.371 48.2568 105.344 48.1907 105.295 48.1419C105.246 48.0931 105.18 48.0657 105.112 48.0656H92.3875Z" fill="url(#paint16_linear_48_8320)"/>
<path d="M195.736 53.7913H169.769V72.0069H195.736V53.7913Z" fill="url(#paint17_linear_48_8320)"/>
<path d="M198.334 70.5752H173.405C173.13 70.5749 172.866 70.4651 172.671 70.27C172.476 70.0748 172.367 69.8102 172.366 69.5343V52.3595C172.367 52.0835 172.476 51.8189 172.671 51.6238C172.866 51.4287 173.13 51.3189 173.405 51.3186H198.334C198.609 51.3189 198.873 51.4286 199.068 51.6238C199.263 51.8189 199.372 52.0835 199.373 52.3595V69.5343C199.372 69.8102 199.263 70.0748 199.068 70.27C198.873 70.4651 198.609 70.5749 198.334 70.5752V70.5752ZM173.405 52.3595V69.5343H198.335L198.334 52.3595H173.405Z" fill="url(#paint18_linear_48_8320)"/>
<path d="M195.477 51.7086H194.438C194.438 49.4311 193.535 47.2468 191.928 45.6364C190.321 44.026 188.141 43.1212 185.869 43.1212C183.596 43.1212 181.416 44.026 179.809 45.6364C178.202 47.2468 177.299 49.4311 177.299 51.7086H176.261C176.261 49.155 177.273 46.706 179.075 44.9004C180.877 43.0947 183.321 42.0803 185.869 42.0803C188.417 42.0803 190.861 43.0947 192.663 44.9004C194.465 46.706 195.477 49.155 195.477 51.7086V51.7086Z" fill="url(#paint19_linear_48_8320)"/>
<path d="M188.462 58.8653C188.463 58.4122 188.345 57.9667 188.121 57.5731C187.897 57.1795 187.574 56.8513 187.185 56.621C186.795 56.3908 186.353 56.2664 185.901 56.2602C185.448 56.2541 185.003 56.3664 184.607 56.586C184.211 56.8056 183.88 57.1248 183.645 57.5122C183.411 57.8996 183.281 58.3417 183.269 58.7947C183.258 59.2477 183.364 59.6959 183.578 60.095C183.793 60.4941 184.107 60.8302 184.491 61.0701V63.8631C184.491 64.044 184.526 64.2232 184.595 64.3903C184.664 64.5575 184.766 64.7093 184.893 64.8373C185.021 64.9652 185.173 65.0667 185.339 65.1359C185.506 65.2051 185.685 65.2408 185.865 65.2408V65.2408C186.23 65.2408 186.58 65.0956 186.838 64.8373C187.095 64.5789 187.24 64.2285 187.24 63.8631V61.0701C187.614 60.8368 187.922 60.512 188.136 60.1262C188.35 59.7405 188.462 59.3065 188.462 58.8653V58.8653Z" fill="url(#paint20_linear_48_8320)"/>
<path d="M78.4937 146.432H74.3389V146.952H78.4937V146.432Z" fill="url(#paint21_linear_48_8320)"/>
<path d="M84.2048 146.432H80.05V146.952H84.2048V146.432Z" fill="url(#paint22_linear_48_8320)"/>
<path d="M89.9193 146.432H85.7645V146.952H89.9193V146.432Z" fill="url(#paint23_linear_48_8320)"/>
<path d="M95.6343 146.432H91.4795V146.952H95.6343V146.432Z" fill="url(#paint24_linear_48_8320)"/>
<path d="M101.345 146.432H97.1905V146.952H101.345V146.432Z" fill="url(#paint25_linear_48_8320)"/>
<path d="M154.709 175.575H32.9208C32.6454 175.575 32.3813 175.465 32.1866 175.27C31.9919 175.075 31.8824 174.81 31.8821 174.534V115.203C31.8824 114.927 31.9919 114.663 32.1866 114.468C32.3813 114.272 32.6454 114.163 32.9208 114.162H154.709C154.984 114.163 155.248 114.272 155.443 114.468C155.638 114.663 155.747 114.927 155.747 115.203V174.534C155.747 174.81 155.638 175.075 155.443 175.27C155.248 175.465 154.984 175.575 154.709 175.575V175.575ZM32.9208 115.203V174.534H154.709L154.709 115.203H32.9208Z" fill="url(#paint26_linear_48_8320)"/>
<path d="M38.3696 124.055C39.2301 124.055 39.9277 123.356 39.9277 122.493C39.9277 121.631 39.2301 120.932 38.3696 120.932C37.5091 120.932 36.8116 121.631 36.8116 122.493C36.8116 123.356 37.5091 124.055 38.3696 124.055Z" fill="url(#paint27_linear_48_8320)"/>
<path d="M43.8266 124.055C44.6871 124.055 45.3847 123.356 45.3847 122.493C45.3847 121.631 44.6871 120.932 43.8266 120.932C42.9662 120.932 42.2686 121.631 42.2686 122.493C42.2686 123.356 42.9662 124.055 43.8266 124.055Z" fill="url(#paint28_linear_48_8320)"/>
<path d="M49.2759 124.055C50.1363 124.055 50.8339 123.356 50.8339 122.493C50.8339 121.631 50.1363 120.932 49.2759 120.932C48.4154 120.932 47.7178 121.631 47.7178 122.493C47.7178 123.356 48.4154 124.055 49.2759 124.055Z" fill="url(#paint29_linear_48_8320)"/>
<path d="M105.369 150.075H70.3132C70.1067 150.075 69.9087 149.993 69.7626 149.846C69.6166 149.7 69.5344 149.502 69.5342 149.295V140.447C69.5344 140.24 69.6166 140.042 69.7626 139.895C69.9087 139.749 70.1067 139.666 70.3132 139.666H105.369C105.576 139.666 105.774 139.749 105.92 139.895C106.066 140.042 106.148 140.24 106.149 140.447V149.295C106.148 149.502 106.066 149.7 105.92 149.846C105.774 149.993 105.576 150.075 105.369 150.075V150.075ZM70.3132 140.187C70.2444 140.187 70.1784 140.214 70.1297 140.263C70.081 140.312 70.0536 140.378 70.0536 140.447V149.295C70.0536 149.364 70.081 149.43 70.1297 149.478C70.1784 149.527 70.2444 149.555 70.3132 149.555H105.369C105.438 149.555 105.504 149.527 105.553 149.478C105.602 149.43 105.629 149.364 105.629 149.295V140.447C105.629 140.378 105.602 140.312 105.553 140.263C105.504 140.214 105.438 140.187 105.369 140.187H70.3132Z" fill="url(#paint30_linear_48_8320)"/>
<path d="M114.197 150.335C116.778 150.335 118.871 148.238 118.871 145.651C118.871 143.064 116.778 140.967 114.197 140.967C111.615 140.967 109.522 143.064 109.522 145.651C109.522 148.238 111.615 150.335 114.197 150.335Z" fill="url(#paint31_linear_48_8320)"/>
<path d="M115.753 149.82C114.777 149.82 113.823 149.53 113.012 148.987C112.201 148.444 111.568 147.672 111.195 146.768C110.822 145.865 110.724 144.871 110.914 143.912C111.105 142.952 111.574 142.071 112.264 141.38C112.954 140.689 113.834 140.218 114.791 140.027C115.748 139.836 116.74 139.934 117.641 140.308C118.543 140.682 119.313 141.316 119.856 142.129C120.398 142.942 120.687 143.898 120.687 144.876C120.686 146.187 120.165 147.444 119.24 148.371C118.315 149.298 117.061 149.819 115.753 149.82V149.82ZM115.753 140.452C114.88 140.452 114.027 140.712 113.301 141.198C112.575 141.684 112.009 142.375 111.675 143.183C111.341 143.992 111.253 144.881 111.424 145.739C111.594 146.597 112.014 147.386 112.632 148.004C113.249 148.623 114.036 149.044 114.892 149.215C115.748 149.386 116.636 149.298 117.443 148.963C118.249 148.628 118.939 148.061 119.424 147.334C119.909 146.606 120.168 145.751 120.168 144.876C120.166 143.703 119.701 142.579 118.873 141.749C118.046 140.92 116.924 140.454 115.753 140.452V140.452Z" fill="url(#paint32_linear_48_8320)"/>
<path d="M115.825 146.72L113.312 144.2L114.046 143.464L115.687 145.108L120.265 138.588L121.115 139.187L115.825 146.72Z" fill="url(#paint33_linear_48_8320)"/>
<path opacity="0.1" d="M113.135 81.8003H11.0381V13.26L113.135 81.8003Z" fill="url(#paint34_linear_48_8320)"/>
<path d="M150.838 80.4536H138.035V79.5292C138.035 79.5052 138.03 79.4813 138.021 79.4591C138.012 79.4369 137.999 79.4167 137.982 79.3996C137.965 79.3826 137.944 79.3691 137.922 79.3599C137.9 79.3507 137.876 79.3459 137.852 79.3459H133.463C133.439 79.3459 133.415 79.3507 133.393 79.3599C133.371 79.3691 133.351 79.3826 133.334 79.3996C133.317 79.4167 133.303 79.4369 133.294 79.4591C133.285 79.4813 133.28 79.5052 133.28 79.5292V80.4536H130.537V79.5292C130.537 79.5052 130.532 79.4813 130.523 79.4591C130.513 79.4369 130.5 79.4167 130.483 79.3996C130.466 79.3826 130.446 79.3691 130.424 79.3599C130.401 79.3507 130.378 79.3459 130.354 79.3459H125.964C125.94 79.3459 125.916 79.3507 125.894 79.3599C125.872 79.3691 125.852 79.3826 125.835 79.3996C125.818 79.4167 125.804 79.4369 125.795 79.4591C125.786 79.4813 125.781 79.5052 125.781 79.5292V80.4536H123.038V79.5292C123.038 79.5052 123.033 79.4813 123.024 79.4591C123.015 79.4369 123.001 79.4167 122.984 79.3996C122.967 79.3826 122.947 79.3691 122.925 79.3599C122.903 79.3507 122.879 79.3459 122.855 79.3459H118.466C118.442 79.3459 118.418 79.3507 118.396 79.3599C118.373 79.3691 118.353 79.3826 118.336 79.3996C118.319 79.4167 118.306 79.4369 118.297 79.4591C118.287 79.4813 118.283 79.5052 118.283 79.5292V80.4536H115.539V79.5292C115.539 79.5052 115.535 79.4813 115.525 79.4591C115.516 79.4369 115.503 79.4167 115.486 79.3996C115.469 79.3826 115.449 79.3691 115.426 79.3599C115.404 79.3507 115.38 79.3459 115.356 79.3459H110.967C110.943 79.3459 110.919 79.3507 110.897 79.3599C110.875 79.3691 110.855 79.3826 110.838 79.3996C110.821 79.4167 110.807 79.4369 110.798 79.4591C110.789 79.4813 110.784 79.5052 110.784 79.5292V80.4536H108.041V79.5292C108.041 79.5052 108.036 79.4813 108.027 79.4591C108.018 79.4369 108.004 79.4167 107.987 79.3996C107.97 79.3826 107.95 79.3691 107.928 79.3599C107.906 79.3507 107.882 79.3459 107.858 79.3459H103.468C103.444 79.3459 103.42 79.3507 103.398 79.3599C103.376 79.3691 103.356 79.3826 103.339 79.3996C103.322 79.4167 103.308 79.4369 103.299 79.4591C103.29 79.4813 103.285 79.5052 103.285 79.5292V80.4536H100.542V79.5292C100.542 79.5052 100.537 79.4813 100.528 79.4591C100.519 79.4369 100.505 79.4167 100.488 79.3996C100.471 79.3826 100.451 79.3691 100.429 79.3599C100.407 79.3507 100.383 79.3459 100.359 79.3459H95.9696C95.9456 79.3459 95.9218 79.3507 95.8996 79.3599C95.8774 79.3691 95.8573 79.3826 95.8403 79.3996C95.8233 79.4167 95.8098 79.4369 95.8007 79.4591C95.7915 79.4813 95.7867 79.5052 95.7867 79.5292V80.4536H93.0433V79.5292C93.0433 79.5052 93.0386 79.4813 93.0294 79.4591C93.0202 79.4369 93.0067 79.4167 92.9898 79.3996C92.9728 79.3826 92.9526 79.3691 92.9304 79.3599C92.9082 79.3507 92.8844 79.3459 92.8604 79.3459H58.4764C58.4524 79.3459 58.4286 79.3507 58.4064 79.3599C58.3842 79.3691 58.364 79.3826 58.3471 79.3996C58.3301 79.4167 58.3166 79.4369 58.3074 79.4591C58.2982 79.4813 58.2935 79.5052 58.2935 79.5292V80.4536H55.5501V79.5292C55.5501 79.5052 55.5454 79.4813 55.5362 79.4591C55.527 79.4369 55.5135 79.4167 55.4965 79.3996C55.4795 79.3826 55.4594 79.3691 55.4372 79.3599C55.415 79.3507 55.3912 79.3459 55.3672 79.3459H50.9777C50.9537 79.3459 50.9299 79.3507 50.9078 79.3599C50.8856 79.3691 50.8654 79.3826 50.8484 79.3996C50.8314 79.4167 50.818 79.4369 50.8088 79.4591C50.7996 79.4813 50.7949 79.5052 50.7949 79.5292V80.4536H48.0514V79.5292C48.0514 79.5052 48.0467 79.4813 48.0375 79.4591C48.0283 79.4369 48.0149 79.4167 47.9979 79.3996C47.9809 79.3826 47.9607 79.3691 47.9385 79.3599C47.9164 79.3507 47.8926 79.3459 47.8686 79.3459H43.4791C43.4551 79.3459 43.4313 79.3507 43.4091 79.3599C43.3869 79.3691 43.3668 79.3826 43.3498 79.3996C43.3328 79.4167 43.3193 79.4369 43.3101 79.4591C43.3009 79.4813 43.2962 79.5052 43.2962 79.5292V80.4536H40.5528V79.5292C40.5528 79.5052 40.5481 79.4813 40.5389 79.4591C40.5297 79.4369 40.5162 79.4167 40.4992 79.3996C40.4822 79.3826 40.4621 79.3691 40.4399 79.3599C40.4177 79.3507 40.3939 79.3459 40.3699 79.3459H35.9805C35.9564 79.3459 35.9327 79.3507 35.9105 79.3599C35.8883 79.3691 35.8681 79.3826 35.8511 79.3996C35.8342 79.4167 35.8207 79.4369 35.8115 79.4591C35.8023 79.4813 35.7976 79.5052 35.7976 79.5292V80.4536H33.0542V79.5292C33.0542 79.5052 33.0494 79.4813 33.0402 79.4591C33.031 79.4369 33.0176 79.4167 33.0006 79.3996C32.9836 79.3826 32.9634 79.3691 32.9412 79.3599C32.9191 79.3507 32.8953 79.3459 32.8713 79.3459H28.4818C28.4578 79.3459 28.434 79.3507 28.4118 79.3599C28.3896 79.3691 28.3695 79.3826 28.3525 79.3996C28.3355 79.4167 28.322 79.4369 28.3128 79.4591C28.3036 79.4813 28.2989 79.5052 28.2989 79.5292V80.4536H25.5555V79.5292C25.5555 79.5052 25.5508 79.4813 25.5416 79.4591C25.5324 79.4369 25.5189 79.4167 25.5019 79.3996C25.485 79.3826 25.4648 79.3691 25.4426 79.3599C25.4204 79.3507 25.3966 79.3459 25.3726 79.3459H20.9832C20.9591 79.3459 20.9354 79.3507 20.9132 79.3599C20.891 79.3691 20.8708 79.3826 20.8538 79.3996C20.8369 79.4167 20.8234 79.4369 20.8142 79.4591C20.805 79.4813 20.8003 79.5052 20.8003 79.5292V80.4536H18.0569V79.5292C18.0569 79.5052 18.0521 79.4813 18.0429 79.4591C18.0337 79.4369 18.0203 79.4167 18.0033 79.3996C17.9863 79.3826 17.9661 79.3691 17.944 79.3599C17.9218 79.3507 17.898 79.3459 17.874 79.3459H13.4845C13.4605 79.3459 13.4367 79.3507 13.4145 79.3599C13.3923 79.3691 13.3722 79.3826 13.3552 79.3996C13.3382 79.4167 13.3247 79.4369 13.3155 79.4591C13.3064 79.4813 13.3016 79.5052 13.3016 79.5292V80.4536H4.8885C4.31207 80.4536 3.74129 80.5674 3.20873 80.7884C2.67618 81.0095 2.19229 81.3335 1.78469 81.7419C1.37709 82.1504 1.05377 82.6353 0.83318 83.169C0.61259 83.7027 0.499054 84.2747 0.499054 84.8523V86.8413C0.499057 88.0079 0.961517 89.1267 1.7847 89.9517C2.60788 90.7766 3.72435 91.24 4.8885 91.24H150.838C151.414 91.24 151.985 91.1262 152.518 90.9052C153.05 90.6841 153.534 90.3601 153.942 89.9517C154.349 89.5432 154.672 89.0583 154.893 88.5246C155.114 87.9909 155.227 87.4189 155.227 86.8413V84.8523C155.227 84.2747 155.114 83.7027 154.893 83.169C154.672 82.6353 154.349 82.1504 153.942 81.7419C153.534 81.3335 153.05 81.0095 152.518 80.7884C151.985 80.5674 151.414 80.4536 150.838 80.4536V80.4536Z" fill="url(#paint35_linear_48_8320)"/>
<path d="M110.825 56.6569H42.2703C42.0637 56.6567 41.8657 56.5744 41.7197 56.428C41.5736 56.2816 41.4915 56.0832 41.4912 55.8762V27.2516C41.4915 27.0446 41.5736 26.8462 41.7197 26.6999C41.8657 26.5535 42.0637 26.4712 42.2703 26.4709H110.825C111.031 26.4712 111.229 26.5535 111.375 26.6999C111.521 26.8462 111.603 27.0446 111.604 27.2516V55.8762C111.603 56.0832 111.521 56.2816 111.375 56.428C111.229 56.5744 111.031 56.6567 110.825 56.6569V56.6569ZM42.2703 26.9914C42.2014 26.9915 42.1354 27.0189 42.0867 27.0677C42.0381 27.1165 42.0107 27.1826 42.0106 27.2516V55.8762C42.0107 55.9452 42.0381 56.0114 42.0867 56.0601C42.1354 56.1089 42.2014 56.1364 42.2703 56.1365H110.825C110.894 56.1364 110.96 56.1089 111.008 56.0601C111.057 56.0114 111.084 55.9452 111.084 55.8762V27.2516C111.084 27.1826 111.057 27.1165 111.008 27.0677C110.96 27.0189 110.894 26.9915 110.825 26.9914H42.2703Z" fill="url(#paint36_linear_48_8320)"/>
<path d="M50.0583 43.1237H46.9421C46.7356 43.1235 46.5376 43.0412 46.3915 42.8948C46.2455 42.7485 46.1633 42.55 46.1631 42.3431V39.2204C46.1633 39.0134 46.2455 38.815 46.3915 38.6686C46.5376 38.5222 46.7356 38.4399 46.9421 38.4397H50.0583C50.2648 38.4399 50.4628 38.5222 50.6089 38.6686C50.7549 38.815 50.8371 39.0134 50.8373 39.2204V42.3431C50.8371 42.55 50.7549 42.7485 50.6089 42.8948C50.4628 43.0412 50.2648 43.1235 50.0583 43.1237V43.1237ZM46.9421 38.9601C46.8733 38.9602 46.8073 38.9877 46.7586 39.0365C46.7099 39.0852 46.6826 39.1514 46.6825 39.2204V42.3431C46.6826 42.412 46.7099 42.4782 46.7586 42.527C46.8073 42.5757 46.8733 42.6032 46.9421 42.6033H50.0583C50.1271 42.6032 50.1931 42.5757 50.2418 42.527C50.2905 42.4782 50.3178 42.412 50.3179 42.3431V39.2204C50.3178 39.1514 50.2905 39.0852 50.2418 39.0365C50.1931 38.9877 50.1271 38.9602 50.0583 38.9601H46.9421Z" fill="url(#paint37_linear_48_8320)"/>
<path d="M105.627 42.5999H46.4209V43.1203H105.627V42.5999Z" fill="url(#paint38_linear_48_8320)"/>
<path d="M239.663 70.26H69.3155V70.7805H239.663V70.26Z" fill="url(#paint39_linear_48_8320)"/>
<path d="M69.2751 73.8314C71.2829 73.8314 72.9106 72.2003 72.9106 70.1883C72.9106 68.1763 71.2829 66.5452 69.2751 66.5452C67.2673 66.5452 65.6397 68.1763 65.6397 70.1883C65.6397 72.2003 67.2673 73.8314 69.2751 73.8314Z" fill="url(#paint40_linear_48_8320)"/>
<path d="M238.844 73.5709C240.421 73.5709 241.7 72.2893 241.7 70.7084C241.7 69.1275 240.421 67.8459 238.844 67.8459C237.266 67.8459 235.987 69.1275 235.987 70.7084C235.987 72.2893 237.266 73.5709 238.844 73.5709Z" fill="url(#paint41_linear_48_8320)"/>
<path d="M252.863 131.079C254.441 131.079 255.72 129.797 255.72 128.216C255.72 126.635 254.441 125.354 252.863 125.354C251.286 125.354 250.007 126.635 250.007 128.216C250.007 129.797 251.286 131.079 252.863 131.079Z" fill="url(#paint42_linear_48_8320)"/>
<path d="M84.0742 131.079C85.6518 131.079 86.9307 129.797 86.9307 128.216C86.9307 126.635 85.6518 125.354 84.0742 125.354C82.4967 125.354 81.2178 126.635 81.2178 128.216C81.2178 129.797 82.4967 131.079 84.0742 131.079Z" fill="url(#paint43_linear_48_8320)"/>
<defs>
<linearGradient id="paint0_linear_48_8320" x1="222.682" y1="141.034" x2="269.054" y2="138.983" gradientUnits="userSpaceOnUse">
<stop stop-color="#F7BA2C"/>
<stop offset="1" stop-color="#EA5459"/>
</linearGradient>
<linearGradient id="paint1_linear_48_8320" x1="226.197" y1="100.749" x2="257.49" y2="91.2491" gradientUnits="userSpaceOnUse">
<stop stop-color="#560BAD"/>
<stop offset="0.520833" stop-color="#B5179E"/>
<stop offset="1" stop-color="#F72585"/>
</linearGradient>
<linearGradient id="paint2_linear_48_8320" x1="227.641" y1="99.8546" x2="259.711" y2="89.7393" gradientUnits="userSpaceOnUse">
<stop stop-color="#F7BA2C"/>
<stop offset="1" stop-color="#EA5459"/>
</linearGradient>
<linearGradient id="paint3_linear_48_8320" x1="229.069" y1="98.0305" x2="232" y2="95.9502" gradientUnits="userSpaceOnUse">
<stop stop-color="#F7BA2C"/>
<stop offset="1" stop-color="#EA5459"/>
</linearGradient>
<linearGradient id="paint4_linear_48_8320" x1="234.779" y1="98.0305" x2="237.711" y2="95.9502" gradientUnits="userSpaceOnUse">
<stop stop-color="#F7BA2C"/>
<stop offset="1" stop-color="#EA5459"/>
</linearGradient>
<linearGradient id="paint5_linear_48_8320" x1="240.49" y1="98.0305" x2="243.422" y2="95.9502" gradientUnits="userSpaceOnUse">
<stop stop-color="#F7BA2C"/>
<stop offset="1" stop-color="#EA5459"/>
</linearGradient>
<linearGradient id="paint6_linear_48_8320" x1="246.205" y1="98.0305" x2="249.136" y2="95.9502" gradientUnits="userSpaceOnUse">
<stop stop-color="#F7BA2C"/>
<stop offset="1" stop-color="#EA5459"/>
</linearGradient>
<linearGradient id="paint7_linear_48_8320" x1="251.92" y1="98.0305" x2="254.851" y2="95.9502" gradientUnits="userSpaceOnUse">
<stop stop-color="#F7BA2C"/>
<stop offset="1" stop-color="#EA5459"/>
</linearGradient>
<linearGradient id="paint8_linear_48_8320" x1="224.844" y1="136.464" x2="265.908" y2="133.101" gradientUnits="userSpaceOnUse">
<stop stop-color="#560BAD"/>
<stop offset="0.520833" stop-color="#B5179E"/>
<stop offset="1" stop-color="#F72585"/>
</linearGradient>
<linearGradient id="paint9_linear_48_8320" x1="28.819" y1="175.476" x2="123.041" y2="163.74" gradientUnits="userSpaceOnUse">
<stop stop-color="#560BAD"/>
<stop offset="0.520833" stop-color="#B5179E"/>
<stop offset="1" stop-color="#F72585"/>
</linearGradient>
<linearGradient id="paint10_linear_48_8320" x1="87.7599" y1="128.253" x2="88.0071" y2="121.64" gradientUnits="userSpaceOnUse">
<stop stop-color="#560BAD"/>
<stop offset="0.520833" stop-color="#B5179E"/>
<stop offset="1" stop-color="#F72585"/>
</linearGradient>
<linearGradient id="paint11_linear_48_8320" x1="9.25929" y1="83.1474" x2="155.56" y2="61.084" gradientUnits="userSpaceOnUse">
<stop stop-color="#F7BA2C"/>
<stop offset="1" stop-color="#EA5459"/>
</linearGradient>
<linearGradient id="paint12_linear_48_8320" x1="75.2411" y1="5.41864" x2="78.0333" y2="5.1899" gradientUnits="userSpaceOnUse">
<stop stop-color="#560BAD"/>
<stop offset="0.520833" stop-color="#B5179E"/>
<stop offset="1" stop-color="#F72585"/>
</linearGradient>
<linearGradient id="paint13_linear_48_8320" x1="46.2677" y1="35.319" x2="51.1874" y2="34.8826" gradientUnits="userSpaceOnUse">
<stop stop-color="#F7BA2C"/>
<stop offset="1" stop-color="#EA5459"/>
</linearGradient>
<linearGradient id="paint14_linear_48_8320" x1="47.7452" y1="35.3156" x2="48.3534" y2="29.1653" gradientUnits="userSpaceOnUse">
<stop stop-color="#F7BA2C"/>
<stop offset="1" stop-color="#EA5459"/>
</linearGradient>
<linearGradient id="paint15_linear_48_8320" x1="90.6668" y1="52.9632" x2="104.057" y2="49.3296" gradientUnits="userSpaceOnUse">
<stop stop-color="#560BAD"/>
<stop offset="0.520833" stop-color="#B5179E"/>
<stop offset="1" stop-color="#F72585"/>
</linearGradient>
<linearGradient id="paint16_linear_48_8320" x1="91.9279" y1="52.2292" x2="106.042" y2="48.4035" gradientUnits="userSpaceOnUse">
<stop stop-color="#F7BA2C"/>
<stop offset="1" stop-color="#EA5459"/>
</linearGradient>
<linearGradient id="paint17_linear_48_8320" x1="170.446" y1="70.6421" x2="197.205" y2="67.5106" gradientUnits="userSpaceOnUse">
<stop stop-color="#560BAD"/>
<stop offset="0.520833" stop-color="#B5179E"/>
<stop offset="1" stop-color="#F72585"/>
</linearGradient>
<linearGradient id="paint18_linear_48_8320" x1="173.071" y1="69.1324" x2="200.912" y2="65.927" gradientUnits="userSpaceOnUse">
<stop stop-color="#560BAD"/>
<stop offset="0.520833" stop-color="#B5179E"/>
<stop offset="1" stop-color="#F72585"/>
</linearGradient>
<linearGradient id="paint19_linear_48_8320" x1="176.762" y1="50.9872" x2="196.31" y2="47.7845" gradientUnits="userSpaceOnUse">
<stop stop-color="#560BAD"/>
<stop offset="0.520833" stop-color="#B5179E"/>
<stop offset="1" stop-color="#F72585"/>
</linearGradient>
<linearGradient id="paint20_linear_48_8320" x1="183.385" y1="65.2408" x2="188.88" y2="64.9583" gradientUnits="userSpaceOnUse">
<stop stop-color="#F7BA2C"/>
<stop offset="1" stop-color="#EA5459"/>
</linearGradient>
<linearGradient id="paint21_linear_48_8320" x1="74.4318" y1="146.952" x2="77.363" y2="144.872" gradientUnits="userSpaceOnUse">
<stop stop-color="#F7BA2C"/>
<stop offset="1" stop-color="#EA5459"/>
</linearGradient>
<linearGradient id="paint22_linear_48_8320" x1="80.1429" y1="146.952" x2="83.0741" y2="144.872" gradientUnits="userSpaceOnUse">
<stop stop-color="#F7BA2C"/>
<stop offset="1" stop-color="#EA5459"/>
</linearGradient>
<linearGradient id="paint23_linear_48_8320" x1="85.8574" y1="146.952" x2="88.7886" y2="144.872" gradientUnits="userSpaceOnUse">
<stop stop-color="#F7BA2C"/>
<stop offset="1" stop-color="#EA5459"/>
</linearGradient>
<linearGradient id="paint24_linear_48_8320" x1="91.5725" y1="146.952" x2="94.5036" y2="144.872" gradientUnits="userSpaceOnUse">
<stop stop-color="#F7BA2C"/>
<stop offset="1" stop-color="#EA5459"/>
</linearGradient>
<linearGradient id="paint25_linear_48_8320" x1="97.2834" y1="146.952" x2="100.215" y2="144.872" gradientUnits="userSpaceOnUse">
<stop stop-color="#F7BA2C"/>
<stop offset="1" stop-color="#EA5459"/>
</linearGradient>
<linearGradient id="paint26_linear_48_8320" x1="34.6526" y1="175.575" x2="161.959" y2="152.749" gradientUnits="userSpaceOnUse">
<stop stop-color="#F7BA2C"/>
<stop offset="1" stop-color="#EA5459"/>
</linearGradient>
<linearGradient id="paint27_linear_48_8320" x1="36.8813" y1="124.055" x2="40.1611" y2="123.764" gradientUnits="userSpaceOnUse">
<stop stop-color="#F7BA2C"/>
<stop offset="1" stop-color="#EA5459"/>
</linearGradient>
<linearGradient id="paint28_linear_48_8320" x1="42.3383" y1="124.055" x2="45.6181" y2="123.764" gradientUnits="userSpaceOnUse">
<stop stop-color="#F7BA2C"/>
<stop offset="1" stop-color="#EA5459"/>
</linearGradient>
<linearGradient id="paint29_linear_48_8320" x1="47.7875" y1="124.055" x2="51.0673" y2="123.764" gradientUnits="userSpaceOnUse">
<stop stop-color="#F7BA2C"/>
<stop offset="1" stop-color="#EA5459"/>
</linearGradient>
<linearGradient id="paint30_linear_48_8320" x1="70.3532" y1="150.075" x2="105.735" y2="139.011" gradientUnits="userSpaceOnUse">
<stop stop-color="#F7BA2C"/>
<stop offset="1" stop-color="#EA5459"/>
</linearGradient>
<linearGradient id="paint31_linear_48_8320" x1="109.766" y1="149.633" x2="119.466" y2="148.839" gradientUnits="userSpaceOnUse">
<stop stop-color="#560BAD"/>
<stop offset="0.520833" stop-color="#B5179E"/>
<stop offset="1" stop-color="#F72585"/>
</linearGradient>
<linearGradient id="paint32_linear_48_8320" x1="111.04" y1="149.82" x2="121.426" y2="148.899" gradientUnits="userSpaceOnUse">
<stop stop-color="#F7BA2C"/>
<stop offset="1" stop-color="#EA5459"/>
</linearGradient>
<linearGradient id="paint33_linear_48_8320" x1="113.486" y1="146.72" x2="121.704" y2="146.019" gradientUnits="userSpaceOnUse">
<stop stop-color="#F7BA2C"/>
<stop offset="1" stop-color="#EA5459"/>
</linearGradient>
<linearGradient id="paint34_linear_48_8320" x1="13.7023" y1="76.6651" x2="118.779" y2="63.8157" gradientUnits="userSpaceOnUse">
<stop stop-color="#560BAD"/>
<stop offset="0.520833" stop-color="#B5179E"/>
<stop offset="1" stop-color="#F72585"/>
</linearGradient>
<linearGradient id="paint35_linear_48_8320" x1="3.95989" y1="91.24" x2="74.1823" y2="10.0301" gradientUnits="userSpaceOnUse">
<stop stop-color="#F7BA2C"/>
<stop offset="1" stop-color="#EA5459"/>
</linearGradient>
<linearGradient id="paint36_linear_48_8320" x1="43.0595" y1="56.6569" x2="114.395" y2="41.9273" gradientUnits="userSpaceOnUse">
<stop stop-color="#F7BA2C"/>
<stop offset="1" stop-color="#EA5459"/>
</linearGradient>
<linearGradient id="paint37_linear_48_8320" x1="46.2677" y1="43.1237" x2="51.1874" y2="42.6873" gradientUnits="userSpaceOnUse">
<stop stop-color="#F7BA2C"/>
<stop offset="1" stop-color="#EA5459"/>
</linearGradient>
<linearGradient id="paint38_linear_48_8320" x1="47.7452" y1="43.1203" x2="48.3534" y2="36.97" gradientUnits="userSpaceOnUse">
<stop stop-color="#F7BA2C"/>
<stop offset="1" stop-color="#EA5459"/>
</linearGradient>
<linearGradient id="paint39_linear_48_8320" x1="73.7607" y1="70.7415" x2="74.0068" y2="64.1284" gradientUnits="userSpaceOnUse">
<stop stop-color="#560BAD"/>
<stop offset="0.520833" stop-color="#B5179E"/>
<stop offset="1" stop-color="#F72585"/>
</linearGradient>
<linearGradient id="paint40_linear_48_8320" x1="65.8294" y1="73.2855" x2="73.3738" y2="72.6675" gradientUnits="userSpaceOnUse">
<stop stop-color="#560BAD"/>
<stop offset="0.520833" stop-color="#B5179E"/>
<stop offset="1" stop-color="#F72585"/>
</linearGradient>
<linearGradient id="paint41_linear_48_8320" x1="236.136" y1="73.1419" x2="242.064" y2="72.6563" gradientUnits="userSpaceOnUse">
<stop stop-color="#560BAD"/>
<stop offset="0.520833" stop-color="#B5179E"/>
<stop offset="1" stop-color="#F72585"/>
</linearGradient>
<linearGradient id="paint42_linear_48_8320" x1="250.156" y1="130.65" x2="256.084" y2="130.164" gradientUnits="userSpaceOnUse">
<stop stop-color="#560BAD"/>
<stop offset="0.520833" stop-color="#B5179E"/>
<stop offset="1" stop-color="#F72585"/>
</linearGradient>
<linearGradient id="paint43_linear_48_8320" x1="81.3669" y1="130.65" x2="87.2946" y2="130.164" gradientUnits="userSpaceOnUse">
<stop stop-color="#560BAD"/>
<stop offset="0.520833" stop-color="#B5179E"/>
<stop offset="1" stop-color="#F72585"/>
</linearGradient>
</defs>
</svg>
