<svg width="296" height="180" viewBox="0 0 296 180" fill="none" xmlns="http://www.w3.org/2000/svg">
<path d="M60.7495 169.328C60.749 170.601 61.0024 171.862 61.4948 173.037C61.9873 174.212 62.7091 175.278 63.6182 176.173H59.3561C58.0987 176.173 56.8535 175.926 55.6918 175.446C54.53 174.967 53.4744 174.264 52.5853 173.377C51.6961 172.491 50.9908 171.439 50.5096 170.281C50.0284 169.123 49.7807 167.882 49.7807 166.628V11.8891C49.7807 10.6357 50.0284 9.39457 50.5096 8.23656C50.9908 7.07855 51.6961 6.02635 52.5853 5.14005C53.4744 4.25374 54.53 3.55069 55.6918 3.07102C56.8535 2.59136 58.0987 2.34448 59.3561 2.34448H65.5583C64.0956 3.19247 62.8817 4.40817 62.0378 5.87015C61.194 7.33214 60.7498 8.98924 60.7495 10.6759L60.7495 169.328Z" fill="#CACACA"/>
<path d="M59.7145 47.5579C56.4538 46.6476 53.181 45.8042 49.8962 45.0276C38.6632 42.3548 27.2753 40.3762 15.7975 39.103C13.852 38.5923 11.7829 38.8684 10.0406 39.8711C8.29832 40.8738 7.02394 42.5219 6.49491 44.4567L0.762867 65.5424C0.236585 67.486 0.50548 69.5584 1.51053 71.3046C2.51559 73.0507 4.17467 74.3281 6.12359 74.8561L6.20093 74.8716C13.7854 75.7304 21.4419 76.9236 29.0571 78.4459C29.7383 78.5796 30.4143 78.7184 31.0952 78.8624C33.5356 79.3665 35.9691 79.9047 38.3958 80.4773C39.4586 80.7242 40.5162 80.9813 41.5791 81.2436C44.4374 81.9533 47.2976 82.7093 50.1594 83.5116C53.3428 84.4064 56.5278 85.3613 59.7145 86.3762C60.0604 86.479 60.406 86.587 60.7464 86.7001V47.851C60.406 47.7482 60.0604 47.6504 59.7145 47.5579Z" fill="white"/>
<path d="M59.7145 47.5579C56.4538 46.6476 53.181 45.8042 49.8962 45.0276C38.6632 42.3548 27.2753 40.3762 15.7975 39.103C13.852 38.5923 11.7829 38.8684 10.0406 39.8711C8.29832 40.8738 7.02394 42.5219 6.49491 44.4567L0.762867 65.5424C0.236585 67.486 0.50548 69.5584 1.51053 71.3046C2.51559 73.0507 4.17467 74.3281 6.12359 74.8561L6.20093 74.8716C13.7854 75.7304 21.4419 76.9236 29.0571 78.4459C29.7383 78.5796 30.4143 78.7184 31.0952 78.8624C33.5356 79.3665 35.9691 79.9047 38.3958 80.4773C39.4586 80.7242 40.5162 80.9813 41.5791 81.2436C44.4374 81.9533 47.2976 82.7093 50.1594 83.5116C53.3428 84.4064 56.5278 85.3613 59.7145 86.3762C60.0604 86.479 60.406 86.587 60.7464 86.7001V85.615C60.4007 85.507 60.0551 85.399 59.7145 85.291C56.7841 84.3601 53.857 83.4841 50.9333 82.663C49.8395 82.3493 48.7456 82.0458 47.6518 81.7527C45.681 81.223 43.7153 80.7155 41.7547 80.2304C40.7125 79.9681 39.6719 79.7161 38.6331 79.4744C38.5557 79.4538 38.4731 79.4384 38.3957 79.4178C36.626 79.0013 34.8528 78.6036 33.0763 78.2247C32.3954 78.0807 31.7144 77.9367 31.0332 77.7978C22.8194 76.1007 14.5436 74.779 6.35557 73.8533C4.68081 73.3884 3.25809 72.2828 2.39714 70.7773C1.53619 69.2718 1.30672 67.4883 1.75868 65.815L7.49074 44.7241C7.94923 43.046 9.05695 41.6178 10.5708 40.7529C12.0846 39.888 13.8808 39.6571 15.5652 40.111L15.6426 40.1213C26.9747 41.3755 38.2192 43.3197 49.3132 45.943C49.4265 45.9738 49.5401 45.9996 49.6535 46.0253C53.0177 46.8276 56.3714 47.695 59.7144 48.6276C60.055 48.7201 60.4007 48.8178 60.7463 48.9207V47.851C60.406 47.7482 60.0604 47.6504 59.7145 47.5579Z" fill="url(#paint0_linear_48_8275)"/>
<path d="M60.7471 48.3875V86.1566C60.4014 86.0435 60.0611 85.9355 59.7152 85.8275C56.6661 84.8555 53.6066 83.9401 50.5368 83.0812C47.5905 82.2481 44.6342 81.4647 41.6677 80.731C40.6152 80.4738 39.5677 80.2218 38.5151 79.975C38.4738 79.7898 38.4325 79.6047 38.3965 79.4195C38.2055 78.535 38.0561 77.6401 37.9425 76.7401C37.8908 76.3955 37.8548 76.051 37.8185 75.7012C37.2756 70.1914 38.0323 64.6314 40.0282 59.4649C42.0241 54.2984 45.2039 49.6685 49.3139 45.9447C49.4635 45.8007 49.6182 45.6618 49.7732 45.5281C53.1061 46.3201 56.4201 47.1772 59.7152 48.0995C60.0611 48.187 60.4067 48.2847 60.7471 48.3875Z" fill="url(#paint1_linear_48_8275)"/>
<path d="M26.481 63.8509L12.1326 62.1641C11.6278 62.1047 11.1162 62.1449 10.6271 62.2826C10.1379 62.4202 9.68073 62.6525 9.28165 62.9663C8.88256 63.2801 8.54938 63.6691 8.30114 64.1112C8.05289 64.5533 7.89444 65.0398 7.83482 65.543C7.77521 66.0461 7.81559 66.5561 7.95368 67.0437C8.09177 67.5312 8.32486 67.987 8.63963 68.3848C8.9544 68.7826 9.3447 69.1147 9.78824 69.3621C10.2318 69.6096 10.7199 69.7675 11.2246 69.8269L25.5728 71.5138C26.5909 71.6312 27.6142 71.3413 28.4181 70.7076C29.2221 70.074 29.7411 69.1484 29.8613 68.1339C29.9816 67.1193 29.6932 66.0987 29.0595 65.2958C28.4258 64.4929 27.4985 63.9733 26.481 63.8509V63.8509ZM28.8441 68.0167C28.7542 68.761 28.3718 69.4394 27.7808 69.9032C27.1898 70.3669 26.4384 70.5781 25.6915 70.4904L11.343 68.8035C10.598 68.7131 9.91918 68.332 9.45541 67.7438C8.99164 67.1555 8.78067 66.408 8.86872 65.665C8.95678 64.922 9.33668 64.244 9.92521 63.7797C10.5137 63.3153 11.2629 63.1024 12.0086 63.1875L26.357 64.8744C27.1039 64.9645 27.7846 65.3455 28.2506 65.9343C28.7166 66.523 28.93 67.2717 28.8441 68.0167L28.8441 68.0167Z" fill="url(#paint2_linear_48_8275)"/>
<path d="M60.7486 57.236V75.1485C60.4171 75.3468 60.0724 75.5221 59.7167 75.6731C57.8649 76.4972 55.8117 76.764 53.8098 76.4405C51.8079 76.1171 49.9445 75.2175 48.4486 73.8525C48.3042 73.724 48.1596 73.5851 48.0203 73.4411C47.881 73.3022 47.747 73.1531 47.618 73.004C46.0605 71.2207 45.1603 68.961 45.0662 66.5985C44.9722 64.2361 45.69 61.9123 47.1009 60.0118C48.5119 58.1112 50.5313 56.7476 52.8254 56.1465C55.1194 55.5454 57.5506 55.7429 59.7167 56.7062C60.07 56.8642 60.4144 57.041 60.7486 57.236V57.236Z" fill="white"/>
<path d="M59.7125 70.2037C55.6522 71.0472 51.6193 71.9815 47.6138 73.0066C46.1176 73.3872 44.6265 73.7815 43.1406 74.1895C41.3657 74.678 39.5908 75.1838 37.8159 75.7066C35.5511 76.3752 33.2895 77.0746 31.0313 77.8049C30.376 78.0209 29.7157 78.2369 29.0551 78.4529C22.7762 80.5409 16.5385 82.8552 10.4038 85.3803C8.45163 85.8667 6.77124 87.1021 5.72857 88.8176C4.68589 90.5331 4.36537 92.5898 4.8368 94.5397L10.0119 115.769C10.4908 117.725 11.7283 119.411 13.4528 120.458C15.1774 121.505 17.2482 121.827 19.2109 121.355L19.2832 121.329C29.3714 117.204 39.6965 113.68 50.2038 110.776C53.3408 109.907 56.5104 109.087 59.7125 108.317C60.0584 108.235 60.3987 108.153 60.7444 108.076V69.9929C60.3987 70.0546 60.0584 70.1266 59.7125 70.2037Z" fill="white"/>
<path d="M59.7125 70.2037C55.6522 71.0472 51.6193 71.9815 47.6138 73.0066C46.1176 73.3872 44.6265 73.7815 43.1406 74.1895C41.3657 74.678 39.5908 75.1838 37.8159 75.7066C35.5511 76.3752 33.2895 77.0746 31.0313 77.8049C30.376 78.0209 29.7157 78.2369 29.0551 78.4529C22.7762 80.5409 16.5385 82.8552 10.4038 85.3803C8.45163 85.8667 6.77124 87.1021 5.72857 88.8176C4.68589 90.5331 4.36537 92.5898 4.8368 94.5397L10.0119 115.769C10.4908 117.725 11.7283 119.411 13.4528 120.458C15.1774 121.505 17.2482 121.827 19.2109 121.355L19.2832 121.329C29.3714 117.204 39.6965 113.68 50.2038 110.776C53.3408 109.907 56.5104 109.087 59.7125 108.317C60.0584 108.235 60.3987 108.153 60.7444 108.076V107.016C60.3987 107.099 60.0584 107.181 59.7125 107.263C59.4545 107.325 59.1915 107.387 58.9335 107.448C55.8999 108.184 52.8987 108.962 49.9302 109.783C49.8529 109.804 49.7705 109.829 49.6929 109.85C39.2386 112.748 28.9655 116.26 18.9272 120.367C17.2345 120.763 15.4535 120.476 13.9714 119.57C12.4894 118.664 11.4261 117.211 11.0127 115.528L5.84298 94.298C5.43269 92.6075 5.71177 90.8239 6.619 89.3382C7.52623 87.8525 8.98755 86.7861 10.6825 86.3729L10.7598 86.3472C17.4414 83.5906 24.2414 81.0912 31.0932 78.8695C31.7535 78.6535 32.4141 78.4426 33.0744 78.2318C34.6945 77.7226 36.3163 77.2272 37.9398 76.7455C39.6526 76.2363 41.3638 75.7461 43.0733 75.2746C43.1869 75.2438 43.3005 75.2129 43.4139 75.1821C45.0857 74.7243 46.7625 74.2821 48.4444 73.8552C52.1746 72.9089 55.9307 72.0398 59.7125 71.2478C60.0531 71.1758 60.3987 71.1038 60.7444 71.0369V69.9929C60.3987 70.0546 60.0584 70.1266 59.7125 70.2037Z" fill="url(#paint3_linear_48_8275)"/>
<path d="M60.7462 70.5085V107.542C60.4059 107.619 60.0602 107.697 59.7143 107.779C56.4847 108.561 53.2687 109.394 50.0663 110.278C49.9374 110.134 49.8135 109.99 49.6948 109.846C46.3516 105.945 43.8952 101.369 42.4943 96.4326C41.0934 91.4958 40.7811 86.3153 41.579 81.2468C41.6049 81.0771 41.6359 80.9023 41.6669 80.7325C41.6926 80.568 41.7236 80.3983 41.7545 80.2337C42.0731 78.5496 42.5144 76.8909 43.0751 75.2708C43.1424 75.0754 43.2094 74.88 43.2817 74.6845C44.8552 74.2526 46.434 73.8377 48.0179 73.44C51.8928 72.4423 55.7916 71.5354 59.7143 70.7194C60.0549 70.6423 60.4006 70.5754 60.7462 70.5085Z" fill="url(#paint4_linear_48_8275)"/>
<path d="M36.7719 104.063C36.3851 103.115 35.6371 102.36 34.6921 101.962C33.7471 101.564 32.6823 101.555 31.7311 101.939L18.3423 107.349C17.3928 107.735 16.6357 108.48 16.2373 109.422C15.8388 110.364 15.8315 111.424 16.217 112.371C16.6025 113.318 17.3493 114.074 18.2933 114.473C19.2374 114.871 20.3016 114.88 21.2523 114.498L34.6411 109.087C35.5906 108.701 36.3478 107.955 36.7471 107.013C37.1464 106.072 37.1554 105.011 36.7719 104.063V104.063ZM34.2542 108.131L20.8653 113.546C20.1677 113.827 19.3866 113.821 18.6937 113.528C18.0008 113.236 17.4526 112.681 17.1696 111.986C16.8866 111.291 16.8919 110.513 17.1843 109.822C17.4767 109.131 18.0324 108.583 18.7292 108.3L32.1181 102.89C32.8153 102.608 33.5964 102.613 34.2897 102.905C34.983 103.197 35.5316 103.751 35.8149 104.446C36.0981 105.141 36.0928 105.919 35.8001 106.61C35.5074 107.301 34.9513 107.848 34.2542 108.131V108.131Z" fill="url(#paint5_linear_48_8275)"/>
<path d="M60.7467 79.9669V100.132C60.4065 100.218 60.0621 100.287 59.7148 100.338C57.6434 100.627 55.5326 100.289 53.6567 99.3665C51.7808 98.4443 50.2266 96.9809 49.1961 95.1666C48.1656 93.3523 47.7064 91.271 47.8783 89.1931C48.0501 87.1153 48.8451 85.137 50.1598 83.5154C50.2784 83.3663 50.4021 83.2223 50.5364 83.0834C50.6601 82.9394 50.7944 82.8006 50.9337 82.6669C52.0745 81.5421 53.4605 80.6952 54.9836 80.1921C56.5068 79.689 58.1259 79.5432 59.7148 79.7663C60.0624 79.8128 60.407 79.8798 60.7467 79.9669V79.9669Z" fill="white"/>
<path d="M59.7143 44.8825V96.2133C60.0602 96.1002 60.4058 95.9922 60.7462 95.8893V45.3505C60.4005 45.191 60.0602 45.0367 59.7143 44.8825ZM59.7143 44.8825V96.2133C60.0602 96.1002 60.4058 95.9922 60.7462 95.8893V45.3505C60.4005 45.191 60.0602 45.0367 59.7143 44.8825ZM59.7143 44.8825V96.2133C60.0602 96.1002 60.4058 95.9922 60.7462 95.8893V45.3505C60.4005 45.191 60.0602 45.0367 59.7143 44.8825ZM59.7143 48.6316V107.78C60.0602 107.697 60.4058 107.62 60.7462 107.543V48.9247C60.4005 48.8219 60.0549 48.7242 59.7143 48.6316V48.6316ZM59.7143 48.6316V107.78C60.0602 107.697 60.4058 107.62 60.7462 107.543V48.9247C60.4005 48.8219 60.0549 48.7242 59.7143 48.6316V48.6316ZM59.7143 48.6316V107.78C60.0602 107.697 60.4058 107.62 60.7462 107.543V48.9247C60.4005 48.8219 60.0549 48.7242 59.7143 48.6316V48.6316ZM59.7143 48.6316V107.78C60.0602 107.697 60.4058 107.62 60.7462 107.543V48.9247C60.4005 48.8219 60.0549 48.7242 59.7143 48.6316V48.6316ZM59.7143 48.6316V108.314C60.0602 108.232 60.4005 108.15 60.7462 108.073V48.9247C60.4005 48.8219 60.0549 48.7242 59.7143 48.6316V48.6316ZM284.795 0.000748117H70.4254C67.5861 0.005441 64.8645 1.13179 62.8568 3.13301C60.8491 5.13424 59.719 7.84714 59.7143 10.6773V169.329C59.7191 172.159 60.8493 174.871 62.8572 176.872C64.865 178.872 67.5866 179.997 70.4254 180.001H284.795C287.633 179.997 290.354 178.872 292.361 176.871C294.368 174.871 295.497 172.158 295.501 169.329V10.6773C295.498 7.84732 294.37 5.13385 292.363 3.13226C290.355 1.13067 287.634 0.0044621 284.795 0.000732422V0.000748117ZM294.469 169.329C294.466 171.886 293.446 174.337 291.632 176.145C289.819 177.953 287.36 178.97 284.795 178.972H70.4254C67.86 178.97 65.4002 177.953 63.5857 176.146C61.7711 174.338 60.75 171.887 60.7462 169.329V10.6773C60.7501 8.11966 61.7711 5.66789 63.5854 3.85937C65.3998 2.05085 67.8595 1.03314 70.4254 1.02932H284.795C287.36 1.03226 289.82 2.04985 291.634 3.85871C293.448 5.66757 294.467 8.11987 294.469 10.6773V169.329ZM59.7143 48.6316V107.26C60.0602 107.178 60.4005 107.096 60.7462 107.013V48.9247C60.4005 48.8219 60.0549 48.7242 59.7143 48.6316V48.6316ZM59.7143 48.6316V107.78C60.0602 107.697 60.4058 107.62 60.7462 107.543V48.9247C60.4005 48.8219 60.0549 48.7242 59.7143 48.6316V48.6316ZM59.7143 48.6316V107.78C60.0602 107.697 60.4058 107.62 60.7462 107.543V48.9247C60.4005 48.8219 60.0549 48.7242 59.7143 48.6316V48.6316ZM59.7143 48.6316V107.78C60.0602 107.697 60.4058 107.62 60.7462 107.543V48.9247C60.4005 48.8219 60.0549 48.7242 59.7143 48.6316V48.6316ZM59.7143 44.8825V96.2133C60.0602 96.1002 60.4058 95.9922 60.7462 95.8893V45.3505C60.4005 45.191 60.0602 45.0367 59.7143 44.8825V44.8825ZM59.7143 44.8825V96.2133C60.0602 96.1002 60.4058 95.9922 60.7462 95.8893V45.3505C60.4005 45.191 60.0602 45.0367 59.7143 44.8825V44.8825Z" fill="url(#paint6_linear_48_8275)"/>
<path d="M277.045 30.4539H79.0074V156.879H277.045V30.4539Z" fill="url(#paint7_linear_48_8275)"/>
<path d="M271.38 46.3054H84.6675V94.4996H271.38V46.3054Z" fill="white"/>
<path d="M169.469 53.2703H132.243C131.619 53.2703 131.113 53.776 131.113 54.3999C131.113 55.0238 131.619 55.5296 132.243 55.5296H169.469C170.093 55.5296 170.598 55.0238 170.598 54.3999C170.598 53.776 170.093 53.2703 169.469 53.2703Z" fill="url(#paint8_linear_48_8275)"/>
<path d="M190.957 61.5125H132.243C131.619 61.5125 131.113 62.0182 131.113 62.6421C131.113 63.266 131.619 63.7718 132.243 63.7718H190.957C191.581 63.7718 192.087 63.266 192.087 62.6421C192.087 62.0182 191.581 61.5125 190.957 61.5125Z" fill="url(#paint9_linear_48_8275)"/>
<path d="M179.676 69.282H132.243C131.619 69.282 131.113 69.7878 131.113 70.4116C131.113 71.0355 131.619 71.5413 132.243 71.5413H179.676C180.3 71.5413 180.805 71.0355 180.805 70.4116C180.805 69.7878 180.3 69.282 179.676 69.282Z" fill="url(#paint10_linear_48_8275)"/>
<path d="M158.993 77.0085H132.243C131.619 77.0085 131.113 77.5143 131.113 78.1382C131.113 78.7621 131.619 79.2679 132.243 79.2679H158.993C159.617 79.2679 160.123 78.7621 160.123 78.1382C160.123 77.5143 159.617 77.0085 158.993 77.0085Z" fill="url(#paint11_linear_48_8275)"/>
<path d="M173.766 84.7507H132.243C131.619 84.7507 131.113 85.2565 131.113 85.8804C131.113 86.5043 131.619 87.0101 132.243 87.0101H173.766C174.39 87.0101 174.896 86.5043 174.896 85.8804C174.896 85.2565 174.39 84.7507 173.766 84.7507Z" fill="url(#paint12_linear_48_8275)"/>
<path d="M113.117 54.8792C113.117 56.21 114.203 57.2889 115.534 57.2889C116.865 57.2889 117.952 56.21 117.952 54.8792C117.952 53.5483 116.865 52.4695 115.534 52.4695C114.203 52.4695 113.117 53.5483 113.117 54.8792Z" fill="url(#paint13_linear_48_8275)"/>
<path d="M113.117 62.6409C113.117 63.9718 114.203 65.0506 115.534 65.0506C116.865 65.0506 117.952 63.9718 117.952 62.6409C117.952 61.3101 116.865 60.2312 115.534 60.2312C114.203 60.2312 113.117 61.3101 113.117 62.6409Z" fill="url(#paint14_linear_48_8275)"/>
<path d="M113.117 70.4104C113.117 71.7413 114.203 72.8201 115.534 72.8201C116.865 72.8201 117.952 71.7413 117.952 70.4104C117.952 69.0796 116.865 68.0007 115.534 68.0007C114.203 68.0007 113.117 69.0796 113.117 70.4104Z" fill="url(#paint15_linear_48_8275)"/>
<path d="M113.117 78.1683C113.117 79.4991 114.203 80.578 115.534 80.578C116.865 80.578 117.952 79.4991 117.952 78.1683C117.952 76.8374 116.865 75.7585 115.534 75.7585C114.203 75.7585 113.117 76.8374 113.117 78.1683Z" fill="url(#paint16_linear_48_8275)"/>
<path d="M113.117 85.9417C113.117 87.2725 114.203 88.3514 115.534 88.3514C116.865 88.3514 117.952 87.2725 117.952 85.9417C117.952 84.6108 116.865 83.532 115.534 83.532C114.203 83.532 113.117 84.6108 113.117 85.9417Z" fill="url(#paint17_linear_48_8275)"/>
<path d="M229.156 71.4745C229.156 75.9106 232.778 79.5069 237.214 79.5069C241.65 79.5069 245.272 75.9106 245.272 71.4745C245.272 67.0383 241.65 63.4421 237.214 63.4421C232.778 63.4421 229.156 67.0383 229.156 71.4745Z" fill="url(#paint18_linear_48_8275)"/>
<path d="M271.38 101.2H84.6675V149.394H271.38V101.2Z" fill="white"/>
<path d="M121.441 107.895C121.441 109.226 122.528 110.305 123.858 110.305C125.189 110.305 126.276 109.226 126.276 107.895C126.276 106.564 125.189 105.485 123.858 105.485C122.528 105.485 121.441 106.564 121.441 107.895Z" fill="url(#paint19_linear_48_8275)"/>
<path d="M113.117 107.895C113.117 109.226 114.203 110.305 115.534 110.305C116.865 110.305 117.952 109.226 117.952 107.895C117.952 106.564 116.865 105.485 115.534 105.485C114.203 105.485 113.117 106.564 113.117 107.895Z" fill="url(#paint20_linear_48_8275)"/>
<path d="M195.093 116.023C193.619 113.536 191.574 111.434 189.127 109.888C186.679 108.342 183.898 107.398 181.013 107.132C178.128 106.866 175.22 107.287 172.53 108.36C169.84 109.432 167.443 111.126 165.537 113.302L164.359 112.275C166.427 109.913 169.028 108.074 171.949 106.91C174.869 105.745 178.025 105.289 181.157 105.577C184.289 105.865 187.307 106.89 189.964 108.568C192.621 110.246 194.84 112.529 196.439 115.229L195.093 116.023Z" fill="#E6E6E6"/>
<path d="M195.829 136.332L194.531 135.462C196.454 132.603 197.527 129.26 197.627 125.819C197.726 122.378 196.847 118.979 195.092 116.014L196.439 115.219C198.344 118.438 199.298 122.128 199.191 125.864C199.083 129.599 197.918 133.228 195.829 136.332V136.332Z" fill="url(#paint21_linear_48_8275)"/>
<path d="M164.519 138.505C161.285 134.905 159.483 130.25 159.453 125.417C159.423 120.584 161.167 115.907 164.356 112.266L165.535 113.293C162.597 116.646 160.99 120.955 161.018 125.407C161.045 129.859 162.705 134.148 165.685 137.465L164.519 138.505Z" fill="url(#paint22_linear_48_8275)"/>
<path d="M179.325 145.11C176.53 145.108 173.768 144.519 171.217 143.383C168.666 142.246 166.384 140.587 164.519 138.513L165.685 137.472C167.545 139.544 169.856 141.165 172.44 142.21C175.025 143.256 177.815 143.699 180.598 143.506C183.381 143.313 186.083 142.488 188.497 141.096C190.911 139.703 192.974 137.778 194.529 135.469L195.827 136.34C194.011 139.04 191.555 141.253 188.676 142.782C185.798 144.312 182.586 145.111 179.325 145.11V145.11Z" fill="url(#paint23_linear_48_8275)"/>
<path d="M229.156 123.963C229.156 128.399 232.778 131.995 237.214 131.995C241.65 131.995 245.272 128.399 245.272 123.963C245.272 119.527 241.65 115.93 237.214 115.93C232.778 115.93 229.156 119.527 229.156 123.963Z" fill="url(#paint24_linear_48_8275)"/>
<path d="M112.445 134.4C112.445 138.836 116.067 142.433 120.503 142.433C124.939 142.433 128.561 138.836 128.561 134.4C128.561 129.964 124.939 126.368 120.503 126.368C116.067 126.368 112.445 129.964 112.445 134.4Z" fill="url(#paint25_linear_48_8275)"/>
<path d="M276.959 30.3406H78.9214V38.7269H276.959V30.3406Z" fill="url(#paint26_linear_48_8275)"/>
<path d="M85.1761 36.1797C86.0373 36.1797 86.7355 35.4838 86.7355 34.6254C86.7355 33.7669 86.0373 33.071 85.1761 33.071C84.3149 33.071 83.6168 33.7669 83.6168 34.6254C83.6168 35.4838 84.3149 36.1797 85.1761 36.1797Z" fill="white"/>
<path d="M91.0941 36.1797C91.9553 36.1797 92.6534 35.4838 92.6534 34.6254C92.6534 33.7669 91.9553 33.071 91.0941 33.071C90.2329 33.071 89.5347 33.7669 89.5347 34.6254C89.5347 35.4838 90.2329 36.1797 91.0941 36.1797Z" fill="white"/>
<path d="M97.0121 36.1797C97.8733 36.1797 98.5714 35.4838 98.5714 34.6254C98.5714 33.7669 97.8733 33.071 97.0121 33.071C96.1508 33.071 95.4527 33.7669 95.4527 34.6254C95.4527 35.4838 96.1508 36.1797 97.0121 36.1797Z" fill="white"/>
<defs>
<linearGradient id="paint0_linear_48_8275" x1="1.84701" y1="86.7001" x2="64.9674" y2="79.6348" gradientUnits="userSpaceOnUse">
<stop stop-color="#F7BA2C"/>
<stop offset="1" stop-color="#EA5459"/>
</linearGradient>
<linearGradient id="paint1_linear_48_8275" x1="38.1646" y1="86.1566" x2="62.6062" y2="84.9213" gradientUnits="userSpaceOnUse">
<stop stop-color="#F7BA2C"/>
<stop offset="1" stop-color="#EA5459"/>
</linearGradient>
<linearGradient id="paint2_linear_48_8275" x1="8.38428" y1="70.8349" x2="30.6219" y2="66.5477" gradientUnits="userSpaceOnUse">
<stop stop-color="#560BAD"/>
<stop offset="0.520833" stop-color="#B5179E"/>
<stop offset="1" stop-color="#F72585"/>
</linearGradient>
<linearGradient id="paint3_linear_48_8275" x1="6.0889" y1="117.703" x2="64.2464" y2="112.508" gradientUnits="userSpaceOnUse">
<stop stop-color="#560BAD"/>
<stop offset="0.520833" stop-color="#B5179E"/>
<stop offset="1" stop-color="#F72585"/>
</linearGradient>
<linearGradient id="paint4_linear_48_8275" x1="41.6593" y1="107.299" x2="62.0978" y2="106.472" gradientUnits="userSpaceOnUse">
<stop stop-color="#560BAD"/>
<stop offset="0.520833" stop-color="#B5179E"/>
<stop offset="1" stop-color="#F72585"/>
</linearGradient>
<linearGradient id="paint5_linear_48_8275" x1="16.4054" y1="114.778" x2="38.3606" y2="111.637" gradientUnits="userSpaceOnUse">
<stop stop-color="#F7BA2C"/>
<stop offset="1" stop-color="#EA5459"/>
</linearGradient>
<linearGradient id="paint6_linear_48_8275" x1="65.8671" y1="166.514" x2="309.348" y2="140.331" gradientUnits="userSpaceOnUse">
<stop stop-color="#560BAD"/>
<stop offset="0.520833" stop-color="#B5179E"/>
<stop offset="1" stop-color="#F72585"/>
</linearGradient>
<linearGradient id="paint7_linear_48_8275" x1="83.4369" y1="156.879" x2="289.523" y2="128.18" gradientUnits="userSpaceOnUse">
<stop stop-color="#F7BA2C"/>
<stop offset="1" stop-color="#EA5459"/>
</linearGradient>
<linearGradient id="paint8_linear_48_8275" x1="132.143" y1="55.3603" x2="145.629" y2="36.0118" gradientUnits="userSpaceOnUse">
<stop stop-color="#560BAD"/>
<stop offset="0.520833" stop-color="#B5179E"/>
<stop offset="1" stop-color="#F72585"/>
</linearGradient>
<linearGradient id="paint9_linear_48_8275" x1="132.477" y1="63.7718" x2="142.051" y2="40.8019" gradientUnits="userSpaceOnUse">
<stop stop-color="#F7BA2C"/>
<stop offset="1" stop-color="#EA5459"/>
</linearGradient>
<linearGradient id="paint10_linear_48_8275" x1="132.41" y1="71.372" x2="144.594" y2="49.372" gradientUnits="userSpaceOnUse">
<stop stop-color="#560BAD"/>
<stop offset="0.520833" stop-color="#B5179E"/>
<stop offset="1" stop-color="#F72585"/>
</linearGradient>
<linearGradient id="paint11_linear_48_8275" x1="131.87" y1="79.0986" x2="146.224" y2="63.9682" gradientUnits="userSpaceOnUse">
<stop stop-color="#560BAD"/>
<stop offset="0.520833" stop-color="#B5179E"/>
<stop offset="1" stop-color="#F72585"/>
</linearGradient>
<linearGradient id="paint12_linear_48_8275" x1="132.255" y1="86.8408" x2="145.208" y2="66.2345" gradientUnits="userSpaceOnUse">
<stop stop-color="#560BAD"/>
<stop offset="0.520833" stop-color="#B5179E"/>
<stop offset="1" stop-color="#F72585"/>
</linearGradient>
<linearGradient id="paint13_linear_48_8275" x1="113.243" y1="56.9278" x2="118.259" y2="56.5147" gradientUnits="userSpaceOnUse">
<stop stop-color="#560BAD"/>
<stop offset="0.520833" stop-color="#B5179E"/>
<stop offset="1" stop-color="#F72585"/>
</linearGradient>
<linearGradient id="paint14_linear_48_8275" x1="113.225" y1="65.0506" x2="118.313" y2="64.5968" gradientUnits="userSpaceOnUse">
<stop stop-color="#F7BA2C"/>
<stop offset="1" stop-color="#EA5459"/>
</linearGradient>
<linearGradient id="paint15_linear_48_8275" x1="113.243" y1="72.4591" x2="118.259" y2="72.0459" gradientUnits="userSpaceOnUse">
<stop stop-color="#560BAD"/>
<stop offset="0.520833" stop-color="#B5179E"/>
<stop offset="1" stop-color="#F72585"/>
</linearGradient>
<linearGradient id="paint16_linear_48_8275" x1="113.243" y1="80.2169" x2="118.259" y2="79.8037" gradientUnits="userSpaceOnUse">
<stop stop-color="#560BAD"/>
<stop offset="0.520833" stop-color="#B5179E"/>
<stop offset="1" stop-color="#F72585"/>
</linearGradient>
<linearGradient id="paint17_linear_48_8275" x1="113.243" y1="87.9903" x2="118.259" y2="87.5772" gradientUnits="userSpaceOnUse">
<stop stop-color="#560BAD"/>
<stop offset="0.520833" stop-color="#B5179E"/>
<stop offset="1" stop-color="#F72585"/>
</linearGradient>
<linearGradient id="paint18_linear_48_8275" x1="229.576" y1="78.3032" x2="246.298" y2="76.9261" gradientUnits="userSpaceOnUse">
<stop stop-color="#560BAD"/>
<stop offset="0.520833" stop-color="#B5179E"/>
<stop offset="1" stop-color="#F72585"/>
</linearGradient>
<linearGradient id="paint19_linear_48_8275" x1="121.549" y1="110.305" x2="126.638" y2="109.851" gradientUnits="userSpaceOnUse">
<stop stop-color="#F7BA2C"/>
<stop offset="1" stop-color="#EA5459"/>
</linearGradient>
<linearGradient id="paint20_linear_48_8275" x1="113.243" y1="109.943" x2="118.259" y2="109.53" gradientUnits="userSpaceOnUse">
<stop stop-color="#560BAD"/>
<stop offset="0.520833" stop-color="#B5179E"/>
<stop offset="1" stop-color="#F72585"/>
</linearGradient>
<linearGradient id="paint21_linear_48_8275" x1="194.653" y1="134.75" x2="199.527" y2="134.662" gradientUnits="userSpaceOnUse">
<stop stop-color="#560BAD"/>
<stop offset="0.520833" stop-color="#B5179E"/>
<stop offset="1" stop-color="#F72585"/>
</linearGradient>
<linearGradient id="paint22_linear_48_8275" x1="159.615" y1="136.54" x2="166.123" y2="136.413" gradientUnits="userSpaceOnUse">
<stop stop-color="#560BAD"/>
<stop offset="0.520833" stop-color="#B5179E"/>
<stop offset="1" stop-color="#F72585"/>
</linearGradient>
<linearGradient id="paint23_linear_48_8275" x1="165.336" y1="144.388" x2="195.87" y2="136.247" gradientUnits="userSpaceOnUse">
<stop stop-color="#560BAD"/>
<stop offset="0.520833" stop-color="#B5179E"/>
<stop offset="1" stop-color="#F72585"/>
</linearGradient>
<linearGradient id="paint24_linear_48_8275" x1="229.516" y1="131.995" x2="246.478" y2="130.482" gradientUnits="userSpaceOnUse">
<stop stop-color="#F7BA2C"/>
<stop offset="1" stop-color="#EA5459"/>
</linearGradient>
<linearGradient id="paint25_linear_48_8275" x1="112.805" y1="142.433" x2="129.767" y2="140.92" gradientUnits="userSpaceOnUse">
<stop stop-color="#F7BA2C"/>
<stop offset="1" stop-color="#EA5459"/>
</linearGradient>
<linearGradient id="paint26_linear_48_8275" x1="84.0893" y1="38.0986" x2="127.565" y2="-46.184" gradientUnits="userSpaceOnUse">
<stop stop-color="#560BAD"/>
<stop offset="0.520833" stop-color="#B5179E"/>
<stop offset="1" stop-color="#F72585"/>
</linearGradient>
</defs>
</svg>
