<svg width="260" height="180" viewBox="0 0 260 180" fill="none" xmlns="http://www.w3.org/2000/svg">
<path d="M0 5.00049C0 2.23906 2.23858 0.000488281 5 0.000488281H255C257.761 0.000488281 260 2.23906 260 5.00049V15.2547H0V5.00049Z" fill="url(#paint0_linear_48_8105)"/>
<path d="M256.365 0.000488286H3.63061C2.66796 0.00137093 1.74499 0.387347 1.06431 1.07369C0.383625 1.76003 0.00084559 2.69066 0 3.66128V176.34C0.00084559 177.31 0.383625 178.241 1.06431 178.927C1.74499 179.614 2.66796 180 3.63061 180H256.365C256.89 180.001 257.409 179.886 257.885 179.664C258.362 179.442 258.785 179.119 259.126 178.716C259.155 178.684 259.181 178.651 259.205 178.615C259.422 178.348 259.597 178.049 259.725 177.729C259.908 177.289 260.001 176.817 260 176.34V3.6613C259.999 2.69 259.615 1.75884 258.934 1.07241C258.252 0.385982 257.328 0.000438756 256.365 0.000488286V0.000488286ZM258.963 176.34C258.964 176.85 258.814 177.35 258.534 177.775C258.285 178.15 257.948 178.456 257.552 178.665C257.185 178.857 256.778 178.956 256.365 178.955H3.63061C2.9429 178.954 2.2836 178.678 1.79732 178.188C1.31103 177.698 1.03747 177.033 1.03664 176.34V3.6613C1.03747 2.9679 1.31103 2.30313 1.79731 1.81282C2.28359 1.3225 2.9429 1.04668 3.63061 1.04584H256.365C257.053 1.04575 257.714 1.32114 258.201 1.81153C258.688 2.30192 258.962 2.96722 258.963 3.6613V176.34Z" fill="url(#paint1_linear_48_8105)"/>
<path d="M259.242 14.4907H0.757812V16.0161H259.242V14.4907Z" fill="url(#paint2_linear_48_8105)"/>
<path d="M9.09457 10.6784C10.7691 10.6784 12.1266 9.31244 12.1266 7.62751C12.1266 5.94257 10.7691 4.57666 9.09457 4.57666C7.42 4.57666 6.0625 5.94257 6.0625 7.62751C6.0625 9.31244 7.42 10.6784 9.09457 10.6784Z" fill="white"/>
<path d="M18.1921 10.6784C19.8667 10.6784 21.2242 9.31244 21.2242 7.62751C21.2242 5.94257 19.8667 4.57666 18.1921 4.57666C16.5175 4.57666 15.16 5.94257 15.16 7.62751C15.16 9.31244 16.5175 10.6784 18.1921 10.6784Z" fill="white"/>
<path d="M27.2899 10.6784C28.9644 10.6784 30.322 9.31244 30.322 7.62751C30.322 5.94257 28.9644 4.57666 27.2899 4.57666C25.6153 4.57666 24.2578 5.94257 24.2578 7.62751C24.2578 9.31244 25.6153 10.6784 27.2899 10.6784Z" fill="white"/>
<path d="M194.723 38.8992H65.2766C63.8462 38.8992 62.4743 38.3367 61.4628 37.3354C60.4513 36.3342 59.8831 34.9762 59.8831 33.5602C59.8831 32.1442 60.4513 30.7862 61.4628 29.7849C62.4743 28.7837 63.8462 28.2212 65.2766 28.2212H194.723C196.153 28.2212 197.525 28.7837 198.537 29.7849C199.548 30.7862 200.116 32.1442 200.116 33.5602C200.116 34.9762 199.548 36.3342 198.537 37.3354C197.525 38.3367 196.153 38.8992 194.723 38.8992ZM65.2766 29.0426C64.0662 29.0426 62.9054 29.5185 62.0495 30.3658C61.1937 31.213 60.7128 32.362 60.7128 33.5602C60.7128 34.7583 61.1937 35.9074 62.0495 36.7546C62.9054 37.6018 64.0662 38.0778 65.2766 38.0778H194.723C195.933 38.0778 197.094 37.6018 197.95 36.7546C198.806 35.9074 199.287 34.7583 199.287 33.5602C199.287 32.362 198.806 31.213 197.95 30.3658C197.094 29.5185 195.933 29.0426 194.723 29.0426H65.2766Z" fill="#404040"/>
<path d="M66.4277 72.4586H54.8507C53.9734 72.4586 53.1321 72.097 52.5118 71.4534C51.8915 70.8097 51.543 69.9367 51.543 69.0264C51.543 68.1162 51.8915 67.2432 52.5118 66.5995C53.1321 65.9559 53.9734 65.5942 54.8507 65.5942H66.4277C67.3049 65.5942 68.1463 65.9559 68.7666 66.5995C69.3869 67.2432 69.7354 68.1162 69.7354 69.0264C69.7354 69.9367 69.3869 70.8097 68.7666 71.4534C68.1463 72.097 67.3049 72.4586 66.4277 72.4586Z" fill="url(#paint3_linear_48_8105)"/>
<path d="M80.072 83.1354H54.8507C53.9734 83.1354 53.1321 82.814 52.5118 82.2418C51.8915 81.6697 51.543 80.8937 51.543 80.0845C51.543 79.2754 51.8915 78.4994 52.5118 77.9273C53.1321 77.3551 53.9734 77.0337 54.8507 77.0337H80.072C80.9493 77.0337 81.7906 77.3551 82.4109 77.9273C83.0312 78.4994 83.3797 79.2754 83.3797 80.0845C83.3797 80.8937 83.0312 81.6697 82.4109 82.2418C81.7906 82.814 80.9493 83.1354 80.072 83.1354Z" fill="url(#paint4_linear_48_8105)"/>
<path d="M67.9472 121.274H56.3702C55.493 121.274 54.6516 120.953 54.0313 120.38C53.411 119.808 53.0625 119.032 53.0625 118.223C53.0625 117.414 53.411 116.638 54.0313 116.066C54.6516 115.494 55.493 115.172 56.3702 115.172H67.9472C68.8245 115.172 69.6658 115.494 70.2861 116.066C70.9064 116.638 71.2549 117.414 71.2549 118.223C71.2549 119.032 70.9064 119.808 70.2861 120.38C69.6658 120.953 68.8245 121.274 67.9472 121.274Z" fill="url(#paint5_linear_48_8105)"/>
<path d="M82.2708 132.713H56.449C55.5508 132.713 54.6895 132.351 54.0544 131.707C53.4193 131.064 53.0625 130.191 53.0625 129.28C53.0625 128.37 53.4193 127.497 54.0544 126.853C54.6895 126.21 55.5508 125.848 56.449 125.848H82.2708C83.1689 125.848 84.0303 126.21 84.6654 126.853C85.3005 127.497 85.6573 128.37 85.6573 129.28C85.6573 130.191 85.3005 131.064 84.6654 131.707C84.0303 132.351 83.1689 132.713 82.2708 132.713Z" fill="url(#paint6_linear_48_8105)"/>
<path d="M144.506 120.509H132.929C132.052 120.509 131.21 120.148 130.59 119.504C129.97 118.86 129.621 117.987 129.621 117.077C129.621 116.167 129.97 115.294 130.59 114.65C131.21 114.007 132.052 113.645 132.929 113.645H144.506C145.383 113.645 146.224 114.007 146.845 114.65C147.465 115.294 147.814 116.167 147.814 117.077C147.814 117.987 147.465 118.86 146.845 119.504C146.224 120.148 145.383 120.509 144.506 120.509Z" fill="url(#paint7_linear_48_8105)"/>
<path d="M158.829 131.951H133.008C132.109 131.951 131.248 131.589 130.613 130.946C129.978 130.302 129.621 129.429 129.621 128.519C129.621 127.608 129.978 126.735 130.613 126.092C131.248 125.448 132.109 125.086 133.008 125.086H158.829C159.728 125.086 160.589 125.448 161.224 126.092C161.859 126.735 162.216 127.608 162.216 128.519C162.216 129.429 161.859 130.302 161.224 130.946C160.589 131.589 159.728 131.951 158.829 131.951Z" fill="url(#paint8_linear_48_8105)"/>
<path d="M143.748 73.983H132.171C131.294 73.983 130.452 73.6616 129.832 73.0895C129.212 72.5173 128.863 71.7413 128.863 70.9322C128.863 70.1231 129.212 69.3471 129.832 68.7749C130.452 68.2028 131.294 67.8813 132.171 67.8813H143.748C144.625 67.8813 145.467 68.2028 146.087 68.7749C146.707 69.3471 147.056 70.1231 147.056 70.9322C147.056 71.7413 146.707 72.5173 146.087 73.0895C145.467 73.6616 144.625 73.983 143.748 73.983Z" fill="url(#paint9_linear_48_8105)"/>
<path d="M157.392 85.4235H132.171C131.294 85.4235 130.452 85.0619 129.832 84.4182C129.212 83.7746 128.863 82.9016 128.863 81.9913C128.863 81.081 129.212 80.208 129.832 79.5644C130.452 78.9207 131.294 78.5591 132.171 78.5591H157.392C158.27 78.5591 159.111 78.9207 159.731 79.5644C160.352 80.208 160.7 81.081 160.7 81.9913C160.7 82.9016 160.352 83.7746 159.731 84.4182C159.111 85.0619 158.27 85.4235 157.392 85.4235Z" fill="url(#paint10_linear_48_8105)"/>
<path d="M221.685 71.695H209.625C208.711 71.695 207.835 71.3334 207.189 70.6897C206.543 70.046 206.18 69.173 206.18 68.2628C206.18 67.3525 206.543 66.4795 207.189 65.8358C207.835 65.1922 208.711 64.8306 209.625 64.8306H221.685C222.598 64.8306 223.475 65.1922 224.121 65.8358C224.767 66.4795 225.13 67.3525 225.13 68.2628C225.13 69.173 224.767 70.046 224.121 70.6897C223.475 71.3334 222.598 71.695 221.685 71.695Z" fill="url(#paint11_linear_48_8105)"/>
<path d="M235.388 83.1364H209.566C208.668 83.1364 207.807 82.7748 207.172 82.1311C206.536 81.4874 206.18 80.6145 206.18 79.7042C206.18 78.7939 206.536 77.9209 207.172 77.2773C207.807 76.6336 208.668 76.272 209.566 76.272H235.388C236.286 76.272 237.147 76.6336 237.783 77.2773C238.418 77.9209 238.774 78.7939 238.774 79.7042C238.774 80.6145 238.418 81.4874 237.783 82.1311C237.147 82.7748 236.286 83.1364 235.388 83.1364Z" fill="url(#paint12_linear_48_8105)"/>
<path d="M33.7299 86.9493C40.6375 86.9493 46.2372 81.3149 46.2372 74.3645C46.2372 67.4142 40.6375 61.7798 33.7299 61.7798C26.8224 61.7798 21.2227 67.4142 21.2227 74.3645C21.2227 81.3149 26.8224 86.9493 33.7299 86.9493Z" fill="url(#paint13_linear_48_8105)"/>
<path d="M39.6625 80.0857H27.8018C27.4649 80.0853 27.1419 79.9513 26.9036 79.713C26.6654 79.4747 26.5314 79.1515 26.531 78.8145V69.9162C26.5314 69.5792 26.6654 69.2561 26.9036 69.0178C27.1419 68.7794 27.4649 68.6454 27.8018 68.645H31.1407C31.3579 68.6442 31.5716 68.6995 31.7612 68.8054C31.9508 68.9113 32.1099 69.0644 32.2231 69.2498L33.1543 70.7637H39.6625C39.9995 70.764 40.3225 70.8981 40.5607 71.1364C40.799 71.3747 40.933 71.6978 40.9333 72.0349V78.8145C40.933 79.1515 40.799 79.4747 40.5607 79.713C40.3225 79.9513 39.9995 80.0853 39.6625 80.0857V80.0857ZM27.8018 69.4925C27.6895 69.4926 27.5818 69.5373 27.5024 69.6168C27.423 69.6962 27.3783 69.8039 27.3782 69.9162V78.8145C27.3783 78.9268 27.423 79.0345 27.5024 79.114C27.5818 79.1934 27.6895 79.2381 27.8018 79.2382H39.6625C39.7748 79.2381 39.8825 79.1934 39.9619 79.114C40.0413 79.0345 40.086 78.9268 40.0861 78.8145V72.0349C40.086 71.9225 40.0413 71.8148 39.9619 71.7354C39.8825 71.656 39.7748 71.6113 39.6625 71.6111H32.681L31.5017 69.694C31.4639 69.6322 31.4108 69.5812 31.3476 69.5459C31.2844 69.5106 31.2132 69.4922 31.1408 69.4925H27.8018Z" fill="white"/>
<path d="M110.292 89.2364C117.2 89.2364 122.8 83.602 122.8 76.6516C122.8 69.7013 117.2 64.0669 110.292 64.0669C103.385 64.0669 97.785 69.7013 97.785 76.6516C97.785 83.602 103.385 89.2364 110.292 89.2364Z" fill="url(#paint14_linear_48_8105)"/>
<path d="M116.213 84.662H105.127C104.788 84.6616 104.463 84.5283 104.223 84.2912C103.983 84.0541 103.848 83.7327 103.848 83.3975V69.9095C103.848 69.5743 103.983 69.2528 104.223 69.0158C104.463 68.7787 104.788 68.6454 105.127 68.645H113.16C113.451 68.6453 113.734 68.7436 113.961 68.9239L117.014 71.3492C117.163 71.4673 117.284 71.6173 117.367 71.788C117.45 71.9586 117.492 72.1455 117.492 72.3348V83.3975C117.492 83.7327 117.357 84.0541 117.117 84.2912C116.877 84.5283 116.552 84.6616 116.213 84.662V84.662ZM105.127 69.488C105.014 69.4882 104.905 69.5326 104.825 69.6116C104.746 69.6906 104.701 69.7978 104.7 69.9095V83.3975C104.701 83.5092 104.746 83.6163 104.825 83.6954C104.905 83.7744 105.014 83.8188 105.127 83.819H116.213C116.326 83.8188 116.434 83.7744 116.514 83.6954C116.594 83.6163 116.639 83.5092 116.639 83.3975V72.3348C116.639 72.2717 116.625 72.2094 116.598 72.1525C116.57 72.0957 116.53 72.0457 116.48 72.0063L113.427 69.5808C113.351 69.5208 113.257 69.4881 113.16 69.488H105.127Z" fill="white"/>
<path d="M114.042 74.7466H107.304C107.192 74.7466 107.085 74.6662 107.006 74.5232C106.927 74.3802 106.883 74.1862 106.883 73.9839C106.883 73.7816 106.927 73.5876 107.006 73.4446C107.085 73.3015 107.192 73.2212 107.304 73.2212H114.042C114.154 73.2212 114.261 73.3015 114.34 73.4446C114.419 73.5876 114.463 73.7816 114.463 73.9839C114.463 74.1862 114.419 74.3802 114.34 74.5232C114.261 74.6662 114.154 74.7466 114.042 74.7466Z" fill="white"/>
<path d="M114.042 77.0347H107.304C107.192 77.0347 107.085 76.9945 107.006 76.923C106.927 76.8515 106.883 76.7545 106.883 76.6533C106.883 76.5522 106.927 76.4552 107.006 76.3837C107.085 76.3121 107.192 76.272 107.304 76.272H114.042C114.154 76.272 114.261 76.3121 114.34 76.3837C114.419 76.4552 114.463 76.5522 114.463 76.6533C114.463 76.7545 114.419 76.8515 114.34 76.923C114.261 76.9945 114.154 77.0347 114.042 77.0347Z" fill="white"/>
<path d="M114.042 79.3218H107.304C107.192 79.3218 107.085 79.2816 107.006 79.2101C106.927 79.1386 106.883 79.0416 106.883 78.9404C106.883 78.8393 106.927 78.7423 107.006 78.6708C107.085 78.5993 107.192 78.5591 107.304 78.5591H114.042C114.154 78.5591 114.261 78.5993 114.34 78.6708C114.419 78.7423 114.463 78.8393 114.463 78.9404C114.463 79.0416 114.419 79.1386 114.34 79.2101C114.261 79.2816 114.154 79.3218 114.042 79.3218Z" fill="white"/>
<path d="M187.609 86.9493C194.516 86.9493 200.116 81.3149 200.116 74.3645C200.116 67.4142 194.516 61.7798 187.609 61.7798C180.701 61.7798 175.102 67.4142 175.102 74.3645C175.102 81.3149 180.701 86.9493 187.609 86.9493Z" fill="url(#paint15_linear_48_8105)"/>
<path d="M193.538 78.5593H181.677C181.34 78.5589 181.017 78.4273 180.779 78.1933C180.541 77.9593 180.407 77.6421 180.406 77.3112V70.6548C180.407 70.3239 180.541 70.0067 180.779 69.7727C181.017 69.5387 181.34 69.4071 181.677 69.4067H193.538C193.875 69.4071 194.198 69.5387 194.436 69.7727C194.674 70.0067 194.808 70.3239 194.809 70.6548V77.3112C194.808 77.6421 194.674 77.9593 194.436 78.1933C194.198 78.4273 193.875 78.5589 193.538 78.5593V78.5593ZM181.677 70.2388C181.565 70.2389 181.457 70.2828 181.378 70.3608C181.298 70.4388 181.253 70.5445 181.253 70.6548V77.3112C181.253 77.4215 181.298 77.5273 181.378 77.6053C181.457 77.6833 181.565 77.7271 181.677 77.7272H193.538C193.65 77.7271 193.758 77.6833 193.837 77.6053C193.917 77.5273 193.961 77.4215 193.961 77.3112V70.6548C193.961 70.5445 193.917 70.4388 193.837 70.3608C193.758 70.2828 193.65 70.2389 193.538 70.2388H181.677Z" fill="white"/>
<path d="M187.607 74.7467C187.369 74.747 187.136 74.6853 186.934 74.5687L180.605 70.8969C180.51 70.8415 180.442 70.7533 180.417 70.6518C180.392 70.5502 180.411 70.4436 180.471 70.3552C180.53 70.2669 180.625 70.2041 180.734 70.1806C180.844 70.157 180.959 70.1748 181.054 70.2298L187.383 73.9016C187.451 73.9404 187.528 73.961 187.608 73.961C187.687 73.961 187.765 73.9404 187.832 73.9016L194.161 70.2298C194.256 70.1748 194.371 70.157 194.48 70.1806C194.59 70.2041 194.685 70.2669 194.744 70.3552C194.804 70.4436 194.823 70.5502 194.798 70.6518C194.773 70.7533 194.705 70.8415 194.61 70.8969L188.281 74.5687C188.079 74.6854 187.846 74.747 187.607 74.7467V74.7467Z" fill="white"/>
<path d="M33.7299 136.525C40.6375 136.525 46.2372 130.891 46.2372 123.941C46.2372 116.99 40.6375 111.356 33.7299 111.356C26.8224 111.356 21.2227 116.99 21.2227 123.941C21.2227 130.891 26.8224 136.525 33.7299 136.525Z" fill="url(#paint16_linear_48_8105)"/>
<path d="M39.6628 128.137H27.802C27.4651 128.137 27.1421 128.005 26.9039 127.771C26.6656 127.537 26.5316 127.22 26.5312 126.889V120.233C26.5316 119.902 26.6656 119.585 26.9039 119.351C27.1421 119.117 27.4651 118.985 27.802 118.985H39.6628C39.9997 118.985 40.3227 119.117 40.561 119.351C40.7992 119.585 40.9332 119.902 40.9336 120.233V126.889C40.9332 127.22 40.7992 127.537 40.561 127.771C40.3227 128.005 39.9997 128.137 39.6628 128.137ZM27.802 119.817C27.6897 119.817 27.5821 119.861 27.5026 119.939C27.4232 120.017 27.3786 120.123 27.3784 120.233V126.889C27.3786 127 27.4232 127.105 27.5026 127.183C27.5821 127.261 27.6897 127.305 27.802 127.305H39.6628C39.7751 127.305 39.8828 127.261 39.9622 127.183C40.0416 127.105 40.0863 127 40.0864 126.889V120.233C40.0863 120.123 40.0416 120.017 39.9622 119.939C39.8828 119.861 39.7751 119.817 39.6628 119.817H27.802Z" fill="white"/>
<path d="M37.8418 128.137H29.6217C29.4783 128.137 29.3374 128.099 29.2132 128.025C29.089 127.951 28.9858 127.845 28.9141 127.717C28.8424 127.589 28.8047 127.443 28.8047 127.296C28.8047 127.148 28.8425 127.003 28.9143 126.875L31.3902 122.456C31.462 122.329 31.5651 122.222 31.6893 122.148C31.8135 122.075 31.9544 122.036 32.0978 122.036C32.2412 122.036 32.3821 122.075 32.5063 122.148C32.6305 122.222 32.7336 122.329 32.8053 122.456L34.4045 125.31L35.331 123.657C35.4027 123.529 35.5058 123.423 35.63 123.349C35.7542 123.275 35.8951 123.236 36.0385 123.236C36.1819 123.236 36.3228 123.275 36.447 123.349C36.5712 123.423 36.6743 123.529 36.7461 123.657L38.5495 126.875C38.6212 127.003 38.6589 127.148 38.6589 127.296C38.6589 127.443 38.6211 127.589 38.5494 127.717C38.4777 127.845 38.3746 127.951 38.2503 128.025C38.1261 128.098 37.9852 128.137 37.8418 128.137H37.8418ZM37.8418 127.296L36.0384 124.078L34.7584 126.362C34.7225 126.426 34.6709 126.479 34.6088 126.516C34.5467 126.553 34.4763 126.572 34.4045 126.572V126.572C34.3328 126.572 34.2624 126.553 34.2002 126.516C34.1381 126.479 34.0866 126.426 34.0507 126.362L32.0979 122.877L29.6217 127.296H37.8418Z" fill="white"/>
<path d="M38.6604 122.795C39.079 122.795 39.4184 122.454 39.4184 122.033C39.4184 121.611 39.079 121.27 38.6604 121.27C38.2417 121.27 37.9023 121.611 37.9023 122.033C37.9023 122.454 38.2417 122.795 38.6604 122.795Z" fill="white"/>
<path d="M111.05 134.998C117.958 134.998 123.558 129.364 123.558 122.413C123.558 115.463 117.958 109.829 111.05 109.829C104.143 109.829 98.543 115.463 98.543 122.413C98.543 129.364 104.143 134.998 111.05 134.998Z" fill="url(#paint17_linear_48_8105)"/>
<path d="M111.427 122.799C110.677 122.799 109.944 122.576 109.321 122.157C108.698 121.738 108.212 121.142 107.925 120.445C107.638 119.748 107.563 118.982 107.71 118.242C107.856 117.502 108.217 116.823 108.747 116.289C109.277 115.756 109.952 115.393 110.687 115.246C111.423 115.098 112.185 115.174 112.877 115.463C113.57 115.751 114.162 116.24 114.578 116.867C114.995 117.494 115.217 118.232 115.217 118.986C115.216 119.997 114.816 120.966 114.106 121.681C113.395 122.396 112.432 122.798 111.427 122.799V122.799ZM111.427 116.02C110.844 116.02 110.274 116.194 109.789 116.52C109.304 116.846 108.926 117.309 108.703 117.851C108.48 118.393 108.422 118.989 108.536 119.565C108.649 120.14 108.93 120.668 109.342 121.083C109.755 121.498 110.28 121.781 110.852 121.895C111.424 122.009 112.016 121.951 112.555 121.726C113.094 121.502 113.554 121.122 113.878 120.634C114.202 120.146 114.375 119.573 114.375 118.986C114.374 118.2 114.063 117.446 113.51 116.89C112.958 116.334 112.208 116.021 111.427 116.02Z" fill="white"/>
<path d="M114.595 129.665H108.267C107.9 129.664 107.548 129.514 107.289 129.247C107.029 128.98 106.883 128.618 106.883 128.241C106.883 127 107.362 125.81 108.215 124.933C109.068 124.056 110.225 123.563 111.431 123.563C112.637 123.563 113.794 124.056 114.647 124.933C115.5 125.81 115.979 127 115.979 128.241C115.979 128.618 115.833 128.98 115.573 129.247C115.314 129.514 114.962 129.664 114.595 129.665ZM111.431 124.377C110.435 124.378 109.48 124.785 108.775 125.51C108.071 126.234 107.675 127.216 107.674 128.241C107.674 128.403 107.737 128.558 107.848 128.672C107.959 128.787 108.11 128.851 108.267 128.851H114.595C114.752 128.851 114.903 128.787 115.014 128.672C115.125 128.558 115.188 128.403 115.188 128.241C115.187 127.216 114.791 126.234 114.086 125.51C113.382 124.785 112.427 124.378 111.431 124.377V124.377Z" fill="white"/>
<defs>
<linearGradient id="paint0_linear_48_8105" x1="6.78471" y1="14.1118" x2="98.6038" y2="-114.365" gradientUnits="userSpaceOnUse">
<stop stop-color="#560BAD"/>
<stop offset="0.520833" stop-color="#B5179E"/>
<stop offset="1" stop-color="#F72585"/>
</linearGradient>
<linearGradient id="paint1_linear_48_8105" x1="6.78471" y1="166.514" x2="274.609" y2="134.756" gradientUnits="userSpaceOnUse">
<stop stop-color="#560BAD"/>
<stop offset="0.520833" stop-color="#B5179E"/>
<stop offset="1" stop-color="#F72585"/>
</linearGradient>
<linearGradient id="paint2_linear_48_8105" x1="7.50297" y1="15.9019" x2="8.89109" y2="-3.40813" gradientUnits="userSpaceOnUse">
<stop stop-color="#560BAD"/>
<stop offset="0.520833" stop-color="#B5179E"/>
<stop offset="1" stop-color="#F72585"/>
</linearGradient>
<linearGradient id="paint3_linear_48_8105" x1="52.0177" y1="71.9443" x2="70.1622" y2="67.9967" gradientUnits="userSpaceOnUse">
<stop stop-color="#560BAD"/>
<stop offset="0.520833" stop-color="#B5179E"/>
<stop offset="1" stop-color="#F72585"/>
</linearGradient>
<linearGradient id="paint4_linear_48_8105" x1="52.3738" y1="82.6782" x2="80.474" y2="70.6418" gradientUnits="userSpaceOnUse">
<stop stop-color="#560BAD"/>
<stop offset="0.520833" stop-color="#B5179E"/>
<stop offset="1" stop-color="#F72585"/>
</linearGradient>
<linearGradient id="paint5_linear_48_8105" x1="53.5372" y1="120.817" x2="71.4665" y2="116.428" gradientUnits="userSpaceOnUse">
<stop stop-color="#560BAD"/>
<stop offset="0.520833" stop-color="#B5179E"/>
<stop offset="1" stop-color="#F72585"/>
</linearGradient>
<linearGradient id="paint6_linear_48_8105" x1="53.9131" y1="132.198" x2="83.4696" y2="120.677" gradientUnits="userSpaceOnUse">
<stop stop-color="#560BAD"/>
<stop offset="0.520833" stop-color="#B5179E"/>
<stop offset="1" stop-color="#F72585"/>
</linearGradient>
<linearGradient id="paint7_linear_48_8105" x1="130.096" y1="119.995" x2="148.24" y2="116.047" gradientUnits="userSpaceOnUse">
<stop stop-color="#560BAD"/>
<stop offset="0.520833" stop-color="#B5179E"/>
<stop offset="1" stop-color="#F72585"/>
</linearGradient>
<linearGradient id="paint8_linear_48_8105" x1="130.472" y1="131.437" x2="160.028" y2="119.915" gradientUnits="userSpaceOnUse">
<stop stop-color="#560BAD"/>
<stop offset="0.520833" stop-color="#B5179E"/>
<stop offset="1" stop-color="#F72585"/>
</linearGradient>
<linearGradient id="paint9_linear_48_8105" x1="129.338" y1="73.5259" x2="147.267" y2="69.1374" gradientUnits="userSpaceOnUse">
<stop stop-color="#560BAD"/>
<stop offset="0.520833" stop-color="#B5179E"/>
<stop offset="1" stop-color="#F72585"/>
</linearGradient>
<linearGradient id="paint10_linear_48_8105" x1="129.694" y1="84.9092" x2="158.739" y2="73.8503" gradientUnits="userSpaceOnUse">
<stop stop-color="#560BAD"/>
<stop offset="0.520833" stop-color="#B5179E"/>
<stop offset="1" stop-color="#F72585"/>
</linearGradient>
<linearGradient id="paint11_linear_48_8105" x1="206.674" y1="71.1807" x2="225.502" y2="66.9136" gradientUnits="userSpaceOnUse">
<stop stop-color="#560BAD"/>
<stop offset="0.520833" stop-color="#B5179E"/>
<stop offset="1" stop-color="#F72585"/>
</linearGradient>
<linearGradient id="paint12_linear_48_8105" x1="207.03" y1="82.6221" x2="236.587" y2="71.1006" gradientUnits="userSpaceOnUse">
<stop stop-color="#560BAD"/>
<stop offset="0.520833" stop-color="#B5179E"/>
<stop offset="1" stop-color="#F72585"/>
</linearGradient>
<linearGradient id="paint13_linear_48_8105" x1="21.7822" y1="86.9493" x2="48.1126" y2="84.6229" gradientUnits="userSpaceOnUse">
<stop stop-color="#F7BA2C"/>
<stop offset="1" stop-color="#EA5459"/>
</linearGradient>
<linearGradient id="paint14_linear_48_8105" x1="98.3445" y1="89.2364" x2="124.675" y2="86.9101" gradientUnits="userSpaceOnUse">
<stop stop-color="#F7BA2C"/>
<stop offset="1" stop-color="#EA5459"/>
</linearGradient>
<linearGradient id="paint15_linear_48_8105" x1="175.661" y1="86.9493" x2="201.992" y2="84.6229" gradientUnits="userSpaceOnUse">
<stop stop-color="#F7BA2C"/>
<stop offset="1" stop-color="#EA5459"/>
</linearGradient>
<linearGradient id="paint16_linear_48_8105" x1="21.7822" y1="136.525" x2="48.1126" y2="134.199" gradientUnits="userSpaceOnUse">
<stop stop-color="#F7BA2C"/>
<stop offset="1" stop-color="#EA5459"/>
</linearGradient>
<linearGradient id="paint17_linear_48_8105" x1="99.1025" y1="134.998" x2="125.433" y2="132.672" gradientUnits="userSpaceOnUse">
<stop stop-color="#F7BA2C"/>
<stop offset="1" stop-color="#EA5459"/>
</linearGradient>
</defs>
</svg>
