<svg width="220" height="180" viewBox="0 0 220 180" fill="none" xmlns="http://www.w3.org/2000/svg">
<path d="M143.043 134.511C112.893 134.511 88.3644 110.109 88.3644 80.1147C88.3644 50.1207 112.893 25.7188 143.043 25.7188C146.231 25.7184 149.412 25.9926 152.552 26.5385C152.591 26.5452 152.629 26.5595 152.662 26.5807C152.696 26.6018 152.725 26.6293 152.748 26.6616C152.771 26.694 152.787 26.7305 152.796 26.769C152.804 26.8076 152.805 26.8475 152.798 26.8865C152.792 26.9254 152.777 26.9626 152.756 26.9959C152.734 27.0293 152.707 27.0581 152.674 27.0808C152.641 27.1034 152.605 27.1195 152.566 27.128C152.527 27.1365 152.487 27.1374 152.448 27.1304C149.342 26.5907 146.196 26.3195 143.043 26.3198C113.226 26.3198 88.9686 50.452 88.9686 80.1147C88.9686 109.777 113.226 133.91 143.043 133.91C172.86 133.91 197.118 109.777 197.118 80.1147C197.131 66.7075 192.099 53.781 183.012 43.8801C182.958 43.8212 182.93 43.7435 182.934 43.6642C182.938 43.5849 182.974 43.5103 183.033 43.4568C183.092 43.4033 183.169 43.3752 183.249 43.3786C183.329 43.3821 183.404 43.4168 183.458 43.4751C192.647 53.4867 197.736 66.5577 197.722 80.1147C197.722 110.109 173.193 134.511 143.043 134.511Z" fill="url(#paint0_linear_48_8190)"/>
<path d="M167.151 44.3762C173.126 44.3762 177.97 39.5577 177.97 33.6139C177.97 27.67 173.126 22.8516 167.151 22.8516C161.176 22.8516 156.333 27.67 156.333 33.6139C156.333 39.5577 161.176 44.3762 167.151 44.3762Z" fill="url(#paint1_linear_48_8190)"/>
<path d="M165.675 39.2133C165.488 39.2133 165.304 39.17 165.137 39.0869C164.97 39.0038 164.824 38.8831 164.712 38.7344L161.761 34.8195C161.666 34.6937 161.597 34.5506 161.558 34.3983C161.519 34.246 161.51 34.0875 161.532 33.9319C161.555 33.7763 161.608 33.6265 161.688 33.4913C161.769 33.356 161.875 33.2378 162.002 33.1435C162.128 33.0492 162.272 32.9805 162.425 32.9415C162.578 32.9025 162.737 32.8939 162.894 32.9161C163.05 32.9384 163.201 32.991 163.337 33.0711C163.473 33.1512 163.591 33.2572 163.686 33.383L165.617 35.944L170.576 28.5437C170.754 28.2806 171.029 28.0982 171.342 28.0366C171.654 27.9749 171.978 28.039 172.243 28.2147C172.508 28.3905 172.692 28.6636 172.755 28.9742C172.818 29.2849 172.755 29.6076 172.579 29.8718L166.676 38.6802C166.569 38.8395 166.426 38.971 166.257 39.0637C166.089 39.1564 165.901 39.2076 165.708 39.2129C165.697 39.2131 165.686 39.2133 165.675 39.2133Z" fill="white"/>
<path d="M141.634 71.6735L124.952 25.5028L125.375 25.3515L122.307 16.8595L121.883 17.0109L116.761 2.83508C116.57 2.30563 116.276 1.81884 115.895 1.40252C115.515 0.986197 115.056 0.64849 114.544 0.408679C114.033 0.168867 113.478 0.031648 112.914 0.00485937C112.349 -0.0219293 111.784 0.0622361 111.252 0.252548L81.093 11.0372C80.5608 11.2275 80.0715 11.5202 79.653 11.8986C79.2345 12.277 78.895 12.7337 78.654 13.2427C78.4129 13.7516 78.2749 14.3028 78.248 14.8648C78.2211 15.4268 78.3056 15.9886 78.4969 16.518L82.0684 26.4023L81.3999 26.6583L83.6797 32.5479L84.2149 32.3428L84.6882 33.6529L84.1188 33.8711L86.3986 39.7606L86.8347 39.5935L103.37 85.3565C103.56 85.8866 103.854 86.3741 104.234 86.791C104.615 87.2079 105.074 87.546 105.586 87.786C106.098 88.0259 106.652 88.163 107.217 88.1892C107.783 88.2155 108.347 88.1306 108.88 87.9392L139.038 77.1546C140.112 76.7691 140.989 75.9756 141.475 74.9481C141.962 73.9205 142.019 72.7429 141.634 71.6735Z" fill="#3F3D56"/>
<path d="M107.296 86.4177C106.872 86.4168 106.458 86.2858 106.11 86.0425C105.763 85.7992 105.5 85.4555 105.356 85.058L80.2202 15.493C80.0351 14.9807 80.0622 14.4161 80.2954 13.9236C80.5287 13.4311 80.9491 13.051 81.4641 12.8668L87.8809 10.5721L87.8713 10.7955C87.8549 11.1832 87.9345 11.569 88.1032 11.9189C88.2719 12.2687 88.5245 12.572 88.8388 12.8018C89.1531 13.0317 89.5193 13.1812 89.9053 13.237C90.2913 13.2929 90.6852 13.2535 91.0523 13.1222L105.293 8.02982C105.637 7.87314 105.939 7.63816 106.174 7.3439C106.41 7.04963 106.572 6.70434 106.649 6.33597C106.725 5.97373 106.713 5.59883 106.615 5.24184C106.518 4.88485 106.337 4.55591 106.087 4.28184L105.936 4.11558L112.565 1.74524C113.08 1.56183 113.647 1.58912 114.142 1.82112C114.637 2.05313 115.019 2.47092 115.205 2.98287L139.186 69.3537C139.676 70.7134 139.603 72.2106 138.984 73.517C138.365 74.8234 137.251 75.8323 135.885 76.3224L107.996 86.2957C107.772 86.3762 107.535 86.4175 107.296 86.4177V86.4177Z" fill="white"/>
<path d="M104.837 37.0782C109.342 37.0782 112.994 33.4453 112.994 28.9639C112.994 24.4825 109.342 20.8496 104.837 20.8496C100.333 20.8496 96.6808 24.4825 96.6808 28.9639C96.6808 33.4453 100.333 37.0782 104.837 37.0782Z" fill="url(#paint2_linear_48_8190)"/>
<path d="M125.051 40.7618L96.8047 50.8627C96.7165 50.8944 96.6229 50.9086 96.5291 50.9043C96.4354 50.9 96.3434 50.8774 96.2585 50.8377C96.1736 50.798 96.0974 50.742 96.0342 50.673C95.971 50.604 95.9222 50.5232 95.8905 50.4354C95.8587 50.3475 95.8447 50.2543 95.8492 50.1611C95.8537 50.0678 95.8767 49.9764 95.9168 49.892C95.9569 49.8076 96.0133 49.7319 96.0829 49.6692C96.1524 49.6066 96.2337 49.5582 96.3221 49.5268L124.568 39.426C124.746 39.3629 124.942 39.3725 125.113 39.4529C125.284 39.5332 125.416 39.6776 125.479 39.8544C125.543 40.0313 125.534 40.2261 125.454 40.3962C125.374 40.5663 125.229 40.6978 125.051 40.7618V40.7618Z" fill="#408CD9"/>
<path d="M116.662 47.1668L107.371 50.4893C107.283 50.521 107.189 50.5351 107.095 50.5308C107.002 50.5265 106.91 50.5039 106.825 50.4642C106.74 50.4245 106.664 50.3685 106.601 50.2995C106.537 50.2304 106.489 50.1497 106.457 50.0619C106.425 49.9741 106.411 49.8809 106.416 49.7876C106.42 49.6944 106.443 49.603 106.483 49.5186C106.523 49.4342 106.58 49.3585 106.649 49.2959C106.719 49.2332 106.8 49.1847 106.888 49.1533L116.179 45.8309C116.357 45.7672 116.554 45.7765 116.725 45.8568C116.896 45.937 117.028 46.0816 117.092 46.2588C117.156 46.4359 117.147 46.6311 117.066 46.8014C116.985 46.9717 116.84 47.1032 116.662 47.1668V47.1668Z" fill="#408CD9"/>
<path d="M118.872 53.2821L109.581 56.6045C109.493 56.636 109.399 56.65 109.305 56.6456C109.212 56.6411 109.12 56.6184 109.035 56.5787C108.951 56.5389 108.874 56.483 108.811 56.414C108.748 56.345 108.7 56.2644 108.668 56.1767C108.636 56.0889 108.622 55.9959 108.627 55.9028C108.631 55.8097 108.654 55.7183 108.694 55.634C108.734 55.5497 108.79 55.474 108.859 55.4113C108.929 55.3486 109.01 55.3001 109.098 55.2686L118.389 51.9461C118.567 51.8825 118.763 51.8918 118.935 51.972C119.106 52.0522 119.238 52.1969 119.302 52.374C119.366 52.5512 119.357 52.7464 119.276 52.9167C119.195 53.0869 119.05 53.2184 118.872 53.2821V53.2821Z" fill="#408CD9"/>
<path d="M120.002 56.4154L110.711 59.7378C110.623 59.7696 110.529 59.7838 110.436 59.7795C110.342 59.7753 110.25 59.7526 110.165 59.7129C110.08 59.6733 110.004 59.6173 109.941 59.5483C109.877 59.4792 109.829 59.3984 109.797 59.3106C109.765 59.2227 109.751 59.1295 109.756 59.0362C109.76 58.943 109.783 58.8515 109.823 58.7671C109.863 58.6827 109.92 58.607 109.989 58.5444C110.059 58.4817 110.14 58.4333 110.229 58.4019L119.52 55.0795C119.608 55.0477 119.702 55.0336 119.795 55.0379C119.889 55.0421 119.981 55.0648 120.066 55.1045C120.151 55.1442 120.227 55.2001 120.29 55.2692C120.353 55.3382 120.402 55.419 120.434 55.5068C120.466 55.5946 120.48 55.6878 120.475 55.7811C120.471 55.8743 120.448 55.9658 120.408 56.0501C120.368 56.1345 120.311 56.2102 120.242 56.2729C120.172 56.3356 120.091 56.384 120.002 56.4154L120.002 56.4154Z" fill="#408CD9"/>
<path d="M122.959 48.3177L103.246 55.3668C103.158 55.3986 103.064 55.4127 102.971 55.4084C102.877 55.4042 102.785 55.3815 102.7 55.3418C102.615 55.3021 102.539 55.2462 102.476 55.1771C102.413 55.1081 102.364 55.0274 102.332 54.9395C102.3 54.8517 102.286 54.7585 102.291 54.6652C102.295 54.572 102.318 54.4806 102.358 54.3962C102.398 54.3118 102.455 54.2361 102.524 54.1734C102.594 54.1107 102.675 54.0623 102.764 54.0309L122.476 46.9818C122.564 46.9501 122.658 46.9359 122.752 46.9402C122.845 46.9445 122.937 46.9671 123.022 47.0068C123.107 47.0465 123.183 47.1025 123.247 47.1715C123.31 47.2405 123.359 47.3213 123.39 47.4091C123.422 47.497 123.436 47.5902 123.432 47.6834C123.427 47.7767 123.404 47.8681 123.364 47.9525C123.324 48.0369 123.268 48.1126 123.198 48.1753C123.128 48.2379 123.047 48.2863 122.959 48.3177V48.3177Z" fill="#408CD9"/>
<path d="M118.989 64.0183L115.616 65.2246C115.313 65.3326 114.98 65.3167 114.689 65.1802C114.398 65.0437 114.173 64.7979 114.065 64.4968C113.956 64.1957 113.972 63.8639 114.109 63.5745C114.246 63.285 114.493 63.0614 114.795 62.953L118.169 61.7466C118.471 61.6386 118.805 61.6546 119.096 61.7911C119.387 61.9276 119.611 62.1734 119.72 62.4745C119.829 62.7756 119.813 63.1073 119.676 63.3968C119.539 63.6863 119.292 63.9098 118.989 64.0183V64.0183Z" fill="#6C63FF"/>
<path d="M92.4076 10.7967C92.6667 10.7967 92.8767 10.5878 92.8767 10.33C92.8767 10.0722 92.6667 9.86328 92.4076 9.86328C92.1485 9.86328 91.9384 10.0722 91.9384 10.33C91.9384 10.5878 92.1485 10.7967 92.4076 10.7967Z" fill="white"/>
<path d="M192.062 140.464C192.491 138.837 193.521 137.43 194.946 136.524C195.087 136.434 194.94 136.221 194.799 136.311C193.318 137.256 192.249 138.722 191.807 140.417C191.764 140.578 192.02 140.625 192.062 140.464Z" fill="white"/>
<path d="M219.228 100.104L210.485 114.74L210.818 114.914L207.857 120.498L207.241 120.173L205.296 123.428L205.779 123.705L202.607 129.168L202.057 128.853L173.53 176.613C172.782 177.863 171.566 178.767 170.149 179.125C168.732 179.484 167.23 179.269 165.972 178.527L112.94 147.179C111.683 146.435 110.775 145.225 110.414 143.816C110.053 142.406 110.269 140.911 111.015 139.66L156.713 63.1509C157.461 61.901 158.677 60.9975 160.094 60.6385C161.511 60.2796 163.013 60.4947 164.271 61.2365L217.304 92.5848C218.56 93.3294 219.468 94.5392 219.828 95.9487C220.189 97.3583 219.973 98.8526 219.228 100.104V100.104Z" fill="#3F3D56"/>
<path d="M167.868 175.574L114.648 144.116C114.261 143.886 113.981 143.513 113.87 143.079C113.759 142.644 113.825 142.183 114.055 141.798L160.056 64.7797C160.287 64.3945 160.662 64.1161 161.098 64.0055C161.535 63.8948 161.998 63.9611 162.386 64.1897L215.605 95.6482C215.992 95.8777 216.272 96.2506 216.384 96.6851C216.495 97.1196 216.428 97.5803 216.198 97.966L170.197 174.984C169.967 175.369 169.592 175.648 169.155 175.758C168.718 175.869 168.255 175.803 167.868 175.574Z" fill="white"/>
<path d="M189.724 78.703C189.983 78.703 190.193 78.494 190.193 78.2362C190.193 77.9785 189.983 77.7695 189.724 77.7695C189.465 77.7695 189.255 77.9785 189.255 78.2362C189.255 78.494 189.465 78.703 189.724 78.703Z" fill="white"/>
<path d="M186.82 133.871L142.395 107.611C142.256 107.529 142.134 107.421 142.037 107.292C141.939 107.164 141.869 107.017 141.829 106.862C141.788 106.706 141.779 106.544 141.802 106.384C141.825 106.225 141.88 106.072 141.962 105.934C142.045 105.795 142.154 105.675 142.284 105.578C142.413 105.482 142.561 105.413 142.718 105.373C142.874 105.334 143.037 105.326 143.197 105.349C143.357 105.372 143.511 105.427 143.65 105.51L188.075 131.77C188.214 131.851 188.336 131.96 188.433 132.088C188.53 132.217 188.601 132.363 188.641 132.519C188.681 132.675 188.69 132.837 188.667 132.996C188.644 133.155 188.59 133.309 188.507 133.447C188.425 133.585 188.315 133.706 188.186 133.802C188.056 133.898 187.909 133.968 187.752 134.007C187.595 134.047 187.432 134.055 187.272 134.032C187.112 134.008 186.958 133.953 186.82 133.871H186.82Z" fill="#408CD9"/>
<path d="M169.082 129.805L154.469 121.167C154.331 121.085 154.209 120.977 154.113 120.848C154.016 120.72 153.946 120.574 153.906 120.418C153.866 120.263 153.858 120.101 153.881 119.942C153.904 119.783 153.958 119.63 154.04 119.492C154.123 119.354 154.232 119.234 154.361 119.138C154.49 119.042 154.637 118.972 154.794 118.932C154.95 118.893 155.113 118.884 155.272 118.907C155.432 118.93 155.585 118.984 155.724 119.066L170.337 127.704C170.475 127.786 170.596 127.894 170.693 128.023C170.79 128.151 170.86 128.297 170.9 128.453C170.939 128.608 170.948 128.77 170.925 128.929C170.902 129.088 170.848 129.241 170.765 129.379C170.683 129.516 170.574 129.637 170.445 129.733C170.316 129.829 170.169 129.899 170.012 129.939C169.856 129.978 169.693 129.987 169.534 129.964C169.374 129.941 169.22 129.887 169.082 129.805V129.805Z" fill="#408CD9"/>
<path d="M163.335 139.422L148.723 130.784C148.443 130.619 148.24 130.349 148.16 130.035C148.08 129.721 148.128 129.388 148.294 129.11C148.461 128.831 148.732 128.629 149.047 128.55C149.363 128.47 149.698 128.518 149.978 128.683L164.59 137.321C164.729 137.403 164.85 137.511 164.947 137.64C165.043 137.768 165.113 137.914 165.153 138.07C165.193 138.225 165.202 138.387 165.178 138.546C165.155 138.705 165.101 138.858 165.019 138.995C164.936 139.133 164.827 139.254 164.698 139.35C164.569 139.446 164.422 139.516 164.266 139.555C164.109 139.595 163.947 139.604 163.787 139.581C163.627 139.558 163.474 139.504 163.335 139.422V139.422Z" fill="#408CD9"/>
<path d="M160.393 144.349L145.78 135.711C145.641 135.63 145.52 135.521 145.423 135.393C145.326 135.264 145.255 135.118 145.215 134.962C145.175 134.807 145.166 134.645 145.189 134.486C145.212 134.326 145.267 134.173 145.349 134.035C145.432 133.897 145.541 133.776 145.67 133.68C145.8 133.584 145.947 133.514 146.103 133.475C146.26 133.435 146.423 133.427 146.583 133.45C146.743 133.474 146.896 133.528 147.035 133.61L161.648 142.248C161.787 142.33 161.909 142.438 162.006 142.566C162.103 142.695 162.174 142.841 162.214 142.997C162.254 143.153 162.263 143.315 162.24 143.475C162.217 143.634 162.163 143.787 162.08 143.925C161.998 144.064 161.888 144.184 161.759 144.281C161.629 144.377 161.482 144.447 161.325 144.486C161.168 144.525 161.005 144.533 160.845 144.51C160.685 144.486 160.531 144.432 160.393 144.349V144.349Z" fill="#408CD9"/>
<path d="M174.444 139.389L143.441 121.063C143.163 120.897 142.962 120.627 142.882 120.314C142.803 120.001 142.851 119.669 143.017 119.391C143.183 119.113 143.453 118.912 143.768 118.831C144.082 118.751 144.416 118.798 144.696 118.962L175.699 137.288C175.838 137.37 175.96 137.478 176.057 137.606C176.155 137.735 176.225 137.881 176.266 138.037C176.306 138.193 176.315 138.355 176.292 138.515C176.269 138.674 176.215 138.827 176.132 138.965C176.049 139.104 175.94 139.224 175.81 139.32C175.681 139.417 175.533 139.487 175.377 139.526C175.22 139.565 175.057 139.573 174.897 139.55C174.737 139.526 174.583 139.472 174.444 139.389V139.389Z" fill="#408CD9"/>
<path d="M168.549 162.667L163.243 159.531C162.768 159.249 162.424 158.791 162.288 158.257C162.152 157.724 162.234 157.158 162.517 156.684C162.799 156.211 163.26 155.869 163.796 155.732C164.332 155.596 164.901 155.678 165.377 155.958L170.683 159.095C171.159 159.376 171.504 159.834 171.64 160.368C171.777 160.902 171.695 161.469 171.412 161.942C171.129 162.416 170.668 162.759 170.131 162.895C169.594 163.031 169.025 162.949 168.549 162.667Z" fill="url(#paint3_linear_48_8190)"/>
<path d="M178.435 111.888C184.441 111.888 189.31 107.044 189.31 101.069C189.31 95.0939 184.441 90.25 178.435 90.25C172.429 90.25 167.56 95.0939 167.56 101.069C167.56 107.044 172.429 111.888 178.435 111.888Z" fill="url(#paint4_linear_48_8190)"/>
<path d="M0.129822 145.036H147.304V60.2724C147.303 59.6373 147.049 59.0284 146.598 58.5794C146.146 58.1303 145.534 57.8777 144.896 57.877H2.53781C1.8994 57.8777 1.28735 58.1303 0.835922 58.5794C0.384494 59.0284 0.130559 59.6373 0.129822 60.2724V145.036Z" fill="#404040"/>
<path d="M142.753 61.1875H4.67279V139.172H142.753V61.1875Z" fill="white"/>
<path d="M0.000915528 142.742V153.202C0.000910767 153.636 0.08676 154.065 0.253562 154.466C0.420364 154.866 0.664852 155.23 0.973066 155.537C1.28128 155.844 1.64719 156.087 2.04989 156.253C2.4526 156.419 2.88421 156.504 3.32009 156.504H57.6409V177.147H56.9193C56.8627 177.147 56.8066 177.158 56.7543 177.18C56.702 177.201 56.6544 177.233 56.6144 177.273C56.5744 177.313 56.5426 177.36 56.5209 177.412C56.4992 177.464 56.4881 177.52 56.4881 177.576V179.012C56.4881 179.068 56.4992 179.124 56.5209 179.176C56.5426 179.228 56.5743 179.275 56.6144 179.315C56.6544 179.355 56.702 179.387 56.7543 179.408C56.8066 179.43 56.8627 179.441 56.9193 179.441H90.6409C90.6975 179.441 90.7536 179.43 90.8059 179.408C90.8582 179.387 90.9058 179.355 90.9458 179.315C90.9859 179.275 91.0176 179.228 91.0393 179.176C91.0609 179.124 91.0721 179.068 91.0721 179.012V177.576C91.0721 177.52 91.0609 177.464 91.0393 177.412C91.0176 177.36 90.9859 177.313 90.9458 177.273C90.9058 177.233 90.8582 177.201 90.8059 177.18C90.7536 177.158 90.6975 177.147 90.6409 177.147H89.9193V156.504H144.24C144.676 156.504 145.108 156.419 145.51 156.253C145.913 156.087 146.279 155.844 146.587 155.537C146.895 155.23 147.14 154.866 147.307 154.466C147.473 154.065 147.559 153.636 147.559 153.202V142.742L0.000915528 142.742Z" fill="url(#paint5_linear_48_8190)"/>
<path d="M122.776 87.2702H57.387C56.9748 87.2702 56.5795 87.1073 56.288 86.8173C55.9965 86.5273 55.8328 86.1341 55.8328 85.724C55.8328 85.3139 55.9965 84.9206 56.288 84.6306C56.5795 84.3406 56.9748 84.1777 57.387 84.1777H122.776C123.189 84.1777 123.584 84.3406 123.875 84.6306C124.167 84.9206 124.331 85.3139 124.331 85.724C124.331 86.1341 124.167 86.5273 123.875 86.8173C123.584 87.1073 123.189 87.2702 122.776 87.2702V87.2702Z" fill="#408CD9"/>
<path d="M100.837 94.2489H79.3288C78.9165 94.2489 78.5212 94.0859 78.2297 93.796C77.9382 93.506 77.7744 93.1127 77.7744 92.7025C77.7744 92.2924 77.9382 91.8991 78.2297 91.6091C78.5212 91.3192 78.9165 91.1562 79.3288 91.1562H100.837C101.249 91.1562 101.645 91.3192 101.936 91.6091C102.228 91.8991 102.391 92.2924 102.391 92.7025C102.391 93.1127 102.228 93.506 101.936 93.796C101.645 94.0859 101.249 94.2489 100.837 94.2489V94.2489Z" fill="#408CD9"/>
<path d="M100.833 108.409H79.3248C78.9126 108.409 78.5172 108.246 78.2257 107.956C77.9342 107.666 77.7705 107.273 77.7705 106.863C77.7705 106.453 77.9342 106.059 78.2257 105.769C78.5172 105.479 78.9126 105.316 79.3248 105.316H100.833C101.245 105.316 101.641 105.479 101.932 105.769C102.224 106.059 102.388 106.453 102.388 106.863C102.388 107.273 102.224 107.666 101.932 107.956C101.641 108.246 101.245 108.409 100.833 108.409Z" fill="#408CD9"/>
<path d="M100.837 115.659H79.3287C79.1246 115.659 78.9225 115.619 78.7339 115.541C78.5453 115.463 78.374 115.35 78.2296 115.206C78.0853 115.062 77.9708 114.892 77.8927 114.704C77.8146 114.517 77.7744 114.316 77.7744 114.113C77.7744 113.91 77.8146 113.709 77.8927 113.521C77.9708 113.333 78.0853 113.163 78.2296 113.019C78.374 112.876 78.5453 112.762 78.7339 112.684C78.9225 112.606 79.1246 112.566 79.3287 112.566H100.837C101.041 112.566 101.243 112.606 101.432 112.684C101.62 112.762 101.792 112.876 101.936 113.019C102.08 113.163 102.195 113.333 102.273 113.521C102.351 113.709 102.391 113.91 102.391 114.113C102.391 114.316 102.351 114.517 102.273 114.704C102.195 114.892 102.08 115.062 101.936 115.206C101.792 115.35 101.62 115.463 101.432 115.541C101.243 115.619 101.041 115.659 100.837 115.659V115.659Z" fill="#408CD9"/>
<path d="M112.896 101.229H67.2623C66.8501 101.229 66.4548 101.066 66.1633 100.776C65.8718 100.486 65.7081 100.093 65.7081 99.6829C65.7081 99.2729 65.8718 98.8796 66.1633 98.5896C66.4548 98.2996 66.8501 98.1367 67.2623 98.1367H112.896C113.308 98.1367 113.703 98.2996 113.995 98.5896C114.286 98.8796 114.45 99.2729 114.45 99.6829C114.45 100.093 114.286 100.486 113.995 100.776C113.703 101.066 113.308 101.229 112.896 101.229V101.229Z" fill="#408CD9"/>
<path d="M121.684 130.509H113.874C113.173 130.509 112.501 130.232 112.006 129.739C111.51 129.245 111.231 128.577 111.231 127.879C111.231 127.182 111.51 126.513 112.006 126.02C112.501 125.527 113.173 125.25 113.874 125.25H121.684C122.385 125.25 123.057 125.527 123.553 126.02C124.049 126.513 124.327 127.182 124.327 127.879C124.327 128.577 124.049 129.245 123.553 129.739C123.057 130.232 122.385 130.509 121.684 130.509V130.509Z" fill="url(#paint6_linear_48_8190)"/>
<path d="M36.8256 111.425C44.3335 111.425 50.4198 105.37 50.4198 97.9008C50.4198 90.4318 44.3335 84.377 36.8256 84.377C29.3177 84.377 23.2314 90.4318 23.2314 97.9008C23.2314 105.37 29.3177 111.425 36.8256 111.425Z" fill="url(#paint7_linear_48_8190)"/>
<path d="M195.903 180.001H0.359573C0.264356 180.001 0.173135 179.963 0.105903 179.896C0.0386719 179.829 0.000915527 179.738 0.000915527 179.643C0.000915527 179.548 0.0386719 179.457 0.105903 179.39C0.173135 179.323 0.264356 179.285 0.359573 179.285H195.903C195.998 179.285 196.089 179.323 196.156 179.39C196.224 179.457 196.261 179.548 196.261 179.643C196.261 179.738 196.224 179.829 196.156 179.896C196.089 179.963 195.998 180.001 195.903 180.001V180.001Z" fill="url(#paint8_linear_48_8190)"/>
<path d="M73.6539 59.5331C73.9369 59.5331 74.1663 59.3049 74.1663 59.0234C74.1663 58.7419 73.9369 58.5137 73.6539 58.5137C73.3709 58.5137 73.1415 58.7419 73.1415 59.0234C73.1415 59.3049 73.3709 59.5331 73.6539 59.5331Z" fill="white"/>
<defs>
<linearGradient id="paint0_linear_48_8190" x1="91.2181" y1="126.36" x2="204.678" y2="116.997" gradientUnits="userSpaceOnUse">
<stop stop-color="#560BAD"/>
<stop offset="0.520833" stop-color="#B5179E"/>
<stop offset="1" stop-color="#F72585"/>
</linearGradient>
<linearGradient id="paint1_linear_48_8190" x1="156.898" y1="42.7635" x2="179.346" y2="40.911" gradientUnits="userSpaceOnUse">
<stop stop-color="#560BAD"/>
<stop offset="0.520833" stop-color="#B5179E"/>
<stop offset="1" stop-color="#F72585"/>
</linearGradient>
<linearGradient id="paint2_linear_48_8190" x1="97.1065" y1="35.8623" x2="114.031" y2="34.4657" gradientUnits="userSpaceOnUse">
<stop stop-color="#560BAD"/>
<stop offset="0.520833" stop-color="#B5179E"/>
<stop offset="1" stop-color="#F72585"/>
</linearGradient>
<linearGradient id="paint3_linear_48_8190" x1="162.436" y1="162.959" x2="172.361" y2="161.811" gradientUnits="userSpaceOnUse">
<stop stop-color="#F7BA2C"/>
<stop offset="1" stop-color="#EA5459"/>
</linearGradient>
<linearGradient id="paint4_linear_48_8190" x1="168.127" y1="110.267" x2="190.694" y2="108.405" gradientUnits="userSpaceOnUse">
<stop stop-color="#560BAD"/>
<stop offset="0.520833" stop-color="#B5179E"/>
<stop offset="1" stop-color="#F72585"/>
</linearGradient>
<linearGradient id="paint5_linear_48_8190" x1="3.30138" y1="179.441" x2="142.101" y2="129.828" gradientUnits="userSpaceOnUse">
<stop stop-color="#F7BA2C"/>
<stop offset="1" stop-color="#EA5459"/>
</linearGradient>
<linearGradient id="paint6_linear_48_8190" x1="111.524" y1="130.509" x2="124.767" y2="127.577" gradientUnits="userSpaceOnUse">
<stop stop-color="#F7BA2C"/>
<stop offset="1" stop-color="#EA5459"/>
</linearGradient>
<linearGradient id="paint7_linear_48_8190" x1="23.9409" y1="109.398" x2="52.1491" y2="107.07" gradientUnits="userSpaceOnUse">
<stop stop-color="#560BAD"/>
<stop offset="0.520833" stop-color="#B5179E"/>
<stop offset="1" stop-color="#F72585"/>
</linearGradient>
<linearGradient id="paint8_linear_48_8190" x1="5.12235" y1="179.947" x2="5.52604" y2="170.859" gradientUnits="userSpaceOnUse">
<stop stop-color="#560BAD"/>
<stop offset="0.520833" stop-color="#B5179E"/>
<stop offset="1" stop-color="#F72585"/>
</linearGradient>
</defs>
</svg>
