<svg xmlns="http://www.w3.org/2000/svg" width="427" height="397" fill="none" xmlns:v="https://vecta.io/nano"><style><![CDATA[.B{fill:#101063}.C{color-interpolation-filters:sRGB}.D{flood-opacity:0}]]></style><circle cx="218.75" cy="193" r="171.552" stroke="#0147a1" stroke-width=".896" stroke-dasharray="7.17 7.17"/><g filter="url(#A)"><circle cx="89.75" cy="89.981" r="53.75" fill="#fff"/></g><path d="M90.317 123.88c18.446-.593 33.95-25.681 19.19-40.022l-5.42-5.164c3.757 2.221 8.049 3.245 11.015 1.058v-.07c.057-.075.089-.167.089-.262s-.032-.187-.089-.262l-.407-1.849c0-.396-.407-.768-.733-.419-3.489 3.664-10.223 0-13.887-2.71a6.51 6.51 0 0 0 4.652.093 10.89 10.89 0 0 0 6.211-5.815c.837-2.024.465-4.35-2.047-4.652a10.47 10.47 0 0 0-5.711 1.163 15.05 15.05 0 0 0-4.047 3.489 11.81 11.81 0 0 0-1.721 1.535c.302-1.791 2.326-4.431 2.966-5.699a9.18 9.18 0 0 0 1.163-5.466c-.488-2.838-3.489-.686-4.908.082-.105.07-3.28 1.547-3.361 1.012a3.01 3.01 0 0 0-.581-1.407c-.394-.434-.881-.773-1.425-.99a3.86 3.86 0 0 0-1.715-.266c-3.105-.093-6.606 1.303-9.619.698h-.14c-1.245-.265-2.368-.931-3.198-1.896a.43.43 0 0 0-.674.093c-4.292 5.92 3.326 12.119 6.409 16.644l-.151.209c-.407.465-.802.954-1.163 1.431-1.012 1.163-1.989 2.326-2.966 3.606-7.176 7.979-15.748 15.609-14.062 27.286 1.617 11.991 15.248 18.911 26.332 18.551zm23.482-45.744a2.04 2.04 0 0 0 .384 1.163c-3.082 1.849-7.537.279-11.154-2.326 3.571 1.919 7.816 3.233 10.77 1.163zm-1.826 9.816a19.43 19.43 0 0 1 2.467 7.675c.276 2.703-.017 5.433-.862 8.015.105-.57.221-1.163.291-1.721a20.39 20.39 0 0 0-3.582-14.178c-2.326-3.489-5.269-6.35-7.944-9.479 3.094 3.012 7.374 5.943 9.63 9.665v.023zm-4.21-23.483c2.5-.163 3.233 1.535 2.326 3.652a8.83 8.83 0 0 1-.617 1.163c.373-1.768-.174-3.489-2.419-3.827a8.41 8.41 0 0 0-4.245.698c1.482-.973 3.187-1.553 4.955-1.686zm-9.724 6.083c.512-.454 1.012-.942 1.489-1.442a13.51 13.51 0 0 1 4.245-2.256c1.11-.432 2.302-.611 3.49-.523 3.117.454.767 4.652-.477 5.699a10.09 10.09 0 0 1-1.919 1.163 5.93 5.93 0 0 1-7.281-2.047l.454-.593zm-.582 3.28c-.384-.663-.896-1.233-1.314-1.873l.081-.058a7.07 7.07 0 0 1 1.279 1.931h-.047zm1.791-15.294c1.733-.849 1.396 1.372 1.303 2.326-.21 2.326-1.85 4.652-2.943 6.723.686-2.093 2.094-4.117 2.326-6.292.163-1.454-1.012-1.896-2.326-1.966.628-.233 1.151-.523 1.686-.791h-.047zm-8.141 0a3.65 3.65 0 0 1 .43 1.512c-.069-.542-.238-1.067-.5-1.547l.07.035zm-15.213 1.186a5.82 5.82 0 0 0-.163 1.826 7.86 7.86 0 0 1-.326-1.733s.43-3.222.884-2.722a4.65 4.65 0 0 0 1.093.861c-.377.149-.708.394-.961.71a2.33 2.33 0 0 0-.482 1.093l-.046-.035zm2.849 7.141c-1.163-2.012-3.489-7.153-.977-8.037a4.34 4.34 0 0 0-.721 1.791c0 .175.256.256.279.07a4 4 0 0 1 .895-1.966c.298-.035.598-.035.896 0h.081a3.92 3.92 0 0 0-.989 1.954c0 .033.01.065.03.091s.047.045.079.055.065.008.096-.004.057-.033.074-.061a3.21 3.21 0 0 1 1.093-1.942h.326c-.346.629-.593 1.308-.733 2.012-.058.175.221.244.279.07.221-.616.291-1.535.791-2.024h.488a12.06 12.06 0 0 0-.686 1.721c-.058.174.221.256.279.081a9.83 9.83 0 0 1 .721-1.779h.407c-.605 2.745 1.163 5.815 2.547 8.142a.44.44 0 0 0 .571.109.44.44 0 0 0 .185-.551c-1.256-2.105-3.082-5.129-2.326-7.688h.57v1.326a.15.15 0 0 0 .145.11.15.15 0 0 0 .145-.11v-1.291l.709-.07a3.49 3.49 0 0 1 .209 1.023v1.465a.15.15 0 0 0 .145.11.15.15 0 0 0 .145-.11 13.03 13.03 0 0 0-.081-1.78 4.12 4.12 0 0 0-.174-.756l.523-.07h.186a4.86 4.86 0 0 1 .419 2.245c0 .186.314.186.291 0 .025-.795-.114-1.587-.407-2.326l.616-.116c.512.372.558 2.001.57 2.408a.15.15 0 0 0 .054.079c.026.02.058.03.091.03s.065-.011.091-.03a.15.15 0 0 0 .054-.079c.021-.795-.118-1.586-.407-2.326a.14.14 0 0 0 .105 0c.802-.116.954 1.989 1.082 2.512 0 .186.326.105.279-.081-.163-.675-.267-2.501-1.163-2.687l.512-.093c0 .081 0 .163.128.151.721 0 1 2.198 1.163 2.71 0 .186.326.105.279-.081a17.56 17.56 0 0 0-.558-2.035 1.58 1.58 0 0 0-.558-.803l.605-.07c.633.712 1.016 1.61 1.093 2.559 0 .186.314.186.291 0a5.21 5.21 0 0 0-1-2.594h.733a4.49 4.49 0 0 1 1.163 2.617c0 .186.314.186.291 0a5.32 5.32 0 0 0-1-2.594c.299.03.594.084.884.163a4.21 4.21 0 0 1 .698 2.535.14.14 0 0 0 .22.105c.006.081.006.163 0 .244 0 .175.256.256.291.07a4.79 4.79 0 0 0-.163-2.326 2.89 2.89 0 0 1 .826 1.71 13.96 13.96 0 0 1-2.117 6.339.43.43 0 0 0 .744.43 14.92 14.92 0 0 0 2.21-6.432h.186c.28.861.463 1.75.547 2.652 0 .186.302.186.291 0a12.59 12.59 0 0 0-.547-2.698h.174a6.7 6.7 0 0 1 .861 2.477c0 .186.314.105.279-.07a8.7 8.7 0 0 0-.64-2.152c.71.372.733 1.465.744 2.187a.15.15 0 0 0 .145.11.15.15 0 0 0 .091-.031c.026-.02.045-.048.054-.079 0-.919-.093-2.233-1.163-2.547l.675-.186a2.2 2.2 0 0 1 1.163 1.954.15.15 0 0 0 .145.11.15.15 0 0 0 .091-.031c.026-.02.045-.048.054-.079.004-.409-.091-.814-.278-1.178a2.54 2.54 0 0 0-.792-.915l.163-.058.442-.07c.536.431.959.986 1.233 1.617.093.174.337 0 .256-.14a5.13 5.13 0 0 0-1.082-1.524c.135-.012.272-.012.407 0a2.61 2.61 0 0 1 .903.771 2.62 2.62 0 0 1 .47 1.09c0 .186.326.105.291-.081a3.18 3.18 0 0 0-1.105-1.791c1.035 0 1.907.442 1.593 1.873a16.68 16.68 0 0 1-1.407 3.664 8.14 8.14 0 0 0-1.093 4.955 14.34 14.34 0 0 1-13.527 1.5c-1.291-1.907-2.803-3.617-4.199-5.42l-.047-.035zm15.062 6.269a24.88 24.88 0 0 1 .861 1.163 6.26 6.26 0 0 0-1.023-1.163h.163zm-1.163.488l-.07-.07.07.07zm-1.675.302a31.72 31.72 0 0 1 7.49 14.585c-2.815-4.815-5.432-9.735-8.432-14.434l.942-.151zm-2.733.256c-1.454 3.233-2.582 6.746-4.338 9.828.454-3.489 1.163-7.06 3.489-9.84l.849.012zm-4.42-.628l.175.058a11.36 11.36 0 0 0-.407.849 3.96 3.96 0 0 1 .267-.907h-.035zm-.5.57c0-.221.116-.454.186-.675h.058a6.65 6.65 0 0 0-.221.675h-.023zm-.105-.803a2.92 2.92 0 0 1-.081.302c.006-.108.006-.217 0-.326l.081.023zm-4.443 5.059c0 .523-.081 1.058-.093 1.582.07-.558.093-1.07.128-1.582h-.035zm-2.408 4.501a.15.15 0 0 0 .054.079c.026.02.058.03.091.03s.065-.011.091-.03a.15.15 0 0 0 .054-.079 15.77 15.77 0 0 0-.128-1.663c.067-.102.141-.199.221-.291.07.489.105.983.105 1.477a.15.15 0 0 0 .145.11.15.15 0 0 0 .091-.031c.026-.02.045-.048.054-.079a9.17 9.17 0 0 0-.151-1.791l.291-.384v1.489a.15.15 0 0 0 .054.079c.026.02.058.03.091.03s.065-.011.091-.03a.15.15 0 0 0 .054-.079c0-.605 0-1.163-.07-1.814l.198-.256c0 .593.07 1.163.07 1.779a.15.15 0 0 0 .054.079c.026.02.058.03.091.03s.065-.011.091-.03a.15.15 0 0 0 .054-.079c0-.71 0-1.419-.082-2.128l.419-.523v1.977a.15.15 0 0 0 .145.11.15.15 0 0 0 .091-.031c.026-.02.045-.048.054-.079v-.663c0 .163.291.163.291 0 0-.709.07-1.407.139-2.105l.163-.175v1.407a.15.15 0 0 0 .145.11.15.15 0 0 0 .145-.11v-1.71l.198-.221v2.222a.15.15 0 0 0 .054.079c.026.02.058.03.091.03s.065-.011.091-.03a.15.15 0 0 0 .054-.079v-2.535l.291-.337v1.814a.15.15 0 0 0 .145.11.15.15 0 0 0 .091-.031c.026-.02.045-.048.054-.079v-2.175l.209-.267a9.28 9.28 0 0 1-.116 1.605c0 .186.256.256.291.081.097-.674.136-1.355.116-2.035l.407-.5v1.431a.15.15 0 0 0 .145.11.15.15 0 0 0 .091-.031c.026-.02.045-.048.054-.079a12.3 12.3 0 0 1 .081-1.849 22.79 22.79 0 0 0 .849-1.163l.116-.14c-.016.005-.031.014-.044.025a.13.13 0 0 0-.031.04c-.008.015-.012.032-.013.049s.001.034.007.05l.07.128c-.02.373-.075.742-.163 1.105-.007.037-.001.075.019.108s.05.056.086.067c.011.028.031.051.056.068s.054.025.084.025.059-.009.084-.025a.15.15 0 0 0 .056-.068v-.163c0 .081.186.116.233 0a1.34 1.34 0 0 0 .07-.198l-.174.442c-.07.174.209.244.279.07l.139-.337a.15.15 0 0 0 .087-.087c.008-.02.011-.041.01-.062s-.006-.042-.016-.061a7.93 7.93 0 0 1 .442-.965c.008-.016.013-.034.013-.052s-.004-.036-.013-.052h.128a7.48 7.48 0 0 1-.581 1.279c-.093.163.163.314.256.151.248-.431.451-.887.605-1.361l.267.058a5.51 5.51 0 0 0-.756 1.384c0 .128.093.198.198.163a.15.15 0 0 0 .134.081.15.15 0 0 0 .134-.081c.256-.454.465-.93.768-1.361.014-.018.022-.041.022-.064s-.008-.046-.022-.064h.349a3.99 3.99 0 0 1-.512.989c-.105.151.14.302.256.151a4.37 4.37 0 0 0 .547-1.093h.407c-2.64 3.385-3.117 7.642-3.629 11.829 0 .477.593.535.814.221 2.477-3.489 3.733-7.921 5.525-11.84 3.489 5.397 6.374 11.107 9.677 16.585.221.349.861.233.814-.221a31.4 31.4 0 0 0-7.688-16.934l.337-.081v.14c.001.025.01.049.024.07a.14.14 0 0 0 .197.035c.314.361.675.686.977 1.058.116.151.326-.058.209-.198s-.163-.174-.244-.267c.019-.011.035-.027.046-.047a.13.13 0 0 0 0-.128c-.011-.02-.027-.036-.046-.047a5.32 5.32 0 0 1-.465-.582c.498.296.902.728 1.163 1.245.081.163.337 0 .244-.151a3.2 3.2 0 0 0-1.279-1.384h.163a5.43 5.43 0 0 1 1.163 1.233c.105.14.302 0 .209-.186a6.25 6.25 0 0 1 .349.547c.081.163.337 0 .244-.151-.329-.615-.719-1.195-1.163-1.733a5.05 5.05 0 0 1 1.501 1.907c.081.163.337 0 .244-.151-.336-.727-.829-1.37-1.442-1.884h.081c.523.64 1.268 1.082 1.489 1.942.017.028.044.049.074.061a.15.15 0 0 0 .175-.051.15.15 0 0 0 .03-.091c-.221-.884-.954-1.338-1.5-1.989l.139-.07a3.49 3.49 0 0 1 1.559 2.14c.07.175.349.093.291-.081-.242-.891-.79-1.669-1.547-2.198l.174-.093a9.48 9.48 0 0 1 1.687 2.326c.093.163.349 0 .244-.14a10.06 10.06 0 0 0-1.675-2.326l.302-.163a20.93 20.93 0 0 1 1.512 2.233c.081.163.326 0 .256-.151l-.14-.221a.15.15 0 0 0 .067.034c.025.005.05.005.075-.002s.046-.02.064-.038.031-.04.039-.064l.163.198a6.3 6.3 0 0 1-.616 1.256c-.105.163.151.302.244.151a7.73 7.73 0 0 0 .384-.686 4.54 4.54 0 0 1-.628 1.605c-.105.163.151.303.244.151.404-.626.651-1.34.721-2.082l.081.093a2.92 2.92 0 0 1 .151.256 4.34 4.34 0 0 1-.721 2.652c-.105.151.151.291.256.14a4.35 4.35 0 0 0 .744-2.396l.186.267a5.16 5.16 0 0 1-.698 2.326c-.093.163.163.314.256.151a6.13 6.13 0 0 0 .721-2.14l.279.419a21.12 21.12 0 0 1-.977 2.768c-.07.174.221.256.279.081.291-.838.71-1.675.93-2.535l.186.244a5.59 5.59 0 0 1-1.163 2.722c-.116.151.082.361.198.209a5.89 5.89 0 0 0 1.163-2.629l.175.233a5.51 5.51 0 0 1-1.163 2.768c-.128.139.081.349.209.209.613-.78 1.014-1.706 1.163-2.687.117.151.221.302.338.442a5.95 5.95 0 0 1-1.28 2.617c-.128.151.081.349.198.209.631-.739 1.081-1.615 1.314-2.559l.14.163a13.18 13.18 0 0 1-1.384 3.094c-.105.151.139.302.244.151a12.68 12.68 0 0 0 1.349-2.977c5.06 6.048 11.189 11.363 11.55 19.9.13 4.806-1.284 9.527-4.036 13.469-3.304 4.873-8.444 7.188-14.074 8.141-9.828 1.722-21.47-1.837-26.925-10.386.733.175 1.442.535 2.117.768.186.058.256-.221.082-.291a19.04 19.04 0 0 0-2.408-.803c-.105-.186-.233-.348-.337-.535a6.51 6.51 0 0 1 1.279.547c.163.093.302-.163.14-.256a8.65 8.65 0 0 0-1.617-.663c-.081-.163-.151-.337-.233-.5 1.012.442 2.059.826 3.059 1.314.174.082.326-.162.151-.244-1.163-.546-2.326-.954-3.408-1.477-.128-.267-.279-.535-.395-.814a24.86 24.86 0 0 1 3.943 1.768c.174.081.326-.175.151-.256a24.03 24.03 0 0 0-4.21-1.838c-.263-.645-.488-1.305-.675-1.977-1.628-5.92 2.082-11.736 5.42-16.283 1.675-2.326 3.408-4.652 5.164-6.897.111.526.188 1.058.233 1.593zm-9.7 10.468c1.597-3.154 3.646-6.057 6.083-8.618l-2.896 3.92a28.47 28.47 0 0 0-4.652 8.816 22.66 22.66 0 0 1 1.512-4.082l-.047-.035zm-2.059 10.107c0 .233 0 .465.081.698a12.51 12.51 0 0 0 .582 2.326h-.105a.12.12 0 0 0-.075.026c-.021.017-.036.041-.041.067a17.26 17.26 0 0 1-.395-3.082l-.047-.035zm4.303 10.468a17.1 17.1 0 0 1-3.838-7.293c.03.011.063.011.093 0h.209c0 .128.081.245.14.373-.025.01-.046.028-.061.051s-.023.049-.023.076a.14.14 0 0 0 .023.077c.015.023.036.041.061.051l.186.105c.116.256.233.512.361.756-.027.028-.042.066-.042.105a.15.15 0 0 0 .042.104h.093c1.994 3.566 4.819 6.598 8.235 8.84 5.257 3.559 11.805 4.652 18.016 4.175a24.81 24.81 0 0 0 11.248-3.489c-10.433 8.211-26.042 5.955-34.695-3.838l-.046-.093zm14.496-1.218c.163 0 .465.093 1.047.186.942.114 1.873.312 2.78.593v.663c-.116 1.535-.151 2.652.477 3.105a9.47 9.47 0 0 0 2.326.21c.884 0 1.163-.07 1.268-.221.384-.396.384-1.35.221-3.35 0-.303 0-.558-.058-.733.596-.35 1.218-.653 1.861-.907a10.06 10.06 0 0 0 2.117-1.093c.781-.62 1.386-1.434 1.753-2.36a5.69 5.69 0 0 0 .34-2.921c-.512-2.861-3.292-5.222-5.92-6.362l.081-7.525a11.51 11.51 0 0 1 3.489 1.07l.547.267.081-.605c.361-2.78.267-2.931-.14-3.047s-.64-.128-1.058-.198c-1.163-.174-2.838-.442-2.826-1.245v-.5c.174-1.791.14-2.326-.151-2.594-.081-.081-.302-.279-2.14-.279-1.489 0-1.64.151-1.756.256-.5.488-.349 1.361-.186 2.326s.256 1.558-.07 1.64c-3.245.814-5.42 2.966-5.699 5.618s1.431 5.199 4.431 6.641c1.861.896 1.547 4.292 1.279 6.979 0 .674-.116 1.314-.151 1.896-1.68-.145-3.311-.636-4.792-1.443l-.43-.232-.384.907c-.395.942-.64 1.5-.384 2.047s.826.814 2.047 1.21zm-.93-2.908a13.59 13.59 0 0 0 5.187 1.361h.465v-.454c0-.651.081-1.442.163-2.326.279-3.001.64-6.734-1.78-7.886-2.652-1.279-4.164-3.489-3.931-5.815s2.117-4.117 5.036-4.85c1.163-.279.907-1.593.721-2.652a3.6 3.6 0 0 1-.105-1.442 9.3 9.3 0 0 1 1.163-.058 11.94 11.94 0 0 1 1.512.081 14.1 14.1 0 0 1-.081 1.838 4.95 4.95 0 0 0 0 .582c0 1.547 2.047 1.873 3.571 2.105l.675.116c0 .233 0 .686-.139 1.57a12.07 12.07 0 0 0-3.664-.954l-.477-.058-.105 9.084.279.104c2.396.977 5.199 3.21 5.664 5.816a4.76 4.76 0 0 1-.303 2.487 4.77 4.77 0 0 1-1.523 1.991 10.68 10.68 0 0 1-1.884.942c-1.756.779-2.326 1.07-2.326 1.581a6.36 6.36 0 0 0 .058.931 12.42 12.42 0 0 1 0 2.605 6.11 6.11 0 0 1-.663 0 15.67 15.67 0 0 1-1.838-.093c-.178-.763-.206-1.553-.081-2.326v-.884c0-.651-.826-.884-3.489-1.303a9.22 9.22 0 0 1-.919-.162c-.721-.221-1.477-.489-1.593-.745s.116-.546.407-1.186z" class="B"/><g filter="url(#B)"><circle cx="89.75" cy="306.77" r="53.75" fill="#fff"/></g><path d="M99.675 338.925c5.788 0 11.75.468 17.512 0 2.54-.187 2.098-3.596 2.098-5.347.004-.059-.005-.118-.026-.173s-.053-.106-.094-.148a.45.45 0 0 0-.141-.091.43.43 0 0 0-.166-.029h-57.12c-.842 0-1.069 1.083-1.203 1.697-.535 2.567-.241 4.278 2.406 4.545 4.344.455 9.143-.454 13.528-.454h23.206zm-37.669-.682c-.749-.133-.602-1.577-.602-2.058 0-2.086 1.11-2.046 2.981-2.046h53.911c0 1.23.228 3.409-.909 3.797-1.471.22-2.967.22-4.438 0h-17.27c-9.705 0-19.463-.348-29.141.387a17.15 17.15 0 0 1-4.532-.08zm7.848-30.479v17.698c-1.684 0-1.885.789-1.885 2.486 0 3.382 6.323 1.912 8.515 1.912.668 0 2.446.294 2.78-.588.468-1.177.615-3.168-.709-3.743-.709-.321-.762 0-.775.2v-20.305c.03-.213.03-.429 0-.641 0 .093.214.254.668.254a.47.47 0 0 0 .241 0 2.67 2.67 0 0 0 1.026-1.457 2.68 2.68 0 0 0-.117-1.778c-.535-1.337-1.671-1.096-2.981-1.096-2.206 0-8.515-1.484-8.515 1.911 0 1.19 0 2.486 1.47 2.486a.52.52 0 0 0 .334-.093c-.008.071-.008.143 0 .214l-.053 2.54zm.495-3.73c-1.497 0-1.591-2.393-1.043-2.393h8.221a1.34 1.34 0 0 1 .736.294 1.33 1.33 0 0 1 .44.659 1.34 1.34 0 0 1-.468 1.44h-.949a.51.51 0 0 0-.355.144c-.095.092-.15.218-.153.351v21.387c.004.133.059.259.153.351a.51.51 0 0 0 .355.144c1.457 0 1.604 2.406.775 2.406h-8.395c-1.337 0-.909-2.406.682-2.406a.51.51 0 0 0 .355-.144c.095-.092.15-.218.153-.351v-21.361a.51.51 0 0 0-.035-.198.5.5 0 0 0-.276-.283c-.062-.026-.13-.04-.197-.04zm15.719 4.169v17.739c-1.684 0-1.885.788-1.885 2.486 0 3.369 6.323 1.912 8.528 1.912.655 0 2.433.294 2.781-.589.454-1.176.602-3.168-.722-3.756-.709-.307-.762 0-.762.214v-20.318a2.05 2.05 0 0 0-.067-.629c0 .094.214.254.668.254a.47.47 0 0 0 .241 0 2.67 2.67 0 0 0 1.026-1.456 2.68 2.68 0 0 0-.117-1.779c-.535-1.336-1.671-1.096-2.968-1.096-2.206 0-8.528-1.47-8.528 1.912 0 1.19-.067 2.486 1.484 2.486.115.008.228-.025.321-.093v.213 2.5zm.508-3.729c-1.497 0-1.604-2.393-1.043-2.393h8.208c.269.021.526.124.736.294a1.34 1.34 0 0 1 .44.659c.077.259.073.535-.01.792a1.34 1.34 0 0 1-.457.648h-.949c-.13.003-.254.056-.346.148a.51.51 0 0 0-.148.346v21.388a.51.51 0 0 0 .495.495c1.457 0 1.617 2.406.789 2.406h-8.408c-1.337 0-.896-2.406.695-2.406a.51.51 0 0 0 .495-.495v-21.388a.51.51 0 0 0-.454-.494h-.04zm15.973 3.73v17.738c-1.684 0-1.885.789-1.885 2.487 0 3.368 6.323 1.911 8.528 1.911.655 0 2.433.294 2.781-.588.454-1.176.601-3.168-.722-3.756-.708-.308-.762 0-.762.214v-20.319c.033-.208.033-.42 0-.628 0 .094.214.254.669.254.078.021.161.021.24 0a2.67 2.67 0 0 0 .909-3.235c-.535-1.337-1.671-1.096-2.981-1.096-2.205 0-8.515-1.484-8.515 1.912 0 1.189 0 2.486 1.471 2.486a.52.52 0 0 0 .334-.094v.214l-.067 2.5zm.508-3.73c-1.511 0-1.604-2.392-1.056-2.392h8.221c.269.021.526.124.736.294a1.34 1.34 0 0 1 .44.659 1.33 1.33 0 0 1-.011.792c-.083.257-.242.483-.457.647h-.949a.51.51 0 0 0-.346.149c-.092.092-.145.216-.148.346v21.388c.003.13.056.254.148.346s.216.145.346.148c1.457 0 1.618 2.407.789 2.407h-8.408c-1.337 0-.896-2.407.695-2.407.13-.003.254-.056.346-.148s.145-.216.148-.346v-21.388c-.003-.13-.056-.254-.148-.346a.51.51 0 0 0-.346-.149zm-32.484-14.529l-2.847 2.393c-.401.347-1.257.775-.815.775-.135 0-.264.053-.359.149a.51.51 0 0 0-.149.359v1.337.788a1.2 1.2 0 0 0-.559.083 1.18 1.18 0 0 0-.457.332c-.155.207-.264.444-.32.697s-.057.513-.004.766a1.82 1.82 0 0 0 .312.701c.153.208.348.382.573.509a.54.54 0 0 0 .147.094c.092.026.189.026.281 0h47.441c1.256 0 1.684-.508 1.684-1.805 0-.802-.307-1.069-.976-1.337s-.575-.107-.588.081v-2.139a.51.51 0 0 0-.144-.355c-.092-.095-.218-.15-.351-.153.428 0-.2-.254-.601-.588l-2.674-2.259-7.766-6.684-11.763-10.066a.52.52 0 0 0-.708 0l-11.376 9.545-7.98 6.777zm19.744-15.359l.722.615 3.208 2.673 9.477 8.101 7.713 6.59 1.511 1.337v2.245c.003.133.058.258.153.351a.51.51 0 0 0 .355.144c1.631 0 1.163 1.163-.201 1.163H66.349c-.749-.348 0-1.163.561-1.163.13-.003.254-.057.346-.149a.51.51 0 0 0 .148-.346v-1.898a.91.91 0 0 0 0-.321l1.337-1.109 7.579-6.39 13.996-11.843zM80.185 294.61a.47.47 0 0 0 .214.121c1.631.387 5.2.588 5.708-1.591.388-1.698-.802-2.607-2.206-2.941a1.44 1.44 0 0 0 .374-1.443c-.428-1.645-2.446-1.631-3.783-1.19a.51.51 0 0 0-.294.281c-.046.061-.07.137-.067.213-.201 2.032-.201 4.091-.214 6.136a.46.46 0 0 0 .072.247c.047.074.115.131.195.167zm.922-6.162c.325-.127.675-.177 1.023-.147a2.27 2.27 0 0 1 .982.321c.896.789-.709 1.337-1.337 1.497h-.2c-.548.107-.428 1.056.134.989h.134a4.66 4.66 0 0 1 2.058.08c.856.241 1.684 1.337.936 2.166s-2.807.695-4.01.454l.281-5.293v-.067zm6.418 5.987v-2.085l3.556-.201v2.286a.51.51 0 0 0 .83.305.51.51 0 0 0 .172-.305c0-2.018 0-7.78-3.542-6.791-2.299.642-2.152 5-2.165 6.791a.58.58 0 0 0 .574.575.58.58 0 0 0 .407-.168c.108-.108.168-.254.168-.407zm.882-5.347c.815-1.337 2.099 0 2.42.989a5.57 5.57 0 0 1 .267 1.056c-1.136 0-2.272.094-3.409.188a6.35 6.35 0 0 1 .722-2.206v-.027zm5.254 5.35l-.107-4.652c.802 1.564 1.444 3.235 2.179 4.825a.4.4 0 0 0 .095.143.41.41 0 0 0 .146.09c.054.019.113.026.17.02a.41.41 0 0 0 .163-.052.44.44 0 0 0 .361-.455v-6.603a.51.51 0 0 0-.501-.426.51.51 0 0 0-.501.426v4.224a28.06 28.06 0 0 0-2.246-4.478c-.024-.042-.056-.078-.094-.107h-.107a.31.31 0 0 0-.16 0 .48.48 0 0 0-.307.174.4.4 0 0 0 0 .281l.147 6.509c.042.06.096.11.158.147a.53.53 0 0 0 .205.067.5.5 0 0 0 .214-.023.51.51 0 0 0 .185-.11zm5.587-.003l-.08-2.673c.956.787 1.712 1.791 2.206 2.927.267.588 1.136 0 .868-.508a8.53 8.53 0 0 0-2.673-3.328 11.18 11.18 0 0 0 1.925-2.767c.254-.589-.615-1.096-.869-.508-.392.84-.911 1.615-1.537 2.299l-.08-2.045c0-.642-1.043-.642-1.003 0l.187 6.603c.094.642 1.096.642 1.056 0z" class="B"/><g filter="url(#C)"><circle cx="214.272" cy="192.999" r="55.542" fill="#fff"/></g><g class="B"><path d="M208.19 215.363l9.908-.086-.304-38.043-9.907.087.303 38.042zm.491-33.767c.592-.477 3.582-2.744 1.834-.823-.682.736-1.314 1.518-1.892 2.34l.058-1.517zm0 2.181h.13l2.759-2.08 1.444-.953a5.8 5.8 0 0 0 .722-.534l-.404.418a24.94 24.94 0 0 0-4.434 5.041c-.023.054-.028.113-.013.17a.26.26 0 0 0 .095.141c.046.035.104.053.163.052s.114-.023.159-.06l3.957-3.119-.332.346c-1.818 1.557-3.264 3.501-4.231 5.691l-.015-5.113zm0 5.893c.033.025.074.039.116.039a.19.19 0 0 0 .115-.039 39.22 39.22 0 0 1 3.308-3.279c-1.6 1.705-2.803 3.742-3.524 5.965l-.015-2.686zm0 3.134c.022.024.048.044.078.058s.063.02.095.02.066-.007.095-.02.057-.034.079-.058l3.466-3.871 1.04-1.069c-1.892 2.253-3.958 4.333-4.795 7.222l-.058-2.282zm0 2.989c.044.038.101.059.159.059s.114-.021.159-.059l3.856-4.332c.871-.896 1.808-1.727 2.802-2.485a.45.45 0 0 1 0 .116c-.372.552-.783 1.078-1.228 1.574-2.051 2.455-4.52 4.463-5.676 7.525l-.072-2.398zm8.435 4.535c-1.275.97-2.451 2.063-3.51 3.265l-1.574 1.906c-.159.217-.953 1.878-.737 1.054.78-3.134 4.044-5.387 5.777-7.987l.044 1.762zM217.043 178l.159 20.104c-.054-.033-.118-.044-.18-.03s-.117.05-.152.102c-1.993 3.005-5.777 5.547-6.181 9.359 0 .275.346.304.462.13 1.062-1.512 2.214-2.959 3.452-4.332.543-.592 1.117-1.157 1.718-1.69 1.575-1.445-.852 1.227-.809 1.184-1.906 2.412-4.202 4.333-5.502 7.221-.023.054-.028.114-.013.17a.26.26 0 0 0 .096.141c.047.035.103.054.162.052s.114-.022.159-.059l1.444-1.372a11.39 11.39 0 0 0-1.819 3.018c-.012.049-.009.1.008.147a.27.27 0 0 0 .086.119c.04.03.087.049.137.053s.1-.006.144-.03c2.094-1.343 3.466-3.466 5.517-4.867-.759.812-1.436 1.698-2.022 2.643a10.12 10.12 0 0 0-1.444 2.773c-.087.245.26.404.419.245.563-.534 1.098-1.083 1.617-1.632-.299.422-.574.861-.823 1.315a.26.26 0 0 0-.016.167c.013.056.044.106.089.142s.099.057.157.058a.26.26 0 0 0 .16-.05 27.39 27.39 0 0 1 2.34-1.935 26.3 26.3 0 0 0-1.748 2.282c-.173.217 0 .549.304.39.592-.347.852-.823.577 0-.101.318.39.448.491.13a2.65 2.65 0 0 0 .232-.939c0-.202-.159-.404-.362-.289l.073-.072a8.79 8.79 0 0 0 1.213-1.95c.023-.048.031-.103.021-.156s-.034-.101-.072-.139a.26.26 0 0 0-.14-.073c-.053-.009-.107-.001-.156.022a6.48 6.48 0 0 0-2.383 2.08c.693-1.3 1.791-2.326 2.499-3.626.13-.245-.202-.52-.405-.303l-1.747 1.777a47.87 47.87 0 0 1-1.156 1.227c-.707.766-.78.795-.202.101 1.115-1.74 2.381-3.378 3.784-4.896.13-.173-.086-.448-.289-.375-2.209.895-3.596 2.686-5.271 4.332-1.95 1.907-.564.145-.231-.404a15.95 15.95 0 0 1 1.834-2.224 31.03 31.03 0 0 0 2.888-3.423c.174-.246-.187-.506-.39-.318l-3.784 3.842a6.14 6.14 0 0 0-1.184 1.444c.442-.874.985-1.693 1.618-2.441 1.733-1.891 3.353-3.883 4.853-5.964l.101 13.359h-8.377l-.13-15.887c.044.024.094.037.144.037a.31.31 0 0 0 .145-.037 39.25 39.25 0 0 0 3.784-3.813 21.09 21.09 0 0 1 1.935-1.834v.115l-.939 1.098c-2.094 2.441-4.145 4.853-4.809 8.088 0 .217.245.462.419.246 1.213-1.517 2.296-3.134 3.538-4.622.76-.893 1.645-1.672 2.629-2.311l-1.011 1.545c-2.022 2.889-4.795 4.969-5.46 8.565 0 .246.231.448.419.246 1.748-1.777 3.336-3.669 4.968-5.546.217-.246-.144-.607-.361-.362a145.72 145.72 0 0 1-3.668 4.203c-.549.607-.881 1.445-.563.275.287-.831.696-1.614 1.213-2.326 1.603-2.484 3.957-4.332 5.199-7.048.023-.048.031-.103.022-.156s-.034-.101-.072-.14a.26.26 0 0 0-.14-.072c-.053-.009-.108-.001-.156.022a12.88 12.88 0 0 0-3.38 2.744c-.924 1.04-2.686 2.802-2.889 4.159.809-3.971 4.536-6.831 6.803-9.994.144-.202-.144-.477-.347-.347a19.25 19.25 0 0 0-3.581 3.106c-.708.736-1.445 1.444-2.109 2.267s-1.271 1.444-.506 0c1.719-3.293 5.113-5.387 6.904-8.666.101-.202-.13-.491-.346-.346a27 27 0 0 0-3.886 3.264c-.967.982-2.888 2.657-3.264 3.914.881-3.539 4.333-6.153 6.427-9.07.174-.26-.187-.477-.404-.304a30.65 30.65 0 0 0-3.149 2.976c-.794.837-2.585 2.325-2.888 3.394.838-3.221 3.741-5.777 5.893-8.146.047-.046.075-.109.076-.175s-.023-.131-.069-.179-.109-.075-.176-.077-.13.024-.178.07l-3.279 2.773c-.635.549-1.227 1.141-1.834 1.733s-1.126 1.906 0-.188c1.343-2.657 4.073-4.491 5.878-6.802.046-.048.071-.112.07-.179s-.029-.129-.077-.175-.112-.071-.178-.07a.25.25 0 0 0-.176.077c-1.646 1.343-4.593 2.889-5.546 4.665 1.156-2.109 3.409-3.582 4.954-5.373.037-.045.058-.101.06-.159s-.017-.116-.052-.162a.26.26 0 0 0-.311-.083c-1.834.89-3.555 1.995-5.127 3.293a19.18 19.18 0 0 0 3.35-3.654c.13-.173-.086-.433-.288-.376-.718.247-1.402.582-2.037.997l-.664.477c-1.762 1.444.664-1.127.823-1.286s-.072-.578-.318-.39l-.462.347c-.043.029-.075.072-.091.122s-.014.103.004.152c-.192.231-.366.462-.52.694-.131.174-.243.363-.332.563v-2.369l8.16-.043zm39.026 39.114c-.036-.035-.081-.06-.13-.072h-.101c-1.604-.173-2.788-1.617-4.333-2.036a.38.38 0 0 0-.29.036c-.088.05-.153.133-.18.231a.38.38 0 0 0 .037.29c.05.088.133.153.231.179a11.17 11.17 0 0 1 2.671 1.445c-13.691.289-27.441 0-41.118 0-13.389 0-26.777-.13-40.166 0a.39.39 0 0 0-.315.382c0 .091.031.179.089.248s.138.118.226.135h39.444 41.884c-.805.359-1.591.759-2.354 1.199a.37.37 0 0 0-.127.506c.049.085.128.147.222.174a.38.38 0 0 0 .28-.03 31.11 31.11 0 0 1 3.972-1.878c.069-.026.129-.071.173-.13.008-.067.008-.135 0-.202.026-.082.029-.17.008-.254a.48.48 0 0 0-.123-.223zm-78.598-1.994v.433l9.734-.086-.115-14.819-9.359.073h-.376v9.763l.116 4.636zm8.868-13.764l.101 13.302-8.218.072v-4.333-9.026l8.117-.015zm36.438-.881l.073 9.749v4.65.39l9.734-.086-.116-14.819h-9.358l-.333.116zm.795 3.163c.037.006.075.003.11-.009s.067-.035.092-.063l1.632-1.546a30.88 30.88 0 0 0-1.791 2.672c-.04.052-.058.117-.05.182a.25.25 0 0 0 .276.215c.065-.008.124-.042.164-.093l1.776-1.445c-.825 1.17-1.559 2.401-2.195 3.683l-.014-3.596zm0 4.333c.055.022.117.022.173 0a25.78 25.78 0 0 0 2.094-2.253 21.09 21.09 0 0 0-2.267 3.971v-1.718zm1.531-6.846h6.629l.115 13.302h-8.218v-4.261c.039.032.088.049.138.049s.098-.017.137-.049l1.95-2.065c-.728 1.058-1.393 2.157-1.993 3.293-.031.054-.042.117-.03.178a.26.26 0 0 0 .434.139 23.98 23.98 0 0 0 3.192-3.321l-2.412 3.711a.26.26 0 0 0-.029.179c.011.061.045.116.094.155s.11.058.173.055.121-.028.166-.071l2.34-2.513a28.48 28.48 0 0 0-1.921 3.264c-.023.054-.027.114-.012.17a.26.26 0 0 0 .095.141c.047.035.104.053.162.052a.25.25 0 0 0 .159-.06l2.109-2.166a13.15 13.15 0 0 0-1.199 1.979c-.023.052-.029.111-.016.167s.044.106.089.142a.26.26 0 0 0 .157.058c.057.001.114-.016.16-.05l2.095-2.267-1.185 2.065a.26.26 0 0 0 .23.368c.057.001.114-.016.16-.05.679-.563 1.141-1.603.636-.246-.087.26.26.376.433.246v-.491c-.116.318.375.448.491.144v-.101c0-.231-.202-.375-.376-.289-.563.289.159-.187.333-.678.101-.26-.246-.39-.419-.246l-.419.347 1.285-2.297c.041-.051.059-.117.051-.182s-.042-.124-.094-.164a.24.24 0 0 0-.182-.05c-.065.008-.124.041-.165.093-.572.484-1.108 1.01-1.603 1.574.666-.882 1.256-1.819 1.762-2.802.116-.245-.216-.549-.404-.303l-3.076 3.495 3.827-6.152c.032-.058.041-.126.023-.19s-.059-.117-.117-.15a.25.25 0 0 0-.189-.023c-.064.017-.118.06-.15.117a42.32 42.32 0 0 1-3.77 4.853l3.972-6.254c.017-.028.028-.06.033-.093s.003-.066-.005-.098-.022-.063-.042-.089a.26.26 0 0 0-.166-.1.25.25 0 0 0-.098.005c-.032.008-.063.022-.089.042a.27.27 0 0 0-.066.073 61.18 61.18 0 0 1-5.229 6.47c1.445-2.426 3.178-4.665 4.709-7.048.187-.274-.26-.52-.434-.245-1.575 2.271-3.354 4.393-5.315 6.34.807-1.048 1.535-2.153 2.181-3.307l2.383-3.25c.188-.245-.187-.491-.39-.318a48.4 48.4 0 0 0-3.683 4.001 34.72 34.72 0 0 1 2.773-4.159c.188-.246-.187-.491-.389-.304l-2.051 1.676 1.444-1.965c.159-.231-.144-.447-.347-.346a7.7 7.7 0 0 0-1.444.924l.578-.939c.033-.035.053-.081.058-.13l-.029.015zm-.549 0c-.376.563-.708 1.141-1.026 1.733v-1.733h1.026zm-31.586-1.069v6.557l.072 8.348v.246l9.489-.073-.217-25.751h-4.332-4.824-.246v.245 4.925l.058 5.503zm.578 8.752c.059.027.125.033.188.017s.119-.052.158-.103a43.19 43.19 0 0 1 3.235-4.015 17.33 17.33 0 0 0-3.567 6.47l-.014-2.369zm4.419-18.876h3.9l.202 24.74-8.464.072v-2.686a.26.26 0 0 0 .318-.101l2.426-2.889a28.2 28.2 0 0 0-2.397 4.203c-.101.246.202.535.404.304l4.998-5.778a31.55 31.55 0 0 0-3.857 5.416.25.25 0 0 0-.05.183c.008.065.042.124.094.164s.117.058.182.05.124-.042.164-.093c1.134-.997 2.209-2.058 3.221-3.178l-1.603 2.513a.26.26 0 0 0-.029.179c.012.061.045.116.094.155s.11.058.173.055.121-.028.166-.071l1.979-2.094c.664-.65.505-.636 0 .202l-1.199 2.051a.26.26 0 0 0 .083.311c.047.035.104.053.162.052a.26.26 0 0 0 .16-.06l1.227-1.3c1.531-1.632 0 .145-.216.405s.245.52.447.26c.5-.612.868-1.32 1.084-2.08.008-.052.001-.105-.021-.153a.26.26 0 0 0-.104-.114c-.045-.027-.098-.039-.151-.035a.26.26 0 0 0-.143.057l-1.098 1.155c.33-.541.629-1.101.896-1.675.101-.203-.116-.506-.347-.347-.517.403-1 .847-1.444 1.329l.101-.159 1.863-2.715c.173-.246-.188-.492-.39-.304a34.5 34.5 0 0 0-4.044 4.189c1.199-1.95 2.888-3.597 3.972-5.662a.26.26 0 0 0-.083-.311c-.047-.035-.104-.053-.162-.052s-.115.023-.16.06c-2.247 1.892-4.131 4.178-5.56 6.745 1.606-3.18 3.68-6.101 6.152-8.666.217-.231-.13-.592-.346-.347-1.444 1.445-2.889 2.889-4.203 4.449-.592.635-1.141 1.3-1.69 1.964s-.664 1.444-.404.448c1.025-3.712 4.333-6.789 6.643-9.706.048-.046.076-.109.077-.175s-.023-.131-.069-.179-.109-.075-.176-.077-.13.024-.178.07c-1.517 1.444-2.961 2.889-4.333 4.333-.563.635-1.098 1.329-1.632 2.007-.896 1.17-.477.65-.26-.173.997-3.582 4.001-6.543 6.023-9.561.173-.26-.188-.477-.39-.303-2.119 1.833-3.92 4.005-5.33 6.427.693-1.055 1.445-3.033 2.253-4.405s1.82-2.745 2.759-4.088c.173-.26-.188-.462-.39-.303-1.444 1.17-4.651 3.279-4.925 5.127.419-2.888 3.12-5.401 4.607-7.784.13-.203-.13-.492-.346-.347-1.329.924-2.542 1.979-3.9 2.888-.274.174 0 .607.246.434a22.85 22.85 0 0 0 2.05-1.445 3.07 3.07 0 0 0 .463-.115l-.65.881c-1.502 1.752-2.553 3.844-3.062 6.095-.006.056.007.112.036.16s.073.085.125.107a.26.26 0 0 0 .163.01c.055-.014.103-.046.138-.089a21.35 21.35 0 0 1 2.975-3.481c.318-.303.665-.563.997-.838l-.332.477a21.22 21.22 0 0 0-3.626 7.438c-.005.056.007.112.036.16s.073.085.125.107.11.024.164.01a.26.26 0 0 0 .138-.089c1.071-1.706 2.243-3.345 3.509-4.911l.289-.303-.491.679c-1.82 2.455-3.842 5.098-4.333 8.174v-1.271-6.542-5.431-4.665l4.304-.144zm38.286-.219v4.925l.087 11.973.087 8.348v.376l9.734-.072-.216-25.997-9.72.086.028.361zm.838 11.685c.031.001.061-.004.089-.017s.051-.032.07-.056l3.163-3.61-.376.693a49.94 49.94 0 0 1-2.888 4.333l-.058-1.343zm8.334 13.114h-8.218v-7.973-2.758c1.444-1.315 2.614-2.773 3.87-4.203l-.909 1.242c-1.081 1.509-2.047 3.097-2.889 4.752-.13.245.202.548.39.303l2.152-2.484a10.11 10.11 0 0 0-2.34 5.271c0 .275.332.304.462.116l3.481-4.665c.769-.938 1.669-1.76 2.672-2.441a17.93 17.93 0 0 0-1.748 2.036c-2.007 2.456-4.217 4.709-5.098 7.843a.26.26 0 0 0 .021.153c.022.047.059.087.104.114a.27.27 0 0 0 .15.035.26.26 0 0 0 .144-.057c2.889-2.368 3.972-6.138 6.99-8.275 1.271-.896-.231.173-.592.563-.679.737-1.358 1.444-1.993 2.267-1.158 1.35-2.037 2.916-2.585 4.608-.013.054-.007.111.015.162a.26.26 0 0 0 .11.122c.049.027.105.038.16.031a.25.25 0 0 0 .148-.07l.347-.433a11.43 11.43 0 0 0-.78 1.834.26.26 0 0 0 .015.163c.023.051.061.094.11.121s.105.039.16.032.108-.032.148-.07c1.098-1.026 2.036-2.181 3.047-3.293a30.26 30.26 0 0 0-1.79 2.643c-.159.26.187.476.39.303a7.63 7.63 0 0 0 1.704-1.704c-.39.635-.809 1.213-1.156 1.863a.26.26 0 0 0-.029.179c.012.061.045.116.094.154a.27.27 0 0 0 .173.056c.062-.002.121-.028.167-.071.664-.578 1.646-2.239.549-.318-.024.044-.034.094-.03.144s.022.097.053.137a.25.25 0 0 0 .119.086.26.26 0 0 0 .146.009c.636-.159.145.187-.086.751-.116.303.375.433.491.144a2.75 2.75 0 0 0 .361-1.3c.011-.049.008-.099-.008-.147s-.047-.088-.087-.118-.087-.049-.137-.053-.1.006-.144.029a7.65 7.65 0 0 0 .491-1.025c.101-.246-.26-.405-.418-.246a8.45 8.45 0 0 0-.809 1.011c.332-.563.736-1.097 1.083-1.646.023-.049.031-.103.022-.156a.26.26 0 0 0-.213-.212c-.053-.01-.107-.002-.156.021a3.94 3.94 0 0 0-.722.477l-.491.419c.751-1.112 1.603-2.181 2.383-3.264.145-.203-.144-.506-.346-.347-1.597 1.406-3.08 2.937-4.434 4.578.317-.332 1.256-2.123 1.834-2.888.823-1.141 1.776-2.196 2.672-3.279.034-.05.049-.11.043-.17s-.032-.117-.075-.16-.099-.069-.159-.074-.12.009-.17.043c-.983.883-1.887 1.849-2.701 2.889-.462.606-2.282 3.755-.823.808 1.261-2.137 2.823-4.082 4.636-5.777l.029 11.165zm-.203-24.553l.102 12.637c-3.394 1.589-4.752 5.344-7.222 8.002-1.126 1.256.26-.91.52-1.445a21.19 21.19 0 0 1 2.542-3.437 39.59 39.59 0 0 0 3.51-4.535c.144-.217-.13-.462-.347-.347-2.494 1.709-4.584 3.942-6.124 6.543-1.213 1.704.361-1.358.304-1.242.453-.899.995-1.751 1.617-2.542 1.077-1.344 2.085-2.742 3.019-4.188.144-.232-.217-.52-.405-.304-.982 1.228-2.036 2.383-3.09 3.539l-.881.982c1.515-2.446 3.174-4.799 4.968-7.048.173-.246-.202-.491-.405-.304-2.296 2.08-4.101 4.637-6.297 6.817 1.735-1.931 3.193-4.094 4.333-6.427a12.22 12.22 0 0 1 .737-1.242l.838-1.025c.202-.246-.145-.607-.362-.361-.2.231-.388.472-.563.722l-1.141 1.444c-1.126 1.444-2.296 2.759-3.495 4.087.491-.534 1.444-2.888 2.181-3.986s1.271-1.776 1.935-2.643c.062-.065.116-.138.159-.216l.737-.954c.173-.231-.217-.505-.405-.303-1.141 1.228-3.394 2.889-4.015 4.333.867-2.036 2.629-3.697 3.828-5.532a.26.26 0 0 0-.191-.368c-.053-.009-.108-.001-.156.022-1.026.65-1.992 1.39-2.889 2.209a20.17 20.17 0 0 0 1.445-2.094c.144-.289-.289-.549-.448-.26-.664 1.257-1.589 2.354-2.354 3.539-.174.274.188.476.39.318l1.791-1.445c.621-.549 2.44-2.585 1.112-.751a26.96 26.96 0 0 0-3.178 4.882c-.04.052-.058.117-.05.182a.25.25 0 0 0 .094.165c.051.04.117.058.182.05s.124-.042.164-.094a38.01 38.01 0 0 0 1.936-1.805c-1.092 1.487-1.958 3.127-2.571 4.867l-.087-10.269 8.232-.173zm-66.45 19.242c1.757-.411 3.367-1.301 4.65-2.57-1.444 2.065-3.856 3.336-4.78 5.777-.087.231.202.361.375.289a24.92 24.92 0 0 0 5.445-3.308c-.843 1.542-1.947 2.925-3.264 4.088-.246.216.115.563.361.361 1.643-1.481 2.982-3.266 3.943-5.258.023-.053.027-.113.012-.169s-.048-.106-.095-.142a.25.25 0 0 0-.162-.051.26.26 0 0 0-.16.059 39.24 39.24 0 0 1-3.711 2.643c-.639.393-1.3.75-1.979 1.069l1.054-1.56c1.372-1.545 3.077-2.628 3.972-4.564.101-.216-.115-.491-.347-.346a18.49 18.49 0 0 0-1.935 1.444c-.448.346-4.073 2.99-2.094.708 1.372-1.589 3.062-2.759 3.9-4.738.101-.245-.102-.462-.347-.346a34.27 34.27 0 0 0-4.492 2.253c-.274.173 0 .606.26.433a27.06 27.06 0 0 1 3.813-1.95c-1.184 2.109-3.336 3.481-4.636 5.503-.024.038-.037.081-.037.126s.01.088.032.127a.26.26 0 0 0 .094.092c.039.021.083.032.128.03z"/><path d="M195.365 184.154a1.34 1.34 0 0 0 .383-.494c.086-.193.127-.404.117-.615s-.07-.417-.174-.6-.251-.341-.427-.457l-.433-.304a2.89 2.89 0 0 0 .65-1.27.13.13 0 0 0 0-.073v-.101c-.128-.192-.308-.342-.52-.433a1.18 1.18 0 0 0-.672-.078 1.19 1.19 0 0 0-.946.887c-.159.563.318.982.809 1.3a3.06 3.06 0 0 0-1.098 1.762c-.173 1.213 1.661.953 2.311.476zm-.39-3.755a2.19 2.19 0 0 1-.534 1.026l-.347-.246c-.808-.635.39-1.488.881-.78zm-.491 1.661l.203.13c.404.274.779.621.649 1.141s-1.776 1.184-1.834.245c-.029-.519.563-1.083.982-1.516zm4.595.91a3.21 3.21 0 0 0 .572-1.509c.058-.544-.025-1.094-.24-1.596-.462-.983-1.444-1.618-2.094-.448-.018.033-.027.07-.027.108s.009.075.027.108c-.04.006-.077.025-.106.053s-.047.066-.053.106c-.275 1.055-.838 2.095-.347 3.163s1.704.824 2.268.015zm-1.964-1.199c.117-.629.286-1.247.505-1.849.015-.047.015-.097 0-.144.032-.005.062-.019.087-.039a.19.19 0 0 0 .057-.077c.65-1.083 1.344.491 1.445 1.141.036.755-.2 1.498-.665 2.095a.69.69 0 0 1-.953.158c-.192-.147-.339-.346-.424-.573a1.29 1.29 0 0 1-.052-.712zm6.771-3.768c.304-.144 0-.578-.245-.448-.823.405-1.185 1.892-1.445 2.658-.476 1.238-.867 2.507-1.169 3.798-.041.004-.081.017-.116.039a.25.25 0 0 0-.085.086c-.021.036-.034.075-.036.116a.26.26 0 0 0 .02.12c.022.058.056.111.101.153a.4.4 0 0 0 .159.093c.032.019.069.03.106.033s.075-.003.11-.017a.24.24 0 0 0 .091-.063c.025-.028.044-.061.054-.098a28.28 28.28 0 0 1 .953-3.264c.231-.78.65-2.773 1.502-3.206zm-2.601 1.441c.172-.083.322-.205.44-.355a1.25 1.25 0 0 0 .239-.511c.009-.038.009-.077.001-.114s-.025-.073-.049-.103-.053-.055-.087-.073a.25.25 0 0 0-.11-.028c-.138-.025-.279-.003-.402.063a.62.62 0 0 0-.277.298.55.55 0 0 0-.168.313.56.56 0 0 0 .052.351c.011.036.03.069.054.097s.056.051.09.066.072.022.109.022.075-.01.108-.026zm1.577 4.333c.122-.306.122-.647 0-.953 0-.159 0-.404-.289-.347-.094.009-.186.039-.267.087a.64.64 0 0 0-.204.194.62.62 0 0 0-.1.262c-.014.094-.006.19.023.281-.032.055-.041.121-.025.183s.056.116.111.149c.174.39.549.679.751.144zm19.654 13.62l-.115.246a.25.25 0 0 0 .004.153c.018.049.051.091.095.12s.095.043.147.041.103-.021.144-.054a1.66 1.66 0 0 0 .588.452c.227.105.475.158.726.154.996 0 2.181-1.256 1.227-2.152-.722-.664-1.834-.173-2.484.549-.187-1.444 1.213-3.625 2.528-3.495-.015.037-.015.078 0 .116a.85.85 0 0 1 0 .101.27.27 0 0 0 .231.141c.048 0 .094-.014.135-.038s.074-.061.096-.103a.88.88 0 0 0 .115-.39.29.29 0 0 0-.03-.19c-.032-.057-.082-.103-.143-.128-2.036-.722-3.885 2.657-3.264 4.477zm2.499-.621c.722.997-.939 1.444-1.575 1.055-.159-.085-.293-.209-.39-.362.419-.606 1.488-1.357 1.965-.693zm2.788-2.889c-.794.736-2.123 3.033-1.098 4.058s2.773.072 3.149-1.112a3.71 3.71 0 0 0-.997-3.423c-.982-.968-1.863-.087-2.181.939-.101.318.39.448.491.13.26-.823.751-1.329 1.445-.578a3.44 3.44 0 0 1 .794 2.455c-.013.218-.071.43-.171.624s-.238.365-.407.503c-.447.347-1.444.578-1.819 0-.65-.867.505-2.715 1.141-3.307.245-.174-.116-.535-.347-.289zm6.097-.792a17.69 17.69 0 0 0-1.444 2.614c-.339.92-.827 1.779-1.444 2.542-.231.216.13.577.361.361 1.444-1.372 1.849-3.669 3.004-5.257.159-.275-.289-.52-.477-.26zm-1.981.968c.051-.006.098-.032.13-.072a.26.26 0 0 0 .067-.143c.007-.054-.003-.108-.028-.156s-.065-.086-.114-.11-.103-.033-.156-.024a1.43 1.43 0 0 0-.245.144c-.051.007-.098.033-.13.072-.046.037-.077.09-.087.147s0 .118.029.168.077.089.132.109a.24.24 0 0 0 .171-.005c.087-.014.159-.101.231-.13zm.969 4.549a1.76 1.76 0 0 0 .39-.418c.174-.275-.26-.52-.433-.246-.091.115-.198.217-.318.303-.26.203.101.564.361.361zm4.29-12.549a.26.26 0 0 0-.026.191c.016.064.057.12.113.156.462.318.707.621 1.314.549.308-.116.581-.31.791-.563a1.9 1.9 0 0 0 .408-.882 1.78 1.78 0 0 0-.491-1.141c.271-.216.505-.474.693-.765.578-1.444-1.199-2.686-1.849-1.025-.188.462.145 1.198.448 1.733l-.289.231c-.483.412-.864.931-1.112 1.516zm1.877-3.841c.549-.405.549.852.477 1.14a3.15 3.15 0 0 1-.505.564c-.146-.328-.267-.666-.361-1.011-.102-.332.144-.578.389-.693zm-.173 2.484c.332.476.549.736.072 1.328s-.808.376-1.227.087c.269-.556.665-1.04 1.155-1.415zm3.51 1.743c.559-.45 1.025-1.004 1.372-1.632.216-.376.563-1.04.419-1.444-.448-1.445-1.892-2.066-2.889-.694-.604.939-.975 2.009-1.083 3.12.087 1.213 1.401 1.257 2.181.65zm-1.445-1.777c.226-.611.496-1.205.809-1.776.491-.722 1.199-.635 1.676 0a1.2 1.2 0 0 1 .196.657c0 .234-.068.462-.196.657-.349.88-.999 1.607-1.835 2.051-1.068.52-.794-1.04-.606-1.589h-.044zm9.736-4.588c.303-.13 0-.563-.246-.447a6.8 6.8 0 0 0-2.715 3.148c-.852 1.444-1.444 3.105-2.47 4.521-.188.26.26.52.448.245.774-1.237 1.474-2.52 2.094-3.842.679-1.285 1.488-3.018 2.889-3.625zm-4.739 2.254c.008.031.023.061.042.086a.25.25 0 0 0 .165.094.24.24 0 0 0 .096-.007c.506-.101 1.199-.477.982-1.112-.026-.076-.067-.147-.12-.207a.6.6 0 0 0-.191-.144c-.073-.035-.152-.055-.232-.06a.62.62 0 0 0-.237.035c-.032-.022-.069-.037-.107-.043s-.078-.004-.116.007a.26.26 0 0 0-.101.057c-.029.026-.051.059-.066.095-.126.056-.247.123-.361.202-.041.034-.072.079-.086.131a.26.26 0 0 0 .097.282c.044.032.095.048.148.049a1.07 1.07 0 0 0 .087.535zm.505-.823c.044-.026.094-.039.145-.039a.28.28 0 0 1 .144.039c.159.144-.13.303-.376.39.007-.13.037-.257.087-.376v-.014zm1.922 5.313c-.021-.046-.054-.086-.096-.114s-.092-.042-.143-.042-.1.015-.142.042a.26.26 0 0 0-.096.114l-.332.765a.26.26 0 0 0 .023.281c.031.04.072.07.119.087s.098.019.147.008a1.46 1.46 0 0 0 .719-.246c.213-.145.384-.344.494-.577.022-.033.036-.071.04-.11s0-.079-.015-.116-.037-.069-.066-.096-.065-.044-.104-.054a.85.85 0 0 0-.548.058zm-39.198-16.682c-.167-.037-.339-.037-.506 0a.26.26 0 0 0-.173.317c.173 1.127 1.242.954 1.979.448.492-.418.871-.953 1.101-1.557s.303-1.255.213-1.895c.027-.021.049-.049.064-.08a.23.23 0 0 0-.064-.281.26.26 0 0 0-.13 0c-.881-.303-2.354.91-1.878 1.777.275.52.838.39 1.243.101l.245-.202c-.074.528-.289 1.027-.621 1.444-.347.39-1.213.968-1.531.462.033-.007.068-.007.101 0 .275 0 .275-.505-.043-.534zm1.097-1.445c-.361 0 .203-.722.26-.779a1.3 1.3 0 0 1 .752-.434v.174c-.073.433-.578 1.068-1.012 1.011v.028zm3.496 1.924c.447-.243.811-.613 1.048-1.063s.334-.959.281-1.465c-.13-.549-.708-1.329-1.213-1.17-.042-.015-.088-.015-.13 0a3.05 3.05 0 0 0-.964 1.015c-.238.409-.378.867-.408 1.339-.101.78.418 1.892 1.386 1.344zm-.78-1.748c.107-.452.309-.875.592-1.242.026.024.056.041.09.05a.22.22 0 0 0 .102.004c.034-.007.066-.023.093-.044a.21.21 0 0 0 .062-.082c.274-.535.765.751.708 1.068-.07.332-.21.644-.412.916a2.34 2.34 0 0 1-.758.659c-.795.332-.563-.997-.477-1.329zm3.539 4.359v.202c0 .065.026.128.072.174s.109.072.174.072.127-.026.173-.072.072-.109.072-.174a39.69 39.69 0 0 1 2.889-6.239.25.25 0 0 0 .028-.191c-.016-.065-.057-.121-.115-.156a.25.25 0 0 0-.191-.028c-.065.016-.121.058-.155.115l-.246.318c-.013.032-.02.066-.02.101s.007.069.02.101c-.966 1.772-1.792 3.616-2.47 5.517-.033 0-.065.007-.095.02s-.057.033-.079.058-.038.053-.048.085-.013.064-.009.097zm-36.612 24.712a2.34 2.34 0 0 0 1.014-1.059 2.35 2.35 0 0 0 .185-1.454 1.45 1.45 0 0 0-.314-.622c-.153-.179-.348-.317-.567-.403.306-.423.486-.924.519-1.445 0-1.14-1.198-.693-1.906-.231-.071.017-.135.052-.188.102l-.231.245c-.332.347.188.881.535.534.197-.222.431-.408.693-.548.635-.361 0 .664 0 .751a5.01 5.01 0 0 1-.303.447c-.242.036-.46.165-.609.359a.94.94 0 0 0-.186.681c-.004.077.016.153.057.219a.37.37 0 0 0 .172.146c.071.03.15.037.225.021s.144-.055.196-.111l.549-.549a1.31 1.31 0 0 1 .664.794c.13 1.343-1.126 1.704-2.123 1.358a.35.35 0 0 0 .047-.178.35.35 0 0 0-.051-.177.36.36 0 0 0-.134-.126.35.35 0 0 0-.18-.039 2.42 2.42 0 0 0-.649.101.37.37 0 0 0-.17.1c-.047.047-.08.106-.096.171s-.015.133.004.197.054.122.103.167a2.5 2.5 0 0 0 1.288.695c.489.098.996.047 1.456-.146zm3.119.029a3.7 3.7 0 0 0 1.683-1.387 3.71 3.71 0 0 0 .614-2.093c0-1.445-1.719-2.889-2.889-1.733-.03.021-.054.049-.071.082s-.025.069-.025.105.009.073.025.106.041.061.071.082a8.34 8.34 0 0 0-.736 2.181c-.232.924-.203 3.004 1.328 2.657zm-.78-2.888a10.22 10.22 0 0 1 .39-1.17c0-.144.13-.289.202-.433s.203-.159 0-.217a.26.26 0 0 0 .146-.003c.047-.015.089-.043.121-.081s.053-.084.059-.133-.001-.099-.022-.144c1.069-.491 1.877 1.372 1.632 2.311s-.939 2.21-1.936 2.267-.722-1.863-.592-2.397zm6.456-2.544c.062-.162.091-.333.087-.506 0-.053-.019-.104-.053-.144a.22.22 0 0 0-.135-.073c-.028-.004-.057-.002-.085.005s-.054.02-.077.038-.042.039-.056.064a.2.2 0 0 0-.027.081c-.345 1.305-.829 2.569-1.445 3.77l-.303.924-.188.636c-.173.548 0 .086.159.577-.027-.052-.071-.094-.125-.119s-.115-.029-.173-.013a.26.26 0 0 0-.143.097c-.035.048-.053.106-.05.165 0 .145.087.231.231.275.037.021.08.033.123.033s.085-.012.123-.033a5.77 5.77 0 0 0 .678-1.921c.434-1.228 1.084-2.383 1.445-3.654-.015-.159.014-.173.014-.202zm-2.124.553c.231.115.433-.26.202-.448h-.087c-.037-.021-.079-.033-.122-.033s-.086.012-.123.033h-.087c-.231.188-.029.563.217.448zm1.374 3.955c-.022.076-.022.156 0 .231 0 .275.317.304.447.13.04-.021.073-.052.095-.09s.035-.082.035-.126a.25.25 0 0 0-.035-.127c-.023-.039-.055-.069-.095-.09-.028-.036-.066-.064-.109-.081s-.09-.021-.136-.014a.26.26 0 0 0-.124.056.27.27 0 0 0-.078.111zm30.241-24.148a.49.49 0 0 0 .491.491c.131 0 .255-.052.348-.144a.49.49 0 0 0 0-.694c-.093-.092-.217-.144-.348-.144a.49.49 0 0 0-.491.491zm-.229-5.016c0-.097-.028-.192-.082-.272a.49.49 0 0 0-.504-.209c-.096.019-.183.066-.252.134a.49.49 0 0 0-.134.252.48.48 0 0 0 .028.283.49.49 0 0 0 .181.221c.08.054.175.083.272.083.131 0 .255-.052.348-.144a.49.49 0 0 0 .143-.348z"/></g><g filter="url(#D)"><circle cx="337" cy="306.77" r="53.75" fill="#fff"/></g><g class="B"><path d="M367.047 308.219h.22c.035-.006.068-.019.096-.039a.22.22 0 0 0 .067-.078c.016-.031.025-.066.025-.101s-.009-.069-.025-.1c.017-.029.026-.063.027-.096s-.009-.067-.025-.097a.19.19 0 0 0-.069-.072c-.029-.018-.062-.027-.096-.028a32.52 32.52 0 0 0-4.278-.204c-.045-.003-.089.012-.124.041s-.057.069-.063.114.002.087.026.123a.17.17 0 0 0 .104.072h-.554c-.228 0-.285.351-.057.4h.065c-.002.026.001.053.01.078s.023.049.042.068.041.034.066.044.051.014.078.013h4.294c.04-.001.079-.015.11-.04s.052-.059.061-.098zm-1.914 17.317h-.081a.2.2 0 0 0 .117-.071c.03-.036.046-.082.046-.129s-.016-.092-.046-.129-.071-.061-.117-.07l-.497-.057c-1.248-.591-2.605-.919-3.985-.962h-.073-.074a.21.21 0 0 0-.116.008c-.037.014-.069.039-.092.071s-.037.07-.039.11.008.078.027.113c-.016.025-.026.054-.03.084s0 .06.01.089.027.054.049.075a.2.2 0 0 0 .077.045l1.092.269c1.123.607 2.375.937 3.651.961a.21.21 0 0 0 .156-.03c.046-.031.078-.079.088-.133a.21.21 0 0 0-.03-.156c-.031-.045-.078-.077-.133-.088zm-13.118 12.91c.023.044.063.079.111.096a.2.2 0 0 0 .146-.004c.047-.019.085-.055.107-.101s.025-.098.011-.146l-.815-2.445c-.008-.031-.025-.06-.047-.083s-.051-.041-.083-.05-.064-.01-.096-.002a.19.19 0 0 0-.084.045l-.277-.521-.448-1.068s-.041-.04-.065-.057c-.035-.011-.072-.011-.106 0h-.041a.19.19 0 0 0-.072.033c-.021.015-.039.035-.052.058s-.022.049-.024.076.001.053.009.078v.228c-.016.027-.025.058-.025.09s.009.062.025.089l.204.677.106.415a21.57 21.57 0 0 0 .913 2.983c.015.052.05.095.097.121s.103.032.155.017.096-.05.122-.097.032-.103.017-.155c-.004-.022-.004-.044 0-.066a.22.22 0 0 0 0-.081c.004-.076.004-.152 0-.228.028.002.056-.001.082-.009s.051-.022.073-.04c0 .033.024.098.057.147zm-13.258-1.784c0 .122 0 .236-.057.35-.031-.038-.074-.064-.121-.073s-.098 0-.14.024a.2.2 0 0 0-.084-.035c-.031-.004-.062-.001-.091.01s-.055.028-.075.051-.036.05-.043.08c0 .171-.082.342-.114.505-.03.016-.054.04-.071.068a.18.18 0 0 0-.027.095v.457c-.426 1.035-.484 2.186-.163 3.259.012.042.038.08.073.106s.079.041.123.041a.2.2 0 0 0 .122-.041c.035-.026.061-.064.073-.106a1.17 1.17 0 0 0 0-.187c.073.163.342.195.375 0v-.049-.31c.003-.032.003-.065 0-.098a.17.17 0 0 0 .067-.037c.02-.016.036-.037.047-.06a3.08 3.08 0 0 0 .293-1.956l.098-1.019a.62.62 0 0 0 0-.122c.018-.047.018-.099 0-.147v-.725c0-.236-.244-.31-.285-.081zm-19.663 1.449c.038.012.077.012.115 0 0 .163.203.302.334.147v-.049l.228-.318c.034.003.069-.003.1-.017s.059-.036.079-.064c.179-.253.351-.513.505-.815.475-.551.853-1.18 1.117-1.858-.005-.013-.005-.027 0-.041.007-.026.007-.055 0-.081-.006-.039-.027-.074-.057-.098-.037-.012-.077-.012-.114 0 0-.122-.09-.195-.204-.195.008-.018.012-.038.012-.058s-.004-.039-.012-.057c.014-.024.022-.052.022-.081s-.008-.057-.022-.082c.003-.018.003-.038 0-.057a.21.21 0 0 0 .003-.156c-.02-.05-.059-.091-.109-.112s-.106-.023-.156-.003a.21.21 0 0 0-.113.108 7.35 7.35 0 0 0-.994 1.801c-.094.123-.181.251-.261.383a4.79 4.79 0 0 0-.595 1.125c-.014.036-.015.076-.003.113s.036.069.068.091a2 2 0 0 0-.065.203c0 .038.012.075.034.106s.053.053.088.065zm-9.33-16.254c-.047.014-.088.044-.114.085s-.038.091-.031.139.031.093.068.125.085.05.134.05h.13c.571.514 1.467.359 2.323 0 .77.1 1.553.025 2.29-.22a.2.2 0 0 0 .146-.195c0-.045-.014-.087-.041-.123a.2.2 0 0 0-.105-.073h-.066a.18.18 0 0 0-.034-.119c-.026-.035-.063-.059-.104-.068h-.065c-.004-.042-.022-.082-.052-.112s-.069-.048-.111-.051l.073-.049c.037-.024.065-.059.08-.1s.017-.085.006-.127-.037-.079-.072-.106-.076-.041-.12-.042c-1.458-.074-2.918.066-4.335.415-.171.049-.212.359 0 .392l.375.048c-.019.009-.037.021-.051.036s-.024.034-.031.054a1.93 1.93 0 0 0-.293.041zm-2.797-17.325h.424c-.004.043.007.086.031.121a.19.19 0 0 0 .099.075l.286.073c.007.029.022.055.042.077s.045.039.073.049a.2.2 0 0 0 .087.011.19.19 0 0 0 .083-.031h.065c.949.193 1.916.281 2.885.261.049 0 .096-.018.133-.05s.061-.076.068-.125-.004-.098-.03-.139a.2.2 0 0 0-.114-.085h.366a.21.21 0 0 0 .18-.139l.285-.073c.024-.005.046-.014.066-.028a.19.19 0 0 0 .05-.052c.013-.021.022-.044.026-.068s.002-.049-.004-.072a.13.13 0 0 0 0-.073c.022-.03.034-.065.037-.101s-.005-.073-.022-.105-.043-.059-.074-.077a.19.19 0 0 0-.104-.027h-1.255c-.4-.053-.805-.053-1.206 0h-.187c-.045.001-.089.018-.122.049l-2.119.155c-.039.01-.075.031-.102.062s-.044.068-.049.108.002.082.02.118a.2.2 0 0 0 .082.086zm11.402-18.394c-.177-.48-.467-.91-.846-1.253a3.17 3.17 0 0 0-1.33-.719c-.054-.015-.111-.008-.16.019a.21.21 0 0 0-.1.128l-.261-.302c-.163-.163-.448.049-.326.245s.236.342.359.513c-.036.009-.07.026-.097.051s-.048.056-.061.091-.015.072-.009.109.021.07.044.099l.131.098.203.171c-.038.004-.074.018-.104.041a.21.21 0 0 0-.068.09c-.014.036-.017.074-.009.112s.025.072.051.1l.497.423 1.581 1.231a.16.16 0 0 0 .114 0c.024-.002.047-.009.068-.021s.039-.026.054-.044v-.057c.028-.032.044-.072.044-.115s-.016-.082-.044-.114l-.073-.081c.026-.011.05-.028.069-.049s.034-.046.042-.073.011-.056.007-.084-.013-.055-.028-.079c.027-.035.043-.078.043-.123s-.016-.087-.043-.122l-.188-.203.098.089c.139.163.416.033.342-.171zm44.611 9.722c.057-.041.123-.074.18-.123.038-.026.065-.065.078-.11s.01-.093-.008-.135-.05-.078-.091-.101a.2.2 0 0 0-.134-.02c-.852.173-1.675.467-2.445.872-.791.228-1.558.534-2.29.912-.032.021-.059.051-.075.086a.2.2 0 0 0-.017.113c.006.038.021.075.046.105s.058.051.095.063c-.122.114-.089.375.123.35h.097a.16.16 0 0 0 .106 0h.082c.007.021.018.04.033.056s.032.029.052.038.041.014.063.015.043-.003.064-.011c.252-.081.497-.187.741-.285.813-.237 1.593-.574 2.323-1.002l.814-.277c.029-.009.055-.024.077-.043a.2.2 0 0 0 .05-.072c.011-.028.015-.057.013-.087a.21.21 0 0 0-.025-.084c.036-.031.061-.074.07-.121a.21.21 0 0 0-.022-.139zm-38.568 21.001a11.31 11.31 0 0 0 2.591 2.917c-.003.019-.003.038 0 .057l-.652.758-.815.969a32.77 32.77 0 0 0-2.852 3.154c-.027.047-.041.099-.041.153s.013.107.039.154a.3.3 0 0 0 .111.113c.046.027.098.043.152.044h3.895c.049.004.098-.006.141-.03a.27.27 0 0 0 .104-.1 23.04 23.04 0 0 0 2.624-3.585c4.033 2.004 9.11 2.363 12.989.684a12.58 12.58 0 0 0 1.238-.611l.041.041a13.9 13.9 0 0 1 3.137 3.887c.03.044.07.081.117.107s.099.039.152.039c1.149-.089 2.315-.089 3.472-.089.045-.001.089-.013.13-.033s.075-.05.103-.086.046-.078.055-.122.008-.09-.003-.134c.005-.044.002-.088-.011-.13s-.034-.081-.062-.115c-1.435-1.76-2.714-3.813-4.621-5.109 5.11-4.4 7.082-12.076 3.113-18.009a15.27 15.27 0 0 0-9.449-6.402c-3.859-.833-7.891-.139-11.249 1.937-6.552 4.196-8.964 13.038-4.449 19.541zm2.224 7.733h-3.121c.815-1.043 1.826-1.931 2.714-2.926a7.74 7.74 0 0 0 1.271-1.491 13.37 13.37 0 0 0 1.63 1.043c-.714 1.206-1.55 2.337-2.494 3.374zm20.739-3.211h-.073c-.031-.022-.066-.037-.103-.044a.27.27 0 0 0-.113.001.28.28 0 0 0-.102.048.27.27 0 0 0-.073.085c-.081.009-.156.047-.212.106-.057-.007-.115.002-.167.025s-.098.06-.132.106-.055.101-.061.158a.32.32 0 0 0 .026.167 7.08 7.08 0 0 0 .66.815c.367.521.709 1.051 1.027 1.63.033.051.081.091.137.115s.119.031.179.02a.32.32 0 0 0 .16-.084c.043-.042.073-.097.086-.157l.114-.041c.054.01.109.007.162-.008s.1-.044.139-.082c0 0 .058.074.082.123.171.309.619.081.554-.229l.636.815c-.954.074-2.665.245-2.861-.097a13.59 13.59 0 0 0-2.982-3.627 14.57 14.57 0 0 0 1.491-1.035v.041a9.06 9.06 0 0 1 1.426 1.149zm1.63-19.28c4.889 6.69.693 15.988-6.185 19.337-5.704 2.763-14.529.587-17.862-4.889-4.319-6.226-2.037-14.024 3.74-18.384 6.544-4.946 15.687-2.371 20.291 3.936h.016zm-23.199 13.769c3.847 5.264 11.914 6.698 17.423 3.414 5.215-3.105 6.462-10.471 4.188-15.752-1.173-2.705-3.593-4.506-6.242-5.614-3.716-1.565-7.489-1.63-10.976.44-5.427 3.863-8.695 11.612-4.393 17.512zm4.702-16.982c5.517-3.211 13.552-.856 16.379 4.954 2.445 5.028.669 11.857-3.968 14.913-5.117 3.381-12.411 1.523-16.298-2.836-4.783-5.37-1.206-13.413 3.887-17.031zm-11.096-24.772h.611a10.29 10.29 0 0 0 3.015-.244h.261a1.63 1.63 0 0 1 1.149.465c0 .782.041 1.556.122 2.322-.027 1.703.249 3.397.815 5.003.019.047.048.089.086.124a.32.32 0 0 0 .131.073.33.33 0 0 0 .288-.05.32.32 0 0 0 .159.071.33.33 0 0 0 .307-.134c.033-.049.053-.106.056-.165l-.571-4.971-.138-2.982a24.13 24.13 0 0 0 2.746-.335h.684c.05.002.099-.01.142-.033s.081-.058.107-.1.041-.09.043-.14a.27.27 0 0 0-.031-.142c.047-.003.092-.017.133-.04s.077-.054.104-.092a.32.32 0 0 0 .048-.267.3.3 0 0 0 .133-.162c.024-.069.022-.143-.004-.21s-.077-.122-.141-.156a.3.3 0 0 0-.208-.027l-.236.041a.31.31 0 0 0-.179-.057c-3.26.204-6.519.179-9.583 1.206-.07.028-.128.08-.163.147-.054.043-.091.102-.107.168a.31.31 0 0 0 .017.199.31.31 0 0 0-.057.146c-.007.053.001.106.021.155a.31.31 0 0 0 .095.125.3.3 0 0 0 .145.062zm11.373-.513l-.334.049c-.31.049-.277.514 0 .587h.097c-.021.058-.021.121 0 .179v.082l.229 1.499a30.02 30.02 0 0 0 .464 4.889.31.31 0 0 0-.147.133c-.032.06-.044.128-.033.195a.3.3 0 0 0 .278.251h.701a.27.27 0 0 0 .095.072c.036.017.076.026.117.026.619 0 1.238-.065 1.849-.139a16.11 16.11 0 0 0 2.388-.293c.039-.006.076-.023.106-.049h.171c.044-.005.085-.023.119-.053s.057-.067.068-.11a.32.32 0 0 0 .086-.152c.015-.057.013-.117-.004-.174l.579-.138a.31.31 0 0 0 .209-.336c-.01-.071-.044-.137-.097-.186s-.122-.078-.194-.081c-1.661.049-3.316.212-4.955.488 0-.228-.073-.456-.114-.676l-.171-1.54.416.049c.793.156 1.613.091 2.371-.188.074-.024.135-.076.171-.144a.3.3 0 0 0 .025-.222c.02-.01.039-.023.054-.04s.028-.037.035-.058c.039-.043.064-.096.072-.153a.29.29 0 0 0-.024-.167.3.3 0 0 0-.113-.126.29.29 0 0 0-.163-.043h-1.393-.75-.456a.3.3 0 0 0-.196.073h-.122c0-.358-.065-.709-.106-1.067s0-.929 0-1.394a.34.34 0 0 0 .13-.114c1.671.163 3.26-.432 4.89-.733.293-.049.269-.505 0-.587-.023-.047-.059-.086-.104-.114a.28.28 0 0 0-.149-.041.31.31 0 0 0 .013-.163.3.3 0 0 0-.208-.236.31.31 0 0 0-.163-.008l-.424.065c-.064.012-.122.047-.163.098-.381.107-.767.194-1.157.261-.351 0-.693.04-1.035.073h-.921l-1.573-.114a.28.28 0 0 0-.256.135c-.026.043-.039.094-.039.145s.015.1.043.144h-.041c-.038.01-.072.029-.102.054a.26.26 0 0 0-.069.092zm16.656 4.766c-.218-1.182-.611-2.324-1.165-3.39l-.766-1.891c-.016-.034-.039-.064-.067-.09a.29.29 0 0 0-.096-.057v-.065a.33.33 0 0 0-.123-.15c-.055-.036-.12-.055-.187-.054l-.049-.146c-.01-.039-.03-.076-.057-.106a.31.31 0 0 0-.113-.145c-.052-.035-.113-.054-.176-.054a.31.31 0 0 0-.175.054c-.052.036-.092.086-.114.145a.57.57 0 0 0-.294.051c-.092.043-.17.11-.228.193-.045-.013-.093-.016-.141-.009a.33.33 0 0 0-.131.051c-.04.026-.073.061-.098.102a.32.32 0 0 0-.045.133c0 .18-.057.351-.09.53-.07.063-.114.151-.122.245 0 .309-.049.619-.09.92l-.538 2.657-.122.921-.081.595a15.86 15.86 0 0 0-.228 2.086c.001.069.027.135.073.187v.375c0 .334.521.432.595.081v-.073c.049-.011.094-.038.127-.076s.055-.085.06-.136c0-.114.049-.236.065-.358.067-.01.128-.045.17-.098a.27.27 0 0 0 .058-.188l.041-1.23c0-.212.09-.424.131-.644.779.179 1.591.163 2.363-.049l.529 1.728c.016.069.058.13.117.169a.28.28 0 0 0 .201.043l.074.236c.017.073.06.137.122.18s.138.061.212.05.143-.047.191-.105.073-.131.069-.206v-.375c.03-.038.052-.081.065-.127a.34.34 0 0 0 .009-.142c0-.285-.09-.562-.147-.815s0-.383-.065-.562c.082-.023.152-.077.195-.149a.33.33 0 0 0 .041-.242zm-2.363-.986c-.415 0-.864.122-1.279.065h-.074l.775-3.627c.201 1.212.506 2.403.912 3.562h-.334zm7.946-5.491l-.35-.065h-.09c-.045-.036-.1-.059-.157-.066s-.116.002-.168.025-.099.061-.132.108a.32.32 0 0 0-.056.161l-.066 3.797a16.24 16.24 0 0 0 .318 3.765l.179 1.182c.066.366.489.269.587.04.019.055.055.103.104.134s.107.044.165.037c.027.005.055.005.082 0a.2.2 0 0 0 .114-.065c.032-.032.056-.071.073-.114-.005-.021-.005-.044 0-.065a10.8 10.8 0 0 0 .09-2.111c.022-.026.038-.058.047-.092s.009-.069.002-.103l-.229-2.559.449.921c.113.534.262 1.059.448 1.573.018.064.058.121.111.161a.31.31 0 0 0 .484-.161h.114c.195 0 .472-.139.375-.383v-.057c.004-.019.004-.039 0-.057-.004-.071-.004-.142 0-.212.407-.424.692-2.054.814-3.382l.245-.815c.174 2.555.641 5.082 1.393 7.53.09.326.644.277.595-.074v-.081c0-.139 0-.269-.057-.399.05.006.102.001.149-.017a.3.3 0 0 0 .124-.084c.034-.038.058-.083.07-.133a.3.3 0 0 0-.001-.149l-.22-.995a45.32 45.32 0 0 0-1.189-7.162.3.3 0 0 0-.124-.16c-.058-.038-.127-.054-.196-.046s-.133.038-.182.088-.078.114-.085.183c-.159-.055-.328-.076-.496-.064a1.25 1.25 0 0 0-.482.137c-.113.324-.201.656-.261.994-.452.823-.766 1.715-.929 2.64l-.717-1.711-.326-1.222c-.007-.04-.024-.078-.048-.111s-.055-.059-.092-.078-.076-.029-.116-.03a.29.29 0 0 0-.119.023c0-.04-.057-.057-.089-.081s0-.082 0-.131 0 0 0 0a.26.26 0 0 0 .077-.13.27.27 0 0 0-.005-.152c-.016-.049-.046-.092-.087-.124a.26.26 0 0 0-.14-.058z"/><path d="M341.78 293.624c-.004.016-.004.033 0 .049.007.034.02.065.04.093a.26.26 0 0 0 .074.07c2.876 2.062 5.704 4.507 9.086 5.631.033.014.069.022.106.022a.28.28 0 0 0 .106-.022c.07-.007.137-.039.187-.09 1.63-1.768 1.483-4.547.22-6.519.962-1.108 1.059-3.259-.456-3.944-1.247-.546-2.722.424-3.26 1.557-2.363-.237-5.183.953-6.103 2.982-.014.056-.014.115 0 .171zm10.178 2.592v.081l-.098-.065c.033.005.066.003.098-.008v-.008zm-1.378-6.829c1.426.057 1.28 2.078.669 2.95-.424-.54-.946-.994-1.541-1.337-.376-.201-.78-.35-1.197-.44a2.31 2.31 0 0 1 .873-.871 2.32 2.32 0 0 1 1.196-.302zm-2.183 1.793c.605.121 1.175.379 1.666.753s.891.855 1.169 1.406c-.297-.256-.668-.41-1.059-.44-.059.003-.116.022-.165.056s-.086.082-.108.137a.31.31 0 0 0 .061.329c-.018.041-.027.085-.027.13s.009.089.027.13c-.261 0-.424.408-.138.563l.081.04a.32.32 0 0 0-.142.118c-.035.052-.054.113-.054.176s.019.124.054.176.084.093.142.117h.049c-.033.04-.057.087-.068.137a.33.33 0 0 0 .001.153c.013.05.038.097.072.136s.077.069.125.088a7.97 7.97 0 0 1 .815.342 3.17 3.17 0 0 0-.472-.163c-.077-.014-.155.002-.22.043s-.113.105-.134.18-.012.154.023.223.095.122.168.149a5.82 5.82 0 0 1 1.58.815c-.009.066-.023.131-.04.195-.668-.318-1.337-.627-1.972-1.01a.3.3 0 0 0-.152-.038c-.053 0-.105.015-.15.043a.3.3 0 0 0-.109.112c-.025.046-.038.099-.037.152-.052.011-.099.037-.138.073s-.066.083-.08.134-.014.105 0 .156.041.097.079.134l.253.179c-.335-.065-.465.473-.114.595.635.244 1.214.611 1.841.872a3.95 3.95 0 0 1-.228.285c-3.194-1.084-5.867-3.374-8.573-5.338 1.133-1.98 3.879-2.648 5.974-2.338zm-28.866 3.864c-.929 2.159-.563 5.068 1.157 6.462.03.026.065.046.103.058a.31.31 0 0 0 .117.015c.041.018.085.027.13.027s.09-.009.131-.027c3.21-1.581 5.655-4.417 8.206-6.853a.33.33 0 0 0 .04-.074v-.065-.04c.008-.03.008-.061 0-.09v-.041c-1.279-2.037-4.074-2.616-6.429-2.078a2.81 2.81 0 0 0-3.406-1.198c-1.549.62-1.068 2.967-.049 3.904zm.195 3.528c-.004-.038-.004-.076 0-.114.048.012.099.012.147 0l-.147.114zm9.029-4.074c-2.444 2.322-4.734 4.97-7.757 6.519-.09-.082-.18-.163-.261-.253.603-.342 1.124-.815 1.735-1.133.326-.171.082-.627-.228-.554l.196-.187c.034-.042.058-.092.069-.145s.007-.108-.009-.16-.045-.099-.084-.137a.34.34 0 0 0-.139-.08c-.016-.051-.045-.097-.083-.135s-.084-.066-.136-.081-.105-.02-.158-.011a.34.34 0 0 0-.145.064c-.571.446-1.167.86-1.784 1.239l-.074-.187c.426-.402.909-.738 1.435-.995.358-.146.203-.741-.163-.586-.174.072-.343.157-.506.252a9.85 9.85 0 0 1 .815-.497c.042-.026.077-.063.101-.106s.037-.093.037-.142-.013-.099-.037-.142-.059-.08-.101-.107l.082-.049c.052-.032.093-.079.118-.135s.032-.118.02-.178a.3.3 0 0 0-.084-.159c-.044-.043-.1-.071-.16-.082l.057-.041a.32.32 0 0 0 .118-.151c.023-.062.026-.129.009-.193s-.053-.12-.104-.162-.112-.067-.178-.072a.31.31 0 0 0-.073-.22c.033-.053.051-.115.051-.177a.32.32 0 0 0-.054-.177.33.33 0 0 0-.14-.119.32.32 0 0 0-.183-.024c-.357.08-.68.271-.921.546a4.58 4.58 0 0 1 1.719-2.152c1.981-1.295 5.59-.839 7 1.052v.057zm-8.686-2.934a2.23 2.23 0 0 1 2.306.921 5.82 5.82 0 0 0-.897.375c-.684.381-1.248.946-1.629 1.629-.75-.863-1.052-2.493.22-2.958v.033zm12.877 25.695c.725-.081 1.222-1.206 1.516-1.752.472-.851.868-1.743 1.181-2.664h.122c.303-.029.59-.146.827-.335a1.56 1.56 0 0 0 .51-.733h4.001c.766 0 2.216 0 2.673-.758.912-1.54-6.446-.953-7.025-.912-.22-.147-.471-.242-.733-.277 0-1.247.481-7.18-.815-7.18-1.524 0-.937 6.52-.815 7.473-.23.17-.405.405-.503.675s-.112.562-.043.841c.035.171.108.332.212.472-.383 1.198-1.239 2.225-1.63 3.423-.22.464-.35 1.784.522 1.727zm7.391-6.731c.622-.019 1.245-.005 1.866.041.358 0 1.377.163.521.408-1.719.488-3.707.236-5.492.195v-.049a1.35 1.35 0 0 0-.049-.424l3.154-.211v.04zm-5.476-3.862c0-.685.049-1.369.114-2.046a7.23 7.23 0 0 1 .122-.814c.016-.098.041-.193.074-.286.225 1.046.302 2.119.228 3.187v3.112h-.114a1.44 1.44 0 0 0-.326.066 24.71 24.71 0 0 1-.098-3.219zm.424 3.748c.488-.04 1.254-.057 1.336.579.039.268-.023.541-.174.767a1.09 1.09 0 0 1-.641.455 1.23 1.23 0 0 1-.67-.034 1.24 1.24 0 0 1-.552-.381.88.88 0 0 1-.179-.451c-.017-.164.013-.329.086-.477s.187-.272.327-.359.302-.132.467-.131v.032zm-2.445 5.647a5.28 5.28 0 0 1 .595-1.458c.39-.659.743-1.34 1.059-2.037a2.19 2.19 0 0 0 .497.203c-.394 1.343-1.044 2.596-1.915 3.692-.293.334-.252-.139-.203-.432l-.033.032zm-5.892-3.991c.197.125.431.178.663.149a1.01 1.01 0 0 0 .608-.304 1.45 1.45 0 0 0 .448-.484 1.44 1.44 0 0 0 .188-.633c-.074-.668-.815-.627-1.345-.537-.047.007-.092.027-.13.057-.351.187-.815.537-.758.977-.002.145.026.288.082.422a1.05 1.05 0 0 0 .244.353zm.75-1.223c.148-.028.3-.028.448 0 .089 0 .098.049.098 0 0 .171-.172.391-.302.514-.07.082-.156.15-.252.199a.82.82 0 0 1-.31.086s-.09-.082-.106-.13c-.171-.343.122-.538.383-.669h.041zm8.15-10.26a.4.4 0 0 0 .049-.147c.09-.213.117-.449.077-.677a1.2 1.2 0 0 0-.306-.61.98.98 0 0 0-.333-.199 1 1 0 0 0-.384-.054c-.234.049-.443.179-.592.366a1.03 1.03 0 0 0-.223.661 1.41 1.41 0 0 0 .343 1.222c.562.416 1.083-.187 1.369-.562zm-.88-1.068h.154c.343.106.269.497.18.766a1.24 1.24 0 0 1-.326.359h-.057a.81.81 0 0 1-.147-.562c-.008-.206.062-.407.196-.563zm10.665 11.788a.26.26 0 0 0 .147.049 1.2 1.2 0 0 0 .677.077c.229-.041.441-.147.61-.305.086-.098.153-.211.195-.334a.98.98 0 0 0 .05-.383c-.066-.514-.563-.726-1.019-.775a1.41 1.41 0 0 0-.652.025c-.213.06-.408.169-.57.318-.416.521.154 1.043.562 1.328zm.464-1.076c.109-.009.218.003.322.037s.199.088.281.159v.155c-.106.342-.497.269-.815.179a1.21 1.21 0 0 1-.35-.326v-.057c.163-.116.363-.169.562-.147zm-10.603 7.625a.31.31 0 0 0-.048.154c-.204.685.048 1.565.904 1.532.53 0 .766-.578.815-1.026.041-.217.031-.441-.03-.653s-.17-.408-.32-.57c-.522-.415-1.035.155-1.321.563zm.881 1.067c-.028.014-.059.021-.09.021s-.062-.007-.09-.021c-.309-.139-.244-.481-.155-.758.085-.14.195-.261.326-.358.082-.057.049-.041.066 0a.89.89 0 0 1 .13.603c0 .13-.041.415-.187.48v.033zm-7.7-14.034c.171-.049.432.171.546.277.293.261.725-.163.432-.431-.141-.159-.319-.282-.517-.357a1.31 1.31 0 0 0-.624-.075.31.31 0 0 0-.106.053.32.32 0 0 0-.115.203c-.005.04-.002.08.009.118a.31.31 0 0 0 .054.107c.024.031.055.057.09.077a.3.3 0 0 0 .113.037c.039.005.08.002.118-.009zm13.521-.448c.416-.201.752-.537.953-.954.187-.35-.342-.66-.53-.31-.146.327-.407.587-.733.734-.359.163-.049.684.31.53zm-12.982 10.806c-.326.22 0 .75.309.522a2.77 2.77 0 0 0 .677-.595c.236-.318-.294-.62-.53-.31a1.73 1.73 0 0 1-.456.383zm19.572-8.584c.13.367.725.212.586-.163l-.057-.146c.054.017.112.02.167.009s.108-.036.151-.073.076-.084.096-.137.026-.11.018-.166c-.273-.945-.636-1.862-1.083-2.738.609.933 1.06 1.96 1.336 3.04.147.366.733.203.595-.163-.465-1.166-.701-2.445-1.581-3.415-.038-.04-.086-.069-.139-.084s-.11-.013-.162.003a.29.29 0 0 0-.204.236c-.045-.045-.102-.075-.163-.087s-.126-.004-.184.022a.31.31 0 0 0-.139.122c-.033.054-.048.116-.044.179-.046-.058-.112-.099-.186-.113s-.149 0-.214.037-.113.098-.137.169-.021.148.007.217c.533 1.046.98 2.133 1.337 3.251z"/></g><g filter="url(#E)"><circle cx="337" cy="89.981" r="53.75" fill="#fff"/></g><g class="B"><path d="M344.432 77.766l-8.6 19.7 22.01 1.984v-.421a17.41 17.41 0 0 0-.272-6.046c7.418-.367 15.054-1.141 22.132.965.544.163.775-.693.231-.856-7.228-2.147-15.013-1.359-22.58-.978a21.97 21.97 0 0 0-4.649-8.534 21.96 21.96 0 0 0-7.878-5.691l-.394-.122zm12.051 14.388h-1.223c-.024-.097-.08-.183-.159-.244a.45.45 0 0 0-.551 0c-.079.061-.135.147-.159.244h-.571a.45.45 0 0 0-.158-.279c-.085-.071-.193-.106-.304-.102-.058-.012-.118-.012-.176 0-.06.028-.111.072-.147.127a.35.35 0 0 0-.057.185h-1.019a.45.45 0 0 0-.266.153c-.067.081-.105.183-.105.288a.45.45 0 0 0 .371.441h2.989a.49.49 0 0 0 .312 0l1.563-.068c.405 1.781.515 3.617.326 5.435l-19.945-1.807 7.812-17.757c2.749 1.294 5.192 3.155 7.168 5.462a21.5 21.5 0 0 1 4.299 7.921zm-14.592-15.065l-.408-.177a19.63 19.63 0 0 0-7.798-1.658 17.33 17.33 0 0 0-6.413 1.277v-2.228c0-.734-.299-1.739.34-1.739h3.247c4.782 0 9.633-.285 14.402 0 .57 0 .57-.842 0-.883-6.101-.435-12.228 0-18.383 0-.114.003-.223.05-.303.131a.45.45 0 0 0-.132.304c0 1.603 0 3.193-.081 4.782a20.2 20.2 0 0 0-6.983 5.435c-.381.448-.721.91-1.06 1.359l-.245.34 15.122 12.771 8.695-19.714zm-22.58 6.793a23.69 23.69 0 0 1 .774-.978 19.51 19.51 0 0 1 6.236-5.013c0 1.956 0 3.913.095 5.869 0 .571.91.571.883 0-.108-2.079-.122-4.157-.095-6.236a16.38 16.38 0 0 1 6.427-1.359 18.69 18.69 0 0 1 7.037 1.359l-7.825 17.771-13.532-11.413zm22.461 34.764l.381-.109c2.693-.751 5.179-2.108 7.269-3.967 6.616.149 13.301.788 19.89.272.571 0 .571-.938 0-.883-6.277.489-12.635-.068-19.021-.259a21.09 21.09 0 0 0 1.59-1.698c2.472-2.803 4.081-6.262 4.633-9.959v-.462l-22.037-1.956 7.295 19.021zm9.511-7.133c-.673.796-1.399 1.545-2.174 2.242h-1.263c-.104.018-.198.072-.266.153a.45.45 0 0 0 .266.73h.217a17.12 17.12 0 0 1-5.733 2.962 61.14 61.14 0 0 0 13.083-13.926 19.03 19.03 0 0 1-4.157 7.812l.027.027zm3.492-9.171h.326a59.35 59.35 0 0 1-13.138 14.252l-.422-1.073c4.965-3.796 9.409-8.226 13.22-13.179h.014zm-1.019-.095a70.98 70.98 0 0 1-12.486 12.445l-.462-1.195c3.926-3.709 7.812-7.459 11.562-11.359l1.386.109zm-2.582-.231c-3.505 3.614-7.105 7.119-10.774 10.57l-.72-1.875c3.519-2.717 6.331-6.086 9.769-8.844l1.725.149zm-5.353-.475l2.391.217c-3.07 2.581-5.679 5.652-8.858 8.152l-.652-1.698c2.432-2.147 4.579-4.593 7.106-6.631l.013-.04zm-1.223-.109c-2.173 1.834-4.076 3.94-6.236 5.856l-.448-1.155c1.562-1.685 3.233-3.261 4.864-4.878l1.82.177zm-2.975-.272l-4.076 4.076-.774-2.024c.852-.662 1.635-1.409 2.336-2.228l2.514.176zm-5.176 1.169l-.612-1.685 2.215.204a12.52 12.52 0 0 1-1.603 1.494v-.013zm10.119-18.775a.41.41 0 0 0 .067.217c.003.094.036.185.093.26a.45.45 0 0 0 .227.157c.09.027.186.025.275-.006a.45.45 0 0 0 .221-.166 1.25 1.25 0 0 0 .122-.503c.004-.086-.02-.172-.069-.243a.4.4 0 0 0-.203-.151c-.071-.063-.16-.101-.254-.11a.45.45 0 0 0-.454.269.45.45 0 0 0-.025.276zm4.376 5.845h.136a.46.46 0 0 0 .448-.435c.018-.091.016-.184-.004-.274a.66.66 0 0 0-.115-.249.67.67 0 0 0-.204-.182c-.08-.046-.169-.074-.261-.084-.051-.008-.102-.005-.152.009a.36.36 0 0 0-.224.195.35.35 0 0 0-.031.149.46.46 0 0 0-.096.299.38.38 0 0 0 .024.177.39.39 0 0 0 .099.149c.036.071.09.131.157.174a.45.45 0 0 0 .223.071zm.774 6.724c.435.367 1.06-.258.625-.625a1.02 1.02 0 0 0-.462-.245.44.44 0 0 0-.331.07c-.097.066-.163.168-.185.283a.44.44 0 0 0 .353.516zm-3.519-1.127c.098.06.211.092.326.092s.228-.032.326-.092c.462-.231.122-.883-.326-.802s-.788.571-.326.802zm-.448-5.314a.38.38 0 0 0-.242.061c-.072.047-.125.116-.153.197a.57.57 0 0 0-.217 0h-.149a.45.45 0 0 0-.371.441.45.45 0 0 0 .371.441h.149c.084.001.167-.024.235-.073s.119-.118.146-.198a.42.42 0 0 0 .231 0h.067a.45.45 0 0 0 .371-.441.45.45 0 0 0-.371-.441l-.067.014zm1.522-3.52a.45.45 0 0 0 .192.544c.091.054.197.073.301.056s.199-.071.267-.151a.95.95 0 0 0 .123-.435c.054-.571-.829-.571-.883-.014zm-2.297 1.864a.58.58 0 0 0 .35-.225c.085-.115.125-.258.112-.4 0-.516-.679-.557-.842-.149a.45.45 0 0 0 .098.734.45.45 0 0 0 .282.041zm-2.078-2.585h.081c.435.367 1.06-.258.625-.625a.95.95 0 0 0-.462-.245.45.45 0 0 0-.343.041c-.104.059-.181.156-.214.272a.45.45 0 0 0 .313.557zm-1.183 5.165l-.095.177c-.037.099-.038.207-.002.307a.45.45 0 0 0 .195.237c.091.054.197.073.301.056s.199-.071.267-.151l.177-.38c.204-.53-.571-.734-.843-.245zm1.345-3.655c0-.571-.91-.571-.883 0-.011.121.007.243.052.356a.79.79 0 0 0 .206.296c.421.353 1.046-.204.625-.652zm.002 4.645v-.136c-.259-.503-1.019 0-.761.448.025.044.048.089.068.136.19.503.978.054.693-.448zm1.831 3.044c-.394-.408-1.019.217-.625.625a.16.16 0 0 1 .068.068c.408.394 1.033-.231.625-.625l-.068-.068zm-3.883.678h-.081c-.112.031-.207.104-.264.205s-.073.22-.042.332.104.207.205.264a.44.44 0 0 0 .332.042 1.06 1.06 0 0 0 .475-.245c.435-.367-.19-.965-.625-.598zm-2.962.75a.65.65 0 0 0 .394-.095.46.46 0 0 0 .183-.218c.037-.09.044-.19.02-.284-.008-.031-.008-.064 0-.095a.44.44 0 0 0-.141-.213.45.45 0 0 0-.674.117c-.312.272-.244.815.218.788zm1.737-8.182a.44.44 0 0 0 .265.185.43.43 0 0 0 .319-.049c.503-.272 0-1.033-.448-.761h-.082a.46.46 0 0 0-.149.611l.095.014zm-1.017 6.305a.45.45 0 0 0-.73-.266c-.081.068-.135.162-.153.266.018.104.072.198.153.266a.45.45 0 0 0 .73-.266zm5.041-.648c.06-.098.092-.211.092-.326s-.032-.228-.092-.326c-.231-.475-.87-.122-.788.326s.557.802.788.326zm-2.011.758a.45.45 0 0 0-.37.441.45.45 0 0 0 .105.288c.068.081.162.135.265.153a.45.45 0 0 0 .371-.441.45.45 0 0 0-.371-.441z"/><path d="M347.489 92.127l.136-.068c.502-.245 0-1.005-.449-.761l-.136.068c-.502.258-.054 1.019.449.761zm.479 2.296a.41.41 0 0 0-.299-.312h-.068c-.489-.068-.72.571-.408.788.204.258.87.014.775-.475zm.826-5.666c.313.475 1.074 0 .761-.448l-.095-.163c-.163-.543-1.019-.312-.842.231.028.139.088.269.176.38zm-1.509-1.886l.204.068c.543.177.774-.679.23-.856h-.203c-.544-.245-.816.611-.231.788zm2.391-2.87v-.068c-.018-.104-.072-.198-.153-.266a.45.45 0 0 0-.73.266v.068a.45.45 0 0 0 .73.266c.081-.068.135-.162.153-.266zm-3.299-1.888c.516 0 .557-.679.136-.842s-.951.15-.652.557a.59.59 0 0 0 .516.285zm-1.034 1.493c-.015-.071-.047-.137-.095-.192s-.108-.096-.177-.121h-.081c-.394-.15-.639.326-.503.639.039.071.089.136.149.19.354.34.884-.122.707-.516zm7.977 6.199c.104-.018.198-.073.265-.153a.45.45 0 0 0 0-.576c-.068-.081-.161-.135-.265-.153a.45.45 0 0 0-.371.441.45.45 0 0 0 .371.441zm1.536 5.745c-.018-.104-.073-.198-.154-.266s-.182-.105-.288-.105a.45.45 0 0 0-.288.105c-.081.068-.135.162-.153.266.018.104.072.198.153.266a.45.45 0 0 0 .288.105c.106 0 .208-.037.288-.105s.136-.162.154-.266zm-5.029.287a.45.45 0 0 0-.104.169c-.021.063-.029.131-.021.197a.46.46 0 0 0 .066.187.45.45 0 0 0 .141.14c.065.04.14.061.217.061s.152-.021.217-.061h.109c.089-.041.158-.115.193-.206s.034-.192-.003-.283c.001-.075-.019-.148-.057-.212s-.093-.117-.159-.152a.41.41 0 0 0-.422.024 1.54 1.54 0 0 0-.177.136zm.95-2.338c-.326.204-.081.856.408.788.074-.018.141-.055.196-.108a.43.43 0 0 0 .116-.191v-.068c.082-.489-.557-.734-.72-.421zm-3.41 2.606v.068c.018.104.073.198.154.266s.182.105.288.105a.45.45 0 0 0 .288-.105c.081-.068.135-.162.153-.266v-.068c-.018-.104-.072-.198-.153-.266a.45.45 0 0 0-.288-.105c-.106 0-.208.037-.288.105s-.136.162-.154.266zm-1.41-.269c-.367-.231-.938.149-.639.557a.59.59 0 0 0 .516.285c.53.054.557-.679.123-.842zm5.46-8.82h.136a.45.45 0 0 0 .371-.441.45.45 0 0 0-.371-.441h-.136a.45.45 0 0 0-.37.441.45.45 0 0 0 .37.441zm1.426 1.742c.53 0 .557-.679.123-.842s-.924.149-.639.557a.59.59 0 0 0 .22.213.58.58 0 0 0 .296.073zm-7.716.61a.6.6 0 0 0-.299-.516c-.408-.299-.802.285-.557.639s.896.394.856-.122zm-3.002.342c-.018-.104-.072-.198-.153-.266a.45.45 0 0 0-.288-.105c-.106 0-.208.037-.288.105s-.136.162-.154.266c.018.104.073.198.154.266s.182.105.288.105a.45.45 0 0 0 .288-.105c.081-.068.135-.162.153-.266zm-3.778 6.357a.45.45 0 0 0 .371-.441c0-.105-.037-.208-.105-.288a.45.45 0 0 0-.266-.153c-.104.018-.198.073-.265.153a.45.45 0 0 0 0 .576c.068.081.161.135.265.153zm4.36-10.406h.203a.45.45 0 0 0 .371-.441c0-.105-.037-.208-.105-.288a.45.45 0 0 0-.266-.153h-.203a.45.45 0 0 0-.371.441.45.45 0 0 0 .371.441zm.476 3.8h.408c.104-.018.198-.073.265-.153a.45.45 0 0 0 0-.576c-.068-.081-.161-.135-.265-.153h-.408a.45.45 0 0 0-.266.153c-.067.081-.105.183-.105.288s.038.207.105.288a.45.45 0 0 0 .266.153zm-.232 1.85v-.068c.394-.394-.231-1.019-.625-.625l-.068.068a.4.4 0 0 0-.109.408c-.066-.054-.145-.09-.23-.103s-.171-.003-.25.029a.48.48 0 0 0-.2.153c-.052.068-.084.149-.094.234-.051.102-.061.22-.028.329a.45.45 0 0 0 .205.259c.098.057.215.075.326.049s.208-.093.271-.188a.95.95 0 0 0 .122-.435c.014-.044.014-.092 0-.136a.43.43 0 0 0 .145.133c.058.033.122.051.188.053a.43.43 0 0 0 .193-.038.42.42 0 0 0 .154-.121zm2.245-9.552c.503-.258 0-1.019-.448-.761a.77.77 0 0 0-.367.353c-.258.435.502.883.815.408zm13.598 27.375c-.761-1.032-2.364.082-2.718 1.182-.014.066-.013.134.002.2a.47.47 0 0 0 .086.18c.042.053.094.096.154.127a.45.45 0 0 0 .193.05 5.08 5.08 0 0 0 1.793-.475v.122c0 .054 0 .435.109.639a1.5 1.5 0 0 0 .326.733c.218.233.494.403.8.491a1.76 1.76 0 0 0 .939.012c.808-.272 1.536-.738 2.12-1.359a1.51 1.51 0 0 0 0 .435c.407 1.359 2.717.163 3.26-.353a2.44 2.44 0 0 0 .935-1.523c.108-.607-.017-1.233-.35-1.751a1.75 1.75 0 0 0-.64-.555 1.74 1.74 0 0 0-2.254.622c-.076.087-.117.198-.117.313a.47.47 0 0 0 .117.312l-1.576 1.78c-.504.64-1.207 1.094-1.997 1.291-.775.095-.897-.978-1.006-1.603 1.305-.735 2.267-1.956 2.677-3.397.421-.068.394-.57.108-.774.002-.023.002-.046 0-.068a.45.45 0 0 0-.063-.219.44.44 0 0 0-.162-.159.46.46 0 0 0-.22-.059c-.077 0-.153.019-.22.056-.286.158-.522.394-.68.68a.47.47 0 0 0-.04.189c0 .065.012.129.038.189a.49.49 0 0 0 .11.159.48.48 0 0 0 .164.101c-.358.989-1.019 1.84-1.888 2.432zm4.877 1.128a4.46 4.46 0 0 1 1.128-1.658.41.41 0 0 0 0-.557c.158-.082.34-.108.515-.073a.78.78 0 0 1 .449.264c.829.788 0 1.915-.692 2.391s-1.78.747-1.4-.435v.068zm5.109 3.386a24.72 24.72 0 0 0 3.9-4.905l1.046-1.535.598-.869a6.72 6.72 0 0 1 .475-.625.49.49 0 0 0 .123-.109.46.46 0 0 0 .203-.829c-.815-.557-1.861 1.563-2.16 1.997-1.352 2.265-2.966 4.363-4.81 6.25-.421.381.204 1.006.625.625zm1.209-5.612a.4.4 0 0 0 .209.013c.07-.014.134-.045.188-.092s.094-.107.117-.174.029-.139.016-.209c.012-.061.01-.125-.006-.186s-.044-.118-.085-.166a.42.42 0 0 0-.148-.113.41.41 0 0 0-.183-.037c-.072-.007-.145-.007-.217 0a.46.46 0 0 0-.305.139c-.08.083-.126.193-.13.309.002.096.035.188.094.264a.45.45 0 0 0 .232.157l.218.095zm2.594 3.329l-.204.312c-.326.476.449.91.761.449l.204-.313c.312-.475-.448-.91-.761-.448zm-10.338-21.494c1.467.122 3.736-.312 4.212-1.97a1.08 1.08 0 0 0 .096-.429 1.07 1.07 0 0 0-.084-.432 1.06 1.06 0 0 0-.25-.362c-.107-.102-.234-.181-.374-.231a1.75 1.75 0 0 0 .856-1.359c0-1.508-1.752-.734-2.418-.217-.381.299 0 .842.421.747a2.09 2.09 0 0 0 .625-.258.34.34 0 0 0 .163-.177l.149-.082c.462-.163-.176.557-.271.625-.522.356-1.101.618-1.712.774-.53.19-.326 1.019.231.842a3.22 3.22 0 0 1 1.25-.204c.924 0 .339.965-.095 1.277a2.87 2.87 0 0 1-1.074.476.41.41 0 0 0-.407-.272 2.92 2.92 0 0 0-1.549.476.44.44 0 0 0-.13.211c-.023.081-.022.167.002.248a.45.45 0 0 0 .359.315zm9.333-.504c1.359-.734 3.315-2.513 2.038-4.076a1.78 1.78 0 0 0-1.464-.599c-.273.02-.538.102-.775.242a1.78 1.78 0 0 0-.587.561.45.45 0 0 0-.177-.036c-.061 0-.122.013-.177.037a.45.45 0 0 0-.149.104c-.042.045-.074.097-.095.154a9.04 9.04 0 0 0-.652 2.513 1.5 1.5 0 0 0 .034.682 1.48 1.48 0 0 0 .333.596c.516.394 1.168.109 1.671-.177zm-1.046-1.753a9.03 9.03 0 0 1 .299-1.032c.108.025.221.009.317-.047a.44.44 0 0 0 .199-.252.94.94 0 0 1 .287-.478.93.93 0 0 1 .508-.23c.189-.023.38.011.548.098a.94.94 0 0 1 .396.393c.245.475-.231 1.087-.516 1.359a5.04 5.04 0 0 1-1.862 1.359c-.258.095-.244.095-.285-.15a2.7 2.7 0 0 1 .109-1.019zm-76.667 15.72c6.915.109 13.817.19 20.719 0a18.77 18.77 0 0 0 1.359 3.302 21.87 21.87 0 0 0 7.761 8.586c3.311 2.113 7.13 3.296 11.056 3.424a17.35 17.35 0 0 0 4.511-.584l.461-.123-7.092-18.409-14.836-12.608-.285.38a18.17 18.17 0 0 0-3.294 7.238c-.549 2.626-.51 5.342.115 7.952-6.794.149-13.587.068-20.475 0a.45.45 0 0 0-.214.164c-.052.075-.081.165-.081.257s.029.182.081.257a.45.45 0 0 0 .214.164zm24.102-15.121l13.899 11.739 6.684 17.336c-1.246.295-2.523.441-3.804.435a20.97 20.97 0 0 1-18.07-11.494 18.79 18.79 0 0 1-1.195-2.935c1.916 0 3.831-.095 5.747-.19.557 0 .57-.91 0-.883l-5.992.204a17.18 17.18 0 0 1-.206-7.408 17.16 17.16 0 0 1 2.937-6.804zm-22.106 7.961c.418.118.866.069 1.25-.136a18.91 18.91 0 0 0-.843 2.473c-.015.055-.019.113-.012.17a.44.44 0 0 0 .054.162c.029.05.066.094.112.129s.097.061.152.076.113.019.17.012.112-.025.162-.054.093-.066.129-.112.061-.097.076-.152a20.5 20.5 0 0 1 1.657-4.198c.615-.819 1.139-1.703 1.563-2.636a.45.45 0 0 0 .003-.307c-.036-.099-.105-.183-.196-.237s-.197-.073-.301-.056-.199.071-.267.151a24.37 24.37 0 0 0-1.359 2.201 11.73 11.73 0 0 1-.842.978c-.91.91-2.35.802-1.929-.87a4.99 4.99 0 0 1 1.739-2.391c.434-.353-.19-.978-.625-.625-1.332 1.128-3.492 4.565-.693 5.421zm5.368 2.272c.543.394 1.358-.068 1.739-.394a10.67 10.67 0 0 0 2.594-2.867 3.24 3.24 0 0 0 .571-1.299 3.22 3.22 0 0 0-.041-1.418c-.126-.297-.354-.54-.643-.684s-.619-.181-.933-.104c-.442.097-.853.302-1.195.598-.034-.05-.079-.092-.132-.121a.37.37 0 0 0-.174-.044.36.36 0 0 0-.173.044.37.37 0 0 0-.133.121 9.01 9.01 0 0 0-2.024 4.864c-.02.245.018.491.113.718s.242.428.431.586zm.421-2.052c.166-.794.45-1.559.842-2.269a.42.42 0 0 0 .283.001c.091-.032.169-.095.22-.178.352-.674.943-1.192 1.657-1.454.503-.136.693.272.693.706-.128.928-.552 1.791-1.209 2.459a8.71 8.71 0 0 1-1.943 1.861c-.856.543-.652-.611-.543-1.128zm3.804 2.66c-.516.258 0 1.019.448.774 1.359-.679 1.957-2.541 2.487-3.804l2.404-6.263c.218-.53-.638-.761-.842-.245l-1.848 4.905c-.516 1.318-1.25 3.926-2.649 4.633zm3.316-9.21v-.204a.45.45 0 0 0-.73-.266c-.081.068-.135.162-.153.266v.204c.018.104.072.198.153.266a.45.45 0 0 0 .73-.266zm-.353 7.95c-.422.122-.517.421-.53.829.018.104.072.198.153.266a.45.45 0 0 0 .73-.266.45.45 0 0 0 .241-.246c.045-.111.043-.235-.003-.345a.45.45 0 0 0-.591-.238zm18.612-28.153a4.81 4.81 0 0 0 1.562-.774 15.04 15.04 0 0 1 1.698 1.114c.497.3 1.09.4 1.658.279a2.28 2.28 0 0 0 1.399-.931c.367-.435-.244-1.06-.625-.625-1.195 1.359-2.255.313-3.423-.448.879-.869 1.427-2.017 1.548-3.247l.164-.109a.44.44 0 0 0 .21-.515.44.44 0 0 0-.18-.235c-.086-.055-.188-.078-.289-.065-.036-.054-.083-.1-.138-.134s-.118-.056-.182-.064a.45.45 0 0 0-.193.019c-.061.02-.118.053-.166.098a8.69 8.69 0 0 0-.679.91c-.231.34.149.707.489.625a4.51 4.51 0 0 1-1.454 2.31 1.78 1.78 0 0 0-1.888 1.155c-.044.075-.064.16-.059.246s.037.168.089.237.124.12.206.147.169.03.253.008zm9.852-4.155c-.364.405-.625.892-.762 1.419s-.146 1.079-.026 1.611a.41.41 0 0 0 .421.326c1.21-.163 2.541-.666 2.229-2.133a3.3 3.3 0 0 0-.625-1.25l.461-.353c.462-.312 0-1.087-.448-.761-.212.148-.416.306-.611.475a8.83 8.83 0 0 0-.666-.571 2.18 2.18 0 0 1 .761.082.44.44 0 0 0 .543-.299.44.44 0 0 0-.299-.544 2.64 2.64 0 0 0-1.12-.117 2.63 2.63 0 0 0-1.067.361.44.44 0 0 0-.155.163c-.037.067-.056.141-.056.217a.45.45 0 0 0 .056.218.44.44 0 0 0 .155.163c.436.289.841.621 1.209.992zm.584.652v.095a1.76 1.76 0 0 1 .394.978c0 .435-.584.611-1.032.693a2.54 2.54 0 0 1 .638-1.766zm5.827-.015l1.277-2.975c.15-.38.557-1.101.313-1.508a.45.45 0 0 0-.381-.217c-.123.02-.235.085-.313.183s-.116.221-.108.346a.67.67 0 0 1 0 .19c-.081.259-.176.513-.285.761l-.978 2.31-.924 1.956-.421.788c-.34.598-.123 0 .326.34-.421-.38-1.046.245-.612.625.815.815 1.902-2.35 2.106-2.799zm1.182-3.818c-.056.016-.115.016-.17-.001s-.105-.05-.142-.094a.34.34 0 0 0 .312.096zm-2.65.637h.204a.45.45 0 0 0 .37-.441.45.45 0 0 0-.37-.441h-.204a.45.45 0 0 0-.371.441.45.45 0 0 0 .371.441zm2.012 4.444v.408a.45.45 0 0 0 .442.371.45.45 0 0 0 .441-.371v-.408a.45.45 0 0 0-.441-.371.45.45 0 0 0-.442.371z"/></g><defs><filter id="A" x=".167" y=".397" width="179.167" height="179.167" filterUnits="userSpaceOnUse" class="C"><feFlood result="A" class="D"/><feColorMatrix in="SourceAlpha" values="0 0 0 0 0 0 0 0 0 0 0 0 0 0 0 0 0 0 127 0" result="B"/><feOffset/><feGaussianBlur stdDeviation="17.917"/><feComposite in2="B" operator="out"/><feColorMatrix values="0 0 0 0 0.0313726 0 0 0 0 0.298039 0 0 0 0 0.580392 0 0 0 0.1 0"/><feBlend in2="A"/><feBlend in="SourceGraphic"/></filter><filter id="B" x=".167" y="217.186" width="179.167" height="179.167" filterUnits="userSpaceOnUse" class="C"><feFlood result="A" class="D"/><feColorMatrix in="SourceAlpha" values="0 0 0 0 0 0 0 0 0 0 0 0 0 0 0 0 0 0 127 0" result="B"/><feOffset/><feGaussianBlur stdDeviation="17.917"/><feComposite in2="B" operator="out"/><feColorMatrix values="0 0 0 0 0.0313726 0 0 0 0 0.298039 0 0 0 0 0.580392 0 0 0 0.1 0"/><feBlend in2="A"/><feBlend in="SourceGraphic"/></filter><filter id="C" x="121.703" y="100.429" width="185.139" height="185.138" filterUnits="userSpaceOnUse" class="C"><feFlood result="A" class="D"/><feColorMatrix in="SourceAlpha" values="0 0 0 0 0 0 0 0 0 0 0 0 0 0 0 0 0 0 127 0" result="B"/><feOffset/><feGaussianBlur stdDeviation="18.514"/><feComposite in2="B" operator="out"/><feColorMatrix values="0 0 0 0 0.0313726 0 0 0 0 0.298039 0 0 0 0 0.580392 0 0 0 0.1 0"/><feBlend in2="A"/><feBlend in="SourceGraphic"/></filter><filter id="D" x="247.417" y="217.186" width="179.167" height="179.167" filterUnits="userSpaceOnUse" class="C"><feFlood result="A" class="D"/><feColorMatrix in="SourceAlpha" values="0 0 0 0 0 0 0 0 0 0 0 0 0 0 0 0 0 0 127 0" result="B"/><feOffset/><feGaussianBlur stdDeviation="17.917"/><feComposite in2="B" operator="out"/><feColorMatrix values="0 0 0 0 0.0313726 0 0 0 0 0.298039 0 0 0 0 0.580392 0 0 0 0.1 0"/><feBlend in2="A"/><feBlend in="SourceGraphic"/></filter><filter id="E" x="247.417" y=".397" width="179.167" height="179.167" filterUnits="userSpaceOnUse" class="C"><feFlood result="A" class="D"/><feColorMatrix in="SourceAlpha" values="0 0 0 0 0 0 0 0 0 0 0 0 0 0 0 0 0 0 127 0" result="B"/><feOffset/><feGaussianBlur stdDeviation="17.917"/><feComposite in2="B" operator="out"/><feColorMatrix values="0 0 0 0 0.0313726 0 0 0 0 0.298039 0 0 0 0 0.580392 0 0 0 0.1 0"/><feBlend in2="A"/><feBlend in="SourceGraphic"/></filter></defs></svg>