<svg width="150" height="150" viewBox="0 0 150 150" fill="none" xmlns="http://www.w3.org/2000/svg">
<path d="M0 85.8594V73.3278H14.5387V77.2321H4.4335V81.9551H14.7484V85.8594H0ZM14.7584 65.01H0V68.9143H14.7584V65.01ZM35.8874 85.8594L43.9256 65H38.863L33.1114 81.0365L27.3299 65H22.2673L30.3355 85.8594H35.8874ZM68.9988 85.8594L64.3057 77.9211C66.5524 77.3918 68.869 75.4247 68.869 71.7301C68.869 67.8558 66.2129 65.01 61.8693 65.01H52.1136V85.8694H56.557V78.4603H59.8123L63.9063 85.8694H68.9988V85.8594ZM61.2102 74.546H56.5471V68.9143H61.2102C62.9876 68.9143 64.3356 69.9727 64.3356 71.7301C64.3356 73.4776 62.9976 74.546 61.2102 74.546ZM88.1607 85.8594V77.3219L96.129 65H91.0664L85.934 73.3777L80.7416 65H75.679L83.7172 77.3219V85.8594H88.1607ZM112.545 85.8594C119.075 85.8594 123.609 81.7355 123.609 75.4447C123.609 69.1539 119.075 65 112.545 65H104.317V85.8594H112.545ZM112.545 81.9551H108.76V68.9143H112.545C116.829 68.9143 119.075 71.7601 119.075 75.4447C119.085 78.9795 116.679 81.9551 112.545 81.9551ZM142.032 85.8594V77.3219L150 65H144.937L139.805 73.3777L134.613 65H129.55L137.588 77.3219V85.8594H142.032Z" fill="white"/>
</svg>
