<svg width="150" height="150" viewBox="0 0 150 150" fill="none" xmlns="http://www.w3.org/2000/svg">
<g clip-path="url(#clip0_33_11008)">
<path d="M6.67652 59.3556C7.62068 58.422 8.75422 57.6808 10.0084 57.1767C11.2625 56.6727 12.6112 56.4164 13.9725 56.4233C15.236 56.4123 16.4887 56.6448 17.6552 57.1068C18.7628 57.5586 19.7872 58.1764 20.6894 58.9367C21.055 59.2353 21.5289 59.3857 22.0096 59.3556C22.2612 59.3415 22.5074 59.2802 22.734 59.1752C22.9606 59.0702 23.1631 58.9236 23.3299 58.7438C23.6418 58.3829 23.7916 57.9194 23.7468 57.454C23.734 57.2275 23.6725 57.0059 23.5659 56.8029C23.4593 56.6 23.31 56.4201 23.1272 56.2745C21.9248 55.2315 20.5285 54.4109 19.0102 53.8548C17.401 53.2757 15.6928 52.986 13.9725 53.0005C12.0977 52.986 10.2402 53.3426 8.51789 54.0478C5.15054 55.4132 2.48507 57.988 1.10031 61.2131C0.020782 63.6819 -0.272628 66.3983 0.256535 69.0246C0.785698 71.6509 2.1141 74.0712 4.07661 75.9846C5.34753 77.2068 6.85593 78.1821 8.51789 78.8563C10.2402 79.5614 12.0977 79.918 13.9725 79.9035C15.6928 79.918 17.401 79.6283 19.0102 79.0492C20.5285 78.4931 21.9248 77.6726 23.1272 76.6295C23.31 76.4839 23.4593 76.304 23.5659 76.1011C23.6725 75.8982 23.734 75.6766 23.7468 75.45C23.7916 74.9846 23.6418 74.5211 23.3299 74.1602C23.1631 73.9804 22.9606 73.8338 22.734 73.7288C22.5074 73.6238 22.2612 73.5625 22.0096 73.5484C21.5289 73.5183 21.055 73.6687 20.6894 73.9673C19.7872 74.7277 18.7628 75.3455 17.6552 75.7972C16.4887 76.2593 15.236 76.4917 13.9725 76.4807C12.5787 76.4936 11.1976 76.227 9.9192 75.698C8.697 75.1983 7.58947 74.4755 6.65917 73.5705C5.72989 72.6533 4.99636 71.5733 4.49931 70.3902C3.46459 67.8704 3.46459 65.0722 4.49931 62.5524C5.0041 61.3643 5.74314 60.2792 6.67652 59.3556Z" fill="white"/>
<path d="M31.6956 61.5587C31.4559 61.5537 31.2178 61.5974 30.9972 61.6867C30.7766 61.776 30.5784 61.909 30.4159 62.0768C30.247 62.2391 30.1139 62.432 30.0244 62.644C29.9349 62.856 29.8908 63.0829 29.8948 63.3114V77.9617C29.8907 78.191 29.9347 78.4188 30.0241 78.6318C30.1136 78.8447 30.2468 79.0385 30.4159 79.2019C30.5807 79.3665 30.7794 79.497 30.9996 79.5852C31.2198 79.6734 31.4567 79.7174 31.6956 79.7145C31.9412 79.7228 32.1859 79.6814 32.4135 79.593C32.6411 79.5047 32.8464 79.3714 33.0159 79.2019C33.185 79.0385 33.3181 78.8447 33.4076 78.6318C33.4971 78.4188 33.5411 78.191 33.537 77.9617V63.3059C33.5409 63.0774 33.4969 62.8505 33.4074 62.6385C33.3179 62.4265 33.1848 62.2336 33.0159 62.0713C32.8464 61.9018 32.6411 61.7684 32.4135 61.6801C32.1859 61.5917 31.9412 61.5503 31.6956 61.5587Z" fill="white"/>
<path d="M91.3782 56.5008V56.4291C91.3782 56.385 91.3782 56.3354 91.3782 56.2858C91.3782 56.2197 91.3781 56.1536 91.326 56.0874C91.264 55.8772 91.1576 55.6813 91.0132 55.5117C90.8688 55.342 90.6896 55.2022 90.4864 55.1008H90.4575L90.388 55.0677H90.3127C89.9115 54.8945 89.4562 54.8728 89.0388 55.0071C88.8101 55.0776 88.5985 55.1909 88.4165 55.3405C88.2345 55.4901 88.0858 55.6728 87.9792 55.878L79.2182 71.8125L70.5325 55.8008C70.3145 55.3883 69.9334 55.075 69.4729 54.9299C69.0538 54.7942 68.5961 54.8159 68.1932 54.9906H68.1237L68.0542 55.0236C67.8518 55.1268 67.6728 55.267 67.5277 55.4364C67.3826 55.6057 67.2742 55.8008 67.2088 56.0102C67.2088 56.0764 67.1741 56.1425 67.1625 56.2087C67.16 56.2564 67.16 56.3042 67.1625 56.352C67.1594 56.3758 67.1594 56.3998 67.1625 56.4236C67.1625 56.4236 67.1625 56.4787 67.1625 56.5063V77.8865C67.1584 78.1158 67.2024 78.3436 67.2919 78.5565C67.3813 78.7695 67.5145 78.9633 67.6836 79.1267C67.8484 79.2913 68.0472 79.4217 68.2673 79.5099C68.4875 79.5981 68.7244 79.6422 68.9633 79.6393C69.2089 79.6476 69.4536 79.6062 69.6812 79.5178C69.9088 79.4295 70.1141 79.2961 70.2835 79.1267C70.6208 78.7944 70.8061 78.3485 70.7989 77.8865V63.6771L77.7011 76.3542C77.7705 76.486 77.8582 76.6083 77.9617 76.718C78.171 76.9494 78.4436 77.1211 78.7492 77.2141H78.8187H78.8824H78.9634H79.0734H79.5714H79.6756H79.7567H79.8262H79.8899C80.1955 77.1211 80.4681 76.9494 80.6774 76.718C80.7848 76.6101 80.8745 76.4875 80.9438 76.3542V76.3542L87.8402 63.6771V77.9637C87.8361 78.193 87.8801 78.4208 87.9696 78.6337C88.059 78.8466 88.1922 79.0405 88.3613 79.2038C88.5308 79.3733 88.7361 79.5066 88.9637 79.595C89.1912 79.6834 89.4359 79.7247 89.6816 79.7164C89.9204 79.7193 90.1574 79.6753 90.3776 79.5871C90.5977 79.4989 90.7965 79.3684 90.9613 79.2038C91.2986 78.8716 91.4838 78.4257 91.4766 77.9637V56.5835C91.4483 56.5514 91.4151 56.5235 91.3782 56.5008V56.5008Z" fill="white"/>
<path d="M59.0808 62.0958C58.9117 61.939 58.7114 61.8158 58.4917 61.7335C58.272 61.6511 58.0372 61.6113 57.8011 61.6163H46.3129V56.6556C46.3173 56.4263 46.2735 56.1984 46.184 55.9854C46.0945 55.7725 45.9611 55.5787 45.7917 55.4155C45.6223 55.246 45.417 55.1127 45.1894 55.0243C44.9618 54.936 44.7172 54.8946 44.4715 54.9029C44.2327 54.9 43.9957 54.944 43.7755 55.0322C43.5553 55.1204 43.3566 55.2509 43.1918 55.4155C43.0232 55.5789 42.8908 55.7729 42.8022 55.9859C42.7137 56.1989 42.671 56.4266 42.6765 56.6556V61.6163H40.0476C39.8076 61.6125 39.5692 61.6544 39.3465 61.7396C39.1237 61.8248 38.9211 61.9515 38.7505 62.1123C38.5776 62.2692 38.4406 62.4583 38.3479 62.6679C38.2552 62.8775 38.209 63.103 38.212 63.3304C38.2033 63.5642 38.2468 63.7971 38.3396 64.0138C38.4324 64.2304 38.5725 64.4258 38.7505 64.5871C38.9211 64.7479 39.1237 64.8746 39.3465 64.9598C39.5692 65.045 39.8076 65.0869 40.0476 65.0832H42.6765V78.0193C42.6713 78.2483 42.7142 78.4759 42.8027 78.6889C42.8912 78.9018 43.0235 79.0958 43.1918 79.2595C43.3566 79.4241 43.5553 79.5546 43.7755 79.6427C43.9957 79.7309 44.2327 79.775 44.4715 79.7721C44.7172 79.7804 44.9618 79.739 45.1894 79.6506C45.417 79.5623 45.6223 79.4289 45.7917 79.2595C45.9608 79.0961 46.094 78.9023 46.1835 78.6893C46.273 78.4764 46.317 78.2486 46.3129 78.0193V65.0336H55.9482V77.9697C55.9441 78.199 55.9881 78.4268 56.0776 78.6397C56.167 78.8527 56.3002 79.0465 56.4693 79.2099C56.6326 79.3764 56.831 79.5081 57.0516 79.5965C57.2721 79.6848 57.5098 79.7277 57.749 79.7225C57.9937 79.73 58.2373 79.6882 58.4638 79.5999C58.6903 79.5116 58.8947 79.3786 59.0634 79.2099C59.2325 79.0465 59.3658 78.8527 59.4552 78.6397C59.5447 78.4268 59.5887 78.199 59.5846 77.9697V63.2808C59.5875 63.0613 59.5444 62.8435 59.4579 62.6401C59.3714 62.4366 59.2432 62.2516 59.0808 62.0958V62.0958Z" fill="white"/>
<path d="M113.772 61.5595C113.532 61.5549 113.295 61.5987 113.074 61.688C112.853 61.7773 112.655 61.9101 112.492 62.0776C112.323 62.24 112.19 62.4328 112.101 62.6448C112.011 62.8569 111.967 63.0838 111.971 63.3123V64.4146C111.653 63.9094 111.248 63.4585 110.773 63.0808C110.291 62.7008 109.76 62.3821 109.192 62.1327C108.605 61.8812 107.989 61.6962 107.356 61.5816C106.718 61.4573 106.068 61.3946 105.416 61.3942C104.172 61.3885 102.939 61.6073 101.78 62.039C100.637 62.4597 99.5969 63.0987 98.7235 63.9168C97.8501 64.7349 97.1621 65.7147 96.7019 66.7957C95.6827 69.2764 95.6827 72.0315 96.7019 74.5122C97.1732 75.6046 97.8725 76.5947 98.7575 77.4224C99.6365 78.2076 100.667 78.8234 101.792 79.2358C102.946 79.683 104.182 79.9096 105.428 79.9027C106.081 79.9029 106.732 79.8327 107.368 79.6933C108.003 79.5604 108.619 79.3569 109.203 79.087C109.769 78.8238 110.299 78.4982 110.784 78.1169C111.261 77.7404 111.666 77.2893 111.983 76.783V77.9626C111.979 78.1919 112.023 78.4197 112.112 78.6326C112.202 78.8455 112.335 79.0394 112.504 79.2027C112.669 79.3673 112.868 79.4978 113.088 79.586C113.308 79.6742 113.545 79.7182 113.784 79.7153C114.029 79.7236 114.274 79.6823 114.502 79.5939C114.729 79.5055 114.934 79.3722 115.104 79.2027C115.273 79.0394 115.406 78.8455 115.496 78.6326C115.585 78.4197 115.629 78.1919 115.625 77.9626V63.3067C115.629 63.0783 115.585 62.8514 115.495 62.6393C115.406 62.4273 115.273 62.2344 115.104 62.0721C114.933 61.9012 114.726 61.767 114.496 61.6786C114.267 61.5902 114.02 61.5496 113.772 61.5595ZM111.456 73.0902C111.144 73.7962 110.68 74.4326 110.095 74.9586C109.523 75.4643 108.852 75.8576 108.121 76.1161C107.366 76.3867 106.565 76.523 105.758 76.5185C104.942 76.524 104.133 76.3741 103.378 76.0775C102.661 75.7963 102.009 75.3822 101.462 74.8594C100.906 74.325 100.465 73.6921 100.165 72.9965C99.8329 72.2314 99.6693 71.4098 99.6839 70.5823C99.6688 69.7601 99.8324 68.9438 100.165 68.1847C100.459 67.5027 100.896 66.8845 101.448 66.3673C102.001 65.8501 102.657 65.4446 103.378 65.1752C104.137 64.8937 104.944 64.7515 105.758 64.7563C106.523 64.7593 107.281 64.888 107.999 65.1367C108.732 65.381 109.41 65.755 109.997 66.239C110.601 66.7438 111.085 67.3659 111.415 68.0634C111.786 68.8535 111.97 69.7115 111.954 70.5768C111.965 71.4399 111.811 72.2958 111.456 73.0902Z" fill="white"/>
<path d="M134.489 61.7513C134.122 61.5928 133.731 61.4905 133.331 61.4482C132.947 61.3966 132.56 61.3708 132.172 61.371C131.027 61.3445 129.908 61.7015 129.011 62.3797C127.989 63.2802 127.279 64.4544 126.973 65.7474V63.3056C126.976 63.0777 126.933 62.8513 126.844 62.6394C126.756 62.4275 126.624 62.2343 126.457 62.071C126.288 61.9005 126.083 61.7662 125.856 61.6768C125.628 61.5875 125.383 61.5453 125.137 61.5529C124.897 61.548 124.659 61.5916 124.439 61.6809C124.218 61.7702 124.02 61.9032 123.857 62.071C123.688 62.2333 123.555 62.4262 123.466 62.6382C123.376 62.8503 123.332 63.0772 123.336 63.3056V77.956C123.332 78.1853 123.376 78.4131 123.466 78.626C123.555 78.8389 123.688 79.0327 123.857 79.1961C124.022 79.3607 124.221 79.4912 124.441 79.5794C124.661 79.6676 124.898 79.7116 125.137 79.7087C125.383 79.717 125.627 79.6756 125.855 79.5873C126.083 79.4989 126.288 79.3656 126.457 79.1961C126.795 78.8638 126.98 78.4179 126.973 77.956V73.045C126.968 71.9362 127.069 70.8293 127.274 69.7379C127.441 68.8123 127.752 67.9152 128.194 67.0757C128.563 66.373 129.106 65.7659 129.775 65.3064C130.456 64.8627 131.267 64.635 132.091 64.656H132.514C132.654 64.6574 132.793 64.6703 132.931 64.6946C133.49 64.7553 134.056 64.7046 134.593 64.5458C134.827 64.4631 135.033 64.3188 135.184 64.1295C135.336 63.9402 135.428 63.7137 135.45 63.4765C135.546 63.1009 135.481 62.7045 135.27 62.3741C135.072 62.1046 134.802 61.8898 134.489 61.7513Z" fill="white"/>
<path d="M149.537 62.1754C149.392 62.0391 149.22 61.9319 149.031 61.8599C148.842 61.788 148.64 61.7528 148.437 61.7565H145.802V56.6195C145.806 56.3907 145.763 56.1633 145.674 55.9505C145.586 55.7376 145.454 55.5435 145.287 55.3794C145.117 55.2099 144.912 55.0766 144.684 54.9882C144.457 54.8998 144.212 54.8584 143.966 54.8668C143.728 54.8639 143.491 54.9079 143.27 54.9961C143.05 55.0843 142.852 55.2148 142.687 55.3794C142.517 55.5425 142.384 55.7363 142.295 55.9493C142.205 56.1623 142.161 56.3902 142.166 56.6195V61.7565H140.168C139.964 61.7528 139.762 61.788 139.573 61.8599C139.384 61.9319 139.212 62.0391 139.068 62.1754C138.92 62.3057 138.802 62.4645 138.723 62.6412C138.644 62.8179 138.606 63.0086 138.61 63.2006C138.603 63.3994 138.64 63.5975 138.719 63.7818C138.798 63.9661 138.917 64.1324 139.068 64.2699C139.362 64.541 139.758 64.6897 140.168 64.6833H142.166V77.9666C142.161 78.196 142.205 78.4237 142.295 78.6367C142.384 78.8496 142.518 79.0434 142.687 79.2068C142.852 79.3714 143.05 79.5019 143.27 79.5901C143.491 79.6783 143.728 79.7223 143.966 79.7194C144.212 79.7277 144.457 79.6863 144.684 79.598C144.912 79.5096 145.117 79.3763 145.287 79.2068C145.624 78.8745 145.809 78.4286 145.802 77.9666V64.6833H148.442C148.852 64.6897 149.248 64.541 149.543 64.2699C149.691 64.1383 149.808 63.9785 149.887 63.8009C149.966 63.6233 150.004 63.4319 150 63.2392C150.007 63.0407 149.969 62.8432 149.889 62.6598C149.809 62.4764 149.689 62.3113 149.537 62.1754V62.1754Z" fill="white"/>
<path d="M57.7802 54.8657C57.3093 54.8646 56.8486 54.9966 56.4564 55.2448C56.0643 55.4931 55.7584 55.8465 55.5774 56.2603C55.3963 56.6742 55.3484 57.1298 55.4396 57.5696C55.5307 58.0094 55.7569 58.4136 56.0895 58.731C56.4221 59.0483 56.8462 59.2646 57.308 59.3525C57.7698 59.4403 58.2486 59.3958 58.6838 59.2245C59.119 59.0532 59.491 58.7629 59.7528 58.3902C60.0145 58.0175 60.1543 57.5793 60.1543 57.1311C60.1543 56.5312 59.9043 55.9559 59.4593 55.5312C59.0142 55.1065 58.4104 54.8672 57.7802 54.8657Z" fill="white"/>
<path d="M31.6767 54.8657C31.206 54.8657 30.7459 54.9986 30.3546 55.2475C29.9632 55.4964 29.6582 55.8502 29.478 56.2642C29.2979 56.6781 29.2508 57.1336 29.3426 57.573C29.4344 58.0124 29.6611 58.4161 29.9939 58.7329C30.3268 59.0497 30.7508 59.2655 31.2125 59.3529C31.6741 59.4403 32.1526 59.3954 32.5875 59.224C33.0223 59.0525 33.394 58.7622 33.6555 58.3896C33.917 58.0171 34.0566 57.5791 34.0566 57.1311C34.0566 56.5303 33.8059 55.9541 33.3596 55.5292C32.9132 55.1044 32.3079 54.8657 31.6767 54.8657Z" fill="white"/>
<path d="M125.295 82.7165C124.913 83.0472 124.525 83.3779 124.137 83.7031L123.558 84.1881L123.262 84.4307L122.955 84.6622L121.716 85.5771L121.097 86.0291L120.454 86.459C120.025 86.7401 119.597 87.0102 119.163 87.3023C118.943 87.4401 118.728 87.5889 118.508 87.7157L117.837 88.1125C116.951 88.6637 116.047 89.1598 115.127 89.6338C111.431 91.5628 107.554 93.1589 103.546 94.4015C95.4673 96.8741 87.0221 98.0877 78.5368 97.9952C74.2971 97.9727 70.0661 97.6262 65.8847 96.9589C61.7056 96.301 57.593 95.3053 53.5915 93.9826C49.6026 92.6662 45.754 90.9923 42.0975 88.9834L41.4142 88.6086L40.7483 88.2062C40.3024 87.9417 39.8624 87.6551 39.4223 87.4015C39.2023 87.2637 38.9822 87.1369 38.7622 86.9936L38.1195 86.5582C37.691 86.2716 37.2683 85.9795 36.8455 85.6873C36.4228 85.3952 36.0117 85.0866 35.6064 84.7724L34.3904 83.8354C34.1877 83.6811 33.9966 83.5102 33.8114 83.3448L33.2323 82.8433C32.8501 82.507 32.468 82.1708 32.0742 81.8291C32.549 82.0385 33.0239 82.248 33.4871 82.463C33.9503 82.6779 34.4078 82.8984 34.8826 83.0968L36.2839 83.6921C36.7529 83.8905 37.2104 84.1055 37.6852 84.2818C39.5729 85.037 41.449 85.7535 43.3598 86.3929C47.1497 87.6744 51.0169 88.7383 54.9407 89.5787C62.7071 91.258 70.6422 92.1285 78.6063 92.1747C86.5798 92.2461 94.5385 91.507 102.347 89.97C106.258 89.1997 110.117 88.2095 113.905 87.0047L114.623 86.7842L114.988 86.674L115.341 86.5472L116.771 86.0566L117.489 85.8141C117.732 85.7314 117.964 85.6377 118.201 85.5496C118.67 85.3677 119.145 85.1968 119.626 84.9984L120.327 84.8L121.033 84.5133L122.452 83.9622L122.805 83.8189L123.158 83.6645L123.859 83.3614L125.295 82.7165Z" fill="white"/>
</g>
<defs>
<clipPath id="clip0_33_11008">
<rect width="150" height="150" fill="white"/>
</clipPath>
</defs>
</svg>
