<svg width="150" height="150" viewBox="0 0 150 150" fill="none" xmlns="http://www.w3.org/2000/svg">
<path d="M54.6085 91.7373C54.6085 94.1429 53.686 96.4504 52.0437 98.1514C50.4015 99.8526 48.1742 100.808 45.852 100.808H0C0 100.808 0.133873 98.7219 3.5355 96.3958C6.93712 94.0696 9.56593 92.2983 11.0264 89.4995C11.0264 89.4995 14.215 93.3761 20.3854 93.3761H45.3955C45.9475 93.3761 46.4768 93.1492 46.8673 92.7447C47.2575 92.3405 47.4767 91.7922 47.4767 91.2204V73.2991C47.4767 66.9073 43.7343 63.6041 43.7343 63.6041C46.436 62.0911 48.1705 59.3618 50.3915 55.8444C52.6125 52.3268 54.651 52.182 54.651 52.182V82.1242H65.5375V73.2991C65.5375 66.9073 61.7952 63.6041 61.7952 63.6041C64.497 62.0911 66.2312 59.3618 68.4522 55.8444C70.6735 52.3268 72.712 52.182 72.712 52.182V82.1242H83.9695V73.2991C83.9695 66.9073 80.221 63.6041 80.221 63.6041C82.929 62.0911 84.6633 59.3618 86.8783 55.8444C89.0933 52.3268 91.138 52.182 91.138 52.182V82.1242H98.4585V43.1235C98.4585 36.7316 94.716 33.4222 94.716 33.4222C97.4177 31.9156 99.1523 29.1862 101.373 25.6687C103.594 22.1513 105.603 22 105.603 22V82.1242H116.081C114.233 79.3433 113.246 76.0452 113.251 72.6687C113.279 68.6748 114.674 64.8205 117.187 61.7918C119.701 58.7631 123.17 56.7568 126.978 56.1295C130.786 55.5023 134.685 56.2953 137.982 58.3668C141.278 60.4386 143.758 63.6548 144.98 67.4431L142.771 68.8424C140.598 66.8063 135.627 63.0242 129.523 63.1693C127.175 63.1618 124.914 64.0873 123.206 65.7554C121.497 67.4234 120.471 69.7071 120.339 72.1352C120.208 74.5636 120.98 76.9517 122.497 78.8077C124.014 80.6638 126.161 81.8463 128.495 82.1117H149.495L145.752 89.8147H54.6085V91.7373ZM63.7362 93.4077C63.0142 93.4077 62.3082 93.6297 61.7077 94.0453C61.1075 94.4607 60.6395 95.0514 60.363 95.7426C60.0868 96.4336 60.0145 97.1942 60.1552 97.9279C60.2962 98.6615 60.644 99.3354 61.1545 99.8645C61.6652 100.393 62.3158 100.754 63.024 100.899C63.7323 101.045 64.4663 100.971 65.1335 100.684C65.8008 100.398 66.371 99.9132 66.772 99.2911C67.1732 98.6693 67.3875 97.938 67.3875 97.19C67.3875 96.1868 67.0028 95.2249 66.318 94.5156C65.6333 93.8063 64.7047 93.4077 63.7362 93.4077ZM29.209 78.4493C29.931 78.4493 30.637 78.2274 31.2375 77.8117C31.8377 77.3963 32.3057 76.8056 32.582 76.1144C32.8585 75.4232 32.9308 74.6628 32.79 73.9292C32.649 73.1955 32.3013 72.5216 31.7908 71.9925C31.28 71.4637 30.6295 71.1035 29.9213 70.9574C29.213 70.8116 28.4787 70.8865 27.8117 71.1726C27.1445 71.4591 26.5743 71.9439 26.1733 72.5657C25.772 73.1877 25.5577 73.9191 25.5577 74.667C25.5577 75.67 25.9425 76.6321 26.6272 77.3414C27.312 78.0507 28.2405 78.4493 29.209 78.4493ZM68.9817 97.1647C68.9817 97.9128 69.1958 98.6442 69.597 99.266C69.9983 99.888 70.5685 100.373 71.2358 100.659C71.9028 100.945 72.637 101.02 73.3453 100.874C74.0535 100.728 74.704 100.368 75.2145 99.8391C75.7253 99.3103 76.073 98.6362 76.2138 97.9025C76.3548 97.1688 76.2825 96.4085 76.006 95.7172C75.7297 95.0263 75.2618 94.4356 74.6613 94.0199C74.061 93.6043 73.355 93.3826 72.6328 93.3826C71.6645 93.3826 70.7358 93.7809 70.0513 94.4902C69.3665 95.1996 68.9817 96.1616 68.9817 97.1647ZM81.998 93.3826C81.2757 93.3826 80.57 93.6043 79.9695 94.0199C79.369 94.4356 78.9012 95.0263 78.6247 95.7172C78.3485 96.4085 78.2763 97.1688 78.417 97.9025C78.558 98.6362 78.9058 99.3103 79.4163 99.8391C79.927 100.368 80.5775 100.728 81.2858 100.874C81.994 101.02 82.728 100.945 83.3953 100.659C84.0623 100.373 84.6325 99.888 85.0338 99.266C85.435 98.6442 85.649 97.9128 85.649 97.1647C85.649 96.1616 85.2645 95.1996 84.5798 94.4902C83.895 93.7809 82.9662 93.3826 81.998 93.3826ZM94.5518 97.1647C94.5518 96.4167 94.3375 95.6854 93.9365 95.0636C93.5353 94.4415 92.965 93.9567 92.2978 93.6706C91.6308 93.3841 90.8965 93.3093 90.1882 93.4551C89.48 93.6012 88.8295 93.9614 88.3187 94.4902C87.8082 95.0193 87.4605 95.6932 87.3197 96.4268C87.1787 97.1605 87.251 97.9211 87.5275 98.6121C87.8038 99.3033 88.2718 99.894 88.8723 100.31C89.4725 100.725 90.1785 100.947 90.9005 100.947C91.869 100.947 92.7975 100.548 93.4822 99.8391C94.167 99.1298 94.5518 98.1679 94.5518 97.1647ZM0.0547645 127.511H2.33671V109.621H0.0547645V127.511ZM15.7667 109.621H13.4848V127.511H23.4706V125.399H15.7667V109.621ZM36.28 109.621H33.992V127.511H43.9778V125.399H36.28V109.621ZM54.572 127.511H56.86V109.621H54.572V127.511ZM76.1317 114.903C75.3935 116.076 74.7667 117.126 74.2515 118.055C73.7037 117.046 73.1178 116.038 72.493 115.029L69.0912 109.633H66.3285L72.9615 119.946V127.511H75.2495V119.946L82.15 109.64H79.491L76.1317 114.903ZM93.42 119.316H102.17V117.217H93.42V111.751H102.84V109.64H91.138V127.511H103.217V125.399H93.42V119.316ZM116.166 119.316H124.917V117.217H116.166V111.751H125.568V109.64H113.884V127.511H125.963V125.399H116.166V119.316ZM147.809 109.627V123.672L138.743 109.64H136.399V127.511H138.59V113.453L147.657 127.511H150V109.621L147.809 109.627Z" fill="white"/>
</svg>
