<svg width="150" height="150" viewBox="0 0 150 150" fill="none" xmlns="http://www.w3.org/2000/svg">
<g clip-path="url(#clip0_33_10877)">
<path d="M10.0805 64.29L0.30957 85.0215L13.1994 70.9082L10.0805 64.29Z" fill="white"/>
<path d="M0 85.9905H9.2957L14.8007 74.3044L13.3948 71.3228L0 85.9905Z" fill="white"/>
<path d="M18.1854 80.1487L18.6593 75.2787L19.6593 64.9859L19.7159 64.4017L19.7201 64.3579L19.7512 64.0495L19.7555 64H19.5079H10.4131L10.4145 64.0014L13.5093 70.5687L13.6069 70.7766L13.7045 70.9845L15.0355 73.8063L15.1529 74.0553L15.2689 74.3042L18.1048 80.3198L18.1854 80.1487Z" fill="white"/>
<path d="M19.7396 68.5404L18.7227 79.0086L22.8245 70.3028L20.1258 64.5757L19.7396 68.5404Z" fill="white"/>
<path d="M25.9847 76.0113L25.9705 76.4809L25.9578 76.949L25.8743 79.8232L25.8687 80.0382L25.8616 80.2546L25.7428 84.3918L25.7188 85.1924L30.8475 74.304L26.3128 64.6802L25.9847 76.0113Z" fill="white"/>
<path d="M23.2946 70.3027L23.1772 70.5516L23.0599 70.8006L18.6015 80.2617L18.3328 80.8318L18.2225 81.0666L18.1051 81.3141V81.3155L15.9014 85.9902H25.272L25.4361 80.3212L25.4418 80.1062L25.4474 79.8897L25.5578 76.1005L25.5719 75.6323L25.5846 75.1627L25.8845 64.8062L23.2946 70.3027Z" fill="white"/>
<path d="M36.2793 64.7979L36.8861 85.6623L42.9201 78.8899L36.2793 64.7979Z" fill="white"/>
<path d="M35.8373 64.2122L35.8302 64H26.4609V64.0014L31.0819 73.8063L31.1993 74.0553L31.3167 74.3042L36.4469 85.1911L35.85 64.6818L35.8373 64.2122Z" fill="white"/>
<path d="M53.9185 83.4824V80.0878H52.6455V79.6323H55.6993V80.0878H54.4263V83.4824H53.9185Z" fill="white"/>
<path d="M56.7051 83.4823V79.6279H57.1789V81.0113C57.2802 80.8882 57.408 80.7897 57.5528 80.7231C57.6976 80.6565 57.8555 80.6235 58.0149 80.6265C58.2019 80.622 58.3872 80.6643 58.5538 80.7496C58.698 80.8217 58.8133 80.941 58.8805 81.0876C58.9557 81.2871 58.9894 81.4998 58.9795 81.7128V83.4823H58.5057V81.7128C58.5223 81.5273 58.4671 81.3425 58.3515 81.1965C58.2946 81.1405 58.2265 81.0972 58.1516 81.0694C58.0768 81.0417 57.9969 81.03 57.9173 81.0353C57.7778 81.0348 57.6408 81.0724 57.5212 81.1442C57.4032 81.2113 57.3103 81.3151 57.2567 81.4398C57.1979 81.6049 57.1715 81.7797 57.1789 81.9547V83.4823H56.7051Z" fill="white"/>
<path d="M62.1491 82.5785L62.637 82.6393C62.5758 82.9029 62.4261 83.1376 62.2127 83.3041C61.9436 83.4794 61.624 83.5607 61.3039 83.5351C60.9837 83.5095 60.6811 83.3785 60.4432 83.1626C60.2047 82.9109 60.0849 82.5582 60.084 82.1046C60.084 81.6332 60.2047 81.2682 60.4461 81.0099C60.5662 80.8815 60.7124 80.7804 60.8749 80.7133C61.0374 80.6462 61.2124 80.6147 61.3881 80.6209C61.5591 80.6152 61.7293 80.6464 61.8872 80.7123C62.0451 80.7782 62.187 80.8773 62.3032 81.0028C62.5395 81.2574 62.6569 81.6138 62.6569 82.0749C62.6569 82.1032 62.6569 82.1456 62.6569 82.2008H60.5691C60.5667 82.4604 60.6592 82.7119 60.8294 82.908C60.9036 82.9878 60.994 83.0509 61.0944 83.0931C61.1949 83.1353 61.3032 83.1556 61.4121 83.1527C61.5717 83.1558 61.7279 83.1061 61.8563 83.0113C61.9939 82.8985 62.0956 82.7481 62.1491 82.5785ZM60.5932 81.8133H62.1491C62.1444 81.6234 62.0823 81.4394 61.9709 81.2857C61.901 81.1978 61.8118 81.1274 61.7102 81.0798C61.6087 81.0322 61.4974 81.0087 61.3853 81.0113C61.2837 81.0089 61.1828 81.0271 61.0884 81.0648C60.9941 81.1024 60.9084 81.1588 60.8365 81.2305C60.6849 81.3871 60.5985 81.5954 60.5946 81.8133H60.5932Z" fill="white"/>
<path d="M65.8477 83.4824V79.628H66.6143L67.5266 82.3565C67.6115 82.6111 67.668 82.8006 67.7105 82.9222C67.7543 82.7808 67.8236 82.5757 67.9156 82.3041L68.8392 79.6167H69.5252V83.4824H69.033V80.256L67.9142 83.4824H67.4545L66.3399 80.2009V83.4824H65.8477Z" fill="white"/>
<path d="M70.6572 82.0821C70.6572 81.5644 70.7987 81.1825 71.0816 80.9336C71.326 80.7251 71.6388 80.6143 71.9599 80.6224C72.1344 80.6161 72.3083 80.6465 72.4703 80.7115C72.6323 80.7766 72.7788 80.8748 72.9005 81C73.0275 81.1409 73.1253 81.3056 73.1882 81.4845C73.2511 81.6635 73.2778 81.8531 73.2669 82.0425C73.281 82.3341 73.2257 82.625 73.1056 82.8911C72.9996 83.0945 72.8357 83.2618 72.6346 83.3721C72.4279 83.4852 72.1956 83.5437 71.9599 83.5418C71.7846 83.5489 71.6096 83.5192 71.4464 83.4547C71.2832 83.3901 71.1353 83.2921 71.0123 83.167C70.7756 82.9143 70.6572 82.5526 70.6572 82.0821ZM71.1424 82.0821C71.1424 82.4399 71.2216 82.7073 71.3772 82.8855C71.4505 82.9693 71.5408 83.0364 71.6422 83.0824C71.7435 83.1284 71.8536 83.1522 71.9649 83.1522C72.0762 83.1522 72.1862 83.1284 72.2876 83.0824C72.3889 83.0364 72.4793 82.9693 72.5526 82.8855C72.7082 82.7059 72.786 82.4343 72.786 82.0679C72.8063 81.7864 72.7228 81.5071 72.5512 81.2829C72.478 81.1992 72.3878 81.132 72.2865 81.086C72.1853 81.04 72.0754 81.0163 71.9642 81.0163C71.853 81.0163 71.743 81.04 71.6418 81.086C71.5406 81.132 71.4503 81.1992 71.3772 81.2829C71.223 81.4569 71.1367 81.7242 71.1367 82.0821H71.1424Z" fill="white"/>
<path d="M74.1709 82.6451L74.6391 82.5716C74.6553 82.7359 74.7337 82.8877 74.8583 82.9959C75.003 83.1041 75.1815 83.1573 75.3619 83.1459C75.5337 83.1592 75.7048 83.1122 75.8456 83.0129C75.8938 82.9765 75.933 82.9294 75.9602 82.8755C75.9874 82.8216 76.0019 82.7621 76.0026 82.7017C76.0038 82.6509 75.9913 82.6007 75.9664 82.5564C75.9415 82.5121 75.9052 82.4753 75.8611 82.45C75.7073 82.3762 75.5448 82.322 75.3774 82.2887C75.1307 82.2348 74.8893 82.159 74.6561 82.0624C74.5325 82.0076 74.4278 81.9176 74.3551 81.8037C74.2824 81.6897 74.2449 81.5568 74.2473 81.4217C74.2463 81.3013 74.2755 81.1827 74.3321 81.0765C74.3881 80.9717 74.4675 80.8812 74.5641 80.812C74.6559 80.7484 74.7578 80.7006 74.8654 80.6706C74.9983 80.6325 75.1359 80.6135 75.2742 80.614C75.4707 80.6106 75.6661 80.6427 75.8512 80.7088C75.996 80.7568 76.1234 80.8463 76.2176 80.9662C76.3045 81.093 76.3606 81.2383 76.3817 81.3905L75.9177 81.4542C75.9112 81.3888 75.8917 81.3253 75.8604 81.2675C75.829 81.2097 75.7865 81.1587 75.7353 81.1176C75.6117 81.0301 75.4621 80.9872 75.3109 80.9959C75.1482 80.9822 74.9853 81.0203 74.8456 81.1048C74.8037 81.1325 74.769 81.1698 74.7444 81.2136C74.7198 81.2574 74.706 81.3064 74.7041 81.3566C74.7036 81.4168 74.7241 81.4754 74.7621 81.5221C74.8098 81.5798 74.8724 81.6234 74.9432 81.648C74.9899 81.6664 75.1299 81.706 75.3675 81.7696C75.6076 81.8279 75.8438 81.9011 76.0747 81.9888C76.2002 82.0403 76.3082 82.1267 76.3859 82.2378C76.4644 82.3578 76.5039 82.4991 76.4991 82.6423C76.4981 82.8017 76.4488 82.9571 76.3576 83.0879C76.2596 83.2323 76.1214 83.3449 75.9602 83.4118C75.7738 83.4893 75.5736 83.5279 75.3718 83.5249C75.0776 83.5448 74.7854 83.4656 74.5415 83.3C74.3417 83.1347 74.2097 82.9016 74.1709 82.6451V82.6451Z" fill="white"/>
<path d="M78.6233 83.0581L78.6912 83.4824C78.5737 83.509 78.4538 83.5232 78.3334 83.5249C78.1955 83.5324 78.0581 83.5041 77.9345 83.4428C77.8462 83.3956 77.7761 83.3205 77.735 83.2292C77.6834 83.0454 77.6638 82.854 77.6771 82.6635V81.0567H77.3291V80.6889H77.6771V79.9972L78.1467 79.7144V80.6889H78.6233V81.0567H78.1537V82.6889C78.148 82.7765 78.1566 82.8644 78.1792 82.9492C78.1956 82.988 78.2245 83.0204 78.2612 83.0411C78.3108 83.0673 78.3665 83.0795 78.4225 83.0765C78.4897 83.0743 78.5568 83.0681 78.6233 83.0581V83.0581Z" fill="white"/>
<path d="M82.6021 83.4824V80.0878H81.3291V79.6323H84.3843V80.0878H83.1113V83.4824H82.6021Z" fill="white"/>
<path d="M85.1816 83.4823V80.6902H85.606V81.1145C85.6772 80.9639 85.78 80.8303 85.9072 80.7227C85.9966 80.6609 86.1027 80.6278 86.2114 80.6279C86.3847 80.6322 86.5533 80.6851 86.6979 80.7807L86.5353 81.2206C86.431 81.1549 86.3106 81.1192 86.1873 81.1173C86.0852 81.1154 85.9854 81.1483 85.9044 81.2107C85.8198 81.276 85.7583 81.3667 85.729 81.4695C85.6743 81.6482 85.6475 81.8343 85.6498 82.0212V83.4823H85.1816Z" fill="white"/>
<path d="M89.3484 83.4825V83.0723C89.2537 83.2208 89.1224 83.3422 88.967 83.425C88.8116 83.5078 88.6375 83.549 88.4615 83.5448C88.3029 83.5461 88.1457 83.5139 88.0004 83.45C87.8749 83.4009 87.7649 83.3188 87.6822 83.2124C87.6104 83.107 87.5621 82.9873 87.5407 82.8616C87.5183 82.7156 87.5089 82.5679 87.5125 82.4203V80.6904H87.9849V82.2463C87.9793 82.4133 87.9892 82.5805 88.0146 82.7456C88.0394 82.8633 88.1069 82.9676 88.2041 83.0384C88.3083 83.1115 88.4334 83.1488 88.5606 83.1445C88.7014 83.1454 88.8399 83.1078 88.9608 83.0356C89.0799 82.9695 89.1728 82.8647 89.2239 82.7385C89.2839 82.5635 89.3103 82.3788 89.3017 82.194V80.6975H89.7756V83.4825H89.3484Z" fill="white"/>
<path d="M90.8623 82.6451L91.3305 82.5716C91.3467 82.7359 91.4251 82.8877 91.5497 82.9959C91.6944 83.1041 91.8729 83.1573 92.0533 83.1459C92.2251 83.1592 92.3962 83.1122 92.537 83.0129C92.5852 82.9765 92.6244 82.9294 92.6516 82.8755C92.6788 82.8216 92.6933 82.7621 92.694 82.7017C92.6952 82.6509 92.6827 82.6007 92.6578 82.5564C92.6329 82.5121 92.5966 82.4753 92.5526 82.45C92.3987 82.3762 92.2362 82.322 92.0688 82.2887C91.8221 82.2348 91.5808 82.159 91.3475 82.0624C91.2239 82.0076 91.1192 81.9176 91.0465 81.8037C90.9738 81.6897 90.9363 81.5568 90.9387 81.4217C90.9378 81.3013 90.9669 81.1827 91.0236 81.0765C91.0795 80.9717 91.1589 80.8812 91.2555 80.812C91.3473 80.7484 91.4492 80.7006 91.5568 80.6706C91.6897 80.6325 91.8273 80.6135 91.9656 80.614C92.1621 80.6106 92.3576 80.6427 92.5427 80.7088C92.6874 80.7568 92.8148 80.8463 92.909 80.9662C92.9952 81.0934 93.0513 81.2385 93.0731 81.3905L92.6091 81.4542C92.6026 81.3888 92.5831 81.3253 92.5518 81.2675C92.5204 81.2097 92.4779 81.1587 92.4267 81.1176C92.3031 81.0301 92.1535 80.9872 92.0024 80.9959C91.8396 80.9822 91.6767 81.0203 91.537 81.1048C91.4951 81.1325 91.4604 81.1698 91.4358 81.2136C91.4112 81.2574 91.3974 81.3064 91.3956 81.3566C91.395 81.4168 91.4156 81.4754 91.4535 81.5221C91.5012 81.5798 91.5639 81.6234 91.6346 81.648C91.6813 81.6664 91.8213 81.706 92.0589 81.7696C92.299 81.8279 92.5352 81.9011 92.7662 81.9888C92.8916 82.0403 92.9996 82.1267 93.0773 82.2378C93.1558 82.3578 93.1953 82.4991 93.1905 82.6423C93.1888 82.8016 93.1395 82.9568 93.049 83.0879C92.951 83.2323 92.8128 83.3449 92.6516 83.4118C92.4652 83.4893 92.265 83.5279 92.0632 83.5249C91.7691 83.5448 91.4768 83.4656 91.2329 83.3C91.0331 83.1347 90.9012 82.9016 90.8623 82.6451V82.6451Z" fill="white"/>
<path d="M95.3147 83.0581L95.3826 83.4824C95.2651 83.509 95.1452 83.5232 95.0248 83.5249C94.8869 83.5324 94.7495 83.5041 94.6259 83.4428C94.5376 83.3956 94.4675 83.3205 94.4265 83.2292C94.3748 83.0454 94.3552 82.854 94.3685 82.6635V81.0567H94.0205V80.6889H94.3685V79.9972L94.838 79.7144V80.6889H95.3147V81.0567H94.8437V82.6889C94.8379 82.7765 94.8466 82.8644 94.8692 82.9492C94.8856 82.988 94.9144 83.0204 94.9512 83.0411C95.0008 83.0673 95.0565 83.0795 95.1125 83.0765C95.1802 83.0743 95.2477 83.0682 95.3147 83.0581V83.0581Z" fill="white"/>
<path d="M98.2258 82.5785L98.7152 82.6393C98.654 82.9029 98.5042 83.1376 98.2908 83.3041C98.0215 83.4795 97.7017 83.5608 97.3813 83.5353C97.0609 83.5097 96.758 83.3786 96.52 83.1626C96.2814 82.9109 96.1621 82.5582 96.1621 82.1046C96.1621 81.6332 96.2828 81.2682 96.5242 81.0099C96.6443 80.8815 96.7906 80.7804 96.9531 80.7133C97.1155 80.6462 97.2905 80.6147 97.4662 80.6209C97.637 80.6152 97.8071 80.6463 97.9647 80.7122C98.1224 80.7781 98.264 80.8772 98.38 81.0028C98.6176 81.2574 98.735 81.6138 98.735 82.0749C98.735 82.1032 98.735 82.1456 98.735 82.2008H96.6543C96.6519 82.4604 96.7444 82.7119 96.9146 82.908C96.9888 82.9878 97.0792 83.0509 97.1796 83.0931C97.2801 83.1353 97.3884 83.1556 97.4974 83.1527C97.6569 83.1556 97.813 83.1059 97.9415 83.0113C98.0764 82.8978 98.1753 82.7474 98.2258 82.5785V82.5785ZM96.6699 81.8133H98.2258C98.2205 81.6235 98.1584 81.4398 98.0476 81.2857C97.9776 81.1977 97.8882 81.1271 97.7863 81.0795C97.6845 81.0318 97.573 81.0085 97.4606 81.0113C97.3593 81.0091 97.2586 81.0274 97.1645 81.065C97.0705 81.1027 96.985 81.159 96.9132 81.2305C96.7622 81.3873 96.6762 81.5956 96.6727 81.8133H96.6699Z" fill="white"/>
<path d="M101.659 83.4823V83.1301C101.578 83.2628 101.462 83.3713 101.325 83.4443C101.188 83.5172 101.033 83.5518 100.878 83.5445C100.66 83.5459 100.446 83.4819 100.264 83.3606C100.074 83.2342 99.9237 83.0561 99.8313 82.8472C99.7245 82.609 99.6719 82.3501 99.6771 82.0891C99.6746 81.8296 99.7227 81.5721 99.8186 81.3309C99.902 81.1169 100.05 80.9343 100.243 80.809C100.428 80.6876 100.644 80.6241 100.865 80.6265C101.015 80.6244 101.163 80.6582 101.297 80.7251C101.432 80.7921 101.548 80.8902 101.636 81.0113V79.6279H102.107V83.4823H101.659ZM100.164 82.0891C100.164 82.4469 100.239 82.7128 100.39 82.891C100.453 82.9727 100.534 83.039 100.626 83.0848C100.718 83.1307 100.82 83.1548 100.923 83.1555C101.025 83.156 101.125 83.1334 101.216 83.0895C101.307 83.0457 101.388 82.9817 101.451 82.9024C101.595 82.7326 101.667 82.4747 101.667 82.1287C101.667 81.7468 101.594 81.4653 101.447 81.28C101.383 81.1963 101.3 81.1284 101.206 81.0818C101.111 81.0352 101.007 81.011 100.902 81.0113C100.8 81.0103 100.699 81.0332 100.608 81.0782C100.516 81.1231 100.436 81.1888 100.374 81.2701C100.234 81.4427 100.164 81.7142 100.164 82.0848V82.0891Z" fill="white"/>
<path d="M105.475 83.4825V79.6281H106.803C107.033 79.622 107.263 79.6405 107.489 79.6833C107.698 79.7297 107.892 79.8269 108.055 79.9662C108.261 80.1426 108.419 80.3697 108.511 80.6253C108.617 80.9192 108.668 81.2297 108.663 81.5418C108.666 81.8048 108.632 82.0669 108.559 82.3198C108.504 82.5218 108.415 82.7131 108.296 82.8856C108.201 83.022 108.082 83.1404 107.946 83.2349C107.805 83.3254 107.649 83.3905 107.486 83.4273C107.283 83.474 107.075 83.4963 106.866 83.4938L105.475 83.4825ZM105.985 83.027H106.807C107.009 83.0342 107.211 83.0104 107.405 82.9563C107.535 82.9184 107.654 82.85 107.752 82.7568C107.883 82.6185 107.98 82.4514 108.035 82.2689C108.108 82.0283 108.142 81.7777 108.137 81.5263C108.155 81.2044 108.087 80.8835 107.939 80.597C107.83 80.4029 107.66 80.2498 107.456 80.1613C107.242 80.099 107.019 80.0727 106.796 80.0835H105.987L105.985 83.027Z" fill="white"/>
<path d="M109.837 80.1686V79.624H110.311V80.1686H109.837ZM109.837 83.4784V80.6863H110.311V83.4826L109.837 83.4784Z" fill="white"/>
<path d="M111.489 83.7088L111.948 83.7781C111.952 83.838 111.969 83.8964 111.996 83.9497C112.024 84.003 112.062 84.0501 112.108 84.0879C112.25 84.1828 112.419 84.2289 112.589 84.2195C112.768 84.2303 112.946 84.1843 113.097 84.0879C113.218 83.9971 113.303 83.8671 113.339 83.7202C113.37 83.519 113.381 83.3153 113.373 83.112C113.281 83.228 113.163 83.3214 113.029 83.3849C112.895 83.4484 112.749 83.4803 112.601 83.4783C112.429 83.4869 112.259 83.4535 112.103 83.381C111.948 83.3085 111.813 83.1992 111.709 83.0625C111.497 82.7769 111.386 82.4283 111.394 82.0723C111.39 81.8192 111.439 81.568 111.535 81.334C111.622 81.1222 111.77 80.941 111.96 80.8135C112.151 80.6879 112.376 80.6233 112.605 80.6282C112.763 80.626 112.919 80.6612 113.061 80.7307C113.203 80.8003 113.326 80.9023 113.421 81.0285V80.6918H113.857V83.1049C113.857 83.5396 113.812 83.8475 113.724 84.0285C113.631 84.2118 113.483 84.3606 113.299 84.4528C113.081 84.5647 112.837 84.6192 112.592 84.6113C112.306 84.6245 112.023 84.5457 111.784 84.3864C111.682 84.3077 111.601 84.2042 111.549 84.0857C111.497 83.9672 111.477 83.8376 111.489 83.7088V83.7088ZM111.879 82.0327C111.879 82.3991 111.953 82.665 112.098 82.8333C112.166 82.9124 112.25 82.9759 112.344 83.0194C112.438 83.063 112.541 83.0856 112.645 83.0856C112.749 83.0856 112.852 83.063 112.946 83.0194C113.04 82.9759 113.124 82.9124 113.192 82.8333C113.333 82.6664 113.412 82.409 113.412 82.0469C113.433 81.7699 113.352 81.4951 113.185 81.2732C113.118 81.1919 113.035 81.1265 112.94 81.0814C112.846 81.0364 112.742 81.013 112.637 81.0129C112.534 81.0126 112.433 81.0355 112.34 81.0801C112.247 81.1247 112.165 81.1897 112.101 81.2703C111.938 81.4893 111.859 81.7601 111.879 82.0327Z" fill="white"/>
<path d="M115.11 80.1686V79.624H115.584V80.1686H115.11ZM115.11 83.4784V80.6863H115.584V83.4826L115.11 83.4784Z" fill="white"/>
<path d="M117.875 83.0581L117.943 83.4824C117.825 83.509 117.705 83.5232 117.585 83.5249C117.447 83.5324 117.31 83.5041 117.186 83.4428C117.098 83.3956 117.028 83.3205 116.987 83.2292C116.935 83.0454 116.915 82.854 116.929 82.6635V81.0567H116.582V80.6889H116.929V79.9972L117.4 79.7144V80.6889H117.875V81.0567H117.4V82.6889C117.394 82.7764 117.402 82.8643 117.424 82.9492C117.44 82.988 117.469 83.0204 117.506 83.0411C117.555 83.0673 117.611 83.0795 117.667 83.0765C117.737 83.0745 117.806 83.0684 117.875 83.0581V83.0581Z" fill="white"/>
<path d="M120.698 83.1331C120.549 83.2665 120.377 83.3732 120.192 83.4485C120.025 83.511 119.848 83.5422 119.67 83.5404C119.414 83.5576 119.161 83.4773 118.963 83.3155C118.882 83.2436 118.818 83.155 118.775 83.0558C118.733 82.9566 118.712 82.8492 118.715 82.7413C118.714 82.6108 118.746 82.4822 118.809 82.3678C118.867 82.2588 118.951 82.1653 119.053 82.0949C119.157 82.0249 119.273 81.9728 119.394 81.9407C119.534 81.9068 119.675 81.8827 119.818 81.8685C120.106 81.8431 120.39 81.7886 120.667 81.7059C120.667 81.6408 120.667 81.5998 120.667 81.5828C120.674 81.5088 120.665 81.4341 120.641 81.3638C120.616 81.2936 120.577 81.2293 120.526 81.1755C120.372 81.0576 120.18 81.0002 119.987 81.0142C119.814 81.0014 119.642 81.0424 119.493 81.1316C119.37 81.2389 119.287 81.3852 119.258 81.5461L118.796 81.4824C118.827 81.3087 118.899 81.1447 119.004 81.0029C119.115 80.8702 119.263 80.7721 119.428 80.72C119.632 80.651 119.846 80.6175 120.062 80.621C120.259 80.6145 120.456 80.6433 120.643 80.7059C120.769 80.7466 120.882 80.8198 120.971 80.918C121.043 81.0122 121.092 81.1223 121.113 81.2391C121.133 81.3839 121.141 81.5301 121.137 81.6762V82.307C121.13 82.5855 121.139 82.8642 121.166 83.1415C121.188 83.2591 121.229 83.3723 121.287 83.4768H120.792C120.74 83.3687 120.709 83.2523 120.698 83.1331V83.1331ZM120.659 82.0765C120.408 82.1658 120.149 82.226 119.885 82.2561C119.744 82.2708 119.605 82.3026 119.472 82.3509C119.407 82.3782 119.351 82.4216 119.307 82.477C119.264 82.5323 119.236 82.5978 119.225 82.6671C119.214 82.7365 119.221 82.8075 119.245 82.8734C119.269 82.9394 119.31 82.9981 119.363 83.044C119.484 83.137 119.635 83.1818 119.787 83.1698C119.957 83.1726 120.125 83.1317 120.274 83.051C120.41 82.9768 120.519 82.8621 120.586 82.7229C120.645 82.5726 120.671 82.4116 120.663 82.2505L120.659 82.0765Z" fill="white"/>
<path d="M122.397 83.4823V79.6279H122.871V83.4823H122.397Z" fill="white"/>
<path d="M126.244 83.4825V79.6282H127.698C127.894 79.6242 128.09 79.6365 128.284 79.6649C128.454 79.6896 128.617 79.7514 128.76 79.846C128.894 79.941 129 80.0692 129.069 80.218C129.172 80.4385 129.208 80.6844 129.174 80.9253C129.139 81.1663 129.035 81.3919 128.874 81.5744C128.664 81.8021 128.288 81.9153 127.742 81.9153H126.752V83.4825H126.244ZM126.755 81.4613H127.745C128.074 81.4613 128.311 81.399 128.452 81.2774C128.523 81.2115 128.578 81.1308 128.614 81.041C128.65 80.9513 128.666 80.8548 128.66 80.7583C128.664 80.6112 128.621 80.4667 128.538 80.3453C128.461 80.2338 128.347 80.1532 128.216 80.1175C128.059 80.089 127.9 80.0776 127.741 80.0836H126.751L126.755 81.4613Z" fill="white"/>
<path d="M130.296 83.4823V79.6279H130.771V83.4823H130.296Z" fill="white"/>
<path d="M133.862 83.1331C133.713 83.2668 133.542 83.3735 133.356 83.4485C133.189 83.511 133.012 83.5422 132.834 83.5404C132.578 83.5574 132.326 83.477 132.127 83.3155C132.046 83.2436 131.982 83.155 131.939 83.0558C131.897 82.9566 131.876 82.8492 131.879 82.7413C131.878 82.6108 131.91 82.4822 131.973 82.3678C132.031 82.2588 132.115 82.1653 132.217 82.0949C132.322 82.0249 132.437 81.9728 132.558 81.9407C132.698 81.9071 132.84 81.883 132.982 81.8685C133.27 81.8431 133.554 81.7886 133.831 81.7059C133.831 81.6408 133.831 81.5998 133.831 81.5828C133.839 81.5093 133.831 81.4349 133.808 81.3647C133.785 81.2944 133.747 81.2299 133.697 81.1755C133.543 81.0576 133.351 81.0002 133.158 81.0142C132.985 81.0016 132.813 81.0426 132.664 81.1316C132.541 81.2393 132.459 81.3854 132.429 81.5461L131.967 81.4824C131.999 81.3087 132.07 81.1447 132.175 81.0029C132.285 80.8713 132.429 80.7733 132.592 80.72C132.796 80.6511 133.01 80.6176 133.226 80.621C133.423 80.6145 133.62 80.6433 133.807 80.7059C133.933 80.7466 134.046 80.8198 134.135 80.918C134.208 81.0119 134.257 81.1221 134.277 81.2391C134.297 81.3838 134.305 81.5301 134.301 81.6762V82.307C134.293 82.5856 134.303 82.8643 134.332 83.1415C134.352 83.2592 134.392 83.3725 134.451 83.4768H133.957C133.905 83.3688 133.873 83.2524 133.862 83.1331V83.1331ZM133.823 82.0765C133.573 82.1656 133.314 82.2259 133.05 82.2561C132.909 82.2704 132.771 82.3022 132.637 82.3509C132.561 82.3814 132.496 82.4347 132.451 82.5036C132.407 82.5705 132.384 82.6487 132.384 82.7285C132.383 82.7883 132.395 82.8477 132.419 82.9022C132.444 82.9568 132.48 83.0052 132.526 83.044C132.646 83.1376 132.798 83.1825 132.95 83.1698C133.12 83.1726 133.287 83.1317 133.437 83.051C133.572 82.9768 133.682 82.8621 133.749 82.7229C133.808 82.5726 133.834 82.4116 133.825 82.2505L133.823 82.0765Z" fill="white"/>
<path d="M136.607 83.0581L136.675 83.4824C136.557 83.509 136.437 83.5232 136.317 83.5249C136.179 83.5324 136.042 83.5041 135.918 83.4428C135.83 83.3953 135.759 83.3203 135.717 83.2292C135.667 83.0451 135.648 82.8539 135.66 82.6635V81.0567H135.312V80.6889H135.66V79.9972L136.13 79.7144V80.6889H136.607V81.0567H136.13V82.6889C136.124 82.7765 136.133 82.8644 136.156 82.9492C136.172 82.988 136.201 83.0204 136.238 83.0411C136.287 83.0673 136.343 83.0795 136.399 83.0765C136.468 83.0745 136.538 83.0684 136.607 83.0581V83.0581Z" fill="white"/>
<path d="M137.72 83.4826V81.0582H137.296V80.6905H137.72V80.3935C137.713 80.2502 137.73 80.1067 137.771 79.9691C137.816 79.8457 137.9 79.7406 138.012 79.6707C138.158 79.5863 138.325 79.5465 138.494 79.5561C138.642 79.5577 138.79 79.5733 138.935 79.6028L138.865 80.0158C138.771 79.9987 138.677 79.9898 138.582 79.9889C138.472 79.9787 138.362 80.0116 138.276 80.0809C138.205 80.1812 138.174 80.3039 138.187 80.426V80.6834H138.732V81.0512H138.187V83.4826H137.72Z" fill="white"/>
<path d="M139.465 82.0821C139.465 81.5644 139.606 81.1825 139.889 80.9336C140.133 80.7252 140.445 80.6144 140.766 80.6224C140.941 80.6161 141.115 80.6464 141.277 80.7115C141.439 80.7765 141.586 80.8748 141.708 81C141.835 81.1412 141.932 81.306 141.995 81.4849C142.057 81.6638 142.084 81.8533 142.073 82.0425C142.087 82.3341 142.032 82.625 141.912 82.8911C141.807 83.0951 141.642 83.2626 141.441 83.3721C141.234 83.4856 141.002 83.5441 140.766 83.5418C140.591 83.5491 140.416 83.5195 140.253 83.4549C140.09 83.3903 139.943 83.2922 139.82 83.167C139.583 82.9143 139.465 82.5526 139.465 82.0821ZM139.951 82.0821C139.951 82.4404 140.029 82.7082 140.185 82.8855C140.258 82.9693 140.348 83.0364 140.45 83.0824C140.551 83.1284 140.661 83.1522 140.772 83.1522C140.884 83.1522 140.994 83.1284 141.095 83.0824C141.197 83.0364 141.287 82.9693 141.36 82.8855C141.516 82.7059 141.594 82.4343 141.594 82.068C141.614 81.7864 141.53 81.5071 141.359 81.2829C141.286 81.1992 141.195 81.132 141.094 81.086C140.993 81.04 140.883 81.0163 140.772 81.0163C140.661 81.0163 140.551 81.04 140.449 81.086C140.348 81.132 140.258 81.1992 140.185 81.2829C140.029 81.4583 139.951 81.7247 139.951 82.0821Z" fill="white"/>
<path d="M143.168 83.4823V80.6902H143.592V81.1145C143.664 80.9639 143.766 80.8303 143.894 80.7227C143.983 80.6609 144.089 80.6278 144.198 80.6279C144.371 80.6324 144.54 80.6853 144.684 80.7807L144.52 81.2206C144.416 81.1547 144.296 81.119 144.174 81.1173C144.071 81.1154 143.972 81.1483 143.891 81.2107C143.806 81.276 143.745 81.3667 143.715 81.4695C143.661 81.6482 143.634 81.8343 143.636 82.0212V83.4823H143.168Z" fill="white"/>
<path d="M145.505 83.4824V80.6902H145.929V81.0778C146.017 80.9412 146.137 80.8281 146.279 80.7482C146.431 80.6632 146.602 80.6198 146.776 80.6224C146.955 80.615 147.131 80.6603 147.284 80.7525C147.417 80.8358 147.517 80.9628 147.567 81.1118C147.656 80.9626 147.783 80.839 147.934 80.7533C148.085 80.6675 148.256 80.6224 148.43 80.6224C148.546 80.6149 148.663 80.6315 148.773 80.6711C148.883 80.7108 148.983 80.7727 149.068 80.8529C149.218 81.0071 149.291 81.2419 149.291 81.5601V83.4824H148.822V81.7228C148.828 81.5849 148.813 81.4469 148.775 81.314C148.743 81.2304 148.685 81.1597 148.608 81.1132C148.523 81.0611 148.425 81.0346 148.325 81.0368C148.235 81.0344 148.145 81.0506 148.061 81.0844C147.977 81.1182 147.901 81.1689 147.837 81.2334C147.692 81.4082 147.622 81.6335 147.642 81.86V83.4824H147.17V81.6676C147.181 81.5019 147.14 81.3369 147.054 81.1952C147.008 81.14 146.95 81.0968 146.884 81.0692C146.818 81.0416 146.746 81.0305 146.675 81.0368C146.544 81.0361 146.416 81.0729 146.305 81.1429C146.191 81.2143 146.104 81.3225 146.059 81.4498C146.001 81.6388 145.976 81.8364 145.984 82.034V83.4824H145.505Z" fill="white"/>
<path d="M56.8065 71.0186L54.5363 65.5107H52.6494V74.0016H54.2011V68.6268L56.4147 74.0016H57.1968L59.4218 68.6211V74.0016H60.9734V65.5107H59.0879L56.8065 71.0186Z" fill="white"/>
<path d="M66.1406 74.0016H68.4773L67.309 70.9351L66.1406 74.0016Z" fill="white"/>
<path d="M127.364 74.0016H129.701L128.531 70.9351L127.364 74.0016Z" fill="white"/>
<path d="M68.1049 65.5107H66.4995L63.0879 74.0016H64.8277L67.3072 67.5871L69.7909 74.0016H71.5293L68.1049 65.5107Z" fill="white"/>
<path d="M79.876 68.1827C79.876 66.6098 78.7445 65.5122 77.1108 65.5122H73.6426V73.9988H75.1985V70.8531H76.3413L78.3569 74.0059H80.1957L78.0118 70.6919C79.0019 70.4359 79.876 69.6212 79.876 68.1827ZM75.1956 66.9563H76.992C77.7671 66.9563 78.289 67.45 78.289 68.1827C78.289 68.9154 77.7671 69.4203 76.992 69.4203H75.1956V66.9563Z" fill="white"/>
<path d="M89.2841 65.5107H87.294L84.202 69.1275V65.5107H82.6504V74.0016H84.202V71.1643L84.7112 70.5872L87.5896 74.0016H89.5628L85.7325 69.5617L89.2841 65.5107Z" fill="white"/>
<path d="M91.5723 74.0016H97.3305V72.5561H93.1239V70.3891H97.247V68.945H93.1239V66.9563H97.3305V65.5107H91.5723V74.0016Z" fill="white"/>
<path d="M99.5684 66.9563H102.076V74.0016H103.628V66.9563H106.147V65.5107H99.5684V66.9563Z" fill="white"/>
<path d="M112.136 65.519H108.669V74.0057H110.225V70.8529H112.139C113.743 70.8529 114.905 69.7298 114.905 68.1824C114.902 66.6096 113.765 65.519 112.136 65.519ZM110.222 66.9632H112.017C112.793 66.9632 113.315 67.4568 113.315 68.1895C113.315 68.9222 112.793 69.4158 112.017 69.4158H110.222V66.9632Z" fill="white"/>
<path d="M118.979 65.5107H117.426V74.0016H122.662V72.5561H118.979V65.5107Z" fill="white"/>
<path d="M129.33 65.5107H127.724L124.312 74.0016H126.051L128.532 67.5871L131.014 74.0016H132.754L129.33 65.5107Z" fill="white"/>
<path d="M140.405 71.6731C140.189 71.989 139.9 72.2476 139.562 72.4265C139.224 72.6054 138.848 72.6993 138.465 72.7C136.86 72.7 135.694 71.4638 135.694 69.7622C135.694 68.0606 136.86 66.8258 138.465 66.8258C138.847 66.831 139.222 66.927 139.559 67.1058C139.896 67.2846 140.186 67.5411 140.405 67.8541L140.546 68.0691L141.88 67.3251L141.697 67.0691C141.342 66.5399 140.861 66.1079 140.296 65.8124C139.732 65.5169 139.102 65.3674 138.465 65.3774C135.939 65.3774 134.107 67.2162 134.107 69.7622C134.107 72.3082 135.946 74.147 138.465 74.147C139.795 74.147 140.888 73.5812 141.71 72.4638L141.902 72.2035L140.547 71.4595L140.405 71.6731Z" fill="white"/>
<path d="M150 66.9563V65.5107H144.242V74.0016H150V72.5561H145.794V70.3891H149.917V68.945H145.794V66.9563H150Z" fill="white"/>
</g>
<defs>
<clipPath id="clip0_33_10877">
<rect width="150" height="21.9903" fill="white" transform="translate(0 64)"/>
</clipPath>
</defs>
</svg>
