<svg width="33" height="35" viewBox="0 0 33 35" fill="none" xmlns="http://www.w3.org/2000/svg">
<path d="M13.4375 27.7969H6.25C5.98478 27.7969 5.73043 27.6915 5.54289 27.504C5.35536 27.3164 5.25 27.0621 5.25 26.7969V6.79688C5.25 6.53166 5.35536 6.2773 5.54289 6.08977C5.73043 5.90223 5.98478 5.79687 6.25 5.79688H26.25C26.5152 5.79688 26.7696 5.90223 26.9571 6.08977C27.1446 6.2773 27.25 6.53166 27.25 6.79688V20.3844" stroke="url(#paint0_linear_3091_26607)" stroke-width="2" stroke-linecap="round" stroke-linejoin="round"/>
<path d="M21.8781 31.225C24.5291 31.225 26.6781 29.076 26.6781 26.425C26.6781 23.774 24.5291 21.625 21.8781 21.625C19.2272 21.625 17.0781 23.774 17.0781 26.425C17.0781 29.076 19.2272 31.225 21.8781 31.225Z" stroke="url(#paint1_linear_3091_26607)" stroke-width="2" stroke-linecap="round" stroke-linejoin="round"/>
<path d="M25.2734 29.8203L28.0506 32.5975" stroke="url(#paint2_linear_3091_26607)" stroke-width="2" stroke-linecap="round" stroke-linejoin="round"/>
<path d="M8.47852 15.9395H23.3357" stroke="url(#paint3_linear_3091_26607)" stroke-width="2"/>
<path d="M8.47852 20.0547H15.3357" stroke="url(#paint4_linear_3091_26607)" stroke-width="2"/>
<path d="M7.79395 12.7969H8.87744L9.25 11.6006H10.9932L11.3657 12.7969H12.4492L10.73 7.86475H9.5166L7.79395 12.7969ZM10.1113 8.82178H10.1318L10.7539 10.8281H9.48926L10.1113 8.82178ZM13.9941 12.8721C14.5479 12.8721 14.9238 12.6123 15.1118 12.1919H15.1323V12.7969H16.1304V9.13281H15.1323V11.2383C15.1323 11.7168 14.8486 12.0449 14.4009 12.0449C13.9531 12.0449 13.7275 11.7681 13.7275 11.2896V9.13281H12.7295V11.498C12.7295 12.356 13.1875 12.8721 13.9941 12.8721ZM18.1367 12.8721C18.6665 12.8721 19.0698 12.6055 19.2646 12.1714H19.2852V12.7969H20.2832V7.86475H19.2852V9.76855H19.2646C19.0664 9.32422 18.6562 9.05762 18.1367 9.05762C17.2139 9.05762 16.6465 9.76855 16.6465 10.9614V10.9648C16.6465 12.1543 17.2139 12.8721 18.1367 12.8721ZM18.4717 12.0449C17.9727 12.0449 17.6616 11.6313 17.6616 10.9648V10.9614C17.6616 10.2915 17.9761 9.88477 18.4717 9.88477C18.9536 9.88477 19.2886 10.3018 19.2886 10.9614V10.9648C19.2886 11.6279 18.957 12.0449 18.4717 12.0449ZM21.4692 8.66113C21.77 8.66113 22.0024 8.42529 22.0024 8.1416C22.0024 7.85791 21.77 7.62207 21.4692 7.62207C21.1685 7.62207 20.936 7.85791 20.936 8.1416C20.936 8.42529 21.1685 8.66113 21.4692 8.66113ZM20.9702 12.7969H21.9683V9.13281H20.9702V12.7969ZM24.0942 12.8721C24.3027 12.8721 24.4634 12.8516 24.5762 12.8345V12.103C24.5146 12.1099 24.4497 12.1201 24.3608 12.1201C24.0601 12.1201 23.9062 12.0039 23.9062 11.6621V9.88477H24.5762V9.13281H23.9062V8.2373H22.8979V9.13281H22.3887V9.88477H22.8979V11.7715C22.8979 12.5576 23.2808 12.8721 24.0942 12.8721Z" fill="url(#paint5_linear_3091_26607)"/>
<defs>
<linearGradient id="paint0_linear_3091_26607" x1="5.25" y1="17.0942" x2="27.25" y2="17.0942" gradientUnits="userSpaceOnUse">
<stop stop-color="#00469F"/>
<stop offset="1" stop-color="#1E79D6"/>
</linearGradient>
<linearGradient id="paint1_linear_3091_26607" x1="17.0781" y1="26.5547" x2="26.6781" y2="26.5547" gradientUnits="userSpaceOnUse">
<stop stop-color="#00469F"/>
<stop offset="1" stop-color="#1E79D6"/>
</linearGradient>
<linearGradient id="paint2_linear_3091_26607" x1="25.2734" y1="31.2464" x2="28.0506" y2="31.2464" gradientUnits="userSpaceOnUse">
<stop stop-color="#00469F"/>
<stop offset="1" stop-color="#1E79D6"/>
</linearGradient>
<linearGradient id="paint3_linear_3091_26607" x1="8.47852" y1="16.453" x2="23.3357" y2="16.453" gradientUnits="userSpaceOnUse">
<stop stop-color="#00469F"/>
<stop offset="1" stop-color="#1E79D6"/>
</linearGradient>
<linearGradient id="paint4_linear_3091_26607" x1="8.47852" y1="20.5682" x2="15.3357" y2="20.5682" gradientUnits="userSpaceOnUse">
<stop stop-color="#00469F"/>
<stop offset="1" stop-color="#1E79D6"/>
</linearGradient>
<linearGradient id="paint5_linear_3091_26607" x1="7.25" y1="10.905" x2="25.25" y2="10.905" gradientUnits="userSpaceOnUse">
<stop stop-color="#00469F"/>
<stop offset="1" stop-color="#1E79D6"/>
</linearGradient>
</defs>
</svg>
