<svg xmlns="http://www.w3.org/2000/svg" width="50" height="50" fill="none" xmlns:v="https://vecta.io/nano"><g stroke-width="2" stroke-linejoin="round"><path d="M43.75 34.6289V15.3711C43.7485 15.0929 43.6737 14.8201 43.5331 14.58C43.3925 14.34 43.1911 14.1413 42.9492 14.0039L25.7617 4.33594C25.5301 4.20223 25.2674 4.13184 25 4.13184C24.7326 4.13184 24.4699 4.20223 24.2383 4.33594L7.05078 14.0039C6.80889 14.1413 6.60749 14.34 6.4669 14.58C6.32631 14.8201 6.25149 15.0929 6.25 15.3711V34.6289C6.25149 34.9071 6.32631 35.1799 6.4669 35.42C6.60749 35.66 6.80889 35.8587 7.05078 35.9961L24.2383 45.6641C24.4699 45.7978 24.7326 45.8682 25 45.8682C25.2674 45.8682 25.5301 45.7978 25.7617 45.6641L42.9492 35.9961C43.1911 35.8587 43.3925 35.66 43.5331 35.42C43.6737 35.1799 43.7485 34.9071 43.75 34.6289V34.6289Z" stroke="url(#A)"/><g stroke-linecap="round"><path d="M43.5352 14.5703L25.1758 25L6.46484 14.5703" stroke="url(#B)"/><path d="M25.1758 25L25 45.8594" stroke="url(#C)"/></g></g><defs><linearGradient id="A" x1="6.25" y1="25.564" x2="43.75" y2="25.564" gradientUnits="userSpaceOnUse"><stop stop-color="#00469f"/><stop offset="1" stop-color="#1e79d6"/></linearGradient><linearGradient id="B" x1="6.465" y1="19.926" x2="43.535" y2="19.926" gradientUnits="userSpaceOnUse"><stop stop-color="#00469f"/><stop offset="1" stop-color="#1e79d6"/></linearGradient><linearGradient id="C" x1="25" y1="35.712" x2="25.176" y2="35.712" gradientUnits="userSpaceOnUse"><stop stop-color="#00469f"/><stop offset="1" stop-color="#1e79d6"/></linearGradient></defs></svg>