<svg xmlns="http://www.w3.org/2000/svg" width="50" height="50" fill="none" xmlns:v="https://vecta.io/nano"><g stroke-width="2" stroke-linejoin="round"><path d="M40.3516 41.8557L9.10157 36.1721C8.73948 36.1077 8.41169 35.9177 8.1759 35.6355C7.94011 35.3532 7.81143 34.9969 7.81251 34.6291V15.3713C7.81143 15.0035 7.94011 14.6472 8.1759 14.3649C8.41169 14.0827 8.73948 13.8927 9.10157 13.8283L40.3516 8.14472C40.5768 8.10469 40.808 8.11459 41.029 8.17373C41.2499 8.23286 41.4552 8.33978 41.6303 8.48694C41.8054 8.6341 41.9461 8.81791 42.0423 9.02539C42.1386 9.23287 42.1882 9.45896 42.1875 9.68769V40.3127C42.1882 40.5414 42.1386 40.7675 42.0423 40.975C41.9461 41.1825 41.8054 41.3663 41.6303 41.5134C41.4552 41.6606 41.2499 41.7675 41.029 41.8266C40.808 41.8858 40.5768 41.8957 40.3516 41.8557Z" stroke="url(#A)"/><path d="M3.125 25H46.875" stroke="url(#B)" stroke-linecap="round"/></g><defs><linearGradient id="A" x1="7.813" y1="25.456" x2="42.188" y2="25.456" gradientUnits="userSpaceOnUse"><stop stop-color="#00469f"/><stop offset="1" stop-color="#1e79d6"/></linearGradient><linearGradient id="B" x1="3.125" y1="25.514" x2="46.875" y2="25.514" gradientUnits="userSpaceOnUse"><stop stop-color="#00469f"/><stop offset="1" stop-color="#1e79d6"/></linearGradient></defs></svg>