<svg xmlns="http://www.w3.org/2000/svg" xmlns:xlink="http://www.w3.org/1999/xlink" width="32" height="50" fill="none" xmlns:v="https://vecta.io/nano"><path d="M.732 28.217c.405 0 .732-.328.732-.732V3.1c0-.901.733-1.635 1.635-1.635h24.86c.901 0 1.635.733 1.635 1.635v5.395c0 .405.328.732.732.732s.732-.328.732-.732V3.1c0-1.709-1.391-3.1-3.1-3.1H3.1C1.391 0 0 1.39 0 3.1v24.385c0 .404.328.732.732.732z" fill="url(#A)"/><path d="M31.06 11.91c0-.405-.328-.732-.732-.732s-.732.328-.732.732v30.311H2V30.901c0-.405-.595-.9-1-.9s-1 .496-1 .9v16C0 48.61 1.391 50 3.1 50h19.331c.404 0 1.069-.595 1.069-1s-.596-1-1-1H3.1c-.901 0-1.1-.199-1.1-1.1v-3.214h27.595V46.9c0 .901-.733 1.635-1.635 1.635h-2.111c-.405 0-.732.328-.732.733s.328.732.732.732h2.111c1.709 0 3.1-1.391 3.1-3.1V11.91z" fill="url(#B)"/><path d="M15.527 28.458a2.86 2.86 0 0 0-2.854 2.854 2.86 2.86 0 0 0 2.854 2.854 2.86 2.86 0 0 0 2.853-2.854 2.86 2.86 0 0 0-2.853-2.854zm0 4.242a1.39 1.39 0 0 1-1.389-1.389 1.39 1.39 0 0 1 1.389-1.389 1.39 1.39 0 0 1 1.389 1.389 1.39 1.39 0 0 1-1.389 1.389z" fill="url(#C)"/><path d="M23.752 29.26c.453-.492.533-1.212.199-1.792l-.878-1.521c-.334-.58-.998-.87-1.651-.724l-1.661.373c-.016.003-.034-.002-.05-.014a7.11 7.11 0 0 0-1.306-.754c-.018-.008-.032-.021-.036-.037l-.508-1.625c-.2-.639-.783-1.068-1.452-1.068h-1.756c-.669 0-1.253.429-1.452 1.068l-.508 1.625c-.005.015-.018.028-.037.037-.46.204-.899.458-1.306.754-.016.012-.035.017-.05.014l-1.661-.373c-.653-.146-1.316.144-1.651.724l-.878 1.521c-.335.58-.255 1.3.199 1.792l1.154 1.253c.011.012.016.03.013.05-.027.25-.04.504-.04.753s.014.503.04.753c.002.02-.003.039-.013.05l-1.154 1.253c-.453.492-.533 1.212-.199 1.792l.878 1.52c.334.58.998.87 1.651.724l1.661-.373c.016-.003.034.002.051.014a7.1 7.1 0 0 0 1.306.754c.018.008.032.022.037.037l.508 1.624c.2.639.783 1.068 1.452 1.068h1.756c.669 0 1.253-.429 1.452-1.068l.508-1.625c.005-.015.018-.029.036-.037a7.1 7.1 0 0 0 1.306-.754c.016-.012.034-.017.05-.014l1.662.373c.653.147 1.316-.145 1.651-.724l.878-1.521c.335-.58.255-1.3-.199-1.792l-1.154-1.253c-.011-.012-.016-.03-.014-.05.027-.25.04-.504.04-.753a7.11 7.11 0 0 0-.04-.753c-.002-.02.003-.039.014-.05l1.154-1.253zm-2.624 1.459c.021.199.032.4.032.597s-.011.399-.032.597c-.047.44.096.877.393 1.199l1.154 1.253c.017.018.02.045.008.067l-.878 1.521c-.012.021-.037.032-.061.027l-1.662-.373a1.53 1.53 0 0 0-1.234.26 5.63 5.63 0 0 1-1.036.599c-.404.179-.71.521-.841.939l-.508 1.625c-.008.024-.029.04-.054.04h-1.756c-.025 0-.047-.016-.054-.04l-.508-1.625c-.13-.417-.437-.76-.841-.939-.364-.161-.713-.363-1.036-.598-.266-.194-.583-.296-.905-.296-.11 0-.221.012-.33.037l-1.661.373c-.024.006-.049-.005-.062-.027l-.878-1.521c-.013-.022-.01-.048.007-.067l1.154-1.253a1.53 1.53 0 0 0 .393-1.199c-.021-.199-.032-.4-.032-.597a5.63 5.63 0 0 1 .032-.597c.047-.44-.096-.877-.393-1.199l-1.154-1.253c-.017-.018-.02-.045-.007-.067l.878-1.521c.012-.022.037-.033.062-.027l1.662.373a1.53 1.53 0 0 0 1.234-.26c.322-.235.671-.437 1.036-.598.404-.179.711-.521.841-.939l.508-1.625c.007-.024.029-.04.054-.04h1.756c.025 0 .047.016.054.04l.508 1.625c.131.418.437.76.841.939.365.162.713.363 1.036.598a1.53 1.53 0 0 0 1.235.26l1.661-.373c.024-.005.049.005.062.027l.878 1.521c.013.022.01.048-.008.067l-1.154 1.253c-.297.322-.44.759-.393 1.199z" fill="url(#D)"/><path d="M18.806 5.525h-3.771c-.405 0-.732.328-.732.732s.328.732.732.732h3.771c.404 0 .732-.328.732-.732s-.328-.732-.732-.732z" fill="url(#E)"/><path d="M8.132 6.99h3.749c.405 0 .732-.328.732-.732s-.328-.732-.732-.732H8.132c-.405 0-.732.328-.732.732s.328.732.732.732z" fill="url(#F)"/><use xlink:href="#S" fill="url(#G)"/><path d="M19.052 9.416c0 .405.328.732.732.732h3.145c.404 0 .732-.328.732-.732s-.328-.732-.732-.732h-3.145c-.404 0-.732.328-.732.732z" fill="url(#H)"/><path d="M8.132 13.301h3.552c.404 0 .732-.328.732-.732s-.328-.732-.732-.732H8.132c-.405 0-.732.328-.732.732s.328.732.732.732z" fill="url(#I)"/><path d="M16.628 11.836H14.84c-.405 0-.732.328-.732.732s.328.732.732.732h1.788c.404 0 .732-.328.732-.732s-.328-.732-.732-.732z" fill="url(#J)"/><path d="M22.93 11.836h-3.157c-.404 0-.732.328-.732.732s.328.732.732.732h3.157c.405 0 .733-.328.733-.732s-.328-.732-.733-.732z" fill="url(#K)"/><use xlink:href="#S" y="6.312" fill="url(#L)"/><path d="M22.918 14.995h-3.134c-.404 0-.732.328-.732.732s.328.732.732.732h3.134c.405 0 .733-.328.733-.732s-.328-.732-.733-.732z" fill="url(#M)"/><path d="M8.132 19.616h1.48c.404 0 .732-.328.732-.733s-.328-.732-.732-.732h-1.48c-.405 0-.732.328-.732.732s.328.733.732.733z" fill="url(#N)"/><path d="M22.92 18.151H12.77c-.405 0-.732.328-.732.732s.328.733.732.733h10.15c.404 0 .732-.328.732-.733s-.328-.732-.732-.732z" fill="url(#O)"/><path d="M22.92 6.99c.404 0 .732-.328.732-.732s-.328-.732-.732-.732h-.976c-.405 0-.733.328-.733.732s.328.732.733.732h.976z" fill="url(#P)"/><path d="M5.301 3.236a.73.73 0 0 0-.983.328l-.592 1.184a.73.73 0 0 0 0 .655l.592 1.184a.73.73 0 0 0 .983.327c.362-.181.509-.621.328-.983l-.428-.856.428-.856c.181-.362.034-.802-.328-.983z" fill="url(#Q)"/><path d="M25.758 19.54a.73.73 0 0 0 .327.078c.269 0 .527-.148.656-.405l.592-1.184c.103-.206.103-.449 0-.655l-.592-1.184c-.181-.362-.621-.508-.983-.327a.73.73 0 0 0-.328.983l.428.856-.428.856c-.181.362-.034.802.328.983z" fill="url(#R)"/><defs><linearGradient id="A" x1="0" y1="14.49" x2="31.06" y2="14.49" xlink:href="#T"><stop stop-color="#00469f"/><stop offset="1" stop-color="#1e79d6"/></linearGradient><linearGradient id="B" x1="0" y1="31.114" x2="31.06" y2="31.114" xlink:href="#T"><stop stop-color="#00469f"/><stop offset="1" stop-color="#1e79d6"/></linearGradient><linearGradient id="C" x1="12.674" y1="31.389" x2="18.381" y2="31.389" xlink:href="#T"><stop stop-color="#00469f"/><stop offset="1" stop-color="#1e79d6"/></linearGradient><linearGradient id="D" x1="6.903" y1="31.565" x2="24.156" y2="31.565" xlink:href="#T"><stop stop-color="#00469f"/><stop offset="1" stop-color="#1e79d6"/></linearGradient><linearGradient id="E" x1="14.303" y1="6.277" x2="19.538" y2="6.277" xlink:href="#T"><stop stop-color="#00469f"/><stop offset="1" stop-color="#1e79d6"/></linearGradient><linearGradient id="F" x1="7.399" y1="6.277" x2="12.613" y2="6.277" xlink:href="#T"><stop stop-color="#00469f"/><stop offset="1" stop-color="#1e79d6"/></linearGradient><linearGradient id="G" x1="7.399" y1="9.436" x2="17.36" y2="9.436" xlink:href="#T"><stop stop-color="#00469f"/><stop offset="1" stop-color="#1e79d6"/></linearGradient><linearGradient id="H" x1="19.052" y1="9.436" x2="23.662" y2="9.436" xlink:href="#T"><stop stop-color="#00469f"/><stop offset="1" stop-color="#1e79d6"/></linearGradient><linearGradient id="I" x1="7.399" y1="12.589" x2="12.416" y2="12.589" xlink:href="#T"><stop stop-color="#00469f"/><stop offset="1" stop-color="#1e79d6"/></linearGradient><linearGradient id="J" x1="14.107" y1="12.589" x2="17.36" y2="12.589" xlink:href="#T"><stop stop-color="#00469f"/><stop offset="1" stop-color="#1e79d6"/></linearGradient><linearGradient id="K" x1="19.041" y1="12.589" x2="23.663" y2="12.589" xlink:href="#T"><stop stop-color="#00469f"/><stop offset="1" stop-color="#1e79d6"/></linearGradient><linearGradient id="L" x1="7.399" y1="9.435" x2="17.36" y2="9.435" xlink:href="#T"><stop stop-color="#00469f"/><stop offset="1" stop-color="#1e79d6"/></linearGradient><linearGradient id="M" x1="19.052" y1="15.747" x2="23.651" y2="15.747" xlink:href="#T"><stop stop-color="#00469f"/><stop offset="1" stop-color="#1e79d6"/></linearGradient><linearGradient id="N" x1="7.399" y1="18.903" x2="10.344" y2="18.903" xlink:href="#T"><stop stop-color="#00469f"/><stop offset="1" stop-color="#1e79d6"/></linearGradient><linearGradient id="O" x1="12.037" y1="18.903" x2="23.653" y2="18.903" xlink:href="#T"><stop stop-color="#00469f"/><stop offset="1" stop-color="#1e79d6"/></linearGradient><linearGradient id="P" x1="21.212" y1="6.277" x2="23.653" y2="6.277" xlink:href="#T"><stop stop-color="#00469f"/><stop offset="1" stop-color="#1e79d6"/></linearGradient><linearGradient id="Q" x1="3.649" y1="5.127" x2="5.706" y2="5.127" xlink:href="#T"><stop stop-color="#00469f"/><stop offset="1" stop-color="#1e79d6"/></linearGradient><linearGradient id="R" x1="25.353" y1="17.753" x2="27.41" y2="17.753" xlink:href="#T"><stop stop-color="#00469f"/><stop offset="1" stop-color="#1e79d6"/></linearGradient><path id="S" d="M8.132 10.148h8.496c.404 0 .732-.328.732-.732s-.328-.732-.732-.732H8.132c-.405 0-.732.328-.732.732s.328.732.732.732z"/><linearGradient id="T" gradientUnits="userSpaceOnUse"/></defs></svg>