<svg width="60" height="46" viewBox="0 0 60 46" fill="none" xmlns="http://www.w3.org/2000/svg">
<path fill-rule="evenodd" clip-rule="evenodd" d="M9.79926 0.0531143C9.15595 0.177156 8.42565 0.737455 8.11227 1.34735C7.84789 1.86192 7.8364 2.02899 7.60801 8.73252C7.47951 12.5048 7.37411 15.7387 7.37388 15.9189C7.37329 16.3289 7.84683 16.8222 8.24088 16.8222C8.40138 16.8222 8.67057 16.7034 8.83905 16.5584L9.1454 16.2946L9.38047 9.31873C9.63653 1.71584 9.62433 1.81526 10.2988 1.81526C10.8549 1.81526 10.9785 2.04951 11.0552 3.24866C11.0934 3.84671 11.3083 10.1922 11.5326 17.3498C11.7568 24.5074 11.9639 30.7461 11.9927 31.2136L12.045 32.0636H10.354H8.66307L8.66014 31.6826C8.65861 31.473 8.74678 28.5712 8.85628 25.2341L9.05524 19.1667L8.78008 18.8737C8.42905 18.5001 7.92222 18.4903 7.56205 18.8505C7.24737 19.1652 7.2285 19.4475 7.015 27.0222C6.94512 29.5048 6.86517 31.6507 6.8375 31.7909C6.78826 32.0403 6.73925 32.0465 4.5303 32.084C2.60343 32.1166 2.21336 32.1541 1.86304 32.3403C1.29137 32.6442 0.600703 33.3248 0.299626 33.8809C0.0542388 34.3343 0.044625 34.4951 0.0110939 38.7293C-0.0277132 43.6258 -0.00426479 43.8137 0.756165 44.7021C0.981387 44.9652 1.46759 45.3287 1.83678 45.51L2.50787 45.8395H9.56841C16.574 45.8395 16.6308 45.8377 16.874 45.5945C17.2398 45.2287 17.2166 44.6342 16.8232 44.2958L16.5051 44.0223H9.61026C2.7957 44.0223 2.71176 44.0195 2.40412 43.7775C1.75624 43.2678 1.7458 43.1915 1.74604 38.9575C1.74615 34.5745 1.77101 34.425 2.5665 34.0277C2.9514 33.8353 4.019 33.8226 19.8099 33.8225L36.6429 33.8223L36.8979 33.551C37.2332 33.194 37.2324 32.6158 36.8962 32.3027C36.6416 32.0655 36.5502 32.0636 25.2306 32.0636C14.4456 32.0636 13.8214 32.0524 13.8155 31.8585C13.8121 31.7457 13.5841 24.9529 13.3087 16.7636C12.8268 2.4282 12.799 1.85641 12.5643 1.40491C12.0219 0.361929 10.9403 -0.166831 9.79926 0.0531143ZM49.1701 0.0508866C48.3654 0.242577 47.798 0.69642 47.404 1.46353C47.213 1.83554 47.1465 3.26402 46.693 16.7636C46.418 24.9529 46.1901 31.7457 46.1867 31.8585C46.1809 32.049 45.9406 32.0636 42.8338 32.0636H39.487L39.1861 32.3645C38.9435 32.6072 38.8991 32.7375 38.9573 33.0386C38.9969 33.2439 39.1407 33.5043 39.2765 33.6171C39.507 33.8084 40.1128 33.8223 48.2745 33.8225C56.3707 33.8226 57.056 33.838 57.4356 34.0277C58.2311 34.425 58.256 34.5745 58.2561 38.9575C58.2563 43.1915 58.2459 43.2678 57.598 43.7775L57.2868 44.0223H38.4176H19.5485L19.1938 44.377C18.9079 44.6629 18.8543 44.7936 18.9172 45.0511C18.9601 45.2268 19.0988 45.4761 19.2255 45.6051C19.454 45.8377 19.6108 45.8395 38.4834 45.8395H57.5109L58.2026 45.4857C58.9905 45.0829 59.6793 44.2765 59.8937 43.5063C59.986 43.1748 60.0164 41.6809 59.9919 38.6878C59.9575 34.4971 59.9477 34.3339 59.7025 33.8809C59.4014 33.3248 58.7108 32.6442 58.1391 32.3403C57.7888 32.1541 57.3987 32.1166 55.4718 32.084C53.2627 32.0465 53.2139 32.0403 53.1652 31.7909C53.138 31.6507 52.9242 25.3896 52.6901 17.8774C52.1846 1.65229 52.1904 1.75711 51.7715 1.12412C51.2387 0.319136 50.0692 -0.163431 49.1701 0.0508866ZM50.2161 2.07905C50.358 2.29654 50.4718 4.86378 50.8645 16.705C51.1264 24.6041 51.3404 31.2914 51.3399 31.5654L51.3391 32.0636H49.6481H47.9571L48.0094 31.2136C48.0382 30.7461 48.2453 24.5074 48.4696 17.3498C48.9333 2.55283 48.9485 2.22947 49.1897 1.98831C49.4566 1.72135 50.0149 1.77071 50.2161 2.07905ZM27.8907 8.38279C25.2885 8.74507 22.5961 9.74784 20.5631 11.1118C19.669 11.7116 17.9504 13.1559 17.803 13.4313C17.4995 13.9987 17.9289 14.7119 18.5741 14.7119C18.8915 14.7119 19.1199 14.5789 19.7087 14.0515C21.8218 12.1589 24.2092 10.9466 26.984 10.3571C28.6751 9.99803 31.3271 9.99803 33.0182 10.3571C35.7721 10.9422 38.1836 12.1584 40.236 13.9976C41.1716 14.8361 41.6453 14.9408 42.0684 14.4029C42.5509 13.7896 42.4096 13.4932 41.1147 12.4025C38.7992 10.4525 36.2957 9.21837 33.4244 8.612C32.1212 8.33671 29.1158 8.21232 27.8907 8.38279ZM28.4183 13.0871C25.9872 13.3959 23.4315 14.5934 21.6476 16.2598C21.1823 16.6944 21.0907 16.8495 21.0907 17.2029C21.0907 17.5203 21.1678 17.6866 21.3996 17.8688C21.8883 18.2533 22.1806 18.1752 23.0116 17.4377C24.9773 15.6935 27.2934 14.8291 30.0011 14.8291C32.7088 14.8291 35.0249 15.6935 36.9906 17.4377C37.8216 18.1752 38.1138 18.2533 38.6025 17.8688C38.8343 17.6866 38.9114 17.5203 38.9114 17.2029C38.9114 16.8495 38.8199 16.6944 38.3545 16.2598C36.5126 14.5392 34.0136 13.3929 31.411 13.0747C30.2767 12.936 29.5854 12.9389 28.4183 13.0871ZM28.0486 17.8687C27.0444 18.1402 26.4348 18.4365 25.463 19.1251C24.5988 19.7373 24.3735 20.0285 24.3735 20.5329C24.3735 20.9629 24.8171 21.3946 25.259 21.3946C25.4073 21.3946 25.8056 21.156 26.1518 20.8599C28.4041 18.9331 31.598 18.9331 33.8504 20.8599C34.5423 21.4518 34.8583 21.5147 35.3197 21.1516C35.5515 20.9694 35.6287 20.803 35.6287 20.4857C35.6287 20.137 35.5385 19.9789 35.1155 19.5856C34.4281 18.9463 33.2769 18.2775 32.3459 17.9765C31.2319 17.6163 29.1732 17.5647 28.0486 17.8687ZM29.0849 21.8065C28.4052 21.9957 27.4948 22.5633 27.3063 22.9155C27.1111 23.2802 27.17 23.6825 27.4586 23.9536C27.8314 24.3036 28.3198 24.2709 28.9342 23.8546C29.3255 23.5894 29.5832 23.505 30.0011 23.505C30.4189 23.505 30.6766 23.5894 31.068 23.8546C31.731 24.3039 32.2418 24.3191 32.5718 23.8995C33.0776 23.2565 32.76 22.6653 31.6087 22.1069C30.7104 21.6711 29.9129 21.5762 29.0849 21.8065ZM6.27544 40.1619C5.88831 40.4664 5.85184 41.0938 6.20099 41.443C6.41519 41.6572 6.59176 41.6775 8.24416 41.6775H10.053L10.2959 41.3685C10.6183 40.9588 10.6028 40.5583 10.2511 40.2067C9.97219 39.9277 9.91134 39.9188 8.27383 39.9188C6.74218 39.9188 6.55553 39.9416 6.27544 40.1619ZM12.9908 40.0691C12.6879 40.3018 12.5211 40.714 12.6012 41.033C12.7437 41.6003 13.0191 41.6775 14.903 41.6775C16.4792 41.6775 16.6566 41.6564 16.87 41.443C17.251 41.0619 17.2229 40.5637 16.7988 40.1826C16.523 39.9348 16.4044 39.9191 14.841 39.9226C13.7181 39.9251 13.1164 39.9728 12.9908 40.0691ZM19.5027 40.2067C19.1509 40.5583 19.1355 40.9588 19.4579 41.3685L19.7008 41.6775H21.4891C23.2068 41.6775 23.2875 41.6668 23.5324 41.4062C23.8705 41.0461 23.8573 40.5645 23.4994 40.2067C23.2203 39.9274 23.161 39.9188 21.501 39.9188C19.8411 39.9188 19.7818 39.9274 19.5027 40.2067ZM26.2065 40.1619C25.8194 40.4664 25.7829 41.0938 26.1321 41.443C26.3463 41.6572 26.5229 41.6775 28.1753 41.6775H29.9841L30.227 41.3685C30.5494 40.9588 30.5339 40.5583 30.1822 40.2067C29.9033 39.9277 29.8424 39.9188 28.2049 39.9188C26.6733 39.9188 26.4866 39.9416 26.2065 40.1619ZM43.3238 40.1619C42.9352 40.4675 42.9002 41.0938 43.2523 41.4459C43.4736 41.6671 43.615 41.6812 45.3209 41.6511C47.1514 41.6188 47.1521 41.6187 47.385 41.3066C47.6544 40.9454 47.5978 40.5155 47.2327 40.1504C47.0236 39.9413 46.8376 39.9188 45.317 39.9188C43.7906 39.9188 43.6038 39.9416 43.3238 40.1619ZM49.8605 40.1934C49.4466 40.5495 49.4219 41.1483 49.8084 41.4613C50.0404 41.6491 50.2979 41.6775 51.7702 41.6775C52.7405 41.6775 53.5642 41.6244 53.6973 41.5531C54.2596 41.2521 54.2067 40.3223 53.6118 40.0513C53.442 39.9739 52.6681 39.9188 51.7505 39.9188C50.2724 39.9188 50.1609 39.935 49.8605 40.1934Z" fill="url(#paint0_linear_2582_17399)"/>
<defs>
<linearGradient id="paint0_linear_2582_17399" x1="0" y1="23.5392" x2="60" y2="23.5392" gradientUnits="userSpaceOnUse">
<stop stop-color="#00469F"/>
<stop offset="1" stop-color="#1E79D6"/>
</linearGradient>
</defs>
</svg>
