<svg width="70" height="70" viewBox="0 0 70 70" fill="none" xmlns="http://www.w3.org/2000/svg">
<path d="M56.7168 36.0254H59.7654C60.2424 38.3858 62.3325 40.1687 64.8315 40.1687C67.6814 40.1687 70 37.85 70 35C70 32.15 67.6814 29.8313 64.8314 29.8313C62.3324 29.8313 60.2422 31.6142 59.7652 33.9746H56.7167C56.4729 28.7515 54.3784 24.0041 51.0743 20.3757L56.5655 14.8847C57.6464 15.6718 58.9754 16.1379 60.4119 16.1379C64.0235 16.1379 66.9616 13.1996 66.9616 9.58809C66.9616 5.97652 64.0235 3.03844 60.4119 3.03844C56.8004 3.03844 53.8623 5.97666 53.8623 9.58809C53.8623 11.0246 54.3282 12.3536 55.1154 13.4345L49.6243 18.9256C45.9959 15.6216 41.2485 13.527 36.0254 13.2833V10.2348C38.3858 9.75775 40.1687 7.6676 40.1687 5.16865C40.1687 2.31861 37.85 0 35 0C32.15 0 29.8313 2.31861 29.8313 5.16865C29.8313 7.6676 31.6142 9.75775 33.9746 10.2348V13.2832C28.7515 13.527 24.0041 15.6215 20.3757 18.9254L14.885 13.4348C15.6722 12.3538 16.1383 11.0246 16.1383 9.58809C16.1383 7.40715 15.0581 5.37619 13.2487 4.15529C12.779 3.83865 12.1417 3.96225 11.8252 4.43174C11.5084 4.90123 11.6322 5.53848 12.1015 5.85525C13.3451 6.6943 14.0874 8.08978 14.0874 9.58809C14.0874 12.069 12.0688 14.0875 9.58795 14.0875C7.10705 14.0875 5.08867 12.069 5.08867 9.58809C5.08867 7.58461 6.4333 5.80385 8.35857 5.25766C8.9034 5.10303 9.21977 4.53605 9.06514 3.99123C8.91051 3.44641 8.34326 3.13045 7.79885 3.28467C4.99557 4.0801 3.03789 6.67215 3.03789 9.58809C3.03789 13.1999 5.97625 16.1383 9.58809 16.1383C11.0247 16.1383 12.3539 15.6722 13.4348 14.885L18.9256 20.3756C15.6215 24.004 13.527 28.7514 13.2832 33.9745H10.2348C9.75775 31.614 7.6676 29.8312 5.16865 29.8312C2.31861 29.8313 0 32.15 0 35C0 37.85 2.31861 40.1687 5.16865 40.1687C7.6676 40.1687 9.75775 38.3858 10.2348 36.0254H13.2833C13.5271 41.2485 15.6216 45.9959 18.9257 49.6243L13.4345 55.1153C12.3536 54.3282 11.0246 53.8621 9.58809 53.8621C5.97652 53.8621 3.03844 56.8004 3.03844 60.4119C3.03844 64.0235 5.97652 66.9616 9.58809 66.9616C13.1996 66.9616 16.1377 64.0233 16.1377 60.4119C16.1377 58.9754 15.6718 57.6464 14.8846 56.5655L20.3757 51.0744C24.0041 54.3784 28.7515 56.473 33.9746 56.7167V59.7651C31.6142 60.2421 29.8313 62.3323 29.8313 64.8312C29.8313 67.6814 32.15 70 35 70C37.85 70 40.1687 67.6814 40.1687 64.8314C40.1687 62.3324 38.3858 60.2422 36.0254 59.7652V56.7168C41.2485 56.473 45.9959 54.3785 49.6243 51.0746L55.115 56.5652C54.3278 57.6462 53.8617 58.9754 53.8617 60.4119C53.8617 64.0236 56.8001 66.9621 60.4119 66.9621C64.0238 66.9621 66.9621 64.0238 66.9621 60.4119C66.9621 59.7029 66.8492 59.0047 66.6265 58.3363C66.4472 57.7991 65.8663 57.5087 65.3296 57.6877C64.7922 57.8668 64.5019 58.4474 64.681 58.9847C64.8338 59.4434 64.9115 59.9237 64.9115 60.4118C64.9115 62.8927 62.893 64.9112 60.4121 64.9112C57.9312 64.9112 55.9126 62.8928 55.9126 60.4118C55.9126 57.9307 57.9312 55.9124 60.4121 55.9124C60.9798 55.9124 61.5336 56.0168 62.0577 56.2229C62.5842 56.43 63.1799 56.1706 63.3872 55.6436C63.5943 55.1165 63.335 54.5214 62.8079 54.3141C62.0438 54.0139 61.2378 53.8616 60.4122 53.8616C58.9755 53.8616 57.6464 54.3277 56.5655 55.1149L51.0747 49.6243C54.3784 45.9959 56.473 41.2485 56.7168 36.0254ZM64.8314 31.8821C66.5506 31.8821 67.9492 33.2808 67.9492 35C67.9492 36.7192 66.5506 38.1179 64.8314 38.1179C63.1121 38.1179 61.7135 36.7192 61.7135 35C61.7135 33.2808 63.1123 31.8821 64.8314 31.8821ZM60.4119 5.08922C62.8927 5.08922 64.9108 7.10746 64.9108 9.58809C64.9108 12.0688 62.8925 14.0871 60.4119 14.0871C57.9313 14.0871 55.913 12.0688 55.913 9.58809C55.913 7.10732 57.9313 5.08922 60.4119 5.08922ZM31.8821 5.16865C31.8821 3.44941 33.2809 2.05078 35 2.05078C36.7191 2.05078 38.1179 3.44941 38.1179 5.16865C38.1179 6.88789 36.7191 8.28652 35 8.28652C33.2809 8.28652 31.8821 6.88775 31.8821 5.16865ZM5.16865 38.1179C3.44941 38.1179 2.05078 36.7192 2.05078 35C2.05078 33.2808 3.44941 31.8821 5.16865 31.8821C6.88789 31.8821 8.28639 33.2808 8.28639 35C8.28639 36.7192 6.88775 38.1179 5.16865 38.1179ZM35 15.3092C45.8575 15.3092 54.6908 24.1425 54.6908 35C54.6908 45.8575 45.8575 54.6908 35 54.6908C24.1425 54.6908 15.3092 45.8577 15.3092 35C15.3092 24.1423 24.1425 15.3092 35 15.3092ZM9.58809 64.9108C7.10732 64.9108 5.08922 62.8925 5.08922 60.4119C5.08922 57.9312 7.10746 55.9129 9.58809 55.9129C12.0687 55.9129 14.087 57.9312 14.087 60.4119C14.087 62.8927 12.0687 64.9108 9.58809 64.9108ZM38.1179 64.8314C38.1179 66.5506 36.7191 67.9492 35 67.9492C33.2809 67.9492 31.8821 66.5506 31.8821 64.8314C31.8821 63.1121 33.2809 61.7135 35 61.7135C36.7191 61.7135 38.1179 63.1123 38.1179 64.8314Z" fill="url(#paint0_linear_266_5801)"/>
<defs>
<linearGradient id="paint0_linear_266_5801" x1="0" y1="35.9459" x2="70" y2="35.9459" gradientUnits="userSpaceOnUse">
<stop stop-color="#00469F"/>
<stop offset="1" stop-color="#1E79D6"/>
</linearGradient>
</defs>
</svg>
