<svg width="70" height="70" viewBox="0 0 70 70" fill="none" xmlns="http://www.w3.org/2000/svg">
<path fill-rule="evenodd" clip-rule="evenodd" d="M14.4233 5.25306C13.5848 5.57569 12.8875 6.19118 12.4349 7.00817L12.0651 7.676L12.0325 29.3325L12 50.9891L12.3072 51.2963C12.6984 51.6875 13.1759 51.688 13.5661 51.2977L13.872 50.9919V32.4805V13.9692H29.2553H44.6385L44.6767 16.5974C44.7143 19.1877 44.719 19.229 45.009 19.4636C45.399 19.7791 45.8144 19.7643 46.1995 19.4212L46.5142 19.1408L46.5491 13.533L46.5841 7.92523L46.2351 7.21454C46.0365 6.81015 45.6255 6.26956 45.2812 5.96001C44.1391 4.93317 45.1925 4.99585 29.2168 5.0032C15.4774 5.00956 15.0371 5.01691 14.4233 5.25306ZM43.6511 7.14637C44.531 7.59749 44.6525 7.96025 44.6525 10.1352V11.9753H29.2623H13.872V10.2388C13.872 8.42781 13.9565 7.99801 14.41 7.5044C15.0101 6.85078 14.4167 6.87608 29.267 6.87084L43.1043 6.86598L43.6511 7.14637ZM28.8653 8.6115C28.3062 8.83681 28.1745 9.50388 28.586 10.0269L28.8442 10.3553H31.6821C34.3115 10.3553 34.5356 10.3379 34.7341 10.1186C35.0764 9.74041 35.0297 9.11757 34.6334 8.77674C34.302 8.49174 34.244 8.48613 31.7165 8.49386C30.2981 8.49822 29.0151 8.55118 28.8653 8.6115ZM31.4431 16.1773C31.3402 16.2144 31.1598 16.3287 31.042 16.4311C30.7911 16.6497 25.2122 30.6146 25.2122 31.0243C25.2122 31.3762 25.7411 31.9141 26.087 31.9141C26.4484 31.9141 26.7998 31.7091 26.9638 31.4026C27.3721 30.6397 32.5646 17.3543 32.5646 17.0725C32.5646 16.498 31.9387 15.9984 31.4431 16.1773ZM20.2662 21.3484C18.1853 23.4184 17.9844 23.6561 17.9844 24.0487C17.9844 24.44 18.1856 24.6813 20.1973 26.7012C22.1009 28.6125 22.4636 28.9233 22.7909 28.9233C23.3296 28.9233 23.7168 28.5214 23.7168 27.9623C23.7168 27.547 23.5723 27.3638 21.974 25.7516L20.2311 23.9939L21.974 22.2544C23.5857 20.6458 23.7168 20.4803 23.7168 20.055C23.7168 19.5473 23.2786 19.0785 22.8042 19.0785C22.6388 19.0785 21.74 19.8825 20.2662 21.3484ZM35.3455 19.2012C35.0112 19.3393 34.8077 19.6987 34.8077 20.1511C34.8077 20.4225 35.1623 20.8512 36.5404 22.2466L38.2731 24.0009L36.5404 25.8002C35.0405 27.3579 34.8077 27.6539 34.8077 28.0032C34.8077 28.2907 34.9022 28.481 35.1361 28.6649C35.7932 29.182 35.9399 29.0919 38.3243 26.7074C41.2458 23.7859 41.2404 24.2325 38.3905 21.3711C36.2326 19.2044 35.9045 18.9706 35.3455 19.2012ZM43.2069 26.2308C42.7269 26.445 42.6864 26.5518 42.5157 28.0527L42.3775 29.2678L41.5743 29.5865L40.771 29.9052L39.7296 29.165C39.0409 28.6755 38.5671 28.4248 38.3308 28.4248C38.0377 28.4248 37.6783 28.723 36.3283 30.0863C35.2723 31.1528 34.6831 31.8412 34.6831 32.0083C34.6831 32.2481 35.0029 32.7278 35.9646 33.9309L36.3315 34.3899L36.0404 35.2016L35.7493 36.0132L34.8735 36.1547C32.556 36.5288 32.6269 36.4298 32.6269 39.2904V41.5312L32.9583 41.8163C33.2146 42.0368 33.511 42.1211 34.2668 42.1889C35.7375 42.3208 35.7313 42.3176 36.0657 43.1036C36.2306 43.4909 36.3805 43.8408 36.3991 43.8811C36.4175 43.9213 36.095 44.4275 35.6825 45.0058C34.609 46.5105 34.5963 46.4592 36.5264 48.3895C38.4181 50.2811 38.4848 50.3032 39.6257 49.4211C41.1273 48.26 40.8792 48.3451 41.7262 48.7004C42.1362 48.8724 42.4862 49.0263 42.5038 49.0425C42.5215 49.0586 42.6394 49.6511 42.7659 50.3591C43.034 51.8602 43.2198 52.1021 44.1056 52.1021H44.6525V53.1613V54.2206H28.5817H12.5109L12.2504 54.5002C11.996 54.7733 11.9907 54.8707 12.0274 58.5815C12.0638 62.2513 12.0748 62.4012 12.3462 62.9092C12.7653 63.6935 13.2791 64.2229 14.0192 64.6329L14.682 65H29.2623H43.8425L44.4734 64.667C45.2276 64.269 45.9525 63.4997 46.3178 62.7098C46.5734 62.1569 46.5857 61.9325 46.6251 57.1179L46.6661 52.1021H47.3474C48.307 52.1021 48.5777 51.812 48.6925 50.6604C48.8586 48.992 48.8429 49.0263 49.6033 48.6781C49.9811 48.5051 50.3427 48.3636 50.4066 48.3636C50.4704 48.3636 51.019 48.7075 51.6255 49.1279C52.564 49.7782 52.7813 49.879 53.0832 49.8046C53.3034 49.7504 54.0171 49.1393 54.9646 48.1937C56.8646 46.2975 56.8681 46.2815 55.695 44.814C55.0657 44.0268 54.9201 43.7664 54.998 43.5678C55.0521 43.4296 55.2067 43.0624 55.3417 42.7517L55.5868 42.1867L56.5687 42.0279C57.8747 41.8166 58.3374 41.661 58.486 41.3833C58.5546 41.255 58.6096 40.1584 58.6096 38.9202C58.6096 36.1814 58.6833 36.2981 56.7848 36.0265L55.4781 35.8395L55.1615 35.0503L54.8447 34.261L55.4499 33.3993C56.2499 32.2601 56.4023 31.9491 56.3207 31.6235C56.283 31.4738 55.5301 30.6368 54.6476 29.7634C53.4307 28.5594 52.9655 28.1756 52.7232 28.1756C52.516 28.1756 52.0513 28.4601 51.4004 28.9856C50.8486 29.4311 50.3524 29.7953 50.2975 29.795C50.2428 29.7947 49.8615 29.6574 49.4503 29.4899L48.7026 29.1853L48.4897 27.9102C48.1838 26.0777 48.2593 26.1266 45.6775 26.0888C44.1174 26.066 43.4961 26.1017 43.2069 26.2308ZM46.7926 29.2377C46.9036 29.8904 47.061 30.5047 47.1424 30.6026C47.2237 30.7007 47.6052 30.8724 47.9899 30.9843C48.3747 31.0961 49.0134 31.3511 49.409 31.5508C49.8048 31.7506 50.2666 31.9141 50.4355 31.9141C50.6235 31.9141 51.1129 31.6196 51.6995 31.1535L52.6564 30.3931L53.3758 31.1847C53.9101 31.7725 54.0665 32.0245 53.9835 32.1633C53.9219 32.2661 53.6198 32.707 53.312 33.1431C52.673 34.0488 52.6334 34.3413 53.0515 35.0696C53.2158 35.356 53.4768 35.9548 53.6314 36.4003C54.0372 37.5697 54.1248 37.6336 55.5386 37.7943L56.7496 37.9319L56.7138 39.0042L56.6781 40.0765L55.5315 40.2698C54.2727 40.4819 53.9381 40.6823 53.8034 41.3045C53.7568 41.5201 53.5006 42.1819 53.2343 42.7752C52.6686 44.035 52.6728 44.0619 53.6111 45.2328C53.9614 45.67 54.248 46.0643 54.248 46.1091C54.248 46.1539 53.9192 46.516 53.5172 46.9138L52.7863 47.6371L51.8163 46.9411C51.2826 46.5582 50.7128 46.2451 50.5496 46.2451C50.3866 46.2451 49.9323 46.4055 49.5401 46.6016C49.1481 46.7976 48.5393 47.0524 48.1876 47.1675C47.2534 47.4734 47.1086 47.6928 46.9599 49.0284L46.8327 50.1705L45.7546 50.2064L44.6766 50.2422L44.5311 49.3341C44.2628 47.6604 44.1124 47.4314 43.1254 47.1947C42.9366 47.1494 42.3569 46.9105 41.837 46.6638C40.7315 46.139 40.7033 46.1448 39.4465 47.1447L38.6496 47.779L37.8979 47.0273L37.1462 46.2756L37.8463 45.2476C38.2312 44.6823 38.5462 44.141 38.5462 44.045C38.5462 43.9489 38.3852 43.5494 38.1885 43.1572C37.9917 42.7651 37.7021 42.089 37.5448 41.6548C37.3876 41.2206 37.1421 40.7918 36.9991 40.702C36.8562 40.6121 36.3468 40.5013 35.867 40.4557C34.4819 40.3241 34.5585 40.3979 34.5585 39.1959C34.5585 38.6179 34.6006 38.1448 34.652 38.1448C34.7033 38.1447 35.2175 38.0616 35.7943 37.96C36.9664 37.7538 37.3547 37.4978 37.4759 36.8519C37.5172 36.6322 37.7467 36.0435 37.9862 35.5439C38.2257 35.0442 38.4216 34.4842 38.4216 34.2994C38.4216 34.0761 38.1723 33.6509 37.6785 33.0321L36.9356 32.101L37.6435 31.3845C38.033 30.9904 38.3932 30.6679 38.4441 30.6679C38.495 30.6679 38.9896 30.9763 39.5432 31.3533C40.0967 31.7303 40.6286 32.0387 40.7251 32.0387C40.8214 32.0387 41.2819 31.8495 41.7483 31.6182C42.2147 31.3871 42.8963 31.1003 43.2628 30.9811C44.0621 30.7212 44.2061 30.4576 44.3368 29.0167L44.4246 28.0509H45.5076H46.5907L46.7926 29.2377ZM44.1897 34.3309C42.2086 34.9766 40.8073 36.7487 40.6912 38.7556C40.5606 41.0105 41.7942 42.9527 43.8734 43.7657C44.7776 44.1192 46.417 44.151 47.2695 43.8315C48.119 43.5131 49.0891 42.7944 49.5893 42.113C50.3114 41.1293 50.5553 40.37 50.5635 39.0796C50.5698 38.0701 50.531 37.8744 50.1743 37.1202C49.6485 36.0085 48.8061 35.1268 47.7937 34.6284C47.0905 34.2822 46.8332 34.2249 45.8491 34.1946C45.1335 34.1726 44.521 34.223 44.1897 34.3309ZM46.6261 36.2062C47.6952 36.5834 48.3707 37.3721 48.6338 38.55C48.8865 39.6819 48.389 40.8991 47.373 41.6352C47.0899 41.8402 46.8156 42.0081 46.7635 42.0081C44.5 43 42.8818 40.7652 42.6495 39.8429C42.061 37.5054 44.357 35.4056 46.6261 36.2062ZM44.6525 58.9269C44.6525 62.2103 44.5978 62.4273 43.6478 62.9143L43.0979 63.1962L29.1172 63.1635C15.2165 63.131 15.1344 63.1292 14.7923 62.8738C13.943 62.2397 13.938 62.218 13.8968 59.0095L13.8592 56.0899H29.2559H44.6525V58.9269ZM24.7953 59.0838C24.0648 59.3027 23.8593 60.1069 24.3966 60.644L24.7024 60.9499H29.2398C33.6414 60.9499 33.787 60.9422 34.1055 60.6916C34.6839 60.2367 34.5101 59.3431 33.7948 59.0938C33.3223 58.929 25.341 58.9202 24.7953 59.0838Z" fill="url(#paint0_linear_2_1669)"/>
<defs>
<linearGradient id="paint0_linear_2_1669" x1="12" y1="35.8108" x2="58.61" y2="35.8108" gradientUnits="userSpaceOnUse">
<stop stop-color="#00469F"/>
<stop offset="1" stop-color="#1E79D6"/>
</linearGradient>
</defs>
</svg>
