<svg width="44" height="70" viewBox="0 0 44 70" fill="none" xmlns="http://www.w3.org/2000/svg">
<path d="M1.28516 39.5036C1.85145 39.5036 2.31055 39.0446 2.31055 38.4782V4.34092C2.31055 3.079 3.3373 2.05225 4.59922 2.05225H39.4023C40.6643 2.05225 41.691 3.079 41.691 4.34092V11.8933C41.691 12.4597 42.1501 12.9187 42.7164 12.9187C43.2827 12.9187 43.7418 12.4597 43.7418 11.8933V4.34092C43.7418 1.94807 41.7951 0.00146484 39.4023 0.00146484H4.59922C2.2065 0.00146484 0.259766 1.94807 0.259766 4.34092V38.4782C0.259766 39.0445 0.718867 39.5036 1.28516 39.5036Z" fill="url(#paint0_linear_266_5779)"/>
<path d="M43.7418 16.6753C43.7418 16.1089 43.2827 15.6499 42.7164 15.6499C42.1501 15.6499 41.691 16.1089 41.691 16.6753V59.1087H2.31055V43.2603C2.31055 42.6938 1.85145 42.2349 1.28516 42.2349C0.718867 42.2349 0.259766 42.6938 0.259766 43.2603V65.6589C0.259766 68.0517 2.2065 69.9983 4.59922 69.9983H31.6613C32.2276 69.9983 32.6867 69.5394 32.6867 68.9729C32.6867 68.4065 32.2276 67.9476 31.6613 67.9476H4.59922C3.3373 67.9476 2.31055 66.9208 2.31055 65.6589V61.1595H41.691V65.6589C41.691 66.9208 40.6643 67.9476 39.4023 67.9476H36.4465C35.8802 67.9476 35.4211 68.4065 35.4211 68.9729C35.4211 69.5394 35.8802 69.9983 36.4465 69.9983H39.4023C41.7951 69.9983 43.7418 68.0517 43.7418 65.6589V16.6753Z" fill="url(#paint1_linear_266_5779)"/>
<path d="M22.0005 39.8413C19.7978 39.8413 18.0059 41.6333 18.0059 43.8361C18.0059 46.0389 19.7978 47.8309 22.0005 47.8309C24.2032 47.8309 25.9952 46.0389 25.9952 43.8361C25.9952 41.6333 24.2032 39.8413 22.0005 39.8413ZM22.0005 45.78C20.9286 45.78 20.0566 44.9078 20.0566 43.836C20.0566 42.7641 20.9286 41.892 22.0005 41.892C23.0724 41.892 23.9444 42.7641 23.9444 43.836C23.9444 44.9078 23.0724 45.78 22.0005 45.78Z" fill="url(#paint2_linear_266_5779)"/>
<path d="M33.5107 40.9633C34.1453 40.2744 34.257 39.2664 33.7886 38.4549L32.5595 36.3262C32.0913 35.5148 31.1623 35.1082 30.2483 35.3126L27.9227 35.8345C27.9009 35.8392 27.8751 35.8323 27.852 35.8154C27.2832 35.4004 26.6682 35.045 26.024 34.7594C25.9983 34.7479 25.9798 34.7294 25.9733 34.7083L25.2625 32.434C24.9831 31.5398 24.166 30.939 23.2292 30.939H20.771C19.8342 30.939 19.017 31.5398 18.7377 32.4338L18.0269 34.7083C18.0203 34.7294 18.0017 34.7479 17.9759 34.7594C17.3319 35.045 16.717 35.4004 16.148 35.8154C16.1249 35.8323 16.0989 35.8396 16.0776 35.8345L13.7516 35.3126C12.8372 35.1075 11.9087 35.5148 11.4405 36.3261L10.2114 38.4549C9.74296 39.2664 9.85466 40.2744 10.4893 40.9633L12.1044 42.7169C12.1194 42.7331 12.1262 42.7588 12.1232 42.7876C12.0858 43.138 12.0666 43.4928 12.0666 43.8419C12.0666 44.1911 12.0856 44.5458 12.1232 44.8966C12.1262 44.925 12.1194 44.9507 12.1044 44.967L10.4893 46.7205C9.85466 47.4095 9.74296 48.4175 10.2114 49.2289L11.4405 51.3576C11.9087 52.1689 12.8376 52.5758 13.7517 52.3713L16.0773 51.8494C16.0994 51.8449 16.1247 51.8516 16.1481 51.8685C16.7177 52.284 17.3326 52.6394 17.9756 52.9243C18.0015 52.9358 18.0202 52.9545 18.0268 52.9756L18.7375 55.2499C19.0169 56.144 19.834 56.7449 20.7708 56.7449H23.229C24.1658 56.7449 24.983 56.144 25.2623 55.25L25.9731 52.9756C25.9797 52.9545 25.9984 52.9358 26.0238 52.9244C26.6672 52.6394 27.2823 52.284 27.8522 51.8683C27.8751 51.8515 27.9006 51.8445 27.9223 51.8494L30.2483 52.3713C31.1625 52.5765 32.0911 52.1689 32.5594 51.3578L33.7885 49.2289C34.2569 48.4175 34.1452 47.4095 33.5106 46.7205L31.8955 44.967C31.8805 44.9507 31.8736 44.925 31.8766 44.8963C31.9141 44.5459 31.9332 44.1911 31.9332 43.8419C31.9332 43.4928 31.9142 43.1381 31.8766 42.7873C31.8736 42.7588 31.8805 42.7331 31.8955 42.7169L33.5107 40.9633ZM29.8377 43.0056C29.8675 43.284 29.8827 43.5653 29.8827 43.8418C29.8827 44.1182 29.8677 44.3996 29.8379 44.6777C29.7718 45.2935 29.972 45.9053 30.3874 46.3561L32.0024 48.1096C32.0261 48.1353 32.0303 48.1729 32.0128 48.2033L30.7836 50.3322C30.7662 50.3623 30.7313 50.3774 30.6974 50.3698L28.3712 49.848C27.7732 49.7139 27.1432 49.8465 26.6433 50.2115C26.1915 50.5411 25.7035 50.8231 25.1929 51.0493C24.6275 51.3001 24.1985 51.7791 24.016 52.3633L23.3052 54.6379C23.2948 54.6711 23.2643 54.6936 23.2293 54.6936H20.7711C20.7362 54.6936 20.7056 54.6711 20.6952 54.6378L19.9844 52.3633C19.8019 51.7791 19.3729 51.3001 18.8071 51.0492C18.2969 50.8231 17.809 50.5411 17.3574 50.2118C16.9851 49.9399 16.5408 49.7969 16.0911 49.7969C15.9367 49.7969 15.7817 49.8138 15.6287 49.848L13.303 50.3698C13.2688 50.378 13.2342 50.3625 13.2167 50.3321L11.9876 48.2033C11.9701 48.1729 11.9742 48.1354 11.998 48.1096L13.6132 46.3561C14.0284 45.9052 14.2286 45.2935 14.1627 44.678C14.1329 44.3996 14.1177 44.1182 14.1177 43.8418C14.1177 43.5653 14.1327 43.284 14.1625 43.0059C14.2286 42.3901 14.0284 41.7783 13.6131 41.3275L11.998 39.574C11.9743 39.5483 11.9701 39.5107 11.9876 39.4803L13.2168 37.3513C13.2342 37.3211 13.2687 37.3057 13.303 37.3138L15.6292 37.8356C16.2274 37.9697 16.8571 37.8371 17.3572 37.4722C17.8085 37.1429 18.2965 36.8609 18.8071 36.6344C19.3727 36.3838 19.8018 35.9047 19.9844 35.3203L20.6952 33.0457C20.7056 33.0124 20.7361 32.99 20.7711 32.99H23.2293C23.2642 32.99 23.2948 33.0124 23.3052 33.0458L24.016 35.3203C24.1986 35.9047 24.6278 36.3838 25.1931 36.6344C25.7041 36.8609 26.192 37.1429 26.6433 37.4722C27.1434 37.8371 27.7732 37.9692 28.3717 37.8356L30.6974 37.3138C30.7316 37.3065 30.7662 37.3211 30.7837 37.3515L32.0128 39.4803C32.0303 39.5107 32.0262 39.5481 32.0024 39.574L30.3872 41.3275C29.972 41.7784 29.7717 42.3901 29.8377 43.0056Z" fill="url(#paint3_linear_266_5779)"/>
<path d="M26.587 7.73584H21.3086C20.7423 7.73584 20.2832 8.1948 20.2832 8.76123C20.2832 9.32766 20.7423 9.78662 21.3086 9.78662H26.587C27.1533 9.78662 27.6124 9.32766 27.6124 8.76123C27.6124 8.1948 27.1533 7.73584 26.587 7.73584Z" fill="url(#paint4_linear_266_5779)"/>
<path d="M11.6445 9.78662H16.8926C17.4589 9.78662 17.918 9.32766 17.918 8.76123C17.918 8.1948 17.4589 7.73584 16.8926 7.73584H11.6445C11.0782 7.73584 10.6191 8.1948 10.6191 8.76123C10.6191 9.32766 11.0782 9.78662 11.6445 9.78662Z" fill="url(#paint5_linear_266_5779)"/>
<path d="M11.6445 14.2085H23.5384C24.1047 14.2085 24.5638 13.7495 24.5638 13.1831C24.5638 12.6167 24.1047 12.1577 23.5384 12.1577H11.6445C11.0782 12.1577 10.6191 12.6167 10.6191 13.1831C10.6191 13.7495 11.0782 14.2085 11.6445 14.2085Z" fill="url(#paint6_linear_266_5779)"/>
<path d="M26.9316 13.1831C26.9316 13.7495 27.3907 14.2085 27.957 14.2085H32.3599C32.9262 14.2085 33.3853 13.7495 33.3853 13.1831C33.3853 12.6167 32.9262 12.1577 32.3599 12.1577H27.957C27.3907 12.1577 26.9316 12.6167 26.9316 13.1831Z" fill="url(#paint7_linear_266_5779)"/>
<path d="M11.6445 18.6226H16.6164C17.1827 18.6226 17.6418 18.1636 17.6418 17.5972C17.6418 17.0307 17.1827 16.5718 16.6164 16.5718H11.6445C11.0782 16.5718 10.6191 17.0307 10.6191 17.5972C10.6191 18.1636 11.0782 18.6226 11.6445 18.6226Z" fill="url(#paint8_linear_266_5779)"/>
<path d="M23.5377 16.5718H21.0352C20.4689 16.5718 20.0098 17.0307 20.0098 17.5972C20.0098 18.1636 20.4689 18.6226 21.0352 18.6226H23.5377C24.1039 18.6226 24.563 18.1636 24.563 17.5972C24.563 17.0307 24.1039 16.5718 23.5377 16.5718Z" fill="url(#paint9_linear_266_5779)"/>
<path d="M32.3608 16.5718H27.9414C27.3751 16.5718 26.916 17.0307 26.916 17.5972C26.916 18.1636 27.3751 18.6226 27.9414 18.6226H32.3608C32.9271 18.6226 33.3862 18.1636 33.3862 17.5972C33.3862 17.0307 32.9271 16.5718 32.3608 16.5718Z" fill="url(#paint10_linear_266_5779)"/>
<path d="M11.6445 23.0444H23.5384C24.1047 23.0444 24.5638 22.5855 24.5638 22.019C24.5638 21.4526 24.1047 20.9937 23.5384 20.9937H11.6445C11.0782 20.9937 10.6191 21.4526 10.6191 22.019C10.6191 22.5855 11.0782 23.0444 11.6445 23.0444Z" fill="url(#paint11_linear_266_5779)"/>
<path d="M32.3447 20.9937H27.957C27.3907 20.9937 26.9316 21.4526 26.9316 22.019C26.9316 22.5855 27.3907 23.0444 27.957 23.0444H32.3447C32.911 23.0444 33.3701 22.5855 33.3701 22.019C33.3701 21.4526 32.911 20.9937 32.3447 20.9937Z" fill="url(#paint12_linear_266_5779)"/>
<path d="M11.6445 27.4624H13.7161C14.2824 27.4624 14.7415 27.0034 14.7415 26.437C14.7415 25.8706 14.2824 25.4116 13.7161 25.4116H11.6445C11.0782 25.4116 10.6191 25.8706 10.6191 26.437C10.6191 27.0034 11.0782 27.4624 11.6445 27.4624Z" fill="url(#paint13_linear_266_5779)"/>
<path d="M32.3467 25.4116H18.1367C17.5704 25.4116 17.1113 25.8706 17.1113 26.437C17.1113 27.0034 17.5704 27.4624 18.1367 27.4624H32.3467C32.913 27.4624 33.3721 27.0034 33.3721 26.437C33.3721 25.8706 32.913 25.4116 32.3467 25.4116Z" fill="url(#paint14_linear_266_5779)"/>
<path d="M32.3463 9.78662C32.9126 9.78662 33.3717 9.32766 33.3717 8.76123C33.3717 8.1948 32.9126 7.73584 32.3463 7.73584H30.9805C30.4142 7.73584 29.9551 8.1948 29.9551 8.76123C29.9551 9.32766 30.4142 9.78662 30.9805 9.78662H32.3463Z" fill="url(#paint15_linear_266_5779)"/>
<path d="M7.68174 4.53198C7.1752 4.27837 6.55941 4.48399 6.30607 4.99053L5.47742 6.64784C5.33305 6.93659 5.33305 7.27633 5.47742 7.56508L6.30607 9.22239C6.48572 9.58169 6.84776 9.78936 7.22401 9.78936C7.37809 9.78936 7.53449 9.75436 7.68174 9.68081C8.18828 9.42747 8.39363 8.81169 8.14029 8.30514L7.54092 7.10639L8.14029 5.90764C8.3935 5.40124 8.18828 4.78532 7.68174 4.53198Z" fill="url(#paint16_linear_266_5779)"/>
<path d="M36.319 27.3563C36.4663 27.43 36.6227 27.4649 36.7768 27.4649C37.1529 27.4649 37.515 27.2571 37.6947 26.8979L38.5233 25.2406C38.6677 24.9519 38.6677 24.6121 38.5233 24.3234L37.6947 22.6661C37.4414 22.1596 36.8257 21.9544 36.319 22.2075C35.8125 22.4608 35.6071 23.0766 35.8605 23.5832L36.4598 24.7819L35.8605 25.9807C35.6073 26.4872 35.8125 27.1031 36.319 27.3563Z" fill="url(#paint17_linear_266_5779)"/>
<defs>
<linearGradient id="paint0_linear_266_5779" x1="0.259766" y1="20.2863" x2="43.7418" y2="20.2863" gradientUnits="userSpaceOnUse">
<stop stop-color="#00469F"/>
<stop offset="1" stop-color="#1E79D6"/>
</linearGradient>
<linearGradient id="paint1_linear_266_5779" x1="0.259766" y1="43.5586" x2="43.7418" y2="43.5586" gradientUnits="userSpaceOnUse">
<stop stop-color="#00469F"/>
<stop offset="1" stop-color="#1E79D6"/>
</linearGradient>
<linearGradient id="paint2_linear_266_5779" x1="18.0059" y1="43.9441" x2="25.9952" y2="43.9441" gradientUnits="userSpaceOnUse">
<stop stop-color="#00469F"/>
<stop offset="1" stop-color="#1E79D6"/>
</linearGradient>
<linearGradient id="paint3_linear_266_5779" x1="9.92383" y1="44.1907" x2="34.0762" y2="44.1907" gradientUnits="userSpaceOnUse">
<stop stop-color="#00469F"/>
<stop offset="1" stop-color="#1E79D6"/>
</linearGradient>
<linearGradient id="paint4_linear_266_5779" x1="20.2832" y1="8.78894" x2="27.6124" y2="8.78894" gradientUnits="userSpaceOnUse">
<stop stop-color="#00469F"/>
<stop offset="1" stop-color="#1E79D6"/>
</linearGradient>
<linearGradient id="paint5_linear_266_5779" x1="10.6191" y1="8.78894" x2="17.918" y2="8.78894" gradientUnits="userSpaceOnUse">
<stop stop-color="#00469F"/>
<stop offset="1" stop-color="#1E79D6"/>
</linearGradient>
<linearGradient id="paint6_linear_266_5779" x1="10.6191" y1="13.2108" x2="24.5638" y2="13.2108" gradientUnits="userSpaceOnUse">
<stop stop-color="#00469F"/>
<stop offset="1" stop-color="#1E79D6"/>
</linearGradient>
<linearGradient id="paint7_linear_266_5779" x1="26.9316" y1="13.2108" x2="33.3853" y2="13.2108" gradientUnits="userSpaceOnUse">
<stop stop-color="#00469F"/>
<stop offset="1" stop-color="#1E79D6"/>
</linearGradient>
<linearGradient id="paint8_linear_266_5779" x1="10.6191" y1="17.6249" x2="17.6418" y2="17.6249" gradientUnits="userSpaceOnUse">
<stop stop-color="#00469F"/>
<stop offset="1" stop-color="#1E79D6"/>
</linearGradient>
<linearGradient id="paint9_linear_266_5779" x1="20.0098" y1="17.6249" x2="24.563" y2="17.6249" gradientUnits="userSpaceOnUse">
<stop stop-color="#00469F"/>
<stop offset="1" stop-color="#1E79D6"/>
</linearGradient>
<linearGradient id="paint10_linear_266_5779" x1="26.916" y1="17.6249" x2="33.3862" y2="17.6249" gradientUnits="userSpaceOnUse">
<stop stop-color="#00469F"/>
<stop offset="1" stop-color="#1E79D6"/>
</linearGradient>
<linearGradient id="paint11_linear_266_5779" x1="10.6191" y1="22.0468" x2="24.5638" y2="22.0468" gradientUnits="userSpaceOnUse">
<stop stop-color="#00469F"/>
<stop offset="1" stop-color="#1E79D6"/>
</linearGradient>
<linearGradient id="paint12_linear_266_5779" x1="26.9316" y1="22.0468" x2="33.3701" y2="22.0468" gradientUnits="userSpaceOnUse">
<stop stop-color="#00469F"/>
<stop offset="1" stop-color="#1E79D6"/>
</linearGradient>
<linearGradient id="paint13_linear_266_5779" x1="10.6191" y1="26.4647" x2="14.7415" y2="26.4647" gradientUnits="userSpaceOnUse">
<stop stop-color="#00469F"/>
<stop offset="1" stop-color="#1E79D6"/>
</linearGradient>
<linearGradient id="paint14_linear_266_5779" x1="17.1113" y1="26.4647" x2="33.3721" y2="26.4647" gradientUnits="userSpaceOnUse">
<stop stop-color="#00469F"/>
<stop offset="1" stop-color="#1E79D6"/>
</linearGradient>
<linearGradient id="paint15_linear_266_5779" x1="29.9551" y1="8.78894" x2="33.3717" y2="8.78894" gradientUnits="userSpaceOnUse">
<stop stop-color="#00469F"/>
<stop offset="1" stop-color="#1E79D6"/>
</linearGradient>
<linearGradient id="paint16_linear_266_5779" x1="5.36914" y1="7.17886" x2="8.24881" y2="7.17886" gradientUnits="userSpaceOnUse">
<stop stop-color="#00469F"/>
<stop offset="1" stop-color="#1E79D6"/>
</linearGradient>
<linearGradient id="paint17_linear_266_5779" x1="35.752" y1="24.8545" x2="38.6316" y2="24.8545" gradientUnits="userSpaceOnUse">
<stop stop-color="#00469F"/>
<stop offset="1" stop-color="#1E79D6"/>
</linearGradient>
</defs>
</svg>
