<svg xmlns="http://www.w3.org/2000/svg" xmlns:xlink="http://www.w3.org/1999/xlink" width="323" height="330" fill="none" xmlns:v="https://vecta.io/nano"><style><![CDATA[.B{fill:#ccc}.C{opacity:.7}.D{fill:#ededed}.E{fill:#05228c}.F{fill:#fff}.G{fill:#c6d2ff}]]></style><g clip-path="url(#V)"><g class="C B"><use xlink:href="#W"/></g><path d="M317.045 135.778a10.22 10.22 0 0 0-7.604-12.29 10.23 10.23 0 0 0-12.303 7.596 10.22 10.22 0 0 0 7.604 12.29 10.23 10.23 0 0 0 12.303-7.596z" class="D"/><g class="C B"><path d="M165.781 56.898c5.648 0 10.227-4.574 10.227-10.216s-4.579-10.216-10.227-10.216-10.226 4.574-10.226 10.216 4.578 10.216 10.226 10.216z"/></g><path d="M172.604 51.99a10.21 10.21 0 0 0 0-14.448c-3.994-3.99-10.469-3.99-14.462 0a10.21 10.21 0 0 0 0 14.448c3.993 3.99 10.468 3.99 14.462 0z" class="D"/><g class="C B"><path d="M150.831 264.548a10.21 10.21 0 0 0 0-14.448c-3.994-3.99-10.469-3.99-14.463 0a10.21 10.21 0 0 0 0 14.448c3.994 3.99 10.469 3.99 14.463 0z"/></g><path d="M143.184 265.628c5.648 0 10.226-4.574 10.226-10.216s-4.578-10.217-10.226-10.217-10.227 4.574-10.227 10.217 4.579 10.216 10.227 10.216z" class="D"/><g class="C B"><path d="M124.164 255.46a12.44 12.44 0 0 0-9.258-14.964c-6.693-1.579-13.4 2.563-14.98 9.249s2.566 13.386 9.258 14.964 13.4-2.563 14.979-9.249z"/></g><path d="M123.661 253.124c1.579-6.687-2.566-13.386-9.259-14.964s-13.399 2.563-14.979 9.249 2.565 13.386 9.258 14.964 13.4-2.563 14.98-9.249z" fill="url(#A)"/><g class="C B"><path d="M11.793 131.283c6.164 0 11.161-4.992 11.161-11.149s-4.997-11.15-11.161-11.15S.633 113.976.633 120.134s4.997 11.149 11.161 11.149z"/></g><path d="M22.212 119.025c.988-6.078-3.144-11.806-9.228-12.792S1.166 109.374.179 115.452s3.144 11.805 9.228 12.791a11.16 11.16 0 0 0 12.805-9.218z" fill="url(#B)"/><g class="C B"><use xlink:href="#X"/></g><path d="M322.584 178.55c0 1.164-.346 2.302-.993 3.27a5.88 5.88 0 0 1-2.644 2.167c-1.077.446-2.261.562-3.404.335s-2.193-.787-3.017-1.61-1.385-1.872-1.612-3.014-.111-2.325.335-3.401a5.89 5.89 0 0 1 2.17-2.641c.969-.647 2.108-.992 3.273-.992 1.563 0 3.061.62 4.166 1.724s1.726 2.601 1.726 4.162z" fill="url(#C)"/><g class="C B"><use xlink:href="#Y"/></g><path d="M255.759 41.256a5.89 5.89 0 0 0 5.891-5.886 5.89 5.89 0 1 0-11.783 0 5.89 5.89 0 0 0 5.892 5.886z" class="G"/><g class="C B"><path d="M242.904 37.815a5.88 5.88 0 0 1-1.015 3.257 5.89 5.89 0 0 1-2.653 2.147 5.9 5.9 0 0 1-3.401.316c-1.139-.232-2.185-.797-3.004-1.621s-1.376-1.874-1.6-3.014-.104-2.322.343-3.394a5.89 5.89 0 0 1 2.17-2.634c.968-.645 2.105-.989 3.269-.989a5.9 5.9 0 0 1 2.265.452c.718.299 1.369.736 1.917 1.288s.981 1.206 1.274 1.925a5.87 5.87 0 0 1 .435 2.266z"/></g><path d="M242.49 35.89c0 1.164-.345 2.302-.993 3.27s-1.567 1.722-2.644 2.168-2.261.562-3.404.335a5.89 5.89 0 0 1-4.629-4.624c-.227-1.142-.11-2.325.336-3.401s1.201-1.995 2.169-2.641 2.108-.992 3.274-.992c1.562 0 3.061.62 4.166 1.724s1.725 2.601 1.725 4.162z" class="D"/><g class="C B"><use xlink:href="#Z"/></g><path d="M195.369 116.768c0 1.165-.345 2.302-.993 3.27s-1.567 1.723-2.644 2.168-2.261.562-3.404.335a5.89 5.89 0 0 1-3.016-1.611c-.824-.823-1.386-1.872-1.613-3.013s-.111-2.325.335-3.401 1.201-1.995 2.17-2.641 2.108-.992 3.274-.992c1.562 0 3.061.62 4.166 1.724s1.725 2.6 1.725 4.161z" class="D"/><g class="C B"><path d="M262.482 158.382c0 1.164-.345 2.302-.992 3.27a5.89 5.89 0 0 1-2.645 2.167c-1.076.446-2.261.562-3.404.335s-2.192-.787-3.016-1.61-1.385-1.872-1.613-3.014-.11-2.325.336-3.401a5.89 5.89 0 0 1 5.443-3.633c1.562 0 3.061.62 4.166 1.724a5.88 5.88 0 0 1 1.725 4.162z"/></g><path d="M256.177 162.357a5.89 5.89 0 0 0 5.891-5.885 5.89 5.89 0 1 0-11.783 0 5.89 5.89 0 0 0 5.892 5.885z" fill="url(#D)"/><g class="C B"><path d="M172.748 247.589c0 1.164-.345 2.302-.993 3.27a5.88 5.88 0 0 1-2.644 2.167c-1.076.446-2.261.562-3.404.335s-2.193-.787-3.017-1.61a5.89 5.89 0 0 1-1.612-3.014c-.227-1.142-.111-2.325.335-3.401a5.89 5.89 0 0 1 2.17-2.641c.969-.647 2.108-.992 3.273-.992a5.9 5.9 0 0 1 2.257.445c.715.295 1.365.729 1.913 1.276s.981 1.196 1.277 1.911.447 1.48.445 2.254z"/></g><path d="M172.311 245.678c-.003 1.164-.35 2.301-.999 3.267s-1.57 1.719-2.646 2.163a5.9 5.9 0 0 1-3.403.33c-1.143-.228-2.191-.79-3.014-1.613s-1.383-1.873-1.609-3.014a5.88 5.88 0 0 1 .337-3.399c.446-1.075 1.201-1.993 2.17-2.64a5.9 5.9 0 0 1 5.529-.542 5.89 5.89 0 0 1 1.913 1.279 5.88 5.88 0 0 1 1.276 1.914c.296.715.447 1.482.446 2.255z" fill="url(#E)"/><g class="C B"><path d="M134.768 163.311c0 1.165-.346 2.302-.993 3.27s-1.568 1.723-2.644 2.168-2.262.562-3.404.335-2.193-.788-3.017-1.611a5.88 5.88 0 0 1-1.612-3.013c-.228-1.142-.111-2.325.335-3.401s1.201-1.995 2.17-2.641 2.108-.992 3.273-.992c1.563 0 3.061.62 4.166 1.724a5.88 5.88 0 0 1 1.726 4.161z"/></g><path d="M134.354 161.39a5.88 5.88 0 0 1-.993 3.269c-.648.968-1.568 1.723-2.644 2.168s-2.261.562-3.404.335-2.193-.788-3.017-1.611a5.88 5.88 0 0 1-1.612-3.013c-.228-1.142-.111-2.325.335-3.401a5.89 5.89 0 0 1 2.17-2.641c.969-.647 2.108-.992 3.273-.992 1.563 0 3.061.62 4.166 1.724s1.726 2.601 1.726 4.162z" fill="url(#F)"/><g class="C B"><path d="M145.939 55.944c0 1.166-.346 2.306-.994 3.275a5.9 5.9 0 0 1-2.647 2.172 5.91 5.91 0 0 1-3.409.337c-1.145-.227-2.197-.787-3.023-1.611s-1.389-1.873-1.618-3.017a5.89 5.89 0 0 1 .331-3.406 5.9 5.9 0 0 1 2.169-2.649c.969-.649 2.109-.997 3.276-.999a5.9 5.9 0 0 1 2.265.443c.718.295 1.371.729 1.92 1.277s.986 1.199 1.283 1.916a5.87 5.87 0 0 1 .447 2.261z"/></g><path d="M145.525 54.019c.002 1.167-.342 2.309-.99 3.281s-1.57 1.729-2.649 2.177a5.91 5.91 0 0 1-3.413.338c-1.146-.227-2.199-.789-3.025-1.614s-1.389-1.877-1.616-3.022a5.89 5.89 0 0 1 .338-3.41 5.9 5.9 0 0 1 2.179-2.646 5.91 5.91 0 0 1 3.284-.989c1.563 0 3.061.62 4.166 1.724s1.726 2.601 1.726 4.162z" fill="url(#G)"/><g class="C B"><path d="M48.931 292.521a5.89 5.89 0 0 0 5.892-5.885 5.89 5.89 0 0 0-11.783 0 5.89 5.89 0 0 0 5.892 5.885z"/></g><path d="M54.408 284.71c0 1.164-.346 2.302-.993 3.27s-1.568 1.722-2.644 2.168-2.261.562-3.404.334-2.193-.787-3.017-1.61-1.385-1.872-1.612-3.014a5.88 5.88 0 0 1 .335-3.4c.446-1.076 1.201-1.995 2.17-2.642s2.108-.992 3.273-.992c.774 0 1.54.152 2.255.448s1.364.73 1.911 1.276.981 1.195 1.277 1.91a5.88 5.88 0 0 1 .449 2.252z" fill="url(#H)"/><g class="C B"><use xlink:href="#a"/></g><path d="M92.283 26.976a5.88 5.88 0 0 1-.993 3.27 5.89 5.89 0 0 1-2.644 2.168c-1.077.446-2.261.562-3.404.335s-2.193-.788-3.017-1.611-1.385-1.872-1.612-3.014a5.88 5.88 0 0 1 .335-3.401c.446-1.075 1.201-1.995 2.17-2.641s2.108-.992 3.273-.992c1.563 0 3.061.62 4.166 1.724s1.726 2.601 1.726 4.162z" fill="url(#I)"/><g class="C B"><path d="M188.244 8.718c0 1.164-.345 2.302-.993 3.27s-1.567 1.722-2.644 2.168-2.261.562-3.404.335a5.89 5.89 0 0 1-3.016-1.611 5.88 5.88 0 0 1-1.278-6.414c.446-1.075 1.201-1.995 2.17-2.641s2.108-.992 3.274-.992c1.562 0 3.061.62 4.166 1.724s1.725 2.601 1.725 4.162z"/></g><path d="M181.935 12.682a5.89 5.89 0 0 0 5.891-5.886 5.89 5.89 0 1 0-11.783 0 5.89 5.89 0 0 0 5.892 5.886z" fill="url(#J)"/><g class="C B"><path d="M18.587 99.17a5.89 5.89 0 0 0 5.892-5.886 5.89 5.89 0 1 0-11.783 0 5.89 5.89 0 0 0 5.892 5.886z"/></g><path d="M18.169 97.244a5.89 5.89 0 0 0 5.892-5.886 5.89 5.89 0 1 0-11.783 0 5.89 5.89 0 0 0 5.892 5.886z" fill="url(#K)"/><g class="C B"><path d="M40.317 196.681a5.89 5.89 0 0 0 5.892-5.885 5.89 5.89 0 1 0-11.783 0 5.89 5.89 0 0 0 5.892 5.885z"/></g><path d="M45.795 188.87a5.88 5.88 0 0 1-.993 3.27c-.647.968-1.568 1.722-2.644 2.168a5.9 5.9 0 0 1-6.421-1.276c-.824-.823-1.385-1.872-1.612-3.014a5.88 5.88 0 0 1 .335-3.4c.446-1.076 1.201-1.995 2.17-2.642a5.9 5.9 0 0 1 3.273-.992c1.563 0 3.061.62 4.166 1.724s1.726 2.601 1.726 4.162z" class="D"/><path d="M178.812 322.605c0 1.463-.435 2.893-1.248 4.109s-1.969 2.163-3.322 2.723-2.841.706-4.276.421a7.4 7.4 0 0 1-3.79-2.024c-1.036-1.034-1.741-2.352-2.026-3.786s-.139-2.921.421-4.272a7.4 7.4 0 0 1 2.726-3.319c1.218-.812 2.649-1.246 4.113-1.246a7.39 7.39 0 0 1 5.237 2.162 7.37 7.37 0 0 1 1.604 2.401c.372.898.562 1.86.561 2.831z" class="B"/><path d="M178.398 320.684a7.39 7.39 0 0 1-1.242 4.111 7.4 7.4 0 0 1-3.32 2.729 7.41 7.41 0 0 1-4.277.425 7.4 7.4 0 0 1-3.793-2.021c-1.037-1.034-1.743-2.351-2.029-3.786s-.141-2.922.419-4.274a7.4 7.4 0 0 1 2.726-3.32 7.41 7.41 0 0 1 4.114-1.247 7.39 7.39 0 0 1 2.831.558c.898.371 1.715.914 2.402 1.6a7.37 7.37 0 0 1 1.605 2.397c.372.896.564 1.857.564 2.828z" fill="url(#L)"/><g class="C B"><use xlink:href="#b"/></g><path d="M116.734 180.985c3.47-14.685-5.634-29.4-20.334-32.866s-29.429 5.629-32.899 20.315 5.635 29.399 20.335 32.865 29.43-5.629 32.899-20.314z" class="G"/><g class="C B"><path d="M39.917 176.543c10.942-4.528 16.138-17.06 11.606-27.991s-17.077-16.122-28.019-11.594-16.138 17.06-11.606 27.991 17.077 16.122 28.019 11.594z"/></g><path d="M31.293 176.261c11.844 0 21.445-9.592 21.445-21.424s-9.601-21.423-21.445-21.423-21.445 9.592-21.445 21.423 9.601 21.424 21.445 21.424z" fill="url(#M)"/><g class="C B"><path d="M149.868 317.836c9.811-9.801 9.811-25.692 0-35.493s-25.718-9.801-35.529 0-9.811 25.692 0 35.493 25.718 9.802 35.529 0z"/></g><path d="M149.446 315.919c9.811-9.802 9.811-25.693 0-35.494s-25.718-9.801-35.529 0-9.811 25.692 0 35.494 25.718 9.801 35.529 0z" class="D"/><g class="C B"><path d="M231.618 201.649c12.819-5.305 18.907-19.986 13.597-32.792s-20.006-18.887-32.825-13.583-18.906 19.986-13.596 32.792 20.006 18.887 32.824 13.583z"/></g><path d="M221.588 201.644c13.875 0 25.123-11.236 25.123-25.097s-11.248-25.098-25.123-25.098-25.123 11.237-25.123 25.098 11.248 25.097 25.123 25.097z" class="D"/><g class="C B"><path d="M189.161 96.565c3.188-13.49-5.176-27.008-18.68-30.192s-27.035 5.171-30.222 18.661 5.176 27.008 18.68 30.192 27.035-5.171 30.222-18.661z"/></g><path d="M188.739 94.651c3.188-13.49-5.176-27.008-18.68-30.192s-27.034 5.171-30.222 18.661 5.177 27.008 18.68 30.192 27.035-5.171 30.222-18.661z" fill="url(#N)"/><g class="C B"><path d="M307.969 233.903c9.811-9.801 9.811-25.692 0-35.493s-25.718-9.802-35.529 0-9.811 25.692 0 35.493 25.718 9.801 35.529 0z"/></g><path d="M314.622 218.269c2.223-13.682-7.077-26.573-20.773-28.794s-26.601 7.07-28.824 20.752 7.078 26.573 20.773 28.794 26.601-7.07 28.824-20.752z" class="D"/><g class="C B"><use xlink:href="#c"/></g><path d="M56.438 268.229c16.428 0 29.746-13.304 29.746-29.716s-13.318-29.716-29.746-29.716-29.746 13.304-29.746 29.716 13.318 29.716 29.746 29.716z" class="D"/><g class="C B"><path d="M246.96 233.965a11.63 11.63 0 0 0 6.302-15.199c-2.461-5.936-9.273-8.755-15.215-6.296s-8.763 9.264-6.302 15.199 9.273 8.755 15.215 6.296z"/></g><path d="M246.546 232.059a11.63 11.63 0 0 0 6.302-15.199c-2.461-5.936-9.273-8.755-15.215-6.296a11.63 11.63 0 0 0-6.302 15.199c2.461 5.936 9.273 8.755 15.215 6.296z" class="G"/><g class="C B"><path d="M286.118 272.367a13.94 13.94 0 0 0 0-19.726c-5.452-5.447-14.293-5.447-19.745 0a13.94 13.94 0 0 0 0 19.726c5.452 5.447 14.293 5.447 19.745 0z"/></g><path d="M289.373 263.759a13.95 13.95 0 0 0-10.381-16.78c-7.505-1.769-15.025 2.874-16.796 10.372a13.95 13.95 0 0 0 10.381 16.779c7.505 1.769 15.025-2.874 16.796-10.371z" fill="url(#O)"/><g class="C B"><path d="M204.488 61.528c11.576 0 20.961-9.375 20.961-20.94s-9.385-20.94-20.961-20.94-20.961 9.375-20.961 20.94 9.385 20.94 20.961 20.94z"/></g><path d="M218.894 53.471c8.186-8.177 8.186-21.436 0-29.613a20.98 20.98 0 0 0-29.643 0c-8.186 8.177-8.186 21.436 0 29.613a20.98 20.98 0 0 0 29.643 0z" class="D"/><g class="C B"><path d="M127.919 230.956c8.246 0 14.931-6.678 14.931-14.915s-6.685-14.916-14.931-14.916-14.931 6.678-14.931 14.916 6.685 14.915 14.931 14.915z"/></g><path d="M127.47 228.906c8.246 0 14.931-6.678 14.931-14.916s-6.685-14.916-14.931-14.916-14.931 6.678-14.931 14.916 6.685 14.916 14.931 14.916z" class="D"/><g class="C B"><path d="M178.639 234.598c11.506 0 20.833-9.318 20.833-20.812s-9.327-20.813-20.833-20.813-20.834 9.318-20.834 20.813 9.327 20.812 20.834 20.812z"/></g><path d="M178.225 232.673c11.506 0 20.833-9.319 20.833-20.813s-9.327-20.813-20.833-20.813-20.834 9.318-20.834 20.813 9.327 20.813 20.834 20.813z" fill="url(#P)"/><g class="C B"><path d="M300.071 174.379a13.94 13.94 0 0 0 0-19.726c-5.452-5.447-14.293-5.447-19.745 0a13.94 13.94 0 0 0 0 19.725c5.452 5.448 14.293 5.448 19.745.001z"/></g><path d="M295.133 175.478c7.124-2.948 10.507-11.107 7.556-18.224a13.97 13.97 0 0 0-18.243-7.549c-7.124 2.948-10.507 11.107-7.556 18.224a13.97 13.97 0 0 0 18.243 7.549z" fill="url(#Q)"/><g class="C B"><path d="M118.177 50.436a13.96 13.96 0 0 0 13.962-13.948 13.96 13.96 0 1 0-27.924 0 13.96 13.96 0 0 0 13.962 13.948z"/></g><path d="M127.646 44.433c5.452-5.447 5.452-14.279 0-19.726s-14.293-5.447-19.746 0-5.452 14.279 0 19.726 14.293 5.447 19.746 0z" fill="url(#R)"/><g class="C B"><path d="M193.993 161.887c3.484-14.747-5.658-29.524-20.42-33.004s-29.554 5.652-33.038 20.399 5.659 29.524 20.421 33.005 29.553-5.653 33.037-20.4z"/></g><path d="M186.302 173.087a27.42 27.42 0 0 0 0-38.799c-10.726-10.715-28.114-10.715-38.839 0s-10.726 28.085 0 38.799 28.113 10.715 38.839 0z" class="D"/><g class="C B"><path d="M27.02 216.301a12.48 12.48 0 0 0 0-17.657 12.51 12.51 0 0 0-17.675 0 12.48 12.48 0 0 0 0 17.657 12.51 12.51 0 0 0 17.675 0z"/></g><path d="M29.812 207.975c1.586-6.711-2.575-13.435-9.293-15.019a12.5 12.5 0 0 0-15.035 9.283 12.49 12.49 0 0 0 9.293 15.02c6.718 1.584 13.449-2.573 15.035-9.284z" class="G"/><g class="C B"><path d="M124.127 151.416c7.023 0 12.717-5.688 12.717-12.704s-5.694-12.704-12.717-12.704-12.717 5.688-12.717 12.704 5.694 12.704 12.717 12.704z"/></g><path d="M123.412 148.108c7.024 0 12.717-5.688 12.717-12.705s-5.693-12.704-12.717-12.704-12.717 5.688-12.717 12.704 5.694 12.705 12.717 12.705z" fill="url(#S)"/><g class="C B"><path d="M162.196 26.985c5.362-5.357 5.362-14.043 0-19.4s-14.057-5.357-19.42 0a13.71 13.71 0 0 0 0 19.4c5.363 5.357 14.057 5.357 19.42 0z"/></g><path d="M165.028 16.861A13.72 13.72 0 0 0 154.818.359c-7.381-1.74-14.777 2.826-16.519 10.2a13.72 13.72 0 0 0 10.21 16.502c7.381 1.74 14.777-2.826 16.519-10.2z" fill="url(#T)"/><g class="C B"><path d="M282.951 129.343c17.695-17.677 17.695-46.337 0-64.014s-46.384-17.677-64.079 0-17.695 46.337 0 64.014 46.384 17.678 64.079 0z"/></g><path d="M295.258 102.672c4.01-24.676-12.764-47.927-37.465-51.933s-47.977 12.752-51.986 37.428 12.764 47.928 37.466 51.933 47.976-12.751 51.985-37.428z" class="G"/><g class="C B"><path d="M242.028 307.398c15.845-15.828 15.845-41.491 0-57.32s-41.533-15.828-57.378 0-15.845 41.492 0 57.32 41.534 15.829 57.378 0z"/></g><path d="M252.385 286.107c5.147-21.786-8.36-43.616-30.168-48.758s-43.66 8.351-48.807 30.137 8.359 43.616 30.167 48.758 43.661-8.351 48.808-30.137z" class="D"/><g class="C B"><path d="M76.729 134.691c25.025 0 45.311-20.266 45.311-45.265S101.754 44.16 76.729 44.16 31.418 64.426 31.418 89.426s20.286 45.265 45.311 45.265z"/></g><path d="M76.315 132.765c25.025 0 45.311-20.266 45.311-45.265S101.34 42.234 76.315 42.234 31.004 62.5 31.004 87.5s20.286 45.265 45.311 45.265z" class="D"/><g class="C B"><path d="M89.556 298.871a13.94 13.94 0 0 0 0-19.726c-5.453-5.447-14.293-5.447-19.746 0a13.94 13.94 0 0 0 0 19.726c5.453 5.447 14.293 5.447 19.746 0z"/></g><path d="M93.082 289.338c1.236-7.603-3.933-14.768-11.545-16.002s-14.783 3.929-16.019 11.533 3.933 14.768 11.545 16.003 14.783-3.93 16.019-11.534z" fill="url(#U)"/><g class="E"><path d="M173.53 160.688c.078.049.139.12.176.205a.46.46 0 0 1 .032.267c-.395 1.475-1.285 2.77-2.521 3.668a6.67 6.67 0 0 1-4.27 1.262c-3.655 0-6.664-2.465-6.918-5.609a.44.44 0 0 1 .092-.311c.175-.2.377-.375.6-.518 1.337-.784 3.574-.358 6.468 1.232.878.516 1.875.798 2.894.818.848.006 1.682-.221 2.41-.657.161-.092.311-.207.472-.322.076-.07.174-.111.277-.118a.45.45 0 0 1 .288.083zm-6.583 4.504c1.12.044 2.231-.223 3.208-.772s1.782-1.359 2.326-2.338c-.905.399-1.895.57-2.882.498s-1.942-.386-2.779-.913a10.03 10.03 0 0 0-4.45-1.497c-.4-.017-.797.07-1.153.253-.085.056-.162.121-.231.196.277 2.569 2.848 4.573 5.961 4.573zm19.199-7.835v.276a7.15 7.15 0 0 1-2.064 4.607c-.893.968-2.051 1.652-3.331 1.965s-2.624.243-3.863-.203c-2.537 3.744-6.146 5.875-9.939 5.909-7.517 0-13.57-8.062-13.57-17.91a.43.43 0 0 1 .031-.174.44.44 0 0 1 .245-.244c.055-.023.114-.033.174-.031h26.518c.76-.013 1.515.128 2.22.413s1.346.708 1.884 1.246.962 1.177 1.247 1.881.426 1.459.413 2.219l.035.046zm-.899.23c.042-.692-.065-1.386-.314-2.033a4.86 4.86 0 0 0-1.128-1.722c-.458-.443-.999-.79-1.593-1.022s-1.228-.342-1.865-.325H154.29c.184 9.214 5.765 16.574 12.613 16.574 3.667 0 7.091-2.154 9.478-5.759.062-.089.154-.154.259-.184a.47.47 0 0 1 .317.023 5.77 5.77 0 0 0 3.491.326c1.169-.256 2.23-.869 3.035-1.755a6.22 6.22 0 0 0 1.81-4.123h-.046zm-2.433-2.681a3.68 3.68 0 0 1 .842 1.301 3.67 3.67 0 0 1 .23 1.532 4.73 4.73 0 0 1-1.447 3.106 4.74 4.74 0 0 1-3.165 1.317c-.534.001-1.062-.117-1.545-.345a.42.42 0 0 1-.147-.095c-.041-.042-.074-.092-.095-.147-.04-.116-.04-.242 0-.357 1.026-2.177 1.665-4.515 1.891-6.911a.43.43 0 0 1 .128-.272c.074-.072.172-.114.276-.119h.115.323c.476-.014.951.066 1.396.236s.852.427 1.198.754zm.173 2.799c.032-.377-.015-.756-.139-1.113a2.69 2.69 0 0 0-.58-.961 2.7 2.7 0 0 0-.922-.641 2.71 2.71 0 0 0-1.103-.211c-.233 2.204-.813 4.358-1.718 6.381.605.146 1.239.125 1.833-.06s1.129-.526 1.545-.988c.651-.638 1.038-1.497 1.084-2.407zm-2.93 12.252a.45.45 0 0 1 .314.128c.084.081.133.193.136.31 0 1.509-5.281 3.697-13.524 3.709s-13.663-2.2-13.663-3.709a.43.43 0 0 1 .133-.314c.042-.041.091-.073.146-.094a.45.45 0 0 1 .171-.03h26.287zm-.968.887h-24.397c1.292.852 5.154 2.304 12.21 2.304s10.884-1.429 12.187-2.304zm-5.34-12.114c.013.056.012.115-.002.171a.36.36 0 0 1-.079.151 4.15 4.15 0 0 1-1.245 1.152 4.61 4.61 0 0 1-2.306.622c-.985-.02-1.949-.289-2.802-.783-2.882-1.589-5.061-2.027-6.491-1.325-.076.043-.163.062-.25.055s-.17-.04-.238-.095a.43.43 0 0 1-.144-.211c-.026-.083-.027-.172-.002-.255.467-1.394 1.376-2.597 2.589-3.428a6.77 6.77 0 0 1 4.133-1.18c3.482-.069 6.41 2.166 6.837 5.126zm-1.776.68a3.31 3.31 0 0 0 .865-.738c-.345-1.28-1.122-2.402-2.2-3.176a5.77 5.77 0 0 0-3.715-1.074c-1.128-.034-2.244.244-3.224.803a6.13 6.13 0 0 0-2.333 2.365c.325-.077.658-.112.992-.104a11.66 11.66 0 0 1 5.395 1.751 4.11 4.11 0 0 0 2.086.672 4.1 4.1 0 0 0 2.134-.499zm.222-20.17c-.011 1.294-.44 2.55-1.222 3.582-.807 1.232-1.441 2.2-.138 5.022a.46.46 0 0 1 .028.283c-.02.096-.071.182-.144.247-.078.058-.173.09-.27.09s-.193-.032-.271-.09c-.127-.081-3.033-2.108-3.309-4.608a3.58 3.58 0 0 1 .202-1.585c.185-.506.483-.964.87-1.34 2.882-3.098-.208-8.155-.242-8.201-.055-.086-.078-.188-.065-.289a.44.44 0 0 1 .4-.392.44.44 0 0 1 .287.071c1.179.801 2.148 1.875 2.822 3.13s1.036 2.655 1.052 4.08zm-.899 0c-.008-1.821-.661-3.58-1.845-4.964.715 1.958 1.234 4.929-.865 7.175-.298.283-.529.63-.673 1.016a2.71 2.71 0 0 0-.157 1.207c.23 1.114.807 2.126 1.649 2.891-.22-.719-.261-1.482-.118-2.221a4.59 4.59 0 0 1 .937-2.017c.69-.882 1.067-1.968 1.072-3.087zm-4.371 0a5.94 5.94 0 0 1-1.222 3.582c-.807 1.233-1.441 2.2-.138 5.022a.43.43 0 0 1 .037.286c-.021.096-.075.183-.153.244-.08.069-.182.106-.288.104-.088.001-.173-.027-.242-.081-.127-.081-3.032-2.108-3.309-4.607-.057-.536.008-1.078.192-1.585a3.55 3.55 0 0 1 .869-1.341c2.894-3.098-.208-8.154-.231-8.2a.43.43 0 0 1-.102-.277c0-.101.036-.199.102-.276a.44.44 0 0 1 .143-.11c.055-.027.114-.042.175-.044a.45.45 0 0 1 .178.031c.056.023.107.056.15.1 1.165.799 2.121 1.866 2.789 3.11a8.84 8.84 0 0 1 1.05 4.042zm-.888 0a7.68 7.68 0 0 0-1.844-4.952c.714 1.969 1.222 4.918-.877 7.164-.296.285-.524.632-.668 1.017s-.199.797-.162 1.206a5.41 5.41 0 0 0 1.66 2.891 4.6 4.6 0 0 1-.123-2.22 4.59 4.59 0 0 1 .931-2.019c.693-.88 1.074-1.966 1.083-3.087z"/></g><g class="F"><path d="M46.638 146.394a2.07 2.07 0 0 1 .623 1.532 2.09 2.09 0 0 1-.704 1.486l-9.281 8.258c-.397.35-.911.536-1.44.521a2.09 2.09 0 0 1-1.408-.601l-1.776-1.762-11.772 11.759a2.08 2.08 0 0 1-2.94 0c-.39-.389-.609-.917-.609-1.468a2.08 2.08 0 0 1 .609-1.469l11.772-11.759-1.764-1.774c-.373-.374-.591-.876-.608-1.405a2.08 2.08 0 0 1 .515-1.44L36.123 139a2.07 2.07 0 0 1 .676-.507c.258-.121.538-.188.823-.196s.565.046.829.15.503.262.705.461l7.483 7.486zm-.207 1.509c-.007-.331-.138-.648-.369-.887l-7.506-7.486a1.22 1.22 0 0 0-.401-.272 1.23 1.23 0 0 0-.475-.097 1.3 1.3 0 0 0-.491.118 1.29 1.29 0 0 0-.408.297l-8.267 9.283c-.218.233-.339.54-.339.858s.121.626.339.858l2.052 2.051a.4.4 0 0 1 .094.133c.022.051.033.105.033.16a.4.4 0 0 1-.033.16c-.022.051-.054.096-.094.134l-12.06 12.059c-.232.235-.361.552-.361.881a1.26 1.26 0 0 0 .361.882 1.28 1.28 0 0 0 1.764 0l12.06-12.06c.038-.038.084-.069.135-.09a.42.42 0 0 1 .159-.032c.054 0 .109.011.159.032s.096.052.135.09l2.064 2.062c.23.22.535.342.853.342a1.23 1.23 0 0 0 .853-.342l9.293-8.258a1.3 1.3 0 0 0 .461-.876h-.011zm-1.5-.704c.221.246.337.569.323.899-.024.33-.173.638-.415.864l-7.748 6.91a1.3 1.3 0 0 1-.842.323 1.26 1.26 0 0 1-1.152-.808 1.25 1.25 0 0 1 .321-1.369l7.748-6.911a1.25 1.25 0 0 1 .419-.25 1.24 1.24 0 0 1 .483-.07 1.23 1.23 0 0 1 .473.12 1.25 1.25 0 0 1 .39.292zm-.507.853c.002-.111-.039-.219-.115-.3a.41.41 0 0 0-.3-.138c-.057-.001-.106.009-.156.029a.41.41 0 0 0-.133.086l-7.736 6.911a.41.41 0 0 0-.122.294.42.42 0 0 0 .032.159.41.41 0 0 0 .09.134.38.38 0 0 0 .134.094.4.4 0 0 0 .16.033.4.4 0 0 0 .16-.033.38.38 0 0 0 .134-.094l7.736-6.91c.069-.072.11-.166.115-.265zm-1.696-3.066a1.31 1.31 0 0 1 .358.91c-.001.164-.036.326-.101.476a1.22 1.22 0 0 1-.279.399l-7.483 7.199a1.25 1.25 0 0 1-.865.345 1.23 1.23 0 0 1-.475-.096c-.15-.063-.287-.156-.401-.272a1.25 1.25 0 0 1-.275-.406c-.064-.153-.097-.316-.097-.481a1.24 1.24 0 0 1 .097-.481 1.25 1.25 0 0 1 .275-.406l7.494-7.222c.24-.22.557-.34.883-.334a1.27 1.27 0 0 1 .869.369zm-.473.898a.4.4 0 0 0-.027-.161c-.02-.051-.05-.099-.089-.138a.38.38 0 0 0-.136-.097c-.052-.022-.108-.032-.164-.03a.45.45 0 0 0-.156.029.41.41 0 0 0-.133.086l-7.483 7.245c-.04.037-.072.081-.094.131a.39.39 0 0 0-.033.157c-.004.055.005.111.025.162s.051.099.091.137c.079.076.184.118.294.118s.215-.042.294-.118l7.483-7.221c.076-.073.121-.172.127-.277v-.023zm-1.707-3.061c.228.234.356.548.356.875s-.128.641-.356.875l-7.229 7.487a1.24 1.24 0 0 1-.4.277 1.22 1.22 0 0 1-.476.103 1.26 1.26 0 0 1-.865-.345c-.23-.231-.359-.544-.359-.87s.129-.639.359-.87l7.229-7.475c.225-.235.533-.372.859-.383a1.24 1.24 0 0 1 .882.326zm-.565 1.152a.43.43 0 0 0 .106-.218c.014-.082.003-.165-.03-.241a.42.42 0 0 0-.156-.185c-.069-.045-.149-.07-.232-.071a.39.39 0 0 0-.157.034.38.38 0 0 0-.131.093l-7.229 7.475a.42.42 0 0 0-.09.135.41.41 0 0 0 0 .318c.021.05.052.096.09.135l-.277.311.288-.3a.46.46 0 0 0 .3.115.44.44 0 0 0 .288-.126l7.229-7.475zm-1.624-3.343c.241.222.385.529.403.857a1.25 1.25 0 0 1-.31.894l-6.918 7.74a1.26 1.26 0 0 1-.423.306 1.25 1.25 0 0 1-.511.108 1.14 1.14 0 0 1-.448-.078c-.142-.055-.272-.138-.383-.244a1.22 1.22 0 0 1 0-1.705l6.918-7.74a1.25 1.25 0 0 1 .39-.295 1.24 1.24 0 0 1 .474-.12c.293-.001.577.096.807.277zm-.53 1.209a.4.4 0 0 0 .094-.133c.022-.051.033-.105.033-.16a.4.4 0 0 0-.033-.16c-.022-.051-.054-.096-.094-.134a.35.35 0 0 0-.12-.087c-.046-.02-.095-.029-.145-.028a.43.43 0 0 0-.277.138l-6.975 7.74c-.075.077-.116.181-.116.288s.042.211.116.288l-.265.322.277-.322a.41.41 0 0 0 .134.094.4.4 0 0 0 .16.033.4.4 0 0 0 .16-.033.41.41 0 0 0 .134-.094l6.918-7.752z"/><path d="M21.444 164.094c.194.194.302.457.302.732s-.109.537-.302.731l-1.326 1.29a1.05 1.05 0 0 1-1.464 0 1.06 1.06 0 0 1 0-1.474l1.291-1.279c.2-.195.469-.305.749-.305s.549.11.75.305zm-.588.876a.21.21 0 0 0 .058-.144c0-.054-.021-.106-.058-.144-.018-.022-.041-.04-.067-.052s-.054-.018-.083-.018-.057.006-.083.018-.049.03-.067.052l-1.28 1.278a.22.22 0 0 0-.059.15c0 .055.021.109.059.15.104.103.184.103.3 0l1.28-1.29z"/></g><g class="E"><path d="M311.195 219.854a.45.45 0 0 1 .01.239c-.018.079-.058.152-.114.211-1.019 1.021-2.367 1.65-3.805 1.773 0 0 0-.092.081-.149.046-.124.058-.258.033-.388s-.083-.251-.171-.35c1.112-.107 2.164-.558 3.009-1.29-.104-.196-.251-.365-.431-.495s-.388-.217-.607-.253c-.067-.01-.131-.035-.185-.076s-.098-.093-.126-.155c-.037-.058-.057-.126-.057-.195s.02-.138.057-.196a.98.98 0 0 0 0-.703c-.326-.501-.835-.857-1.418-.99a9.42 9.42 0 0 0-1.153 3.57c-.157-.089-.319-.17-.485-.242a.51.51 0 0 0-.322.058c-.023-.008-.047-.008-.07 0 .208-1.457.71-2.855 1.476-4.112.05-.083.125-.147.215-.182s.188-.04.281-.014c.478.083.932.27 1.33.546a3.35 3.35 0 0 1 .976 1.055c.13.289.185.606.161.922.608.28 1.081.789 1.315 1.416zm-3.933 2.245a4.94 4.94 0 0 1-1.153 6.139 24.23 24.23 0 0 1-15.438 5.829h-.139a19.37 19.37 0 0 1-8.248-1.704c-2.59-1.167-4.892-2.89-6.74-5.046a4.92 4.92 0 0 1-1.154-2.692c-.103-.993.098-1.995.577-2.871.192.01.385.01.577 0h.369c.042.007.085.007.127 0a3.85 3.85 0 0 0-.773 2.05 4.02 4.02 0 0 0 .175 1.575c.162.508.424.979.771 1.385 1.769 2.064 3.974 3.712 6.455 4.825a18.47 18.47 0 0 0 7.899 1.614h.138a23.3 23.3 0 0 0 14.862-5.61 4.04 4.04 0 0 0 .553-5.586c.066.056.146.092.231.104h.346c.042.059.081.12.115.184a.47.47 0 0 0 .251-.037c.08-.034.148-.089.199-.159z"/><path d="M307.203 221.191c.088.099.148.22.172.35s.013.264-.034.388c0 .057 0 .103-.08.149-.151-.284-.333-.55-.542-.794v-.07l.484-.023z"/><path d="M307.205 222.077h-.519a4.6 4.6 0 0 0-1.325-1.393c-.018-.146-.018-.293 0-.438h.069c.289.167.559.364.807.588v.057l.334.346v.069a4.38 4.38 0 0 1 .634.771z"/><path d="M307.204 221.189h-.588l-.392-.403a2.26 2.26 0 0 1 0-.403 3.18 3.18 0 0 1 .98.806zm-.518.912h-.345c-.085-.013-.165-.048-.231-.104-.027-.045-.058-.087-.092-.126-.167-.198-.353-.379-.554-.542a.61.61 0 0 1-.092-.196c-.012-.138-.012-.276 0-.414.53.364.978.835 1.314 1.382z"/><path d="M306.639 221.215l-.334-.346v-.092l.334.438z"/><path d="M306.248 220.408c-.011.134-.011.269 0 .403-.247-.223-.518-.42-.807-.587.099-.055.212-.075.323-.058a5.08 5.08 0 0 1 .484.242zm-.195 1.45a.88.88 0 0 1 .093.127l-.577-.588c-.004-.019-.004-.038 0-.057a4.09 4.09 0 0 1 .484.518z"/><path d="M305.359 220.19c.023-.008.047-.008.07 0h-.07z"/><path d="M305.372 221.121a.61.61 0 0 0 .092.196c-.231-.185-.482-.343-.749-.472.215.245.361.542.424.862s.04.65-.067.958a1.73 1.73 0 0 1-.363.582 1.74 1.74 0 0 1-.559.397c-.496.224-1.061.245-1.572.058s-.928-.568-1.161-1.06a1.8 1.8 0 0 1-.081-1.359c.103-.273.274-.515.496-.703a3.95 3.95 0 0 0-1.533.806 15.32 15.32 0 0 1-9.65 3.698 10.51 10.51 0 0 1-4.538-.861 10.49 10.49 0 0 1-3.729-2.721c-.343-.407-.762-.742-1.235-.985a4.01 4.01 0 0 0-1.521-.432h-.346a3.93 3.93 0 0 0-2.432.829c.005-.034.005-.069 0-.104a4.01 4.01 0 0 0 0-.979c1.002-.56 2.169-.751 3.298-.541a4.92 4.92 0 0 1 2.882 1.693 9.54 9.54 0 0 0 3.378 2.478c1.296.566 2.702.837 4.116.793a14.53 14.53 0 0 0 9.223-3.455 4.93 4.93 0 0 1 5.638-.53v.081c-.15.149 0 .414 0 .414-.012.119-.016.238-.011.357zm-1.153 1.233a.89.89 0 0 0 0-.3 1.15 1.15 0 0 0-.233-.598c-.132-.173-.312-.305-.517-.381a1.38 1.38 0 0 0-.426-.08 1.22 1.22 0 0 0-.461.103.9.9 0 0 0-.473.496.88.88 0 0 0-.069.339.88.88 0 0 0 .069.34c.067.138.16.26.275.361a1.16 1.16 0 0 0 .394.227c.142.06.295.091.449.091s.308-.031.45-.091a.93.93 0 0 0 .337-.193c.097-.087.175-.194.228-.314h-.023z"/><path d="M305.36 220.27c-.018.145-.018.292 0 .437 0 0-.15-.288 0-.437zm-10.653-3.607v5.759a1.16 1.16 0 0 1-.413.613c-.201.153-.447.236-.7.236s-.499-.083-.7-.236a1.16 1.16 0 0 1-.413-.613v-4.297h-.265v4.297c-.07.239-.215.449-.415.598a1.15 1.15 0 0 1-1.383 0 1.14 1.14 0 0 1-.415-.598v-4.297h-.254v4.297c-.067.244-.211.459-.412.613a1.16 1.16 0 0 1-.701.236c-.253 0-.499-.083-.7-.236a1.15 1.15 0 0 1-.412-.613v-5.759c.012-.652.247-1.28.667-1.779a2.85 2.85 0 0 1 1.639-.963l-.842-13.165a11.21 11.21 0 0 1-.092-1.359c0-2.476.772-4.999 2.225-4.999s2.225 2.523 2.225 4.999a12.04 12.04 0 0 1-.092 1.382l-.842 13.142c.638.129 1.212.47 1.629.968a2.86 2.86 0 0 1 .666 1.774zm-.888 5.759v-5.759c0-1.233-1.084-1.751-1.995-1.97a.47.47 0 0 1-.334-.461l.876-13.533c0-.496.069-.899.069-1.302 0-2.511-.784-4.112-1.326-4.112s-1.337 1.601-1.337 4.112a10.32 10.32 0 0 0 .092 1.279l.865 13.556c.004.103-.027.205-.088.288s-.147.145-.246.173c-.9.219-1.984.737-1.984 1.97v5.759c0 .241.45.241.45 0v-4.734c0-.119.047-.234.132-.318a.45.45 0 0 1 .318-.132h1.153c.119 0 .233.048.318.132a.45.45 0 0 1 .131.318v4.734c0 .241.438.241.438 0v-4.734c.003-.119.052-.231.135-.315a.46.46 0 0 1 .315-.135h1.153a.45.45 0 0 1 .45.45v4.734c-.035.299.415.299.415.057v-.057zm-16.936-2.602a4.01 4.01 0 0 1 0 .979c.005.035.005.07 0 .104l-.173.138a4.04 4.04 0 0 0-.646.68c-.042.006-.084.006-.126 0h-.369c-.192.01-.385.01-.577 0l.092-.138c.036.043.083.074.137.088a.26.26 0 0 0 .163-.008c.374-.638.886-1.185 1.499-1.601-.005-.078-.037-.151-.092-.207l.092-.035z"/><path d="M276.673 221.041l.173-.139c-.021.055-.057.103-.104.139l-.565.587a.25.25 0 0 1-.15.092c.188-.251.405-.479.646-.679zm.209-1.221l-.127.069c-.043-.045-.095-.079-.153-.101s-.12-.031-.182-.026l-.426.277a9.12 9.12 0 0 0-1.153-3.525c-.586.137-1.094.496-1.418 1.002a.98.98 0 0 0 0 .691.43.43 0 0 1 0 .392c-.032.062-.078.116-.134.158s-.12.071-.189.084a1.4 1.4 0 0 0-.6.241 1.39 1.39 0 0 0-.426.485 5.37 5.37 0 0 0 3.09 1.301c-.098.139-.154.303-.162.472a.44.44 0 0 0 .104.277l-.092.138a6.12 6.12 0 0 1-3.793-1.774.42.42 0 0 1-.104-.449c.121-.324.305-.62.543-.872a2.59 2.59 0 0 1 .84-.591 1.79 1.79 0 0 1 .162-.921c.246-.417.58-.776.978-1.052a3.37 3.37 0 0 1 1.328-.549c.092-.021.189-.014.278.021a.47.47 0 0 1 .217.175 10.82 10.82 0 0 1 1.419 4.077z"/><path d="M276.753 219.891c.055.055.088.129.092.207-.612.415-1.124.962-1.498 1.601a.26.26 0 0 1-.163.008c-.054-.014-.102-.045-.137-.089.148-.265.326-.512.53-.737h.081l.334-.345v-.081l.104-.092a5.25 5.25 0 0 1 .657-.472z"/><path d="M276.419 219.763c.061-.005.123.004.181.026s.11.056.153.101a5.25 5.25 0 0 0-.657.472l-.104.092c.017-.137.017-.277 0-.414l.427-.277z"/><path d="M275.993 220.039a1.6 1.6 0 0 1 0 .415c-.152.127-.291.27-.415.426h-.473c.252-.324.551-.608.888-.841z"/><path d="M275.993 220.453v.081l-.334.345h-.081c.123-.156.263-.298.415-.426z"/><path d="M275.107 220.867h.472c-.204.225-.382.472-.53.737-.066-.077-.102-.175-.104-.276a.9.9 0 0 1 .162-.461zm-26.705 59.109c.069.967-.726 1.774-1.983 1.993l-3.055.426c-.088-.346-.22-.679-.392-.991a.7.7 0 0 0-.635-.38l3.817-.53c.542-.08.761-.311.761-.391 0-.3-1.222-1.486-6.388-1.613.178-.026.343-.106.473-.23.071-.08.125-.173.159-.274a.78.78 0 0 0 .037-.314c-.018-.216-.049-.432-.092-.645 4.542.185 7.183 1.244 7.298 2.949z"/><path d="M243.39 282.395c.106.394.16.8.161 1.209 0 2.073-1.152 3.709-2.744 3.709h-.749a3.32 3.32 0 0 0 .196-.507.74.74 0 0 0 .029-.347.73.73 0 0 0-.133-.321.69.69 0 0 0-.599-.311h1.256c.588 0 1.257-.922 1.257-2.223a3.25 3.25 0 0 0-.173-1.071h.531l.968-.138z"/><path d="M243.387 282.397l-.968.092h-.53l-2.007.115h-1.153c-2.64.058-5.038-.081-7.229-.196-2.399-.238-4.817-.238-7.217 0-2.978.363-5.991.324-8.959-.115l-1.683-.173a19.78 19.78 0 0 0-6.422.208 23.85 23.85 0 0 1-9.362.08 7.22 7.22 0 0 0-3.044-.126 9.11 9.11 0 0 1-3.724.622 26.58 26.58 0 0 1-7.021-1.06l-.507-.127-.392-.092c-.381-.094-.765-.167-1.153-.219a2.97 2.97 0 0 1 .841-1.082c.088-.07.191-.119.301-.143s.224-.023.333.004c.289 0 .6.15.957.242 4.428 1.244 8.313 1.152 9.697.518.922-.437 2.167-.253 3.908 0 2.913.557 5.907.529 8.809-.08a21.56 21.56 0 0 1 6.917-.219l1.684.173a32.85 32.85 0 0 0 8.601.126 37 37 0 0 1 7.529 0 70.82 70.82 0 0 0 10.664 0h.07c.131-.003.26.031.372.099a.69.69 0 0 1 .262.282 4.13 4.13 0 0 1 .426 1.071zm-2.168-4.725a.78.78 0 0 1-.037.314c-.034.101-.088.194-.159.274-.129.124-.295.204-.472.23h-.139-3.032-3.044-20.603l-26.714.104h-.634a.69.69 0 0 1-.307-.062.68.68 0 0 1-.247-.192c-.075-.071-.131-.16-.164-.258a.61.61 0 0 1-.02-.306v-.541a4.17 4.17 0 0 1 .53-.104h.784.196l26.518-.104h20.454 4.104 2.202.104.53a5.53 5.53 0 0 1 .15.645z"/><path d="M241.13 277.03h-.531-.104-2.202 1.349c-.608-4.328-2.765-8.289-6.072-11.15a18.1 18.1 0 0 0-11.914-4.411h-16.452a18.1 18.1 0 0 0-11.918 4.415c-3.307 2.864-5.463 6.828-6.069 11.158h-.196-.784a4.35 4.35 0 0 0-.53.103c.581-4.754 2.886-9.13 6.478-12.301a19.61 19.61 0 0 1 13.019-4.906h16.452a19.61 19.61 0 0 1 12.969 4.871 19.58 19.58 0 0 1 6.505 12.221zm-.622 1.461l-3.078-.057h3.032l.046.057zm-.36 7.648a.75.75 0 0 1 .133.322c.018.116.008.235-.03.346a3.28 3.28 0 0 1-.196.507H186.8l-.196-.507a.84.84 0 0 1-.026-.349.83.83 0 0 1 .119-.33c.07-.095.163-.171.269-.223a.75.75 0 0 1 .342-.077h52.24c.118-.002.235.025.34.079a.7.7 0 0 1 .26.232z"/><path d="M238.475 287.316h1.58c-1.396 3.76-3.913 7.002-7.212 9.286a19.61 19.61 0 0 1-11.235 3.488h-16.407a19.61 19.61 0 0 1-11.235-3.488 19.58 19.58 0 0 1-7.212-9.286h1.579a18.18 18.18 0 0 0 6.693 8.2c2.995 2.01 6.521 3.085 10.129 3.088h16.499c3.608-.003 7.134-1.078 10.129-3.088a18.17 18.17 0 0 0 6.692-8.2zm-4.287-10.391h-20.453 20.453zm-5.649-13.14a.94.94 0 0 1 .66.273c.175.175.273.413.273.66.002.124-.021.247-.067.363s-.115.22-.201.308-.19.16-.305.209a.93.93 0 0 1-.36.076h-.981a.97.97 0 0 1-.673-.283c-.179-.179-.28-.42-.283-.673a.93.93 0 0 1 .076-.36.94.94 0 0 1 .209-.304.92.92 0 0 1 .309-.201c.115-.046.238-.069.362-.068h.981zm-5.638 3.281c.133.003.259.058.351.153a.51.51 0 0 1 .145.354.49.49 0 0 1-.145.35c-.093.093-.22.145-.351.145h-.53c-.133 0-.26-.051-.355-.144s-.15-.218-.153-.351.054-.263.149-.358a.51.51 0 0 1 .359-.149h.53zm-1.547-4.296a.5.5 0 0 1 .355.144.51.51 0 0 1 .153.351.52.52 0 0 1-.508.518h-.519a.52.52 0 0 1-.359-.156c-.095-.097-.148-.227-.148-.362a.49.49 0 0 1 .153-.351.5.5 0 0 1 .354-.144h.519zm-7.355 4.802a.51.51 0 0 1 .216.014c.07.02.135.055.191.103s.099.106.13.173a.51.51 0 0 1 .046.211.52.52 0 0 1-.046.212c-.031.066-.075.125-.13.173a.52.52 0 0 1-.191.102.51.51 0 0 1-.216.014h-.531a.51.51 0 0 1-.359-.148c-.095-.095-.148-.224-.148-.359.006-.131.061-.255.156-.347a.52.52 0 0 1 .351-.148h.531zm-1.511-5.252c.251 0 .491.1.668.277a.94.94 0 0 1 .277.668c0 .25-.099.49-.277.668a.94.94 0 0 1-.668.276h-.98a.95.95 0 0 1-.946-.944c0-.251.1-.491.277-.668a.95.95 0 0 1 .669-.277h.98zm-10.63 4.746a.51.51 0 0 1 .359.149c.095.095.148.224.148.358 0 .066-.013.132-.039.192a.5.5 0 0 1-.11.163c-.047.046-.103.082-.165.106a.49.49 0 0 1-.193.034h-.53c-.066.002-.132-.01-.194-.034a.49.49 0 0 1-.164-.106.5.5 0 0 1-.111-.163c-.025-.06-.039-.126-.039-.192 0-.134.054-.263.149-.358a.51.51 0 0 1 .359-.149h.53zm-.727-4.296c.133 0 .26.051.355.144a.51.51 0 0 1 .153.351c0 .135-.053.266-.148.362a.52.52 0 0 1-.36.156h-.518a.52.52 0 0 1-.199-.039c-.063-.026-.12-.064-.168-.113a.52.52 0 0 1-.152-.366c.001-.067.016-.132.043-.193a.51.51 0 0 1 .281-.268.5.5 0 0 1 .195-.034h.518z"/><path d="M184.287 285.831h3.009c-.118-.002-.235.024-.341.076a.75.75 0 0 0-.27.223c-.062.101-.103.213-.118.33s-.007.236.026.35l.196.507h-2.514c-1.533 0-2.732-1.636-2.732-3.709a4.61 4.61 0 0 1 .507-2.108c.388.052.773.125 1.153.219l.392.092a2.92 2.92 0 0 0-.553 1.797c0 1.301.657 2.223 1.245 2.223z"/><path d="M185.833 278.239a.68.68 0 0 0 .246.192.69.69 0 0 0 .307.062 28.88 28.88 0 0 0-5.073 1.405c.749.08 1.492.207 2.225.38-.109-.027-.223-.028-.333-.004a.72.72 0 0 0-.301.142c-.361.29-.649.661-.841 1.083-.587-.101-1.181-.155-1.776-.162-.213.045-.434.029-.638-.046s-.383-.207-.515-.38a1.15 1.15 0 0 1-.12-.585c.012-.202.077-.398.189-.566.484-1.152 3.678-2.062 6.457-2.592v.541c-.015.096-.007.194.023.286s.082.175.15.244zm-75.14-191.268v11.426c-.003 1.872-.748 3.666-2.073 4.989a7.08 7.08 0 0 1-4.994 2.072h-2.306l1.995 7.049c.046.135.047.282.001.417a.65.65 0 0 1-.255.331c-.15.127-3.978 2.972-7.114 2.972H62.512c-3.148 0-6.918-2.845-7.125-2.972-.117-.081-.204-.198-.25-.333a.66.66 0 0 1-.004-.415l3.102-10.908h-5.177c-2.202 0-2.421-3.167-2.675-6.842-.196-2.833-.427-6.024-1.568-7.395s-4.243-1.555-5.361-1.52a.82.82 0 0 1-.507-.219.68.68 0 0 1-.156-.226.67.67 0 0 1-.052-.269v-5.252a.69.69 0 0 1 .519-.68c.357-.092 8.751-2.2 13.178 2.407a13.69 13.69 0 0 1 3.182 5.505c.542 1.555.761 2.212 2.064 2.304l3.263-11.426a.69.69 0 0 1 .68-.518h27.21a.68.68 0 0 1 .68.518l.553 1.935h9.546c.928-.002 1.848.18 2.706.533a7.06 7.06 0 0 1 2.295 1.527 7.05 7.05 0 0 1 1.536 2.288c.357.856.541 1.774.542 2.701zm-1.418 11.426V86.971a5.65 5.65 0 0 0-1.658-3.987 5.66 5.66 0 0 0-3.991-1.656H93.538c-.155-.004-.305-.058-.427-.153s-.211-.227-.253-.377l-.553-1.924H66.236l-3.263 11.449c-.043.147-.132.276-.255.368a.7.7 0 0 1-.425.139h-.207c-2.606 0-3.136-1.509-3.747-3.271a12.3 12.3 0 0 0-2.859-4.976c-3.251-3.455-9.42-2.499-11.253-2.131v3.974c1.383.069 4.37.38 5.765 2.039s1.672 5.01 1.891 8.189c.173 2.303.392 5.528 1.268 5.528h6.111c.11.003.217.031.315.081s.183.12.25.207a.75.75 0 0 1 .116.622l-3.217 11.322c1.003.68 3.724 2.408 5.88 2.408h33.436c2.144 0 4.877-1.717 5.869-2.408l-2.11-7.463c-.031-.105-.036-.216-.016-.324a.7.7 0 0 1 .38-.502.71.71 0 0 1 .316-.073h3.217c1.487-.021 2.907-.626 3.951-1.684a5.65 5.65 0 0 0 1.629-3.971zM106.9 86.971v11.426a3.28 3.28 0 0 1-.249 1.252 3.27 3.27 0 0 1-.71 1.061c-.304.304-.665.545-1.062.709s-.823.249-1.253.249h-4.289a.68.68 0 0 1-.68-.506l-4.75-16.575a.68.68 0 0 1 .127-.622c.067-.082.151-.149.247-.195a.71.71 0 0 1 .307-.07h9.004a3.28 3.28 0 0 1 2.338.946 3.27 3.27 0 0 1 .719 1.066 3.28 3.28 0 0 1 .252 1.26zm-1.464 11.426V86.971a1.87 1.87 0 0 0-.138-.712 1.86 1.86 0 0 0-1.006-1.005 1.83 1.83 0 0 0-.712-.138h-8.071l4.289 15.135h3.77a1.85 1.85 0 0 0 1.324-.536c.173-.173.311-.378.405-.605a1.86 1.86 0 0 0 .139-.714zM92.998 75.583a.69.69 0 0 1 .138.76c-.057.126-.15.234-.266.309a.73.73 0 0 1-.391.117H65.962c-.139-.001-.275-.041-.391-.117a.73.73 0 0 1-.266-.309.73.73 0 0 1-.038-.4c.025-.135.086-.259.177-.361a22.82 22.82 0 0 1 10.607-6.289 3.89 3.89 0 0 1-.911-2.511 4.05 4.05 0 0 1 1.017-3.142 4.07 4.07 0 0 1 1.366-.993 4.06 4.06 0 0 1 3.305 0 4.07 4.07 0 0 1 1.366.993 4.05 4.05 0 0 1 1.017 3.142 3.99 3.99 0 0 1-.888 2.511 22.94 22.94 0 0 1 10.676 6.289zm-25.261-.23h23.059a22.12 22.12 0 0 0-9.985-4.987.74.74 0 0 1-.364-.211c-.098-.104-.164-.235-.189-.376a.7.7 0 0 1 .062-.41.71.71 0 0 1 .284-.304 2.64 2.64 0 0 0 1.123-1.274 2.63 2.63 0 0 0 .114-1.693c-.15-.561-.481-1.058-.943-1.412a2.64 2.64 0 0 0-4.159 1.412 2.63 2.63 0 0 0 .114 1.693 2.64 2.64 0 0 0 1.123 1.274.68.68 0 0 1 .346.714.76.76 0 0 1-.553.587 22.23 22.23 0 0 0-10.031 4.987zM65.442 59.8c6.791 6.784.83 13.234.138 13.948-.057.063-.127.114-.204.149a.65.65 0 0 1-.246.058 9 9 0 0 0-.819-2.511v-.069a6.49 6.49 0 0 0-.254-.979c0-.127-.081-.219-.115-.323l-.081-.184c0-.138-.127-.299-.208-.449l-.081-.15c-.047-.096-.101-.188-.161-.276l-.104-.161c-.058-.092-.115-.184-.184-.276l-.115-.138-.231-.276-.104-.092a2.06 2.06 0 0 0-.254-.288l-.784-.726-.415-.276c-.1-.069-.181-.163-.235-.271a.72.72 0 0 1-.076-.351c.173-3.651 3.459-6.289 3.586-6.404a.71.71 0 0 1 .482-.16.7.7 0 0 1 .464.206zm.277 11.518c1.407-2.073 2.917-5.909-.819-10.032-1.309 1.208-2.198 2.802-2.537 4.55l.161.115.461.38.415.403a2.86 2.86 0 0 0 .311.346l.092.115c.104.115.184.23.277.346l.104.138c.092.127.173.253.265.369l.081.138c.081.15.15.253.231.38l.081.161c.104.207.184.392.265.576l.069.207c0 .127.115.265.161.392a11.72 11.72 0 0 1 .311 1.152c.033.089.056.182.069.276v-.011z"/><path d="M65.086 73.955a6.23 6.23 0 0 1 .127 1.52.69.69 0 0 1-.176.434c-.107.12-.253.198-.412.222a14.32 14.32 0 0 1-2.652.253 9.74 9.74 0 0 1-5.984-1.866c-3.886-2.879-4.485-7.982-4.52-8.201-.011-.098-.001-.198.031-.291a.67.67 0 0 1 .153-.25.68.68 0 0 1 .53-.242c4.796.092 8.371 1.371 10.619 3.801a9.3 9.3 0 0 1 1.464 2.108 8.32 8.32 0 0 1 .092.921 6.16 6.16 0 0 1 0 .795c-.02.147.006.296.075.428s.175.24.306.309c.099.041.204.064.311.069l.035-.011zm-8.244-.576a9.1 9.1 0 0 0 3.312 1.424c1.188.249 2.414.258 3.606.027-.158-1.715-.87-3.332-2.029-4.607-1.856-1.981-4.785-3.087-8.728-3.294.507 2.526 1.881 4.795 3.886 6.415l-.046.035z"/><path d="M65.085 73.956c-.107-.005-.212-.029-.311-.069-.131-.069-.238-.177-.306-.309s-.094-.281-.074-.428a6.13 6.13 0 0 0 0-.795c-.014-.309-.044-.616-.092-.921a9 9 0 0 1 .784 2.522z"/></g><g class="F"><path d="M181.984 81.11v7.464a7.22 7.22 0 0 1-1.275 4.055 7.23 7.23 0 0 1-3.337 2.637 7.15 7.15 0 0 1-5.108 0 7.22 7.22 0 0 1-3.339-2.635c-.823-1.193-1.266-2.607-1.273-4.057V81.11a7.16 7.16 0 0 1 2.101-5.066c1.345-1.343 3.169-2.098 5.071-2.098s3.726.755 5.071 2.098a7.16 7.16 0 0 1 2.1 5.066h-.011zm-1.027 7.464V81.11c0-1.628-.647-3.19-1.799-4.341a6.15 6.15 0 0 0-8.691 0 6.14 6.14 0 0 0-1.8 4.341v7.464a6.16 6.16 0 0 0 1.089 3.494 6.18 6.18 0 0 0 2.877 2.265 6.08 6.08 0 0 0 4.37 0 6.18 6.18 0 0 0 2.871-2.267c.705-1.028 1.083-2.245 1.083-3.492zm-3.69 8.418v6.91c0 .651-.259 1.275-.719 1.735a2.46 2.46 0 0 1-1.737.719c-.651 0-1.276-.259-1.736-.719a2.45 2.45 0 0 1-.719-1.735v-6.91c-.002-.082.017-.163.056-.236a.48.48 0 0 1 .163-.179.52.52 0 0 1 .484-.069 4.87 4.87 0 0 0 3.516 0 .52.52 0 0 1 .485.069.51.51 0 0 1 .154.182c.036.072.054.152.053.233zm-1.026 6.91v-6.231a6 6 0 0 1-2.859 0v6.231c0 .379.15.742.418 1.01a1.43 1.43 0 0 0 2.441-1.01zm-14.308-25.683a5.19 5.19 0 0 1 3.459 4.861c-.018 1.395-.589 2.726-1.587 3.702a5.28 5.28 0 0 1-3.74 1.504 5.48 5.48 0 0 1-3.458-1.267 5.41 5.41 0 0 1-3.747 1.486 5.18 5.18 0 0 1-3.456-1.208 5.17 5.17 0 0 1-1.791-3.19 5.16 5.16 0 0 1 .769-3.576c.683-1.059 1.73-1.831 2.944-2.174v-.726a5.33 5.33 0 0 1 1.647-3.61 5.34 5.34 0 0 1 7.371 0 5.33 5.33 0 0 1 1.647 3.61 5.03 5.03 0 0 1-.058.587zm2.479 4.861a4.2 4.2 0 0 0-.91-2.543 4.21 4.21 0 0 0-2.272-1.465.52.52 0 0 1-.313-.228c-.071-.114-.095-.251-.068-.382a3.85 3.85 0 0 0 .093-.829c-.057-1.102-.536-2.141-1.337-2.901s-1.864-1.184-2.97-1.184-2.167.424-2.969 1.184-1.28 1.799-1.337 2.901c.003.33.046.659.127.979a.54.54 0 0 1-.069.403.48.48 0 0 1-.143.146c-.058.038-.123.063-.192.072a4.16 4.16 0 0 0-2.575 1.591c-.628.835-.919 1.875-.814 2.914a4.16 4.16 0 0 0 1.378 2.694c.781.693 1.796 1.067 2.842 1.047a4.34 4.34 0 0 0 1.802-.375c.566-.252 1.073-.623 1.484-1.088.047-.055.106-.099.171-.131a.52.52 0 0 1 .209-.053.46.46 0 0 1 .38.149 4.41 4.41 0 0 0 1.44.98c.541.227 1.122.345 1.708.345.56.006 1.116-.099 1.635-.308a4.24 4.24 0 0 0 1.391-.913 4.22 4.22 0 0 0 .932-1.377c.217-.516.33-1.07.331-1.629h.046zm-2.481 6.312v.357a3.46 3.46 0 0 1-.359 1.645 3.45 3.45 0 0 1-1.094 1.281l-2.306 11.886a1.54 1.54 0 0 1-.51.846c-.259.219-.582.347-.92.364h-.08c-.351 0-.691-.12-.964-.34a1.53 1.53 0 0 1-.535-.87l-2.306-11.886a3.45 3.45 0 0 1-1.094-1.281c-.254-.51-.377-1.076-.359-1.645a.57.57 0 0 1 .05-.226c.031-.071.077-.135.135-.188a.51.51 0 0 1 .182-.132c.07-.03.145-.044.221-.04a6.21 6.21 0 0 0 4.37-1.014.51.51 0 0 1 .276-.082c.098 0 .195.028.277.082a6.06 6.06 0 0 0 3.171.875 7.04 7.04 0 0 0 1.153-.115.47.47 0 0 1 .426.104c.071.039.131.094.177.16s.076.141.089.221zm-1.05.599h-.772a7.28 7.28 0 0 1-3.459-.852 7.12 7.12 0 0 1-3.816 1.152h-.358c.036.331.148.649.329.929s.423.514.709.684a.49.49 0 0 1 .197.146.5.5 0 0 1 .103.223l2.306 12.128a.46.46 0 0 0 .156.271c.082.07.186.108.293.109s.215-.038.299-.108a.48.48 0 0 0 .163-.272l2.305-12.128a.5.5 0 0 1 .3-.369 2.2 2.2 0 0 0 .864-.791c.211-.337.327-.724.335-1.121h.046z"/></g><g class="E"><path d="M103.548 161.458a14.1 14.1 0 0 0-9.789-.703 15.47 15.47 0 0 0-4.773 2.304c-1.323-1.087-2.887-1.843-4.562-2.203a10.74 10.74 0 0 0-5.065.13c-5.5 1.508-9.8 7.36-9.8 13.314a17.8 17.8 0 0 0 1.772 7.575c1.142 2.364 2.793 4.445 4.835 6.097a22.77 22.77 0 0 0 2.998 2.096l.127.069a14.87 14.87 0 0 0 .957.519l.127.069a20.24 20.24 0 0 0 2.306.967l.219.081.922.299.3.081c.323.104.646.184 1.049.288h.127l1.153.253h.242c.311.058.634.093.968.139h.38l.888.08h.38 1.257 1.268.381l.911-.08h.069.311l1.153-.162h.104c.404-.069.796-.149 1.153-.253l.3-.069c.3-.069.6-.161.888-.242l.346-.104c.311-.092.611-.207.992-.334l.15-.057c.38-.138.761-.3 1.153-.449l.15-.07.922-.437.265-.138.923-.507.127-.069c.682-.403 1.34-.845 1.971-1.325l.185-.092.841-.691s.092-.069.092-.081c.598-.51 1.16-1.061 1.684-1.647l.08-.092c.243-.265.462-.53.704-.829l.057-.115a17.34 17.34 0 0 0 3.828-10.793 14.33 14.33 0 0 0-2.183-7.552 14.35 14.35 0 0 0-5.841-5.267zm3.228 22.851l-.081.127a20.02 20.02 0 0 1-.645.749l-.07.08a20.28 20.28 0 0 1-1.591 1.567l-.15.115c-.23.196-.472.403-.761.622l-.126.092c-.595.449-1.215.864-1.857 1.244l-.184.115c-.265.15-.53.3-.83.449l-.219.104c-.288.161-.588.288-.877.426l-.15.069-1.061.427h-.115-.092l-.865.287-.334.104-.842.23-.277.07-1.153.253h-.104l-.98.15h-.3-.081c-.277 0-.553.069-.842.08h-.369a20.66 20.66 0 0 1-2.387 0h-.357c-.288 0-.565 0-.842-.08h-.369c-.311 0-.623-.081-.922-.138h-.231l-1.153-.254h-.184l-.922-.253-.288-.081a13.13 13.13 0 0 1-.934-.322h-.15a23.29 23.29 0 0 1-2.121-.91l-.104-.058c-.323-.15-.611-.322-.911-.495l-.127-.069a19.92 19.92 0 0 1-2.836-1.993 16.59 16.59 0 0 1-4.491-5.649c-1.064-2.19-1.633-4.587-1.665-7.021 0-5.436 3.909-10.769 8.901-12.128a9.54 9.54 0 0 1 4.717-.07 9.53 9.53 0 0 1 4.172 2.201c.113.086.25.132.392.132s.279-.046.392-.132a13.54 13.54 0 0 1 4.739-2.304 12.83 12.83 0 0 1 8.912.622c2.195 1.075 4.046 2.742 5.343 4.811a13.1 13.1 0 0 1 2.001 6.903 16.11 16.11 0 0 1-3.62 9.928zm-1.211-15.192a9.88 9.88 0 0 0-3.978-3.605c-2.871-1.393-6.687-.783-9.731 1.555a.6.6 0 0 0-.127.818l.53.875c1.463 3.342 1.595 7.115.369 10.551a.17.17 0 0 0 0 .103v.116c-.054.126-.063.267-.025.399a.6.6 0 0 0 .233.326c2.145 1.563 4.714 2.439 7.367 2.511a8.08 8.08 0 0 0 3.967-.967l.265-.15.53-.346c.059-.045.109-.099.15-.161a13.31 13.31 0 0 0 1.706-4.031c0-.104 0-.23.081-.426.03-.126.053-.253.069-.38v-.403c0-.139 0-.311.069-.542v-.253-.829a9.77 9.77 0 0 0-1.475-5.161zm.242 5.909v.3.426.368c0 .127 0 .219-.081.415l-.069.299a11.65 11.65 0 0 1-1.476 3.548c-.104.081-.242.15-.38.242l-.185.104c-2.952 1.635-6.975.564-9.65-1.152 1.268-3.737 1.075-7.814-.542-11.415-.081-.138-.173-.276-.254-.426 1.517-1.071 3.32-1.665 5.177-1.704a6.32 6.32 0 0 1 2.813.622c1.436.701 2.647 1.791 3.494 3.144a8.55 8.55 0 0 1 1.303 4.515c-.116.23-.127.472-.15.714zm-7.92 10.828a16.97 16.97 0 0 1-6.918-2.868c-.118-.083-.261-.121-.405-.109s-.278.076-.379.178c-1.584 1.494-3.477 2.623-5.546 3.305h-.092a.58.58 0 0 0-.438.565c.001.13.04.254.114.36s.18.184.301.227c4.425 1.519 9.258 1.326 13.547-.541a.63.63 0 0 0 .281-.259.62.62 0 0 0 .076-.375c-.025-.128-.091-.245-.189-.333a.6.6 0 0 0-.353-.15zm-11.322 1.036a15.6 15.6 0 0 0 4.081-2.614 18.29 18.29 0 0 0 5.004 2.303 17.72 17.72 0 0 1-9.085.311zm3.008-10.827h.092c.137-.018.264-.083.358-.184a.6.6 0 0 0 .161-.369 7.57 7.57 0 0 0 0-.771v-.622c-.044-.801-.163-1.595-.358-2.373a.61.61 0 0 0-1.153 0 4.23 4.23 0 0 0-.092.53v.483a7.3 7.3 0 0 0 .473 2.915.64.64 0 0 0 .519.391zm-1.845 3.964c-3.39-3.997-3.782-8.063-1.153-12.14a.4.4 0 0 0 .162-.173.63.63 0 0 0 .08-.412c-.021-.142-.09-.273-.195-.371-.787-.767-1.758-1.318-2.82-1.603a6.44 6.44 0 0 0-3.245-.021 4.76 4.76 0 0 0-.657.219l-.23.092-.392.184-.265.138a3.12 3.12 0 0 1-.346.196l-.184.139h-.092c-.107.058-.207.127-.3.207l-.254.184-.288.254-.254.218-.265.277c-.086.075-.167.155-.242.242l-.254.276-.219.277-.231.287-.207.3a2.7 2.7 0 0 0-.196.299l-.208.311-.173.311-.184.334-.138.3a3.42 3.42 0 0 0-.161.368l-.127.3c0 .127-.092.253-.127.38l-.069.196v.115c0 .138-.069.253-.115.392v.184.092l-.092.438v.184c0 .173 0 .346-.069.518v.703a13.22 13.22 0 0 0 1.076 5.073 13.21 13.21 0 0 0 2.948 4.268 11.34 11.34 0 0 0 .53.507c.114.111.267.173.427.172h.081c3.816-.529 6.699-1.67 8.555-3.455a.63.63 0 0 0-.104-.76zm-8.486 3.018c-.114-.085-.221-.178-.323-.277a11.95 11.95 0 0 1-3.678-8.477 5.54 5.54 0 0 1 0-.599v-.449-.161l.069-.357v-.116-.138c0-.115 0-.219.081-.334v-.127-.149c0-.115.081-.219.161-.415l.069-.184a3.03 3.03 0 0 1 .161-.369l.104-.219c.058-.103.115-.207.162-.311l.15-.253.184-.288.173-.265.184-.265.207-.253.196-.242.219-.242.207-.219.277-.265.184-.161.311-.265.15-.115.254-.184h.092l.161-.104.277-.161h.104l.127-.069.346-.162.173-.08.53-.173a5.05 5.05 0 0 1 4.496 1.025c-2.629 4.239-2.306 8.673 1.038 12.843-2.034 1.412-4.387 2.298-6.849 2.58zm138.61-152.521c3.125 5.045 2.087 12.221-2.537 17.45a.47.47 0 0 1-.155.117c-.06.028-.125.043-.19.044h-.116a.41.41 0 0 1-.212-.118.42.42 0 0 1-.111-.216c-.222-.792-.516-1.563-.876-2.304-.761-1.636-1.464-3.19-.565-3.997a2.82 2.82 0 0 1 .358-.253 4.61 4.61 0 0 1 1.314-.265c.819-.014 1.618-.258 2.306-.703.542-.484.542-1.152 0-2.108a3.76 3.76 0 0 0-1.464-1.152 5.27 5.27 0 0 1-.669-.392.47.47 0 0 1-.172-.284c-.021-.112-.001-.228.057-.327.19-.245.403-.472.634-.679l.346-.311c.571-.5.984-1.154 1.189-1.885a3.9 3.9 0 0 0-.036-2.227.42.42 0 0 1-.034-.167.42.42 0 0 1 .034-.167c.054.006.109 0 .161-.018a.36.36 0 0 0 .138-.086.44.44 0 0 0 .127-.196.52.52 0 0 1 .27.056c.083.043.153.107.203.186zm.623 9.214a12.65 12.65 0 0 0-.439-6.703 4.48 4.48 0 0 1-.622 1.647 5.5 5.5 0 0 1-.946 1.048l-.345.3-.162.138h.104a4.61 4.61 0 0 1 1.833 1.497 3.1 3.1 0 0 1 .53 2.05c-.078.492-.322.943-.691 1.279a5.09 5.09 0 0 1-2.86.921c-.337.038-.672.095-1.003.173l-.173.115c-.403.368.312 1.923.784 2.96.231.518.485 1.048.669 1.578 1.642-2.045 2.765-4.455 3.274-7.026l.047.023z"/><path d="M217.426 29.888a.42.42 0 0 1 .056.207.42.42 0 0 1-.056.207.52.52 0 0 0-.219.058.39.39 0 0 0-.13.099c-.035.042-.062.09-.078.143a.52.52 0 0 1-.311-.138 1.66 1.66 0 0 0-.646-.392c-.234-.078-.479-.117-.726-.115-.783.068-1.542.304-2.225.691a4.95 4.95 0 0 1-1.937.634.9.9 0 0 1-.3 0c-1.153-.219-1.43-1.463-1.718-2.776-.088-.498-.219-.988-.392-1.463a3.76 3.76 0 0 0-.703-1.244.46.46 0 0 1-.092-.518.47.47 0 0 1 .449-.265 12.17 12.17 0 0 1 8.198 3.939c.323.253.576.622.83.933zm-4.612-.069c.851-.465 1.798-.729 2.767-.772-1.684-1.644-3.849-2.709-6.18-3.041.127.23.219.472.3.657a11.83 11.83 0 0 1 .438 1.59c.3 1.405.508 2.004.992 2.096a3.6 3.6 0 0 0 1.625-.53h.058z"/><path d="M217.274 30.362a.52.52 0 0 1 .219-.058c-.024.075-.068.143-.127.196a.36.36 0 0 1-.138.086.37.37 0 0 1-.161.018.38.38 0 0 1 .078-.143.39.39 0 0 1 .129-.099zm-3.308 2.891a.61.61 0 0 1 .132.657c-.031.073-.076.139-.132.195l-.15.081c-.117.109-.272.17-.432.17a.64.64 0 0 1-.433-.17.61.61 0 0 1 .058-.852l.069-.069a.6.6 0 0 1 .685-.154.6.6 0 0 1 .203.142zm-2.202 17.497c.023.089.016.184-.019.269s-.098.156-.177.203c-2.723 1.852-5.929 2.869-9.224 2.925a12.69 12.69 0 0 1-7.932-2.626c-.055-.035-.095-.088-.115-.15h.115a.49.49 0 0 0 .335-.138c.06-.07.099-.158.109-.25a.46.46 0 0 0-.052-.268c.046-.011.093-.011.139 0 .121.08.253.142.391.184.888.253 1.834-.449 2.549-1.094l.484-.449a7.62 7.62 0 0 0 .484-.541c.237-.288.495-.557.773-.806a1.72 1.72 0 0 1 .611-.392h.207.081c.118-.004.234.037.323.115.221.293.375.631.449.991l.092.311c0 .127.081.265.127.415a4.3 4.3 0 0 0 1.003 2.096c.957.841 1.58.53 1.868.265a2.49 2.49 0 0 0 .669-1.578c0-.3 0-.657.069-1.037a8.64 8.64 0 0 1 .265-2.165.49.49 0 0 1 .104-.166.51.51 0 0 1 .161-.111c.123-.046.258-.046.381 0a2.81 2.81 0 0 1 .53.403l.369.334c.65.628 1.344 1.209 2.076 1.739a5.85 5.85 0 0 0 2.444 1.152c.08.028.151.077.206.142a.47.47 0 0 1 .105.227zm-1.568.253c-1.473-.671-2.807-1.612-3.931-2.776l-.208-.196c0 .438-.069.933-.081 1.221a9.86 9.86 0 0 1-.08 1.152c-.049.81-.389 1.575-.957 2.154a1.98 1.98 0 0 1-1.153.507c-.365.018-.729-.042-1.069-.175s-.647-.337-.903-.597a4.99 4.99 0 0 1-1.245-2.453c0-.207-.104-.334-.138-.461l-.081-.242c0-.115-.092-.276-.127-.415l-.092.069c-.208.184-.427.449-.646.691a6.88 6.88 0 0 1-.576.645l-.508.472a5.87 5.87 0 0 1-1.994 1.267 12.69 12.69 0 0 0 7.39 1.325 16.15 16.15 0 0 0 6.399-2.188zm1.315-5.865a.63.63 0 0 1 .047.385.62.62 0 0 1-.186.341c-.06.061-.135.105-.219.127-.173.092-.323.265-.519.288a.62.62 0 0 1-.668-.322.6.6 0 0 1 .15-.737c.054-.06.127-.101.207-.115.173-.104.311-.265.519-.288.131-.025.267-.007.388.051s.219.153.281.272zm-.531-7.177a.61.61 0 0 1 0 .852.61.61 0 0 1-.641.496.61.61 0 0 1-.569-.576 1.14 1.14 0 0 1 .161-.587 2.41 2.41 0 0 1 .277-.323.61.61 0 0 1 .772.138zm-.9-4.35a.61.61 0 0 1 .144.207.62.62 0 0 1 .049.247c-.002.085-.02.169-.056.246a.64.64 0 0 1-.15.203.61.61 0 0 1-.47.15c-.085-.009-.166-.036-.24-.078s-.138-.1-.188-.168c-.246-.233-.394-.55-.415-.887a.61.61 0 0 1 .646-.564c.133.006.261.057.361.145s.169.207.192.339l.127.161zm-2.294 1.818c1.534 1.705 1.153 4.607-.934 6.427a5.42 5.42 0 0 1-3.458 1.44h-.519a3.7 3.7 0 0 1-1.539-.406c-.477-.245-.894-.592-1.224-1.015s-.562-.913-.682-1.436a3.69 3.69 0 0 1-.014-1.589c.204-1.251.846-2.389 1.81-3.213a5.49 5.49 0 0 1 3.447-1.451 3.85 3.85 0 0 1 1.699.266 3.84 3.84 0 0 1 1.414.978zm0 2.511a2.82 2.82 0 0 0-.703-1.912 2.95 2.95 0 0 0-1.012-.705 2.93 2.93 0 0 0-1.213-.228h-.173a4.62 4.62 0 0 0-2.825 1.152c-.794.692-1.327 1.635-1.51 2.672a2.93 2.93 0 0 0 .044 1.314 2.94 2.94 0 0 0 .613 1.163c.303.323.675.575 1.088.736s.856.229 1.299.197a4.61 4.61 0 0 0 2.824-1.152 4.45 4.45 0 0 0 1.138-1.45c.274-.557.428-1.166.453-1.786h-.023zm.081 5.795a.61.61 0 0 1 .133.198c.03.074.046.154.046.234s-.016.16-.046.234a.61.61 0 0 1-.133.198.62.62 0 0 1-.432.174.63.63 0 0 1-.433-.174l-.265-.299c-.112-.116-.174-.271-.175-.432a.62.62 0 0 1 .175-.432.61.61 0 0 1 .196-.132.59.59 0 0 1 .231-.046.6.6 0 0 1 .426.178l.277.3zm-1.21-18.478a.45.45 0 0 1-.127.518 6.56 6.56 0 0 0-.922 1.152l-.404.541a3.07 3.07 0 0 1-.45.484c-.135.166-.318.286-.525.344a1.04 1.04 0 0 1-.628-.022 1.49 1.49 0 0 1-.611-.449 1.49 1.49 0 0 0-1.66-.472 2.31 2.31 0 0 0-1.153.518 3.07 3.07 0 0 0-.818 1.578c0 .127 0 .276-.093.426a3.77 3.77 0 0 1-.253.944.51.51 0 0 1-.289.23h-.115a.48.48 0 0 1-.242-.069l-.219-.138a2.3 2.3 0 0 0-.726-.357 3.2 3.2 0 0 0-1.442 0 .48.48 0 0 1-.229-.01.47.47 0 0 1-.197-.117.72.72 0 0 1-.069-.104c-.051-.087-.07-.189-.053-.288s.068-.189.145-.254l.173-.161a17.51 17.51 0 0 1 10.376-4.538c.103-.027.212-.018.309.027s.175.12.222.215zm-1.787 1.152l.253-.357a15.03 15.03 0 0 0-2.306.53 3.06 3.06 0 0 1 .842.622c.075.103.174.186.288.242a1.7 1.7 0 0 0 .219-.161c.104-.092.208-.219.335-.357l.369-.518zm-6.353 2.81a6.84 6.84 0 0 1 .311-.795 15.7 15.7 0 0 0-1.545 1.152h.392a2.71 2.71 0 0 1 .692.288v-.196c0-.069.115-.369.15-.507v.058zm7.434 1.291a.62.62 0 0 1 0 .864.68.68 0 0 1-.502.22c-.094 0-.187-.02-.274-.058a.67.67 0 0 1-.227-.163.58.58 0 0 1-.132-.195.59.59 0 0 1-.046-.231.59.59 0 0 1 .046-.231c.03-.073.075-.139.132-.195.065-.062.144-.108.23-.134a.58.58 0 0 1 .266-.016.66.66 0 0 1 .507.138zm-2.765 14.974a.6.6 0 0 1 .132.195.59.59 0 0 1 .046.231.59.59 0 0 1-.178.426l-.219.207a.62.62 0 0 1-.442.156.61.61 0 0 1-.579-.643.61.61 0 0 1 .202-.422l.231-.196a.68.68 0 0 1 .53-.15c.108.04.203.108.277.196zm-3.206-12.691c.162.015.313.091.42.213s.163.281.157.443a.81.81 0 0 1-.076.343.82.82 0 0 1-.212.279.59.59 0 0 1-.404.15.65.65 0 0 1-.45-.196.53.53 0 0 1-.126-.253.61.61 0 0 1 .115-.587.62.62 0 0 1 .228-.284c.103-.07.224-.107.348-.108zm-1.224 8.36a1 1 0 0 1 .217.334.99.99 0 0 1 .071.392c-.011.163-.087.315-.21.422a.62.62 0 0 1-.447.153.6.6 0 0 1-.565-.518.61.61 0 0 1-.128-.428c.012-.154.083-.297.197-.401.06-.054.13-.095.206-.122a.61.61 0 0 1 .236-.034c.081.004.159.024.232.059a.6.6 0 0 1 .191.143zm-1.314 4.158a.58.58 0 0 1 .135.658.58.58 0 0 1-.135.194c-.097.094-.223.151-.358.161a.62.62 0 0 1-.714-.15.58.58 0 0 1-.132-.195.59.59 0 0 1 0-.462.58.58 0 0 1 .132-.195.98.98 0 0 1 .426-.242.75.75 0 0 1 .351.037c.112.04.213.106.295.193zm-1.509-7.669a.62.62 0 0 1 .423.203.63.63 0 0 1 .121.206.61.61 0 0 1 .033.236.64.64 0 0 1-.205.411c-.117.107-.271.165-.429.165h-.15a.61.61 0 0 1-.422-.203c-.108-.121-.164-.28-.155-.442s.083-.313.204-.422a.61.61 0 0 1 .442-.154h.138z"/><path d="M194.678 34.267c.138.17.238.369.291.582s.061.435.02.651a2.75 2.75 0 0 1-.888 1.152l-.611.518-.565.438c-.312.222-.613.46-.899.714a2.07 2.07 0 0 0-.652.726c-.157.29-.241.614-.248.944a1.96 1.96 0 0 0 .407.832c.201.241.457.429.746.55a3.57 3.57 0 0 0 1.292.299c.34-.019.68.057.98.219.553.415.357.933 0 1.808-.467.828-.762 1.74-.869 2.684a7.1 7.1 0 0 0 .246 2.81 3.46 3.46 0 0 0 .75 1.428c.04.027.069.068.08.115a.44.44 0 0 0-.27.008c-.087.031-.162.089-.214.165a.41.41 0 0 0-.07.23.41.41 0 0 0 .07.23c-.062-.007-.119-.036-.161-.081-.415-.352-.801-.737-1.153-1.152-4.232-4.734-4.024-12.163.507-18.072.045-.054.101-.098.165-.128a.47.47 0 0 1 .204-.045h.161c.091.039.167.106.216.191s.071.184.061.282c-.029.26-.029.523 0 .783.062.395.199.774.404 1.117zm-.565.991c0-.069 0-.138-.22-.553-.212-.332-.376-.692-.484-1.071-.797 1.214-1.433 2.527-1.891 3.905.277-.242.577-.461.842-.657l.484-.369c.242-.207.45-.368.646-.553.553-.484.623-.691.623-.703zm-.415 8.063c.101-.233.19-.471.265-.714-.15-.013-.3-.013-.45 0-.589-.018-1.167-.163-1.695-.426a4.13 4.13 0 0 1-1.003-.772c-.159 2.587.56 5.151 2.041 7.279a8.21 8.21 0 0 1 .842-5.356v-.011z"/><path d="M194.745 50.725a.46.46 0 0 1-.058.518.48.48 0 0 1-.334.138h-.139a.42.42 0 0 1 0-.461.44.44 0 0 1 .531-.196zm43.514 139.08c.05.212.077.428.081.645a2.29 2.29 0 0 1-.231 1.002c-.691 2.304-8.278 3.455-15.403 3.455s-14.7-1.151-15.415-3.455c-.23-.498-.275-1.061-.127-1.589l3.459-14.294c.018-.053.047-.102.085-.144s.083-.075.134-.098a.36.36 0 0 1 .161-.039c.056 0 .112.014.162.039a1.37 1.37 0 0 0 .738.219c.495-.041.969-.217 1.372-.507.208-.135.428-.251.657-.346a.37.37 0 0 1 .438.208c.164.527.257 1.073.277 1.624.022.48.103.956.242 1.417a1.48 1.48 0 0 1 .069.207c.208.587.496 1.394 1.349 1.566a.98.98 0 0 0 .265 0 2.31 2.31 0 0 0 1.084-.442 2.3 2.3 0 0 0 .726-.917 5.39 5.39 0 0 0 .289-.829c.242-.76.484-1.555 1.072-1.555h.092c.461 0 .623.668.761 1.877.025.294.067.587.127.876l.081.288c.403 1.658 1.037 4.181 2.674 4.826 1.222.483 2.306-.115 2.906-1.647.286-.773.365-1.607.23-2.419a6.52 6.52 0 0 1 0-1.152 4.61 4.61 0 0 1 .646-1.808c.035-.053.083-.096.14-.125a.35.35 0 0 1 .183-.036.35.35 0 0 1 .173.063c.05.037.09.086.115.144l.173.426v.069c.415 1.152.83 2.119 1.672 2.119.238-.011.47-.084.672-.211a1.38 1.38 0 0 0 .481-.514 3.21 3.21 0 0 0 .392-1.302c0-.184.08-.449.115-.656.015-.058.044-.111.084-.155a.38.38 0 0 1 .147-.099.38.38 0 0 1 .174-.01c.058.01.113.033.16.068.214.191.404.407.565.645.346.461.784 1.048 1.476 1.048.346-.011.678-.137.945-.357.047-.037.102-.061.16-.071s.118-.005.175.013.108.052.148.097a.35.35 0 0 1 .082.157l2.767 11.679zm-.807 1.382a1.71 1.71 0 0 0 .115-1.221l-2.721-11.218a2.12 2.12 0 0 1-.933.23 2.54 2.54 0 0 1-1.186-.409 2.55 2.55 0 0 1-.844-.927c-.056.529-.225 1.04-.495 1.497-.175.297-.42.545-.713.724s-.627.282-.971.301c-1.268 0-1.844-1.278-2.225-2.303a3.91 3.91 0 0 0-.196.76 6.7 6.7 0 0 0 0 1.06 5.39 5.39 0 0 1-.288 2.741c-.773 1.866-1.926 2.246-2.756 2.246-.367-.003-.73-.073-1.072-.207-1.972-.772-2.652-3.513-3.101-5.31l-.07-.288a5.9 5.9 0 0 1-.149-.945c-.035-.389-.105-.774-.208-1.151-.104.219-.265.725-.334.944-.082.317-.194.626-.335.922a2.9 2.9 0 0 1-2.444 1.773 1.6 1.6 0 0 1-.403 0 2.59 2.59 0 0 1-1.857-1.969c-.023-.078-.049-.155-.08-.231a6.22 6.22 0 0 1-.289-1.612c0-.242-.069-.703-.126-1.048-.053.025-.104.056-.15.092-.522.361-1.131.576-1.764.622-.232.001-.462-.038-.681-.115l-3.378 13.821c-.106.384-.069.793.104 1.152.473 1.52 6.491 3.075 14.758 3.075s14.343-1.543 14.792-3.006zm-1.731-2.571v.069c-.028.263-.152.507-.349.685a1.07 1.07 0 0 1-.718.275c-.265 0-.521-.098-.718-.275a1.07 1.07 0 0 1-.348-.685v-.069c-.016-.15 0-.3.047-.443a1.05 1.05 0 0 1 .223-.385 1.06 1.06 0 0 1 .36-.262c.138-.061.286-.092.436-.092s.299.031.436.092.26.15.361.262a1.08 1.08 0 0 1 .223.385 1.09 1.09 0 0 1 .047.443zm-.715.069v-.069c0-.095-.038-.186-.105-.253s-.158-.104-.253-.104-.185.037-.252.104-.105.158-.105.253v.069a.37.37 0 0 0 .357.357c.048.001.096-.007.141-.024s.085-.043.12-.077a.36.36 0 0 0 .08-.117.35.35 0 0 0 .028-.139h-.011zm-14.479-13.983c.726.484.864 1.647.957 2.465a5.11 5.11 0 0 0 .103.749l.081.299c.346 1.394.934 3.744 2.133 4.204.473.185 1.153.277 1.764-1.151.218-.641.274-1.326.161-1.993-.035-.433-.035-.868 0-1.302 0-.622.611-2.683 1.626-2.937a1.1 1.1 0 0 1 .334 0c.192.039.372.12.527.238s.283.269.373.442c.129.248.237.506.323.772.149.403.541 1.485.818 1.52 0 0 .185 0 .381-.346.13-.295.208-.611.23-.933.127-.725.242-1.485.807-1.727.197-.059.404-.068.605-.028a1.26 1.26 0 0 1 .548.258c.33.25.614.554.842.899.265.357.507.679.738.691a.82.82 0 0 0 .553-.288l-.576-2.304a2.77 2.77 0 0 0-1.038-1.532c-.979 1.025-2.245 1.732-3.632 2.027-.33.065-.666.092-1.003.081h-.507a5.34 5.34 0 0 1-3.39-1.474 5.41 5.41 0 0 1-3.758 1.37zm14.654 1.855a.33.33 0 0 1-.001.174c-.017.057-.048.108-.092.148a1.62 1.62 0 0 1-.551.456 1.64 1.64 0 0 1-.694.178c-.553 0-.911-.519-1.256-.979-.181-.278-.407-.524-.669-.726-.358-.23-.484-.196-.519-.184s-.311.76-.392 1.152a3.13 3.13 0 0 1-.346 1.232c-.334.472-.692.68-1.061.633-.703-.092-1.153-1.151-1.395-1.992a6 6 0 0 0-.253-.622c-.093-.15-.277-.392-.45-.357-.473.127-1.061 1.578-1.153 2.303a10.06 10.06 0 0 0 0 1.152c.13.774.055 1.568-.219 2.304-.542 1.313-1.257 1.704-1.925 1.704-.258-.001-.512-.052-.75-.149-1.545-.611-2.179-3.168-2.559-4.7l-.07-.299c-.069-.276-.115-.557-.138-.841-.115-1.071-.265-1.969-.911-2.039s-1.038.657-1.36 1.682a6.39 6.39 0 0 1-.277.795c-.288.599-1.015 1.417-1.868 1.244s-1.014-.876-1.153-1.394l-.092-.265a5.45 5.45 0 0 1-.231-1.37c-.069-.772-.184-1.935-.611-2.016s-.645.173-1.037.392c-.611.368-1.465.863-2.237 0a.34.34 0 0 1-.085-.157c-.014-.058-.013-.12.004-.177a3.46 3.46 0 0 1 1.134-1.762c.552-.456 1.231-.73 1.945-.784h2.213a.34.34 0 0 1 .185.051.33.33 0 0 1 .127.145 4.55 4.55 0 0 0 1.707 1.758c.72.418 1.541.631 2.374.615a4.69 4.69 0 0 0 1.93-.393 4.67 4.67 0 0 0 1.598-1.151c.038-.04.085-.072.137-.092a.36.36 0 0 1 .163-.023.34.34 0 0 1 .152.049c.046.028.084.067.113.112 0 0 .934 1.417 3.597 1.532a4.88 4.88 0 0 0 .853-.081c1.253-.278 2.393-.924 3.275-1.854l.15-.173c.058-.058.133-.095.215-.106a.37.37 0 0 1 .234.049c.396.229.743.534 1.02.898a3.45 3.45 0 0 1 .594 1.221l.635 2.707zm-17.364.126c.231-.76.565-1.831 1.441-2.119-.693-.152-1.348-.446-1.923-.862s-1.059-.946-1.42-1.557h-1.972c-.519.045-1.013.24-1.423.561a2.68 2.68 0 0 0-.883 1.248c.289.207.6.08 1.153-.288a2.75 2.75 0 0 1 1.303-.496h.219c.946.173 1.084 1.486 1.153 2.65a5.98 5.98 0 0 0 .185 1.151 2.15 2.15 0 0 1 .103.288c.185.519.323.853.669.933s.865-.38 1.084-.852c.121-.198.225-.406.311-.622v-.035zm14.722 6.59v.08c-.027.264-.151.508-.348.685s-.453.276-.718.276-.521-.099-.718-.276a1.07 1.07 0 0 1-.349-.685v-.08a1.07 1.07 0 0 1 .349-.685c.197-.177.453-.276.718-.276s.521.099.718.276.321.421.348.685zm-.715.08v-.08c.01-.052.008-.105-.006-.155s-.037-.098-.071-.138a.36.36 0 0 0-.123-.095c-.047-.022-.099-.033-.151-.033a.36.36 0 0 0-.152.033.38.38 0 0 0-.123.095c-.033.04-.058.087-.071.138a.37.37 0 0 0-.006.155v.08c-.009.052-.007.105.006.155s.038.098.071.138a.38.38 0 0 0 .123.095.36.36 0 0 0 .152.033c.052 0 .104-.011.151-.033a.36.36 0 0 0 .123-.095c.034-.04.058-.087.071-.138s.016-.103.006-.155z"/><path d="M232.261 171.25a.32.32 0 0 1-.081.288c-.85.912-1.961 1.54-3.182 1.797a4.32 4.32 0 0 1-.842.08 6.52 6.52 0 0 1-2.755-.668.39.39 0 0 1-.119-.11.38.38 0 0 1-.062-.148c-.01-.054-.008-.109.005-.162a.39.39 0 0 1 .072-.144c-.038.007-.077.007-.115 0-.043.023-.09.035-.139.035a.29.29 0 0 1-.138-.035c-.045-.017-.085-.043-.119-.077s-.06-.074-.077-.119a8.21 8.21 0 0 1-.23-1.152 4.34 4.34 0 0 1-1.647 1.844c-.717.442-1.547.666-2.389.644a4.08 4.08 0 0 1-4.289-3.824 3.31 3.31 0 0 1 2.756-3.455c.314-.075.642-.075.957 0 .054-1.082.296-2.146.715-3.145a.16.16 0 0 1 0-.069 14.16 14.16 0 0 1 2.305-3.455.8.8 0 0 1-.126-.265c-.02-.107-.02-.216 0-.323v-.184c-.01-.065-.01-.131 0-.196-.049-.106-.084-.218-.104-.334-.022-.11-.022-.223 0-.334.025-.084.075-.158.142-.214s.151-.089.238-.097a1.58 1.58 0 0 1 .554-.161h.08a.98.98 0 0 1 .404 0 .44.44 0 0 1 .369.484s.081.103.092.242a.4.4 0 0 0 0 .138 1.04 1.04 0 0 1 0 .61v.093.092a1.43 1.43 0 0 1 .008.6 1.44 1.44 0 0 1-.238.551c-.148.138-.341.215-.542.219a16.05 16.05 0 0 0-2.03 3.099c-.354.87-.568 1.792-.634 2.729a1.72 1.72 0 0 1 .784-.057 3.24 3.24 0 0 1 1.675.716c.479.394.834.917 1.023 1.507.088-.36.208-.71.358-1.048a7.26 7.26 0 0 1 3.528-3.225.41.41 0 0 1 .288 0c.091.045.161.123.196.218.478 1.543.425 3.202-.15 4.711a5.75 5.75 0 0 1-1.245 1.705c.307-.13.628-.223.957-.277a6.16 6.16 0 0 1 3.609.599c.04.035.073.077.097.124a.39.39 0 0 1 .041.153zm-.98.173a5.16 5.16 0 0 0-2.686-.323c-.896.181-1.726.603-2.399 1.221a4.62 4.62 0 0 0 2.68.328c.906-.16 1.744-.587 2.405-1.226zm-3.159-2.753c.487-1.232.575-2.585.254-3.87-1.234.52-2.23 1.481-2.792 2.695a5.37 5.37 0 0 0-.252 3.87c1.203-.588 2.192-1.539 2.824-2.718l-.034.023zm-4.047.91v-.058c.055-.674-.155-1.344-.585-1.866a2.61 2.61 0 0 0-1.721-.933c-.161-.049-.334-.049-.496 0a2.67 2.67 0 0 1-.507.127c-.1.005-.199-.028-.277-.092-.031.028-.067.05-.107.064a.3.3 0 0 1-.123.016h-.196a3.48 3.48 0 0 0-.6-.092h-.277a2.61 2.61 0 0 0-1.661.949c-.413.516-.614 1.169-.564 1.827.121.865.55 1.656 1.209 2.229s1.503.889 2.377.889 1.718-.316 2.377-.889 1.088-1.364 1.209-2.229l-.058.058zm-.242-11.034c.016-.065.016-.132 0-.196a1.04 1.04 0 0 1-.081-.38h-.081l-.242.057a.73.73 0 0 1 .104.369v.092a.44.44 0 0 1 0 .184c.025.106.025.217 0 .323a.46.46 0 0 1 .104.196.62.62 0 0 1 0 .149c.017.038.025.08.025.121s-.008.083-.025.121h.127c.011 0 0-.461 0-.587-.018-.092-.018-.185 0-.277l.069-.172zm3.935 31.524a1.07 1.07 0 0 1 .685.349c.178.196.276.452.276.717a1.07 1.07 0 0 1-.276.717c-.177.197-.421.321-.685.348h-.115a1.07 1.07 0 0 1-.686-.348c-.177-.197-.276-.452-.276-.717a1.07 1.07 0 0 1 .276-.717c.178-.197.422-.321.686-.349h.115zm.346 1.071c0-.092-.036-.181-.101-.248s-.152-.106-.245-.109h-.115a.36.36 0 0 0-.211.123c-.054.064-.083.145-.083.229s.029.164.083.229a.36.36 0 0 0 .211.122h.08c.048.003.096-.003.141-.019s.087-.041.123-.073.064-.071.084-.115.031-.091.033-.139zm-.128-5.128c.001.264-.089.52-.254.726-.144.157-.332.266-.539.313a1.06 1.06 0 0 1-.622-.048 1.05 1.05 0 0 1-.661-.991c.002-.259.091-.511.254-.714a1.03 1.03 0 0 1 .355-.257 1.02 1.02 0 0 1 .429-.088c.14-.005.279.019.408.071a.99.99 0 0 1 .345.229 1 1 0 0 1 .285.759zm-.704 0a.33.33 0 0 0-.067-.178c-.039-.052-.093-.091-.154-.113s-.128-.025-.191-.01a.33.33 0 0 0-.165.096c-.045.048-.075.107-.086.171s-.003.13.023.19.068.111.123.146a.33.33 0 0 0 .183.055c.046.002.093-.006.136-.023a.34.34 0 0 0 .113-.078c.032-.034.056-.075.071-.119s.019-.09.014-.137zm-5.905 2.27c.15-.015.301.001.444.047a1.05 1.05 0 0 1 .385.223 1.06 1.06 0 0 1 .262.36 1.07 1.07 0 0 1 0 .871 1.06 1.06 0 0 1-.262.36c-.111.101-.243.177-.385.223a1.09 1.09 0 0 1-.444.047h-.069a1.09 1.09 0 0 1-.443-.047 1.06 1.06 0 0 1-.386-.223 1.07 1.07 0 0 1 0-1.591 1.06 1.06 0 0 1 .386-.223 1.09 1.09 0 0 1 .443-.047h.069zm.358 1.071c0-.094-.038-.185-.105-.252s-.158-.105-.253-.105h-.069c-.095 0-.185.038-.252.105s-.105.158-.105.252a.37.37 0 0 0 .108.25c.066.066.155.104.249.107h.069a.37.37 0 0 0 .25-.107c.066-.067.105-.156.108-.25zm-3.989-4.998a1.07 1.07 0 0 1 .605.164c.18.113.323.278.41.473s.112.411.075.621-.137.404-.285.558-.34.258-.548.303a1.07 1.07 0 0 1-.625-.055c-.198-.08-.367-.217-.487-.394s-.183-.386-.183-.599a1.02 1.02 0 0 1 .631-.992 1.01 1.01 0 0 1 .407-.079zm.323 1.071c.004-.045 0-.091-.014-.134a.32.32 0 0 0-.068-.117c-.03-.033-.068-.06-.109-.078a.32.32 0 0 0-.132-.028c-.095 0-.186.038-.253.105s-.105.157-.105.252.038.186.105.253.158.104.253.104c.045 0 .09-.009.132-.027s.079-.045.109-.079a.32.32 0 0 0 .068-.117c.014-.043.018-.089.014-.134zm-3.78-3.342v.081a1.07 1.07 0 0 1-.348.685c-.197.177-.453.275-.718.275s-.521-.098-.718-.275-.321-.422-.349-.685v-.081c.028-.263.152-.507.349-.685a1.07 1.07 0 0 1 .718-.275c.265 0 .521.098.718.275a1.07 1.07 0 0 1 .348.685zm-.715.081v-.081a.34.34 0 0 0-.006-.155c-.013-.05-.037-.097-.071-.137s-.075-.073-.123-.095a.36.36 0 0 0-.151-.034c-.052 0-.104.012-.152.034s-.089.054-.123.095a.36.36 0 0 0-.071.137.37.37 0 0 0-.006.155v.081a.37.37 0 0 0 .077.293c.034.04.076.072.123.094a.36.36 0 0 0 .152.034c.053 0 .104-.012.151-.034s.09-.054.123-.094.058-.088.071-.138a.34.34 0 0 0 .006-.155zm.045 6.082v.07c-.027.263-.151.507-.348.684a1.07 1.07 0 0 1-1.785-.684v-.07c-.015-.149.001-.3.047-.442a1.09 1.09 0 0 1 .223-.386c.101-.111.224-.2.361-.261s.286-.093.436-.093.298.032.436.093a1.07 1.07 0 0 1 .36.261 1.06 1.06 0 0 1 .223.386 1.05 1.05 0 0 1 .047.442zm-.715.07v-.07c.01-.051.008-.104-.006-.154s-.037-.098-.071-.138-.075-.073-.123-.095a.36.36 0 0 0-.151-.033.36.36 0 0 0-.152.033c-.047.022-.089.055-.123.095s-.058.087-.071.138-.015.103-.006.154v.07a.37.37 0 0 0 .006.155.36.36 0 0 0 .071.137c.034.04.076.073.123.095a.36.36 0 0 0 .152.034c.053 0 .104-.012.151-.034s.09-.055.123-.095a.36.36 0 0 0 .071-.137.34.34 0 0 0 .006-.155zM145.64 302.966c.003.771-.055 1.541-.173 2.303-.945 6.254-6.018 12.117-10.284 12.117a4.44 4.44 0 0 1-.565 0 7.61 7.61 0 0 1-1.58-.334 3.64 3.64 0 0 0-1.245-.207l-.104-.507v.495c-.653.027-1.301.139-1.925.334-.436.146-.89.231-1.349.254-4.185 0-9.685-6.22-10.492-11.887-.588-4.043.104-7.417 1.937-9.491.811-.867 1.808-1.54 2.916-1.968a7.9 7.9 0 0 1 3.483-.508c.999.014 1.989.177 2.94.484.834.27 1.706.406 2.583.403a8.45 8.45 0 0 0 2.732-.576c1.461-.611 3.084-.716 4.612-.299 4.865 1.105 6.514 5.378 6.514 9.387zm-1.153 2.119c.669-4.296-.45-9.364-5.569-10.62a6.79 6.79 0 0 0-1.66-.23 6.93 6.93 0 0 0-2.41.518 9.65 9.65 0 0 1-3.032.622 8.94 8.94 0 0 1-2.871-.437 8.98 8.98 0 0 0-2.686-.45c-1.039-.089-2.085.057-3.059.428a6.92 6.92 0 0 0-2.568 1.715c-1.637 1.854-2.248 4.929-1.706 8.661.738 5.16 5.765 11.046 9.5 11.046a4.63 4.63 0 0 0 1.073-.219c.714-.221 1.455-.345 2.202-.368h.115c.522-.006 1.041.08 1.534.253.457.147.928.247 1.406.299 3.448.45 8.728-4.756 9.72-11.218h.011zm-2.928-25.787c.611 1.694 1.833 5.978-.358 9.353-1.718 2.638-5.073 4.146-10.007 4.469-.101.001-.2-.028-.284-.084a.51.51 0 0 1-.189-.227c-.081-.23-2.029-5.379 0-8.984a6.44 6.44 0 0 1 1.981-2.12c.813-.547 1.74-.901 2.711-1.036 4.105-.783 5.062-1.371 5.292-1.589.064-.057.14-.098.222-.12s.168-.025.251-.007c.089.018.171.06.237.121a.51.51 0 0 1 .144.224zm-1.211 8.8c1.729-2.661 1.038-6.047.461-7.844a21.18 21.18 0 0 1-5.188 1.429 5.58 5.58 0 0 0-2.336.847 5.57 5.57 0 0 0-1.734 1.779c-1.51 2.706-.427 6.6 0 7.786 4.347-.369 7.321-1.705 8.797-3.997zm-14.689 8.419a4.68 4.68 0 0 1-.853 3.236 4.77 4.77 0 0 1-2.582 2.142 2.14 2.14 0 0 1-.392 0c-.269.005-.532-.067-.761-.207-1.003-.633-.911-2.453.207-4.215s2.744-2.604 3.736-1.97c.172.115.318.265.429.439a1.49 1.49 0 0 1 .216.575zm-.956.529c.013-.103.013-.207 0-.311a.49.49 0 0 0-.054-.198.48.48 0 0 0-.131-.159.62.62 0 0 0-.219 0c-.457.118-.884.333-1.252.629s-.668.666-.881 1.087c-.876 1.371-.888 2.58-.519 2.822.064.028.133.042.202.042s.138-.014.202-.042a3.62 3.62 0 0 0 1.937-1.704 4.3 4.3 0 0 0 .715-2.166zm-43.824-64.753a.5.5 0 0 1 .194.039.48.48 0 0 1 .164.11.5.5 0 0 1 .11.164c.026.061.039.127.039.194a24.51 24.51 0 0 1-7.373 16.995 24.56 24.56 0 0 1-34.336 0 24.51 24.51 0 0 1-7.373-16.995.49.49 0 0 1 .303-.468.49.49 0 0 1 .192-.039h1.96a.49.49 0 0 1 .462.314.49.49 0 0 1 .034.193 21.54 21.54 0 0 0 6.318 15.238c4.046 4.041 9.532 6.312 15.254 6.312a21.58 21.58 0 0 0 15.253-6.312A21.54 21.54 0 0 0 78.4 232.8a.49.49 0 0 1 .04-.197.52.52 0 0 1 .113-.166.51.51 0 0 1 .169-.109c.063-.025.13-.036.198-.035h1.96zm-.507 1.002h-.957a22.54 22.54 0 0 1-6.788 15.616c-4.218 4.12-9.883 6.427-15.782 6.427s-11.563-2.307-15.781-6.427a22.54 22.54 0 0 1-6.788-15.616h-.957a23.5 23.5 0 0 0 7.072 16.286c4.397 4.296 10.304 6.702 16.454 6.702s12.057-2.406 16.454-6.702a23.5 23.5 0 0 0 7.072-16.286zm-4.243-1.002a.51.51 0 0 1 .359.148c.096.095.149.224.149.359-.006 5.24-2.093 10.264-5.802 13.969s-8.738 5.789-13.983 5.796c-5.245-.007-10.274-2.091-13.983-5.796s-5.795-8.729-5.801-13.969a.51.51 0 0 1 .496-.507H76.13zm-.507 1.002H38.07c.121 4.894 2.153 9.547 5.661 12.966a18.79 18.79 0 0 0 13.115 5.332c4.901 0 9.607-1.914 13.115-5.332s5.539-8.072 5.661-12.966zm-2.86 4.4c0 1.152-.588 2.361-1.545 2.361s-1.556-1.232-1.556-2.361a7.41 7.41 0 0 1 1.153-3.259c.046-.072.109-.13.184-.171s.158-.062.243-.062.168.021.243.062.138.099.184.171a7.6 7.6 0 0 1 1.095 3.259zm-1.003 0c-.046-.675-.23-1.334-.542-1.935a4.69 4.69 0 0 0-.553 1.935c0 .806.392 1.359.553 1.359s.542-.553.542-1.359zm-3.791 5.598c0 .933-.496 1.935-1.314 1.935s-1.326-1.002-1.326-1.935a5.86 5.86 0 0 1 .899-2.592.5.5 0 0 1 .184-.17c.075-.04.158-.062.243-.062s.168.021.243.062a.51.51 0 0 1 .184.17 6.07 6.07 0 0 1 .888 2.592zm-1.003 0a3.53 3.53 0 0 0-.311-1.244 3.32 3.32 0 0 0-.323 1.244 1.15 1.15 0 0 0 .062.504c.058.161.151.308.273.429a1.38 1.38 0 0 0 .3-.933zm-2.954-5.631c0 1.152-.6 2.362-1.556 2.362s-1.556-1.221-1.556-2.362a7.4 7.4 0 0 1 1.153-3.248.53.53 0 0 1 .184-.158c.073-.037.154-.057.236-.057s.163.02.236.057a.53.53 0 0 1 .184.158 7.22 7.22 0 0 1 1.118 3.248zm-1.003 0a5.12 5.12 0 0 0-.553-1.923 4.86 4.86 0 0 0-.542 1.923c0 .818.392 1.36.542 1.36s.553-.542.553-1.36zm-.055 10.271c0 .933-.496 1.947-1.314 1.947s-1.314-1.014-1.314-1.947a5.97 5.97 0 0 1 .888-2.591.51.51 0 0 1 .184-.171c.075-.041.158-.062.243-.062s.169.022.243.062a.51.51 0 0 1 .184.171 5.97 5.97 0 0 1 .888 2.591zm-1.003 0a.64.64 0 0 0 .281-.309c.057-.131.068-.278.033-.416a.64.64 0 0 0-.23-.349c-.113-.088-.252-.136-.396-.136s-.282.048-.396.136a.64.64 0 0 0-.197.765.65.65 0 0 0 .281.309 1.15 1.15 0 0 0 .059.511 1.16 1.16 0 0 0 .275.434 1.45 1.45 0 0 0 .288-.945zm-2.747-4.63c0 .933-.507 1.946-1.314 1.946s-1.326-1.013-1.326-1.946c.092-.919.4-1.803.899-2.58a.49.49 0 0 1 .426-.231c.085.001.166.019.239.06s.134.099.176.171c.502.775.811 1.66.899 2.58zm-1.003 0a.66.66 0 0 0 .286-.315c.058-.134.069-.283.033-.424s-.119-.266-.234-.355a.66.66 0 0 0-.403-.138c-.146 0-.288.048-.403.138s-.197.214-.234.355a.65.65 0 0 0 .033.424.66.66 0 0 0 .286.315 1.22 1.22 0 0 0 .066.508c.058.163.149.311.269.436a1.36 1.36 0 0 0 .265-.944h.035zm-3.493 4.633c0 .933-.507 1.946-1.326 1.946s-1.314-1.013-1.314-1.946c.087-.924.395-1.813.899-2.592a.51.51 0 0 1 .421-.215.51.51 0 0 1 .421.215c.504.779.813 1.668.899 2.592zm-1.015 0a3.24 3.24 0 0 0-.311-1.221 3.45 3.45 0 0 0-.311 1.221c-.022.339.089.674.311.933a1.24 1.24 0 0 0 .277-.933h.035zm1.015-10.24c0 1.152-.599 2.361-1.556 2.361s-1.556-1.232-1.556-2.361a7.21 7.21 0 0 1 1.153-3.259c.045-.072.107-.131.18-.172a.49.49 0 0 1 .241-.062c.085 0 .167.022.241.062a.48.48 0 0 1 .18.172 7.56 7.56 0 0 1 1.118 3.259zm-1.015 0a4.85 4.85 0 0 0-.542-1.935 5.07 5.07 0 0 0-.553 1.935c0 .806.392 1.359.553 1.359s.507-.553.507-1.359h.035zm-4.657 5.607c0 .933-.496 1.946-1.314 1.946s-1.314-1.013-1.314-1.946a5.89 5.89 0 0 1 .888-2.58.52.52 0 0 1 .188-.158c.074-.037.156-.057.239-.057s.165.019.239.057a.54.54 0 0 1 .188.158 5.89 5.89 0 0 1 .888 2.58zm-1.003 0a.65.65 0 0 0 .314-.726.65.65 0 0 0-.23-.349c-.113-.088-.252-.135-.396-.135s-.282.047-.396.135-.194.211-.23.349-.024.285.033.417.156.24.281.309a1.15 1.15 0 0 0 .334.944 1.45 1.45 0 0 0 .288-.944zm-3.782-5.606c0 1.152-.588 2.361-1.545 2.361s-1.557-1.232-1.557-2.361a7.61 7.61 0 0 1 1.153-3.26.54.54 0 0 1 .191-.168c.076-.04.161-.061.247-.062s.168.022.242.062a.52.52 0 0 1 .185.168 7.61 7.61 0 0 1 1.084 3.26zm-1.003 0a4.69 4.69 0 0 0-.553-1.935 4.87 4.87 0 0 0-.542 1.935c0 .806.392 1.359.553 1.359s.542-.553.542-1.359zM285.115 76.075c1.072 1.451 1.153 3.455.173 5.92-2.214 5.678-10.088 6.024-12.683 6.139a7.95 7.95 0 0 0-3.218.934 7.94 7.94 0 0 0-2.546 2.176.7.7 0 0 1-.248.213.69.69 0 0 1-.317.075h-.139a.68.68 0 0 1-.542-.53c0-.184-1.003-4.826 1.43-7.924a7.46 7.46 0 0 1 2.699-2.008 7.47 7.47 0 0 1 3.308-.618c4.404-.115 6.549-1.808 6.71-3.455a1.92 1.92 0 0 0-.431-1.339c-.308-.376-.747-.622-1.229-.688a.66.66 0 0 1-.402-.261c-.096-.135-.138-.3-.117-.464a.68.68 0 0 1 .634-.622c.185.023 4.923-.276 6.918 2.453zm-1.153 5.402c.773-1.993.773-3.536 0-4.607a5.28 5.28 0 0 0-3.274-1.682 2.95 2.95 0 0 1 .461 1.993c-.208 2.05-2.444 4.481-8.071 4.607a6.13 6.13 0 0 0-2.722.474 6.12 6.12 0 0 0-2.236 1.622 8.06 8.06 0 0 0-1.348 5.333 9.04 9.04 0 0 1 5.764-2.499c4.116-.15 9.777-.875 11.472-5.241h-.046zm-2.467 14.961a3.13 3.13 0 0 1-.253 1.302 2.89 2.89 0 0 1-1.857 1.555c-.303.105-.616.182-.934.23-3.309.461-7.033 1.152-9.834 2.845a19.4 19.4 0 0 1-7.275 9.053c2.401-.861 4.498-2.407 6.03-4.446a.67.67 0 0 1 .358-.25c.144-.042.298-.035.437.02.146.049.27.147.352.277a.67.67 0 0 1 .098.437c-.727 6.657-5.869 9.894-15.761 9.905h-.427c-10.042 0-16.856-.703-19.877-8.972-.05-.132-.058-.275-.023-.412a.68.68 0 0 1 .219-.349l19.601-16.862a.71.71 0 0 1 .315-.16c.117-.026.238-.023.353.01a29.54 29.54 0 0 1 5.765 2.396.68.68 0 0 1 .305.333c.061.142.071.301.029.45a.67.67 0 0 1-.691.518 9.98 9.98 0 0 0-4.236.574c-1.354.495-2.583 1.278-3.604 2.294a3.41 3.41 0 0 1 .357-.173.83.83 0 0 1 .231-.104 1.06 1.06 0 0 1 .311-.115 19.43 19.43 0 0 1 14.988.322c3.159-.829 6.261-2.995 8.889-5.033a5.12 5.12 0 0 1 1.373-.76c1.014-.323 2.917-.426 4.265 2.776a6.13 6.13 0 0 1 .496 2.338zm-1.522.737a3.23 3.23 0 0 0 .117-1.296 3.25 3.25 0 0 0-.405-1.237c-1.049-2.488-2.168-2.108-2.548-1.993a4.09 4.09 0 0 0-.957.541c-2.836 2.188-6.18 4.527-9.685 5.356a.69.69 0 0 1-.611-.15 18.32 18.32 0 0 0-13.835-.311h-.173l-.173.069h-.069c-1.138.496-2.153 1.235-2.975 2.166-.108.107-.25.176-.402.195s-.305-.013-.437-.09a.69.69 0 0 1-.314-.785 10.15 10.15 0 0 1 3.222-4.494c1.469-1.171 3.236-1.912 5.102-2.14-.912-.396-1.848-.739-2.801-1.025l-19.012 16.378c2.847 7.141 9.073 7.636 18.827 7.625 7.76 0 12.222-1.981 13.836-6.139a17.89 17.89 0 0 1-11.195 4.123c-.123-.005-.243-.042-.348-.107s-.192-.154-.252-.261a.7.7 0 0 1-.091-.346c0-.121.031-.24.091-.345a.91.91 0 0 1 .53-.415 8.22 8.22 0 0 0 1.903-.484h.138c.254-.115.519-.242.773-.38a18.24 18.24 0 0 0 9.062-9.767.75.75 0 0 1 .107-.273.76.76 0 0 1 .204-.211c3.055-1.912 7.079-2.672 10.619-3.179a3.85 3.85 0 0 0 .692-.173 1.56 1.56 0 0 0 .629-.303 1.54 1.54 0 0 0 .431-.549z"/><path d="M274.921 117.484c.25-.041.507-.027.752.041a1.76 1.76 0 0 1 .666.352c.193.165.349.369.456.6s.161.481.161.735a1.76 1.76 0 0 1-.161.735c-.107.23-.263.435-.456.599s-.421.285-.666.353a1.77 1.77 0 0 1-.752.04h-48.655a1.75 1.75 0 0 1-1.052-2.861c.269-.316.642-.527 1.052-.594h48.655zm.38 1.751a.37.37 0 0 0-.029-.144.35.35 0 0 0-.083-.121c-.035-.034-.077-.061-.124-.079s-.095-.026-.144-.025h-48.655c-.048 0-.095.01-.139.028a.34.34 0 0 0-.118.081.37.37 0 0 0-.077.12.35.35 0 0 0-.023.14c0 .094.037.185.104.252s.158.105.253.105h48.655c.049.003.099-.004.145-.02a.36.36 0 0 0 .126-.076c.037-.033.067-.073.087-.118s.032-.094.034-.143h-.012zm-3.377-43.586c.346 1.854-1.268 4.262-4.278 6.439-1.937 1.382-2.928 2.868-2.928 4.446a4.48 4.48 0 0 0 .588 2.142.68.68 0 0 1 .067.483c-.038.164-.136.308-.275.404a.61.61 0 0 1-.403.138c-.093-.001-.185-.02-.271-.058a.68.68 0 0 1-.225-.161c-.662-.663-1.179-1.455-1.52-2.327a6.79 6.79 0 0 1-.463-2.74c.173-1.045.573-2.04 1.17-2.915a7.29 7.29 0 0 1 2.289-2.153c3.459-2.488 3.735-4.319 3.735-4.814a.69.69 0 0 1 .277-.553.71.71 0 0 1 .285-.132c.104-.022.212-.02.315.005a2.31 2.31 0 0 1 1.075.665c.289.318.484.709.562 1.132zm-5.073 5.275c3.044-2.177 3.92-4.089 3.735-5.068-.415 1.152-1.498 2.776-4.069 4.607-.749.436-1.396 1.027-1.895 1.735s-.84 1.514-.999 2.365v.461c.578-1.693 1.717-3.139 3.228-4.1zm-5.763.406a.62.62 0 0 1 .135.23.61.61 0 0 1 .026.265c-.003.092-.025.183-.065.266a.68.68 0 0 1-.166.218l-35.672 30.592a.66.66 0 0 1-.438.172c-.102-.001-.201-.025-.293-.068a.68.68 0 0 1-.237-.185c-3.565-4.146-5.62-9.375-5.829-14.836s1.439-10.832 4.676-15.238a5.75 5.75 0 0 1-1.326-4.054 5.27 5.27 0 0 1 .547-1.996 5.29 5.29 0 0 1 1.274-1.632 5.23 5.23 0 0 1 3.459-1.267 5.62 5.62 0 0 1 2.325.504c.729.332 1.38.816 1.907 1.42a24.23 24.23 0 0 1 15.821-2.385 24.22 24.22 0 0 1 13.856 7.994zm-36.076 30.027l34.519-29.67a22.78 22.78 0 0 0-13.175-7.115 22.79 22.79 0 0 0-14.749 2.6c-.149.085-.324.11-.491.072a.68.68 0 0 1-.409-.279 3.3 3.3 0 0 0-.253-.311 4.29 4.29 0 0 0-1.455-1.109 4.28 4.28 0 0 0-1.785-.4 3.84 3.84 0 0 0-2.659 1.029c-.721.671-1.156 1.594-1.215 2.576-.048.565.02 1.134.198 1.672a4.19 4.19 0 0 0 .84 1.46 2.15 2.15 0 0 0 .276.288c.121.119.195.278.208.448a.7.7 0 0 1-.139.474c-3.14 4.057-4.82 9.054-4.768 14.183s1.834 10.089 5.057 14.082z"/><path d="M230.569 76.88a.78.78 0 0 1 .129.553c-.028.194-.127.371-.279.495-.897.568-1.753 1.199-2.56 1.889a26.1 26.1 0 0 0-2.306 2.246c-.062.07-.139.127-.224.166a.69.69 0 0 1-.271.064.69.69 0 0 1-.496-.207 1.8 1.8 0 0 1-.208-.207 4.07 4.07 0 0 1-.808-1.373 4.05 4.05 0 0 1-.218-1.578 4.07 4.07 0 0 1 1.372-2.808c.836-.658 1.894-.97 2.954-.872a4.15 4.15 0 0 1 2.742 1.402l.173.23zm-3.609 1.889c.643-.552 1.317-1.067 2.018-1.543-.477-.394-1.076-.61-1.695-.61-.605-.001-1.191.215-1.649.61-.459.407-.761.96-.856 1.566s.025 1.225.337 1.752c.58-.626 1.196-1.219 1.845-1.774z"/></g><g class="F"><path d="M196.868 217.827c.014.083.003.168-.032.244s-.092.14-.164.183l-3.067 1.67a.34.34 0 0 1-.184.057h-28.755c-.066 0-.13-.02-.184-.057l-3.067-1.67a.38.38 0 0 1-.165-.182.39.39 0 0 1-.02-.245c.017-.084.063-.159.131-.212s.153-.08.238-.075h34.923c.081.006.157.037.219.089a.39.39 0 0 1 .127.198zm-3.539 1.394l1.683-.921h-31.925l1.683.921h28.559zM192 216.756c.002.049-.006.098-.024.144s-.045.088-.079.124-.076.063-.122.083a.37.37 0 0 1-.143.029h-25.169c-.101 0-.198-.04-.269-.112s-.112-.168-.112-.268a13 13 0 0 1 2.812-8.083c1.823-2.3 4.371-3.917 7.23-4.587 0-.773.308-1.514.855-2.061a2.92 2.92 0 0 1 4.125 0c.547.547.854 1.288.854 2.061 2.86.668 5.41 2.285 7.233 4.585a12.98 12.98 0 0 1 2.809 8.085zm-25.157-.38h24.396c-.089-2.736-1.095-5.363-2.854-7.461a12.26 12.26 0 0 0-6.853-4.115c-.091-.014-.173-.063-.229-.136s-.081-.164-.071-.256v-.218a2.17 2.17 0 0 0-.095-.895 2.19 2.19 0 0 0-.451-.779c-.204-.225-.452-.405-.729-.528a2.18 2.18 0 0 0-.881-.187 2.17 2.17 0 0 0-.881.187c-.277.123-.526.303-.729.528a2.17 2.17 0 0 0-.546 1.674v.218c.01.09-.014.18-.067.253s-.133.122-.221.139c-2.696.552-5.127 1.994-6.903 4.093a12.24 12.24 0 0 0-2.886 7.483z"/><path d="M181.119 204.189v.103a.42.42 0 0 1-.15.277c-.037.035-.08.063-.128.08a.36.36 0 0 1-.149.023c-1.082-.149-2.18-.149-3.263 0a.38.38 0 0 1-.242-.08.45.45 0 0 1-.138-.277v-.126a2.05 2.05 0 0 1 .111-.84 2.07 2.07 0 0 1 .437-.725c.194-.209.43-.376.692-.49s.544-.173.829-.173a2.08 2.08 0 0 1 .83.173 2.07 2.07 0 0 1 .691.49 2.06 2.06 0 0 1 .438.725c.094.269.132.555.111.84h-.069zm-2.076-.38c.432 0 .863.023 1.292.069 0-.343-.136-.671-.379-.913a1.29 1.29 0 0 0-.913-.377c-.343 0-.671.136-.913.377a1.29 1.29 0 0 0-.378.913 12.11 12.11 0 0 1 1.291-.069zm-.818 1.163a.38.38 0 0 1-.15.484c-6.791 4.054-6.065 10.078-6.065 10.136.009.052.007.107-.007.158a.36.36 0 0 1-.074.141.39.39 0 0 1-.13.094c-.05.022-.104.033-.158.033h-2.79c-.054.001-.108-.01-.158-.032a.38.38 0 0 1-.13-.095.39.39 0 0 1-.076-.134c-.016-.05-.022-.102-.016-.154a13.33 13.33 0 0 1 3.105-6.773c1.657-1.918 3.828-3.324 6.257-4.054.077-.015.158-.004.229.031s.128.094.163.165zm-6.987 10.286c-.001-1.607.34-3.196.999-4.661a11.34 11.34 0 0 1 2.829-3.84c-1.509.937-2.806 2.176-3.81 3.639s-1.694 3.119-2.024 4.862h2.006z"/></g><g class="E"><path d="M156.872 16.147a7.91 7.91 0 0 1-3.827-1.071c-3.932-2.165-6.918-2.764-8.855-1.797a.61.61 0 0 1-.341.061c-.117-.013-.227-.059-.319-.133a.61.61 0 0 1-.205-.631c.934-3.674 4.797-6.346 9.224-6.346 4.739 0 8.739 3.052 9.316 7.084a.61.61 0 0 1-.104.449c-.462.621-1.042 1.146-1.706 1.543a6.2 6.2 0 0 1-3.183.841zm-10.618-4.526a16.15 16.15 0 0 1 7.379 2.384 5.57 5.57 0 0 0 5.764.253 4.6 4.6 0 0 0 1.153-1.014c-.622-3.317-4.035-5.759-8.07-5.759a8.37 8.37 0 0 0-4.399 1.081c-1.338.758-2.442 1.87-3.188 3.215.448-.097.903-.151 1.361-.161zm6.246 11.344c-4.993 0-9.109-3.352-9.374-7.636a.61.61 0 0 1 .139-.426 3.13 3.13 0 0 1 .818-.702c1.822-1.083 4.877-.507 8.832 1.67a6.92 6.92 0 0 0 7.217.23c.226-.134.442-.284.646-.449a.61.61 0 0 1 .941.233c.051.115.064.243.039.365-.773 3.893-4.658 6.715-9.258 6.715zm-8.14-7.464c.369 3.524 3.885 6.254 8.14 6.254 1.531.06 3.048-.305 4.384-1.056a8.27 8.27 0 0 0 3.179-3.194c-1.238.543-2.59.776-3.938.677a8.29 8.29 0 0 1-3.798-1.242c-3.459-1.9-6.226-2.522-7.621-1.693-.127.067-.244.153-.346.253z"/></g><g class="F"><path d="M121.89 35.866c-1.348-.02-2.667-.389-3.828-1.071-3.932-2.154-6.918-2.764-8.855-1.797a.61.61 0 0 1-.657-.069c-.09-.073-.158-.171-.194-.281a.61.61 0 0 1-.014-.341c.934-3.674 4.797-6.346 9.224-6.346 4.739 0 8.739 3.041 9.316 7.084a.6.6 0 0 1-.104.438 5.75 5.75 0 0 1-1.741 1.543 6.11 6.11 0 0 1-3.147.841zm-10.619-4.527c2.618.187 5.151 1.01 7.379 2.396a5.58 5.58 0 0 0 2.849.923c1.016.043 2.024-.193 2.916-.681.438-.271.828-.614 1.153-1.014-.623-3.317-4.036-5.759-8.071-5.759a8.37 8.37 0 0 0-4.399 1.081c-1.338.758-2.441 1.87-3.188 3.215.447-.103.903-.157 1.361-.161z"/><path d="M117.52 42.697c-4.993 0-9.109-3.363-9.374-7.648a.6.6 0 0 1 .138-.426 3.17 3.17 0 0 1 .819-.703c1.822-1.083 4.877-.495 8.832 1.682a7 7 0 0 0 3.578 1.111c1.272.038 2.53-.27 3.639-.892.226-.134.442-.284.646-.449a.62.62 0 0 1 .351-.109c.126 0 .248.038.352.109.106.064.19.159.239.273s.063.239.038.361c-.773 3.858-4.658 6.692-9.258 6.692zm-8.14-7.475c.369 3.536 3.885 6.254 8.14 6.254 1.522.054 3.029-.313 4.356-1.061a8.27 8.27 0 0 0 3.161-3.177c-1.237.541-2.588.771-3.934.67a8.28 8.28 0 0 1-3.791-1.246c-3.459-1.901-6.237-2.522-7.621-1.693a1.91 1.91 0 0 0-.311.253z"/></g><g class="E"><path d="M131.862 215.777c-1.342-.026-2.656-.395-3.816-1.072-3.931-2.154-6.918-2.764-8.866-1.796a.62.62 0 0 1-.657-.07c-.091-.073-.158-.17-.195-.28a.61.61 0 0 1-.013-.342c.934-3.685 4.796-6.346 9.224-6.346 4.738 0 8.739 3.041 9.327 7.072a.62.62 0 0 1-.115.449 5.92 5.92 0 0 1-1.706 1.544c-.966.562-2.065.852-3.183.841zm-10.607-4.527c2.619.185 5.152 1.007 7.379 2.396a5.58 5.58 0 0 0 2.849.925c1.016.042 2.024-.194 2.916-.683a4.4 4.4 0 0 0 1.153-1.014c-.623-3.317-4.036-5.759-8.071-5.759a8.35 8.35 0 0 0-4.394 1.081c-1.337.758-2.437 1.871-3.181 3.215a7.04 7.04 0 0 1 1.349-.161zm6.237 11.344c-4.992 0-9.108-3.352-9.374-7.636a.61.61 0 0 1 .139-.426 3.13 3.13 0 0 1 .818-.703c1.822-1.083 4.877-.507 8.832 1.67 1.065.699 2.303 1.09 3.576 1.131a6.92 6.92 0 0 0 3.641-.901c.228-.136.448-.286.658-.449.101-.07.222-.107.345-.107a.61.61 0 0 1 .346.107c.101.07.189.165.239.28s.062.242.038.365c-.761 3.847-4.658 6.669-9.258 6.669zm-8.071-7.464c.369 3.525 3.886 6.255 8.071 6.255a8.29 8.29 0 0 0 4.384-1.056 8.27 8.27 0 0 0 3.179-3.194 8.27 8.27 0 0 1-7.736-.565c-3.459-1.9-6.226-2.522-7.621-1.693a1.43 1.43 0 0 0-.334.253h.057zm8.003-78.318c-1.217-.025-2.408-.363-3.458-.979-3.598-1.97-6.319-2.523-8.071-1.636a.57.57 0 0 1-.31.052c-.106-.012-.206-.054-.29-.121a.55.55 0 0 1-.184-.564c.842-3.364 4.37-5.759 8.382-5.759 4.323 0 7.978 2.787 8.509 6.473.011.07.008.143-.01.212s-.05.135-.094.191c-.412.575-.943 1.054-1.557 1.405a5.67 5.67 0 0 1-2.917.726zm-9.696-4.135c2.393.172 4.708.923 6.745 2.188a5.07 5.07 0 0 0 2.592.84c.925.039 1.843-.176 2.654-.621.414-.24.781-.552 1.084-.921-.565-3.03-3.69-5.287-7.368-5.287a7.64 7.64 0 0 0-4.012.992c-1.22.693-2.226 1.709-2.906 2.935a5.94 5.94 0 0 1 1.211-.126z"/><path d="M123.435 143.053c-4.611 0-8.324-3.075-8.566-6.991a.5.5 0 0 1 .127-.38c.21-.258.463-.476.749-.645 1.661-.991 4.451-.461 8.071 1.532a6.38 6.38 0 0 0 3.27 1.016c1.162.035 2.312-.249 3.325-.821.207-.116.404-.251.588-.403a.55.55 0 0 1 .317-.099c.113 0 .224.034.317.099a.54.54 0 0 1 .219.248c.046.103.058.218.035.328-.704 3.525-4.255 6.116-8.452 6.116zm-7.436-6.83c.334 3.225 3.551 5.759 7.436 5.759 1.4.057 2.788-.276 4.01-.962a7.56 7.56 0 0 0 2.908-2.919 7.57 7.57 0 0 1-3.598.62c-1.232-.09-2.424-.481-3.469-1.139-3.16-1.739-5.696-2.303-6.918-1.543a1.57 1.57 0 0 0-.369.184zm129.546 86.293c-1.058-.021-2.093-.311-3.009-.841-3.102-1.704-5.454-2.177-6.987-1.416-.083.039-.176.055-.268.045s-.178-.046-.251-.103a.46.46 0 0 1-.155-.223c-.028-.088-.031-.183-.006-.272.737-2.903 3.77-4.999 7.24-4.999 3.724 0 6.918 2.396 7.344 5.586.01.061.007.123-.009.183s-.044.115-.083.163a4.52 4.52 0 0 1-1.337 1.221 5 5 0 0 1-2.479.656zm-8.37-3.57c2.046.154 4.024.802 5.764 1.889.667.439 1.441.689 2.239.723a4.42 4.42 0 0 0 2.292-.528c.361-.211.681-.484.946-.806-.496-2.614-3.194-4.607-6.365-4.607-1.212-.04-2.412.255-3.468.852a6.59 6.59 0 0 0-2.515 2.534c.365-.059.737-.078 1.107-.057z"/><path d="M242.109 227.905c-3.943 0-7.194-2.65-7.402-6.036-.004-.121.037-.24.116-.334a2.33 2.33 0 0 1 .645-.553c1.43-.852 3.84-.403 6.918 1.313.841.549 1.818.856 2.822.889a5.5 5.5 0 0 0 2.874-.704c.176-.109.345-.228.507-.357a.5.5 0 0 1 .277-.082.5.5 0 0 1 .276.082.49.49 0 0 1 .219.506c-.565 3.041-3.631 5.276-7.252 5.276zm-6.387-5.898c.288 2.788 3.067 4.93 6.422 4.93 1.204.047 2.397-.24 3.447-.829s1.917-1.459 2.502-2.511c-.975.425-2.04.605-3.101.525s-2.086-.419-2.986-.986c-2.721-1.497-4.924-1.981-6.019-1.324a1.06 1.06 0 0 0-.265.195z"/></g><g class="F"><path d="M83.277 288.729a7.16 7.16 0 0 1-3.459-.979c-3.597-1.981-6.318-2.534-8.071-1.647-.096.046-.203.064-.308.052a.56.56 0 0 1-.47-.373.57.57 0 0 1-.018-.312c.853-3.363 4.381-5.759 8.382-5.759 4.324 0 7.99 2.787 8.52 6.473a.6.6 0 0 1-.104.415 5.35 5.35 0 0 1-1.556 1.405c-.889.499-1.897.75-2.917.725zm-9.685-4.134c2.388.167 4.7.914 6.733 2.176a5.1 5.1 0 0 0 2.591.843c.924.04 1.842-.171 2.655-.612a4.1 4.1 0 0 0 1.153-.933c-.565-3.029-3.689-5.287-7.379-5.287a7.61 7.61 0 0 0-4.014.989 7.6 7.6 0 0 0-2.904 2.939 5.84 5.84 0 0 1 1.165-.115zm5.698 10.368c-4.612 0-8.324-3.075-8.555-6.991-.009-.07-.004-.141.016-.208s.053-.13.099-.184a2.63 2.63 0 0 1 .738-.645c1.672-.99 4.462-.46 8.071 1.532.977.629 2.107.98 3.269 1.017a6.42 6.42 0 0 0 3.326-.81 5.44 5.44 0 0 0 .6-.414.55.55 0 0 1 .311-.12c.113-.007.226.021.323.08s.173.147.219.251a.55.55 0 0 1 .035.33c-.692 3.571-4.208 6.162-8.451 6.162zm-7.425-6.83c.334 3.225 3.551 5.759 7.425 5.759 1.398.056 2.785-.275 4.006-.959s2.229-1.69 2.912-2.911c-1.13.492-2.364.701-3.594.609a7.58 7.58 0 0 1-3.462-1.139c-3.159-1.727-5.696-2.303-6.975-1.543a1.87 1.87 0 0 0-.311.184zm208.524-26.79c-1.218-.025-2.409-.362-3.459-.979-3.586-1.97-6.307-2.522-8.071-1.636-.095.043-.2.059-.304.045s-.202-.055-.283-.121a.56.56 0 0 1-.177-.25c-.034-.098-.042-.205-.02-.307.853-3.363 4.37-5.759 8.382-5.759 4.324 0 7.99 2.787 8.52 6.473a.62.62 0 0 1-.103.403c-.419.576-.953 1.058-1.568 1.417a5.77 5.77 0 0 1-2.917.714zm-9.697-4.135c2.393.172 4.708.923 6.745 2.188a5.08 5.08 0 0 0 2.593.841c.924.038 1.842-.177 2.653-.622a4.02 4.02 0 0 0 1.095-.921c-.576-3.029-3.701-5.287-7.378-5.287-1.404-.044-2.792.299-4.012.992s-2.226 1.709-2.906 2.936c.398-.083.804-.126 1.21-.127zm5.707 10.377c-4.612 0-8.324-3.076-8.566-6.992-.006-.138.039-.273.126-.38.21-.257.464-.476.75-.645 1.66-.99 4.45-.461 8.07 1.532a6.38 6.38 0 0 0 3.271 1.016c1.162.035 2.312-.249 3.324-.82.208-.117.405-.252.588-.403a.56.56 0 0 1 .312-.115.57.57 0 0 1 .543.327c.048.103.063.217.045.329-.715 3.559-4.266 6.151-8.463 6.151zm-7.437-6.831c.346 3.225 3.552 5.759 7.437 5.759 1.4.057 2.788-.276 4.009-.961s2.229-1.697 2.909-2.92a7.55 7.55 0 0 1-3.599.62c-1.232-.09-2.423-.481-3.469-1.138-3.147-1.74-5.695-2.304-6.918-1.544-.129.048-.252.11-.369.184zm24.834-97.946c-1.217-.028-2.408-.365-3.459-.979-3.597-1.981-6.318-2.534-8.07-1.647-.096.045-.203.063-.309.052s-.205-.054-.288-.12a.56.56 0 0 1-.181-.254.57.57 0 0 1-.018-.312c.853-3.363 4.381-5.759 8.382-5.759 4.335 0 7.99 2.787 8.52 6.473.012.073.009.147-.009.218a.56.56 0 0 1-.094.197 5.35 5.35 0 0 1-1.557 1.405 5.67 5.67 0 0 1-2.917.726zm-9.696-4.147a14.74 14.74 0 0 1 6.733 2.189 5.12 5.12 0 0 0 2.597.841c.926.041 1.845-.17 2.66-.611.412-.247.779-.563 1.084-.933-.565-3.029-3.689-5.287-7.379-5.287-1.403-.047-2.792.296-4.013.989a7.6 7.6 0 0 0-2.904 2.939c.417-.088.842-.131 1.268-.127h-.046zm5.695 10.377c-4.554 0-8.313-3.076-8.555-6.992a.5.5 0 0 1 .024-.203c.022-.065.057-.125.103-.177a2.62 2.62 0 0 1 .738-.645c1.672-.99 4.462-.461 8.07 1.532a6.36 6.36 0 0 0 3.265 1.017 6.37 6.37 0 0 0 3.319-.821c.211-.117.412-.252.599-.403.089-.071.198-.113.311-.12s.226.021.323.08a.56.56 0 0 1 .219.25c.045.104.058.22.035.331-.692 3.559-4.243 6.151-8.451 6.151zm-7.425-6.83c.334 3.225 3.551 5.758 7.425 5.758a7.55 7.55 0 0 0 4.008-.955 7.54 7.54 0 0 0 2.91-2.915c-1.131.493-2.364.702-3.594.609a7.59 7.59 0 0 1-3.462-1.138c-3.159-1.728-5.696-2.304-6.918-1.544-.131.045-.255.107-.369.185z"/></g><g class="E"><path d="M14.642 118.449c-1.067-.021-2.111-.314-3.032-.853-3.113-1.716-5.477-2.188-7.021-1.428a.44.44 0 0 1-.269.054.45.45 0 0 1-.25-.111.49.49 0 0 1-.16-.223.48.48 0 0 1-.013-.273c.738-2.914 3.805-5.033 7.287-5.033 3.747 0 6.918 2.419 7.39 5.621a.5.5 0 0 1-.092.357 4.63 4.63 0 0 1-1.349 1.221 4.92 4.92 0 0 1-2.49.668zm-8.359-3.64c2.078.147 4.089.799 5.857 1.901.677.452 1.465.709 2.278.743a4.44 4.44 0 0 0 2.333-.548 3.76 3.76 0 0 0 .945-.806c-.496-2.637-3.205-4.607-6.399-4.607-1.225-.036-2.436.268-3.498.878s-1.935 1.502-2.52 2.577a5.3 5.3 0 0 1 1.003-.138zm4.902 9.053c-3.966 0-7.229-2.661-7.437-6.07a.45.45 0 0 1 .104-.334 2.43 2.43 0 0 1 .646-.553c1.453-.864 3.874-.403 7.01 1.325.852.555 1.841.865 2.858.895a5.53 5.53 0 0 0 2.907-.723c.18-.099.349-.214.507-.345a.48.48 0 0 1 .554 0 .49.49 0 0 1 .193.218c.041.09.054.191.037.289-.646 3.052-3.736 5.298-7.379 5.298zm-6.457-5.92c.288 2.787 3.078 4.952 6.457 4.952a6.59 6.59 0 0 0 3.472-.837c1.058-.594 1.931-1.468 2.523-2.526-.982.431-2.055.614-3.124.534s-2.103-.422-3.009-.995c-2.744-1.497-4.946-1.992-6.053-1.336a1.5 1.5 0 0 0-.265.208zm16.544 88.401a6.2 6.2 0 0 1-3.021-.852c-3.125-1.716-5.488-2.188-7.033-1.428a.49.49 0 0 1-.267.045.49.49 0 0 1-.249-.106c-.071-.058-.125-.135-.154-.222s-.033-.181-.01-.27c.738-2.914 3.793-5.033 7.275-5.033 3.759 0 6.918 2.418 7.39 5.62a.48.48 0 0 1-.081.357 4.76 4.76 0 0 1-1.361 1.221c-.755.442-1.615.673-2.49.668zm-8.417-3.593c2.079.143 4.091.796 5.857 1.9.676.453 1.465.711 2.278.746a4.43 4.43 0 0 0 2.334-.55c.36-.212.68-.484.945-.806-.484-2.638-3.205-4.607-6.399-4.607a6.64 6.64 0 0 0-3.497.879c-1.062.61-1.935 1.501-2.521 2.576.314-.075.634-.122.957-.138h.046zm4.957 9.006c-3.966 0-7.229-2.672-7.437-6.07a.47.47 0 0 1 .024-.178c.019-.057.051-.111.091-.156a2.49 2.49 0 0 1 .646-.564c1.441-.853 3.862-.392 7.01 1.336a5.52 5.52 0 0 0 5.765.172c.179-.105.352-.221.519-.345a.49.49 0 0 1 .27-.101.48.48 0 0 1 .469.287c.04.09.051.19.033.286-.703 3.087-3.793 5.333-7.39 5.333zm-6.456-5.932c.3 2.799 3.09 4.964 6.457 4.964a6.56 6.56 0 0 0 3.474-.834 6.55 6.55 0 0 0 2.521-2.529 6.59 6.59 0 0 1-3.124.53 6.61 6.61 0 0 1-3.01-.99c-2.732-1.509-4.946-1.993-6.053-1.337a1.47 1.47 0 0 0-.311.173l.046.023z"/></g></g><defs><linearGradient id="A" x1="109.009" y1="262.45" x2="114.719" y2="238.234" xlink:href="#d"><stop stop-color="#00469f"/><stop offset="1" stop-color="#1e79d6"/></linearGradient><linearGradient id="B" x1="9.705" y1="128.292" x2="13.274" y2="106.28" xlink:href="#d"><stop stop-color="#00469f"/><stop offset="1" stop-color="#1e79d6"/></linearGradient><linearGradient id="C" x1="310.801" y1="178.709" x2="322.584" y2="178.709" xlink:href="#d"><stop stop-color="#00469f"/><stop offset="1" stop-color="#1e79d6"/></linearGradient><linearGradient id="D" x1="250.285" y1="156.631" x2="262.068" y2="156.631" xlink:href="#d"><stop stop-color="#00469f"/><stop offset="1" stop-color="#1e79d6"/></linearGradient><linearGradient id="E" x1="160.527" y1="245.826" x2="172.311" y2="245.826" xlink:href="#d"><stop stop-color="#00469f"/><stop offset="1" stop-color="#1e79d6"/></linearGradient><linearGradient id="F" x1="122.571" y1="161.549" x2="134.354" y2="161.549" xlink:href="#d"><stop stop-color="#00469f"/><stop offset="1" stop-color="#1e79d6"/></linearGradient><linearGradient id="G" x1="133.719" y1="54.189" x2="145.525" y2="54.189" xlink:href="#d"><stop stop-color="#00469f"/><stop offset="1" stop-color="#1e79d6"/></linearGradient><linearGradient id="H" x1="42.625" y1="284.869" x2="54.408" y2="284.869" xlink:href="#d"><stop stop-color="#00469f"/><stop offset="1" stop-color="#1e79d6"/></linearGradient><linearGradient id="I" x1="80.5" y1="27.135" x2="92.283" y2="27.135" xlink:href="#d"><stop stop-color="#00469f"/><stop offset="1" stop-color="#1e79d6"/></linearGradient><linearGradient id="J" x1="176.043" y1="6.955" x2="187.826" y2="6.955" xlink:href="#d"><stop stop-color="#00469f"/><stop offset="1" stop-color="#1e79d6"/></linearGradient><linearGradient id="K" x1="12.277" y1="91.517" x2="24.061" y2="91.517" xlink:href="#d"><stop stop-color="#00469f"/><stop offset="1" stop-color="#1e79d6"/></linearGradient><linearGradient id="L" x1="163.594" y1="320.895" x2="178.398" y2="320.895" xlink:href="#d"><stop stop-color="#00469f"/><stop offset="1" stop-color="#1e79d6"/></linearGradient><linearGradient id="M" x1="9.848" y1="155.416" x2="52.738" y2="155.416" xlink:href="#d"><stop stop-color="#00469f"/><stop offset="1" stop-color="#1e79d6"/></linearGradient><linearGradient id="N" x1="159.178" y1="113.468" x2="170.698" y2="64.61" xlink:href="#d"><stop stop-color="#00469f"/><stop offset="1" stop-color="#1e79d6"/></linearGradient><linearGradient id="O" x1="272.944" y1="274.216" x2="279.347" y2="247.063" xlink:href="#d"><stop stop-color="#00469f"/><stop offset="1" stop-color="#1e79d6"/></linearGradient><linearGradient id="P" x1="157.391" y1="212.422" x2="199.058" y2="212.422" xlink:href="#d"><stop stop-color="#00469f"/><stop offset="1" stop-color="#1e79d6"/></linearGradient><linearGradient id="Q" x1="277.034" y1="168.278" x2="302.826" y2="157.584" xlink:href="#d"><stop stop-color="#00469f"/><stop offset="1" stop-color="#1e79d6"/></linearGradient><linearGradient id="R" x1="108.167" y1="44.7" x2="127.893" y2="24.954" xlink:href="#d"><stop stop-color="#00469f"/><stop offset="1" stop-color="#1e79d6"/></linearGradient><linearGradient id="S" x1="110.695" y1="135.747" x2="136.129" y2="135.747" xlink:href="#d"><stop stop-color="#00469f"/><stop offset="1" stop-color="#1e79d6"/></linearGradient><linearGradient id="T" x1="148.87" y1="27.146" x2="155.167" y2=".442" xlink:href="#d"><stop stop-color="#00469f"/><stop offset="1" stop-color="#1e79d6"/></linearGradient><linearGradient id="U" x1="77.436" y1="300.932" x2="81.901" y2="273.395" xlink:href="#d"><stop stop-color="#00469f"/><stop offset="1" stop-color="#1e79d6"/></linearGradient><clipPath id="V"><path d="M0 0h323v330H0z" class="F"/></clipPath><path id="W" d="M317.467 137.692a10.22 10.22 0 0 0-7.604-12.29 10.23 10.23 0 0 0-12.303 7.596 10.22 10.22 0 0 0 7.604 12.29 10.23 10.23 0 0 0 12.303-7.596z"/><path id="X" d="M323.002 180.464c0 1.164-.346 2.302-.993 3.27a5.88 5.88 0 0 1-2.644 2.167c-1.077.446-2.261.562-3.404.335s-2.193-.787-3.017-1.61-1.385-1.872-1.612-3.014-.111-2.325.335-3.401a5.89 5.89 0 0 1 2.17-2.641c.969-.647 2.108-.992 3.273-.992 1.563 0 3.061.62 4.166 1.724s1.726 2.601 1.726 4.162z"/><path id="Y" d="M256.177 43.17a5.89 5.89 0 0 0 5.891-5.886 5.89 5.89 0 1 0-11.783 0 5.89 5.89 0 0 0 5.892 5.886z"/><path id="Z" d="M195.76 118.683a5.88 5.88 0 0 1-.993 3.269c-.648.968-1.568 1.723-2.644 2.168s-2.261.562-3.404.335-2.193-.788-3.017-1.611a5.88 5.88 0 0 1-1.612-3.013c-.228-1.142-.111-2.325.335-3.401a5.89 5.89 0 0 1 2.17-2.641c.969-.647 2.108-.992 3.273-.992 1.563 0 3.061.62 4.166 1.724s1.726 2.601 1.726 4.162z"/><path id="a" d="M86.806 34.783a5.89 5.89 0 0 0 5.892-5.886 5.89 5.89 0 1 0-11.783 0 5.89 5.89 0 0 0 5.892 5.886z"/><path id="b" d="M117.156 182.903c3.47-14.685-5.634-29.4-20.334-32.866s-29.429 5.629-32.899 20.315 5.635 29.399 20.335 32.865 29.43-5.629 32.899-20.314z"/><path id="c" d="M56.852 270.151c16.428 0 29.746-13.304 29.746-29.716s-13.318-29.716-29.746-29.716-29.746 13.304-29.746 29.716 13.318 29.716 29.746 29.716z"/><linearGradient id="d" gradientUnits="userSpaceOnUse"/></defs></svg>