<svg width="41" height="40" viewBox="0 0 41 40" fill="none" xmlns="http://www.w3.org/2000/svg">
<path d="M4.25 28.7501V25.172C4.25 16.1876 11.4687 8.78137 20.4375 8.75012C22.5767 8.74189 24.6965 9.15614 26.6753 9.96909C28.6541 10.782 30.4528 11.9777 31.9684 13.4875C33.484 14.9973 34.6865 16.7914 35.5071 18.767C36.3276 20.7427 36.75 22.8609 36.75 25.0001V28.7501C36.75 29.0816 36.6183 29.3996 36.3839 29.634C36.1495 29.8684 35.8315 30.0001 35.5 30.0001H5.5C5.16848 30.0001 4.85054 29.8684 4.61612 29.634C4.3817 29.3996 4.25 29.0816 4.25 28.7501Z" stroke="white" stroke-width="1.5" stroke-linecap="round" stroke-linejoin="round"/>
<path d="M20.5 8.75V13.75" stroke="white" stroke-width="1.5" stroke-linecap="round" stroke-linejoin="round"/>
<path d="M4.79688 20.7969L9.64062 22.0937" stroke="white" stroke-width="1.5" stroke-linecap="round" stroke-linejoin="round"/>
<path d="M36.2031 20.7969L31.3594 22.0937" stroke="white" stroke-width="1.5" stroke-linecap="round" stroke-linejoin="round"/>
<path d="M16.6562 30L27.3438 16.0781" stroke="white" stroke-width="1.5" stroke-linecap="round" stroke-linejoin="round"/>
</svg>
