<svg width="41" height="40" viewBox="0 0 41 40" fill="none" xmlns="http://www.w3.org/2000/svg">
<path d="M6.75 17.9219V8.75C6.75 8.41848 6.8817 8.10054 7.11612 7.86612C7.35054 7.6317 7.66848 7.5 8 7.5H33C33.3315 7.5 33.6495 7.6317 33.8839 7.86612C34.1183 8.10054 34.25 8.41848 34.25 8.75V17.9219C34.25 31.0469 23.1094 35.3906 20.8906 36.125C20.6386 36.2183 20.3614 36.2183 20.1094 36.125C17.8906 35.3906 6.75 31.0469 6.75 17.9219Z" stroke="url(#paint0_linear_3086_25791)" stroke-width="1.5" stroke-linecap="round" stroke-linejoin="round"/>
<path d="M32.125 26.8906L20.5 18.75L8.875 26.8906" stroke="url(#paint1_linear_3086_25791)" stroke-width="1.5" stroke-linecap="round" stroke-linejoin="round"/>
<defs>
<linearGradient id="paint0_linear_3086_25791" x1="6.75" y1="22.2353" x2="34.25" y2="22.2353" gradientUnits="userSpaceOnUse">
<stop stop-color="#00469F"/>
<stop offset="1" stop-color="#1E79D6"/>
</linearGradient>
<linearGradient id="paint1_linear_3086_25791" x1="8.875" y1="22.9303" x2="32.125" y2="22.9303" gradientUnits="userSpaceOnUse">
<stop stop-color="#00469F"/>
<stop offset="1" stop-color="#1E79D6"/>
</linearGradient>
</defs>
</svg>
