<svg width="44" height="40" viewBox="0 0 44 40" fill="none" xmlns="http://www.w3.org/2000/svg">
<path d="M36.125 32.5H4.875" stroke="white" stroke-width="1.5" stroke-linecap="round" stroke-linejoin="round"/>
<path d="M16.125 32.5V13.75H24.875" stroke="white" stroke-width="1.5" stroke-linecap="round" stroke-linejoin="round"/>
<path d="M33.625 6.25H24.875V32.5H33.625V6.25Z" stroke="white" stroke-width="1.5" stroke-linecap="round" stroke-linejoin="round"/>
<path d="M7.375 32.5V21.25H16.125" stroke="white" stroke-width="1.5" stroke-linecap="round" stroke-linejoin="round"/>
<path d="M33.6562 30.0625C36.9182 30.0625 39.5625 27.4182 39.5625 24.1562C39.5625 20.8943 36.9182 18.25 33.6562 18.25C30.3943 18.25 27.75 20.8943 27.75 24.1562C27.75 27.4182 30.3943 30.0625 33.6562 30.0625Z" fill="#1970CD"/>
<path d="M33.6562 30.0625C36.9182 30.0625 39.5625 27.4182 39.5625 24.1562C39.5625 20.8943 36.9182 18.25 33.6562 18.25C30.3943 18.25 27.75 20.8943 27.75 24.1562C27.75 27.4182 30.3943 30.0625 33.6562 30.0625Z" stroke="white" stroke-width="1.5" stroke-linecap="round" stroke-linejoin="round"/>
<path d="M37.833 28.3328L41.2502 31.75" stroke="white" stroke-width="1.5" stroke-linecap="round" stroke-linejoin="round"/>
</svg>
