<svg width="41" height="40" viewBox="0 0 41 40" fill="none" xmlns="http://www.w3.org/2000/svg">
<path d="M15.5 32.5H11.75C9.42936 32.5 7.20376 31.5781 5.56282 29.9372C3.92187 28.2962 3 26.0706 3 23.75C3 21.4294 3.92187 19.2038 5.56282 17.5628C7.20376 15.9219 9.42936 15 11.75 15C12.4821 14.9997 13.2114 15.0889 13.9219 15.2656" stroke="white" stroke-width="1.5" stroke-linecap="round" stroke-linejoin="round"/>
<path d="M13 20C13 18.0194 13.4707 16.0671 14.3732 14.304C15.2758 12.5409 16.5843 11.0176 18.1911 9.85947C19.7979 8.70137 21.6569 7.94166 23.6149 7.64296C25.5729 7.34427 27.5738 7.51512 29.4528 8.14146C31.3319 8.7678 33.0351 9.83168 34.4223 11.2454C35.8095 12.6592 36.8409 14.3824 37.4314 16.2729C38.022 18.1635 38.1548 20.1673 37.819 22.1193C37.4832 24.0712 36.6884 25.9155 35.5 27.5" stroke="white" stroke-width="1.5" stroke-linecap="round" stroke-linejoin="round"/>
<path d="M18.9531 25.2969L24.25 20L29.5469 25.2969" stroke="white" stroke-width="1.5" stroke-linecap="round" stroke-linejoin="round"/>
<path d="M24.25 32.5V20" stroke="white" stroke-width="1.5" stroke-linecap="round" stroke-linejoin="round"/>
</svg>
