<svg width="44" height="40" viewBox="0 0 44 40" fill="none" xmlns="http://www.w3.org/2000/svg">
<path d="M20.5 35C28.7843 35 35.5 28.2843 35.5 20C35.5 11.7157 28.7843 5 20.5 5C12.2157 5 5.5 11.7157 5.5 20C5.5 28.2843 12.2157 35 20.5 35Z" stroke="url(#paint0_linear_2_1472)" stroke-width="1.5" stroke-miterlimit="10"/>
<path d="M5.5 20H35.5" stroke="url(#paint1_linear_2_1472)" stroke-width="1.5" stroke-linecap="round" stroke-linejoin="round"/>
<path d="M20.5 34.5937C23.9518 34.5937 26.75 28.0599 26.75 20C26.75 11.9401 23.9518 5.40625 20.5 5.40625C17.0482 5.40625 14.25 11.9401 14.25 20C14.25 28.0599 17.0482 34.5937 20.5 34.5937Z" stroke="url(#paint2_linear_2_1472)" stroke-width="1.5" stroke-miterlimit="10"/>
<path d="M29.1562 30.6168V26.7188C29.1562 26.5779 29.2122 26.4427 29.3118 26.3431C29.4115 26.2435 29.5466 26.1875 29.6875 26.1875H40.3125C40.4534 26.1875 40.5885 26.2435 40.6882 26.3431C40.7878 26.4427 40.8438 26.5779 40.8438 26.7188V30.6168C40.8438 36.1949 36.109 38.041 35.166 38.3531C35.0589 38.3928 34.9411 38.3928 34.834 38.3531C33.891 38.041 29.1562 36.1949 29.1562 30.6168Z" stroke="url(#paint3_linear_2_1472)" stroke-width="1.5" stroke-linecap="round" stroke-linejoin="round"/>
<path fill-rule="evenodd" clip-rule="evenodd" d="M29.1562 26.7188V30.6168C29.1562 36.1949 33.891 38.041 34.834 38.3531C34.9411 38.3928 35.0589 38.3928 35.166 38.3531C36.109 38.041 40.8438 36.1949 40.8438 30.6168V26.7188C40.8438 26.5779 40.7878 26.4427 40.6882 26.3431C40.5885 26.2435 40.4534 26.1875 40.3125 26.1875H29.6875C29.5466 26.1875 29.4115 26.2435 29.3118 26.3431C29.2122 26.4427 29.1562 26.5779 29.1562 26.7188ZM38.4396 30.4489C38.7393 30.163 38.7505 29.6883 38.4645 29.3885C38.1786 29.0888 37.7039 29.0777 37.4042 29.3636L34.0243 32.588L32.5963 31.2234C32.2968 30.9372 31.8221 30.948 31.5359 31.2475C31.2497 31.5469 31.2605 32.0217 31.56 32.3078L33.5057 34.1672C33.7954 34.4441 34.2516 34.4443 34.5415 34.1677L38.4396 30.4489Z" fill="url(#paint4_linear_2_1472)"/>
<defs>
<linearGradient id="paint0_linear_2_1472" x1="5.5" y1="20.4054" x2="35.5" y2="20.4054" gradientUnits="userSpaceOnUse">
<stop stop-color="#00469F"/>
<stop offset="1" stop-color="#1E79D6"/>
</linearGradient>
<linearGradient id="paint1_linear_2_1472" x1="5.5" y1="20.5135" x2="35.5" y2="20.5135" gradientUnits="userSpaceOnUse">
<stop stop-color="#00469F"/>
<stop offset="1" stop-color="#1E79D6"/>
</linearGradient>
<linearGradient id="paint2_linear_2_1472" x1="14.25" y1="20.3944" x2="26.75" y2="20.3944" gradientUnits="userSpaceOnUse">
<stop stop-color="#00469F"/>
<stop offset="1" stop-color="#1E79D6"/>
</linearGradient>
<linearGradient id="paint3_linear_2_1472" x1="29.1563" y1="32.45" x2="40.8438" y2="32.45" gradientUnits="userSpaceOnUse">
<stop stop-color="#00469F"/>
<stop offset="1" stop-color="#1E79D6"/>
</linearGradient>
<linearGradient id="paint4_linear_2_1472" x1="29.1563" y1="32.45" x2="40.8438" y2="32.45" gradientUnits="userSpaceOnUse">
<stop stop-color="#00469F"/>
<stop offset="1" stop-color="#1E79D6"/>
</linearGradient>
</defs>
</svg>
