<svg width="43" height="40" viewBox="0 0 43 40" fill="none" xmlns="http://www.w3.org/2000/svg">
<path d="M20 35C28.2843 35 35 28.2843 35 20C35 11.7157 28.2843 5 20 5C11.7157 5 5 11.7157 5 20C5 28.2843 11.7157 35 20 35Z" stroke="white" stroke-width="1.5" stroke-miterlimit="10"/>
<path d="M5 20H35" stroke="white" stroke-width="1.5" stroke-linecap="round" stroke-linejoin="round"/>
<path d="M20 34.5937C23.4518 34.5937 26.25 28.0599 26.25 20C26.25 11.9401 23.4518 5.40625 20 5.40625C16.5482 5.40625 13.75 11.9401 13.75 20C13.75 28.0599 16.5482 34.5937 20 34.5937Z" stroke="white" stroke-width="1.5" stroke-miterlimit="10"/>
<path d="M28.6562 30.6168V26.7188C28.6562 26.5779 28.7122 26.4427 28.8118 26.3431C28.9115 26.2435 29.0466 26.1875 29.1875 26.1875H39.8125C39.9534 26.1875 40.0885 26.2435 40.1882 26.3431C40.2878 26.4427 40.3438 26.5779 40.3438 26.7188V30.6168C40.3438 36.1949 35.609 38.041 34.666 38.3531C34.5589 38.3928 34.4411 38.3928 34.334 38.3531C33.391 38.041 28.6562 36.1949 28.6562 30.6168Z" stroke="white" stroke-width="1.5" stroke-linecap="round" stroke-linejoin="round"/>
<path fill-rule="evenodd" clip-rule="evenodd" d="M28.6562 26.7188V30.6168C28.6562 36.1949 33.391 38.041 34.334 38.3531C34.4411 38.3928 34.5589 38.3928 34.666 38.3531C35.609 38.041 40.3438 36.1949 40.3438 30.6168V26.7188C40.3438 26.5779 40.2878 26.4427 40.1882 26.3431C40.0885 26.2435 39.9534 26.1875 39.8125 26.1875H29.1875C29.0466 26.1875 28.9115 26.2435 28.8118 26.3431C28.7122 26.4427 28.6562 26.5779 28.6562 26.7188ZM37.9396 30.4489C38.2393 30.163 38.2505 29.6883 37.9645 29.3885C37.6786 29.0888 37.2039 29.0777 36.9042 29.3636L33.5243 32.588L32.0963 31.2234C31.7968 30.9372 31.3221 30.948 31.0359 31.2475C30.7497 31.5469 30.7605 32.0217 31.06 32.3078L33.0057 34.1672C33.2954 34.4441 33.7516 34.4443 34.0415 34.1677L37.9396 30.4489Z" fill="white"/>
</svg>
