<svg width="40" height="40" viewBox="0 0 40 40" fill="none" xmlns="http://www.w3.org/2000/svg">
<path d="M3.75 28.7501V25.172C3.75 16.1876 10.9687 8.78137 19.9375 8.75012C22.0767 8.74189 24.1965 9.15614 26.1753 9.96909C28.1541 10.782 29.9528 11.9777 31.4684 13.4875C32.984 14.9973 34.1865 16.7914 35.0071 18.767C35.8276 20.7427 36.25 22.8609 36.25 25.0001V28.7501C36.25 29.0816 36.1183 29.3996 35.8839 29.634C35.6495 29.8684 35.3315 30.0001 35 30.0001H5C4.66848 30.0001 4.35054 29.8684 4.11612 29.634C3.8817 29.3996 3.75 29.0816 3.75 28.7501Z" stroke="url(#paint0_linear_3086_26246)" stroke-width="1.5" stroke-linecap="round" stroke-linejoin="round"/>
<path d="M20 8.75V13.75" stroke="url(#paint1_linear_3086_26246)" stroke-width="1.5" stroke-linecap="round" stroke-linejoin="round"/>
<path d="M4.29688 20.7969L9.14062 22.0937" stroke="url(#paint2_linear_3086_26246)" stroke-width="1.5" stroke-linecap="round" stroke-linejoin="round"/>
<path d="M35.7031 20.7969L30.8594 22.0937" stroke="url(#paint3_linear_3086_26246)" stroke-width="1.5" stroke-linecap="round" stroke-linejoin="round"/>
<path d="M16.1562 30L26.8438 16.0781" stroke="url(#paint4_linear_3086_26246)" stroke-width="1.5" stroke-linecap="round" stroke-linejoin="round"/>
<defs>
<linearGradient id="paint0_linear_3086_26246" x1="3.75" y1="19.6622" x2="36.25" y2="19.6622" gradientUnits="userSpaceOnUse">
<stop stop-color="#00469F"/>
<stop offset="1" stop-color="#1E79D6"/>
</linearGradient>
<linearGradient id="paint1_linear_3086_26246" x1="20" y1="11.3176" x2="21" y2="11.3176" gradientUnits="userSpaceOnUse">
<stop stop-color="#00469F"/>
<stop offset="1" stop-color="#1E79D6"/>
</linearGradient>
<linearGradient id="paint2_linear_3086_26246" x1="4.29688" y1="21.4628" x2="9.14063" y2="21.4628" gradientUnits="userSpaceOnUse">
<stop stop-color="#00469F"/>
<stop offset="1" stop-color="#1E79D6"/>
</linearGradient>
<linearGradient id="paint3_linear_3086_26246" x1="30.8594" y1="21.4628" x2="35.7031" y2="21.4628" gradientUnits="userSpaceOnUse">
<stop stop-color="#00469F"/>
<stop offset="1" stop-color="#1E79D6"/>
</linearGradient>
<linearGradient id="paint4_linear_3086_26246" x1="16.1563" y1="23.2272" x2="26.8438" y2="23.2272" gradientUnits="userSpaceOnUse">
<stop stop-color="#00469F"/>
<stop offset="1" stop-color="#1E79D6"/>
</linearGradient>
</defs>
</svg>
