<svg width="42" height="43" viewBox="0 0 42 43" fill="none" xmlns="http://www.w3.org/2000/svg">
<path d="M35.5 11.75H5.5C4.80964 11.75 4.25 12.3096 4.25 13V33C4.25 33.6904 4.80964 34.25 5.5 34.25H35.5C36.1904 34.25 36.75 33.6904 36.75 33V13C36.75 12.3096 36.1904 11.75 35.5 11.75Z" stroke="white" stroke-width="2" stroke-linecap="round" stroke-linejoin="round"/>
<path d="M26.75 29.25H31.75" stroke="white" stroke-width="2" stroke-linecap="round" stroke-linejoin="round"/>
<path d="M19.25 29.25H21.75" stroke="white" stroke-width="2" stroke-linecap="round" stroke-linejoin="round"/>
<path d="M4.25 18.1406H36.75" stroke="white" stroke-width="2" stroke-linecap="round" stroke-linejoin="round"/>
<path d="M27.1562 7.6168V3.71875C27.1562 3.57785 27.2122 3.44273 27.3118 3.3431C27.4115 3.24347 27.5466 3.1875 27.6875 3.1875H38.3125C38.4534 3.1875 38.5885 3.24347 38.6882 3.3431C38.7878 3.44273 38.8438 3.57785 38.8438 3.71875V7.6168C38.8438 13.1949 34.109 15.041 33.166 15.3531C33.0589 15.3928 32.9411 15.3928 32.834 15.3531C31.891 15.041 27.1562 13.1949 27.1562 7.6168Z" stroke="white" stroke-width="1.5" stroke-linecap="round" stroke-linejoin="round"/>
<path fill-rule="evenodd" clip-rule="evenodd" d="M27.5 3.53125V7.4293C27.5 13.0074 32.2348 14.8535 33.1777 15.1656C33.2849 15.2053 33.4026 15.2053 33.5098 15.1656C34.4527 14.8535 39.1875 13.0074 39.1875 7.4293V3.53125C39.1875 3.39035 39.1315 3.25523 39.0319 3.1556C38.9323 3.05597 38.7971 3 38.6562 3H28.0312C27.8904 3 27.7552 3.05597 27.6556 3.1556C27.556 3.25523 27.5 3.39035 27.5 3.53125ZM36.8615 6.54266C37.1612 6.25674 37.1723 5.782 36.8864 5.4823C36.6005 5.18259 36.1258 5.17142 35.826 5.45734L32.4461 8.68178L31.0182 7.31715C30.7187 7.03098 30.244 7.04175 29.9578 7.34121C29.6716 7.64067 29.6824 8.11542 29.9818 8.4016L31.9275 10.261C32.2173 10.5378 32.6734 10.538 32.9634 10.2614L36.8615 6.54266Z" fill="white"/>
</svg>
