<svg width="41" height="40" viewBox="0 0 41 40" fill="none" xmlns="http://www.w3.org/2000/svg">
<path d="M20.25 26.875C24.047 26.875 27.125 23.797 27.125 20C27.125 16.203 24.047 13.125 20.25 13.125C16.453 13.125 13.375 16.203 13.375 20C13.375 23.797 16.453 26.875 20.25 26.875Z" stroke="url(#paint0_linear_3071_19928)" stroke-width="2" stroke-linecap="round" stroke-linejoin="round"/>
<path d="M31.0939 12.6094C31.4701 13.1479 31.7994 13.7177 32.0783 14.3125L36.1252 16.5625C36.6305 18.8257 36.6358 21.172 36.1408 23.4375L32.0783 25.6875C31.7994 26.2823 31.4701 26.8521 31.0939 27.3906L31.172 32.0313C29.457 33.5941 27.4271 34.7716 25.2189 35.4844L21.2345 33.0938C20.5791 33.1406 19.9212 33.1406 19.2658 33.0938L15.297 35.4688C13.0819 34.7689 11.0453 33.596 9.32829 32.0313L9.40642 27.4062C9.0334 26.8602 8.70425 26.2855 8.42204 25.6875L4.37517 23.4375C3.86985 21.1743 3.86452 18.828 4.35954 16.5625L8.42204 14.3125C8.70092 13.7177 9.03025 13.1479 9.40642 12.6094L9.32829 7.96875C11.0434 6.40588 13.0733 5.22844 15.2814 4.51562L19.2658 6.90625C19.9212 6.85937 20.5791 6.85937 21.2345 6.90625L25.2033 4.53125C27.4184 5.23109 29.455 6.40399 31.172 7.96875L31.0939 12.6094Z" stroke="url(#paint1_linear_3071_19928)" stroke-width="2" stroke-linecap="round" stroke-linejoin="round"/>
<defs>
<linearGradient id="paint0_linear_3071_19928" x1="13.375" y1="20.1858" x2="27.125" y2="20.1858" gradientUnits="userSpaceOnUse">
<stop stop-color="#00469F"/>
<stop offset="1" stop-color="#1E79D6"/>
</linearGradient>
<linearGradient id="paint1_linear_3071_19928" x1="3.99219" y1="20.4185" x2="36.5081" y2="20.4185" gradientUnits="userSpaceOnUse">
<stop stop-color="#00469F"/>
<stop offset="1" stop-color="#1E79D6"/>
</linearGradient>
</defs>
</svg>
