<svg width="41" height="40" viewBox="0 0 41 40" fill="none" xmlns="http://www.w3.org/2000/svg">
<path d="M35.9844 20.0005H30.9844C30.3213 20.0005 29.6854 20.2639 29.2166 20.7328C28.7478 21.2016 28.4844 21.8375 28.4844 22.5005V28.7505C28.4844 29.4136 28.7478 30.0494 29.2166 30.5183C29.6854 30.9871 30.3213 31.2505 30.9844 31.2505H33.4844C34.1474 31.2505 34.7833 30.9871 35.2521 30.5183C35.721 30.0494 35.9844 29.4136 35.9844 28.7505V20.0005ZM35.9844 20.0005C35.9844 18.0201 35.5924 16.0593 34.8307 14.2313C34.0691 12.4032 32.953 10.744 31.5469 9.34948C30.1407 7.95495 28.4724 6.85268 26.638 6.10625C24.8037 5.35982 22.8397 4.98402 20.8594 5.00052C18.8804 4.98609 16.9181 5.36342 15.0855 6.11078C13.253 6.85814 11.5865 7.96074 10.182 9.35506C8.77751 10.7494 7.66283 12.4078 6.90218 14.2349C6.14153 16.0619 5.74995 18.0215 5.75 20.0005V28.7505C5.75 29.4136 6.01339 30.0494 6.48223 30.5183C6.95107 30.9871 7.58696 31.2505 8.25 31.2505H10.75C11.413 31.2505 12.0489 30.9871 12.5178 30.5183C12.9866 30.0494 13.25 29.4136 13.25 28.7505V22.5005C13.25 21.8375 12.9866 21.2016 12.5178 20.7328C12.0489 20.2639 11.413 20.0005 10.75 20.0005H5.75" stroke="url(#paint0_linear_3071_19920)" stroke-width="2" stroke-linecap="round" stroke-linejoin="round"/>
<path d="M35.9844 28.75V32.5C35.9844 33.8261 35.4576 35.0979 34.5199 36.0355C33.5822 36.9732 32.3105 37.5 30.9844 37.5H22" stroke="url(#paint1_linear_3071_19920)" stroke-width="2" stroke-linecap="round" stroke-linejoin="round"/>
<defs>
<linearGradient id="paint0_linear_3071_19920" x1="5.75" y1="18.48" x2="35.9844" y2="18.48" gradientUnits="userSpaceOnUse">
<stop stop-color="#00469F"/>
<stop offset="1" stop-color="#1E79D6"/>
</linearGradient>
<linearGradient id="paint1_linear_3071_19920" x1="22" y1="33.2432" x2="35.9844" y2="33.2432" gradientUnits="userSpaceOnUse">
<stop stop-color="#00469F"/>
<stop offset="1" stop-color="#1E79D6"/>
</linearGradient>
</defs>
</svg>
