<svg width="40" height="40" viewBox="0 0 40 40" fill="none" xmlns="http://www.w3.org/2000/svg">
<path d="M15 20H25" stroke="url(#paint0_linear_3071_19895)" stroke-width="2" stroke-linecap="round" stroke-linejoin="round"/>
<path d="M15 25H25" stroke="url(#paint1_linear_3071_19895)" stroke-width="2" stroke-linecap="round" stroke-linejoin="round"/>
<path d="M8.75 6.25H31.25C31.5815 6.25 31.8995 6.3817 32.1339 6.61612C32.3683 6.85054 32.5 7.16848 32.5 7.5V31.25C32.5 32.2446 32.1049 33.1984 31.4017 33.9017C30.6984 34.6049 29.7446 35 28.75 35H11.25C10.2554 35 9.30161 34.6049 8.59835 33.9017C7.89509 33.1984 7.5 32.2446 7.5 31.25V7.5C7.5 7.16848 7.6317 6.85054 7.86612 6.61612C8.10054 6.3817 8.41848 6.25 8.75 6.25V6.25Z" stroke="url(#paint2_linear_3071_19895)" stroke-width="2" stroke-linecap="round" stroke-linejoin="round"/>
<path d="M12.5 3.75V8.75" stroke="url(#paint3_linear_3071_19895)" stroke-width="2" stroke-linecap="round" stroke-linejoin="round"/>
<path d="M20 3.75V8.75" stroke="url(#paint4_linear_3071_19895)" stroke-width="2" stroke-linecap="round" stroke-linejoin="round"/>
<path d="M27.5 3.75V8.75" stroke="url(#paint5_linear_3071_19895)" stroke-width="2" stroke-linecap="round" stroke-linejoin="round"/>
<defs>
<linearGradient id="paint0_linear_3071_19895" x1="15" y1="20.5135" x2="25" y2="20.5135" gradientUnits="userSpaceOnUse">
<stop stop-color="#00469F"/>
<stop offset="1" stop-color="#1E79D6"/>
</linearGradient>
<linearGradient id="paint1_linear_3071_19895" x1="15" y1="25.5135" x2="25" y2="25.5135" gradientUnits="userSpaceOnUse">
<stop stop-color="#00469F"/>
<stop offset="1" stop-color="#1E79D6"/>
</linearGradient>
<linearGradient id="paint2_linear_3071_19895" x1="7.5" y1="21.0135" x2="32.5" y2="21.0135" gradientUnits="userSpaceOnUse">
<stop stop-color="#00469F"/>
<stop offset="1" stop-color="#1E79D6"/>
</linearGradient>
<linearGradient id="paint3_linear_3071_19895" x1="12.5" y1="6.31757" x2="13.5" y2="6.31757" gradientUnits="userSpaceOnUse">
<stop stop-color="#00469F"/>
<stop offset="1" stop-color="#1E79D6"/>
</linearGradient>
<linearGradient id="paint4_linear_3071_19895" x1="20" y1="6.31757" x2="21" y2="6.31757" gradientUnits="userSpaceOnUse">
<stop stop-color="#00469F"/>
<stop offset="1" stop-color="#1E79D6"/>
</linearGradient>
<linearGradient id="paint5_linear_3071_19895" x1="27.5" y1="6.31757" x2="28.5" y2="6.31757" gradientUnits="userSpaceOnUse">
<stop stop-color="#00469F"/>
<stop offset="1" stop-color="#1E79D6"/>
</linearGradient>
</defs>
</svg>
