<svg width="48" height="48" viewBox="0 0 48 48" fill="none" xmlns="http://www.w3.org/2000/svg">
<path d="M17.3999 34.6504C20.1958 34.6504 22.4624 32.3838 22.4624 29.5879C22.4624 26.7919 20.1958 24.5254 17.3999 24.5254C14.604 24.5254 12.3374 26.7919 12.3374 29.5879C12.3374 32.3838 14.604 34.6504 17.3999 34.6504Z" stroke="url(#paint0_linear_3071_19900)" stroke-width="2" stroke-miterlimit="10"/>
<path d="M9.27441 39.6377C10.0362 38.1372 11.1986 36.877 12.6328 35.9967C14.067 35.1164 15.7169 34.6504 17.3997 34.6504C19.0825 34.6504 20.7325 35.1164 22.1667 35.9967C23.6008 36.877 24.7632 38.1372 25.525 39.6377" stroke="url(#paint1_linear_3071_19900)" stroke-width="2" stroke-linecap="round" stroke-linejoin="round"/>
<path d="M29.3981 28.6901C29.5005 29.322 29.5513 29.9611 29.55 30.6012C29.55 33.0042 28.8374 35.3533 27.5024 37.3514C26.1673 39.3494 24.2697 40.9067 22.0496 41.8263C19.8295 42.7459 17.3865 42.9865 15.0297 42.5177C12.6728 42.0489 10.5079 40.8918 8.80866 39.1925C7.10945 37.4933 5.95227 35.3284 5.48346 32.9715C5.01465 30.6147 5.25526 28.1717 6.17487 25.9516C7.09447 23.7315 8.65177 21.8339 10.6498 20.4988C12.6479 19.1638 14.997 18.4512 17.4 18.4512C18.0401 18.4499 18.6792 18.5007 19.3111 18.6031" stroke="url(#paint2_linear_3071_19900)" stroke-width="2" stroke-linecap="round" stroke-linejoin="round"/>
<path d="M26.184 20.8071L26.0422 11.3581C26.0296 10.5228 26.3494 9.7167 26.9312 9.11716C27.513 8.51762 28.3092 8.17375 29.1445 8.16121C29.9799 8.14867 30.786 8.46848 31.3855 9.05028C31.985 9.63208 32.3289 10.4282 32.3415 11.2636L32.4833 20.7125C32.499 21.7567 32.9288 22.7518 33.6783 23.4791C34.4277 24.2064 35.4353 24.6061 36.4795 24.5904C37.5237 24.5748 38.5189 24.1449 39.2461 23.3955C39.9734 22.6461 40.3731 21.6384 40.3574 20.5943L40.2037 10.3579" stroke="url(#paint3_linear_3071_19900)" stroke-width="2" stroke-linecap="round" stroke-linejoin="round"/>
<path d="M44.0801 6.31379C44.0477 4.153 42.2697 2.42764 40.1089 2.46008C37.9481 2.49253 36.2228 4.2705 36.2552 6.43129C36.2877 8.59208 38.0656 10.3174 40.2264 10.285C42.3872 10.2526 44.1126 8.47459 44.0801 6.31379Z" fill="url(#paint4_linear_3071_19900)" stroke="url(#paint5_linear_3071_19900)" stroke-width="1.8" stroke-linecap="round" stroke-linejoin="round"/>
<path d="M41.7611 5.55078L39.5943 7.61797L38.5127 6.58437" stroke="#F5F7FD" stroke-width="1.08" stroke-linecap="round" stroke-linejoin="round"/>
<defs>
<linearGradient id="paint0_linear_3071_19900" x1="12.3374" y1="29.7247" x2="22.4624" y2="29.7247" gradientUnits="userSpaceOnUse">
<stop stop-color="#00469F"/>
<stop offset="1" stop-color="#1E79D6"/>
</linearGradient>
<linearGradient id="paint1_linear_3071_19900" x1="9.27441" y1="37.2115" x2="25.525" y2="37.2115" gradientUnits="userSpaceOnUse">
<stop stop-color="#00469F"/>
<stop offset="1" stop-color="#1E79D6"/>
</linearGradient>
<linearGradient id="paint2_linear_3071_19900" x1="5.25" y1="30.9296" x2="29.55" y2="30.9296" gradientUnits="userSpaceOnUse">
<stop stop-color="#00469F"/>
<stop offset="1" stop-color="#1E79D6"/>
</linearGradient>
<linearGradient id="paint3_linear_3071_19900" x1="33.5214" y1="24.6349" x2="33.2731" y2="8.09922" gradientUnits="userSpaceOnUse">
<stop stop-color="#00469F"/>
<stop offset="1" stop-color="#1E79D6"/>
</linearGradient>
<linearGradient id="paint4_linear_3071_19900" x1="40.3322" y1="10.2834" x2="40.2147" y2="2.4585" gradientUnits="userSpaceOnUse">
<stop stop-color="#00469F"/>
<stop offset="1" stop-color="#1E79D6"/>
</linearGradient>
<linearGradient id="paint5_linear_3071_19900" x1="40.3322" y1="10.2834" x2="40.2147" y2="2.4585" gradientUnits="userSpaceOnUse">
<stop stop-color="#00469F"/>
<stop offset="1" stop-color="#1E79D6"/>
</linearGradient>
</defs>
</svg>
