<svg width="576" height="413" viewBox="0 0 576 413" fill="none" xmlns="http://www.w3.org/2000/svg">
<g filter="url(#filter0_d_266_5809)">
<rect x="40" y="38" width="153" height="204.098" rx="10" fill="white" shape-rendering="crispEdges"/>
<circle cx="78.5" cy="76.5" r="18.5" fill="#F8F8FA"/>
<path d="M80.5 84C80.5 84 79.375 82.8636 80.5 81.5C81.625 80.1364 80.5 79 80.5 79" stroke="#393E50" stroke-width="0.5" stroke-linecap="round" stroke-linejoin="round"/>
<path d="M78.5 84C78.5 84 77.375 82.8636 78.5 81.5C79.625 80.1364 78.5 79 78.5 79" stroke="#393E50" stroke-width="0.5" stroke-linecap="round" stroke-linejoin="round"/>
<path d="M76.5 84C76.5 84 75.375 82.8636 76.5 81.5C77.625 80.1364 76.5 79 76.5 79" stroke="#393E50" stroke-width="0.5" stroke-linecap="round" stroke-linejoin="round"/>
<rect x="71.25" y="70.25" width="14.5" height="8.5" rx="0.75" stroke="#393E50" stroke-width="0.5"/>
<line x1="71" y1="76.75" x2="86" y2="76.75" stroke="#393E50" stroke-width="0.5"/>
<line x1="81" y1="72.75" x2="84" y2="72.75" stroke="#393E50" stroke-width="0.5"/>
<rect x="157" y="66" width="15" height="25" rx="7.5" fill="#DCE5E2"/>
<rect x="160" y="69" width="9" height="9" rx="4.5" fill="#488467"/>
<path d="M68.3203 120H70.8281L66.9062 108.727H64.1328L60.2188 120H62.6406L63.5 117.266H67.4609L68.3203 120ZM65.4531 110.883H65.5078L66.9531 115.5H64.0078L65.4531 110.883ZM71.8281 120H74.1094V111.625H71.8281V120ZM72.9688 110.703C73.6562 110.703 74.1875 110.18 74.1875 109.523C74.1875 108.859 73.6562 108.344 72.9688 108.344C72.2812 108.344 71.75 108.859 71.75 109.523C71.75 110.18 72.2812 110.703 72.9688 110.703ZM75.6328 120H77.9141V115.32C77.9141 114.141 78.5703 113.453 79.6953 113.453C80.0234 113.453 80.3359 113.508 80.5234 113.586V111.578C80.3672 111.531 80.1406 111.492 79.875 111.492C78.8906 111.492 78.1797 112.07 77.8828 113.133H77.8359V111.625H75.6328V120ZM89.8125 120.195C92.5781 120.195 94.5078 118.602 94.7734 116.086H92.4766C92.2266 117.422 91.2188 118.242 89.8203 118.242C88.0156 118.242 86.8828 116.758 86.8828 114.352C86.8828 111.977 88.0312 110.484 89.8125 110.484C91.1875 110.484 92.25 111.391 92.4688 112.773H94.7656C94.5859 110.25 92.5234 108.531 89.8125 108.531C86.5469 108.531 84.4766 110.727 84.4766 114.359C84.4766 118 86.5312 120.195 89.8125 120.195ZM99.8828 120.18C102.414 120.18 104.031 118.562 104.031 115.805C104.031 113.086 102.391 111.445 99.8828 111.445C97.375 111.445 95.7344 113.094 95.7344 115.805C95.7344 118.555 97.3516 120.18 99.8828 120.18ZM99.8828 118.438C98.7578 118.438 98.0469 117.492 98.0469 115.812C98.0469 114.148 98.7734 113.188 99.8828 113.188C100.992 113.188 101.711 114.148 101.711 115.812C101.711 117.492 101 118.438 99.8828 118.438ZM105.211 120H107.492V115.195C107.492 114.109 108.141 113.359 109.164 113.359C110.188 113.359 110.703 113.984 110.703 115.078V120H112.984V114.602C112.984 112.641 111.938 111.469 110.078 111.469C108.789 111.469 107.906 112.078 107.461 113.117H107.414V111.625H105.211V120ZM117.539 120.133C118.773 120.133 119.742 119.484 120.148 118.562H120.188V120H122.438V108.727H120.156V113.062H120.109C119.703 112.133 118.766 111.492 117.555 111.492C115.453 111.492 114.125 113.141 114.125 115.797C114.125 118.477 115.445 120.133 117.539 120.133ZM118.312 113.32C119.445 113.32 120.172 114.289 120.172 115.812C120.172 117.344 119.445 118.297 118.312 118.297C117.164 118.297 116.461 117.352 116.461 115.812C116.461 114.281 117.164 113.32 118.312 113.32ZM124 120H126.281V111.625H124V120ZM125.141 110.703C125.828 110.703 126.359 110.18 126.359 109.523C126.359 108.859 125.828 108.344 125.141 108.344C124.453 108.344 123.922 108.859 123.922 109.523C123.922 110.18 124.453 110.703 125.141 110.703ZM128.414 109.695V111.625H127.234V113.344H128.414V117.742C128.414 119.375 129.18 120.031 131.148 120.031C131.609 120.031 132 119.992 132.234 119.938V118.258C132.094 118.281 131.883 118.297 131.68 118.297C131.008 118.297 130.695 117.992 130.695 117.352V113.344H132.242V111.625H130.695V109.695H128.414ZM133.531 120H135.812V111.625H133.531V120ZM134.672 110.703C135.359 110.703 135.891 110.18 135.891 109.523C135.891 108.859 135.359 108.344 134.672 108.344C133.984 108.344 133.453 108.859 133.453 109.523C133.453 110.18 133.984 110.703 134.672 110.703ZM141.18 120.18C143.711 120.18 145.328 118.562 145.328 115.805C145.328 113.086 143.688 111.445 141.18 111.445C138.672 111.445 137.031 113.094 137.031 115.805C137.031 118.555 138.648 120.18 141.18 120.18ZM141.18 118.438C140.055 118.438 139.344 117.492 139.344 115.812C139.344 114.148 140.07 113.188 141.18 113.188C142.289 113.188 143.008 114.148 143.008 115.812C143.008 117.492 142.297 118.438 141.18 118.438ZM146.508 120H148.789V115.195C148.789 114.109 149.438 113.359 150.461 113.359C151.484 113.359 152 113.984 152 115.078V120H154.281V114.602C154.281 112.641 153.234 111.469 151.375 111.469C150.086 111.469 149.203 112.078 148.758 113.117H148.711V111.625H146.508V120ZM159.484 113.133C160.5 113.133 161.195 113.867 161.242 114.938H157.688C157.766 113.891 158.484 113.133 159.484 113.133ZM161.273 117.438C161.062 118.078 160.422 118.492 159.586 118.492C158.422 118.492 157.664 117.672 157.664 116.477V116.336H163.438V115.641C163.438 113.094 161.898 111.445 159.461 111.445C156.984 111.445 155.422 113.18 155.422 115.852C155.422 118.531 156.969 120.18 159.547 120.18C161.617 120.18 163.117 119.078 163.367 117.438H161.273ZM164.617 120H166.898V115.32C166.898 114.141 167.555 113.453 168.68 113.453C169.008 113.453 169.32 113.508 169.508 113.586V111.578C169.352 111.531 169.125 111.492 168.859 111.492C167.875 111.492 167.164 112.07 166.867 113.133H166.82V111.625H164.617V120Z" fill="#393E50"/>
<path d="M61.1719 140H62.2793L66.041 132.523V131.545H60.4453V132.482H64.998V132.506L61.1719 140ZM68.2969 136.613V131.545H67.2773V140H68.2969V137.703L68.8652 137.164L71.127 140H72.3105L69.5859 136.537L72.2285 133.906H70.9922L68.2969 136.613ZM77.9004 133.291H77.959L79.9102 140H80.9062L83.209 131.545H82.1074L80.4141 138.447H80.3672L78.4629 131.545H77.3965L75.4922 138.447H75.4453L73.752 131.545H72.6504L74.9531 140H75.9492L77.9004 133.291ZM84.1875 140H85.207V136.449C85.207 135.395 85.834 134.703 86.8477 134.703C87.8027 134.703 88.2891 135.283 88.2891 136.25V140H89.3086V136.062C89.3086 134.703 88.5 133.801 87.1641 133.801C86.2383 133.801 85.5703 134.199 85.2305 134.879H85.207V131.545H84.1875V140ZM94.7637 141.799V131.545H93.9082V141.799H94.7637ZM104.396 133.906H103.377V137.486C103.377 138.523 102.779 139.203 101.789 139.203C100.846 139.203 100.383 138.67 100.383 137.68V133.906H99.3633V137.861C99.3633 139.244 100.143 140.105 101.473 140.105C102.41 140.105 103.043 139.713 103.406 139.01H103.43V140H104.396V133.906ZM108.68 133.801C107.795 133.801 107.086 134.252 106.711 134.938H106.688V133.906H105.721V142.033H106.74V139.01H106.764C107.127 139.678 107.83 140.105 108.703 140.105C110.238 140.105 111.287 138.863 111.287 136.953C111.287 135.043 110.232 133.801 108.68 133.801ZM108.48 139.209C107.438 139.209 106.734 138.312 106.734 136.953C106.734 135.6 107.438 134.697 108.48 134.697C109.564 134.697 110.244 135.576 110.244 136.953C110.244 138.336 109.564 139.209 108.48 139.209ZM115.107 140H116.127V134.744H117.369V133.906H116.121V133.232C116.121 132.629 116.385 132.336 116.936 132.336C117.105 132.336 117.275 132.354 117.398 132.371V131.545C117.252 131.521 117.006 131.498 116.777 131.498C115.652 131.498 115.107 132.055 115.107 133.227V133.906H114.258V134.744H115.107V140ZM120.656 140.105C122.338 140.105 123.475 138.893 123.475 136.953C123.475 135.008 122.338 133.801 120.656 133.801C118.969 133.801 117.832 135.008 117.832 136.953C117.832 138.893 118.969 140.105 120.656 140.105ZM120.656 139.209C119.578 139.209 118.869 138.389 118.869 136.953C118.869 135.518 119.578 134.697 120.656 134.697C121.734 134.697 122.438 135.518 122.438 136.953C122.438 138.389 121.734 139.209 120.656 139.209ZM124.506 140H125.525V136.203C125.525 135.342 126.041 134.773 126.832 134.773C127.078 134.773 127.295 134.803 127.377 134.832V133.842C127.295 133.83 127.143 133.801 126.967 133.801C126.252 133.801 125.689 134.229 125.49 134.902H125.467V133.906H124.506V140ZM133.752 140.146C135.486 140.146 136.746 138.928 136.746 137.258C136.746 135.652 135.551 134.463 133.939 134.463C132.891 134.463 131.959 135.008 131.578 135.834H131.561C131.596 133.584 132.398 132.33 133.811 132.33C134.648 132.33 135.328 132.822 135.557 133.59H136.629C136.359 132.26 135.258 131.398 133.822 131.398C131.754 131.398 130.541 133.068 130.541 135.916C130.541 136.83 130.676 137.592 130.957 138.242C131.479 139.461 132.486 140.146 133.752 140.146ZM133.74 139.209C132.656 139.209 131.812 138.348 131.812 137.264C131.812 136.186 132.639 135.389 133.758 135.389C134.877 135.389 135.674 136.186 135.674 137.293C135.674 138.359 134.818 139.209 133.74 139.209ZM137.906 140H138.926V136.449C138.926 135.395 139.553 134.703 140.566 134.703C141.521 134.703 142.008 135.283 142.008 136.25V140H143.027V136.062C143.027 134.703 142.219 133.801 140.883 133.801C139.957 133.801 139.289 134.199 138.949 134.879H138.926V131.545H137.906V140ZM148.529 136.098H149.59C150.797 136.098 151.547 136.713 151.547 137.709C151.547 138.594 150.744 139.227 149.625 139.227C148.488 139.227 147.768 138.629 147.674 137.762H146.66C146.736 139.162 147.867 140.141 149.637 140.141C151.295 140.141 152.619 139.127 152.619 137.674C152.619 136.484 151.799 135.693 150.521 135.617V135.594C151.576 135.406 152.256 134.645 152.256 133.584C152.256 132.312 151.113 131.404 149.602 131.404C148.014 131.404 146.947 132.324 146.83 133.76H147.844C147.938 132.875 148.582 132.318 149.555 132.318C150.627 132.318 151.195 132.887 151.195 133.725C151.195 134.58 150.516 135.207 149.543 135.207H148.529V136.098ZM153.885 140H154.904V136.18C154.904 135.336 155.49 134.703 156.299 134.703C157.055 134.703 157.547 135.184 157.547 135.916V140H158.566V136.127C158.566 135.301 159.135 134.703 159.943 134.703C160.746 134.703 161.209 135.195 161.209 136.027V140H162.229V135.793C162.229 134.586 161.449 133.801 160.242 133.801C159.387 133.801 158.672 134.234 158.332 134.961H158.309C158.045 134.223 157.43 133.801 156.598 133.801C155.777 133.801 155.156 134.234 154.869 134.879H154.846V133.906H153.885V140Z" fill="#393E50" fill-opacity="0.4"/>
<path d="M40 163H193V232.098C193 237.621 188.523 242.098 183 242.098H50C44.4772 242.098 40 237.621 40 232.098V163Z" fill="#393E50" fill-opacity="0.05"/>
<path d="M57.5 198.098C75.6667 182.932 124.7 161.698 175.5 198.098" stroke="url(#paint0_linear_266_5809)" stroke-width="2"/>
<g filter="url(#filter1_d_266_5809)">
<circle cx="152.5" cy="186" r="8" fill="white"/>
</g>
<circle cx="152.5" cy="186" r="4" fill="url(#paint1_linear_266_5809)"/>
<path d="M98.6641 215.215V215.254H100.852V215.215C100.852 214.176 101.656 213.411 102.75 213.411C103.797 213.411 104.539 214.083 104.539 214.926C104.539 215.708 104.188 216.278 103.047 217.418L98.7969 221.512V223.098H106.992V221.223H101.906V221.176L104.656 218.528C105.898 217.293 106.836 216.239 106.836 214.833C106.836 212.95 105.203 211.575 102.828 211.575C100.367 211.575 98.6641 213.083 98.6641 215.215ZM113.625 223.098H115.867V221.09H117.336V219.2H115.867V211.825H112.539C110.227 215.231 109 217.208 108.016 219.083V221.09H113.625V223.098ZM110.086 219.208C111 217.442 111.984 215.903 113.625 213.497H113.672V219.27H110.086V219.208ZM120.688 216.692C122.086 216.692 123.172 215.606 123.172 214.2C123.172 212.801 122.094 211.715 120.688 211.715C119.281 211.715 118.203 212.801 118.203 214.2C118.203 215.606 119.281 216.692 120.688 216.692ZM120.688 215.348C120.078 215.348 119.562 214.817 119.562 214.2C119.562 213.567 120.086 213.059 120.688 213.059C121.32 213.059 121.812 213.567 121.812 214.2C121.812 214.817 121.328 215.348 120.688 215.348ZM129.422 223.293C132.188 223.293 134.117 221.7 134.383 219.184H132.086C131.836 220.52 130.828 221.34 129.43 221.34C127.625 221.34 126.492 219.856 126.492 217.45C126.492 215.075 127.641 213.583 129.422 213.583C130.797 213.583 131.859 214.489 132.078 215.872H134.375C134.195 213.348 132.133 211.629 129.422 211.629C126.156 211.629 124.086 213.825 124.086 217.458C124.086 221.098 126.141 223.293 129.422 223.293Z" fill="#393E50"/>
</g>
<rect x="40" y="262.098" width="153" height="115" rx="10" fill="white"/>
<circle cx="78.5" cy="290.598" r="18.5" fill="#F8F8FA"/>
<path d="M70.6667 296.098H87.3333C88.2538 296.098 89 295.451 89 294.654V284.543C89 283.745 88.2538 283.098 87.3333 283.098H70.6667C69.7462 283.098 69 283.745 69 284.543V294.654C69 295.451 69.7462 296.098 70.6667 296.098Z" stroke="#393E50" stroke-width="0.5" stroke-linecap="round" stroke-linejoin="round"/>
<path d="M82 298.098H76" stroke="#393E50" stroke-width="0.5" stroke-linecap="round" stroke-linejoin="round"/>
<rect x="157" y="280.098" width="15" height="25" rx="7.5" fill="#EBEBED"/>
<rect x="160" y="293.098" width="9" height="9" rx="4.5" fill="#71747D"/>
<path d="M65.9922 334.098V324.77H69.2578V322.825H60.375V324.77H63.6328V334.098H65.9922ZM72.2812 327.231C73.2969 327.231 73.9922 327.965 74.0391 329.036H70.4844C70.5625 327.989 71.2812 327.231 72.2812 327.231ZM74.0703 331.536C73.8594 332.176 73.2188 332.59 72.3828 332.59C71.2188 332.59 70.4609 331.77 70.4609 330.575V330.434H76.2344V329.739C76.2344 327.192 74.6953 325.543 72.2578 325.543C69.7812 325.543 68.2188 327.278 68.2188 329.95C68.2188 332.629 69.7656 334.278 72.3438 334.278C74.4141 334.278 75.9141 333.176 76.1641 331.536H74.0703ZM77.4688 334.098H79.75V322.825H77.4688V334.098ZM85.0469 327.231C86.0625 327.231 86.7578 327.965 86.8047 329.036H83.25C83.3281 327.989 84.0469 327.231 85.0469 327.231ZM86.8359 331.536C86.625 332.176 85.9844 332.59 85.1484 332.59C83.9844 332.59 83.2266 331.77 83.2266 330.575V330.434H89V329.739C89 327.192 87.4609 325.543 85.0234 325.543C82.5469 325.543 80.9844 327.278 80.9844 329.95C80.9844 332.629 82.5312 334.278 85.1094 334.278C87.1797 334.278 88.6797 333.176 88.9297 331.536H86.8359ZM97.7109 325.723H95.3281L93.5938 332.083H93.5469L91.8047 325.723H89.3594L92.2578 334.098H94.8359L97.7109 325.723ZM98.5469 334.098H100.828V325.723H98.5469V334.098ZM99.6875 324.801C100.375 324.801 100.906 324.278 100.906 323.622C100.906 322.958 100.375 322.442 99.6875 322.442C99 322.442 98.4688 322.958 98.4688 323.622C98.4688 324.278 99 324.801 99.6875 324.801ZM102.211 328.184C102.211 329.418 103.023 330.247 104.609 330.606L106.156 330.95C106.906 331.129 107.188 331.364 107.188 331.786C107.188 332.333 106.664 332.676 105.797 332.676C104.891 332.676 104.336 332.27 104.227 331.567H102C102.125 333.2 103.5 334.278 105.734 334.278C107.945 334.278 109.461 333.192 109.461 331.543C109.461 330.293 108.781 329.629 107.102 329.254L105.5 328.911C104.766 328.739 104.406 328.458 104.406 328.043C104.406 327.504 104.922 327.145 105.711 327.145C106.555 327.145 107.094 327.559 107.141 328.231H109.242C109.211 326.606 107.844 325.543 105.742 325.543C103.594 325.543 102.211 326.59 102.211 328.184ZM110.641 334.098H112.922V325.723H110.641V334.098ZM111.781 324.801C112.469 324.801 113 324.278 113 323.622C113 322.958 112.469 322.442 111.781 322.442C111.094 322.442 110.562 322.958 110.562 323.622C110.562 324.278 111.094 324.801 111.781 324.801ZM118.289 334.278C120.82 334.278 122.438 332.661 122.438 329.903C122.438 327.184 120.797 325.543 118.289 325.543C115.781 325.543 114.141 327.192 114.141 329.903C114.141 332.653 115.758 334.278 118.289 334.278ZM118.289 332.536C117.164 332.536 116.453 331.59 116.453 329.911C116.453 328.247 117.18 327.286 118.289 327.286C119.398 327.286 120.117 328.247 120.117 329.911C120.117 331.59 119.406 332.536 118.289 332.536ZM123.617 334.098H125.898V329.293C125.898 328.208 126.547 327.458 127.57 327.458C128.594 327.458 129.109 328.083 129.109 329.176V334.098H131.391V328.7C131.391 326.739 130.344 325.567 128.484 325.567C127.195 325.567 126.312 326.176 125.867 327.215H125.82V325.723H123.617V334.098Z" fill="#393E50"/>
<path d="M63.6445 354.239C65.6133 354.239 66.75 352.534 66.75 349.862C66.75 347.208 65.6074 345.502 63.6445 345.502C61.6816 345.502 60.5273 347.219 60.5273 349.868C60.5273 352.54 61.6699 354.239 63.6445 354.239ZM63.6445 353.319C62.3203 353.319 61.5879 351.971 61.5879 349.862C61.5879 347.799 62.3379 346.428 63.6445 346.428C64.9512 346.428 65.6895 347.788 65.6895 349.868C65.6895 351.977 64.9629 353.319 63.6445 353.319ZM69.0117 350.711V345.643H67.9922V354.098H69.0117V351.801L69.5801 351.262L71.8418 354.098H73.0254L70.3008 350.635L72.9434 348.004H71.707L69.0117 350.711ZM78.6152 347.389H78.6738L80.625 354.098H81.6211L83.9238 345.643H82.8223L81.1289 352.545H81.082L79.1777 345.643H78.1113L76.207 352.545H76.1602L74.4668 345.643H73.3652L75.668 354.098H76.6641L78.6152 347.389ZM84.9023 354.098H85.9219V350.547C85.9219 349.493 86.5488 348.801 87.5625 348.801C88.5176 348.801 89.0039 349.381 89.0039 350.348V354.098H90.0234V350.161C90.0234 348.801 89.2148 347.899 87.8789 347.899C86.9531 347.899 86.2852 348.297 85.9453 348.977H85.9219V345.643H84.9023V354.098ZM95.4785 355.897V345.643H94.623V355.897H95.4785ZM103.066 347.899C102.182 347.899 101.473 348.35 101.098 349.036H101.074V348.004H100.107V356.131H101.127V353.108H101.15C101.514 353.776 102.217 354.204 103.09 354.204C104.625 354.204 105.674 352.961 105.674 351.051C105.674 349.141 104.619 347.899 103.066 347.899ZM102.867 353.307C101.824 353.307 101.121 352.411 101.121 351.051C101.121 349.698 101.824 348.795 102.867 348.795C103.951 348.795 104.631 349.674 104.631 351.051C104.631 352.434 103.951 353.307 102.867 353.307ZM109.23 354.204C110.912 354.204 112.049 352.991 112.049 351.051C112.049 349.106 110.912 347.899 109.23 347.899C107.543 347.899 106.406 349.106 106.406 351.051C106.406 352.991 107.543 354.204 109.23 354.204ZM109.23 353.307C108.152 353.307 107.443 352.487 107.443 351.051C107.443 349.616 108.152 348.795 109.23 348.795C110.309 348.795 111.012 349.616 111.012 351.051C111.012 352.487 110.309 353.307 109.23 353.307ZM120.832 348.004H119.824L118.605 352.961H118.582L117.199 348.004H116.215L114.838 352.961H114.814L113.596 348.004H112.582L114.287 354.098H115.324L116.695 349.381H116.719L118.096 354.098H119.133L120.832 348.004ZM124.113 348.784C125.074 348.784 125.713 349.51 125.736 350.53H122.426C122.49 349.516 123.158 348.784 124.113 348.784ZM125.713 352.352C125.543 352.926 124.975 353.319 124.201 353.319C123.105 353.319 122.42 352.551 122.42 351.385V351.327H126.791V350.94C126.791 349.094 125.777 347.899 124.131 347.899C122.449 347.899 121.371 349.182 121.371 351.075C121.371 352.991 122.432 354.204 124.178 354.204C125.508 354.204 126.539 353.418 126.715 352.352H125.713ZM127.822 354.098H128.842V350.301C128.842 349.44 129.357 348.872 130.148 348.872C130.395 348.872 130.611 348.901 130.693 348.93V347.94C130.611 347.928 130.459 347.899 130.283 347.899C129.568 347.899 129.006 348.327 128.807 349H128.783V348.004H127.822V354.098ZM136.512 354.204C138.193 354.204 139.33 352.991 139.33 351.051C139.33 349.106 138.193 347.899 136.512 347.899C134.824 347.899 133.688 349.106 133.688 351.051C133.688 352.991 134.824 354.204 136.512 354.204ZM136.512 353.307C135.434 353.307 134.725 352.487 134.725 351.051C134.725 349.616 135.434 348.795 136.512 348.795C137.59 348.795 138.293 349.616 138.293 351.051C138.293 352.487 137.59 353.307 136.512 353.307ZM140.689 354.098H141.709V348.842H142.951V348.004H141.703V347.331C141.703 346.727 141.967 346.434 142.518 346.434C142.688 346.434 142.857 346.452 142.98 346.469V345.643C142.834 345.62 142.588 345.596 142.359 345.596C141.234 345.596 140.689 346.153 140.689 347.325V348.004H139.84V348.842H140.689V354.098ZM144.334 354.098H145.354V348.842H146.596V348.004H145.348V347.331C145.348 346.727 145.611 346.434 146.162 346.434C146.332 346.434 146.502 346.452 146.625 346.469V345.643C146.479 345.62 146.232 345.596 146.004 345.596C144.879 345.596 144.334 346.153 144.334 347.325V348.004H143.484V348.842H144.334V354.098Z" fill="#393E50" fill-opacity="0.4"/>
<rect x="40.5" y="262.598" width="152" height="114" rx="9.5" stroke="#393E50" stroke-opacity="0.1"/>
<rect x="386" y="231" width="153" height="115" rx="10" fill="white"/>
<circle cx="424.5" cy="259.5" r="18.5" fill="#F8F8FA"/>
<path d="M421 254V251H428V254" stroke="#393E50" stroke-linecap="round" stroke-linejoin="round"/>
<path d="M430 261H419V267H430V261Z" stroke="#393E50" stroke-linecap="round" stroke-linejoin="round"/>
<path d="M418.42 263H415V255.5C415 254.675 415.741 254 416.643 254H432.356C433.259 254 434 254.675 434 255.5V263H430.58" stroke="#393E50" stroke-linecap="round" stroke-linejoin="round"/>
<path d="M431.938 257C431.938 257.518 431.518 257.938 431 257.938C430.482 257.938 430.062 257.518 430.062 257C430.062 256.482 430.482 256.062 431 256.062C431.518 256.062 431.938 256.482 431.938 257Z" fill="#393E50" stroke="#393E50" stroke-width="0.125"/>
<rect x="503" y="249" width="15" height="25" rx="7.5" fill="#EBEBED"/>
<rect x="506" y="262" width="9" height="9" rx="4.5" fill="#71747D"/>
<path d="M406.938 291.727V303H409.297V299.445H411.406C413.781 299.445 415.43 297.898 415.43 295.586C415.43 293.266 413.836 291.727 411.523 291.727H406.938ZM409.297 293.594H410.898C412.25 293.594 413.031 294.312 413.031 295.594C413.031 296.883 412.242 297.602 410.891 297.602H409.297V293.594ZM416.633 303H418.914V298.32C418.914 297.141 419.57 296.453 420.695 296.453C421.023 296.453 421.336 296.508 421.523 296.586V294.578C421.367 294.531 421.141 294.492 420.875 294.492C419.891 294.492 419.18 295.07 418.883 296.133H418.836V294.625H416.633V303ZM422.5 303H424.781V294.625H422.5V303ZM423.641 293.703C424.328 293.703 424.859 293.18 424.859 292.523C424.859 291.859 424.328 291.344 423.641 291.344C422.953 291.344 422.422 291.859 422.422 292.523C422.422 293.18 422.953 293.703 423.641 293.703ZM426.305 303H428.586V298.195C428.586 297.109 429.234 296.359 430.258 296.359C431.281 296.359 431.797 296.984 431.797 298.078V303H434.078V297.602C434.078 295.641 433.031 294.469 431.172 294.469C429.883 294.469 429 295.078 428.555 296.117H428.508V294.625H426.305V303ZM436.133 292.695V294.625H434.953V296.344H436.133V300.742C436.133 302.375 436.898 303.031 438.867 303.031C439.328 303.031 439.719 302.992 439.953 302.938V301.258C439.812 301.281 439.602 301.297 439.398 301.297C438.727 301.297 438.414 300.992 438.414 300.352V296.344H439.961V294.625H438.414V292.695H436.133ZM444.844 296.133C445.859 296.133 446.555 296.867 446.602 297.938H443.047C443.125 296.891 443.844 296.133 444.844 296.133ZM446.633 300.438C446.422 301.078 445.781 301.492 444.945 301.492C443.781 301.492 443.023 300.672 443.023 299.477V299.336H448.797V298.641C448.797 296.094 447.258 294.445 444.82 294.445C442.344 294.445 440.781 296.18 440.781 298.852C440.781 301.531 442.328 303.18 444.906 303.18C446.977 303.18 448.477 302.078 448.727 300.438H446.633ZM449.977 303H452.258V298.32C452.258 297.141 452.914 296.453 454.039 296.453C454.367 296.453 454.68 296.508 454.867 296.586V294.578C454.711 294.531 454.484 294.492 454.219 294.492C453.234 294.492 452.523 295.07 452.227 296.133H452.18V294.625H449.977V303Z" fill="#393E50"/>
<path d="M409.645 323.141C411.613 323.141 412.75 321.436 412.75 318.764C412.75 316.109 411.607 314.404 409.645 314.404C407.682 314.404 406.527 316.121 406.527 318.77C406.527 321.441 407.67 323.141 409.645 323.141ZM409.645 322.221C408.32 322.221 407.588 320.873 407.588 318.764C407.588 316.701 408.338 315.33 409.645 315.33C410.951 315.33 411.689 316.689 411.689 318.77C411.689 320.879 410.963 322.221 409.645 322.221ZM415.012 319.613V314.545H413.992V323H415.012V320.703L415.58 320.164L417.842 323H419.025L416.301 319.537L418.943 316.906H417.707L415.012 319.613ZM424.615 316.291H424.674L426.625 323H427.621L429.924 314.545H428.822L427.129 321.447H427.082L425.178 314.545H424.111L422.207 321.447H422.16L420.467 314.545H419.365L421.668 323H422.664L424.615 316.291ZM430.902 323H431.922V319.449C431.922 318.395 432.549 317.703 433.562 317.703C434.518 317.703 435.004 318.283 435.004 319.25V323H436.023V319.062C436.023 317.703 435.215 316.801 433.879 316.801C432.953 316.801 432.285 317.199 431.945 317.879H431.922V314.545H430.902V323ZM441.479 324.799V314.545H440.623V324.799H441.479ZM449.066 316.801C448.182 316.801 447.473 317.252 447.098 317.938H447.074V316.906H446.107V325.033H447.127V322.01H447.15C447.514 322.678 448.217 323.105 449.09 323.105C450.625 323.105 451.674 321.863 451.674 319.953C451.674 318.043 450.619 316.801 449.066 316.801ZM448.867 322.209C447.824 322.209 447.121 321.312 447.121 319.953C447.121 318.6 447.824 317.697 448.867 317.697C449.951 317.697 450.631 318.576 450.631 319.953C450.631 321.336 449.951 322.209 448.867 322.209ZM455.23 323.105C456.912 323.105 458.049 321.893 458.049 319.953C458.049 318.008 456.912 316.801 455.23 316.801C453.543 316.801 452.406 318.008 452.406 319.953C452.406 321.893 453.543 323.105 455.23 323.105ZM455.23 322.209C454.152 322.209 453.443 321.389 453.443 319.953C453.443 318.518 454.152 317.697 455.23 317.697C456.309 317.697 457.012 318.518 457.012 319.953C457.012 321.389 456.309 322.209 455.23 322.209ZM466.832 316.906H465.824L464.605 321.863H464.582L463.199 316.906H462.215L460.838 321.863H460.814L459.596 316.906H458.582L460.287 323H461.324L462.695 318.283H462.719L464.096 323H465.133L466.832 316.906ZM470.113 317.686C471.074 317.686 471.713 318.412 471.736 319.432H468.426C468.49 318.418 469.158 317.686 470.113 317.686ZM471.713 321.254C471.543 321.828 470.975 322.221 470.201 322.221C469.105 322.221 468.42 321.453 468.42 320.287V320.229H472.791V319.842C472.791 317.996 471.777 316.801 470.131 316.801C468.449 316.801 467.371 318.084 467.371 319.977C467.371 321.893 468.432 323.105 470.178 323.105C471.508 323.105 472.539 322.32 472.715 321.254H471.713ZM473.822 323H474.842V319.203C474.842 318.342 475.357 317.773 476.148 317.773C476.395 317.773 476.611 317.803 476.693 317.832V316.842C476.611 316.83 476.459 316.801 476.283 316.801C475.568 316.801 475.006 317.229 474.807 317.902H474.783V316.906H473.822V323ZM482.512 323.105C484.193 323.105 485.33 321.893 485.33 319.953C485.33 318.008 484.193 316.801 482.512 316.801C480.824 316.801 479.688 318.008 479.688 319.953C479.688 321.893 480.824 323.105 482.512 323.105ZM482.512 322.209C481.434 322.209 480.725 321.389 480.725 319.953C480.725 318.518 481.434 317.697 482.512 317.697C483.59 317.697 484.293 318.518 484.293 319.953C484.293 321.389 483.59 322.209 482.512 322.209ZM486.689 323H487.709V317.744H488.951V316.906H487.703V316.232C487.703 315.629 487.967 315.336 488.518 315.336C488.688 315.336 488.857 315.354 488.98 315.371V314.545C488.834 314.521 488.588 314.498 488.359 314.498C487.234 314.498 486.689 315.055 486.689 316.227V316.906H485.84V317.744H486.689V323ZM490.334 323H491.354V317.744H492.596V316.906H491.348V316.232C491.348 315.629 491.611 315.336 492.162 315.336C492.332 315.336 492.502 315.354 492.625 315.371V314.545C492.479 314.521 492.232 314.498 492.004 314.498C490.879 314.498 490.334 315.055 490.334 316.227V316.906H489.484V317.744H490.334V323Z" fill="#393E50" fill-opacity="0.4"/>
<rect x="386.5" y="231.5" width="152" height="114" rx="9.5" stroke="#393E50" stroke-opacity="0.1"/>
<rect x="213" y="74" width="153" height="204" rx="10" fill="white"/>
<circle cx="251.5" cy="112.5" r="18.5" fill="#F8F8FA"/>
<path d="M249 122H256" stroke="#393E50" stroke-linecap="round" stroke-linejoin="round"/>
<path d="M247.686 116C246.853 115.327 246.178 114.466 245.713 113.482C245.247 112.497 245.004 111.416 245 110.319C244.983 106.374 248.036 103.093 251.834 103.002C253.304 102.966 254.747 103.411 255.959 104.275C257.172 105.139 258.092 106.377 258.588 107.815C259.085 109.252 259.134 110.816 258.727 112.283C258.32 113.751 257.479 115.048 256.323 115.991C256.067 116.196 255.86 116.459 255.718 116.76C255.575 117.061 255.501 117.392 255.5 117.727V118.273C255.5 118.466 255.427 118.651 255.295 118.787C255.164 118.923 254.986 119 254.8 119H249.2C249.015 119 248.836 118.923 248.705 118.787C248.574 118.651 248.5 118.466 248.5 118.273V117.727C248.498 117.395 248.424 117.067 248.283 116.768C248.142 116.469 247.938 116.206 247.686 116V116Z" stroke="#393E50" stroke-linecap="round" stroke-linejoin="round"/>
<path d="M253 105C253.998 105.17 254.918 105.645 255.635 106.362C256.351 107.078 256.828 108 257 109" stroke="#393E50" stroke-width="0.5" stroke-linecap="round" stroke-linejoin="round"/>
<rect x="330" y="102" width="15" height="25" rx="7.5" fill="#DCE5E2"/>
<rect x="333" y="105" width="9" height="9" rx="4.5" fill="#488467"/>
<path d="M241.227 154.047H236.297V144.727H233.938V156H241.227V154.047ZM245.664 154.484C244.891 154.484 244.375 154.094 244.375 153.469C244.375 152.875 244.859 152.492 245.711 152.43L247.477 152.32V152.93C247.477 153.836 246.656 154.484 245.664 154.484ZM244.914 156.133C245.961 156.133 247 155.609 247.469 154.719H247.516V156H249.719V150.242C249.719 148.555 248.32 147.445 246.172 147.445C243.953 147.445 242.57 148.562 242.484 150.188H244.57C244.68 149.57 245.219 149.148 246.07 149.148C246.93 149.148 247.477 149.602 247.477 150.383V150.938L245.367 151.062C243.281 151.188 242.109 152.07 242.109 153.594C242.109 155.102 243.32 156.133 244.914 156.133ZM251.195 156H253.477V150.945C253.477 150.008 254.062 149.352 254.93 149.352C255.773 149.352 256.281 149.883 256.281 150.781V156H258.477V150.914C258.477 149.984 259.047 149.352 259.914 149.352C260.797 149.352 261.281 149.883 261.281 150.852V156H263.562V150.281C263.562 148.594 262.461 147.469 260.82 147.469C259.594 147.469 258.594 148.133 258.219 149.188H258.172C257.891 148.094 257.047 147.469 255.836 147.469C254.695 147.469 253.797 148.133 253.445 149.141H253.398V147.625H251.195V156ZM269.898 147.492C268.688 147.492 267.758 148.102 267.305 149.086H267.258V147.625H265.008V158.734H267.289V154.594H267.336C267.781 155.539 268.719 156.133 269.938 156.133C272.031 156.133 273.328 154.508 273.328 151.812C273.328 149.109 272.023 147.492 269.898 147.492ZM269.133 154.297C268.016 154.297 267.281 153.328 267.281 151.812C267.281 150.312 268.016 149.32 269.133 149.32C270.273 149.32 270.992 150.297 270.992 151.812C270.992 153.336 270.273 154.297 269.133 154.297ZM280.555 156H282.891V144.727H280.547L277.633 146.75V148.875L280.508 146.891H280.555V156Z" fill="#393E50"/>
<path d="M235.842 176H236.861V167.545H235.83L233.58 169.162V170.275L235.818 168.664H235.842V176ZM240.055 172.613V167.545H239.035V176H240.055V173.703L240.623 173.164L242.885 176H244.068L241.344 172.537L243.986 169.906H242.75L240.055 172.613ZM249.658 169.291H249.717L251.668 176H252.664L254.967 167.545H253.865L252.172 174.447H252.125L250.221 167.545H249.154L247.25 174.447H247.203L245.51 167.545H244.408L246.711 176H247.707L249.658 169.291ZM255.945 176H256.965V172.449C256.965 171.395 257.592 170.703 258.605 170.703C259.561 170.703 260.047 171.283 260.047 172.25V176H261.066V172.062C261.066 170.703 260.258 169.801 258.922 169.801C257.996 169.801 257.328 170.199 256.988 170.879H256.965V167.545H255.945V176ZM266.521 177.799V167.545H265.666V177.799H266.521ZM276.154 169.906H275.135V173.486C275.135 174.523 274.537 175.203 273.547 175.203C272.604 175.203 272.141 174.67 272.141 173.68V169.906H271.121V173.861C271.121 175.244 271.9 176.105 273.23 176.105C274.168 176.105 274.801 175.713 275.164 175.01H275.188V176H276.154V169.906ZM280.438 169.801C279.553 169.801 278.844 170.252 278.469 170.938H278.445V169.906H277.479V178.033H278.498V175.01H278.521C278.885 175.678 279.588 176.105 280.461 176.105C281.996 176.105 283.045 174.863 283.045 172.953C283.045 171.043 281.99 169.801 280.438 169.801ZM280.238 175.209C279.195 175.209 278.492 174.312 278.492 172.953C278.492 171.6 279.195 170.697 280.238 170.697C281.322 170.697 282.002 171.576 282.002 172.953C282.002 174.336 281.322 175.209 280.238 175.209ZM286.865 176H287.885V170.744H289.127V169.906H287.879V169.232C287.879 168.629 288.143 168.336 288.693 168.336C288.863 168.336 289.033 168.354 289.156 168.371V167.545C289.01 167.521 288.764 167.498 288.535 167.498C287.41 167.498 286.865 168.055 286.865 169.227V169.906H286.016V170.744H286.865V176ZM292.414 176.105C294.096 176.105 295.232 174.893 295.232 172.953C295.232 171.008 294.096 169.801 292.414 169.801C290.727 169.801 289.59 171.008 289.59 172.953C289.59 174.893 290.727 176.105 292.414 176.105ZM292.414 175.209C291.336 175.209 290.627 174.389 290.627 172.953C290.627 171.518 291.336 170.697 292.414 170.697C293.492 170.697 294.195 171.518 294.195 172.953C294.195 174.389 293.492 175.209 292.414 175.209ZM296.264 176H297.283V172.203C297.283 171.342 297.799 170.773 298.59 170.773C298.836 170.773 299.053 170.803 299.135 170.832V169.842C299.053 169.83 298.9 169.801 298.725 169.801C298.01 169.801 297.447 170.229 297.248 170.902H297.225V169.906H296.264V176ZM302.938 176H304.045L307.807 168.523V167.545H302.211V168.482H306.764V168.506L302.938 176ZM309.043 176H310.062V172.449C310.062 171.395 310.689 170.703 311.703 170.703C312.658 170.703 313.145 171.283 313.145 172.25V176H314.164V172.062C314.164 170.703 313.355 169.801 312.02 169.801C311.094 169.801 310.426 170.199 310.086 170.879H310.062V167.545H309.043V176ZM321.963 176H322.982V174.242H324.178V173.316H322.982V167.545H321.424C319.426 170.41 318.436 171.951 317.715 173.287V174.242H321.963V176ZM318.758 173.293C319.426 172.121 320.346 170.709 321.945 168.424H321.963V173.316H318.758V173.293ZM328.115 176.141C329.879 176.141 331.127 174.951 331.127 173.252C331.127 171.611 329.955 170.422 328.332 170.422C327.523 170.422 326.82 170.727 326.439 171.236H326.416L326.674 168.482H330.646V167.545H325.807L325.344 172.279H326.334C326.68 171.688 327.354 171.33 328.145 171.33C329.27 171.33 330.072 172.145 330.072 173.281C330.072 174.418 329.275 175.215 328.127 175.215C327.113 175.215 326.346 174.594 326.252 173.691H325.215C325.303 175.133 326.498 176.141 328.115 176.141ZM332.205 176H333.225V172.18C333.225 171.336 333.811 170.703 334.619 170.703C335.375 170.703 335.867 171.184 335.867 171.916V176H336.887V172.127C336.887 171.301 337.455 170.703 338.264 170.703C339.066 170.703 339.529 171.195 339.529 172.027V176H340.549V171.793C340.549 170.586 339.77 169.801 338.562 169.801C337.707 169.801 336.992 170.234 336.652 170.961H336.629C336.365 170.223 335.75 169.801 334.918 169.801C334.098 169.801 333.477 170.234 333.189 170.879H333.166V169.906H332.205V176Z" fill="#393E50" fill-opacity="0.4"/>
<path d="M213 199H366V268C366 273.523 361.523 278 356 278H223C217.477 278 213 273.523 213 268V199Z" fill="#393E50" fill-opacity="0.05"/>
<path d="M253 219L249.667 222L248 220.5" stroke="#393E50" stroke-width="0.5" stroke-linecap="round" stroke-linejoin="round"/>
<path d="M257.192 223.526C256.504 223.526 256.03 223.146 256.03 222.594C256.03 222.032 256.475 221.686 257.275 221.632L258.779 221.529V222.091C258.779 222.896 258.081 223.526 257.192 223.526ZM257.061 224.083C257.817 224.083 258.511 223.663 258.794 223.033H258.809V224H259.424V220.523C259.424 219.488 258.696 218.839 257.539 218.839C256.382 218.839 255.635 219.483 255.562 220.392H256.187C256.299 219.776 256.777 219.41 257.524 219.41C258.315 219.41 258.779 219.85 258.779 220.582V221.021L257.197 221.119C256.025 221.197 255.376 221.725 255.376 222.594C255.376 223.482 256.06 224.083 257.061 224.083ZM264.58 218.922H263.936V221.935C263.936 222.887 263.34 223.507 262.456 223.507C261.606 223.507 261.128 223.009 261.128 222.11V218.922H260.479V222.223C260.479 223.365 261.167 224.083 262.271 224.083C263.076 224.083 263.687 223.683 263.955 223.058H263.97V224H264.58V218.922ZM265.972 217.652V218.922H265.215V219.459H265.972V222.75C265.972 223.668 266.313 224.029 267.163 224.029C267.3 224.029 267.573 224.015 267.642 224V223.448C267.603 223.458 267.358 223.468 267.29 223.468C266.821 223.468 266.616 223.243 266.616 222.721V219.459H267.617V218.922H266.616V217.652H265.972ZM270.42 224.083C271.802 224.083 272.734 223.072 272.734 221.461C272.734 219.845 271.802 218.839 270.42 218.839C269.043 218.839 268.105 219.845 268.105 221.461C268.105 223.072 269.038 224.083 270.42 224.083ZM270.42 223.512C269.424 223.512 268.765 222.75 268.765 221.461C268.765 220.172 269.424 219.41 270.42 219.41C271.416 219.41 272.08 220.172 272.08 221.461C272.08 222.75 271.416 223.512 270.42 223.512Z" fill="#393E50"/>
<rect x="246.25" y="214.25" width="29.5" height="12.5" rx="1.75" stroke="#393E50" stroke-width="0.5"/>
<path d="M283.454 220.779C283.454 221.453 283.894 221.888 284.812 222.117L285.637 222.322C286.315 222.488 286.569 222.723 286.569 223.162C286.569 223.694 286.066 224.051 285.305 224.051C284.543 224.051 284.045 223.68 283.952 223.079H283.308C283.391 223.973 284.177 224.583 285.266 224.583C286.413 224.583 287.219 223.973 287.219 223.113C287.219 222.386 286.838 222.015 285.822 221.761L285.07 221.58C284.392 221.414 284.094 221.16 284.094 220.745C284.094 220.237 284.567 219.871 285.261 219.871C285.964 219.871 286.428 220.242 286.506 220.843H287.126C287.062 219.949 286.32 219.339 285.28 219.339C284.206 219.339 283.454 219.939 283.454 220.779ZM288.366 218.152V219.422H287.609V219.959H288.366V223.25C288.366 224.168 288.708 224.529 289.558 224.529C289.694 224.529 289.968 224.515 290.036 224.5V223.948C289.997 223.958 289.753 223.968 289.685 223.968C289.216 223.968 289.011 223.743 289.011 223.221V219.959H290.012V219.422H289.011V218.152H288.366ZM292.419 224.026C291.73 224.026 291.257 223.646 291.257 223.094C291.257 222.532 291.701 222.186 292.502 222.132L294.006 222.029V222.591C294.006 223.396 293.308 224.026 292.419 224.026ZM292.287 224.583C293.044 224.583 293.737 224.163 294.021 223.533H294.035V224.5H294.65V221.023C294.65 219.988 293.923 219.339 292.766 219.339C291.608 219.339 290.861 219.983 290.788 220.892H291.413C291.525 220.276 292.004 219.91 292.751 219.91C293.542 219.91 294.006 220.35 294.006 221.082V221.521L292.424 221.619C291.252 221.697 290.603 222.225 290.603 223.094C290.603 223.982 291.286 224.583 292.287 224.583ZM296.013 218.152V219.422H295.256V219.959H296.013V223.25C296.013 224.168 296.354 224.529 297.204 224.529C297.341 224.529 297.614 224.515 297.683 224.5V223.948C297.644 223.958 297.399 223.968 297.331 223.968C296.862 223.968 296.657 223.743 296.657 223.221V219.959H297.658V219.422H296.657V218.152H296.013ZM298.62 224.5H299.265V219.422H298.62V224.5ZM298.942 218.396C299.182 218.396 299.377 218.206 299.377 217.967C299.377 217.732 299.182 217.542 298.942 217.542C298.708 217.542 298.513 217.732 298.513 217.967C298.513 218.206 298.708 218.396 298.942 218.396ZM304.553 221.028C304.426 220.12 303.659 219.339 302.463 219.339C301.081 219.339 300.168 220.359 300.168 221.961C300.168 223.587 301.081 224.583 302.468 224.583C303.591 224.583 304.416 223.899 304.558 222.928H303.918C303.771 223.587 303.239 224.012 302.473 224.012C301.481 224.012 300.827 223.235 300.827 221.961C300.827 220.706 301.477 219.91 302.468 219.91C303.269 219.91 303.781 220.403 303.918 221.028H304.553Z" fill="#393E50" fill-opacity="0.4"/>
<rect x="281.25" y="214.25" width="25.5" height="12.5" rx="1.75" stroke="#393E50" stroke-opacity="0.2" stroke-width="0.5"/>
<path d="M250.998 242.583C252.277 242.583 253.146 241.543 253.146 239.961C253.146 238.379 252.277 237.339 251.003 237.339C250.207 237.339 249.553 237.783 249.265 238.481H249.25V235.454H248.601V242.5H249.221V241.426H249.235C249.538 242.139 250.188 242.583 250.998 242.583ZM250.876 237.91C251.853 237.91 252.482 238.721 252.482 239.961C252.482 241.206 251.853 242.012 250.876 242.012C249.919 242.012 249.245 241.182 249.245 239.961C249.245 238.745 249.924 237.91 250.876 237.91ZM254.016 242.5H254.66V239.336C254.66 238.516 255.119 237.954 255.842 237.954C256.062 237.954 256.242 237.988 256.325 238.027V237.393C256.247 237.373 256.096 237.339 255.925 237.339C255.3 237.339 254.826 237.705 254.641 238.325H254.626V237.422H254.016V242.5ZM258.737 237.905C259.655 237.905 260.266 238.604 260.28 239.604H257.146C257.199 238.604 257.829 237.905 258.737 237.905ZM260.241 241.06C260.1 241.616 259.567 242.017 258.801 242.017C257.79 242.017 257.141 241.304 257.141 240.156V240.117H260.944V239.844C260.944 238.33 260.095 237.339 258.747 237.339C257.37 237.339 256.477 238.398 256.477 239.976C256.477 241.587 257.36 242.583 258.786 242.583C259.904 242.583 260.729 241.938 260.881 241.06H260.241ZM263.444 242.026C262.756 242.026 262.282 241.646 262.282 241.094C262.282 240.532 262.727 240.186 263.527 240.132L265.031 240.029V240.591C265.031 241.396 264.333 242.026 263.444 242.026ZM263.312 242.583C264.069 242.583 264.763 242.163 265.046 241.533H265.061V242.5H265.676V239.023C265.676 237.988 264.948 237.339 263.791 237.339C262.634 237.339 261.887 237.983 261.813 238.892H262.438C262.551 238.276 263.029 237.91 263.776 237.91C264.567 237.91 265.031 238.35 265.031 239.082V239.521L263.449 239.619C262.277 239.697 261.628 240.225 261.628 241.094C261.628 241.982 262.312 242.583 263.312 242.583ZM267.038 236.152V237.422H266.281V237.959H267.038V241.25C267.038 242.168 267.38 242.529 268.229 242.529C268.366 242.529 268.64 242.515 268.708 242.5V241.948C268.669 241.958 268.425 241.968 268.356 241.968C267.888 241.968 267.683 241.743 267.683 241.221V237.959H268.684V237.422H267.683V236.152H267.038ZM269.646 242.5H270.295V239.512C270.295 238.555 270.886 237.915 271.799 237.915C272.658 237.915 273.151 238.447 273.151 239.326V242.5H273.801V239.219C273.801 238.081 273.098 237.339 271.984 237.339C271.174 237.339 270.568 237.734 270.31 238.359H270.295V235.454H269.646V242.5ZM276.892 237.905C277.81 237.905 278.42 238.604 278.435 239.604H275.3C275.354 238.604 275.983 237.905 276.892 237.905ZM278.396 241.06C278.254 241.616 277.722 242.017 276.955 242.017C275.944 242.017 275.295 241.304 275.295 240.156V240.117H279.099V239.844C279.099 238.33 278.249 237.339 276.901 237.339C275.524 237.339 274.631 238.398 274.631 239.976C274.631 241.587 275.515 242.583 276.94 242.583C278.059 242.583 278.884 241.938 279.035 241.06H278.396Z" fill="#393E50" fill-opacity="0.4"/>
<rect x="246.25" y="232.25" width="35.5" height="12.5" rx="1.75" stroke="#393E50" stroke-opacity="0.2" stroke-width="0.5"/>
<path d="M293.688 239.028C293.561 238.12 292.794 237.339 291.598 237.339C290.216 237.339 289.303 238.359 289.303 239.961C289.303 241.587 290.216 242.583 291.603 242.583C292.726 242.583 293.551 241.899 293.692 240.928H293.053C292.906 241.587 292.374 242.012 291.607 242.012C290.616 242.012 289.962 241.235 289.962 239.961C289.962 238.706 290.611 237.91 291.603 237.91C292.403 237.91 292.916 238.403 293.053 239.028H293.688ZM296.559 242.583C297.94 242.583 298.873 241.572 298.873 239.961C298.873 238.345 297.94 237.339 296.559 237.339C295.182 237.339 294.244 238.345 294.244 239.961C294.244 241.572 295.177 242.583 296.559 242.583ZM296.559 242.012C295.562 242.012 294.903 241.25 294.903 239.961C294.903 238.672 295.562 237.91 296.559 237.91C297.555 237.91 298.219 238.672 298.219 239.961C298.219 241.25 297.555 242.012 296.559 242.012ZM299.776 242.5H300.421V235.454H299.776V242.5ZM303.639 242.583C305.021 242.583 305.953 241.572 305.953 239.961C305.953 238.345 305.021 237.339 303.639 237.339C302.262 237.339 301.324 238.345 301.324 239.961C301.324 241.572 302.257 242.583 303.639 242.583ZM303.639 242.012C302.643 242.012 301.983 241.25 301.983 239.961C301.983 238.672 302.643 237.91 303.639 237.91C304.635 237.91 305.299 238.672 305.299 239.961C305.299 241.25 304.635 242.012 303.639 242.012ZM306.812 242.5H307.457V239.336C307.457 238.516 307.916 237.954 308.639 237.954C308.858 237.954 309.039 237.988 309.122 238.027V237.393C309.044 237.373 308.893 237.339 308.722 237.339C308.097 237.339 307.623 237.705 307.438 238.325H307.423V237.422H306.812V242.5ZM311.769 238.779C311.769 239.453 312.208 239.888 313.126 240.117L313.951 240.322C314.63 240.488 314.884 240.723 314.884 241.162C314.884 241.694 314.381 242.051 313.619 242.051C312.857 242.051 312.359 241.68 312.267 241.079H311.622C311.705 241.973 312.491 242.583 313.58 242.583C314.728 242.583 315.533 241.973 315.533 241.113C315.533 240.386 315.152 240.015 314.137 239.761L313.385 239.58C312.706 239.414 312.408 239.16 312.408 238.745C312.408 238.237 312.882 237.871 313.575 237.871C314.278 237.871 314.742 238.242 314.82 238.843H315.44C315.377 237.949 314.635 237.339 313.595 237.339C312.521 237.339 311.769 237.939 311.769 238.779ZM316.681 236.152V237.422H315.924V237.959H316.681V241.25C316.681 242.168 317.022 242.529 317.872 242.529C318.009 242.529 318.282 242.515 318.351 242.5V241.948C318.312 241.958 318.067 241.968 317.999 241.968C317.53 241.968 317.325 241.743 317.325 241.221V237.959H318.326V237.422H317.325V236.152H316.681ZM319.605 244.336C320.44 244.336 320.802 244.004 321.246 242.808L323.243 237.422H322.564L321.017 241.855H321.002L319.459 237.422H318.766L320.67 242.534L320.533 242.915C320.309 243.55 320.055 243.784 319.591 243.784C319.488 243.784 319.361 243.774 319.283 243.755V244.307C319.356 244.321 319.503 244.336 319.605 244.336ZM323.927 242.5H324.571V235.454H323.927V242.5ZM327.735 237.905C328.653 237.905 329.264 238.604 329.278 239.604H326.144C326.197 238.604 326.827 237.905 327.735 237.905ZM329.239 241.06C329.098 241.616 328.565 242.017 327.799 242.017C326.788 242.017 326.139 241.304 326.139 240.156V240.117H329.942V239.844C329.942 238.33 329.093 237.339 327.745 237.339C326.368 237.339 325.475 238.398 325.475 239.976C325.475 241.587 326.358 242.583 327.784 242.583C328.902 242.583 329.728 241.938 329.879 241.06H329.239Z" fill="#393E50" fill-opacity="0.4"/>
<rect x="287.25" y="232.25" width="45.5" height="12.5" rx="1.75" stroke="#393E50" stroke-opacity="0.2" stroke-width="0.5"/>
<path d="M250.192 260.026C249.504 260.026 249.03 259.646 249.03 259.094C249.03 258.532 249.475 258.186 250.275 258.132L251.779 258.029V258.591C251.779 259.396 251.081 260.026 250.192 260.026ZM250.061 260.583C250.817 260.583 251.511 260.163 251.794 259.533H251.809V260.5H252.424V257.023C252.424 255.988 251.696 255.339 250.539 255.339C249.382 255.339 248.635 255.983 248.562 256.892H249.187C249.299 256.276 249.777 255.91 250.524 255.91C251.315 255.91 251.779 256.35 251.779 257.082V257.521L250.197 257.619C249.025 257.697 248.376 258.225 248.376 259.094C248.376 259.982 249.06 260.583 250.061 260.583ZM257.58 255.422H256.936V258.435C256.936 259.387 256.34 260.007 255.456 260.007C254.606 260.007 254.128 259.509 254.128 258.61V255.422H253.479V258.723C253.479 259.865 254.167 260.583 255.271 260.583C256.076 260.583 256.687 260.183 256.955 259.558H256.97V260.5H257.58V255.422ZM260.612 260.583C261.433 260.583 262.082 260.109 262.37 259.426H262.385V260.5H263V253.454H262.351V256.467H262.336C262.067 255.808 261.418 255.339 260.598 255.339C259.323 255.339 258.439 256.379 258.439 257.961C258.439 259.538 259.328 260.583 260.612 260.583ZM260.725 255.91C261.691 255.91 262.355 256.735 262.355 257.961C262.355 259.191 261.691 260.012 260.725 260.012C259.748 260.012 259.104 259.201 259.104 257.961C259.104 256.721 259.748 255.91 260.725 255.91ZM264.206 260.5H264.851V255.422H264.206V260.5ZM264.528 254.396C264.768 254.396 264.963 254.206 264.963 253.967C264.963 253.732 264.768 253.542 264.528 253.542C264.294 253.542 264.099 253.732 264.099 253.967C264.099 254.206 264.294 254.396 264.528 254.396ZM268.068 260.583C269.45 260.583 270.383 259.572 270.383 257.961C270.383 256.345 269.45 255.339 268.068 255.339C266.691 255.339 265.754 256.345 265.754 257.961C265.754 259.572 266.687 260.583 268.068 260.583ZM268.068 260.012C267.072 260.012 266.413 259.25 266.413 257.961C266.413 256.672 267.072 255.91 268.068 255.91C269.064 255.91 269.729 256.672 269.729 257.961C269.729 259.25 269.064 260.012 268.068 260.012ZM273.293 260.5H273.938V257.38C273.938 256.516 274.475 255.915 275.222 255.915C275.915 255.915 276.384 256.389 276.384 257.116V260.5H277.033V257.302C277.033 256.491 277.551 255.915 278.303 255.915C279.04 255.915 279.479 256.389 279.479 257.175V260.5H280.124V257.028C280.124 256.003 279.475 255.339 278.483 255.339C277.717 255.339 277.121 255.783 276.882 256.408H276.867C276.677 255.769 276.14 255.339 275.397 255.339C274.66 255.339 274.138 255.764 273.918 256.359H273.903V255.422H273.293V260.5ZM283.22 255.905C284.138 255.905 284.748 256.604 284.763 257.604H281.628C281.682 256.604 282.312 255.905 283.22 255.905ZM284.724 259.06C284.582 259.616 284.05 260.017 283.283 260.017C282.272 260.017 281.623 259.304 281.623 258.156V258.117H285.427V257.844C285.427 256.33 284.577 255.339 283.229 255.339C281.853 255.339 280.959 256.398 280.959 257.976C280.959 259.587 281.843 260.583 283.269 260.583C284.387 260.583 285.212 259.938 285.363 259.06H284.724ZM286.569 254.152V255.422H285.812V255.959H286.569V259.25C286.569 260.168 286.911 260.529 287.761 260.529C287.897 260.529 288.171 260.515 288.239 260.5V259.948C288.2 259.958 287.956 259.968 287.888 259.968C287.419 259.968 287.214 259.743 287.214 259.221V255.959H288.215V255.422H287.214V254.152H286.569ZM290.964 255.905C291.882 255.905 292.492 256.604 292.507 257.604H289.372C289.426 256.604 290.056 255.905 290.964 255.905ZM292.468 259.06C292.326 259.616 291.794 260.017 291.027 260.017C290.017 260.017 289.367 259.304 289.367 258.156V258.117H293.171V257.844C293.171 256.33 292.321 255.339 290.974 255.339C289.597 255.339 288.703 256.398 288.703 257.976C288.703 259.587 289.587 260.583 291.013 260.583C292.131 260.583 292.956 259.938 293.107 259.06H292.468ZM294.035 260.5H294.68V257.336C294.68 256.516 295.139 255.954 295.861 255.954C296.081 255.954 296.262 255.988 296.345 256.027V255.393C296.267 255.373 296.115 255.339 295.944 255.339C295.319 255.339 294.846 255.705 294.66 256.325H294.646V255.422H294.035V260.5Z" fill="#393E50" fill-opacity="0.4"/>
<rect x="246.25" y="250.25" width="52.5" height="12.5" rx="1.75" stroke="#393E50" stroke-opacity="0.2" stroke-width="0.5"/>
<rect x="213.5" y="74.5" width="152" height="203" rx="9.5" stroke="#393E50" stroke-opacity="0.1"/>
<rect x="213" y="298" width="153" height="115" rx="10" fill="white"/>
<circle cx="251.5" cy="326.5" r="18.5" fill="#F8F8FA"/>
<path d="M261.397 324.572L252.743 334.176C252.346 334.616 251.654 334.616 251.257 334.175L242.604 324.573C242.261 324.192 242.261 323.608 242.62 323.243C249.984 315.758 257.777 319.754 261.376 323.255C261.743 323.612 261.74 324.191 261.397 324.572Z" stroke="#393E50"/>
<rect x="330" y="316" width="15" height="25" rx="7.5" fill="#DCE5E2"/>
<rect x="333" y="319" width="9" height="9" rx="4.5" fill="#488467"/>
<path d="M240.688 362.297H240.758L242.898 370H245.125L248.117 358.727H245.672L243.891 366.891H243.828L241.719 358.727H239.727L237.617 366.891H237.555L235.781 358.727H233.336L236.32 370H238.547L240.688 362.297ZM249.234 370H251.516V361.625H249.234V370ZM250.375 360.703C251.062 360.703 251.594 360.18 251.594 359.523C251.594 358.859 251.062 358.344 250.375 358.344C249.688 358.344 249.156 358.859 249.156 359.523C249.156 360.18 249.688 360.703 250.375 360.703ZM253.648 370H255.93V363.344H257.539V361.664H255.875V361.109C255.875 360.516 256.203 360.188 256.953 360.188C257.18 360.188 257.406 360.203 257.57 360.234V358.727C257.305 358.672 256.828 358.625 256.406 358.625C254.422 358.625 253.648 359.391 253.648 361.031V361.664H252.508V363.344H253.648V370ZM258.781 370H261.062V361.625H258.781V370ZM259.922 360.703C260.609 360.703 261.141 360.18 261.141 359.523C261.141 358.859 260.609 358.344 259.922 358.344C259.234 358.344 258.703 358.859 258.703 359.523C258.703 360.18 259.234 360.703 259.922 360.703ZM265.758 370H268.039V365.32C268.039 364.141 268.695 363.453 269.82 363.453C270.148 363.453 270.461 363.508 270.648 363.586V361.578C270.492 361.531 270.266 361.492 270 361.492C269.016 361.492 268.305 362.07 268.008 363.133H267.961V361.625H265.758V370ZM275.148 370.18C277.68 370.18 279.297 368.562 279.297 365.805C279.297 363.086 277.656 361.445 275.148 361.445C272.641 361.445 271 363.094 271 365.805C271 368.555 272.617 370.18 275.148 370.18ZM275.148 368.438C274.023 368.438 273.312 367.492 273.312 365.812C273.312 364.148 274.039 363.188 275.148 363.188C276.258 363.188 276.977 364.148 276.977 365.812C276.977 367.492 276.266 368.438 275.148 368.438ZM288.211 361.625H285.93V366.422C285.93 367.531 285.297 368.258 284.281 368.258C283.273 368.258 282.719 367.664 282.719 366.547V361.625H280.438V367.023C280.438 368.977 281.641 370.156 283.453 370.156C284.719 370.156 285.547 369.547 285.961 368.492H286.008V370H288.211V361.625ZM290.305 359.695V361.625H289.125V363.344H290.305V367.742C290.305 369.375 291.07 370.031 293.039 370.031C293.5 370.031 293.891 369.992 294.125 369.938V368.258C293.984 368.281 293.773 368.297 293.57 368.297C292.898 368.297 292.586 367.992 292.586 367.352V363.344H294.133V361.625H292.586V359.695H290.305ZM299.016 363.133C300.031 363.133 300.727 363.867 300.773 364.938H297.219C297.297 363.891 298.016 363.133 299.016 363.133ZM300.805 367.438C300.594 368.078 299.953 368.492 299.117 368.492C297.953 368.492 297.195 367.672 297.195 366.477V366.336H302.969V365.641C302.969 363.094 301.43 361.445 298.992 361.445C296.516 361.445 294.953 363.18 294.953 365.852C294.953 368.531 296.5 370.18 299.078 370.18C301.148 370.18 302.648 369.078 302.898 367.438H300.805ZM304.148 370H306.43V365.32C306.43 364.141 307.086 363.453 308.211 363.453C308.539 363.453 308.852 363.508 309.039 363.586V361.578C308.883 361.531 308.656 361.492 308.391 361.492C307.406 361.492 306.695 362.07 306.398 363.133H306.352V361.625H304.148V370Z" fill="#393E50"/>
<path d="M235.842 390H236.861V381.545H235.83L233.58 383.162V384.275L235.818 382.664H235.842V390ZM240.055 386.613V381.545H239.035V390H240.055V387.703L240.623 387.164L242.885 390H244.068L241.344 386.537L243.986 383.906H242.75L240.055 386.613ZM249.658 383.291H249.717L251.668 390H252.664L254.967 381.545H253.865L252.172 388.447H252.125L250.221 381.545H249.154L247.25 388.447H247.203L245.51 381.545H244.408L246.711 390H247.707L249.658 383.291ZM255.945 390H256.965V386.449C256.965 385.395 257.592 384.703 258.605 384.703C259.561 384.703 260.047 385.283 260.047 386.25V390H261.066V386.062C261.066 384.703 260.258 383.801 258.922 383.801C257.996 383.801 257.328 384.199 256.988 384.879H256.965V381.545H255.945V390ZM266.521 391.799V381.545H265.666V391.799H266.521ZM276.154 383.906H275.135V387.486C275.135 388.523 274.537 389.203 273.547 389.203C272.604 389.203 272.141 388.67 272.141 387.68V383.906H271.121V387.861C271.121 389.244 271.9 390.105 273.23 390.105C274.168 390.105 274.801 389.713 275.164 389.01H275.188V390H276.154V383.906ZM280.438 383.801C279.553 383.801 278.844 384.252 278.469 384.938H278.445V383.906H277.479V392.033H278.498V389.01H278.521C278.885 389.678 279.588 390.105 280.461 390.105C281.996 390.105 283.045 388.863 283.045 386.953C283.045 385.043 281.99 383.801 280.438 383.801ZM280.238 389.209C279.195 389.209 278.492 388.312 278.492 386.953C278.492 385.6 279.195 384.697 280.238 384.697C281.322 384.697 282.002 385.576 282.002 386.953C282.002 388.336 281.322 389.209 280.238 389.209ZM286.865 390H287.885V384.744H289.127V383.906H287.879V383.232C287.879 382.629 288.143 382.336 288.693 382.336C288.863 382.336 289.033 382.354 289.156 382.371V381.545C289.01 381.521 288.764 381.498 288.535 381.498C287.41 381.498 286.865 382.055 286.865 383.227V383.906H286.016V384.744H286.865V390ZM292.414 390.105C294.096 390.105 295.232 388.893 295.232 386.953C295.232 385.008 294.096 383.801 292.414 383.801C290.727 383.801 289.59 385.008 289.59 386.953C289.59 388.893 290.727 390.105 292.414 390.105ZM292.414 389.209C291.336 389.209 290.627 388.389 290.627 386.953C290.627 385.518 291.336 384.697 292.414 384.697C293.492 384.697 294.195 385.518 294.195 386.953C294.195 388.389 293.492 389.209 292.414 389.209ZM296.264 390H297.283V386.203C297.283 385.342 297.799 384.773 298.59 384.773C298.836 384.773 299.053 384.803 299.135 384.832V383.842C299.053 383.83 298.9 383.801 298.725 383.801C298.01 383.801 297.447 384.229 297.248 384.902H297.225V383.906H296.264V390ZM304.607 390H305.627V381.545H304.596L302.346 383.162V384.275L304.584 382.664H304.607V390ZM310.461 390.141C312.529 390.141 313.736 388.477 313.736 385.629C313.736 384.709 313.602 383.947 313.32 383.297C312.805 382.084 311.797 381.398 310.525 381.398C308.791 381.398 307.531 382.617 307.531 384.287C307.531 385.893 308.727 387.082 310.338 387.082C311.416 387.082 312.342 386.537 312.699 385.699C312.705 385.699 312.705 385.699 312.711 385.699H312.717C312.688 387.943 311.879 389.221 310.473 389.221C309.635 389.221 308.949 388.717 308.727 387.949H307.654C307.912 389.273 309.02 390.141 310.461 390.141ZM310.52 386.156C309.412 386.156 308.598 385.354 308.598 384.252C308.598 383.191 309.453 382.348 310.537 382.348C311.627 382.348 312.471 383.197 312.471 384.281C312.471 385.359 311.639 386.156 310.52 386.156ZM317.24 390.105C318.119 390.105 318.816 389.672 319.209 388.969H319.227V390H320.199V381.545H319.18V384.896H319.156C318.793 384.229 318.09 383.801 317.217 383.801C315.682 383.801 314.633 385.043 314.633 386.953C314.633 388.863 315.688 390.105 317.24 390.105ZM317.434 384.697C318.482 384.697 319.186 385.594 319.186 386.953C319.186 388.318 318.482 389.209 317.434 389.209C316.355 389.209 315.676 388.336 315.676 386.953C315.676 385.576 316.355 384.697 317.434 384.697ZM325.783 386.098H326.844C328.051 386.098 328.801 386.713 328.801 387.709C328.801 388.594 327.998 389.227 326.879 389.227C325.742 389.227 325.021 388.629 324.928 387.762H323.914C323.99 389.162 325.121 390.141 326.891 390.141C328.549 390.141 329.873 389.127 329.873 387.674C329.873 386.484 329.053 385.693 327.775 385.617V385.594C328.83 385.406 329.51 384.645 329.51 383.584C329.51 382.312 328.367 381.404 326.855 381.404C325.268 381.404 324.201 382.324 324.084 383.76H325.098C325.191 382.875 325.836 382.318 326.809 382.318C327.881 382.318 328.449 382.887 328.449 383.725C328.449 384.58 327.77 385.207 326.797 385.207H325.783V386.098ZM331.191 390H332.211V386.449C332.211 385.395 332.838 384.703 333.852 384.703C334.807 384.703 335.293 385.283 335.293 386.25V390H336.312V386.062C336.312 384.703 335.504 383.801 334.168 383.801C333.242 383.801 332.574 384.199 332.234 384.879H332.211V381.545H331.191V390Z" fill="#393E50" fill-opacity="0.4"/>
<rect x="213.5" y="298.5" width="152" height="114" rx="9.5" stroke="#393E50" stroke-opacity="0.1"/>
<defs>
<filter id="filter0_d_266_5809" x="0" y="0" width="233" height="284.098" filterUnits="userSpaceOnUse" color-interpolation-filters="sRGB">
<feFlood flood-opacity="0" result="BackgroundImageFix"/>
<feColorMatrix in="SourceAlpha" type="matrix" values="0 0 0 0 0 0 0 0 0 0 0 0 0 0 0 0 0 0 127 0" result="hardAlpha"/>
<feOffset dy="2"/>
<feGaussianBlur stdDeviation="20"/>
<feComposite in2="hardAlpha" operator="out"/>
<feColorMatrix type="matrix" values="0 0 0 0 0.117647 0 0 0 0 0.47451 0 0 0 0 0.839216 0 0 0 0.2 0"/>
<feBlend mode="normal" in2="BackgroundImageFix" result="effect1_dropShadow_266_5809"/>
<feBlend mode="normal" in="SourceGraphic" in2="effect1_dropShadow_266_5809" result="shape"/>
</filter>
<filter id="filter1_d_266_5809" x="137.5" y="177" width="30" height="30" filterUnits="userSpaceOnUse" color-interpolation-filters="sRGB">
<feFlood flood-opacity="0" result="BackgroundImageFix"/>
<feColorMatrix in="SourceAlpha" type="matrix" values="0 0 0 0 0 0 0 0 0 0 0 0 0 0 0 0 0 0 127 0" result="hardAlpha"/>
<feOffset dy="6"/>
<feGaussianBlur stdDeviation="3.5"/>
<feComposite in2="hardAlpha" operator="out"/>
<feColorMatrix type="matrix" values="0 0 0 0 0 0 0 0 0 0 0 0 0 0 0 0 0 0 0.19 0"/>
<feBlend mode="normal" in2="BackgroundImageFix" result="effect1_dropShadow_266_5809"/>
<feBlend mode="normal" in="SourceGraphic" in2="effect1_dropShadow_266_5809" result="shape"/>
</filter>
<linearGradient id="paint0_linear_266_5809" x1="116.5" y1="178.098" x2="116.5" y2="198.098" gradientUnits="userSpaceOnUse">
<stop stop-color="#00469F"/>
<stop offset="1" stop-color="white" stop-opacity="0"/>
</linearGradient>
<linearGradient id="paint1_linear_266_5809" x1="148.5" y1="186.108" x2="156.5" y2="186.108" gradientUnits="userSpaceOnUse">
<stop stop-color="#00469F"/>
<stop offset="1" stop-color="#1E79D6"/>
</linearGradient>
</defs>
</svg>
