<svg xmlns="http://www.w3.org/2000/svg" width="576" height="413" fill="none" xmlns:v="https://vecta.io/nano"><style><![CDATA[.B{stroke:#393e50}.C{stroke-width:.5}.D{fill:#393e50}.E{stroke-linecap:round}.F{fill-opacity:.4}.G{stroke-linejoin:round}.H{fill:#fff}.I{fill:#f8f8fa}.J{stroke-opacity:.1}.K{stroke-opacity:.2}.L{fill:#dce5e2}.M{fill:#488467}.N{color-interpolation-filters:sRGB}]]></style><g filter="url(#A)"><rect x="40" y="38" width="153" height="204.098" rx="10" shape-rendering="crispEdges" class="H"/><circle cx="78.5" cy="76.5" r="18.5" class="I"/><path d="M80.5 84s-1.125-1.136 0-2.5 0-2.5 0-2.5" class="B C E G"/><path d="M78.5 84s-1.125-1.136 0-2.5 0-2.5 0-2.5" class="B C E G"/><path d="M76.5 84s-1.125-1.136 0-2.5 0-2.5 0-2.5" class="B C E G"/><rect x="71.25" y="70.25" width="14.5" height="8.5" rx=".75" class="B C"/><path d="M71 76.75h15" class="B C"/><path d="M81 72.75h3" class="B C"/><rect x="157" y="66" width="15" height="25" rx="7.5" class="L"/><rect x="160" y="69" width="9" height="9" rx="4.5" class="M"/><path d="M68.32 120h2.508l-3.922-11.273h-2.773L60.219 120h2.422l.859-2.734h3.961L68.32 120zm-2.867-9.117h.055l1.445 4.617h-2.945l1.445-4.617zM71.828 120h2.281v-8.375h-2.281V120zm1.141-9.297c.687 0 1.219-.523 1.219-1.18 0-.664-.531-1.179-1.219-1.179s-1.219.515-1.219 1.179c0 .657.531 1.18 1.219 1.18zM75.633 120h2.281v-4.68c0-1.179.656-1.867 1.781-1.867.328 0 .641.055.828.133v-2.008a2.32 2.32 0 0 0-.648-.086c-.984 0-1.695.578-1.992 1.641h-.047v-1.508h-2.203V120zm14.18.195c2.766 0 4.695-1.593 4.961-4.109h-2.297c-.25 1.336-1.258 2.156-2.656 2.156-1.805 0-2.937-1.484-2.937-3.89 0-2.375 1.148-3.868 2.93-3.868 1.375 0 2.438.907 2.656 2.289h2.297c-.18-2.523-2.242-4.242-4.953-4.242-3.266 0-5.336 2.196-5.336 5.828 0 3.641 2.055 5.836 5.336 5.836zm10.07-.015c2.531 0 4.148-1.618 4.148-4.375 0-2.719-1.64-4.36-4.148-4.36s-4.148 1.649-4.148 4.36c0 2.75 1.617 4.375 4.148 4.375zm0-1.742c-1.125 0-1.836-.946-1.836-2.626 0-1.664.727-2.624 1.836-2.624s1.828.96 1.828 2.624c0 1.68-.711 2.626-1.828 2.626zm5.328 1.562h2.281v-4.805c0-1.086.649-1.836 1.672-1.836s1.539.625 1.539 1.719V120h2.281v-5.398c0-1.961-1.046-3.133-2.906-3.133-1.289 0-2.172.609-2.617 1.648h-.047v-1.492h-2.203V120zm12.328.133c1.234 0 2.203-.649 2.609-1.571h.04V120h2.25v-11.273h-2.282v4.335h-.047c-.406-.929-1.343-1.57-2.554-1.57-2.102 0-3.43 1.649-3.43 4.305 0 2.68 1.32 4.336 3.414 4.336zm.773-6.813c1.133 0 1.86.969 1.86 2.492 0 1.532-.727 2.485-1.86 2.485-1.148 0-1.851-.945-1.851-2.485 0-1.531.703-2.492 1.851-2.492zM124 120h2.281v-8.375H124V120zm1.141-9.297c.687 0 1.218-.523 1.218-1.18 0-.664-.531-1.179-1.218-1.179s-1.219.515-1.219 1.179c0 .657.531 1.18 1.219 1.18zm3.273-1.008v1.93h-1.18v1.719h1.18v4.398c0 1.633.766 2.289 2.734 2.289.461 0 .852-.039 1.086-.093v-1.68c-.14.023-.351.039-.554.039-.672 0-.985-.305-.985-.945v-4.008h1.547v-1.719h-1.547v-1.93h-2.281zM133.531 120h2.281v-8.375h-2.281V120zm1.141-9.297c.687 0 1.219-.523 1.219-1.18 0-.664-.532-1.179-1.219-1.179s-1.219.515-1.219 1.179c0 .657.531 1.18 1.219 1.18zm6.508 9.477c2.531 0 4.148-1.618 4.148-4.375 0-2.719-1.64-4.36-4.148-4.36s-4.149 1.649-4.149 4.36c0 2.75 1.617 4.375 4.149 4.375zm0-1.742c-1.125 0-1.836-.946-1.836-2.626 0-1.664.726-2.624 1.836-2.624s1.828.96 1.828 2.624c0 1.68-.711 2.626-1.828 2.626zm5.328 1.562h2.281v-4.805c0-1.086.649-1.836 1.672-1.836s1.539.625 1.539 1.719V120h2.281v-5.398c0-1.961-1.047-3.133-2.906-3.133-1.289 0-2.172.609-2.617 1.648h-.047v-1.492h-2.203V120zm12.976-6.867c1.016 0 1.711.734 1.758 1.805h-3.554c.078-1.047.796-1.805 1.796-1.805zm1.789 4.305c-.211.64-.851 1.054-1.687 1.054-1.164 0-1.922-.82-1.922-2.015v-.141h5.774v-.695c0-2.547-1.54-4.196-3.977-4.196-2.477 0-4.039 1.735-4.039 4.407 0 2.679 1.547 4.328 4.125 4.328 2.07 0 3.57-1.102 3.82-2.742h-2.094zm3.344 2.562h2.281v-4.68c0-1.179.657-1.867 1.782-1.867.328 0 .64.055.828.133v-2.008a2.32 2.32 0 0 0-.649-.086c-.984 0-1.695.578-1.992 1.641h-.047v-1.508h-2.203V120z" class="D"/><path d="M61.172 140h1.107l3.762-7.477v-.978h-5.596v.937h4.553v.024L61.172 140zm7.125-3.387v-5.068h-1.02V140h1.02v-2.297l.568-.539L71.127 140h1.184l-2.725-3.463 2.643-2.631h-1.236l-2.695 2.707zm9.604-3.322h.059L79.91 140h.996l2.303-8.455h-1.102l-1.693 6.902h-.047l-1.904-6.902h-1.066l-1.904 6.902h-.047l-1.693-6.902H72.65L74.953 140h.996l1.951-6.709zM84.188 140h1.019v-3.551c0-1.054.627-1.746 1.641-1.746.955 0 1.441.58 1.441 1.547V140h1.019v-3.938c0-1.359-.809-2.261-2.144-2.261-.926 0-1.594.398-1.934 1.078h-.024v-3.334h-1.019V140zm10.576 1.799v-10.254h-.856v10.254h.856zm9.632-7.893h-1.019v3.58c0 1.037-.598 1.717-1.588 1.717-.943 0-1.406-.533-1.406-1.523v-3.774h-1.02v3.955c0 1.383.78 2.244 2.11 2.244.937 0 1.57-.392 1.933-1.095h.024v.99h.966v-6.094zm4.284-.105c-.885 0-1.594.451-1.969 1.137h-.023v-1.032h-.967v8.127h1.019v-3.023h.024c.363.668 1.066 1.095 1.939 1.095 1.535 0 2.584-1.242 2.584-3.152s-1.055-3.152-2.607-3.152zm-.2 5.408c-1.042 0-1.746-.897-1.746-2.256 0-1.353.704-2.256 1.746-2.256 1.084 0 1.764.879 1.764 2.256 0 1.383-.68 2.256-1.764 2.256zm6.627.791h1.02v-5.256h1.242v-.838h-1.248v-.674c0-.603.264-.896.815-.896a3.49 3.49 0 0 1 .462.035v-.826c-.146-.024-.392-.047-.621-.047-1.125 0-1.67.557-1.67 1.729v.679h-.849v.838h.849V140zm5.549.105c1.682 0 2.819-1.212 2.819-3.152s-1.137-3.152-2.819-3.152c-1.687 0-2.824 1.207-2.824 3.152s1.137 3.152 2.824 3.152zm0-.896c-1.078 0-1.787-.82-1.787-2.256s.709-2.256 1.787-2.256 1.782.821 1.782 2.256-.704 2.256-1.782 2.256zm3.85.791h1.019v-3.797c0-.861.516-1.43 1.307-1.43.246 0 .463.03.545.059v-.99c-.082-.012-.234-.041-.41-.041a1.49 1.49 0 0 0-1.477 1.101h-.023v-.996h-.961V140zm9.246.146c1.734 0 2.994-1.218 2.994-2.888 0-1.606-1.195-2.795-2.807-2.795-1.048 0-1.98.545-2.361 1.371h-.017c.035-2.25.837-3.504 2.25-3.504.837 0 1.517.492 1.746 1.26h1.072c-.27-1.33-1.371-2.192-2.807-2.192-2.068 0-3.281 1.67-3.281 4.518 0 .914.135 1.676.416 2.326.522 1.219 1.529 1.904 2.795 1.904zm-.012-.937c-1.084 0-1.928-.861-1.928-1.945 0-1.078.827-1.875 1.946-1.875s1.916.797 1.916 1.904c0 1.066-.856 1.916-1.934 1.916zm4.166.791h1.02v-3.551c0-1.054.627-1.746 1.64-1.746.955 0 1.442.58 1.442 1.547V140h1.019v-3.938c0-1.359-.808-2.261-2.144-2.261-.926 0-1.594.398-1.934 1.078h-.023v-3.334h-1.02V140zm10.623-3.902h1.061c1.207 0 1.957.615 1.957 1.611 0 .885-.803 1.518-1.922 1.518-1.137 0-1.857-.598-1.951-1.465h-1.014c.076 1.4 1.207 2.379 2.977 2.379 1.658 0 2.982-1.014 2.982-2.467 0-1.19-.82-1.981-2.098-2.057v-.023c1.055-.188 1.735-.949 1.735-2.01 0-1.272-1.143-2.18-2.654-2.18-1.588 0-2.655.92-2.772 2.356h1.014c.094-.885.738-1.442 1.711-1.442 1.072 0 1.64.569 1.64 1.407 0 .855-.679 1.482-1.652 1.482h-1.014v.891zm5.356 3.902h1.019v-3.82c0-.844.586-1.477 1.395-1.477.756 0 1.248.481 1.248 1.213V140h1.019v-3.873c0-.826.569-1.424 1.377-1.424.803 0 1.266.492 1.266 1.324V140h1.02v-4.207c0-1.207-.78-1.992-1.987-1.992-.855 0-1.57.433-1.91 1.16h-.023c-.264-.738-.879-1.16-1.711-1.16-.821 0-1.442.433-1.729 1.078h-.023v-.973h-.961V140z" class="D F"/><path d="M40 163h153v69.098a10 10 0 0 1-10 10H50c-5.523 0-10-4.477-10-10V163z" fill-opacity=".05" class="D"/><path d="M57.5 198.098C75.6667 182.932 124.7 161.698 175.5 198.098" stroke="url(#C)" stroke-width="2"/><g filter="url(#B)" class="H"><circle cx="152.5" cy="186" r="8"/></g><circle cx="152.5" cy="186" r="4" fill="url(#D)"/><path d="M98.664 215.215v.039h2.188v-.039c0-1.039.804-1.804 1.898-1.804 1.047 0 1.789.672 1.789 1.515 0 .782-.351 1.352-1.492 2.492l-4.25 4.094v1.586h8.195v-1.875h-5.086v-.047l2.75-2.648c1.242-1.235 2.18-2.289 2.18-3.695 0-1.883-1.633-3.258-4.008-3.258-2.461 0-4.164 1.508-4.164 3.64zm14.961 7.883h2.242v-2.008h1.469v-1.89h-1.469v-7.375h-3.328l-4.523 7.258v2.007h5.609v2.008zm-3.539-3.89c.914-1.766 1.898-3.305 3.539-5.711h.047v5.773h-3.586v-.062zm10.602-2.516a2.45 2.45 0 0 0 2.484-2.492c0-1.399-1.078-2.485-2.484-2.485s-2.485 1.086-2.485 2.485c0 1.406 1.078 2.492 2.485 2.492zm0-1.344c-.61 0-1.126-.531-1.126-1.148 0-.633.524-1.141 1.126-1.141.632 0 1.124.508 1.124 1.141 0 .617-.484 1.148-1.124 1.148zm8.734 7.945c2.766 0 4.695-1.593 4.961-4.109h-2.297c-.25 1.336-1.258 2.156-2.656 2.156-1.805 0-2.938-1.484-2.938-3.89 0-2.375 1.149-3.867 2.93-3.867 1.375 0 2.437.906 2.656 2.289h2.297c-.18-2.524-2.242-4.243-4.953-4.243-3.266 0-5.336 2.196-5.336 5.829 0 3.64 2.055 5.835 5.336 5.835z" class="D"/></g><rect x="40" y="262.098" width="153" height="115" rx="10" class="H"/><circle cx="78.5" cy="290.598" r="18.5" class="I"/><g class="B C G"><path d="M70.667 296.098h16.667c.921 0 1.667-.647 1.667-1.444v-10.111c0-.798-.746-1.445-1.667-1.445H70.667c-.921 0-1.667.647-1.667 1.445v10.111c0 .797.746 1.444 1.667 1.444z"/><path d="M82 298.098H76" class="E"/></g><rect x="157" y="280.098" width="15" height="25" rx="7.5" fill="#ebebed"/><rect x="160" y="293.098" width="9" height="9" rx="4.5" fill="#71747d"/><g class="D"><path d="M65.992 334.098v-9.328h3.266v-1.945h-8.883v1.945h3.258v9.328h2.359zm6.289-6.867c1.016 0 1.711.734 1.758 1.805h-3.555c.078-1.047.797-1.805 1.797-1.805zm1.789 4.305c-.211.64-.852 1.054-1.687 1.054-1.164 0-1.922-.82-1.922-2.015v-.141h5.773v-.695c0-2.547-1.539-4.196-3.977-4.196-2.477 0-4.039 1.735-4.039 4.407 0 2.679 1.547 4.328 4.125 4.328 2.07 0 3.57-1.102 3.82-2.742H74.07zm3.398 2.562h2.281v-11.273h-2.281v11.273zm7.578-6.867c1.016 0 1.711.734 1.758 1.805H83.25c.078-1.047.797-1.805 1.797-1.805zm1.789 4.305c-.211.64-.852 1.054-1.687 1.054-1.164 0-1.922-.82-1.922-2.015v-.141H89v-.695c0-2.547-1.539-4.196-3.977-4.196-2.477 0-4.039 1.735-4.039 4.407 0 2.679 1.547 4.328 4.125 4.328 2.07 0 3.57-1.102 3.82-2.742h-2.094zm10.875-5.813h-2.383l-1.734 6.36h-.047l-1.742-6.36h-2.445l2.898 8.375h2.578l2.875-8.375zm.836 8.375h2.281v-8.375h-2.281v8.375zm1.141-9.297c.688 0 1.219-.523 1.219-1.179 0-.664-.531-1.18-1.219-1.18s-1.219.516-1.219 1.18c0 .656.531 1.179 1.219 1.179zm2.523 3.383c0 1.234.812 2.063 2.398 2.422l1.547.344c.75.179 1.032.414 1.032.836 0 .547-.524.89-1.391.89-.906 0-1.461-.406-1.57-1.109H102c.125 1.633 1.5 2.711 3.734 2.711 2.211 0 3.727-1.086 3.727-2.735 0-1.25-.68-1.914-2.359-2.289l-1.602-.343c-.734-.172-1.094-.453-1.094-.868 0-.539.516-.898 1.305-.898.844 0 1.383.414 1.43 1.086h2.101c-.031-1.625-1.398-2.688-3.5-2.688-2.148 0-3.531 1.047-3.531 2.641zm8.43 5.914h2.281v-8.375h-2.281v8.375zm1.14-9.297c.688 0 1.219-.523 1.219-1.179 0-.664-.531-1.18-1.219-1.18s-1.219.516-1.219 1.18c0 .656.532 1.179 1.219 1.179zm6.508 9.477c2.531 0 4.149-1.617 4.149-4.375 0-2.719-1.641-4.36-4.149-4.36s-4.148 1.649-4.148 4.36c0 2.75 1.617 4.375 4.148 4.375zm0-1.742c-1.125 0-1.836-.946-1.836-2.625 0-1.664.727-2.625 1.836-2.625s1.828.961 1.828 2.625c0 1.679-.711 2.625-1.828 2.625zm5.328 1.562h2.281v-4.805c0-1.085.649-1.835 1.672-1.835s1.539.625 1.539 1.718v4.922h2.282V328.7c0-1.961-1.047-3.133-2.907-3.133-1.289 0-2.172.609-2.617 1.648h-.047v-1.492h-2.203v8.375z"/><path d="M63.645 354.239c1.969 0 3.105-1.705 3.105-4.377 0-2.654-1.143-4.36-3.105-4.36s-3.117 1.717-3.117 4.366c0 2.672 1.143 4.371 3.117 4.371zm0-.92c-1.324 0-2.057-1.348-2.057-3.457 0-2.063.75-3.434 2.057-3.434s2.045 1.36 2.045 3.44c0 2.109-.727 3.451-2.045 3.451zm5.367-2.608v-5.068h-1.02v8.455h1.02v-2.297l.568-.539 2.262 2.836h1.184l-2.725-3.463 2.643-2.631h-1.236l-2.695 2.707zm9.603-3.322h.059l1.951 6.709h.996l2.303-8.455h-1.102l-1.693 6.902h-.047l-1.904-6.902h-1.066l-1.904 6.902h-.047l-1.693-6.902h-1.102l2.303 8.455h.996l1.951-6.709zm6.287 6.709h1.02v-3.551c0-1.054.627-1.746 1.641-1.746.955 0 1.441.58 1.441 1.547v3.75h1.019v-3.937c0-1.36-.809-2.262-2.144-2.262-.926 0-1.594.398-1.934 1.078h-.023v-3.334h-1.02v8.455zm10.576 1.799v-10.254h-.855v10.254h.855zm7.588-7.998c-.884 0-1.593.451-1.968 1.137h-.024v-1.032h-.967v8.127h1.02v-3.023h.023c.364.668 1.067 1.096 1.94 1.096 1.535 0 2.584-1.243 2.584-3.153s-1.055-3.152-2.608-3.152zm-.199 5.408c-1.043 0-1.746-.896-1.746-2.256 0-1.353.703-2.256 1.746-2.256 1.084 0 1.764.879 1.764 2.256 0 1.383-.68 2.256-1.764 2.256zm6.363.897c1.682 0 2.819-1.213 2.819-3.153s-1.137-3.152-2.819-3.152-2.824 1.207-2.824 3.152 1.137 3.153 2.824 3.153zm0-.897c-1.078 0-1.787-.82-1.787-2.256s.709-2.256 1.787-2.256 1.782.821 1.782 2.256-.703 2.256-1.782 2.256zm11.602-5.303h-1.008l-1.219 4.957h-.023l-1.383-4.957h-.984l-1.377 4.957h-.024l-1.218-4.957h-1.014l1.705 6.094h1.037l1.371-4.717h.024l1.377 4.717h1.037l1.699-6.094zm3.281.78c.961 0 1.6.726 1.623 1.746h-3.31c.064-1.014.732-1.746 1.687-1.746zm1.6 3.568c-.17.574-.738.967-1.512.967-1.096 0-1.781-.768-1.781-1.934v-.058h4.371v-.387c0-1.846-1.014-3.041-2.66-3.041-1.682 0-2.76 1.283-2.76 3.176 0 1.916 1.061 3.129 2.807 3.129 1.33 0 2.361-.786 2.537-1.852h-1.002zm2.109 1.746h1.02v-3.797c0-.861.515-1.429 1.306-1.429.247 0 .463.029.545.058v-.99c-.082-.012-.234-.041-.41-.041a1.49 1.49 0 0 0-1.476 1.101h-.024v-.996h-.961v6.094zm8.69.106c1.681 0 2.818-1.213 2.818-3.153s-1.137-3.152-2.818-3.152c-1.688 0-2.824 1.207-2.824 3.152s1.136 3.153 2.824 3.153zm0-.897c-1.078 0-1.787-.82-1.787-2.256s.709-2.256 1.787-2.256 1.781.821 1.781 2.256-.703 2.256-1.781 2.256zm4.177.791h1.02v-5.256h1.242v-.838h-1.248v-.673c0-.604.264-.897.815-.897.17 0 .339.018.462.035v-.826a4.39 4.39 0 0 0-.621-.047c-1.125 0-1.67.557-1.67 1.729v.679h-.849v.838h.849v5.256zm3.645 0h1.02v-5.256h1.242v-.838h-1.248v-.673c0-.604.263-.897.814-.897a3.49 3.49 0 0 1 .463.035v-.826c-.146-.023-.393-.047-.621-.047-1.125 0-1.67.557-1.67 1.729v.679h-.85v.838h.85v5.256z" class="F"/></g><rect x="40.5" y="262.598" width="152" height="114" rx="9.5" class="B J"/><rect x="386" y="231" width="153" height="115" rx="10" class="H"/><circle cx="424.5" cy="259.5" r="18.5" class="I"/><g class="B"><g class="G"><path d="M421 254v-3h7v3" class="E"/><path d="M430 261h-11v6h11v-6z"/><path d="M418.42 263H415v-7.5c0-.825.741-1.5 1.643-1.5h15.713c.903 0 1.644.675 1.644 1.5v7.5h-3.42" class="E"/></g><path d="M431.938 257a.94.94 0 0 1-.938.938.94.94 0 0 1-.938-.938.94.94 0 0 1 .938-.938.94.94 0 0 1 .938.938z" stroke-width=".125" class="D"/></g><rect x="503" y="249" width="15" height="25" rx="7.5" fill="#ebebed"/><rect x="506" y="262" width="9" height="9" rx="4.5" fill="#71747d"/><g class="D"><path d="M406.938 291.727V303h2.359v-3.555h2.109c2.375 0 4.024-1.547 4.024-3.859 0-2.32-1.594-3.859-3.907-3.859h-4.585zm2.359 1.867h1.601c1.352 0 2.133.718 2.133 2 0 1.289-.789 2.008-2.14 2.008h-1.594v-4.008zm7.336 9.406h2.281v-4.68c0-1.179.656-1.867 1.781-1.867.328 0 .641.055.828.133v-2.008c-.156-.047-.382-.086-.648-.086-.984 0-1.695.578-1.992 1.641h-.047v-1.508h-2.203V303zm5.867 0h2.281v-8.375H422.5V303zm1.141-9.297c.687 0 1.218-.523 1.218-1.18 0-.664-.531-1.179-1.218-1.179s-1.219.515-1.219 1.179c0 .657.531 1.18 1.219 1.18zm2.664 9.297h2.281v-4.805c0-1.086.648-1.836 1.672-1.836s1.539.625 1.539 1.719V303h2.281v-5.398c0-1.961-1.047-3.133-2.906-3.133-1.289 0-2.172.609-2.617 1.648h-.047v-1.492h-2.203V303zm9.828-10.305v1.93h-1.18v1.719h1.18v4.398c0 1.633.765 2.289 2.734 2.289.461 0 .852-.039 1.086-.093v-1.68a3.75 3.75 0 0 1-.555.039c-.671 0-.984-.305-.984-.945v-4.008h1.547v-1.719h-1.547v-1.93h-2.281zm8.711 3.438c1.015 0 1.711.734 1.758 1.805h-3.555c.078-1.047.797-1.805 1.797-1.805zm1.789 4.305c-.211.64-.852 1.054-1.688 1.054-1.164 0-1.922-.82-1.922-2.015v-.141h5.774v-.695c0-2.547-1.539-4.196-3.977-4.196-2.476 0-4.039 1.735-4.039 4.407 0 2.679 1.547 4.328 4.125 4.328 2.071 0 3.571-1.102 3.821-2.742h-2.094zm3.344 2.562h2.281v-4.68c0-1.179.656-1.867 1.781-1.867.328 0 .641.055.828.133v-2.008c-.156-.047-.383-.086-.648-.086-.985 0-1.696.578-1.992 1.641h-.047v-1.508h-2.203V303z"/><path d="M409.645 323.141c1.968 0 3.105-1.705 3.105-4.377 0-2.655-1.143-4.36-3.105-4.36s-3.118 1.717-3.118 4.366c0 2.671 1.143 4.371 3.118 4.371zm0-.92c-1.325 0-2.057-1.348-2.057-3.457 0-2.063.75-3.434 2.057-3.434s2.044 1.359 2.044 3.44c0 2.109-.726 3.451-2.044 3.451zm5.367-2.608v-5.068h-1.02V323h1.02v-2.297l.568-.539 2.262 2.836h1.183l-2.724-3.463 2.642-2.631h-1.236l-2.695 2.707zm9.603-3.322h.059l1.951 6.709h.996l2.303-8.455h-1.102l-1.693 6.902h-.047l-1.904-6.902h-1.067l-1.904 6.902h-.047l-1.693-6.902h-1.102l2.303 8.455h.996l1.951-6.709zm6.287 6.709h1.02v-3.551c0-1.054.627-1.746 1.64-1.746.956 0 1.442.58 1.442 1.547V323h1.019v-3.938c0-1.359-.808-2.261-2.144-2.261-.926 0-1.594.398-1.934 1.078h-.023v-3.334h-1.02V323zm10.577 1.799v-10.254h-.856v10.254h.856zm7.587-7.998c-.884 0-1.593.451-1.968 1.137h-.024v-1.032h-.967v8.127h1.02v-3.023h.023c.364.668 1.067 1.095 1.94 1.095 1.535 0 2.584-1.242 2.584-3.152s-1.055-3.152-2.608-3.152zm-.199 5.408c-1.043 0-1.746-.897-1.746-2.256 0-1.353.703-2.256 1.746-2.256 1.084 0 1.764.879 1.764 2.256 0 1.383-.68 2.256-1.764 2.256zm6.363.896c1.682 0 2.819-1.212 2.819-3.152s-1.137-3.152-2.819-3.152c-1.687 0-2.824 1.207-2.824 3.152s1.137 3.152 2.824 3.152zm0-.896c-1.078 0-1.787-.82-1.787-2.256s.709-2.256 1.787-2.256 1.782.821 1.782 2.256-.703 2.256-1.782 2.256zm11.602-5.303h-1.008l-1.219 4.957h-.023l-1.383-4.957h-.984l-1.377 4.957h-.024l-1.218-4.957h-1.014l1.705 6.094h1.037l1.371-4.717h.024l1.377 4.717h1.037l1.699-6.094zm3.281.78c.961 0 1.6.726 1.623 1.746h-3.31c.064-1.014.732-1.746 1.687-1.746zm1.6 3.568c-.17.574-.738.967-1.512.967-1.096 0-1.781-.768-1.781-1.934v-.058h4.371v-.387c0-1.846-1.014-3.041-2.66-3.041-1.682 0-2.76 1.283-2.76 3.176 0 1.916 1.061 3.128 2.807 3.128 1.33 0 2.361-.785 2.537-1.851h-1.002zm2.109 1.746h1.02v-3.797c0-.861.515-1.43 1.306-1.43.247 0 .463.03.545.059v-.99c-.082-.012-.234-.041-.41-.041a1.49 1.49 0 0 0-1.476 1.101h-.024v-.996h-.961V323zm8.69.105c1.681 0 2.818-1.212 2.818-3.152s-1.137-3.152-2.818-3.152c-1.688 0-2.824 1.207-2.824 3.152s1.136 3.152 2.824 3.152zm0-.896c-1.078 0-1.787-.82-1.787-2.256s.709-2.256 1.787-2.256 1.781.821 1.781 2.256-.703 2.256-1.781 2.256zm4.177.791h1.02v-5.256h1.242v-.838h-1.248v-.674c0-.603.264-.896.815-.896.17 0 .339.018.462.035v-.826c-.146-.024-.392-.047-.621-.047-1.125 0-1.67.557-1.67 1.729v.679h-.849v.838h.849V323zm3.645 0h1.02v-5.256h1.242v-.838h-1.248v-.674c0-.603.263-.896.814-.896a3.49 3.49 0 0 1 .463.035v-.826a4.26 4.26 0 0 0-.621-.047c-1.125 0-1.67.557-1.67 1.729v.679h-.85v.838h.85V323z" class="F"/></g><rect x="386.5" y="231.5" width="152" height="114" rx="9.5" class="B J"/><rect x="213" y="74" width="153" height="204" rx="10" class="H"/><circle cx="251.5" cy="112.5" r="18.5" class="I"/><g class="B G"><path d="M249 122h7" class="E"/><path d="M247.686 116c-.833-.673-1.508-1.534-1.973-2.518a7.46 7.46 0 0 1-.713-3.163c-.017-3.945 3.036-7.226 6.834-7.317 1.47-.036 2.913.409 4.125 1.273s2.133 2.102 2.629 3.54.546 3.001.139 4.468-1.248 2.765-2.404 3.708a2.17 2.17 0 0 0-.605.769 2.27 2.27 0 0 0-.218.967v.546c0 .193-.073.378-.205.514s-.309.213-.495.213h-5.6a.69.69 0 0 1-.495-.213.74.74 0 0 1-.205-.514v-.546c-.002-.332-.076-.66-.217-.959s-.345-.562-.597-.768h0z"/><path d="M253 105c.998.17 1.918.645 2.635 1.362S256.828 108 257 109" class="C E"/></g><rect x="330" y="102" width="15" height="25" rx="7.5" class="L"/><rect x="333" y="105" width="9" height="9" rx="4.5" class="M"/><g class="D"><path d="M241.227 154.047h-4.93v-9.32h-2.359V156h7.289v-1.953zm4.437.437c-.773 0-1.289-.39-1.289-1.015 0-.594.484-.977 1.336-1.039l1.766-.11v.61c0 .906-.821 1.554-1.813 1.554zm-.75 1.649c1.047 0 2.086-.524 2.555-1.414h.047V156h2.203v-5.758c0-1.687-1.399-2.797-3.547-2.797-2.219 0-3.602 1.117-3.688 2.743h2.086c.11-.618.649-1.04 1.5-1.04.86 0 1.407.454 1.407 1.235v.555l-2.11.124c-2.086.126-3.258 1.008-3.258 2.532 0 1.508 1.211 2.539 2.805 2.539zm6.281-.133h2.282v-5.055c0-.937.585-1.593 1.453-1.593.843 0 1.351.531 1.351 1.429V156h2.196v-5.086c0-.93.57-1.562 1.437-1.562.883 0 1.367.531 1.367 1.5V156h2.281v-5.719c0-1.687-1.101-2.812-2.742-2.812-1.226 0-2.226.664-2.601 1.719h-.047c-.281-1.094-1.125-1.719-2.336-1.719-1.141 0-2.039.664-2.391 1.672h-.047v-1.516h-2.203V156zm18.703-8.508c-1.21 0-2.14.61-2.593 1.594h-.047v-1.461h-2.25v11.109h2.281v-4.14h.047c.445.945 1.383 1.539 2.602 1.539 2.093 0 3.39-1.625 3.39-4.321 0-2.703-1.305-4.32-3.43-4.32zm-.765 6.805c-1.117 0-1.852-.969-1.852-2.485 0-1.5.735-2.492 1.852-2.492 1.14 0 1.859.977 1.859 2.492 0 1.524-.719 2.485-1.859 2.485zM280.555 156h2.336v-11.273h-2.344l-2.914 2.023v2.125l2.875-1.984h.047V156z"/><path d="M235.842 176h1.019v-8.455h-1.031l-2.25 1.617v1.113l2.238-1.611h.024V176zm4.213-3.387v-5.068h-1.02V176h1.02v-2.297l.568-.539 2.262 2.836h1.183l-2.724-3.463 2.642-2.631h-1.236l-2.695 2.707zm9.603-3.322h.059l1.951 6.709h.996l2.303-8.455h-1.102l-1.693 6.902h-.047l-1.904-6.902h-1.067l-1.904 6.902h-.047l-1.693-6.902h-1.102l2.303 8.455h.996l1.951-6.709zm6.287 6.709h1.02v-3.551c0-1.054.627-1.746 1.64-1.746.956 0 1.442.58 1.442 1.547V176h1.019v-3.938c0-1.359-.808-2.261-2.144-2.261-.926 0-1.594.398-1.934 1.078h-.023v-3.334h-1.02V176zm10.576 1.799v-10.254h-.855v10.254h.855zm9.633-7.893h-1.019v3.58c0 1.037-.598 1.717-1.588 1.717-.943 0-1.406-.533-1.406-1.523v-3.774h-1.02v3.955c0 1.383.779 2.244 2.109 2.244.938 0 1.571-.392 1.934-1.095h.024v.99h.966v-6.094zm4.284-.105c-.885 0-1.594.451-1.969 1.137h-.024v-1.032h-.966v8.127h1.019v-3.023h.023c.364.668 1.067 1.095 1.94 1.095 1.535 0 2.584-1.242 2.584-3.152s-1.055-3.152-2.607-3.152zm-.2 5.408c-1.043 0-1.746-.897-1.746-2.256 0-1.353.703-2.256 1.746-2.256 1.084 0 1.764.879 1.764 2.256 0 1.383-.68 2.256-1.764 2.256zm6.627.791h1.02v-5.256h1.242v-.838h-1.248v-.674c0-.603.264-.896.814-.896a3.49 3.49 0 0 1 .463.035v-.826c-.146-.024-.392-.047-.621-.047-1.125 0-1.67.557-1.67 1.729v.679h-.849v.838h.849V176zm5.549.105c1.682 0 2.818-1.212 2.818-3.152s-1.136-3.152-2.818-3.152-2.824 1.207-2.824 3.152 1.137 3.152 2.824 3.152zm0-.896c-1.078 0-1.787-.82-1.787-2.256s.709-2.256 1.787-2.256 1.781.821 1.781 2.256-.703 2.256-1.781 2.256zm3.85.791h1.019v-3.797c0-.861.516-1.43 1.307-1.43.246 0 .463.03.545.059v-.99c-.082-.012-.235-.041-.41-.041a1.49 1.49 0 0 0-1.477 1.101h-.023v-.996h-.961V176zm6.674 0h1.107l3.762-7.477v-.978h-5.596v.937h4.553v.024L302.938 176zm6.105 0h1.019v-3.551c0-1.054.627-1.746 1.641-1.746.955 0 1.442.58 1.442 1.547V176h1.019v-3.938c0-1.359-.809-2.261-2.144-2.261-.926 0-1.594.398-1.934 1.078h-.024v-3.334h-1.019V176zm12.92 0h1.019v-1.758h1.196v-.926h-1.196v-5.771h-1.558l-3.709 5.742v.955h4.248V176zm-3.205-2.707c.668-1.172 1.588-2.584 3.187-4.869h.018v4.892h-3.205v-.023zm9.357 2.848c1.764 0 3.012-1.19 3.012-2.889 0-1.641-1.172-2.83-2.795-2.83-.809 0-1.512.305-1.893.814h-.023l.258-2.754h3.972v-.937h-4.839l-.463 4.734h.99c.346-.591 1.02-.949 1.811-.949 1.125 0 1.927.815 1.927 1.951s-.797 1.934-1.945 1.934c-1.014 0-1.781-.621-1.875-1.524h-1.037c.088 1.442 1.283 2.45 2.9 2.45zm4.09-.141h1.02v-3.82c0-.844.586-1.477 1.394-1.477.756 0 1.248.481 1.248 1.213V176h1.02v-3.873c0-.826.568-1.424 1.377-1.424.802 0 1.265.492 1.265 1.324V176h1.02v-4.207c0-1.207-.779-1.992-1.987-1.992-.855 0-1.57.433-1.91 1.16h-.023c-.264-.738-.879-1.16-1.711-1.16-.82 0-1.441.433-1.729 1.078h-.023v-.973h-.961V176z" class="F"/><path d="M213 199h153v69a10 10 0 0 1-10 10H223a10 10 0 0 1-10-10v-69z" fill-opacity=".05"/></g><path d="M253 219l-3.333 3-1.667-1.5" class="B C E G"/><path d="M257.192 223.526c-.688 0-1.162-.38-1.162-.932 0-.562.445-.908 1.245-.962l1.504-.103v.562c0 .805-.698 1.435-1.587 1.435zm-.131.557c.756 0 1.45-.42 1.733-1.05h.015V224h.615v-3.477c0-1.035-.728-1.684-1.885-1.684s-1.904.644-1.977 1.553h.625c.112-.616.59-.982 1.337-.982.791 0 1.255.44 1.255 1.172v.439l-1.582.098c-1.172.078-1.821.606-1.821 1.475 0 .888.684 1.489 1.685 1.489zm7.519-5.161h-.644v3.013c0 .952-.596 1.572-1.48 1.572-.85 0-1.328-.498-1.328-1.397v-3.188h-.649v3.301c0 1.142.688 1.86 1.792 1.86.805 0 1.416-.4 1.684-1.025h.015V224h.61v-5.078zm1.392-1.27v1.27h-.757v.537h.757v3.291c0 .918.341 1.279 1.191 1.279.137 0 .41-.014.479-.029v-.552c-.039.01-.284.02-.352.02-.469 0-.674-.225-.674-.747v-3.262h1.001v-.537h-1.001v-1.27h-.644zm4.448 6.431c1.382 0 2.314-1.011 2.314-2.622 0-1.616-.932-2.622-2.314-2.622s-2.315 1.006-2.315 2.622c0 1.611.933 2.622 2.315 2.622zm0-.571c-.996 0-1.655-.762-1.655-2.051s.659-2.051 1.655-2.051 1.66.762 1.66 2.051-.664 2.051-1.66 2.051z" class="D"/><rect x="246.25" y="214.25" width="29.5" height="12.5" rx="1.75" class="B C"/><path d="M283.454 220.779c0 .674.44 1.109 1.358 1.338l.825.205c.678.166.932.401.932.84 0 .532-.503.889-1.264.889s-1.26-.371-1.353-.972h-.644c.083.894.869 1.504 1.958 1.504 1.147 0 1.953-.61 1.953-1.47 0-.727-.381-1.098-1.397-1.352l-.752-.181c-.678-.166-.976-.42-.976-.835 0-.508.473-.874 1.167-.874.703 0 1.167.371 1.245.972h.62c-.064-.894-.806-1.504-1.846-1.504-1.074 0-1.826.6-1.826 1.44zm4.912-2.627v1.27h-.757v.537h.757v3.291c0 .918.342 1.279 1.192 1.279.136 0 .41-.014.478-.029v-.552a3.53 3.53 0 0 1-.351.02c-.469 0-.674-.225-.674-.747v-3.262h1.001v-.537h-1.001v-1.27h-.645zm4.053 5.874c-.689 0-1.162-.38-1.162-.932 0-.562.444-.908 1.245-.962l1.504-.103v.562c0 .805-.698 1.435-1.587 1.435zm-.132.557c.757 0 1.45-.42 1.734-1.05h.014v.967h.615v-3.477c0-1.035-.727-1.684-1.884-1.684s-1.905.644-1.978 1.553h.625c.112-.616.591-.982 1.338-.982.791 0 1.255.44 1.255 1.172v.439l-1.582.098c-1.172.078-1.821.606-1.821 1.475 0 .888.683 1.489 1.684 1.489zm3.726-6.431v1.27h-.757v.537h.757v3.291c0 .918.341 1.279 1.191 1.279.137 0 .41-.014.479-.029v-.552c-.039.01-.284.02-.352.02-.469 0-.674-.225-.674-.747v-3.262h1.001v-.537h-1.001v-1.27h-.644zm2.607 6.348h.645v-5.078h-.645v5.078zm.322-6.104a.43.43 0 0 0 .435-.429.43.43 0 0 0-.435-.425.43.43 0 0 0-.429.425.43.43 0 0 0 .429.429zm5.611 2.632c-.127-.908-.894-1.689-2.09-1.689-1.382 0-2.295 1.02-2.295 2.622 0 1.626.913 2.622 2.3 2.622 1.123 0 1.948-.684 2.09-1.655h-.64c-.147.659-.679 1.084-1.445 1.084-.992 0-1.646-.777-1.646-2.051 0-1.255.65-2.051 1.641-2.051.801 0 1.313.493 1.45 1.118h.635z" class="D F"/><rect x="281.25" y="214.25" width="25.5" height="12.5" rx="1.75" class="B C K"/><path d="M250.998 242.583c1.279 0 2.148-1.04 2.148-2.622s-.869-2.622-2.143-2.622c-.796 0-1.45.444-1.738 1.142h-.015v-3.027h-.649v7.046h.62v-1.074h.014c.303.713.953 1.157 1.763 1.157zm-.122-4.673c.977 0 1.606.811 1.606 2.051s-.629 2.051-1.606 2.051c-.957 0-1.631-.83-1.631-2.051s.679-2.051 1.631-2.051zm3.14 4.59h.644v-3.164c0-.82.459-1.382 1.182-1.382.22 0 .4.034.483.073v-.634c-.078-.02-.229-.054-.4-.054-.625 0-1.099.366-1.284.986h-.015v-.903h-.61v5.078zm4.721-4.595c.918 0 1.529.699 1.543 1.699h-3.134c.053-1 .683-1.699 1.591-1.699zm1.504 3.155c-.141.556-.674.957-1.44.957-1.011 0-1.66-.713-1.66-1.861v-.039h3.803v-.273c0-1.514-.849-2.505-2.197-2.505-1.377 0-2.27 1.059-2.27 2.637 0 1.611.883 2.607 2.309 2.607 1.118 0 1.943-.645 2.095-1.523h-.64zm3.203.966c-.688 0-1.162-.38-1.162-.932 0-.562.445-.908 1.245-.962l1.504-.103v.562c0 .805-.698 1.435-1.587 1.435zm-.132.557c.757 0 1.451-.42 1.734-1.05h.015v.967h.615v-3.477c0-1.035-.728-1.684-1.885-1.684s-1.904.644-1.978 1.553h.625c.113-.616.591-.982 1.338-.982.791 0 1.255.44 1.255 1.172v.439l-1.582.098c-1.172.078-1.821.606-1.821 1.475 0 .888.684 1.489 1.684 1.489zm3.726-6.431v1.27h-.757v.537h.757v3.291c0 .918.342 1.279 1.191 1.279a3.97 3.97 0 0 0 .479-.029v-.552c-.039.01-.283.02-.352.02-.468 0-.673-.225-.673-.747v-3.262h1.001v-.537h-1.001v-1.27h-.645zm2.608 6.348h.649v-2.988c0-.957.591-1.597 1.504-1.597.859 0 1.352.532 1.352 1.411v3.174h.65v-3.281c0-1.138-.703-1.88-1.817-1.88-.81 0-1.416.395-1.674 1.02h-.015v-2.905h-.649v7.046zm7.246-4.595c.918 0 1.528.699 1.543 1.699H275.3c.054-1 .683-1.699 1.592-1.699zm1.504 3.155c-.142.556-.674.957-1.441.957-1.011 0-1.66-.713-1.66-1.861v-.039h3.804v-.273c0-1.514-.85-2.505-2.198-2.505-1.377 0-2.27 1.059-2.27 2.637 0 1.611.884 2.607 2.309 2.607 1.119 0 1.944-.645 2.095-1.523h-.639z" class="D F"/><rect x="246.25" y="232.25" width="35.5" height="12.5" rx="1.75" class="B C K"/><path d="M293.688 239.028c-.127-.908-.894-1.689-2.09-1.689-1.382 0-2.295 1.02-2.295 2.622 0 1.626.913 2.622 2.3 2.622 1.123 0 1.948-.684 2.089-1.655h-.639c-.147.659-.679 1.084-1.446 1.084-.991 0-1.645-.777-1.645-2.051 0-1.255.649-2.051 1.641-2.051.8 0 1.313.493 1.45 1.118h.635zm2.871 3.555c1.381 0 2.314-1.011 2.314-2.622 0-1.616-.933-2.622-2.314-2.622s-2.315 1.006-2.315 2.622c0 1.611.933 2.622 2.315 2.622zm0-.571c-.997 0-1.656-.762-1.656-2.051s.659-2.051 1.656-2.051 1.66.762 1.66 2.051-.664 2.051-1.66 2.051zm3.217.488h.645v-7.046h-.645v7.046zm3.863.083c1.382 0 2.314-1.011 2.314-2.622 0-1.616-.932-2.622-2.314-2.622s-2.315 1.006-2.315 2.622c0 1.611.933 2.622 2.315 2.622zm0-.571c-.996 0-1.656-.762-1.656-2.051s.66-2.051 1.656-2.051 1.66.762 1.66 2.051-.664 2.051-1.66 2.051zm3.173.488h.645v-3.164c0-.82.459-1.382 1.182-1.382.219 0 .4.034.483.073v-.634c-.078-.02-.229-.054-.4-.054-.625 0-1.099.366-1.284.986h-.015v-.903h-.611v5.078zm4.957-3.721c0 .674.439 1.109 1.357 1.338l.825.205c.679.166.933.401.933.84 0 .532-.503.889-1.265.889s-1.26-.371-1.352-.972h-.645c.083.894.869 1.504 1.958 1.504 1.148 0 1.953-.61 1.953-1.47 0-.727-.381-1.098-1.396-1.352l-.752-.181c-.679-.166-.977-.42-.977-.835 0-.508.474-.874 1.167-.874.703 0 1.167.371 1.245.972h.62c-.063-.894-.805-1.504-1.845-1.504-1.074 0-1.826.6-1.826 1.44zm4.912-2.627v1.27h-.757v.537h.757v3.291c0 .918.341 1.279 1.191 1.279.137 0 .41-.014.479-.029v-.552c-.039.01-.284.02-.352.02-.469 0-.674-.225-.674-.747v-3.262h1.001v-.537h-1.001v-1.27h-.644zm2.924 8.184c.835 0 1.197-.332 1.641-1.528l1.997-5.386h-.679l-1.547 4.433h-.015l-1.543-4.433h-.693l1.904 5.112-.137.381c-.224.635-.478.869-.942.869a1.5 1.5 0 0 1-.308-.029v.552a2.1 2.1 0 0 0 .322.029zm4.322-1.836h.644v-7.046h-.644v7.046zm3.808-4.595c.918 0 1.529.699 1.543 1.699h-3.134c.053-1 .683-1.699 1.591-1.699zm1.504 3.155c-.141.556-.674.957-1.44.957-1.011 0-1.66-.713-1.66-1.861v-.039h3.803v-.273c0-1.514-.849-2.505-2.197-2.505-1.377 0-2.27 1.059-2.27 2.637 0 1.611.883 2.607 2.309 2.607 1.118 0 1.944-.645 2.095-1.523h-.64z" class="D F"/><rect x="287.25" y="232.25" width="45.5" height="12.5" rx="1.75" class="B C K"/><path d="M250.192 260.026c-.688 0-1.162-.38-1.162-.932 0-.562.445-.908 1.245-.962l1.504-.103v.562c0 .805-.698 1.435-1.587 1.435zm-.131.557c.756 0 1.45-.42 1.733-1.05h.015v.967h.615v-3.477c0-1.035-.728-1.684-1.885-1.684s-1.904.644-1.977 1.553h.625c.112-.616.59-.982 1.337-.982.791 0 1.255.44 1.255 1.172v.439l-1.582.098c-1.172.078-1.821.606-1.821 1.475 0 .888.684 1.489 1.685 1.489zm7.519-5.161h-.644v3.013c0 .952-.596 1.572-1.48 1.572-.85 0-1.328-.498-1.328-1.397v-3.188h-.649v3.301c0 1.142.688 1.86 1.792 1.86.805 0 1.416-.4 1.684-1.025h.015v.942h.61v-5.078zm3.032 5.161a1.87 1.87 0 0 0 1.758-1.157h.015v1.074H263v-7.046h-.649v3.013h-.015c-.269-.659-.918-1.128-1.738-1.128-1.275 0-2.159 1.04-2.159 2.622s.889 2.622 2.173 2.622zm.113-4.673c.966 0 1.63.825 1.63 2.051s-.664 2.051-1.63 2.051c-.977 0-1.621-.811-1.621-2.051s.644-2.051 1.621-2.051zm3.481 4.59h.645v-5.078h-.645v5.078zm.322-6.104a.43.43 0 0 0 .435-.429.43.43 0 0 0-.435-.425.43.43 0 0 0-.429.425.43.43 0 0 0 .429.429zm3.54 6.187c1.382 0 2.315-1.011 2.315-2.622s-.933-2.622-2.315-2.622-2.314 1.006-2.314 2.622.933 2.622 2.314 2.622zm0-.571c-.996 0-1.655-.762-1.655-2.051s.659-2.051 1.655-2.051 1.661.762 1.661 2.051-.665 2.051-1.661 2.051zm5.225.488h.645v-3.12c0-.864.537-1.465 1.284-1.465.693 0 1.162.474 1.162 1.201v3.384h.649v-3.198c0-.811.518-1.387 1.27-1.387.737 0 1.176.474 1.176 1.26v3.325h.645v-3.472c0-1.025-.649-1.689-1.641-1.689-.766 0-1.362.444-1.601 1.069h-.015c-.19-.639-.727-1.069-1.47-1.069-.737 0-1.259.425-1.479 1.02h-.015v-.937h-.61v5.078zm9.927-4.595c.918 0 1.528.699 1.543 1.699h-3.135c.054-1 .684-1.699 1.592-1.699zm1.504 3.155c-.142.556-.674.957-1.441.957-1.011 0-1.66-.713-1.66-1.861v-.039h3.804v-.273c0-1.514-.85-2.505-2.198-2.505-1.376 0-2.27 1.059-2.27 2.637 0 1.611.884 2.607 2.31 2.607 1.118 0 1.943-.645 2.094-1.523h-.639zm1.845-4.908v1.27h-.757v.537h.757v3.291c0 .918.342 1.279 1.192 1.279.136 0 .41-.014.478-.029v-.552a3.53 3.53 0 0 1-.351.02c-.469 0-.674-.225-.674-.747v-3.262h1.001v-.537h-1.001v-1.27h-.645zm4.395 1.753c.918 0 1.528.699 1.543 1.699h-3.135c.054-1 .684-1.699 1.592-1.699zm1.504 3.155c-.142.556-.674.957-1.441.957-1.01 0-1.66-.713-1.66-1.861v-.039h3.804v-.273c0-1.514-.85-2.505-2.197-2.505-1.377 0-2.271 1.059-2.271 2.637 0 1.611.884 2.607 2.31 2.607 1.118 0 1.943-.645 2.094-1.523h-.639zm1.567 1.44h.645v-3.164c0-.82.459-1.382 1.181-1.382.22 0 .401.034.484.073v-.634c-.078-.02-.23-.054-.401-.054-.625 0-1.098.366-1.284.986h-.014v-.903h-.611v5.078z" class="D F"/><g class="B"><rect x="246.25" y="250.25" width="52.5" height="12.5" rx="1.75" class="C K"/><rect x="213.5" y="74.5" width="152" height="203" rx="9.5" class="J"/></g><rect x="213" y="298" width="153" height="115" rx="10" class="H"/><circle cx="251.5" cy="326.5" r="18.5" class="I"/><path d="M261.397 324.572l-8.654 9.604a1 1 0 0 1-1.486-.001l-8.653-9.602c-.343-.381-.343-.965.016-1.33 7.364-7.485 15.157-3.489 18.756.012.367.357.364.936.021 1.317z" class="B"/><rect x="330" y="316" width="15" height="25" rx="7.5" class="L"/><rect x="333" y="319" width="9" height="9" rx="4.5" class="M"/><g class="D"><path d="M240.688 362.297h.07l2.14 7.703h2.227l2.992-11.273h-2.445l-1.781 8.164h-.063l-2.109-8.164h-1.992l-2.11 8.164h-.062l-1.774-8.164h-2.445L236.32 370h2.227l2.141-7.703zm8.546 7.703h2.282v-8.375h-2.282V370zm1.141-9.297c.687 0 1.219-.523 1.219-1.18 0-.664-.532-1.179-1.219-1.179s-1.219.515-1.219 1.179c0 .657.532 1.18 1.219 1.18zm3.273 9.297h2.282v-6.656h1.609v-1.68h-1.664v-.555c0-.593.328-.921 1.078-.921.227 0 .453.015.617.046v-1.507c-.265-.055-.742-.102-1.164-.102-1.984 0-2.758.766-2.758 2.406v.633h-1.14v1.68h1.14V370zm5.133 0h2.281v-8.375h-2.281V370zm1.141-9.297c.687 0 1.219-.523 1.219-1.18 0-.664-.532-1.179-1.219-1.179s-1.219.515-1.219 1.179c0 .657.531 1.18 1.219 1.18zm5.836 9.297h2.281v-4.68c0-1.179.656-1.867 1.781-1.867.328 0 .641.055.828.133v-2.008c-.156-.047-.382-.086-.648-.086-.984 0-1.695.578-1.992 1.641h-.047v-1.508h-2.203V370zm9.39.18c2.532 0 4.149-1.618 4.149-4.375 0-2.719-1.641-4.36-4.149-4.36s-4.148 1.649-4.148 4.36c0 2.75 1.617 4.375 4.148 4.375zm0-1.742c-1.125 0-1.836-.946-1.836-2.626 0-1.664.727-2.624 1.836-2.624s1.829.96 1.829 2.624c0 1.68-.711 2.626-1.829 2.626zm13.063-6.813h-2.281v4.797c0 1.109-.633 1.836-1.649 1.836-1.008 0-1.562-.594-1.562-1.711v-4.922h-2.281v5.398c0 1.954 1.203 3.133 3.015 3.133 1.266 0 2.094-.609 2.508-1.664h.047V370h2.203v-8.375zm2.094-1.93v1.93h-1.18v1.719h1.18v4.398c0 1.633.765 2.289 2.734 2.289.461 0 .852-.039 1.086-.093v-1.68a3.76 3.76 0 0 1-.555.039c-.672 0-.984-.305-.984-.945v-4.008h1.547v-1.719h-1.547v-1.93h-2.281zm8.711 3.438c1.015 0 1.711.734 1.757 1.805h-3.554c.078-1.047.797-1.805 1.797-1.805zm1.789 4.305c-.211.64-.852 1.054-1.688 1.054-1.164 0-1.922-.82-1.922-2.015v-.141h5.774v-.695c0-2.547-1.539-4.196-3.977-4.196-2.476 0-4.039 1.735-4.039 4.407 0 2.679 1.547 4.328 4.125 4.328 2.07 0 3.57-1.102 3.82-2.742h-2.093zm3.343 2.562h2.282v-4.68c0-1.179.656-1.867 1.781-1.867.328 0 .641.055.828.133v-2.008c-.156-.047-.383-.086-.648-.086-.985 0-1.696.578-1.993 1.641h-.046v-1.508h-2.204V370z"/><path d="M235.842 390h1.019v-8.455h-1.031l-2.25 1.617v1.113l2.238-1.611h.024V390zm4.213-3.387v-5.068h-1.02V390h1.02v-2.297l.568-.539 2.262 2.836h1.183l-2.724-3.463 2.642-2.631h-1.236l-2.695 2.707zm9.603-3.322h.059l1.951 6.709h.996l2.303-8.455h-1.102l-1.693 6.902h-.047l-1.904-6.902h-1.067l-1.904 6.902h-.047l-1.693-6.902h-1.102l2.303 8.455h.996l1.951-6.709zm6.287 6.709h1.02v-3.551c0-1.054.627-1.746 1.64-1.746.956 0 1.442.58 1.442 1.547V390h1.019v-3.938c0-1.359-.808-2.261-2.144-2.261-.926 0-1.594.398-1.934 1.078h-.023v-3.334h-1.02V390zm10.576 1.799v-10.254h-.855v10.254h.855zm9.633-7.893h-1.019v3.58c0 1.037-.598 1.717-1.588 1.717-.943 0-1.406-.533-1.406-1.523v-3.774h-1.02v3.955c0 1.383.779 2.244 2.109 2.244.938 0 1.571-.392 1.934-1.095h.024v.99h.966v-6.094zm4.284-.105c-.885 0-1.594.451-1.969 1.137h-.024v-1.032h-.966v8.127h1.019v-3.023h.023c.364.668 1.067 1.095 1.94 1.095 1.535 0 2.584-1.242 2.584-3.152s-1.055-3.152-2.607-3.152zm-.2 5.408c-1.043 0-1.746-.897-1.746-2.256 0-1.353.703-2.256 1.746-2.256 1.084 0 1.764.879 1.764 2.256 0 1.383-.68 2.256-1.764 2.256zm6.627.791h1.02v-5.256h1.242v-.838h-1.248v-.674c0-.603.264-.896.814-.896a3.49 3.49 0 0 1 .463.035v-.826c-.146-.024-.392-.047-.621-.047-1.125 0-1.67.557-1.67 1.729v.679h-.849v.838h.849V390zm5.549.105c1.682 0 2.818-1.212 2.818-3.152s-1.136-3.152-2.818-3.152-2.824 1.207-2.824 3.152 1.137 3.152 2.824 3.152zm0-.896c-1.078 0-1.787-.82-1.787-2.256s.709-2.256 1.787-2.256 1.781.821 1.781 2.256-.703 2.256-1.781 2.256zm3.85.791h1.019v-3.797c0-.861.516-1.43 1.307-1.43.246 0 .463.03.545.059v-.99c-.082-.012-.235-.041-.41-.041a1.49 1.49 0 0 0-1.477 1.101h-.023v-.996h-.961V390zm8.343 0h1.02v-8.455h-1.031l-2.25 1.617v1.113l2.238-1.611h.023V390zm5.854.141c2.068 0 3.275-1.664 3.275-4.512 0-.92-.134-1.682-.416-2.332-.515-1.213-1.523-1.899-2.795-1.899-1.734 0-2.994 1.219-2.994 2.889 0 1.606 1.196 2.795 2.807 2.795 1.078 0 2.004-.545 2.361-1.383h.018c-.029 2.244-.838 3.522-2.244 3.522-.838 0-1.524-.504-1.746-1.272h-1.073c.258 1.324 1.366 2.192 2.807 2.192zm.059-3.985a1.85 1.85 0 0 1-1.922-1.904c0-1.061.855-1.904 1.939-1.904a1.91 1.91 0 0 1 1.934 1.933c0 1.078-.832 1.875-1.951 1.875zm6.72 3.949c.879 0 1.576-.433 1.969-1.136h.018V390h.972v-8.455h-1.019v3.351h-.024c-.363-.667-1.066-1.095-1.939-1.095-1.535 0-2.584 1.242-2.584 3.152s1.055 3.152 2.607 3.152zm.194-5.408c1.048 0 1.752.897 1.752 2.256 0 1.365-.704 2.256-1.752 2.256-1.079 0-1.758-.873-1.758-2.256 0-1.377.679-2.256 1.758-2.256zm8.349 1.401h1.061c1.207 0 1.957.615 1.957 1.611 0 .885-.803 1.518-1.922 1.518-1.137 0-1.858-.598-1.951-1.465h-1.014c.076 1.4 1.207 2.379 2.977 2.379 1.658 0 2.982-1.014 2.982-2.467 0-1.19-.82-1.981-2.098-2.057v-.023c1.055-.188 1.735-.949 1.735-2.01 0-1.272-1.143-2.18-2.655-2.18-1.587 0-2.654.92-2.771 2.356h1.014c.093-.885.738-1.442 1.711-1.442 1.072 0 1.64.569 1.64 1.407 0 .855-.679 1.482-1.652 1.482h-1.014v.891zm5.408 3.902h1.02v-3.551c0-1.054.627-1.746 1.641-1.746.955 0 1.441.58 1.441 1.547V390h1.019v-3.938c0-1.359-.808-2.261-2.144-2.261-.926 0-1.594.398-1.934 1.078h-.023v-3.334h-1.02V390z" class="F"/></g><rect x="213.5" y="298.5" width="152" height="114" rx="9.5" class="B J"/><defs><filter id="A" x="0" y="0" width="233" height="284.098" filterUnits="userSpaceOnUse" class="N"><feFlood flood-opacity="0" result="A"/><feColorMatrix in="SourceAlpha" values="0 0 0 0 0 0 0 0 0 0 0 0 0 0 0 0 0 0 127 0" result="B"/><feOffset dy="2"/><feGaussianBlur stdDeviation="20"/><feComposite in2="B" operator="out"/><feColorMatrix values="0 0 0 0 0.117647 0 0 0 0 0.47451 0 0 0 0 0.839216 0 0 0 0.2 0"/><feBlend in2="A"/><feBlend in="SourceGraphic"/></filter><filter id="B" x="137.5" y="177" width="30" height="30" filterUnits="userSpaceOnUse" class="N"><feFlood flood-opacity="0" result="A"/><feColorMatrix in="SourceAlpha" values="0 0 0 0 0 0 0 0 0 0 0 0 0 0 0 0 0 0 127 0" result="B"/><feOffset dy="6"/><feGaussianBlur stdDeviation="3.5"/><feComposite in2="B" operator="out"/><feColorMatrix values="0 0 0 0 0 0 0 0 0 0 0 0 0 0 0 0 0 0 0.19 0"/><feBlend in2="A"/><feBlend in="SourceGraphic"/></filter><linearGradient id="C" x1="116.5" y1="178.098" x2="116.5" y2="198.098" gradientUnits="userSpaceOnUse"><stop stop-color="#00469f"/><stop offset="1" stop-color="#fff" stop-opacity="0"/></linearGradient><linearGradient id="D" x1="148.5" y1="186.108" x2="156.5" y2="186.108" gradientUnits="userSpaceOnUse"><stop stop-color="#00469f"/><stop offset="1" stop-color="#1e79d6"/></linearGradient></defs></svg>
