<svg width="40" height="40" viewBox="0 0 40 40" fill="none" xmlns="http://www.w3.org/2000/svg">
<path d="M28.75 28.75H10.9063L6.54688 4.78125C6.49587 4.49421 6.34614 4.23403 6.12358 4.04571C5.90103 3.85739 5.61965 3.75279 5.32812 3.75H2.5" stroke="url(#paint0_linear_3073_21256)" stroke-width="2" stroke-linecap="round" stroke-linejoin="round"/>
<path d="M12.5 35C14.2259 35 15.625 33.6009 15.625 31.875C15.625 30.1491 14.2259 28.75 12.5 28.75C10.7741 28.75 9.375 30.1491 9.375 31.875C9.375 33.6009 10.7741 35 12.5 35Z" stroke="url(#paint1_linear_3073_21256)" stroke-width="2" stroke-linecap="round" stroke-linejoin="round"/>
<path d="M28.75 35C30.4759 35 31.875 33.6009 31.875 31.875C31.875 30.1491 30.4759 28.75 28.75 28.75C27.0241 28.75 25.625 30.1491 25.625 31.875C25.625 33.6009 27.0241 35 28.75 35Z" stroke="url(#paint2_linear_3073_21256)" stroke-width="2" stroke-linecap="round" stroke-linejoin="round"/>
<path d="M9.76562 22.5H29.3906C29.9749 22.5018 30.5412 22.2975 30.9899 21.9232C31.4385 21.5488 31.7409 21.0283 31.8438 20.4531L33.75 10H7.5" stroke="url(#paint3_linear_3073_21256)" stroke-width="2" stroke-linecap="round" stroke-linejoin="round"/>
<defs>
<linearGradient id="paint0_linear_3073_21256" x1="2.5" y1="16.5878" x2="28.75" y2="16.5878" gradientUnits="userSpaceOnUse">
<stop stop-color="#00469F"/>
<stop offset="1" stop-color="#1E79D6"/>
</linearGradient>
<linearGradient id="paint1_linear_3073_21256" x1="9.375" y1="31.9595" x2="15.625" y2="31.9595" gradientUnits="userSpaceOnUse">
<stop stop-color="#00469F"/>
<stop offset="1" stop-color="#1E79D6"/>
</linearGradient>
<linearGradient id="paint2_linear_3073_21256" x1="25.625" y1="31.9595" x2="31.875" y2="31.9595" gradientUnits="userSpaceOnUse">
<stop stop-color="#00469F"/>
<stop offset="1" stop-color="#1E79D6"/>
</linearGradient>
<linearGradient id="paint3_linear_3073_21256" x1="7.5" y1="16.4189" x2="33.75" y2="16.4189" gradientUnits="userSpaceOnUse">
<stop stop-color="#00469F"/>
<stop offset="1" stop-color="#1E79D6"/>
</linearGradient>
</defs>
</svg>
