<svg width="44" height="33" viewBox="0 0 44 33" fill="none" xmlns="http://www.w3.org/2000/svg">
<path d="M1 15H43" stroke="url(#paint0_linear_27_71)" stroke-width="2" stroke-linecap="round" stroke-linejoin="round"/>
<path d="M39 26V30.5C39 30.8978 38.8525 31.2794 38.59 31.5607C38.3274 31.842 37.9713 32 37.6 32H33.4C33.0287 32 32.6726 31.842 32.41 31.5607C32.1475 31.2794 32 30.8978 32 30.5V26" stroke="url(#paint1_linear_27_71)" stroke-width="2" stroke-linecap="round" stroke-linejoin="round"/>
<path d="M12 26V30.5C12 30.8978 11.8525 31.2794 11.5899 31.5607C11.3274 31.842 10.9713 32 10.6 32H6.4C6.0287 32 5.6726 31.842 5.41005 31.5607C5.1475 31.2794 5 30.8978 5 30.5V26" stroke="url(#paint2_linear_27_71)" stroke-width="2" stroke-linecap="round" stroke-linejoin="round"/>
<path d="M10 20H13" stroke="url(#paint3_linear_27_71)" stroke-width="2" stroke-linecap="round" stroke-linejoin="round"/>
<path d="M31 20H34" stroke="url(#paint4_linear_27_71)" stroke-width="2" stroke-linecap="round" stroke-linejoin="round"/>
<path d="M39 14.2353L33.7052 1.88235C33.5953 1.62102 33.4146 1.39848 33.1851 1.24182C32.9556 1.08516 32.6872 1.00115 32.4125 1H11.5875C11.3128 1.00115 11.0444 1.08516 10.8149 1.24182C10.5854 1.39848 10.4047 1.62102 10.2948 1.88235L5 14.2353V26H39V14.2353Z" stroke="url(#paint5_linear_27_71)" stroke-width="2" stroke-linecap="round" stroke-linejoin="round"/>
<defs>
<linearGradient id="paint0_linear_27_71" x1="1" y1="15.5135" x2="43" y2="15.5135" gradientUnits="userSpaceOnUse">
<stop stop-color="#00469F"/>
<stop offset="1" stop-color="#1E79D6"/>
</linearGradient>
<linearGradient id="paint1_linear_27_71" x1="32" y1="29.0811" x2="39" y2="29.0811" gradientUnits="userSpaceOnUse">
<stop stop-color="#00469F"/>
<stop offset="1" stop-color="#1E79D6"/>
</linearGradient>
<linearGradient id="paint2_linear_27_71" x1="5" y1="29.0811" x2="12" y2="29.0811" gradientUnits="userSpaceOnUse">
<stop stop-color="#00469F"/>
<stop offset="1" stop-color="#1E79D6"/>
</linearGradient>
<linearGradient id="paint3_linear_27_71" x1="10" y1="20.5135" x2="13" y2="20.5135" gradientUnits="userSpaceOnUse">
<stop stop-color="#00469F"/>
<stop offset="1" stop-color="#1E79D6"/>
</linearGradient>
<linearGradient id="paint4_linear_27_71" x1="31" y1="20.5135" x2="34" y2="20.5135" gradientUnits="userSpaceOnUse">
<stop stop-color="#00469F"/>
<stop offset="1" stop-color="#1E79D6"/>
</linearGradient>
<linearGradient id="paint5_linear_27_71" x1="5" y1="13.8378" x2="39" y2="13.8378" gradientUnits="userSpaceOnUse">
<stop stop-color="#00469F"/>
<stop offset="1" stop-color="#1E79D6"/>
</linearGradient>
</defs>
</svg>
