<svg width="50" height="50" viewBox="0 0 50 50" fill="none" xmlns="http://www.w3.org/2000/svg">
<path d="M36.4862 12.8607C36.9909 13.3256 37.469 13.8036 37.9205 14.295L43.3588 15.0719C44.2448 16.6108 44.9278 18.2579 45.3906 19.9723L42.0839 24.3747C42.0839 24.3747 42.1436 25.7293 42.0839 26.4066L45.3906 30.809C44.93 32.524 44.2469 34.1715 43.3588 35.7094L37.9205 36.4862C37.9205 36.4862 36.9842 37.4623 36.4862 37.9205L35.7094 43.3588C34.1705 44.2448 32.5233 44.9278 30.809 45.3906L26.4066 42.0839C25.7306 42.1436 25.0507 42.1436 24.3747 42.0839L19.9723 45.3906C18.2572 44.93 16.6098 44.2469 15.0719 43.3588L14.295 37.9205C13.8036 37.4557 13.3256 36.9776 12.8607 36.4862L7.4225 35.7094C6.53641 34.1705 5.85343 32.5233 5.39062 30.809L8.6974 26.4066C8.6974 26.4066 8.63764 25.052 8.6974 24.3747L5.39062 19.9723C5.85129 18.2572 6.53437 16.6098 7.4225 15.0719L12.8607 14.295C13.3256 13.8036 13.8036 13.3256 14.295 12.8607L15.0719 7.4225C16.6108 6.53641 18.2579 5.85343 19.9723 5.39062L24.3747 8.6974C25.0507 8.63762 25.7306 8.63762 26.4066 8.6974L30.809 5.39062C32.524 5.85129 34.1715 6.53437 35.7094 7.4225L36.4862 12.8607Z" stroke="url(#paint0_linear_10_5907)" stroke-width="2" stroke-linecap="round" stroke-linejoin="round"/>
<path d="M25 34C29.9706 34 34 29.9706 34 25C34 20.0294 29.9706 16 25 16C20.0294 16 16 20.0294 16 25C16 29.9706 20.0294 34 25 34Z" stroke="url(#paint1_linear_10_5907)" stroke-width="1.8" stroke-linecap="round" stroke-linejoin="round"/>
<path d="M25 28C27.0711 28 28.75 26.3211 28.75 24.25C28.75 22.1789 27.0711 20.5 25 20.5C22.9289 20.5 21.25 22.1789 21.25 24.25C21.25 26.3211 22.9289 28 25 28Z" stroke="url(#paint2_linear_10_5907)" stroke-width="1.8" stroke-linecap="round" stroke-linejoin="round"/>
<path d="M18.9814 31.6938C19.5457 30.5824 20.4068 29.6488 21.4691 28.9968C22.5315 28.3447 23.7537 27.9995 25.0002 27.9995C26.2467 27.9995 27.4689 28.3447 28.5312 28.9968C29.5936 29.6488 30.4547 30.5824 31.0189 31.6938" stroke="url(#paint3_linear_10_5907)" stroke-width="1.8" stroke-linecap="round" stroke-linejoin="round"/>
<defs>
<linearGradient id="paint0_linear_10_5907" x1="5.39063" y1="25.9312" x2="45.3906" y2="25.9312" gradientUnits="userSpaceOnUse">
<stop stop-color="#00469F"/>
<stop offset="1" stop-color="#1E79D6"/>
</linearGradient>
<linearGradient id="paint1_linear_10_5907" x1="16" y1="25.2432" x2="34" y2="25.2432" gradientUnits="userSpaceOnUse">
<stop stop-color="#00469F"/>
<stop offset="1" stop-color="#1E79D6"/>
</linearGradient>
<linearGradient id="paint2_linear_10_5907" x1="21.25" y1="24.3514" x2="28.75" y2="24.3514" gradientUnits="userSpaceOnUse">
<stop stop-color="#00469F"/>
<stop offset="1" stop-color="#1E79D6"/>
</linearGradient>
<linearGradient id="paint3_linear_10_5907" x1="18.9814" y1="29.8966" x2="31.0189" y2="29.8966" gradientUnits="userSpaceOnUse">
<stop stop-color="#00469F"/>
<stop offset="1" stop-color="#1E79D6"/>
</linearGradient>
</defs>
</svg>
