<svg width="49" height="49" viewBox="0 0 49 49" fill="none" xmlns="http://www.w3.org/2000/svg">
<path fill-rule="evenodd" clip-rule="evenodd" d="M39.0622 4.6875V9.375H43.7497H48.4372V4.6875V0H43.7497H39.0622V4.6875ZM2.31865 4.73633L0 9.375H4.68721H9.37441L7.05576 4.73633C5.78037 2.18506 4.71455 0.0976562 4.68721 0.0976562C4.65986 0.0976562 3.59404 2.18506 2.31865 4.73633ZM10.9372 4.6875V5.46875H23.8278H36.7185V4.6875V3.90625H23.8278H10.9372V4.6875ZM22.5339 10.2617C22.3943 10.343 22.363 10.5004 22.363 11.119C22.363 11.575 22.3144 11.9402 22.2409 12.0363C22.1738 12.124 21.7453 12.2895 21.2888 12.4037C20.8322 12.5181 20.0733 12.767 19.6023 12.9568C18.6192 13.3531 18.6903 13.3746 17.995 12.4711C17.6536 12.0274 17.5053 11.9055 17.3455 11.937C17.2315 11.9596 16.578 12.3867 15.8933 12.8862C14.948 13.5758 14.6481 13.8465 14.6481 14.0103C14.6481 14.1289 14.8239 14.4715 15.0388 14.7715C15.2536 15.0716 15.4294 15.4117 15.4294 15.5275C15.4294 15.6433 15.1722 16.0531 14.8578 16.4384C14.5436 16.8235 14.0864 17.4509 13.8422 17.8325C13.5979 18.2141 13.3299 18.5525 13.2465 18.5845C13.1631 18.6165 12.8317 18.5538 12.5101 18.4451C11.4458 18.0857 11.4548 18.0781 10.86 19.8476C10.4598 21.0383 10.3657 21.4267 10.443 21.5709C10.5041 21.6852 10.8056 21.837 11.2232 21.9639C11.5976 22.0775 11.9382 22.2249 11.9801 22.2913C12.0221 22.3578 12.0599 23.2406 12.064 24.2532C12.0728 26.36 12.1322 26.2192 11.1078 26.5131C10.2616 26.7558 10.2568 26.7957 10.86 28.5899C11.3664 30.0965 11.3824 30.1274 11.6696 30.1522C11.8308 30.1661 12.2263 30.0938 12.5485 29.9917C12.9312 29.8703 13.1912 29.836 13.2979 29.8927C13.3879 29.9404 13.628 30.2535 13.8315 30.5886C14.0351 30.9236 14.4778 31.5371 14.8155 31.952C15.1531 32.3668 15.4294 32.7994 15.4294 32.9134C15.4294 33.0272 15.2536 33.3659 15.0388 33.666C14.8239 33.966 14.6481 34.3086 14.6481 34.4272C14.6481 34.591 14.948 34.8617 15.8933 35.5513C16.578 36.0508 17.233 36.4782 17.3486 36.5011C17.5148 36.5339 17.6578 36.4095 18.0322 35.9061C18.2926 35.556 18.5856 35.2474 18.6834 35.2202C18.7812 35.1931 19.1659 35.3005 19.5382 35.4589C19.9104 35.6174 20.6434 35.8593 21.1669 35.9967C21.6905 36.134 22.1738 36.3171 22.2409 36.4036C22.3146 36.4985 22.363 36.8615 22.363 37.3199C22.363 37.9705 22.39 38.0936 22.5519 38.1802C22.7995 38.3127 25.6374 38.3127 25.8851 38.1802C26.0469 38.0936 26.0739 37.9705 26.0739 37.3199C26.0739 36.861 26.1222 36.4989 26.196 36.4045C26.2632 36.3186 26.6916 36.1535 27.1481 36.0378C27.6047 35.922 28.3555 35.6749 28.8166 35.4887C29.2776 35.3023 29.7171 35.1757 29.7932 35.2071C29.8691 35.2386 30.1411 35.5476 30.3976 35.8938C30.6651 36.2553 30.9373 36.5234 31.0364 36.5234C31.1314 36.5234 31.7896 36.1026 32.499 35.5884C33.498 34.8642 33.7888 34.6036 33.7888 34.4324C33.7888 34.3109 33.613 33.966 33.3981 33.666C33.1833 33.3659 33.0075 33.0258 33.0075 32.91C33.0075 32.7942 33.2647 32.3844 33.5791 31.9991C33.8934 31.614 34.3505 30.9866 34.5947 30.605C34.839 30.2234 35.107 29.885 35.1904 29.853C35.2738 29.821 35.6052 29.8837 35.9269 29.9924C36.9911 30.3518 36.9821 30.3594 37.577 28.5899C37.9868 27.3706 38.0723 27.013 37.9903 26.86C37.9264 26.7403 37.64 26.5907 37.2371 26.4662C36.8796 26.3559 36.5373 26.2241 36.4765 26.1736C36.3503 26.0689 36.3271 22.4905 36.4513 22.2979C36.4918 22.2351 36.8327 22.0885 37.2088 21.9721C37.6288 21.842 37.9313 21.688 37.9931 21.5726C38.0715 21.4261 37.9796 21.0455 37.577 19.8476C36.9817 18.0769 36.9919 18.0854 35.9202 18.4474C35.1884 18.6945 35.0926 18.6509 34.6054 17.8489C34.4019 17.5139 33.9591 16.9004 33.6214 16.4855C33.2838 16.0707 33.0075 15.6381 33.0075 15.5241C33.0075 15.4103 33.1833 15.0716 33.3981 14.7715C33.613 14.4715 33.7888 14.1266 33.7888 14.0051C33.7888 13.8339 33.498 13.5733 32.499 12.8491C31.7896 12.3349 31.1314 11.9141 31.0364 11.9141C30.9376 11.9141 30.6644 12.1821 30.3976 12.541C30.1411 12.8858 29.8576 13.1885 29.7675 13.2136C29.6774 13.2387 29.238 13.113 28.7909 12.9343C28.3439 12.7555 27.6047 12.5147 27.1481 12.3992C26.6916 12.2838 26.2632 12.1189 26.196 12.033C26.1222 11.9386 26.0739 11.5765 26.0739 11.1176C26.0739 10.467 26.0469 10.3439 25.8851 10.2573C25.6398 10.1261 22.7603 10.1299 22.5339 10.2617ZM3.90596 24.2188V36.7188H4.68721H5.46846V24.2188V11.7188H4.68721H3.90596V24.2188ZM42.9685 24.2188V36.7188H43.7497H44.531V24.2188V11.7188H43.7497H42.9685V24.2188ZM26.3181 15.8975C30.0612 16.9226 32.5614 19.9725 32.7792 23.7793C33.0239 28.0599 29.9561 31.9267 25.7305 32.6636C20.6532 33.549 15.9871 29.8675 15.6531 24.7127C15.4962 22.2913 16.4021 19.9336 18.1677 18.168C19.4542 16.8814 20.9172 16.1053 22.7048 15.7609C23.621 15.5844 25.4235 15.6525 26.3181 15.8975ZM26.5622 24.2188V28.125H27.3435H28.1247V24.2188V20.3125H27.3435H26.5622V24.2188ZM20.3122 25V28.125H21.0935H21.8747V25V21.875H21.0935H20.3122V25ZM23.4372 25.7812V28.125H24.2185H24.9997V25.7812V23.4375H24.2185H23.4372V25.7812ZM1.45186 41.3308C0.733691 42.5782 0.146191 43.6669 0.146191 43.75C0.146191 43.8331 0.733691 44.9218 1.45186 46.1692L2.75742 48.4375H5.46846H8.17949L9.48506 46.1692C10.2032 44.9218 10.7907 43.8331 10.7907 43.75C10.7907 43.6669 10.2032 42.5782 9.48506 41.3308L8.17949 39.0625H5.46846H2.75742L1.45186 41.3308ZM42.5888 39.2169C40.1127 39.8828 38.5808 42.4466 39.2117 44.8689C39.865 47.3772 42.425 48.9245 44.8687 48.288C47.3696 47.6365 48.924 45.0742 48.2915 42.6458C47.6322 40.1146 45.042 38.5571 42.5888 39.2169ZM13.281 43.75V44.5312H24.9997H36.7185V43.75V42.9688H24.9997H13.281V43.75Z" fill="url(#paint0_linear_10_5925)"/>
<defs>
<linearGradient id="paint0_linear_10_5925" x1="0" y1="24.8733" x2="48.4372" y2="24.8733" gradientUnits="userSpaceOnUse">
<stop stop-color="#00469F"/>
<stop offset="1" stop-color="#1E79D6"/>
</linearGradient>
</defs>
</svg>
