<svg width="50" height="50" viewBox="0 0 50 50" fill="none" xmlns="http://www.w3.org/2000/svg">
<path d="M7.8125 22.4023V10.9375C7.8125 10.5231 7.97712 10.1257 8.27015 9.83265C8.56317 9.53962 8.9606 9.375 9.375 9.375H40.625C41.0394 9.375 41.4368 9.53962 41.7299 9.83265C42.0229 10.1257 42.1875 10.5231 42.1875 10.9375V22.4023C42.1875 38.8086 28.2617 44.2383 25.4883 45.1562C25.1732 45.2729 24.8268 45.2729 24.5117 45.1562C21.7383 44.2383 7.8125 38.8086 7.8125 22.4023Z" stroke="url(#paint0_linear_10_5918)" stroke-width="2" stroke-linecap="round" stroke-linejoin="round"/>
<path d="M33.5938 20.3125L22.1289 31.25L16.4062 25.7812" stroke="url(#paint1_linear_10_5918)" stroke-width="2" stroke-linecap="round" stroke-linejoin="round"/>
<defs>
<linearGradient id="paint0_linear_10_5918" x1="7.8125" y1="27.7941" x2="42.1875" y2="27.7941" gradientUnits="userSpaceOnUse">
<stop stop-color="#00469F"/>
<stop offset="1" stop-color="#1E79D6"/>
</linearGradient>
<linearGradient id="paint1_linear_10_5918" x1="16.4063" y1="25.9291" x2="33.5938" y2="25.9291" gradientUnits="userSpaceOnUse">
<stop stop-color="#00469F"/>
<stop offset="1" stop-color="#1E79D6"/>
</linearGradient>
</defs>
</svg>
