<svg xmlns="http://www.w3.org/2000/svg" width="75" height="76" fill="none" xmlns:v="https://vecta.io/nano"><rect y=".5" width="75" height="75" rx="8" fill="url(#A)"/><path fill-rule="evenodd" d="M36.287 12.556c-.068.028-.189.176-.269.329-.21.405-.211 4.566-.002 4.97.309.598 1.07.524 1.318-.13.059-.155.102-1.165.102-2.414 0-2.237-.061-2.613-.444-2.761-.182-.07-.526-.068-.706.005zm-7.158 4.12a.59.59 0 0 0-.22.464c.003.373.588 1.868.823 2.102a.74.74 0 0 0 1.056-.074c.111-.142.202-.313.202-.381 0-.28-.711-1.963-.896-2.121-.26-.222-.685-.218-.966.009zm14.043-.008c-.161.178-.851 1.895-.851 2.118 0 .069.091.241.203.382.248.315.776.353 1.053.076.231-.231.817-1.73.823-2.105.009-.546-.859-.879-1.228-.472zm-22.535 2.465c-.116.116-.195.325-.195.516 0 .286.19.51 1.753 2.064 1.699 1.689 1.763 1.741 2.076 1.681.177-.034.399-.155.493-.268.373-.449.272-.607-1.559-2.449-1.542-1.551-1.765-1.74-2.051-1.74-.191 0-.4.079-.516.195zm29.47 1.544c-1.831 1.842-1.932 2-1.559 2.449.094.113.316.234.493.268.313.06.377.008 2.076-1.681 1.563-1.555 1.753-1.778 1.753-2.064a.68.68 0 0 0-.712-.712c-.286 0-.509.189-2.051 1.74zm-15.285-.564c-1.788.225-3.576.787-5.308 1.668-1.343.683-1.649.935-1.649 1.356 0 .324.367.782.626.782.081 0 .731-.305 1.445-.678 2.681-1.401 5.363-1.953 8.087-1.667 6.277.661 11.247 5.142 12.569 11.331.254 1.188.251 4.389-.005 5.562-.288 1.319-.608 2.213-1.281 3.57-1.013 2.042-2.378 3.669-4.313 5.138-.491.373-1.07.908-1.287 1.189-.488.633-.967 1.631-1.051 2.189l-.063.422h-1.303c-1.4 0-1.715.076-1.888.455-.152.335-.137.459.094.753.202.257.206.257 1.612.257h1.409l-.002 2.027c-.002 2.172-.074 2.553-.564 2.988-.478.425-.728.446-5.295.446s-4.817-.021-5.295-.446c-.489-.435-.561-.816-.564-2.988l-.002-2.027h3.321c3.191 0 3.329-.008 3.516-.195.291-.291.261-.814-.062-1.067-.249-.196-.367-.202-3.554-.202H30.72l-.063-.422c-.084-.558-.562-1.555-1.05-2.188-.216-.28-.817-.835-1.336-1.234-3.117-2.393-4.987-5.444-5.629-9.185-.19-1.107-.192-3.356-.005-4.505.442-2.7 1.721-5.304 3.622-7.368.608-.661.727-.844.727-1.123 0-.244-.069-.388-.257-.536-.486-.382-.772-.239-1.765.883a16.04 16.04 0 0 0-3.793 7.852c-.252 1.421-.235 3.752.039 5.243.729 3.98 2.81 7.366 6.037 9.822.979.745 1.351 1.17 1.733 1.974l.303.639.049 3.126.049 3.126.259.488c.342.646.899 1.194 1.499 1.477.269.127.532.231.586.232s.227.249.385.552c.817 1.564 2.703 2.672 4.547 2.672s3.724-1.099 4.539-2.655c.246-.469.338-.555.765-.706.603-.214 1.368-.914 1.714-1.569l.259-.49.049-3.126.049-3.126.273-.582c.402-.858.648-1.134 1.911-2.146 2.203-1.764 3.472-3.357 4.645-5.831 2.692-5.678 1.661-12.411-2.627-17.146-2.228-2.46-5.28-4.168-8.617-4.822-1.206-.236-3.653-.333-4.793-.189zm-.201 6.2c-.128.163-.23.53-.305 1.099-.171 1.3-.123 1.216-.863 1.514-.367.148-.704.269-.748.269s-.465-.286-.933-.635c-.574-.427-.942-.635-1.126-.635-.219 0-.522.246-1.531 1.245-.692.684-1.282 1.34-1.311 1.456-.067.267.05.486.763 1.424l.573.755-.185.368c-.102.202-.238.533-.304.734s-.159.366-.209.366-.541.066-1.091.147c-1.46.215-1.44.183-1.44 2.336 0 2.253-.069 2.159 1.778 2.404l.85.113.115.357a6.19 6.19 0 0 0 .3.725l.185.368-.573.755c-.649.855-.8 1.109-.8 1.351 0 .093.58.755 1.29 1.471 1.072 1.082 1.338 1.302 1.576 1.302.201 0 .549-.195 1.163-.652.854-.636.884-.649 1.183-.526l.719.284c.455.175.437.133.621 1.457.072.516.181.895.303 1.05l.191.243h1.842 1.842l.191-.243c.133-.169.229-.541.315-1.215.068-.535.15-1.008.182-1.051.057-.077.963-.486 1.302-.587.109-.032.481.181 1.037.595.607.452.953.646 1.154.646.238 0 .504-.22 1.576-1.302.709-.716 1.29-1.378 1.29-1.471 0-.242-.151-.496-.8-1.351l-.573-.755.185-.368a6.14 6.14 0 0 0 .298-.719l.113-.351 1.096-.155c1.568-.222 1.537-.174 1.537-2.366 0-2.177.032-2.128-1.514-2.353l-1.087-.171c-.007-.008-.148-.339-.313-.735l-.3-.72.566-.745c.705-.928.823-1.148.756-1.414-.029-.116-.619-.771-1.311-1.456-1.009-.998-1.312-1.245-1.531-1.245-.184 0-.556.21-1.141.646-.556.414-.928.628-1.037.595-.339-.102-1.245-.511-1.302-.588-.032-.043-.115-.524-.184-1.068-.188-1.478-.129-1.442-2.383-1.442h-1.804l-.192.245zm-16.099 1.122c-.25.101-.523.467-.523.701 0 .311.434.658 1.199.957.881.345 1.336.377 1.576.111.219-.242.229-.744.018-.976-.128-.141-1.909-.914-2.035-.884-.014.003-.12.044-.235.091zm35.079.254c-.483.188-.963.425-1.066.527a.77.77 0 0 0-.009.976c.251.277.692.249 1.586-.1.778-.304 1.199-.646 1.199-.973 0-.228-.372-.65-.635-.72-.107-.029-.591.102-1.074.29zm-16.066-.034c.006.411.297 1.965.39 2.076.061.073.4.227.754.341a10.22 10.22 0 0 1 1.211.495c.313.158.676.287.807.287.139 0 .57-.245 1.029-.586.435-.322.824-.586.866-.586s.332.259.646.576l.57.576-.584.767c-.773 1.015-.791 1.089-.431 1.779a10.08 10.08 0 0 1 .505 1.191c.116.344.252.702.301.795.103.192.551.325 1.406.417.976.106.928.054.928.98 0 .94.103.853-1.208 1.03-1.018.137-1.147.234-1.378 1.03-.091.311-.317.868-.503 1.237-.234.466-.317.737-.271.885.037.117.33.558.651.98l.584.767-.57.576c-.314.317-.604.576-.646.576s-.431-.264-.866-.586c-.459-.34-.89-.586-1.029-.586-.131 0-.536.15-.901.334s-.915.407-1.224.497c-.678.197-.781.374-.946 1.636l-.112.855h-.859-.859l-.112-.855c-.166-1.266-.272-1.448-.955-1.645a8.76 8.76 0 0 1-1.222-.492c-.361-.181-.764-.329-.895-.329-.138 0-.57.246-1.029.586-.435.322-.825.586-.866.586s-.332-.259-.646-.576l-.57-.576.584-.767c.321-.422.614-.863.651-.98.047-.148-.036-.419-.271-.885-.186-.369-.412-.926-.503-1.237-.232-.796-.36-.893-1.379-1.03-1.311-.177-1.208-.09-1.208-1.03 0-.924-.052-.869.928-.975 1.294-.14 1.398-.212 1.679-1.157.082-.278.301-.805.485-1.171.232-.461.315-.732.268-.879-.037-.117-.33-.558-.651-.98l-.584-.767.57-.576c.314-.317.607-.576.652-.576s.428.264.852.586c.482.367.864.586 1.023.586.139 0 .509-.129.821-.287s.864-.382 1.225-.499c.784-.253.87-.393 1.039-1.68l.112-.855h.869c.629 0 .869.034.871.122zm-2.083 4.518c-2.329.64-3.879 2.995-3.489 5.302.472 2.8 3.192 4.584 5.909 3.877 2.297-.598 3.863-2.993 3.473-5.31-.464-2.751-3.266-4.59-5.893-3.868zm2.494 1.599c.608.261 1.301.911 1.623 1.522.231.438.26.6.26 1.469s-.029 1.031-.26 1.469a3.91 3.91 0 0 1-1.628 1.54c-.644.293-1.93.293-2.574 0a3.91 3.91 0 0 1-1.627-1.54c-.231-.438-.26-.6-.26-1.469s.029-1.031.26-1.469a3.52 3.52 0 0 1 2.182-1.716c.461-.124 1.518-.023 2.024.194zm-23.712.838c-.308.308-.313.731-.014 1.013.22.206.295.212 2.669.212 2.427 0 2.444-.002 2.655-.226a.68.68 0 0 0-.027-.999l-.24-.24h-2.402-2.402l-.24.24zm39.558 0c-.308.308-.313.731-.014 1.013.22.206.295.212 2.669.212 2.427 0 2.444-.002 2.655-.226a.68.68 0 0 0-.027-.999l-.24-.24h-2.402-2.402l-.24.24zm-14.11 24.853c0 .208-1.112 1.085-1.636 1.29-.784.306-1.999.306-2.783 0-.524-.205-1.636-1.082-1.636-1.29 0-.05 1.3-.088 3.028-.088s3.028.038 3.028.088z" fill="#fff"/><defs><linearGradient id="A" x1="0" y1="39.014" x2="75" y2="39.014" gradientUnits="userSpaceOnUse"><stop stop-color="#00469f"/><stop offset="1" stop-color="#1e79d6"/></linearGradient></defs></svg>
