<svg xmlns="http://www.w3.org/2000/svg" width="75" height="76" fill="none" xmlns:v="https://vecta.io/nano"><rect y=".5" width="75" height="75" rx="8" fill="url(#A)"/><path fill-rule="evenodd" d="M36.525 12.619c-.414.229-.492.511-.496 1.789-.004 1.315.081 1.628.499 1.844.341.176.608.176.949 0 .415-.215.503-.532.503-1.815 0-.694-.047-1.267-.117-1.42-.214-.47-.862-.662-1.338-.398zm-12.048 3.256a1.01 1.01 0 0 0-.472.839c0 .289 1.12 2.269 1.392 2.459.247.173.78.198 1.057.05.229-.122.483-.591.483-.89 0-.194-.88-1.843-1.196-2.243a.94.94 0 0 0-1.264-.215zm24.107-.049c-.27.155-.365.286-.978 1.354-.295.514-.537 1.033-.537 1.153 0 .298.255.768.483.89.276.148.81.123 1.057-.05.271-.19 1.392-2.169 1.392-2.459 0-.719-.818-1.232-1.417-.888zm-16.956 3.168c-1.173.227-2.298.855-3.093 1.727-.742.814-1.123 1.58-1.348 2.716-.042.214-.143.278-.662.422-1.644.457-3.127 1.684-3.859 3.193-.516 1.064-.636 1.588-.631 2.754l.005.953-.547.35c-1.504.962-2.616 2.653-2.97 4.518-.171.903-.065 2.255.251 3.199.382 1.138.769 1.753 1.686 2.677l.819.825-.292.641c-.42.921-.532 1.412-.538 2.351-.007 1.034.145 1.68.637 2.714.962 2.022 2.975 3.361 5.282 3.513l.849.056.063.371c.107.634.679 1.683 1.258 2.309a5.22 5.22 0 0 0 3.724 1.76c1.55.093 2.896-.407 4.066-1.509l.674-.636.674.636c1.868 1.762 4.611 2.032 6.743.664 1.049-.673 2.129-2.184 2.305-3.223l.063-.371.849-.056c2.306-.152 4.319-1.49 5.282-3.513.492-1.034.644-1.681.637-2.714-.006-.939-.119-1.43-.538-2.351l-.292-.641.819-.825c.918-.924 1.305-1.539 1.687-2.677.316-.944.422-2.296.251-3.199-.354-1.865-1.466-3.556-2.97-4.518l-.547-.35.005-.953c.006-1.165-.114-1.689-.63-2.754-.732-1.509-2.215-2.736-3.859-3.193-.519-.144-.62-.208-.662-.422-.028-.139-.116-.479-.196-.757-.436-1.514-1.822-2.91-3.445-3.471-.545-.188-.841-.224-1.778-.217-1.646.014-2.598.4-3.787 1.538l-.611.585-.611-.585c-1.106-1.059-2.111-1.492-3.591-1.548-.511-.019-1.038-.014-1.173.012zm2.153 2.139c.868.306 1.556.959 1.982 1.882.212.46.214.5.242 7.437l.028 6.975-.464-.07c-1.42-.213-2.135-.787-3.11-2.495-1.087-1.904-1.984-2.657-3.555-2.985-.666-.139-.74-.137-1.072.025-.48.235-.66.62-.514 1.105.132.441.38.619 1.066.766.644.138 1.165.403 1.502.762.255.272 1.548 2.427 1.548 2.579 0 .143-.753.723-1.56 1.203-.576.342-.842.566-.954.801-.3.628.159 1.334.865 1.333.199 0 .581-.143.963-.359.661-.374 1.851-1.223 2.049-1.461.097-.117.21-.093.736.153.342.16.988.361 1.436.446l.94.188c.102.027.121 1.198.098 6.07l-.029 6.036-.261.557c-1.014 2.164-3.882 2.672-5.611.994-.466-.452-.773-.991-.909-1.594l-.091-.404.419-.197c.914-.43 1.633-1.279 2.101-2.483.325-.836.608-1.171 1.226-1.454.404-.185.575-.327.673-.562.167-.397.056-.835-.288-1.136-.313-.274-.665-.278-1.369-.014-.806.302-1.478 1.013-1.888 1.998-.563 1.353-.741 1.593-1.416 1.907-2.21 1.027-4.748.132-5.757-2.03-.284-.609-.309-.746-.313-1.689-.004-1.175.139-1.6.85-2.521.667-.865.536-1.402-.481-1.976-.728-.411-1.568-1.277-1.915-1.974-.954-1.92-.608-4.055.898-5.555a5.36 5.36 0 0 1 1.314-.974c.927-.462 1.083-.679.982-1.365-.043-.296-.078-.933-.077-1.417.002-1.179.245-1.8 1.035-2.644.995-1.064 2.415-1.575 3.707-1.335.891.166 1.18.399 1.854 1.495.659 1.072 1.287 1.698 1.86 1.852.516.139 1.182.142 1.436.006.234-.125.506-.588.505-.859-.001-.256-.348-.785-.555-.845l-.59-.158c-.383-.099-.454-.175-1.006-1.072-.848-1.38-1.557-1.979-2.673-2.26-.548-.138-.562-.232-.153-1.051.753-1.506 2.628-2.217 4.297-1.629zm8.304-.148c1.093.207 1.972.848 2.436 1.777.409.819.395.912-.153 1.051-1.116.281-1.825.881-2.673 2.26-.551.897-.623.973-1.006 1.072l-.59.158c-.207.06-.554.59-.555.845-.001.271.272.734.505.859.254.136.92.133 1.436-.006.572-.154 1.201-.78 1.86-1.852.674-1.096.963-1.329 1.854-1.495 1.292-.24 2.712.271 3.707 1.335.79.844 1.032 1.465 1.035 2.644.001.484-.034 1.121-.077 1.417-.101.686.055.903.982 1.365 1.971.982 3.089 3.193 2.646 5.233-.09.412-.285.996-.434 1.296-.346.697-1.186 1.563-1.915 1.974-1.017.574-1.148 1.111-.481 1.976.711.921.854 1.346.85 2.521-.004.943-.029 1.08-.313 1.689-1.009 2.162-3.547 3.057-5.757 2.03-.675-.314-.853-.554-1.416-1.907-.41-.985-1.082-1.697-1.888-1.998-.704-.263-1.055-.26-1.369.014-.344.301-.455.739-.288 1.136.099.234.269.377.673.562.618.283.901.618 1.226 1.454.468 1.204 1.187 2.053 2.101 2.483l.419.197-.091.404c-.136.603-.443 1.142-.908 1.594-1.729 1.678-4.597 1.17-5.611-.994l-.261-.557v-4.251c0-4.71.014-4.835.645-5.601 1.04-1.262 2.819-1.001 3.902.573.478.695 1.182.774 1.645.185.29-.369.262-.799-.088-1.352-1.226-1.932-3.693-2.72-5.57-1.777l-.543.252c-.023 0-.041-1.401-.041-3.112v-3.112l.537.084c.296.046.787.178 1.093.292.577.216.839.447 2.377 2.103.984 1.059 2.35 1.812 2.994 1.65.417-.105.72-.486.72-.908 0-.533-.215-.774-1.037-1.165-.608-.289-.844-.479-1.48-1.19-1.812-2.029-2.559-2.461-4.843-2.806l-.373-.056.031-3.928.03-3.928.261-.557c.461-.983 1.397-1.723 2.44-1.928.599-.118.77-.119 1.356-.008zm-26.346 3.63c-.249.121-.53.577-.53.862 0 .254.17.593.382.761.085.068.576.364 1.09.66 1.103.633 1.432.678 1.858.251.329-.329.389-.891.135-1.254-.204-.292-2.183-1.393-2.488-1.385-.134.004-.336.051-.448.105zm40.789.476c-.575.323-1.114.685-1.197.804-.254.363-.194.925.135 1.254.427.427.755.382 1.858-.251 1.092-.627 1.207-.711 1.358-.996.326-.612-.176-1.399-.893-1.399-.118 0-.686.265-1.262.588zm-9.422 10.903c-.604.298-.735 1.035-.27 1.52.493.514 1.378.318 1.6-.354.156-.472-.077-.987-.531-1.177-.418-.175-.422-.175-.799.011zm-34.623.666c-.462.256-.617.819-.36 1.315.215.415.532.503 1.815.503s1.601-.088 1.815-.503c.262-.506.08-1.118-.396-1.335-.362-.165-2.569-.15-2.875.02zm46.127 0c-.462.256-.616.819-.36 1.315.215.415.532.503 1.815.503s1.601-.088 1.815-.503c.262-.506.08-1.118-.396-1.335-.362-.165-2.569-.15-2.875.02zM26.56 39.703c-.372.313-.468.718-.263 1.113.493.953 1.812.664 1.812-.396 0-.835-.909-1.256-1.549-.717zm-9.842 8.378c-1.089.63-1.252.749-1.395 1.019-.328.619.165 1.399.884 1.399.296 0 2.275-1.116 2.468-1.392.173-.247.198-.781.05-1.057-.123-.231-.593-.483-.896-.482-.124 0-.623.231-1.111.513zm38.929-.362c-.146.08-.311.229-.366.332-.148.276-.122.81.051 1.056.193.276 2.172 1.392 2.468 1.392.719 0 1.212-.781.883-1.399-.152-.285-.267-.369-1.358-.996-.98-.563-1.239-.622-1.677-.384zm-30.25 8.11c-.271.19-1.392 2.169-1.392 2.459 0 .508.482 1.006.973 1.006.465 0 .742-.274 1.351-1.338.334-.584.608-1.162.608-1.284 0-.301-.254-.77-.483-.893-.276-.148-.81-.123-1.057.05zm22.136-.045c-.217.126-.464.599-.464.888 0 .356 1.175 2.325 1.483 2.484.679.351 1.449-.111 1.449-.868 0-.289-1.12-2.269-1.392-2.459a1.27 1.27 0 0 0-1.076-.045zm-11.008 2.963c-.414.229-.492.511-.496 1.789-.004 1.315.081 1.628.499 1.844.506.262 1.118.08 1.335-.396.07-.153.117-.726.117-1.42s-.047-1.267-.117-1.42c-.214-.47-.862-.663-1.338-.398z" fill="#fff"/><defs><linearGradient id="A" x1="0" y1="39.014" x2="75" y2="39.014" gradientUnits="userSpaceOnUse"><stop stop-color="#00469f"/><stop offset="1" stop-color="#1e79d6"/></linearGradient></defs></svg>
