<svg xmlns="http://www.w3.org/2000/svg" width="65" height="65" fill="none" xmlns:v="https://vecta.io/nano"><style><![CDATA[.B{stroke-linejoin:round}.C{stroke-linecap:round}]]></style><rect width="65" height="65" rx="8" fill="url(#A)"/><g stroke="#fff" stroke-width="2" class="B"><path d="M33 29v22m0-36v6" class="C"/><path d="M33 29a4 4 0 1 0 0-8 4 4 0 1 0 0 8z"/><path d="M48 45v6m0-36v22" class="C"/><path d="M48 45a4 4 0 1 0 0-8 4 4 0 1 0 0 8z"/><path d="M18 39v12m0-36v16" class="C"/><path d="M18 39a4 4 0 1 0 0-8 4 4 0 1 0 0 8z"/></g><defs><linearGradient id="A" x1="0" y1="33.378" x2="65" y2="33.378" gradientUnits="userSpaceOnUse"><stop stop-color="#00469f"/><stop offset="1" stop-color="#1e79d6"/></linearGradient></defs></svg>
