<svg width="80" height="91" viewBox="0 0 80 91" fill="none" xmlns="http://www.w3.org/2000/svg">
<path d="M33.0066 52.4872C32.847 52.4865 32.6939 52.4242 32.5793 52.3131L21.8832 42.1233L7.00977 37.9619C6.88163 37.9269 6.76867 37.8505 6.68852 37.7446C6.60837 37.6387 6.56555 37.5092 6.56674 37.3764V20.7467C6.56432 20.6093 6.60897 20.4753 6.6933 20.3669L5.60152 21.1422C5.46894 21.2355 5.30499 21.2728 5.14511 21.2462C4.98523 21.2195 4.84226 21.131 4.74708 20.9998C4.65385 20.8673 4.61652 20.7033 4.64316 20.5434C4.66981 20.3835 4.75829 20.2406 4.88948 20.1454L21.63 8.15175C21.7539 8.06343 21.906 8.02397 22.0572 8.04098L45.8547 10.7942C46.0094 10.8166 46.1503 10.8955 46.2502 11.0157L59.035 25.8891C59.1042 25.9613 59.1525 26.051 59.1748 26.1485C59.1971 26.246 59.1925 26.3477 59.1616 26.4429L55.6648 39.4967C55.6308 39.642 55.5438 39.7695 55.421 39.8543C55.2982 39.9391 55.1482 39.9752 55.0002 39.9555L41.7091 38.3733L33.5129 52.1549C33.4675 52.2345 33.4034 52.302 33.3263 52.3516C33.2492 52.4011 33.1612 52.4314 33.0699 52.4397L33.0066 52.4872ZM7.78507 36.9018L22.3578 40.984C22.4577 41.0089 22.5501 41.0578 22.6268 41.1264L32.8642 50.8891L40.8705 37.4397C40.9309 37.3369 41.0199 37.2537 41.1266 37.2003C41.2333 37.147 41.3532 37.1257 41.4718 37.1391L54.6363 38.7214L57.9116 26.4903L45.4907 12.06L22.1205 9.29099L6.94647 20.1612C7.03882 20.1347 7.13597 20.1297 7.23059 20.1463C7.32521 20.163 7.41483 20.2009 7.4926 20.2573C7.57036 20.3137 7.63428 20.3871 7.67947 20.4719C7.72466 20.5567 7.74996 20.6507 7.75344 20.7467L7.78507 36.9018Z" fill="#C7C8CA"/>
<path d="M22.4202 42.1222C22.3282 42.1216 22.2375 42.0999 22.1553 42.0588C22.073 42.0176 22.0012 41.9581 21.9455 41.8849L5.09425 20.9672C5.03164 20.9066 4.98256 20.8334 4.95025 20.7525C4.91795 20.6716 4.90313 20.5848 4.9068 20.4977C4.91046 20.4107 4.93251 20.3254 4.9715 20.2475C5.01049 20.1696 5.06554 20.1008 5.13302 20.0457C5.2005 19.9906 5.27889 19.9504 5.36301 19.9278C5.44714 19.9052 5.53509 19.9006 5.62111 19.9144C5.70713 19.9282 5.78929 19.9601 5.86211 20.0079C5.93493 20.0557 5.99677 20.1184 6.04362 20.1919L21.8664 39.7646V10.002C21.8898 9.85729 21.964 9.7256 22.0756 9.63058C22.1872 9.53556 22.329 9.4834 22.4756 9.4834C22.6222 9.4834 22.764 9.53556 22.8756 9.63058C22.9872 9.7256 23.0613 9.85729 23.0847 10.002V41.5684C23.0832 41.6961 23.0431 41.8204 22.9697 41.9249C22.8963 42.0294 22.793 42.1092 22.6734 42.1539L22.4202 42.1222Z" fill="#C7C8CA"/>
<path d="M34.0969 51.9172C33.9641 51.9184 33.8346 51.8756 33.7287 51.7955C33.6228 51.7153 33.5464 51.6023 33.5115 51.4742L27.6887 31.49L5.31529 21.5533C5.23695 21.5232 5.16559 21.4773 5.10558 21.4186C5.04556 21.36 4.99813 21.2897 4.96622 21.212C4.93431 21.1344 4.9186 21.051 4.92001 20.9671C4.92142 20.8832 4.93994 20.8004 4.97443 20.7239C5.00892 20.6474 5.05864 20.5786 5.12059 20.522C5.18254 20.4654 5.2554 20.422 5.3347 20.3945C5.414 20.367 5.49811 20.3559 5.58183 20.362C5.66555 20.3681 5.74715 20.3912 5.82163 20.4299L28.4482 30.5249C28.5283 30.5637 28.5993 30.619 28.6565 30.6872C28.7138 30.7554 28.756 30.8348 28.7804 30.9204L34.6824 51.1894C34.7268 51.3447 34.7086 51.5111 34.6317 51.6531C34.5548 51.7951 34.4253 51.9013 34.271 51.9489L34.0969 51.9172Z" fill="#C7C8CA"/>
<path d="M36.3591 26.5055C36.2722 26.5074 36.1859 26.49 36.1065 26.4544C36.0271 26.4188 35.9567 26.366 35.9003 26.2998L20.6155 9.70171C20.554 9.64376 20.5052 9.57384 20.4719 9.49624C20.4386 9.41865 20.4216 9.33504 20.4219 9.25061C20.4222 9.16617 20.4398 9.0827 20.4737 9.00536C20.5076 8.92801 20.5569 8.8584 20.6187 8.80091C20.6806 8.74341 20.7536 8.69922 20.8332 8.67106C20.9128 8.6429 20.9973 8.63139 21.0815 8.63721C21.1658 8.64304 21.2479 8.66611 21.3229 8.70496C21.3978 8.74381 21.464 8.79764 21.5174 8.8631L36.8022 25.477C36.8606 25.5318 36.9072 25.5979 36.9391 25.6714C36.9709 25.7449 36.9873 25.8241 36.9873 25.9042C36.9873 25.9843 36.9709 26.0635 36.9391 26.137C36.9072 26.2105 36.8606 26.2767 36.8022 26.3314C36.7441 26.3891 36.6748 26.4342 36.5986 26.4642C36.5224 26.4941 36.4409 26.5082 36.3591 26.5055Z" fill="#C7C8CA"/>
<path d="M58.5905 26.949H36.3595C36.2779 26.9512 36.1967 26.9367 36.1208 26.9065C36.045 26.8762 35.9761 26.8308 35.9183 26.7731C35.8606 26.7154 35.8152 26.6465 35.7849 26.5706C35.7547 26.4948 35.7402 26.4135 35.7424 26.3319C35.7424 26.1682 35.8075 26.0113 35.9232 25.8956C36.0389 25.7799 36.1959 25.7148 36.3595 25.7148H58.5114C58.6738 25.7189 58.8285 25.7852 58.9433 25.9C59.0582 26.0149 59.1245 26.1695 59.1285 26.3319C59.1298 26.4827 59.0757 26.6288 58.9766 26.7425C58.8774 26.8562 58.7401 26.9297 58.5905 26.949Z" fill="#C7C8CA"/>
<path d="M41.3929 38.5936H41.298C41.1383 38.5627 40.9966 38.4715 40.9023 38.3389C40.808 38.2064 40.7684 38.0426 40.7917 37.8816L45.1904 11.2993C45.2037 11.2197 45.2328 11.1436 45.2761 11.0755C45.3194 11.0075 45.376 10.9488 45.4424 10.903C45.5089 10.8573 45.5838 10.8253 45.6628 10.8091C45.7419 10.7929 45.8234 10.7928 45.9024 10.8088C46.0609 10.836 46.2025 10.924 46.2971 11.054C46.3916 11.184 46.4317 11.3458 46.4088 11.505L41.9942 38.0873C41.9714 38.2298 41.8982 38.3593 41.7878 38.4523C41.6774 38.5452 41.5373 38.5954 41.3929 38.5936Z" fill="#C7C8CA"/>
<path d="M41.7244 38.594C41.6284 38.594 41.5337 38.5711 41.4484 38.527C41.363 38.483 41.2895 38.4191 41.2339 38.3408C41.1857 38.2759 41.151 38.202 41.1321 38.1233C41.1131 38.0447 41.1101 37.9631 41.1234 37.8834C41.1367 37.8036 41.166 37.7273 41.2094 37.6591C41.2529 37.5909 41.3097 37.5322 41.3763 37.4864L58.2276 25.5086C58.3599 25.4366 58.514 25.4155 58.6609 25.4492C58.8077 25.483 58.9371 25.5693 59.0247 25.6919C59.1122 25.8145 59.1519 25.9649 59.1363 26.1148C59.1206 26.2646 59.0506 26.4036 58.9396 26.5054L42.0883 38.4833C41.9817 38.5576 41.8544 38.5963 41.7244 38.594Z" fill="#C7C8CA"/>
<path d="M5.23734 25.8887C8.12984 25.8887 10.4747 23.5439 10.4747 20.6514C10.4747 17.7589 8.12984 15.4141 5.23734 15.4141C2.34484 15.4141 0 17.7589 0 20.6514C0 23.5439 2.34484 25.8887 5.23734 25.8887Z" fill="#444446"/>
<path d="M21.9776 13.8956C24.8701 13.8956 27.2149 11.5507 27.2149 8.65824C27.2149 5.76573 24.8701 3.4209 21.9776 3.4209C19.0851 3.4209 16.7402 5.76573 16.7402 8.65824C16.7402 11.5507 19.0851 13.8956 21.9776 13.8956Z" fill="#498AC9"/>
<path d="M7.4527 40.9357C9.41891 40.9357 11.0128 39.3418 11.0128 37.3756C11.0128 35.4094 9.41891 33.8154 7.4527 33.8154C5.4865 33.8154 3.89258 35.4094 3.89258 37.3756C3.89258 39.3418 5.4865 40.9357 7.4527 40.9357Z" fill="#498AC9"/>
<path d="M22.4211 45.4145C24.5446 45.4145 26.266 43.693 26.266 41.5695C26.266 39.446 24.5446 37.7246 22.4211 37.7246C20.2976 37.7246 18.5762 39.446 18.5762 41.5695C18.5762 43.693 20.2976 45.4145 22.4211 45.4145Z" fill="#444446"/>
<path d="M33.0076 55.4293C35.1574 55.4293 36.9 53.6866 36.9 51.5369C36.9 49.3872 35.1574 47.6445 33.0076 47.6445C30.8579 47.6445 29.1152 49.3872 29.1152 51.5369C29.1152 53.6866 30.8579 55.4293 33.0076 55.4293Z" fill="#444446"/>
<path d="M41.3932 42.9612C44.2682 42.9612 46.5989 40.6305 46.5989 37.7555C46.5989 34.8805 44.2682 32.5498 41.3932 32.5498C38.5182 32.5498 36.1875 34.8805 36.1875 37.7555C36.1875 40.6305 38.5182 42.9612 41.3932 42.9612Z" fill="#498AC9"/>
<path d="M58.5912 31.2684C61.5012 31.2684 63.8602 28.9094 63.8602 25.9995C63.8602 23.0895 61.5012 20.7305 58.5912 20.7305C55.6813 20.7305 53.3223 23.0895 53.3223 25.9995C53.3223 28.9094 55.6813 31.2684 58.5912 31.2684Z" fill="#498AC9"/>
<path d="M55.0942 42.3446C56.7546 42.3446 58.1006 40.9986 58.1006 39.3382C58.1006 37.6779 56.7546 36.3319 55.0942 36.3319C53.4339 36.3319 52.0879 37.6779 52.0879 39.3382C52.0879 40.9986 53.4339 42.3446 55.0942 42.3446Z" fill="#444446"/>
<path d="M36.186 29.0058C37.8464 29.0058 39.1923 27.6598 39.1923 25.9995C39.1923 24.3391 37.8464 22.9932 36.186 22.9932C34.5257 22.9932 33.1797 24.3391 33.1797 25.9995C33.1797 27.6598 34.5257 29.0058 36.186 29.0058Z" fill="#444446"/>
<path d="M28.1958 34.0537C29.8561 34.0537 31.2021 32.7077 31.2021 31.0473C31.2021 29.387 29.8561 28.041 28.1958 28.041C26.5354 28.041 25.1895 29.387 25.1895 31.0473C25.1895 32.7077 26.5354 34.0537 28.1958 34.0537Z" fill="#498AC9"/>
<path d="M45.7916 15.05C47.8015 15.05 49.4308 13.4206 49.4308 11.4107C49.4308 9.40083 47.8015 7.77148 45.7916 7.77148C43.7817 7.77148 42.1523 9.40083 42.1523 11.4107C42.1523 13.4206 43.7817 15.05 45.7916 15.05Z" fill="#498AC9"/>
<path d="M33.3383 90.3506C39.4431 90.3736 45.4927 89.1938 51.1415 86.8787C56.7904 84.5636 61.928 81.1586 66.2609 76.858C70.5938 72.5574 74.0372 67.4454 76.3945 61.8141C78.7519 56.1827 79.9769 50.1422 79.9997 44.0373C80.0186 32.7033 75.8421 21.7633 68.275 13.3253C59.4934 3.49939 43.8288 -2.89301 30.6643 1.31585C30.6181 1.31585 30.5738 1.3342 30.5412 1.36684C30.5085 1.39948 30.4902 1.44376 30.4902 1.48992C30.4902 1.53608 30.5085 1.58037 30.5412 1.61301C30.5738 1.64565 30.6181 1.66395 30.6643 1.66395C59.7782 2.10699 67.0567 20.2399 67.0567 27.819C67.0567 35.3981 64.6991 35.05 64.6991 37.8348C64.6991 40.6197 67.7054 44.5437 69.9048 48.1354C72.1041 51.7272 70.3161 52.8823 67.7054 53.1354C65.0946 53.3886 65.7592 54.1481 65.7592 57.3285C65.7592 59.1956 65.7592 59.1006 63.1643 60.493C63.4514 60.6891 63.6864 60.9522 63.8488 61.2597C64.0112 61.5671 64.0961 61.9096 64.0961 62.2573C64.0961 62.605 64.0112 62.9474 63.8488 63.2549C63.6864 63.5623 63.4514 63.8255 63.1643 64.0215C62.5813 64.4275 62.1408 65.0066 61.9051 65.6767C61.6694 66.3469 61.6505 67.0742 61.8509 67.7557C62.3256 68.7209 65.2212 75.3823 52.3573 74.3855C39.7782 73.3886 41.2813 72.5025 31.7877 89.7177C31.7484 89.7824 31.7271 89.8564 31.7258 89.932C31.7245 90.0076 31.7434 90.0823 31.7804 90.1483C31.8174 90.2143 31.8713 90.2692 31.9365 90.3075C32.0017 90.3459 32.076 90.3662 32.1516 90.3664L33.3383 90.3506Z" fill="url(#paint0_linear_232_4192)"/>
<g style="mix-blend-mode:multiply" opacity="0.81">
<g style="mix-blend-mode:multiply" opacity="0.81">
<path d="M46.8354 73.9268C39.9999 73.6261 39.6044 75.5091 31.8354 89.7496C31.7962 89.8142 31.7748 89.8882 31.7735 89.9638C31.7722 90.0394 31.791 90.1141 31.8281 90.1801C31.8651 90.2461 31.919 90.301 31.9842 90.3394C32.0494 90.3777 32.1236 90.398 32.1993 90.3983H34.3512C34.2761 90.3962 34.2027 90.3749 34.138 90.3366C34.0733 90.2983 34.0194 90.2441 33.9814 90.1792C33.9434 90.1143 33.9226 90.0409 33.9208 89.9657C33.9191 89.8905 33.9365 89.8161 33.9714 89.7496C40.8543 77.2021 41.9461 74.2432 46.8354 73.9268Z" fill="#498AC9"/>
</g>
</g>
<g style="mix-blend-mode:multiply" opacity="0.81">
<g style="mix-blend-mode:multiply" opacity="0.81">
<path d="M64.0503 67.7249C63.8507 67.0449 63.8684 66.3195 64.101 65.6501C64.3336 64.9806 64.7695 64.4005 65.3478 63.9908C65.635 63.7947 65.8699 63.5316 66.0323 63.2241C66.1947 62.9166 66.2796 62.5742 66.2796 62.2265C66.2796 61.8788 66.1947 61.5364 66.0323 61.2289C65.8699 60.9215 65.635 60.6583 65.3478 60.4623C68.006 59.1015 67.9586 59.1964 67.9586 57.2977C67.9586 54.1332 67.294 53.3104 69.9048 53.1047C72.5155 52.899 74.2718 51.6806 72.0883 48.1047C69.9047 44.5287 66.8826 40.573 66.8826 37.804C66.8826 35.035 69.256 35.4781 69.256 27.7882C69.256 20.0984 61.7877 1.63318 31.7877 1.63318C34.5727 0.658376 37.4929 0.124517 40.4427 0.0509056C37.1328 -0.0831798 33.8247 0.35578 30.6643 1.34838C30.6181 1.34838 30.5738 1.36669 30.5412 1.39933C30.5085 1.43197 30.4902 1.47625 30.4902 1.52241C30.4902 1.56857 30.5085 1.61286 30.5412 1.6455C30.5738 1.67814 30.6181 1.69649 30.6643 1.69649C59.7782 2.13953 67.0567 20.2724 67.0567 27.8515C67.0567 35.4306 64.6991 35.0825 64.6991 37.8673C64.6991 40.6521 67.7054 44.5762 69.9048 48.168C72.1041 51.7597 70.3161 52.9148 67.7054 53.168C65.0946 53.4212 65.7592 54.1806 65.7592 57.361C65.7592 59.2281 65.7592 59.1332 63.1643 60.5256C63.4514 60.7216 63.6864 60.9848 63.8488 61.2922C64.0112 61.5997 64.0961 61.9421 64.0961 62.2898C64.0961 62.6375 64.0112 62.98 63.8488 63.2874C63.6864 63.5949 63.4514 63.858 63.1643 64.054C62.5813 64.46 62.1408 65.0391 61.9051 65.7093C61.6694 66.3794 61.6505 67.1067 61.8509 67.7882C62.2782 68.6585 64.6516 74.1173 55.8541 74.4971C67.1991 74.8768 64.5092 68.6585 64.0503 67.7249Z" fill="#498AC9"/>
</g>
</g>
<g opacity="0.33">
<path opacity="0.33" d="M55.9005 74.4333L54.5239 74.3542C51.971 74.0632 49.4034 73.9206 46.834 73.927C48.3371 73.927 50.1251 74.1643 52.3878 74.3542C53.5562 74.4484 54.729 74.4749 55.9005 74.4333Z" fill="#FCEE23"/>
</g>
<defs>
<linearGradient id="paint0_linear_232_4192" x1="55.2687" y1="90.3506" x2="55.2687" y2="0.00255257" gradientUnits="userSpaceOnUse">
<stop stop-color="#498AC9"/>
<stop offset="0.28" stop-color="#4888C6"/>
<stop offset="0.47" stop-color="#4482BD"/>
<stop offset="0.64" stop-color="#3D76AE"/>
<stop offset="0.78" stop-color="#336799"/>
<stop offset="0.92" stop-color="#27537E"/>
<stop offset="1" stop-color="#1E4469"/>
</linearGradient>
</defs>
</svg>
