<svg width="80" height="96" viewBox="0 0 80 96" fill="none" xmlns="http://www.w3.org/2000/svg">
<g clip-path="url(#clip0_232_4285)">
<path d="M59.1765 21.7636C55.3791 17.9726 50.5436 15.3916 45.2805 14.3465C40.0174 13.3015 34.5626 13.8391 29.6049 15.8917C24.6471 17.9443 20.4086 21.4197 17.4245 25.8792C14.4403 30.3387 12.8443 35.5824 12.8379 40.9482C12.8389 44.2928 13.4712 47.6072 14.7017 50.7173C16.3949 54.4814 18.6365 57.9738 21.3536 61.0807C23.5311 63.6088 25.4175 66.3738 26.9773 69.3233C28.0777 71.6101 28.8356 74.0463 29.2267 76.5537H28.6643C28.1998 76.5537 27.7544 76.7383 27.426 77.0667C27.0975 77.3951 26.913 77.8406 26.913 78.3051V85.8247C26.9108 86.056 26.9546 86.2855 27.0416 86.4999C27.1287 86.7142 27.2574 86.9091 27.4202 87.0735C27.5831 87.2378 27.7769 87.3683 27.9904 87.4573C28.2039 87.5463 28.433 87.5921 28.6643 87.5921H30.1747C30.6502 89.1105 31.4569 90.5045 32.5366 91.6733C33.5593 92.8185 34.8274 93.7182 36.2462 94.3052C37.665 94.8922 39.1981 95.1514 40.731 95.0635C43.294 94.7578 45.6668 93.5572 47.4312 91.6733C48.5108 90.5045 49.3176 89.1105 49.7931 87.5921H51.3998C51.6312 87.5921 51.8602 87.5463 52.0738 87.4573C52.2873 87.3683 52.4811 87.2378 52.6439 87.0735C52.8068 86.9091 52.9354 86.7142 53.0225 86.4999C53.1095 86.2855 53.1533 86.056 53.1512 85.8247V78.3051C53.1512 77.8406 52.9666 77.3951 52.6382 77.0667C52.3098 76.7383 51.8643 76.5537 51.3998 76.5537H50.7732C51.1643 74.0463 51.9222 71.6101 53.0226 69.3233C54.5824 66.3738 56.4688 63.6088 58.6462 61.0807C61.3353 57.9893 63.555 54.5191 65.2339 50.7815C67.1369 45.8901 67.5744 40.5505 66.493 35.4146C65.4116 30.2787 62.8581 25.5688 59.1443 21.86L59.1765 21.7636ZM46.0011 87.6403C45.7006 88.2282 45.3163 88.7694 44.8604 89.2471C43.3701 90.089 41.6875 90.5314 39.9758 90.5314C38.2642 90.5314 36.5816 90.089 35.0913 89.2471C34.6453 88.7649 34.267 88.2244 33.9666 87.6403H46.0011ZM38.2406 76.4895H32.7776C32.3684 73.4566 31.4846 70.507 30.1586 67.7488C28.4932 64.5496 26.4661 61.5522 24.1172 58.8152C21.6155 55.9868 19.5471 52.8029 17.9795 49.3675C16.583 45.7876 16.0811 41.921 16.5174 38.1032C16.9536 34.2853 18.3147 30.6316 20.4826 27.4588C22.6506 24.2861 25.5599 21.6903 28.9582 19.8965C32.3565 18.1027 36.1412 17.1651 39.9839 17.1651C43.8266 17.1651 47.6112 18.1027 51.0095 19.8965C54.4078 21.6903 57.3172 24.2861 59.4851 27.4588C61.6531 30.6316 63.0142 34.2853 63.4504 38.1032C63.8866 41.921 63.3847 45.7876 61.9883 49.3675C60.4207 52.8029 58.3522 55.9868 55.8505 58.8152C53.5018 61.5558 51.4698 64.5525 49.7931 67.7488C48.4814 70.5125 47.5982 73.4598 47.1741 76.4895H41.7594H38.2406ZM47.3508 83.1735H31.7332C31.7332 82.4023 31.1869 82.4183 31.2351 81.5667C31.2351 81.0365 33.9666 81.8882 33.9666 81.358L46.8206 80.7313C46.8206 81.2615 47.5115 81.5668 47.5436 82.0809L45.9369 81.5667C46.0493 82.4987 47.4151 82.4666 47.3508 83.2378V83.1735Z" fill="url(#paint0_linear_232_4285)"/>
<path d="M40.0078 9.90578C40.4723 9.90578 40.9178 9.72123 41.2462 9.39279C41.5747 9.06434 41.7592 8.61887 41.7592 8.15438V2.12913C41.7827 1.88395 41.7546 1.63658 41.6769 1.40288C41.5991 1.16918 41.4734 0.95432 41.3077 0.772059C41.1421 0.589798 40.9401 0.444134 40.7149 0.344482C40.4897 0.244831 40.2461 0.193359 39.9998 0.193359C39.7536 0.193359 39.51 0.244831 39.2847 0.344482C39.0595 0.444134 38.8576 0.589798 38.6919 0.772059C38.5263 0.95432 38.4005 1.16918 38.3228 1.40288C38.245 1.63658 38.217 1.88395 38.2405 2.12913V8.15438C38.2404 8.38573 38.2862 8.61487 38.3753 8.82841C38.4643 9.04194 38.5947 9.23573 38.759 9.39857C38.9234 9.56141 39.1183 9.69005 39.3327 9.77712C39.547 9.86418 39.7765 9.9079 40.0078 9.90578Z" fill="#444446"/>
<path d="M22.3657 13.3443C22.4731 13.5608 22.6238 13.753 22.8084 13.909C22.993 14.0649 23.2076 14.1814 23.439 14.2511C23.6704 14.3209 23.9136 14.3424 24.1537 14.3144C24.3937 14.2864 24.6255 14.2095 24.8346 14.0884C25.0438 13.9673 25.2258 13.8047 25.3696 13.6104C25.5134 13.4162 25.6159 13.1946 25.6706 12.9592C25.7253 12.7238 25.7312 12.4797 25.6878 12.2419C25.6445 12.0042 25.5528 11.7777 25.4186 11.5768L22.4139 6.37096C22.1766 5.96703 21.7899 5.67266 21.3374 5.5515C21.1149 5.48792 20.8817 5.47079 20.6522 5.50119C20.4228 5.5316 20.2021 5.60897 20.0038 5.72832C19.8021 5.84317 19.6253 5.99691 19.4836 6.18071C19.3418 6.3645 19.2381 6.57468 19.1783 6.79893C19.1185 7.02318 19.1038 7.25702 19.1352 7.48698C19.1666 7.71693 19.2434 7.93842 19.3611 8.13844L22.3657 13.3443Z" fill="#444446"/>
<path d="M6.00919 22.7758L11.215 25.7804C11.4827 25.9385 11.7879 26.0218 12.0987 26.0215C12.4865 26.0199 12.8629 25.8908 13.1701 25.6542C13.4772 25.4176 13.6981 25.0865 13.7985 24.712C13.899 24.3375 13.8735 23.9404 13.7261 23.5819C13.5786 23.2233 13.3173 22.923 12.9825 22.7276L7.76054 19.723C7.56119 19.6078 7.34106 19.533 7.1128 19.503C6.88453 19.473 6.6526 19.4882 6.43024 19.5479C6.20788 19.6076 5.99946 19.7106 5.81693 19.851C5.63439 19.9913 5.48131 20.1662 5.36645 20.3657C5.24874 20.5657 5.17199 20.7871 5.1406 21.0171C5.10921 21.247 5.12385 21.481 5.18365 21.7052C5.24345 21.9295 5.34722 22.1396 5.48894 22.3233C5.63066 22.5071 5.80751 22.661 6.00919 22.7758Z" fill="#444446"/>
<path d="M9.54397 40.3697C9.54397 39.901 9.35777 39.4514 9.02631 39.12C8.69486 38.7885 8.24528 38.6023 7.77653 38.6023H1.76731C1.52213 38.5788 1.27477 38.6069 1.04107 38.6846C0.807365 38.7624 0.592504 38.8881 0.410243 39.0538C0.227982 39.2194 0.0823174 39.4214 -0.017334 39.6466C-0.116986 39.8718 -0.168457 40.1154 -0.168457 40.3617C-0.168457 40.608 -0.116986 40.8516 -0.017334 41.0768C0.0823174 41.3021 0.227982 41.504 0.410243 41.6696C0.592504 41.8353 0.807365 41.961 1.04107 42.0388C1.27477 42.1165 1.52213 42.1445 1.76731 42.1211H7.77653C8.00787 42.1232 8.23734 42.0794 8.45168 41.9924C8.66603 41.9053 8.861 41.7767 9.02533 41.6138C9.18967 41.451 9.3201 41.2572 9.40912 41.0437C9.49814 40.8301 9.54397 40.6011 9.54397 40.3697Z" fill="#444446"/>
<path d="M12.5486 54.7661C12.0978 54.6538 11.6211 54.717 11.215 54.943L6.00919 57.9636C5.80751 58.0784 5.63066 58.2322 5.48894 58.416C5.34722 58.5998 5.24345 58.81 5.18365 59.0343C5.12385 59.2585 5.10921 59.4924 5.1406 59.7223C5.17199 59.9523 5.24874 60.1737 5.36645 60.3737C5.6043 60.7703 5.98692 61.0591 6.43358 61.179C6.88023 61.2989 7.35603 61.2406 7.76054 61.0164L12.9825 57.9957C13.2773 57.8175 13.5137 57.557 13.6624 57.2463C13.8112 56.9355 13.8659 56.5881 13.8198 56.2467C13.7737 55.9053 13.6288 55.5847 13.403 55.3245C13.1771 55.0644 12.8802 54.8759 12.5486 54.7822V54.7661Z" fill="#444446"/>
<path d="M24.0367 68.4557C23.8367 68.338 23.6153 68.2612 23.3854 68.2298C23.1554 68.1984 22.9215 68.2131 22.6973 68.2729C22.473 68.3327 22.2629 68.4365 22.0791 68.5782C21.8953 68.7199 21.7415 68.8967 21.6266 69.0984L19.3611 72.585C19.2434 72.7851 19.1666 73.0065 19.1352 73.2364C19.1038 73.4664 19.1185 73.7003 19.1783 73.9246C19.2381 74.1488 19.3418 74.3589 19.4836 74.5427C19.6253 74.7265 19.8021 74.8803 20.0038 74.9952C20.4108 75.2202 20.889 75.2789 21.3383 75.1591C21.7876 75.0393 22.1731 74.7502 22.4139 74.3524L24.6795 70.8658C24.7972 70.6658 24.8739 70.4444 24.9053 70.2144C24.9367 69.9845 24.9221 69.7505 24.8623 69.5263C24.8025 69.302 24.6987 69.092 24.557 68.9082C24.4153 68.7244 24.2384 68.5705 24.0367 68.4557Z" fill="#444446"/>
<path d="M55.7862 68.6645C55.9862 68.5468 56.2076 68.4701 56.4376 68.4387C56.6675 68.4073 56.9014 68.4219 57.1257 68.4817C57.3499 68.5415 57.56 68.6453 57.7438 68.787C57.9276 68.9288 58.0814 69.1056 58.1963 69.3073L60.4779 72.7939C60.7099 73.2009 60.7709 73.6833 60.6473 74.1353C60.5238 74.5872 60.2259 74.9716 59.8191 75.204C59.4112 75.4318 58.9301 75.4904 58.4794 75.3672C58.0287 75.244 57.6444 74.9488 57.409 74.5452L55.1435 71.0586C54.9193 70.6541 54.861 70.1783 54.9809 69.7316C55.1008 69.285 55.3895 68.9024 55.7862 68.6645Z" fill="#444446"/>
<path d="M73.9906 57.9636L68.7847 54.943C68.3787 54.717 67.902 54.6538 67.4511 54.7661C67.1196 54.8598 66.8226 55.0483 66.5967 55.3085C66.3709 55.5686 66.226 55.8892 66.1799 56.2306C66.1339 56.572 66.1886 56.9195 66.3373 57.2302C66.4861 57.541 66.7224 57.8014 67.0173 57.9796L72.2392 61.0003C72.6461 61.2253 73.1244 61.2841 73.5737 61.1643C74.023 61.0445 74.4084 60.7555 74.6493 60.3577C74.8763 59.9522 74.9345 59.4735 74.8112 59.0254C74.6879 58.5774 74.3931 58.1959 73.9906 57.9636Z" fill="#444446"/>
<path d="M78.2326 38.6023H72.2234C71.9782 38.5788 71.7308 38.6069 71.4971 38.6846C71.2634 38.7624 71.0485 38.8881 70.8662 39.0538C70.684 39.2194 70.5384 39.4214 70.4387 39.6466C70.3391 39.8718 70.2876 40.1154 70.2876 40.3617C70.2876 40.608 70.3391 40.8516 70.4387 41.0768C70.5384 41.3021 70.684 41.504 70.8662 41.6696C71.0485 41.8353 71.2634 41.961 71.4971 42.0388C71.7308 42.1165 71.9782 42.1445 72.2234 42.1211H78.2326C78.4778 42.1445 78.7251 42.1165 78.9588 42.0388C79.1925 41.961 79.4074 41.8353 79.5897 41.6696C79.7719 41.504 79.9176 41.3021 80.0172 41.0768C80.1169 40.8516 80.1684 40.608 80.1684 40.3617C80.1684 40.1154 80.1169 39.8718 80.0172 39.6466C79.9176 39.4214 79.7719 39.2194 79.5897 39.0538C79.4074 38.8881 79.1925 38.7624 78.9588 38.6846C78.7251 38.6069 78.4778 38.5788 78.2326 38.6023Z" fill="#444446"/>
<path d="M67.9013 26.0215C68.2121 26.0218 68.5173 25.9385 68.785 25.7805L73.9909 22.7759C74.2926 22.6037 74.5362 22.3456 74.6909 22.0346C74.8456 21.7235 74.9043 21.3736 74.8595 21.0291C74.8147 20.6846 74.6685 20.3611 74.4394 20.1C74.2103 19.8388 73.9088 19.6517 73.5731 19.5624C73.3506 19.4988 73.1173 19.4817 72.8879 19.5121C72.6585 19.5425 72.4378 19.6197 72.2395 19.7391L67.0176 22.7437C66.6827 22.9392 66.4214 23.2393 66.274 23.5979C66.1265 23.9565 66.101 24.3536 66.2015 24.7281C66.302 25.1026 66.5228 25.4337 66.8299 25.6703C67.1371 25.907 67.5136 26.0359 67.9013 26.0375V26.0215Z" fill="#444446"/>
<path d="M55.224 13.9869C55.424 14.1046 55.6455 14.1815 55.8754 14.2129C56.1054 14.2443 56.3393 14.2296 56.5635 14.1698C56.7878 14.11 56.9979 14.0063 57.1817 13.8645C57.3655 13.7228 57.5193 13.546 57.6341 13.3443L60.6388 8.13844C60.7586 7.93735 60.836 7.71386 60.8664 7.48178C60.8968 7.2497 60.8795 7.01388 60.8155 6.78873C60.7633 6.56341 60.6631 6.35206 60.5216 6.16904C60.3802 5.98602 60.2009 5.83568 59.996 5.72832C59.7978 5.60897 59.577 5.5316 59.3476 5.50119C59.1182 5.47079 58.885 5.48792 58.6625 5.5515C58.2099 5.67266 57.8232 5.96703 57.5859 6.37096L54.5813 11.5768C54.3559 11.9888 54.2928 12.4703 54.4046 12.9265C54.5263 13.3747 54.8211 13.7561 55.224 13.9869Z" fill="#444446"/>
<path d="M55.8828 37.1723C54.2518 36.6516 52.8768 35.5358 52.0312 34.0472C51.1857 32.5585 50.9316 30.8061 51.3196 29.1386C51.2524 27.4939 50.5689 25.9346 49.405 24.7707C48.2411 23.6068 46.6819 22.9233 45.0372 22.8561C44.152 22.81 43.2668 22.9475 42.4373 23.26C41.6077 23.5724 40.8518 24.0531 40.217 24.6718C40.1288 24.7438 40.048 24.8246 39.976 24.9128L39.7189 24.6718C39.0841 24.0531 38.3281 23.5724 37.4986 23.26C36.6691 22.9475 35.7839 22.81 34.8986 22.8561C32.819 23.0524 30.8249 23.781 29.1086 24.9716C27.3923 26.1623 26.0115 27.7749 25.0994 29.6541C24.1872 31.5333 23.7744 33.6158 23.9007 35.7009C24.027 37.786 24.6882 39.8033 25.8205 41.5587C25.1607 42.6012 24.8148 43.8116 24.8243 45.0453C24.8275 46.3691 25.2314 47.6608 25.9828 48.7506C26.7342 49.8404 27.7979 50.6772 29.034 51.1509C28.9057 51.6769 28.8409 52.2163 28.8412 52.7577C28.8454 54.4908 29.5358 56.1516 30.7612 57.3771C31.9867 58.6026 33.6476 59.2929 35.3807 59.2972H35.6056C36.5 59.2651 37.3769 59.0405 38.1764 58.6384V76.4894H41.6952V58.7027C42.4947 59.1047 43.3716 59.3295 44.266 59.3615H44.4909C46.224 59.3573 47.8848 58.6669 49.1103 57.4414C50.3358 56.216 51.0261 54.5551 51.0304 52.822C51.0306 52.2806 50.9659 51.7412 50.8376 51.2153C52.0737 50.7416 53.1374 49.9048 53.8888 48.815C54.6402 47.7251 55.0441 46.4333 55.0473 45.1095C54.2825 43.8867 53.9435 42.4454 54.083 41.0098C54.2224 39.5743 54.8326 38.2251 55.8185 37.1723H55.8828ZM38.2085 52.9827C38.2136 53.711 37.9375 54.4133 37.4376 54.9431C36.9377 55.4729 36.2527 55.7894 35.5253 55.8266C35.1211 55.8395 34.7185 55.7715 34.341 55.6267C33.9634 55.4818 33.6187 55.263 33.3268 54.9831C33.035 54.7033 32.802 54.368 32.6415 53.9969C32.481 53.6258 32.3962 53.2263 32.3921 52.822C32.3943 52.3707 32.4987 51.9258 32.6974 51.5206C33.741 51.3096 34.7171 50.8464 35.5405 50.1714C36.3639 49.4965 37.0096 48.6302 37.4212 47.6482C37.5604 47.3278 37.6006 46.973 37.5366 46.6295C37.4725 46.286 37.3072 45.9696 37.0619 45.7208C36.8166 45.472 36.5024 45.3023 36.1599 45.2335C35.8173 45.1647 35.462 45.1998 35.1396 45.3345C34.9241 45.4208 34.7279 45.549 34.5624 45.7118C34.3969 45.8745 34.2655 46.0685 34.1756 46.2825C34.0142 46.6703 33.7736 47.0201 33.4693 47.3097C33.1651 47.5993 32.8038 47.8223 32.4085 47.9643C32.0132 48.1064 31.5926 48.1644 31.1736 48.1348C30.7546 48.1051 30.3464 47.9883 29.975 47.792C29.6037 47.5957 29.2774 47.3241 29.0169 46.9945C28.7565 46.665 28.5677 46.2848 28.4625 45.8781C28.3573 45.4714 28.338 45.0473 28.406 44.6327C28.474 44.2182 28.6277 43.8225 28.8572 43.4707C29.438 43.6317 30.0381 43.7127 30.6408 43.7117C31.5598 43.7171 32.4693 43.5254 33.308 43.1494C33.7331 42.9565 34.0646 42.6032 34.2302 42.1667C34.3958 41.7302 34.3819 41.2459 34.1917 40.8196C33.9955 40.3973 33.642 40.0685 33.2067 39.9034C32.7714 39.7383 32.2887 39.7499 31.8619 39.9359C31.4781 40.1084 31.0615 40.1961 30.6408 40.1929C30.2266 40.2232 29.8107 40.1678 29.419 40.0301C29.0272 39.8924 28.6681 39.6754 28.364 39.3927C28.0598 39.11 27.8173 38.7676 27.6514 38.387C27.4855 38.0063 27.3999 37.5955 27.3999 37.1802C27.3999 36.765 27.4855 36.3543 27.6514 35.9736C27.8173 35.593 28.0598 35.2505 28.364 34.9678C28.6681 34.6851 29.0272 34.4682 29.419 34.3305C29.8107 34.1928 30.2266 34.1373 30.6408 34.1676C31.8625 35.3432 33.4923 35.9998 35.1878 35.9993C35.6566 35.9993 36.1062 35.8132 36.4376 35.4817C36.7691 35.1503 36.9553 34.7007 36.9553 34.2319C36.9553 33.7632 36.7691 33.3136 36.4376 32.9821C36.1062 32.6507 35.6566 32.4644 35.1878 32.4644C34.7744 32.4653 34.3652 32.3813 33.9856 32.2176C33.6059 32.0539 33.2639 31.8139 32.9808 31.5127C32.6976 31.2114 32.4792 30.8552 32.3393 30.4662C32.1993 30.0772 32.1408 29.6635 32.1672 29.2509C32.2027 28.4926 32.521 27.7751 33.0593 27.2398C33.5976 26.7044 34.3169 26.3901 35.0754 26.3588C35.48 26.3399 35.8841 26.4043 36.2628 26.548C36.6414 26.6917 36.9865 26.9117 37.2766 27.1944C37.5696 27.4748 37.8031 27.8114 37.9633 28.1841C38.1234 28.5567 38.2068 28.9578 38.2085 29.3634V52.9827ZM46.6279 43.1494C47.4665 43.5254 48.376 43.7171 49.2951 43.7117C49.8978 43.7127 50.4978 43.6317 51.0786 43.4707C51.3927 43.9477 51.5603 44.5063 51.5606 45.0775C51.5584 45.7731 51.3163 46.4466 50.875 46.9843C50.4337 47.522 49.8204 47.891 49.1387 48.0288C48.4569 48.1667 47.7484 48.065 47.1329 47.741C46.5173 47.417 46.0325 46.8905 45.7603 46.2504C45.6982 46.0026 45.5832 45.7713 45.4231 45.5722C45.2631 45.3732 45.0619 45.2113 44.8332 45.0975C44.6046 44.9837 44.354 44.9209 44.0987 44.9132C43.8434 44.9056 43.5895 44.9533 43.3545 45.0532C43.1195 45.1531 42.9088 45.3027 42.7372 45.4918C42.5655 45.6809 42.4369 45.905 42.3601 46.1486C42.2833 46.3922 42.2602 46.6495 42.2925 46.9028C42.3247 47.1562 42.4115 47.3996 42.5468 47.6162C42.9584 48.5981 43.604 49.4643 44.4275 50.1393C45.2509 50.8142 46.227 51.2775 47.2706 51.4884C47.4693 51.8936 47.5737 52.3385 47.5759 52.7899C47.5716 53.5882 47.2515 54.3524 46.6855 54.9154C46.1195 55.4784 45.3536 55.7945 44.5552 55.7945H44.4427C43.7153 55.7572 43.0303 55.4408 42.5304 54.911C42.0305 54.3812 41.7544 53.6789 41.7595 52.9505V29.4438C41.7612 29.0381 41.8446 28.6371 42.0047 28.2644C42.1648 27.8917 42.3984 27.5551 42.6914 27.2747C43.2513 26.7333 44.0013 26.4332 44.7801 26.4391H44.8926C45.6511 26.4704 46.3704 26.7848 46.9087 27.3201C47.447 27.8554 47.7653 28.573 47.8008 29.3314C47.818 29.7395 47.7512 30.1468 47.6048 30.5282C47.4583 30.9096 47.2352 31.2569 46.9492 31.5487C46.6697 31.8418 46.3329 32.0743 45.9598 32.2318C45.5866 32.3894 45.1851 32.4685 44.7801 32.4644C44.3114 32.4644 43.8618 32.6507 43.5304 32.9821C43.1989 33.3136 43.0127 33.7632 43.0127 34.2319C43.0127 34.7007 43.1989 35.1503 43.5304 35.4817C43.8618 35.8132 44.3114 35.9993 44.7801 35.9993C46.4757 35.9998 48.1055 35.3432 49.3272 34.1676C49.7414 34.1373 50.1573 34.1928 50.549 34.3305C50.9408 34.4682 51.2999 34.6851 51.604 34.9678C51.9082 35.2505 52.1507 35.593 52.3166 35.9736C52.4825 36.3543 52.5681 36.765 52.5681 37.1802C52.5681 37.5955 52.4825 38.0063 52.3166 38.387C52.1507 38.7676 51.9082 39.11 51.604 39.3927C51.2999 39.6754 50.9408 39.8924 50.549 40.0301C50.1573 40.1678 49.7414 40.2232 49.3272 40.1929C48.9064 40.1961 48.4899 40.1084 48.1061 39.9359C47.6875 39.7859 47.2277 39.7992 46.8185 39.9731C46.4093 40.1471 46.0807 40.469 45.8982 40.8745C45.7157 41.28 45.6928 41.7393 45.834 42.1609C45.9752 42.5826 46.2702 42.9355 46.66 43.1494H46.6279Z" fill="url(#paint1_linear_232_4285)"/>
<path d="M45.953 87.592C45.6524 88.18 45.2682 88.7212 44.8122 89.1988C44.2001 89.8903 43.4481 90.4439 42.6061 90.8231C41.7641 91.2023 40.8511 91.3984 39.9277 91.3984C39.0042 91.3984 38.0913 91.2023 37.2492 90.8231C36.4072 90.4439 35.6553 89.8903 35.0432 89.1988C34.5972 88.7167 34.2188 88.1761 33.9185 87.592" fill="url(#paint2_linear_232_4285)"/>
<path d="M49.3592 80.0725H30.6245V84.2661H49.3592V80.0725Z" fill="url(#paint3_linear_232_4285)"/>
</g>
<defs>
<linearGradient id="paint0_linear_232_4285" x1="39.9759" y1="95.1117" x2="39.9759" y2="13.8262" gradientUnits="userSpaceOnUse">
<stop stop-color="#1E4469"/>
<stop offset="1" stop-color="#498AC9"/>
</linearGradient>
<linearGradient id="paint1_linear_232_4285" x1="40.0081" y1="76.5537" x2="40.0081" y2="22.9043" gradientUnits="userSpaceOnUse">
<stop stop-color="#393839"/>
<stop offset="0.02" stop-color="#3A393A"/>
<stop offset="0.6" stop-color="#4B4B4D"/>
<stop offset="1" stop-color="#515254"/>
</linearGradient>
<linearGradient id="paint2_linear_232_4285" x1="39.9759" y1="91.4644" x2="39.9759" y2="87.592" gradientUnits="userSpaceOnUse">
<stop stop-color="#D1D3D4"/>
<stop offset="0.26" stop-color="#CBCDCF"/>
<stop offset="0.61" stop-color="#BABDC1"/>
<stop offset="1" stop-color="#9FA3AA"/>
</linearGradient>
<linearGradient id="paint3_linear_232_4285" x1="30.6245" y1="82.1613" x2="49.3753" y2="82.1613" gradientUnits="userSpaceOnUse">
<stop stop-color="#D1D3D4"/>
<stop offset="0.26" stop-color="#CBCDCF"/>
<stop offset="0.61" stop-color="#BABDC1"/>
<stop offset="1" stop-color="#9FA3AA"/>
</linearGradient>
<clipPath id="clip0_232_4285">
<rect width="80" height="94.7499" fill="white" transform="translate(0 0.361694)"/>
</clipPath>
</defs>
</svg>
