<svg width="80" height="81" viewBox="0 0 80 81" fill="none" xmlns="http://www.w3.org/2000/svg">
<path d="M58.789 74.1527H6.66422V22.0279H36.6679V15.349H0V80.8316H65.4826V43.694H58.789V74.1527Z" fill="#231F20"/>
<path d="M36.6824 70.3949H54.6641V52.4132H36.6824V70.3949Z" fill="#444446"/>
<path d="M10.8047 52.3986L10.8047 70.3802H28.7863V52.3986H10.8047Z" fill="#C7C8CA"/>
<path d="M10.8035 43.6937H28.7852L28.7852 25.7121L10.8035 25.7121L10.8035 43.6937Z" fill="#C7C8CA"/>
<path d="M80.001 0.361694H41.8652V38.4975H80.001V0.361694Z" fill="#498AC9"/>
<g style="mix-blend-mode:multiply" opacity="0.33">
<g style="mix-blend-mode:multiply" opacity="0.33">
<path d="M41.8633 38.4975H79.9991V0.361694L41.8633 38.4975Z" fill="#498AC9"/>
</g>
</g>
<path d="M10.8047 70.3941H28.7863L10.8047 52.3978V70.3941Z" fill="#E6E7E7"/>
<path d="M28.7863 25.7123L10.8047 43.6939H28.7863V25.7123Z" fill="#E6E7E7"/>
<path d="M36.668 70.3941H54.6643V52.3978L36.668 70.3941Z" fill="#818285"/>
</svg>
