<svg width="81" height="79" viewBox="0 0 81 79" fill="none" xmlns="http://www.w3.org/2000/svg">
<path d="M39.9934 20.9774C45.6862 20.9774 50.3012 16.3624 50.3012 10.6695C50.3012 4.97667 45.6862 0.361694 39.9934 0.361694C34.3005 0.361694 29.6855 4.97667 29.6855 10.6695C29.6855 16.3624 34.3005 20.9774 39.9934 20.9774Z" fill="#498AC9"/>
<path d="M45.0794 24.8705C43.4722 25.561 41.7412 25.9172 39.9919 25.9172C38.2426 25.9172 36.5116 25.561 34.9043 24.8705C36.5116 25.561 38.2426 25.9172 39.9919 25.9172C41.7412 25.9172 43.4722 25.561 45.0794 24.8705Z" fill="#498AC9"/>
<path d="M48.3823 22.7621C46.0572 24.7958 43.0732 25.9168 39.9842 25.9168C36.8951 25.9168 33.911 24.7958 31.586 22.7621C28.6983 24.0661 26.1495 26.0173 24.137 28.4645C22.1245 30.9117 20.7023 33.7894 19.9805 36.8745H60.0026C59.2792 33.7879 57.8548 30.9094 55.8396 28.4621C53.8244 26.0147 51.2727 24.0643 48.3823 22.7621Z" fill="#498AC9"/>
<path d="M14.88 26.5513C19.6688 26.5513 23.5509 22.6692 23.5509 17.8803C23.5509 13.0915 19.6688 9.20935 14.88 9.20935C10.0911 9.20935 6.20898 13.0915 6.20898 17.8803C6.20898 22.6692 10.0911 26.5513 14.88 26.5513Z" fill="#C7C8CA"/>
<path d="M14.8793 29.6487C11.929 29.6533 9.04226 28.7919 6.57697 27.1713C4.89037 28.2698 3.43992 29.6939 2.31058 31.36C1.18125 33.0262 0.395719 34.901 0 36.8745H18.035C18.7461 33.5322 20.2085 30.3956 22.3115 27.7022C20.0436 28.9816 17.4832 29.6521 14.8793 29.6487Z" fill="#C7C8CA"/>
<path d="M65.1065 26.5513C69.8954 26.5513 73.7775 22.6692 73.7775 17.8803C73.7775 13.0915 69.8954 9.20935 65.1065 9.20935C60.3177 9.20935 56.4355 13.0915 56.4355 17.8803C56.4355 22.6692 60.3177 26.5513 65.1065 26.5513Z" fill="#444446"/>
<path d="M65.1219 29.6487C68.0719 29.6516 70.9582 28.7903 73.4242 27.1713C75.1086 28.2723 76.5574 29.6971 77.6865 31.3628C78.8155 33.0286 79.6023 34.9021 80.0012 36.8745H61.9514C61.235 33.5312 59.7675 30.3947 57.6602 27.7022C59.9378 28.984 62.5084 29.6545 65.1219 29.6487Z" fill="#444446"/>
<path d="M71.5652 45.9146L79.5283 44.145L79.7053 39.8685H62.3633C62.3633 40.4142 62.3633 40.9598 62.3633 41.5054C62.4401 44.5002 61.9165 47.4801 60.8235 50.2694C59.7305 53.0587 58.0901 55.601 55.999 57.7464C53.908 59.8917 51.4086 61.5968 48.6482 62.761C45.8878 63.9251 42.9223 64.5249 39.9264 64.5249C36.9306 64.5249 33.9651 63.9251 31.2047 62.761C28.4443 61.5968 25.9449 59.8917 23.8539 57.7464C21.7628 55.601 20.1224 53.0587 19.0294 50.2694C17.9364 47.4801 17.4128 44.5002 17.4896 41.5054C17.4896 40.9598 17.4896 40.4142 17.4896 39.8685H0.413077L0.265625 43.6583L8.50894 45.6639C8.71621 46.8245 8.99195 47.9718 9.33474 49.0998C9.71307 50.6674 10.2059 52.2052 10.8094 53.7007L5.57437 59.5993L9.99833 66.3237L17.1357 63.3744C19.2681 65.5941 21.7122 67.4917 24.391 69.0076L23.7126 76.0713L31.2776 78.8731L35.0822 72.709C36.6786 72.9468 38.2904 73.0651 39.9043 73.0629C41.4686 73.0616 43.0309 72.9483 44.579 72.7238L48.1034 78.7256L55.8748 76.5432L55.2997 69.0667C57.9588 67.5767 60.3878 65.709 62.5108 63.522L69.3974 66.4713L74.3965 60.145L68.9845 53.7745C69.2647 53.1109 69.5154 52.4326 69.7513 51.7542C70.5414 49.8702 71.1488 47.9147 71.5652 45.9146Z" fill="#231F20"/>
<g style="mix-blend-mode:multiply" opacity="0.33">
<g style="mix-blend-mode:multiply" opacity="0.33">
<path d="M50.3753 10.6989C50.3753 7.96121 49.2878 5.33559 47.3519 3.39973C45.416 1.46387 42.7905 0.376343 40.0527 0.376343V21.0215C42.7905 21.0215 45.416 19.934 47.3519 17.9981C49.2878 16.0623 50.3753 13.4366 50.3753 10.6989Z" fill="#498AC9"/>
</g>
</g>
<path d="M23.5499 17.8803C23.5499 15.5806 22.6363 13.3752 21.0102 11.749C19.3841 10.1229 17.1786 9.20935 14.8789 9.20935V26.5513C17.1786 26.5513 19.3841 25.6377 21.0102 24.0116C22.6363 22.3855 23.5499 20.18 23.5499 17.8803Z" fill="#E6E7E7"/>
<path d="M14.8789 29.648V36.8738H18.0347C18.7458 33.5315 20.2082 30.3949 22.3112 27.7015C20.0433 28.9809 17.4828 29.6515 14.8789 29.648Z" fill="#E6E7E7"/>
<path d="M73.7773 17.8802C73.7734 15.5856 72.8602 13.3862 71.2377 11.7637C69.6151 10.1412 67.4157 9.2279 65.1211 9.224V26.566C66.2598 26.564 67.3869 26.3378 68.4382 25.9003C69.4895 25.4627 70.4443 24.8224 71.2481 24.0158C72.0519 23.2093 72.689 22.2523 73.1229 21.1995C73.5569 20.1468 73.7792 19.0189 73.7773 17.8802Z" fill="#818285"/>
<path d="M73.4078 27.1713C70.9417 28.7903 68.0555 29.6516 65.1055 29.6487V36.8745H79.9847C79.5859 34.9021 78.7991 33.0286 77.67 31.3628C76.541 29.6971 75.0921 28.2723 73.4078 27.1713Z" fill="#818285"/>
<g style="mix-blend-mode:multiply" opacity="0.33">
<g style="mix-blend-mode:multiply" opacity="0.33">
<path d="M48.383 22.7611C46.0628 24.7983 43.0798 25.9202 39.9922 25.9169V36.8736H60.0032C59.2799 33.787 57.8554 30.9084 55.8402 28.4611C53.8251 26.0137 51.2734 24.0633 48.383 22.7611Z" fill="#498AC9"/>
</g>
</g>
</svg>
