<svg width="80" height="92" viewBox="0 0 80 92" fill="none" xmlns="http://www.w3.org/2000/svg">
<g style="mix-blend-mode:multiply">
<path d="M78.6312 27.5523L31.4456 0.343289C31.0501 0.116799 30.6019 -0.00157652 30.1462 1.58556e-05C29.6904 0.00160823 29.2431 0.123132 28.8492 0.35238C28.4552 0.581629 28.1286 0.910534 27.9021 1.30602C27.6755 1.70151 27.5571 2.14964 27.5586 2.60541V61.5475L78.6312 32.0924C79.0404 31.8711 79.3822 31.5433 79.6204 31.1437C79.8586 30.7441 79.9843 30.2875 79.9843 29.8223C79.9843 29.3571 79.8586 28.9006 79.6204 28.501C79.3822 28.1013 79.0404 27.7736 78.6312 27.5523Z" fill="#444446"/>
</g>
<g style="mix-blend-mode:multiply">
<path d="M78.6311 59.2534L27.5586 29.8301V88.7722C27.5598 89.2266 27.6803 89.6727 27.908 90.066C28.1357 90.4593 28.4626 90.7859 28.856 91.0133C29.2495 91.2406 29.6957 91.3608 30.1501 91.3617C30.6046 91.3626 31.0513 91.2442 31.4456 91.0184L78.6311 63.8094C79.0443 63.5894 79.3899 63.2613 79.6309 62.86C79.8719 62.4587 79.9992 61.9994 79.9992 61.5314C79.9992 61.0633 79.8719 60.604 79.6309 60.2028C79.3899 59.8015 79.0443 59.4733 78.6311 59.2534Z" fill="#498AC9"/>
</g>
<g style="mix-blend-mode:multiply">
<path d="M54.9914 45.6496L3.90292 16.1945C3.50739 15.9698 3.06004 15.8523 2.60514 15.8535C2.15024 15.8548 1.70356 15.9748 1.30929 16.2017C0.915017 16.4286 0.586828 16.7545 0.357191 17.1472C0.127554 17.5399 0.00442896 17.9858 7.97698e-07 18.4406V72.8426C-0.000357174 73.2994 0.119772 73.7482 0.34827 74.1437C0.576767 74.5392 0.905544 74.8674 1.30142 75.0952C1.6973 75.3231 2.14628 75.4424 2.60304 75.4413C3.0598 75.4402 3.50817 75.3186 3.90292 75.0888L54.9914 45.6496Z" fill="#C7C8CA"/>
</g>
</svg>
