<svg width="80" height="89" viewBox="0 0 80 89" fill="none" xmlns="http://www.w3.org/2000/svg">
<g clip-path="url(#clip0_232_4307)">
<path d="M79.0705 9.85082C70.7916 1.57194 49.4454 0.396729 40.0966 0.396729C30.7477 0.396729 9.29633 1.60694 1.03498 9.88583C1.03498 9.88583 -7.10362 46.9655 24.6263 78.064C25.9593 79.3795 27.3625 80.6774 28.8534 81.9578C30.7594 83.6182 32.8058 85.2612 34.9924 86.8865C36.4694 87.9802 38.2587 88.5706 40.0966 88.5706C41.9344 88.5706 43.7237 87.9802 45.2007 86.8865C88.8403 54.4375 79.0705 9.85082 79.0705 9.85082Z" fill="#498AC9"/>
<path d="M40.0965 33.9157C49.0068 79.9407 83.2449 29.636 79.1581 9.85082C70.7915 1.57194 49.4453 0.396729 40.0965 0.396729C30.7477 0.396729 9.29626 1.60694 1.03491 9.88583C26.275 -0.497859 51.6027 16.2704 40.0965 33.9157Z" fill="url(#paint0_linear_232_4307)"/>
<path d="M0.947078 9.85092C0.947078 9.85092 -7.19147 46.9305 24.5384 78.0289C25.8715 79.3444 27.2747 80.6423 28.7656 81.9228C25.8364 71.9951 17.9258 39.1076 40.0087 34.3543C40.0087 34.2139 40.0087 34.0736 40.0087 33.9333C51.6027 16.2705 26.2749 -0.497693 0.947078 9.85092Z" fill="url(#paint1_linear_232_4307)"/>
<path d="M79.0704 9.85083C83.1572 29.5833 49.1296 79.625 40.0789 34.4068C14.1899 45.3869 25.4505 76.0644 28.8358 81.9753C30.7418 83.6358 32.7881 85.2787 34.9748 86.9041C36.4518 87.9978 38.2411 88.5881 40.0789 88.5881C41.9168 88.5881 43.7061 87.9978 45.1831 86.9041C88.8402 54.4375 79.0704 9.85083 79.0704 9.85083Z" fill="url(#paint2_linear_232_4307)"/>
<path d="M39.9913 35.8101C44.7477 35.8101 48.6034 31.9543 48.6034 27.198C48.6034 22.4416 44.7477 18.5858 39.9913 18.5858C35.2349 18.5858 31.3792 22.4416 31.3792 27.198C31.3792 31.9543 35.2349 35.8101 39.9913 35.8101Z" fill="white"/>
<path d="M56.9524 51.2629C56.8108 46.8612 54.9628 42.6871 51.799 39.6236C48.6353 36.56 44.404 34.847 40 34.847C35.5961 34.847 31.3648 36.56 28.2011 39.6236C25.0373 42.6871 23.1892 46.8612 23.0476 51.2629V51.4208C23.0569 52.559 23.5155 53.6475 24.3237 54.4492C25.1319 55.2508 26.2241 55.7006 27.3624 55.7005H52.6376C53.7743 55.7052 54.8666 55.2592 55.6753 54.4604C56.4839 53.6616 56.9432 52.5749 56.9524 51.4382V51.2629Z" fill="white"/>
<path d="M39.5177 50.4209C39.17 50.4224 38.8335 50.2977 38.5705 50.0701L34.5012 46.7375C34.1942 46.4863 33.9995 46.1234 33.9601 45.7287C33.9206 45.334 34.0396 44.9397 34.2908 44.6327C34.542 44.3256 34.9048 44.1311 35.2995 44.0916C35.6943 44.0521 36.0886 44.171 36.3956 44.4222L39.3423 46.8603L45.2182 40.125C45.4811 39.8311 45.8486 39.6519 46.242 39.6257C46.6354 39.5994 47.0234 39.7283 47.323 39.9846C47.4725 40.1122 47.595 40.2684 47.6833 40.4441C47.7715 40.6198 47.8237 40.8113 47.8368 41.0074C47.8499 41.2036 47.8235 41.4003 47.7594 41.5862C47.6952 41.772 47.5946 41.9431 47.4633 42.0894L40.6402 49.9122C40.4988 50.0704 40.3259 50.1974 40.1326 50.285C39.9393 50.3726 39.7299 50.4189 39.5177 50.4209Z" fill="#498AC9"/>
</g>
<defs>
<linearGradient id="paint0_linear_232_4307" x1="20.4692" y1="-9.68878" x2="70.5635" y2="40.4055" gradientUnits="userSpaceOnUse">
<stop stop-color="#1E4469"/>
<stop offset="1" stop-color="#498AC9"/>
</linearGradient>
<linearGradient id="paint1_linear_232_4307" x1="21.4514" y1="81.9228" x2="21.4514" y2="6.67617" gradientUnits="userSpaceOnUse">
<stop stop-color="#9FA3AA"/>
<stop offset="0.39" stop-color="#BABDC1"/>
<stop offset="0.74" stop-color="#CBCDCF"/>
<stop offset="1" stop-color="#D1D3D4"/>
</linearGradient>
<linearGradient id="paint2_linear_232_4307" x1="23.3984" y1="49.193" x2="80" y2="49.193" gradientUnits="userSpaceOnUse">
<stop stop-color="#393839"/>
<stop offset="0.02" stop-color="#3A393A"/>
<stop offset="0.6" stop-color="#4B4B4D"/>
<stop offset="1" stop-color="#515254"/>
</linearGradient>
<clipPath id="clip0_232_4307">
<rect width="80" height="88.1736" fill="white" transform="translate(0 0.361694)"/>
</clipPath>
</defs>
</svg>
