<svg width="69" height="80" viewBox="0 0 69 80" fill="none" xmlns="http://www.w3.org/2000/svg">
<path d="M14.4502 77L0 62.1701L15.9875 47.0312C22.1365 43.0765 29.0029 45.7953 31.6675 47.6491H42.1209C50.4221 47.6491 46.1178 57.2267 42.1209 57.2267H31.6675C30.4377 58.2154 31.1551 59.2865 31.6675 59.6984H46.1178L61.1829 47.0312C63.95 45 70.0111 47.0312 67.3319 50.4297C52.3283 69.4614 46.9376 72.5716 46.1178 71.7477H18.7546L14.4502 77Z" fill="url(#paint0_linear_232_3772)"/>
<path fill-rule="evenodd" clip-rule="evenodd" d="M47.9768 23.7235L46.0061 27.2521L43.8873 26.6841L42.1521 28.7116L42.1597 30.6185L38.5454 32.3578L37.066 30.8635L34.5376 31.2956L33.5856 33L29.8242 32.3677L29.1595 30.1763L27.1514 28.8603L25.3946 29.451L22.5383 26.0988L23.3354 24.6715L22.2893 22.1174L20.6184 21.7488L20 17.4698L21.8113 16.6647L22.2804 13.8744L21.0891 12.4588L23.2305 8.62481L25.3281 9.01716L27.0386 7.33364L26.8351 5.24159L30.7141 3.65056L32.13 5.10418L34.4542 4.76397L35.4394 3L39.742 3.86869L39.8636 5.82635L42.0204 7.10426L43.9982 6.40162L46.6318 9.64161L45.5139 11.6431L46.6086 13.6948L48.6466 14.2721L49 18.3218L47.1683 19.7534L46.8602 21.8165L47.9768 23.7235ZM46.8478 23.7355L45.845 22.0231L46.2666 19.2003L47.9828 17.8589L47.738 15.054L45.9541 14.5487L44.3978 11.6319L45.4497 9.74839L43.6822 7.57385L41.9191 8.20023L38.9261 6.42685L38.819 4.70345L35.9355 4.12127L35.0609 5.68726L31.7868 6.16653L30.4801 4.82511L27.8762 5.89312L28.054 7.72026L25.6419 10.0943L23.7317 9.73698L22.2774 12.3409L23.3177 13.5771L22.6801 17.3699L21.0724 18.0845L21.4814 20.9144L22.9886 21.247L24.4195 24.7402L23.7287 25.9768L25.7026 28.2934L27.2862 27.761L29.982 29.5276L30.5737 31.4784L33.078 31.8994L33.9239 30.3848L37.3943 29.7916L38.7449 31.1558L41.1843 29.9819L41.1777 28.3348L43.5532 25.5591L45.5328 26.0898L46.8478 23.7355Z" fill="url(#paint1_linear_232_3772)"/>
<path d="M30.3044 25.6626C26.2005 23.231 24.7874 17.8332 27.1482 13.6062C29.5091 9.37924 34.7498 7.92382 38.8537 10.3554C42.9577 12.787 44.3707 18.1848 42.0099 22.4118C39.6491 26.6387 34.4083 28.0942 30.3044 25.6626ZM38.5733 10.8576C34.7386 8.58554 29.8417 9.94547 27.6358 13.8951C25.4299 17.8447 26.7502 22.8883 30.5849 25.1604C34.4195 27.4324 39.3164 26.0725 41.5223 22.1229C43.7283 18.1733 42.4079 13.1296 38.5733 10.8576Z" fill="url(#paint2_linear_232_3772)"/>
<path fill-rule="evenodd" clip-rule="evenodd" d="M57.8562 39.3839L56.2297 41.1016L55.0687 40.4855L53.7821 41.3885L53.5296 42.4661L51.1842 42.9445L50.5214 41.8945L48.9864 41.7861L48.2008 42.6157L46.089 41.7345L45.996 40.4045L45.0005 39.3817L43.8947 39.4703L42.6781 37.1795L43.336 36.4848L43.069 34.8969L42.1428 34.4559L42.3581 31.9538L43.5245 31.7516L44.1744 30.2415L43.6694 29.2763L45.4366 27.41L46.609 27.9239L47.8348 27.2118L47.9978 26.0022L50.4778 25.6445L51.109 26.6626L52.5123 26.7945L53.3254 25.9358L55.7214 27.026L55.5287 28.1482L56.6163 29.1704L57.8662 29.0493L58.9678 31.2457L58.0453 32.2199L58.4082 33.531L59.5208 34.141L59.1816 36.4767L57.9189 37.0297L57.4609 38.1516L57.8562 39.3839ZM55.2904 37.9035L55.5287 37.1795L56.4095 37.0297L56.5259 35.7413L56.4095 34.5029L56.9375 32.2199L56.4095 31.417L56.2297 30.9997L55.5287 30.4903L54.3019 29.2763L53.7821 28.6371L52.5123 28.6371L52.2016 28.6371L50.0394 28.6371L49.4217 28.3282L49.4217 28.6371L48.8039 28.9459L47.5043 29.6671L46.609 29.775L45.996 30.7084L45.996 30.8091L45.0973 32.3436L44.895 33.888L45.0005 33.531L44.8203 34.141L45.5795 36.3216L45.4366 37.0297L46.3328 37.9035L45.2273 38.7797L47.5684 39.4479L48.2008 40.0725L48.8039 40.0725L49.7305 40.0725L50.4778 40.4045L51.109 40.0725L51.8927 40.1529L53.0456 39.3817L55.0251 39.8038L55.0699 38.1516L55.2904 37.9035Z" fill="url(#paint3_linear_232_3772)"/>
<path d="M45.7151 39.2334C43.6457 37.2885 43.6311 31.7246 45.5795 29.6671C47.528 27.6096 53.6967 27.2255 55.7661 29.1704C57.8355 31.1153 57.8566 37.0815 55.9082 39.139C53.9597 41.1966 47.7845 41.1783 45.7151 39.2334ZM54.0972 30.8091C52.1636 28.9918 49.1202 29.0771 47.2996 30.9997C45.479 32.9222 45.5707 35.9539 47.5043 37.7712C49.438 39.5885 52.4814 39.5032 54.3019 37.5806C56.1225 35.6581 56.0308 32.6264 54.0972 30.8091Z" fill="url(#paint4_linear_232_3772)"/>
<path fill-rule="evenodd" clip-rule="evenodd" d="M61.0439 29.3858L59.3735 29.4045L59.1157 28.5129L58.0256 28.3037L57.3548 28.7051L55.96 27.7503L56.167 26.8983L55.4679 26.0663L54.6611 26.0753L54.0708 24.5711L54.6998 23.8706L54.7296 22.8631L54.1414 22.3457L54.7058 20.6031L55.3814 20.5956L56.0558 19.6801L55.8245 18.9936L57.1996 17.8736L57.8751 18.366L58.9605 17.9539L59.202 17.2235L61.0169 17.2032L61.3322 18.0504L62.2956 18.3224L62.9893 17.8109L64.389 18.8932L64.1827 19.7136L64.8052 20.4902L65.6402 20.4809L66.2642 22.2319L65.6002 22.6855L65.616 23.7393L66.2914 24.3139L65.7184 25.9517L64.771 25.9623L64.2842 26.7905L64.5213 27.6545L63.1698 28.6299L62.269 28.261L61.4748 28.5799L61.0439 29.3858ZM60.7955 28.9764L61.1825 28.2527L62.269 27.8165L63.1131 28.1621L64.0492 27.4866L63.8416 26.7302L64.5336 25.5529L65.4252 25.5429L65.8098 24.4436L65.2076 23.9314L65.1858 22.469L65.7703 22.0697L65.3521 20.8962L64.6108 20.9045L63.7338 19.8104L63.9243 19.0534L62.9847 18.3268L62.3789 18.7736L61.0202 18.39L60.7331 17.6185L59.5005 17.6323L59.2896 18.2701L57.8143 18.8304L57.2147 18.3933L56.3053 19.134L56.514 19.7533L55.5916 21.0053L55.0062 21.0119L54.6162 22.2161L55.1463 22.6824L55.1063 24.0351L54.5464 24.6586L54.9395 25.6601L55.6564 25.6521L56.616 26.794L56.427 27.5718L57.3684 28.2162L57.9477 27.8695L59.4401 28.1558L59.681 28.9889L60.7955 28.9764Z" fill="url(#paint5_linear_232_3772)"/>
<path d="M56.5389 23.3448C56.5089 21.3395 58.1066 19.6958 60.1076 19.6735C62.1085 19.6511 63.7549 21.2585 63.7849 23.2638C63.8149 25.269 62.2171 26.9127 60.2162 26.9351C58.2153 26.9574 56.5689 25.35 56.5389 23.3448ZM63.5472 23.2664C63.5192 21.3928 61.9808 19.8908 60.1111 19.9117C58.2415 19.9326 56.7486 21.4684 56.7766 23.3421C56.8046 25.2158 58.343 26.7177 60.2126 26.6968C62.0823 26.6759 63.5752 25.1401 63.5472 23.2664Z" fill="url(#paint6_linear_232_3772)"/>
<defs>
<linearGradient id="paint0_linear_232_3772" x1="0" y1="61.4324" x2="68" y2="61.4324" gradientUnits="userSpaceOnUse">
<stop stop-color="#00469F"/>
<stop offset="1" stop-color="#1E79D6"/>
</linearGradient>
<linearGradient id="paint1_linear_232_3772" x1="20" y1="18.4054" x2="49" y2="18.4054" gradientUnits="userSpaceOnUse">
<stop stop-color="#00469F"/>
<stop offset="1" stop-color="#1E79D6"/>
</linearGradient>
<linearGradient id="paint2_linear_232_3772" x1="20" y1="18.4054" x2="49" y2="18.4054" gradientUnits="userSpaceOnUse">
<stop stop-color="#00469F"/>
<stop offset="1" stop-color="#1E79D6"/>
</linearGradient>
<linearGradient id="paint3_linear_232_3772" x1="42.232" y1="32.482" x2="59.1703" y2="36.5239" gradientUnits="userSpaceOnUse">
<stop stop-color="#00469F"/>
<stop offset="1" stop-color="#1E79D6"/>
</linearGradient>
<linearGradient id="paint4_linear_232_3772" x1="42.232" y1="32.482" x2="59.1703" y2="36.5239" gradientUnits="userSpaceOnUse">
<stop stop-color="#00469F"/>
<stop offset="1" stop-color="#1E79D6"/>
</linearGradient>
<linearGradient id="paint5_linear_232_3772" x1="56.8697" y1="18.0692" x2="63.1403" y2="28.6474" gradientUnits="userSpaceOnUse">
<stop stop-color="#00469F"/>
<stop offset="1" stop-color="#1E79D6"/>
</linearGradient>
<linearGradient id="paint6_linear_232_3772" x1="56.8697" y1="18.0692" x2="63.1403" y2="28.6474" gradientUnits="userSpaceOnUse">
<stop stop-color="#00469F"/>
<stop offset="1" stop-color="#1E79D6"/>
</linearGradient>
</defs>
</svg>
