<svg width="80" height="80" viewBox="0 0 80 80" fill="none" xmlns="http://www.w3.org/2000/svg">
<g clip-path="url(#clip0_232_3898)">
<path d="M75.5729 21.7188C75.2672 21.2489 74.7981 20.909 74.2563 20.7649C73.7145 20.6207 73.1386 20.6826 72.6397 20.9385C72.1409 21.1944 71.7547 21.6261 71.5557 22.1502C71.3568 22.6744 71.3592 23.2536 71.5625 23.7761C74.3389 29.1786 75.6824 35.2032 75.4646 41.2734C75.2467 47.3436 73.4747 53.2563 70.3181 58.4459C67.1615 63.6354 62.726 67.9282 57.4359 70.9132C52.1459 73.8982 46.1783 75.4757 40.1042 75.4948C32.5001 75.4803 25.0999 73.0349 18.9844 68.5157C19.0242 68.1173 19.0242 67.7161 18.9844 67.3178C18.9844 66.2516 18.6682 65.2093 18.0759 64.3228C17.4836 63.4363 16.6417 62.7454 15.6567 62.3374C14.6716 61.9294 13.5878 61.8227 12.5421 62.0307C11.4964 62.2387 10.5359 62.7521 9.78202 63.506C9.02813 64.2599 8.5147 65.2204 8.3067 66.2661C8.09871 67.3118 8.20547 68.3956 8.61347 69.3806C9.02147 70.3656 9.7124 71.2075 10.5989 71.7999C11.4854 72.3922 12.5276 72.7083 13.5938 72.7083C14.5015 72.7305 15.3992 72.5151 16.1979 72.0833C23.1102 77.1696 31.4702 79.9076 40.0521 79.8958C46.9067 79.8921 53.6454 78.1282 59.6227 74.7729C65.5999 71.4177 70.6154 66.5836 74.1884 60.734C77.7615 54.8843 79.7724 48.2151 80.0285 41.3653C80.2846 34.5156 78.7773 27.7147 75.651 21.6146L75.5729 21.7188Z" fill="#498AC9"/>
<path d="M8.125 55.6511C5.71259 50.7966 4.46432 45.4469 4.47916 40.0261C4.48129 33.5412 6.25998 27.1807 9.62211 21.6354C12.9842 16.0901 17.8013 11.5719 23.5502 8.57124C29.2992 5.57061 35.7604 4.20231 42.2321 4.61488C48.7039 5.02745 54.939 7.20516 60.2604 10.9115C60.0746 11.4836 59.978 12.0808 59.9739 12.6823C59.9533 13.7527 60.2517 14.805 60.8314 15.705C61.411 16.6051 62.2455 17.3122 63.2285 17.7362C64.2115 18.1603 65.2985 18.282 66.3509 18.0859C67.4034 17.8898 68.3736 17.3848 69.138 16.6353C69.9023 15.8857 70.4261 14.9255 70.6427 13.877C70.8593 12.8286 70.7588 11.7395 70.3541 10.7484C69.9493 9.75731 69.2586 8.90914 68.37 8.31208C67.4814 7.71501 66.4351 7.39607 65.3646 7.39587C64.7137 7.39755 64.0689 7.52121 63.4635 7.76046C56.2323 2.51947 47.4551 -0.150786 38.5302 0.175089C29.6054 0.500965 21.0463 3.80425 14.2165 9.55865C7.38672 15.313 2.67913 23.1876 0.843672 31.9277C-0.991781 40.6679 0.150488 49.7709 4.08853 57.7865C4.26801 58.165 4.55237 58.484 4.90784 58.7055C5.2633 58.9271 5.67492 59.042 6.09375 59.0365C6.56721 59.0424 7.03012 58.8965 7.41447 58.6199C7.79882 58.3434 8.08437 57.9508 8.22917 57.5C8.34809 57.203 8.40039 56.8835 8.38239 56.564C8.36439 56.2445 8.27653 55.9329 8.125 55.6511Z" fill="#498AC9"/>
<path d="M21.4062 42.0313C21.5427 42.0323 21.678 42.0051 21.8035 41.9513C21.9289 41.8975 22.0419 41.8183 22.1354 41.7188L39.1666 24.6876V32.0313C39.1666 32.3075 39.2764 32.5725 39.4717 32.7678C39.6671 32.9632 39.932 33.0729 40.2083 33.0729C40.4845 33.0729 40.7495 32.9632 40.9449 32.7678C41.1402 32.5725 41.2499 32.3075 41.2499 32.0313V22.1875C41.2746 22.0585 41.2746 21.926 41.2499 21.7969C41.1976 21.668 41.1199 21.5509 41.0215 21.4525C40.9231 21.3541 40.806 21.2764 40.677 21.224H40.2864H29.3229C29.0466 21.224 28.7816 21.3337 28.5863 21.5291C28.3909 21.7244 28.2812 21.9894 28.2812 22.2656C28.2812 22.5419 28.3909 22.8069 28.5863 23.0022C28.7816 23.1976 29.0466 23.3073 29.3229 23.3073H37.6822L20.677 40.3126C20.5375 40.4614 20.4435 40.6471 20.4062 40.8477C20.3689 41.0483 20.3898 41.2553 20.4665 41.4444C20.5433 41.6334 20.6725 41.7965 20.8391 41.9144C21.0056 42.0322 21.2024 42.0999 21.4062 42.1094V42.0313Z" fill="#D1D3D4"/>
<path d="M21.4063 42.6562C20.9619 42.6583 20.5334 42.4905 20.2084 42.1874C19.8966 41.8666 19.7222 41.4369 19.7222 40.9895C19.7222 40.5422 19.8966 40.1124 20.2084 39.7916L36.1199 23.8801H29.323C28.8741 23.8801 28.4435 23.7018 28.1261 23.3844C27.8086 23.0669 27.6303 22.6364 27.6303 22.1874C27.6303 21.7385 27.8086 21.3079 28.1261 20.9905C28.4435 20.6731 28.8741 20.4948 29.323 20.4948H40.1042C40.4384 20.4948 40.7651 20.5937 41.0432 20.779C41.3212 20.9644 41.5382 21.2279 41.6667 21.5364C41.7058 21.7517 41.7058 21.9722 41.6667 22.1874V32.0312C41.6667 32.4801 41.4884 32.9107 41.171 33.2281C40.8535 33.5456 40.423 33.7239 39.974 33.7239C39.5251 33.7239 39.0945 33.5456 38.7771 33.2281C38.4597 32.9107 38.2813 32.4801 38.2813 32.0312V26.2499L22.3699 42.1614C22.1152 42.4324 21.7749 42.6072 21.4063 42.6562ZM29.2188 21.8229C29.1152 21.8229 29.0159 21.864 28.9426 21.9373C28.8694 22.0105 28.8282 22.1099 28.8282 22.2135C28.8282 22.3171 28.8694 22.4164 28.9426 22.4897C29.0159 22.5629 29.1152 22.6041 29.2188 22.6041H39.1407L20.9115 40.8333C20.8503 40.9113 20.817 41.0076 20.817 41.1068C20.817 41.2059 20.8503 41.3022 20.9115 41.3801C20.9889 41.4534 21.0914 41.4943 21.198 41.4943C21.3045 41.4943 21.4071 41.4534 21.4844 41.3801L39.7136 23.151V32.0573C39.7136 32.5 40.4949 32.5 40.4949 32.0573V22.2135C40.465 22.067 40.3814 21.9369 40.2605 21.8489L29.2188 21.8229Z" fill="#D1D3D4"/>
<path d="M58.4633 39.0885C58.4109 38.9596 58.3332 38.8424 58.2348 38.744C58.1364 38.6456 58.0193 38.568 57.8904 38.5156H57.4998H46.6144C46.3381 38.5156 46.0731 38.6254 45.8778 38.8207C45.6824 39.0161 45.5727 39.281 45.5727 39.5573C45.5727 39.8335 45.6824 40.0985 45.8778 40.2938C46.0731 40.4892 46.3381 40.5989 46.6144 40.5989H54.9737L37.9685 57.6041C37.829 57.753 37.735 57.9386 37.6977 58.1392C37.6604 58.3398 37.6813 58.5469 37.758 58.7359C37.8348 58.925 37.964 59.0881 38.1306 59.206C38.2971 59.3239 38.4939 59.3915 38.6977 59.401C38.8342 59.402 38.9695 59.3748 39.095 59.3211C39.2204 59.2673 39.3334 59.1881 39.4269 59.0885L56.4581 42.0573V49.401C56.4581 49.6773 56.5679 49.9422 56.7632 50.1376C56.9586 50.3329 57.2235 50.4427 57.4998 50.4427C57.776 50.4427 58.041 50.3329 58.2364 50.1376C58.4317 49.9422 58.5414 49.6773 58.5414 49.401V39.5573C58.5519 39.3971 58.5251 39.2367 58.4633 39.0885Z" fill="#444446"/>
<path d="M38.6981 59.9479C38.2537 59.948 37.827 59.7732 37.5103 59.4614C37.1936 59.1495 37.0123 58.7257 37.0054 58.2813C37.0037 58.0587 37.0466 57.838 37.1316 57.6322C37.2166 57.4265 37.3419 57.2398 37.5002 57.0833L53.4117 41.25H46.6148C46.1659 41.25 45.7353 41.0717 45.4179 40.7543C45.1004 40.4368 44.9221 40.0063 44.9221 39.5573C44.9221 39.1084 45.1004 38.6778 45.4179 38.3604C45.7353 38.0429 46.1659 37.8646 46.6148 37.8646H57.5002C57.7147 37.8704 57.9263 37.9144 58.1252 37.9948C58.3308 38.0773 58.5176 38.2006 58.6742 38.3573C58.8309 38.5139 58.9541 38.7007 59.0367 38.9063C59.0741 39.1217 59.0741 39.3419 59.0367 39.5573V49.4011C59.0664 49.6392 59.0451 49.8809 58.9743 50.1102C58.9035 50.3395 58.7847 50.5511 58.6258 50.731C58.467 50.9109 58.2717 51.0549 58.053 51.1536C57.8342 51.2523 57.597 51.3033 57.357 51.3033C57.117 51.3033 56.8798 51.2523 56.661 51.1536C56.4422 51.0549 56.247 50.9109 56.0881 50.731C55.9293 50.5511 55.8105 50.3395 55.7397 50.1102C55.6689 49.8809 55.6476 49.6392 55.6773 49.4011V43.6198L39.896 59.4792C39.7392 59.6352 39.5519 59.7574 39.3458 59.838C39.1397 59.9186 38.9193 59.956 38.6981 59.9479ZM46.5106 39.1146C46.407 39.1146 46.3077 39.1558 46.2344 39.229C46.1612 39.3023 46.12 39.4016 46.12 39.5052C46.12 39.6088 46.1612 39.7082 46.2344 39.7814C46.3077 39.8547 46.407 39.8959 46.5106 39.8959H56.4325L38.2033 58.125C38.1421 58.203 38.1088 58.2993 38.1088 58.3984C38.1088 58.4976 38.1421 58.5939 38.2033 58.6719C38.2807 58.7452 38.3832 58.786 38.4898 58.786C38.5964 58.786 38.6989 58.7452 38.7763 58.6719L57.0054 40.4427V49.3489C57.0054 49.7916 57.7867 49.7916 57.7867 49.3489V39.5052L58.3596 39.1146L57.7606 39.3489C57.7015 39.2607 57.6208 39.189 57.5263 39.1406L46.5106 39.1146Z" fill="#444446"/>
<path d="M55.9896 31.9792C55.9896 32.116 56.0166 32.2514 56.0689 32.3778C56.1213 32.5042 56.198 32.619 56.2947 32.7157C56.3914 32.8125 56.5063 32.8892 56.6326 32.9415C56.759 32.9939 56.8945 33.0208 57.0313 33.0208C57.1681 33.0208 57.3035 32.9939 57.4299 32.9415C57.5563 32.8892 57.6711 32.8125 57.7679 32.7157C57.8646 32.619 57.9413 32.5042 57.9937 32.3778C58.046 32.2514 58.073 32.116 58.073 31.9792V22.1354C58.0996 22.0066 58.0996 21.8737 58.073 21.7448C58.0206 21.6159 57.9429 21.4988 57.8445 21.4004C57.7461 21.302 57.629 21.2243 57.5 21.1719C57.371 21.1473 57.2384 21.1473 57.1094 21.1719H46.1719C45.8956 21.1719 45.6307 21.2817 45.4353 21.477C45.24 21.6724 45.1302 21.9373 45.1302 22.2136C45.1302 22.4898 45.24 22.7548 45.4353 22.9501C45.6307 23.1455 45.8956 23.2552 46.1719 23.2552H54.5052L20.3386 57.3438C20.2402 57.4407 20.162 57.5562 20.1087 57.6837C20.0553 57.8111 20.0278 57.9478 20.0278 58.0859C20.0278 58.2241 20.0553 58.3608 20.1087 58.4882C20.162 58.6157 20.2402 58.7312 20.3386 58.8281C20.4333 58.9243 20.5471 58.9995 20.6727 59.0488C20.7983 59.0982 20.9329 59.1205 21.0678 59.1146C21.2024 59.119 21.3365 59.0959 21.4619 59.0466C21.5873 58.9974 21.7013 58.923 21.7969 58.8281L55.9896 24.6354V31.9792Z" fill="#498AC9"/>
<path d="M21.0675 59.7656C20.8445 59.7704 20.6229 59.7288 20.4168 59.6437C20.2106 59.5585 20.0243 59.4316 19.8696 59.2709C19.5595 58.9545 19.3857 58.529 19.3857 58.0859C19.3857 57.6429 19.5595 57.2175 19.8696 56.9011L52.9686 23.8281H46.1717C45.7228 23.8281 45.2922 23.6498 44.9748 23.3324C44.6573 23.0149 44.479 22.5844 44.479 22.1354C44.479 21.6865 44.6573 21.2559 44.9748 20.9385C45.2922 20.6211 45.7228 20.4427 46.1717 20.4427H57.0311C57.2459 20.4455 57.4581 20.4897 57.6561 20.5729C58.0734 20.746 58.4088 21.0721 58.5936 21.4844C58.6765 21.6916 58.7206 21.9123 58.7238 22.1354V31.9792C58.7238 32.4281 58.5454 32.8587 58.228 33.1761C57.9106 33.4936 57.48 33.6719 57.0311 33.6719C56.5821 33.6719 56.1516 33.4936 55.8342 33.1761C55.5167 32.8587 55.3384 32.4281 55.3384 31.9792V26.1979L22.2655 59.2709C22.1099 59.4304 21.9234 59.5565 21.7174 59.6415C21.5115 59.7266 21.2904 59.7688 21.0675 59.7656ZM46.1717 21.7448C46.1183 21.7413 46.0647 21.7487 46.0142 21.7667C45.9638 21.7847 45.9176 21.8129 45.8785 21.8496C45.8394 21.8862 45.8083 21.9305 45.7871 21.9797C45.7658 22.0288 45.7549 22.0819 45.755 22.1354C45.7617 22.2414 45.8085 22.3408 45.8859 22.4134C45.9633 22.486 46.0656 22.5263 46.1717 22.5261H56.0675L20.7811 57.8125C20.7095 57.8855 20.6694 57.9837 20.6694 58.0859C20.6694 58.1882 20.7095 58.2864 20.7811 58.3594C20.8585 58.4327 20.961 58.4734 21.0675 58.4734C21.1741 58.4734 21.2766 58.4327 21.354 58.3594L56.6404 23.0208V31.9271C56.6404 32.3438 57.4217 32.3438 57.4217 31.9271V22.0834C57.4217 21.823 57.2654 21.7448 57.1873 21.7188L46.1717 21.7448Z" fill="#498AC9"/>
</g>
<defs>
<clipPath id="clip0_232_3898">
<rect width="80" height="80" fill="white"/>
</clipPath>
</defs>
</svg>
