<svg width="80" height="80" viewBox="0 0 80 80" fill="none" xmlns="http://www.w3.org/2000/svg">
<path d="M75.234 21.9587C75.0229 21.5548 74.6598 21.2512 74.2245 21.1145C73.7893 20.9778 73.3174 21.0192 72.9127 21.2296C72.7132 21.3314 72.5361 21.4717 72.3912 21.6422C72.2464 21.8128 72.1369 22.0103 72.069 22.2234C72.0011 22.4365 71.9762 22.6607 71.9956 22.8835C72.015 23.1063 72.0786 23.323 72.1823 23.5211C75.0077 29.0162 76.3708 35.1442 76.141 41.3168C75.9111 47.4893 74.0959 53.4993 70.8695 58.7699C67.6432 64.0404 63.1141 68.3948 57.7169 71.4148C52.3196 74.4348 46.2354 76.0193 40.0482 76.016C32.1879 76.0123 24.5425 73.4529 18.269 68.7251C18.4167 68.2713 18.4872 67.796 18.4776 67.3189C18.4776 66.3547 18.1909 65.4123 17.6538 64.611C17.1167 63.8097 16.3534 63.1855 15.4607 62.8177C14.568 62.45 13.5858 62.3551 12.639 62.5451C11.6921 62.7352 10.8231 63.2015 10.1421 63.885C9.46094 64.5687 8.99846 65.4388 8.81322 66.385C8.62798 67.3312 8.7283 68.3111 9.10147 69.2004C9.47464 70.0897 10.1039 70.8484 10.9094 71.3803C11.7148 71.9123 12.6604 72.1933 13.6263 72.1882C14.5483 72.2047 15.4552 71.9513 16.2346 71.4591C23.3756 76.8524 32.1387 79.6662 41.0901 79.4403C50.0414 79.2145 58.651 75.9622 65.51 70.2156C72.3689 64.4691 77.071 56.5687 78.8469 47.807C80.6229 39.0454 79.3676 29.9414 75.2862 21.9848L75.234 21.9587Z" fill="#498AC9"/>
<path d="M40.0472 79.9999C31.4514 80.0134 23.0776 77.2756 16.1553 72.1882C15.3485 72.6021 14.454 72.8164 13.547 72.8131C12.4718 72.8182 11.4193 72.5044 10.5231 71.9112C9.62688 71.3181 8.92753 70.4724 8.51367 69.4816C8.09982 68.4909 7.99018 67.3998 8.19868 66.3467C8.40718 65.2937 8.92443 64.3262 9.68473 63.5672C10.445 62.8082 11.4141 62.2918 12.4689 62.0838C13.5236 61.8757 14.6168 61.985 15.6091 62.3981C16.6015 62.8113 17.4485 63.5096 18.0427 64.4042C18.6368 65.299 18.9513 66.3496 18.9461 67.423C18.9414 67.8256 18.8977 68.2267 18.8157 68.6208C24.9491 73.1205 32.3575 75.5554 39.9689 75.5733C46.0601 75.5742 52.0493 74.0126 57.3622 71.0384C62.6751 68.0642 67.1334 63.7771 70.3095 58.5883C73.4856 53.3994 75.2731 47.483 75.5004 41.4063C75.7277 35.3295 74.3871 29.2964 71.6074 23.8856C71.4343 23.6198 71.3189 23.3206 71.2687 23.0074C71.2186 22.6944 71.235 22.3742 71.3166 22.0677C71.3983 21.7613 71.5434 21.4754 71.7429 21.2284C71.9422 20.9815 72.1912 20.7792 72.4738 20.6345C72.7565 20.4898 73.0664 20.4058 73.3836 20.3882C73.7007 20.3706 74.018 20.4197 74.3149 20.5322C74.6119 20.6448 74.8819 20.8183 75.1075 21.0416C75.3329 21.2649 75.509 21.533 75.6243 21.8285C78.7358 27.9176 80.2322 34.7011 79.9707 41.5317C79.7092 48.3624 77.6983 55.0122 74.1302 60.8464C70.5621 66.6805 65.5558 71.5044 59.5891 74.8574C53.6223 78.2105 46.8943 79.981 40.0472 79.9999ZM16.2074 70.8081L16.5204 71.0425C23.2927 76.1131 31.5297 78.8542 39.9951 78.8542C46.6653 78.8463 53.2219 77.1293 59.0371 73.8673C64.8524 70.6054 69.7315 65.9079 73.2075 60.2244C76.6835 54.541 78.64 48.0619 78.8896 41.4076C79.1392 34.7532 77.6736 28.1461 74.6331 22.219C74.5675 22.0745 74.4733 21.9447 74.356 21.8378C74.2387 21.7308 74.1009 21.6485 73.9509 21.5962C73.8008 21.5439 73.6418 21.5225 73.4832 21.5334C73.3247 21.5443 73.17 21.5872 73.0286 21.6596C72.8872 21.732 72.7619 21.8322 72.6604 21.9543C72.5589 22.0765 72.4834 22.2178 72.4384 22.37C72.3933 22.5222 72.3796 22.6819 72.3982 22.8394C72.4168 22.9968 72.4672 23.1491 72.5464 23.2867C75.4026 28.8643 76.7776 35.0801 76.5397 41.3398C76.3018 47.5994 74.4591 53.6934 71.1878 59.0389C67.9165 64.3843 63.3261 68.8025 57.8556 71.8706C52.3851 74.9388 46.2175 76.5544 39.9429 76.5628C31.9666 76.5516 24.2112 73.9463 17.8507 69.1416L17.5377 68.9333V68.5687C17.6491 68.161 17.7104 67.7413 17.7203 67.3189C17.7192 66.3688 17.4027 65.4457 16.8203 64.6943C16.2378 63.9429 15.4222 63.4054 14.5013 63.166C13.5803 62.9265 12.6058 62.9985 11.7301 63.3708C10.8545 63.7431 10.1272 64.3947 9.66203 65.2237C9.19683 66.0525 9.01998 67.012 9.15914 67.9519C9.2983 68.8918 9.7456 69.7591 10.4311 70.4183C11.1165 71.0774 12.0016 71.4911 12.9476 71.5945C13.8937 71.6981 14.8474 71.4857 15.6597 70.9904L16.2074 70.8081Z" fill="#498AC9"/>
<path d="M3.9742 39.9778C3.98594 33.3624 5.82015 26.8776 9.2761 21.2331C12.7321 15.5887 17.6766 11.0018 23.5687 7.97468C29.4609 4.94754 36.0734 3.59666 42.6831 4.06988C49.2927 4.54309 55.6444 6.82213 61.0436 10.6576C60.7523 11.2862 60.6011 11.9702 60.6002 12.6627C60.6002 13.6258 60.8862 14.5672 61.4222 15.3679C61.9581 16.1686 62.7198 16.7929 63.6111 17.1613C64.5023 17.5299 65.4831 17.6264 66.4292 17.4385C67.3753 17.2506 68.2444 16.7869 68.9265 16.1058C69.6087 15.4249 70.0732 14.5572 70.2614 13.6127C70.4496 12.6682 70.353 11.689 69.9839 10.7992C69.6147 9.90951 68.9895 9.14907 68.1875 8.61402C67.3853 8.07897 66.4423 7.79338 65.4777 7.79338C64.7953 7.79526 64.1205 7.93703 63.4953 8.20998C56.3655 2.97818 47.684 0.285056 38.8397 0.561453C29.9954 0.83785 21.4996 4.06781 14.7114 9.73455C7.92332 15.4013 3.23534 23.1773 1.39749 31.8184C-0.440359 40.4596 0.678165 49.4665 4.57409 57.3979C4.71751 57.6839 4.9369 57.9251 5.2083 58.095C5.4797 58.2648 5.79267 58.357 6.113 58.3614C6.37661 58.3663 6.63705 58.3035 6.86938 58.1791C7.27625 57.9775 7.58682 57.6235 7.73339 57.1942C7.87996 56.765 7.85065 56.2954 7.65188 55.8877C5.2104 50.9395 3.95154 45.4936 3.9742 39.9778Z" fill="#498AC9"/>
<path d="M6.11368 58.8824C5.69419 58.8879 5.28191 58.773 4.92589 58.5514C4.56987 58.3298 4.28505 58.0109 4.10528 57.6325C0.161011 49.6176 -0.983085 40.5155 0.855274 31.7762C2.69363 23.037 7.4087 15.1631 14.2493 9.40926C21.0899 3.6554 29.6625 0.352493 38.6015 0.0266494C47.5404 -0.299194 56.3316 2.37077 63.5742 7.61124C64.1823 7.38092 64.828 7.26613 65.4783 7.27276C66.5461 7.27276 67.5901 7.58886 68.4779 8.18113C69.3658 8.7734 70.0579 9.61521 70.4665 10.6002C70.8752 11.5851 70.982 12.6689 70.7737 13.7144C70.5654 14.7599 70.0512 15.7204 69.2961 16.4742C68.541 17.228 67.579 17.7414 66.5316 17.9494C65.4843 18.1573 64.3988 18.0506 63.4122 17.6427C62.4256 17.2347 61.5824 16.5438 60.9891 15.6574C60.3958 14.7711 60.0791 13.7289 60.0791 12.6629C60.0809 12.0527 60.1777 11.4466 60.3661 10.8661C53.8974 6.39518 46.126 4.19267 38.2691 4.60368C30.4123 5.01469 22.914 8.01601 16.9489 13.1374C10.9837 18.2588 6.88884 25.2109 5.30569 32.9047C3.72254 40.5985 4.74058 48.5992 8.2003 55.6535C8.31653 55.9251 8.37645 56.2174 8.37645 56.5128C8.37645 56.8082 8.31653 57.1005 8.2003 57.372C8.04067 57.8116 7.75025 58.1919 7.36794 58.4617C6.98564 58.7317 6.52976 58.8785 6.06151 58.8824H6.11368ZM40.0214 1.07543C33.4136 1.1146 26.9233 2.82397 21.156 6.04411C15.3887 9.26424 10.5324 13.8902 7.04005 19.4905C3.54769 25.0908 1.53301 31.4829 1.18402 38.0706C0.835026 44.6583 2.16307 51.2269 5.04427 57.1638C5.18407 57.4386 5.42673 57.6474 5.71967 57.7449C6.0126 57.8424 6.33221 57.8207 6.60924 57.6845C6.7518 57.6209 6.87908 57.5275 6.98254 57.4107C7.08601 57.2939 7.16328 57.1566 7.20916 57.0076C7.32512 56.7238 7.32512 56.4059 7.20916 56.1222C4.43041 50.5508 3.12671 44.3621 3.42221 38.1454C3.71772 31.9287 5.60257 25.8909 8.89729 20.6073C12.192 15.3237 16.7868 10.9702 22.2441 7.96149C27.7014 4.95275 33.8394 3.38887 40.0736 3.41894C47.717 3.41049 55.1704 5.79669 61.3833 10.2412L61.7224 10.4756L61.5398 10.8922C61.2988 11.4515 61.1745 12.054 61.1746 12.6629C61.1746 13.5178 61.4286 14.3534 61.9043 15.0643C62.3801 15.7751 63.0563 16.3292 63.8475 16.6563C64.6386 16.9833 65.5092 17.069 66.3491 16.9023C67.1891 16.7355 67.9605 16.3238 68.566 15.7193C69.1716 15.1147 69.5839 14.3446 69.751 13.5061C69.9181 12.6676 69.8323 11.7985 69.5046 11.0087C69.1769 10.2189 68.6219 9.5438 67.9099 9.06883C67.1979 8.59387 66.3607 8.34033 65.5044 8.34033C64.8948 8.34308 64.2919 8.467 63.7308 8.70488H63.4438L63.2092 8.52263C56.4887 3.62409 48.3684 1.01315 40.0475 1.07543H40.0214Z" fill="#498AC9"/>
<path d="M64.8252 30.9683C62.9741 25.8921 59.6035 21.5073 55.1707 18.4089C50.738 15.3106 45.4577 13.6487 40.0466 13.6487C34.6354 13.6487 29.3551 15.3106 24.9224 18.4089C20.4896 21.5073 17.1189 25.8921 15.2678 30.9683V31.2026C14.2595 34.0185 13.7477 36.9874 13.755 39.9778C13.7424 43.8192 14.5721 47.6168 16.1858 51.1041C17.7994 54.5913 20.158 57.6838 23.096 60.1644C26.0339 62.6449 29.4802 64.4538 33.1926 65.4636C36.9052 66.4734 40.7941 66.6598 44.5865 66.0098C48.3788 65.3599 51.9827 63.8892 55.1453 61.7011C58.3079 59.513 60.9525 56.6603 62.8935 53.3435C64.8346 50.0267 66.0249 46.326 66.3812 42.5012C66.7375 38.6764 66.2509 34.8198 64.9557 31.2026L64.8252 30.9683ZM16.7284 39.9778C16.7291 37.6472 17.0809 35.3297 17.7718 33.1034H26.6138C26.2955 35.381 26.1387 37.6782 26.1444 39.9778C26.1432 42.2418 26.2913 44.5034 26.5878 46.748H17.7456C17.0724 44.5541 16.7295 42.2724 16.7284 39.9778ZM29.17 39.9778C29.1749 37.6777 29.3405 35.3806 29.6656 33.1034H38.5338V46.748H29.6656C29.3383 44.506 29.1726 42.2435 29.17 39.9778ZM47.428 23.1305C48.5128 25.3426 49.3271 27.6767 49.8537 30.0829H41.5854V17.0634C44.2448 18.265 46.344 20.4352 47.4541 23.1305H47.428ZM38.5076 16.9592V29.9787H30.2916C30.8098 27.5737 31.6154 25.2396 32.6912 23.0263C33.8038 20.3415 35.8903 18.1748 38.5338 16.9592H38.5076ZM38.5076 49.7686V63.0225C35.8253 61.7925 33.7162 59.5843 32.6129 56.8511C31.5285 54.5935 30.7143 52.2164 30.1872 49.7686H38.5076ZM41.5594 63.0225V49.7686H49.8798C49.3561 52.2208 48.5326 54.5993 47.428 56.8511C46.3464 59.5808 44.2544 61.7906 41.5854 63.0225H41.5594ZM41.5594 46.748V33.1295H50.4014C50.7486 35.4046 50.923 37.7026 50.9231 40.0038C50.9205 42.2695 50.7549 44.532 50.4276 46.774L41.5594 46.748ZM53.5053 33.1295H62.3474C63.7206 37.5744 63.7206 42.3291 62.3474 46.774H53.5314C53.8279 44.5294 53.976 42.2679 53.9748 40.0038C53.9805 37.7043 53.8237 35.4071 53.5053 33.1295ZM61.1476 30.109H52.9836C52.1874 25.746 50.403 21.6224 47.7671 18.0529C50.6808 19.0802 53.3625 20.6717 55.6587 22.7361C57.9549 24.8005 59.8201 27.2972 61.1476 30.0829V30.109ZM32.2999 18.0268C29.664 21.5964 27.8796 25.72 27.0833 30.0829H18.9455C20.2672 27.2949 22.1272 24.7947 24.4189 22.7258C26.7106 20.6569 29.3887 19.0601 32.2999 18.0268ZM18.8933 49.7686H27.1094C27.8794 54.1792 29.6652 58.351 32.326 61.9548C29.3888 60.9154 26.6884 59.3025 24.3821 57.2103C22.0759 55.118 20.21 52.5882 18.8933 49.7686ZM47.8193 61.9548C50.4693 58.3449 52.2541 54.1757 53.0358 49.7686H61.2519C59.9352 52.5882 58.0694 55.118 55.7631 57.2103C53.4569 59.3025 50.7564 60.9154 47.8193 61.9548Z" fill="#444446"/>
</svg>
