<svg width="80" height="80" viewBox="0 0 80 80" fill="none" xmlns="http://www.w3.org/2000/svg">
<g clip-path="url(#clip0_232_3881)">
<path d="M75.5671 21.718C75.4327 21.4563 75.2482 21.2235 75.0239 21.0331C74.7996 20.8426 74.54 20.6982 74.2599 20.6081C73.9798 20.518 73.6847 20.4839 73.3914 20.5079C73.0981 20.5318 72.8125 20.6132 72.5507 20.7476C72.2889 20.8819 72.0561 21.0665 71.8657 21.2908C71.6752 21.5151 71.5308 21.7747 71.4407 22.0548C71.3506 22.3349 71.3165 22.63 71.3405 22.9232C71.3644 23.2165 71.4458 23.5022 71.5802 23.764C74.3527 29.1686 75.6926 35.194 75.4719 41.2643C75.2512 47.3346 73.4773 53.2468 70.3197 58.4359C67.162 63.625 62.7262 67.9174 57.4363 70.9029C52.1463 73.8885 46.179 75.4673 40.1048 75.4885C32.493 75.4832 25.0835 73.0379 18.9638 68.5115C19.0039 68.1103 19.0039 67.7061 18.9638 67.3049C18.9638 66.2363 18.6469 65.1916 18.0532 64.303C17.4595 63.4145 16.6156 62.7219 15.6283 62.313C14.6409 61.904 13.5545 61.797 12.5064 62.0055C11.4582 62.214 10.4955 62.7286 9.73982 63.4842C8.98416 64.2399 8.46954 65.2027 8.26105 66.2508C8.05256 67.2989 8.15957 68.3854 8.56853 69.3727C8.97749 70.36 9.67005 71.2039 10.5586 71.7976C11.4472 72.3913 12.4918 72.7082 13.5605 72.7082C14.4747 72.7306 15.379 72.5136 16.1835 72.0787C23.1009 77.1916 31.4766 79.9498 40.0785 79.9476C46.9305 79.9384 53.6654 78.1704 59.6384 74.8129C65.6114 71.4554 70.6224 66.6208 74.1917 60.7719C77.7611 54.923 79.7692 48.2558 80.0238 41.4085C80.2784 34.5613 78.7709 27.7634 75.6458 21.6656L75.5671 21.718Z" fill="#498AC9"/>
<path d="M8.13108 55.659C4.64593 48.5965 3.60906 40.5754 5.18373 32.8588C6.7584 25.1422 10.8552 18.1687 16.8288 13.0364C22.8025 7.90406 30.3136 4.90462 38.1794 4.51043C46.0451 4.11624 53.8185 6.34968 60.2754 10.859C60.0678 11.4308 59.9613 12.0343 59.9606 12.6426C59.9581 13.7571 60.3106 14.8434 60.9671 15.7441C61.6235 16.6447 62.5497 17.3129 63.6114 17.6518C64.6731 17.9907 65.8151 17.9826 66.8719 17.6288C67.9287 17.275 68.8454 16.5938 69.4891 15.684C70.1327 14.7741 70.4699 13.683 70.4517 12.5687C70.4335 11.4543 70.0609 10.3748 69.3879 9.48643C68.7149 8.59811 67.7765 7.9472 66.7087 7.62806C65.6409 7.30892 64.4992 7.33815 63.4491 7.71149C56.2293 2.536 47.4921 -0.0889206 38.6153 0.250693C29.7386 0.590307 21.2275 3.87513 14.4242 9.58713C7.6209 15.2991 2.91257 23.1133 1.04172 31.7973C-0.829128 40.4813 0.243949 49.5409 4.09174 57.5476C4.27251 57.9288 4.55895 58.25 4.91697 58.4732C5.275 58.6964 5.68957 58.8121 6.11142 58.8066C6.45418 58.8024 6.7928 58.7311 7.10814 58.5967C7.63987 58.3223 8.04426 57.8521 8.236 57.2853C8.4049 56.7491 8.36748 56.1691 8.13108 55.659Z" fill="#498AC9"/>
<path d="M23.9999 61.6131C26.6799 61.6131 28.8524 59.4406 28.8524 56.7607C28.8524 54.0807 26.6799 51.9082 23.9999 51.9082C21.32 51.9082 19.1475 54.0807 19.1475 56.7607C19.1475 59.4406 21.32 61.6131 23.9999 61.6131Z" fill="#D1D3D4"/>
<path d="M23.9999 49.4164C26.6799 49.4164 28.8524 47.2439 28.8524 44.5639C28.8524 41.884 26.6799 39.7115 23.9999 39.7115C21.32 39.7115 19.1475 41.884 19.1475 44.5639C19.1475 47.2439 21.32 49.4164 23.9999 49.4164Z" fill="#D1D3D4"/>
<path d="M38.2426 61.6131C40.9225 61.6131 43.0951 59.4406 43.0951 56.7607C43.0951 54.0807 40.9225 51.9082 38.2426 51.9082C35.5627 51.9082 33.3901 54.0807 33.3901 56.7607C33.3901 59.4406 35.5627 61.6131 38.2426 61.6131Z" fill="#498AC9"/>
<path d="M38.2426 49.4164C40.9225 49.4164 43.0951 47.2439 43.0951 44.5639C43.0951 41.884 40.9225 39.7115 38.2426 39.7115C35.5627 39.7115 33.3901 41.884 33.3901 44.5639C33.3901 47.2439 35.5627 49.4164 38.2426 49.4164Z" fill="#498AC9"/>
<path d="M38.2426 37.2459C40.9225 37.2459 43.0951 35.0734 43.0951 32.3935C43.0951 29.7135 40.9225 27.541 38.2426 27.541C35.5627 27.541 33.3901 29.7135 33.3901 32.3935C33.3901 35.0734 35.5627 37.2459 38.2426 37.2459Z" fill="#498AC9"/>
<path d="M52.4589 61.6131C55.1388 61.6131 57.3114 59.4406 57.3114 56.7607C57.3114 54.0807 55.1388 51.9082 52.4589 51.9082C49.779 51.9082 47.6064 54.0807 47.6064 56.7607C47.6064 59.4406 49.779 61.6131 52.4589 61.6131Z" fill="#444446"/>
<path d="M52.4589 49.4164C55.1388 49.4164 57.3114 47.2439 57.3114 44.5639C57.3114 41.884 55.1388 39.7115 52.4589 39.7115C49.779 39.7115 47.6064 41.884 47.6064 44.5639C47.6064 47.2439 49.779 49.4164 52.4589 49.4164Z" fill="#444446"/>
<path d="M52.4589 37.2459C55.1388 37.2459 57.3114 35.0734 57.3114 32.3935C57.3114 29.7135 55.1388 27.541 52.4589 27.541C49.779 27.541 47.6064 29.7135 47.6064 32.3935C47.6064 35.0734 49.779 37.2459 52.4589 37.2459Z" fill="#444446"/>
<path d="M52.4589 25.0492C55.1388 25.0492 57.3114 22.8766 57.3114 20.1967C57.3114 17.5168 55.1388 15.3442 52.4589 15.3442C49.779 15.3442 47.6064 17.5168 47.6064 20.1967C47.6064 22.8766 49.779 25.0492 52.4589 25.0492Z" fill="#444446"/>
</g>
<defs>
<clipPath id="clip0_232_3881">
<rect width="80" height="80" fill="white"/>
</clipPath>
</defs>
</svg>
