<svg width="80" height="80" viewBox="0 0 80 80" fill="none" xmlns="http://www.w3.org/2000/svg">
<g clip-path="url(#clip0_232_3848)">
<path d="M75.5975 21.7258C75.3199 21.1949 74.8435 20.7956 74.2724 20.615C73.7013 20.4344 73.0819 20.4872 72.5496 20.7619C72.2877 20.8968 72.0549 21.082 71.8647 21.307C71.6744 21.5319 71.5304 21.7923 71.4408 22.0729C71.3513 22.3536 71.318 22.6492 71.3429 22.9428C71.3678 23.2364 71.4503 23.5221 71.5857 23.7838C74.357 29.1871 75.6961 35.2109 75.4751 41.2794C75.2541 47.3479 73.4804 53.2582 70.3235 58.4457C67.1666 63.6331 62.732 67.9242 57.4436 70.9089C52.1552 73.8935 46.1896 75.4719 40.1172 75.4933C32.5067 75.4792 25.0982 73.0431 18.9644 68.5379C19.0157 68.1401 19.0157 67.7374 18.9644 67.3396C18.9644 66.2731 18.6482 65.2305 18.0557 64.3438C17.4631 63.457 16.621 62.7659 15.6356 62.3577C14.6503 61.9496 13.5661 61.8428 12.5201 62.0509C11.4741 62.2589 10.5132 62.7725 9.75908 63.5266C9.00494 64.2807 8.49137 65.2416 8.28331 66.2876C8.07524 67.3336 8.18201 68.4178 8.59015 69.4032C8.99829 70.3885 9.68946 71.2307 10.5762 71.8233C11.463 72.4158 12.5055 72.732 13.5721 72.732C14.4779 72.7353 15.3714 72.521 16.1771 72.1068C23.097 77.2571 31.491 80.0429 40.1172 80.0521C46.9709 80.0489 53.7089 78.2854 59.6854 74.9304C65.6619 71.5754 70.6764 66.7415 74.2482 60.8921C77.8201 55.0427 79.8296 48.3739 80.0841 41.5249C80.3386 34.6758 78.8296 27.8763 75.7017 21.7779L75.5975 21.7258Z" fill="#498AC9"/>
<path d="M8.12751 55.6692C4.67212 48.612 3.65537 40.6078 5.23653 32.9108C6.8177 25.2138 10.9074 18.2587 16.8651 13.1352C22.8227 8.01163 30.3116 5.00908 38.1586 4.5979C46.0056 4.18671 53.7673 6.39011 60.2278 10.863C60.0417 11.4441 59.9451 12.0502 59.9412 12.6604C59.9412 13.7269 60.2575 14.7695 60.85 15.6562C61.4425 16.543 62.2847 17.2341 63.2701 17.6423C64.2554 18.0504 65.3396 18.1572 66.3856 17.9492C67.4316 17.7411 68.3925 17.2276 69.1466 16.4734C69.9007 15.7193 70.4143 14.7584 70.6224 13.7124C70.8305 12.6664 70.7237 11.5822 70.3155 10.5969C69.9074 9.61154 69.2162 8.76929 68.3295 8.17677C67.4427 7.58425 66.4001 7.26802 65.3336 7.26802C64.6851 7.2725 64.0421 7.38702 63.432 7.60668C56.1983 2.364 47.4183 -0.307134 38.4905 0.018848C29.5628 0.34483 21.0009 3.64915 14.1689 9.40542C7.33688 15.1617 2.62775 23.0388 0.7917 31.7818C-1.04435 40.5248 0.0983092 49.6307 4.03763 57.649C4.22292 58.0306 4.51159 58.3526 4.8708 58.5783C5.23001 58.8039 5.64533 58.9242 6.06954 58.9255C6.45083 58.92 6.82458 58.8184 7.15615 58.63C7.48772 58.4417 7.7664 58.1727 7.9664 57.848C8.1664 57.5233 8.28124 57.1535 8.3003 56.7726C8.31935 56.3917 8.24199 56.0122 8.07539 55.6692H8.12751Z" fill="#498AC9"/>
<path d="M40.1174 20.3452C37.9476 20.3417 35.7984 20.7667 33.7931 21.5955C31.7877 22.4242 29.9657 23.6406 28.4314 25.175C26.897 26.7093 25.6806 28.5313 24.8519 30.5366C24.0231 32.5419 23.5982 34.6912 23.6017 36.861C23.5948 38.894 23.9749 40.9097 24.7218 42.8005C25.7555 45.114 27.1346 47.2572 28.8117 49.1567C30.1843 50.755 31.3727 52.5027 32.3545 54.3667C33.1034 55.9367 33.5959 57.6165 33.8133 59.3423H33.0839C32.8835 59.3423 32.6914 59.4219 32.5497 59.5636C32.408 59.7053 32.3284 59.8974 32.3284 60.0977V64.7868C32.3352 64.9826 32.4178 65.1681 32.5587 65.3042C32.6997 65.4403 32.888 65.5163 33.0839 65.5162H34.2562C34.5461 66.4864 35.054 67.3774 35.741 68.1212C36.3015 68.7207 36.9792 69.1985 37.732 69.5253C38.4848 69.852 39.2968 70.0206 40.1174 70.0206C40.9381 70.0206 41.75 69.852 42.5029 69.5253C43.2557 69.1985 43.9334 68.7207 44.4939 68.1212C45.173 67.3759 45.6721 66.4847 45.9527 65.5162H47.151C47.3469 65.5163 47.5352 65.4403 47.6762 65.3042C47.8171 65.1681 47.8997 64.9826 47.9064 64.7868V60.0977C47.9064 59.8974 47.8268 59.7053 47.6852 59.5636C47.5435 59.4219 47.3513 59.3423 47.151 59.3423H46.3955C46.622 57.6152 47.1233 55.9355 47.8804 54.3667C48.8528 52.4971 50.0419 50.7484 51.4232 49.1567C53.0836 47.2498 54.453 45.1079 55.487 42.8005C56.2422 40.9112 56.6311 38.8956 56.6332 36.861C56.6263 32.4829 54.8841 28.286 51.7882 25.1901C48.6924 22.0943 44.4956 20.3521 40.1174 20.3452ZM35.3242 43.1912C35.9518 43.0891 36.5435 42.8303 37.0444 42.4387C37.5453 42.047 37.9393 41.5353 38.1897 40.9509C38.2604 40.7707 38.2593 40.5704 38.1866 40.391C38.1139 40.2117 37.9752 40.0671 37.799 39.987C37.6158 39.9084 37.409 39.9053 37.2235 39.9785C37.0381 40.0517 36.8891 40.1952 36.8091 40.3777C36.6417 40.7841 36.3559 41.1306 35.9888 41.3722C35.6218 41.6138 35.1905 41.7394 34.7511 41.7324C34.3281 41.7334 33.9137 41.6131 33.5569 41.386C33.2001 41.1588 32.9158 40.8342 32.7377 40.4506C32.5596 40.0669 32.4951 39.6403 32.5518 39.2211C32.6086 38.802 32.7842 38.4079 33.0578 38.0854C33.449 38.2322 33.8645 38.3029 34.2822 38.2938C34.8105 38.296 35.3337 38.1896 35.8192 37.9812C35.9244 37.9516 36.022 37.8996 36.1051 37.8287C36.1883 37.7578 36.2551 37.6696 36.3009 37.5703C36.3467 37.4711 36.3704 37.3631 36.3704 37.2538C36.3704 37.1445 36.3467 37.0365 36.3009 36.9373C36.2551 36.838 36.1883 36.7499 36.1051 36.679C36.0219 36.6081 35.9243 36.556 35.8191 36.5265C35.7139 36.497 35.6035 36.4906 35.4955 36.5079C35.3876 36.5252 35.2847 36.5656 35.194 36.6265C34.9074 36.7543 34.5959 36.8167 34.2822 36.8089C33.695 36.8089 33.1317 36.5756 32.7165 36.1603C32.3012 35.7451 32.068 35.1819 32.068 34.5946C32.0679 34.0049 32.3003 33.4391 32.7149 33.0197C33.1294 32.6003 33.6926 32.3612 34.2822 32.3543H34.4385C35.1268 33.0542 36.0621 33.4563 37.0435 33.4745C37.1526 33.495 37.265 33.4912 37.3725 33.4634C37.48 33.4356 37.58 33.3845 37.6655 33.3136C37.7509 33.2427 37.8197 33.1538 37.867 33.0533C37.9142 32.9528 37.9387 32.8431 37.9387 32.732C37.9387 32.621 37.9142 32.5114 37.867 32.4109C37.8197 32.3104 37.7509 32.2215 37.6655 32.1506C37.58 32.0797 37.48 32.0285 37.3725 32.0007C37.265 31.9729 37.1526 31.9691 37.0435 31.9896C36.7463 31.992 36.4518 31.9331 36.1784 31.8165C35.905 31.7 35.6586 31.5284 35.4545 31.3123C35.2399 31.0987 35.0732 30.8419 34.9654 30.5589C34.8576 30.276 34.8112 29.9734 34.8293 29.6712C34.845 29.2437 34.9843 28.83 35.2301 28.48C35.476 28.13 35.818 27.8586 36.2147 27.6988C36.6115 27.539 37.0461 27.4976 37.4659 27.5795C37.8857 27.6614 38.2729 27.863 38.5805 28.1602C38.7985 28.3683 38.9712 28.6192 39.0878 28.8971C39.2043 29.175 39.2622 29.4741 39.2578 29.7754V44.3895C39.2652 44.9291 39.063 45.4505 38.6938 45.8441C38.3245 46.2376 37.817 46.4726 37.278 46.4995C36.6907 46.4995 36.1275 46.2663 35.7123 45.851C35.297 45.4357 35.0637 44.8725 35.0637 44.2853C35.0313 43.9083 35.1034 43.5298 35.2721 43.1912H35.3242ZM44.7023 31.2602C44.4933 31.477 44.2422 31.6489 43.9645 31.7653C43.6868 31.8818 43.3883 31.9404 43.0872 31.9375C42.978 31.917 42.8657 31.9208 42.7582 31.9486C42.6507 31.9764 42.5507 32.0276 42.4652 32.0985C42.3797 32.1694 42.3109 32.2582 42.2637 32.3587C42.2165 32.4592 42.192 32.5689 42.192 32.68C42.192 32.791 42.2165 32.9007 42.2637 33.0012C42.3109 33.1017 42.3797 33.1905 42.4652 33.2614C42.5507 33.3323 42.6507 33.3835 42.7582 33.4114C42.8657 33.4392 42.978 33.4429 43.0872 33.4224C43.5737 33.4162 44.0542 33.314 44.5013 33.1218C44.9483 32.9296 45.353 32.6511 45.6922 32.3023H45.8485C46.4381 32.3091 47.0013 32.5481 47.4158 32.9675C47.8303 33.3869 48.0628 33.9529 48.0627 34.5425C48.0585 34.9114 47.9632 35.2734 47.7854 35.5966C47.6076 35.9198 47.3528 36.1941 47.0435 36.3951C46.7342 36.5961 46.3801 36.7177 46.0126 36.7489C45.6451 36.7802 45.2755 36.7203 44.9367 36.5744C44.8478 36.5351 44.7519 36.5137 44.6547 36.5114C44.5575 36.5091 44.4608 36.5259 44.37 36.561C44.2793 36.5961 44.1964 36.6487 44.126 36.7158C44.0557 36.7829 43.9992 36.8632 43.9598 36.9521C43.9205 37.0411 43.8991 37.137 43.8967 37.2342C43.8944 37.3314 43.9113 37.4281 43.9464 37.5188C43.9814 37.6095 44.0341 37.6925 44.1012 37.7629C44.1683 37.8333 44.2486 37.8897 44.3376 37.929C44.8131 38.1398 45.3283 38.2464 45.8485 38.2417C46.2661 38.2508 46.6817 38.18 47.0728 38.0333C47.2672 38.2789 47.4073 38.5631 47.4837 38.867C47.5602 39.1708 47.5713 39.4874 47.5163 39.7959C47.4613 40.1043 47.3415 40.3976 47.1647 40.6563C46.988 40.915 46.7584 41.1332 46.491 41.2966C46.2237 41.46 45.9247 41.5648 45.6139 41.604C45.303 41.6433 44.9874 41.6161 44.6878 41.5244C44.3882 41.4326 44.1116 41.2783 43.8761 41.0717C43.6405 40.8651 43.4516 40.6108 43.3216 40.3257C43.2415 40.1431 43.0926 39.9996 42.9071 39.9264C42.7217 39.8532 42.5149 39.8563 42.3317 39.9349C42.1555 40.015 42.0168 40.1595 41.9441 40.3389C41.8714 40.5182 41.8702 40.7186 41.9409 40.8988C42.1914 41.4832 42.5854 41.995 43.0863 42.3866C43.5872 42.7782 44.1789 43.037 44.8065 43.1391C44.984 43.4572 45.0739 43.8169 45.067 44.1811C45.067 44.7684 44.8337 45.3316 44.4184 45.7469C44.0032 46.1621 43.44 46.3953 42.8527 46.3953C42.3113 46.3686 41.801 46.1345 41.4276 45.7417C41.0541 45.3488 40.8462 44.8273 40.8468 44.2853V29.6712C40.8424 29.3698 40.9003 29.0708 41.0169 28.7929C41.1334 28.5149 41.3061 28.2641 41.5241 28.0561C41.9542 27.7053 42.4992 27.5266 43.0534 27.5547C43.6077 27.5828 44.1318 27.8156 44.5243 28.208C44.9167 28.6004 45.1495 29.1245 45.1776 29.6788C45.2056 30.2331 45.027 30.7781 44.6762 31.2081L44.7023 31.2602ZM46.2913 62.1296C46.3311 62.7542 46.3311 63.3807 46.2913 64.0053H33.9175C33.8651 63.3811 33.8651 62.7537 33.9175 62.1296C33.9436 61.6959 33.9436 61.2609 33.9175 60.8271H46.2392C46.2132 61.2439 46.2132 61.817 46.2392 62.1296H46.2913ZM43.3476 67.0271C42.9427 67.4836 42.4507 67.8547 41.9005 68.1186C41.3503 68.3825 40.753 68.534 40.1435 68.564C39.504 68.5523 38.8737 68.4099 38.2913 68.1456C37.7089 67.8813 37.1868 67.5007 36.757 67.0271C36.3376 66.5438 36.0109 65.9875 35.7931 65.3859H44.3115C44.1051 65.9928 43.7772 66.5512 43.3476 67.0271ZM54.0543 42.1492C53.0685 44.316 51.7695 46.3259 50.1988 48.1146C48.7549 49.7919 47.5052 51.6271 46.4737 53.5852C45.6268 55.36 45.0726 57.2602 44.8325 59.212H40.8208V47.1769C41.3879 47.5963 42.0695 47.8326 42.7745 47.8542C43.758 47.8473 44.6988 47.4518 45.3918 46.7539C46.0848 46.0561 46.4737 45.1125 46.4737 44.129C46.4828 43.7113 46.412 43.2958 46.2653 42.9046C47.0235 42.6656 47.6853 42.1903 48.154 41.5481C48.6227 40.906 48.8737 40.1307 48.8703 39.3358C48.8641 38.5437 48.619 37.7719 48.1669 37.1215C48.6623 36.6524 49.0194 36.0563 49.1991 35.3982C49.3789 34.7401 49.3744 34.0452 49.1863 33.3894C48.9982 32.7336 48.6336 32.1421 48.1322 31.6793C47.6309 31.2166 47.0121 30.9004 46.3434 30.7652C46.4695 30.3427 46.5309 29.9036 46.5258 29.4627C46.4873 28.5285 46.099 27.643 45.4378 26.9818C44.7767 26.3207 43.8911 25.9323 42.9569 25.8939C42.4537 25.8692 41.9509 25.9491 41.4801 26.1285C41.0094 26.3078 40.5809 26.5827 40.2216 26.9359L39.8309 27.3787C39.7223 27.2133 39.5907 27.0642 39.4401 26.9359C39.0971 26.5976 38.69 26.3312 38.2427 26.1523C37.7953 25.9734 37.3168 25.8855 36.8351 25.8939C35.8983 25.9319 35.0097 26.3193 34.3443 26.9799C33.6789 27.6405 33.285 28.5262 33.2402 29.4627C33.235 29.9036 33.2965 30.3427 33.4225 30.7652C32.5766 30.9291 31.8144 31.3831 31.2675 32.0489C30.7205 32.7147 30.4232 33.5507 30.4268 34.4123C30.4371 34.9055 30.5488 35.3913 30.755 35.8395C30.9611 36.2876 31.2573 36.6886 31.6251 37.0173C31.1529 37.6592 30.8975 38.4347 30.8957 39.2315C30.8922 40.0265 31.1432 40.8018 31.6119 41.4439C32.0807 42.086 32.7425 42.5614 33.5007 42.8005C33.3664 43.1949 33.296 43.6082 33.2923 44.0248C33.2923 45.0083 33.6812 45.9519 34.3741 46.6497C35.0671 47.3476 36.008 47.7431 36.9914 47.75C37.6971 47.7317 38.3797 47.4951 38.9452 47.0727V59.212H35.2721C35.032 57.2602 34.4778 55.36 33.631 53.5852C32.6085 51.6278 31.3676 49.7926 29.9318 48.1146C28.3445 46.3333 27.0359 44.3221 26.0504 42.1492C25.3779 40.431 25.0333 38.602 25.0344 36.7568C24.9501 34.732 25.276 32.7111 25.9927 30.8155C26.7094 28.9199 27.802 27.1888 29.2049 25.7263C30.6078 24.2638 32.2919 23.1 34.156 22.3051C36.0201 21.5101 38.0257 21.1003 40.0523 21.1003C42.0789 21.1003 44.0845 21.5101 45.9486 22.3051C47.8127 23.1 49.4969 24.2638 50.8997 25.7263C52.3026 27.1888 53.3952 28.9199 54.1119 30.8155C54.8286 32.7111 55.1546 34.732 55.0702 36.7568C55.0845 38.637 54.7397 40.5025 54.0543 42.2534V42.1492Z" fill="#498AC9"/>
<path d="M40.117 70.8044C39.1892 70.8092 38.2705 70.6219 37.4187 70.2542C36.5668 69.8866 35.8003 69.3466 35.1674 68.6682C34.529 67.9725 34.0334 67.1582 33.7086 66.2716H33.0834C32.6803 66.2716 32.2933 66.1133 32.0058 65.8307C31.7183 65.5481 31.5533 65.1638 31.5465 64.7607V60.0716C31.5509 59.6942 31.6941 59.3316 31.9487 59.0529C32.2034 58.7743 32.5516 58.5991 32.9271 58.5608C32.6677 57.2181 32.2388 55.9139 31.6507 54.6793C30.6836 52.8734 29.5218 51.1787 28.186 49.6256C26.474 47.6642 25.0608 45.4609 23.9919 43.087C22.9679 40.4651 22.5992 37.6329 22.9178 34.8362C23.2364 32.0395 24.2328 29.3628 25.8203 27.0385C27.4078 24.7141 29.5386 22.8123 32.0278 21.498C34.5169 20.1838 37.2892 19.4968 40.104 19.4968C42.9187 19.4968 45.691 20.1838 48.1801 21.498C50.6692 22.8123 52.8001 24.7141 54.3876 27.0385C55.9751 29.3628 56.9715 32.0395 57.2901 34.8362C57.6087 37.6329 57.24 40.4651 56.216 43.087C55.1505 45.4627 53.737 47.6665 52.0219 49.6256C50.6828 51.1705 49.5288 52.8666 48.5833 54.6793C47.9837 55.9093 47.5543 57.215 47.3068 58.5608C47.6823 58.5991 48.0306 58.7743 48.2852 59.0529C48.5398 59.3316 48.683 59.6942 48.6875 60.0716V64.7607C48.6875 64.9613 48.6476 65.1599 48.57 65.3449C48.4925 65.53 48.3788 65.6978 48.2358 65.8384C48.0927 65.979 47.923 66.0898 47.7367 66.1642C47.5504 66.2386 47.3511 66.275 47.1505 66.2716H46.4993C46.1842 67.1629 45.6874 67.979 45.0404 68.6682C44.4105 69.3434 43.6483 69.8815 42.8012 70.2491C41.9541 70.6166 41.0404 70.8056 40.117 70.8044ZM37.1212 66.2716L37.3817 66.5842C37.7357 66.9853 38.1677 67.31 38.6515 67.5385C39.1352 67.7669 39.6605 67.8943 40.1951 67.9128C41.2042 67.8292 42.1399 67.3519 42.8001 66.5842C42.9007 66.4922 42.9883 66.3871 43.0606 66.2716H37.1212ZM33.0834 60.0977V64.7607H33.2658V64.1095C33.2127 63.4419 33.2127 62.7711 33.2658 62.1035C33.2919 61.6958 33.2919 61.287 33.2658 60.8793L33.0834 60.0977ZM46.9421 64.7086H47.1505V60.0716V60.8532C47.1505 61.27 47.1505 61.6868 47.1505 62.0775C47.2167 62.7445 47.2167 63.4164 47.1505 64.0834L46.9421 64.7086ZM34.6985 63.2238H45.5094C45.5355 62.8682 45.5355 62.5112 45.5094 62.1557C45.4964 61.9736 45.4964 61.7908 45.5094 61.6087H34.6725C34.6855 61.7908 34.6855 61.9736 34.6725 62.1557L34.6985 63.2238ZM41.6279 58.5608H44.2329C44.5185 56.7556 45.0624 55.0009 45.848 53.3507C46.9018 51.331 48.1775 49.435 49.6513 47.6978C51.189 45.9821 52.4542 44.0405 53.4025 41.9408C54.0661 40.2844 54.4023 38.5151 54.3925 36.7307C54.3925 32.9515 52.8912 29.3272 50.2189 26.6549C47.5466 23.9826 43.9222 22.4813 40.143 22.4813C36.3638 22.4813 32.7394 23.9826 30.0672 26.6549C27.3949 29.3272 25.8936 32.9515 25.8936 36.7307C25.8748 38.5134 26.2022 40.2828 26.8575 41.9408C27.8119 44.0372 29.0764 45.9779 30.6087 47.6978C32.0884 49.4305 33.3645 51.3272 34.412 53.3507C35.2085 54.9966 35.753 56.7529 36.0271 58.5608H38.6321V48.5314C38.2717 48.6669 37.8951 48.7545 37.512 48.792C36.9114 48.8093 36.3135 48.7064 35.7533 48.4894C35.1932 48.2723 34.682 47.9455 34.25 47.528C33.818 47.1105 33.4738 46.611 33.2377 46.0586C33.0016 45.5061 32.8783 44.9121 32.875 44.3113C32.8612 44.0684 32.8612 43.8249 32.875 43.5819C32.3278 43.3193 31.8392 42.9488 31.4387 42.4927C31.0381 42.0366 30.7339 41.5044 30.5441 40.9278C30.3543 40.3512 30.283 39.7422 30.3344 39.1374C30.3858 38.5326 30.5588 37.9444 30.8431 37.4081C30.2106 36.6058 29.8624 35.6162 29.8532 34.5946C29.8538 33.6885 30.1276 32.8036 30.6388 32.0554C31.15 31.3072 31.8748 30.7305 32.7187 30.4006C32.6928 30.1407 32.6928 29.8789 32.7187 29.6191C32.7736 28.517 33.2308 27.4733 34.0039 26.6859C34.7769 25.8985 35.8119 25.422 36.9128 25.3468C38.0663 25.315 39.1902 25.7144 40.0649 26.467C40.7014 25.9027 41.4854 25.5313 42.3252 25.3962C43.165 25.261 44.0259 25.3677 44.8073 25.7038C45.5887 26.0398 46.2583 26.5914 46.7378 27.2939C47.2173 27.9965 47.487 28.821 47.5152 29.6712C47.5411 29.931 47.5411 30.1928 47.5152 30.4526C48.4058 31.3086 49.1116 32.3381 49.5889 33.4775C50.0661 34.6168 50.3048 35.842 50.2902 37.0772C50.2755 38.3124 50.0079 39.5315 49.5037 40.6592C48.9996 41.787 48.2696 42.7994 47.3589 43.634C47.3728 43.8769 47.3728 44.1205 47.3589 44.3634C47.3453 45.5382 46.8708 46.6607 46.0376 47.489C45.2044 48.3173 44.0792 48.7852 42.9043 48.792C42.4533 48.7926 42.0049 48.7223 41.5758 48.5836L41.6279 58.5608ZM40.143 45.7962L40.8985 46.3432C40.4824 45.9053 40.2098 45.3511 40.117 44.7542C40.0345 45.3413 39.7703 45.8878 39.3615 46.3172L40.0909 45.7441L40.143 45.7962ZM35.8968 43.7903C35.8825 43.9376 35.8825 44.0859 35.8968 44.2332C35.8968 44.6156 36.0469 44.9828 36.3149 45.2556C36.5828 45.5285 36.9472 45.6852 37.3296 45.692C37.6822 45.6787 38.0164 45.531 38.2634 45.2791C38.5105 45.0271 38.6518 44.6902 38.6582 44.3374V41.7324C38.3494 42.245 37.9415 42.691 37.4585 43.0444C36.9754 43.3977 36.4269 43.6513 35.8448 43.7903H35.8968ZM41.6279 41.8365V44.4415C41.6276 44.7851 41.7604 45.1154 41.9984 45.3631C42.2364 45.6108 42.5611 45.7567 42.9043 45.7701C43.0968 45.7771 43.2887 45.7453 43.4686 45.6764C43.6485 45.6075 43.8127 45.5031 43.9513 45.3694C44.0899 45.2356 44.2001 45.0753 44.2754 44.8979C44.3506 44.7206 44.3893 44.53 44.3892 44.3374C44.4035 44.1901 44.4035 44.0418 44.3892 43.8945C43.217 43.6057 42.2061 42.8662 41.5758 41.8365H41.6279ZM34.5683 42.4357H34.7767V42.2794L34.5683 42.4357ZM45.4833 42.4357H45.6656H45.4833ZM42.722 39.0752C43.0212 39.0677 43.3153 39.1542 43.563 39.3224C43.8106 39.4906 43.9993 39.7321 44.1026 40.0131C44.1947 40.273 44.3587 40.5015 44.5754 40.6721C44.7921 40.8427 45.0527 40.9484 45.327 40.9769C45.707 40.9769 46.0714 40.8259 46.3401 40.5572C46.6088 40.2885 46.7598 39.9242 46.7598 39.5442C46.7871 39.3716 46.7871 39.1957 46.7598 39.0231C45.8796 39.1796 44.9729 39.0708 44.1548 38.7106C43.7924 38.5404 43.5107 38.2356 43.3697 37.861C43.2286 37.4864 43.2392 37.0715 43.3993 36.7046C43.5654 36.34 43.8632 36.0516 44.2329 35.8971C44.4184 35.819 44.6177 35.7788 44.819 35.7788C45.0203 35.7788 45.2196 35.819 45.4051 35.8971C45.6263 35.9849 45.8654 36.0183 46.1022 35.9944C46.3389 35.9705 46.5665 35.8901 46.7657 35.7599C46.9649 35.6297 47.1298 35.4534 47.2467 35.2461C47.3635 35.0388 47.4288 34.8064 47.4371 34.5686C47.4392 34.2142 47.3099 33.8716 47.0741 33.607C46.8384 33.3424 46.5129 33.1744 46.1606 33.1358C45.3326 33.8629 44.2668 34.2614 43.1648 34.256C42.8441 34.253 42.5322 34.1513 42.2712 33.9649C42.0102 33.7785 41.8129 33.5163 41.706 33.2139V39.5702C41.8538 39.434 42.0205 39.3199 42.201 39.2315C42.364 39.1489 42.5404 39.0959 42.722 39.0752ZM33.4481 38.9189C33.4091 39.0904 33.4091 39.2685 33.4481 39.44C33.4481 39.82 33.5991 40.1844 33.8678 40.4531C34.1365 40.7218 34.5009 40.8727 34.8809 40.8727C35.166 40.8775 35.4462 40.7986 35.687 40.6458C35.9277 40.493 36.1184 40.2731 36.2355 40.0131C36.3099 39.8277 36.4203 39.6588 36.5604 39.5164C36.7004 39.3739 36.8673 39.2606 37.0515 39.1831C37.2356 39.1056 37.4332 39.0654 37.633 39.0647C37.8328 39.0641 38.0307 39.1031 38.2153 39.1794C38.3994 39.2615 38.5671 39.3762 38.7103 39.5181V33.1619C38.6034 33.4642 38.4061 33.7264 38.1451 33.9128C37.8841 34.0992 37.5721 34.2008 37.2515 34.2039C36.1149 34.2662 34.9973 33.8937 34.1254 33.1619C33.7684 33.1945 33.4366 33.3597 33.1955 33.6249C32.9544 33.8902 32.8214 34.2361 32.8229 34.5946C32.8513 34.8255 32.9337 35.0466 33.0632 35.2399C33.1928 35.4332 33.3659 35.5933 33.5687 35.7074C33.7715 35.8215 33.9983 35.8863 34.2307 35.8966C34.4632 35.907 34.6948 35.8625 34.9069 35.7669C35.0925 35.6888 35.2918 35.6486 35.4931 35.6486C35.6944 35.6486 35.8936 35.6888 36.0792 35.7669C36.4489 35.9213 36.7467 36.2098 36.9128 36.5744C37.0729 36.9413 37.0835 37.3562 36.9424 37.7308C36.8013 38.1054 36.5197 38.4101 36.1574 38.5803C35.2972 38.9868 34.3289 39.1056 33.396 38.9189H33.4481ZM43.1909 28.3166C42.8155 28.3161 42.4533 28.4554 42.1749 28.7073C41.9023 28.9871 41.7443 29.3588 41.7321 29.7493V32.3543C41.839 32.052 42.0363 31.7898 42.2972 31.6034C42.5582 31.417 42.8702 31.3154 43.1909 31.3123C43.3858 31.3147 43.579 31.2765 43.7584 31.2003C43.9378 31.1241 44.0994 31.0114 44.2329 30.8694C44.4329 30.6706 44.5698 30.4172 44.6264 30.1409C44.683 29.8646 44.6568 29.5778 44.5511 29.3164C44.4454 29.0549 44.2649 28.8305 44.0322 28.6711C43.7995 28.5118 43.525 28.4247 43.243 28.4207L43.1909 28.3166ZM37.2515 28.3166C36.8894 28.3295 36.5457 28.4791 36.2895 28.7353C36.0334 28.9915 35.8837 29.3352 35.8708 29.6972C35.8528 29.8931 35.8785 30.0905 35.9461 30.2752C36.0137 30.4599 36.1214 30.6272 36.2615 30.7652C36.397 30.9047 36.5589 31.0158 36.7378 31.0919C36.9168 31.1679 37.1091 31.2075 37.3036 31.2081C37.6242 31.2111 37.9362 31.3127 38.1972 31.4992C38.4582 31.6856 38.6555 31.9477 38.7624 32.2501V29.6451C38.7624 29.4547 38.7245 29.2663 38.6509 29.0907C38.5772 28.9152 38.4694 28.756 38.3336 28.6226C38.1977 28.4893 38.0367 28.3842 37.8598 28.3138C37.683 28.2433 37.4939 28.2089 37.3036 28.2124L37.2515 28.3166ZM34.4641 31.5728H34.8809C34.7913 31.4683 34.7128 31.3548 34.6464 31.2342V31.4946L34.4641 31.5728ZM45.7959 31.2342C45.7364 31.3612 45.6667 31.4831 45.5875 31.5988H45.9783H45.7178L45.7959 31.2342ZM39.9867 28.4989C40.1041 28.7642 40.1831 29.0449 40.2212 29.3325C40.2682 29.0437 40.3559 28.7631 40.4817 28.4989L40.2212 28.8375L39.9867 28.4989Z" fill="#498AC9"/>
<path d="M40.1168 17.2191C40.3171 17.2191 40.5093 17.1396 40.651 16.9979C40.7927 16.8562 40.8722 16.664 40.8722 16.4637V12.7385C40.8722 12.5381 40.7927 12.346 40.651 12.2043C40.5093 12.0626 40.3171 11.983 40.1168 11.983C39.9164 11.983 39.7243 12.0626 39.5826 12.2043C39.4409 12.346 39.3613 12.5381 39.3613 12.7385V16.4637C39.3613 16.664 39.4409 16.8562 39.5826 16.9979C39.7243 17.1396 39.9164 17.2191 40.1168 17.2191Z" fill="#444446"/>
<path d="M40.1174 18.0007C39.7143 17.9938 39.33 17.8289 39.0474 17.5414C38.7647 17.2539 38.6064 16.8669 38.6064 16.4637V12.7386C38.6064 12.3378 38.7656 11.9535 39.049 11.6702C39.3323 11.3868 39.7166 11.2276 40.1174 11.2276C40.5181 11.2276 40.9024 11.3868 41.1857 11.6702C41.4691 11.9535 41.6283 12.3378 41.6283 12.7386V16.4637C41.6283 16.8669 41.47 17.2539 41.1874 17.5414C40.9047 17.8289 40.5205 17.9938 40.1174 18.0007Z" fill="#444446"/>
<path d="M29.4108 19.5375C29.4784 19.6495 29.574 19.7421 29.6882 19.806C29.8024 19.8699 29.9312 19.9031 30.062 19.9023C30.1806 19.9402 30.3081 19.9402 30.4267 19.9023C30.5977 19.8039 30.7233 19.6425 30.7769 19.4526C30.8304 19.2628 30.8076 19.0595 30.7133 18.8863L28.8377 15.6561C28.7997 15.5539 28.74 15.461 28.6628 15.384C28.5855 15.3071 28.4925 15.2477 28.3902 15.2101C28.2878 15.1725 28.1785 15.1574 28.0698 15.1661C27.9611 15.1747 27.8555 15.2067 27.7604 15.26C27.6652 15.3133 27.5827 15.3866 27.5186 15.4748C27.4544 15.5629 27.4101 15.6639 27.3887 15.7709C27.3673 15.8778 27.3693 15.9882 27.3946 16.0943C27.4199 16.2004 27.4678 16.2997 27.5351 16.3855L29.4108 19.5375Z" fill="#444446"/>
<path d="M30.0621 20.6838C29.7926 20.677 29.5292 20.6017 29.2968 20.465C29.0643 20.3282 28.8705 20.1346 28.7336 19.9023L26.858 16.6722C26.6637 16.3233 26.6079 15.9141 26.7017 15.5259C26.8191 15.1332 27.0793 14.7986 27.4311 14.5881C27.7839 14.3901 28.2007 14.3391 28.5908 14.4464C28.981 14.5537 29.3131 14.8106 29.5151 15.1612L31.3646 18.3914C31.5649 18.7411 31.6198 19.1555 31.5174 19.5453C31.4151 19.9351 31.1638 20.2692 30.8176 20.4755C30.5875 20.608 30.3276 20.6796 30.0621 20.6838Z" fill="#444446"/>
<path d="M23.1068 25.8417L19.8505 23.9661C19.6804 23.8695 19.4795 23.8427 19.29 23.8913C19.1005 23.9399 18.9372 24.0601 18.8346 24.2266C18.7838 24.3135 18.7509 24.4097 18.7378 24.5095C18.7248 24.6094 18.7318 24.7108 18.7585 24.8079C18.7852 24.905 18.831 24.9957 18.8933 25.0749C18.9556 25.154 19.033 25.2199 19.1211 25.2686L22.3513 27.1181C22.4708 27.1502 22.5966 27.1502 22.716 27.1181C22.8469 27.119 22.9757 27.0858 23.0899 27.0219C23.204 26.9579 23.2996 26.8655 23.3673 26.7535C23.4345 26.5946 23.4453 26.4175 23.3979 26.2516C23.3505 26.0857 23.2478 25.9411 23.1068 25.8417Z" fill="#444446"/>
<path d="M22.7159 27.9518C22.4505 27.9477 22.1905 27.876 21.9604 27.7435L18.7302 25.8679C18.5543 25.7755 18.4003 25.6462 18.279 25.4888C18.1576 25.3315 18.0716 25.1497 18.0269 24.9561C17.8843 24.5873 17.8843 24.1786 18.0269 23.8099C18.127 23.6322 18.2614 23.4761 18.4225 23.3509C18.5835 23.2256 18.7678 23.1337 18.9647 23.0805C19.1563 23.027 19.3568 23.0133 19.5539 23.0402C19.7511 23.0671 19.9406 23.1339 20.1109 23.2368L23.3672 25.1124C23.6681 25.2746 23.9051 25.5342 24.0395 25.8485C24.1738 26.1629 24.1976 26.5136 24.1069 26.8432C24.0161 27.1729 23.8163 27.462 23.54 27.6633C23.2637 27.8647 22.9272 27.9664 22.5856 27.9518H22.7159ZM22.7159 26.4149L23.0806 25.7897L22.7159 26.4149Z" fill="#444446"/>
<path d="M20.7878 36.4963C20.7878 36.2959 20.7083 36.1038 20.5666 35.9621C20.4249 35.8204 20.2327 35.7408 20.0324 35.7408H16.3072C16.1069 35.7408 15.9147 35.8204 15.773 35.9621C15.6313 36.1038 15.5518 36.2959 15.5518 36.4963C15.5518 36.6966 15.6313 36.8887 15.773 37.0304C15.9147 37.1721 16.1069 37.2517 16.3072 37.2517H20.0324C20.2327 37.2517 20.4249 37.1721 20.5666 37.0304C20.7083 36.8887 20.7878 36.6966 20.7878 36.4963Z" fill="#444446"/>
<path d="M20.0326 38.0071H16.3075C15.9043 38.0072 15.5173 37.8488 15.2298 37.5662C14.9423 37.2836 14.7773 36.8993 14.7705 36.4962C14.7772 36.0907 14.9413 35.7037 15.2281 35.4169C15.5149 35.1301 15.9019 34.966 16.3075 34.9593H20.0326C20.4403 34.9593 20.8312 35.1212 21.1194 35.4094C21.4077 35.6976 21.5696 36.0886 21.5696 36.4962C21.5696 36.6969 21.5297 36.8955 21.4522 37.0806C21.3746 37.2656 21.261 37.4333 21.1179 37.5739C20.9748 37.7146 20.8052 37.8253 20.6189 37.8997C20.4325 37.9741 20.2332 38.0106 20.0326 38.0071Z" fill="#444446"/>
<path d="M22.3512 45.8482L19.121 47.7238C18.9793 47.807 18.8686 47.9342 18.8057 48.086C18.7427 48.2377 18.731 48.4059 18.7722 48.5649C18.8135 48.724 18.9054 48.8652 19.0342 48.9673C19.1629 49.0693 19.3214 49.1267 19.4857 49.1306C19.6059 49.1566 19.7302 49.1566 19.8504 49.1306L23.1067 47.2549C23.2732 47.1523 23.3934 46.989 23.442 46.7995C23.4905 46.61 23.4637 46.4091 23.3672 46.239C23.3277 46.1453 23.2697 46.0607 23.1967 45.99C23.1237 45.9193 23.0372 45.864 22.9423 45.8275C22.8475 45.7911 22.7462 45.7741 22.6446 45.7776C22.5431 45.7812 22.4433 45.8052 22.3512 45.8482Z" fill="#444446"/>
<path d="M19.4858 49.886C19.2541 49.8859 19.0256 49.8325 18.8178 49.7299C18.6101 49.6274 18.4287 49.4785 18.2877 49.2947C18.1467 49.1109 18.0498 48.8971 18.0046 48.6699C17.9594 48.4427 17.9671 48.2081 18.027 47.9843C18.0758 47.789 18.1632 47.6055 18.284 47.4444C18.4048 47.2834 18.5566 47.148 18.7304 47.0465L21.9606 45.1969C22.136 45.0948 22.3299 45.0283 22.5311 45.0015C22.7323 44.9747 22.9368 44.988 23.1328 45.0406C23.3246 45.0899 23.5043 45.1776 23.661 45.2985C23.8178 45.4194 23.9483 45.571 24.0446 45.744C24.2448 46.0937 24.2997 46.5081 24.1974 46.8979C24.095 47.2877 23.8437 47.6217 23.4975 47.828L20.2413 49.7036C20.0101 49.8304 19.7494 49.8934 19.4858 49.886Z" fill="#444446"/>
<path d="M28.7591 54.7053C28.6738 54.6534 28.5789 54.6191 28.4802 54.6041C28.3814 54.5891 28.2807 54.5939 28.1838 54.6182C28.0869 54.6424 27.9957 54.6856 27.9156 54.7453C27.8355 54.805 27.7681 54.8799 27.7171 54.9658L25.8676 58.196C25.8157 58.2814 25.7813 58.3762 25.7663 58.475C25.7514 58.5737 25.7561 58.6745 25.7804 58.7714C25.8046 58.8683 25.8478 58.9595 25.9075 59.0396C25.9672 59.1197 26.0421 59.1872 26.1281 59.2381H26.4928C26.6236 59.2389 26.7524 59.2057 26.8666 59.1417C26.9807 59.0778 27.0763 58.9853 27.144 58.8733L29.0196 55.6431C29.0937 55.4812 29.1082 55.2983 29.0605 55.1267C29.0129 54.9551 28.9061 54.8058 28.7591 54.7053Z" fill="#444446"/>
<path d="M26.4931 60.0977C26.226 60.1057 25.9628 60.0332 25.7376 59.8893C25.5645 59.7921 25.4126 59.6612 25.291 59.5043C25.1693 59.3474 25.0803 59.1677 25.0293 58.9759C24.9783 58.784 24.9663 58.5838 24.994 58.3873C25.0217 58.1907 25.0885 58.0016 25.1906 57.8313L27.0662 54.5751C27.1634 54.4019 27.2942 54.25 27.4511 54.1283C27.608 54.0067 27.7877 53.9177 27.9796 53.8667C28.1715 53.8157 28.3716 53.8037 28.5682 53.8314C28.7648 53.8591 28.9538 53.926 29.1241 54.028C29.4748 54.23 29.7316 54.5621 29.8389 54.9523C29.9462 55.3424 29.8953 55.7591 29.6973 56.112L27.8216 59.3422C27.6873 59.5749 27.4934 59.7676 27.2599 59.9004C27.0264 60.0331 26.7617 60.1012 26.4931 60.0977Z" fill="#444446"/>
<path d="M52.074 55.2783C51.9713 55.1118 51.8081 54.9917 51.6186 54.9431C51.4291 54.8945 51.2282 54.9213 51.0581 55.0179C50.9708 55.0641 50.8939 55.1274 50.8319 55.2042C50.7699 55.2809 50.7241 55.3696 50.6973 55.4645C50.6705 55.5595 50.6633 55.6589 50.676 55.7568C50.6888 55.8546 50.7213 55.9489 50.7715 56.0338L52.6471 59.264C52.7115 59.3809 52.8057 59.4786 52.9201 59.5472C53.0345 59.6158 53.165 59.653 53.2984 59.6548C53.4185 59.6809 53.5429 59.6809 53.6631 59.6548C53.7481 59.6064 53.8226 59.5413 53.8819 59.4636C53.9413 59.3858 53.9845 59.2969 54.0088 59.2021C54.0331 59.1073 54.0381 59.0085 54.0234 58.9118C54.0088 58.815 53.9748 58.7222 53.9236 58.6388L52.074 55.2783Z" fill="#444446"/>
<path d="M53.2983 60.4102C53.0297 60.4138 52.765 60.3457 52.5314 60.2129C52.2979 60.0801 52.104 59.8875 51.9697 59.6548L50.0941 56.4246C49.8961 56.0717 49.8452 55.655 49.9525 55.2648C50.0598 54.8747 50.3166 54.5426 50.6672 54.3406C50.8375 54.2378 51.0271 54.1709 51.2242 54.144C51.4213 54.1171 51.6218 54.1308 51.8134 54.1843C52.2042 54.2907 52.5397 54.5422 52.7512 54.8876L54.6008 58.1439C54.7419 58.3717 54.8188 58.6335 54.8232 58.9014C54.8277 59.1694 54.7595 59.4335 54.626 59.6658C54.4924 59.8982 54.2985 60.0901 54.0648 60.2211C53.831 60.3522 53.5662 60.4175 53.2983 60.4102Z" fill="#444446"/>
<path d="M60.9569 47.7239L57.7267 45.8483C57.5535 45.7539 57.3502 45.7311 57.1604 45.7847C56.9706 45.8382 56.8092 45.9639 56.7108 46.1348C56.6142 46.305 56.5874 46.5059 56.636 46.6954C56.6846 46.8849 56.8048 47.0481 56.9713 47.1508L60.2275 49.0264C60.3477 49.0525 60.4721 49.0525 60.5922 49.0264C60.7268 49.0304 60.8597 48.9957 60.9751 48.9265C61.0906 48.8572 61.1837 48.7563 61.2435 48.6356C61.3081 48.4739 61.3149 48.2948 61.2627 48.1287C61.2105 47.9625 61.1025 47.8195 60.9569 47.7239Z" fill="#444446"/>
<path d="M60.6447 49.8861C60.3777 49.8942 60.1144 49.8215 59.8893 49.6777L56.6591 47.8281C56.4814 47.728 56.3253 47.5936 56.2001 47.4325C56.0749 47.2715 55.9829 47.0872 55.9297 46.8903C55.8762 46.6987 55.8625 46.4982 55.8894 46.301C55.9162 46.1039 55.9831 45.9144 56.086 45.7441C56.1876 45.5703 56.3228 45.4186 56.4839 45.2978C56.6449 45.177 56.8285 45.0896 57.0238 45.0407C57.2154 44.9873 57.4159 44.9736 57.613 45.0004C57.8102 45.0273 57.9997 45.0942 58.17 45.197L61.4002 47.0466C61.7519 47.2571 62.0121 47.5917 62.1296 47.9844C62.1831 48.176 62.1968 48.3766 62.1699 48.5737C62.1431 48.7708 62.0761 48.9603 61.9733 49.1306C61.8351 49.3598 61.6403 49.5495 61.4077 49.6818C61.175 49.8141 60.9123 49.8845 60.6447 49.8861Z" fill="#444446"/>
<path d="M63.8224 35.7668H60.0973C59.8969 35.7668 59.7047 35.8464 59.5631 35.9881C59.4214 36.1298 59.3418 36.322 59.3418 36.5223C59.3418 36.7227 59.4214 36.9148 59.5631 37.0565C59.7047 37.1981 59.8969 37.2777 60.0973 37.2777H63.8224C64.0228 37.2777 64.2149 37.1981 64.3566 37.0565C64.4983 36.9148 64.5779 36.7227 64.5779 36.5223C64.5779 36.322 64.4983 36.1298 64.3566 35.9881C64.2149 35.8464 64.0228 35.7668 63.8224 35.7668Z" fill="#444446"/>
<path d="M63.8227 38.0071H60.0975C59.6943 38.0072 59.3073 37.8488 59.0198 37.5662C58.7323 37.2836 58.5674 36.8993 58.5605 36.4962C58.5673 36.0907 58.7313 35.7037 59.0181 35.4169C59.3049 35.1301 59.692 34.966 60.0975 34.9593H63.8227C64.2303 34.9593 64.6212 35.1212 64.9095 35.4094C65.1977 35.6976 65.3596 36.0886 65.3596 36.4962C65.3597 36.6969 65.3197 36.8955 65.2422 37.0806C65.1646 37.2656 65.051 37.4333 64.9079 37.5739C64.7649 37.7146 64.5952 37.8253 64.4089 37.8997C64.2225 37.9741 64.0233 38.0106 63.8227 38.0071Z" fill="#444446"/>
<path d="M57.4141 27.2224C57.5327 27.2603 57.6602 27.2603 57.7788 27.2224L60.9569 25.3468C61.045 25.298 61.1225 25.2322 61.1848 25.153C61.247 25.0739 61.2929 24.9832 61.3196 24.8861C61.3463 24.789 61.3533 24.6876 61.3402 24.5877C61.3271 24.4879 61.2943 24.3917 61.2435 24.3048C61.1408 24.1383 60.9776 24.0181 60.7881 23.9695C60.5986 23.9209 60.3977 23.9477 60.2275 24.0443L56.9713 25.9199C56.8048 26.0226 56.6846 26.1858 56.636 26.3753C56.5874 26.5647 56.6142 26.7657 56.7108 26.9358C56.7923 27.0414 56.9003 27.1236 57.0238 27.1739C57.1474 27.2242 57.282 27.241 57.4141 27.2224Z" fill="#444446"/>
<path d="M57.4144 27.9518C57.1468 27.9502 56.8841 27.8799 56.6515 27.7476C56.4189 27.6153 56.2241 27.4255 56.0858 27.1964C55.9837 27.021 55.9173 26.8271 55.8904 26.6259C55.8636 26.4247 55.8769 26.2202 55.9295 26.0242C55.9832 25.8308 56.0755 25.6503 56.2009 25.4936C56.3262 25.3369 56.4821 25.2072 56.6589 25.1124L59.8892 23.2368C60.0595 23.1339 60.249 23.0671 60.4461 23.0402C60.6432 23.0133 60.8438 23.027 61.0354 23.0805C61.2323 23.1337 61.4166 23.2256 61.5776 23.3509C61.7386 23.4761 61.8731 23.6322 61.9732 23.8099C62.076 23.9802 62.1429 24.1697 62.1698 24.3669C62.1967 24.564 62.183 24.7645 62.1295 24.9561C62.0745 25.1489 61.9816 25.3287 61.8564 25.4852C61.7312 25.6418 61.5761 25.7719 61.4001 25.8679L58.1699 27.7435C57.9398 27.876 57.6798 27.9477 57.4144 27.9518Z" fill="#444446"/>
<path d="M49.7038 19.7981C49.8233 19.8302 49.9491 19.8302 50.0685 19.7981C50.1994 19.7989 50.3282 19.7658 50.4423 19.7018C50.5565 19.6379 50.6521 19.5454 50.7198 19.4334L52.5954 16.1772C52.6919 16.0071 52.7188 15.8061 52.6702 15.6166C52.6216 15.4271 52.5014 15.2638 52.3349 15.1612C52.2479 15.1104 52.1517 15.0775 52.0519 15.0644C51.9521 15.0514 51.8506 15.0584 51.7536 15.0851C51.6565 15.1118 51.5657 15.1577 51.4866 15.2199C51.4075 15.2822 51.3416 15.3597 51.2929 15.4478L49.4433 18.678C49.3736 18.7642 49.3245 18.8652 49.2997 18.9732C49.2749 19.0813 49.2751 19.1936 49.3002 19.3016C49.3253 19.4096 49.3747 19.5105 49.4447 19.5965C49.5146 19.6825 49.6032 19.7515 49.7038 19.7981Z" fill="#444446"/>
<path d="M50.0682 20.6838C49.8027 20.6796 49.5427 20.6079 49.3127 20.4754C48.9665 20.2691 48.7152 19.9351 48.6129 19.5453C48.5105 19.1555 48.5654 18.7411 48.7657 18.3914L50.6413 15.1612C50.7335 14.9824 50.8624 14.825 51.0195 14.6994C51.1766 14.5737 51.3584 14.4825 51.553 14.4318C51.9412 14.338 52.3504 14.3938 52.6992 14.5881C52.877 14.6882 53.033 14.8226 53.1582 14.9836C53.2834 15.1447 53.3754 15.329 53.4286 15.5259C53.4821 15.7175 53.4958 15.918 53.469 16.1151C53.4421 16.3123 53.3752 16.5018 53.2723 16.6721L51.3967 19.9023C51.2637 20.138 51.0708 20.3344 50.8375 20.4716C50.6042 20.6088 50.3388 20.682 50.0682 20.6838Z" fill="#444446"/>
</g>
<defs>
<clipPath id="clip0_232_3848">
<rect width="80" height="80" fill="white"/>
</clipPath>
</defs>
</svg>
