<svg width="80" height="45" viewBox="0 0 80 45" fill="none" xmlns="http://www.w3.org/2000/svg">
<path d="M42.8472 9.54047V31.6896C42.8618 32.0071 42.9694 32.314 43.1574 32.5742C43.3454 32.8345 43.606 33.0372 43.9085 33.1587L68.1863 44.473C69.6215 45.1403 71.4166 44.3207 71.4166 43.0038V20.7964C71.4008 20.4781 71.2923 20.1706 71.1036 19.9098C70.9149 19.6489 70.6538 19.4454 70.3506 19.3228L46.0774 8.07134C44.6377 7.40843 42.8472 8.22362 42.8472 9.54047Z" fill="url(#paint0_linear_232_4072)"/>
<g style="mix-blend-mode:multiply">
<path d="M46.6175 17.2132L61.9612 10.4945C62.2917 10.3516 62.6494 10.2778 63.0111 10.2778C63.3728 10.2778 63.7305 10.3516 64.0609 10.4945L78.9156 17.2132C80.3415 17.8582 80.3692 19.4796 78.9617 20.1514L63.8394 27.3628C63.4939 27.5243 63.1154 27.6082 62.7319 27.6082C62.3484 27.6082 61.9699 27.5243 61.6244 27.3628L46.5482 20.1962C45.1269 19.4885 45.1546 17.8492 46.6175 17.2132Z" fill="#498AC9"/>
</g>
<g style="mix-blend-mode:multiply">
<path d="M-0.000114809 14.8079V42.0677C-0.000114809 43.3756 1.78115 44.1952 3.23016 43.5458L33.7978 29.7278C34.105 29.6076 34.3704 29.4045 34.5626 29.1426C34.7548 28.8807 34.8657 28.5708 34.8822 28.2497V2.21266C34.8822 0.304567 33.0917 -0.416583 31.6519 0.237365L1.08434 12.9849C0.7438 13.1573 0.460942 13.4204 0.268882 13.7432C0.0768219 14.0661 -0.0164913 14.4354 -0.000114809 14.8079Z" fill="#42B5E8"/>
</g>
<g style="mix-blend-mode:multiply">
<path d="M6.63582 30.5922L21.5735 23.8288C21.9068 23.6815 22.2687 23.6053 22.6349 23.6053C23.0011 23.6053 23.363 23.6815 23.6963 23.8288L38.8278 30.6012C40.2676 31.2462 40.2906 32.881 38.8647 33.5484L23.8393 40.5941C23.4974 40.7511 23.1239 40.8326 22.7457 40.8326C22.3674 40.8326 21.9939 40.7511 21.652 40.5941L6.60813 33.5395C5.19143 32.89 5.20527 31.2417 6.63582 30.5922Z" fill="#42B5E8"/>
</g>
<defs>
<linearGradient id="paint0_linear_232_4072" x1="42.8379" y1="26.2699" x2="71.4166" y2="26.2699" gradientUnits="userSpaceOnUse">
<stop stop-color="#D1D3D4"/>
<stop offset="0.26" stop-color="#CBCDCF"/>
<stop offset="0.61" stop-color="#BABDC1"/>
<stop offset="1" stop-color="#9FA3AA"/>
</linearGradient>
</defs>
</svg>
