<svg width="32" height="33" viewBox="0 0 32 33" fill="none" xmlns="http://www.w3.org/2000/svg">
<path d="M5 14.8375V7.5C5 7.23478 5.10536 6.98043 5.29289 6.79289C5.48043 6.60536 5.73478 6.5 6 6.5H26C26.2652 6.5 26.5196 6.60536 26.7071 6.79289C26.8946 6.98043 27 7.23478 27 7.5V14.8375C27 25.3375 18.0875 28.8125 16.3125 29.4C16.1109 29.4747 15.8891 29.4747 15.6875 29.4C13.9125 28.8125 5 25.3375 5 14.8375Z" stroke="url(#paint0_linear_3086_25006)" stroke-width="1.5" stroke-linecap="round" stroke-linejoin="round"/>
<path d="M5.0752 16.5H26.9252" stroke="url(#paint1_linear_3086_25006)" stroke-width="1.5" stroke-linecap="round" stroke-linejoin="round"/>
<path d="M16 6.5V29.45" stroke="url(#paint2_linear_3086_25006)" stroke-width="1.5" stroke-linecap="round" stroke-linejoin="round"/>
<defs>
<linearGradient id="paint0_linear_3086_25006" x1="5" y1="18.2882" x2="27" y2="18.2882" gradientUnits="userSpaceOnUse">
<stop stop-color="#00469F"/>
<stop offset="1" stop-color="#1E79D6"/>
</linearGradient>
<linearGradient id="paint1_linear_3086_25006" x1="5.0752" y1="17.0135" x2="26.9252" y2="17.0135" gradientUnits="userSpaceOnUse">
<stop stop-color="#00469F"/>
<stop offset="1" stop-color="#1E79D6"/>
</linearGradient>
<linearGradient id="paint2_linear_3086_25006" x1="16" y1="18.2851" x2="17" y2="18.2851" gradientUnits="userSpaceOnUse">
<stop stop-color="#00469F"/>
<stop offset="1" stop-color="#1E79D6"/>
</linearGradient>
</defs>
</svg>
