<svg width="32" height="33" viewBox="0 0 32 33" fill="none" xmlns="http://www.w3.org/2000/svg">
<path d="M2 10.5H13" stroke="url(#paint0_linear_3086_24585)" stroke-width="1.5" stroke-linecap="round" stroke-linejoin="round"/>
<path d="M19 10.5H30" stroke="url(#paint1_linear_3086_24585)" stroke-width="1.5" stroke-linecap="round" stroke-linejoin="round"/>
<path d="M5 25.5C6.65685 25.5 8 24.1569 8 22.5C8 20.8431 6.65685 19.5 5 19.5C3.34315 19.5 2 20.8431 2 22.5C2 24.1569 3.34315 25.5 5 25.5Z" stroke="url(#paint2_linear_3086_24585)" stroke-width="1.5" stroke-linecap="round" stroke-linejoin="round"/>
<path d="M27 25.5C28.6569 25.5 30 24.1569 30 22.5C30 20.8431 28.6569 19.5 27 19.5C25.3431 19.5 24 20.8431 24 22.5C24 24.1569 25.3431 25.5 27 25.5Z" stroke="url(#paint3_linear_3086_24585)" stroke-width="1.5" stroke-linecap="round" stroke-linejoin="round"/>
<path d="M18.9746 10.9121C20.9543 11.4679 22.7389 12.5669 24.1263 14.0846C25.5136 15.6023 26.4483 17.4781 26.8246 19.4996" stroke="url(#paint4_linear_3086_24585)" stroke-width="1.5" stroke-linecap="round" stroke-linejoin="round"/>
<path d="M5.1748 19.4996C5.55107 17.4781 6.48579 15.6023 7.87315 14.0846C9.26051 12.5669 11.0451 11.4679 13.0248 10.9121" stroke="url(#paint5_linear_3086_24585)" stroke-width="1.5" stroke-linecap="round" stroke-linejoin="round"/>
<path d="M16 13.5C17.6569 13.5 19 12.1569 19 10.5C19 8.84315 17.6569 7.5 16 7.5C14.3431 7.5 13 8.84315 13 10.5C13 12.1569 14.3431 13.5 16 13.5Z" stroke="url(#paint6_linear_3086_24585)" stroke-width="1.5" stroke-linecap="round" stroke-linejoin="round"/>
<defs>
<linearGradient id="paint0_linear_3086_24585" x1="2" y1="11.0135" x2="13" y2="11.0135" gradientUnits="userSpaceOnUse">
<stop stop-color="#00469F"/>
<stop offset="1" stop-color="#1E79D6"/>
</linearGradient>
<linearGradient id="paint1_linear_3086_24585" x1="19" y1="11.0135" x2="30" y2="11.0135" gradientUnits="userSpaceOnUse">
<stop stop-color="#00469F"/>
<stop offset="1" stop-color="#1E79D6"/>
</linearGradient>
<linearGradient id="paint2_linear_3086_24585" x1="2" y1="22.5811" x2="8" y2="22.5811" gradientUnits="userSpaceOnUse">
<stop stop-color="#00469F"/>
<stop offset="1" stop-color="#1E79D6"/>
</linearGradient>
<linearGradient id="paint3_linear_3086_24585" x1="24" y1="22.5811" x2="30" y2="22.5811" gradientUnits="userSpaceOnUse">
<stop stop-color="#00469F"/>
<stop offset="1" stop-color="#1E79D6"/>
</linearGradient>
<linearGradient id="paint4_linear_3086_24585" x1="18.9746" y1="15.3219" x2="26.8246" y2="15.3219" gradientUnits="userSpaceOnUse">
<stop stop-color="#00469F"/>
<stop offset="1" stop-color="#1E79D6"/>
</linearGradient>
<linearGradient id="paint5_linear_3086_24585" x1="5.1748" y1="15.3219" x2="13.0248" y2="15.3219" gradientUnits="userSpaceOnUse">
<stop stop-color="#00469F"/>
<stop offset="1" stop-color="#1E79D6"/>
</linearGradient>
<linearGradient id="paint6_linear_3086_24585" x1="13" y1="10.5811" x2="19" y2="10.5811" gradientUnits="userSpaceOnUse">
<stop stop-color="#00469F"/>
<stop offset="1" stop-color="#1E79D6"/>
</linearGradient>
</defs>
</svg>
