<svg width="32" height="33" viewBox="0 0 32 33" fill="none" xmlns="http://www.w3.org/2000/svg">
<mask id="path-1-outside-1_3086_24568" maskUnits="userSpaceOnUse" x="0" y="3.5" width="32" height="25" fill="black">
<rect fill="white" y="3.5" width="32" height="25"/>
<path fill-rule="evenodd" clip-rule="evenodd" d="M9.52153 4.55461C8.90838 4.65543 8.35552 5.04711 8.08012 5.57596C7.86354 5.99186 7.82931 6.44289 7.84963 8.613L7.86888 10.6772L8.03796 11.0357C8.23417 11.452 8.64665 11.8603 9.05967 12.0472C9.33125 12.1702 9.39501 12.1729 12.3748 12.1889L15.4129 12.2053V15.4797H12.1732C8.54814 15.4797 8.50599 15.4837 7.98771 15.8731C7.8326 15.9897 7.02225 16.9049 6.1718 17.9241L4.63599 19.7646L3.55029 19.7933C2.46871 19.822 2.46319 19.8228 2.07489 20.0102C1.62841 20.2257 1.37057 20.4859 1.1527 20.941L1 21.26V23.6469C1 25.9779 1.00299 26.0401 1.12793 26.3051C1.31873 26.7097 1.73556 27.1138 2.16043 27.306L2.52642 27.4716L4.59542 27.4905C5.92387 27.5026 6.81554 27.4864 7.08665 27.4452C7.84329 27.3302 8.39937 26.9093 8.67419 26.2435C8.80599 25.9241 8.80822 25.8807 8.80822 23.6181V21.3175L8.63914 20.959C8.44176 20.5402 8.02693 20.131 7.61744 19.9511C7.42059 19.8646 7.16867 19.82 6.74632 19.797L6.15213 19.7646L7.37703 18.2979C8.10137 17.4307 8.67971 16.7902 8.79225 16.7307C8.96685 16.6383 9.24724 16.63 12.1977 16.63H15.4129V19.7832L14.4883 19.8027C13.6376 19.8206 13.5378 19.8341 13.2407 19.9713C12.8319 20.1602 12.4684 20.5168 12.2592 20.9342L12.0959 21.26V25.9762L12.2506 26.2995C12.5515 26.9281 13.0579 27.3163 13.7359 27.4379C14.1975 27.5207 17.8025 27.5207 18.2641 27.4379C18.9421 27.3163 19.4485 26.9281 19.7494 26.2995L19.9041 25.9762V21.26L19.741 20.9345C19.5264 20.5065 19.1781 20.1628 18.7684 19.9746C18.4612 19.8335 18.3672 19.8207 17.5117 19.8027L16.5871 19.7832V16.63L19.8014 16.6302C22.8685 16.6304 23.0241 16.6355 23.2007 16.741C23.3024 16.8017 23.9339 17.5069 24.6037 18.3081L25.8218 19.7646L25.2406 19.7973C24.8337 19.8202 24.5765 19.8664 24.3826 19.9514C23.9734 20.1307 23.5583 20.5401 23.3609 20.959L23.1918 21.3175L23.1725 23.3817C23.1596 24.7626 23.1756 25.5717 23.2208 25.826C23.3477 26.5399 23.7827 27.0778 24.4454 27.3403C24.7714 27.4695 24.8157 27.4716 27.1252 27.4716H29.4736L29.8396 27.306C30.2644 27.1138 30.6813 26.7097 30.8721 26.3051C30.997 26.0401 31 25.9779 31 23.6457V21.2576L30.808 20.8755C30.588 20.4378 30.3226 20.1853 29.8579 19.9717C29.5533 19.8318 29.4617 19.8203 28.4368 19.7933L27.3415 19.7646L25.7824 17.8953C24.7833 16.6975 24.1258 15.9592 23.9516 15.8398C23.4276 15.4806 23.4179 15.4797 19.8347 15.4797H16.5871V12.2053L19.6252 12.1889C22.605 12.1729 22.6687 12.1702 22.9403 12.0472C23.3533 11.8603 23.7658 11.452 23.962 11.0357L24.1311 10.6772V8.37656C24.1311 6.08066 24.1308 6.07525 23.99 5.73263C23.8007 5.27211 23.3636 4.84477 22.8964 4.66365C22.5577 4.53235 22.4815 4.52711 20.6086 4.5071C18.4022 4.48352 18.2688 4.50117 18.1027 4.83936C17.9816 5.08599 18.0186 5.30587 18.2133 5.49659L18.3587 5.639L20.3643 5.6562C22.582 5.67518 22.5942 5.67707 22.8263 6.0427C22.9552 6.24579 22.9569 6.27627 22.9569 8.38674C22.9569 10.4588 22.9532 10.53 22.8354 10.6873C22.7685 10.7767 22.6232 10.895 22.5125 10.9503C22.3245 11.0442 21.8926 11.0508 16 11.0508C10.1074 11.0508 9.67552 11.0442 9.48753 10.9503C9.37681 10.895 9.23151 10.7767 9.16464 10.6873C9.04681 10.53 9.04305 10.4588 9.04305 8.38674C9.04305 6.39343 9.05057 6.23635 9.15378 6.06939C9.39489 5.67914 9.41086 5.67644 11.6614 5.64458C13.8796 5.61317 13.8269 5.62192 13.9468 5.26578C14.0413 4.98557 13.8782 4.66469 13.593 4.56939C13.3548 4.48984 9.98996 4.47759 9.52153 4.55461ZM15.7646 4.59544C15.2061 4.86858 15.3802 5.64458 16 5.64458C16.2779 5.64458 16.5128 5.46824 16.5594 5.22449C16.6507 4.74774 16.1934 4.38574 15.7646 4.59544ZM7.18957 21.0444C7.30029 21.0997 7.4456 21.218 7.51247 21.3073C7.63029 21.4646 7.63405 21.5358 7.63405 23.6079C7.63405 25.6012 7.62654 25.7583 7.52333 25.9253C7.46245 26.0238 7.33035 26.1532 7.22978 26.2129C7.05935 26.314 6.89902 26.3213 4.86436 26.3213C2.74928 26.3213 2.67659 26.3177 2.51603 26.2022C2.14458 25.9352 2.14117 25.9099 2.15849 23.55L2.17417 21.4112L2.35029 21.229C2.44716 21.1287 2.57926 21.0252 2.64384 20.9988C2.70841 20.9725 3.71233 20.9493 4.87476 20.9474C6.7755 20.9442 7.00851 20.954 7.18957 21.0444ZM18.3543 21.0742C18.7538 21.3357 18.7591 21.3691 18.7592 23.6478C18.7593 25.9321 18.7534 25.9681 18.3417 26.2063C18.1527 26.3157 18.0374 26.3213 16 26.3213C12.9921 26.3213 13.2406 26.5622 13.2408 23.6478C13.2409 21.3691 13.2462 21.3357 13.6457 21.0742C13.844 20.9444 13.8574 20.9437 16 20.9437C18.1426 20.9437 18.156 20.9444 18.3543 21.0742ZM29.5332 21.1162C29.8558 21.4117 29.8552 21.4066 29.8551 23.6296C29.855 25.8962 29.8487 25.9401 29.484 26.2022C29.3234 26.3177 29.2507 26.3213 27.1356 26.3213C25.101 26.3213 24.9406 26.314 24.7702 26.2129C24.6696 26.1532 24.5376 26.0238 24.4767 25.9253C24.3735 25.7583 24.3659 25.6012 24.3659 23.6079C24.3659 21.5358 24.3697 21.4646 24.4875 21.3073C24.7601 20.9434 24.786 20.9401 27.194 20.9571L29.3762 20.9724L29.5332 21.1162Z"/>
</mask>
<path fill-rule="evenodd" clip-rule="evenodd" d="M9.52153 4.55461C8.90838 4.65543 8.35552 5.04711 8.08012 5.57596C7.86354 5.99186 7.82931 6.44289 7.84963 8.613L7.86888 10.6772L8.03796 11.0357C8.23417 11.452 8.64665 11.8603 9.05967 12.0472C9.33125 12.1702 9.39501 12.1729 12.3748 12.1889L15.4129 12.2053V15.4797H12.1732C8.54814 15.4797 8.50599 15.4837 7.98771 15.8731C7.8326 15.9897 7.02225 16.9049 6.1718 17.9241L4.63599 19.7646L3.55029 19.7933C2.46871 19.822 2.46319 19.8228 2.07489 20.0102C1.62841 20.2257 1.37057 20.4859 1.1527 20.941L1 21.26V23.6469C1 25.9779 1.00299 26.0401 1.12793 26.3051C1.31873 26.7097 1.73556 27.1138 2.16043 27.306L2.52642 27.4716L4.59542 27.4905C5.92387 27.5026 6.81554 27.4864 7.08665 27.4452C7.84329 27.3302 8.39937 26.9093 8.67419 26.2435C8.80599 25.9241 8.80822 25.8807 8.80822 23.6181V21.3175L8.63914 20.959C8.44176 20.5402 8.02693 20.131 7.61744 19.9511C7.42059 19.8646 7.16867 19.82 6.74632 19.797L6.15213 19.7646L7.37703 18.2979C8.10137 17.4307 8.67971 16.7902 8.79225 16.7307C8.96685 16.6383 9.24724 16.63 12.1977 16.63H15.4129V19.7832L14.4883 19.8027C13.6376 19.8206 13.5378 19.8341 13.2407 19.9713C12.8319 20.1602 12.4684 20.5168 12.2592 20.9342L12.0959 21.26V25.9762L12.2506 26.2995C12.5515 26.9281 13.0579 27.3163 13.7359 27.4379C14.1975 27.5207 17.8025 27.5207 18.2641 27.4379C18.9421 27.3163 19.4485 26.9281 19.7494 26.2995L19.9041 25.9762V21.26L19.741 20.9345C19.5264 20.5065 19.1781 20.1628 18.7684 19.9746C18.4612 19.8335 18.3672 19.8207 17.5117 19.8027L16.5871 19.7832V16.63L19.8014 16.6302C22.8685 16.6304 23.0241 16.6355 23.2007 16.741C23.3024 16.8017 23.9339 17.5069 24.6037 18.3081L25.8218 19.7646L25.2406 19.7973C24.8337 19.8202 24.5765 19.8664 24.3826 19.9514C23.9734 20.1307 23.5583 20.5401 23.3609 20.959L23.1918 21.3175L23.1725 23.3817C23.1596 24.7626 23.1756 25.5717 23.2208 25.826C23.3477 26.5399 23.7827 27.0778 24.4454 27.3403C24.7714 27.4695 24.8157 27.4716 27.1252 27.4716H29.4736L29.8396 27.306C30.2644 27.1138 30.6813 26.7097 30.8721 26.3051C30.997 26.0401 31 25.9779 31 23.6457V21.2576L30.808 20.8755C30.588 20.4378 30.3226 20.1853 29.8579 19.9717C29.5533 19.8318 29.4617 19.8203 28.4368 19.7933L27.3415 19.7646L25.7824 17.8953C24.7833 16.6975 24.1258 15.9592 23.9516 15.8398C23.4276 15.4806 23.4179 15.4797 19.8347 15.4797H16.5871V12.2053L19.6252 12.1889C22.605 12.1729 22.6687 12.1702 22.9403 12.0472C23.3533 11.8603 23.7658 11.452 23.962 11.0357L24.1311 10.6772V8.37656C24.1311 6.08066 24.1308 6.07525 23.99 5.73263C23.8007 5.27211 23.3636 4.84477 22.8964 4.66365C22.5577 4.53235 22.4815 4.52711 20.6086 4.5071C18.4022 4.48352 18.2688 4.50117 18.1027 4.83936C17.9816 5.08599 18.0186 5.30587 18.2133 5.49659L18.3587 5.639L20.3643 5.6562C22.582 5.67518 22.5942 5.67707 22.8263 6.0427C22.9552 6.24579 22.9569 6.27627 22.9569 8.38674C22.9569 10.4588 22.9532 10.53 22.8354 10.6873C22.7685 10.7767 22.6232 10.895 22.5125 10.9503C22.3245 11.0442 21.8926 11.0508 16 11.0508C10.1074 11.0508 9.67552 11.0442 9.48753 10.9503C9.37681 10.895 9.23151 10.7767 9.16464 10.6873C9.04681 10.53 9.04305 10.4588 9.04305 8.38674C9.04305 6.39343 9.05057 6.23635 9.15378 6.06939C9.39489 5.67914 9.41086 5.67644 11.6614 5.64458C13.8796 5.61317 13.8269 5.62192 13.9468 5.26578C14.0413 4.98557 13.8782 4.66469 13.593 4.56939C13.3548 4.48984 9.98996 4.47759 9.52153 4.55461ZM15.7646 4.59544C15.2061 4.86858 15.3802 5.64458 16 5.64458C16.2779 5.64458 16.5128 5.46824 16.5594 5.22449C16.6507 4.74774 16.1934 4.38574 15.7646 4.59544ZM7.18957 21.0444C7.30029 21.0997 7.4456 21.218 7.51247 21.3073C7.63029 21.4646 7.63405 21.5358 7.63405 23.6079C7.63405 25.6012 7.62654 25.7583 7.52333 25.9253C7.46245 26.0238 7.33035 26.1532 7.22978 26.2129C7.05935 26.314 6.89902 26.3213 4.86436 26.3213C2.74928 26.3213 2.67659 26.3177 2.51603 26.2022C2.14458 25.9352 2.14117 25.9099 2.15849 23.55L2.17417 21.4112L2.35029 21.229C2.44716 21.1287 2.57926 21.0252 2.64384 20.9988C2.70841 20.9725 3.71233 20.9493 4.87476 20.9474C6.7755 20.9442 7.00851 20.954 7.18957 21.0444ZM18.3543 21.0742C18.7538 21.3357 18.7591 21.3691 18.7592 23.6478C18.7593 25.9321 18.7534 25.9681 18.3417 26.2063C18.1527 26.3157 18.0374 26.3213 16 26.3213C12.9921 26.3213 13.2406 26.5622 13.2408 23.6478C13.2409 21.3691 13.2462 21.3357 13.6457 21.0742C13.844 20.9444 13.8574 20.9437 16 20.9437C18.1426 20.9437 18.156 20.9444 18.3543 21.0742ZM29.5332 21.1162C29.8558 21.4117 29.8552 21.4066 29.8551 23.6296C29.855 25.8962 29.8487 25.9401 29.484 26.2022C29.3234 26.3177 29.2507 26.3213 27.1356 26.3213C25.101 26.3213 24.9406 26.314 24.7702 26.2129C24.6696 26.1532 24.5376 26.0238 24.4767 25.9253C24.3735 25.7583 24.3659 25.6012 24.3659 23.6079C24.3659 21.5358 24.3697 21.4646 24.4875 21.3073C24.7601 20.9434 24.786 20.9401 27.194 20.9571L29.3762 20.9724L29.5332 21.1162Z" fill="url(#paint0_linear_3086_24568)"/>
<path fill-rule="evenodd" clip-rule="evenodd" d="M9.52153 4.55461C8.90838 4.65543 8.35552 5.04711 8.08012 5.57596C7.86354 5.99186 7.82931 6.44289 7.84963 8.613L7.86888 10.6772L8.03796 11.0357C8.23417 11.452 8.64665 11.8603 9.05967 12.0472C9.33125 12.1702 9.39501 12.1729 12.3748 12.1889L15.4129 12.2053V15.4797H12.1732C8.54814 15.4797 8.50599 15.4837 7.98771 15.8731C7.8326 15.9897 7.02225 16.9049 6.1718 17.9241L4.63599 19.7646L3.55029 19.7933C2.46871 19.822 2.46319 19.8228 2.07489 20.0102C1.62841 20.2257 1.37057 20.4859 1.1527 20.941L1 21.26V23.6469C1 25.9779 1.00299 26.0401 1.12793 26.3051C1.31873 26.7097 1.73556 27.1138 2.16043 27.306L2.52642 27.4716L4.59542 27.4905C5.92387 27.5026 6.81554 27.4864 7.08665 27.4452C7.84329 27.3302 8.39937 26.9093 8.67419 26.2435C8.80599 25.9241 8.80822 25.8807 8.80822 23.6181V21.3175L8.63914 20.959C8.44176 20.5402 8.02693 20.131 7.61744 19.9511C7.42059 19.8646 7.16867 19.82 6.74632 19.797L6.15213 19.7646L7.37703 18.2979C8.10137 17.4307 8.67971 16.7902 8.79225 16.7307C8.96685 16.6383 9.24724 16.63 12.1977 16.63H15.4129V19.7832L14.4883 19.8027C13.6376 19.8206 13.5378 19.8341 13.2407 19.9713C12.8319 20.1602 12.4684 20.5168 12.2592 20.9342L12.0959 21.26V25.9762L12.2506 26.2995C12.5515 26.9281 13.0579 27.3163 13.7359 27.4379C14.1975 27.5207 17.8025 27.5207 18.2641 27.4379C18.9421 27.3163 19.4485 26.9281 19.7494 26.2995L19.9041 25.9762V21.26L19.741 20.9345C19.5264 20.5065 19.1781 20.1628 18.7684 19.9746C18.4612 19.8335 18.3672 19.8207 17.5117 19.8027L16.5871 19.7832V16.63L19.8014 16.6302C22.8685 16.6304 23.0241 16.6355 23.2007 16.741C23.3024 16.8017 23.9339 17.5069 24.6037 18.3081L25.8218 19.7646L25.2406 19.7973C24.8337 19.8202 24.5765 19.8664 24.3826 19.9514C23.9734 20.1307 23.5583 20.5401 23.3609 20.959L23.1918 21.3175L23.1725 23.3817C23.1596 24.7626 23.1756 25.5717 23.2208 25.826C23.3477 26.5399 23.7827 27.0778 24.4454 27.3403C24.7714 27.4695 24.8157 27.4716 27.1252 27.4716H29.4736L29.8396 27.306C30.2644 27.1138 30.6813 26.7097 30.8721 26.3051C30.997 26.0401 31 25.9779 31 23.6457V21.2576L30.808 20.8755C30.588 20.4378 30.3226 20.1853 29.8579 19.9717C29.5533 19.8318 29.4617 19.8203 28.4368 19.7933L27.3415 19.7646L25.7824 17.8953C24.7833 16.6975 24.1258 15.9592 23.9516 15.8398C23.4276 15.4806 23.4179 15.4797 19.8347 15.4797H16.5871V12.2053L19.6252 12.1889C22.605 12.1729 22.6687 12.1702 22.9403 12.0472C23.3533 11.8603 23.7658 11.452 23.962 11.0357L24.1311 10.6772V8.37656C24.1311 6.08066 24.1308 6.07525 23.99 5.73263C23.8007 5.27211 23.3636 4.84477 22.8964 4.66365C22.5577 4.53235 22.4815 4.52711 20.6086 4.5071C18.4022 4.48352 18.2688 4.50117 18.1027 4.83936C17.9816 5.08599 18.0186 5.30587 18.2133 5.49659L18.3587 5.639L20.3643 5.6562C22.582 5.67518 22.5942 5.67707 22.8263 6.0427C22.9552 6.24579 22.9569 6.27627 22.9569 8.38674C22.9569 10.4588 22.9532 10.53 22.8354 10.6873C22.7685 10.7767 22.6232 10.895 22.5125 10.9503C22.3245 11.0442 21.8926 11.0508 16 11.0508C10.1074 11.0508 9.67552 11.0442 9.48753 10.9503C9.37681 10.895 9.23151 10.7767 9.16464 10.6873C9.04681 10.53 9.04305 10.4588 9.04305 8.38674C9.04305 6.39343 9.05057 6.23635 9.15378 6.06939C9.39489 5.67914 9.41086 5.67644 11.6614 5.64458C13.8796 5.61317 13.8269 5.62192 13.9468 5.26578C14.0413 4.98557 13.8782 4.66469 13.593 4.56939C13.3548 4.48984 9.98996 4.47759 9.52153 4.55461ZM15.7646 4.59544C15.2061 4.86858 15.3802 5.64458 16 5.64458C16.2779 5.64458 16.5128 5.46824 16.5594 5.22449C16.6507 4.74774 16.1934 4.38574 15.7646 4.59544ZM7.18957 21.0444C7.30029 21.0997 7.4456 21.218 7.51247 21.3073C7.63029 21.4646 7.63405 21.5358 7.63405 23.6079C7.63405 25.6012 7.62654 25.7583 7.52333 25.9253C7.46245 26.0238 7.33035 26.1532 7.22978 26.2129C7.05935 26.314 6.89902 26.3213 4.86436 26.3213C2.74928 26.3213 2.67659 26.3177 2.51603 26.2022C2.14458 25.9352 2.14117 25.9099 2.15849 23.55L2.17417 21.4112L2.35029 21.229C2.44716 21.1287 2.57926 21.0252 2.64384 20.9988C2.70841 20.9725 3.71233 20.9493 4.87476 20.9474C6.7755 20.9442 7.00851 20.954 7.18957 21.0444ZM18.3543 21.0742C18.7538 21.3357 18.7591 21.3691 18.7592 23.6478C18.7593 25.9321 18.7534 25.9681 18.3417 26.2063C18.1527 26.3157 18.0374 26.3213 16 26.3213C12.9921 26.3213 13.2406 26.5622 13.2408 23.6478C13.2409 21.3691 13.2462 21.3357 13.6457 21.0742C13.844 20.9444 13.8574 20.9437 16 20.9437C18.1426 20.9437 18.156 20.9444 18.3543 21.0742ZM29.5332 21.1162C29.8558 21.4117 29.8552 21.4066 29.8551 23.6296C29.855 25.8962 29.8487 25.9401 29.484 26.2022C29.3234 26.3177 29.2507 26.3213 27.1356 26.3213C25.101 26.3213 24.9406 26.314 24.7702 26.2129C24.6696 26.1532 24.5376 26.0238 24.4767 25.9253C24.3735 25.7583 24.3659 25.6012 24.3659 23.6079C24.3659 21.5358 24.3697 21.4646 24.4875 21.3073C24.7601 20.9434 24.786 20.9401 27.194 20.9571L29.3762 20.9724L29.5332 21.1162Z" stroke="url(#paint1_linear_3086_24568)" stroke-width="0.4" mask="url(#path-1-outside-1_3086_24568)"/>
<defs>
<linearGradient id="paint0_linear_3086_24568" x1="1" y1="16.3108" x2="31" y2="16.3108" gradientUnits="userSpaceOnUse">
<stop stop-color="#00469F"/>
<stop offset="1" stop-color="#1E79D6"/>
</linearGradient>
<linearGradient id="paint1_linear_3086_24568" x1="1" y1="16.3108" x2="31" y2="16.3108" gradientUnits="userSpaceOnUse">
<stop stop-color="#00469F"/>
<stop offset="1" stop-color="#1E79D6"/>
</linearGradient>
</defs>
</svg>
