<svg width="176" height="160" viewBox="0 0 176 160" fill="none" xmlns="http://www.w3.org/2000/svg">
<path d="M93.5047 79.1709L94.0001 78.8234L93.5229 78.5874L93.5047 79.1709ZM57.0829 51.8078C55.6331 53.2809 54.4194 55.3271 53.1201 57.4563L73.5614 68.7117L93.5229 78.5874L93.79 70.5193L93.6085 64.0487L64.6867 50.2466C64.2251 50.0262 63.5249 49.6916 63.5249 48.4053C63.5249 47.3212 64.0202 46.9141 64.4533 46.6807C63.6001 47.1215 60.2702 48.5687 57.0829 51.8078Z" fill="url(#paint0_linear_116_17510)"/>
<path d="M50.0157 63.7503C49.4451 65.5812 49.2869 67.5755 49.082 69.7385C50.5551 70.8614 52.1837 71.8625 53.968 72.7157L93.2842 91.479L94.0051 84.8918L93.4398 78.416L53.1252 57.4561C52.0048 59.2948 50.7522 61.3877 50.0157 63.7503Z" fill="url(#paint1_linear_116_17510)"/>
<path d="M28.9641 148.856C28.0823 148.036 26.9568 147.523 25.6445 147.523C22.8384 147.523 20.6652 149.859 20.6652 152.707C20.6652 155.554 22.8384 157.891 25.6445 157.891C27.9397 157.891 29.7836 156.54 29.8873 154.429H25.9324V152.564H32.3874C32.3874 157.606 29.6824 159.94 25.6471 159.94C21.6299 159.94 18.4971 156.724 18.4971 152.707C18.4971 148.71 21.6325 145.453 25.6471 145.453C27.6155 145.453 29.3349 146.21 30.5642 147.44L28.9641 148.856Z" fill="#939598"/>
<path d="M52.4655 144.961H50.3545V159.736H52.4655V144.961Z" fill="#939598"/>
<path d="M70.6855 154.919C70.6855 151.887 72.96 149.96 75.6649 149.96C78.3906 149.96 80.6857 151.887 80.6857 154.919C80.6857 157.95 78.3906 159.939 75.6649 159.939C72.96 159.939 70.6855 157.953 70.6855 154.919ZM78.5721 154.919C78.5721 153.176 77.2598 152.029 75.6623 152.029C74.0855 152.029 72.7732 153.178 72.7732 154.919C72.7732 156.721 74.0855 157.891 75.6623 157.891C77.2624 157.891 78.5721 156.724 78.5721 154.919Z" fill="#939598"/>
<path d="M98.8936 159.736V144.961H101.005V151.538C101.598 150.493 102.849 149.961 104.22 149.961C106.822 149.961 108.995 151.888 108.995 154.961C108.995 157.972 106.762 159.94 104.2 159.94C102.887 159.94 101.598 159.388 101.002 158.343V159.736H98.8936ZM103.956 157.892C105.553 157.892 106.845 156.683 106.845 154.92C106.845 153.159 105.553 152.01 103.956 152.01C102.522 152.01 101.025 153.055 101.025 154.92C101.025 156.784 102.4 157.892 103.956 157.892Z" fill="#939598"/>
<path d="M134.689 158.363C134.032 159.408 132.702 159.939 131.473 159.939C128.91 159.939 126.615 157.992 126.615 154.939C126.615 151.887 128.91 149.96 131.473 149.96C132.622 149.96 134.035 150.432 134.689 151.516V150.165H136.779V159.735H134.689V158.363ZM131.716 157.891C133.273 157.891 134.668 156.804 134.668 154.919C134.668 153.054 133.151 152.009 131.716 152.009C130.14 152.009 128.786 153.158 128.786 154.919C128.786 156.682 130.14 157.891 131.716 157.891Z" fill="#939598"/>
<path d="M157.719 144.961H155.608V159.736H157.719V144.961Z" fill="#939598"/>
<path d="M4.8872 108.931H0.605469V136.758H4.8872V108.931Z" fill="black"/>
<path d="M19.6315 136.758H15.4717V117.896H19.6315V120.723C20.7208 118.583 23.3479 117.491 25.407 117.491C29.9715 117.491 32.596 120.398 32.596 125.772V136.758H28.4361V126.257C28.4361 123.228 26.9009 121.573 24.4786 121.573C22.0149 121.573 19.6315 122.906 19.6315 126.623V136.758Z" fill="black"/>
<path d="M53.553 111.635H51.4938C48.7474 111.635 48.1405 113.735 48.1405 116.158V117.895H52.3807V121.329H48.1405V136.757H43.9392V121.329H40.3447V117.895H43.9392V116.158C43.9392 110.989 46.3225 107.636 51.4912 107.636H53.5504V111.635H53.553Z" fill="black"/>
<path d="M58.8057 127.266C58.8057 121.288 63.2897 117.491 68.6191 117.491C73.9901 117.491 78.513 121.288 78.513 127.266C78.513 133.244 73.9901 137.16 68.6191 137.16C63.2871 137.162 58.8057 133.244 58.8057 127.266ZM74.3532 127.266C74.3532 123.832 71.7675 121.571 68.6191 121.571C65.5096 121.571 62.924 123.832 62.924 127.266C62.924 130.819 65.5096 133.122 68.6191 133.122C71.7701 133.122 74.3532 130.821 74.3532 127.266Z" fill="black"/>
<path d="M111.028 132.032C108.603 135.222 104.768 137.162 100.203 137.162C92.3269 137.162 86.1494 130.821 86.1494 122.906C86.1494 115.03 92.3295 108.608 100.203 108.608C104.687 108.608 108.481 110.548 110.945 113.616L107.633 116.202C105.815 114.143 103.271 112.729 100.203 112.729C94.6714 112.729 90.4285 117.294 90.4285 122.906C90.4285 128.56 94.6688 133.044 100.203 133.044C103.274 133.044 105.979 131.672 107.714 129.408L111.028 132.032Z" fill="black"/>
<path d="M117.61 127.266C117.61 121.288 122.094 117.491 127.424 117.491C132.795 117.491 137.318 121.288 137.318 127.266C137.318 133.244 132.795 137.16 127.424 137.16C122.094 137.162 117.61 133.244 117.61 127.266ZM133.16 127.266C133.16 123.832 130.575 121.571 127.426 121.571C124.317 121.571 121.731 123.832 121.731 127.266C121.731 130.819 124.317 133.122 127.426 133.122C130.575 133.122 133.16 130.821 133.16 127.266Z" fill="black"/>
<path d="M162.886 126.619V136.757H158.726V126.176C158.685 123.269 157.152 121.573 154.89 121.573C152.468 121.573 150.124 122.906 150.124 126.622V136.76H145.964V117.898H150.124V120.725C151.415 118.139 154.525 117.493 156.06 117.493C159.089 117.493 160.907 118.826 161.996 121.248C163.734 117.978 166.641 117.493 168.337 117.493C173.024 117.493 175.607 120.522 175.607 125.893V136.757H171.447V126.256C171.447 123.308 169.87 121.57 167.448 121.57C164.704 121.57 162.886 123.551 162.886 126.619Z" fill="black"/>
<path d="M59.7223 33.9504C48.1764 42.2675 41.1431 53.8289 49.0789 69.7369L49.0815 69.7395C49.5483 64.7861 51.1355 60.7222 53.1272 57.4597C57.2871 50.6468 63.2182 47.3247 64.4578 46.6815C64.5331 46.64 64.6057 46.6063 64.6731 46.5726C64.6835 46.5674 64.6913 46.5622 64.6913 46.5622L85.3815 36.6865C89.7125 34.6195 92.4693 30.2496 92.4693 25.4518C92.4693 23.4134 91.9921 21.5306 91.1648 19.876C80.3814 22.5913 68.488 27.6355 59.7223 33.9504Z" fill="url(#paint2_linear_116_17510)"/>
<path d="M74.6486 14.2199L53.9584 24.0956C35.2988 33.0014 33.6727 58.0148 49.0698 69.737C36.4606 41.8397 66.2278 27.882 91.1557 19.8813C89.0602 15.6981 84.6981 12.9932 80.0092 12.9932C78.2327 12.9906 76.4121 13.3796 74.6486 14.2199Z" fill="url(#paint3_linear_116_17510)"/>
<path d="M100.759 30.9563C97.8963 32.3049 95.7126 34.6597 94.5508 37.4839C95.959 41.8356 98.8143 50.6532 104.369 59.4527C107.93 65.0934 112.751 70.4228 118.511 75.5656V42.2169C118.511 35.0202 112.609 29.7555 106.063 29.7529C104.307 29.7529 102.505 30.1316 100.759 30.9563Z" fill="url(#paint4_linear_116_17510)"/>
<path d="M93.6077 42.2144V64.0458L93.2783 91.4763C97.8738 93.6703 102.749 93.6859 106.977 92.1117C113.515 89.6765 118.504 83.4393 118.504 75.5657C103.758 62.3964 96.8572 44.6237 94.5439 37.4814C93.937 38.9571 93.6077 40.5598 93.6077 42.2144Z" fill="url(#paint5_linear_116_17510)"/>
<path d="M106.301 12.5893L99.8535 24.0756C103.194 25.9999 107.419 26.4096 111.363 24.5502C115.723 22.4962 118.505 18.1081 118.505 13.2896V13.0276C118.505 8.66032 116.329 5.01138 113.16 2.80957L106.301 12.5893Z" fill="url(#paint6_linear_116_17510)"/>
<path d="M100.698 1.78885C96.3698 3.8558 93.6104 8.2257 93.6104 13.0235V13.2854C93.6104 18.0521 96.2038 21.9682 99.8527 24.0714L113.162 2.80546C111.106 1.37649 108.626 0.55957 106.051 0.55957C104.28 0.55957 102.459 0.945986 100.698 1.78885Z" fill="url(#paint7_linear_116_17510)"/>
<defs>
<linearGradient id="paint0_linear_116_17510" x1="53.1214" y1="62.9258" x2="94.0014" y2="62.9258" gradientUnits="userSpaceOnUse">
<stop stop-color="#735AE2"/>
<stop offset="1" stop-color="#00A1F7"/>
</linearGradient>
<linearGradient id="paint1_linear_116_17510" x1="49.081" y1="74.4678" x2="94.0064" y2="74.4678" gradientUnits="userSpaceOnUse">
<stop stop-color="#00A1F7"/>
<stop offset="1" stop-color="#735AE2"/>
</linearGradient>
<linearGradient id="paint2_linear_116_17510" x1="45.695" y1="44.8088" x2="92.4683" y2="44.8088" gradientUnits="userSpaceOnUse">
<stop stop-color="#BD0070"/>
<stop offset="1" stop-color="#FF3AB9"/>
</linearGradient>
<linearGradient id="paint3_linear_116_17510" x1="38.6254" y1="41.3638" x2="91.1546" y2="41.3638" gradientUnits="userSpaceOnUse">
<stop stop-color="#FF3AB9"/>
<stop offset="1" stop-color="#BD0070"/>
</linearGradient>
<linearGradient id="paint4_linear_116_17510" x1="94.5497" y1="52.6594" x2="118.512" y2="52.6594" gradientUnits="userSpaceOnUse">
<stop stop-color="#3485A9"/>
<stop offset="0.2288" stop-color="#33ABB9"/>
<stop offset="0.5043" stop-color="#33D3C9"/>
<stop offset="0.7237" stop-color="#32EBD3"/>
<stop offset="0.8581" stop-color="#32F4D7"/>
<stop offset="1" stop-color="#32F4D7"/>
</linearGradient>
<linearGradient id="paint5_linear_116_17510" x1="93.2786" y1="65.3483" x2="118.505" y2="65.3483" gradientUnits="userSpaceOnUse">
<stop stop-color="#32F4D7"/>
<stop offset="0.1419" stop-color="#32F4D7"/>
<stop offset="0.2763" stop-color="#32EBD3"/>
<stop offset="0.4957" stop-color="#33D3C9"/>
<stop offset="0.7712" stop-color="#33ABB9"/>
<stop offset="1" stop-color="#3485A9"/>
</linearGradient>
<linearGradient id="paint6_linear_116_17510" x1="99.8548" y1="14.2797" x2="118.508" y2="14.2797" gradientUnits="userSpaceOnUse">
<stop stop-color="#FF5100"/>
<stop offset="1" stop-color="#FDC200"/>
</linearGradient>
<linearGradient id="paint7_linear_116_17510" x1="93.6106" y1="12.3152" x2="113.163" y2="12.3152" gradientUnits="userSpaceOnUse">
<stop stop-color="#FDC200"/>
<stop offset="1" stop-color="#FF5100"/>
</linearGradient>
</defs>
</svg>
