<svg width="149" height="161" viewBox="0 0 149 161" fill="none" xmlns="http://www.w3.org/2000/svg">
<path d="M112.545 85.6644L58.4045 68.511L58.0254 65.9387L58.2014 63.583L116.647 82.564L112.545 85.6644Z" fill="#02A2D3"/>
<path d="M41.3765 67.807L58.2648 67.8083L30.7092 83.8047L24.487 83.8047L18.2643 83.8043L41.3765 67.807Z" fill="url(#paint0_linear_116_17613)"/>
<path d="M73.2832 1.57775L77.5749 0.250977V47.6088L76.2617 48.6513L73.2832 50.4519" fill="#065560"/>
<path d="M77.5749 47.5713L116.647 59.5123L114.765 61.0828L112.545 62.3554L73.2832 50.4279L77.5749 47.5713Z" fill="#106C79"/>
<path d="M116.647 59.5088L112.545 62.3519V85.6653L116.647 82.5649V59.5088Z" fill="#18778B"/>
<path d="M58.2012 63.583L58.4042 68.511L30.709 83.8051V78.4718L58.2012 63.583Z" fill="#22C4F4"/>
<path d="M1.50293 105.856H2.07155H2.64017H3.20879V106.412V122.739V123.308H2.64017H2.07155H1.50293V122.739V106.412V105.856Z" fill="#231F20"/>
<path d="M18.2372 105.856H18.535L18.6839 106.1L27.9172 119.923V106.412V105.856H28.4858H29.0545H29.6231V106.412V115.875V122.739V123.308H29.0274H28.4182H28.1203L27.9578 123.064L18.7381 109.228V122.739V123.308H18.1695H17.6008H17.0322V122.739V106.412V105.856H17.6279H18.2372Z" fill="#231F20"/>
<path d="M43.459 105.774H44.0141H56.7132H57.2818V106.343V106.912V107.48H56.7132H51.203V122.738V123.307H50.6615H50.0793H49.5378V122.738V107.48H44.0141H43.459V106.912V106.343V105.774Z" fill="#231F20"/>
<path d="M71.1182 105.731H71.6868H81.0555H81.597V106.3V106.869V107.437H81.0555H72.824V115.032H81.0555H81.597V115.601V116.17V116.738H81.0555H72.824V121.612H81.0555H81.597V122.167V122.736V123.304H81.0555H71.6868H71.1182V122.736V106.3V105.731Z" fill="#231F20"/>
<path d="M95.4326 105.802H95.9877H96.5563H97.1249V106.37V121.615H106.25H106.805V122.17V122.738V123.307H106.25H95.9877H95.4326V122.738V106.37V105.802Z" fill="#231F20"/>
<path d="M120.643 105.802H121.211H121.78H122.348V106.37V121.615H131.46H132.028V122.17V122.738V123.307H131.46H121.211H120.643V122.738V106.37V105.802Z" fill="#231F20"/>
<path d="M145.864 105.856H146.433H146.988H147.557V106.412V122.739V123.308H146.988H146.433H145.864V122.739V106.412V105.856Z" fill="#231F20"/>
<path d="M0.487305 134.833H148.572" stroke="#889096" stroke-width="1.5924" stroke-miterlimit="10"/>
<path d="M37.2168 143.513H41.9553C45.4888 143.513 47.5467 146.234 47.5467 149.795C47.5467 153.328 45.5024 156.022 41.9553 156.022H37.2168V143.513ZM41.9553 154.885C44.7984 154.885 46.3418 152.678 46.3418 149.795C46.3418 146.897 44.7984 144.65 41.9553 144.65H38.4217V154.899H41.9553V154.885Z" fill="#666E71"/>
<path d="M53.3135 144.418C53.3135 143.931 53.7332 143.579 54.207 143.579C54.7215 143.579 55.1141 143.918 55.1141 144.418C55.1141 144.892 54.7215 145.231 54.207 145.231C53.7196 145.244 53.3135 144.892 53.3135 144.418ZM53.6113 147.546H54.7756V156.021H53.6113V147.546Z" fill="#666E71"/>
<path d="M69.5603 147.55V154.766C69.5603 158.868 67.7326 160.249 64.9707 160.249C63.5356 160.249 62.1411 159.559 61.3017 158.178L62.2765 157.636C62.8993 158.638 63.9418 159.139 64.9572 159.139C67.0286 159.139 68.3824 158.083 68.3824 154.82V154.387C67.7461 155.524 66.4193 156.201 65.0113 156.201C62.6556 156.201 60.7061 154.346 60.7061 151.774C60.7061 149.202 62.6285 147.36 65.0113 147.36C66.4464 147.36 67.7461 148.037 68.3824 149.175V147.536H69.5603V147.55ZM68.3959 151.815C68.3959 149.77 66.7984 148.471 65.1196 148.471C63.3461 148.471 61.8974 149.879 61.8974 151.747C61.8974 153.629 63.3461 155.091 65.1196 155.091C66.8796 155.091 68.3959 153.764 68.3959 151.815Z" fill="#666E71"/>
<path d="M75.7734 144.418C75.7734 143.931 76.1931 143.579 76.667 143.579C77.1814 143.579 77.5741 143.918 77.5741 144.418C77.5741 144.892 77.1814 145.231 76.667 145.231C76.1931 145.244 75.7734 144.892 75.7734 144.418ZM76.0848 147.546H77.2491V156.021H76.0848V147.546Z" fill="#666E71"/>
<path d="M87.4438 148.55H85.5078V156.023H84.3705V148.55H82.8271V147.548H84.3705V144.177H85.5078V147.548H87.4438V148.55Z" fill="#666E71"/>
<path d="M100.917 147.55V156.025H99.7525V154.373C99.1162 155.538 97.7894 156.201 96.3814 156.201C94.0257 156.201 92.0762 154.346 92.0762 151.774C92.0762 149.202 93.9987 147.36 96.3814 147.36C97.8165 147.36 99.1162 148.037 99.7525 149.175V147.536H100.917V147.55ZM99.7661 151.815C99.7661 149.77 98.1685 148.471 96.4897 148.471C94.7162 148.471 93.2676 149.879 93.2676 151.747C93.2676 153.629 94.7162 155.091 96.4897 155.091C98.2362 155.091 99.7661 153.764 99.7661 151.815Z" fill="#666E71"/>
<path d="M107.454 142.782H108.618V156.023H107.454V142.782Z" fill="#666E71"/>
<defs>
<linearGradient id="paint0_linear_116_17613" x1="33.1114" y1="77.3906" x2="35.919" y2="81.9989" gradientUnits="userSpaceOnUse">
<stop stop-color="white" stop-opacity="0"/>
<stop offset="0.1372" stop-color="#CBCACB" stop-opacity="0.1425"/>
<stop offset="0.2908" stop-color="#999797" stop-opacity="0.3022"/>
<stop offset="0.4421" stop-color="#6E6C6C" stop-opacity="0.4594"/>
<stop offset="0.5877" stop-color="#4E4A4B" stop-opacity="0.6107"/>
<stop offset="0.7261" stop-color="#363233" stop-opacity="0.7545"/>
<stop offset="0.8543" stop-color="#282425" stop-opacity="0.8877"/>
<stop offset="0.9624" stop-color="#231F20"/>
</linearGradient>
</defs>
</svg>
