<svg width="164" height="98" viewBox="0 0 164 98" fill="none" xmlns="http://www.w3.org/2000/svg">
<path d="M55.9797 86.4459L33.5505 51.8231C32.8704 50.9465 32.4505 49.8768 32.341 48.7483C32.4688 47.625 32.8887 46.5612 33.5505 45.6737L55.9797 11.0507C57.4859 8.34482 59.4942 5.99483 61.8813 4.13987C64.273 2.28492 66.9934 0.965948 69.878 0.262926H34.3903C32.0625 0.168059 29.753 0.749828 27.7127 1.9491C25.6725 3.14837 23.9791 4.91983 22.8198 7.06718L3.83215 39.8661C2.03836 42.4545 0.988556 45.539 0.810547 48.7483C0.988556 51.9594 2.03836 55.049 3.83215 57.6397L22.8198 90.4262C23.9791 92.5762 25.6679 94.3489 27.7082 95.5509C29.7484 96.7524 32.0579 97.3366 34.3903 97.2431H69.878C66.9934 96.5385 64.273 95.2192 61.8813 93.3631C59.4942 91.507 57.4859 89.1525 55.9797 86.4459Z" fill="black"/>
<path d="M149.878 86.4459L127.458 51.8231C126.778 50.9465 126.358 49.8768 126.249 48.7483C126.377 47.625 126.797 46.5612 127.458 45.6737L149.878 11.0507C151.385 8.34457 153.393 5.99488 155.785 4.13987C158.172 2.28489 160.892 0.965594 163.777 0.262926H128.284C125.957 0.168059 123.647 0.749828 121.607 1.9491C119.567 3.14837 117.873 4.91983 116.714 7.06718L97.7217 39.8661C95.9279 42.4543 94.8782 45.5389 94.7002 48.7483C94.8782 51.9599 95.9279 55.0495 97.7217 57.6397L116.746 90.4262C117.905 92.5762 119.594 94.3489 121.634 95.5509C123.675 96.7524 125.984 97.3366 128.312 97.2431H163.809C160.915 96.5429 158.19 95.2255 155.798 93.3694C153.402 91.5128 151.389 89.1564 149.878 86.4459Z" fill="#EC1C24"/>
<path d="M63.7372 86.4459L86.1618 51.8231C86.8419 50.9465 87.2618 49.8773 87.3713 48.7485C87.2435 47.625 86.8236 46.5612 86.1618 45.6738L63.7372 11.0508C62.2265 8.34516 60.2181 5.99493 57.831 4.14001C55.4393 2.28509 52.7235 0.966427 49.8389 0.263057H85.3311C87.6589 0.167477 89.9685 0.749889 92.0087 1.94923C94.049 3.14858 95.7424 4.91949 96.9017 7.06732L115.885 39.8663C117.683 42.4538 118.733 45.5388 118.906 48.7485C118.733 51.9603 117.683 55.0504 115.885 57.6401L96.9017 90.4262C95.7424 92.5766 94.049 94.3493 92.0087 95.5508C89.973 96.7524 87.6589 97.3376 85.3311 97.243H49.8389C52.7235 96.5385 55.4393 95.2192 57.831 93.3631C60.2181 91.507 62.2265 89.1525 63.7372 86.4459Z" fill="#EC1C24"/>
</svg>
