<svg width="111" height="111" viewBox="0 0 111 111" fill="none" xmlns="http://www.w3.org/2000/svg">
<path d="M43.0122 110.866H7.60333C3.41321 110.866 0.00585938 107.459 0.00585938 103.269V8.23126C0.00585938 4.04114 3.41321 0.633789 7.60333 0.633789H43.0122C47.2023 0.633789 50.6096 4.04114 50.6096 8.23126V103.223C50.6096 107.459 47.2023 110.866 43.0122 110.866Z" fill="#C8C8C8"/>
<path d="M100.121 51.2737H59.6016V10.7538C59.6016 5.18234 64.114 0.669922 69.6855 0.669922H100.121C105.693 0.669922 110.205 5.18234 110.205 10.7538V41.1898C110.205 46.7152 105.693 51.2737 100.121 51.2737Z" fill="#488AC9"/>
<path d="M102.055 110.809H67.7516C63.2391 110.809 59.6016 107.171 59.6016 102.659V60.2051H102.055C106.568 60.2051 110.205 63.8427 110.205 68.3551V102.659C110.205 107.171 106.568 110.809 102.055 110.809Z" fill="#414141"/>
</svg>
