<svg width="210" height="56" viewBox="0 0 210 56" fill="none" xmlns="http://www.w3.org/2000/svg">
<path d="M14.8193 30.4136C14.8193 30.4104 14.8193 30.4071 14.8193 30.4039C14.8096 30.3587 14.7418 29.8421 14.7386 29.7969C14.5061 28.1374 14.5255 26.4972 14.7644 24.912C14.7644 24.8958 14.7676 24.8829 14.7709 24.8668C14.9258 23.8433 15.1744 22.8424 15.5102 21.8738C15.5167 21.8544 15.5231 21.8351 15.5296 21.8157C17.6863 15.6199 23.3171 10.7802 30.4653 9.78899C32.2023 9.55007 33.9168 9.55007 35.5698 9.76961C35.5892 9.76961 35.6053 9.77284 35.6215 9.77607C35.6764 9.78253 35.7313 9.79221 35.7862 9.79867C35.7894 9.79867 35.7894 9.79867 35.7926 9.79867C35.8087 9.8019 35.8184 9.8019 35.8346 9.80512C35.8378 9.80512 35.841 9.80512 35.8443 9.80512C35.8475 9.80512 35.854 9.80512 35.8572 9.80512C35.883 9.80835 35.9024 9.81158 35.9282 9.81481C36.871 9.95687 37.7911 10.17 38.6822 10.4509C38.7081 10.4605 38.7371 10.467 38.7597 10.4767C41.0618 11.2064 43.1765 12.3719 44.9846 13.8829C43.0119 11.7423 40.529 10.0505 37.7072 9.02057C37.6749 9.00765 37.6394 8.99474 37.6071 8.98505C36.758 8.67833 35.8765 8.43295 34.9725 8.24891C34.9467 8.24246 34.9176 8.236 34.895 8.23277C34.7982 8.2134 34.7013 8.19726 34.6077 8.18111C34.5915 8.17789 34.5786 8.17466 34.5625 8.17143C34.5593 8.17143 34.556 8.17143 34.5528 8.17143C34.5367 8.1682 34.5237 8.16497 34.5044 8.16174C34.4592 8.15206 34.414 8.1456 34.3655 8.13592C34.3462 8.13269 34.33 8.12946 34.3107 8.12623C33.5229 7.99386 32.7222 7.91314 31.9021 7.88731C22.5293 7.55153 14.5416 14.1251 13.0565 22.9554C13.0532 22.978 13.05 22.9942 13.0468 23.0168C12.9241 23.7561 12.8498 24.5148 12.8175 25.28C12.8079 25.5383 12.8046 25.7966 12.8079 26.0517C12.8079 26.0678 12.8079 26.0808 12.8079 26.0969C12.8143 26.8847 12.8757 27.6563 12.9822 28.4151C12.9822 28.4344 12.9854 28.4473 12.9887 28.4667C12.9887 28.4699 12.9887 28.4699 12.9887 28.4732C12.9887 28.4893 12.9919 28.5055 12.9983 28.5216C13.0016 28.5474 13.0758 28.9898 13.0952 29.1221C13.6408 29.5871 14.222 30.0229 14.8193 30.4136Z" fill="#FEAF13"/>
<path d="M32.8805 39.8483C30.6269 41.5466 28.0795 42.6024 25.4579 43.0479C24.796 43.1642 24.1244 43.2352 23.4561 43.2707C17.609 43.5871 11.6231 40.9913 7.73905 35.8383C7.50013 35.5187 7.2709 35.1991 7.05458 34.8698C7.0449 34.8536 7.03521 34.8407 7.02875 34.8246C6.48957 34.0077 6.02464 33.1683 5.63397 32.3062C5.62429 32.2836 5.61138 32.2642 5.60492 32.2416C3.99382 28.6901 3.57087 24.8093 4.26826 21.1738C2.82828 25.4808 2.98003 30.3464 5.02376 34.802C5.03667 34.8278 5.04959 34.8568 5.05928 34.8794C5.15613 35.0925 5.25945 35.3024 5.36923 35.5122C5.75344 36.2581 6.17639 36.9684 6.63808 37.6432C6.64777 37.6593 6.65746 37.6722 6.66715 37.6884C10.8708 43.7582 18.2031 46.6995 25.177 45.3403C25.7549 45.2273 26.3328 45.0852 26.9011 44.9109C27.9052 44.6106 28.8899 44.2167 29.8553 43.7227C30.8626 43.2094 32.9903 41.8113 34.0493 41.0106C34.1752 40.2519 34.2398 39.477 34.2527 38.6925C33.8459 39.0735 33.3326 39.5061 32.8805 39.8483Z" fill="#FEAF13"/>
<path d="M8.48705 23.3798C8.77762 23.919 9.09726 24.413 9.44596 24.9199C9.44596 24.9231 9.45241 24.9296 9.45564 24.9328C9.64936 25.2137 9.85277 25.4914 10.0691 25.7626C10.082 25.7819 10.0949 25.7949 10.1046 25.811C10.1046 25.8078 10.1046 25.8078 10.1046 25.8045C10.1692 25.8788 10.2337 25.9563 10.2983 26.0338C10.2951 26.0047 10.2886 25.9724 10.2886 25.9628C10.2854 25.9369 10.2822 25.9143 10.2789 25.8853C10.2693 25.8045 10.2596 25.7174 10.2531 25.6334C10.2467 25.6076 10.2434 25.5785 10.2434 25.5559C10.2402 25.5301 10.237 25.5075 10.2337 25.4817C10.2305 25.4559 10.2273 25.4333 10.2241 25.4074C10.2208 25.3848 10.2176 25.3655 10.2176 25.3461C10.1885 25.0265 10.1659 24.71 10.153 24.3969C10.153 24.3743 10.1498 24.3581 10.1498 24.3355C9.8108 14.9272 17.156 6.74907 27.0001 5.82245C28.6661 5.66747 30.2966 5.72559 31.8689 5.98388C31.8948 5.98711 31.9141 5.99034 31.9367 5.99357C31.9626 5.99679 31.9852 6.00325 32.011 6.00648C32.0368 6.00971 32.0562 6.01616 32.082 6.01939C32.1078 6.02262 32.1337 6.02908 32.1595 6.03231C32.1853 6.03554 32.2047 6.042 32.2305 6.04523C32.4791 6.09043 32.7277 6.13886 32.9763 6.19697C33.0054 6.20343 33.0377 6.21311 33.07 6.21957C33.6705 6.35517 34.2646 6.52306 34.8457 6.71678C34.8716 6.72647 34.8909 6.73293 34.9135 6.74261C35.0814 6.7975 35.2429 6.85884 35.4043 6.91695C35.4075 6.91695 35.4107 6.92019 35.414 6.92019C35.4333 6.92664 35.4495 6.9331 35.4689 6.94279C35.4947 6.95248 35.5141 6.96216 35.5399 6.96861C37.7612 7.80806 39.7856 9.05432 41.4967 10.6202C39.6564 8.41828 37.2931 6.63607 34.581 5.46084C34.5552 5.44793 34.5358 5.43824 34.51 5.43178C34.1968 5.29941 33.8771 5.17349 33.5575 5.05403C33.5317 5.04434 33.5058 5.03466 33.48 5.0282C33.1798 4.92166 32.8763 4.81833 32.5728 4.72793C32.4985 4.7021 32.4242 4.68273 32.35 4.66013C31.9238 4.53422 31.4976 4.4309 31.0585 4.33404C31.0198 4.32435 30.9778 4.31467 30.9326 4.30821C30.3967 4.19521 29.8542 4.10803 29.3054 4.04023C29.2699 4.03377 29.2279 4.03055 29.1891 4.02732C29.1181 4.01763 29.0535 4.01117 28.9825 4.00149C28.9761 4.00149 28.9696 4.00149 28.9631 4.00149C28.9341 3.99826 28.9018 3.99503 28.876 3.9918C28.8663 3.9918 28.8566 3.99181 28.8501 3.98858C28.7468 3.97889 28.6467 3.9692 28.5434 3.96274C18.2666 3.13621 9.2813 10.6234 8.47413 20.6839C8.4483 21.0165 8.42893 21.349 8.42247 21.6783C8.42247 21.7203 8.41925 21.7623 8.41925 21.8043C8.41925 21.8591 8.41602 21.9108 8.41602 21.9657C8.41602 22.0077 8.41602 22.0496 8.41602 22.0916C8.41602 22.2692 8.41924 22.4435 8.4257 22.6211C8.4257 22.6566 8.4257 22.6954 8.42893 22.7373C8.43539 22.8923 8.4483 23.1506 8.45799 23.3411C8.4709 23.3508 8.48059 23.3637 8.48705 23.3798C8.48382 23.3766 8.48382 23.3734 8.48705 23.3798Z" fill="#CE3C3F"/>
<path d="M31.6205 46.4316C32.2921 45.3984 32.8022 44.3071 33.1993 43.1384C32.7376 43.571 32.1597 44.0682 31.6463 44.4557C30.7778 45.1078 29.8674 45.6696 28.9278 46.1346C28.902 46.1475 28.8826 46.1604 28.8568 46.1701C21.489 49.7894 12.2615 47.7844 6.72441 41.0527C6.70826 41.0333 6.69535 41.0171 6.6792 40.9945C6.521 40.8008 6.36925 40.6071 6.21751 40.4069C5.66218 39.6708 5.16497 38.9088 4.73233 38.121C4.71296 38.0888 4.69682 38.0532 4.67744 38.021C2.54331 34.0981 1.91372 29.6814 2.70151 25.5713C1.1679 30.1624 1.41973 35.3799 3.81539 40.0776C4.43206 41.2851 5.16174 42.4022 5.98504 43.416C6.02056 43.4612 6.0593 43.5064 6.09805 43.5516C6.86324 44.475 7.70268 45.3145 8.60348 46.0635C8.63576 46.0894 8.66805 46.1184 8.70034 46.141C14.202 50.6321 21.9604 51.7556 28.5856 48.3785C29.5639 47.8812 30.7359 47.1128 31.6108 46.4445C31.6141 46.438 31.6205 46.4316 31.6237 46.4251C31.6205 46.4316 31.6205 46.4316 31.6205 46.4316Z" fill="#CE3C3F"/>
<path d="M18.8055 32.0406C18.5569 29.0476 19.0864 25.7447 20.2972 23.1424C20.3004 23.1295 20.3069 23.1198 20.3133 23.1101C20.7233 22.2287 21.2109 21.386 21.7662 20.5853C21.7759 20.5692 21.7888 20.5563 21.7953 20.5401C24.446 16.7303 28.64 13.9149 33.6702 13.0432C34.7777 12.8527 35.8786 12.7623 36.9602 12.7687H37.0119C37.1217 12.7687 37.2282 12.772 37.338 12.7752C37.3541 12.7752 37.367 12.7752 37.3832 12.7752C38.2646 12.801 39.1331 12.8882 39.9822 13.0367C40.0016 13.04 40.021 13.0432 40.0404 13.0464C42.9817 13.5662 45.7066 14.7963 47.9796 16.5721C45.6905 14.2313 42.7524 12.5072 39.4463 11.6775C39.4237 11.671 39.4011 11.6678 39.3785 11.6613C38.5067 11.445 37.6124 11.2933 36.6987 11.2093C36.6793 11.2061 36.6664 11.2061 36.647 11.2029C36.6018 11.1964 36.5534 11.1932 36.505 11.1899C36.4856 11.1867 36.4662 11.1867 36.4436 11.1835C35.969 11.148 35.4912 11.1254 35.0069 11.1221C28.0685 11.1028 22.0342 14.9223 19.0057 20.5466C18.996 20.5659 18.9863 20.5788 18.9799 20.5982C18.515 21.4667 18.1211 22.3772 17.8079 23.3232C17.8014 23.3361 17.7982 23.349 17.795 23.3587C17.2364 25.0538 16.9329 26.8553 16.9297 28.7312C16.9297 29.477 17.0233 30.6135 17.1137 31.3593C17.4108 31.4981 17.7142 31.6337 18.0177 31.75C18.2825 31.863 18.544 31.9534 18.8055 32.0406Z" fill="#2DB67E"/>
<path d="M33.3331 34.4135C30.2659 36.7252 26.6498 37.8165 23.037 37.7874C22.2621 37.7809 21.4872 37.7228 20.7188 37.6131C16.1632 36.9673 11.798 34.5361 8.75664 30.4971C8.6727 30.3841 8.58552 30.2679 8.50804 30.1581C8.49835 30.1452 8.48866 30.1323 8.48221 30.1226C7.99468 29.4381 7.55558 28.7278 7.17138 28.0078C7.16169 27.9884 7.152 27.9755 7.14555 27.9594C5.27939 24.4176 4.67886 20.4754 5.26324 16.756C5.27293 16.6301 5.28584 16.4977 5.29876 16.375C3.9395 20.5981 4.1429 25.3539 6.19955 29.6964C6.20924 29.7158 6.21892 29.7319 6.22538 29.7513C6.29641 29.8966 6.36744 30.0419 6.4417 30.1904C6.77425 30.8426 7.13909 31.4657 7.53621 32.0565C7.5459 32.0695 7.55558 32.0824 7.56204 32.0953C10.8262 36.9544 16.1212 39.8247 21.6389 40.0894C22.3686 40.1249 23.1048 40.1153 23.8377 40.0571C26.059 39.8828 28.2738 39.2823 30.3724 38.2104C31.3959 37.6905 32.9683 36.6445 33.8981 35.918C33.8239 35.3433 33.7205 34.7751 33.5849 34.2197C33.5171 34.2746 33.4041 34.3618 33.3331 34.4135Z" fill="#2DB67E"/>
<path d="M65.3892 48.4382C65.3892 47.7893 65.4021 46.9983 65.4312 46.5172H65.4182C65.2213 47.3082 64.9598 48.3704 64.5497 49.8201H63.452C63.1291 48.4738 62.8612 47.3373 62.661 46.5075H62.6513C62.6771 46.9886 62.7256 47.7764 62.7256 48.4802V49.8201H61.5342V45.7197H63.4455C63.7103 46.6431 63.9718 47.6537 64.088 48.3414H64.0977C64.2559 47.6149 64.5175 46.656 64.7919 45.7197H66.6968V49.8201H65.3957V48.4382H65.3892Z" fill="#3B3D4A"/>
<path d="M75.4458 49.0579L75.1875 49.823H73.8477L75.4006 45.7227H77.1409L78.7972 49.823H77.3637L77.0828 49.0579H75.4458ZM76.7696 48.1086C76.5016 47.3693 76.3466 46.9043 76.2433 46.5589H76.2207C76.1335 46.8979 75.9495 47.4823 75.73 48.1086H76.7696Z" fill="#3B3D4A"/>
<path d="M85.9336 45.7197H88.0161C89.498 45.7197 90.2503 46.627 90.2503 47.7053C90.2503 48.971 89.3237 49.8201 88.0064 49.8201H85.94L85.9336 45.7197ZM87.267 48.8999H87.845C88.5068 48.8999 88.8361 48.5028 88.8361 47.7376C88.8361 47.108 88.5746 46.6463 87.845 46.6399H87.267V48.8999Z" fill="#3B3D4A"/>
<path d="M101.185 48.1896H98.9924V48.8741H101.443L101.288 49.8201H97.6719V45.7197H101.298V46.6689H98.9892V47.2404H101.181L101.185 48.1896Z" fill="#3B3D4A"/>
<path d="M116.612 45.7197H120.19V46.6625H117.936V47.4018H120.044V48.3511H117.936V49.8201H116.612V45.7197Z" fill="#3B3D4A"/>
<path d="M132.048 47.764C132.048 48.9231 131.283 49.9208 129.669 49.9208C128.19 49.9208 127.37 48.978 127.37 47.7705C127.37 46.6404 128.164 45.6299 129.73 45.6299C131.209 45.6267 132.048 46.5985 132.048 47.764ZM128.778 47.7479C128.778 48.4614 129.059 48.9909 129.733 48.9909C130.428 48.9909 130.641 48.3871 130.641 47.7705C130.641 47.0569 130.389 46.5339 129.695 46.5339C129.036 46.5371 128.778 47.0796 128.778 47.7479Z" fill="#3B3D4A"/>
<path d="M140.793 48.3153V49.823H139.482V45.7227H141.965C142.986 45.7227 143.518 46.2199 143.518 46.9011C143.518 47.4306 143.212 47.7438 142.811 47.8859C143.034 47.9795 143.408 48.1764 143.408 48.8738V49.0966C143.408 49.3291 143.408 49.6293 143.467 49.8295H142.14C142.072 49.6552 142.056 49.4033 142.056 48.9804V48.8415C142.056 48.4606 141.933 48.3185 141.416 48.3185L140.793 48.3153ZM140.793 47.4597H141.61C141.975 47.4597 142.175 47.3273 142.175 47.0303C142.175 46.7558 141.991 46.6008 141.607 46.6008H140.79L140.793 47.4597Z" fill="#3B3D4A"/>
<path d="M159.832 46.6654H158.476V45.7227H162.511V46.6654H161.165V49.823H159.832V46.6654Z" fill="#3B3D4A"/>
<path d="M173.307 48.1896H171.114V48.8741H173.565L173.41 49.8201H169.794V45.7197H173.42V46.6689H171.111V47.2404H173.303V48.1864H173.307V48.1896Z" fill="#3B3D4A"/>
<path d="M182.194 49.0579L181.936 49.823H180.596L182.149 45.7227H183.889L185.545 49.823H184.112L183.831 49.0579H182.194ZM183.518 48.1086C183.25 47.3693 183.095 46.9043 182.991 46.5589H182.972C182.885 46.8979 182.701 47.4823 182.481 48.1086H183.518Z" fill="#3B3D4A"/>
<path d="M196.486 48.4382C196.486 47.7893 196.499 46.9983 196.528 46.5172H196.515C196.318 47.3082 196.056 48.3704 195.646 49.8201H194.549C194.226 48.4738 193.958 47.3373 193.758 46.5075H193.748C193.774 46.9886 193.822 47.7764 193.822 48.4802V49.8201H192.631V45.7197H194.542C194.807 46.6431 195.069 47.6537 195.185 48.3414H195.194C195.353 47.6149 195.614 46.656 195.892 45.7197H197.797V49.8201H196.496V48.4382H196.486Z" fill="#3B3D4A"/>
<path d="M206.411 48.5873C206.495 48.8585 206.708 49.0652 207.244 49.0652C207.718 49.0652 207.867 48.9231 207.867 48.7197C207.867 48.5001 207.738 48.3742 206.966 48.2386C205.448 47.9739 205.232 47.4541 205.232 46.9149C205.232 46.1045 205.997 45.6299 207.118 45.6299C208.48 45.6299 209.032 46.2627 209.084 46.8697H207.786C207.741 46.6889 207.621 46.479 207.114 46.479C206.753 46.479 206.582 46.5985 206.582 46.789C206.582 46.9762 206.753 47.0666 207.389 47.1829C208.942 47.4605 209.242 47.9481 209.242 48.5647C209.242 49.3493 208.583 49.9143 207.189 49.9143C205.813 49.9143 205.2 49.3299 205.077 48.5905L206.411 48.5873Z" fill="#3B3D4A"/>
<path d="M99.8642 22.9102V17.6572H79.7109V40.3643H99.8642V35.121H86.9915V31.3306H99.1345V26.0775H86.9915V22.907H99.8642V22.9102Z" fill="#3B3D4A"/>
<path d="M184.848 22.9102V17.6572H164.694V40.3643H184.848V35.121H171.975V31.3306H184.118V26.0775H171.975V22.907H184.848V22.9102Z" fill="#3B3D4A"/>
<path d="M209.24 22.9102V17.6572H189.087V40.3643H209.24V35.121H196.368V31.3306H208.51V26.0775H196.368V22.907H209.24V22.9102Z" fill="#3B3D4A"/>
<path d="M111.209 36.1342L109.773 40.3702H102.366L110.961 17.6631H120.589L129.748 40.3702H121.812L120.269 36.1342H111.209ZM118.548 30.8812C117.066 26.7937 116.207 24.2108 115.639 22.3123H115.526C115.032 24.1914 114.025 27.4136 112.817 30.8812H118.548Z" fill="#3B3D4A"/>
<path d="M153.237 39.9369V40.3663H160.44V39.9369H153.237ZM141.953 37.9997C141.985 38.1353 142.021 38.2773 142.05 38.4129H149.133C149.172 38.2741 149.208 38.1353 149.25 37.9997H141.953ZM141.953 37.9997C141.985 38.1353 142.021 38.2773 142.05 38.4129H149.133C149.172 38.2741 149.208 38.1353 149.25 37.9997H141.953ZM141.953 37.9997C141.985 38.1353 142.021 38.2773 142.05 38.4129H149.133C149.172 38.2741 149.208 38.1353 149.25 37.9997H141.953ZM141.953 37.9997C141.985 38.1353 142.021 38.2773 142.05 38.4129H149.133C149.172 38.2741 149.208 38.1353 149.25 37.9997H141.953ZM141.953 37.9997C141.985 38.1353 142.021 38.2773 142.05 38.4129H149.133C149.172 38.2741 149.208 38.1353 149.25 37.9997H141.953ZM141.953 37.9997C141.985 38.1353 142.021 38.2773 142.05 38.4129H149.133C149.172 38.2741 149.208 38.1353 149.25 37.9997H141.953ZM141.953 37.9997C141.985 38.1353 142.021 38.2773 142.05 38.4129H149.133C149.172 38.2741 149.208 38.1353 149.25 37.9997H141.953ZM141.953 37.9997C141.985 38.1353 142.021 38.2773 142.05 38.4129H149.133C149.172 38.2741 149.208 38.1353 149.25 37.9997H141.953ZM141.953 37.9997C141.985 38.1353 142.021 38.2773 142.05 38.4129H149.133C149.172 38.2741 149.208 38.1353 149.25 37.9997H141.953ZM141.953 37.9997C141.985 38.1353 142.021 38.2773 142.05 38.4129H149.133C149.172 38.2741 149.208 38.1353 149.25 37.9997H141.953ZM141.953 37.9997C141.985 38.1353 142.021 38.2773 142.05 38.4129H149.133C149.172 38.2741 149.208 38.1353 149.25 37.9997H141.953ZM153.237 37.9997V38.4129H160.44V37.9997H153.237ZM141.953 37.9997C141.985 38.1353 142.021 38.2773 142.05 38.4129H149.133C149.172 38.2741 149.208 38.1353 149.25 37.9997H141.953ZM141.953 37.9997C141.985 38.1353 142.021 38.2773 142.05 38.4129H149.133C149.172 38.2741 149.208 38.1353 149.25 37.9997H141.953ZM141.953 37.9997C141.985 38.1353 142.021 38.2773 142.05 38.4129H149.133C149.172 38.2741 149.208 38.1353 149.25 37.9997H141.953ZM141.953 37.9997C141.985 38.1353 142.021 38.2773 142.05 38.4129H149.133C149.172 38.2741 149.208 38.1353 149.25 37.9997H141.953ZM141.953 37.9997C141.985 38.1353 142.021 38.2773 142.05 38.4129H149.133C149.172 38.2741 149.208 38.1353 149.25 37.9997H141.953ZM141.953 37.9997C141.985 38.1353 142.021 38.2773 142.05 38.4129H149.133C149.172 38.2741 149.208 38.1353 149.25 37.9997H141.953ZM141.953 37.9997C141.985 38.1353 142.021 38.2773 142.05 38.4129H149.133C149.172 38.2741 149.208 38.1353 149.25 37.9997H141.953ZM141.953 37.9997C141.985 38.1353 142.021 38.2773 142.05 38.4129H149.133C149.172 38.2741 149.208 38.1353 149.25 37.9997H141.953ZM141.953 37.9997C141.985 38.1353 142.021 38.2773 142.05 38.4129H149.133C149.172 38.2741 149.208 38.1353 149.25 37.9997H141.953ZM141.953 37.9997C141.985 38.1353 142.021 38.2773 142.05 38.4129H149.133C149.172 38.2741 149.208 38.1353 149.25 37.9997H141.953ZM141.491 36.0657C141.524 36.2013 141.559 36.3434 141.591 36.4822H149.673C149.708 36.3434 149.747 36.2045 149.786 36.0657H141.491ZM141.491 36.0657C141.524 36.2013 141.559 36.3434 141.591 36.4822H149.673C149.708 36.3434 149.747 36.2045 149.786 36.0657H141.491ZM141.491 36.0657C141.524 36.2013 141.559 36.3434 141.591 36.4822H149.673C149.708 36.3434 149.747 36.2045 149.786 36.0657H141.491ZM141.491 36.0657C141.524 36.2013 141.559 36.3434 141.591 36.4822H149.673C149.708 36.3434 149.747 36.2045 149.786 36.0657H141.491ZM141.491 36.0657C141.524 36.2013 141.559 36.3434 141.591 36.4822H149.673C149.708 36.3434 149.747 36.2045 149.786 36.0657H141.491ZM141.491 36.0657C141.524 36.2013 141.559 36.3434 141.591 36.4822H149.673C149.708 36.3434 149.747 36.2045 149.786 36.0657H141.491ZM141.491 36.0657C141.524 36.2013 141.559 36.3434 141.591 36.4822H149.673C149.708 36.3434 149.747 36.2045 149.786 36.0657H141.491ZM141.491 36.0657C141.524 36.2013 141.559 36.3434 141.591 36.4822H149.673C149.708 36.3434 149.747 36.2045 149.786 36.0657H141.491ZM141.491 36.0657C141.524 36.2013 141.559 36.3434 141.591 36.4822H149.673C149.708 36.3434 149.747 36.2045 149.786 36.0657H141.491ZM141.491 36.0657C141.524 36.2013 141.559 36.3434 141.591 36.4822H149.673C149.708 36.3434 149.747 36.2045 149.786 36.0657H141.491ZM153.237 36.0657V36.4822H160.44V36.0657H153.237ZM141.491 36.0657C141.524 36.2013 141.559 36.3434 141.591 36.4822H149.673C149.708 36.3434 149.747 36.2045 149.786 36.0657H141.491ZM141.491 36.0657C141.524 36.2013 141.559 36.3434 141.591 36.4822H149.673C149.708 36.3434 149.747 36.2045 149.786 36.0657H141.491ZM141.491 36.0657C141.524 36.2013 141.559 36.3434 141.591 36.4822H149.673C149.708 36.3434 149.747 36.2045 149.786 36.0657H141.491ZM141.491 36.0657C141.524 36.2013 141.559 36.3434 141.591 36.4822H149.673C149.708 36.3434 149.747 36.2045 149.786 36.0657H141.491ZM141.491 36.0657C141.524 36.2013 141.559 36.3434 141.591 36.4822H149.673C149.708 36.3434 149.747 36.2045 149.786 36.0657H141.491ZM141.491 36.0657C141.524 36.2013 141.559 36.3434 141.591 36.4822H149.673C149.708 36.3434 149.747 36.2045 149.786 36.0657H141.491ZM141.491 36.0657C141.524 36.2013 141.559 36.3434 141.591 36.4822H149.673C149.708 36.3434 149.747 36.2045 149.786 36.0657H141.491ZM141.491 36.0657C141.524 36.2013 141.559 36.3434 141.591 36.4822H149.673C149.708 36.3434 149.747 36.2045 149.786 36.0657H141.491ZM141.491 36.0657C141.524 36.2013 141.559 36.3434 141.591 36.4822H149.673C149.708 36.3434 149.747 36.2045 149.786 36.0657H141.491ZM141.03 34.1285C141.062 34.2641 141.094 34.4062 141.126 34.5418H150.196C150.231 34.4029 150.27 34.2641 150.305 34.1285H141.03ZM141.03 34.1285C141.062 34.2641 141.094 34.4062 141.126 34.5418H150.196C150.231 34.4029 150.27 34.2641 150.305 34.1285H141.03ZM141.03 34.1285C141.062 34.2641 141.094 34.4062 141.126 34.5418H150.196C150.231 34.4029 150.27 34.2641 150.305 34.1285H141.03ZM141.03 34.1285C141.062 34.2641 141.094 34.4062 141.126 34.5418H150.196C150.231 34.4029 150.27 34.2641 150.305 34.1285H141.03ZM141.03 34.1285C141.062 34.2641 141.094 34.4062 141.126 34.5418H150.196C150.231 34.4029 150.27 34.2641 150.305 34.1285H141.03ZM141.03 34.1285C141.062 34.2641 141.094 34.4062 141.126 34.5418H150.196C150.231 34.4029 150.27 34.2641 150.305 34.1285H141.03ZM141.03 34.1285C141.062 34.2641 141.094 34.4062 141.126 34.5418H150.196C150.231 34.4029 150.27 34.2641 150.305 34.1285H141.03ZM141.03 34.1285C141.062 34.2641 141.094 34.4062 141.126 34.5418H150.196C150.231 34.4029 150.27 34.2641 150.305 34.1285H141.03ZM141.03 34.1285C141.062 34.2641 141.094 34.4062 141.126 34.5418H150.196C150.231 34.4029 150.27 34.2641 150.305 34.1285H141.03ZM153.237 34.1285V34.5418H160.44V34.1285H153.237ZM141.03 34.1285C141.062 34.2641 141.094 34.4062 141.126 34.5418H150.196C150.231 34.4029 150.27 34.2641 150.305 34.1285H141.03ZM141.03 34.1285C141.062 34.2641 141.094 34.4062 141.126 34.5418H150.196C150.231 34.4029 150.27 34.2641 150.305 34.1285H141.03ZM141.03 34.1285C141.062 34.2641 141.094 34.4062 141.126 34.5418H150.196C150.231 34.4029 150.27 34.2641 150.305 34.1285H141.03ZM141.03 34.1285C141.062 34.2641 141.094 34.4062 141.126 34.5418H150.196C150.231 34.4029 150.27 34.2641 150.305 34.1285H141.03ZM141.03 34.1285C141.062 34.2641 141.094 34.4062 141.126 34.5418H150.196C150.231 34.4029 150.27 34.2641 150.305 34.1285H141.03ZM141.03 34.1285C141.062 34.2641 141.094 34.4062 141.126 34.5418H150.196C150.231 34.4029 150.27 34.2641 150.305 34.1285H141.03ZM141.03 34.1285C141.062 34.2641 141.094 34.4062 141.126 34.5418H150.196C150.231 34.4029 150.27 34.2641 150.305 34.1285H141.03ZM141.03 34.1285C141.062 34.2641 141.094 34.4062 141.126 34.5418H150.196C150.231 34.4029 150.27 34.2641 150.305 34.1285H141.03ZM140.568 32.1913C140.6 32.3269 140.636 32.469 140.665 32.6078H150.712C150.748 32.469 150.787 32.3302 150.822 32.1913H140.568ZM140.568 32.1913C140.6 32.3269 140.636 32.469 140.665 32.6078H150.712C150.748 32.469 150.787 32.3302 150.822 32.1913H140.568ZM140.568 32.1913C140.6 32.3269 140.636 32.469 140.665 32.6078H150.712C150.748 32.469 150.787 32.3302 150.822 32.1913H140.568ZM140.568 32.1913C140.6 32.3269 140.636 32.469 140.665 32.6078H150.712C150.748 32.469 150.787 32.3302 150.822 32.1913H140.568ZM140.568 32.1913C140.6 32.3269 140.636 32.469 140.665 32.6078H150.712C150.748 32.469 150.787 32.3302 150.822 32.1913H140.568ZM140.568 32.1913C140.6 32.3269 140.636 32.469 140.665 32.6078H150.712C150.748 32.469 150.787 32.3302 150.822 32.1913H140.568ZM140.568 32.1913C140.6 32.3269 140.636 32.469 140.665 32.6078H150.712C150.748 32.469 150.787 32.3302 150.822 32.1913H140.568ZM140.568 32.1913C140.6 32.3269 140.636 32.469 140.665 32.6078H150.712C150.748 32.469 150.787 32.3302 150.822 32.1913H140.568ZM153.237 32.1913C153.237 32.3302 153.237 32.469 153.237 32.6078H160.44V32.1913H153.237ZM140.568 32.1913C140.6 32.3269 140.636 32.469 140.665 32.6078H150.712C150.748 32.469 150.787 32.3302 150.822 32.1913H140.568ZM140.568 32.1913C140.6 32.3269 140.636 32.469 140.665 32.6078H150.712C150.748 32.469 150.787 32.3302 150.822 32.1913H140.568ZM140.568 32.1913C140.6 32.3269 140.636 32.469 140.665 32.6078H150.712C150.748 32.469 150.787 32.3302 150.822 32.1913H140.568ZM140.568 32.1913C140.6 32.3269 140.636 32.469 140.665 32.6078H150.712C150.748 32.469 150.787 32.3302 150.822 32.1913H140.568ZM140.568 32.1913C140.6 32.3269 140.636 32.469 140.665 32.6078H150.712C150.748 32.469 150.787 32.3302 150.822 32.1913H140.568ZM140.568 32.1913C140.6 32.3269 140.636 32.469 140.665 32.6078H150.712C150.748 32.469 150.787 32.3302 150.822 32.1913H140.568ZM140.568 32.1913C140.6 32.3269 140.636 32.469 140.665 32.6078H150.712C150.748 32.469 150.787 32.3302 150.822 32.1913H140.568ZM146.492 30.2541C146.46 30.393 146.425 30.5318 146.396 30.6674H151.222C151.258 30.5286 151.297 30.3897 151.329 30.2541H146.492ZM146.492 30.2541C146.46 30.393 146.425 30.5318 146.396 30.6674H151.222C151.258 30.5286 151.297 30.3897 151.329 30.2541H146.492ZM146.492 30.2541C146.46 30.393 146.425 30.5318 146.396 30.6674H151.222C151.258 30.5286 151.297 30.3897 151.329 30.2541H146.492ZM146.492 30.2541C146.46 30.393 146.425 30.5318 146.396 30.6674H151.222C151.258 30.5286 151.297 30.3897 151.329 30.2541H146.492ZM146.492 30.2541C146.46 30.393 146.425 30.5318 146.396 30.6674H151.222C151.258 30.5286 151.297 30.3897 151.329 30.2541H146.492ZM146.492 30.2541C146.46 30.393 146.425 30.5318 146.396 30.6674H151.222C151.258 30.5286 151.297 30.3897 151.329 30.2541H146.492ZM146.492 30.2541C146.46 30.393 146.425 30.5318 146.396 30.6674H151.222C151.258 30.5286 151.297 30.3897 151.329 30.2541H146.492ZM153.247 30.2541C153.247 30.3897 153.244 30.5318 153.244 30.6674H160.437V30.2541H153.247ZM146.492 30.2541C146.46 30.393 146.425 30.5318 146.396 30.6674H151.222C151.258 30.5286 151.297 30.3897 151.329 30.2541H146.492ZM146.492 30.2541C146.46 30.393 146.425 30.5318 146.396 30.6674H151.222C151.258 30.5286 151.297 30.3897 151.329 30.2541H146.492ZM146.492 30.2541C146.46 30.393 146.425 30.5318 146.396 30.6674H151.222C151.258 30.5286 151.297 30.3897 151.329 30.2541H146.492ZM146.492 30.2541C146.46 30.393 146.425 30.5318 146.396 30.6674H151.222C151.258 30.5286 151.297 30.3897 151.329 30.2541H146.492ZM146.492 30.2541C146.46 30.393 146.425 30.5318 146.396 30.6674H151.222C151.258 30.5286 151.297 30.3897 151.329 30.2541H146.492ZM146.492 30.2541C146.46 30.393 146.425 30.5318 146.396 30.6674H151.222C151.258 30.5286 151.297 30.3897 151.329 30.2541H146.492ZM146.964 28.3137C146.928 28.4526 146.893 28.5914 146.861 28.727H151.723C151.758 28.5882 151.797 28.4493 151.829 28.3137H146.964ZM146.964 28.3137C146.928 28.4526 146.893 28.5914 146.861 28.727H151.723C151.758 28.5882 151.797 28.4493 151.829 28.3137H146.964ZM146.964 28.3137C146.928 28.4526 146.893 28.5914 146.861 28.727H151.723C151.758 28.5882 151.797 28.4493 151.829 28.3137H146.964ZM146.964 28.3137C146.928 28.4526 146.893 28.5914 146.861 28.727H151.723C151.758 28.5882 151.797 28.4493 151.829 28.3137H146.964ZM146.964 28.3137C146.928 28.4526 146.893 28.5914 146.861 28.727H151.723C151.758 28.5882 151.797 28.4493 151.829 28.3137H146.964ZM146.964 28.3137C146.928 28.4526 146.893 28.5914 146.861 28.727H151.723C151.758 28.5882 151.797 28.4493 151.829 28.3137H146.964ZM153.273 28.3137C153.269 28.4493 153.269 28.5914 153.266 28.727H160.443V28.3137H153.273ZM146.964 28.3137C146.928 28.4526 146.893 28.5914 146.861 28.727H151.723C151.758 28.5882 151.797 28.4493 151.829 28.3137H146.964ZM146.964 28.3137C146.928 28.4526 146.893 28.5914 146.861 28.727H151.723C151.758 28.5882 151.797 28.4493 151.829 28.3137H146.964ZM146.964 28.3137C146.928 28.4526 146.893 28.5914 146.861 28.727H151.723C151.758 28.5882 151.797 28.4493 151.829 28.3137H146.964ZM146.964 28.3137C146.928 28.4526 146.893 28.5914 146.861 28.727H151.723C151.758 28.5882 151.797 28.4493 151.829 28.3137H146.964ZM146.964 28.3137C146.928 28.4526 146.893 28.5914 146.861 28.727H151.723C151.758 28.5882 151.797 28.4493 151.829 28.3137H146.964ZM147.461 26.3765C147.426 26.5154 147.387 26.6542 147.354 26.793H152.22C152.256 26.6542 152.291 26.5154 152.327 26.3765H147.461ZM147.461 26.3765C147.426 26.5154 147.387 26.6542 147.354 26.793H152.22C152.256 26.6542 152.291 26.5154 152.327 26.3765H147.461ZM147.461 26.3765C147.426 26.5154 147.387 26.6542 147.354 26.793H152.22C152.256 26.6542 152.291 26.5154 152.327 26.3765H147.461ZM147.461 26.3765C147.426 26.5154 147.387 26.6542 147.354 26.793H152.22C152.256 26.6542 152.291 26.5154 152.327 26.3765H147.461ZM147.461 26.3765C147.426 26.5154 147.387 26.6542 147.354 26.793H152.22C152.256 26.6542 152.291 26.5154 152.327 26.3765H147.461ZM153.308 26.3765C153.305 26.5121 153.302 26.6542 153.298 26.793H160.44V26.3765H153.308ZM147.461 26.3765C147.426 26.5154 147.387 26.6542 147.354 26.793H152.22C152.256 26.6542 152.291 26.5154 152.327 26.3765H147.461ZM147.461 26.3765C147.426 26.5154 147.387 26.6542 147.354 26.793H152.22C152.256 26.6542 152.291 26.5154 152.327 26.3765H147.461ZM147.461 26.3765C147.426 26.5154 147.387 26.6542 147.354 26.793H152.22C152.256 26.6542 152.291 26.5154 152.327 26.3765H147.461ZM147.461 26.3765C147.426 26.5154 147.387 26.6542 147.354 26.793H152.22C152.256 26.6542 152.291 26.5154 152.327 26.3765H147.461ZM147.978 24.4393C147.942 24.5782 147.903 24.717 147.865 24.8526H152.704C152.74 24.7138 152.775 24.5749 152.808 24.4393H147.978ZM147.978 24.4393C147.942 24.5782 147.903 24.717 147.865 24.8526H152.704C152.74 24.7138 152.775 24.5749 152.808 24.4393H147.978ZM147.978 24.4393C147.942 24.5782 147.903 24.717 147.865 24.8526H152.704C152.74 24.7138 152.775 24.5749 152.808 24.4393H147.978ZM147.978 24.4393C147.942 24.5782 147.903 24.717 147.865 24.8526H152.704C152.74 24.7138 152.775 24.5749 152.808 24.4393H147.978ZM153.363 24.4393C153.357 24.5749 153.353 24.7138 153.35 24.8526H160.443V24.4393H153.363ZM147.978 24.4393C147.942 24.5782 147.903 24.717 147.865 24.8526H152.704C152.74 24.7138 152.775 24.5749 152.808 24.4393H147.978ZM147.978 24.4393C147.942 24.5782 147.903 24.717 147.865 24.8526H152.704C152.74 24.7138 152.775 24.5749 152.808 24.4393H147.978ZM147.978 24.4393C147.942 24.5782 147.903 24.717 147.865 24.8526H152.704C152.74 24.7138 152.775 24.5749 152.808 24.4393H147.978ZM148.514 22.4989C148.475 22.6378 148.436 22.7766 148.397 22.9154H153.192C153.227 22.7766 153.263 22.6378 153.295 22.4989H148.514ZM148.514 22.4989C148.475 22.6378 148.436 22.7766 148.397 22.9154H153.192C153.227 22.7766 153.263 22.6378 153.295 22.4989H148.514ZM148.514 22.4989C148.475 22.6378 148.436 22.7766 148.397 22.9154H153.192C153.227 22.7766 153.263 22.6378 153.295 22.4989H148.514ZM153.444 22.4989C153.434 22.6313 153.428 22.7734 153.421 22.9154H160.44V22.4989H153.444ZM148.514 22.4989C148.475 22.6378 148.436 22.7766 148.397 22.9154H153.192C153.227 22.7766 153.263 22.6378 153.295 22.4989H148.514ZM148.514 22.4989C148.475 22.6378 148.436 22.7766 148.397 22.9154H153.192C153.227 22.7766 153.263 22.6378 153.295 22.4989H148.514ZM149.059 20.5682C149.02 20.707 148.982 20.8458 148.94 20.9815H160.44V20.5682H149.059ZM149.621 18.6278C149.582 18.7666 149.544 18.9054 149.502 19.0443H160.44V18.6278H149.621ZM149.902 17.6592C149.863 17.7948 149.824 17.9368 149.779 18.0724H160.44V17.6592H149.902ZM149.337 19.5964C149.298 19.7352 149.259 19.874 149.217 20.0129H160.44V19.5964H149.337ZM148.785 21.5336C148.746 21.6692 148.707 21.8112 148.669 21.9468H160.437V21.5336H148.785ZM142.182 38.9683C142.214 39.1039 142.25 39.2459 142.282 39.3848H148.862C148.901 39.2459 148.94 39.1071 148.979 38.9683H142.182ZM141.721 37.0343C141.753 37.1699 141.788 37.312 141.821 37.4476H149.405C149.443 37.3087 149.479 37.1699 149.521 37.0343H141.721ZM141.259 35.0971C141.291 35.2327 141.323 35.3748 141.356 35.5136H149.931C149.966 35.3748 150.008 35.2359 150.047 35.0971H141.259ZM140.797 33.1599C140.829 33.2955 140.862 33.4376 140.894 33.5764H150.451C150.486 33.4376 150.525 33.2987 150.564 33.1599H140.797ZM146.266 31.2227C146.234 31.3616 146.202 31.5004 146.173 31.636H150.971C151.006 31.4972 151.045 31.3583 151.08 31.2227H146.266ZM148.242 23.4675C148.207 23.6063 148.165 23.7452 148.129 23.884H152.947C152.982 23.7452 153.018 23.6063 153.05 23.4675H148.242ZM147.719 25.4079C147.684 25.5468 147.645 25.6856 147.61 25.8244H152.465C152.501 25.6856 152.536 25.5468 152.572 25.4079H147.719ZM147.209 27.3451C147.174 27.484 147.138 27.6228 147.103 27.7584H151.971C152.007 27.6196 152.042 27.4807 152.078 27.3451H147.209ZM146.725 29.2823C146.693 29.4211 146.657 29.56 146.625 29.6988H151.477C151.513 29.56 151.549 29.4211 151.584 29.2823H146.725ZM146.492 30.2541C146.46 30.393 146.425 30.5318 146.396 30.6674H151.222C151.258 30.5286 151.297 30.3897 151.329 30.2541H146.492ZM146.964 28.3137C146.928 28.4526 146.893 28.5914 146.861 28.727H151.723C151.758 28.5882 151.797 28.4493 151.829 28.3137H146.964ZM147.461 26.3765C147.426 26.5154 147.387 26.6542 147.354 26.793H152.22C152.256 26.6542 152.291 26.5154 152.327 26.3765H147.461ZM147.978 24.4393C147.942 24.5782 147.903 24.717 147.865 24.8526H152.704C152.74 24.7138 152.775 24.5749 152.808 24.4393H147.978ZM148.514 22.4989C148.475 22.6378 148.436 22.7766 148.397 22.9154H153.192C153.227 22.7766 153.263 22.6378 153.295 22.4989H148.514ZM140.568 32.1913C140.6 32.3269 140.636 32.469 140.665 32.6078H150.712C150.748 32.469 150.787 32.3302 150.822 32.1913H140.568ZM145.653 30.2541H140.109C140.142 30.3897 140.177 30.5318 140.206 30.6674H145.734C145.708 30.5286 145.679 30.3897 145.653 30.2541ZM145.236 28.3137H139.644C139.677 28.4493 139.712 28.5914 139.741 28.727H145.324C145.298 28.5914 145.266 28.4526 145.236 28.3137ZM144.785 26.3765H139.186C139.218 26.5121 139.254 26.6542 139.283 26.793H144.881C144.846 26.6542 144.817 26.5154 144.785 26.3765ZM144.3 24.4393H138.718C138.75 24.5749 138.786 24.717 138.815 24.8526H144.4C144.374 24.717 144.336 24.5814 144.3 24.4393ZM143.8 22.4989H138.256C138.288 22.6345 138.324 22.7766 138.356 22.9154H143.91C143.871 22.7798 143.835 22.641 143.8 22.4989ZM143.277 20.5682H131.886V20.9815H143.386C143.351 20.8394 143.312 20.7038 143.277 20.5682ZM142.734 18.6278H131.883V19.041H142.851C142.815 18.9022 142.776 18.7634 142.734 18.6278ZM142.463 17.6592H131.886V18.0724H142.579C142.541 17.9336 142.502 17.7948 142.463 17.6592ZM143.009 19.5964H131.886V20.0129H143.125C143.086 19.8708 143.044 19.7352 143.009 19.5964ZM143.541 21.5336H131.886V21.9468H143.651C143.612 21.808 143.577 21.6724 143.541 21.5336ZM138.111 22.4989H131.886V22.9154H138.133C138.124 22.7766 138.117 22.6378 138.111 22.4989ZM138.211 24.4393H131.883V24.8526H138.234C138.227 24.7138 138.221 24.5782 138.211 24.4393ZM138.308 26.3765H131.886V26.793H138.327C138.321 26.6542 138.314 26.5154 138.308 26.3765ZM138.389 28.3137H131.886V28.727H138.401C138.401 28.5914 138.395 28.4526 138.389 28.3137ZM138.45 30.2541H131.889V30.6674H138.463C138.456 30.5286 138.453 30.3897 138.45 30.2541ZM138.482 32.1913H131.886V32.6078H138.485C138.485 32.4658 138.482 32.3269 138.482 32.1913ZM131.886 34.1285V34.5418H138.485V34.1285H131.886ZM131.944 39.9369H131.883V40.363H138.482V39.9336L131.944 39.9369ZM131.886 37.9997V38.4129H138.485V37.9997H131.886ZM131.886 37.0343V37.4476H138.485V37.0343H131.886ZM131.886 38.9683V39.3848H138.485V38.9683H131.886ZM131.886 36.0657V36.4822H138.485V36.0657H131.886ZM131.886 35.0971V35.5136H138.485V35.0971H131.886ZM131.886 33.1599V33.5764H138.485V33.1599H131.886ZM138.466 31.2227H131.883V31.636H138.472C138.472 31.4972 138.472 31.3583 138.466 31.2227ZM138.421 29.2823H131.886V29.6988H138.437C138.431 29.56 138.427 29.4179 138.421 29.2823ZM138.353 27.3451H131.889V27.7584H138.369C138.359 27.6228 138.356 27.484 138.353 27.3451ZM138.263 25.4079H131.886V25.8244H138.285C138.276 25.6824 138.269 25.5468 138.263 25.4079ZM138.163 23.4675H131.886V23.884H138.185C138.175 23.7452 138.169 23.6063 138.163 23.4675ZM144.055 23.4675H138.489C138.521 23.6031 138.556 23.7452 138.589 23.884H144.161C144.123 23.7484 144.087 23.6096 144.055 23.4675ZM144.546 25.4079H138.957C138.989 25.5435 139.021 25.6856 139.054 25.8244H144.649C144.613 25.6856 144.581 25.55 144.546 25.4079ZM145.014 27.3451H139.418C139.451 27.4807 139.483 27.6228 139.515 27.7584H145.111C145.078 27.626 145.043 27.484 145.014 27.3451ZM145.45 29.2823H139.877C139.909 29.4179 139.942 29.56 139.974 29.6988H145.534C145.508 29.5632 145.479 29.4211 145.45 29.2823ZM145.84 31.2227H140.339C140.371 31.3583 140.403 31.5004 140.436 31.636H145.918C145.892 31.4972 145.869 31.3616 145.84 31.2227ZM141.03 34.1285C141.062 34.2641 141.094 34.4062 141.126 34.5418H150.196C150.231 34.4029 150.27 34.2641 150.305 34.1285H141.03ZM141.491 36.0657C141.524 36.2013 141.559 36.3434 141.591 36.4822H149.673C149.708 36.3434 149.747 36.2045 149.786 36.0657H141.491ZM141.953 37.9997C141.985 38.1353 142.021 38.2773 142.05 38.4129H149.133C149.172 38.2741 149.208 38.1353 149.25 37.9997H141.953ZM142.415 39.9369C142.447 40.0725 142.482 40.2145 142.515 40.3533C142.515 40.3566 142.515 40.363 142.518 40.3663H148.588C148.588 40.363 148.591 40.3566 148.591 40.3533C148.63 40.2145 148.669 40.0757 148.707 39.9369H142.415ZM148.242 23.4675C148.207 23.6063 148.165 23.7452 148.129 23.884H152.947C152.982 23.7452 153.018 23.6063 153.05 23.4675H148.242ZM148.242 23.4675C148.207 23.6063 148.165 23.7452 148.129 23.884H152.947C152.982 23.7452 153.018 23.6063 153.05 23.4675H148.242ZM148.242 23.4675C148.207 23.6063 148.165 23.7452 148.129 23.884H152.947C152.982 23.7452 153.018 23.6063 153.05 23.4675H148.242ZM153.399 23.4675C153.392 23.6031 153.386 23.742 153.379 23.884H160.44V23.4675H153.399ZM148.242 23.4675C148.207 23.6063 148.165 23.7452 148.129 23.884H152.947C152.982 23.7452 153.018 23.6063 153.05 23.4675H148.242ZM148.242 23.4675C148.207 23.6063 148.165 23.7452 148.129 23.884H152.947C152.982 23.7452 153.018 23.6063 153.05 23.4675H148.242ZM148.242 23.4675C148.207 23.6063 148.165 23.7452 148.129 23.884H152.947C152.982 23.7452 153.018 23.6063 153.05 23.4675H148.242ZM147.719 25.4079C147.684 25.5468 147.645 25.6856 147.61 25.8244H152.465C152.501 25.6856 152.536 25.5468 152.572 25.4079H147.719ZM147.719 25.4079C147.684 25.5468 147.645 25.6856 147.61 25.8244H152.465C152.501 25.6856 152.536 25.5468 152.572 25.4079H147.719ZM147.719 25.4079C147.684 25.5468 147.645 25.6856 147.61 25.8244H152.465C152.501 25.6856 152.536 25.5468 152.572 25.4079H147.719ZM147.719 25.4079C147.684 25.5468 147.645 25.6856 147.61 25.8244H152.465C152.501 25.6856 152.536 25.5468 152.572 25.4079H147.719ZM153.327 25.4079C153.324 25.5435 153.321 25.6856 153.318 25.8244H160.44V25.4079H153.327ZM147.719 25.4079C147.684 25.5468 147.645 25.6856 147.61 25.8244H152.465C152.501 25.6856 152.536 25.5468 152.572 25.4079H147.719ZM147.719 25.4079C147.684 25.5468 147.645 25.6856 147.61 25.8244H152.465C152.501 25.6856 152.536 25.5468 152.572 25.4079H147.719ZM147.719 25.4079C147.684 25.5468 147.645 25.6856 147.61 25.8244H152.465C152.501 25.6856 152.536 25.5468 152.572 25.4079H147.719ZM147.719 25.4079C147.684 25.5468 147.645 25.6856 147.61 25.8244H152.465C152.501 25.6856 152.536 25.5468 152.572 25.4079H147.719ZM147.209 27.3451C147.174 27.484 147.138 27.6228 147.103 27.7584H151.971C152.007 27.6196 152.042 27.4807 152.078 27.3451H147.209ZM147.209 27.3451C147.174 27.484 147.138 27.6228 147.103 27.7584H151.971C152.007 27.6196 152.042 27.4807 152.078 27.3451H147.209ZM147.209 27.3451C147.174 27.484 147.138 27.6228 147.103 27.7584H151.971C152.007 27.6196 152.042 27.4807 152.078 27.3451H147.209ZM147.209 27.3451C147.174 27.484 147.138 27.6228 147.103 27.7584H151.971C152.007 27.6196 152.042 27.4807 152.078 27.3451H147.209ZM147.209 27.3451C147.174 27.484 147.138 27.6228 147.103 27.7584H151.971C152.007 27.6196 152.042 27.4807 152.078 27.3451H147.209ZM153.286 27.3451C153.282 27.4807 153.279 27.6228 153.276 27.7584H160.437V27.3451H153.286ZM147.209 27.3451C147.174 27.484 147.138 27.6228 147.103 27.7584H151.971C152.007 27.6196 152.042 27.4807 152.078 27.3451H147.209ZM147.209 27.3451C147.174 27.484 147.138 27.6228 147.103 27.7584H151.971C152.007 27.6196 152.042 27.4807 152.078 27.3451H147.209ZM147.209 27.3451C147.174 27.484 147.138 27.6228 147.103 27.7584H151.971C152.007 27.6196 152.042 27.4807 152.078 27.3451H147.209ZM147.209 27.3451C147.174 27.484 147.138 27.6228 147.103 27.7584H151.971C152.007 27.6196 152.042 27.4807 152.078 27.3451H147.209ZM147.209 27.3451C147.174 27.484 147.138 27.6228 147.103 27.7584H151.971C152.007 27.6196 152.042 27.4807 152.078 27.3451H147.209ZM146.725 29.2823C146.693 29.4211 146.657 29.56 146.625 29.6988H151.477C151.513 29.56 151.549 29.4211 151.584 29.2823H146.725ZM146.725 29.2823C146.693 29.4211 146.657 29.56 146.625 29.6988H151.477C151.513 29.56 151.549 29.4211 151.584 29.2823H146.725ZM146.725 29.2823C146.693 29.4211 146.657 29.56 146.625 29.6988H151.477C151.513 29.56 151.549 29.4211 151.584 29.2823H146.725ZM146.725 29.2823C146.693 29.4211 146.657 29.56 146.625 29.6988H151.477C151.513 29.56 151.549 29.4211 151.584 29.2823H146.725ZM146.725 29.2823C146.693 29.4211 146.657 29.56 146.625 29.6988H151.477C151.513 29.56 151.549 29.4211 151.584 29.2823H146.725ZM146.725 29.2823C146.693 29.4211 146.657 29.56 146.625 29.6988H151.477C151.513 29.56 151.549 29.4211 151.584 29.2823H146.725ZM153.256 29.2823C153.256 29.4211 153.253 29.56 153.253 29.6988H160.44V29.2823H153.256ZM146.725 29.2823C146.693 29.4211 146.657 29.56 146.625 29.6988H151.477C151.513 29.56 151.549 29.4211 151.584 29.2823H146.725ZM146.725 29.2823C146.693 29.4211 146.657 29.56 146.625 29.6988H151.477C151.513 29.56 151.549 29.4211 151.584 29.2823H146.725ZM146.725 29.2823C146.693 29.4211 146.657 29.56 146.625 29.6988H151.477C151.513 29.56 151.549 29.4211 151.584 29.2823H146.725ZM146.725 29.2823C146.693 29.4211 146.657 29.56 146.625 29.6988H151.477C151.513 29.56 151.549 29.4211 151.584 29.2823H146.725ZM146.725 29.2823C146.693 29.4211 146.657 29.56 146.625 29.6988H151.477C151.513 29.56 151.549 29.4211 151.584 29.2823H146.725ZM146.725 29.2823C146.693 29.4211 146.657 29.56 146.625 29.6988H151.477C151.513 29.56 151.549 29.4211 151.584 29.2823H146.725ZM146.266 31.2227C146.234 31.3616 146.202 31.5004 146.173 31.636H150.971C151.006 31.4972 151.045 31.3583 151.08 31.2227H146.266ZM146.266 31.2227C146.234 31.3616 146.202 31.5004 146.173 31.636H150.971C151.006 31.4972 151.045 31.3583 151.08 31.2227H146.266ZM146.266 31.2227C146.234 31.3616 146.202 31.5004 146.173 31.636H150.971C151.006 31.4972 151.045 31.3583 151.08 31.2227H146.266ZM146.266 31.2227C146.234 31.3616 146.202 31.5004 146.173 31.636H150.971C151.006 31.4972 151.045 31.3583 151.08 31.2227H146.266ZM146.266 31.2227C146.234 31.3616 146.202 31.5004 146.173 31.636H150.971C151.006 31.4972 151.045 31.3583 151.08 31.2227H146.266ZM146.266 31.2227C146.234 31.3616 146.202 31.5004 146.173 31.636H150.971C151.006 31.4972 151.045 31.3583 151.08 31.2227H146.266ZM146.266 31.2227C146.234 31.3616 146.202 31.5004 146.173 31.636H150.971C151.006 31.4972 151.045 31.3583 151.08 31.2227H146.266ZM153.24 31.2227C153.24 31.3616 153.24 31.5004 153.237 31.636H160.437V31.2227H153.24ZM146.266 31.2227C146.234 31.3616 146.202 31.5004 146.173 31.636H150.971C151.006 31.4972 151.045 31.3583 151.08 31.2227H146.266ZM146.266 31.2227C146.234 31.3616 146.202 31.5004 146.173 31.636H150.971C151.006 31.4972 151.045 31.3583 151.08 31.2227H146.266ZM146.266 31.2227C146.234 31.3616 146.202 31.5004 146.173 31.636H150.971C151.006 31.4972 151.045 31.3583 151.08 31.2227H146.266ZM146.266 31.2227C146.234 31.3616 146.202 31.5004 146.173 31.636H150.971C151.006 31.4972 151.045 31.3583 151.08 31.2227H146.266ZM146.266 31.2227C146.234 31.3616 146.202 31.5004 146.173 31.636H150.971C151.006 31.4972 151.045 31.3583 151.08 31.2227H146.266ZM146.266 31.2227C146.234 31.3616 146.202 31.5004 146.173 31.636H150.971C151.006 31.4972 151.045 31.3583 151.08 31.2227H146.266ZM146.266 31.2227C146.234 31.3616 146.202 31.5004 146.173 31.636H150.971C151.006 31.4972 151.045 31.3583 151.08 31.2227H146.266ZM140.797 33.1599C140.829 33.2955 140.862 33.4376 140.894 33.5764H150.451C150.486 33.4376 150.525 33.2987 150.564 33.1599H140.797ZM140.797 33.1599C140.829 33.2955 140.862 33.4376 140.894 33.5764H150.451C150.486 33.4376 150.525 33.2987 150.564 33.1599H140.797ZM140.797 33.1599C140.829 33.2955 140.862 33.4376 140.894 33.5764H150.451C150.486 33.4376 150.525 33.2987 150.564 33.1599H140.797ZM140.797 33.1599C140.829 33.2955 140.862 33.4376 140.894 33.5764H150.451C150.486 33.4376 150.525 33.2987 150.564 33.1599H140.797ZM140.797 33.1599C140.829 33.2955 140.862 33.4376 140.894 33.5764H150.451C150.486 33.4376 150.525 33.2987 150.564 33.1599H140.797ZM140.797 33.1599C140.829 33.2955 140.862 33.4376 140.894 33.5764H150.451C150.486 33.4376 150.525 33.2987 150.564 33.1599H140.797ZM140.797 33.1599C140.829 33.2955 140.862 33.4376 140.894 33.5764H150.451C150.486 33.4376 150.525 33.2987 150.564 33.1599H140.797ZM140.797 33.1599C140.829 33.2955 140.862 33.4376 140.894 33.5764H150.451C150.486 33.4376 150.525 33.2987 150.564 33.1599H140.797ZM153.237 33.1599V33.5764H160.44V33.1599H153.237ZM140.797 33.1599C140.829 33.2955 140.862 33.4376 140.894 33.5764H150.451C150.486 33.4376 150.525 33.2987 150.564 33.1599H140.797ZM140.797 33.1599C140.829 33.2955 140.862 33.4376 140.894 33.5764H150.451C150.486 33.4376 150.525 33.2987 150.564 33.1599H140.797ZM140.797 33.1599C140.829 33.2955 140.862 33.4376 140.894 33.5764H150.451C150.486 33.4376 150.525 33.2987 150.564 33.1599H140.797ZM140.797 33.1599C140.829 33.2955 140.862 33.4376 140.894 33.5764H150.451C150.486 33.4376 150.525 33.2987 150.564 33.1599H140.797ZM140.797 33.1599C140.829 33.2955 140.862 33.4376 140.894 33.5764H150.451C150.486 33.4376 150.525 33.2987 150.564 33.1599H140.797ZM140.797 33.1599C140.829 33.2955 140.862 33.4376 140.894 33.5764H150.451C150.486 33.4376 150.525 33.2987 150.564 33.1599H140.797ZM140.797 33.1599C140.829 33.2955 140.862 33.4376 140.894 33.5764H150.451C150.486 33.4376 150.525 33.2987 150.564 33.1599H140.797ZM140.797 33.1599C140.829 33.2955 140.862 33.4376 140.894 33.5764H150.451C150.486 33.4376 150.525 33.2987 150.564 33.1599H140.797ZM141.259 35.0971C141.291 35.2327 141.323 35.3748 141.356 35.5136H149.931C149.966 35.3748 150.008 35.2359 150.047 35.0971H141.259ZM141.259 35.0971C141.291 35.2327 141.323 35.3748 141.356 35.5136H149.931C149.966 35.3748 150.008 35.2359 150.047 35.0971H141.259ZM141.259 35.0971C141.291 35.2327 141.323 35.3748 141.356 35.5136H149.931C149.966 35.3748 150.008 35.2359 150.047 35.0971H141.259ZM141.259 35.0971C141.291 35.2327 141.323 35.3748 141.356 35.5136H149.931C149.966 35.3748 150.008 35.2359 150.047 35.0971H141.259ZM141.259 35.0971C141.291 35.2327 141.323 35.3748 141.356 35.5136H149.931C149.966 35.3748 150.008 35.2359 150.047 35.0971H141.259ZM141.259 35.0971C141.291 35.2327 141.323 35.3748 141.356 35.5136H149.931C149.966 35.3748 150.008 35.2359 150.047 35.0971H141.259ZM141.259 35.0971C141.291 35.2327 141.323 35.3748 141.356 35.5136H149.931C149.966 35.3748 150.008 35.2359 150.047 35.0971H141.259ZM141.259 35.0971C141.291 35.2327 141.323 35.3748 141.356 35.5136H149.931C149.966 35.3748 150.008 35.2359 150.047 35.0971H141.259ZM141.259 35.0971C141.291 35.2327 141.323 35.3748 141.356 35.5136H149.931C149.966 35.3748 150.008 35.2359 150.047 35.0971H141.259ZM153.237 35.0971V35.5136H160.44V35.0971H153.237ZM141.259 35.0971C141.291 35.2327 141.323 35.3748 141.356 35.5136H149.931C149.966 35.3748 150.008 35.2359 150.047 35.0971H141.259ZM141.259 35.0971C141.291 35.2327 141.323 35.3748 141.356 35.5136H149.931C149.966 35.3748 150.008 35.2359 150.047 35.0971H141.259ZM141.259 35.0971C141.291 35.2327 141.323 35.3748 141.356 35.5136H149.931C149.966 35.3748 150.008 35.2359 150.047 35.0971H141.259ZM141.259 35.0971C141.291 35.2327 141.323 35.3748 141.356 35.5136H149.931C149.966 35.3748 150.008 35.2359 150.047 35.0971H141.259ZM141.259 35.0971C141.291 35.2327 141.323 35.3748 141.356 35.5136H149.931C149.966 35.3748 150.008 35.2359 150.047 35.0971H141.259ZM141.259 35.0971C141.291 35.2327 141.323 35.3748 141.356 35.5136H149.931C149.966 35.3748 150.008 35.2359 150.047 35.0971H141.259ZM141.259 35.0971C141.291 35.2327 141.323 35.3748 141.356 35.5136H149.931C149.966 35.3748 150.008 35.2359 150.047 35.0971H141.259ZM141.259 35.0971C141.291 35.2327 141.323 35.3748 141.356 35.5136H149.931C149.966 35.3748 150.008 35.2359 150.047 35.0971H141.259ZM141.259 35.0971C141.291 35.2327 141.323 35.3748 141.356 35.5136H149.931C149.966 35.3748 150.008 35.2359 150.047 35.0971H141.259ZM141.721 37.0343C141.753 37.1699 141.788 37.312 141.821 37.4476H149.405C149.443 37.3087 149.479 37.1699 149.521 37.0343H141.721ZM141.721 37.0343C141.753 37.1699 141.788 37.312 141.821 37.4476H149.405C149.443 37.3087 149.479 37.1699 149.521 37.0343H141.721ZM141.721 37.0343C141.753 37.1699 141.788 37.312 141.821 37.4476H149.405C149.443 37.3087 149.479 37.1699 149.521 37.0343H141.721ZM141.721 37.0343C141.753 37.1699 141.788 37.312 141.821 37.4476H149.405C149.443 37.3087 149.479 37.1699 149.521 37.0343H141.721ZM141.721 37.0343C141.753 37.1699 141.788 37.312 141.821 37.4476H149.405C149.443 37.3087 149.479 37.1699 149.521 37.0343H141.721ZM141.721 37.0343C141.753 37.1699 141.788 37.312 141.821 37.4476H149.405C149.443 37.3087 149.479 37.1699 149.521 37.0343H141.721ZM141.721 37.0343C141.753 37.1699 141.788 37.312 141.821 37.4476H149.405C149.443 37.3087 149.479 37.1699 149.521 37.0343H141.721ZM141.721 37.0343C141.753 37.1699 141.788 37.312 141.821 37.4476H149.405C149.443 37.3087 149.479 37.1699 149.521 37.0343H141.721ZM141.721 37.0343C141.753 37.1699 141.788 37.312 141.821 37.4476H149.405C149.443 37.3087 149.479 37.1699 149.521 37.0343H141.721ZM141.721 37.0343C141.753 37.1699 141.788 37.312 141.821 37.4476H149.405C149.443 37.3087 149.479 37.1699 149.521 37.0343H141.721ZM153.237 37.0343V37.4476H160.44V37.0343H153.237ZM141.721 37.0343C141.753 37.1699 141.788 37.312 141.821 37.4476H149.405C149.443 37.3087 149.479 37.1699 149.521 37.0343H141.721ZM141.721 37.0343C141.753 37.1699 141.788 37.312 141.821 37.4476H149.405C149.443 37.3087 149.479 37.1699 149.521 37.0343H141.721ZM141.721 37.0343C141.753 37.1699 141.788 37.312 141.821 37.4476H149.405C149.443 37.3087 149.479 37.1699 149.521 37.0343H141.721ZM141.721 37.0343C141.753 37.1699 141.788 37.312 141.821 37.4476H149.405C149.443 37.3087 149.479 37.1699 149.521 37.0343H141.721ZM141.721 37.0343C141.753 37.1699 141.788 37.312 141.821 37.4476H149.405C149.443 37.3087 149.479 37.1699 149.521 37.0343H141.721ZM141.721 37.0343C141.753 37.1699 141.788 37.312 141.821 37.4476H149.405C149.443 37.3087 149.479 37.1699 149.521 37.0343H141.721ZM141.721 37.0343C141.753 37.1699 141.788 37.312 141.821 37.4476H149.405C149.443 37.3087 149.479 37.1699 149.521 37.0343H141.721ZM141.721 37.0343C141.753 37.1699 141.788 37.312 141.821 37.4476H149.405C149.443 37.3087 149.479 37.1699 149.521 37.0343H141.721ZM141.721 37.0343C141.753 37.1699 141.788 37.312 141.821 37.4476H149.405C149.443 37.3087 149.479 37.1699 149.521 37.0343H141.721ZM141.721 37.0343C141.753 37.1699 141.788 37.312 141.821 37.4476H149.405C149.443 37.3087 149.479 37.1699 149.521 37.0343H141.721ZM142.182 38.9683C142.214 39.1039 142.25 39.2459 142.282 39.3848H148.862C148.901 39.2459 148.94 39.1071 148.979 38.9683H142.182ZM142.182 38.9683C142.214 39.1039 142.25 39.2459 142.282 39.3848H148.862C148.901 39.2459 148.94 39.1071 148.979 38.9683H142.182ZM142.182 38.9683C142.214 39.1039 142.25 39.2459 142.282 39.3848H148.862C148.901 39.2459 148.94 39.1071 148.979 38.9683H142.182ZM142.182 38.9683C142.214 39.1039 142.25 39.2459 142.282 39.3848H148.862C148.901 39.2459 148.94 39.1071 148.979 38.9683H142.182ZM142.182 38.9683C142.214 39.1039 142.25 39.2459 142.282 39.3848H148.862C148.901 39.2459 148.94 39.1071 148.979 38.9683H142.182ZM142.182 38.9683C142.214 39.1039 142.25 39.2459 142.282 39.3848H148.862C148.901 39.2459 148.94 39.1071 148.979 38.9683H142.182ZM142.182 38.9683C142.214 39.1039 142.25 39.2459 142.282 39.3848H148.862C148.901 39.2459 148.94 39.1071 148.979 38.9683H142.182ZM142.182 38.9683C142.214 39.1039 142.25 39.2459 142.282 39.3848H148.862C148.901 39.2459 148.94 39.1071 148.979 38.9683H142.182ZM142.182 38.9683C142.214 39.1039 142.25 39.2459 142.282 39.3848H148.862C148.901 39.2459 148.94 39.1071 148.979 38.9683H142.182ZM142.182 38.9683C142.214 39.1039 142.25 39.2459 142.282 39.3848H148.862C148.901 39.2459 148.94 39.1071 148.979 38.9683H142.182ZM142.182 38.9683C142.214 39.1039 142.25 39.2459 142.282 39.3848H148.862C148.901 39.2459 148.94 39.1071 148.979 38.9683H142.182ZM153.237 38.9683V39.3848H160.44V38.9683H153.237ZM142.182 38.9683C142.214 39.1039 142.25 39.2459 142.282 39.3848H148.862C148.901 39.2459 148.94 39.1071 148.979 38.9683H142.182ZM142.182 38.9683C142.214 39.1039 142.25 39.2459 142.282 39.3848H148.862C148.901 39.2459 148.94 39.1071 148.979 38.9683H142.182ZM142.182 38.9683C142.214 39.1039 142.25 39.2459 142.282 39.3848H148.862C148.901 39.2459 148.94 39.1071 148.979 38.9683H142.182ZM142.182 38.9683C142.214 39.1039 142.25 39.2459 142.282 39.3848H148.862C148.901 39.2459 148.94 39.1071 148.979 38.9683H142.182ZM142.182 38.9683C142.214 39.1039 142.25 39.2459 142.282 39.3848H148.862C148.901 39.2459 148.94 39.1071 148.979 38.9683H142.182ZM142.182 38.9683C142.214 39.1039 142.25 39.2459 142.282 39.3848H148.862C148.901 39.2459 148.94 39.1071 148.979 38.9683H142.182ZM142.182 38.9683C142.214 39.1039 142.25 39.2459 142.282 39.3848H148.862C148.901 39.2459 148.94 39.1071 148.979 38.9683H142.182ZM142.182 38.9683C142.214 39.1039 142.25 39.2459 142.282 39.3848H148.862C148.901 39.2459 148.94 39.1071 148.979 38.9683H142.182ZM142.182 38.9683C142.214 39.1039 142.25 39.2459 142.282 39.3848H148.862C148.901 39.2459 148.94 39.1071 148.979 38.9683H142.182ZM142.182 38.9683C142.214 39.1039 142.25 39.2459 142.282 39.3848H148.862C148.901 39.2459 148.94 39.1071 148.979 38.9683H142.182ZM142.182 38.9683C142.214 39.1039 142.25 39.2459 142.282 39.3848H148.862C148.901 39.2459 148.94 39.1071 148.979 38.9683H142.182Z" fill="#3B3D4A"/>
<path d="M54.1123 17.6592V18.0724H76.4513V17.6592H54.1123ZM54.1123 19.5964V20.0129H76.4513V19.5964H54.1123ZM54.1123 21.5336V21.9468H76.4513V21.5336H54.1123ZM54.1123 22.4989V22.9154H76.4513V22.4989H54.1123ZM61.6125 23.4675V23.884H68.9964V23.4675H61.6125ZM61.6125 25.4079V25.8212H68.9964V25.4079H61.6125ZM61.6125 27.3451V27.7584H68.9964V27.3451H61.6125ZM61.6125 29.2823V29.6988H68.9964V29.2823H61.6125ZM61.6125 31.2227V31.636H68.9964V31.2227H61.6125ZM61.6125 33.1599V33.5764H68.9964V33.1599H61.6125ZM61.6125 35.0971V35.5104H68.9964V35.0971H61.6125ZM61.6125 37.0343V37.4508H68.9964V37.0343H61.6125ZM61.6125 38.9683V39.3848H68.9964V38.9683H61.6125ZM61.6125 39.9369V40.3663H68.9964V39.9369H61.6125ZM61.6125 37.9997V38.4129H68.9964V37.9997H61.6125ZM61.6125 36.0657V36.4822H68.9964V36.0657H61.6125ZM61.6125 34.1285V34.5418H68.9964V34.1285H61.6125ZM61.6125 32.1913V32.6078H68.9964V32.1913H61.6125ZM61.6125 30.2509V30.6674H68.9964V30.2509H61.6125ZM61.6125 28.3137V28.727H68.9964V28.3137H61.6125ZM61.6125 26.3765V26.793H68.9964V26.3765H61.6125ZM61.6125 24.4393V24.8526H68.9964V24.4393H61.6125ZM54.1123 20.565V20.9815H76.4513V20.565H54.1123ZM54.1123 18.6278V19.041H76.4513V18.6278H54.1123Z" fill="#3B3D4A"/>
<path d="M41.5018 15.1525C41.2241 15.1363 40.9529 15.1267 40.6752 15.1267C40.6559 15.1267 40.6397 15.1267 40.6236 15.1267C39.7744 15.1234 38.9253 15.1815 38.0794 15.301C38.0633 15.301 38.0536 15.3042 38.0374 15.3075C38.0245 15.3075 38.0116 15.3107 37.9987 15.3139C37.9825 15.3171 37.9728 15.3171 37.9567 15.3204C37.7985 15.343 37.6371 15.3688 37.4821 15.3979C37.466 15.4011 37.453 15.4043 37.4369 15.4075C33.95 16.0274 30.576 17.6967 27.8349 20.4087C27.3926 20.8446 26.9761 21.2998 26.5854 21.768C26.5757 21.7809 26.5628 21.7938 26.5563 21.8067C25.9655 22.5203 25.4425 23.2693 24.9775 24.0442C24.9711 24.0539 24.9646 24.0668 24.9582 24.0732C23.402 26.6788 22.5302 29.9268 22.4075 32.8326C21.6456 32.7519 20.8449 32.6001 20.0312 32.3999C20.1669 29.3715 21.1161 26.0395 22.7465 23.4178C22.753 23.4081 22.7595 23.3952 22.7659 23.3888C23.2664 22.5848 23.8378 21.8132 24.4771 21.0835C24.49 21.0674 24.4997 21.0577 24.5094 21.0448C25.4683 19.9503 26.5822 18.9526 27.8349 18.0841C30.7633 16.0565 34.0759 15.004 37.3691 14.8587C37.3885 14.8587 37.4014 14.8587 37.4175 14.8587C37.5628 14.8522 37.7113 14.849 37.8598 14.8458C37.876 14.8458 37.8889 14.8458 37.905 14.8458H37.9406C37.9567 14.8458 37.9664 14.8458 37.9825 14.8458C38.8575 14.8361 39.7325 14.8942 40.5945 15.0137C40.6139 15.0169 40.63 15.0201 40.6494 15.0233C40.9335 15.0524 41.2176 15.1008 41.5018 15.1525Z" fill="#3B3D4A"/>
<path d="M7.39993 15.8906C7.3289 16.2232 7.27402 16.559 7.22559 16.8947C7.26756 16.559 7.32567 16.2264 7.39993 15.8906Z" fill="#3B3D4A"/>
<path d="M9.44047 24.9114C9.30164 24.7145 9.16281 24.5111 9.03043 24.3012C8.98523 24.2269 8.9368 24.1527 8.8916 24.0752C8.97878 24.2205 9.07241 24.3625 9.16927 24.5078C9.17895 24.5207 9.18541 24.5304 9.19186 24.5401C9.24029 24.6144 9.28872 24.6854 9.33715 24.7597C9.36944 24.8081 9.40496 24.8598 9.44047 24.9114Z" fill="#3B3D4A"/>
<path d="M9.44434 24.9121C9.44773 24.9155 9.45113 24.9223 9.45453 24.9257L9.45113 24.9223C9.44774 24.9189 9.44773 24.9155 9.44434 24.9121Z" fill="#3B3D4A"/>
<path d="M9.578 25.1068C9.53583 25.0452 9.49366 24.9835 9.44824 24.9219C9.45149 24.9251 9.45148 24.9284 9.45473 24.9316C9.4969 24.9932 9.53583 25.0484 9.578 25.1068Z" fill="#3B3D4A"/>
<path d="M32.541 31.2334C32.6346 31.4336 32.7283 31.6467 32.8219 31.863C32.7315 31.6499 32.6379 31.4433 32.541 31.2334Z" fill="#3B3D4A"/>
<path d="M33.2466 32.9999C33.2434 32.9999 33.2434 32.9999 33.2466 32.9999C33.2434 32.9934 33.2402 32.987 33.237 32.9805C33.2337 32.9741 33.2337 32.9708 33.2305 32.9644C33.2273 32.9547 33.2241 32.945 33.2208 32.9386C33.1498 32.7287 33.0788 32.5188 32.998 32.3154C33.0852 32.5382 33.1659 32.761 33.237 32.9805C33.2434 32.987 33.2466 32.9934 33.2466 32.9999Z" fill="#3B3D4A"/>
<path d="M36.4596 38.825C36.4112 39.545 36.3208 40.2585 36.1852 40.9656C35.5427 44.3492 33.9283 47.5714 31.3261 50.1705C24.3296 57.1605 12.8259 57.0442 5.6809 49.9089C1.1834 45.4147 -0.702134 38.9089 0.692642 32.8197C0.692642 32.8294 0.689415 32.8391 0.689415 32.8455L0.663585 33.0715C0.657128 33.1167 0.653899 33.1652 0.647441 33.2104C0.640984 33.262 0.637754 33.3169 0.631297 33.3718C0.621611 33.4557 0.615156 33.5429 0.608699 33.6301C0.602242 33.7108 0.595785 33.798 0.589328 33.8787C0.589328 33.8916 0.589325 33.9045 0.586096 33.911C0.582867 33.9788 0.576411 34.0433 0.576411 34.1111C0.576411 34.137 0.573184 34.1628 0.573184 34.1886C0.569955 34.2597 0.566727 34.3275 0.563498 34.3985C0.560269 34.476 0.560268 34.5599 0.557039 34.6374V34.6955C0.557039 34.7504 0.557039 34.8085 0.557039 34.8634V34.9893C0.557039 35.0345 0.557043 35.0765 0.560271 35.1185C0.560271 35.154 0.560269 35.1927 0.563498 35.2347C0.563498 35.2831 0.563496 35.3316 0.566725 35.3768C0.566725 35.4058 0.566728 35.4381 0.569957 35.4672C0.569957 35.5318 0.573185 35.5931 0.579642 35.6609C0.579642 35.677 0.579641 35.69 0.582869 35.7061C0.586098 35.7674 0.589326 35.832 0.592555 35.8901C0.592555 35.9224 0.595785 35.9547 0.599013 35.9838C0.602242 36.0387 0.605469 36.0935 0.611926 36.1517C0.611926 36.1807 0.615154 36.2162 0.621611 36.2453C0.62484 36.2969 0.6313 36.3486 0.634529 36.4003C0.637757 36.4261 0.640986 36.4551 0.644214 36.481C0.650672 36.5423 0.657128 36.6037 0.663585 36.6618C0.666814 36.6876 0.670042 36.7134 0.673271 36.7393C0.679728 36.7974 0.686188 36.8587 0.695874 36.9168C0.699103 36.9427 0.702331 36.9685 0.705559 36.9943C0.715245 37.0557 0.721703 37.1202 0.731389 37.1784C0.734618 37.1977 0.737843 37.2106 0.737843 37.23C0.750758 37.3075 0.763672 37.3915 0.773358 37.4722C0.786273 37.5464 0.799188 37.6271 0.808874 37.7014C0.812102 37.7143 0.812104 37.7272 0.815332 37.7369C0.828247 37.8144 0.841163 37.8984 0.857306 37.9758C0.857306 37.9791 0.857305 37.9823 0.860533 37.9855C0.876676 38.0662 0.889591 38.1502 0.905734 38.2309C0.905734 38.2309 0.905734 38.2341 0.905734 38.2374C0.925106 38.3213 0.941249 38.4085 0.96062 38.4892C0.979992 38.5667 0.996135 38.6506 1.01551 38.7281C1.01551 38.7346 1.01874 38.741 1.01874 38.7475C1.03811 38.8282 1.05748 38.9154 1.08008 38.9961C1.10268 39.08 1.12206 39.1672 1.14466 39.2479C1.16726 39.3319 1.18986 39.419 1.21569 39.4998C1.30932 39.8355 1.41586 40.1713 1.52887 40.5039C1.5547 40.5749 1.58052 40.6459 1.60635 40.7202C1.60958 40.7266 1.61281 40.7363 1.61604 40.746C1.64187 40.8203 1.67092 40.8913 1.69675 40.9688C1.72904 41.0592 1.76456 41.1464 1.80007 41.24C1.82267 41.2949 1.84204 41.3466 1.86464 41.4014C1.87756 41.4273 1.88725 41.4563 1.89693 41.4854C1.9163 41.5241 1.92921 41.5629 1.94859 41.6081C1.96796 41.6468 1.98087 41.6888 2.00025 41.7308C2.02608 41.7889 2.05191 41.847 2.07774 41.9083C2.10679 41.9761 2.13908 42.0439 2.16814 42.1117C2.18105 42.1376 2.19397 42.1666 2.20365 42.1925C2.22625 42.2377 2.24562 42.2829 2.27145 42.3313C2.29082 42.37 2.30697 42.4088 2.32634 42.4475C2.34571 42.4895 2.36186 42.525 2.38446 42.5702C2.39737 42.5993 2.41028 42.6251 2.4232 42.6542C2.44903 42.7058 2.47486 42.7542 2.50069 42.8059C2.53943 42.8834 2.57818 42.9641 2.62338 43.0416C2.63952 43.0706 2.65244 43.0997 2.66858 43.1288C2.69441 43.1772 2.72023 43.2256 2.74606 43.2741C2.76543 43.3063 2.78158 43.3386 2.80095 43.3709C2.82678 43.4161 2.85261 43.4613 2.87844 43.5065C2.89458 43.5323 2.91072 43.5646 2.92687 43.5905C2.96238 43.6583 3.00435 43.7228 3.0431 43.7906C3.0657 43.8294 3.0883 43.8681 3.11413 43.9069C3.13996 43.9488 3.16579 43.9908 3.19162 44.0328C3.22068 44.0844 3.25619 44.1393 3.28848 44.1942C3.32399 44.2523 3.35951 44.3105 3.39825 44.3686C3.45637 44.4622 3.51771 44.5558 3.57905 44.6495C3.62103 44.714 3.663 44.7754 3.7082 44.8399C3.71466 44.8496 3.72112 44.8625 3.72757 44.869C3.76955 44.9303 3.80829 44.9917 3.85349 45.053C3.86318 45.0692 3.87286 45.0789 3.87932 45.0918C3.91807 45.1467 3.95681 45.2048 3.99878 45.2597C4.01169 45.279 4.02461 45.2952 4.0343 45.3146C4.0795 45.3759 4.12147 45.434 4.16344 45.4921C4.21187 45.5599 4.2603 45.6213 4.30873 45.6859C4.31841 45.6955 4.32487 45.7052 4.33133 45.7149C4.37976 45.7795 4.43142 45.8441 4.47985 45.9086C4.52182 45.9635 4.56057 46.0152 4.60577 46.0668C4.61223 46.0733 4.61545 46.0797 4.62191 46.0862C4.64128 46.112 4.66065 46.1346 4.68325 46.1605C4.71231 46.1992 4.74783 46.238 4.78011 46.2799C4.79948 46.3058 4.81563 46.3251 4.835 46.351C4.88343 46.4091 4.93186 46.4672 4.98029 46.5253C4.98029 46.5253 4.98352 46.5285 4.98352 46.5318L5.12558 46.6997C5.13849 46.7158 5.15141 46.7255 5.1611 46.7416C5.20953 46.7965 5.25795 46.8514 5.30638 46.9063C5.32576 46.9257 5.33867 46.9418 5.35804 46.9612C5.40324 47.0096 5.44521 47.058 5.49041 47.1065C5.56144 47.1839 5.62925 47.2582 5.70351 47.3357C5.75839 47.3938 5.81328 47.4519 5.86817 47.5068L5.87462 47.5133C5.93597 47.5778 6.00054 47.6424 6.06189 47.7038C9.36802 51.0067 13.6492 52.9471 18.108 53.1634C18.6568 53.1925 19.2057 53.1925 19.7417 53.1634C19.8966 53.1537 20.0516 53.144 20.2066 53.1343C21.6272 53.0246 23.0091 52.7275 24.3296 52.2432C25.2756 51.901 26.1667 51.4684 27.0061 50.9518C27.0675 50.9163 27.132 50.8775 27.1902 50.8356C27.1934 50.8356 27.1966 50.8323 27.1966 50.8323C27.8553 50.4126 28.4784 49.9444 29.066 49.4182C29.1306 49.3601 29.1952 49.3019 29.2565 49.2406C29.3986 49.1115 29.5406 48.9758 29.6762 48.8402C30.5318 47.9814 31.142 47.171 31.6134 46.4414C31.6166 46.4349 31.6231 46.4284 31.6263 46.422C32.2947 45.392 32.8048 44.3008 33.2019 43.132C33.2051 43.1255 33.2084 43.1191 33.2116 43.1126C33.4053 42.5315 33.5635 41.9406 33.6894 41.3369C33.6991 41.2949 33.7088 41.2562 33.7153 41.211C33.7379 41.1044 33.7572 40.9946 33.7766 40.8881C33.796 40.7783 33.8153 40.6685 33.8315 40.5588C33.9574 39.8 34.0252 39.0219 34.0349 38.2406C34.0349 38.1534 34.0381 38.0662 34.0381 37.9791C34.0381 37.2785 33.9929 36.5875 33.9058 35.9095C33.8315 35.3316 33.7249 34.7666 33.5926 34.2112C33.4925 33.8012 33.3763 33.3944 33.2471 32.9973C33.2471 32.9908 33.2439 32.9844 33.2407 32.9779C33.2374 32.9714 33.2374 32.9682 33.2342 32.9617C33.231 32.9521 33.2277 32.9424 33.2245 32.9359C33.1535 32.7261 33.0824 32.5162 33.0017 32.3128C32.9436 32.161 32.8823 32.0093 32.8209 31.8576C32.7337 31.6445 32.6401 31.4378 32.5368 31.228C33.3278 30.8534 34.0995 30.4208 34.8388 29.9204C34.8517 29.9107 34.8647 29.901 34.8776 29.8945C35.1068 30.3917 35.2618 30.9374 35.4361 31.4572C35.4716 31.5605 35.5104 31.6671 35.5459 31.7736C35.5524 31.7898 35.5556 31.8059 35.562 31.822C35.5911 31.9124 35.6234 32.0061 35.6492 32.0997C35.8623 32.7745 36.0334 33.4557 36.1658 34.1467C36.4693 35.6932 36.5662 37.2655 36.4596 38.825Z" fill="#3B3D4A"/>
<path d="M7.50066 15.8456C7.37152 16.7367 7.336 17.6504 7.39089 18.5576C7.55555 21.2116 8.50477 23.7267 10.1417 25.8382C10.1611 25.8641 10.1772 25.8867 10.1998 25.9125C10.1998 25.9125 10.203 25.9157 10.2063 25.919C10.3386 26.0901 10.4839 26.258 10.6421 26.442C10.6873 26.4969 10.7325 26.5518 10.7777 26.6034C10.8036 26.6325 10.8294 26.6615 10.8552 26.6906C10.8907 26.7326 10.9327 26.7745 10.9715 26.8165C10.9779 26.8262 10.9876 26.8359 10.9973 26.8456C11.4428 27.3363 11.9078 27.8013 12.3953 28.2404C12.5535 28.3856 12.7117 28.5245 12.8731 28.6665C13.4252 29.1444 14.0032 29.577 14.6005 29.9709C15.0492 30.2647 15.5077 30.5359 15.9791 30.7845C16.2535 30.9363 16.5247 31.088 16.8056 31.2204C16.9122 31.2721 17.0187 31.3237 17.1253 31.3721C17.4223 31.5142 17.7258 31.6498 18.0293 31.7628C18.2876 31.8629 18.5459 31.9533 18.8074 32.0405C19.211 32.1728 19.6178 32.2891 20.0311 32.3892C20.5799 32.5215 21.1094 32.6378 21.6389 32.7185C21.8972 32.7572 22.1587 32.7992 22.4073 32.8283C22.4106 32.8283 22.4138 32.8283 22.417 32.8283C23.3985 32.9606 24.3865 33.051 25.3712 33.0187C25.4455 33.0155 25.5165 33.0123 25.5876 33.0091C27.8605 32.909 30.4273 32.2213 32.5388 31.2333C32.6357 31.4399 32.7326 31.6498 32.823 31.8629C32.8875 32.0146 32.9489 32.1632 33.0038 32.3181C33.0812 32.5248 33.1555 32.7314 33.2265 32.9413C33.2298 32.951 33.233 32.9606 33.2362 32.9671C33.2362 32.9736 33.2394 32.9768 33.2427 32.9832C33.2427 32.9897 33.2459 32.9962 33.2491 33.0026C33.0264 33.1285 32.4678 33.3448 32.245 33.4643C29.0551 35.0883 25.6069 35.6727 22.2717 35.3369C21.4743 35.2594 20.6768 35.1238 19.8922 34.9398C19.5984 34.8688 19.3014 34.7945 19.0108 34.7106C18.859 34.6654 18.7105 34.6234 18.562 34.5782C15.5465 33.6257 12.7569 31.8984 10.5162 29.506C10.4 29.3801 10.2838 29.2509 10.1675 29.1218C9.95766 28.8861 9.75103 28.6407 9.55408 28.3889C9.54439 28.3792 9.53471 28.3663 9.52826 28.3566C9.04073 27.7399 8.58226 27.0877 8.16577 26.4C8.15608 26.3839 8.14639 26.3742 8.13994 26.3581C7.90747 25.9738 7.68792 25.5735 7.47806 25.1635C7.42317 25.0537 7.36829 24.9407 7.3134 24.8341C7.03251 24.2594 6.7839 23.6815 6.56758 23.0907C6.15754 21.9768 5.85728 20.8435 5.66356 19.707C5.58607 19.1743 5.52796 18.6287 5.4989 18.083C5.36975 15.7132 5.73782 13.395 6.55467 11.2512C6.59341 11.1479 6.63216 11.0446 6.67736 10.9413C7.0422 10.034 7.49097 9.15581 8.02047 8.32282C8.1141 8.18076 8.21097 8.04193 8.31105 7.9031C8.36594 7.82884 8.42083 7.75134 8.47894 7.67385C8.79212 7.25413 9.12144 6.84732 9.46691 6.45666C9.46691 6.45666 9.46691 6.45665 9.46691 6.45343C10.3677 5.43317 11.388 4.51301 12.4922 3.71554C13.0378 3.31841 13.6093 2.95035 14.2001 2.6178C17.3706 0.816212 21.1094 -0.0878137 25.0355 0.222137C25.3615 0.247966 25.6844 0.28348 26.0041 0.322224C26.1074 0.338367 26.2107 0.348058 26.314 0.36743C27.9606 0.60635 29.5297 1.05512 30.9988 1.68148C31.0601 1.70731 31.1182 1.73315 31.1763 1.75898C33.8464 2.93098 36.1711 4.69059 37.9952 6.86347C36.6198 5.61075 35.0475 4.56144 33.3363 3.76397L33.2362 3.71876C32.6422 3.44432 32.0255 3.20218 31.3959 2.98909C31.3604 2.97295 31.3216 2.96326 31.2829 2.95357C30.0592 2.55322 28.7839 2.2691 27.4666 2.12382C27.4021 2.11413 27.3375 2.10767 27.2729 2.10121C26.046 1.9753 24.7868 1.97207 23.5115 2.09153C23.3307 2.1109 23.1564 2.12704 22.9788 2.14964C22.9433 2.15287 22.9078 2.15933 22.8723 2.16256C22.8335 2.16902 22.7915 2.17224 22.7496 2.18193C22.727 2.18516 22.7044 2.18839 22.6818 2.19161C22.4751 2.21744 22.2717 2.24973 22.0683 2.28525C21.9908 2.30139 21.9166 2.31107 21.8359 2.32721C20.9835 2.48542 20.1505 2.69851 19.3433 2.96003C19.3433 2.96003 19.3433 2.96003 19.3401 2.96003C18.3941 3.23124 17.4772 3.58316 16.5861 4.01903C14.6198 4.98117 12.8796 6.30169 11.4106 7.94507C10.8875 8.52946 10.4064 9.1429 9.97381 9.78863C9.67354 10.2374 9.38942 10.7023 9.13113 11.1769C9.04718 11.3255 8.96324 11.474 8.88898 11.6225C8.81795 11.7549 8.75015 11.8937 8.68558 12.0293C8.63069 12.1455 8.5758 12.2585 8.52415 12.3748C8.51446 12.3974 8.50477 12.4167 8.49832 12.4393C8.48863 12.4619 8.47894 12.4813 8.47249 12.5007C8.42083 12.6201 8.3724 12.7364 8.32397 12.8558C8.29814 12.9269 8.26908 12.9947 8.24325 13.0689C8.21742 13.14 8.19159 13.211 8.16577 13.282C8.16254 13.2853 8.16254 13.2917 8.15931 13.2949C8.11088 13.4305 8.06244 13.5726 8.02047 13.7114C8.01724 13.7179 8.01402 13.7243 8.01079 13.734C7.76541 14.4153 7.60398 15.1288 7.50066 15.8456Z" fill="#3B3D4A"/>
<path d="M9.11095 11.167C9.09158 11.1993 9.07544 11.2316 9.05929 11.2639C8.67186 11.9903 8.3393 12.7426 8.05518 13.5239C8.04227 13.553 8.03259 13.5853 8.0229 13.6143C8.01321 13.6401 8.00353 13.6692 7.99707 13.695C8.03904 13.5562 8.08747 13.4141 8.1359 13.2785C8.1359 13.2753 8.13913 13.2688 8.14236 13.2656C8.16819 13.1946 8.19402 13.1236 8.21985 13.0525C8.24568 12.9815 8.27473 12.9105 8.30056 12.8394C8.34577 12.72 8.39742 12.6037 8.44908 12.4843C8.45877 12.4617 8.46845 12.4423 8.47491 12.4229C8.48459 12.4003 8.49428 12.381 8.50074 12.3584C8.5524 12.2421 8.60728 12.1291 8.66217 12.0129C8.72674 11.8773 8.79455 11.7417 8.86558 11.6061C8.94307 11.4673 9.02701 11.3187 9.11095 11.167Z" fill="#3B3D4A"/>
<path d="M10.637 26.4351C10.4788 26.2576 10.3368 26.0832 10.2012 25.9121C10.2302 25.9476 10.2657 25.9864 10.298 26.0219C10.3045 26.0316 10.3109 26.038 10.3174 26.0445C10.3239 26.0509 10.3271 26.0574 10.3335 26.0639C10.3626 26.0994 10.3949 26.1413 10.4272 26.1801C10.4336 26.1865 10.4369 26.193 10.4433 26.1995C10.5047 26.2769 10.5692 26.3609 10.637 26.4351Z" fill="#3B3D4A"/>
</svg>
