<svg width="156" height="168" viewBox="0 0 156 168" fill="none" xmlns="http://www.w3.org/2000/svg">
<path d="M45.0744 68.2582L64.8506 69.6869L32.0478 88.5632L24.7616 88.0375L17.4748 87.5111L45.0744 68.2582Z" fill="url(#paint0_linear_116_17580)"/>
<path d="M118.109 89.9685L61.4398 72.0141L61.043 69.3217L61.2272 66.8701L122.402 86.7234L118.109 89.9685Z" fill="#C7009A"/>
<path d="M77.0137 1.96784L81.5058 0.579102V50.1343L80.1312 51.2396L77.0137 53.1244" fill="#5B34AE"/>
<path d="M81.5058 50.1064L122.403 62.5909L120.433 64.2347L118.109 65.5668L77.0137 53.0823L81.5058 50.1064Z" fill="#58238E"/>
<path d="M122.402 62.5908L118.108 65.5667V89.9688L122.402 86.7237V62.5908Z" fill="#820098"/>
<path d="M61.227 66.8701L61.4396 72.0141L31.9785 88.6223V83.0531L61.227 66.8701Z" fill="#FF0093"/>
<path d="M1.87988 111.097H2.47505H3.07023H3.6654V111.692V128.782V129.377H3.07023H2.47505H1.87988V128.782V111.692V111.097Z" fill="#231F20"/>
<path d="M19.395 111.097H19.7068L19.8626 111.352L29.5271 125.834V111.692V111.097H30.1223H30.7174H31.3126V111.692V121.583V128.782V129.377H30.6891H30.0514H29.7397L29.5696 129.108L19.9193 114.625V128.782V129.377H19.3241H18.729H18.1338V128.782V111.692V111.097H18.7573H19.395Z" fill="#231F20"/>
<path d="M45.7949 111.026H46.3759H59.6681H60.2633V111.622V112.217V112.798H59.6681H53.9006V128.782V129.378H53.3338H52.7244H52.1576V128.782V112.798H46.3759H45.7949V112.217V111.622V111.026Z" fill="#231F20"/>
<path d="M74.7461 110.97H75.3413H85.1474H85.7143V111.565V112.16V112.755H85.1474H76.5316V120.705H85.1474H85.7143V121.3V121.895V122.491H85.1474H76.5316V127.592H85.1474H85.7143V128.187V128.782V129.378H85.1474H75.3413H74.7461V128.782V111.565V110.97Z" fill="#231F20"/>
<path d="M100.197 111.04H100.778H101.373H101.969V111.635V127.592H111.52H112.101V128.187V128.782V129.377H111.52H100.778H100.197V128.782V111.635V111.04Z" fill="#231F20"/>
<path d="M126.583 111.04H127.178H127.773H128.369V111.635V127.592H137.905H138.501V128.187V128.782V129.377H137.905H127.178H126.583V128.782V111.635V111.04Z" fill="#231F20"/>
<path d="M152.983 111.097H153.579H154.16H154.755V111.692V128.782V129.377H154.16H153.579H152.983V128.782V111.692V111.097Z" fill="#231F20"/>
<path d="M0.817383 141.437H155.817" stroke="#888F95" stroke-width="0.225599" stroke-miterlimit="10"/>
<path d="M5.60742 163.614L10.6381 150.534H11.9701L17.0007 163.614H15.6545L14.3225 160.17H8.27153L6.96782 163.614H5.60742ZM11.3041 152.277L8.72499 158.994H13.8832L11.3041 152.277Z" fill="#656D70"/>
<path d="M22.6973 154.743H23.9726V156.287C24.6387 155.168 26.0274 154.559 27.3169 154.559C29.8393 154.559 31.8516 156.415 31.8516 159.235C31.8516 162.041 29.8393 163.812 27.3169 163.812C26.0132 163.812 24.6387 163.316 23.9726 162.182V167.922H22.6973V154.743ZM27.3169 155.82C25.4889 155.82 23.9726 157.038 23.9726 159.221C23.9726 161.403 25.7156 162.523 27.3169 162.523C29.1591 162.523 30.5762 161.276 30.5762 159.221C30.5762 157.251 29.1591 155.82 27.3169 155.82Z" fill="#656D70"/>
<path d="M38.1152 154.743H39.3906V156.287C40.0566 155.168 41.4454 154.559 42.7349 154.559C45.2573 154.559 47.2696 156.415 47.2696 159.235C47.2696 162.041 45.2573 163.812 42.7349 163.812C41.4312 163.812 40.0566 163.316 39.3906 162.182V167.922H38.1152V154.743ZM42.7349 155.82C40.9069 155.82 39.3906 157.038 39.3906 159.221C39.3906 161.403 41.1336 162.523 42.7349 162.523C44.5771 162.523 45.9942 161.276 45.9942 159.221C45.9942 157.251 44.5771 155.82 42.7349 155.82Z" fill="#656D70"/>
<path d="M54.7802 149.939H53.5332V163.614H54.7802V149.939Z" fill="#656D70"/>
<path d="M62.3044 150.534C62.8429 150.534 63.268 150.917 63.268 151.441C63.268 151.98 62.8288 152.348 62.3044 152.348C61.7659 152.348 61.3408 151.965 61.3408 151.441C61.3408 150.903 61.7801 150.534 62.3044 150.534ZM62.9138 163.614H61.6667V154.743H62.9138V163.614Z" fill="#656D70"/>
<path d="M77.0279 162.594C76.1918 163.373 75.0581 163.813 73.8253 163.813C71.3029 163.813 69.1914 161.97 69.1914 159.165C69.1914 156.359 71.3029 154.573 73.8253 154.573C75.0581 154.573 76.1776 155.013 77.0137 155.764L76.1209 156.656C75.5116 156.118 74.718 155.82 73.8253 155.82C71.9831 155.82 70.4384 157.11 70.4384 159.165C70.4384 161.219 71.9831 162.566 73.8253 162.566C74.718 162.566 75.4974 162.282 76.1209 161.715L77.0279 162.594Z" fill="#656D70"/>
<path d="M91.4258 163.614H90.1504V162.098C89.4844 163.217 88.0957 163.813 86.8061 163.813C84.2837 163.813 82.2715 161.97 82.2715 159.165C82.2715 156.359 84.2837 154.573 86.8061 154.573C88.0957 154.573 89.4844 155.112 90.1504 156.231V154.743H91.4258V163.614ZM86.8061 162.537C88.6342 162.537 90.1504 161.361 90.1504 159.15C90.1504 156.94 88.4074 155.82 86.8061 155.82C84.9639 155.82 83.5469 157.11 83.5469 159.15C83.5327 161.12 84.9639 162.537 86.8061 162.537Z" fill="#656D70"/>
<path d="M98.8791 163.615V155.892H97.292V154.744H98.8791V151.428H100.154V154.744H102.039V155.892H100.154V163.615H98.8791Z" fill="#656D70"/>
<path d="M108.587 150.534C109.125 150.534 109.55 150.917 109.55 151.441C109.55 151.98 109.111 152.348 108.587 152.348C108.062 152.348 107.623 151.965 107.623 151.441C107.623 150.903 108.048 150.534 108.587 150.534ZM109.196 163.614H107.949V154.743H109.196V163.614Z" fill="#656D70"/>
<path d="M115.459 159.15C115.459 156.344 117.57 154.559 120.093 154.559C122.615 154.559 124.727 156.344 124.727 159.15C124.727 161.956 122.615 163.798 120.093 163.798C117.57 163.798 115.459 161.956 115.459 159.15ZM123.48 159.15C123.48 157.095 121.935 155.806 120.093 155.806C118.251 155.806 116.706 157.095 116.706 159.15C116.706 161.205 118.251 162.551 120.093 162.551C121.935 162.551 123.48 161.205 123.48 159.15Z" fill="#656D70"/>
<path d="M132.266 163.614H130.99V154.743H132.266V156.203C132.818 155.041 134.179 154.545 135.213 154.545C137.395 154.545 138.657 156.005 138.628 158.442V163.6H137.353V158.442C137.353 156.784 136.574 155.806 135.213 155.806C133.81 155.806 132.266 156.6 132.266 158.768V163.614Z" fill="#656D70"/>
<path d="M145.799 161.063C145.955 161.743 146.394 162.608 147.882 162.608C149.016 162.608 149.767 162.041 149.767 161.205C149.767 160.61 149.427 160.071 148.492 159.844L147.259 159.561C146.182 159.32 144.765 158.739 145.02 156.67C145.232 155.395 146.465 154.559 147.911 154.559C149.299 154.559 150.461 155.239 150.702 156.854H149.469C149.314 156.174 148.676 155.777 147.911 155.777C147.06 155.777 146.352 156.231 146.253 156.854C146.04 157.86 146.961 158.186 147.556 158.342L148.775 158.626C150.447 159.022 151.014 159.986 151.014 161.205C151.014 162.749 149.611 163.812 147.769 163.812C146.281 163.812 144.736 162.82 144.68 161.077H145.799V161.063Z" fill="#656D70"/>
<defs>
<linearGradient id="paint0_linear_116_17580" x1="35.0754" y1="80.2637" x2="38.7337" y2="86.2911" gradientUnits="userSpaceOnUse">
<stop stop-color="white" stop-opacity="0"/>
<stop offset="0.1372" stop-color="#CBCACB" stop-opacity="0.1425"/>
<stop offset="0.2908" stop-color="#999797" stop-opacity="0.3022"/>
<stop offset="0.4421" stop-color="#6E6C6C" stop-opacity="0.4594"/>
<stop offset="0.5877" stop-color="#4E4A4B" stop-opacity="0.6107"/>
<stop offset="0.7261" stop-color="#363233" stop-opacity="0.7545"/>
<stop offset="0.8543" stop-color="#282425" stop-opacity="0.8877"/>
<stop offset="0.9624" stop-color="#231F20"/>
</linearGradient>
</defs>
</svg>
