<svg width="202" height="131" viewBox="0 0 202 131" fill="none" xmlns="http://www.w3.org/2000/svg">
<path d="M38.1091 102.225V121.999C38.1091 126.531 34.3872 130.253 29.8044 130.253C26.6394 130.253 23.7783 128.456 22.3858 125.595C21.9047 124.632 22.3098 123.417 23.2973 122.936C24.2594 122.455 25.4748 122.885 25.9052 123.847C26.6648 125.341 28.1586 126.253 29.8044 126.253C32.2097 126.253 34.134 124.329 34.134 121.949V119.062C32.9186 119.796 31.5261 120.176 30.0069 120.176C25.6013 120.176 21.9807 116.606 21.9553 112.201V112.15V102.174C21.9553 101.085 22.8415 100.199 23.9303 100.199C25.019 100.199 25.9052 101.085 25.9052 102.174V112.125C25.9052 114.403 27.7788 116.252 30.0322 116.252C32.311 116.252 34.1593 114.403 34.1593 112.125V102.174C34.1593 101.085 35.0455 100.199 36.1342 100.199C37.2483 100.25 38.1091 101.136 38.1091 102.225ZM64.6438 110.175V118.227C64.6438 119.341 63.7576 120.227 62.6436 120.227C61.5549 120.227 60.6687 119.341 60.6687 118.227V110.175C60.6687 106.808 57.9342 104.073 54.5667 104.073C51.1992 104.073 48.4647 106.808 48.4647 110.175V118.227C48.4647 119.341 47.5786 120.227 46.4645 120.227C45.3758 120.227 44.4896 119.341 44.4896 118.227V110.175C44.4896 104.605 49.0218 100.098 54.5667 100.098C60.1116 100.098 64.6438 104.579 64.6438 110.175ZM70.999 110.2C70.999 104.63 75.4805 100.123 81.0255 100.123C84.6461 100.123 87.963 102.048 89.7606 105.136C90.3177 106.099 89.9632 107.314 89.0264 107.871C88.0643 108.403 86.8489 108.073 86.2919 107.137C85.2032 105.263 83.2029 104.098 81.0001 104.098C77.6833 104.098 74.8982 106.833 74.8982 110.2C74.8982 113.517 77.658 116.302 81.0001 116.302C83.0763 116.302 85.0006 115.264 86.14 113.492C86.7476 112.58 87.9883 112.327 88.8998 112.884C89.8113 113.492 90.0645 114.733 89.4568 115.644C87.6085 118.53 84.4436 120.252 81.0001 120.252C75.5058 120.277 70.999 115.745 70.999 110.2ZM114.523 119.898C114.169 120.176 113.713 120.328 113.282 120.328C112.725 120.328 112.168 120.075 111.763 119.594L102.927 107.998L100.445 110.605V118.303C100.445 119.417 99.5593 120.303 98.4452 120.303C97.3565 120.303 96.4703 119.417 96.4703 118.303V94.0466C96.4703 92.9325 97.3565 92.0463 98.4452 92.0463C99.5593 92.0463 100.445 92.9325 100.445 94.0466V104.909L111.561 93.0338C112.194 92.1476 113.434 91.9957 114.32 92.6793C115.207 93.3123 115.359 94.553 114.675 95.4391L105.687 105.111L114.802 117.062C115.536 117.948 115.409 119.189 114.523 119.898ZM121.739 118.277V92.1476C121.739 91.0589 122.625 90.1727 123.739 90.1727C124.828 90.1727 125.714 91.0589 125.714 92.1476V118.252C125.714 119.366 124.828 120.252 123.739 120.252C122.625 120.277 121.739 119.391 121.739 118.277ZM132.019 110.175C132.019 104.605 136.551 100.098 142.096 100.098C147.666 100.098 152.173 104.579 152.173 110.175C152.173 115.72 147.691 120.252 142.096 120.252C136.551 120.227 132.019 115.695 132.019 110.175ZM135.994 110.175C135.994 113.492 138.728 116.277 142.096 116.277C145.463 116.277 148.198 113.517 148.198 110.175C148.198 106.808 145.463 104.073 142.096 104.073C138.728 104.073 135.994 106.782 135.994 110.175ZM174.707 102.098V112.175V112.226C174.657 116.682 171.061 120.277 166.554 120.277C162.098 120.277 158.503 116.657 158.452 112.226V112.175V102.098C158.452 101.009 159.338 100.123 160.427 100.123C161.541 100.123 162.427 101.009 162.427 102.098V112.125C162.427 114.403 164.276 116.302 166.554 116.302C168.884 116.302 170.732 114.429 170.732 112.125V102.098C170.732 101.009 171.618 100.123 172.732 100.123C173.821 100.123 174.707 101.009 174.707 102.098ZM197.191 102.073V92.097C197.191 91.0083 198.077 90.1221 199.166 90.1221C200.28 90.1221 201.166 91.0083 201.166 92.097V110.074V110.124C201.166 115.669 196.634 120.202 191.089 120.202C185.519 120.202 181.012 115.669 181.012 110.124C181.012 104.554 185.493 100.047 191.089 100.047C193.393 100.022 195.52 100.782 197.191 102.073ZM197.191 110.074V110.023C197.191 106.706 194.456 103.972 191.089 103.972C187.721 103.972 184.987 106.706 184.987 110.074C184.987 113.391 187.721 116.176 191.089 116.176C194.482 116.176 197.191 113.441 197.191 110.074ZM13.6506 106.985C12.1568 105.592 10.435 104.959 8.76396 104.352C7.64991 103.946 6.71309 103.592 5.90287 103.06C5.24457 102.63 4.76349 101.896 4.53562 100.984C4.43434 100.579 4.40902 100.174 4.43434 99.7687C4.45966 99.389 4.53562 99.0092 4.66222 98.6294C5.2952 96.8064 7.06755 95.6164 8.99182 95.743C10.4603 95.8442 11.777 96.6545 12.4859 97.9458C12.8404 98.5787 13.524 98.9585 14.2583 98.9332C14.3089 98.9332 14.3595 98.9332 14.4102 98.9332C15.0685 98.9079 15.6508 98.5534 15.98 97.9711C16.3091 97.4141 16.3091 96.7051 16.0053 96.1228C14.6634 93.6161 12.0555 91.9451 9.2197 91.7678C5.1686 91.5146 1.54794 94.1985 0.661757 98.1736C0.56048 98.6041 0.484525 99.0598 0.459205 99.5156C0.433886 100.047 0.433874 100.604 0.509832 101.136C0.813664 103.313 1.97836 105.212 3.70008 106.352C4.89009 107.137 6.23201 107.618 7.39671 108.048C8.73863 108.529 10.0299 109.01 10.9161 109.846C11.4225 110.327 11.8023 110.96 12.0048 111.669C12.2327 112.454 12.2327 113.289 11.9795 113.998C11.9289 114.15 11.8529 114.302 11.777 114.454C10.9414 116.049 9.3463 116.961 7.6499 116.859C6.15606 116.758 4.78881 115.872 4.10519 114.53C3.75072 113.872 3.0671 113.467 2.30752 113.492C2.25688 113.492 2.20623 113.492 2.15559 113.492C1.49729 113.517 0.914954 113.846 0.585802 114.403C0.25665 114.96 0.231319 115.644 0.509832 116.226C1.82644 118.86 4.45966 120.632 7.39671 120.809C7.57394 120.809 7.72586 120.834 7.90309 120.834C9.3463 120.834 10.7642 120.455 12.0301 119.72C13.3974 118.936 14.5115 117.746 15.271 116.328C15.5749 115.745 15.8281 115.087 15.9547 114.403C16.1572 113.441 16.1572 112.428 15.98 111.441C15.7268 109.719 14.8659 108.149 13.6506 106.985Z" fill="#AAAAAA"/>
<path d="M123.234 19.117C122.037 18.9133 120.789 18.8115 119.541 18.8115C118.039 18.8115 116.537 18.9643 115.111 19.2443C110.782 20.1098 106.784 22.2227 103.601 25.4048C102.047 26.9577 102.047 29.5034 103.601 31.0562C105.154 32.6091 107.7 32.6091 109.254 31.0562C112.004 28.3069 115.671 26.7795 119.541 26.7795C127.563 26.7795 134.107 33.3219 134.107 41.3408C134.107 48.2396 129.269 54.0437 122.801 55.5202C123.106 56.8439 122.088 58.1932 122.164 59.5424C122.241 60.8916 123.412 62.2408 123.208 63.59C133.904 61.8335 142.103 52.5163 142.103 41.3408C142.103 30.1907 133.929 20.8735 123.234 19.117Z" fill="#FFBB00"/>
<path d="M99.4139 49.8171C97.6824 48.4424 95.1613 48.7224 93.7863 50.428C91.0106 53.9156 86.8599 55.9012 82.4035 55.9012C74.3822 55.9012 67.8378 49.3589 67.8378 41.34C67.8378 35.5868 71.25 30.419 76.7504 27.9243C77.4125 27.6188 78.1 27.3897 78.8385 27.2115C78.5584 25.7859 79.6279 24.2839 79.6279 22.782C79.6279 21.5346 78.5075 20.3127 78.6857 19.1162C76.8268 19.3708 75.0443 19.9054 73.4145 20.6436C69.3911 22.4765 66.0043 25.3531 63.6106 28.9425C61.1406 32.6338 59.8164 36.936 59.8164 41.34C59.8164 52.5155 67.9906 61.8327 78.6857 63.5892C79.8825 63.7929 81.1303 63.8947 82.3781 63.8947C83.8805 63.8947 85.3829 63.7419 86.8089 63.4619C91.9783 62.4436 96.6128 59.6434 99.9996 55.4176C101.4 53.712 101.12 51.2172 99.4139 49.8171Z" fill="#FF004F"/>
<path d="M122.791 55.5392C121.722 51.0333 119.252 46.8075 115.61 43.8036C111.281 40.1887 106.265 38.7123 101.401 37.2867C98.0904 36.3193 94.9583 35.4029 92.2845 33.85C89.8144 32.4244 87.93 29.9042 87.0133 26.9258C86.6059 25.6275 86.4021 24.2273 86.4021 22.8018C86.4021 21.4526 86.5804 20.1797 86.9369 18.9324C88.643 12.7718 94.2962 8.2405 100.968 8.2405C106.978 8.2405 112.172 11.9063 114.388 17.1249C117.011 16.5139 119.837 16.3358 122.715 16.7685C120.066 7.24769 111.332 0.24707 100.968 0.24707C89.7889 0.24707 80.4689 8.44416 78.7118 19.136C78.5081 20.3325 78.4062 21.5544 78.4062 22.8018C78.4062 24.3037 78.559 25.8057 78.8391 27.2313C80.0105 33.0099 83.3973 37.974 88.2865 40.7997C91.7752 42.8108 95.5185 43.9054 99.1345 44.9746C103.413 46.222 107.436 47.4185 110.492 49.9642C112.376 51.5425 113.751 53.6554 114.566 55.9465C115.483 58.5431 115.686 61.3943 114.973 63.9399C114.821 64.5 114.617 65.06 114.388 65.5946C111.867 71.0933 106.723 74.5045 100.968 74.5045C94.7546 74.5045 89.4324 70.5841 87.3443 65.1109C84.7215 65.7219 81.9204 65.9001 79.0938 65.4928C81.5639 75.2682 90.4256 82.5234 100.968 82.5234C105.399 82.5234 109.677 81.2251 113.369 78.7303C116.96 76.3374 119.812 72.9516 121.671 68.9295C122.435 67.2493 122.944 65.4673 123.199 63.6599C123.581 60.9615 123.428 58.1867 122.791 55.5392Z" fill="#00A1F1"/>
<path d="M76.7499 27.9243C77.412 27.6188 78.0995 27.3897 78.838 27.2115C78.5579 25.7859 78.4051 24.2839 78.4051 22.782C78.4051 21.5346 78.5069 20.3127 78.7107 19.1162C76.8517 19.3708 75.0692 19.9054 73.4395 20.6436C71.8862 21.3564 70.4092 22.2219 69.0596 23.2402L73.8215 29.6553C74.7127 28.9934 75.7058 28.4079 76.7499 27.9243Z" fill="url(#paint0_linear_116_17642)"/>
<path d="M122.78 55.537C123.417 58.1845 123.57 60.9339 123.188 63.6068C127.466 62.894 131.336 61.0102 134.443 58.2609L130.012 51.4385C128.077 53.4496 125.581 54.9006 122.78 55.537Z" fill="url(#paint1_linear_116_17642)"/>
<defs>
<linearGradient id="paint0_linear_116_17642" x1="70.1941" y1="26.3834" x2="80.038" y2="22.7994" gradientUnits="userSpaceOnUse">
<stop offset="0.2142" stop-color="#EA4235" stop-opacity="0"/>
<stop offset="0.2612" stop-color="#DF4235" stop-opacity="0.0711098"/>
<stop offset="0.4347" stop-color="#BD4235" stop-opacity="0.3336"/>
<stop offset="0.5995" stop-color="#A54235" stop-opacity="0.5829"/>
<stop offset="0.7506" stop-color="#964235" stop-opacity="0.8115"/>
<stop offset="0.8752" stop-color="#914235"/>
</linearGradient>
<linearGradient id="paint1_linear_116_17642" x1="122.246" y1="58.2899" x2="134.07" y2="56.2044" gradientUnits="userSpaceOnUse">
<stop offset="0.1258" stop-color="#AE8207"/>
<stop offset="0.3184" stop-color="#C29005" stop-opacity="0.7082"/>
<stop offset="0.7098" stop-color="#F4B401" stop-opacity="0.1152"/>
<stop offset="0.7858" stop-color="#FFBB00" stop-opacity="0"/>
</linearGradient>
</defs>
</svg>
