<svg width="40" height="65" viewBox="0 0 40 65" fill="none" xmlns="http://www.w3.org/2000/svg">
<path d="M0.943278 36.6822C1.46422 36.6822 1.88656 36.256 1.88656 35.73V4.02967C1.88656 2.85784 2.83109 1.90438 3.99195 1.90438H36.008C37.1689 1.90438 38.1134 2.85784 38.1134 4.02967V11.0429C38.1134 11.5689 38.5358 11.9951 39.0567 11.9951C39.5777 11.9951 40 11.5689 40 11.0429V4.02967C40 1.80764 38.2092 0 36.008 0H3.99195C1.79084 0 0 1.80764 0 4.02967V35.73C0 36.2559 0.422337 36.6822 0.943278 36.6822Z" fill="url(#paint0_linear_0_115)"/>
<path d="M40 15.4843C40 14.9583 39.5777 14.5321 39.0567 14.5321C38.5358 14.5321 38.1134 14.9583 38.1134 15.4843V54.8885H1.88656V40.1714C1.88656 39.6454 1.46422 39.2192 0.943278 39.2192C0.422337 39.2192 0 39.6454 0 40.1714V60.9711C0 63.1931 1.79084 65.0008 3.99195 65.0008H28.8869C29.4079 65.0008 29.8302 64.5746 29.8302 64.0486C29.8302 63.5226 29.4079 63.0964 28.8869 63.0964H3.99195C2.83109 63.0964 1.88656 62.1429 1.88656 60.9711V56.7929H38.1134V60.9711C38.1134 62.1429 37.1689 63.0964 36.008 63.0964H33.2889C32.768 63.0964 32.3456 63.5226 32.3456 64.0486C32.3456 64.5746 32.768 65.0008 33.2889 65.0008H36.008C38.2092 65.0008 40 63.1931 40 60.9711V15.4843Z" fill="url(#paint1_linear_0_115)"/>
<path d="M19.9951 36.9966C17.9688 36.9966 16.3203 38.6606 16.3203 40.7062C16.3203 42.7517 17.9688 44.4158 19.9951 44.4158C22.0214 44.4158 23.6698 42.7517 23.6698 40.7062C23.6698 38.6606 22.0214 36.9966 19.9951 36.9966ZM19.9951 42.5113C19.009 42.5113 18.2069 41.7014 18.2069 40.7061C18.2069 39.7107 19.009 38.9008 19.9951 38.9008C20.9811 38.9008 21.7833 39.7107 21.7833 40.7061C21.7833 41.7014 20.9811 42.5113 19.9951 42.5113Z" fill="url(#paint2_linear_0_115)"/>
<path d="M30.5848 38.0378C31.1686 37.398 31.2713 36.4619 30.8404 35.7084L29.7098 33.7317C29.279 32.9782 28.4244 32.6006 27.5836 32.7904L25.4443 33.275C25.4241 33.2795 25.4005 33.273 25.3792 33.2574C24.8559 32.8719 24.2902 32.542 23.6976 32.2767C23.6739 32.2661 23.6569 32.2488 23.6509 32.2293L22.997 30.1173C22.7401 29.287 21.9884 28.729 21.1266 28.729H18.8652C18.0034 28.729 17.2517 29.287 16.9948 30.1172L16.3409 32.2293C16.3348 32.2488 16.3177 32.2661 16.294 32.2767C15.7016 32.542 15.1359 32.8719 14.6124 33.2574C14.5912 33.273 14.5673 33.2798 14.5477 33.275L12.4079 32.7904C11.5668 32.6 10.7127 32.9782 10.2819 33.7316L9.15123 35.7084C8.72034 36.4619 8.82309 37.398 9.40692 38.0378L10.8926 39.6661C10.9065 39.6812 10.9128 39.7051 10.91 39.7318C10.8755 40.0572 10.8579 40.3866 10.8579 40.7109C10.8579 41.0351 10.8754 41.3644 10.91 41.6902C10.9128 41.7166 10.9065 41.7405 10.8926 41.7556L9.40692 43.384C8.82309 44.0237 8.72034 44.9598 9.15123 45.7133L10.2819 47.69C10.7127 48.4434 11.5671 48.8212 12.408 48.6313L14.5474 48.1467C14.5678 48.1425 14.591 48.1487 14.6126 48.1645C15.1365 48.5503 15.7022 48.8803 16.2937 49.1449C16.3175 49.1555 16.3347 49.1729 16.3408 49.1925L16.9946 51.3044C17.2516 52.1347 18.0033 52.6927 18.8651 52.6927H21.1265C21.9882 52.6927 22.74 52.1347 22.9969 51.3046L23.6508 49.1925C23.6568 49.1729 23.6741 49.1555 23.6974 49.145C24.2893 48.8803 24.8552 48.5503 25.3794 48.1642C25.4005 48.1486 25.4239 48.1421 25.4439 48.1467L27.5836 48.6313C28.4246 48.8219 29.2789 48.4434 29.7096 47.6902L30.8403 45.7133C31.2712 44.9598 31.1685 44.0237 30.5846 43.384L29.0989 41.7556C29.0851 41.7405 29.0788 41.7166 29.0815 41.69C29.116 41.3646 29.1336 41.0351 29.1336 40.7109C29.1336 40.3866 29.1161 40.0573 29.0815 39.7315C29.0788 39.7051 29.0851 39.6812 29.0989 39.6661L30.5848 38.0378ZM27.2059 39.9343C27.2334 40.1927 27.2473 40.454 27.2473 40.7107C27.2473 40.9674 27.2335 41.2287 27.2061 41.487C27.1453 42.0588 27.3294 42.6269 27.7115 43.0455L29.1973 44.6739C29.219 44.6978 29.2229 44.7327 29.2068 44.7609L28.076 46.7379C28.06 46.7658 28.028 46.7798 27.9968 46.7728L25.8568 46.2882C25.3067 46.1636 24.7271 46.2868 24.2673 46.6257C23.8516 46.9318 23.4028 47.1936 22.933 47.4038C22.413 47.6366 22.0183 48.0815 21.8504 48.624L21.1965 50.7362C21.1869 50.767 21.1589 50.7878 21.1267 50.7878H18.8653C18.8333 50.7878 18.8051 50.767 18.7955 50.736L18.1417 48.624C17.9738 48.0815 17.5791 47.6366 17.0587 47.4036C16.5893 47.1936 16.1404 46.9318 15.725 46.626C15.3825 46.3735 14.9738 46.2407 14.5601 46.2407C14.4181 46.2407 14.2755 46.2564 14.1347 46.2882L11.9953 46.7728C11.9638 46.7804 11.932 46.7659 11.9159 46.7377L10.7852 44.7609C10.7691 44.7327 10.7729 44.6979 10.7948 44.6739L12.2806 43.0455C12.6626 42.6268 12.8467 42.0588 12.7861 41.4872C12.7587 41.2287 12.7447 40.9674 12.7447 40.7107C12.7447 40.454 12.7586 40.1927 12.786 39.9345C12.8467 39.3627 12.6626 38.7946 12.2805 38.376L10.7948 36.7476C10.773 36.7237 10.7691 36.6888 10.7852 36.6606L11.916 34.6836C11.932 34.6556 11.9637 34.6412 11.9953 34.6487L14.1353 35.1333C14.6855 35.2579 15.2648 35.1347 15.7249 34.7959C16.14 34.49 16.5889 34.2282 17.0587 34.0179C17.579 33.7851 17.9736 33.3403 18.1417 32.7975L18.7955 30.6853C18.8051 30.6545 18.8332 30.6336 18.8653 30.6336H21.1267C21.1588 30.6336 21.1869 30.6545 21.1965 30.6854L21.8504 32.7975C22.0184 33.3403 22.4132 33.7851 22.9333 34.0179C23.4033 34.2282 23.8521 34.49 24.2673 34.7959C24.7274 35.1347 25.3067 35.2574 25.8573 35.1333L27.9968 34.6487C28.0282 34.642 28.06 34.6556 28.0761 34.6838L29.2068 36.6606C29.2229 36.6888 29.2191 36.7236 29.1973 36.7476L27.7114 38.376C27.3294 38.7947 27.1452 39.3627 27.2059 39.9343Z" fill="url(#paint3_linear_0_115)"/>
<path d="M24.217 7.18225H19.3612C18.8403 7.18225 18.418 7.60845 18.418 8.13444C18.418 8.66043 18.8403 9.08663 19.3612 9.08663H24.217C24.7379 9.08663 25.1603 8.66043 25.1603 8.13444C25.1603 7.60845 24.7379 7.18225 24.217 7.18225Z" fill="url(#paint4_linear_0_115)"/>
<path d="M10.4745 9.08663H15.3023C15.8233 9.08663 16.2456 8.66043 16.2456 8.13444C16.2456 7.60845 15.8233 7.18225 15.3023 7.18225H10.4745C9.95359 7.18225 9.53125 7.60845 9.53125 8.13444C9.53125 8.66043 9.95359 9.08663 10.4745 9.08663Z" fill="url(#paint5_linear_0_115)"/>
<path d="M10.4745 13.1925H21.4159C21.9369 13.1925 22.3592 12.7663 22.3592 12.2403C22.3592 11.7143 21.9369 11.2881 21.4159 11.2881H10.4745C9.95359 11.2881 9.53125 11.7143 9.53125 12.2403C9.53125 12.7663 9.95359 13.1925 10.4745 13.1925Z" fill="url(#paint6_linear_0_115)"/>
<path d="M24.5352 12.2403C24.5352 12.7663 24.9575 13.1925 25.4784 13.1925H29.5287C30.0497 13.1925 30.472 12.7663 30.472 12.2403C30.472 11.7143 30.0497 11.2881 29.5287 11.2881H25.4784C24.9575 11.2881 24.5352 11.7143 24.5352 12.2403Z" fill="url(#paint7_linear_0_115)"/>
<path d="M10.4745 17.2923H15.0483C15.5692 17.2923 15.9916 16.8661 15.9916 16.3401C15.9916 15.8141 15.5692 15.3879 15.0483 15.3879H10.4745C9.95359 15.3879 9.53125 15.8141 9.53125 16.3401C9.53125 16.8661 9.95359 17.2923 10.4745 17.2923Z" fill="url(#paint8_linear_0_115)"/>
<path d="M21.4133 15.3879H19.1112C18.5903 15.3879 18.168 15.8141 18.168 16.3401C18.168 16.8661 18.5903 17.2923 19.1112 17.2923H21.4133C21.9343 17.2923 22.3566 16.8661 22.3566 16.3401C22.3566 15.8141 21.9343 15.3879 21.4133 15.3879Z" fill="url(#paint9_linear_0_115)"/>
<path d="M29.5283 15.3879H25.4628C24.9419 15.3879 24.5195 15.8141 24.5195 16.3401C24.5195 16.8661 24.9419 17.2923 25.4628 17.2923H29.5283C30.0493 17.2923 30.4716 16.8661 30.4716 16.3401C30.4716 15.8141 30.0493 15.3879 29.5283 15.3879Z" fill="url(#paint10_linear_0_115)"/>
<path d="M10.4745 21.3982H21.4159C21.9369 21.3982 22.3592 20.972 22.3592 20.446C22.3592 19.92 21.9369 19.4938 21.4159 19.4938H10.4745C9.95359 19.4938 9.53125 19.92 9.53125 20.446C9.53125 20.972 9.95359 21.3982 10.4745 21.3982Z" fill="url(#paint11_linear_0_115)"/>
<path d="M29.5148 19.4938H25.4784C24.9575 19.4938 24.5352 19.92 24.5352 20.446C24.5352 20.972 24.9575 21.3982 25.4784 21.3982H29.5148C30.0357 21.3982 30.4581 20.972 30.4581 20.446C30.4581 19.92 30.0357 19.4938 29.5148 19.4938Z" fill="url(#paint12_linear_0_115)"/>
<path d="M10.4745 25.5001H12.3802C12.9011 25.5001 13.3235 25.0739 13.3235 24.5479C13.3235 24.0219 12.9011 23.5957 12.3802 23.5957H10.4745C9.95359 23.5957 9.53125 24.0219 9.53125 24.5479C9.53125 25.0739 9.95359 25.5001 10.4745 25.5001Z" fill="url(#paint13_linear_0_115)"/>
<path d="M29.5153 23.5957H16.4433C15.9223 23.5957 15.5 24.0219 15.5 24.5479C15.5 25.0739 15.9223 25.5001 16.4433 25.5001H29.5153C30.0363 25.5001 30.4586 25.0739 30.4586 24.5479C30.4586 24.0219 30.0363 23.5957 29.5153 23.5957Z" fill="url(#paint14_linear_0_115)"/>
<path d="M29.52 9.08663C30.041 9.08663 30.4633 8.66043 30.4633 8.13444C30.4633 7.60845 30.041 7.18225 29.52 7.18225H28.2636C27.7426 7.18225 27.3203 7.60845 27.3203 8.13444C27.3203 8.66043 27.7426 9.08663 28.2636 9.08663H29.52Z" fill="url(#paint15_linear_0_115)"/>
<path d="M6.83053 4.20672C6.36455 3.97121 5.79808 4.16216 5.56503 4.63254L4.80274 6.17153C4.66992 6.43967 4.66992 6.75516 4.80274 7.0233L5.56503 8.56229C5.73029 8.89594 6.06333 9.08879 6.40945 9.08879C6.5512 9.08879 6.69508 9.05629 6.83053 8.98799C7.29651 8.75273 7.48542 8.18091 7.25237 7.71053L6.70099 6.59735L7.25237 5.48418C7.48529 5.01392 7.29651 4.44197 6.83053 4.20672Z" fill="url(#paint16_linear_0_115)"/>
<path d="M33.1701 25.4012C33.3056 25.4696 33.4494 25.502 33.5912 25.502C33.9372 25.502 34.2703 25.309 34.4356 24.9755L35.1979 23.4365C35.3307 23.1684 35.3307 22.8529 35.1979 22.5847L34.4356 21.0457C34.2026 20.5755 33.6362 20.3849 33.1701 20.6199C32.7041 20.8552 32.5152 21.427 32.7483 21.8974L33.2996 23.0106L32.7483 24.1237C32.5153 24.5941 32.7041 25.1661 33.1701 25.4012Z" fill="url(#paint17_linear_0_115)"/>
<defs>
<linearGradient id="paint0_linear_0_115" x1="0" y1="18.8368" x2="40" y2="18.8368" gradientUnits="userSpaceOnUse">
<stop stop-color="#00469F"/>
<stop offset="1" stop-color="#1E79D6"/>
</linearGradient>
<linearGradient id="paint1_linear_0_115" x1="0" y1="40.4484" x2="40" y2="40.4484" gradientUnits="userSpaceOnUse">
<stop stop-color="#00469F"/>
<stop offset="1" stop-color="#1E79D6"/>
</linearGradient>
<linearGradient id="paint2_linear_0_115" x1="16.3203" y1="40.8064" x2="23.6698" y2="40.8064" gradientUnits="userSpaceOnUse">
<stop stop-color="#00469F"/>
<stop offset="1" stop-color="#1E79D6"/>
</linearGradient>
<linearGradient id="paint3_linear_0_115" x1="8.88672" y1="41.0347" x2="31.105" y2="41.0347" gradientUnits="userSpaceOnUse">
<stop stop-color="#00469F"/>
<stop offset="1" stop-color="#1E79D6"/>
</linearGradient>
<linearGradient id="paint4_linear_0_115" x1="18.418" y1="8.16018" x2="25.1603" y2="8.16018" gradientUnits="userSpaceOnUse">
<stop stop-color="#00469F"/>
<stop offset="1" stop-color="#1E79D6"/>
</linearGradient>
<linearGradient id="paint5_linear_0_115" x1="9.53125" y1="8.16018" x2="16.2456" y2="8.16018" gradientUnits="userSpaceOnUse">
<stop stop-color="#00469F"/>
<stop offset="1" stop-color="#1E79D6"/>
</linearGradient>
<linearGradient id="paint6_linear_0_115" x1="9.53125" y1="12.266" x2="22.3592" y2="12.266" gradientUnits="userSpaceOnUse">
<stop stop-color="#00469F"/>
<stop offset="1" stop-color="#1E79D6"/>
</linearGradient>
<linearGradient id="paint7_linear_0_115" x1="24.5352" y1="12.266" x2="30.472" y2="12.266" gradientUnits="userSpaceOnUse">
<stop stop-color="#00469F"/>
<stop offset="1" stop-color="#1E79D6"/>
</linearGradient>
<linearGradient id="paint8_linear_0_115" x1="9.53125" y1="16.3659" x2="15.9916" y2="16.3659" gradientUnits="userSpaceOnUse">
<stop stop-color="#00469F"/>
<stop offset="1" stop-color="#1E79D6"/>
</linearGradient>
<linearGradient id="paint9_linear_0_115" x1="18.168" y1="16.3659" x2="22.3566" y2="16.3659" gradientUnits="userSpaceOnUse">
<stop stop-color="#00469F"/>
<stop offset="1" stop-color="#1E79D6"/>
</linearGradient>
<linearGradient id="paint10_linear_0_115" x1="24.5195" y1="16.3659" x2="30.4716" y2="16.3659" gradientUnits="userSpaceOnUse">
<stop stop-color="#00469F"/>
<stop offset="1" stop-color="#1E79D6"/>
</linearGradient>
<linearGradient id="paint11_linear_0_115" x1="9.53125" y1="20.4717" x2="22.3592" y2="20.4717" gradientUnits="userSpaceOnUse">
<stop stop-color="#00469F"/>
<stop offset="1" stop-color="#1E79D6"/>
</linearGradient>
<linearGradient id="paint12_linear_0_115" x1="24.5352" y1="20.4717" x2="30.4581" y2="20.4717" gradientUnits="userSpaceOnUse">
<stop stop-color="#00469F"/>
<stop offset="1" stop-color="#1E79D6"/>
</linearGradient>
<linearGradient id="paint13_linear_0_115" x1="9.53125" y1="24.5736" x2="13.3235" y2="24.5736" gradientUnits="userSpaceOnUse">
<stop stop-color="#00469F"/>
<stop offset="1" stop-color="#1E79D6"/>
</linearGradient>
<linearGradient id="paint14_linear_0_115" x1="15.5" y1="24.5736" x2="30.4586" y2="24.5736" gradientUnits="userSpaceOnUse">
<stop stop-color="#00469F"/>
<stop offset="1" stop-color="#1E79D6"/>
</linearGradient>
<linearGradient id="paint15_linear_0_115" x1="27.3203" y1="8.16018" x2="30.4633" y2="8.16018" gradientUnits="userSpaceOnUse">
<stop stop-color="#00469F"/>
<stop offset="1" stop-color="#1E79D6"/>
</linearGradient>
<linearGradient id="paint16_linear_0_115" x1="4.70313" y1="6.66465" x2="7.35219" y2="6.66465" gradientUnits="userSpaceOnUse">
<stop stop-color="#00469F"/>
<stop offset="1" stop-color="#1E79D6"/>
</linearGradient>
<linearGradient id="paint17_linear_0_115" x1="32.6484" y1="23.078" x2="35.2975" y2="23.078" gradientUnits="userSpaceOnUse">
<stop stop-color="#00469F"/>
<stop offset="1" stop-color="#1E79D6"/>
</linearGradient>
</defs>
</svg>
