<svg width="90" height="90" viewBox="0 0 90 90" fill="none" xmlns="http://www.w3.org/2000/svg">
<path opacity="0.1" d="M49.3485 62.3388C49.8611 62.3388 50.2765 61.9234 50.2765 61.4108V59.8045C50.2765 59.292 49.8611 58.8765 49.3485 58.8765H49.1629V55.8404C49.1629 54.8158 48.3314 53.9844 47.3069 53.9844H42.8525C41.8279 53.9844 40.9965 54.8158 40.9965 55.8404V58.8765H40.8108C40.2983 58.8765 39.8828 59.292 39.8828 59.8045V61.4108C39.8828 61.9234 40.2983 62.3388 40.8108 62.3388H40.9965V76.6519H40.8108C40.2983 76.6519 39.8828 77.0674 39.8828 77.5799V79.1863C39.8828 79.6988 40.2983 80.1143 40.8108 80.1143H40.9965V83.0789C40.9965 84.1053 41.8279 84.9349 42.8525 84.9349H47.3069C48.3314 84.9349 49.1629 84.1053 49.1629 83.0789V80.1143H49.3485C49.8611 80.1143 50.2765 79.6988 50.2765 79.1863V77.5799C50.2765 77.0674 49.8611 76.6519 49.3485 76.6519H49.1629V62.3388H49.3485Z" fill="#2626BC"/>
<path d="M45.0823 52.0981C59.0017 52.0981 70.2856 40.8142 70.2856 26.8948C70.2856 12.9753 59.0017 1.69141 45.0823 1.69141C31.1628 1.69141 19.8789 12.9753 19.8789 26.8948C19.8789 40.8142 31.1628 52.0981 45.0823 52.0981Z" fill="white"/>
<path d="M88.9827 22.1138V31.2064C88.9827 32.2328 88.1512 33.0624 87.1267 33.0624H3.03179C2.00725 33.0624 1.17578 32.2328 1.17578 31.2064V22.1138C1.17578 21.0893 2.00725 20.2578 3.03179 20.2578H87.1267C88.1512 20.2578 88.9827 21.0893 88.9827 22.1138Z" fill="white"/>
<path d="M70.2838 26.8948C70.2838 29.0218 70.0202 31.0892 69.5228 33.0622H20.6398C20.1425 31.0892 19.8789 29.0218 19.8789 26.8948C19.8789 24.5971 20.1871 22.3717 20.7624 20.2578H69.4005C69.9756 22.3717 70.2838 24.5969 70.2838 26.8948Z" fill="#65BEFE"/>
<path d="M13.8244 33.0594H3.0357C2.0106 33.0594 1.17969 32.2285 1.17969 31.2034V22.1099C1.17969 21.0848 2.0106 20.2539 3.0357 20.2539H13.8244V33.0594Z" fill="white"/>
<path d="M49.1625 59.7388V86.9773C49.1625 88.0037 48.331 88.8334 47.3065 88.8334H42.8521C41.8276 88.8334 40.9961 88.0037 40.9961 86.9773V59.7388C40.9961 58.7143 41.8276 57.8828 42.8521 57.8828H47.3065C48.331 57.883 49.1625 58.7145 49.1625 59.7388Z" fill="white"/>
<path d="M49.3483 66.2358H40.8108C40.2983 66.2358 39.8828 65.8203 39.8828 65.3078V63.7014C39.8828 63.1889 40.2983 62.7734 40.8108 62.7734H49.3483C49.8609 62.7734 50.2763 63.1889 50.2763 63.7014V65.3078C50.2763 65.8203 49.8609 66.2358 49.3483 66.2358Z" fill="white"/>
<path d="M49.3483 84.0131H40.8108C40.2983 84.0131 39.8828 83.5977 39.8828 83.0851V81.4788C39.8828 80.9662 40.2983 80.5508 40.8108 80.5508H49.3483C49.8609 80.5508 50.2763 80.9662 50.2763 81.4788V83.0851C50.2763 83.5977 49.8609 84.0131 49.3483 84.0131Z" fill="white"/>
<path d="M37.4103 30.097C37.0726 30.097 36.7589 29.913 36.5953 29.6124L35.8143 28.1773L35.0334 29.6124C34.8564 29.9379 34.503 30.1259 34.1336 30.0931C33.7645 30.0591 33.451 29.809 33.3361 29.4569L31.8508 24.9076C31.6917 24.4205 31.9577 23.8966 32.445 23.7375C32.9319 23.579 33.4562 23.8445 33.6151 24.3318L34.4321 26.8344L34.9992 25.7924C35.1616 25.4937 35.4744 25.3079 35.8143 25.3079C36.1542 25.3079 36.467 25.4937 36.6295 25.7924L37.1966 26.8344L38.0136 24.3318C38.1727 23.8447 38.6969 23.5783 39.1837 23.7375C39.6708 23.8966 39.937 24.4205 39.7777 24.9076L38.2924 29.4569C38.1775 29.809 37.864 30.0591 37.4949 30.0931C37.4665 30.0957 37.4383 30.097 37.4103 30.097Z" fill="#408CD9"/>
<path d="M46.6759 30.0968C46.3382 30.0968 46.0245 29.9128 45.8609 29.6123L45.08 28.1773L44.299 29.6124C44.1221 29.9379 43.7694 30.1259 43.3992 30.0931C43.0301 30.0591 42.7166 29.809 42.6017 29.4569L41.1164 24.9076C40.9573 24.4205 41.2233 23.8966 41.7106 23.7375C42.1979 23.579 42.7216 23.8445 42.8807 24.3318L43.6977 26.8344L44.2648 25.7924C44.4273 25.4937 44.7401 25.3079 45.08 25.3079C45.4199 25.3079 45.7327 25.4937 45.8951 25.7924L46.4622 26.8344L47.2792 24.3318C47.4383 23.8447 47.9627 23.5783 48.4493 23.7375C48.9364 23.8966 49.2026 24.4205 49.0433 24.9076L47.558 29.4569C47.4431 29.809 47.1296 30.0591 46.7605 30.0931C46.7321 30.0955 46.7039 30.0968 46.6759 30.0968Z" fill="#408CD9"/>
<path d="M55.9454 30.097C55.6078 30.097 55.294 29.913 55.1305 29.6124L54.3495 28.1773L53.5685 29.6124C53.3916 29.9379 53.0385 30.1259 52.6687 30.0931C52.2997 30.0591 51.9861 29.809 51.8712 29.4569L50.3859 24.9076C50.2268 24.4205 50.4929 23.8966 50.9802 23.7375C51.4675 23.579 51.9913 23.8445 52.1502 24.3318L52.9672 26.8344L53.5344 25.7924C53.6968 25.4937 54.0096 25.3079 54.3495 25.3079C54.6894 25.3079 55.0022 25.4937 55.1646 25.7924L55.7318 26.8344L56.5488 24.3318C56.7078 23.8447 57.2319 23.5783 57.7188 23.7375C58.2059 23.8966 58.4721 24.4205 58.3131 24.9076L56.8278 29.4569C56.7129 29.809 56.3993 30.0591 56.0303 30.0931C56.0017 30.0957 55.9735 30.097 55.9454 30.097Z" fill="#408CD9"/>
<path d="M45.0805 47.2832C52.1145 47.2832 58.5611 43.729 62.3257 37.7758C62.5999 37.3427 62.4705 36.7692 62.0374 36.4954C61.6034 36.2214 61.0307 36.3508 60.7569 36.7839C57.3344 42.1958 51.474 45.4269 45.0805 45.4269C38.6869 45.4269 32.8265 42.1958 29.404 36.7837C29.1302 36.3506 28.5574 36.2214 28.1235 36.4952C27.6904 36.7692 27.5612 37.3425 27.8352 37.7756C31.5998 43.7292 38.0464 47.2832 45.0805 47.2832Z" fill="#408CD9"/>
<path d="M62.3258 16.0112C58.5612 10.058 52.1142 6.50391 45.0805 6.50391C38.0469 6.50391 31.5999 10.0581 27.8353 16.0112C27.5611 16.4445 27.6905 17.0179 28.1236 17.2917C28.5569 17.5653 29.1303 17.4365 29.4041 17.0034C32.8267 11.5913 38.6872 8.3601 45.0805 8.3601C51.4739 8.3601 57.3345 11.5911 60.757 17.0034C60.9335 17.2826 61.2344 17.4356 61.5422 17.4356C61.7117 17.4356 61.8834 17.389 62.0375 17.2917C62.4708 17.0177 62.6 16.4445 62.3258 16.0112Z" fill="#408CD9"/>
<path d="M87.1276 19.3278H70.0942C66.8422 8.59621 56.8598 0.761719 45.0809 0.761719C33.302 0.761719 23.3196 8.59621 20.0676 19.3278H3.0342C1.49897 19.3278 0.25 20.5769 0.25 22.112V31.2055C0.25 32.7407 1.49916 33.9897 3.0342 33.9897H19.9291C22.9482 44.6759 32.6103 52.6014 44.1527 53.0066V56.9542H42.8538C41.3186 56.9542 40.0696 58.2034 40.0696 59.7384V62.0027C39.4148 62.2899 38.9559 62.9433 38.9559 63.7027V65.3091C38.9559 66.0685 39.4148 66.7222 40.0696 67.0092V79.7779C39.4148 80.0651 38.9559 80.7185 38.9559 81.478V83.0843C38.9559 83.8438 39.4148 84.4974 40.0696 84.7844V86.9775C40.0696 88.5127 41.3188 89.7617 42.8538 89.7617H47.308C48.8432 89.7617 50.0922 88.5126 50.0922 86.9775V84.7844C50.7469 84.4972 51.2058 83.8438 51.2058 83.0843V81.478C51.2058 80.7185 50.7469 80.0649 50.0922 79.7779V71.3498C50.0922 70.837 49.6767 70.4216 49.164 70.4216C48.6513 70.4216 48.2358 70.837 48.2358 71.3498V79.6222H41.926V67.1655H49.3497C50.3733 67.1655 51.2058 66.3329 51.2058 65.3093V63.7029C51.2058 62.9435 50.7469 62.2899 50.0922 62.0029V59.7386C50.0922 58.2034 48.843 56.9544 47.308 56.9544H46.0091V53.0068C57.5515 52.6016 67.2136 44.6761 70.2328 33.9899H87.1278C88.663 33.9899 89.912 32.7407 89.912 31.2057V22.1122C89.9118 20.5767 88.6626 19.3278 87.1276 19.3278ZM49.3495 81.478L49.3508 83.0841L40.8123 83.0843L40.8121 81.4782L49.3495 81.478ZM47.308 87.9057H42.8538C42.3422 87.9057 41.926 87.4895 41.926 86.9779V84.9407H48.2358V86.9779C48.2358 87.4893 47.8196 87.9057 47.308 87.9057ZM40.8123 65.3093L40.8121 63.7031L49.3495 63.7029L49.3508 65.3091L40.8123 65.3093ZM48.2358 59.7384V61.8466H41.926V59.7384C41.926 59.2268 42.3422 58.8106 42.8538 58.8106H47.308C47.8196 58.8106 48.2358 59.2268 48.2358 59.7384ZM45.0809 2.6181C55.8255 2.6181 64.9605 9.63579 68.1474 19.3278H22.0144C25.2013 9.63579 34.3362 2.6181 45.0809 2.6181ZM2.10638 31.2055V22.112C2.10638 21.6004 2.52258 21.1842 3.0342 21.1842H12.8948V32.1333H3.0342C2.52258 32.1333 2.10638 31.7171 2.10638 31.2055ZM14.7511 32.1333V21.1842H19.5794C19.168 23.0225 18.9495 24.9328 18.9495 26.8935C18.9495 28.6877 19.1315 30.4401 19.4775 32.1335L14.7511 32.1333ZM45.0809 51.1685C31.6956 51.1685 20.8057 40.2787 20.8057 26.8933C20.8057 24.9272 21.0424 23.0157 21.4855 21.184H68.6761C69.1194 23.0157 69.3559 24.9272 69.3559 26.8933C69.3559 28.6919 69.1574 30.4451 68.7847 32.1333H25.7357C25.223 32.1333 24.8075 32.5487 24.8075 33.0615C24.8075 33.5742 25.223 33.9897 25.7357 33.9897H68.297C65.2544 43.9237 55.9983 51.1685 45.0809 51.1685ZM88.0554 31.2055C88.0554 31.7171 87.6392 32.1333 87.1276 32.1333H70.6843C71.0303 30.4399 71.2123 28.6875 71.2123 26.8933C71.2123 24.9326 70.9936 23.0223 70.5824 21.184H87.1276C87.6392 21.184 88.0554 21.6002 88.0554 22.1118V31.2055Z" fill="#408CD9"/>
<path d="M10.3288 24.0444C9.21279 22.9279 7.39669 22.9279 6.28063 24.0444C5.3944 24.9304 5.21451 26.257 5.7356 27.325L4.42035 28.6402C4.0578 29.0026 4.0578 29.5903 4.42035 29.9527C4.60153 30.134 4.83915 30.2246 5.07658 30.2246C5.31401 30.2246 5.55182 30.134 5.73281 29.9527L7.04806 28.6374C7.44347 28.8303 7.87359 28.9296 8.30465 28.9296C9.03773 28.9296 9.77063 28.6506 10.3287 28.0924C11.4451 26.9765 11.4451 25.1604 10.3288 24.0444ZM9.01638 26.7799C8.62413 27.1722 7.98553 27.1722 7.59328 26.7799C7.20103 26.3877 7.20103 25.7491 7.59328 25.3568C7.7895 25.1606 8.04717 25.0626 8.30483 25.0626C8.5625 25.0626 8.82016 25.1606 9.01638 25.3568C9.40864 25.7491 9.40864 26.3877 9.01638 26.7799Z" fill="#408CD9"/>
<path d="M68.2427 58.212C67.73 58.212 67.3145 57.7965 67.3145 57.2838C67.3145 56.6701 66.8153 56.1709 66.2016 56.1709C65.6889 56.1709 65.2734 55.7555 65.2734 55.2427C65.2734 54.73 65.6889 54.3145 66.2016 54.3145C66.8153 54.3145 67.3145 53.8153 67.3145 53.2016C67.3145 52.6889 67.73 52.2734 68.2427 52.2734C68.7555 52.2734 69.1709 52.6889 69.1709 53.2016C69.1709 53.8153 69.6701 54.3145 70.2838 54.3145C70.7965 54.3145 71.212 54.73 71.212 55.2427C71.212 55.7555 70.7965 56.1709 70.2838 56.1709C69.6701 56.1709 69.1709 56.6701 69.1709 57.2838C69.1709 57.7964 68.7555 58.212 68.2427 58.212Z" fill="#FF6C6C"/>
<path d="M74.106 14.9386C73.5933 14.9386 73.1778 14.5231 73.1778 14.0104C73.1778 13.3967 72.6786 12.8975 72.0649 12.8975C71.5522 12.8975 71.1367 12.482 71.1367 11.9693C71.1367 11.4566 71.5522 11.0411 72.0649 11.0411C72.6786 11.0411 73.1778 10.5419 73.1778 9.92819C73.1778 9.41546 73.5933 9 74.106 9C74.6187 9 75.0342 9.41546 75.0342 9.92819C75.0342 10.5419 75.5334 11.0411 76.1471 11.0411C76.6598 11.0411 77.0753 11.4566 77.0753 11.9693C77.0753 12.482 76.6598 12.8975 76.1471 12.8975C75.5334 12.8975 75.0342 13.3967 75.0342 14.0104C75.0342 14.5231 74.6187 14.9386 74.106 14.9386Z" fill="#65B5FE"/>
<path d="M13.8248 44.7901C13.312 44.7901 12.8966 44.3747 12.8966 43.8619C12.8966 43.2482 12.3974 42.749 11.7837 42.749C11.2709 42.749 10.8555 42.3336 10.8555 41.8208C10.8555 41.3081 11.2709 40.8927 11.7837 40.8927C12.3974 40.8927 12.8966 40.3935 12.8966 39.7798C12.8966 39.267 13.312 38.8516 13.8248 38.8516C14.3375 38.8516 14.7529 39.267 14.7529 39.7798C14.7529 40.3935 15.2521 40.8927 15.8658 40.8927C16.3786 40.8927 16.794 41.3081 16.794 41.8208C16.794 42.3336 16.3786 42.749 15.8658 42.749C15.2521 42.749 14.7529 43.2482 14.7529 43.8619C14.7529 44.3747 14.3375 44.7901 13.8248 44.7901Z" fill="#FFAB66"/>
<path d="M19.8792 56.5827C19.6418 56.5827 19.404 56.4921 19.223 56.3107L17.1821 54.2698C16.8195 53.9074 16.8195 53.3197 17.1821 52.9573L19.223 50.9164C19.5852 50.5539 20.1733 50.5539 20.5354 50.9164L22.5763 52.9573C22.9389 53.3197 22.9389 53.9074 22.5763 54.2698L20.5354 56.3107C20.3544 56.4919 20.1168 56.5827 19.8792 56.5827ZM19.1509 53.6136L19.8792 54.3418L20.6075 53.6136L19.8792 52.8853L19.1509 53.6136Z" fill="#65BEFE"/>
</svg>
