<svg width="91" height="89" viewBox="0 0 91 89" fill="none" xmlns="http://www.w3.org/2000/svg">
<g opacity="0.1">
<path opacity="0.1" d="M89.3804 83.0597L76.1871 60.2085C75.6866 59.3414 74.6487 58.9793 73.737 59.2976L69.8493 52.5637C78.4113 46.217 81.0372 34.3183 75.5802 24.8667C70.416 15.9219 59.7344 12.1505 50.3164 15.3664V12.1105C50.3164 11.0484 49.4554 10.1875 48.3934 10.1875H8.56418C7.5021 10.1875 6.64116 11.0484 6.64116 12.1105V38.8443H3.13396C2.07187 38.8443 1.21094 39.7053 1.21094 40.7674V70.283C1.21094 71.3451 2.07187 72.206 3.13396 72.206H16.5434V77.8591C16.5434 78.3901 16.9739 78.8206 17.5049 78.8206H45.0646C45.5956 78.8206 46.0261 78.3901 46.0261 77.8591V58.6368C46.0261 58.1059 45.5956 57.6753 45.0646 57.6753H26.1187V42.8827H37.2258C37.6366 43.9878 38.1435 45.0738 38.7527 46.1289C44.2096 55.5806 55.827 59.2558 65.6044 55.0142L69.4922 61.7481C68.7606 62.3786 68.5555 63.4584 69.056 64.3255L82.2493 87.1767C82.8158 88.1579 84.0704 88.494 85.0515 87.9275L88.6295 85.8618C89.6106 85.2954 89.9467 84.0409 89.3804 83.0597Z" fill="#0000CC"/>
<path opacity="0.1" d="M51.399 71.5363H54.9726C55.5035 71.5363 55.9341 71.1057 55.9341 70.5748C55.9341 70.0438 55.5035 69.6133 54.9726 69.6133H51.399C50.8681 69.6133 50.4375 70.0438 50.4375 70.5748C50.4375 71.1057 50.8681 71.5363 51.399 71.5363Z" fill="#0000CC"/>
<path opacity="0.1" d="M62.6646 73.5312H51.399C50.8681 73.5312 50.4375 73.9618 50.4375 74.4928C50.4375 75.0237 50.8681 75.4543 51.399 75.4543H62.6646C63.1956 75.4543 63.6261 75.0237 63.6261 74.4928C63.6261 73.9618 63.1956 73.5312 62.6646 73.5312Z" fill="#0000CC"/>
<path opacity="0.1" d="M62.6646 77.4531H51.399C50.8681 77.4531 50.4375 77.8837 50.4375 78.4146C50.4375 78.9456 50.8681 79.3761 51.399 79.3761H62.6646C63.1956 79.3761 63.6261 78.9456 63.6261 78.4146C63.6261 77.8837 63.1956 77.4531 62.6646 77.4531Z" fill="#0000CC"/>
</g>
<path d="M33.409 31.6812C38.3357 31.6812 42.3297 27.6873 42.3297 22.7605C42.3297 17.8338 38.3357 13.8398 33.409 13.8398C28.4822 13.8398 24.4883 17.8338 24.4883 22.7605C24.4883 27.6873 28.4822 31.6812 33.409 31.6812Z" fill="#99C8FF"/>
<path d="M43.1664 34.2324L36.8097 23.7216C36.4356 23.103 35.5384 23.103 35.1641 23.7216L31.3973 29.9501L23.1562 16.3234C22.7822 15.7047 21.8849 15.7047 21.5107 16.3234L10.6797 34.2324H43.1664Z" fill="#339DFF"/>
<path d="M57.1685 52.1495C68.9113 52.1495 78.4307 42.6301 78.4307 30.8872C78.4307 19.1444 68.9113 9.625 57.1685 9.625C45.4257 9.625 35.9062 19.1444 35.9062 30.8872C35.9062 42.6301 45.4257 52.1495 57.1685 52.1495Z" fill="#94CCFF"/>
<path d="M65.9202 46.0452C57.8128 50.7258 47.5188 48.1855 42.4844 40.4184L55.9128 13.423C62.3876 12.9615 68.8643 16.1364 72.3277 22.1343C77.1603 30.5072 74.293 41.2126 65.9202 46.0452Z" fill="#D9EFFF"/>
<path d="M67.9353 33.4323H66.0075V31.5045C66.0075 30.9735 65.5769 30.543 65.046 30.543H63.1008C62.5699 30.543 62.1393 30.9735 62.1393 31.5045V33.4323H60.2115C59.6806 33.4323 59.25 33.8629 59.25 34.3938V36.3389C59.25 36.8699 59.6806 37.3005 60.2115 37.3005H62.1393V39.2283C62.1393 39.7592 62.5699 40.1898 63.1008 40.1898H65.046C65.5769 40.1898 66.0075 39.7592 66.0075 39.2283V37.3005H67.9353C68.4663 37.3005 68.8968 36.8699 68.8968 36.3389V34.3938C68.8968 33.8629 68.4665 33.4323 67.9353 33.4323Z" fill="#FF6C6C"/>
<path d="M88.6299 81.2497L85.052 83.3154C84.0708 83.882 82.8162 83.5458 82.2497 82.5647L69.0565 59.7135C68.4899 58.7323 68.8261 57.4778 69.8072 56.9112L73.3852 54.8455C74.3663 54.279 75.6209 54.6152 76.1874 55.5963L89.3807 78.4475C89.9472 79.4286 89.611 80.6832 88.6299 81.2497Z" fill="#66B6FF"/>
<path d="M76.3828 72.4023L83.5134 68.2854L85.2977 71.3757L78.1671 75.4927L76.3828 72.4023Z" fill="#BBDAFF"/>
<path d="M79.582 77.9414L82.2516 82.5651C82.8181 83.5462 84.0727 83.8824 85.0538 83.3159L88.6318 81.2502C89.6129 80.6836 89.949 79.4291 89.3825 78.4479L86.713 73.8242L79.582 77.9414Z" fill="#BBDAFF"/>
<path d="M24.1956 67.5922H3.13396C2.07187 67.5922 1.21094 66.7312 1.21094 65.6691V36.1535C1.21094 35.0914 2.07187 34.2305 3.13396 34.2305H24.1956C25.2577 34.2305 26.1187 35.0914 26.1187 36.1535V65.6691C26.1187 66.7312 25.2577 67.5922 24.1956 67.5922Z" fill="white"/>
<path d="M11.6054 42.0207H8.03182C7.50088 42.0207 7.07031 41.5901 7.07031 41.0592C7.07031 40.5282 7.50088 40.0977 8.03182 40.0977H11.6054C12.1363 40.0977 12.5669 40.5282 12.5669 41.0592C12.5669 41.5901 12.1363 42.0207 11.6054 42.0207Z" fill="#404040"/>
<path d="M19.2974 45.9386H8.03182C7.50088 45.9386 7.07031 45.5081 7.07031 44.9771C7.07031 44.4462 7.50088 44.0156 8.03182 44.0156H19.2974C19.8284 44.0156 20.259 44.4462 20.259 44.9771C20.259 45.5083 19.8284 45.9386 19.2974 45.9386Z" fill="#C8C8C8"/>
<path d="M19.2974 49.8605H8.03182C7.50088 49.8605 7.07031 49.43 7.07031 48.899C7.07031 48.3681 7.50088 47.9375 8.03182 47.9375H19.2974C19.8284 47.9375 20.259 48.3681 20.259 48.899C20.259 49.43 19.8284 49.8605 19.2974 49.8605Z" fill="#C8C8C8"/>
<path d="M19.2969 57.7785H11.4928C10.9618 57.7785 10.5312 57.3479 10.5312 56.817C10.5312 56.286 10.9618 55.8555 11.4928 55.8555H19.2969C19.8279 55.8555 20.2585 56.286 20.2585 56.817C20.2585 57.3479 19.8279 57.7785 19.2969 57.7785Z" fill="#C8C8C8"/>
<path d="M8.03182 57.7787C8.56285 57.7787 8.99333 57.3482 8.99333 56.8172C8.99333 56.2862 8.56285 55.8557 8.03182 55.8557C7.5008 55.8557 7.07031 56.2862 7.07031 56.8172C7.07031 57.3482 7.5008 57.7787 8.03182 57.7787Z" fill="#404040"/>
<path d="M8.03182 61.6967C8.56285 61.6967 8.99333 61.2662 8.99333 60.7352C8.99333 60.2042 8.56285 59.7737 8.03182 59.7737C7.5008 59.7737 7.07031 60.2042 7.07031 60.7352C7.07031 61.2662 7.5008 61.6967 8.03182 61.6967Z" fill="#404040"/>
<path d="M19.2969 61.6965H11.4928C10.9618 61.6965 10.5312 61.2659 10.5312 60.7349C10.5312 60.204 10.9618 59.7734 11.4928 59.7734H19.2969C19.8279 59.7734 20.2585 60.204 20.2585 60.7349C20.2585 61.2659 19.8279 61.6965 19.2969 61.6965Z" fill="#C8C8C8"/>
<path d="M90.2134 77.967L77.0204 55.1158C76.4319 54.0964 75.3333 53.5541 74.2312 53.6184L71.1023 48.1997C79.4941 41.4537 81.9604 29.382 76.4133 19.774C71.2559 10.841 60.7905 6.84264 51.2779 9.45487V7.49781C51.2779 5.90728 49.9839 4.61328 48.3934 4.61328H8.56552C6.97499 4.61328 5.68099 5.90728 5.68099 7.49781V28.851C5.68099 29.382 6.11155 29.8125 6.6425 29.8125C7.17345 29.8125 7.60401 29.382 7.60401 28.851V7.49781C7.60401 6.96763 8.03534 6.5363 8.56552 6.5363H48.3932C48.9233 6.5363 49.3547 6.96763 49.3547 7.49781V10.08C48.2314 10.5025 47.1276 11.0202 46.055 11.6394C36.9547 16.8935 32.9754 27.6562 35.8895 37.3083H27.0807V36.1552C27.0807 34.5647 25.7867 33.2707 24.1962 33.2707H3.13453C1.544 33.2707 0.25 34.5647 0.25 36.1552V65.6711C0.25 67.2616 1.544 68.5556 3.13453 68.5556H15.5828V73.2478C15.5828 74.3081 16.4455 75.1708 17.5058 75.1708H45.0646C46.125 75.1708 46.9876 74.3081 46.9876 73.2478V54.0253C46.9876 52.9649 46.125 52.1022 45.0646 52.1022H27.0807V39.2315H36.5697C36.951 40.1709 37.3996 41.0953 37.9206 41.9977C42.0324 49.1196 49.5176 53.1053 57.2042 53.1053C59.8872 53.1053 62.5943 52.6166 65.1917 51.6092L68.3201 57.0286C68.1441 57.2955 68.0081 57.5903 67.923 57.9082C67.7147 58.6855 67.8216 59.4976 68.2239 60.1945L70.0308 63.324C70.2963 63.784 70.8844 63.9415 71.3442 63.6759C71.8042 63.4104 71.9617 62.8225 71.6961 62.3625L69.8893 59.233C69.7437 58.9809 69.705 58.6872 69.7804 58.4061C69.8558 58.1249 70.0362 57.8898 70.2883 57.7444L73.8661 55.6787C74.3866 55.3787 75.0543 55.5573 75.3549 56.0777L88.5479 78.9289C88.6935 79.181 88.7321 79.4747 88.6568 79.756C88.5814 80.0372 88.401 80.2722 88.1489 80.4177L84.5711 82.4834C84.319 82.6288 84.0252 82.6675 83.7442 82.5923C83.4631 82.5169 83.2279 82.3365 83.0825 82.0844L74.466 67.1604C74.2007 66.7006 73.6126 66.5432 73.1526 66.8085C72.6926 67.0741 72.5351 67.662 72.8007 68.122L81.4172 83.0459C81.8195 83.7428 82.4693 84.2415 83.2465 84.4497C83.5061 84.5193 83.7694 84.5538 84.0313 84.5538C84.5532 84.5538 85.0686 84.4168 85.5328 84.149L89.1106 82.0833C89.8075 81.681 90.3061 81.0312 90.5144 80.2539C90.7227 79.4766 90.6159 78.6639 90.2134 77.967ZM2.17302 65.6711V36.1554C2.17302 35.6252 2.60435 35.1939 3.13453 35.1939H24.1962C24.7264 35.1939 25.1577 35.6252 25.1577 36.1554V65.6711C25.1577 66.2012 24.7264 66.6326 24.1962 66.6326H3.13453C2.60435 66.6326 2.17302 66.2012 2.17302 65.6711ZM45.0646 54.0253V73.2478H17.5058V68.5556H24.1964C25.7869 68.5556 27.0809 67.2616 27.0809 65.6711V54.0253H45.0646ZM57.201 51.1825C50.18 51.1821 43.3416 47.541 39.5859 41.036C33.989 31.3419 37.3223 18.9017 47.0165 13.3048C50.2056 11.4635 53.6907 10.5889 57.1327 10.5889C64.1537 10.5889 70.9921 14.2303 74.7478 20.7353C80.3447 30.4294 77.0113 42.8696 67.3172 48.4666C64.1281 50.3081 60.6432 51.1826 57.201 51.1825ZM68.2789 50.1321C68.7122 49.8819 69.1325 49.6181 69.5423 49.3437L72.4051 54.3014L69.8258 55.7906L66.9643 50.8338C67.407 50.6161 67.8455 50.3823 68.2789 50.1321Z" fill="#408CD9"/>
<path d="M39.1502 61.7018H37.2223V59.774C37.2223 59.2431 36.7918 58.8125 36.2608 58.8125H34.3157C33.7847 58.8125 33.3542 59.2431 33.3542 59.774V61.7018H31.4264C30.8954 61.7018 30.4648 62.1324 30.4648 62.6634V64.6085C30.4648 65.1394 30.8954 65.57 31.4264 65.57H33.3542V67.4978C33.3542 68.0288 33.7847 68.4593 34.3157 68.4593H36.2608C36.7918 68.4593 37.2223 68.0288 37.2223 67.4978V65.57H39.1502C39.6811 65.57 40.1117 65.1394 40.1117 64.6085V62.6634C40.1117 62.1324 39.6813 61.7018 39.1502 61.7018Z" fill="#C8C8C8"/>
<path d="M55.9123 13.4219V38.3692C55.9123 39.4999 54.9951 40.4172 53.8624 40.4172H42.4839C42.3185 40.1634 42.1608 39.9038 42.007 39.6384C41.3493 38.5 40.8359 37.3173 40.457 36.1135L51.6086 14.2834C53.022 13.8084 54.4662 13.5257 55.9123 13.4219Z" fill="#FF9494"/>
<path d="M51.6107 14.2852V36.1153H48.2954L44.832 30.3885C46.4262 28.6886 47.4031 26.404 47.4031 23.8887C47.4031 21.6542 46.632 19.6004 45.3416 17.9774C46.2628 17.1351 47.2896 16.3774 48.4165 15.7274C49.4511 15.1313 50.5203 14.6505 51.6107 14.2852Z" fill="#FFF3EE"/>
<path d="M47.4039 23.8879C47.4039 26.4032 46.4289 28.6897 44.8328 30.3897L41.5214 24.9148C41.3714 24.6648 41.1406 24.511 40.8906 24.4494C41.8483 22.0226 43.3502 19.7996 45.3424 17.9766C46.6328 19.5996 47.4039 21.6534 47.4039 23.8879Z" fill="#FFD6BB"/>
<path d="M48.2941 36.1143H40.4578C39.2386 32.2298 39.4443 28.1087 40.8885 24.4492C41.1385 24.5108 41.3693 24.6646 41.5193 24.9146L48.2941 36.1143Z" fill="#FFAB66"/>
<path d="M10.5315 84.2466C10.0005 84.2466 9.56998 83.816 9.56998 83.2851C9.56998 82.6135 9.02365 82.0672 8.35213 82.0672C7.82119 82.0672 7.39062 81.6367 7.39062 81.1057C7.39062 80.5748 7.82119 80.1442 8.35213 80.1442C9.02365 80.1442 9.56998 79.5979 9.56998 78.9264C9.56998 78.3954 10.0005 77.9648 10.5315 77.9648C11.0624 77.9648 11.493 78.3954 11.493 78.9264C11.493 79.5979 12.0393 80.1442 12.7108 80.1442C13.2418 80.1442 13.6724 80.5748 13.6724 81.1057C13.6724 81.6367 13.2418 82.0672 12.7108 82.0672C12.0393 82.0672 11.493 82.6135 11.493 83.2851C11.493 83.816 11.0626 84.2466 10.5315 84.2466Z" fill="#FFAB66"/>
<path d="M21.3323 86.4263C20.8013 86.4263 20.3708 85.9957 20.3708 85.4648C20.3708 84.7932 19.8244 84.2469 19.1529 84.2469C18.622 84.2469 18.1914 83.8163 18.1914 83.2854C18.1914 82.7545 18.622 82.3239 19.1529 82.3239C19.8244 82.3239 20.3708 81.7776 20.3708 81.106C20.3708 80.5751 20.8013 80.1445 21.3323 80.1445C21.8632 80.1445 22.2938 80.5751 22.2938 81.106C22.2938 81.7776 22.8401 82.3239 23.5116 82.3239C24.0426 82.3239 24.4731 82.7545 24.4731 83.2854C24.4731 83.8163 24.0426 84.2469 23.5116 84.2469C22.8401 84.2469 22.2938 84.7932 22.2938 85.4648C22.2938 85.9957 21.8632 86.4263 21.3323 86.4263Z" fill="#83C3FF"/>
<path d="M60.469 7.04345C59.938 7.04345 59.5075 6.61289 59.5075 6.08194C59.5075 5.41043 58.9612 4.8641 58.2896 4.8641C57.7587 4.8641 57.3281 4.43353 57.3281 3.90259C57.3281 3.37164 57.7587 2.94108 58.2896 2.94108C58.9612 2.94108 59.5075 2.39475 59.5075 1.72323C59.5075 1.19228 59.938 0.761719 60.469 0.761719C60.9999 0.761719 61.4305 1.19228 61.4305 1.72323C61.4305 2.39475 61.9768 2.94108 62.6484 2.94108C63.1793 2.94108 63.6099 3.37164 63.6099 3.90259C63.6099 4.43353 63.1793 4.8641 62.6484 4.8641C61.9768 4.8641 61.4305 5.41043 61.4305 6.08194C61.4305 6.61289 60.9999 7.04345 60.469 7.04345Z" fill="#FF6C6C"/>
<path d="M80.1651 10.3176C79.9189 10.3176 79.673 10.2238 79.4851 10.0361L78.4344 8.98534L77.3836 10.0361C77.0081 10.4115 76.3994 10.4115 76.0239 10.0361C75.6483 9.66051 75.6483 9.05168 76.0239 8.67631L77.7546 6.94559C78.1301 6.57022 78.7388 6.57022 79.1143 6.94559L80.8451 8.67631C81.2206 9.05188 81.2206 9.6607 80.8451 10.0361C80.6572 10.2238 80.411 10.3176 80.1651 10.3176Z" fill="#83C3FF"/>
<path d="M71.7393 81.2043C71.4932 81.2043 71.2472 81.1105 71.0593 80.9228L70.0086 79.8721L68.9578 80.9228C68.5823 81.2982 67.9736 81.2982 67.5981 80.9228C67.2225 80.5472 67.2225 79.9384 67.5981 79.563L69.3288 77.8323C69.7044 77.4569 70.313 77.4569 70.6886 77.8323L72.4193 79.563C72.7948 79.9386 72.7948 80.5474 72.4193 80.9228C72.2314 81.1105 71.9854 81.2043 71.7393 81.2043Z" fill="#FF6C6C"/>
</svg>
