<svg width="82" height="84" viewBox="0 0 82 84" fill="none" xmlns="http://www.w3.org/2000/svg">
<path d="M68.2 9.61625V78.7821C68.2 80.7973 67.662 82.4296 65.6467 82.4296H17.8936C15.8784 82.4296 14.2461 80.7973 14.2461 78.7821V9.61625C14.2461 7.60283 15.8784 5.96875 17.8936 5.96875H64.5525C66.5677 5.96875 68.2 7.60283 68.2 9.61625Z" fill="#6CB8FF"/>
<path d="M63.4587 11.6228V76.7764C63.4587 77.2797 63.0501 77.6882 62.5468 77.6882H19.9002C19.3968 77.6882 18.9883 77.2797 18.9883 76.7764V11.6228C18.9883 11.1195 19.3968 10.7109 19.9002 10.7109H62.5468C63.0501 10.7109 63.4587 11.1195 63.4587 11.6228Z" fill="white"/>
<path d="M51.2699 10.7109V16.733C51.2699 17.2363 50.8614 17.6448 50.358 17.6448H32.0877C31.5843 17.6448 31.1758 17.2363 31.1758 16.733V10.7109H51.2699Z" fill="#D9F1FF"/>
<path d="M50.3569 13.2689H32.0877C31.5841 13.2689 31.1758 12.8606 31.1758 12.357V5.23219C31.1758 4.72865 31.5841 4.32031 32.0877 4.32031H50.3569C50.8605 4.32031 51.2688 4.72865 51.2688 5.23219V12.357C51.2688 12.8606 50.8606 13.2689 50.3569 13.2689Z" fill="#B3DBFF"/>
<path d="M35.5525 9.70657C36.0561 9.70657 36.4644 9.2983 36.4644 8.79469C36.4644 8.29107 36.0561 7.88281 35.5525 7.88281C35.0489 7.88281 34.6406 8.29107 34.6406 8.79469C34.6406 9.2983 35.0489 9.70657 35.5525 9.70657Z" fill="#83C3FF"/>
<path d="M46.8923 9.70657C47.396 9.70657 47.8042 9.2983 47.8042 8.79469C47.8042 8.29107 47.396 7.88281 46.8923 7.88281C46.3887 7.88281 45.9805 8.29107 45.9805 8.79469C45.9805 9.2983 46.3887 9.70657 46.8923 9.70657Z" fill="#83C3FF"/>
<path d="M27.801 37.687H24.4119C23.9083 37.687 23.5 37.2787 23.5 36.7752C23.5 36.2716 23.9083 35.8633 24.4119 35.8633H27.801C28.3045 35.8633 28.7128 36.2716 28.7128 36.7752C28.7128 37.2787 28.3045 37.687 27.801 37.687Z" fill="#404040"/>
<path d="M36.9197 41.4058H24.4119C23.9083 41.4058 23.5 40.9974 23.5 40.4939C23.5 39.9904 23.9083 39.582 24.4119 39.582H36.9197C37.4233 39.582 37.8316 39.9904 37.8316 40.4939C37.8316 40.9974 37.4233 41.4058 36.9197 41.4058Z" fill="#C8C8C8"/>
<path d="M36.9197 45.1245H24.4119C23.9083 45.1245 23.5 44.7162 23.5 44.2127C23.5 43.7091 23.9083 43.3008 24.4119 43.3008H36.9197C37.4233 43.3008 37.8316 43.7091 37.8316 44.2127C37.8316 44.7162 37.4233 45.1245 36.9197 45.1245Z" fill="#C8C8C8"/>
<path d="M69.1681 40.9178H61.167C58.1372 40.9178 55.6724 38.4528 55.6724 35.4232C55.6724 30.3819 51.5713 26.2809 46.5303 26.2809H41.4621L41.657 26.0859C42.3692 25.3737 42.3694 24.2189 41.657 23.5066C40.9448 22.7948 39.7901 22.7946 39.0779 23.5066L35.7289 26.8554C35.387 27.1975 35.1947 27.6613 35.1947 28.1449C35.1947 28.6286 35.387 29.0924 35.7289 29.4345L39.0779 32.7833C39.4341 33.1393 39.9008 33.3175 40.3675 33.3175C40.8342 33.3175 41.301 33.1393 41.657 32.7833C42.3692 32.0711 42.3692 30.9163 41.657 30.2039L41.3811 29.928H46.5301C49.5599 29.928 52.0247 32.393 52.0247 35.4228C52.0247 40.4638 56.1258 44.5649 61.1668 44.5649H69.168C72.437 44.5649 75.0968 47.2245 75.0968 50.4937C75.0968 53.763 72.4372 56.4226 69.168 56.4226H44.7009C40.3696 56.4226 36.8461 59.9462 36.8461 64.2773C36.8461 66.5973 34.9587 68.4845 32.6389 68.4845H6.83156C5.82431 68.4845 5.00781 69.3012 5.00781 70.3083C5.00781 71.3153 5.82431 72.132 6.83156 72.132H32.6388C36.97 72.132 40.4935 68.6083 40.4935 64.2773C40.4935 61.9573 42.3809 60.0701 44.7007 60.0701H69.168C74.4485 60.0701 78.7443 55.774 78.7443 50.4937C78.7443 45.2134 74.4486 40.9178 69.1681 40.9178Z" fill="#D2E8FD"/>
<path d="M5.00663 74.1539C7.13098 74.1539 8.85311 72.4318 8.85311 70.3074C8.85311 68.1831 7.13098 66.4609 5.00663 66.4609C2.88228 66.4609 1.16016 68.1831 1.16016 70.3074C1.16016 72.4318 2.88228 74.1539 5.00663 74.1539Z" fill="#6CB8FF"/>
<path d="M5.00831 71.4033C5.61265 71.4033 6.10257 70.9134 6.10257 70.3091C6.10257 69.7048 5.61265 69.2148 5.00831 69.2148C4.40398 69.2148 3.91406 69.7048 3.91406 70.3091C3.91406 70.9134 4.40398 71.4033 5.00831 71.4033Z" fill="#94CCFF"/>
<path d="M69.1691 40.0055H61.1682C58.6413 40.0055 56.5852 37.9496 56.5852 35.4224C56.5852 29.8784 52.0748 25.3679 46.5308 25.3679H43.0414C43.2276 24.491 42.9814 23.5401 42.3024 22.8609C41.7854 22.3439 41.0982 22.0592 40.3678 22.0592C40.3673 22.0592 40.3667 22.0592 40.366 22.0592C39.6356 22.0596 38.9493 22.3446 38.4344 22.8609L35.0824 26.2112C34.5679 26.7284 34.2845 27.4149 34.2845 28.1438C34.2845 28.8651 34.5761 29.57 35.0842 30.0779L38.4326 33.4247C38.9478 33.9426 39.6354 34.2277 40.3685 34.2277C41.1017 34.2277 41.7892 33.9426 42.3026 33.4261C43.0022 32.7265 43.2424 31.7377 43.023 30.8389H46.5308C49.0578 30.8389 51.1139 32.8949 51.1139 35.4222C51.1139 40.9661 55.6242 45.4766 61.1682 45.4766H67.2888V55.509H44.7016C39.8675 55.509 35.9348 59.4418 35.9348 64.2758C35.9348 66.093 34.4565 67.5711 32.6393 67.5711H28.2586C27.7551 67.5711 27.3468 67.9793 27.3468 68.483C27.3468 68.9867 27.7551 69.3949 28.2586 69.3949H32.6393C35.4621 69.3949 37.7586 67.0984 37.7586 64.2758C37.7586 60.4474 40.8732 57.3328 44.7016 57.3328H69.1691C72.9411 57.3328 76.0099 54.2649 76.0099 50.4937C76.0099 46.7216 72.9411 43.6528 69.1691 43.6528H61.1682C56.6298 43.6528 52.9377 39.9606 52.9377 35.4222C52.9377 31.8894 50.0636 29.0152 46.5308 29.0152H41.3824C41.0136 29.0152 40.6811 29.2373 40.54 29.578C40.3988 29.9187 40.4767 30.311 40.7375 30.5716L41.0121 30.8466C41.3676 31.2028 41.368 31.7816 41.0112 32.1382C40.8409 32.3094 40.6126 32.4037 40.3684 32.4037C40.1242 32.4037 39.8958 32.3094 39.7237 32.1364L36.3734 28.788C36.2049 28.6194 36.1081 28.3845 36.1081 28.1436C36.1081 27.9 36.2029 27.6704 36.3734 27.4991L39.7246 24.1498C39.8962 23.978 40.1243 23.8832 40.3671 23.883H40.3676C40.6111 23.883 40.8402 23.978 41.0129 24.1505C41.3678 24.5056 41.3674 25.0843 41.0131 25.4397L40.8179 25.6347C40.5569 25.8955 40.4789 26.2876 40.62 26.6285C40.7612 26.9691 41.0937 27.1914 41.4626 27.1914H46.5308C51.0692 27.1914 54.7614 30.8838 54.7614 35.4222C54.7614 38.955 57.6355 41.8291 61.1682 41.8291H69.1691C73.9467 41.8291 77.8337 45.7158 77.8337 50.4937C77.8337 55.2703 73.9467 59.1565 69.1691 59.1565H44.7016C41.8788 59.1565 39.5823 61.4532 39.5823 64.2758C39.5823 68.104 36.4677 71.2186 32.6393 71.2186H9.67825C9.7357 70.9236 9.7667 70.619 9.7667 70.3073C9.7667 69.9953 9.7357 69.6903 9.67807 69.3949H23.0044C23.5079 69.3949 23.9163 68.9867 23.9163 68.483C23.9163 67.9793 23.5079 67.5711 23.0044 67.5711H15.1586V9.61631C15.1586 8.10788 16.3858 6.88068 17.8943 6.88068H30.2653V12.355C30.2653 13.3607 31.0834 14.1788 32.0891 14.1788H50.3583C51.3639 14.1788 52.1821 13.3607 52.1821 12.355V6.88068H64.5531C66.0616 6.88068 67.2888 8.10788 67.2888 9.61631V35.6157C67.2888 36.1194 67.6971 36.5276 68.2006 36.5276C68.7042 36.5276 69.1125 36.1194 69.1125 35.6157V9.61631C69.1125 7.10227 67.0672 5.05693 64.5531 5.05693H52.1733C52.0858 4.13229 51.3056 3.40625 50.3583 3.40625H32.0891C31.1418 3.40625 30.3616 4.13229 30.2741 5.05693H17.8943C15.3802 5.05693 13.3349 7.10227 13.3349 9.61631V67.5713H8.89787C8.03578 66.3494 6.61417 65.5491 5.00835 65.5491C2.38452 65.5491 0.25 67.6837 0.25 70.3075C0.25 72.9313 2.3847 75.0658 5.00835 75.0658C6.61453 75.0658 8.03651 74.265 8.8986 73.0426H13.3349V78.7821C13.3349 81.2962 15.3802 83.3415 17.8943 83.3415H65.6474C67.2282 83.3415 69.1125 82.5505 69.1125 78.7821V60.9805H69.1691C74.9524 60.9805 79.6574 56.2763 79.6574 50.4939C79.6574 44.7104 74.9524 40.0055 69.1691 40.0055ZM74.1862 50.4937C74.1862 53.2591 71.9355 55.509 69.1691 55.509H69.1125V45.4766H69.1691C71.9355 45.4767 74.1862 47.7273 74.1862 50.4937ZM32.0891 5.23H50.3583L50.3594 12.3549H32.0891V5.23ZM5.00835 73.2421C3.39014 73.2421 2.07375 71.9255 2.07375 70.3075C2.07375 68.6895 3.39032 67.3729 5.00835 67.3729C6.62639 67.3729 7.94295 68.6895 7.94295 70.3075C7.94295 71.9255 6.62657 73.2421 5.00835 73.2421ZM67.2888 78.7821C67.2888 81.5177 66.2211 81.5177 65.6474 81.5177H17.8943C16.3858 81.5177 15.1586 80.2905 15.1586 78.7821V73.0426H32.6393C37.4733 73.0426 41.4061 69.11 41.4061 64.276C41.4061 62.4588 42.8844 60.9805 44.7016 60.9805H67.2888V78.7821Z" fill="#408CD9"/>
<path d="M27.3465 32.1656C29.4708 32.1656 31.193 30.4435 31.193 28.3191C31.193 26.1948 29.4708 24.4727 27.3465 24.4727C25.2221 24.4727 23.5 26.1948 23.5 28.3191C23.5 30.4435 25.2221 32.1656 27.3465 32.1656Z" fill="#404040"/>
<path d="M27.3482 29.4151C27.9525 29.4151 28.4424 28.9252 28.4424 28.3208C28.4424 27.7165 27.9525 27.2266 27.3482 27.2266C26.7438 27.2266 26.2539 27.7165 26.2539 28.3208C26.2539 28.9252 26.7438 29.4151 27.3482 29.4151Z" fill="#94D8FF"/>
<path d="M23.6677 51.1853L25.4044 53.2954C25.6962 53.6499 26.2391 53.6499 26.5309 53.2954L28.2677 51.1853C28.6595 50.7093 28.321 49.9922 27.7045 49.9922H24.2308C23.6144 49.9922 23.2759 50.7095 23.6677 51.1853Z" fill="#404040"/>
<path d="M56.4306 66.0365C55.861 65.467 54.9375 65.467 54.3679 66.0365L52.8175 67.5869L51.2672 66.0365C50.6976 65.467 49.7741 65.467 49.2045 66.0365C48.635 66.6061 48.635 67.5296 49.2045 68.0992L50.7549 69.6496L49.2045 71.2C48.635 71.7695 48.635 72.6931 49.2045 73.2626C49.7741 73.8322 50.6976 73.8322 51.2672 73.2626L52.8175 71.7122L54.3679 73.2626C54.9375 73.8322 55.861 73.8322 56.4306 73.2626C57.0001 72.6931 57.0001 71.7695 56.4306 71.2L54.8802 69.6496L56.4306 68.0992C57.0001 67.5295 57.0001 66.6061 56.4306 66.0365Z" fill="#404040"/>
<path d="M50.8446 43.9389C50.2751 43.3693 49.3515 43.3693 48.782 43.9389L47.2316 45.4893L45.6812 43.9389C45.1117 43.3693 44.1881 43.3693 43.6186 43.9389C43.049 44.5084 43.049 45.432 43.6186 46.0016L45.1689 47.5519L43.6186 49.1023C43.049 49.6718 43.049 50.5954 43.6186 51.165C44.1881 51.7345 45.1117 51.7345 45.6812 51.165L47.2316 49.6146L48.782 51.165C49.3515 51.7345 50.2751 51.7345 50.8446 51.165C51.4142 50.5954 51.4142 49.6718 50.8446 49.1023L49.2943 47.5519L50.8446 46.0016C51.4142 45.4318 51.4142 44.5084 50.8446 43.9389Z" fill="#404040"/>
<path d="M60.4736 17.7631C59.904 17.1935 58.9804 17.1935 58.4109 17.7631L56.8605 19.3135L55.3101 17.7631C54.7406 17.1935 53.817 17.1935 53.2475 17.7631C52.6779 18.3327 52.6779 19.2562 53.2475 19.8258L54.7979 21.3761L53.2475 22.9265C52.6779 23.4961 52.6779 24.4196 53.2475 24.9892C53.817 25.5587 54.7406 25.5587 55.3101 24.9892L56.8605 23.4388L58.4109 24.9892C58.9804 25.5587 59.904 25.5587 60.4736 24.9892C61.0431 24.4196 61.0431 23.4961 60.4736 22.9265L58.9232 21.3761L60.4736 19.8258C61.0431 19.2562 61.0431 18.3327 60.4736 17.7631Z" fill="#404040"/>
<path d="M74.1858 82.3676C73.6822 82.3676 73.2739 81.9595 73.2739 81.4557C73.2739 80.8189 72.7558 80.3008 72.1189 80.3008C71.6154 80.3008 71.207 79.8926 71.207 79.3889C71.207 78.8852 71.6154 78.477 72.1189 78.477C72.7558 78.477 73.2739 77.9589 73.2739 77.322C73.2739 76.8183 73.6822 76.4102 74.1858 76.4102C74.6893 76.4102 75.0976 76.8183 75.0976 77.322C75.0976 77.9589 75.6158 78.477 76.2526 78.477C76.7562 78.477 77.1645 78.8852 77.1645 79.3889C77.1645 79.8926 76.7562 80.3008 76.2526 80.3008C75.6158 80.3008 75.0976 80.8189 75.0976 81.4557C75.0976 81.9593 74.6893 82.3676 74.1858 82.3676Z" fill="#FFAB66"/>
<path d="M7.43967 31.9262C6.93613 31.9262 6.5278 31.5181 6.5278 31.0143C6.5278 30.3775 6.00967 29.8594 5.37281 29.8594C4.86928 29.8594 4.46094 29.4512 4.46094 28.9475C4.46094 28.4438 4.86928 28.0356 5.37281 28.0356C6.00967 28.0356 6.5278 27.5175 6.5278 26.8806C6.5278 26.3769 6.93613 25.9688 7.43967 25.9688C7.94321 25.9688 8.35155 26.3769 8.35155 26.8806C8.35155 27.5175 8.86968 28.0356 9.50653 28.0356C10.0101 28.0356 10.4184 28.4438 10.4184 28.9475C10.4184 29.4512 10.0101 29.8594 9.50653 29.8594C8.86968 29.8594 8.35155 30.3775 8.35155 31.0143C8.35155 31.5179 7.94321 31.9262 7.43967 31.9262Z" fill="#83CBFF"/>
<path d="M6.46702 42.3444C5.96348 42.3444 5.55514 41.9362 5.55514 41.4325C5.55514 40.7956 5.03701 40.2773 4.40016 40.2773C3.89662 40.2773 3.48828 39.8692 3.48828 39.3655C3.48828 38.8617 3.89662 38.4536 4.40016 38.4536C5.03701 38.4536 5.55514 37.9354 5.55514 37.2986C5.55514 36.7949 5.96348 36.3867 6.46702 36.3867C6.97055 36.3867 7.37889 36.7949 7.37889 37.2986C7.37889 37.9354 7.89702 38.4536 8.53387 38.4536C9.03741 38.4536 9.44575 38.8617 9.44575 39.3655C9.44575 39.8692 9.03741 40.2773 8.53387 40.2773C7.89702 40.2773 7.37889 40.7956 7.37889 41.4325C7.37889 41.936 6.97074 42.3444 6.46702 42.3444Z" fill="#FF6C6C"/>
<path d="M73.093 4.2268C72.8596 4.2268 72.6263 4.1378 72.4481 3.95962L71.4516 2.96312L70.4551 3.95962C70.099 4.3158 69.5218 4.3158 69.1656 3.95962C68.8094 3.60363 68.8094 3.02623 69.1656 2.67023L70.8069 1.02885C71.1631 0.672674 71.7403 0.672674 72.0965 1.02885L73.7379 2.67023C74.0941 3.02623 74.0941 3.60363 73.7379 3.95962C73.5597 4.1378 73.3265 4.2268 73.093 4.2268Z" fill="#83C3FF"/>
<path d="M81.0696 40.2424C80.8361 40.2424 80.6029 40.1534 80.4247 39.9752L79.4282 38.9787L78.4317 39.9752C78.0755 40.3314 77.4983 40.3314 77.1421 39.9752C76.786 39.6192 76.786 39.0419 77.1421 38.6859L78.7835 37.0445C79.1397 36.6883 79.7169 36.6883 80.0731 37.0445L81.7145 38.6859C82.0706 39.0419 82.0706 39.6192 81.7145 39.9752C81.5363 40.1534 81.303 40.2424 81.0696 40.2424Z" fill="#FFAB66"/>
</svg>
