<svg width="84" height="93" viewBox="0 0 84 93" fill="none" xmlns="http://www.w3.org/2000/svg">
<path opacity="0.1" d="M80.0773 57.733H66.3498V31.3547C66.3498 31.1323 66.2302 30.91 65.9908 30.8049L56.5564 26.6651C56.3 26.5526 56.0084 26.5526 55.7522 26.6651L46.3179 30.8049C46.0785 30.91 45.9588 31.1323 45.9588 31.3547V47.3662C45.9588 47.1438 45.8391 46.9214 45.5996 46.8164L36.1652 42.6766C35.9088 42.5641 35.6172 42.5641 35.361 42.6766L25.9267 46.8164C25.6873 46.9214 25.5674 47.1438 25.5674 47.3662V11.3403C25.5674 11.118 25.4477 10.8956 25.2081 10.7905L15.7738 6.65077C15.5176 6.53829 15.2258 6.53829 14.9696 6.65077L5.53484 10.7905C5.29547 10.8956 5.17578 11.118 5.17578 11.3403V80.5396C5.17578 80.7779 5.31668 80.9937 5.53504 81.0893L14.9694 85.2291C15.2258 85.3416 15.5174 85.3416 15.7736 85.2291L25.2079 81.0893C25.4261 80.9935 25.5672 80.7777 25.5672 80.5396C25.5672 80.7779 25.7081 80.9937 25.9265 81.0893L35.3608 85.2291C35.6172 85.3416 35.9088 85.3416 36.165 85.2291L45.5994 81.0893C45.8175 80.9935 45.9586 80.7777 45.9586 80.5396C45.9586 80.7779 46.0995 80.9937 46.3179 81.0893L55.7522 85.2291C55.8803 85.2854 56.0174 85.3136 56.1543 85.3136V90.4525C56.1543 91.5593 57.051 92.4539 58.1558 92.4539H80.0775C81.1823 92.4539 82.0789 91.5593 82.0789 90.4525V59.7344C82.0787 58.6276 81.1821 57.733 80.0773 57.733Z" fill="#0083CC"/>
<path d="M25.2079 76.2842L15.7736 80.4239C15.5174 80.5364 15.2256 80.5364 14.9694 80.4239L5.53504 76.2842C5.31688 76.1885 5.17578 75.9727 5.17578 75.7344V6.53516H25.5672V75.7344C25.567 75.9727 25.4261 76.1885 25.2079 76.2842Z" fill="#6CB8FF"/>
<path d="M25.5664 6.53516V75.7348C25.5664 75.973 25.4243 76.1871 25.2061 76.2832L15.7714 80.4241C15.6433 80.4802 15.5092 80.5082 15.3711 80.5082V6.53516H25.5664Z" fill="#83C3FF"/>
<path d="M25.5664 61.5156V68.6267C25.5664 68.8649 25.4243 69.079 25.2061 69.1751L15.7714 73.3161C15.6433 73.3721 15.5092 73.4001 15.3711 73.4001V66.289C15.5092 66.289 15.6433 66.261 15.7714 66.205L25.2061 62.064C25.4243 61.9679 25.5664 61.7538 25.5664 61.5156Z" fill="#B3DFFF"/>
<path d="M25.5664 47.1719V54.283C25.5664 54.5211 25.4243 54.7353 25.2061 54.8314L15.7714 58.9723C15.6433 59.0284 15.5092 59.0564 15.3711 59.0564V51.9453C15.5092 51.9453 15.6433 51.9173 15.7714 51.8612L25.2061 47.7203C25.4243 47.6242 25.5664 47.41 25.5664 47.1719Z" fill="#B3DFFF"/>
<path d="M25.5664 32.8281V39.9392C25.5664 40.1774 25.4243 40.3915 25.2061 40.4876L15.7714 44.6286C15.6433 44.6846 15.5092 44.7126 15.3711 44.7126V37.6015C15.5092 37.6015 15.6433 37.5735 15.7714 37.5175L25.2061 33.3765C25.4243 33.2804 25.5664 33.0663 25.5664 32.8281Z" fill="#B3DFFF"/>
<path d="M25.5664 18.4883V25.5994C25.5664 25.8376 25.4243 26.0517 25.2061 26.1478L15.7714 30.2887C15.6433 30.3448 15.5092 30.3728 15.3711 30.3728V23.2617C15.5092 23.2617 15.6433 23.2337 15.7714 23.1776L25.2061 19.0367C25.4243 18.9406 25.5664 18.7265 25.5664 18.4883Z" fill="#B3DFFF"/>
<path d="M14.9694 1.84608L5.53499 5.98585C5.05605 6.196 5.05605 6.87528 5.53499 7.08544L14.9694 11.2252C15.2255 11.3377 15.5173 11.3377 15.7735 11.2252L25.2079 7.08544C25.6868 6.87528 25.6868 6.196 25.2079 5.98585L15.7735 1.84608C15.5173 1.7336 15.2257 1.7336 14.9694 1.84608Z" fill="#94D8FF"/>
<path d="M45.5986 76.2857L36.1642 80.4255C35.908 80.5379 35.6162 80.5379 35.36 80.4255L25.9257 76.2857C25.7075 76.19 25.5664 75.9743 25.5664 75.7359V42.5625H45.9578V75.7359C45.9578 75.9743 45.8169 76.19 45.5986 76.2857Z" fill="#C8C8C8"/>
<path d="M45.957 42.5625V75.7363C45.957 75.9745 45.8149 76.1886 45.5968 76.2847L36.162 80.4257C36.0339 80.4817 35.8998 80.5097 35.7617 80.5097V42.5625H45.957Z" fill="#B9B9B9"/>
<path d="M45.957 47.1719V54.283C45.957 54.5211 45.8149 54.7353 45.5968 54.8314L36.162 58.9723C36.0339 59.0284 35.8998 59.0564 35.7617 59.0564V51.9453C35.8998 51.9453 36.0339 51.9173 36.162 51.8612L45.5968 47.7203C45.8149 47.6242 45.957 47.41 45.957 47.1719Z" fill="#DEDEDE"/>
<path d="M45.957 61.5156V68.6267C45.957 68.8649 45.8149 69.079 45.5968 69.1751L36.162 73.3161C36.0339 73.3721 35.8998 73.4001 35.7617 73.4001V66.289C35.8998 66.289 36.0339 66.261 36.162 66.205L45.5968 62.064C45.8149 61.9679 45.957 61.7538 45.957 61.5156Z" fill="#DEDEDE"/>
<path d="M35.36 37.8734L25.9256 42.0132C25.4467 42.2233 25.4467 42.9026 25.9256 43.1128L35.36 47.2526C35.6162 47.365 35.908 47.365 36.1642 47.2526L45.5985 43.1128C46.0775 42.9026 46.0775 42.2233 45.5985 42.0132L36.1642 37.8734C35.908 37.7609 35.6164 37.7609 35.36 37.8734Z" fill="#E1E1E1"/>
<path d="M65.9892 76.2855L56.5548 80.4252C56.2986 80.5377 56.0068 80.5377 55.7507 80.4252L46.3163 76.2855C46.0981 76.1898 45.957 75.974 45.957 75.7357V26.5508H66.3485V75.7357C66.3485 75.974 66.2076 76.1898 65.9892 76.2855Z" fill="#404040"/>
<path d="M66.3477 26.5508V75.736C66.3477 75.9742 66.2056 76.1884 65.9874 76.2844L56.5526 80.4254C56.4245 80.4815 56.2904 80.5095 56.1523 80.5095V26.5508H66.3477Z" fill="#9F9F9F"/>
<path d="M66.3477 61.5159V68.627C66.3477 68.8651 66.2056 69.0793 65.9874 69.1754L56.5526 73.3163C56.4245 73.3724 56.2904 73.4004 56.1523 73.4004V66.2893C56.2904 66.2893 56.4245 66.2613 56.5526 66.2052L65.9874 62.0643C66.2056 61.9682 66.3477 61.754 66.3477 61.5159Z" fill="#D2D2D2"/>
<path d="M66.3477 47.1719V54.283C66.3477 54.5211 66.2056 54.7353 65.9874 54.8314L56.5526 58.9723C56.4245 59.0284 56.2904 59.0564 56.1523 59.0564V51.9453C56.2904 51.9453 56.4245 51.9173 56.5526 51.8612L65.9874 47.7203C66.2056 47.6242 66.3477 47.41 66.3477 47.1719Z" fill="#D2D2D2"/>
<path d="M66.3477 32.832V39.9431C66.3477 40.1813 66.2056 40.3955 65.9874 40.4915L56.5526 44.6325C56.4245 44.6885 56.2904 44.7166 56.1523 44.7166V37.6055C56.2904 37.6055 56.4245 37.5774 56.5526 37.5214L65.9874 33.3804C66.2056 33.2844 66.3477 33.0702 66.3477 32.832Z" fill="#D2D2D2"/>
<path d="M55.7506 21.8617L46.3162 26.0015C45.8373 26.2116 45.8373 26.8909 46.3162 27.1011L55.7506 31.2408C56.0068 31.3533 56.2986 31.3533 56.5548 31.2408L65.9891 27.1011C66.4681 26.8909 66.4681 26.2116 65.9891 26.0015L56.5548 21.8617C56.2984 21.7492 56.0068 21.7492 55.7506 21.8617Z" fill="#5B646A"/>
<path d="M82.0808 54.9311V85.6491C82.0808 86.7559 81.1842 87.6506 80.0794 87.6506H58.1577C57.0529 87.6506 56.1562 86.7559 56.1562 85.6491V54.9311C56.1562 53.8243 57.0529 52.9297 58.1577 52.9297H80.0794C81.1842 52.9297 82.0808 53.8243 82.0808 54.9311Z" fill="white"/>
<path d="M66.9739 61.0327H63.2546C62.702 61.0327 62.2539 60.5846 62.2539 60.032C62.2539 59.4794 62.702 59.0312 63.2546 59.0312H66.9739C67.5265 59.0312 67.9746 59.4794 67.9746 60.032C67.9746 60.5846 67.5265 61.0327 66.9739 61.0327Z" fill="#404040"/>
<path d="M74.9796 65.1108H63.2546C62.702 65.1108 62.2539 64.6627 62.2539 64.1101C62.2539 63.5575 62.702 63.1094 63.2546 63.1094H74.9796C75.5322 63.1094 75.9803 63.5575 75.9803 64.1101C75.9803 64.6627 75.5322 65.1108 74.9796 65.1108Z" fill="#C8C8C8"/>
<path d="M74.9796 69.1889H63.2546C62.702 69.1889 62.2539 68.7408 62.2539 68.1882C62.2539 67.6356 62.702 67.1875 63.2546 67.1875H74.9796C75.5322 67.1875 75.9803 67.6356 75.9803 68.1882C75.9803 68.7408 75.5322 69.1889 74.9796 69.1889Z" fill="#C8C8C8"/>
<path d="M74.9786 77.4311H66.8562C66.3036 77.4311 65.8555 76.983 65.8555 76.4304C65.8555 75.8778 66.3036 75.4297 66.8562 75.4297H74.9786C75.5312 75.4297 75.9793 75.8778 75.9793 76.4304C75.9793 76.983 75.5312 77.4311 74.9786 77.4311Z" fill="#C8C8C8"/>
<path d="M63.2546 77.4311C63.8073 77.4311 64.2553 76.9831 64.2553 76.4304C64.2553 75.8777 63.8073 75.4297 63.2546 75.4297C62.7019 75.4297 62.2539 75.8777 62.2539 76.4304C62.2539 76.9831 62.7019 77.4311 63.2546 77.4311Z" fill="#404040"/>
<path d="M63.2546 81.5092C63.8073 81.5092 64.2553 81.0612 64.2553 80.5085C64.2553 79.9558 63.8073 79.5078 63.2546 79.5078C62.7019 79.5078 62.2539 79.9558 62.2539 80.5085C62.2539 81.0612 62.7019 81.5092 63.2546 81.5092Z" fill="#404040"/>
<path d="M74.9786 81.5092H66.8562C66.3036 81.5092 65.8555 81.0611 65.8555 80.5085C65.8555 79.9559 66.3036 79.5078 66.8562 79.5078H74.9786C75.5312 79.5078 75.9793 79.9559 75.9793 80.5085C75.9793 81.0611 75.5312 81.5092 74.9786 81.5092Z" fill="#C8C8C8"/>
<g opacity="0.1">
<g opacity="0.1">
<path opacity="0.1" d="M34.6497 17.1147H30.9304C30.3778 17.1147 29.9297 16.6666 29.9297 16.114C29.9297 15.5614 30.3778 15.1133 30.9304 15.1133H34.6497C35.2023 15.1133 35.6504 15.5614 35.6504 16.114C35.6504 16.6666 35.2023 17.1147 34.6497 17.1147Z" fill="#0000CC"/>
</g>
<g opacity="0.1">
<path opacity="0.1" d="M42.6554 21.1928H30.9304C30.3778 21.1928 29.9297 20.7447 29.9297 20.1921C29.9297 19.6395 30.3778 19.1914 30.9304 19.1914H42.6554C43.208 19.1914 43.6561 19.6395 43.6561 20.1921C43.6561 20.7447 43.208 21.1928 42.6554 21.1928Z" fill="#0000CC"/>
</g>
<g opacity="0.1">
<path opacity="0.1" d="M42.6554 25.2749H30.9304C30.3778 25.2749 29.9297 24.8268 29.9297 24.2742C29.9297 23.7216 30.3778 23.2734 30.9304 23.2734H42.6554C43.208 23.2734 43.6561 23.7216 43.6561 24.2742C43.6561 24.8268 43.208 25.2749 42.6554 25.2749Z" fill="#0000CC"/>
</g>
</g>
<path d="M80.0774 51.9274H58.1567C56.5013 51.9274 55.1545 53.2741 55.1545 54.9295V79.0699L46.9599 75.4739V26.812L56.1549 22.7771L65.3497 26.812V47.2028C65.3497 47.7556 65.7976 48.2035 66.3504 48.2035C66.9032 48.2035 67.3511 47.7556 67.3511 47.2028V26.5504C67.3511 25.9145 66.9748 25.3389 66.3932 25.0843L56.9586 20.9442C56.4483 20.7202 55.8621 20.7198 55.3505 20.9444L45.9163 25.0841C45.3343 25.3391 44.9582 25.9147 44.9582 26.5504V40.6377L36.5674 36.9558C36.0561 36.7319 35.47 36.7319 34.9591 36.956L26.5682 40.6379V6.53604C26.5682 5.90038 26.1922 5.32477 25.6106 5.06998L16.176 0.929814C15.6652 0.705854 15.0792 0.705453 14.5676 0.930014L5.13367 5.06978C4.55185 5.32477 4.17578 5.90038 4.17578 6.53604V75.7353C4.17578 76.3707 4.55165 76.9463 5.13347 77.2013L14.5682 81.3415C15.0792 81.5654 15.6652 81.5656 16.1762 81.3413L25.5677 77.2203L34.9597 81.3415C35.215 81.4536 35.4892 81.5096 35.7636 81.5096C36.038 81.5096 36.3122 81.4536 36.5678 81.3413L45.9594 77.2203L55.1547 81.2552V85.6488C55.1547 87.3042 56.5015 88.6509 58.1569 88.6509H69.6009C70.1537 88.6509 70.6016 88.203 70.6016 87.6502C70.6016 87.0974 70.1537 86.6495 69.6009 86.6495H58.1569C57.6051 86.6495 57.1562 86.2006 57.1562 85.6488V54.9295C57.1562 54.3777 57.6051 53.9288 58.1569 53.9288H80.0774C80.6292 53.9288 81.0781 54.3777 81.0781 54.9295V85.6488C81.0781 86.2006 80.6292 86.6495 80.0774 86.6495H75.3668C74.814 86.6495 74.3661 87.0974 74.3661 87.6502C74.3661 88.203 74.814 88.6509 75.3668 88.6509H80.0774C81.7328 88.6509 83.0796 87.3042 83.0796 85.6488V54.9295C83.0796 53.2739 81.7328 51.9274 80.0774 51.9274ZM15.372 79.5086L6.17742 75.4737V6.79762L15.3722 2.76273L24.567 6.79762V75.4739L15.372 79.5086ZM35.7632 79.5086L26.5684 75.4737V42.8233L35.7634 38.7884L44.9582 42.8233V75.4739L35.7632 79.5086Z" fill="#408CD9"/>
<path d="M53.4449 17.4795C52.8921 17.4795 52.4442 17.0316 52.4442 16.4788C52.4442 15.7799 51.8754 15.2111 51.1765 15.2111C50.6237 15.2111 50.1758 14.7631 50.1758 14.2104C50.1758 13.6576 50.6237 13.2096 51.1765 13.2096C51.8754 13.2096 52.4442 12.641 52.4442 11.9421C52.4442 11.3893 52.8921 10.9414 53.4449 10.9414C53.9977 10.9414 54.4456 11.3893 54.4456 11.9421C54.4456 12.641 55.0142 13.2096 55.7132 13.2096C56.2659 13.2096 56.7139 13.6576 56.7139 14.2104C56.7139 14.7631 56.2659 15.2111 55.7132 15.2111C55.0142 15.2111 54.4456 15.7799 54.4456 16.4788C54.4456 17.0314 53.9977 17.4795 53.4449 17.4795Z" fill="#83C3FF"/>
<path d="M12.5346 92.2879C11.9818 92.2879 11.5339 91.84 11.5339 91.2872C11.5339 90.5883 10.9652 90.0197 10.2663 90.0197C9.71355 90.0197 9.26562 89.5717 9.26562 89.0189C9.26562 88.4661 9.71355 88.0182 10.2663 88.0182C10.9652 88.0182 11.5339 87.4496 11.5339 86.7507C11.5339 86.1979 11.9818 85.75 12.5346 85.75C13.0874 85.75 13.5353 86.1979 13.5353 86.7507C13.5353 87.4496 14.1039 88.0182 14.8028 88.0182C15.3556 88.0182 15.8035 88.4661 15.8035 89.0189C15.8035 89.5717 15.3556 90.0197 14.8028 90.0197C14.1039 90.0197 13.5353 90.5883 13.5353 91.2872C13.5353 91.84 13.0874 92.2879 12.5346 92.2879Z" fill="#FFAB66"/>
<path d="M78.4252 48.6943C77.8724 48.6943 77.4245 48.2464 77.4245 47.6936C77.4245 46.9947 76.8559 46.4261 76.157 46.4261C75.6042 46.4261 75.1562 45.9782 75.1562 45.4254C75.1562 44.8726 75.6042 44.4247 76.157 44.4247C76.8559 44.4247 77.4245 43.8559 77.4245 43.157C77.4245 42.6042 77.8724 42.1562 78.4252 42.1562C78.978 42.1562 79.4259 42.6042 79.4259 43.157C79.4259 43.8559 79.9947 44.4247 80.6936 44.4247C81.2464 44.4247 81.6943 44.8726 81.6943 45.4254C81.6943 45.9782 81.2464 46.4261 80.6936 46.4261C79.9947 46.4261 79.4259 46.9947 79.4259 47.6936C79.4259 48.2462 78.978 48.6943 78.4252 48.6943Z" fill="#FF6C6C"/>
<path d="M4.85325 86.58C4.59727 86.58 4.34088 86.4824 4.14574 86.2868L3.05196 85.1932L1.95817 86.2868C1.5677 86.6777 0.93364 86.6777 0.54316 86.2868C0.15228 85.8961 0.15228 85.2625 0.54316 84.8718L2.34445 83.0705C2.73493 82.6796 3.36899 82.6796 3.75947 83.0705L5.56076 84.8718C5.95164 85.2625 5.95164 85.8961 5.56076 86.2868C5.36562 86.4822 5.10923 86.58 4.85325 86.58Z" fill="#83CBFF"/>
<path d="M66.0564 10.4394C65.8004 10.4394 65.544 10.3417 65.3489 10.1462L64.2551 9.0526L63.1613 10.1462C62.7708 10.5371 62.1368 10.5371 61.7463 10.1462C61.3554 9.75551 61.3554 9.12185 61.7463 8.73117L63.5476 6.92988C63.9381 6.539 64.5721 6.539 64.9626 6.92988L66.7639 8.73117C67.1548 9.12185 67.1548 9.75551 66.7639 10.1462C66.5685 10.3417 66.3124 10.4394 66.0564 10.4394Z" fill="#FF6C6C"/>
</svg>
