<svg width="83" height="90" viewBox="0 0 83 90" fill="none" xmlns="http://www.w3.org/2000/svg">
<path d="M71.9062 14.5664V21.0601C71.9062 22.1135 71.0513 22.9684 69.9979 22.9684H13.3692C12.3158 22.9684 11.4609 22.1135 11.4609 21.0601V14.5664H71.9062Z" fill="#83C3FF"/>
<path d="M76.1555 22.1973V70.5558C76.1555 71.6091 75.3007 72.464 74.2473 72.464H9.12308C8.06973 72.464 7.21484 71.6091 7.21484 70.5558V22.1973C7.21484 21.144 8.06973 20.2891 9.12308 20.2891H74.2473C75.3007 20.2891 76.1555 21.144 76.1555 22.1973Z" fill="#D9EFFF"/>
<path d="M20.9417 30.4981H13.5791C13.0523 30.4981 12.625 30.0708 12.625 29.544C12.625 29.0171 13.0523 28.5898 13.5791 28.5898H20.9417C21.4685 28.5898 21.8958 29.0171 21.8958 29.544C21.8958 30.0708 21.4685 30.4981 20.9417 30.4981Z" fill="#404040"/>
<path d="M27.8113 36.295H13.5791C13.0523 36.295 12.625 35.8677 12.625 35.3408C12.625 34.814 13.0523 34.3867 13.5791 34.3867H27.8113C28.3382 34.3867 28.7654 34.814 28.7654 35.3408C28.7654 35.8677 28.3382 36.295 27.8113 36.295Z" fill="#94CCFF"/>
<path d="M27.8113 40.1856H13.5791C13.0523 40.1856 12.625 39.7583 12.625 39.2315C12.625 38.7046 13.0523 38.2773 13.5791 38.2773H27.8113C28.3382 38.2773 28.7654 38.7046 28.7654 39.2315C28.7654 39.7583 28.3382 40.1856 27.8113 40.1856Z" fill="#94CCFF"/>
<path d="M27.8113 44.0723H13.5791C13.0523 44.0723 12.625 43.645 12.625 43.1182C12.625 42.5913 13.0523 42.1641 13.5791 42.1641H27.8113C28.3382 42.1641 28.7654 42.5913 28.7654 43.1182C28.7654 43.645 28.3382 44.0723 27.8113 44.0723Z" fill="#94CCFF"/>
<path d="M27.8113 47.9629H13.5791C13.0523 47.9629 12.625 47.5357 12.625 47.0088C12.625 46.4819 13.0523 46.0547 13.5791 46.0547H27.8113C28.3382 46.0547 28.7654 46.4819 28.7654 47.0088C28.7654 47.5357 28.3382 47.9629 27.8113 47.9629Z" fill="#94CCFF"/>
<path d="M17.1252 56.0332H13.5791C13.0523 56.0332 12.625 55.606 12.625 55.0791C12.625 54.5523 13.0523 54.125 13.5791 54.125H17.1252C17.6521 54.125 18.0793 54.5523 18.0793 55.0791C18.0793 55.606 17.6521 56.0332 17.1252 56.0332Z" fill="#404040"/>
<path d="M23.9948 61.8301H13.5791C13.0523 61.8301 12.625 61.4029 12.625 60.876C12.625 60.3491 13.0523 59.9219 13.5791 59.9219H23.9948C24.5217 59.9219 24.9489 60.3491 24.9489 60.876C24.9489 61.4029 24.5217 61.8301 23.9948 61.8301Z" fill="#94CCFF"/>
<path d="M23.9948 65.7207H13.5791C13.0523 65.7207 12.625 65.2935 12.625 64.7666C12.625 64.2398 13.0523 63.8125 13.5791 63.8125H23.9948C24.5217 63.8125 24.9489 64.2398 24.9489 64.7666C24.9489 65.2935 24.5217 65.7207 23.9948 65.7207Z" fill="#94CCFF"/>
<path d="M41.9299 30.4981H34.5674C34.0405 30.4981 33.6133 30.0708 33.6133 29.544C33.6133 29.0171 34.0405 28.5898 34.5674 28.5898H41.9299C42.4568 28.5898 42.8841 29.0171 42.8841 29.544C42.8841 30.0708 42.4568 30.4981 41.9299 30.4981Z" fill="#404040"/>
<path d="M48.7996 36.295H34.5674C34.0405 36.295 33.6133 35.8677 33.6133 35.3408C33.6133 34.814 34.0405 34.3867 34.5674 34.3867H48.7996C49.3264 34.3867 49.7537 34.814 49.7537 35.3408C49.7537 35.8677 49.3264 36.295 48.7996 36.295Z" fill="white"/>
<path d="M48.7996 40.1856H34.5674C34.0405 40.1856 33.6133 39.7583 33.6133 39.2315C33.6133 38.7046 34.0405 38.2773 34.5674 38.2773H48.7996C49.3264 38.2773 49.7537 38.7046 49.7537 39.2315C49.7537 39.7583 49.3264 40.1856 48.7996 40.1856Z" fill="white"/>
<path d="M48.7996 44.0723H34.5674C34.0405 44.0723 33.6133 43.645 33.6133 43.1182C33.6133 42.5913 34.0405 42.1641 34.5674 42.1641H48.7996C49.3264 42.1641 49.7537 42.5913 49.7537 43.1182C49.7537 43.645 49.3264 44.0723 48.7996 44.0723Z" fill="white"/>
<path d="M48.7996 47.9629H34.5674C34.0405 47.9629 33.6133 47.5357 33.6133 47.0088C33.6133 46.4819 34.0405 46.0547 34.5674 46.0547H48.7996C49.3264 46.0547 49.7537 46.4819 49.7537 47.0088C49.7537 47.5357 49.3264 47.9629 48.7996 47.9629Z" fill="white"/>
<path d="M71.5063 29.544V64.7585C71.5063 65.2852 71.0788 65.7126 70.5522 65.7126H54.794C54.2673 65.7126 53.8398 65.2852 53.8398 64.7585V29.544C53.8398 29.0173 54.2673 28.5898 54.794 28.5898H70.5522C71.0788 28.5898 71.5063 29.0173 71.5063 29.544Z" fill="#C7E3FC"/>
<path d="M63.1721 41.7178C60.8936 42.1853 58.369 43.044 56.9818 45.0457C55.2128 47.6009 56.8386 51.5242 60.0788 51.5242C64.1052 51.5242 65.6871 46.3395 62.2122 44.187C63.1587 43.8073 64.9563 43.2844 66.7405 43.8435C68.1278 44.2786 69.08 45.5724 69.0838 47.0265V51.1082C69.0838 52.0451 68.6411 52.7817 67.7576 53.3198C64.0976 55.5429 58.9682 55.7147 56.1498 59.2544C54.7491 61.0138 54.5335 63.5957 55.335 65.6756C55.3407 65.689 55.3445 65.7005 55.3502 65.7119H70.5512C71.0779 65.7119 71.5053 65.2845 71.5053 64.7578V41.8895C68.7995 41.1415 65.9123 41.1606 63.1721 41.7178ZM69.0838 61.9699C68.0781 63.3934 67.1832 64.2139 65.7005 64.5307C64.6414 64.7559 62.3172 64.3857 62.3172 61.884C62.3172 59.4796 65.0765 58.3423 66.4294 57.4741C67.7824 56.6421 68.6659 55.8788 69.0838 55.1842V61.9699Z" fill="#7EC6EE"/>
<path d="M70.0003 18.3882H13.3731C12.3192 18.3882 11.4648 17.5339 11.4648 16.48V12.7129C11.4648 11.659 12.3192 10.8047 13.3731 10.8047H70.0001C71.054 10.8047 71.9083 11.659 71.9083 12.7129V16.48C71.9085 17.5339 71.054 18.3882 70.0003 18.3882Z" fill="#D9EFFF"/>
<path d="M27.3711 10.8047H56.0022V18.3882H27.3711V10.8047Z" fill="#B3E4FF"/>
<path d="M52.1361 86.2107H31.2364C30.1824 86.2107 29.3281 85.3563 29.3281 84.3024V55.0137C29.3281 53.9598 30.1824 53.1055 31.2364 53.1055H52.1361C53.19 53.1055 54.0443 53.9598 54.0443 55.0137V84.3024C54.0443 85.3563 53.19 86.2107 52.1361 86.2107Z" fill="white"/>
<path d="M79.9711 13.6135H72.8603V12.7139C72.8603 11.1356 71.5762 9.85156 69.9979 9.85156H13.3709C11.7926 9.85156 10.5085 11.1356 10.5085 12.7139V16.481C10.5085 18.0593 11.7926 19.3433 13.3709 19.3433H69.9979C71.5762 19.3433 72.8603 18.0593 72.8603 16.481V15.5217H79.9711C80.4972 15.5217 80.9253 15.9497 80.9253 16.4758V76.2837C80.9253 76.8098 80.4972 77.2378 79.9711 77.2378H54.9965V55.0115C54.9965 53.4332 53.7125 52.1491 52.1342 52.1491H31.2344C29.6561 52.1491 28.3721 53.4332 28.3721 55.0115V61.3002C28.3721 61.8271 28.7994 62.2544 29.3262 62.2544C29.8531 62.2544 30.2803 61.8271 30.2803 61.3002V55.0115C30.2803 54.4854 30.7083 54.0573 31.2344 54.0573H52.1342C52.6603 54.0573 53.0883 54.4854 53.0883 55.0115V84.3004C53.0883 84.8265 52.6603 85.2545 52.1342 85.2545H31.2344C30.7083 85.2545 30.2803 84.8265 30.2803 84.3004V66.7979C30.2803 66.271 29.8531 65.8437 29.3262 65.8437C28.7994 65.8437 28.3721 66.271 28.3721 66.7979V77.2378H3.39751C2.87141 77.2378 2.44339 76.8098 2.44339 76.2837V16.4758C2.44339 15.9497 2.87141 15.5217 3.39751 15.5217H5.96408C6.49095 15.5217 6.9182 15.0944 6.9182 14.5676C6.9182 14.0407 6.49095 13.6135 5.96408 13.6135H3.39751C1.81921 13.6135 0.535156 14.8975 0.535156 16.4758V76.2837C0.535156 77.862 1.81921 79.146 3.39751 79.146H28.3721V84.3002C28.3721 85.8785 29.6561 87.1625 31.2344 87.1625H52.1342C53.7125 87.1625 54.9965 85.8785 54.9965 84.3002V79.146H79.9711C81.5494 79.146 82.8335 77.862 82.8335 76.2837V16.4758C82.8335 14.8975 81.5494 13.6135 79.9711 13.6135ZM70.9521 16.481C70.9521 17.0071 70.524 17.4351 69.9979 17.4351H13.3709C12.8448 17.4351 12.4168 17.0071 12.4168 16.481V12.7139C12.4168 12.1878 12.8448 11.7598 13.3709 11.7598H69.9979C70.524 11.7598 70.9521 12.1878 70.9521 12.7139V16.481Z" fill="#408CD9"/>
<path d="M39.6408 60.8301H36.0947C35.5679 60.8301 35.1406 60.4029 35.1406 59.876C35.1406 59.3491 35.5679 58.9219 36.0947 58.9219H39.6408C40.1677 58.9219 40.5949 59.3491 40.5949 59.876C40.5949 60.4029 40.1679 60.8301 39.6408 60.8301Z" fill="#404040"/>
<path d="M47.2737 64.7207H36.0947C35.5679 64.7207 35.1406 64.2935 35.1406 63.7666C35.1406 63.2398 35.5679 62.8125 36.0947 62.8125H47.2737C47.8006 62.8125 48.2279 63.2398 48.2279 63.7666C48.2279 64.2935 47.8008 64.7207 47.2737 64.7207Z" fill="#C8C8C8"/>
<path d="M47.2737 68.6075H36.0947C35.5679 68.6075 35.1406 68.1802 35.1406 67.6533C35.1406 67.1265 35.5679 66.6992 36.0947 66.6992H47.2737C47.8006 66.6992 48.2279 67.1265 48.2279 67.6533C48.2279 68.1802 47.8008 68.6075 47.2737 68.6075Z" fill="#C8C8C8"/>
<path d="M47.2725 76.4629H39.5283C39.0015 76.4629 38.5742 76.0357 38.5742 75.5088C38.5742 74.9819 39.0015 74.5547 39.5283 74.5547H47.2725C47.7994 74.5547 48.2266 74.9819 48.2266 75.5088C48.2266 76.0357 47.7996 76.4629 47.2725 76.4629Z" fill="#C8C8C8"/>
<path d="M36.0947 76.4632C36.6217 76.4632 37.0489 76.036 37.0489 75.509C37.0489 74.9821 36.6217 74.5549 36.0947 74.5549C35.5678 74.5549 35.1406 74.9821 35.1406 75.509C35.1406 76.036 35.5678 76.4632 36.0947 76.4632Z" fill="#404040"/>
<path d="M36.0947 80.3538C36.6217 80.3538 37.0489 79.9266 37.0489 79.3997C37.0489 78.8727 36.6217 78.4456 36.0947 78.4456C35.5678 78.4456 35.1406 78.8727 35.1406 79.3997C35.1406 79.9266 35.5678 80.3538 36.0947 80.3538Z" fill="#404040"/>
<path d="M47.2725 80.3535H39.5283C39.0015 80.3535 38.5742 79.9263 38.5742 79.3994C38.5742 78.8726 39.0015 78.4453 39.5283 78.4453H47.2725C47.7994 78.4453 48.2266 78.8726 48.2266 79.3994C48.2266 79.9263 47.7996 80.3535 47.2725 80.3535Z" fill="#C8C8C8"/>
<path d="M71.9062 20.293V21.062C71.9062 22.1153 71.0513 22.9702 69.9979 22.9702H13.3692C12.3158 22.9702 11.4609 22.1153 11.4609 21.062V20.293H71.9062Z" fill="#B3E4FF"/>
<path d="M60.0313 39.0823H59.014C57.7721 39.0823 56.7617 38.0719 56.7617 36.83V33.6898C56.7617 32.4479 57.7721 31.4375 59.014 31.4375H60.0313C61.2732 31.4375 62.2836 32.4479 62.2836 33.6898V36.83C62.2836 38.0719 61.2732 39.0823 60.0313 39.0823ZM59.014 33.3457C58.8243 33.3457 58.67 33.5001 58.67 33.6898V36.83C58.67 37.0197 58.8243 37.174 59.014 37.174H60.0313C60.221 37.174 60.3753 37.0197 60.3753 36.83V33.6898C60.3753 33.5001 60.221 33.3457 60.0313 33.3457H59.014Z" fill="white"/>
<path d="M67.9445 38.9983H64.4893C64.0843 38.9983 63.7237 38.7426 63.5893 38.3608C63.455 37.9789 63.5764 37.5538 63.892 37.3C64.8541 36.5273 66.3431 35.1149 66.6408 34.3941C66.7553 34.1172 66.7372 33.8119 66.5937 33.5972C66.482 33.4303 66.316 33.3457 66.1002 33.3457C65.738 33.3457 65.4434 33.6404 65.4434 34.0025C65.4434 34.5296 65.0163 34.9567 64.4893 34.9567C63.9622 34.9567 63.5352 34.5296 63.5352 34.0025C63.5352 32.5882 64.6858 31.4375 66.1002 31.4375C66.9549 31.4375 67.7129 31.8382 68.1798 32.5366C68.6805 33.2852 68.7643 34.2521 68.4044 35.1233C68.146 35.748 67.5653 36.4583 66.9555 37.0901H67.9445C68.4716 37.0901 68.8986 37.5171 68.8986 38.0442C68.8986 38.5712 68.4716 38.9983 67.9445 38.9983Z" fill="white"/>
<path d="M62.6755 88.1787C62.1484 88.1787 61.7214 87.7515 61.7214 87.2246C61.7214 86.5583 61.1791 86.0161 60.5127 86.0161C59.9857 86.0161 59.5586 85.5889 59.5586 85.062C59.5586 84.5352 59.9857 84.1079 60.5127 84.1079C61.1791 84.1079 61.7214 83.5658 61.7214 82.8994C61.7214 82.3726 62.1484 81.9453 62.6755 81.9453C63.2026 81.9453 63.6296 82.3726 63.6296 82.8994C63.6296 83.5658 64.1717 84.1079 64.8381 84.1079C65.3652 84.1079 65.7922 84.5352 65.7922 85.062C65.7922 85.5889 65.3652 86.0161 64.8381 86.0161C64.1717 86.0161 63.6296 86.5583 63.6296 87.2246C63.6296 87.7517 63.2026 88.1787 62.6755 88.1787Z" fill="#FFAB66"/>
<path d="M3.36672 10.0147C2.83986 10.0147 2.4126 9.58743 2.4126 9.06057C2.4126 8.39422 1.87047 7.85209 1.20412 7.85209C0.677254 7.85209 0.25 7.42483 0.25 6.89797C0.25 6.37111 0.677254 5.94385 1.20412 5.94385C1.87047 5.94385 2.4126 5.40172 2.4126 4.73537C2.4126 4.2085 2.83986 3.78125 3.36672 3.78125C3.89358 3.78125 4.32084 4.2085 4.32084 4.73537C4.32084 5.40172 4.86297 5.94385 5.52932 5.94385C6.05618 5.94385 6.48344 6.37111 6.48344 6.89797C6.48344 7.42483 6.05618 7.85209 5.52932 7.85209C4.86297 7.85209 4.32084 8.39422 4.32084 9.06057C4.32084 9.58743 3.89358 10.0147 3.36672 10.0147Z" fill="#FF6C6C"/>
<path d="M65.7028 6.99516C65.1758 6.99516 64.7487 6.5679 64.7487 6.04104C64.7487 5.37468 64.2064 4.83255 63.5401 4.83255C63.013 4.83255 62.5859 4.4053 62.5859 3.87844C62.5859 3.35157 63.013 2.92432 63.5401 2.92432C64.2064 2.92432 64.7487 2.38219 64.7487 1.71584C64.7487 1.18897 65.1758 0.761719 65.7028 0.761719C66.2299 0.761719 66.657 1.18897 66.657 1.71584C66.657 2.38219 67.1991 2.92432 67.8654 2.92432C68.3925 2.92432 68.8196 3.35157 68.8196 3.87844C68.8196 4.4053 68.3925 4.83255 67.8654 4.83255C67.1991 4.83255 66.657 5.37468 66.657 6.04104C66.657 6.5679 66.2299 6.99516 65.7028 6.99516Z" fill="#FF6C6C"/>
<path d="M76.5061 7.85202C76.262 7.85202 76.0176 7.7589 75.8315 7.57265L74.7887 6.52999L73.7458 7.57265C73.3735 7.94514 72.769 7.94514 72.3967 7.57265C72.024 7.19997 72.024 6.59583 72.3967 6.22334L74.1141 4.50593C74.4864 4.13344 75.0909 4.13344 75.4632 4.50593L77.1806 6.22334C77.5533 6.59602 77.5533 7.20016 77.1806 7.57265C76.9946 7.7589 76.7503 7.85202 76.5061 7.85202Z" fill="#83C3FF"/>
<path d="M21.5139 89.0356C21.2696 89.0356 21.0256 88.9425 20.8391 88.7562L19.7965 87.7136L18.7538 88.7562C18.3811 89.1287 17.7772 89.1287 17.4045 88.7562C17.0318 88.3836 17.0318 87.7794 17.4045 87.4069L19.1219 85.6895C19.4946 85.317 20.0986 85.317 20.4712 85.6895L22.1886 87.4069C22.5613 87.7796 22.5613 88.3838 22.1886 88.7562C22.0022 88.9425 21.7581 89.0356 21.5139 89.0356Z" fill="#FF6C6C"/>
</svg>
