<svg width="90" height="88" viewBox="0 0 90 88" fill="none" xmlns="http://www.w3.org/2000/svg">
<path d="M67.6462 9.94589V83.1423C67.6462 85.1379 66.028 86.7561 64.0324 86.7561H23.235C21.2393 86.7561 19.6211 85.1379 19.6211 83.1423V9.94589C19.6211 7.95026 21.2393 6.33203 23.235 6.33203H64.0324C66.028 6.33203 67.6462 7.95026 67.6462 9.94589Z" fill="white"/>
<path d="M67.6464 27.1453V9.96537C67.6464 7.9587 66.037 6.33203 64.052 6.33203H23.2155C21.2303 6.33203 19.6211 7.9587 19.6211 9.96537V27.1453H67.6464Z" fill="#65BEFE"/>
<path d="M57.9529 11.3147L59.5583 6.33203H27.7148L29.3202 11.3147C29.5526 12.0361 30.218 12.5246 30.9688 12.5246H56.3045C57.0551 12.5246 57.7205 12.0363 57.9529 11.3147Z" fill="white"/>
<path d="M56.3012 13.5293H30.9655C29.775 13.5293 28.7284 12.7632 28.3611 11.6232L26.7557 6.64059C26.5856 6.11277 26.8758 5.54698 27.4036 5.37686C27.9317 5.20654 28.4974 5.49697 28.6674 6.02479L30.2727 11.0074C30.3718 11.3145 30.6501 11.521 30.9655 11.521H56.3012C56.6165 11.521 56.8949 11.3145 56.9939 11.0072L58.5991 6.02479C58.7692 5.49697 59.3348 5.20674 59.8629 5.37686C60.3907 5.54698 60.6809 6.11277 60.5108 6.64059L58.9054 11.6232C58.5381 12.7632 57.4914 13.5293 56.3012 13.5293Z" fill="#408CD9"/>
<path d="M64.0329 87.7609H23.2353C20.6887 87.7609 18.6172 85.6892 18.6172 83.1428V76.8656C18.6172 76.311 19.0669 75.8613 19.6214 75.8613C20.176 75.8613 20.6257 76.311 20.6257 76.8656V83.1428C20.6257 84.5819 21.7964 85.7525 23.2353 85.7525H64.0329C65.472 85.7525 66.6425 84.5817 66.6425 83.1428V65.6954C66.6425 65.1409 67.0922 64.6912 67.6468 64.6912C68.2013 64.6912 68.651 65.1409 68.651 65.6954V83.1428C68.651 85.6892 66.5795 87.7609 64.0329 87.7609Z" fill="#408CD9"/>
<path d="M67.6449 52.364C67.0903 52.364 66.6406 51.9143 66.6406 51.3598V41.7191C66.6406 41.1645 67.0903 40.7148 67.6449 40.7148C68.1994 40.7148 68.6491 41.1645 68.6491 41.7191V51.3598C68.6491 51.9143 68.1996 52.364 67.6449 52.364Z" fill="#408CD9"/>
<path d="M19.6214 22.0441C19.0669 22.0441 18.6172 21.5944 18.6172 21.0398V9.94622C18.6172 7.39967 20.6887 5.32812 23.2353 5.32812H64.0329C66.5795 5.32812 68.651 7.39967 68.651 9.94622V17.1466C68.651 17.7012 68.2013 18.1509 67.6468 18.1509C67.0922 18.1509 66.6425 17.7012 66.6425 17.1466V9.94622C66.6425 8.50714 65.4718 7.3366 64.0329 7.3366H23.2353C21.7962 7.3366 20.6257 8.50735 20.6257 9.94622V21.04C20.6257 21.5946 20.176 22.0441 19.6214 22.0441Z" fill="#408CD9"/>
<path d="M19.6214 47.9365C19.0669 47.9365 18.6172 47.4868 18.6172 46.9322V39.5079C18.6172 38.9534 19.0669 38.5037 19.6214 38.5037C20.176 38.5037 20.6257 38.9534 20.6257 39.5079V46.9322C20.6257 47.4868 20.176 47.9365 19.6214 47.9365Z" fill="#408CD9"/>
<path d="M43.6364 50.5692C48.6046 50.5692 52.6322 46.498 52.6322 41.476C52.6322 36.454 48.6046 32.3828 43.6364 32.3828C38.6682 32.3828 34.6406 36.454 34.6406 41.476C34.6406 46.498 38.6682 50.5692 43.6364 50.5692Z" fill="#65BEFE"/>
<path d="M46.116 42.7891C46.8072 42.1265 47.2408 41.1933 47.2408 40.1584C47.2408 38.1541 45.6228 36.5234 43.634 36.5234C41.6454 36.5234 40.0273 38.1541 40.0273 40.1584C40.0273 41.1933 40.461 42.1265 41.1521 42.7891C40.461 43.4517 40.0273 44.3848 40.0273 45.4198C40.0273 45.9743 40.477 46.424 41.0316 46.424C41.5861 46.424 42.0358 45.9743 42.0358 45.4198C42.0358 44.523 42.7526 43.7933 43.634 43.7933C44.5153 43.7933 45.2323 44.523 45.2323 45.4198C45.2323 45.9743 45.682 46.424 46.2366 46.424C46.7911 46.424 47.2408 45.9743 47.2408 45.4198C47.241 44.3848 46.8074 43.4517 46.116 42.7891ZM42.036 40.1584C42.036 39.2616 42.7528 38.5319 43.6342 38.5319C44.5155 38.5319 45.2325 39.2616 45.2325 40.1584C45.2325 41.0552 44.5155 41.7848 43.6342 41.7848C42.7528 41.7848 42.036 41.0552 42.036 40.1584Z" fill="#408CD9"/>
<path d="M50.2919 58.4024H36.9812C36.4156 58.4024 35.957 57.9388 35.957 57.3672C35.957 56.7956 36.4154 56.332 36.9812 56.332H50.2919C50.8575 56.332 51.3161 56.7956 51.3161 57.3672C51.3161 57.9388 50.8575 58.4024 50.2919 58.4024Z" fill="#408CD9"/>
<path d="M46.693 62.2422H40.5788C40.0132 62.2422 39.5547 61.7787 39.5547 61.207C39.5547 60.6354 40.013 60.1719 40.5788 60.1719H46.693C47.2586 60.1719 47.7171 60.6354 47.7171 61.207C47.7169 61.7787 47.2586 62.2422 46.693 62.2422Z" fill="#408CD9"/>
<path d="M47.016 74.9076C47.6331 74.9076 48.1335 74.4018 48.1335 73.778C48.1335 73.1542 47.6331 72.6484 47.016 72.6484C46.3988 72.6484 45.8984 73.1542 45.8984 73.778C45.8984 74.4018 46.3988 74.9076 47.016 74.9076Z" fill="#408CD9"/>
<path d="M43.637 72.6484C44.2543 72.6484 44.7546 73.1542 44.7546 73.778C44.7546 74.4018 44.2543 74.9076 43.637 74.9076C43.0198 74.9076 42.5195 74.4018 42.5195 73.778C42.5195 73.1542 43.0198 72.6484 43.637 72.6484Z" fill="#408CD9"/>
<path d="M40.2542 74.9076C40.8714 74.9076 41.3718 74.4018 41.3718 73.778C41.3718 73.1542 40.8714 72.6484 40.2542 72.6484C39.637 72.6484 39.1367 73.1542 39.1367 73.778C39.1367 74.4018 39.637 74.9076 40.2542 74.9076Z" fill="#408CD9"/>
<path d="M75.0354 65.388H63.8168C62.712 65.388 61.8164 64.4827 61.8164 63.3658V53.7018C61.8164 52.5851 62.712 51.6797 63.8168 51.6797H75.0354C76.1403 51.6797 77.0359 52.5849 77.0359 53.7018V63.3658C77.0359 64.4825 76.1403 65.388 75.0354 65.388Z" fill="white"/>
<path d="M75.0357 66.3923H63.8172C62.1604 66.3923 60.8125 65.0348 60.8125 63.3659V53.702C60.8125 52.0333 62.1604 50.6758 63.8172 50.6758H75.0357C76.6925 50.6758 78.0402 52.0333 78.0402 53.702V63.3659C78.0404 65.0348 76.6925 66.3923 75.0357 66.3923ZM63.8172 52.6841C63.2679 52.6841 62.821 53.1406 62.821 53.7018V63.3657C62.821 63.9269 63.2679 64.3836 63.8172 64.3836H75.0357C75.5851 64.3836 76.0317 63.9271 76.0317 63.3657V53.702C76.0317 53.1408 75.5849 52.6843 75.0357 52.6843L63.8172 52.6841Z" fill="#408CD9"/>
<path d="M68.0658 61.9794C67.8991 61.9794 67.7304 61.9373 67.5751 61.8487C67.0939 61.5741 66.9242 60.9573 67.1959 60.4711L69.9148 55.6039C70.1864 55.1177 70.7965 54.9461 71.2774 55.2207C71.7586 55.4953 71.9283 56.1121 71.6566 56.5983L68.9377 61.4655C68.7539 61.7944 68.4149 61.9794 68.0658 61.9794Z" fill="#408CD9"/>
<path d="M24.4097 38.9305H2.75685C1.92675 38.9305 1.25391 38.2502 1.25391 37.4113V23.1637C1.25391 22.3246 1.92675 21.6445 2.75685 21.6445H24.4097C25.2398 21.6445 25.9126 22.3248 25.9126 23.1637V37.4113C25.9126 38.2504 25.2398 38.9305 24.4097 38.9305Z" fill="white"/>
<path d="M24.4102 39.9351H2.75718C1.37475 39.9351 0.25 38.8031 0.25 37.4116V23.1641C0.25 21.7726 1.37475 20.6406 2.75718 20.6406H24.4102C25.7926 20.6406 26.9174 21.7726 26.9174 23.1641V37.4116C26.9172 38.8031 25.7926 39.9351 24.4102 39.9351ZM2.75718 22.6491C2.48222 22.6491 2.25848 22.8801 2.25848 23.1641V37.4116C2.25848 37.6956 2.48222 37.9266 2.75718 37.9266H24.4102C24.6851 37.9266 24.9089 37.6956 24.9089 37.4116V23.1641C24.9089 22.8801 24.6851 22.6491 24.4102 22.6491H2.75718Z" fill="#408CD9"/>
<path d="M8.91183 33.7256C8.65615 33.7256 8.40027 33.627 8.20545 33.4298L5.8005 30.9987C5.41025 30.6043 5.41025 29.9648 5.8005 29.5705L8.20545 27.1394C8.5953 26.7452 9.22837 26.7452 9.61821 27.1394C10.0085 27.5339 10.0085 28.1734 9.61821 28.5677L7.91984 30.2845L9.61821 32.0014C10.0085 32.3958 10.0085 33.0353 9.61821 33.4296C9.42339 33.627 9.16751 33.7256 8.91183 33.7256Z" fill="#408CD9"/>
<path d="M18.2569 26.8438C18.5126 26.8438 18.7684 26.9424 18.9633 27.1396L21.3682 29.5707C21.7585 29.9651 21.7585 30.6046 21.3682 30.9989L18.9633 33.43C18.5734 33.8242 17.9403 33.8242 17.5505 33.43C17.1603 33.0355 17.1603 32.396 17.5505 32.0017L19.2489 30.2849L17.5505 28.568C17.1603 28.1736 17.1603 27.5341 17.5505 27.1398C17.7455 26.9424 18.0014 26.8438 18.2569 26.8438Z" fill="#408CD9"/>
<path d="M12.225 33.7259C12.0585 33.7259 11.8899 33.6837 11.7347 33.5951C11.2541 33.3208 11.0845 32.7048 11.3559 32.2191L14.0717 27.3572C14.3429 26.8716 14.9527 26.7002 15.4329 26.9744C15.9135 27.2488 16.083 27.8648 15.8117 28.3504L13.0958 33.2123C12.9123 33.5409 12.5736 33.7259 12.225 33.7259Z" fill="#408CD9"/>
<path d="M24.4097 76.3437H2.75685C1.92675 76.3437 1.25391 75.6635 1.25391 74.8245V48.4528C1.25391 47.6137 1.92675 46.9336 2.75685 46.9336H24.4097C25.2398 46.9336 25.9126 47.6139 25.9126 48.4528V74.8245C25.9126 75.6635 25.2398 76.3437 24.4097 76.3437Z" fill="white"/>
<path d="M24.4102 77.3483H2.75718C1.37475 77.3483 0.25 76.2163 0.25 74.8249V48.4531C0.25 47.0617 1.37475 45.9297 2.75718 45.9297H14.1169C14.6715 45.9297 15.1212 46.3794 15.1212 46.9339C15.1212 47.4885 14.6715 47.9382 14.1169 47.9382H2.75718C2.48222 47.9382 2.25848 48.1691 2.25848 48.4531V74.8249C2.25848 75.1089 2.48222 75.3398 2.75718 75.3398H24.4102C24.6851 75.3398 24.9089 75.1089 24.9089 74.8249V48.4531C24.9089 48.1691 24.6851 47.9382 24.4102 47.9382H19.6224C19.0678 47.9382 18.6181 47.4885 18.6181 46.9339C18.6181 46.3794 19.0678 45.9297 19.6224 45.9297H24.4102C25.7926 45.9297 26.9174 47.0617 26.9174 48.4531V74.8249C26.9172 76.2163 25.7926 77.3483 24.4102 77.3483Z" fill="#408CD9"/>
<path d="M84.0005 41.294H59.5694C58.4567 41.294 57.5547 40.392 57.5547 39.2793V19.6006C57.5547 18.4879 58.4567 17.5859 59.5694 17.5859H84.0005C85.1132 17.5859 86.0152 18.4879 86.0152 19.6006V39.2793C86.0152 40.392 85.1132 41.294 84.0005 41.294Z" fill="white"/>
<path d="M84.0124 17.5859H77.1836V41.294H84.0124C85.1191 41.294 86.0163 40.3872 86.0163 39.2685V19.6115C86.0163 18.4928 85.1191 17.5859 84.0124 17.5859Z" fill="white"/>
<path d="M86.0152 24.2029V19.6115C86.0152 18.4928 85.118 17.5859 84.0114 17.5859H59.5586C58.4519 17.5859 57.5547 18.4928 57.5547 19.6115V24.2029H86.0152Z" fill="white"/>
<path d="M84.0117 42.2986H59.5589C57.9003 42.2986 56.5508 40.9395 56.5508 39.2688V19.6118C56.5508 17.9412 57.9003 16.582 59.5589 16.582H84.0117C85.6703 16.582 87.0198 17.9412 87.0198 19.6118V24.203C87.0198 24.7575 86.5701 25.2072 86.0156 25.2072C85.461 25.2072 85.0113 24.7575 85.0113 24.203V19.6118C85.0113 19.0486 84.5628 18.5905 84.0117 18.5905H59.5589C59.0078 18.5905 58.5593 19.0486 58.5593 19.6118V39.2688C58.5593 39.832 59.0078 40.2901 59.5589 40.2901H84.0117C84.5628 40.2901 85.0113 39.832 85.0113 39.2688V29.7683C85.0113 29.2138 85.461 28.7641 86.0156 28.7641C86.5701 28.7641 87.0198 29.2138 87.0198 29.7683V39.2688C87.0198 40.9395 85.6703 42.2986 84.0117 42.2986Z" fill="#408CD9"/>
<path d="M86.0156 25.2077H57.555C57.0005 25.2077 56.5508 24.758 56.5508 24.2035C56.5508 23.6489 57.0005 23.1992 57.555 23.1992H86.0156C86.5701 23.1992 87.0198 23.6489 87.0198 24.2035C87.0198 24.758 86.5701 25.2077 86.0156 25.2077Z" fill="#408CD9"/>
<path d="M73.1548 36.564H63.2165C62.6631 36.564 62.2148 36.1107 62.2148 35.5515C62.2148 34.9924 62.6633 34.5391 63.2165 34.5391H73.1548C73.7082 34.5391 74.1565 34.9924 74.1565 35.5515C74.1565 36.1107 73.708 36.564 73.1548 36.564Z" fill="#408CD9"/>
<path d="M67.7446 32.3609H63.2165C62.6631 32.3609 62.2148 31.9076 62.2148 31.3484C62.2148 30.7893 62.6633 30.3359 63.2165 30.3359H67.7446C68.2979 30.3359 68.7462 30.7893 68.7462 31.3484C68.7462 31.9076 68.2977 32.3609 67.7446 32.3609Z" fill="#408CD9"/>
<path d="M19.4392 62.1019H7.72759C7.17465 62.1019 6.72656 61.6488 6.72656 61.09C6.72656 60.5312 7.17465 60.0781 7.72759 60.0781H19.4392C19.9922 60.0781 20.4403 60.5312 20.4403 61.09C20.4403 61.6488 19.9922 62.1019 19.4392 62.1019Z" fill="#408CD9"/>
<path d="M17.0398 56.6917H10.126C9.57309 56.6917 9.125 56.2386 9.125 55.6798C9.125 55.1211 9.57309 54.668 10.126 54.668H17.0398C17.5927 54.668 18.0408 55.1211 18.0408 55.6798C18.0408 56.2386 17.5927 56.6917 17.0398 56.6917Z" fill="#408CD9"/>
<path d="M19.4392 65.6956H7.72759C7.17465 65.6956 6.72656 65.2425 6.72656 64.6837C6.72656 64.125 7.17465 63.6719 7.72759 63.6719H19.4392C19.9922 63.6719 20.4403 64.125 20.4403 64.6837C20.4403 65.2427 19.9922 65.6956 19.4392 65.6956Z" fill="#408CD9"/>
<path d="M19.4392 69.2894H7.72759C7.17465 69.2894 6.72656 68.8363 6.72656 68.2775C6.72656 67.7187 7.17465 67.2656 7.72759 67.2656H19.4392C19.9922 67.2656 20.4403 67.7187 20.4403 68.2775C20.4403 68.8363 19.9922 69.2894 19.4392 69.2894Z" fill="#408CD9"/>
<path d="M86.4189 70.4986C86.1508 70.4986 85.8937 70.3914 85.7049 70.2008L83.5012 67.9732C83.1142 67.5819 83.1142 66.9519 83.5012 66.5606L85.7049 64.333C85.8935 64.1424 86.1506 64.0352 86.4189 64.0352C86.6873 64.0352 86.9441 64.1424 87.1329 64.333L89.3366 66.5606C89.7237 66.9519 89.7237 67.5819 89.3366 67.9732L87.1329 70.2008C86.9441 70.3912 86.6871 70.4986 86.4189 70.4986ZM85.6278 67.2668L86.4187 68.0664L87.2099 67.2668L86.4187 66.4672L85.6278 67.2668Z" fill="#FF6C6C"/>
<path d="M76.3056 76.1627C76.0375 76.1627 75.7804 76.0554 75.5916 75.8648L73.3879 73.6372C73.0009 73.246 73.0009 72.6159 73.3879 72.2247L75.5916 69.9971C75.7802 69.8065 76.0373 69.6992 76.3056 69.6992C76.5738 69.6992 76.8309 69.8065 77.0197 69.9971L79.2234 72.2247C79.6104 72.6159 79.6104 73.246 79.2234 73.6372L77.0197 75.8648C76.8309 76.0554 76.5738 76.1627 76.3056 76.1627ZM75.5145 72.9309L76.3056 73.7304L77.0966 72.9309L76.3056 72.1313L75.5145 72.9309Z" fill="#FF6C6C"/>
<path d="M11.4572 17.4736C10.9027 17.4736 10.453 17.0239 10.453 16.4693C10.453 15.7973 9.91713 15.2508 9.25815 15.2508C8.7036 15.2508 8.25391 14.8011 8.25391 14.2466C8.25391 13.692 8.7036 13.2423 9.25815 13.2423C9.91693 13.2423 10.453 12.6956 10.453 12.0238C10.453 11.4692 10.9027 11.0195 11.4572 11.0195C12.0118 11.0195 12.4615 11.4692 12.4615 12.0238C12.4615 12.6958 12.9973 13.2423 13.6563 13.2423C14.2109 13.2423 14.6606 13.692 14.6606 14.2466C14.6606 14.8011 14.2109 15.2508 13.6563 15.2508C12.9975 15.2508 12.4615 15.7975 12.4615 16.4693C12.4615 17.0239 12.0118 17.4736 11.4572 17.4736Z" fill="#FF9D33"/>
<path d="M15.1291 7.21576C14.5746 7.21576 14.1249 6.76607 14.1249 6.21152C14.1249 5.53949 13.589 4.99298 12.93 4.99298C12.3755 4.99298 11.9258 4.54328 11.9258 3.98874C11.9258 3.4342 12.3755 2.9845 12.93 2.9845C13.5888 2.9845 14.1249 2.43779 14.1249 1.76596C14.1249 1.21142 14.5746 0.761719 15.1291 0.761719C15.6836 0.761719 16.1333 1.21142 16.1333 1.76596C16.1333 2.43799 16.6692 2.9845 17.3282 2.9845C17.8827 2.9845 18.3324 3.4342 18.3324 3.98874C18.3324 4.54328 17.8827 4.99298 17.3282 4.99298C16.6694 4.99298 16.1333 5.53969 16.1333 6.21152C16.1333 6.76627 15.6836 7.21576 15.1291 7.21576Z" fill="#FF9D33"/>
</svg>
