<svg width="101" height="94" viewBox="0 0 101 94" fill="none" xmlns="http://www.w3.org/2000/svg">
<path d="M62.9763 92.2652C77.2623 92.2652 88.8433 80.6842 88.8433 66.3982C88.8433 52.1123 77.2623 40.5312 62.9763 40.5312C48.6904 40.5312 37.1094 52.1123 37.1094 66.3982C37.1094 80.6842 48.6904 92.2652 62.9763 92.2652Z" fill="#D1ECFF"/>
<path d="M88.4029 61.6207C88.3948 61.6227 88.3847 61.6227 88.3766 61.6227H74.784C74.2262 61.6227 73.7734 61.17 73.7734 60.6121V43.1671C73.7734 43.0762 73.7856 42.9872 73.8098 42.9023C81.2943 46.3586 86.8466 53.2853 88.4029 61.6207Z" fill="#6B6B6B"/>
<path d="M74.5891 82.9851C74.1727 82.8699 73.7483 82.6192 73.3137 82.2372C72.7336 81.7258 72.2223 80.9052 71.7776 79.7794L59.6948 48.6488C59.6099 48.4326 59.4018 48.2891 59.1693 48.2891H55.9859C55.7535 48.2891 55.5453 48.4305 55.4624 48.6468L44.1457 77.6814C43.4929 79.3752 42.7854 80.6728 42.0234 81.5722C43.1007 83.0558 44.3317 84.4201 45.6919 85.645H49.415C49.7262 85.645 49.9789 85.3923 49.9789 85.081V83.5833C49.9789 83.2923 49.7566 83.0477 49.4655 83.0235C48.2164 82.9184 47.2543 82.6475 46.5752 82.2109L46.5671 82.2049C46.0982 81.9017 45.9062 81.3115 46.1063 80.79L49.3341 72.4041H60.089L62.4134 78.7567C62.8237 79.7794 63.0278 80.6 63.0278 81.2125C63.0278 81.8613 62.7549 82.314 62.2092 82.5687C61.7403 82.789 60.9924 82.9406 59.9657 83.0214C59.6726 83.0437 59.4462 83.2882 59.4462 83.5833V85.081C59.4462 85.3923 59.6989 85.645 60.0101 85.645H74.4395C74.7508 85.645 75.0034 85.3923 75.0034 85.081V83.5267C75.0034 83.2741 74.8336 83.0518 74.5891 82.9851ZM50.5145 69.3419L54.852 58.0697L58.9854 69.3419H50.5145Z" fill="#A3DEFF"/>
<path d="M27.1287 58.4332C41.4146 58.4332 52.9957 46.8521 52.9957 32.5662C52.9957 18.2803 41.4146 6.69922 27.1287 6.69922C12.8428 6.69922 1.26172 18.2803 1.26172 32.5662C1.26172 46.8521 12.8428 58.4332 27.1287 58.4332Z" fill="#D1ECFF"/>
<path d="M24.1316 22.3571H15.2098C14.6516 22.3571 14.1992 21.9046 14.1992 21.3465C14.1992 20.7885 14.6516 20.3359 15.2098 20.3359H24.1316C24.6899 20.3359 25.1422 20.7885 25.1422 21.3465C25.1422 21.9048 24.6897 22.3571 24.1316 22.3571Z" fill="white"/>
<path d="M39.4519 27.7985H15.2098C14.6516 27.7985 14.1992 27.346 14.1992 26.7879C14.1992 26.2299 14.6516 25.7773 15.2098 25.7773H39.4519C40.0102 25.7773 40.4625 26.2299 40.4625 26.7879C40.4625 27.346 40.0102 27.7985 39.4519 27.7985Z" fill="white"/>
<path d="M39.4519 31.5485H15.2098C14.6516 31.5485 14.1992 31.096 14.1992 30.5379C14.1992 29.9799 14.6516 29.5273 15.2098 29.5273H39.4519C40.0102 29.5273 40.4625 29.9799 40.4625 30.5379C40.4625 31.096 40.0102 31.5485 39.4519 31.5485Z" fill="white"/>
<path d="M39.4519 35.2983H15.2098C14.6516 35.2983 14.1992 34.8458 14.1992 34.2877C14.1992 33.7296 14.6516 33.2771 15.2098 33.2771H39.4519C40.0102 33.2771 40.4625 33.7296 40.4625 34.2877C40.4625 34.8458 40.0102 35.2983 39.4519 35.2983Z" fill="white"/>
<path d="M39.4559 40.7595H15.2137C14.6555 40.7595 14.2031 40.3069 14.2031 39.7489C14.2031 39.1908 14.6555 38.7383 15.2137 38.7383H39.4559C40.0141 38.7383 40.4665 39.1908 40.4665 39.7489C40.4665 40.3069 40.0141 40.7595 39.4559 40.7595Z" fill="white"/>
<path d="M39.4559 44.5095H15.2137C14.6555 44.5095 14.2031 44.0569 14.2031 43.4989C14.2031 42.9408 14.6555 42.4883 15.2137 42.4883H39.4559C40.0141 42.4883 40.4665 42.9408 40.4665 43.4989C40.4665 44.0569 40.0141 44.5095 39.4559 44.5095Z" fill="white"/>
<path d="M39.4559 48.2595H15.2137C14.6555 48.2595 14.2031 47.8069 14.2031 47.2489C14.2031 46.6908 14.6555 46.2383 15.2137 46.2383H39.4559C40.0141 46.2383 40.4665 46.6908 40.4665 47.2489C40.4665 47.8069 40.0141 48.2595 39.4559 48.2595Z" fill="white"/>
<path d="M55.285 43.8504V59.2156C55.285 59.7735 54.8323 60.2262 54.2744 60.2262H35.8309C35.2731 60.2262 34.8203 59.7735 34.8203 59.2156V43.8504L38.3111 42.8398H51.0908L55.285 43.8504Z" fill="white"/>
<path d="M55.2858 43.8505V39.7489C55.2858 39.1908 54.8333 38.7383 54.2752 38.7383H35.8309C35.2729 38.7383 34.8203 39.1908 34.8203 39.7489V43.8507H55.2858V43.8505Z" fill="#83C3FF"/>
<path d="M55.2858 39.7489C55.2858 39.1908 54.8333 38.7383 54.2752 38.7383H35.8309C35.2729 38.7383 34.8203 39.1908 34.8203 39.7489V43.8507H34.8207V59.2153C34.8207 59.7732 35.2735 60.2259 35.8313 60.2259H54.2748C54.8327 60.2259 55.2854 59.7732 55.2854 59.2153V43.8507H55.2858V39.7489Z" fill="#83C3FF"/>
<path d="M41.3009 55.6567C40.8783 55.6567 40.5003 55.3937 40.3533 54.9973L37.825 48.1786C37.631 47.6553 37.898 47.0738 38.4213 46.8798C38.9448 46.6856 39.5263 46.9528 39.7203 47.476L41.3009 51.7392L42.8815 47.476C43.0757 46.9528 43.6566 46.6856 44.1805 46.8798C44.7038 47.0738 44.9708 47.6553 44.7768 48.1786L42.2484 54.9973C42.1015 55.3937 41.7235 55.6567 41.3009 55.6567Z" fill="#6CB8FF"/>
<path d="M49.6299 55.6563H47.1008C46.5425 55.6563 46.0902 55.2038 46.0902 54.6457C46.0902 54.0877 46.5425 53.6351 47.1008 53.6351H49.6299C50.0127 53.6351 50.324 53.3237 50.324 52.9411C50.324 52.5584 50.0127 52.247 49.6299 52.247H48.4421C46.9447 52.247 45.7266 51.029 45.7266 49.5317C45.7266 48.0344 46.9445 46.8164 48.4421 46.8164H50.971C51.5292 46.8164 51.9816 47.269 51.9816 47.827C51.9816 48.3851 51.5292 48.8376 50.971 48.8376H48.4421C48.0592 48.8376 47.7478 49.1491 47.7478 49.5317C47.7478 49.9143 48.0592 50.2258 48.4421 50.2258H49.6299C51.127 50.2258 52.3452 51.4437 52.3452 52.9411C52.3452 54.4384 51.127 55.6563 49.6299 55.6563Z" fill="#6CB8FF"/>
<path d="M89.3833 42.4169V55.7608C89.3833 56.3189 88.9308 56.7714 88.3727 56.7714H74.7801C74.2221 56.7714 73.7695 56.3189 73.7695 55.7608V42.4169L78.219 41.4062H84.9347L89.3833 42.4169Z" fill="white"/>
<path d="M89.3842 42.4169V38.3153C89.3842 37.7572 88.9316 37.3047 88.3735 37.3047H74.7801C74.2221 37.3047 73.7695 37.7572 73.7695 38.3153V42.4171H89.3842V42.4169Z" fill="#6CC1FF"/>
<path d="M84.9344 47.807C84.9344 45.9554 83.428 44.4492 81.5766 44.4492C79.7252 44.4492 78.2188 45.9556 78.2188 47.807C78.2188 48.7202 78.5862 49.5483 79.1796 50.1543C78.5862 50.7602 78.2188 51.5883 78.2188 52.5015C78.2188 53.0595 78.6713 53.5121 79.2294 53.5121C79.7874 53.5121 80.24 53.0595 80.24 52.5015C80.24 51.7646 80.8394 51.1649 81.5766 51.1649C82.3137 51.1649 82.9132 51.7646 82.9132 52.5015C82.9132 53.0595 83.3657 53.5121 83.9238 53.5121C84.4819 53.5121 84.9344 53.0595 84.9344 52.5015C84.9344 51.5883 84.567 50.7602 83.9735 50.1543C84.567 49.5483 84.9344 48.72 84.9344 47.807ZM81.5766 46.4702C82.3135 46.4702 82.9132 47.0699 82.9132 47.8068C82.9132 48.5438 82.3135 49.1435 81.5766 49.1435C80.8396 49.1435 80.24 48.544 80.24 47.8068C80.24 47.0697 80.8394 46.4702 81.5766 46.4702Z" fill="#6CB8FF"/>
<path d="M48.6685 6.8856V20.2296C48.6685 20.7876 48.2159 21.2402 47.6579 21.2402H34.0653C33.5072 21.2402 33.0547 20.7876 33.0547 20.2296V6.8856L37.5034 5.875H44.219L48.6685 6.8856Z" fill="white"/>
<path d="M48.6693 6.88567V2.78404C48.6693 2.22599 48.2168 1.77344 47.6587 1.77344H34.0653C33.5072 1.77344 33.0547 2.22599 33.0547 2.78404V6.88587H48.6693V6.88567Z" fill="#33B6FF"/>
<path d="M44.2196 12.2758C44.2196 10.4242 42.7132 8.91797 40.8617 8.91797C39.0103 8.91797 37.5039 10.4244 37.5039 12.2758C37.5039 13.189 37.8714 14.0171 38.4648 14.623C37.8714 15.229 37.5039 16.0571 37.5039 16.9702C37.5039 17.5283 37.9565 17.9808 38.5145 17.9808C39.0726 17.9808 39.5251 17.5283 39.5251 16.9702C39.5251 16.2333 40.1246 15.6336 40.8617 15.6336C41.5989 15.6336 42.1984 16.2333 42.1984 16.9702C42.1984 17.5283 42.6509 17.9808 43.209 17.9808C43.767 17.9808 44.2196 17.5283 44.2196 16.9702C44.2196 16.0571 43.8521 15.229 43.2587 14.623C43.8521 14.0171 44.2196 13.189 44.2196 12.2758ZM40.8615 10.9392C41.5985 10.9392 42.1982 11.5389 42.1982 12.2758C42.1982 13.0127 41.5985 13.6124 40.8615 13.6124C40.1246 13.6124 39.5249 13.0129 39.5249 12.2758C39.5249 11.5387 40.1246 10.9392 40.8615 10.9392Z" fill="#6CCAFF"/>
<path d="M74.7821 57.7811H88.3755C89.49 57.7811 90.3967 56.8744 90.3967 55.7599V38.3155C90.3967 37.201 89.49 36.2943 88.3755 36.2943H74.7821C73.6676 36.2943 72.7609 37.201 72.7609 38.3155V41.3602C69.6456 40.1398 66.3602 39.5201 62.9763 39.5201C60.7077 39.5201 58.4668 39.8055 56.2946 40.3612V39.7506C56.2946 38.6361 55.3879 37.7294 54.2734 37.7294H53.5051C53.8346 36.036 54.0041 34.3054 54.0041 32.5672C54.0041 27.3511 52.508 22.3065 49.6806 17.9537V2.78292C49.6806 1.66843 48.7739 0.761719 47.6594 0.761719H34.066C32.9515 0.761719 32.0448 1.66843 32.0448 2.78292V6.14378C30.4288 5.84505 28.7799 5.69144 27.126 5.69144C12.3067 5.69144 0.25 17.7479 0.25 32.5674C0.25 47.3879 12.3065 59.4454 27.126 59.4454C29.3933 59.4454 31.6343 59.1602 33.8077 58.6044V59.2162C33.8077 60.3307 34.7144 61.2374 35.8289 61.2374H36.5963C36.2675 62.9322 36.0983 64.6623 36.0983 66.3983C36.0983 81.2188 48.1556 93.2763 62.9761 93.2763C77.7953 93.2763 89.852 81.2188 89.852 66.3983C89.852 64.9683 89.7382 63.5329 89.5141 62.1316C89.4257 61.5804 88.9073 61.2052 88.3563 61.2934C87.8051 61.3815 87.4298 61.8997 87.5181 62.4509C87.7255 63.7469 87.8308 65.0748 87.8308 66.3983C87.8308 80.1045 76.681 91.2551 62.9761 91.2551C49.2699 91.2551 38.1195 80.1045 38.1195 66.3983C38.1195 64.6601 38.3002 62.9277 38.6559 61.2374H54.2734C55.3879 61.2374 56.2946 60.3307 56.2946 59.2162V42.4517C58.4585 41.8494 60.702 41.5415 62.9763 41.5415C66.3743 41.5415 69.664 42.2168 72.7609 43.545V55.7599C72.7609 56.8744 73.6676 57.7811 74.7821 57.7811ZM74.7821 38.3155H88.3755L88.3769 55.7597H74.7821V38.3155ZM33.8077 39.7508V56.514C31.6423 57.1163 29.3988 57.4242 27.126 57.4242C13.421 57.4242 2.2712 46.2736 2.2712 32.5674C2.2712 18.8624 13.421 7.71264 27.126 7.71264C28.7823 7.71264 30.4331 7.87717 32.0448 8.20036V20.2271C32.0448 21.3416 32.9515 22.2483 34.066 22.2483H37.8406C38.3988 22.2483 38.8512 21.7958 38.8512 21.2377C38.8512 20.6797 38.3988 20.2271 37.8406 20.2271H34.066V2.78292H47.6594V20.2273H43.6635C43.1052 20.2273 42.6529 20.6799 42.6529 21.2379C42.6529 21.796 43.1052 22.2485 43.6635 22.2485H47.6594C48.3478 22.2485 48.9562 21.9019 49.3214 21.3748C51.0677 24.8284 51.9829 28.6453 51.9829 32.5676C51.9829 34.3085 51.8018 36.0412 51.4451 37.7298H35.8289C34.7146 37.7296 33.8077 38.6361 33.8077 39.7508ZM35.8289 59.2162V39.7508H54.2734L54.2746 59.2162H35.8289Z" fill="#408CD9"/>
<path d="M68.866 59.7985H59.9442C59.3859 59.7985 58.9336 59.346 58.9336 58.7879C58.9336 58.2299 59.3859 57.7773 59.9442 57.7773H68.866C69.4243 57.7773 69.8766 58.2299 69.8766 58.7879C69.8766 59.346 69.4243 59.7985 68.866 59.7985Z" fill="white"/>
<path d="M76.1015 65.24H59.9442C59.3859 65.24 58.9336 64.7874 58.9336 64.2294C58.9336 63.6713 59.3859 63.2188 59.9442 63.2188H76.1015C76.6598 63.2188 77.1121 63.6713 77.1121 64.2294C77.1121 64.7874 76.6596 65.24 76.1015 65.24Z" fill="white"/>
<path d="M76.1015 68.986H59.9442C59.3859 68.986 58.9336 68.5335 58.9336 67.9754C58.9336 67.4174 59.3859 66.9648 59.9442 66.9648H76.1015C76.6598 66.9648 77.1121 67.4174 77.1121 67.9754C77.1121 68.5335 76.6596 68.986 76.1015 68.986Z" fill="white"/>
<path d="M76.1015 74.4275H59.9442C59.3859 74.4275 58.9336 73.9749 58.9336 73.4169C58.9336 72.8588 59.3859 72.4062 59.9442 72.4062H76.1015C76.6598 72.4062 77.1121 72.8588 77.1121 73.4169C77.1121 73.9749 76.6596 74.4275 76.1015 74.4275Z" fill="white"/>
<path d="M76.1015 78.1775H59.9442C59.3859 78.1775 58.9336 77.7249 58.9336 77.1669C58.9336 76.6088 59.3859 76.1562 59.9442 76.1562H76.1015C76.6598 76.1562 77.1121 76.6088 77.1121 77.1669C77.1121 77.7249 76.6596 78.1775 76.1015 78.1775Z" fill="white"/>
<path d="M71.8053 35.8681C71.2471 35.8681 70.7947 35.4155 70.7947 34.8575C70.7947 34.1517 70.2203 33.5775 69.5145 33.5775C68.9563 33.5775 68.5039 33.1249 68.5039 32.5669C68.5039 32.0088 68.9563 31.5563 69.5145 31.5563C70.2203 31.5563 70.7947 30.982 70.7947 30.2762C70.7947 29.7182 71.2471 29.2656 71.8053 29.2656C72.3636 29.2656 72.8159 29.7182 72.8159 30.2762C72.8159 30.982 73.3902 31.5563 74.096 31.5563C74.6542 31.5563 75.1066 32.0088 75.1066 32.5669C75.1066 33.1249 74.6542 33.5775 74.096 33.5775C73.3902 33.5775 72.8159 34.1517 72.8159 34.8575C72.8159 35.4155 72.3634 35.8681 71.8053 35.8681Z" fill="#FF6C6C"/>
<path d="M69.934 21.2822C69.3758 21.2822 68.9234 20.8296 68.9234 20.2716C68.9234 19.5657 68.3492 18.9915 67.6434 18.9915C67.0852 18.9915 66.6328 18.539 66.6328 17.9809C66.6328 17.4229 67.0852 16.9703 67.6434 16.9703C68.3492 16.9703 68.9234 16.3961 68.9234 15.6903C68.9234 15.1322 69.3758 14.6797 69.934 14.6797C70.4923 14.6797 70.9446 15.1322 70.9446 15.6903C70.9446 16.3961 71.5191 16.9703 72.2249 16.9703C72.7831 16.9703 73.2355 17.4229 73.2355 17.9809C73.2355 18.539 72.7831 18.9915 72.2249 18.9915C71.5191 18.9915 70.9446 19.5657 70.9446 20.2716C70.9446 20.8296 70.4923 21.2822 69.934 21.2822Z" fill="#6CCAFF"/>
<path d="M38.3325 77.9462C37.7742 77.9462 37.3219 77.4937 37.3219 76.9356C37.3219 76.2298 36.7477 75.6556 36.0419 75.6556C35.4836 75.6556 35.0312 75.203 35.0312 74.645C35.0312 74.0869 35.4836 73.6344 36.0419 73.6344C36.7477 73.6344 37.3219 73.0602 37.3219 72.3544C37.3219 71.7963 37.7742 71.3438 38.3325 71.3438C38.8907 71.3438 39.3431 71.7963 39.3431 72.3544C39.3431 73.0602 39.9173 73.6344 40.6231 73.6344C41.1814 73.6344 41.6337 74.0869 41.6337 74.645C41.6337 75.203 41.1814 75.6556 40.6231 75.6556C39.9173 75.6556 39.3431 76.2298 39.3431 76.9356C39.3431 77.4937 38.8907 77.9462 38.3325 77.9462Z" fill="#6CB8FF"/>
<path d="M27.3711 70.1015C27.1126 70.1015 26.8537 70.0028 26.6566 69.8056L24.5343 67.6833C24.1396 67.2886 24.1396 66.6486 24.5343 66.2541L26.6566 64.1318C27.0509 63.7373 27.6913 63.7373 28.0856 64.1318L30.2079 66.2541C30.6026 66.6488 30.6026 67.2888 30.2079 67.6833L28.0856 69.8056C27.8885 70.0028 27.6296 70.1015 27.3711 70.1015ZM26.678 66.9686L27.3711 67.6617L28.0642 66.9686L27.3711 66.2755L26.678 66.9686Z" fill="#FF9D33"/>
<path d="M97.7617 31.0233C97.5032 31.0233 97.2443 30.9247 97.0472 30.7274L94.925 28.6052C94.5302 28.2104 94.5302 27.5705 94.925 27.176L97.0472 25.0537C97.4416 24.6592 98.0819 24.6592 98.4762 25.0537L100.598 27.176C100.993 27.5707 100.993 28.2106 100.598 28.6052L98.4762 30.7274C98.2792 30.9247 98.0204 31.0233 97.7617 31.0233ZM97.0689 27.8905L97.7619 28.5835L98.455 27.8905L97.7619 27.1974L97.0689 27.8905Z" fill="#FF9D33"/>
</svg>
