<svg width="83" height="88" viewBox="0 0 83 88" fill="none" xmlns="http://www.w3.org/2000/svg">
<path d="M80.1949 24.3368L75.5529 23.5995C75.2051 22.4718 74.7535 21.3897 74.2104 20.3634L76.9727 16.5577C77.564 15.743 77.4753 14.6192 76.7636 13.9075L72.8106 9.95451C72.0988 9.24274 70.9749 9.15404 70.1604 9.74536L66.3546 12.5075C65.3284 11.9644 64.2463 11.5128 63.1186 11.1649L62.3812 6.52303C62.2233 5.52869 61.3659 4.79688 60.3592 4.79688H54.7688C53.7622 4.79688 52.9047 5.52869 52.7468 6.52303L52.0094 11.1647C50.8815 11.5126 49.7995 11.9642 48.7732 12.5073L44.9677 9.74517C44.1529 9.15384 43.0292 9.24254 42.3174 9.95431L38.3645 13.9073C37.6527 14.619 37.5638 15.743 38.1553 16.5575L40.9177 20.3632C40.3748 21.3895 39.9231 22.4714 39.5753 23.5991L34.9332 24.3366C33.9388 24.4946 33.207 25.352 33.207 26.3587V31.9489C33.207 32.9555 33.9388 33.8129 34.9332 33.9709L39.5751 34.7083C39.9229 35.836 40.3746 36.918 40.9177 37.9443L38.1555 41.75C37.5642 42.5648 37.6529 43.6885 38.3647 44.4003L42.3174 48.353C43.0292 49.0648 44.1531 49.1535 44.9677 48.5622L48.7734 45.8C49.7997 46.3431 50.8817 46.7947 52.0094 47.1426L52.7468 51.7845C52.9047 52.7786 53.7622 53.5107 54.7688 53.5107H60.359C61.3657 53.5107 62.2231 52.7788 62.381 51.7845L63.1186 47.1422C64.2463 46.7943 65.3282 46.3427 66.3544 45.7998L70.1604 48.5622C70.9751 49.1535 72.0988 49.0648 72.8106 48.353L76.7636 44.4003C77.4753 43.6885 77.564 42.5646 76.9727 41.75L74.2105 37.9445C74.7537 36.9182 75.2055 35.8362 75.5531 34.7083L80.1949 33.9709C81.1892 33.8129 81.921 32.9555 81.921 31.9489V26.3589C81.921 25.3522 81.1892 24.4948 80.1949 24.3368ZM67.4037 29.155C67.4037 34.588 62.9984 38.9934 57.5627 38.9934C52.1297 38.9934 47.7243 34.588 47.7243 29.155C47.7243 23.7195 52.1297 19.3139 57.5627 19.3139C62.9984 19.3141 67.4037 23.7195 67.4037 29.155Z" fill="#94C5FF"/>
<path d="M47.7243 29.153C47.7243 25.8928 49.3098 23.0016 51.7525 21.2118C49.276 16.9078 45.5991 13.3817 41.176 11.0938L38.3643 13.9055C37.6519 14.6179 37.5646 15.741 38.1559 16.5566L40.9181 20.3625C40.3744 21.3884 39.922 22.4698 39.5747 23.5969L34.9334 24.3351C33.9392 24.4938 33.207 25.3511 33.207 26.3571V31.9469C33.207 32.953 33.9392 33.8122 34.9334 33.969L39.5747 34.7071C39.922 35.8342 40.3744 36.9157 40.9181 37.9435L38.1559 41.7475C37.5646 42.563 37.6519 43.6862 38.3643 44.3985L42.317 48.3513C43.0294 49.0637 44.1525 49.1529 44.9681 48.5616L48.774 45.7995C49.7106 46.2935 50.6948 46.7142 51.7187 47.0476C53.205 44.4779 54.2646 41.6264 54.7924 38.5944C50.7087 37.3998 47.7243 33.6237 47.7243 29.153Z" fill="#83C3FF"/>
<path d="M57.0391 48.8001L56.2192 43.6391C56.6613 43.6798 57.1088 43.7004 57.561 43.7004C58.014 43.7004 58.4625 43.6796 58.905 43.6389L58.085 48.8001H57.0391ZM66.8508 40.3414C67.5409 39.7675 68.1777 39.1307 68.7515 38.4408L71.8252 42.6755L71.0857 43.4151L66.8508 40.3414ZM43.2991 42.6755L46.3726 38.441C46.9465 39.1309 47.5832 39.7677 48.2732 40.3416L44.0387 43.4151L43.2991 42.6755ZM37.9141 29.6751V28.6292L43.0753 27.8092C43.0346 28.2517 43.0138 28.7002 43.0138 29.1532C43.0138 29.6056 43.0346 30.0531 43.0751 30.495L37.9141 29.6751ZM72.0495 30.4948C72.0901 30.0529 72.1108 29.6054 72.1108 29.1532C72.1108 28.7002 72.09 28.2519 72.0493 27.8092L77.2103 28.6292V29.6751L72.0495 30.4948ZM68.7513 19.8634C68.1775 19.1733 67.5407 18.5367 66.8506 17.9627L71.0857 14.8887L71.8252 15.6283L68.7513 19.8634ZM43.2991 15.6285L44.0389 14.8887L48.2736 17.9625C47.5836 18.5363 46.9469 19.1731 46.373 19.8634L43.2991 15.6285ZM58.9052 14.6647C58.4627 14.6238 58.0142 14.6032 57.5612 14.6032C57.1088 14.6032 56.6615 14.6238 56.2196 14.6645L57.0395 9.50391H58.0854L58.9052 14.6647Z" fill="#B3DBFF"/>
<path d="M37.0586 79.1914C37.0586 83.4803 33.5819 86.957 29.293 86.957C25.0041 86.957 21.5273 83.4803 21.5273 79.1914H37.0586Z" fill="#6CB8FF"/>
<path d="M44.8444 34.6497C44.8444 44.5364 37.8811 57.4354 29.2914 57.4354C20.7016 57.4354 13.7383 44.5364 13.7383 34.6497C13.7383 24.7631 20.7016 21.6328 29.2914 21.6328C37.8811 21.6328 44.8444 24.7631 44.8444 34.6497Z" fill="#66B6FF"/>
<path d="M35.9637 40.3683C35.425 40.1976 34.8495 40.4969 34.6793 41.036C34.5298 41.5089 34.389 41.991 34.2554 42.4802L32.6249 41.3053C32.2614 41.0435 31.7697 41.0483 31.4113 41.3174L29.2799 42.9193L27.04 41.3053C26.6765 41.0435 26.1848 41.0483 25.8264 41.3174L24.3215 42.4484C24.1906 41.9702 24.0525 41.4985 23.9064 41.036C23.736 40.4969 23.1607 40.198 22.622 40.3681C22.0828 40.5383 21.7838 41.1134 21.954 41.6525C24.8456 50.8074 24.5749 64.0656 24.5718 64.1985C24.5587 64.7637 25.0061 65.2326 25.5713 65.2457C25.5794 65.2459 25.5875 65.246 25.5955 65.246C26.1497 65.246 26.6053 64.8033 26.6184 64.2464C26.6279 63.8378 26.7761 56.6224 25.6671 49.0622L26.4537 48.4708L28.6944 50.0857C28.8732 50.2147 29.0831 50.2789 29.2928 50.2789C29.5095 50.2789 29.726 50.2103 29.9082 50.0734L32.0389 48.4708L32.913 49.1011C31.8101 56.6472 31.9578 63.8386 31.9673 64.2464C31.9804 64.8035 32.436 65.246 32.9902 65.246C32.9984 65.246 33.0065 65.2459 33.0146 65.2457C33.5798 65.2326 34.0272 64.7637 34.0141 64.1983C34.011 64.0656 33.7381 50.8143 36.6316 41.6525C36.8019 41.1136 36.5029 40.5385 35.9637 40.3683ZM32.6247 46.3692C32.2612 46.1073 31.7693 46.1121 31.4107 46.3813L29.2799 47.9839L27.0395 46.369C26.6761 46.1071 26.1842 46.1117 25.8256 46.3813L25.2934 46.7816C25.1609 46.0523 25.0152 45.3263 24.8555 44.6086L26.4545 43.4069L28.6944 45.0209C29.0581 45.2828 29.5498 45.2781 29.908 45.0088L32.0393 43.4069L33.7272 44.623C33.5643 45.3561 33.4161 46.0978 33.2815 46.8425L32.6247 46.3692Z" fill="#0094FF"/>
<path d="M37.6643 80.6461H20.9188C19.6542 80.6461 18.6289 79.6208 18.6289 78.3562V66.743C18.6289 65.4784 19.6542 64.4531 20.9188 64.4531H37.6643C38.9289 64.4531 39.9542 65.4784 39.9542 66.743V78.3562C39.9542 79.6208 38.9291 80.6461 37.6643 80.6461Z" fill="#B3D1FF"/>
<path d="M18.6289 67.9648H39.9542V70.8538H18.6289V67.9648Z" fill="#D9F1FF"/>
<path d="M18.6289 73.8516H39.9542V76.7405H18.6289V73.8516Z" fill="#D9F1FF"/>
<path d="M80.3529 23.3569L76.3088 22.7139C76.0451 21.9476 75.7316 21.1918 75.3716 20.4558L77.7776 17.1408C78.66 15.9238 78.5289 14.2689 77.4657 13.2057L73.5129 9.25293C72.4489 8.18894 70.7942 8.05817 69.5794 8.94139L66.265 11.3486C65.5288 10.988 64.7722 10.6739 64.0045 10.41L63.3618 6.36932C63.1276 4.88366 61.8652 3.80518 60.3599 3.80518H54.7701C53.2677 3.80518 52.0053 4.88267 51.7682 6.36793L51.1253 10.4104C50.456 10.641 49.7946 10.9104 49.1473 11.2146C48.829 10.867 48.5014 10.5259 48.1633 10.1925C42.9969 5.10055 36.1592 2.35703 28.8944 2.45982C21.9088 2.56042 15.3159 5.35355 10.3303 10.3241C5.3447 15.2946 2.53193 21.8787 2.4103 28.8637C2.29342 35.6511 4.7125 42.1735 9.22206 47.2294C13.7007 52.2503 17.0482 57.8756 19.1873 63.9597C18.2582 64.54 17.637 65.5688 17.637 66.7426V78.3558C17.637 80.1524 19.0885 81.6146 20.8801 81.6358C21.9505 85.3408 25.3647 87.9517 29.2918 87.9517C33.2192 87.9517 36.6332 85.3406 37.7035 81.6358C39.4952 81.6146 40.9467 80.1524 40.9467 78.3558V66.7426C40.9467 65.5676 40.3242 64.5382 39.3938 63.9582C41.5351 57.8558 44.8711 52.2445 49.3247 47.2705C49.3449 47.2478 49.3644 47.2248 49.3844 47.2022C49.9567 47.4621 50.5385 47.6957 51.1261 47.8977L51.769 51.9401C52.0059 53.4248 53.2683 54.5023 54.7707 54.5023H60.3605C61.8658 54.5023 63.1284 53.4238 63.3622 51.9395L64.0051 47.8975C64.7726 47.6334 65.529 47.3193 66.2656 46.9589L69.5798 49.3657C70.7954 50.2493 72.4497 50.1183 73.5137 49.0543L77.4665 45.1016C78.5297 44.0384 78.6608 42.3835 77.778 41.1661L75.3722 37.8531C75.7324 37.1157 76.0461 36.3593 76.3096 35.5933L80.3523 34.9506C81.8367 34.7167 82.9144 33.454 82.9144 31.9485V26.3587C82.9136 24.8564 81.8369 23.5938 80.3529 23.3569ZM38.9618 78.356C38.9618 79.0715 38.3796 79.6537 37.6641 79.6537H32.0671C31.5192 79.6537 31.0749 80.098 31.0749 80.6459C31.0749 81.1937 31.5192 81.638 32.0671 81.638H35.6111C34.6209 84.2055 32.1294 85.9676 29.2914 85.9676C26.4535 85.9676 23.962 84.2055 22.9718 81.638H26.3505C26.8984 81.638 27.3426 81.1937 27.3426 80.6459C27.3426 80.098 26.8984 79.6537 26.3505 79.6537H20.9188C20.2033 79.6537 19.6211 79.0715 19.6211 78.356V66.7427C19.6211 66.0272 20.2033 65.445 20.9188 65.445H37.6643C38.3798 65.445 38.962 66.0272 38.962 66.7427L38.9618 78.356ZM37.466 63.4607H21.1139C18.891 57.0702 15.3935 51.1676 10.7026 45.9086C6.52616 41.2262 4.28567 35.185 4.39402 28.8981C4.62539 15.6055 15.629 4.63562 28.9229 4.44394C35.6464 4.34611 41.9851 6.88961 46.7703 11.6057C51.5567 16.323 54.1926 22.6217 54.1926 29.3414C54.1926 35.4798 51.9386 41.3772 47.8458 45.9471C43.1785 51.1597 39.6916 57.0496 37.466 63.4607ZM80.9293 31.9485C80.9293 32.4714 80.5565 32.9096 80.0413 32.9907L75.398 33.7289C75.0244 33.7882 74.717 34.0551 74.6057 34.4166C74.2836 35.462 73.856 36.4934 73.3347 37.4826C73.1585 37.817 73.1875 38.2224 73.4095 38.5281L76.1713 42.3315C76.4779 42.7541 76.4321 43.329 76.0628 43.6985L72.11 47.6512C71.7405 48.0205 71.1671 48.0668 70.7456 47.7604L66.9397 44.9962C66.6335 44.7736 66.2273 44.7448 65.8929 44.9218C64.9069 45.4433 63.8759 45.8713 62.8282 46.1942C62.4666 46.3057 62.1997 46.6128 62.1404 46.9865L61.402 51.629C61.3209 52.1439 60.8828 52.5178 60.3603 52.5178H54.7705C54.249 52.5178 53.8106 52.1431 53.7283 51.6278L52.9901 46.9865C52.9306 46.6126 52.6637 46.3053 52.302 46.194C51.7618 46.0279 51.2253 45.8294 50.6957 45.6076C52.1404 43.7088 53.3183 41.6388 54.2059 39.4522C55.287 39.8051 56.4137 39.9852 57.5646 39.9852C63.538 39.9852 68.3977 35.1266 68.3977 29.1544C68.3977 23.6755 64.2997 19.0529 58.8651 18.4016C58.3214 18.3355 57.8271 18.7245 57.762 19.2688C57.6967 19.8129 58.0849 20.3066 58.6292 20.3718C63.0669 20.9036 66.4134 24.6794 66.4134 29.1544C66.4134 34.0325 62.4438 38.0009 57.5646 38.0009C56.6458 38.0009 55.7467 37.86 54.8834 37.5854C55.7334 34.9451 56.1775 32.167 56.1775 29.341C56.1775 23.2586 54.1762 17.4966 50.4845 12.7912C51.082 12.5318 51.6894 12.302 52.3032 12.1125C52.6645 12.001 52.931 11.6938 52.9903 11.3204L53.7283 6.67967C53.8106 6.16354 54.249 5.7891 54.7705 5.7891H60.3603C60.8828 5.7891 61.3209 6.16275 61.4022 6.67907L62.1404 11.3204C62.1997 11.694 62.4666 12.0014 62.8282 12.1127C63.8763 12.4356 64.9073 12.8638 65.8928 13.3851C66.2273 13.5619 66.6335 13.5333 66.9397 13.3107L70.7458 10.5463C71.1669 10.2403 71.7407 10.2862 72.11 10.6556L76.0628 14.6084C76.4323 14.9779 76.4779 15.5527 76.1717 15.975L73.4095 19.7809C73.1875 20.0869 73.1587 20.4927 73.3351 20.827C73.8558 21.8129 74.2832 22.8435 74.6057 23.8902C74.7172 24.2518 75.0244 24.5187 75.398 24.578L80.0407 25.3162C80.5557 25.3983 80.9293 25.8367 80.9293 26.3583V31.9485Z" fill="#408CD9"/>
<path d="M46.1875 60.1445H49.8749C50.4228 60.1445 50.8671 59.7002 50.8671 59.1523C50.8671 58.6044 50.4228 58.1602 49.8749 58.1602H46.1875C45.6396 58.1602 45.1953 58.6044 45.1953 59.1523C45.1953 59.7002 45.6394 60.1445 46.1875 60.1445V60.1445Z" fill="#408CD9"/>
<path d="M57.8122 62.2031H46.1875C45.6396 62.2031 45.1953 62.6474 45.1953 63.1953C45.1953 63.7432 45.6396 64.1874 46.1875 64.1874H57.8122C58.3601 64.1874 58.8044 63.7432 58.8044 63.1953C58.8044 62.6474 58.3601 62.2031 57.8122 62.2031V62.2031Z" fill="#408CD9"/>
<path d="M57.8122 66.25H46.1875C45.6396 66.25 45.1953 66.6943 45.1953 67.2422C45.1953 67.79 45.6396 68.2343 46.1875 68.2343H57.8122C58.3601 68.2343 58.8044 67.79 58.8044 67.2422C58.8044 66.6943 58.3601 66.25 57.8122 66.25V66.25Z" fill="#408CD9"/>
<path d="M7.03395 67.6929C6.48608 67.6929 6.0418 67.2486 6.0418 66.7007C6.0418 66.0078 5.47805 65.4441 4.78513 65.4441C4.23726 65.4441 3.79297 64.9998 3.79297 64.4519C3.79297 63.9041 4.23726 63.4598 4.78513 63.4598C5.47805 63.4598 6.0418 62.896 6.0418 62.2031C6.0418 61.6552 6.48608 61.2109 7.03395 61.2109C7.58182 61.2109 8.02611 61.6552 8.02611 62.2031C8.02611 62.896 8.58986 63.4598 9.28278 63.4598C9.83065 63.4598 10.2749 63.9041 10.2749 64.4519C10.2749 64.9998 9.83065 65.4441 9.28278 65.4441C8.58986 65.4441 8.02611 66.0078 8.02611 66.7007C8.02611 67.2486 7.58202 67.6929 7.03395 67.6929Z" fill="#FFAB66"/>
<path d="M69.3425 62.9273C68.7947 62.9273 68.3504 62.483 68.3504 61.9351C68.3504 61.2422 67.7866 60.6785 67.0937 60.6785C66.5459 60.6785 66.1016 60.2342 66.1016 59.6863C66.1016 59.1384 66.5459 58.6941 67.0937 58.6941C67.7866 58.6941 68.3504 58.1304 68.3504 57.4375C68.3504 56.8896 68.7947 56.4453 69.3425 56.4453C69.8904 56.4453 70.3347 56.8896 70.3347 57.4375C70.3347 58.1304 70.8984 58.6941 71.5914 58.6941C72.1392 58.6941 72.5835 59.1384 72.5835 59.6863C72.5835 60.2342 72.1392 60.6785 71.5914 60.6785C70.8984 60.6785 70.3347 61.2422 70.3347 61.9351C70.3347 62.483 69.8904 62.9273 69.3425 62.9273Z" fill="#FF6C6C"/>
<path d="M70.0678 4.5825C69.8138 4.5825 69.56 4.48567 69.3661 4.292L68.2819 3.20777L67.1977 4.292C66.8101 4.67934 66.1821 4.67934 65.7946 4.292C65.407 3.90446 65.407 3.27623 65.7946 2.88889L67.5804 1.103C67.968 0.715665 68.596 0.715665 68.9836 1.103L70.7694 2.88889C71.157 3.27643 71.157 3.90466 70.7694 4.292C70.5756 4.48567 70.3216 4.5825 70.0678 4.5825Z" fill="#83C3FF"/>
<path d="M78.2045 67.8833C77.9505 67.8833 77.6967 67.7865 77.5028 67.5928L76.4186 66.5085L75.3344 67.5928C74.9468 67.9801 74.3188 67.9801 73.9313 67.5928C73.5437 67.2052 73.5437 66.577 73.9313 66.1897L75.7172 64.4038C76.1047 64.0164 76.7327 64.0164 77.1203 64.4038L78.9062 66.1897C79.2937 66.5772 79.2937 67.2054 78.9062 67.5928C78.7123 67.7865 78.4585 67.8833 78.2045 67.8833Z" fill="#FFAB66"/>
<path d="M5.18497 54.6684C4.93098 54.6684 4.67719 54.5716 4.48332 54.3779L3.39909 53.2937L2.31486 54.3779C1.92732 54.7653 1.29928 54.7653 0.911747 54.3779C0.524209 53.9904 0.524209 53.3622 0.911747 52.9748L2.69763 51.1889C3.08517 50.8016 3.71321 50.8016 4.10074 51.1889L5.88663 52.9748C6.27417 53.3624 6.27417 53.9906 5.88663 54.3779C5.69276 54.5716 5.43897 54.6684 5.18497 54.6684Z" fill="#83C3FF"/>
</svg>
