<svg width="46" height="46" viewBox="0 0 46 46" fill="none" xmlns="http://www.w3.org/2000/svg">
<path d="M10.5677 8.9375L37.0625 8.9375C38.6158 8.9375 39.875 10.1967 39.875 11.75V31.4375C39.875 32.9908 38.6158 34.25 37.0625 34.25L8.9375 34.25C7.3842 34.25 6.125 32.9908 6.125 31.4375V11.75C6.125 10.1967 7.3842 8.9375 8.9375 8.9375H10.5" stroke="white" stroke-width="2" stroke-linecap="round" stroke-linejoin="round"/>
<path d="M28.625 39.875H17.375" stroke="white" stroke-width="2" stroke-linecap="round" stroke-linejoin="round"/>
<path d="M23.0001 24.0275C24.6721 24.0275 26.0275 22.6721 26.0275 21.0001C26.0275 19.3281 24.6721 17.9727 23.0001 17.9727C21.3281 17.9727 19.9727 19.3281 19.9727 21.0001C19.9727 22.6721 21.3281 24.0275 23.0001 24.0275Z" stroke="white" stroke-width="1.5" stroke-linecap="round" stroke-linejoin="round"/>
<path d="M27.3776 18.0171C27.5294 18.2345 27.6624 18.4645 27.7749 18.7046L29.4085 19.6128C29.6125 20.5264 29.6146 21.4735 29.4148 22.388L27.7749 23.2962C27.6624 23.5363 27.5294 23.7663 27.3776 23.9837L27.4091 25.8569C26.7168 26.4878 25.8974 26.9631 25.0061 27.2508L23.3978 26.2858C23.1332 26.3047 22.8676 26.3047 22.6031 26.2858L21.001 27.2445C20.1069 26.962 19.2848 26.4885 18.5917 25.8569L18.6232 23.99C18.4727 23.7696 18.3398 23.5376 18.2259 23.2962L16.5923 22.388C16.3884 21.4744 16.3862 20.5273 16.586 19.6128L18.2259 18.7046C18.3385 18.4645 18.4714 18.2345 18.6232 18.0171L18.5917 16.1439C19.284 15.513 20.1034 15.0377 20.9947 14.75L22.6031 15.715C22.8676 15.6961 23.1332 15.6961 23.3978 15.715L24.9998 14.7563C25.8939 15.0388 26.716 15.5123 27.4091 16.1439L27.3776 18.0171Z" stroke="white" stroke-width="1.5" stroke-linecap="round" stroke-linejoin="round"/>
</svg>
