<svg width="46" height="46" viewBox="0 0 46 46" fill="none" xmlns="http://www.w3.org/2000/svg">
<path d="M8.9375 34.25L37.0625 34.25C38.6158 34.25 39.875 32.9908 39.875 31.4375V11.75C39.875 10.1967 38.6158 8.9375 37.0625 8.9375L8.9375 8.9375C7.3842 8.9375 6.125 10.1967 6.125 11.75V31.4375C6.125 32.9908 7.3842 34.25 8.9375 34.25Z" stroke="white" stroke-width="2" stroke-linecap="round" stroke-linejoin="round"/>
<path d="M28.625 39.875H17.375" stroke="white" stroke-width="2" stroke-linecap="round" stroke-linejoin="round"/>
<path d="M17.5 18.375L13.75 21.5L17.5 24.625" stroke="white" stroke-width="2" stroke-linecap="round" stroke-linejoin="round"/>
<path d="M27.5 18.375L31.25 21.5L27.5 24.625" stroke="white" stroke-width="2" stroke-linecap="round" stroke-linejoin="round"/>
<path d="M25 14.625L20 28.375" stroke="white" stroke-width="2" stroke-linecap="round" stroke-linejoin="round"/>
<rect x="29.5" y="25.5" width="16" height="16" rx="8" fill="url(#paint0_linear_11_15358)"/>
<path d="M37.5001 35.922C38.8377 35.922 39.922 34.8377 39.922 33.5001C39.922 32.1625 38.8377 31.0781 37.5001 31.0781C36.1625 31.0781 35.0781 32.1625 35.0781 33.5001C35.0781 34.8377 36.1625 35.922 37.5001 35.922Z" stroke="white" stroke-linecap="round" stroke-linejoin="round"/>
<path d="M41.0019 31.1137C41.1233 31.2876 41.2297 31.4716 41.3197 31.6637L42.6266 32.3903C42.7898 33.1211 42.7915 33.8788 42.6316 34.6104L41.3197 35.337C41.2297 35.529 41.1233 35.713 41.0019 35.8869L41.0271 37.3855C40.4733 37.8902 39.8177 38.2704 39.1047 38.5006L37.818 37.7286C37.6064 37.7438 37.3939 37.7438 37.1823 37.7286L35.9006 38.4956C35.1853 38.2696 34.5276 37.8908 33.9732 37.3855L33.9984 35.892C33.8779 35.7157 33.7716 35.5301 33.6805 35.337L32.3737 34.6104C32.2105 33.8795 32.2088 33.1218 32.3686 32.3903L33.6805 31.6637C33.7706 31.4716 33.8769 31.2876 33.9984 31.1137L33.9732 29.6151C34.527 29.1104 35.1825 28.7302 35.8956 28.5L37.1823 29.272C37.3939 29.2569 37.6064 29.2569 37.818 29.272L39.0996 28.505C39.815 28.731 40.4726 29.1098 41.0271 29.6151L41.0019 31.1137Z" stroke="white" stroke-linecap="round" stroke-linejoin="round"/>
<defs>
<linearGradient id="paint0_linear_11_15358" x1="29.5" y1="33.7162" x2="45.5" y2="33.7162" gradientUnits="userSpaceOnUse">
<stop stop-color="#1164BF"/>
<stop offset="1" stop-color="#1E79D6"/>
</linearGradient>
</defs>
</svg>
