<svg width="45" height="45" viewBox="0 0 45 45" fill="none" xmlns="http://www.w3.org/2000/svg">
<path d="M16.1678 27.4179C15.7772 27.8084 15.7772 28.4416 16.1678 28.8321C16.5583 29.2227 17.1915 29.2227 17.582 28.8321L16.1678 27.4179ZM28.1886 18.2255C28.5791 17.835 28.5791 17.2018 28.1886 16.8113C27.7981 16.4208 27.1649 16.4208 26.7744 16.8113L28.1886 18.2255ZM10.4902 9.41061L10.247 10.3806L10.4902 9.41061ZM17.169 5.5546L18.1306 5.82903L17.169 5.5546ZM5.15926 18.644L4.44079 19.3396L5.15926 18.644ZM5.15926 26.356L4.44079 25.6605L5.15926 26.356ZM10.4902 35.5894L10.247 34.6194L10.4902 35.5894ZM17.169 39.4454L18.1306 39.171L17.169 39.4454ZM27.8308 39.4454L26.8692 39.171L27.8308 39.4454ZM34.5096 35.5894L34.7527 34.6194L34.5096 35.5894ZM39.8405 26.356L40.559 25.6605L39.8405 26.356ZM39.8405 18.644L40.559 19.3396L39.8405 18.644ZM34.5096 9.41061L34.7527 10.3806L34.5096 9.41061ZM27.8308 5.5546L26.8692 5.82903L27.8308 5.5546ZM17.582 28.8321L28.1886 18.2255L26.7744 16.8113L16.1678 27.4179L17.582 28.8321ZM10.247 10.3806C13.6725 11.2393 17.1614 9.22495 18.1306 5.82903L16.2074 5.28017C15.5344 7.63817 13.1119 9.03684 10.7333 8.44062L10.247 10.3806ZM5.87773 17.9484C2.69815 14.6642 5.81296 9.26915 10.247 10.3806L10.7333 8.44062C4.34752 6.83995 -0.138325 14.6097 4.44079 19.3396L5.87773 17.9484ZM5.87773 27.0516C8.3341 24.5143 8.3341 20.4857 5.87773 17.9484L4.44079 19.3396C6.14641 21.1014 6.14641 23.8987 4.44079 25.6605L5.87773 27.0516ZM10.247 34.6194C5.81296 35.7309 2.69815 30.3359 5.87773 27.0516L4.44079 25.6605C-0.138327 30.3904 4.34752 38.1601 10.7333 36.5594L10.247 34.6194ZM18.1306 39.171C17.1614 35.7751 13.6725 33.7608 10.247 34.6194L10.7333 36.5594C13.1119 35.9632 15.5344 37.3619 16.2074 39.7199L18.1306 39.171ZM26.8692 39.171C25.6147 43.5667 19.3851 43.5667 18.1306 39.171L16.2074 39.7199C18.014 46.0505 26.9857 46.0505 28.7924 39.7199L26.8692 39.171ZM34.7527 34.6194C31.3272 33.7608 27.8383 35.7751 26.8692 39.171L28.7924 39.7199C29.4653 37.3619 31.8879 35.9632 34.2665 36.5594L34.7527 34.6194ZM39.122 27.0516C42.3016 30.3359 39.1868 35.7309 34.7527 34.6194L34.2665 36.5594C40.6522 38.1601 45.1381 30.3904 40.559 25.6605L39.122 27.0516ZM39.122 17.9484C36.6657 20.4857 36.6657 24.5143 39.122 27.0516L40.559 25.6605C38.8533 23.8987 38.8533 21.1014 40.559 19.3396L39.122 17.9484ZM34.7527 10.3806C39.1868 9.26915 42.3016 14.6642 39.122 17.9484L40.559 19.3396C45.1381 14.6097 40.6522 6.83995 34.2665 8.44062L34.7527 10.3806ZM26.8692 5.82903C27.8383 9.22494 31.3272 11.2393 34.7527 10.3806L34.2665 8.44062C31.8879 9.03684 29.4653 7.63817 28.7924 5.28017L26.8692 5.82903ZM28.7924 5.28017C26.9857 -1.05042 18.014 -1.05042 16.2074 5.28017L18.1306 5.82903C19.3851 1.43329 25.6147 1.43329 26.8692 5.82903L28.7924 5.28017Z" fill="url(#paint0_linear_11_15352)"/>
<path d="M15 16.875C15 17.9105 15.8395 18.75 16.875 18.75C17.9105 18.75 18.75 17.9105 18.75 16.875C18.75 15.8395 17.9105 15 16.875 15C15.8395 15 15 15.8395 15 16.875Z" fill="url(#paint1_linear_11_15352)"/>
<path d="M26.25 28.125C26.25 29.1605 27.0895 30 28.125 30C29.1605 30 30 29.1605 30 28.125C30 27.0895 29.1605 26.25 28.125 26.25C27.0895 26.25 26.25 27.0895 26.25 28.125Z" fill="url(#paint2_linear_11_15352)"/>
<defs>
<linearGradient id="paint0_linear_11_15352" x1="3.57324" y1="23.0667" x2="41.4265" y2="23.0667" gradientUnits="userSpaceOnUse">
<stop stop-color="#00469F"/>
<stop offset="1" stop-color="#1E79D6"/>
</linearGradient>
<linearGradient id="paint1_linear_11_15352" x1="15" y1="22.7027" x2="30" y2="22.7027" gradientUnits="userSpaceOnUse">
<stop stop-color="#00469F"/>
<stop offset="1" stop-color="#1E79D6"/>
</linearGradient>
<linearGradient id="paint2_linear_11_15352" x1="15" y1="22.7027" x2="30" y2="22.7027" gradientUnits="userSpaceOnUse">
<stop stop-color="#00469F"/>
<stop offset="1" stop-color="#1E79D6"/>
</linearGradient>
</defs>
</svg>
