<svg width="46" height="46" viewBox="0 0 46 46" fill="none" xmlns="http://www.w3.org/2000/svg">
<path d="M33.3376 12.0747C33.7918 12.493 34.2221 12.9233 34.6284 13.3655L39.5229 14.0647C40.3204 15.4497 40.935 16.9321 41.3516 18.4751L38.3755 22.4372C38.3755 22.4372 38.4292 23.6563 38.3755 24.2659L41.3516 28.2281C40.937 29.7716 40.3222 31.2543 39.5229 32.6384L34.6284 33.3376C34.6284 33.3376 33.7858 34.2161 33.3376 34.6284L32.6384 39.5229C31.2534 40.3204 29.771 40.935 28.2281 41.3516L24.2659 38.3755C23.6575 38.4293 23.0456 38.4293 22.4372 38.3755L18.4751 41.3516C16.9315 40.937 15.4488 40.3222 14.0647 39.5229L13.3655 34.6284C12.9233 34.2101 12.493 33.7798 12.0747 33.3376L7.18025 32.6384C6.38277 31.2534 5.76809 29.771 5.35156 28.2281L8.32766 24.2659C8.32766 24.2659 8.27387 23.0468 8.32766 22.4372L5.35156 18.4751C5.76616 16.9315 6.38094 15.4488 7.18025 14.0647L12.0747 13.3655C12.493 12.9233 12.9233 12.493 13.3655 12.0747L14.0647 7.18025C15.4497 6.38277 16.9321 5.76809 18.4751 5.35156L22.4372 8.32766C23.0456 8.27386 23.6575 8.27386 24.2659 8.32766L28.2281 5.35156C29.7716 5.76616 31.2543 6.38094 32.6384 7.18025L33.3376 12.0747Z" stroke="url(#paint0_linear_20_30848)" stroke-width="2" stroke-linecap="round" stroke-linejoin="round"/>
<path d="M22.875 26.9375C24.6009 26.9375 26 25.5384 26 23.8125C26 22.0866 24.6009 20.6875 22.875 20.6875C21.1491 20.6875 19.75 22.0866 19.75 23.8125C19.75 25.5384 21.1491 26.9375 22.875 26.9375Z" stroke="url(#paint1_linear_20_30848)" stroke-width="1.8" stroke-linecap="round" stroke-linejoin="round"/>
<path d="M29.1875 20.9375C29.9154 20.9363 30.6336 21.1052 31.2846 21.4307C31.9357 21.7563 32.5017 22.2294 32.9375 22.8125" stroke="url(#paint2_linear_20_30848)" stroke-width="1.8" stroke-linecap="round" stroke-linejoin="round"/>
<path d="M12.8125 22.8125C13.2483 22.2294 13.8143 21.7563 14.4654 21.4307C15.1164 21.1052 15.8346 20.9363 16.5625 20.9375" stroke="url(#paint3_linear_20_30848)" stroke-width="1.8" stroke-linecap="round" stroke-linejoin="round"/>
<path d="M18.375 29.75C18.7866 28.9071 19.4266 28.1967 20.2222 27.6998C21.0178 27.2029 21.937 26.9395 22.875 26.9395C23.813 26.9395 24.7322 27.2029 25.5278 27.6998C26.3234 28.1967 26.9634 28.9071 27.375 29.75" stroke="url(#paint4_linear_20_30848)" stroke-width="1.8" stroke-linecap="round" stroke-linejoin="round"/>
<path d="M16.5621 20.9375C16.0876 20.938 15.6228 20.8034 15.2219 20.5495C14.821 20.2956 14.5007 19.9329 14.2983 19.5037C14.096 19.0746 14.0199 18.5966 14.0791 18.1259C14.1382 17.6551 14.3301 17.2108 14.6324 16.845C14.9346 16.4793 15.3347 16.207 15.7859 16.0602C16.2372 15.9134 16.7208 15.898 17.1805 16.0158C17.6401 16.1337 18.0567 16.3799 18.3816 16.7257C18.7065 17.0715 18.9263 17.5027 19.0152 17.9687" stroke="url(#paint5_linear_20_30848)" stroke-width="1.8" stroke-linecap="round" stroke-linejoin="round"/>
<path d="M26.7344 17.9687C26.8233 17.5027 27.0431 17.0715 27.368 16.7257C27.6929 16.3799 28.1095 16.1337 28.5691 16.0158C29.0288 15.898 29.5125 15.9134 29.9637 16.0602C30.4149 16.207 30.815 16.4793 31.1172 16.845C31.4195 17.2108 31.6114 17.6551 31.6705 18.1259C31.7297 18.5966 31.6536 19.0746 31.4513 19.5037C31.2489 19.9329 30.9286 20.2956 30.5277 20.5495C30.1268 20.8034 29.662 20.938 29.1875 20.9375" stroke="url(#paint6_linear_20_30848)" stroke-width="1.8" stroke-linecap="round" stroke-linejoin="round"/>
<defs>
<linearGradient id="paint0_linear_20_30848" x1="5.35156" y1="23.838" x2="41.3516" y2="23.838" gradientUnits="userSpaceOnUse">
<stop stop-color="#00469F"/>
<stop offset="1" stop-color="#1E79D6"/>
</linearGradient>
<linearGradient id="paint1_linear_20_30848" x1="19.75" y1="23.897" x2="26" y2="23.897" gradientUnits="userSpaceOnUse">
<stop stop-color="#00469F"/>
<stop offset="1" stop-color="#1E79D6"/>
</linearGradient>
<linearGradient id="paint2_linear_20_30848" x1="29.1875" y1="21.9003" x2="32.9375" y2="21.9003" gradientUnits="userSpaceOnUse">
<stop stop-color="#00469F"/>
<stop offset="1" stop-color="#1E79D6"/>
</linearGradient>
<linearGradient id="paint3_linear_20_30848" x1="12.8125" y1="21.9003" x2="16.5625" y2="21.9003" gradientUnits="userSpaceOnUse">
<stop stop-color="#00469F"/>
<stop offset="1" stop-color="#1E79D6"/>
</linearGradient>
<linearGradient id="paint4_linear_20_30848" x1="18.375" y1="28.3827" x2="27.375" y2="28.3827" gradientUnits="userSpaceOnUse">
<stop stop-color="#00469F"/>
<stop offset="1" stop-color="#1E79D6"/>
</linearGradient>
<linearGradient id="paint5_linear_20_30848" x1="14.0596" y1="18.5051" x2="19.0152" y2="18.5051" gradientUnits="userSpaceOnUse">
<stop stop-color="#00469F"/>
<stop offset="1" stop-color="#1E79D6"/>
</linearGradient>
<linearGradient id="paint6_linear_20_30848" x1="26.7344" y1="18.5051" x2="31.69" y2="18.5051" gradientUnits="userSpaceOnUse">
<stop stop-color="#00469F"/>
<stop offset="1" stop-color="#1E79D6"/>
</linearGradient>
</defs>
</svg>
