<svg width="45" height="45" viewBox="0 0 45 45" fill="none" xmlns="http://www.w3.org/2000/svg">
<path d="M32.8376 11.5747C33.2918 11.993 33.7221 12.4233 34.1284 12.8655L39.0229 13.5647C39.8204 14.9497 40.435 16.4321 40.8516 17.9751L37.8755 21.9372C37.8755 21.9372 37.9292 23.1563 37.8755 23.7659L40.8516 27.7281C40.437 29.2716 39.8222 30.7543 39.0229 32.1384L34.1284 32.8376C34.1284 32.8376 33.2858 33.7161 32.8376 34.1284L32.1384 39.0229C30.7534 39.8204 29.271 40.435 27.7281 40.8516L23.7659 37.8755C23.1575 37.9293 22.5456 37.9293 21.9372 37.8755L17.9751 40.8516C16.4315 40.437 14.9488 39.8222 13.5647 39.0229L12.8655 34.1284C12.4233 33.7101 11.993 33.2798 11.5747 32.8376L6.68025 32.1384C5.88277 30.7534 5.26809 29.271 4.85156 27.7281L7.82766 23.7659C7.82766 23.7659 7.77387 22.5468 7.82766 21.9372L4.85156 17.9751C5.26616 16.4315 5.88094 14.9488 6.68025 13.5647L11.5747 12.8655C11.993 12.4233 12.4233 11.993 12.8655 11.5747L13.5647 6.68025C14.9497 5.88277 16.4321 5.26809 17.9751 4.85156L21.9372 7.82766C22.5456 7.77386 23.1575 7.77386 23.7659 7.82766L27.7281 4.85156C29.2716 5.26616 30.7543 5.88094 32.1384 6.68025L32.8376 11.5747Z" stroke="white" stroke-width="2" stroke-linecap="round" stroke-linejoin="round"/>
<path d="M22.375 26.4375C24.1009 26.4375 25.5 25.0384 25.5 23.3125C25.5 21.5866 24.1009 20.1875 22.375 20.1875C20.6491 20.1875 19.25 21.5866 19.25 23.3125C19.25 25.0384 20.6491 26.4375 22.375 26.4375Z" stroke="white" stroke-width="1.8" stroke-linecap="round" stroke-linejoin="round"/>
<path d="M28.6875 20.4375C29.4154 20.4363 30.1336 20.6052 30.7846 20.9307C31.4357 21.2563 32.0017 21.7294 32.4375 22.3125" stroke="white" stroke-width="1.8" stroke-linecap="round" stroke-linejoin="round"/>
<path d="M12.3125 22.3125C12.7483 21.7294 13.3143 21.2563 13.9654 20.9307C14.6164 20.6052 15.3346 20.4363 16.0625 20.4375" stroke="white" stroke-width="1.8" stroke-linecap="round" stroke-linejoin="round"/>
<path d="M17.875 29.25C18.2866 28.4071 18.9266 27.6967 19.7222 27.1998C20.5178 26.7029 21.437 26.4395 22.375 26.4395C23.313 26.4395 24.2322 26.7029 25.0278 27.1998C25.8234 27.6967 26.4634 28.4071 26.875 29.25" stroke="white" stroke-width="1.8" stroke-linecap="round" stroke-linejoin="round"/>
<path d="M16.0621 20.4375C15.5876 20.438 15.1228 20.3034 14.7219 20.0495C14.321 19.7956 14.0007 19.4329 13.7983 19.0037C13.596 18.5746 13.5199 18.0966 13.5791 17.6259C13.6382 17.1551 13.8301 16.7108 14.1324 16.345C14.4346 15.9793 14.8347 15.707 15.2859 15.5602C15.7372 15.4134 16.2208 15.398 16.6805 15.5158C17.1401 15.6337 17.5567 15.8799 17.8816 16.2257C18.2065 16.5715 18.4263 17.0027 18.5152 17.4687" stroke="white" stroke-width="1.8" stroke-linecap="round" stroke-linejoin="round"/>
<path d="M26.2344 17.4687C26.3233 17.0027 26.5431 16.5715 26.868 16.2257C27.1929 15.8799 27.6095 15.6337 28.0691 15.5158C28.5288 15.398 29.0125 15.4134 29.4637 15.5602C29.9149 15.707 30.315 15.9793 30.6172 16.345C30.9195 16.7108 31.1114 17.1551 31.1705 17.6259C31.2297 18.0966 31.1536 18.5746 30.9513 19.0037C30.7489 19.4329 30.4286 19.7956 30.0277 20.0495C29.6268 20.3034 29.162 20.438 28.6875 20.4375" stroke="white" stroke-width="1.8" stroke-linecap="round" stroke-linejoin="round"/>
</svg>
