<svg width="45" height="45" viewBox="0 0 45 45" fill="none" xmlns="http://www.w3.org/2000/svg">
<path d="M10.0677 8.4375L36.5625 8.4375C38.1158 8.4375 39.375 9.6967 39.375 11.25V30.9375C39.375 32.4908 38.1158 33.75 36.5625 33.75L8.4375 33.75C6.8842 33.75 5.625 32.4908 5.625 30.9375V11.25C5.625 9.6967 6.8842 8.4375 8.4375 8.4375H10" stroke="url(#paint0_linear_20_30823)" stroke-width="2" stroke-linecap="round" stroke-linejoin="round"/>
<path d="M28.125 39.375H16.875" stroke="url(#paint1_linear_20_30823)" stroke-width="2" stroke-linecap="round" stroke-linejoin="round"/>
<path d="M22.5001 23.5275C24.1721 23.5275 25.5275 22.1721 25.5275 20.5001C25.5275 18.8281 24.1721 17.4727 22.5001 17.4727C20.8281 17.4727 19.4727 18.8281 19.4727 20.5001C19.4727 22.1721 20.8281 23.5275 22.5001 23.5275Z" stroke="url(#paint2_linear_20_30823)" stroke-width="1.5" stroke-linecap="round" stroke-linejoin="round"/>
<path d="M26.8776 17.5171C27.0294 17.7345 27.1624 17.9645 27.2749 18.2046L28.9085 19.1128C29.1125 20.0264 29.1146 20.9735 28.9148 21.888L27.2749 22.7962C27.1624 23.0363 27.0294 23.2663 26.8776 23.4837L26.9091 25.3569C26.2168 25.9878 25.3974 26.4631 24.5061 26.7508L22.8978 25.7858C22.6332 25.8047 22.3676 25.8047 22.1031 25.7858L20.501 26.7445C19.6069 26.462 18.7848 25.9885 18.0917 25.3569L18.1232 23.49C17.9727 23.2696 17.8398 23.0376 17.7259 22.7962L16.0923 21.888C15.8884 20.9744 15.8862 20.0273 16.086 19.1128L17.7259 18.2046C17.8385 17.9645 17.9714 17.7345 18.1232 17.5171L18.0917 15.6439C18.784 15.013 19.6034 14.5377 20.4947 14.25L22.1031 15.215C22.3676 15.1961 22.6332 15.1961 22.8978 15.215L24.4998 14.2563C25.3939 14.5388 26.216 15.0123 26.9091 15.6439L26.8776 17.5171Z" stroke="url(#paint3_linear_20_30823)" stroke-width="1.5" stroke-linecap="round" stroke-linejoin="round"/>
<defs>
<linearGradient id="paint0_linear_20_30823" x1="39.375" y1="20.7517" x2="5.625" y2="20.7517" gradientUnits="userSpaceOnUse">
<stop stop-color="#00469F"/>
<stop offset="1" stop-color="#1E79D6"/>
</linearGradient>
<linearGradient id="paint1_linear_20_30823" x1="16.875" y1="39.8885" x2="28.125" y2="39.8885" gradientUnits="userSpaceOnUse">
<stop stop-color="#00469F"/>
<stop offset="1" stop-color="#1E79D6"/>
</linearGradient>
<linearGradient id="paint2_linear_20_30823" x1="19.4727" y1="20.5819" x2="25.5275" y2="20.5819" gradientUnits="userSpaceOnUse">
<stop stop-color="#00469F"/>
<stop offset="1" stop-color="#1E79D6"/>
</linearGradient>
<linearGradient id="paint3_linear_20_30823" x1="15.9377" y1="20.6693" x2="29.0631" y2="20.6693" gradientUnits="userSpaceOnUse">
<stop stop-color="#00469F"/>
<stop offset="1" stop-color="#1E79D6"/>
</linearGradient>
</defs>
</svg>
