<svg width="43" height="40" viewBox="0 0 43 40" fill="none" xmlns="http://www.w3.org/2000/svg">
<path d="M34.5 13.4222V1.5H1.5V38.5H34.5V32.7444" stroke="url(#paint0_linear_20_30860)" stroke-width="2" stroke-linecap="round"/>
<path d="M7.4458 10.6001H8.65312L9.06826 9.26709H11.0106L11.4258 10.6001H12.6331L10.7174 5.1043H9.36533L7.4458 10.6001ZM10.028 6.1707H10.0509L10.744 8.40635H9.33486L10.028 6.1707ZM15.3486 10.6953C16.7654 10.6953 17.649 9.87646 17.649 8.65771V5.1043H16.4988V8.55488C16.4988 9.26709 16.0875 9.72031 15.3486 9.72031C14.6098 9.72031 14.1946 9.26709 14.1946 8.55488V5.1043H13.0444V8.65771C13.0444 9.88027 13.9395 10.6953 15.3486 10.6953ZM18.5669 10.6001H20.6654C22.3146 10.6001 23.2857 9.57559 23.2857 7.83125V7.82363C23.2857 6.08311 22.3107 5.1043 20.6654 5.1043H18.5669V10.6001ZM19.7171 9.64795V6.05264H20.5283C21.5376 6.05264 22.1127 6.68105 22.1127 7.82744V7.83506C22.1127 9.02334 21.5566 9.64795 20.5283 9.64795H19.7171ZM24.0284 10.6001H25.1786V5.1043H24.0284V10.6001ZM27.4066 10.6001H28.5568V6.05264H30.1488V5.1043H25.8185V6.05264H27.4066V10.6001Z" fill="url(#paint1_linear_20_30860)"/>
<path d="M33.3545 29.042C36.4956 29.042 39.042 26.4956 39.042 23.3545C39.042 20.2134 36.4956 17.667 33.3545 17.667C30.2134 17.667 27.667 20.2134 27.667 23.3545C27.667 26.4956 30.2134 29.042 33.3545 29.042Z" stroke="url(#paint2_linear_20_30860)" stroke-width="2" stroke-linecap="round" stroke-linejoin="round"/>
<path d="M37.3765 27.3765L40.6671 30.6671" stroke="url(#paint3_linear_20_30860)" stroke-width="2" stroke-linecap="round" stroke-linejoin="round"/>
<path d="M7.76685 15.2998H24.2335" stroke="url(#paint4_linear_20_30860)" stroke-width="2"/>
<path d="M7.76685 19.2998H17.3002" stroke="url(#paint5_linear_20_30860)" stroke-width="2"/>
<path d="M7.76685 23.2998H22.5002" stroke="url(#paint6_linear_20_30860)" stroke-width="2"/>
<path d="M9.06689 31.3335V33.9335" stroke="url(#paint7_linear_20_30860)" stroke-width="2" stroke-linecap="round" stroke-linejoin="round"/>
<path d="M12.5337 29.6001V33.9334" stroke="url(#paint8_linear_20_30860)" stroke-width="2" stroke-linecap="round" stroke-linejoin="round"/>
<path d="M16.0002 27.8667V33.9334" stroke="url(#paint9_linear_20_30860)" stroke-width="2" stroke-linecap="round" stroke-linejoin="round"/>
<defs>
<linearGradient id="paint0_linear_20_30860" x1="1.5" y1="20.5" x2="34.5" y2="20.5" gradientUnits="userSpaceOnUse">
<stop stop-color="#00469F"/>
<stop offset="1" stop-color="#1E79D6"/>
</linearGradient>
<linearGradient id="paint1_linear_20_30860" x1="7.3335" y1="8.22172" x2="30.3335" y2="8.22172" gradientUnits="userSpaceOnUse">
<stop stop-color="#00469F"/>
<stop offset="1" stop-color="#1E79D6"/>
</linearGradient>
<linearGradient id="paint2_linear_20_30860" x1="27.667" y1="23.5082" x2="39.042" y2="23.5082" gradientUnits="userSpaceOnUse">
<stop stop-color="#00469F"/>
<stop offset="1" stop-color="#1E79D6"/>
</linearGradient>
<linearGradient id="paint3_linear_20_30860" x1="37.3765" y1="29.0662" x2="40.6671" y2="29.0662" gradientUnits="userSpaceOnUse">
<stop stop-color="#00469F"/>
<stop offset="1" stop-color="#1E79D6"/>
</linearGradient>
<linearGradient id="paint4_linear_20_30860" x1="7.76685" y1="15.8133" x2="24.2335" y2="15.8133" gradientUnits="userSpaceOnUse">
<stop stop-color="#00469F"/>
<stop offset="1" stop-color="#1E79D6"/>
</linearGradient>
<linearGradient id="paint5_linear_20_30860" x1="7.76685" y1="19.8133" x2="17.3002" y2="19.8133" gradientUnits="userSpaceOnUse">
<stop stop-color="#00469F"/>
<stop offset="1" stop-color="#1E79D6"/>
</linearGradient>
<linearGradient id="paint6_linear_20_30860" x1="7.76685" y1="23.8133" x2="22.5002" y2="23.8133" gradientUnits="userSpaceOnUse">
<stop stop-color="#00469F"/>
<stop offset="1" stop-color="#1E79D6"/>
</linearGradient>
<linearGradient id="paint7_linear_20_30860" x1="9.06689" y1="32.6686" x2="10.0669" y2="32.6686" gradientUnits="userSpaceOnUse">
<stop stop-color="#00469F"/>
<stop offset="1" stop-color="#1E79D6"/>
</linearGradient>
<linearGradient id="paint8_linear_20_30860" x1="12.5337" y1="31.8253" x2="13.5337" y2="31.8253" gradientUnits="userSpaceOnUse">
<stop stop-color="#00469F"/>
<stop offset="1" stop-color="#1E79D6"/>
</linearGradient>
<linearGradient id="paint9_linear_20_30860" x1="16.0002" y1="30.982" x2="17.0002" y2="30.982" gradientUnits="userSpaceOnUse">
<stop stop-color="#00469F"/>
<stop offset="1" stop-color="#1E79D6"/>
</linearGradient>
</defs>
</svg>
