<svg width="40" height="44" viewBox="0 0 40 44" fill="none" xmlns="http://www.w3.org/2000/svg">
<path d="M13.6678 26.9179C13.2772 27.3084 13.2772 27.9416 13.6678 28.3321C14.0583 28.7227 14.6915 28.7227 15.082 28.3321L13.6678 26.9179ZM25.6886 17.7255C26.0791 17.335 26.0791 16.7018 25.6886 16.3113C25.2981 15.9208 24.6649 15.9208 24.2744 16.3113L25.6886 17.7255ZM7.99017 8.91061L7.74703 9.8806L7.99017 8.91061ZM14.669 5.0546L15.6306 5.32903L14.669 5.0546ZM2.65926 18.144L1.94079 18.8396L2.65926 18.144ZM2.65926 25.856L1.94079 25.1605L2.65926 25.856ZM7.99017 35.0894L7.74703 34.1194L7.99017 35.0894ZM14.669 38.9454L15.6306 38.671L14.669 38.9454ZM25.3308 38.9454L24.3692 38.671L25.3308 38.9454ZM32.0096 35.0894L32.2527 34.1194L32.0096 35.0894ZM37.3405 25.856L38.059 25.1605L37.3405 25.856ZM37.3405 18.144L38.059 18.8396L37.3405 18.144ZM32.0096 8.91061L32.2527 9.8806L32.0096 8.91061ZM25.3308 5.0546L24.3692 5.32903L25.3308 5.0546ZM15.082 28.3321L25.6886 17.7255L24.2744 16.3113L13.6678 26.9179L15.082 28.3321ZM7.74703 9.8806C11.1725 10.7393 14.6614 8.72495 15.6306 5.32903L13.7074 4.78017C13.0344 7.13817 10.6119 8.53684 8.23331 7.94062L7.74703 9.8806ZM3.37773 17.4484C0.19815 14.1642 3.31296 8.76915 7.74703 9.8806L8.23331 7.94062C1.84752 6.33995 -2.63833 14.1097 1.94079 18.8396L3.37773 17.4484ZM3.37773 26.5516C5.8341 24.0143 5.8341 19.9857 3.37773 17.4484L1.94079 18.8396C3.64641 20.6014 3.64641 23.3987 1.94079 25.1605L3.37773 26.5516ZM7.74703 34.1194C3.31296 35.2309 0.19815 29.8359 3.37773 26.5516L1.94079 25.1605C-2.63833 29.8904 1.84752 37.6601 8.23331 36.0594L7.74703 34.1194ZM15.6306 38.671C14.6614 35.2751 11.1725 33.2608 7.74703 34.1194L8.23331 36.0594C10.6119 35.4632 13.0344 36.8619 13.7074 39.2199L15.6306 38.671ZM24.3692 38.671C23.1147 43.0667 16.8851 43.0667 15.6306 38.671L13.7074 39.2199C15.514 45.5505 24.4857 45.5505 26.2924 39.2199L24.3692 38.671ZM32.2527 34.1194C28.8272 33.2608 25.3383 35.2751 24.3692 38.671L26.2924 39.2199C26.9653 36.8619 29.3879 35.4632 31.7665 36.0594L32.2527 34.1194ZM36.622 26.5516C39.8016 29.8359 36.6868 35.2309 32.2527 34.1194L31.7665 36.0594C38.1522 37.6601 42.6381 29.8904 38.059 25.1605L36.622 26.5516ZM36.622 17.4484C34.1657 19.9857 34.1657 24.0143 36.622 26.5516L38.059 25.1605C36.3533 23.3987 36.3533 20.6014 38.059 18.8396L36.622 17.4484ZM32.2527 9.8806C36.6868 8.76915 39.8016 14.1642 36.622 17.4484L38.059 18.8396C42.6381 14.1097 38.1522 6.33995 31.7665 7.94062L32.2527 9.8806ZM24.3692 5.32903C25.3383 8.72494 28.8272 10.7393 32.2527 9.8806L31.7665 7.94062C29.3879 8.53684 26.9653 7.13817 26.2924 4.78017L24.3692 5.32903ZM26.2924 4.78017C24.4857 -1.55042 15.514 -1.55042 13.7074 4.78017L15.6306 5.32903C16.8851 0.933292 23.1147 0.933292 24.3692 5.32903L26.2924 4.78017Z" fill="white"/>
<path d="M12.5 16.375C12.5 17.4105 13.3395 18.25 14.375 18.25C15.4105 18.25 16.25 17.4105 16.25 16.375C16.25 15.3395 15.4105 14.5 14.375 14.5C13.3395 14.5 12.5 15.3395 12.5 16.375Z" fill="white"/>
<path d="M23.75 27.625C23.75 28.6605 24.5895 29.5 25.625 29.5C26.6605 29.5 27.5 28.6605 27.5 27.625C27.5 26.5895 26.6605 25.75 25.625 25.75C24.5895 25.75 23.75 26.5895 23.75 27.625Z" fill="white"/>
</svg>
