<svg width="36" height="36" viewBox="0 0 36 36" fill="none" xmlns="http://www.w3.org/2000/svg">
<path d="M23.4705 31.1255H8.15796C7.86788 31.1255 7.58968 31.0103 7.38456 30.8051C7.17944 30.6 7.06421 30.3218 7.06421 30.0317V10.3442C7.06421 10.0542 7.17944 9.77596 7.38456 9.57084C7.58968 9.36572 7.86788 9.25049 8.15796 9.25049H19.0955L24.5642 14.7192V30.0317C24.5642 30.3218 24.449 30.6 24.2439 30.8051C24.0387 31.0103 23.7605 31.1255 23.4705 31.1255Z" stroke="white" stroke-width="2" stroke-linecap="round" stroke-linejoin="round"/>
<path d="M11.4392 9.25049V5.96924C11.4392 5.67916 11.5544 5.40096 11.7596 5.19584C11.9647 4.99072 12.2429 4.87549 12.533 4.87549H23.4705L28.9392 10.3442V25.6567C28.9392 25.9468 28.824 26.225 28.6189 26.4301C28.4137 26.6353 28.1355 26.7505 27.8455 26.7505H24.5642" stroke="white" stroke-width="2" stroke-linecap="round" stroke-linejoin="round"/>
<path d="M12.533 21.2817H19.0955" stroke="white" stroke-width="2" stroke-linecap="round" stroke-linejoin="round"/>
<path d="M12.533 25.6567H19.0955" stroke="white" stroke-width="2" stroke-linecap="round" stroke-linejoin="round"/>
</svg>
