<svg width="48" height="39" viewBox="0 0 48 39" fill="none" xmlns="http://www.w3.org/2000/svg">
<path fill-rule="evenodd" clip-rule="evenodd" d="M27.6498 19.8494L25.702 23.2292L23.608 22.6851L21.8931 24.6271L21.9007 26.4536L18.3286 28.1196L16.8665 26.6882L14.3676 27.1022L13.4268 28.7346L9.70936 28.129L9.05247 26.03L7.06785 24.7696L5.33156 25.3354L2.50859 22.1245L3.29644 20.7574L2.26251 18.3111L0.611133 17.958L0 13.8595L1.79016 13.0884L2.25371 10.4157L1.0764 9.05985L3.19273 5.38757L5.26584 5.76336L6.95633 4.15085L6.75516 2.14704L10.5888 0.623124L11.9882 2.01543L14.2852 1.68956L15.2589 0L19.5112 0.832053L19.6314 2.70713L21.763 3.93115L23.7177 3.25814L26.3204 6.36147L25.2156 8.27853L26.2976 10.2437L28.3117 10.7967L28.661 14.6755L26.8507 16.0468L26.5462 18.0229L27.6498 19.8494ZM26.5339 19.8609L25.5429 18.2207L25.9596 15.517L27.6557 14.2322L27.4138 11.5456L25.6507 11.0616L24.1126 8.26778L25.1522 6.46375L23.4054 4.38093L21.6629 4.98089L18.7048 3.28231L18.599 1.6316L15.7492 1.07398L14.8848 2.57391L11.649 3.03297L10.3576 1.74813L7.78413 2.77109L7.95983 4.52117L5.57599 6.79505L3.68807 6.45283L2.25074 8.94691L3.27889 10.131L2.64882 13.7638L1.05989 14.4483L1.46406 17.1588L2.9537 17.4773L4.36779 20.8232L3.68516 22.0077L5.63596 24.2266L7.20099 23.7166L9.86536 25.4087L10.4501 27.2772L12.9251 27.6804L13.7612 26.2297L17.191 25.6616L18.5257 26.9682L20.9366 25.8438L20.9302 24.2662L23.2778 21.6076L25.2344 22.1159L26.5339 19.8609Z" fill="#393E50" fill-opacity="0.4"/>
<path d="M10.1839 21.7067C6.12797 19.3777 4.73142 14.2075 7.06466 10.1588C9.39789 6.11017 14.5774 4.71614 18.6333 7.04517C22.6893 9.37421 24.0859 14.5444 21.7526 18.593C19.4194 22.6417 14.2399 24.0357 10.1839 21.7067ZM18.3561 7.52617C14.5663 5.34995 9.72667 6.65252 7.54652 10.4355C5.36638 14.2186 6.6713 19.0495 10.4611 21.2257C14.251 23.4019 19.0906 22.0993 21.2708 18.3163C23.4509 14.5333 22.146 9.70239 18.3561 7.52617Z" fill="#393E50" fill-opacity="0.4"/>
<path fill-rule="evenodd" clip-rule="evenodd" d="M35.6762 36.7494L37.2837 35.1042L36.893 33.9239L37.3456 32.8493L38.5936 32.3196L38.9288 30.0824L37.8293 29.4981L37.4705 28.2424L38.3823 27.3092L37.2935 25.2055L36.0583 25.3214L34.9834 24.3424L35.1739 23.2675L32.8059 22.2233L32.0023 23.0458L30.6154 22.9195L29.9915 21.9443L27.5405 22.2869L27.3795 23.4455L26.1679 24.1276L25.0093 23.6353L23.2627 25.4229L23.7618 26.3474L23.1195 27.7938L21.9667 27.9874L21.7539 30.384L22.6694 30.8064L22.9332 32.3273L22.2829 32.9928L23.4854 35.187L24.5782 35.1021L25.5622 36.0818L25.654 37.3556L27.7411 38.1997L28.5176 37.4051L30.0346 37.5089L30.6897 38.5146L33.0076 38.0564L33.2571 37.0242L34.5287 36.1594L35.6762 36.7494ZM30.2685 35.2091C33.0299 35.2091 35.2685 32.9705 35.2685 30.2091C35.2685 27.4477 33.0299 25.2091 30.2685 25.2091C27.507 25.2091 25.2685 27.4477 25.2685 30.2091C25.2685 32.9705 27.507 35.2091 30.2685 35.2091Z" fill="#393E50" fill-opacity="0.4"/>
<path fill-rule="evenodd" clip-rule="evenodd" d="M40.5596 25.2751L38.9087 25.293L38.6539 24.439L37.5765 24.2387L36.9136 24.6231L35.5351 23.7085L35.7397 22.8925L35.0488 22.0956L34.2514 22.1043L33.668 20.6635L34.2896 19.9925L34.3191 19.0275L33.7378 18.532L34.2956 16.8629L34.9633 16.8556L35.6298 15.9788L35.4012 15.3212L36.7602 14.2485L37.4279 14.7201L38.5005 14.3254L38.7392 13.6258L40.5329 13.6064L40.8445 14.4178L41.7967 14.6783L42.4822 14.1884L43.8656 15.2251L43.6617 16.0108L44.2769 16.7547L45.1021 16.7458L45.7189 18.4229L45.0627 18.8574L45.0782 19.8668L45.7458 20.4171L45.1795 21.9859L44.2431 21.996L43.762 22.7893L43.9964 23.6169L42.6606 24.5511L41.7703 24.1978L40.9855 24.5031L40.5596 25.2751ZM40.3141 24.883L40.6966 24.1898L41.7704 23.772L42.6046 24.103L43.5297 23.456L43.3246 22.7315L44.0085 21.6038L44.8897 21.5943L45.2697 20.5414L44.6747 20.0508L44.653 18.65L45.2307 18.2676L44.8174 17.1436L44.0848 17.1515L43.2181 16.1036L43.4063 15.3785L42.4777 14.6826L41.8789 15.1105L40.5362 14.7431L40.2525 14.0041L39.0342 14.0173L38.8258 14.6283L37.3678 15.1649L36.7752 14.7462L35.8764 15.4557L36.0826 16.0489L35.171 17.2481L34.5925 17.2544L34.207 18.4078L34.731 18.8545L34.6914 20.15L34.138 20.7473L34.5265 21.7066L35.2351 21.6989L36.1834 22.7926L35.9966 23.5376L36.927 24.1548L37.4996 23.8228L38.9745 24.097L39.2126 24.8949L40.3141 24.883Z" fill="#393E50" fill-opacity="0.4"/>
<path d="M36.1072 19.4889C36.0776 17.5682 37.6567 15.9938 39.6342 15.9724C41.6118 15.951 43.2389 17.4906 43.2685 19.4113C43.2982 21.3319 41.7191 22.9063 39.7415 22.9277C37.764 22.9492 36.1369 21.4095 36.1072 19.4889ZM43.0336 19.4138C43.0059 17.6192 41.4855 16.1806 39.6377 16.2006C37.7899 16.2206 36.3145 17.6917 36.3422 19.4863C36.3699 21.281 37.8902 22.7196 39.738 22.6996C41.5858 22.6795 43.0613 21.2085 43.0336 19.4138Z" fill="#393E50" fill-opacity="0.4"/>
</svg>
