<svg width="40" height="41" viewBox="0 0 40 41" fill="none" xmlns="http://www.w3.org/2000/svg">
<path d="M25.3686 12.9365H14.6349C13.6718 12.9376 12.8917 13.718 12.8906 14.6808V25.4145C12.8917 26.3773 13.6718 27.1577 14.6349 27.1587H25.3686C26.3314 27.1577 27.1118 26.3773 27.1128 25.4145V14.6808C27.1118 13.718 26.3314 12.9376 25.3686 12.9365ZM26.3078 25.4145C26.307 25.9329 25.887 26.3532 25.3686 26.3537H14.6349C14.1163 26.3532 13.6962 25.9329 13.6957 25.4145V14.6808C13.6962 14.1622 14.1163 13.7421 14.6349 13.7416H25.3686C25.887 13.7421 26.3073 14.1622 26.3078 14.6808V20.0476V25.4145Z" fill="white"/>
<path d="M29.1842 7.5752H10.821C8.99616 7.57735 7.51742 9.05573 7.51562 10.8806V29.2438C7.51742 31.0683 8.99616 32.547 10.821 32.5492H29.1842C31.0087 32.547 32.4874 31.0683 32.4896 29.2438V10.8806C32.4874 9.05573 31.0087 7.57735 29.1842 7.5752ZM31.3878 29.2438C31.3864 30.4603 30.4004 31.4459 29.1842 31.4474H10.821C9.60444 31.4459 8.61885 30.4603 8.61742 29.2438V10.8806C8.61849 9.66401 9.60444 8.67842 10.821 8.67699H29.1842C30.4004 8.67842 31.3864 9.66401 31.3878 10.8806V29.2438Z" fill="white"/>
<path d="M21.9903 34.3564C21.6859 34.3564 21.4395 34.6032 21.4395 34.9073V39.4981C21.4395 39.8026 21.6859 40.049 21.9903 40.049C22.2945 40.049 22.5412 39.8026 22.5412 39.4981V34.9073C22.5412 34.6032 22.2945 34.3564 21.9903 34.3564Z" fill="white"/>
<path d="M18.0182 34.3564C17.7137 34.3564 17.4673 34.6032 17.4673 34.9073V39.4981C17.4673 39.8026 17.7137 40.049 18.0182 40.049C18.3223 40.049 18.5691 39.8026 18.5691 39.4981V34.9073C18.5691 34.6032 18.3223 34.3564 18.0182 34.3564Z" fill="white"/>
<path d="M14.046 34.3564C13.7419 34.3564 13.4951 34.6032 13.4951 34.9073V39.4981C13.4951 39.8026 13.7419 40.049 14.046 40.049C14.3502 40.049 14.5969 39.8026 14.5969 39.4981V34.9073C14.5969 34.6032 14.3502 34.3564 14.046 34.3564Z" fill="white"/>
<path d="M25.9557 34.3564C25.6512 34.3564 25.4048 34.6032 25.4048 34.9073V39.4981C25.4048 39.8026 25.6512 40.049 25.9557 40.049C26.2598 40.049 26.5066 39.8026 26.5066 39.4981V34.9073C26.5066 34.6032 26.2598 34.3564 25.9557 34.3564Z" fill="white"/>
<path d="M18.5691 5.18955V0.598748C18.5691 0.294607 18.3223 0.0478516 18.0182 0.0478516C17.7137 0.0478516 17.4673 0.294607 17.4673 0.598748V5.18955C17.4673 5.49369 17.7137 5.74045 18.0182 5.74045C18.3223 5.74045 18.5691 5.49369 18.5691 5.18955Z" fill="white"/>
<path d="M22.5412 5.18955V0.598748C22.5412 0.294607 22.2945 0.0478516 21.9903 0.0478516C21.6859 0.0478516 21.4395 0.294607 21.4395 0.598748V5.18955C21.4395 5.49369 21.6859 5.74045 21.9903 5.74045C22.2945 5.74045 22.5412 5.49369 22.5412 5.18955Z" fill="white"/>
<path d="M26.5066 5.18955V0.598748C26.5066 0.294607 26.2598 0.0478516 25.9557 0.0478516C25.6512 0.0478516 25.4048 0.294607 25.4048 0.598748V5.18955C25.4048 5.49369 25.6512 5.74045 25.9557 5.74045C26.2598 5.74045 26.5066 5.49369 26.5066 5.18955Z" fill="white"/>
<path d="M14.5969 5.18955V0.598748C14.5969 0.294607 14.3502 0.0478516 14.046 0.0478516C13.7419 0.0478516 13.4951 0.294607 13.4951 0.598748V5.18955C13.4951 5.49369 13.7419 5.74045 14.046 5.74045C14.3502 5.74045 14.5969 5.49369 14.5969 5.18955Z" fill="white"/>
<path d="M39.4493 17.5127H34.8585C34.5544 17.5127 34.3076 17.7591 34.3076 18.0636C34.3076 18.3677 34.5544 18.6145 34.8585 18.6145H39.4493C39.7538 18.6145 40.0002 18.3677 40.0002 18.0636C40.0002 17.7591 39.7538 17.5127 39.4493 17.5127Z" fill="white"/>
<path d="M39.4493 21.4814H34.8585C34.5544 21.4814 34.3076 21.7278 34.3076 22.0323C34.3076 22.3365 34.5544 22.5832 34.8585 22.5832H39.4493C39.7538 22.5832 40.0002 22.3365 40.0002 22.0323C40.0002 21.7278 39.7538 21.4814 39.4493 21.4814Z" fill="white"/>
<path d="M39.4493 25.4502H34.8585C34.5544 25.4502 34.3076 25.6966 34.3076 26.0011C34.3076 26.3052 34.5544 26.552 34.8585 26.552H39.4493C39.7538 26.552 40.0002 26.3052 40.0002 26.0011C40.0002 25.6966 39.7538 25.4502 39.4493 25.4502Z" fill="white"/>
<path d="M39.4493 13.5439H34.8585C34.5544 13.5439 34.3076 13.7907 34.3076 14.0948C34.3076 14.399 34.5544 14.6457 34.8585 14.6457H39.4493C39.7538 14.6457 40.0002 14.399 40.0002 14.0948C40.0002 13.7907 39.7538 13.5439 39.4493 13.5439Z" fill="white"/>
<path d="M5.14365 21.4814H0.552849C0.248709 21.4814 0.00195312 21.7278 0.00195312 22.0323C0.00195312 22.3365 0.248709 22.5832 0.552849 22.5832H5.14365C5.44779 22.5832 5.69455 22.3365 5.69455 22.0323C5.69455 21.7278 5.44779 21.4814 5.14365 21.4814Z" fill="white"/>
<path d="M5.14365 17.5127H0.552849C0.248709 17.5127 0.00195312 17.7591 0.00195312 18.0636C0.00195312 18.3677 0.248709 18.6145 0.552849 18.6145H5.14365C5.44779 18.6145 5.69455 18.3677 5.69455 18.0636C5.69455 17.7591 5.44779 17.5127 5.14365 17.5127Z" fill="white"/>
<path d="M5.14365 13.5439H0.552849C0.248709 13.5439 0.00195312 13.7907 0.00195312 14.0948C0.00195312 14.399 0.248709 14.6457 0.552849 14.6457H5.14365C5.44779 14.6457 5.69455 14.399 5.69455 14.0948C5.69455 13.7907 5.44779 13.5439 5.14365 13.5439Z" fill="white"/>
<path d="M5.14365 25.4502H0.552849C0.248709 25.4502 0.00195312 25.6966 0.00195312 26.0011C0.00195312 26.3052 0.248709 26.552 0.552849 26.552H5.14365C5.44779 26.552 5.69455 26.3052 5.69455 26.0011C5.69455 25.6966 5.44779 25.4502 5.14365 25.4502Z" fill="white"/>
</svg>
