<svg xmlns="http://www.w3.org/2000/svg" xmlns:xlink="http://www.w3.org/1999/xlink" width="88" height="89" fill="none" xmlns:v="https://vecta.io/nano"><style><![CDATA[.B{stroke-linejoin:round}.C{stroke-linecap:round}]]></style><rect y=".607" width="88" height="88" rx="8" fill="url(#A)"/><g stroke="#fff" stroke-width="2" class="B"><path d="M19 33.965h19.643m10.714 0H69" class="C"/><use xlink:href="#B"/><path d="M24.357 60.749a5.36 5.36 0 0 0 5.357-5.357 5.36 5.36 0 0 0-5.357-5.357A5.36 5.36 0 0 0 19 55.392a5.36 5.36 0 0 0 5.357 5.357z"/><use xlink:href="#B" x="19.64" y="21.427"/><path d="M49.357 33.965c3.603 1.04 6.85 3.097 9.375 5.937s4.226 6.351 4.91 10.134m-39.285 0c.685-3.783 2.386-7.294 4.911-10.134s5.772-4.897 9.375-5.937" class="C"/></g><defs><linearGradient id="A" x1="0" y1="45.797" x2="88" y2="45.797" gradientUnits="userSpaceOnUse"><stop stop-color="#00469f"/><stop offset="1" stop-color="#1e79d6"/></linearGradient><path id="B" d="M44.002 39.322a5.36 5.36 0 0 0 5.357-5.357 5.36 5.36 0 0 0-5.357-5.357 5.36 5.36 0 0 0-5.357 5.357 5.36 5.36 0 0 0 5.357 5.357z"/></defs></svg>