<svg xmlns="http://www.w3.org/2000/svg" width="88" height="88" fill="none" xmlns:v="https://vecta.io/nano"><rect width="88" height="88" rx="8" fill="#393e50" fill-opacity=".1"/><g stroke="#5b5f6e"><g stroke-linejoin="round" stroke-width="2.12"><path d="M38.727 64.625H25.25c-.497 0-.974-.198-1.326-.549s-.549-.828-.549-1.326v-37.5c0-.497.198-.974.549-1.326s.829-.549 1.326-.549h37.5c.497 0 .974.198 1.326.549s.549.829.549 1.326v25.477" stroke-linecap="round"/><path d="M51.286 64.571a9 9 0 0 0 0-18 9 9 0 0 0 0 18z"/><path d="M57.65 61.936l5.207 5.207" stroke-linecap="round"/></g><path d="M29.429 31.143h27.857m-27.857 7.714h27.857" stroke-width="2.12"/></g></svg>
