<svg xmlns="http://www.w3.org/2000/svg" width="88" height="89" fill="#393e50" xmlns:v="https://vecta.io/nano"><rect y=".607" width="88" height="88" rx="8" fill-opacity=".1"/><g opacity=".8"><path d="M40.165 45.53c.232.439.702.548.908.548-1.481 1.947-.835 4.376-.327 5.347.465.247.654-.103.69-.308-1.191-2.084-.182-4.227.472-5.038h5.265c1.452 1.864.92 4.136.472 5.038.058.548.484.434.69.308 1.075-2.577.181-4.638-.399-5.347.61 0 .859-.274.908-.411v-.651h-8.678v.514zm4.559 1.656h-2.618a.5.5 0 0 0-.5.5v4.79a.5.5 0 0 0 .5.5h4.789a.5.5 0 0 0 .5-.5v-4.79a.5.5 0 0 0-.5-.5h-.284a.5.5 0 0 0-.5.482l-.151 4.228a.37.37 0 0 1-.368.355.37.37 0 0 1-.368-.368v-4.198a.5.5 0 0 0-.5-.5zm-7.319-8.684h-9.774a.5.5 0 0 0-.5.5v.996a.5.5 0 0 0 .422.494l9.774 1.537a.5.5 0 0 0 .578-.494v-2.534a.5.5 0 0 0-.5-.5zm13.957 3.031v-2.531a.5.5 0 0 1 .5-.5h9.505a.5.5 0 0 1 .5.5V40a.5.5 0 0 1-.42.494l-9.505 1.533a.5.5 0 0 1-.58-.494zm-12.651-4.201c0-.471 0-.707.146-.854s.382-.146.854-.146h9.579c.471 0 .707 0 .853.146s.147.382.147.854v5.961c0 .471 0 .707-.147.853s-.382.147-.853.147h-9.579c-.471 0-.707 0-.854-.147s-.146-.382-.146-.853v-5.961z"/><rect x="22.789" y="37.779" width="3.618" height="3.618" rx=".5"/><rect x="62.592" y="37.779" width="3.618" height="3.618" rx=".5"/><path d="M64.04 36.331c0 .724-1.62.724-3.618.724s-3.618-.324-3.618-.724 1.62-.724 3.618-.724 3.618 0 3.618.724zm-39.803 0c0 .724-1.62.724-3.618.724S17 36.731 17 36.331s1.62-.724 3.618-.724 3.618 0 3.618.724zm47.764 0c0 .4-1.62.724-3.618.724s-3.618 0-3.618-.724 1.62-.724 3.618-.724 3.618.324 3.618.724zm-39.803 0c0 .4-1.62.724-3.618.724s-3.619 0-3.619-.724 1.62-.724 3.619-.724 3.618.324 3.618.724z"/><rect x="24.236" y="45.738" width="7.237" height=".724" rx=".362"/><rect x="52.461" y="45.738" width="2.171" height=".724" rx=".362"/><rect x="22.066" y="47.91" width="15.197" height=".724" rx=".362"/><rect x="51.014" y="47.91" width="15.197" height=".724" rx=".362"/><rect x="25.684" y="50.082" width="2.171" height=".724" rx=".362"/><rect x="53.184" y="50.082" width="4.342" height=".724" rx=".362"/><rect x="30.75" y="50.082" width="4.342" height=".724" rx=".362"/><rect x="60.422" y="50.082" width="1.447" height=".724" rx=".362"/><rect x="30.025" y="52.252" width="7.237" height=".724" rx=".362"/><rect x="51.736" y="52.252" width="7.237" height=".724" rx=".362"/><rect x="33.645" y="45.738" width="2.171" height=".724" rx=".362"/><rect x="56.078" y="45.738" width="7.961" height=".724" rx=".362"/></g></svg>
