<svg width="42" height="43" viewBox="0 0 42 43" fill="none" xmlns="http://www.w3.org/2000/svg">
<path d="M20 20.5C27.5939 20.5 33.75 17.1421 33.75 13C33.75 8.85786 27.5939 5.5 20 5.5C12.4061 5.5 6.25 8.85786 6.25 13C6.25 17.1421 12.4061 20.5 20 20.5Z" stroke="url(#paint0_linear_19_17552)" stroke-width="1.5" stroke-linecap="round" stroke-linejoin="round"/>
<path d="M6.25 13V20.5C6.25 24.6406 12.4063 28 20 28C27.5937 28 33.75 24.6406 33.75 20.5V13" stroke="url(#paint1_linear_19_17552)" stroke-width="1.5" stroke-linecap="round" stroke-linejoin="round"/>
<path d="M6.25 20.5V28C6.25 32.1406 12.4063 35.5 20 35.5C27.5937 35.5 33.75 32.1406 33.75 28V20.5" stroke="url(#paint2_linear_19_17552)" stroke-width="1.5" stroke-linecap="round" stroke-linejoin="round"/>
<rect x="22" y="22.5" width="20" height="20" rx="10" fill="white"/>
<path d="M32 36.25C34.0711 36.25 35.75 34.5711 35.75 32.5C35.75 30.4289 34.0711 28.75 32 28.75C29.9289 28.75 28.25 30.4289 28.25 32.5C28.25 34.5711 29.9289 36.25 32 36.25Z" stroke="url(#paint3_linear_19_17552)" stroke-width="1.5" stroke-linecap="round" stroke-linejoin="round"/>
<path d="M36.3516 27.5859C36.5495 27.7682 36.737 27.9557 36.9141 28.1484L39.0469 28.4531C39.3944 29.0566 39.6622 29.7026 39.8438 30.375L38.5469 32.1016C38.5469 32.1016 38.5703 32.6328 38.5469 32.8984L39.8438 34.625C39.6631 35.2976 39.3952 35.9437 39.0469 36.5469L36.9141 36.8516C36.9141 36.8516 36.5469 37.2344 36.3516 37.4141L36.0469 39.5469C35.4434 39.8944 34.7974 40.1622 34.125 40.3438L32.3984 39.0469C32.1333 39.0703 31.8667 39.0703 31.6016 39.0469L29.875 40.3438C29.2024 40.1631 28.5563 39.8952 27.9531 39.5469L27.6484 37.4141C27.4557 37.2318 27.2682 37.0443 27.0859 36.8516L24.9531 36.5469C24.6056 35.9434 24.3378 35.2974 24.1562 34.625L25.4531 32.8984C25.4531 32.8984 25.4297 32.3672 25.4531 32.1016L24.1562 30.375C24.3369 29.7024 24.6048 29.0563 24.9531 28.4531L27.0859 28.1484C27.2682 27.9557 27.4557 27.7682 27.6484 27.5859L27.9531 25.4531C28.5566 25.1056 29.2026 24.8378 29.875 24.6562L31.6016 25.9531C31.8667 25.9297 32.1333 25.9297 32.3984 25.9531L34.125 24.6562C34.7976 24.8369 35.4437 25.1048 36.0469 25.4531L36.3516 27.5859Z" stroke="url(#paint4_linear_19_17552)" stroke-width="1.5" stroke-linecap="round" stroke-linejoin="round"/>
<defs>
<linearGradient id="paint0_linear_19_17552" x1="6.25" y1="13.2027" x2="33.75" y2="13.2027" gradientUnits="userSpaceOnUse">
<stop stop-color="#00469F"/>
<stop offset="1" stop-color="#1E79D6"/>
</linearGradient>
<linearGradient id="paint1_linear_19_17552" x1="6.25" y1="20.7027" x2="33.75" y2="20.7027" gradientUnits="userSpaceOnUse">
<stop stop-color="#00469F"/>
<stop offset="1" stop-color="#1E79D6"/>
</linearGradient>
<linearGradient id="paint2_linear_19_17552" x1="6.25" y1="28.2027" x2="33.75" y2="28.2027" gradientUnits="userSpaceOnUse">
<stop stop-color="#00469F"/>
<stop offset="1" stop-color="#1E79D6"/>
</linearGradient>
<linearGradient id="paint3_linear_19_17552" x1="28.25" y1="32.6014" x2="35.75" y2="32.6014" gradientUnits="userSpaceOnUse">
<stop stop-color="#00469F"/>
<stop offset="1" stop-color="#1E79D6"/>
</linearGradient>
<linearGradient id="paint4_linear_19_17552" x1="24.1563" y1="32.712" x2="39.8438" y2="32.712" gradientUnits="userSpaceOnUse">
<stop stop-color="#00469F"/>
<stop offset="1" stop-color="#1E79D6"/>
</linearGradient>
</defs>
</svg>
