<svg width="70" height="70" viewBox="0 0 70 70" fill="none" xmlns="http://www.w3.org/2000/svg">
<path d="M26.25 56.875H19.6875C15.6264 56.875 11.7316 55.2617 8.85993 52.3901C5.98828 49.5184 4.375 45.6236 4.375 41.5625C4.375 37.5014 5.98828 33.6066 8.85993 30.7349C11.7316 27.8633 15.6264 26.25 19.6875 26.25C20.9686 26.2495 22.245 26.4056 23.4883 26.7148" stroke="url(#paint0_linear_3073_21495)" stroke-width="3" stroke-linecap="round" stroke-linejoin="round"/>
<path d="M21.875 35C21.875 31.5339 22.6987 28.1173 24.2781 25.032C25.8576 21.9466 28.1476 19.2808 30.9595 17.2541C33.7713 15.2274 37.0246 13.8979 40.4511 13.3752C43.8776 12.8525 47.3792 13.1515 50.6675 14.2476C53.9557 15.3436 56.9365 17.2054 59.364 19.6795C61.7916 22.1536 63.5965 25.1691 64.63 28.4776C65.6635 31.7861 65.896 35.2928 65.3083 38.7087C64.7207 42.1247 63.3297 45.3521 61.25 48.125" stroke="url(#paint1_linear_3073_21495)" stroke-width="3" stroke-linecap="round" stroke-linejoin="round"/>
<path d="M32.293 44.2695L41.5625 35L50.832 44.2695" stroke="url(#paint2_linear_3073_21495)" stroke-width="3" stroke-linecap="round" stroke-linejoin="round"/>
<path d="M41.5625 56.875V35" stroke="url(#paint3_linear_3073_21495)" stroke-width="3" stroke-linecap="round" stroke-linejoin="round"/>
<defs>
<linearGradient id="paint0_linear_3073_21495" x1="4.375" y1="41.9764" x2="26.25" y2="41.9764" gradientUnits="userSpaceOnUse">
<stop stop-color="#00469F"/>
<stop offset="1" stop-color="#1E79D6"/>
</linearGradient>
<linearGradient id="paint1_linear_3073_21495" x1="21.875" y1="31.098" x2="65.625" y2="31.098" gradientUnits="userSpaceOnUse">
<stop stop-color="#00469F"/>
<stop offset="1" stop-color="#1E79D6"/>
</linearGradient>
<linearGradient id="paint2_linear_3073_21495" x1="32.293" y1="39.76" x2="50.832" y2="39.76" gradientUnits="userSpaceOnUse">
<stop stop-color="#00469F"/>
<stop offset="1" stop-color="#1E79D6"/>
</linearGradient>
<linearGradient id="paint3_linear_3073_21495" x1="41.5625" y1="46.2331" x2="42.5625" y2="46.2331" gradientUnits="userSpaceOnUse">
<stop stop-color="#00469F"/>
<stop offset="1" stop-color="#1E79D6"/>
</linearGradient>
</defs>
</svg>
