<svg width="41" height="49" viewBox="0 0 41 49" fill="none" xmlns="http://www.w3.org/2000/svg">
<path d="M4 16.5L20.374 2M4 16.5L20.374 31.25M4 16.5V24.75M20.374 2L37 16.5M20.374 2V10.25M37 16.5V24.75M37 16.5L28.687 23.875L20.374 31.25M20.374 31.25V40M20.374 40L37 24.75M20.374 40L4 24.75M37 24.75L20.374 10.25M20.374 10.25L4 24.75" stroke="url(#paint0_linear_10_52)" stroke-width="2"/>
<path d="M32.5393 35.5755C32.6628 35.5147 32.8049 35.501 32.9376 35.5381C36.3417 36.4886 38.8486 37.8059 40.1029 39.3056C41.3823 40.8354 41.2912 42.4748 39.8427 43.9843C38.3942 45.4938 35.6643 46.7944 32.0518 47.6959C28.4393 48.5974 24.1334 49.0526 19.7634 48.9952C15.3933 48.9377 11.188 48.3704 7.76178 47.3763C4.33557 46.3822 1.868 45.0134 0.719582 43.4697C-0.428841 41.926 -0.197944 40.2884 1.37854 38.7962C2.92517 37.3322 5.68741 36.0833 9.27354 35.2246C9.40716 35.1926 9.54836 35.2134 9.66752 35.2818C10.0951 35.5272 10.002 36.1778 9.52763 36.3121C6.95119 37.0414 4.95782 38.0165 3.77599 39.1352C2.39716 40.4403 2.19521 41.8726 3.19965 43.2227C4.20408 44.5729 6.36226 45.7701 9.3589 46.6396C12.3555 47.509 16.0336 48.0051 19.8557 48.0554C23.6779 48.1057 27.4438 47.7075 30.6034 46.919C33.763 46.1305 36.1506 44.9931 37.4175 43.6728C38.6844 42.3526 38.7641 40.9187 37.6451 39.5807C36.7079 38.4602 34.9713 37.4561 32.6289 36.669C32.1352 36.5031 32.0719 35.8055 32.5393 35.5755Z" fill="url(#paint1_linear_10_52)"/>
<path d="M28.4057 37.0616C28.5015 37.0139 28.612 37.0031 28.7151 37.0323C30.9444 37.6655 32.5862 38.5409 33.4092 39.537C34.2518 40.5569 34.1917 41.6499 33.2379 42.6562C32.284 43.6626 30.4862 44.5296 28.1073 45.1306C25.7283 45.7316 22.8928 46.0351 20.0149 45.9968C17.1371 45.9584 14.3677 45.5803 12.1114 44.9176C9.85513 44.2548 8.23015 43.3422 7.47387 42.3131C6.71759 41.284 6.86965 40.1923 7.90782 39.1974C8.92277 38.2248 10.7327 37.3947 13.0822 36.8224C13.186 36.7971 13.2958 36.8135 13.3882 36.8672C13.7147 37.0569 13.6431 37.5553 13.2811 37.6628C11.6962 38.133 10.4682 38.7517 9.73073 39.4584C8.84285 40.3092 8.71281 41.2429 9.35961 42.123C10.0064 43.0032 11.3961 43.7836 13.3258 44.3504C15.2554 44.9172 17.6239 45.2406 20.0851 45.2734C22.5464 45.3062 24.9714 45.0466 27.006 44.5326C29.0406 44.0186 30.5781 43.2771 31.3939 42.4165C32.2097 41.5558 32.261 40.6211 31.5404 39.7488C30.9589 39.0449 29.8992 38.4115 28.4731 37.9072C28.0971 37.7742 28.0486 37.2395 28.4057 37.0616Z" fill="url(#paint2_linear_10_52)"/>
<defs>
<linearGradient id="paint0_linear_10_52" x1="4" y1="21.5135" x2="37" y2="21.5135" gradientUnits="userSpaceOnUse">
<stop stop-color="#00469F"/>
<stop offset="1" stop-color="#1E79D6"/>
</linearGradient>
<linearGradient id="paint1_linear_10_52" x1="0" y1="41.7027" x2="41" y2="41.7027" gradientUnits="userSpaceOnUse">
<stop stop-color="#00469F"/>
<stop offset="1" stop-color="#1E79D6"/>
</linearGradient>
<linearGradient id="paint2_linear_10_52" x1="7" y1="41.1351" x2="34" y2="41.1351" gradientUnits="userSpaceOnUse">
<stop stop-color="#00469F"/>
<stop offset="1" stop-color="#1E79D6"/>
</linearGradient>
</defs>
</svg>
