<svg width="47" height="47" viewBox="0 0 47 47" fill="none" xmlns="http://www.w3.org/2000/svg">
<path d="M40.9619 12.0074C40.4027 12.0069 39.8466 12.0924 39.3134 12.2611C39.364 11.8592 39.3896 11.4544 39.3901 11.0494C39.2905 5.12445 34.4068 0.402009 28.4817 0.501545C24.1582 0.574161 20.3007 3.23509 18.6973 7.25111C15.5965 5.32832 11.5241 6.28344 9.60135 9.38428C8.9754 10.3937 8.6332 11.5533 8.61078 12.7408C7.77599 12.2588 6.82872 12.0057 5.86478 12.0074C2.90189 12.0074 0.5 14.4093 0.5 17.3722C0.5 20.335 2.90189 22.7369 5.86478 22.7369C6.28802 22.7369 6.63118 22.3938 6.63118 21.9705C6.63118 21.5473 6.28802 21.2041 5.86478 21.2041C3.74866 21.1697 2.06115 19.4265 2.09554 17.3104C2.12994 15.1942 3.8732 13.5067 5.98932 13.5411C7.27744 13.5621 8.46881 14.2289 9.16029 15.3158C9.39213 15.67 9.8671 15.7691 10.2213 15.5374C10.5274 15.3371 10.6492 14.9484 10.5122 14.6092C10.2709 14.0271 10.1449 13.4037 10.1413 12.7737C10.172 9.99625 12.4451 7.76785 15.2225 7.79209C16.46 7.79698 17.6539 8.25001 18.5831 9.06738C18.9022 9.34558 19.3863 9.31243 19.6644 8.99342C19.7398 8.90701 19.7948 8.80469 19.8255 8.69414C21.2278 3.81449 26.3203 0.995584 31.1999 2.3979C35.0742 3.51128 37.7712 7.01889 37.8519 11.0493C37.8487 11.8527 37.7365 12.6519 37.5185 13.4251C37.4052 13.8329 37.6438 14.2554 38.0517 14.3687C38.2723 14.4301 38.5088 14.3895 38.6965 14.2582C39.3594 13.7907 40.1508 13.5399 40.9619 13.5401C43.0783 13.5401 44.7939 15.2557 44.7939 17.3721C44.7939 19.4884 43.0783 21.204 40.9619 21.204C40.5387 21.204 40.1956 21.5472 40.1956 21.9704C40.1956 22.3937 40.5387 22.7368 40.9619 22.7368C43.9248 22.7368 46.3267 20.3349 46.3267 17.3721C46.3267 14.4093 43.9248 12.0074 40.9619 12.0074Z" fill="url(#paint0_linear_6_1235)"/>
<path d="M36.4351 29.637H10.3776C9.10774 29.637 8.07837 30.6663 8.07837 31.9362V35.0017C8.07837 36.2716 9.10774 37.3009 10.3776 37.3009H36.4351C37.7049 37.3009 38.7343 36.2716 38.7343 35.0017V31.9362C38.7343 30.6663 37.7049 29.637 36.4351 29.637ZM37.2015 35.0017C37.2015 35.425 36.8583 35.7681 36.4351 35.7681H10.3776C9.95432 35.7681 9.61116 35.425 9.61116 35.0017V31.9362C9.61116 31.5129 9.95432 31.1698 10.3776 31.1698H36.4351C36.8583 31.1698 37.2015 31.5129 37.2015 31.9362V35.0017Z" fill="url(#paint1_linear_6_1235)"/>
<path d="M34.3128 31.9827C33.4961 31.9878 32.8367 32.6512 32.8367 33.4679C32.8405 34.2902 33.5088 34.9544 34.3311 34.9532C35.1515 34.9481 35.8123 34.279 35.8072 33.4587C35.8021 32.6384 35.1331 31.9776 34.3128 31.9827ZM34.3311 33.5163C34.3082 33.5163 34.2928 33.491 34.2928 33.468L34.3311 33.4205V33.5163Z" fill="url(#paint2_linear_6_1235)"/>
<path d="M26.3253 32.7012H11.7637C11.3405 32.7012 10.9973 33.0443 10.9973 33.4676C10.9973 33.8908 11.3405 34.234 11.7637 34.234H26.3253C26.7485 34.234 27.0917 33.8908 27.0917 33.4676C27.0917 33.0443 26.7486 32.7012 26.3253 32.7012Z" fill="url(#paint3_linear_6_1235)"/>
<path d="M31.055 32.7012H29.0164C28.5932 32.7012 28.25 33.0443 28.25 33.4676C28.25 33.8908 28.5932 34.234 29.0164 34.234H31.055C31.4783 34.234 31.8214 33.8908 31.8214 33.4676C31.8214 33.0443 31.4784 32.7012 31.055 32.7012Z" fill="url(#paint4_linear_6_1235)"/>
<path d="M36.4351 38.8358H10.3776C9.10774 38.8358 8.07837 39.8652 8.07837 41.135V44.2006C8.07837 45.4704 9.10774 46.4998 10.3776 46.4998H36.4351C37.7049 46.4998 38.7343 45.4704 38.7343 44.2006V41.135C38.7343 39.8652 37.7049 38.8358 36.4351 38.8358ZM37.2015 44.2006C37.2015 44.6238 36.8583 44.967 36.4351 44.967H10.3776C9.95432 44.967 9.61116 44.6238 9.61116 44.2006V41.135C9.61116 40.7118 9.95432 40.3686 10.3776 40.3686H36.4351C36.8583 40.3686 37.2015 40.7118 37.2015 41.135V44.2006Z" fill="url(#paint5_linear_6_1235)"/>
<path d="M34.3128 41.1776C33.4961 41.1827 32.8367 41.8461 32.8367 42.6628C32.8405 43.4852 33.5088 44.1493 34.3311 44.1481C35.1515 44.143 35.8123 43.474 35.8072 42.6536C35.8021 41.8334 35.1331 41.1726 34.3128 41.1776ZM34.3311 42.7112C34.3082 42.7112 34.2928 42.6859 34.2928 42.6629L34.3311 42.6154V42.7112Z" fill="url(#paint6_linear_6_1235)"/>
<path d="M26.3253 41.896H11.7637C11.3405 41.896 10.9973 42.2392 10.9973 42.6624C10.9973 43.0856 11.3405 43.4288 11.7637 43.4288H26.3253C26.7485 43.4288 27.0917 43.0856 27.0917 42.6624C27.0917 42.2392 26.7486 41.896 26.3253 41.896Z" fill="url(#paint7_linear_6_1235)"/>
<path d="M31.055 41.896H29.0164C28.5932 41.896 28.25 42.2392 28.25 42.6624C28.25 43.0856 28.5932 43.4288 29.0164 43.4288H31.055C31.4783 43.4288 31.8214 43.0856 31.8214 42.6624C31.8214 42.2392 31.4784 41.896 31.055 41.896Z" fill="url(#paint8_linear_6_1235)"/>
<path d="M36.4414 20.4374H10.3839C9.11408 20.4374 8.08472 21.4667 8.08472 22.7366V25.8022C8.08472 27.072 9.11408 28.1013 10.3839 28.1013H36.4414C37.7112 28.1013 38.7406 27.072 38.7406 25.8022V22.7366C38.7406 21.4667 37.7112 20.4374 36.4414 20.4374ZM37.2078 25.8022C37.2078 26.2254 36.8647 26.5686 36.4414 26.5686H10.3839C9.96067 26.5686 9.61751 26.2254 9.61751 25.8022V22.7366C9.61751 22.3133 9.96067 21.9702 10.3839 21.9702H36.4414C36.8647 21.9702 37.2078 22.3133 37.2078 22.7366V25.8022Z" fill="url(#paint9_linear_6_1235)"/>
<path d="M35.5682 24.0588C35.4205 23.2446 34.6408 22.7042 33.8266 22.852C33.4408 22.9219 33.0978 23.1403 32.8713 23.4602C32.6437 23.7813 32.5548 24.1803 32.6245 24.5676C32.7534 25.2811 33.3741 25.8001 34.099 25.8008C34.1828 25.8007 34.2663 25.7938 34.3489 25.7801C34.7424 25.7151 35.0931 25.494 35.3214 25.167C35.5497 24.8458 35.6387 24.4463 35.5682 24.0588ZM34.0599 24.3285L34.0944 24.268L34.0983 24.3638C34.0638 24.3638 34.0615 24.3446 34.0599 24.3285Z" fill="url(#paint10_linear_6_1235)"/>
<path d="M26.1712 23.5033H11.6097C11.1864 23.5033 10.8433 23.8465 10.8433 24.2697C10.8433 24.6929 11.1864 25.0361 11.6097 25.0361H26.1712C26.5945 25.0361 26.9376 24.6929 26.9376 24.2697C26.9376 23.8465 26.5945 23.5033 26.1712 23.5033Z" fill="url(#paint11_linear_6_1235)"/>
<path d="M30.5658 23.5033H28.5271C28.1039 23.5033 27.7607 23.8465 27.7607 24.2697C27.7607 24.6929 28.1039 25.0361 28.5271 25.0361H30.5658C30.989 25.0361 31.3322 24.6929 31.3322 24.2697C31.3322 23.8465 30.9891 23.5033 30.5658 23.5033Z" fill="url(#paint12_linear_6_1235)"/>
<path d="M20.1203 13L17.8211 10.7008C17.5218 10.4016 17.0367 10.4016 16.7374 10.7008L14.4382 13C14.1442 13.3045 14.1527 13.7897 14.4571 14.0837C14.7541 14.3705 15.225 14.3705 15.5219 14.0837L16.5129 13.0928V18.1402C16.5129 18.5635 16.856 18.9066 17.2793 18.9066C17.7025 18.9066 18.0457 18.5635 18.0457 18.1402V13.0928L19.0366 14.0837C19.3411 14.3777 19.8263 14.3693 20.1203 14.0648C20.4071 13.7679 20.4071 13.297 20.1203 13Z" fill="url(#paint13_linear_6_1235)"/>
<path d="M32.3679 15.2994C32.0709 15.0126 31.6001 15.0126 31.303 15.2994L30.3121 16.2903V11.2428C30.3121 10.8196 29.9689 10.4764 29.5457 10.4764C29.1224 10.4764 28.7793 10.8196 28.7793 11.2428V16.2903L27.7883 15.2994C27.4839 15.0053 26.9987 15.0137 26.7046 15.3182C26.4178 15.6151 26.4178 16.086 26.7046 16.3831L29.0038 18.6823C29.3031 18.9814 29.7882 18.9814 30.0875 18.6823L32.3867 16.3831C32.6808 16.0786 32.6724 15.5934 32.3679 15.2994Z" fill="url(#paint14_linear_6_1235)"/>
<defs>
<linearGradient id="paint0_linear_6_1235" x1="0.5" y1="11.919" x2="46.3267" y2="11.919" gradientUnits="userSpaceOnUse">
<stop stop-color="#00469F"/>
<stop offset="1" stop-color="#1E79D6"/>
</linearGradient>
<linearGradient id="paint1_linear_6_1235" x1="8.07837" y1="33.5725" x2="38.7343" y2="33.5725" gradientUnits="userSpaceOnUse">
<stop stop-color="#00469F"/>
<stop offset="1" stop-color="#1E79D6"/>
</linearGradient>
<linearGradient id="paint2_linear_6_1235" x1="32.8367" y1="33.5081" x2="35.8073" y2="33.5081" gradientUnits="userSpaceOnUse">
<stop stop-color="#00469F"/>
<stop offset="1" stop-color="#1E79D6"/>
</linearGradient>
<linearGradient id="paint3_linear_6_1235" x1="10.9973" y1="33.4883" x2="27.0917" y2="33.4883" gradientUnits="userSpaceOnUse">
<stop stop-color="#00469F"/>
<stop offset="1" stop-color="#1E79D6"/>
</linearGradient>
<linearGradient id="paint4_linear_6_1235" x1="28.25" y1="33.4883" x2="31.8214" y2="33.4883" gradientUnits="userSpaceOnUse">
<stop stop-color="#00469F"/>
<stop offset="1" stop-color="#1E79D6"/>
</linearGradient>
<linearGradient id="paint5_linear_6_1235" x1="8.07837" y1="42.7714" x2="38.7343" y2="42.7714" gradientUnits="userSpaceOnUse">
<stop stop-color="#00469F"/>
<stop offset="1" stop-color="#1E79D6"/>
</linearGradient>
<linearGradient id="paint6_linear_6_1235" x1="32.8367" y1="42.703" x2="35.8073" y2="42.703" gradientUnits="userSpaceOnUse">
<stop stop-color="#00469F"/>
<stop offset="1" stop-color="#1E79D6"/>
</linearGradient>
<linearGradient id="paint7_linear_6_1235" x1="10.9973" y1="42.6831" x2="27.0917" y2="42.6831" gradientUnits="userSpaceOnUse">
<stop stop-color="#00469F"/>
<stop offset="1" stop-color="#1E79D6"/>
</linearGradient>
<linearGradient id="paint8_linear_6_1235" x1="28.25" y1="42.6831" x2="31.8214" y2="42.6831" gradientUnits="userSpaceOnUse">
<stop stop-color="#00469F"/>
<stop offset="1" stop-color="#1E79D6"/>
</linearGradient>
<linearGradient id="paint9_linear_6_1235" x1="8.08472" y1="24.3729" x2="38.7406" y2="24.3729" gradientUnits="userSpaceOnUse">
<stop stop-color="#00469F"/>
<stop offset="1" stop-color="#1E79D6"/>
</linearGradient>
<linearGradient id="paint10_linear_6_1235" x1="32.6013" y1="24.3544" x2="35.5918" y2="24.3544" gradientUnits="userSpaceOnUse">
<stop stop-color="#00469F"/>
<stop offset="1" stop-color="#1E79D6"/>
</linearGradient>
<linearGradient id="paint11_linear_6_1235" x1="10.8433" y1="24.2904" x2="26.9376" y2="24.2904" gradientUnits="userSpaceOnUse">
<stop stop-color="#00469F"/>
<stop offset="1" stop-color="#1E79D6"/>
</linearGradient>
<linearGradient id="paint12_linear_6_1235" x1="27.7607" y1="24.2904" x2="31.3322" y2="24.2904" gradientUnits="userSpaceOnUse">
<stop stop-color="#00469F"/>
<stop offset="1" stop-color="#1E79D6"/>
</linearGradient>
<linearGradient id="paint13_linear_6_1235" x1="14.2231" y1="14.8055" x2="20.3354" y2="14.8055" gradientUnits="userSpaceOnUse">
<stop stop-color="#00469F"/>
<stop offset="1" stop-color="#1E79D6"/>
</linearGradient>
<linearGradient id="paint14_linear_6_1235" x1="26.4895" y1="14.8055" x2="32.6019" y2="14.8055" gradientUnits="userSpaceOnUse">
<stop stop-color="#00469F"/>
<stop offset="1" stop-color="#1E79D6"/>
</linearGradient>
</defs>
</svg>
