<svg width="50" height="28" viewBox="0 0 50 28" fill="none" xmlns="http://www.w3.org/2000/svg">
<path fill-rule="evenodd" clip-rule="evenodd" d="M10.6218 0.224012C8.06394 0.893703 5.92721 2.67291 4.86338 5.01937C4.399 6.04337 4.19967 6.85288 4.11261 8.06715L4.03761 9.11472L2.52378 9.78176C1.69126 10.1487 0.865044 10.5566 0.687943 10.6884C0.0147126 11.1893 0 11.2968 0 15.6958C0 20.0617 0.0141593 20.1729 0.6375 20.6974C0.822124 20.8527 1.63938 21.2717 2.45365 21.6283L3.93418 22.2769L4.37312 22.9837C5.34823 24.5544 7.10631 25.9426 8.90608 26.563C10.2366 27.0216 11.7138 27.1255 16.1248 27.0705C19.4051 27.0297 19.923 26.9993 20.4093 26.8198C21.155 26.5445 22.0496 25.6262 22.7254 24.4422C23.6982 22.7381 24.1304 22.3404 25.0091 22.3404C25.759 22.3404 26.1271 22.6612 27.147 24.2037C28.1954 25.7893 28.7925 26.4207 29.5907 26.7875C30.1403 27.0401 30.1739 27.0417 34.7898 27.0384C39.8694 27.0349 40.0993 27.0116 41.6919 26.3425C43.2137 25.7031 44.7648 24.3802 45.6269 22.9864L46.0658 22.2769L47.5463 21.6283C48.3606 21.2717 49.1779 20.8527 49.3625 20.6974C49.9858 20.1729 50 20.0617 50 15.6958C50 11.2787 49.9886 11.1977 49.293 10.6762C49.1039 10.5344 48.3041 10.1376 47.5157 9.79448C46.7273 9.45134 46.0437 9.10974 45.9963 9.0353C45.9491 8.96096 45.9097 8.61716 45.9087 8.27125C45.9051 6.88541 45.2955 5.01173 44.4519 3.79282C43.1946 1.97645 41.4544 0.76096 39.3352 0.219035C38.4796 0.000229425 38.1595 -0.00463808 24.9546 0.00133537C11.9117 0.0071982 11.4208 0.014831 10.6218 0.224012ZM38.9978 1.48972C41.0419 2.00764 42.9283 3.51317 43.778 5.30499C44.0232 5.82213 44.2566 6.38861 44.2969 6.56395L44.3699 6.88253L43.8387 6.4145C43.1426 5.801 41.9739 5.15631 40.8739 4.77899L39.9889 4.47534L25.3637 4.44536C9.51681 4.41284 10.0427 4.39514 8.52246 5.0093C7.65985 5.35764 6.74524 5.90775 6.12113 6.45333L5.63009 6.88253L5.7031 6.56395C5.74336 6.38861 5.97467 5.82755 6.21737 5.31704C6.84193 4.00311 8.08131 2.75665 9.40265 2.11339C11.1024 1.28596 10.0689 1.33806 24.9491 1.32999C36.5417 1.32368 38.427 1.34514 38.9978 1.48972ZM40.0701 5.96118C42.183 6.50156 43.9314 7.89735 44.8602 9.78508C45.5909 11.2706 45.6305 11.5745 45.6305 15.7032C45.6305 19.8877 45.5984 20.1204 44.7931 21.7633C43.9421 23.4997 42.1973 24.9097 40.2496 25.4353C39.4373 25.6545 39.1648 25.6644 34.7611 25.6349L30.1273 25.6037L29.6707 25.3013C29.3528 25.0909 28.9555 24.6037 28.3628 23.6974C26.9125 21.4795 26.5788 21.2342 25.0116 21.2342C24.4656 21.2342 23.8787 21.2871 23.7074 21.3516C23.1939 21.5453 22.7004 22.0996 21.7175 23.5875C21.0623 24.579 20.6479 25.0904 20.3281 25.3021L19.8723 25.6037H15.0523C10.381 25.6037 10.2084 25.5961 9.45796 25.3583C7.65697 24.7876 6.00409 23.3899 5.20686 21.7633C4.40155 20.1204 4.36947 19.8877 4.36947 15.7032C4.36947 12.5118 4.39646 11.8977 4.56416 11.2784C5.14004 9.15189 6.63717 7.33507 8.57633 6.40963C9.9844 5.73762 9.2552 5.76671 24.8993 5.75665C38.7204 5.7478 39.2645 5.7551 40.0701 5.96118ZM22.4083 7.58054C22.2259 7.76306 22.1813 8.15156 22.3191 8.35808C22.5329 8.67811 22.9373 8.73419 25.0204 8.73253C26.5142 8.73142 27.2403 8.68906 27.4336 8.59171C27.7454 8.43485 27.8491 7.99105 27.6577 7.63342C27.541 7.41527 27.4431 7.40676 25.0593 7.40676C22.9549 7.40676 22.556 7.43286 22.4083 7.58054ZM3.17002 11.4167C2.99425 12.0774 2.99889 19.3453 3.17555 20.0144C3.24735 20.2865 3.29646 20.5187 3.28473 20.5303C3.2729 20.542 2.84015 20.3443 2.32301 20.0909L1.38274 19.6302L1.35365 15.7355L1.32467 11.8408L1.57489 11.7003C1.91659 11.5085 3.13584 10.9535 3.22389 10.9497C3.26305 10.948 3.23883 11.1581 3.17002 11.4167ZM47.8982 11.4381L48.6173 11.7899V15.7101V19.6302L47.677 20.0909C47.1598 20.3443 46.7303 20.5434 46.7226 20.5334C46.7148 20.5233 46.7796 20.1169 46.8667 19.6302C46.9896 18.943 47.0144 17.9663 46.9777 15.2607C46.9515 13.3443 46.8791 11.5877 46.8166 11.3573C46.7081 10.9576 46.7137 10.9418 46.941 11.0124C47.072 11.053 47.5028 11.2446 47.8982 11.4381Z" fill="url(#paint0_linear_2582_16928)"/>
<defs>
<linearGradient id="paint0_linear_2582_16928" x1="0" y1="13.9079" x2="50" y2="13.9079" gradientUnits="userSpaceOnUse">
<stop stop-color="#00469F"/>
<stop offset="1" stop-color="#1E79D6"/>
</linearGradient>
</defs>
</svg>
