<svg width="51" height="51" viewBox="0 0 51 51" fill="none" xmlns="http://www.w3.org/2000/svg">
<path fill-rule="evenodd" clip-rule="evenodd" d="M4.11588 0.667111C2.51595 1.17523 1.30963 2.20396 0.574653 3.68689L0.0690347 4.70682L0.0345173 9.85179L0 14.9968L0.289707 15.3335C0.669159 15.7747 1.41771 15.8082 1.82406 15.402C2.09186 15.1345 2.09258 15.1226 2.15197 10.2272L2.21148 5.32051L2.54356 4.64421C2.9198 3.87805 3.49648 3.31899 4.28835 2.95263C4.80385 2.7141 5.06677 2.69911 9.73672 2.64245C14.6321 2.58306 14.644 2.58234 14.9116 2.31454C15.3151 1.91068 15.2841 1.15964 14.8486 0.784946L14.5172 0.5L9.55461 0.507975C5.89031 0.513807 4.46748 0.555466 4.11588 0.667111ZM35.1609 0.784946C34.7254 1.15964 34.6945 1.91068 35.098 2.31454C35.3655 2.58234 35.3774 2.58306 40.2728 2.64245C44.9428 2.69911 45.2057 2.7141 45.7212 2.95263C46.513 3.31899 47.0897 3.87805 47.466 4.64421L47.798 5.32051L47.8576 10.2272C47.917 15.1226 47.9177 15.1345 48.1855 15.402C48.5918 15.8082 49.3404 15.7747 49.7198 15.3335L50.0095 14.9968L49.975 9.86108L49.9405 4.72539L49.5037 3.81056C48.7775 2.29002 47.6372 1.26533 46.0922 0.744834C45.4052 0.513331 45.0959 0.5 40.4288 0.5H35.4923L35.1609 0.784946ZM17.3872 12.2918C13.4266 14.5811 10.0925 16.5662 9.97786 16.703C9.78373 16.9348 9.76957 17.5328 9.76957 25.4952C9.76957 33.4575 9.78373 34.0556 9.97786 34.2879C10.0925 34.425 13.4386 36.4126 17.4138 38.705C22.7482 41.7811 24.74 42.8729 25.0179 42.8729C25.2954 42.8729 27.2756 41.7902 32.5494 38.7553C36.4846 36.4907 39.8248 34.5059 39.9722 34.3447L40.24 34.0517V25.4952V16.9388L39.9722 16.6475C39.8248 16.4874 36.4831 14.5027 32.5458 12.2371C26.9284 9.00445 25.3013 8.11891 24.9877 8.12355C24.6852 8.12795 22.8392 9.14038 17.3872 12.2918ZM30.9183 13.8451C34.114 15.6859 36.7709 17.2305 36.8223 17.2773C36.9334 17.3786 25.2671 24.1295 24.9985 24.1196C24.7787 24.1113 13.087 17.3771 13.1621 17.302C13.3038 17.1604 24.846 10.5188 24.967 10.5092C25.0445 10.5031 27.7226 12.0042 30.9183 13.8451ZM18.0716 22.7648L23.9335 26.1429V33.0318V39.9208L23.5467 39.696C23.334 39.5723 20.6559 38.0283 17.5955 36.2649L12.031 33.0584V26.1751C12.031 22.3894 12.0713 19.3132 12.1203 19.3394C12.1693 19.3655 14.8474 20.9069 18.0716 22.7648ZM38.0687 26.1662L38.038 33.0264L32.8009 36.0543C29.9205 37.7197 27.2291 39.2702 26.8199 39.5001L26.076 39.9177V33.0329V26.148L31.9975 22.7296C35.2544 20.8495 37.9596 19.31 38.0092 19.3086C38.0588 19.3071 38.0856 22.3931 38.0687 26.1662ZM0.641307 35.371C-0.00368971 35.6419 -0.00309447 35.6363 0.0343984 41.1726L0.0690347 46.2837L0.574653 47.3036C1.19442 48.5539 2.04413 49.3832 3.34222 50.004L4.23491 50.431L9.3706 50.4655L14.5063 50.5L14.843 50.2103C15.2842 49.8308 15.3177 49.0823 14.9116 48.6759C14.644 48.4081 14.6321 48.4074 9.73672 48.348C5.06677 48.2914 4.80385 48.2764 4.28835 48.0379C3.49648 47.6715 2.9198 47.1124 2.54356 46.3463L2.21148 45.67L2.15197 40.7633C2.09484 36.0545 2.08282 35.8471 1.85405 35.6184C1.56982 35.3343 1.0035 35.2189 0.641307 35.371ZM48.508 35.3641C47.915 35.6155 47.921 35.5658 47.8576 40.7783L47.798 45.67L47.466 46.3463C47.0897 47.1124 46.513 47.6715 45.7212 48.0379C45.2057 48.2764 44.9428 48.2914 40.2728 48.348C35.3774 48.4074 35.3655 48.4081 35.098 48.6759C34.6918 49.0823 34.7253 49.8308 35.1665 50.2103L35.5032 50.5L40.6482 50.4655L45.7932 50.431L46.8031 49.9304C48.0762 49.2993 48.8835 48.4785 49.4991 47.1894L49.9405 46.2651L49.975 41.1294L50.0095 35.9937L49.737 35.6839C49.4394 35.3456 48.8893 35.2024 48.508 35.3641Z" fill="url(#paint0_linear_2582_16941)"/>
<defs>
<linearGradient id="paint0_linear_2582_16941" x1="0" y1="26.1757" x2="50.0095" y2="26.1757" gradientUnits="userSpaceOnUse">
<stop stop-color="#00469F"/>
<stop offset="1" stop-color="#1E79D6"/>
</linearGradient>
</defs>
</svg>
