<svg width="51" height="50" viewBox="0 0 51 50" fill="none" xmlns="http://www.w3.org/2000/svg">
<path fill-rule="evenodd" clip-rule="evenodd" d="M6.11174 1.40281C2.94667 2.45418 1.87507 2.84957 1.74077 3.01543C1.57375 3.22162 1.56281 3.54473 1.56281 8.26108C1.56281 11.5734 1.59768 13.352 1.66497 13.4779C1.78111 13.6949 10.2352 17.9625 10.5489 17.9625C10.8627 17.9625 19.3168 13.6949 19.4329 13.4779C19.5003 13.3519 19.5351 11.5606 19.5351 8.2184V3.14992L19.3153 2.94656C19.0835 2.73207 10.8537 -0.018078 10.498 8.96097e-05C10.3917 0.00555943 8.41786 0.636738 6.11174 1.40281ZM13.5731 2.60968C15.1544 3.13713 16.4065 3.59347 16.3556 3.62384C16.3047 3.65412 14.9796 4.21205 13.411 4.86354L10.559 6.04824L7.99004 4.97997C6.57707 4.39245 5.24517 3.83629 5.03028 3.74408L4.63958 3.57628L7.47216 2.62121C9.03009 2.09591 10.3932 1.66262 10.5014 1.65842C10.6095 1.65422 11.9918 2.08224 13.5731 2.60968ZM6.76402 6.18831L9.76753 7.43924V11.6755V15.9119L6.44657 14.2508L3.12561 12.5898V8.63293V4.676L3.44306 4.80669C3.6177 4.87858 5.11203 5.50038 6.76402 6.18831ZM17.9723 8.6342V12.5898L14.6513 14.2508L11.3303 15.9119V11.6781V7.44432L14.6269 6.06631C16.44 5.30835 17.9345 4.68616 17.9478 4.68343C17.9612 4.68079 17.9723 6.45868 17.9723 8.6342ZM39.913 6.424C37.803 7.13381 37.0468 7.42967 36.9095 7.59923C36.7377 7.81138 36.7259 8.04483 36.7259 11.2402C36.7259 13.429 36.7626 14.7229 36.8281 14.8452C36.9439 15.0617 42.666 17.9625 42.9772 17.9625C43.2128 17.9625 48.943 15.1119 49.1086 14.9123C49.2351 14.7599 49.2945 7.99257 49.1722 7.67376C49.1364 7.58038 48.9915 7.44451 48.8503 7.37175C48.4362 7.15852 43.1578 5.45926 42.9355 5.46776C42.8242 5.47196 41.464 5.90232 39.913 6.424ZM44.6577 7.63332L46.187 8.14612L44.5979 8.81138L43.0087 9.47665L41.4288 8.82086C40.5599 8.46014 39.8654 8.14846 39.8856 8.12834C39.9656 8.04834 42.7458 7.13508 42.9307 7.12805C43.0394 7.12394 43.8165 7.35123 44.6577 7.63332ZM40.2923 10.0637L42.1958 10.8579V13.385V15.9123L40.2422 14.9346L38.2887 13.9568V11.6131C38.2887 10.3241 38.3112 9.26938 38.3387 9.26938C38.3663 9.26938 39.2454 9.62678 40.2923 10.0637ZM47.6656 11.6131V13.9568L45.7121 14.9346L43.7586 15.9123V13.3959V10.8795L45.6388 10.0832C46.6729 9.64524 47.552 9.28296 47.5923 9.27817C47.6327 9.27329 47.6656 10.3241 47.6656 11.6131ZM19.5623 17.3612C15.8531 18.5917 14.3221 19.1417 14.2177 19.2811C14.0917 19.4494 14.071 20.2825 14.0684 25.2939C14.0659 29.8032 14.0927 31.1465 14.1873 31.2678C14.3298 31.4503 24.8234 36.7162 25.0447 36.7162C25.2927 36.7162 35.5217 31.5657 35.7409 31.3304C35.9426 31.1139 35.9445 31.0564 35.9445 25.2881C35.9445 19.5821 35.9405 19.4601 35.7474 19.2529C35.6077 19.103 34.0339 18.5421 30.3509 17.3295C27.4911 16.388 25.0635 15.6219 24.9561 15.6272C24.8486 15.6323 22.4215 16.4127 19.5623 17.3612ZM28.9422 18.539C31.0271 19.2311 32.7511 19.8157 32.7735 19.838C32.7959 19.8604 31.057 20.6103 28.9096 21.5044L25.0049 23.13L21.1002 21.5044C18.9527 20.6103 17.2124 19.8618 17.2331 19.8412C17.3135 19.7608 24.7722 17.2948 24.9561 17.2878C25.0635 17.2837 26.8572 17.8467 28.9422 18.539ZM19.5195 22.5622C21.5963 23.4266 23.5043 24.2232 23.7595 24.3324L24.2235 24.5308V29.549C24.2235 32.309 24.2016 34.5673 24.1749 34.5673C24.1483 34.5673 22.2143 33.6115 19.8772 32.4433L15.6281 30.3195V25.6549C15.6281 23.0895 15.654 20.9904 15.6858 20.9904C15.7175 20.9904 17.4427 21.6977 19.5195 22.5622ZM34.3817 25.6549V30.3195L30.1326 32.4433C27.7955 33.6115 25.8615 34.5673 25.8348 34.5673C25.8082 34.5673 25.7863 32.3085 25.7863 29.5478V24.5282L26.7386 24.1279C30.4464 22.5694 34.247 20.9955 34.3085 20.9933C34.3488 20.9917 34.3817 23.0895 34.3817 25.6549ZM11.1666 33.7311C10.6254 33.9004 10.1863 34.1813 9.75464 34.6344C9.55949 34.8392 7.5629 37.2705 5.31774 40.0371C3.07257 42.8038 0.957609 45.4094 0.617797 45.8273L0 46.5872V48.0538C0 49.4808 0.00644657 49.527 0.239793 49.7602L0.479488 50H25.0049H49.5303L49.77 49.7602C50.0033 49.527 50.0098 49.4808 50.0098 48.0538V46.5872L49.3936 45.8273C49.0547 45.4094 46.9604 42.8257 44.7396 40.086C42.5188 37.3462 40.4813 34.876 40.2119 34.5969C39.3037 33.6559 39.2447 33.6439 35.3829 33.6102L32.0375 33.581V34.3645V35.148L33.4271 35.1751L34.8168 35.2022L39.223 40.6232L43.6291 46.0441L25.0219 46.0689C14.7879 46.0823 6.39471 46.0736 6.37048 46.0494C6.34626 46.0252 8.15482 43.5637 10.3894 40.5794L14.4524 35.1533H15.8216H17.1909V34.3719V33.5905L14.3827 33.5971C12.3618 33.6018 11.4602 33.6394 11.1666 33.7311ZM12.4048 35.2042C12.4048 35.2322 10.5821 37.6936 8.35456 40.6741L4.30436 46.093H3.35612H2.40779L2.60608 45.8732C2.71518 45.7523 4.53096 43.5217 6.64124 40.9162C10.8642 35.7021 11.0529 35.4826 11.4769 35.2924C11.763 35.1641 12.4048 35.103 12.4048 35.2042ZM38.5116 35.2878C38.6845 35.3618 38.9534 35.5578 39.1091 35.7235C39.2648 35.8891 41.2261 38.2791 43.4675 41.0344L47.5427 46.0441L46.7084 46.0726C46.2495 46.0883 45.8213 46.0808 45.7567 46.0561C45.6922 46.0314 43.9324 43.9087 41.846 41.3392C39.7596 38.7697 37.7721 36.3266 37.4293 35.9103L36.8061 35.1533H37.5017C37.8843 35.1533 38.3387 35.2139 38.5116 35.2878ZM14.4503 38.374C14.3666 38.4229 13.5425 39.5983 12.6189 40.9856C11.454 42.7356 10.9396 43.5914 10.9396 43.7795C10.9396 43.9372 11.04 44.151 11.1794 44.2904L11.4191 44.5302H25.0049H38.5906L38.8303 44.2904C39.3172 43.8037 39.2457 43.6708 37.1069 41.0887C36.0271 39.7851 35.0357 38.6197 34.9037 38.4987C34.6798 38.2936 34.5763 38.279 33.3507 38.279H32.0375V39.0604V39.8418L33.0387 39.8474L34.0399 39.853L35.2608 41.3284C35.9323 42.1398 36.4964 42.8405 36.5143 42.8855C36.5322 42.9305 31.2906 42.9674 24.8662 42.9674H13.1855L14.2268 41.4046L15.2681 39.8418H16.2295H17.1909V39.0604V38.279L15.8967 38.2819C15.1849 38.2836 14.534 38.325 14.4503 38.374ZM48.447 48.0465V48.4372H25.0049H1.56281V48.0465V47.6558H25.0049H48.447V48.0465Z" fill="url(#paint0_linear_2582_16935)"/>
<defs>
<linearGradient id="paint0_linear_2582_16935" x1="0" y1="25.6757" x2="50.0098" y2="25.6757" gradientUnits="userSpaceOnUse">
<stop stop-color="#00469F"/>
<stop offset="1" stop-color="#1E79D6"/>
</linearGradient>
</defs>
</svg>
