<svg width="51" height="50" viewBox="0 0 51 50" fill="none" xmlns="http://www.w3.org/2000/svg">
<path fill-rule="evenodd" clip-rule="evenodd" d="M27.8708 0.130553C27.3156 0.532178 27.4654 1.412 28.1217 1.60383C28.3056 1.65755 28.7405 1.95916 29.0882 2.27415C29.7495 2.87317 30.5418 3.31054 30.9689 3.3121C31.5178 3.31425 32.1317 2.99858 32.8819 2.32875C33.2982 1.95691 33.6694 1.65266 33.7066 1.65266C33.7437 1.65266 34.1093 1.95711 34.519 2.32923C35.9459 3.62524 36.8053 3.61303 38.3396 2.27493C39.0133 1.68734 39.1038 1.63733 39.3175 1.73471C39.4469 1.7937 39.7097 2.06015 39.9013 2.32689C40.3061 2.89036 41.0479 3.31308 41.6316 3.31308C42.662 3.31308 42.8043 1.88708 41.7942 1.68499C41.6122 1.64866 41.3943 1.47988 41.2001 1.22496C40.5165 0.327947 39.7274 -0.0844218 38.9088 0.0278026C38.3124 0.109554 37.9918 0.296204 37.1998 1.02307C36.8224 1.36932 36.4728 1.65266 36.4229 1.65266C36.3729 1.65266 36.0797 1.42099 35.7713 1.13794C34.2459 -0.262282 33.3192 -0.328503 31.9985 0.868363C31.0241 1.75141 31.0827 1.74438 30.3361 1.06771C29.321 0.147938 28.3548 -0.219404 27.8708 0.130553ZM38.7546 5.12517C38.584 5.21786 38.4543 5.39895 38.3904 5.63404C38.3359 5.83476 37.9599 10.8997 37.5549 16.8894C37.15 22.8791 36.7914 28.0984 36.7581 28.4879L36.6975 29.196H35.8808H35.064L35.0638 26.681C35.0637 24.4818 35.0422 24.1231 34.8929 23.8251C34.7064 23.4527 34.3461 23.2728 33.9789 23.3685C33.8506 23.4019 32.1781 24.6829 30.2624 26.215C28.3468 27.7471 26.7535 29.0007 26.7218 29.0007C26.6902 29.0007 26.6643 27.8419 26.6643 26.4256V23.8507L26.4068 23.5932C25.8723 23.0587 25.8627 23.0642 21.967 26.177L18.4111 29.0182L18.3622 26.4126L18.3134 23.8068L18.0393 23.5713C17.4911 23.1 17.485 23.1036 13.6518 26.1673L10.109 28.9989L10.0602 26.4847C10.0257 24.7074 9.97489 23.9068 9.88698 23.7531C9.73481 23.4868 9.46778 23.3357 9.14966 23.3357C8.85342 23.3357 0.64678 28.2197 0.268596 28.621L0 28.9061V39.1955V49.485L0.257462 49.7425L0.515021 50L24.9927 49.9969C44.0803 49.9944 49.5046 49.9676 49.6256 49.8748C50.0097 49.5798 50.0078 49.634 50.0078 39.5023V29.6755L49.768 29.4358C49.5354 29.2031 49.4859 29.196 48.1045 29.196C47.0518 29.196 46.6704 29.1642 46.6411 29.0739C46.6193 29.0068 46.2442 23.7215 45.8075 17.3289C45.3224 10.2288 44.9685 5.61216 44.8979 5.46468C44.6781 5.00582 44.4808 4.97623 41.6568 4.97886C39.5229 4.98082 38.9691 5.00875 38.7546 5.12517ZM43.4079 7.14668C43.4541 7.56969 44.9297 28.8894 44.929 29.1227C44.9287 29.2186 38.5068 29.2186 38.4526 29.1227C38.4298 29.0825 38.7555 24.1049 39.1764 18.0615C39.5973 12.018 39.943 6.97448 39.9447 6.85367C39.9476 6.6343 39.9505 6.6339 41.6498 6.6339H43.352L43.4079 7.14668ZM8.58766 31.3859C8.93127 31.7514 9.34979 31.7213 9.91384 31.2907C10.164 31.0998 11.7659 29.8252 13.4739 28.4582C15.1817 27.0913 16.6067 25.9728 16.6405 25.9728C16.6742 25.9728 16.7018 27.1395 16.7018 28.5655V31.1583L16.9416 31.398C17.1027 31.5592 17.2909 31.6378 17.5154 31.6378C17.8069 31.6378 18.3044 31.274 21.4023 28.7954L24.955 25.953L24.981 28.5387L25.007 31.1243L25.2449 31.381C25.4152 31.5647 25.5809 31.6378 25.8271 31.6378C26.1317 31.6378 26.5805 31.3108 29.7143 28.8062L33.2571 25.9746L33.3061 28.0981C33.3332 29.2659 33.3935 30.3001 33.4401 30.3961C33.6654 30.8594 33.6141 30.8564 41.2124 30.8564H48.3473V39.598V48.3396H41.7088H35.0702L35.0427 42.7745L35.0152 37.2093L34.7444 36.9386L34.4738 36.6679L31.1306 36.6385C29.2919 36.6222 27.6397 36.6361 27.4591 36.6693C27.2785 36.7025 27.0259 36.8346 26.8975 36.9629L26.6643 37.1962V42.7679V48.3396H14.1624H1.66041L1.66354 38.9876L1.66676 29.6355L4.95995 27.6672L8.25323 25.699L8.30207 28.4165C8.35081 31.1274 8.35149 31.1347 8.58766 31.3859ZM5.51072 38.4141C5.00048 38.643 4.96932 38.8515 5.00117 41.8241C5.02969 44.4855 5.0334 44.5285 5.25228 44.7476C5.46598 44.9613 5.54813 44.9711 7.37038 45.0001C9.59201 45.0355 9.78755 44.9847 9.96483 44.3264C10.0337 44.0705 10.0612 43.0244 10.0417 41.3989L10.0113 38.8696L9.74067 38.5989L9.47012 38.3283L7.64073 38.3038C6.25185 38.2851 5.73907 38.3117 5.51072 38.4141ZM12.3431 38.3467C12.2289 38.3692 12.0312 38.4985 11.9036 38.6342C11.6735 38.8789 11.6715 38.9007 11.641 41.4371C11.6208 43.1051 11.6476 44.1203 11.7179 44.3589C11.9013 44.9807 12.1209 45.035 14.3127 45.0001C16.8808 44.9592 16.6443 45.267 16.6837 41.9152C16.7043 40.1754 16.6778 39.1804 16.6043 38.9311C16.4337 38.3526 16.1473 38.2769 14.1899 38.2927C13.2884 38.3 12.4573 38.3244 12.3431 38.3467ZM18.9971 38.3494C18.8896 38.3753 18.7029 38.4878 18.582 38.5992C18.3638 38.8004 18.3622 38.8216 18.3622 41.6477C18.3622 45.3419 18.1286 45.0492 21.0395 45.0006L22.8724 44.9699L23.108 44.6959L23.3435 44.4218V41.686C23.3435 39.9131 23.3063 38.8809 23.238 38.7531C23.0302 38.365 22.5809 38.2787 20.8315 38.2908C19.93 38.297 19.1045 38.3234 18.9971 38.3494ZM33.3059 43.3583V48.3396H30.8153H28.3247V43.3583V38.3771H30.8153H33.3059V43.3583ZM8.30207 41.7018V43.3663L7.49628 43.3378L6.69049 43.3095L6.66373 41.6735L6.63697 40.0375H7.46952H8.30207V41.7018ZM14.9437 41.6979V43.3583H14.1624H13.381V41.6979V40.0375H14.1624H14.9437V41.6979ZM21.683 41.6979V43.3583H20.8528H20.0226V41.6979V40.0375H20.8528H21.683V41.6979Z" fill="url(#paint0_linear_2582_17422)"/>
<defs>
<linearGradient id="paint0_linear_2582_17422" x1="0" y1="25.6757" x2="50.0078" y2="25.6757" gradientUnits="userSpaceOnUse">
<stop stop-color="#00469F"/>
<stop offset="1" stop-color="#1E79D6"/>
</linearGradient>
</defs>
</svg>
