<svg width="51" height="50" viewBox="0 0 51 50" fill="none" xmlns="http://www.w3.org/2000/svg">
<path fill-rule="evenodd" clip-rule="evenodd" d="M29.0355 0.222052L28.7614 0.457617L28.7321 2.79872L28.7029 5.13992L28.1212 5.18201C27.6787 5.21394 27.4426 5.29266 27.1338 5.51075C26.5473 5.92504 26.3274 6.41072 26.2855 7.38452L26.251 8.19025H25.6702C25.0064 8.19025 24.621 8.35413 24.3609 8.74684C24.2149 8.96717 24.1718 9.2626 24.1395 10.2656L24.0993 11.5108H23.7593C23.5027 11.5108 23.3377 11.5924 23.0872 11.8429L22.7551 12.1749V14.2291C22.7551 16.0999 22.7399 16.288 22.5842 16.3364C22.4901 16.3657 20.5345 16.847 18.2383 17.4059C15.9422 17.9649 13.9544 18.4937 13.8211 18.581C13.2748 18.9389 13.2356 19.1508 13.2013 21.9332L13.1697 24.4936L9.38511 24.5213L5.60044 24.5489L5.25715 24.7843C5.06837 24.9137 4.8079 25.1741 4.67849 25.3629C4.44615 25.7018 4.44273 25.7396 4.41411 28.3393C4.3855 30.9447 4.38745 30.9749 4.60212 31.2034C4.88905 31.5089 5.36243 31.511 5.64693 31.2083C5.853 30.9888 5.85925 30.9116 5.85925 28.5909C5.85925 26.8611 5.89167 26.167 5.97644 26.0823C6.1454 25.9133 16.1208 25.9133 16.2897 26.0823C16.3795 26.172 16.4069 28.7995 16.4069 37.3136V48.4278H11.1331H5.85925V40.9032V33.3786L5.61948 33.139C5.31399 32.8334 4.93955 32.8334 4.63405 33.139L4.39429 33.3786V40.9032V48.4278H2.82854C1.05301 48.4278 0.63804 48.5259 0.526019 48.9722C0.435485 49.3328 0.58784 49.7169 0.880051 49.8648C1.23633 50.0451 49.743 50.0451 50.0993 49.8648C50.3915 49.7169 50.5439 49.3328 50.4533 48.9722C50.3311 48.4851 49.9912 48.4278 47.223 48.4278H44.7295V38.8528C44.7295 29.521 44.7246 29.2683 44.5372 28.9009C44.4314 28.6936 44.1989 28.4338 44.0204 28.3236C43.8284 28.2048 42.2082 27.7619 40.051 27.2383C38.0461 26.7517 36.3669 26.3295 36.3192 26.3001C36.2717 26.2707 36.2327 25.7505 36.2327 25.1443C36.2327 23.9418 36.1765 23.8053 35.6247 23.6676C35.4094 23.6138 35.3024 23.6575 35.0632 23.8967C34.7778 24.1821 34.7677 24.2222 34.7677 25.0786C34.7677 25.5661 34.7567 25.9643 34.7433 25.9634C34.73 25.9624 34.3893 25.8753 33.9864 25.7697C33.5836 25.6642 33.1331 25.5771 32.9854 25.5761L32.7168 25.5744V19.2751V12.9758H33.7423H34.7677V17.3164V21.6569L34.9965 21.9229C35.2931 22.2677 35.792 22.2882 36.0526 21.9663C36.2222 21.7569 36.2327 21.4636 36.2327 16.9594V12.1749L35.9007 11.8429C35.646 11.5883 35.4867 11.5108 35.217 11.5108H34.8654V10.3846C34.8654 9.08114 34.7449 8.68316 34.2609 8.38812C34.0279 8.24602 33.7671 8.19084 33.3272 8.19064L32.7168 8.19025L32.7162 7.53102C32.7159 7.16839 32.6703 6.7083 32.6148 6.50858C32.3976 5.72658 31.6192 5.16892 30.7391 5.16482L30.2752 5.16267V2.86005V0.55743L29.9897 0.271958C29.6425 -0.0751389 29.3962 -0.0880306 29.0355 0.222052ZM8.78477 2.13812C6.69877 2.42974 4.37583 3.57241 3.13706 4.91636C2.68283 5.40917 2.64503 5.60929 2.93646 5.97963C3.21764 6.33718 3.77647 6.33903 4.10872 5.98363C4.86708 5.17224 6.65169 4.16523 7.89681 3.84597C10.7127 3.12404 13.6502 3.80573 15.8023 5.68048C16.5122 6.29899 16.6576 6.35632 17.0733 6.1815C17.4184 6.03647 17.5595 5.66857 17.421 5.27489C17.2149 4.6889 15.1883 3.27502 13.77 2.72791C12.3416 2.17679 10.2652 1.93117 8.78477 2.13812ZM9.40835 5.66193C8.10893 5.78313 6.70414 6.40496 5.80163 7.25834C5.21105 7.81688 5.13986 8.092 5.47572 8.51889C5.79069 8.91941 6.17099 8.86511 6.82553 8.3262C7.8429 7.48873 8.87101 7.11507 10.1525 7.11712C11.4082 7.11907 12.5251 7.53317 13.4853 8.35286C14.1641 8.9323 14.6828 8.91374 14.9366 8.3009C15.0975 7.91259 14.9393 7.62566 14.2545 7.06399C12.9436 5.98861 11.2275 5.49219 9.40835 5.66193ZM31.0984 6.78106C31.206 6.88878 31.2519 7.12191 31.2519 7.56237V8.19025H29.5427H27.8336V7.52614C27.8336 7.13978 27.8826 6.81299 27.9508 6.74483C28.0314 6.66425 28.5178 6.62763 29.5065 6.62763C30.6839 6.62763 30.9727 6.65546 31.0984 6.78106ZM9.27963 9.74311C8.55838 9.99947 7.88733 10.6984 7.67462 11.4146C7.48252 12.0616 7.48066 12.321 7.66378 12.9379C8.19898 14.7398 10.604 15.354 11.9304 14.0275C12.4085 13.5496 12.6313 13.0279 12.6769 12.2806C12.7069 11.7877 12.6712 11.5328 12.5262 11.2063C11.9504 9.9108 10.5648 9.28623 9.27963 9.74311ZM33.3028 10.583V11.5108H29.4939H25.685V10.583V9.65521H29.4939H33.3028V10.583ZM10.9111 11.4646C11.2274 11.781 11.2515 11.8452 11.2057 12.252C11.0959 13.2257 10.0371 13.6111 9.35258 12.9266C8.66239 12.2364 9.1431 11.1202 10.1306 11.1202C10.4994 11.1202 10.6198 11.1733 10.9111 11.4646ZM28.2243 30.7018V48.4278H27.4918H26.7593L26.7589 32.5818C26.7586 16.9423 26.7561 16.7317 26.5645 16.4176C26.252 15.905 25.8223 15.6884 25.2455 15.7527C24.9769 15.7826 24.6363 15.8344 24.4886 15.8678L24.2201 15.9285V14.4522V12.9758H26.2222H28.2243V30.7018ZM31.2519 30.7018V48.4278H30.5194H29.7869V30.7018V12.9758H30.5194H31.2519V30.7018ZM25.2944 18.3238V19.3746L20.0938 20.6704C17.2334 21.3831 14.8588 21.9651 14.8167 21.9636C14.7747 21.962 14.7527 21.4678 14.7679 20.8652L14.7955 19.7694L19.874 18.5292C22.6672 17.8472 25.0294 17.2855 25.1234 17.281C25.2761 17.2739 25.2944 17.3851 25.2944 18.3238ZM25.2944 22.0354V23.1842L21.4225 24.1501C18.3252 24.9228 17.5192 25.0931 17.3938 25.0013C16.8853 24.6291 16.4373 24.5043 15.6012 24.5023L14.7467 24.5001V24.0238V23.5475L19.9961 22.226C22.8833 21.4992 25.2566 20.9004 25.2699 20.8955C25.2833 20.8906 25.2944 21.4035 25.2944 22.0354ZM25.2731 25.837L25.2455 26.9786L21.632 27.8851C19.6445 28.3837 17.9854 28.7929 17.9452 28.7945C17.9049 28.7961 17.8719 28.2976 17.8719 27.6869V26.5764L21.5099 25.6501C23.5108 25.1407 25.1822 24.7174 25.2242 24.7096C25.2662 24.7018 25.2882 25.2092 25.2731 25.837ZM38.0883 28.2906L43.2157 29.5371L43.2406 38.9824L43.2655 48.4278H37.9911H32.7168V37.7336C32.7168 29.242 32.7419 27.0399 32.8389 27.0418C32.9061 27.0432 35.2683 27.6051 38.0883 28.2906ZM7.93216 27.4096C7.52363 27.4733 7.41181 27.8022 7.44257 28.8488C7.46924 29.7528 7.48428 29.8124 7.73078 29.9962C8.03168 30.2205 8.38991 30.1732 8.69394 29.8692C8.85704 29.7061 8.88683 29.5424 8.88683 28.8105C8.88683 28.0961 8.85303 27.9017 8.69384 27.6994C8.48484 27.4336 8.27936 27.3555 7.93216 27.4096ZM10.9378 27.4026C10.5077 27.5579 10.4494 27.7194 10.4494 28.7565C10.4494 29.7241 10.4586 29.767 10.7068 29.9622C11.0004 30.1931 11.1249 30.2087 11.4596 30.0562C11.8044 29.8991 11.9144 29.5713 11.9144 28.7005C11.9144 28.0374 11.8835 27.8953 11.6947 27.6876C11.4572 27.4263 11.1708 27.3185 10.9378 27.4026ZM13.8696 27.4585C13.4759 27.6566 13.3693 27.979 13.4003 28.8791C13.4261 29.6336 13.4482 29.7105 13.7022 29.929C14.0481 30.2264 14.2733 30.2264 14.6191 29.929C14.8839 29.7012 14.8932 29.6615 14.8932 28.7596C14.8932 27.9538 14.8664 27.8004 14.6978 27.6382C14.4243 27.3752 14.1524 27.3163 13.8696 27.4585ZM25.2731 29.6459L25.2455 30.7875L21.632 31.694C19.6445 32.1926 17.9854 32.6018 17.9452 32.6034C17.9049 32.6049 17.8719 32.1017 17.8719 31.4849V30.3637L18.1405 30.2956C22.5793 29.1705 25.1637 28.5203 25.2242 28.5132C25.2662 28.5083 25.2882 29.018 25.2731 29.6459ZM34.3842 30.8126C34.0754 31.2051 34.0965 32.1392 34.4215 32.4641C34.7144 32.7571 35.048 32.77 35.3894 32.5014C35.6232 32.3176 35.6467 32.237 35.6467 31.6224C35.6467 31.0761 35.6091 30.9083 35.4514 30.7506C35.1606 30.4598 34.6379 30.4901 34.3842 30.8126ZM37.4085 30.7691C37.2513 30.9376 37.2093 31.1138 37.2093 31.6036C37.2093 32.1325 37.2448 32.2599 37.4491 32.4641C37.581 32.596 37.8027 32.7039 37.9418 32.7039C38.081 32.7039 38.3027 32.596 38.4345 32.4641C38.6403 32.2584 38.6743 32.1337 38.6743 31.5851C38.6743 31.0761 38.6346 30.9062 38.479 30.7506C38.2104 30.482 37.6671 30.4914 37.4085 30.7691ZM40.3346 30.7506C40.1769 30.9083 40.1393 31.0761 40.1393 31.6224C40.1393 32.237 40.1628 32.3176 40.3966 32.5014C40.7379 32.77 41.0716 32.7571 41.3645 32.4641C41.5689 32.2598 41.6042 32.1326 41.6042 31.6022C41.6042 31.0781 41.5686 30.9465 41.3782 30.7676C41.0905 30.4974 40.5959 30.4893 40.3346 30.7506ZM7.67921 31.832C7.43212 32.0264 7.42187 32.0729 7.42187 33.004C7.42187 34.1236 7.5501 34.3642 8.14722 34.3642C8.70869 34.3642 8.88683 34.0305 8.88683 32.9793C8.88683 32.1855 8.86573 32.0879 8.64706 31.8693C8.35417 31.5763 8.02055 31.5635 7.67921 31.832ZM10.7068 31.832C10.4597 32.0264 10.4494 32.0729 10.4494 33.004C10.4494 33.8433 10.4757 33.9998 10.6448 34.1688C10.9403 34.4644 11.4583 34.4293 11.7206 34.0959C11.9092 33.856 11.9281 33.731 11.8986 32.9152C11.8689 32.095 11.8422 31.9839 11.635 31.8162C11.3362 31.5744 11.0275 31.5797 10.7068 31.832ZM13.6953 31.8245C13.4337 32.0682 13.3452 32.5237 13.398 33.3537C13.4316 33.8811 13.4804 34.0331 13.6643 34.1819C13.9528 34.4156 14.3698 34.4146 14.6601 34.1795C14.8553 34.0215 14.8937 33.8873 14.9258 33.2519C14.9704 32.3676 14.9131 32.0919 14.6294 31.8276C14.3589 31.5757 13.9638 31.5743 13.6953 31.8245ZM25.2944 33.4325V34.552L24.9281 34.6487C21.5078 35.5516 17.9489 36.3771 17.9103 36.2765C17.8852 36.2112 17.8773 35.7044 17.8927 35.1503L17.9207 34.1428L21.5343 33.2345C23.5218 32.735 25.1809 32.3234 25.2211 32.3198C25.2613 32.3162 25.2944 32.817 25.2944 33.4325ZM34.3842 34.3285C34.0754 34.721 34.0965 35.6551 34.4215 35.98C34.7144 36.273 35.048 36.2859 35.3894 36.0173C35.6232 35.8335 35.6467 35.7529 35.6467 35.1383C35.6467 34.592 35.6091 34.4242 35.4514 34.2665C35.1606 33.9757 34.6379 34.006 34.3842 34.3285ZM37.4217 34.2972C37.2506 34.4794 37.2093 34.6414 37.2093 35.1318C37.2093 35.6477 37.2459 35.7769 37.4491 35.98C37.581 36.1119 37.8027 36.2198 37.9418 36.2198C38.081 36.2198 38.3027 36.1119 38.4345 35.98C38.6403 35.7743 38.6743 35.6496 38.6743 35.101C38.6743 34.592 38.6346 34.4221 38.479 34.2665C38.207 33.9945 37.6921 34.0094 37.4217 34.2972ZM40.3346 34.2665C40.1769 34.4242 40.1393 34.592 40.1393 35.1383C40.1393 35.7529 40.1628 35.8335 40.3966 36.0173C40.7379 36.2859 41.0716 36.273 41.3645 35.98C41.5689 35.7757 41.6042 35.6485 41.6042 35.1181C41.6042 34.594 41.5686 34.4624 41.3782 34.2835C41.0905 34.0133 40.5959 34.0052 40.3346 34.2665ZM7.6172 36.1221C7.44814 36.2912 7.42187 36.4476 7.42187 37.2869C7.42187 38.2181 7.43212 38.2646 7.67921 38.4589C8.02055 38.7275 8.35417 38.7146 8.64706 38.4216C8.86573 38.203 8.88683 38.1055 8.88683 37.3117C8.88683 36.5792 8.85479 36.4007 8.68437 36.1841C8.43074 35.8616 7.90804 35.8313 7.6172 36.1221ZM10.6448 36.1221C10.4757 36.2912 10.4494 36.4476 10.4494 37.2869C10.4494 38.2181 10.4597 38.2646 10.7068 38.4589C11.0275 38.7113 11.3362 38.7166 11.635 38.4747C11.8422 38.307 11.8689 38.1959 11.8986 37.3757C11.9281 36.5599 11.9092 36.4349 11.7206 36.1951C11.4583 35.8616 10.9403 35.8266 10.6448 36.1221ZM13.6643 36.109C13.4804 36.2579 13.4316 36.4098 13.398 36.9372C13.3754 37.2924 13.3859 37.738 13.4215 37.9272C13.5461 38.5916 14.1866 38.8758 14.6294 38.4633C14.9131 38.199 14.9704 37.9233 14.9258 37.0391C14.8937 36.4037 14.8553 36.2695 14.6601 36.1115C14.3698 35.8764 13.9528 35.8753 13.6643 36.109ZM25.2944 37.2414V38.3609L24.9281 38.4576C21.5078 39.3605 17.9489 40.186 17.9103 40.0854C17.8852 40.0201 17.8773 39.5107 17.8927 38.9534L17.9207 37.9401L21.4855 37.0402C23.4461 36.5451 25.1052 36.1361 25.1723 36.1311C25.2634 36.1244 25.2944 36.4063 25.2944 37.2414ZM34.3842 37.8444C34.0754 38.2369 34.0965 39.171 34.4215 39.4959C34.7144 39.7889 35.048 39.8018 35.3894 39.5332C35.6232 39.3494 35.6467 39.2688 35.6467 38.6542C35.6467 38.1079 35.6091 37.9401 35.4514 37.7824C35.1606 37.4916 34.6379 37.5219 34.3842 37.8444ZM37.4217 37.8131C37.2506 37.9953 37.2093 38.1573 37.2093 38.6477C37.2093 39.1636 37.2459 39.2928 37.4491 39.4959C37.581 39.6278 37.8027 39.7357 37.9418 39.7357C38.081 39.7357 38.3027 39.6278 38.4345 39.4959C38.6403 39.2902 38.6743 39.1655 38.6743 38.6169C38.6743 38.1079 38.6346 37.938 38.479 37.7824C38.207 37.5104 37.6921 37.5253 37.4217 37.8131ZM40.3346 37.7824C40.1769 37.9401 40.1393 38.1079 40.1393 38.6542C40.1393 39.2688 40.1628 39.3494 40.3966 39.5332C40.7379 39.8018 41.0716 39.7889 41.3645 39.4959C41.5689 39.2916 41.6042 39.1644 41.6042 38.634C41.6042 38.1099 41.5686 37.9783 41.3782 37.7994C41.0905 37.5292 40.5959 37.521 40.3346 37.7824ZM25.2944 40.9527V41.9744L24.9281 42.0702C23.3737 42.4769 17.9892 43.8376 17.9343 43.8376C17.8963 43.8376 17.8778 43.368 17.893 42.7941L17.9207 41.7507L21.4855 40.8489C23.4461 40.3528 25.1052 39.9433 25.1723 39.939C25.2627 39.9331 25.2944 40.1962 25.2944 40.9527ZM7.67921 40.3288C7.43242 40.5228 7.42187 40.5705 7.42187 41.4899C7.42187 42.6115 7.54571 42.8664 8.09809 42.8821C8.34626 42.8891 8.48914 42.8241 8.65898 42.6266C8.85841 42.3948 8.88683 42.2598 8.88683 41.545C8.88683 40.5735 8.8502 40.4559 8.48914 40.2692C8.12065 40.0787 7.98441 40.0886 7.67921 40.3288ZM10.7068 40.3288C10.4586 40.5239 10.4494 40.5669 10.4494 41.5345C10.4494 42.4158 10.4734 42.5592 10.646 42.7156C10.9432 42.9846 11.4129 42.9448 11.6857 42.6276C11.8837 42.3973 11.9144 42.2584 11.9144 41.5904C11.9144 40.7196 11.8044 40.3919 11.4596 40.2347C11.1249 40.0823 11.0004 40.0978 10.7068 40.3288ZM13.7022 40.362C13.4375 40.5897 13.4282 40.6295 13.4282 41.5313C13.4282 42.3621 13.4517 42.4884 13.6425 42.6792C13.7713 42.808 13.978 42.8934 14.1607 42.8934C14.3433 42.8934 14.5501 42.808 14.6789 42.6792C14.8696 42.4884 14.8932 42.3621 14.8932 41.5313C14.8932 40.6295 14.8839 40.5897 14.6191 40.362C14.4684 40.2324 14.2621 40.1263 14.1607 40.1263C14.0592 40.1263 13.8529 40.2324 13.7022 40.362ZM34.3842 41.3603C34.0754 41.7528 34.0965 42.6869 34.4215 43.0118C34.7144 43.3048 35.048 43.3177 35.3894 43.0491C35.6232 42.8653 35.6467 42.7847 35.6467 42.1701C35.6467 41.6238 35.6091 41.456 35.4514 41.2983C35.1606 41.0075 34.6379 41.0378 34.3842 41.3603ZM37.4217 41.329C37.2506 41.5112 37.2093 41.6732 37.2093 42.1636C37.2093 42.6795 37.2459 42.8087 37.4491 43.0118C37.581 43.1437 37.8027 43.2516 37.9418 43.2516C38.081 43.2516 38.3027 43.1437 38.4345 43.0118C38.6403 42.8061 38.6743 42.6814 38.6743 42.1328C38.6743 41.6238 38.6346 41.4539 38.479 41.2983C38.207 41.0263 37.6921 41.0412 37.4217 41.329ZM40.3346 41.2983C40.1769 41.456 40.1393 41.6238 40.1393 42.1701C40.1393 42.7847 40.1628 42.8653 40.3966 43.0491C40.7379 43.3177 41.0716 43.3048 41.3645 43.0118C41.6895 42.6869 41.7106 41.7528 41.4018 41.3603C41.1481 41.0378 40.6254 41.0075 40.3346 41.2983ZM25.2944 44.5662V45.588L24.9281 45.6847C22.7188 46.2679 17.9652 47.4141 17.9244 47.3734C17.8955 47.3446 17.8719 46.8896 17.8719 46.3624V45.4039L18.1405 45.3369C18.2881 45.3 19.9033 44.8848 21.7296 44.4144C23.5559 43.9438 25.1052 43.5557 25.1723 43.5517C25.2626 43.5464 25.2944 43.8102 25.2944 44.5662ZM7.63419 44.6495C7.44697 44.849 7.42187 44.9852 7.42187 45.8045C7.42187 46.6492 7.44238 46.7526 7.64786 46.9458C7.94779 47.2275 8.34899 47.2164 8.64706 46.9184C8.86651 46.699 8.88683 46.6033 8.88683 45.7908C8.88683 44.9784 8.86651 44.8827 8.64706 44.6633C8.33952 44.3557 7.91575 44.3499 7.63419 44.6495ZM10.6448 44.6189C10.4755 44.7881 10.4494 44.9444 10.4494 45.7908C10.4494 46.6373 10.4755 46.7935 10.6448 46.9628C10.8916 47.2096 11.3361 47.2135 11.635 46.9714C11.8499 46.7974 11.8656 46.7176 11.8656 45.7908C11.8656 44.8641 11.8499 44.7843 11.635 44.6103C11.3361 44.3682 10.8916 44.3721 10.6448 44.6189ZM13.7924 44.4889C13.5402 44.5904 13.3794 45.0975 13.3794 45.7908C13.3794 46.5901 13.557 47.0278 13.9183 47.1185C14.6081 47.2916 14.942 46.8586 14.942 45.7908C14.942 45.0662 14.7812 44.5928 14.4981 44.4842C14.3156 44.4142 13.9725 44.4164 13.7924 44.4889ZM34.3842 44.8762C34.0754 45.2687 34.0965 46.2028 34.4215 46.5277C34.7144 46.8207 35.048 46.8336 35.3894 46.565C35.6232 46.3812 35.6467 46.3006 35.6467 45.686C35.6467 45.1397 35.6091 44.9719 35.4514 44.8142C35.1606 44.5234 34.6379 44.5537 34.3842 44.8762ZM37.4217 44.8449C37.2506 45.0271 37.2093 45.1891 37.2093 45.6795C37.2093 46.1954 37.2459 46.3246 37.4491 46.5277C37.581 46.6596 37.8027 46.7675 37.9418 46.7675C38.081 46.7675 38.3027 46.6596 38.4345 46.5277C38.6403 46.322 38.6743 46.1973 38.6743 45.6487C38.6743 45.1397 38.6346 44.9698 38.479 44.8142C38.207 44.5422 37.6921 44.5571 37.4217 44.8449ZM40.3346 44.8142C40.1769 44.9719 40.1393 45.1397 40.1393 45.686C40.1393 46.3006 40.1628 46.3812 40.3966 46.565C40.7379 46.8336 41.0716 46.8207 41.3645 46.5277C41.6895 46.2028 41.7106 45.2687 41.4018 44.8762C41.1481 44.5537 40.6254 44.5234 40.3346 44.8142ZM25.2944 47.7929V48.4278L22.7795 48.4164C21.3964 48.4102 20.3306 48.3865 20.4112 48.364C21.0391 48.1876 25.0762 47.1715 25.1723 47.1656C25.2582 47.1604 25.2944 47.3462 25.2944 47.7929Z" fill="url(#paint0_linear_2582_17429)"/>
<defs>
<linearGradient id="paint0_linear_2582_17429" x1="0.5" y1="25.6757" x2="50.4794" y2="25.6757" gradientUnits="userSpaceOnUse">
<stop stop-color="#00469F"/>
<stop offset="1" stop-color="#1E79D6"/>
</linearGradient>
</defs>
</svg>
