<svg width="47" height="50" viewBox="0 0 47 50" fill="none" xmlns="http://www.w3.org/2000/svg">
<path fill-rule="evenodd" clip-rule="evenodd" d="M33.6216 0.110914C29.9699 0.80764 26.9781 3.04419 25.3924 6.26253C24.698 7.67192 24.2168 9.51829 24.2168 10.7734V11.2646H14.2858C7.26374 11.2646 4.19823 11.2981 3.82026 11.379C2.90262 11.5754 2.22516 11.9617 1.46478 12.722C0.704507 13.4824 0.318166 14.1598 0.121767 15.0775C-0.0400329 15.8333 -0.04084 45.4252 0.120859 46.1868C0.386355 47.4368 1.39569 48.7821 2.51618 49.3793C3.74753 50.0357 2.76967 49.9996 19.3749 49.9996C35.9801 49.9996 35.0023 50.0357 36.2336 49.3793C36.9403 49.0026 37.8164 48.1096 38.1767 47.3985C38.7644 46.2387 38.7424 46.7635 38.7424 33.9052V22.0899L39.1456 21.9691C39.3673 21.9027 40.0368 21.603 40.6335 21.3032C43.7295 19.7475 45.8581 16.9165 46.6265 13.3325C46.6985 12.9968 46.7563 12.0759 46.7563 11.2646C46.7563 9.72649 46.6647 9.11278 46.2368 7.78449C45.0327 4.04666 41.9796 1.2188 38.1167 0.263433C37.0176 -0.00831782 34.6654 -0.0882088 33.6216 0.110914ZM37.8238 1.88345C41.3687 2.74409 44.112 5.56509 44.9637 9.22556C45.2279 10.3612 45.2044 12.3391 44.9126 13.5218C44.3852 15.6588 43.0864 17.6484 41.3651 18.9558C40.4714 19.6347 38.8802 20.3923 37.7841 20.6611C36.5873 20.9544 34.6136 20.9786 33.4755 20.7138C29.7941 19.8572 27.0116 17.1381 26.1155 13.5218C25.7968 12.2351 25.7997 10.2592 26.1224 8.99496C26.8629 6.09276 28.7444 3.79105 31.3922 2.54769C32.2623 2.13916 33.5412 1.75574 34.4049 1.64458C35.1266 1.55158 36.9946 1.68221 37.8238 1.88345ZM34.1023 4.86726C33.9636 4.89187 33.5778 4.96127 33.2449 5.02149C31.1971 5.3921 28.9135 6.52933 27.4153 7.9246L26.9319 8.3748L27.4623 8.91184C27.754 9.2072 28.0329 9.44889 28.0821 9.44889C28.1313 9.44889 28.3939 9.24906 28.6656 9.00474C29.7739 8.00833 31.3423 7.1851 32.9423 6.76023C33.8273 6.5252 34.1427 6.49231 35.5145 6.49231C36.8863 6.49231 37.2017 6.5252 38.0868 6.76023C39.6867 7.1851 41.2552 8.00833 42.3635 9.00474C42.6351 9.24906 42.8977 9.44889 42.9469 9.44889C42.9961 9.44889 43.275 9.2072 43.5668 8.91184L44.0972 8.3748L43.6138 7.9246C42.6537 7.03047 41.2685 6.16296 40.0108 5.66818C38.5881 5.10854 37.5005 4.8958 35.8676 4.85777C35.0354 4.83831 34.241 4.84264 34.1023 4.86726ZM34.068 8.13553C32.6449 8.39416 31.2011 9.03047 30.0806 9.89273C29.1327 10.622 29.1404 10.5875 29.7839 11.2311L30.3429 11.79L30.9868 11.2686C32.31 10.1974 33.7187 9.71358 35.5145 9.71358C37.3087 9.71358 38.7092 10.1971 40.0538 11.2804L40.6861 11.79L41.2451 11.2311C41.8886 10.5875 41.8963 10.622 40.9484 9.89273C39.4191 8.71585 37.7889 8.14117 35.8171 8.08358C35.1236 8.0634 34.3365 8.0867 34.068 8.13553ZM34.1803 11.4214C33.2471 11.6476 31.5805 12.6014 31.5805 12.9092C31.5805 12.9721 31.8142 13.2602 32.0999 13.5495L32.6193 14.0753L33.068 13.7327C34.4764 12.6572 36.5669 12.658 37.9773 13.7347L38.4157 14.0694L38.9322 13.5464C39.2161 13.2588 39.4485 12.9721 39.4485 12.9092C39.4485 12.76 38.6323 12.1678 37.9626 11.8311C36.8842 11.2888 35.3935 11.1273 34.1803 11.4214ZM24.3747 13.156C24.4502 13.5003 24.7816 14.7663 24.8763 15.0725L24.9464 15.2995H13.3368H1.72725L1.82339 15.0466C2.08697 14.3532 2.74738 13.5803 3.33617 13.2762C4.07587 12.8942 4.12974 12.8923 14.3546 12.8853L24.3138 12.8786L24.3747 13.156ZM34.7729 14.5901C33.8256 14.8939 33.1081 15.8679 33.0985 16.863C33.0917 17.5863 33.286 18.0421 33.836 18.592C34.821 19.5771 36.1283 19.6045 37.1366 18.6613C38.1658 17.6986 38.203 16.1878 37.2216 15.2064C37.0477 15.0324 36.7646 14.8174 36.5927 14.7285C36.2243 14.5379 35.1824 14.4587 34.7729 14.5901ZM35.856 16.2205C36.4405 16.4868 36.4105 17.3738 35.8085 17.6232C35.1742 17.8859 34.5412 17.256 34.8034 16.623C34.9885 16.1762 35.4073 16.016 35.856 16.2205ZM25.9954 17.3422C26.1427 17.578 26.3961 17.9402 26.5584 18.1472L26.8535 18.5237L16.6331 18.5507L6.41278 18.5779L5.93909 18.7967C5.33254 19.077 4.59183 19.8177 4.31161 20.4242L4.09272 20.8979V30.6321V40.3663L4.31161 40.84C4.59133 41.4455 5.2699 42.124 5.91104 42.4395L6.41278 42.6864H19.3749H32.337L32.8107 42.4675C33.4162 42.1878 34.0947 41.5092 34.4102 40.8681L34.6571 40.3663L34.6844 31.4643L34.7118 22.5623H35.4522C35.8593 22.5623 36.4031 22.5335 36.6604 22.4982L37.1285 22.434V33.3924V44.3508H19.3749H1.62134V30.6321V16.9135H13.6743H25.7274L25.9954 17.3422ZM29.1617 20.5967C30.0759 21.2045 31.5741 21.9101 32.4127 22.1277L33.0936 22.3044V31.0366V39.7688L32.8666 40.2188C32.7008 40.5477 32.5184 40.7301 32.1896 40.8959L31.7395 41.1229H19.3749H7.01035L6.56026 40.8959C6.23141 40.7301 6.04904 40.5477 5.8832 40.2188L5.65624 39.7688V30.6321V21.4955L5.8832 21.0454C6.04904 20.7166 6.23141 20.5342 6.56026 20.3683L7.01035 20.1414H17.7435H28.4767L29.1617 20.5967ZM27.4282 21.89C25.9883 22.4284 25.3791 24.2312 26.216 25.4772C26.8782 26.4632 27.9539 26.8239 29.0839 26.4388C29.6895 26.2326 30.4131 25.4713 30.5758 24.8691C30.7162 24.3496 30.6504 23.5101 30.4376 23.1033C30.2373 22.7204 29.6992 22.1823 29.3215 21.9869C28.9039 21.771 27.8858 21.7188 27.4282 21.89ZM28.5931 23.4833C29.1777 23.7496 29.1476 24.6367 28.5456 24.886C27.9113 25.1487 27.2784 24.5188 27.5405 23.8859C27.7256 23.439 28.1445 23.2788 28.5931 23.4833ZM14.2712 25.1614C13.6498 25.3836 13.0505 25.842 12.6774 26.3803C12.387 26.7994 12.1121 27.5749 12.1121 27.975C12.1121 28.2028 12.1405 28.2112 12.9111 28.2112C13.7034 28.2112 13.7105 28.2089 13.7718 27.9297C13.8869 27.4054 14.2198 26.9941 14.7011 26.7812C15.5143 26.4214 16.3594 26.7441 16.7575 27.5662C17.1657 28.4095 17.1417 28.4564 14.4922 32.0013C11.9205 35.4419 11.8678 35.5415 12.3597 36.0333L12.6073 36.281H15.5876H18.5679V35.474V34.667H16.5489H14.5298L16.3353 32.2639C17.3283 30.9423 18.2252 29.7054 18.3283 29.5152C18.6141 28.9881 18.5909 27.6194 18.2847 26.9503C17.9917 26.31 17.3493 25.6451 16.7018 25.3121C16.0285 24.9657 14.9971 24.9019 14.2712 25.1614ZM23.7297 25.1598C23.4052 25.4367 19.3749 32.7784 19.3749 33.0925C19.3749 33.2471 19.4819 33.4718 19.6225 33.6124C19.8666 33.8565 19.8953 33.86 21.64 33.86H23.4098V35.0705V36.281H24.2168H25.0238V35.0705V33.86H25.8307H26.6377V33.0531V32.2461H25.8307H25.0238V28.8623V25.4784L24.7761 25.2309C24.4822 24.9369 24.0271 24.9059 23.7297 25.1598ZM23.3747 32.2139C23.3525 32.2361 22.9437 32.2411 22.466 32.225L21.5978 32.1956L22.4787 30.604L23.3594 29.0123L23.3872 30.5929C23.4025 31.4623 23.3969 32.1917 23.3747 32.2139ZM36.9264 46.2176C36.6079 47.0556 35.8495 47.8365 35.0578 48.1419C34.5715 48.3294 34.0966 48.3353 19.3749 48.3353C4.65316 48.3353 4.17836 48.3294 3.69205 48.1419C2.9003 47.8365 2.14194 47.0556 1.82339 46.2176L1.72725 45.9647H19.3749H37.0226L36.9264 46.2176Z" fill="url(#paint0_linear_2582_17435)"/>
<defs>
<linearGradient id="paint0_linear_2582_17435" x1="0" y1="25.6757" x2="46.7563" y2="25.6757" gradientUnits="userSpaceOnUse">
<stop stop-color="#00469F"/>
<stop offset="1" stop-color="#1E79D6"/>
</linearGradient>
</defs>
</svg>
