<svg width="37" height="38" viewBox="0 0 37 38" fill="none" xmlns="http://www.w3.org/2000/svg">
<path d="M35.1662 29.0706C35.3083 28.6701 35.2656 29.426 35.2656 18.0862C35.2656 17.1299 34.4875 16.3518 33.5312 16.3518C33.0242 16.3518 29.8454 16.3518 29.3849 16.3518C29.527 15.9513 29.4844 16.7072 29.4844 5.36743C29.4844 4.41114 28.7063 3.63306 27.75 3.63306C24.7988 3.63306 21.416 3.63306 18.5 3.63306C17.5437 3.63306 16.7656 4.41114 16.7656 5.36743C16.7656 16.7088 16.7233 15.9521 16.8651 16.3518C16.4026 16.3518 13.2314 16.3518 12.7188 16.3518C11.7625 16.3518 10.9844 17.1299 10.9844 18.0862C10.9844 29.4275 10.942 28.6709 11.0838 29.0706H9.25V3.63306C9.25 1.72033 7.6939 0.164307 5.78125 0.164307H1.73438C0.778012 0.164307 0 0.942391 0 1.89868C0 2.85497 0.778012 3.63306 1.73438 3.63306H5.34766C5.58678 3.63306 5.78125 3.82752 5.78125 4.06665V31.9612C5.78125 32.9175 6.55926 33.6956 7.51562 33.6956H9.29199C9.57346 35.6541 11.2618 37.1643 13.2969 37.1643C15.3319 37.1643 17.0204 35.6541 17.3018 33.6956H25.4794C25.7609 35.6541 27.4492 37.1643 29.4843 37.1643C31.5194 37.1643 33.2078 35.6541 33.4892 33.6956H35.2656C36.222 33.6956 37 32.9175 37 31.9612V30.8049C37 29.9263 36.3328 29.0706 35.1662 29.0706V29.0706ZM34.1094 18.0862V28.4924C34.1094 28.8112 33.85 29.0706 33.5312 29.0706H24.2812C23.9625 29.0706 23.7031 28.8112 23.7031 28.4924V18.0862C23.7031 17.7674 23.9625 17.5081 24.2812 17.5081H26.5938V20.3987C26.5938 20.718 26.8526 20.9768 27.1719 20.9768H30.6406C30.9599 20.9768 31.2188 20.718 31.2188 20.3987V17.5081H33.5312C33.85 17.5081 34.1094 17.7674 34.1094 18.0862ZM25.4795 32.5393H17.3018C17.1724 31.6393 16.746 30.8343 16.1252 30.2268H26.656C26.0352 30.8343 25.6088 31.6393 25.4795 32.5393ZM30.0625 19.8206H27.75V17.5081H30.0625V19.8206ZM24.2812 4.78931V7.10181H21.9688V4.78931H24.2812ZM17.9219 15.7737V5.36743C17.9219 5.04867 18.1812 4.78931 18.5 4.78931H20.8125V7.67993C20.8125 7.9992 21.0714 8.25806 21.3906 8.25806H24.8594C25.1786 8.25806 25.4375 7.9992 25.4375 7.67993V4.78931H27.75C28.0688 4.78931 28.3281 5.04867 28.3281 5.36743V15.7737C28.3281 16.0924 28.0688 16.3518 27.75 16.3518C23.194 16.3518 21.1832 16.3518 18.5 16.3518C18.1812 16.3518 17.9219 16.0924 17.9219 15.7737ZM18.5 17.5081V19.8206H16.1875V17.5081H18.5ZM12.1406 28.4924V18.0862C12.1406 17.7674 12.4 17.5081 12.7188 17.5081H15.0312V20.3987C15.0312 20.718 15.2901 20.9768 15.6094 20.9768H19.0781C19.3974 20.9768 19.6562 20.718 19.6562 20.3987V17.5081H21.9688C22.2875 17.5081 22.5469 17.7674 22.5469 18.0862V28.4924C22.5469 28.8112 22.2875 29.0706 21.9688 29.0706H12.7188C12.4 29.0706 12.1406 28.8112 12.1406 28.4924ZM6.9375 7.67993H8.09375V29.0706H6.9375V7.67993ZM5.34766 2.47681H1.73438C1.41561 2.47681 1.15625 2.21745 1.15625 1.89868C1.15625 1.57992 1.41561 1.32056 1.73438 1.32056H5.78125C7.05638 1.32056 8.09375 2.35793 8.09375 3.63306V6.52368H6.9375V4.06665C6.9375 3.19 6.22431 2.47681 5.34766 2.47681ZM6.9375 31.9612V30.2268H10.4685C9.84771 30.8343 9.42134 31.6393 9.29199 32.5393H7.51562C7.19686 32.5393 6.9375 32.2799 6.9375 31.9612V31.9612ZM13.2969 36.0081C11.703 36.0081 10.4062 34.7113 10.4062 33.1174C10.4062 31.5235 11.703 30.2268 13.2969 30.2268C14.8908 30.2268 16.1875 31.5235 16.1875 33.1174C16.1875 34.7113 14.8908 36.0081 13.2969 36.0081ZM29.4844 36.0081C27.8905 36.0081 26.5938 34.7113 26.5938 33.1174C26.5938 31.5235 27.8905 30.2268 29.4844 30.2268C31.0783 30.2268 32.375 31.5235 32.375 33.1174C32.375 34.7113 31.0783 36.0081 29.4844 36.0081ZM35.8438 31.9612C35.8438 32.2799 35.5844 32.5393 35.2656 32.5393H33.4893C33.3599 31.6393 32.9335 30.8343 32.3127 30.2268H35.2656C35.5844 30.2268 35.8438 30.4862 35.8438 30.8049V31.9612Z" fill="url(#paint0_linear_10_2456)"/>
<defs>
<linearGradient id="paint0_linear_10_2456" x1="0" y1="19.1643" x2="37" y2="19.1643" gradientUnits="userSpaceOnUse">
<stop stop-color="#00469F"/>
<stop offset="1" stop-color="#1E79D6"/>
</linearGradient>
</defs>
</svg>
