<svg width="61" height="61" viewBox="0 0 61 61" fill="none" xmlns="http://www.w3.org/2000/svg">
<circle cx="30.25" cy="30.7617" r="30" fill="url(#paint0_linear_1835_43063)"/>
<path d="M20.25 29.7617C19.6977 29.7617 19.25 30.2094 19.25 30.7617C19.25 31.314 19.6977 31.7617 20.25 31.7617L20.25 29.7617ZM40.9571 31.4688C41.3476 31.0783 41.3476 30.4451 40.9571 30.0546L34.5931 23.6907C34.2026 23.3001 33.5695 23.3001 33.1789 23.6907C32.7884 24.0812 32.7884 24.7143 33.1789 25.1049L38.8358 30.7617L33.1789 36.4186C32.7884 36.8091 32.7884 37.4423 33.1789 37.8328C33.5695 38.2233 34.2026 38.2233 34.5931 37.8328L40.9571 31.4688ZM20.25 31.7617L40.25 31.7617L40.25 29.7617L20.25 29.7617L20.25 31.7617Z" fill="white"/>
<defs>
<linearGradient id="paint0_linear_1835_43063" x1="1.59203" y1="60.7617" x2="64.7423" y2="55.1478" gradientUnits="userSpaceOnUse">
<stop stop-color="#00469F"/>
<stop offset="1" stop-color="#1E79D6"/>
</linearGradient>
</defs>
</svg>
