<svg width="71" height="71" viewBox="0 0 71 71" fill="none" xmlns="http://www.w3.org/2000/svg">
<mask id="path-1-inside-1_1821_36491" fill="white">
<path fill-rule="evenodd" clip-rule="evenodd" d="M63.7878 10.2712C62.669 8.04288 60.3718 6.59505 57.839 6.59505C55.746 6.59505 53.793 7.59138 52.5482 9.22005C51.4853 8.53289 50.2452 8.16422 48.9478 8.16422C46.9738 8.16422 45.2028 9.03222 43.9825 10.4019C40.3168 9.13605 36.4528 8.67522 32.4768 9.08939C31.5388 6.54022 29.1868 4.63155 26.4533 4.43905C25.3357 2.20955 23.0385 0.761719 20.5057 0.761719C18.4127 0.761719 16.4597 1.75805 15.2148 3.38672C14.152 2.69955 12.9118 2.33089 11.6145 2.33089C7.94417 2.33089 4.95633 5.31755 4.95633 8.98905V9.65289H4.55383C2.18083 9.65289 0.25 11.5837 0.25 13.9579C0.25 16.3309 2.18083 18.2617 4.55383 18.2617H14.9115C10.7045 23.1232 8.41667 29.2412 8.41667 35.7617C8.41667 49.5471 18.8677 60.9325 32.261 62.4247C30.6078 63.0256 29.4167 64.5982 29.4167 66.4579C29.4167 68.8309 31.3475 70.7617 33.7205 70.7617H55.3283C59.1807 70.7617 62.0833 67.8579 62.0833 64.0067C62.0833 60.3235 59.169 57.1876 55.6212 56.9379C55.2268 56.1527 54.6808 55.4725 54.0368 54.9102C59.1678 49.8749 62.0833 42.9776 62.0833 35.7617C62.0833 31.7146 61.1582 27.7211 59.4058 24.0951H63.4962C67.3473 24.0951 70.25 21.1912 70.25 17.34C70.25 13.6569 67.3357 10.5221 63.7878 10.2712ZM38.0838 21.7617H36.4167V11.2874C38.5808 11.3866 40.6913 11.7774 42.7388 12.4389C42.453 13.1797 42.2897 13.9824 42.2897 14.8224V15.4862H41.8872C39.5142 15.4862 37.5833 17.4171 37.5833 19.7912C37.5833 20.5041 37.7747 21.1679 38.0838 21.7617ZM2.58333 13.9579C2.58333 12.8706 3.46767 11.9862 4.55383 11.9862H6.123C6.76817 11.9862 7.28967 11.4636 7.28967 10.8196V8.98905C7.28967 6.60439 9.22983 4.66422 11.6145 4.66422C12.7788 4.66422 13.8708 5.12039 14.6887 5.94989C14.957 6.22172 15.3443 6.34655 15.7212 6.27889C16.098 6.21239 16.42 5.96505 16.5787 5.61855C17.2845 4.08555 18.8257 3.09505 20.5057 3.09505C22.3303 3.09505 23.9672 4.25355 24.5785 5.97905C24.7442 6.44455 25.184 6.75605 25.6775 6.75605H25.996C28.4833 6.75605 30.5833 8.93189 30.5833 11.5067C30.5833 14.0279 28.6828 15.9284 26.1628 15.9284H4.55383C3.46767 15.9284 2.58333 15.0441 2.58333 13.9579ZM26.1628 18.2617C30.014 18.2617 32.9167 15.3579 32.9167 11.5067C32.9167 11.4832 32.9151 11.4601 32.9136 11.4372C32.9125 11.4202 32.9113 11.4034 32.9108 11.3866C33.3028 11.3481 33.6937 11.3212 34.0833 11.3026V21.7617H24.7687H24.75H22.25L22.1449 21.7617L22.1809 21.7617H22.184C22.3556 21.7618 23.0027 21.762 22.2825 21.7629H15.1402C16.014 20.5169 17.0255 19.3526 18.1408 18.2629H26.1628V18.2617ZM45.6812 36.9284H48.0588C47.9667 40.6372 47.4405 44.1991 46.506 47.4284H36.4167V46.1929C41.2758 45.6527 45.141 41.7864 45.6812 36.9284ZM59.7185 36.9284C59.5412 40.6337 58.5203 44.2165 56.7785 47.4284H48.928C49.81 44.1652 50.3047 40.6115 50.3922 36.9284H59.7185ZM34.0833 60.1451C30.2998 59.4579 26.9375 55.4749 24.8048 49.7617H34.0833V60.1451ZM24.0243 47.4284C23.1003 44.2632 22.5473 40.6897 22.4493 36.9284H24.82C25.3602 41.7864 29.2253 45.6527 34.0845 46.1929V47.4284H24.0243ZM10.8095 36.9284H20.0997C20.1872 40.6979 20.6923 44.2445 21.5405 47.4284H13.711C11.9995 44.2819 10.9892 40.7119 10.8095 36.9284ZM10.8083 34.5951C10.9822 30.8617 11.9622 27.2952 13.7052 24.0951H21.572C20.69 27.3582 20.1953 30.9119 20.1078 34.5951H10.8083ZM35.25 43.9284C30.7478 43.9284 27.0833 40.2651 27.0833 35.7617C27.0833 31.2584 30.7478 27.5951 35.25 27.5951C39.7522 27.5951 43.4167 31.2584 43.4167 35.7617C43.4167 40.2651 39.7522 43.9284 35.25 43.9284ZM34.0833 25.3306C29.2242 25.8707 25.359 29.7371 24.8188 34.5951H22.4412C22.5333 30.8862 23.0595 27.3244 23.994 24.0951H34.0833V25.3306ZM15.1728 49.7617H22.244C23.5472 53.5989 25.3812 56.7769 27.5768 59.0134C22.51 57.3369 18.1747 54.0527 15.1728 49.7617ZM54.8453 59.2561H55.1638C57.65 59.2561 59.75 61.4319 59.75 64.0067C59.75 66.5279 57.8495 68.4284 55.3295 68.4284H33.7205C32.6343 68.4284 31.75 67.5441 31.75 66.4579C31.75 65.3717 32.6343 64.4862 33.7205 64.4862H35.2897C35.9348 64.4862 36.4563 63.9636 36.4563 63.3195V61.489C36.4563 59.1044 38.3965 57.1642 40.7812 57.1642C41.9455 57.1642 43.0375 57.6204 43.8553 58.4499C44.1237 58.7217 44.511 58.8454 44.8878 58.7789C45.2647 58.7124 45.5867 58.465 45.7453 58.1185C46.4512 56.5855 47.9923 55.5951 49.6723 55.5951C51.497 55.5951 53.1338 56.7536 53.7452 58.479C53.9108 58.9445 54.3507 59.2561 54.8453 59.2561ZM49.6723 53.2617C47.5793 53.2617 45.6263 54.2581 44.3815 55.8867C43.3187 55.1996 42.0785 54.8309 40.7812 54.8309C39.1105 54.8309 37.5868 55.4539 36.4167 56.4735V49.7617H45.7313C45.6968 49.8543 45.6634 49.9479 45.63 50.0415C45.5756 50.1942 45.5212 50.3468 45.4618 50.4944L47.6283 51.3612C47.8372 50.8397 48.032 50.3042 48.2175 49.7606H55.3365C54.3518 51.1722 53.2155 52.4859 51.938 53.677C51.2228 53.4169 50.4622 53.2617 49.6723 53.2617ZM59.7115 34.5951H50.3875C50.3187 31.7029 50.0095 28.8761 49.4367 26.1857L47.1535 26.6722C47.6937 29.2051 47.9865 31.8674 48.0542 34.5962H45.6812C45.141 29.7382 41.2758 25.8719 36.4167 25.3317V24.0951H41.8872H42.25H56.7773C58.5308 27.3267 59.5353 30.9189 59.7115 34.5951ZM63.4962 21.7617H42.25H41.8872C40.801 21.7617 39.9167 20.8774 39.9167 19.7912C39.9167 18.7051 40.801 17.8196 41.8872 17.8196H43.4563C44.1015 17.8196 44.623 17.2969 44.623 16.6529V14.8224C44.623 12.4377 46.5632 10.4976 48.9478 10.4976C50.1122 10.4976 51.2042 10.9537 52.022 11.7832C52.2915 12.0562 52.6788 12.1799 53.0545 12.1122C53.4313 12.0457 53.7533 11.7984 53.912 11.4519C54.6178 9.91889 56.159 8.92838 57.839 8.92838C59.6637 8.92838 61.3005 10.0869 61.9118 11.8124C62.0775 12.2779 62.5173 12.5894 63.0108 12.5894H63.3293C65.8167 12.5894 67.9167 14.7652 67.9167 17.34C67.9167 19.8612 66.0162 21.7617 63.4962 21.7617ZM35.25 32.2617C35.894 32.2617 36.4167 32.7856 36.4167 33.4284H38.75C38.75 31.9094 37.7712 30.6261 36.4167 30.1431V28.7617H34.0833V30.1431C32.7288 30.6261 31.75 31.9094 31.75 33.4284C31.75 35.3581 33.3203 36.9284 35.25 36.9284C35.894 36.9284 36.4167 37.4522 36.4167 38.0951C36.4167 38.7379 35.894 39.2617 35.25 39.2617C34.606 39.2617 34.0833 38.7379 34.0833 38.0951H31.75C31.75 39.6141 32.7288 40.8974 34.0833 41.3804V42.7617H36.4167V41.3804C37.7712 40.8974 38.75 39.6141 38.75 38.0951C38.75 36.1654 37.1797 34.5951 35.25 34.5951C34.606 34.5951 34.0833 34.0712 34.0833 33.4284C34.0833 32.7856 34.606 32.2617 35.25 32.2617ZM62.0781 15.9271V13.5938C64.0428 13.5938 65.64 15.1921 65.64 17.1556H63.3066C63.3066 16.4777 62.7548 15.9271 62.0781 15.9271ZM53.9219 62.7786C54.5985 62.7786 55.1504 63.3293 55.1504 64.0071H57.4837C57.4837 62.0436 55.8865 60.4453 53.9219 60.4453V62.7786ZM24.6875 11.2044V8.87109C26.6522 8.87109 28.2493 10.4694 28.2493 12.4329H25.916C25.916 11.7551 25.3642 11.2044 24.6875 11.2044Z"/>
</mask>
<path fill-rule="evenodd" clip-rule="evenodd" d="M63.7878 10.2712C62.669 8.04288 60.3718 6.59505 57.839 6.59505C55.746 6.59505 53.793 7.59138 52.5482 9.22005C51.4853 8.53289 50.2452 8.16422 48.9478 8.16422C46.9738 8.16422 45.2028 9.03222 43.9825 10.4019C40.3168 9.13605 36.4528 8.67522 32.4768 9.08939C31.5388 6.54022 29.1868 4.63155 26.4533 4.43905C25.3357 2.20955 23.0385 0.761719 20.5057 0.761719C18.4127 0.761719 16.4597 1.75805 15.2148 3.38672C14.152 2.69955 12.9118 2.33089 11.6145 2.33089C7.94417 2.33089 4.95633 5.31755 4.95633 8.98905V9.65289H4.55383C2.18083 9.65289 0.25 11.5837 0.25 13.9579C0.25 16.3309 2.18083 18.2617 4.55383 18.2617H14.9115C10.7045 23.1232 8.41667 29.2412 8.41667 35.7617C8.41667 49.5471 18.8677 60.9325 32.261 62.4247C30.6078 63.0256 29.4167 64.5982 29.4167 66.4579C29.4167 68.8309 31.3475 70.7617 33.7205 70.7617H55.3283C59.1807 70.7617 62.0833 67.8579 62.0833 64.0067C62.0833 60.3235 59.169 57.1876 55.6212 56.9379C55.2268 56.1527 54.6808 55.4725 54.0368 54.9102C59.1678 49.8749 62.0833 42.9776 62.0833 35.7617C62.0833 31.7146 61.1582 27.7211 59.4058 24.0951H63.4962C67.3473 24.0951 70.25 21.1912 70.25 17.34C70.25 13.6569 67.3357 10.5221 63.7878 10.2712ZM38.0838 21.7617H36.4167V11.2874C38.5808 11.3866 40.6913 11.7774 42.7388 12.4389C42.453 13.1797 42.2897 13.9824 42.2897 14.8224V15.4862H41.8872C39.5142 15.4862 37.5833 17.4171 37.5833 19.7912C37.5833 20.5041 37.7747 21.1679 38.0838 21.7617ZM2.58333 13.9579C2.58333 12.8706 3.46767 11.9862 4.55383 11.9862H6.123C6.76817 11.9862 7.28967 11.4636 7.28967 10.8196V8.98905C7.28967 6.60439 9.22983 4.66422 11.6145 4.66422C12.7788 4.66422 13.8708 5.12039 14.6887 5.94989C14.957 6.22172 15.3443 6.34655 15.7212 6.27889C16.098 6.21239 16.42 5.96505 16.5787 5.61855C17.2845 4.08555 18.8257 3.09505 20.5057 3.09505C22.3303 3.09505 23.9672 4.25355 24.5785 5.97905C24.7442 6.44455 25.184 6.75605 25.6775 6.75605H25.996C28.4833 6.75605 30.5833 8.93189 30.5833 11.5067C30.5833 14.0279 28.6828 15.9284 26.1628 15.9284H4.55383C3.46767 15.9284 2.58333 15.0441 2.58333 13.9579ZM26.1628 18.2617C30.014 18.2617 32.9167 15.3579 32.9167 11.5067C32.9167 11.4832 32.9151 11.4601 32.9136 11.4372C32.9125 11.4202 32.9113 11.4034 32.9108 11.3866C33.3028 11.3481 33.6937 11.3212 34.0833 11.3026V21.7617H24.7687H24.75H22.25L22.1449 21.7617L22.1809 21.7617H22.184C22.3556 21.7618 23.0027 21.762 22.2825 21.7629H15.1402C16.014 20.5169 17.0255 19.3526 18.1408 18.2629H26.1628V18.2617ZM45.6812 36.9284H48.0588C47.9667 40.6372 47.4405 44.1991 46.506 47.4284H36.4167V46.1929C41.2758 45.6527 45.141 41.7864 45.6812 36.9284ZM59.7185 36.9284C59.5412 40.6337 58.5203 44.2165 56.7785 47.4284H48.928C49.81 44.1652 50.3047 40.6115 50.3922 36.9284H59.7185ZM34.0833 60.1451C30.2998 59.4579 26.9375 55.4749 24.8048 49.7617H34.0833V60.1451ZM24.0243 47.4284C23.1003 44.2632 22.5473 40.6897 22.4493 36.9284H24.82C25.3602 41.7864 29.2253 45.6527 34.0845 46.1929V47.4284H24.0243ZM10.8095 36.9284H20.0997C20.1872 40.6979 20.6923 44.2445 21.5405 47.4284H13.711C11.9995 44.2819 10.9892 40.7119 10.8095 36.9284ZM10.8083 34.5951C10.9822 30.8617 11.9622 27.2952 13.7052 24.0951H21.572C20.69 27.3582 20.1953 30.9119 20.1078 34.5951H10.8083ZM35.25 43.9284C30.7478 43.9284 27.0833 40.2651 27.0833 35.7617C27.0833 31.2584 30.7478 27.5951 35.25 27.5951C39.7522 27.5951 43.4167 31.2584 43.4167 35.7617C43.4167 40.2651 39.7522 43.9284 35.25 43.9284ZM34.0833 25.3306C29.2242 25.8707 25.359 29.7371 24.8188 34.5951H22.4412C22.5333 30.8862 23.0595 27.3244 23.994 24.0951H34.0833V25.3306ZM15.1728 49.7617H22.244C23.5472 53.5989 25.3812 56.7769 27.5768 59.0134C22.51 57.3369 18.1747 54.0527 15.1728 49.7617ZM54.8453 59.2561H55.1638C57.65 59.2561 59.75 61.4319 59.75 64.0067C59.75 66.5279 57.8495 68.4284 55.3295 68.4284H33.7205C32.6343 68.4284 31.75 67.5441 31.75 66.4579C31.75 65.3717 32.6343 64.4862 33.7205 64.4862H35.2897C35.9348 64.4862 36.4563 63.9636 36.4563 63.3195V61.489C36.4563 59.1044 38.3965 57.1642 40.7812 57.1642C41.9455 57.1642 43.0375 57.6204 43.8553 58.4499C44.1237 58.7217 44.511 58.8454 44.8878 58.7789C45.2647 58.7124 45.5867 58.465 45.7453 58.1185C46.4512 56.5855 47.9923 55.5951 49.6723 55.5951C51.497 55.5951 53.1338 56.7536 53.7452 58.479C53.9108 58.9445 54.3507 59.2561 54.8453 59.2561ZM49.6723 53.2617C47.5793 53.2617 45.6263 54.2581 44.3815 55.8867C43.3187 55.1996 42.0785 54.8309 40.7812 54.8309C39.1105 54.8309 37.5868 55.4539 36.4167 56.4735V49.7617H45.7313C45.6968 49.8543 45.6634 49.9479 45.63 50.0415C45.5756 50.1942 45.5212 50.3468 45.4618 50.4944L47.6283 51.3612C47.8372 50.8397 48.032 50.3042 48.2175 49.7606H55.3365C54.3518 51.1722 53.2155 52.4859 51.938 53.677C51.2228 53.4169 50.4622 53.2617 49.6723 53.2617ZM59.7115 34.5951H50.3875C50.3187 31.7029 50.0095 28.8761 49.4367 26.1857L47.1535 26.6722C47.6937 29.2051 47.9865 31.8674 48.0542 34.5962H45.6812C45.141 29.7382 41.2758 25.8719 36.4167 25.3317V24.0951H41.8872H42.25H56.7773C58.5308 27.3267 59.5353 30.9189 59.7115 34.5951ZM63.4962 21.7617H42.25H41.8872C40.801 21.7617 39.9167 20.8774 39.9167 19.7912C39.9167 18.7051 40.801 17.8196 41.8872 17.8196H43.4563C44.1015 17.8196 44.623 17.2969 44.623 16.6529V14.8224C44.623 12.4377 46.5632 10.4976 48.9478 10.4976C50.1122 10.4976 51.2042 10.9537 52.022 11.7832C52.2915 12.0562 52.6788 12.1799 53.0545 12.1122C53.4313 12.0457 53.7533 11.7984 53.912 11.4519C54.6178 9.91889 56.159 8.92838 57.839 8.92838C59.6637 8.92838 61.3005 10.0869 61.9118 11.8124C62.0775 12.2779 62.5173 12.5894 63.0108 12.5894H63.3293C65.8167 12.5894 67.9167 14.7652 67.9167 17.34C67.9167 19.8612 66.0162 21.7617 63.4962 21.7617ZM35.25 32.2617C35.894 32.2617 36.4167 32.7856 36.4167 33.4284H38.75C38.75 31.9094 37.7712 30.6261 36.4167 30.1431V28.7617H34.0833V30.1431C32.7288 30.6261 31.75 31.9094 31.75 33.4284C31.75 35.3581 33.3203 36.9284 35.25 36.9284C35.894 36.9284 36.4167 37.4522 36.4167 38.0951C36.4167 38.7379 35.894 39.2617 35.25 39.2617C34.606 39.2617 34.0833 38.7379 34.0833 38.0951H31.75C31.75 39.6141 32.7288 40.8974 34.0833 41.3804V42.7617H36.4167V41.3804C37.7712 40.8974 38.75 39.6141 38.75 38.0951C38.75 36.1654 37.1797 34.5951 35.25 34.5951C34.606 34.5951 34.0833 34.0712 34.0833 33.4284C34.0833 32.7856 34.606 32.2617 35.25 32.2617ZM62.0781 15.9271V13.5938C64.0428 13.5938 65.64 15.1921 65.64 17.1556H63.3066C63.3066 16.4777 62.7548 15.9271 62.0781 15.9271ZM53.9219 62.7786C54.5985 62.7786 55.1504 63.3293 55.1504 64.0071H57.4837C57.4837 62.0436 55.8865 60.4453 53.9219 60.4453V62.7786ZM24.6875 11.2044V8.87109C26.6522 8.87109 28.2493 10.4694 28.2493 12.4329H25.916C25.916 11.7551 25.3642 11.2044 24.6875 11.2044Z" fill="#408CD9"/>
<path d="M63.7878 10.2712L63.6091 10.361L63.6602 10.4627L63.7737 10.4707L63.7878 10.2712ZM52.5482 9.22005L52.4396 9.38801L52.5948 9.48837L52.7071 9.3415L52.5482 9.22005ZM43.9825 10.4019L43.9172 10.5909L44.0432 10.6344L44.1318 10.5349L43.9825 10.4019ZM32.4768 9.08939L32.2891 9.15845L32.3428 9.30442L32.4976 9.28831L32.4768 9.08939ZM26.4533 4.43905L26.2745 4.52868L26.3256 4.63055L26.4393 4.63856L26.4533 4.43905ZM15.2148 3.38672L15.1062 3.55467L15.2615 3.65504L15.3737 3.50817L15.2148 3.38672ZM4.95633 9.65289V9.85289H5.15633V9.65289H4.95633ZM14.9115 18.2617L15.0627 18.3926L15.3491 18.0617H14.9115V18.2617ZM32.261 62.4247L32.3293 62.6127L32.2831 62.2259L32.261 62.4247ZM55.6212 56.9379L55.4424 57.0276L55.4935 57.1294L55.6071 57.1374L55.6212 56.9379ZM54.0368 54.9102L53.8967 54.7675L53.7426 54.9188L53.9053 55.0609L54.0368 54.9102ZM59.4058 24.0951V23.8951H59.0871L59.2258 24.1821L59.4058 24.0951ZM36.4167 21.7617H36.2167V21.9617H36.4167V21.7617ZM38.0838 21.7617V21.9617H38.4134L38.2612 21.6694L38.0838 21.7617ZM36.4167 11.2874L36.4258 11.0876L36.2167 11.078V11.2874H36.4167ZM42.7388 12.4389L42.9254 12.5109L43.0015 12.3136L42.8003 12.2486L42.7388 12.4389ZM42.2897 15.4862V15.6862H42.4897V15.4862H42.2897ZM14.6887 5.94989L14.5462 6.0903L14.5463 6.09039L14.6887 5.94989ZM15.7212 6.27889L15.6864 6.08193L15.6858 6.08203L15.7212 6.27889ZM16.5787 5.61855L16.397 5.53491L16.3968 5.53528L16.5787 5.61855ZM24.5785 5.97905L24.39 6.04584L24.3901 6.04611L24.5785 5.97905ZM26.1628 18.2617V18.0617H25.9628V18.2617H26.1628ZM32.9136 11.4372L33.1131 11.4238V11.4238L32.9136 11.4372ZM32.9108 11.3866L32.8913 11.1875L32.7054 11.2058L32.7109 11.3924L32.9108 11.3866ZM34.0833 11.3026H34.2833V11.0927L34.0738 11.1028L34.0833 11.3026ZM34.0833 21.7617V21.9617H34.2833V21.7617H34.0833ZM22.25 21.7617V21.5617H22.25L22.25 21.7617ZM22.1449 21.7617L22.1449 21.5617L22.1448 21.9617L22.1449 21.7617ZM22.1809 21.7617L22.1808 21.9617H22.1809V21.7617ZM22.184 21.7617L22.184 21.5617H22.184V21.7617ZM22.2825 21.7629V21.9629H22.2827L22.2825 21.7629ZM15.1402 21.7629L14.9764 21.648L14.7556 21.9629H15.1402V21.7629ZM18.1408 18.2629V18.0629H18.0593L18.0011 18.1198L18.1408 18.2629ZM26.1628 18.2629V18.4629H26.3628V18.2629H26.1628ZM48.0588 36.9284L48.2588 36.9333L48.2639 36.7284H48.0588V36.9284ZM45.6812 36.9284V36.7284H45.5022L45.4824 36.9063L45.6812 36.9284ZM46.506 47.4284V47.6284H46.6563L46.6981 47.484L46.506 47.4284ZM36.4167 47.4284H36.2167V47.6284H36.4167V47.4284ZM36.4167 46.1929L36.3946 45.9941L36.2167 46.0139V46.1929H36.4167ZM56.7785 47.4284V47.6284H56.8975L56.9543 47.5237L56.7785 47.4284ZM59.7185 36.9284L59.9183 36.9379L59.9283 36.7284H59.7185V36.9284ZM48.928 47.4284L48.7349 47.3762L48.6668 47.6284H48.928V47.4284ZM50.3922 36.9284V36.7284H50.1969L50.1922 36.9236L50.3922 36.9284ZM24.8048 49.7617V49.5617H24.5167L24.6175 49.8317L24.8048 49.7617ZM34.0833 60.1451L34.0476 60.3418L34.2833 60.3846V60.1451H34.0833ZM34.0833 49.7617H34.2833V49.5617H34.0833V49.7617ZM22.4493 36.9284V36.7284H22.2441L22.2494 36.9336L22.4493 36.9284ZM24.0243 47.4284L23.8323 47.4844L23.8744 47.6284H24.0243V47.4284ZM24.82 36.9284L25.0188 36.9063L24.999 36.7284H24.82V36.9284ZM34.0845 46.1929H34.2845V46.0139L34.1066 45.9941L34.0845 46.1929ZM34.0845 47.4284V47.6284H34.2845V47.4284H34.0845ZM20.0997 36.9284L20.2996 36.9237L20.2951 36.7284H20.0997V36.9284ZM10.8095 36.9284V36.7284H10.5998L10.6097 36.9379L10.8095 36.9284ZM21.5405 47.4284V47.6284H21.8008L21.7338 47.3769L21.5405 47.4284ZM13.711 47.4284L13.5353 47.5239L13.5921 47.6284H13.711V47.4284ZM13.7052 24.0951V23.8951H13.5864L13.5295 23.9994L13.7052 24.0951ZM10.8083 34.5951L10.6086 34.5857L10.5988 34.7951H10.8083V34.5951ZM21.572 24.0951L21.7651 24.1472L21.8332 23.8951H21.572V24.0951ZM20.1078 34.5951V34.7951H20.3031L20.3078 34.5998L20.1078 34.5951ZM24.8188 34.5951V34.7951H24.9978L25.0176 34.6172L24.8188 34.5951ZM34.0833 25.3306L34.1054 25.5293L34.2833 25.5096V25.3306H34.0833ZM22.4412 34.5951L22.2412 34.5901L22.2361 34.7951H22.4412V34.5951ZM23.994 24.0951V23.8951H23.8437L23.8019 24.0395L23.994 24.0951ZM34.0833 24.0951H34.2833V23.8951H34.0833V24.0951ZM22.244 49.7617L22.4334 49.6974L22.3873 49.5617H22.244V49.7617ZM15.1728 49.7617V49.5617H14.7888L15.009 49.8764L15.1728 49.7617ZM27.5768 59.0134L27.514 59.2033L27.7196 58.8733L27.5768 59.0134ZM43.8553 58.4499L43.7129 58.5903L43.713 58.5904L43.8553 58.4499ZM45.7453 58.1185L45.5637 58.0349L45.5635 58.0353L45.7453 58.1185ZM53.7452 58.479L53.5566 58.5458L53.5567 58.5461L53.7452 58.479ZM44.3815 55.8867L44.2729 56.0547L44.4281 56.155L44.5404 56.0082L44.3815 55.8867ZM36.4167 56.4735H36.2167V56.9131L36.5481 56.6243L36.4167 56.4735ZM36.4167 49.7617V49.5617H36.2167V49.7617H36.4167ZM45.7313 49.7617L45.9187 49.8316L46.0195 49.5617H45.7313V49.7617ZM45.63 50.0415L45.8184 50.1087L45.63 50.0415ZM45.4618 50.4944L45.2763 50.4198L45.2015 50.6057L45.3875 50.6801L45.4618 50.4944ZM47.6283 51.3612L47.554 51.5469L47.7397 51.6212L47.814 51.4356L47.6283 51.3612ZM48.2175 49.7606V49.5606H48.0744L48.0282 49.696L48.2175 49.7606ZM55.3365 49.7606L55.5005 49.875L55.7198 49.5606H55.3365V49.7606ZM51.938 53.677L51.8696 53.865L51.9848 53.9069L52.0744 53.8233L51.938 53.677ZM50.3875 34.5951L50.1876 34.5998L50.1922 34.7951H50.3875V34.5951ZM59.7115 34.5951V34.7951H59.9213L59.9113 34.5855L59.7115 34.5951ZM49.4367 26.1857L49.6323 26.1441L49.5906 25.9484L49.395 25.9901L49.4367 26.1857ZM47.1535 26.6722L47.1118 26.4766L46.9162 26.5183L46.9579 26.7139L47.1535 26.6722ZM48.0542 34.5962V34.7962H48.2592L48.2541 34.5913L48.0542 34.5962ZM45.6812 34.5962L45.4824 34.6183L45.5022 34.7962H45.6812V34.5962ZM36.4167 25.3317H36.2167V25.5107L36.3946 25.5305L36.4167 25.3317ZM36.4167 24.0951V23.8951H36.2167V24.0951H36.4167ZM56.7773 24.0951L56.9531 23.9997L56.8964 23.8951H56.7773V24.0951ZM52.022 11.7832L51.8796 11.9236L51.8797 11.9237L52.022 11.7832ZM53.0545 12.1122L53.0197 11.9153L53.019 11.9154L53.0545 12.1122ZM53.912 11.4519L53.7303 11.3682L53.7302 11.3686L53.912 11.4519ZM61.9118 11.8124L61.7233 11.8792L61.7234 11.8794L61.9118 11.8124ZM36.4167 33.4284H36.2167V33.6284H36.4167V33.4284ZM38.75 33.4284V33.6284H38.95V33.4284H38.75ZM36.4167 30.1431H36.2167V30.2841L36.3495 30.3314L36.4167 30.1431ZM36.4167 28.7617H36.6167V28.5617H36.4167V28.7617ZM34.0833 28.7617V28.5617H33.8833V28.7617H34.0833ZM34.0833 30.1431L34.1505 30.3314L34.2833 30.2841V30.1431H34.0833ZM34.0833 38.0951H34.2833V37.8951H34.0833V38.0951ZM31.75 38.0951V37.8951H31.55V38.0951H31.75ZM34.0833 41.3804H34.2833V41.2394L34.1505 41.192L34.0833 41.3804ZM34.0833 42.7617H33.8833V42.9617H34.0833V42.7617ZM36.4167 42.7617V42.9617H36.6167V42.7617H36.4167ZM36.4167 41.3804L36.3495 41.192L36.2167 41.2394V41.3804H36.4167ZM62.0781 13.5938V13.3938H61.8781V13.5938H62.0781ZM62.0781 15.9271H61.8781V16.1271H62.0781V15.9271ZM65.64 17.1556V17.3556H65.84V17.1556H65.64ZM63.3066 17.1556H63.1066V17.3556H63.3066V17.1556ZM55.1504 64.0071H54.9504V64.2071H55.1504V64.0071ZM53.9219 62.7786H53.7219V62.9786H53.9219V62.7786ZM57.4837 64.0071V64.2071H57.6837V64.0071H57.4837ZM53.9219 60.4453V60.2453H53.7219V60.4453H53.9219ZM24.6875 8.87109V8.67109H24.4875V8.87109H24.6875ZM24.6875 11.2044H24.4875V11.4044H24.6875V11.2044ZM28.2493 12.4329V12.6329H28.4493V12.4329H28.2493ZM25.916 12.4329H25.716V12.6329H25.916V12.4329ZM57.839 6.79505C60.2952 6.79505 62.5237 8.1993 63.6091 10.361L63.9666 10.1815C62.8143 7.88647 60.4485 6.39505 57.839 6.39505V6.79505ZM52.7071 9.3415C53.9149 7.76128 55.8096 6.79505 57.839 6.79505V6.39505C55.6824 6.39505 53.6711 7.42149 52.3893 9.0986L52.7071 9.3415ZM48.9478 8.36422C50.2069 8.36422 51.4093 8.72187 52.4396 9.38801L52.6568 9.0521C51.5614 8.3439 50.2835 7.96422 48.9478 7.96422V8.36422ZM44.1318 10.5349C45.3163 9.20554 47.0339 8.36422 48.9478 8.36422V7.96422C46.9138 7.96422 45.0894 8.85889 43.8332 10.2688L44.1318 10.5349ZM32.4976 9.28831C36.4444 8.87718 40.279 9.33458 43.9172 10.5909L44.0478 10.2128C40.3546 8.93752 36.4613 8.47325 32.4561 8.89046L32.4976 9.28831ZM26.4393 4.63856C29.088 4.82509 31.3761 6.67706 32.2891 9.15845L32.6645 9.02032C31.7016 6.40338 29.2857 4.43802 26.4674 4.23955L26.4393 4.63856ZM20.5057 0.961719C22.9618 0.961719 25.1903 2.36596 26.2745 4.52868L26.6321 4.34942C25.481 2.05314 23.1152 0.561719 20.5057 0.561719V0.961719ZM15.3737 3.50817C16.5815 1.92794 18.4763 0.961719 20.5057 0.961719V0.561719C18.349 0.561719 16.3378 1.58816 15.0559 3.26527L15.3737 3.50817ZM11.6145 2.53089C12.8735 2.53089 14.0759 2.88854 15.1062 3.55467L15.3234 3.21877C14.2281 2.51057 12.9501 2.13089 11.6145 2.13089V2.53089ZM5.15633 8.98905C5.15633 5.42803 8.0546 2.53089 11.6145 2.53089V2.13089C7.83373 2.13089 4.75633 5.20707 4.75633 8.98905H5.15633ZM5.15633 9.65289V8.98905H4.75633V9.65289H5.15633ZM4.55383 9.85289H4.95633V9.45289H4.55383V9.85289ZM0.45 13.9579C0.45 11.6941 2.29133 9.85289 4.55383 9.85289V9.45289C2.07034 9.45289 0.05 11.4733 0.05 13.9579H0.45ZM4.55383 18.0617C2.29129 18.0617 0.45 16.2204 0.45 13.9579H0.05C0.05 16.4413 2.07038 18.4617 4.55383 18.4617V18.0617ZM14.9115 18.0617H4.55383V18.4617H14.9115V18.0617ZM8.61667 35.7617C8.61667 29.2891 10.8873 23.2176 15.0627 18.3926L14.7603 18.1308C10.5217 23.0288 8.21667 29.1933 8.21667 35.7617H8.61667ZM32.2831 62.2259C18.9898 60.7449 8.61667 49.4439 8.61667 35.7617H8.21667C8.21667 49.6502 18.7456 61.1202 32.2389 62.6235L32.2831 62.2259ZM29.6167 66.4579C29.6167 64.6865 30.7512 63.1862 32.3293 62.6127L32.1927 62.2367C30.4644 62.8649 29.2167 64.51 29.2167 66.4579H29.6167ZM33.7205 70.5617C31.458 70.5617 29.6167 68.7204 29.6167 66.4579H29.2167C29.2167 68.9413 31.237 70.9617 33.7205 70.9617V70.5617ZM55.3283 70.5617H33.7205V70.9617H55.3283V70.5617ZM61.8833 64.0067C61.8833 67.7474 59.0702 70.5617 55.3283 70.5617V70.9617C59.2911 70.9617 62.2833 67.9683 62.2833 64.0067H61.8833ZM55.6071 57.1374C59.0476 57.3795 61.8833 60.4259 61.8833 64.0067H62.2833C62.2833 60.2212 59.2904 56.9956 55.6352 56.7384L55.6071 57.1374ZM53.9053 55.0609C54.5313 55.6075 55.0606 56.2674 55.4424 57.0276L55.7999 56.8481C55.393 56.038 54.8304 55.3376 54.1684 54.7596L53.9053 55.0609ZM61.8833 35.7617C61.8833 42.9236 58.9896 49.7696 53.8967 54.7675L54.1769 55.053C59.346 49.9802 62.2833 43.0315 62.2833 35.7617H61.8833ZM59.2258 24.1821C60.9651 27.7812 61.8833 31.745 61.8833 35.7617H62.2833C62.2833 31.6841 61.3512 27.6609 59.5859 24.008L59.2258 24.1821ZM63.4962 23.8951H59.4058V24.2951H63.4962V23.8951ZM70.05 17.34C70.05 21.0808 67.2368 23.8951 63.4962 23.8951V24.2951C67.4578 24.2951 70.45 21.3016 70.45 17.34H70.05ZM63.7737 10.4707C67.2143 10.714 70.05 13.7593 70.05 17.34H70.45C70.45 13.5544 67.457 10.3301 63.8019 10.0717L63.7737 10.4707ZM36.4167 21.9617H38.0838V21.5617H36.4167V21.9617ZM36.2167 11.2874V21.7617H36.6167V11.2874H36.2167ZM42.8003 12.2486C40.7363 11.5817 38.6082 11.1876 36.4258 11.0876L36.4075 11.4872C38.5534 11.5855 40.6463 11.973 42.6773 12.6292L42.8003 12.2486ZM42.4897 14.8224C42.4897 14.0086 42.6479 13.2302 42.9254 12.5109L42.5522 12.3669C42.2581 13.1292 42.0897 13.9562 42.0897 14.8224H42.4897ZM42.4897 15.4862V14.8224H42.0897V15.4862H42.4897ZM41.8872 15.6862H42.2897V15.2862H41.8872V15.6862ZM37.7833 19.7912C37.7833 17.5275 39.6247 15.6862 41.8872 15.6862V15.2862C39.4037 15.2862 37.3833 17.3066 37.3833 19.7912H37.7833ZM38.2612 21.6694C37.9647 21.0998 37.7833 20.4674 37.7833 19.7912H37.3833C37.3833 20.5407 37.5846 21.236 37.9064 21.8541L38.2612 21.6694ZM4.55383 11.7862C3.35713 11.7862 2.38333 12.7602 2.38333 13.9579H2.78333C2.78333 12.9809 3.5782 12.1862 4.55383 12.1862V11.7862ZM6.123 11.7862H4.55383V12.1862H6.123V11.7862ZM7.08967 10.8196C7.08967 11.3532 6.65758 11.7862 6.123 11.7862V12.1862C6.87875 12.1862 7.48967 11.5739 7.48967 10.8196H7.08967ZM7.08967 8.98905V10.8196H7.48967V8.98905H7.08967ZM11.6145 4.46422C9.11938 4.46422 7.08967 6.49393 7.08967 8.98905H7.48967C7.48967 6.71484 9.34029 4.86422 11.6145 4.86422V4.46422ZM14.8311 5.80947C13.9756 4.9418 12.8323 4.46422 11.6145 4.46422V4.86422C12.7254 4.86422 13.766 5.29897 14.5462 6.0903L14.8311 5.80947ZM15.6858 6.08203C15.3746 6.13793 15.0535 6.03478 14.831 5.80938L14.5463 6.09039C14.8605 6.40866 15.3141 6.55518 15.7565 6.47574L15.6858 6.08203ZM16.3968 5.53528C16.2658 5.82143 15.9991 6.02674 15.6864 6.08193L15.7559 6.47584C16.1969 6.39803 16.5742 6.10867 16.7605 5.70182L16.3968 5.53528ZM20.5057 2.89505C18.7471 2.89505 17.1353 3.93143 16.397 5.53491L16.7603 5.7022C17.4337 4.23968 18.9042 3.29505 20.5057 3.29505V2.89505ZM24.767 5.91226C24.1275 4.1072 22.4153 2.89505 20.5057 2.89505V3.29505C22.2453 3.29505 23.8068 4.3999 24.39 6.04584L24.767 5.91226ZM25.6775 6.55605C25.269 6.55605 24.9044 6.29816 24.7669 5.91199L24.3901 6.04611C24.584 6.59095 25.099 6.95605 25.6775 6.95605V6.55605ZM25.996 6.55605H25.6775V6.95605H25.996V6.55605ZM30.7833 11.5067C30.7833 8.82811 28.6004 6.55605 25.996 6.55605V6.95605C28.3663 6.95605 30.3833 9.03566 30.3833 11.5067H30.7833ZM26.1628 16.1284C28.7933 16.1284 30.7833 14.1383 30.7833 11.5067H30.3833C30.3833 13.9175 28.5723 15.7284 26.1628 15.7284V16.1284ZM4.55383 16.1284H26.1628V15.7284H4.55383V16.1284ZM2.38333 13.9579C2.38333 15.1545 3.35721 16.1284 4.55383 16.1284V15.7284C3.57812 15.7284 2.78333 14.9336 2.78333 13.9579H2.38333ZM32.7167 11.5067C32.7167 15.2475 29.9035 18.0617 26.1628 18.0617V18.4617C30.1245 18.4617 33.1167 15.4683 33.1167 11.5067H32.7167ZM32.714 11.4505C32.7156 11.4745 32.7167 11.491 32.7167 11.5067H33.1167C33.1167 11.4755 33.1146 11.4457 33.1131 11.4238L32.714 11.4505ZM32.7109 11.3924C32.7115 11.4136 32.7129 11.4342 32.714 11.4505L33.1131 11.4238C33.112 11.4063 33.1111 11.3931 33.1107 11.3807L32.7109 11.3924ZM34.0738 11.1028C33.6813 11.1216 33.2871 11.1486 32.8913 11.1875L32.9304 11.5856C33.3185 11.5475 33.706 11.5209 34.0929 11.5023L34.0738 11.1028ZM34.2833 21.7617V11.3026H33.8833V21.7617H34.2833ZM24.7687 21.9617H34.0833V21.5617H24.7687V21.9617ZM24.75 21.9617H24.7687V21.5617H24.75V21.9617ZM22.25 21.9617H24.75V21.5617H22.25V21.9617ZM22.1449 21.9617L22.25 21.9617L22.25 21.5617L22.1449 21.5617L22.1449 21.9617ZM22.1809 21.5617L22.145 21.5617L22.1448 21.9617L22.1808 21.9617L22.1809 21.5617ZM22.184 21.5617H22.1809V21.9617H22.184V21.5617ZM22.2827 21.9629C22.4627 21.9627 22.5576 21.9625 22.5958 21.9623C22.6052 21.9623 22.6119 21.9623 22.6156 21.9622C22.6164 21.9622 22.618 21.9622 22.6196 21.9622C22.6199 21.9622 22.6224 21.9621 22.6255 21.9619C22.6265 21.9619 22.6287 21.9618 22.63 21.9617C22.6321 21.9615 22.6378 21.9609 22.6414 21.9605C22.6495 21.9593 22.6892 21.9481 22.7188 21.9334C22.8151 21.772 22.6996 21.5808 22.6604 21.5673C22.6514 21.5655 22.6385 21.5635 22.6346 21.5631C22.6325 21.5629 22.6289 21.5627 22.6275 21.5626C22.625 21.5624 22.6229 21.5623 22.6222 21.5623C22.6205 21.5623 22.6191 21.5622 22.6185 21.5622C22.6172 21.5622 22.6159 21.5622 22.615 21.5622C22.6083 21.5621 22.5909 21.562 22.568 21.562C22.4746 21.5618 22.2698 21.5618 22.184 21.5617L22.1839 21.9617C22.2698 21.9618 22.4743 21.9618 22.5673 21.962C22.591 21.9621 22.6063 21.9621 22.6111 21.9621C22.6117 21.9622 22.6115 21.9622 22.6109 21.9621C22.6108 21.9621 22.6097 21.9621 22.6081 21.9621C22.6075 21.962 22.6056 21.962 22.6031 21.9618C22.6017 21.9617 22.5982 21.9615 22.5961 21.9613C22.5922 21.9609 22.5793 21.9589 22.5703 21.9571C22.5312 21.9436 22.4156 21.7524 22.5119 21.5911C22.5415 21.5763 22.5812 21.5651 22.5893 21.5639C22.5929 21.5635 22.5986 21.5629 22.6006 21.5627C22.6019 21.5627 22.6041 21.5625 22.605 21.5625C22.608 21.5623 22.6103 21.5623 22.6103 21.5623C22.6112 21.5623 22.6117 21.5623 22.6111 21.5623C22.6091 21.5623 22.6039 21.5623 22.5943 21.5623C22.5567 21.5625 22.4624 21.5627 22.2823 21.5629L22.2827 21.9629ZM15.1402 21.9629H22.2825V21.5629H15.1402V21.9629ZM18.0011 18.1198C16.8781 19.217 15.8583 20.3906 14.9764 21.648L15.3039 21.8777C16.1697 20.6431 17.1729 19.4881 18.2806 18.4059L18.0011 18.1198ZM26.1628 18.0629H18.1408V18.4629H26.1628V18.0629ZM25.9628 18.2617V18.2629H26.3628V18.2617H25.9628ZM48.0588 36.7284H45.6812V37.1284H48.0588V36.7284ZM46.6981 47.484C47.6379 44.2365 48.1662 40.6575 48.2588 36.9333L47.8589 36.9234C47.7671 40.6169 47.2431 44.1616 46.3139 47.3728L46.6981 47.484ZM36.4167 47.6284H46.506V47.2284H36.4167V47.6284ZM36.2167 46.1929V47.4284H36.6167V46.1929H36.2167ZM45.4824 36.9063C44.9526 41.6713 41.1608 45.4643 36.3946 45.9941L36.4388 46.3917C41.3909 45.8412 45.3294 41.9014 45.8799 36.9505L45.4824 36.9063ZM56.9543 47.5237C58.7102 44.2859 59.7395 40.6738 59.9183 36.9379L59.5187 36.9188C59.3429 40.5936 58.3304 44.1472 56.6027 47.333L56.9543 47.5237ZM48.928 47.6284H56.7785V47.2284H48.928V47.6284ZM50.1922 36.9236C50.1051 40.5922 49.6124 44.1299 48.7349 47.3762L49.1211 47.4806C50.0076 44.2006 50.5043 40.6309 50.5921 36.9331L50.1922 36.9236ZM59.7185 36.7284H50.3922V37.1284H59.7185V36.7284ZM24.6175 49.8317C25.69 52.7048 27.0748 55.1518 28.6749 56.9702C30.2744 58.7882 32.0983 59.9878 34.0476 60.3418L34.1191 59.9483C32.2849 59.6151 30.5358 58.4797 28.9752 56.706C27.415 54.9329 26.0523 52.5318 24.9922 49.6918L24.6175 49.8317ZM34.0833 49.5617H24.8048V49.9617H34.0833V49.5617ZM34.2833 60.1451V49.7617H33.8833V60.1451H34.2833ZM22.2494 36.9336C22.3478 40.7108 22.9032 44.3015 23.8323 47.4844L24.2163 47.3723C23.2975 44.225 22.7469 40.6687 22.6493 36.9232L22.2494 36.9336ZM24.82 36.7284H22.4493V37.1284H24.82V36.7284ZM34.1066 45.9941C29.3404 45.4643 25.5486 41.6713 25.0188 36.9063L24.6212 36.9505C25.1717 41.9014 29.1103 45.8412 34.0624 46.3917L34.1066 45.9941ZM34.2845 47.4284V46.1929H33.8845V47.4284H34.2845ZM24.0243 47.6284H34.0845V47.2284H24.0243V47.6284ZM20.0997 36.7284H10.8095V37.1284H20.0997V36.7284ZM21.7338 47.3769C20.8899 44.2094 20.3868 40.6785 20.2996 36.9237L19.8997 36.933C19.9876 40.7172 20.4947 44.2797 21.3472 47.4799L21.7338 47.3769ZM13.711 47.6284H21.5405V47.2284H13.711V47.6284ZM10.6097 36.9379C10.7908 40.7511 11.8092 44.3505 13.5353 47.5239L13.8867 47.3328C12.1898 44.2132 11.1875 40.6727 11.0093 36.9189L10.6097 36.9379ZM13.5295 23.9994C11.7716 27.227 10.7837 30.8232 10.6086 34.5857L11.0081 34.6044C11.1806 30.9002 12.1528 27.3634 13.8808 24.1907L13.5295 23.9994ZM21.572 23.8951H13.7052V24.2951H21.572V23.8951ZM20.3078 34.5998C20.3949 30.9312 20.8876 27.3936 21.7651 24.1472L21.3789 24.0429C20.4924 27.3229 19.9957 30.8926 19.9079 34.5903L20.3078 34.5998ZM10.8083 34.7951H20.1078V34.3951H10.8083V34.7951ZM26.8833 35.7617C26.8833 40.3755 30.6374 44.1284 35.25 44.1284V43.7284C30.8583 43.7284 27.2833 40.1546 27.2833 35.7617H26.8833ZM35.25 27.3951C30.6374 27.3951 26.8833 31.1479 26.8833 35.7617H27.2833C27.2833 31.3689 30.8583 27.7951 35.25 27.7951V27.3951ZM43.6167 35.7617C43.6167 31.1479 39.8626 27.3951 35.25 27.3951V27.7951C39.6417 27.7951 43.2167 31.3689 43.2167 35.7617H43.6167ZM35.25 44.1284C39.8626 44.1284 43.6167 40.3755 43.6167 35.7617H43.2167C43.2167 40.1546 39.6417 43.7284 35.25 43.7284V44.1284ZM25.0176 34.6172C25.5474 29.8521 29.3392 26.0592 34.1054 25.5293L34.0612 25.1318C29.1091 25.6823 25.1706 29.622 24.6201 34.5729L25.0176 34.6172ZM22.4412 34.7951H24.8188V34.3951H22.4412V34.7951ZM23.8019 24.0395C22.8621 27.2869 22.3338 30.8659 22.2412 34.5901L22.6411 34.6C22.7329 30.9065 23.2569 27.3619 24.1861 24.1506L23.8019 24.0395ZM34.0833 23.8951H23.994V24.2951H34.0833V23.8951ZM34.2833 25.3306V24.0951H33.8833V25.3306H34.2833ZM22.244 49.5617H15.1728V49.9617H22.244V49.5617ZM27.7196 58.8733C25.5501 56.6635 23.7296 53.514 22.4334 49.6974L22.0546 49.826C23.3648 53.6837 25.2122 56.8903 27.4341 59.1535L27.7196 58.8733ZM15.009 49.8764C18.035 54.202 22.4055 57.513 27.514 59.2033L27.6397 58.8235C22.6145 57.1608 18.3143 53.9034 15.3367 49.6471L15.009 49.8764ZM55.1638 59.056H54.8453V59.4561H55.1638V59.056ZM59.95 64.0067C59.95 61.3281 57.7671 59.056 55.1638 59.056V59.4561C57.5329 59.4561 59.55 61.5356 59.55 64.0067H59.95ZM55.3295 68.6284C57.96 68.6284 59.95 66.6383 59.95 64.0067H59.55C59.55 66.4175 57.739 68.2284 55.3295 68.2284V68.6284ZM33.7205 68.6284H55.3295V68.2284H33.7205V68.6284ZM31.55 66.4579C31.55 67.6545 32.5239 68.6284 33.7205 68.6284V68.2284C32.7448 68.2284 31.95 67.4336 31.95 66.4579H31.55ZM33.7205 64.2862C32.5237 64.2862 31.55 65.2614 31.55 66.4579H31.95C31.95 65.482 32.7449 64.6862 33.7205 64.6862V64.2862ZM35.2897 64.2862H33.7205V64.6862H35.2897V64.2862ZM36.2563 63.3195C36.2563 63.8532 35.8242 64.2862 35.2897 64.2862V64.6862C36.0454 64.6862 36.6563 64.0739 36.6563 63.3195H36.2563ZM36.2563 61.489V63.3195H36.6563V61.489H36.2563ZM40.7812 56.9642C38.286 56.9642 36.2563 58.9939 36.2563 61.489H36.6563C36.6563 59.2148 38.507 57.3642 40.7812 57.3642V56.9642ZM43.9977 58.3095C43.1423 57.4418 41.999 56.9642 40.7812 56.9642V57.3642C41.892 57.3642 42.9327 57.799 43.7129 58.5903L43.9977 58.3095ZM44.8531 58.5819C44.541 58.637 44.2198 58.5344 43.9977 58.3094L43.713 58.5904C44.0275 58.909 44.481 59.0538 44.9226 58.9758L44.8531 58.5819ZM45.5635 58.0353C45.4325 58.3214 45.1658 58.5267 44.8531 58.5819L44.9226 58.9758C45.3635 58.898 45.7409 58.6087 45.9272 58.2018L45.5635 58.0353ZM49.6723 55.3951C47.9138 55.3951 46.3019 56.4314 45.5637 58.0349L45.927 58.2022C46.6004 56.7397 48.0709 55.7951 49.6723 55.7951V55.3951ZM53.9337 58.4123C53.2942 56.6072 51.582 55.3951 49.6723 55.3951V55.7951C51.412 55.7951 52.9735 56.8999 53.5566 58.5458L53.9337 58.4123ZM54.8453 59.056C54.4355 59.056 54.071 58.798 53.9336 58.412L53.5567 58.5461C53.7507 59.0911 54.2658 59.4561 54.8453 59.4561V59.056ZM44.5404 56.0082C45.7482 54.4279 47.643 53.4617 49.6723 53.4617V53.0617C47.5157 53.0617 45.5045 54.0882 44.2226 55.7653L44.5404 56.0082ZM40.7812 55.0309C42.0402 55.0309 43.2426 55.3885 44.2729 56.0547L44.4901 55.7188C43.3947 55.0106 42.1168 54.6309 40.7812 54.6309V55.0309ZM36.5481 56.6243C37.6837 55.6347 39.1613 55.0309 40.7812 55.0309V54.6309C39.0597 54.6309 37.4899 55.2731 36.2853 56.3228L36.5481 56.6243ZM36.2167 49.7617V56.4735H36.6167V49.7617H36.2167ZM45.7313 49.5617H36.4167V49.9617H45.7313V49.5617ZM45.8184 50.1087C45.8518 50.0149 45.8847 49.9227 45.9187 49.8316L45.544 49.6918C45.5088 49.786 45.4749 49.881 45.4417 49.9743L45.8184 50.1087ZM45.6474 50.569C45.7085 50.4171 45.7642 50.2607 45.8184 50.1087L45.4417 49.9743C45.3869 50.1277 45.3339 50.2765 45.2763 50.4198L45.6474 50.569ZM47.7026 51.1755L45.5361 50.3087L45.3875 50.6801L47.554 51.5469L47.7026 51.1755ZM48.0282 49.696C47.8436 50.2372 47.6499 50.7693 47.4427 51.2869L47.814 51.4356C48.0244 50.9101 48.2204 50.3713 48.4068 49.8251L48.0282 49.696ZM55.3365 49.5606H48.2175V49.9606H55.3365V49.5606ZM52.0744 53.8233C53.3623 52.6225 54.5079 51.2981 55.5005 49.875L55.1725 49.6461C54.1958 51.0463 53.0687 52.3493 51.8016 53.5308L52.0744 53.8233ZM49.6723 53.4617C50.4357 53.4617 51.1732 53.6117 51.8696 53.865L52.0064 53.4891C51.2724 53.2221 50.4886 53.0617 49.6723 53.0617V53.4617ZM50.3875 34.7951H59.7115V34.3951H50.3875V34.7951ZM49.2411 26.2274C49.811 28.9043 50.119 31.7186 50.1876 34.5998L50.5874 34.5903C50.5183 31.6871 50.208 28.8478 49.6323 26.1441L49.2411 26.2274ZM47.1952 26.8678L49.4783 26.3813L49.395 25.9901L47.1118 26.4766L47.1952 26.8678ZM48.2541 34.5913C48.1862 31.8515 47.8921 29.1768 47.3491 26.6305L46.9579 26.7139C47.4952 29.2334 47.7868 31.8833 47.8542 34.6012L48.2541 34.5913ZM45.6812 34.7962H48.0542V34.3962H45.6812V34.7962ZM36.3946 25.5305C41.1608 26.0603 44.9526 29.8533 45.4824 34.6183L45.8799 34.5741C45.3294 29.6232 41.3909 25.6834 36.4388 25.1329L36.3946 25.5305ZM36.2167 24.0951V25.3317H36.6167V24.0951H36.2167ZM41.8872 23.8951H36.4167V24.2951H41.8872V23.8951ZM42.25 23.8951H41.8872V24.2951H42.25V23.8951ZM56.7773 23.8951H42.25V24.2951H56.7773V23.8951ZM59.9113 34.5855C59.7337 30.8793 58.721 27.2578 56.9531 23.9997L56.6015 24.1904C58.3407 27.3957 59.337 30.9585 59.5117 34.6046L59.9113 34.5855ZM42.25 21.9617H63.4962V21.5617H42.25V21.9617ZM41.8872 21.9617H42.25V21.5617H41.8872V21.9617ZM39.7167 19.7912C39.7167 20.9878 40.6905 21.9617 41.8872 21.9617V21.5617C40.9115 21.5617 40.1167 20.7669 40.1167 19.7912H39.7167ZM41.8872 17.6196C40.6904 17.6196 39.7167 18.5948 39.7167 19.7912H40.1167C40.1167 18.8154 40.9116 18.0196 41.8872 18.0196V17.6196ZM43.4563 17.6196H41.8872V18.0196H43.4563V17.6196ZM44.423 16.6529C44.423 17.1866 43.9909 17.6196 43.4563 17.6196V18.0196C44.2121 18.0196 44.823 17.4072 44.823 16.6529H44.423ZM44.423 14.8224V16.6529H44.823V14.8224H44.423ZM48.9478 10.2976C46.4527 10.2976 44.423 12.3273 44.423 14.8224H44.823C44.823 12.5482 46.6736 10.6976 48.9478 10.6976V10.2976ZM52.1644 11.6428C51.309 10.7751 50.1656 10.2976 48.9478 10.2976V10.6976C50.0587 10.6976 51.0994 11.1323 51.8796 11.9236L52.1644 11.6428ZM53.019 11.9154C52.7088 11.9713 52.3879 11.8692 52.1643 11.6427L51.8797 11.9237C52.1951 12.2433 52.6488 12.3885 53.09 12.3091L53.019 11.9154ZM53.7302 11.3686C53.5991 11.6548 53.3325 11.8601 53.0197 11.9153L53.0893 12.3092C53.5302 12.2314 53.9075 11.942 54.0938 11.5352L53.7302 11.3686ZM57.839 8.72838C56.0804 8.72838 54.4686 9.76476 53.7303 11.3682L54.0937 11.5355C54.767 10.073 56.2376 9.12838 57.839 9.12838V8.72838ZM62.1003 11.7456C61.4608 9.94054 59.7487 8.72838 57.839 8.72838V9.12838C59.5787 9.12838 61.1402 10.2332 61.7233 11.8792L62.1003 11.7456ZM63.0108 12.3894C62.6023 12.3894 62.2377 12.1315 62.1003 11.7453L61.7234 11.8794C61.9173 12.4243 62.4323 12.7894 63.0108 12.7894V12.3894ZM63.3293 12.3894H63.0108V12.7894H63.3293V12.3894ZM68.1167 17.34C68.1167 14.6614 65.9337 12.3894 63.3293 12.3894V12.7894C65.6996 12.7894 67.7167 14.869 67.7167 17.34H68.1167ZM63.4962 21.9617C66.1266 21.9617 68.1167 19.9716 68.1167 17.34H67.7167C67.7167 19.7508 65.9057 21.5617 63.4962 21.5617V21.9617ZM36.6167 33.4284C36.6167 32.6752 36.0046 32.0617 35.25 32.0617V32.4617C35.7834 32.4617 36.2167 32.8959 36.2167 33.4284H36.6167ZM38.75 33.2284H36.4167V33.6284H38.75V33.2284ZM36.3495 30.3314C37.6284 30.7875 38.55 31.9982 38.55 33.4284H38.95C38.95 31.8206 37.9139 30.4646 36.4838 29.9547L36.3495 30.3314ZM36.2167 28.7617V30.1431H36.6167V28.7617H36.2167ZM34.0833 28.9617H36.4167V28.5617H34.0833V28.9617ZM34.2833 30.1431V28.7617H33.8833V30.1431H34.2833ZM31.95 33.4284C31.95 31.9982 32.8716 30.7875 34.1505 30.3314L34.0162 29.9547C32.5861 30.4646 31.55 31.8206 31.55 33.4284H31.95ZM35.25 36.7284C33.4308 36.7284 31.95 35.2476 31.95 33.4284H31.55C31.55 35.4685 33.2099 37.1284 35.25 37.1284V36.7284ZM36.6167 38.0951C36.6167 37.3419 36.0046 36.7284 35.25 36.7284V37.1284C35.7834 37.1284 36.2167 37.5625 36.2167 38.0951H36.6167ZM35.25 39.4617C36.0046 39.4617 36.6167 38.8482 36.6167 38.0951H36.2167C36.2167 38.6276 35.7834 39.0617 35.25 39.0617V39.4617ZM33.8833 38.0951C33.8833 38.8482 34.4954 39.4617 35.25 39.4617V39.0617C34.7166 39.0617 34.2833 38.6276 34.2833 38.0951H33.8833ZM31.75 38.2951H34.0833V37.8951H31.75V38.2951ZM34.1505 41.192C32.8716 40.736 31.95 39.5252 31.95 38.0951H31.55C31.55 39.7029 32.5861 41.0588 34.0162 41.5688L34.1505 41.192ZM34.2833 42.7617V41.3804H33.8833V42.7617H34.2833ZM36.4167 42.5617H34.0833V42.9617H36.4167V42.5617ZM36.2167 41.3804V42.7617H36.6167V41.3804H36.2167ZM38.55 38.0951C38.55 39.5252 37.6284 40.736 36.3495 41.192L36.4838 41.5688C37.9139 41.0588 38.95 39.7029 38.95 38.0951H38.55ZM35.25 34.7951C37.0692 34.7951 38.55 36.2758 38.55 38.0951H38.95C38.95 36.0549 37.2901 34.3951 35.25 34.3951V34.7951ZM33.8833 33.4284C33.8833 34.1815 34.4954 34.7951 35.25 34.7951V34.3951C34.7166 34.3951 34.2833 33.9609 34.2833 33.4284H33.8833ZM35.25 32.0617C34.4954 32.0617 33.8833 32.6752 33.8833 33.4284H34.2833C34.2833 32.8959 34.7166 32.4617 35.25 32.4617V32.0617ZM61.8781 13.5938V15.9271H62.2781V13.5938H61.8781ZM65.84 17.1556C65.84 15.0817 64.1533 13.3938 62.0781 13.3938V13.7937C63.9323 13.7937 65.44 15.3025 65.44 17.1556H65.84ZM63.3066 17.3556H65.64V16.9556H63.3066V17.3556ZM62.0781 16.1271C62.6445 16.1271 63.1066 16.5883 63.1066 17.1556H63.5066C63.5066 16.3672 62.8651 15.7271 62.0781 15.7271V16.1271ZM55.3504 64.0071C55.3504 63.2187 54.7089 62.5786 53.9219 62.5786V62.9786C54.4882 62.9786 54.9504 63.4399 54.9504 64.0071H55.3504ZM57.4837 63.8071H55.1504V64.2071H57.4837V63.8071ZM53.9219 60.6453C55.776 60.6453 57.2837 62.1541 57.2837 64.0071H57.6837C57.6837 61.9332 55.997 60.2453 53.9219 60.2453V60.6453ZM54.1219 62.7786V60.4453H53.7219V62.7786H54.1219ZM24.4875 8.87109V11.2044H24.8875V8.87109H24.4875ZM28.4493 12.4329C28.4493 10.359 26.7627 8.67109 24.6875 8.67109V9.07109C26.5417 9.07109 28.0493 10.5798 28.0493 12.4329H28.4493ZM25.916 12.6329H28.2493V12.2329H25.916V12.6329ZM24.6875 11.4044C25.2538 11.4044 25.716 11.8657 25.716 12.4329H26.116C26.116 11.6445 25.4745 11.0044 24.6875 11.0044V11.4044Z" fill="white" mask="url(#path-1-inside-1_1821_36491)"/>
</svg>
