<svg width="71" height="71" viewBox="0 0 71 71" fill="none" xmlns="http://www.w3.org/2000/svg">
<path d="M25.4062 59.8242C23.5969 59.8242 22.125 61.2963 22.125 63.1055C22.125 64.9147 23.5969 66.3867 25.4062 66.3867C27.2156 66.3867 28.6875 64.9147 28.6875 63.1055C28.6875 61.2963 27.2156 59.8242 25.4062 59.8242ZM25.4062 64.1992C24.8032 64.1992 24.3125 63.7085 24.3125 63.1055C24.3125 62.5024 24.8032 62.0117 25.4062 62.0117C26.0093 62.0117 26.5 62.5024 26.5 63.1055C26.5 63.7085 26.0093 64.1992 25.4062 64.1992Z" fill="#408CD9"/>
<path d="M59.3098 62.9965C59.2519 61.2376 57.8041 59.8242 56.0312 59.8242C54.2219 59.8242 52.75 61.2963 52.75 63.1055C52.75 64.9147 54.2219 66.3867 56.0312 66.3867C57.8041 66.3867 59.2519 64.9733 59.3098 63.2144C59.317 63.1405 59.317 63.0706 59.3098 62.9965ZM56.0312 64.1992C55.4282 64.1992 54.9375 63.7085 54.9375 63.1055C54.9375 62.5024 55.4282 62.0117 56.0312 62.0117C56.6343 62.0117 57.125 62.5024 57.125 63.1055C57.125 63.7085 56.6343 64.1992 56.0312 64.1992Z" fill="#408CD9"/>
<path d="M66.7806 55.4492C67.0494 54.6915 66.9688 56.1216 66.9688 34.668C66.9688 32.8588 65.4967 31.3867 63.6875 31.3867C62.7281 31.3867 56.7143 31.3867 55.8431 31.3867C56.1119 30.629 56.0312 32.0591 56.0312 10.6055C56.0312 8.79627 54.5592 7.32422 52.75 7.32422C47.1667 7.32422 40.7667 7.32422 35.25 7.32422C33.4408 7.32422 31.9688 8.79627 31.9688 10.6055C31.9688 32.0621 31.8886 30.6305 32.1569 31.3867C31.2819 31.3867 25.2824 31.3867 24.3125 31.3867C22.5033 31.3867 21.0312 32.8588 21.0312 34.668C21.0312 56.1246 20.9511 54.693 21.2194 55.4492H17.75V7.32422C17.75 3.70555 14.806 0.761719 11.1875 0.761719H3.53125C1.72191 0.761719 0.25 2.23377 0.25 4.04297C0.25 5.85217 1.72191 7.32422 3.53125 7.32422H10.3672C10.8196 7.32422 11.1875 7.69213 11.1875 8.14453V60.918C11.1875 62.7272 12.6594 64.1992 14.4688 64.1992H17.8294C18.362 67.9046 21.5561 70.7617 25.4062 70.7617C29.2564 70.7617 32.4507 67.9046 32.9831 64.1992H48.4543C48.9868 67.9046 52.181 70.7617 56.0311 70.7617C59.8812 70.7617 63.0755 67.9046 63.6079 64.1992H66.9688C68.7781 64.1992 70.25 62.7272 70.25 60.918V58.7305C70.25 57.0682 68.9878 55.4492 66.7806 55.4492ZM64.7812 34.668V54.3555C64.7812 54.9585 64.2906 55.4492 63.6875 55.4492H46.1875C45.5844 55.4492 45.0938 54.9585 45.0938 54.3555V34.668C45.0938 34.0649 45.5844 33.5742 46.1875 33.5742H50.5625V39.043C50.5625 39.647 51.0522 40.1367 51.6562 40.1367H58.2188C58.8228 40.1367 59.3125 39.647 59.3125 39.043V33.5742H63.6875C64.2906 33.5742 64.7812 34.0649 64.7812 34.668ZM48.4544 62.0117H32.9831C32.7383 60.309 31.9317 58.7861 30.7571 57.6367H50.6802C49.5058 58.7861 48.699 60.309 48.4544 62.0117ZM57.125 37.9492H52.75V33.5742H57.125V37.9492ZM46.1875 9.51172V13.8867H41.8125V9.51172H46.1875ZM34.1562 30.293V10.6055C34.1562 10.0024 34.6469 9.51172 35.25 9.51172H39.625V14.9805C39.625 15.5845 40.1147 16.0742 40.7188 16.0742H47.2812C47.8853 16.0742 48.375 15.5845 48.375 14.9805V9.51172H52.75C53.3531 9.51172 53.8438 10.0024 53.8438 10.6055V30.293C53.8438 30.896 53.3531 31.3867 52.75 31.3867C44.1306 31.3867 40.3264 31.3867 35.25 31.3867C34.6469 31.3867 34.1562 30.896 34.1562 30.293ZM35.25 33.5742V37.9492H30.875V33.5742H35.25ZM23.2188 54.3555V34.668C23.2188 34.0649 23.7094 33.5742 24.3125 33.5742H28.6875V39.043C28.6875 39.647 29.1772 40.1367 29.7812 40.1367H36.3438C36.9478 40.1367 37.4375 39.647 37.4375 39.043V33.5742H41.8125C42.4156 33.5742 42.9062 34.0649 42.9062 34.668V54.3555C42.9062 54.9585 42.4156 55.4492 41.8125 55.4492H24.3125C23.7094 55.4492 23.2188 54.9585 23.2188 54.3555ZM13.375 14.9805H15.5625V55.4492H13.375V14.9805ZM10.3672 5.13672H3.53125C2.92818 5.13672 2.4375 4.64604 2.4375 4.04297C2.4375 3.4399 2.92818 2.94922 3.53125 2.94922H11.1875C13.5999 2.94922 15.5625 4.91182 15.5625 7.32422V12.793H13.375V8.14453C13.375 6.486 12.0257 5.13672 10.3672 5.13672ZM13.375 60.918V57.6367H20.0554C18.8808 58.7861 18.0742 60.309 17.8294 62.0117H14.4688C13.8657 62.0117 13.375 61.521 13.375 60.918ZM25.4062 68.5742C22.3908 68.5742 19.9375 66.1209 19.9375 63.1055C19.9375 60.09 22.3908 57.6367 25.4062 57.6367C28.4217 57.6367 30.875 60.09 30.875 63.1055C30.875 66.1209 28.4217 68.5742 25.4062 68.5742ZM56.0312 68.5742C53.0158 68.5742 50.5625 66.1209 50.5625 63.1055C50.5625 60.09 53.0158 57.6367 56.0312 57.6367C59.0467 57.6367 61.5 60.09 61.5 63.1055C61.5 66.1209 59.0467 68.5742 56.0312 68.5742ZM68.0625 60.918C68.0625 61.521 67.5718 62.0117 66.9688 62.0117H63.6081C63.3633 60.309 62.5567 58.7861 61.3821 57.6367H66.9688C67.5718 57.6367 68.0625 58.1274 68.0625 58.7305V60.918Z" fill="#408CD9"/>
<path d="M37.4375 53.2617H39.625C40.229 53.2617 40.7188 52.772 40.7188 52.168C40.7188 51.5639 40.229 51.0742 39.625 51.0742H37.4375C36.8335 51.0742 36.3438 51.5639 36.3438 52.168C36.3438 52.772 36.8335 53.2617 37.4375 53.2617Z" fill="#408CD9"/>
<path d="M59.3125 51.0742C58.7085 51.0742 58.2188 51.5639 58.2188 52.168C58.2188 52.772 58.7085 53.2617 59.3125 53.2617H61.5C62.104 53.2617 62.5938 52.772 62.5938 52.168C62.5938 51.5639 62.104 51.0742 61.5 51.0742H59.3125Z" fill="#408CD9"/>
<path d="M48.375 29.1992H50.5625C51.1665 29.1992 51.6562 28.7095 51.6562 28.1055C51.6562 27.5014 51.1665 27.0117 50.5625 27.0117H48.375C47.771 27.0117 47.2812 27.5014 47.2812 28.1055C47.2812 28.7095 47.771 29.1992 48.375 29.1992Z" fill="#408CD9"/>
</svg>
