<svg width="71" height="71" viewBox="0 0 71 71" fill="none" xmlns="http://www.w3.org/2000/svg">
<path d="M69.1562 34.668H62.5938V9.51172C62.5938 8.85547 62.1562 8.41797 61.5 8.41797H36.3438V1.85547C36.3438 1.19922 35.9062 0.761719 35.25 0.761719H1.34375C0.6875 0.761719 0.25 1.19922 0.25 1.85547V35.7617C0.25 36.418 0.6875 36.8555 1.34375 36.8555H7.90625V62.0117C7.90625 62.668 8.34375 63.1055 9 63.1055H34.1562V69.668C34.1562 70.3242 34.5938 70.7617 35.25 70.7617H69.1562C69.8125 70.7617 70.25 70.3242 70.25 69.668V35.7617C70.25 35.1055 69.8125 34.668 69.1562 34.668ZM34.1562 60.918H10.0938V36.8555H26.5V43.418C26.5 44.0742 26.9375 44.5117 27.5938 44.5117H34.1562V60.918ZM10.0938 34.668V29.1992H26.5V34.668H10.0938ZM34.1562 42.3242H28.6875V36.8555H34.1562V42.3242ZM34.1562 34.668H28.6875V29.1992H34.1562V34.668ZM34.1562 27.0117H28.6875V10.6055H34.1562V27.0117ZM34.1562 8.41797H27.5938C26.9375 8.41797 26.5 8.85547 26.5 9.51172V27.0117H9C8.34375 27.0117 7.90625 27.4492 7.90625 28.1055V34.668H2.4375V2.94922H34.1562V8.41797ZM36.3438 10.6055H60.4062V34.668H44V28.1055C44 27.4492 43.5625 27.0117 42.9062 27.0117H36.3438V10.6055ZM60.4062 36.8555V42.3242H44V36.8555H60.4062ZM36.3438 29.1992H41.8125V34.668H36.3438V29.1992ZM36.3438 36.8555H41.8125V42.3242H36.3438V36.8555ZM36.3438 44.5117H41.8125V60.918H36.3438V44.5117ZM68.0625 68.5742H36.3438V63.1055H42.9062C43.5625 63.1055 44 62.668 44 62.0117V44.5117H61.5C62.1562 44.5117 62.5938 44.0742 62.5938 43.418V36.8555H68.0625V68.5742Z" fill="#408CD9"/>
<path d="M9 7.32422H6.8125V9.51172H9V7.32422Z" fill="#408CD9"/>
<path d="M13.375 7.32422H11.1875V9.51172H13.375V7.32422Z" fill="#408CD9"/>
<path d="M17.75 7.32422H15.5625V9.51172H17.75V7.32422Z" fill="#408CD9"/>
<path d="M9 11.6992H6.8125V13.8867H9V11.6992Z" fill="#408CD9"/>
<path d="M13.375 11.6992H11.1875V13.8867H13.375V11.6992Z" fill="#408CD9"/>
<path d="M17.75 11.6992H15.5625V13.8867H17.75V11.6992Z" fill="#408CD9"/>
<path d="M9 16.0742H6.8125V18.2617H9V16.0742Z" fill="#408CD9"/>
<path d="M13.375 16.0742H11.1875V18.2617H13.375V16.0742Z" fill="#408CD9"/>
<path d="M17.75 16.0742H15.5625V18.2617H17.75V16.0742Z" fill="#408CD9"/>
<path d="M54.9375 53.2617H52.75V55.4492H54.9375V53.2617Z" fill="#408CD9"/>
<path d="M59.3125 53.2617H57.125V55.4492H59.3125V53.2617Z" fill="#408CD9"/>
<path d="M63.6875 53.2617H61.5V55.4492H63.6875V53.2617Z" fill="#408CD9"/>
<path d="M54.9375 57.6367H52.75V59.8242H54.9375V57.6367Z" fill="#408CD9"/>
<path d="M59.3125 57.6367H57.125V59.8242H59.3125V57.6367Z" fill="#408CD9"/>
<path d="M63.6875 57.6367H61.5V59.8242H63.6875V57.6367Z" fill="#408CD9"/>
<path d="M54.9375 62.0117H52.75V64.1992H54.9375V62.0117Z" fill="#408CD9"/>
<path d="M59.3125 62.0117H57.125V64.1992H59.3125V62.0117Z" fill="#408CD9"/>
<path d="M63.6875 62.0117H61.5V64.1992H63.6875V62.0117Z" fill="#408CD9"/>
<path d="M47.2812 14.9805H45.0938V17.168H47.2812V14.9805Z" fill="#408CD9"/>
<path d="M51.6562 14.9805H49.4688V17.168H51.6562V14.9805Z" fill="#408CD9"/>
<path d="M56.0312 14.9805H53.8438V17.168H56.0312V14.9805Z" fill="#408CD9"/>
<path d="M47.2812 19.3555H45.0938V21.543H47.2812V19.3555Z" fill="#408CD9"/>
<path d="M51.6562 19.3555H49.4688V21.543H51.6562V19.3555Z" fill="#408CD9"/>
<path d="M56.0312 19.3555H53.8438V21.543H56.0312V19.3555Z" fill="#408CD9"/>
<path d="M65.875 0.761719H63.6875V2.94922H65.875V0.761719Z" fill="#408CD9"/>
<path d="M70.25 0.761719H68.0625V2.94922H70.25V0.761719Z" fill="#408CD9"/>
<path d="M70.25 5.13672H68.0625V7.32422H70.25V5.13672Z" fill="#408CD9"/>
<path d="M47.2812 23.7305H45.0938V25.918H47.2812V23.7305Z" fill="#408CD9"/>
<path d="M51.6562 23.7305H49.4688V25.918H51.6562V23.7305Z" fill="#408CD9"/>
<path d="M56.0312 23.7305H53.8438V25.918H56.0312V23.7305Z" fill="#408CD9"/>
<path d="M16.6562 45.6055H14.4688V47.793H16.6562V45.6055Z" fill="#408CD9"/>
<path d="M21.0312 45.6055H18.8438V47.793H21.0312V45.6055Z" fill="#408CD9"/>
<path d="M25.4062 45.6055H23.2188V47.793H25.4062V45.6055Z" fill="#408CD9"/>
<path d="M16.6562 49.9805H14.4688V52.168H16.6562V49.9805Z" fill="#408CD9"/>
<path d="M21.0312 49.9805H18.8438V52.168H21.0312V49.9805Z" fill="#408CD9"/>
<path d="M25.4062 49.9805H23.2188V52.168H25.4062V49.9805Z" fill="#408CD9"/>
<path d="M16.6562 54.3555H14.4688V56.543H16.6562V54.3555Z" fill="#408CD9"/>
<path d="M21.0312 54.3555H18.8438V56.543H21.0312V54.3555Z" fill="#408CD9"/>
<path d="M2.4375 64.1992H0.25V66.3867H2.4375V64.1992Z" fill="#408CD9"/>
<path d="M2.4375 68.5742H0.25V70.7617H2.4375V68.5742Z" fill="#408CD9"/>
<path d="M6.8125 68.5742H4.625V70.7617H6.8125V68.5742Z" fill="#408CD9"/>
<path d="M25.4062 54.3555H23.2188V56.543H25.4062V54.3555Z" fill="#408CD9"/>
</svg>
