<svg width="71" height="71" viewBox="0 0 71 71" fill="none" xmlns="http://www.w3.org/2000/svg">
<path d="M35.2443 14.7617C30.4187 14.7672 25.7923 16.6866 22.38 20.0988C18.9678 23.511 17.0484 28.1374 17.043 32.963V44.1638C17.0442 45.2775 17.4871 46.3451 18.2746 47.1326C19.062 47.92 20.1297 48.3629 21.2433 48.3641H24.0435C25.1571 48.3629 26.2247 47.92 27.0122 47.1326C27.7996 46.3451 28.2426 45.2775 28.2438 44.1638V35.7632C28.2426 34.6496 27.7996 33.582 27.0122 32.7945C26.2247 32.0071 25.1571 31.5641 24.0435 31.5629H19.9141C20.2615 27.7371 22.0269 24.1795 24.8635 21.5889C27.7 18.9983 31.4027 17.5619 35.2443 17.5619C39.0858 17.5619 42.7885 18.9983 45.6251 21.5889C48.4616 24.1795 50.227 27.7371 50.5745 31.5629H46.4451C45.3315 31.5641 44.2638 32.0071 43.4764 32.7945C42.6889 33.582 42.246 34.6496 42.2448 35.7632V44.1638C42.246 45.2775 42.6889 46.3451 43.4764 47.1326C44.2638 47.92 45.3315 48.3629 46.4451 48.3641H50.5189C50.1871 50.3195 49.1747 52.0947 47.6606 53.3757C46.1464 54.6568 44.2281 55.3613 42.2448 55.3646H35.2443C34.8729 55.3646 34.5168 55.5122 34.2543 55.7747C33.9917 56.0373 33.8442 56.3934 33.8442 56.7647C33.8442 57.1361 33.9917 57.4922 34.2543 57.7548C34.5168 58.0173 34.8729 58.1648 35.2443 58.1648H42.2448C45.2144 58.1614 48.0614 56.9803 50.1612 54.8805C52.261 52.7806 53.4422 49.9336 53.4456 46.964V32.963C53.4401 28.1374 51.5207 23.511 48.1085 20.0988C44.6963 16.6866 40.0699 14.7672 35.2443 14.7617ZM25.4436 35.7632V44.1638C25.4432 44.5351 25.2956 44.891 25.0331 45.1534C24.7706 45.4159 24.4147 45.5636 24.0435 45.5639H21.2433C20.8721 45.5636 20.5161 45.4159 20.2537 45.1534C19.9912 44.891 19.8435 44.5351 19.8432 44.1638V34.3631H24.0435C24.4147 34.3635 24.7706 34.5111 25.0331 34.7736C25.2956 35.0361 25.4432 35.392 25.4436 35.7632ZM45.045 44.1638V35.7632C45.0454 35.392 45.193 35.0361 45.4555 34.7736C45.718 34.5111 46.0739 34.3635 46.4451 34.3631H50.6454V45.5639H46.4451C46.0739 45.5636 45.718 45.4159 45.4555 45.1534C45.193 44.891 45.0454 44.5351 45.045 44.1638Z" fill="#408CD9"/>
<path d="M35.2486 0.76172C28.8758 0.760193 22.6236 2.49892 17.1666 5.7903C11.7096 9.08167 7.25498 13.8007 4.2834 19.4383C1.31181 25.0758 -0.0639074 31.4178 0.304686 37.7799C0.67328 44.142 2.77219 50.2826 6.37494 55.5393L3.10851 66.1548C3.03404 66.398 3.02716 66.6568 3.0886 66.9036C3.15004 67.1504 3.27749 67.3758 3.45728 67.5556C3.63707 67.7355 3.86242 67.863 4.10917 67.9246C4.35592 67.9861 4.61477 67.9793 4.85796 67.905L15.4742 64.6385C19.9975 67.7364 25.1851 69.7283 30.6193 70.4539C36.0534 71.1794 41.582 70.6182 46.7595 68.8156C51.937 67.013 56.6186 64.0193 60.4272 60.0758C64.2357 56.1323 67.0646 51.3492 68.6858 46.1121C70.3071 40.8749 70.6754 35.3302 69.7611 29.9246C68.8468 24.519 66.6754 19.4038 63.4219 14.9912C60.1685 10.5786 55.9239 6.992 51.0303 4.52039C46.1367 2.04878 40.7309 0.761304 35.2486 0.76172ZM35.2486 67.9666C28.5337 67.9795 21.9852 65.878 16.5318 61.9601C16.3565 61.8349 16.1546 61.7517 15.9419 61.7171C15.7292 61.6824 15.5114 61.6973 15.3053 61.7605L6.56226 64.4513L9.2524 55.7075C9.31578 55.5015 9.33073 55.2836 9.29611 55.0709C9.26148 54.8581 9.17821 54.6563 9.05277 54.481C7.10144 51.7612 5.58779 48.7528 4.5668 45.5649H12.847C13.2183 45.5649 13.5744 45.4174 13.837 45.1549C14.0996 44.8923 14.2471 44.5362 14.2471 44.1648C14.2471 43.7935 14.0996 43.4374 13.837 43.1748C13.5744 42.9123 13.2183 42.7647 12.847 42.7647H3.82376C3.41893 40.9227 3.17679 39.0487 3.10012 37.1643H11.4469C11.8182 37.1643 12.1743 37.0168 12.4369 36.7543C12.6995 36.4917 12.847 36.1356 12.847 35.7642C12.847 35.3929 12.6995 35.0368 12.4369 34.7742C12.1743 34.5116 11.8182 34.3641 11.4469 34.3641H3.08175C3.16331 32.4792 3.41092 30.6052 3.8217 28.7637H12.847C13.2183 28.7637 13.5744 28.6162 13.837 28.3537C14.0996 28.0911 14.2471 27.735 14.2471 27.3636C14.2471 26.9923 14.0996 26.6362 13.837 26.3736C13.5744 26.111 13.2183 25.9635 12.847 25.9635H4.57619C6.65357 19.4601 10.7443 13.7852 16.2576 9.75859C21.7709 5.73194 28.4214 3.56191 35.2486 3.56191C42.0758 3.56191 48.7263 5.73194 54.2396 9.75859C59.7529 13.7852 63.8436 19.4601 65.921 25.9635H57.6502C57.2789 25.9635 56.9228 26.111 56.6602 26.3736C56.3976 26.6362 56.2501 26.9923 56.2501 27.3636C56.2501 27.735 56.3976 28.0911 56.6602 28.3537C56.9228 28.6162 57.2789 28.7637 57.6502 28.7637H66.6755C67.0863 30.6052 67.3339 32.4792 67.4155 34.3641H59.0503C58.679 34.3641 58.3229 34.5116 58.0603 34.7742C57.7977 35.0368 57.6502 35.3929 57.6502 35.7642C57.6502 36.1356 57.7977 36.4917 58.0603 36.7543C58.3229 37.0168 58.679 37.1643 59.0503 37.1643H67.4155C67.3339 39.0493 67.0863 40.9233 66.6755 42.7647H57.6502C57.2789 42.7647 56.9228 42.9123 56.6602 43.1748C56.3976 43.4374 56.2501 43.7935 56.2501 44.1648C56.2501 44.5362 56.3976 44.8923 56.6602 45.1549C56.9228 45.4174 57.2789 45.5649 57.6502 45.5649H65.921C63.8359 52.0637 59.7432 57.7336 54.2316 61.759C48.72 65.7844 42.0737 67.9578 35.2486 67.9666Z" fill="#408CD9"/>
</svg>
