<svg width="71" height="71" viewBox="0 0 71 71" fill="none" xmlns="http://www.w3.org/2000/svg">
<path d="M56.9668 36.7871H60.0154C60.4924 39.1476 62.5825 40.9304 65.0815 40.9304C67.9314 40.9304 70.25 38.6118 70.25 35.7617C70.25 32.9117 67.9314 30.5931 65.0814 30.5931C62.5824 30.5931 60.4922 32.3759 60.0152 34.7363H56.9667C56.7229 29.5133 54.6284 24.7658 51.3243 21.1375L56.8155 15.6464C57.8964 16.4335 59.2254 16.8996 60.6619 16.8996C64.2735 16.8996 67.2116 13.9614 67.2116 10.3498C67.2116 6.73824 64.2735 3.80016 60.6619 3.80016C57.0504 3.80016 54.1123 6.73838 54.1123 10.3498C54.1123 11.7863 54.5782 13.1154 55.3654 14.1962L49.8743 19.6873C46.2459 16.3833 41.4985 14.2887 36.2754 14.045V10.9965C38.6358 10.5195 40.4187 8.42932 40.4187 5.93037C40.4187 3.08033 38.1 0.761719 35.25 0.761719C32.4 0.761719 30.0813 3.08033 30.0813 5.93037C30.0813 8.42932 31.8642 10.5195 34.2246 10.9965V14.0449C29.0015 14.2887 24.2541 16.3832 20.6257 19.6871L15.135 14.1965C15.9222 13.1155 16.3883 11.7863 16.3883 10.3498C16.3883 8.16887 15.3081 6.13791 13.4987 4.91701C13.029 4.60037 12.3917 4.72396 12.0752 5.19346C11.7584 5.66295 11.8822 6.3002 12.3515 6.61697C13.5951 7.45602 14.3374 8.8515 14.3374 10.3498C14.3374 12.8307 12.3188 14.8492 9.83795 14.8492C7.35705 14.8492 5.33867 12.8307 5.33867 10.3498C5.33867 8.34633 6.6833 6.56557 8.60857 6.01938C9.1534 5.86475 9.46977 5.29777 9.31514 4.75295C9.16051 4.20813 8.59326 3.89217 8.04885 4.04639C5.24557 4.84182 3.28789 7.43387 3.28789 10.3498C3.28789 13.9616 6.22625 16.9 9.83809 16.9C11.2747 16.9 12.6039 16.4339 13.6848 15.6467L19.1756 21.1373C15.8715 24.7657 13.777 29.5131 13.5332 34.7362H10.4848C10.0078 32.3757 7.9176 30.5929 5.41865 30.5929C2.56861 30.5931 0.25 32.9117 0.25 35.7617C0.25 38.6118 2.56861 40.9304 5.41865 40.9304C7.9176 40.9304 10.0078 39.1476 10.4848 36.7871H13.5333C13.7771 42.0102 15.8716 46.7576 19.1757 50.386L13.6845 55.877C12.6036 55.0899 11.2746 54.6238 9.83809 54.6238C6.22652 54.6238 3.28844 57.5621 3.28844 61.1736C3.28844 64.7852 6.22652 67.7233 9.83809 67.7233C13.4496 67.7233 16.3877 64.7851 16.3877 61.1736C16.3877 59.7371 15.9218 58.4081 15.1346 57.3272L20.6257 51.8362C24.2541 55.1401 29.0015 57.2348 34.2246 57.4784V60.5268C31.8642 61.0038 30.0813 63.094 30.0813 65.5929C30.0813 68.4431 32.4 70.7617 35.25 70.7617C38.1 70.7617 40.4187 68.4431 40.4187 65.5931C40.4187 63.0941 38.6358 61.004 36.2754 60.527V57.4785C41.4985 57.2348 46.2459 55.1402 49.8743 51.8363L55.365 57.3269C54.5778 58.408 54.1117 59.7371 54.1117 61.1736C54.1117 64.7853 57.0501 67.7238 60.6619 67.7238C64.2738 67.7238 67.2121 64.7855 67.2121 61.1736C67.2121 60.4646 67.0992 59.7664 66.8765 59.098C66.6972 58.5608 66.1163 58.2704 65.5796 58.4494C65.0422 58.6285 64.7519 59.2091 64.931 59.7464C65.0838 60.2051 65.1615 60.6854 65.1615 61.1735C65.1615 63.6544 63.1429 65.6729 60.6621 65.6729C58.1812 65.6729 56.1626 63.6545 56.1626 61.1735C56.1626 58.6925 58.1812 56.6741 60.6621 56.6741C61.2298 56.6741 61.7836 56.7785 62.3077 56.9846C62.8342 57.1917 63.4299 56.9323 63.6372 56.4053C63.8443 55.8782 63.585 55.2831 63.0579 55.0758C62.2938 54.7756 61.4878 54.6233 60.6622 54.6233C59.2255 54.6233 57.8964 55.0894 56.8155 55.8766L51.3247 50.386C54.6284 46.7576 56.723 42.0102 56.9668 36.7871ZM65.0814 32.6438C66.8006 32.6438 68.1992 34.0425 68.1992 35.7617C68.1992 37.481 66.8006 38.8796 65.0814 38.8796C63.3621 38.8796 61.9635 37.481 61.9635 35.7617C61.9635 34.0425 63.3622 32.6438 65.0814 32.6438ZM60.6619 5.85094C63.1427 5.85094 65.1608 7.86918 65.1608 10.3498C65.1608 12.8306 63.1425 14.8488 60.6619 14.8488C58.1813 14.8488 56.163 12.8306 56.163 10.3498C56.163 7.86904 58.1813 5.85094 60.6619 5.85094ZM32.1321 5.93037C32.1321 4.21113 33.5309 2.8125 35.25 2.8125C36.9691 2.8125 38.3679 4.21113 38.3679 5.93037C38.3679 7.64961 36.9691 9.04824 35.25 9.04824C33.5309 9.04824 32.1321 7.64947 32.1321 5.93037ZM5.41865 38.8796C3.69941 38.8796 2.30078 37.481 2.30078 35.7617C2.30078 34.0425 3.69941 32.6438 5.41865 32.6438C7.13789 32.6438 8.53639 34.0425 8.53639 35.7617C8.53639 37.481 7.13775 38.8796 5.41865 38.8796ZM35.25 16.0709C46.1075 16.0709 54.9408 24.9042 54.9408 35.7617C54.9408 46.6192 46.1075 55.4525 35.25 55.4525C24.3925 55.4525 15.5592 46.6194 15.5592 35.7617C15.5592 24.9041 24.3925 16.0709 35.25 16.0709ZM9.83809 65.6725C7.35732 65.6725 5.33922 63.6543 5.33922 61.1736C5.33922 58.6929 7.35746 56.6746 9.83809 56.6746C12.3187 56.6746 14.337 58.6929 14.337 61.1736C14.337 63.6544 12.3187 65.6725 9.83809 65.6725ZM38.3679 65.5931C38.3679 67.3123 36.9691 68.7109 35.25 68.7109C33.5309 68.7109 32.1321 67.3123 32.1321 65.5931C32.1321 63.8738 33.5309 62.4752 35.25 62.4752C36.9691 62.4752 38.3679 63.874 38.3679 65.5931Z" fill="#408CD9"/>
<path d="M23.6501 48.3879H29.4408C29.444 48.3879 29.447 48.3883 29.4501 48.3883C29.4533 48.3883 29.4563 48.3879 29.4594 48.3879H32.8581C33.4246 48.3879 33.8835 47.9288 33.8835 47.3625C33.8835 46.7963 33.4246 46.3372 32.8581 46.3372H30.4755V44.6008C30.4755 44.0345 30.0166 43.5754 29.4501 43.5754C28.8837 43.5754 28.4247 44.0345 28.4247 44.6008V46.3372H24.6755V41.2868C24.6755 38.8059 26.6933 36.7873 29.1734 36.7873H41.3277C43.8079 36.7873 45.8256 38.8059 45.8256 41.2868V46.3372H42.0764V44.6008C42.0764 44.0345 41.6174 43.5754 41.051 43.5754C40.4846 43.5754 40.0256 44.0345 40.0256 44.6008V46.3372H37.6433C37.0769 46.3372 36.6179 46.7963 36.6179 47.3625C36.6179 47.9288 37.0769 48.3879 37.6433 48.3879H41.042C41.0451 48.3879 41.0481 48.3883 41.0513 48.3883C41.0544 48.3883 41.0574 48.3879 41.0606 48.3879H46.8513C47.4177 48.3879 47.8767 47.9288 47.8767 47.3625V41.2868C47.8767 37.6749 44.939 34.7366 41.328 34.7366H40.5667C42.1715 33.2843 43.1816 31.1863 43.1816 28.8566C43.1816 24.4835 39.6239 20.9258 35.2508 20.9258C30.8778 20.9258 27.3201 24.4835 27.3201 28.8566C27.3201 31.1863 28.3301 33.2843 29.9349 34.7366H29.1737C25.5627 34.7366 22.625 37.6749 22.625 41.2868V47.3625C22.6247 47.9288 23.0838 48.3879 23.6501 48.3879ZM29.3707 28.8566C29.3707 25.6144 32.0084 22.9766 35.2507 22.9766C38.493 22.9766 41.1307 25.6143 41.1307 28.8566C41.1307 32.0989 38.493 34.7366 35.2507 34.7366C32.0084 34.7366 29.3707 32.0989 29.3707 28.8566Z" fill="#408CD9"/>
</svg>
