<svg width="56" height="71" viewBox="0 0 56 71" fill="none" xmlns="http://www.w3.org/2000/svg">
<path d="M12.8231 30.7024L19.2148 23.0128C19.5769 22.5772 19.5172 21.9308 19.0817 21.5688C18.6463 21.2069 17.9997 21.2665 17.6376 21.702L12.1588 28.2933L10.9612 26.3481C10.6644 25.8659 10.0329 25.7154 9.55045 26.0124C9.06824 26.3094 8.91799 26.941 9.2148 27.4231L11.1611 30.5845C11.5292 31.1819 12.3749 31.2417 12.8231 30.7024Z" fill="#408CD9"/>
<path d="M9.21491 40.9584L11.1612 44.1198C11.529 44.7173 12.3748 44.777 12.8229 44.2376L19.2147 36.548C19.5767 36.1125 19.5171 35.466 19.0815 35.104C18.6462 34.7421 17.9995 34.8016 17.6375 35.2372L12.1586 41.8285L10.9611 39.8833C10.6643 39.4011 10.0328 39.2506 9.55028 39.5476C9.06821 39.8447 8.91795 40.4764 9.21491 40.9584Z" fill="#408CD9"/>
<path d="M9.21491 54.5795L11.1612 57.7409C11.529 58.3383 12.3748 58.3981 12.8229 57.8587L19.2147 50.1691C19.5767 49.7335 19.5171 49.0871 19.0815 48.7251C18.6462 48.3632 17.9995 48.4227 17.6375 48.8583L12.1586 55.4496L10.9611 53.5044C10.6643 53.0222 10.0328 52.8718 9.55028 53.1687C9.06821 53.4658 8.91795 54.0975 9.21491 54.5795Z" fill="#408CD9"/>
<path d="M54.5684 58.6498C54.0021 58.6498 53.543 59.1088 53.543 59.6752V67.1394C53.543 68.0063 52.8376 68.7117 51.9707 68.7117H4.5293C3.66236 68.7117 2.95703 68.0063 2.95703 67.1394V22.2012C2.95703 21.6347 2.49793 21.1758 1.93164 21.1758C1.36535 21.1758 0.90625 21.6347 0.90625 22.2012V67.1394C0.90625 69.1371 2.53156 70.7624 4.5293 70.7624H51.9707C53.9684 70.7624 55.5938 69.1371 55.5938 67.1394V59.6752C55.5938 59.1089 55.1346 58.6498 54.5684 58.6498Z" fill="#408CD9"/>
<path d="M51.9707 8.66283H46.9548V4.42578C46.9548 2.40549 45.3111 0.761719 43.2907 0.761719C41.2703 0.761719 39.6266 2.40535 39.6266 4.42578V8.66283H31.9141V4.42578C31.9141 2.40535 30.2703 0.761719 28.25 0.761719C26.2297 0.761719 24.5859 2.40535 24.5859 4.42578V8.66283H16.8732V4.42578C16.8732 2.40549 15.2296 0.761719 13.2092 0.761719C11.1889 0.761719 9.5451 2.40535 9.5451 4.42578V8.66283H4.5293C2.53156 8.66283 0.90625 10.2881 0.90625 12.2859V17.4153C0.90625 17.9817 1.36535 18.4407 1.93164 18.4407C2.49793 18.4407 2.95703 17.9817 2.95703 17.4153V12.2859C2.95703 11.4189 3.66236 10.7136 4.5293 10.7136H9.5451V12.3418C9.5451 14.3621 11.1887 16.0059 13.2092 16.0059C15.2296 16.0059 16.8732 14.3622 16.8732 12.3418V10.7136H24.5859V12.3418C24.5859 14.3621 26.2296 16.0059 28.25 16.0059C30.2704 16.0059 31.9141 14.3622 31.9141 12.3418V10.7136H39.6268V12.3418C39.6268 14.3621 41.2704 16.0059 43.2908 16.0059C45.3111 16.0059 46.9549 14.3622 46.9549 12.3418V10.7136H51.9707C52.8376 10.7136 53.543 11.4189 53.543 12.2859V54.8894C53.543 55.4558 54.0021 55.9147 54.5684 55.9147C55.1346 55.9147 55.5938 55.4558 55.5938 54.8894V12.2859C55.5938 10.2881 53.9684 8.66283 51.9707 8.66283ZM14.8226 12.3418C14.8226 13.2314 14.0989 13.9551 13.2093 13.9551C12.3198 13.9551 11.596 13.2314 11.596 12.3418C11.596 10.1561 11.596 5.10992 11.596 4.42578C11.596 3.53615 12.3197 2.8125 13.2093 2.8125C14.0989 2.8125 14.8226 3.53615 14.8226 4.42578V12.3418ZM29.8633 12.3418C29.8633 13.2314 29.1396 13.9551 28.25 13.9551C27.3604 13.9551 26.6367 13.2314 26.6367 12.3418C26.6367 10.1561 26.6367 5.10992 26.6367 4.42578C26.6367 3.53615 27.3604 2.8125 28.25 2.8125C29.1396 2.8125 29.8633 3.53615 29.8633 4.42578V12.3418ZM44.9041 12.3418C44.9041 13.2314 44.1805 13.9551 43.2908 13.9551C42.4012 13.9551 41.6776 13.2314 41.6776 12.3418C41.6776 10.1561 41.6776 5.10992 41.6776 4.42578C41.6776 3.53615 42.4012 2.8125 43.2908 2.8125C44.1803 2.8125 44.9041 3.53615 44.9041 4.42578V12.3418Z" fill="#408CD9"/>
<path d="M23.5645 31.5508H45.166C46.9376 31.5508 48.3789 30.1095 48.3789 28.3379C48.3789 26.5663 46.9376 25.125 45.166 25.125H23.5645C21.7929 25.125 20.3516 26.5663 20.3516 28.3379C20.3516 30.1095 21.7929 31.5508 23.5645 31.5508ZM23.5645 27.1758H45.166C45.8068 27.1758 46.3281 27.6971 46.3281 28.3379C46.3281 28.9787 45.8068 29.5 45.166 29.5H23.5645C22.9237 29.5 22.4023 28.9787 22.4023 28.3379C22.4023 27.6971 22.9237 27.1758 23.5645 27.1758Z" fill="#408CD9"/>
<path d="M23.5645 45.1133H45.166C46.9376 45.1133 48.3789 43.672 48.3789 41.9004C48.3789 40.1288 46.9376 38.6875 45.166 38.6875H23.5645C21.7929 38.6875 20.3516 40.1288 20.3516 41.9004C20.3516 43.672 21.7929 45.1133 23.5645 45.1133ZM23.5645 40.7383H45.166C45.8068 40.7383 46.3281 41.2596 46.3281 41.9004C46.3281 42.5412 45.8068 43.0625 45.166 43.0625H23.5645C22.9237 43.0625 22.4023 42.5412 22.4023 41.9004C22.4023 41.2596 22.9237 40.7383 23.5645 40.7383Z" fill="#408CD9"/>
<path d="M23.5645 58.6758H45.166C46.9376 58.6758 48.3789 57.2345 48.3789 55.4629C48.3789 53.6913 46.9376 52.25 45.166 52.25H23.5645C21.7929 52.25 20.3516 53.6913 20.3516 55.4629C20.3516 57.2345 21.7929 58.6758 23.5645 58.6758ZM23.5645 54.3008H45.166C45.8068 54.3008 46.3281 54.8221 46.3281 55.4629C46.3281 56.1037 45.8068 56.625 45.166 56.625H23.5645C22.9237 56.625 22.4023 56.1037 22.4023 55.4629C22.4023 54.8221 22.9237 54.3008 23.5645 54.3008Z" fill="#408CD9"/>
</svg>
