<svg width="71" height="71" viewBox="0 0 71 71" fill="none" xmlns="http://www.w3.org/2000/svg">
<path d="M48.1055 18.7617H22.3965C20.0898 18.7642 18.2213 20.6334 18.2188 22.9394V48.6485C18.2213 50.9545 20.0898 52.8237 22.3965 52.8262H48.1055C50.4115 52.8237 52.2807 50.9545 52.2832 48.6485V22.9394C52.2807 20.6334 50.4115 18.7642 48.1055 18.7617ZM50.355 48.6485C50.3532 49.89 49.347 50.8968 48.1055 50.898H22.3965C21.1543 50.8968 20.1482 49.89 20.1469 48.6485V22.9394C20.1482 21.6973 21.1543 20.6912 22.3965 20.6899H48.1055C49.347 20.6912 50.3538 21.6973 50.355 22.9394V48.6485Z" fill="#408CD9"/>
<path d="M51.3193 13.9336H19.183C15.9894 13.9374 13.4016 16.5246 13.3984 19.7181V51.8544C13.4016 55.0473 15.9894 57.6352 19.183 57.639H51.3193C54.5122 57.6352 57.1 55.0473 57.1038 51.8544V19.7181C57.1 16.5246 54.5122 13.9374 51.3193 13.9336ZM55.1756 51.8544C55.1731 53.9834 53.4477 55.7083 51.3193 55.7108H19.183C17.0539 55.7083 15.3291 53.9834 15.3266 51.8544V19.7181C15.3285 17.5891 17.0539 15.8643 19.183 15.8618H51.3193C53.4477 15.8643 55.1731 17.5891 55.1756 19.7181V51.8544Z" fill="#408CD9"/>
<path d="M38.7297 60.8008C38.1968 60.8008 37.7656 61.2326 37.7656 61.7649V69.7989C37.7656 70.3318 38.1968 70.763 38.7297 70.763C39.262 70.763 39.6938 70.3318 39.6938 69.7989V61.7649C39.6938 61.2326 39.262 60.8008 38.7297 60.8008Z" fill="#408CD9"/>
<path d="M31.7766 60.8008C31.2437 60.8008 30.8125 61.2326 30.8125 61.7649V69.7989C30.8125 70.3318 31.2437 70.763 31.7766 70.763C32.3088 70.763 32.7407 70.3318 32.7407 69.7989V61.7649C32.7407 61.2326 32.3088 60.8008 31.7766 60.8008Z" fill="#408CD9"/>
<path d="M24.8313 60.8008C24.299 60.8008 23.8672 61.2326 23.8672 61.7649V69.7989C23.8672 70.3318 24.299 70.763 24.8313 70.763C25.3635 70.763 25.7954 70.3318 25.7954 69.7989V61.7649C25.7954 61.2326 25.3635 60.8008 24.8313 60.8008Z" fill="#408CD9"/>
<path d="M45.6672 60.8008C45.1343 60.8008 44.7031 61.2326 44.7031 61.7649V69.7989C44.7031 70.3318 45.1343 70.763 45.6672 70.763C46.1995 70.763 46.6313 70.3318 46.6313 69.7989V61.7649C46.6313 61.2326 46.1995 60.8008 45.6672 60.8008Z" fill="#408CD9"/>
<path d="M32.7407 9.75988V1.72581C32.7407 1.19355 32.3088 0.761719 31.7766 0.761719C31.2437 0.761719 30.8125 1.19355 30.8125 1.72581V9.75988C30.8125 10.2921 31.2437 10.724 31.7766 10.724C32.3088 10.724 32.7407 10.2921 32.7407 9.75988Z" fill="#408CD9"/>
<path d="M39.6938 9.75988V1.72581C39.6938 1.19355 39.262 0.761719 38.7297 0.761719C38.1968 0.761719 37.7656 1.19355 37.7656 1.72581V9.75988C37.7656 10.2921 38.1968 10.724 38.7297 10.724C39.262 10.724 39.6938 10.2921 39.6938 9.75988Z" fill="#408CD9"/>
<path d="M46.6313 9.75988V1.72581C46.6313 1.19355 46.1995 0.761719 45.6672 0.761719C45.1343 0.761719 44.7031 1.19355 44.7031 1.72581V9.75988C44.7031 10.2921 45.1343 10.724 45.6672 10.724C46.1995 10.724 46.6313 10.2921 46.6313 9.75988Z" fill="#408CD9"/>
<path d="M25.7954 9.75988V1.72581C25.7954 1.19355 25.3635 0.761719 24.8313 0.761719C24.299 0.761719 23.8672 1.19355 23.8672 1.72581V9.75988C23.8672 10.2921 24.299 10.724 24.8313 10.724C25.3635 10.724 25.7954 10.2921 25.7954 9.75988Z" fill="#408CD9"/>
<path d="M69.2872 31.3242H61.2532C60.7209 31.3242 60.2891 31.7554 60.2891 32.2883C60.2891 32.8206 60.7209 33.2524 61.2532 33.2524H69.2872C69.8201 33.2524 70.2513 32.8206 70.2513 32.2883C70.2513 31.7554 69.8201 31.3242 69.2872 31.3242Z" fill="#408CD9"/>
<path d="M69.2872 38.2695H61.2532C60.7209 38.2695 60.2891 38.7007 60.2891 39.2336C60.2891 39.7659 60.7209 40.1977 61.2532 40.1977H69.2872C69.8201 40.1977 70.2513 39.7659 70.2513 39.2336C70.2513 38.7007 69.8201 38.2695 69.2872 38.2695Z" fill="#408CD9"/>
<path d="M69.2872 45.2148H61.2532C60.7209 45.2148 60.2891 45.646 60.2891 46.1789C60.2891 46.7112 60.7209 47.143 61.2532 47.143H69.2872C69.8201 47.143 70.2513 46.7112 70.2513 46.1789C70.2513 45.646 69.8201 45.2148 69.2872 45.2148Z" fill="#408CD9"/>
<path d="M69.2872 24.3789H61.2532C60.7209 24.3789 60.2891 24.8107 60.2891 25.343C60.2891 25.8753 60.7209 26.3071 61.2532 26.3071H69.2872C69.8201 26.3071 70.2513 25.8753 70.2513 25.343C70.2513 24.8107 69.8201 24.3789 69.2872 24.3789Z" fill="#408CD9"/>
<path d="M9.24816 38.2695H1.21409C0.681831 38.2695 0.25 38.7007 0.25 39.2336C0.25 39.7659 0.681831 40.1977 1.21409 40.1977H9.24816C9.78042 40.1977 10.2123 39.7659 10.2123 39.2336C10.2123 38.7007 9.78042 38.2695 9.24816 38.2695Z" fill="#408CD9"/>
<path d="M9.24816 31.3242H1.21409C0.681831 31.3242 0.25 31.7554 0.25 32.2883C0.25 32.8206 0.681831 33.2524 1.21409 33.2524H9.24816C9.78042 33.2524 10.2123 32.8206 10.2123 32.2883C10.2123 31.7554 9.78042 31.3242 9.24816 31.3242Z" fill="#408CD9"/>
<path d="M9.24816 24.3789H1.21409C0.681831 24.3789 0.25 24.8107 0.25 25.343C0.25 25.8753 0.681831 26.3071 1.21409 26.3071H9.24816C9.78042 26.3071 10.2123 25.8753 10.2123 25.343C10.2123 24.8107 9.78042 24.3789 9.24816 24.3789Z" fill="#408CD9"/>
<path d="M9.24816 45.2148H1.21409C0.681831 45.2148 0.25 45.646 0.25 46.1789C0.25 46.7112 0.681831 47.143 1.21409 47.143H9.24816C9.78042 47.143 10.2123 46.7112 10.2123 46.1789C10.2123 45.646 9.78042 45.2148 9.24816 45.2148Z" fill="#408CD9"/>
<path d="M34.3516 28.9255C34.2098 28.5012 33.68 28.2891 33.1497 28.2891C32.6193 28.2891 32.1065 28.5012 31.9653 28.9255L28.4478 40.3785C28.4334 40.4306 28.4278 40.4845 28.4303 40.5379C28.4303 40.9973 29.0843 41.3156 29.5971 41.3156C29.9153 41.3156 30.1626 41.2095 30.2511 40.9264L30.9754 38.417H35.3415L36.0658 40.9264C36.1543 41.2095 36.4016 41.3156 36.7022 41.3156C37.2326 41.3156 37.8866 40.9798 37.8866 40.5379C37.8835 40.4833 37.8716 40.4293 37.8508 40.3785L34.3516 28.9255ZM31.3822 36.9144L33.1497 30.8518L34.9172 36.9144H31.3822Z" fill="#408CD9"/>
<path d="M40.2183 28.3945C39.7589 28.3945 39.2812 28.5709 39.2812 28.9952V40.6961C39.2812 41.1028 39.7589 41.315 40.2183 41.315C40.6954 41.315 41.1548 41.1028 41.1548 40.6961V28.9958C41.1548 28.5709 40.6954 28.3945 40.2183 28.3945Z" fill="#408CD9"/>
</svg>
