<svg width="71" height="62" viewBox="0 0 71 62" fill="none" xmlns="http://www.w3.org/2000/svg">
<path d="M5.99219 5.68713C5.99219 6.25219 6.4502 6.7102 7.01525 6.7102C7.58031 6.7102 8.03832 6.25219 8.03832 5.68713C8.03832 5.12207 7.58031 4.66406 7.01525 4.66406C6.4502 4.66406 5.99219 5.12207 5.99219 5.68713Z" fill="#408CD9"/>
<path d="M11.1406 5.68713C11.1406 6.25219 11.5986 6.7102 12.1637 6.7102C12.7288 6.7102 13.1868 6.25219 13.1868 5.68713C13.1868 5.12207 12.7288 4.66406 12.1637 4.66406C11.5988 4.66406 11.1406 5.12207 11.1406 5.68713Z" fill="#408CD9"/>
<path d="M16.2891 5.68713C16.2891 6.25219 16.7471 6.7102 17.3121 6.7102C17.8772 6.7102 18.3352 6.25219 18.3352 5.68713C18.3352 5.12207 17.8772 4.66406 17.3121 4.66406C16.7471 4.66406 16.2891 5.12207 16.2891 5.68713Z" fill="#408CD9"/>
<path d="M46.2574 20.4446H47.6417C48.2068 20.4446 48.6648 19.9866 48.6648 19.4215C48.6648 18.8564 48.2068 18.3984 47.6417 18.3984H46.2574C45.6924 18.3984 45.2344 18.8564 45.2344 19.4215C45.2344 19.9866 45.6924 20.4446 46.2574 20.4446Z" fill="#408CD9"/>
<path d="M46.2574 24.5188H64.5612C65.1263 24.5188 65.5843 24.0608 65.5843 23.4957C65.5843 22.9307 65.1263 22.4727 64.5612 22.4727H46.2574C45.6924 22.4727 45.2344 22.9307 45.2344 23.4957C45.2344 24.0608 45.6924 24.5188 46.2574 24.5188Z" fill="#408CD9"/>
<path d="M46.2574 28.636H64.5612C65.1263 28.636 65.5843 28.178 65.5843 27.6129C65.5843 27.0478 65.1263 26.5898 64.5612 26.5898H46.2574C45.6924 26.5898 45.2344 27.0478 45.2344 27.6129C45.2344 28.1781 45.6924 28.636 46.2574 28.636Z" fill="#408CD9"/>
<path d="M46.2574 32.7571H64.5612C65.1263 32.7571 65.5843 32.2991 65.5843 31.734C65.5843 31.1689 65.1263 30.7109 64.5612 30.7109H46.2574C45.6924 30.7109 45.2344 31.1689 45.2344 31.734C45.2344 32.2992 45.6924 32.7571 46.2574 32.7571Z" fill="#408CD9"/>
<path d="M46.2574 36.8782H64.5612C65.1263 36.8782 65.5843 36.4202 65.5843 35.8551C65.5843 35.29 65.1263 34.832 64.5612 34.832H46.2574C45.6924 34.832 45.2344 35.29 45.2344 35.8551C45.2344 36.4202 45.6924 36.8782 46.2574 36.8782Z" fill="#408CD9"/>
<path d="M23.2424 23.5079C22.7245 23.2816 22.1216 23.5172 21.895 24.0348L19.1017 30.4167C18.8752 30.9342 19.1112 31.5375 19.6286 31.764C19.7622 31.8224 19.9012 31.85 20.0384 31.85C20.4324 31.85 20.808 31.621 20.9761 31.237L23.7694 24.8551C23.996 24.3378 23.76 23.7345 23.2424 23.5079Z" fill="#408CD9"/>
<path d="M28.36 24.188C28.0476 23.7172 27.4128 23.5889 26.9419 23.901C26.4711 24.2134 26.3427 24.8483 26.6551 25.3192L28.163 27.592L26.6448 29.9735C26.3412 30.4498 26.4812 31.0823 26.9575 31.3861C27.128 31.4948 27.3183 31.5466 27.5064 31.5466C27.8443 31.5466 28.175 31.3792 28.3701 31.0733L30.2459 28.1307C30.4634 27.7895 30.4593 27.3523 30.2356 27.0152L28.36 24.188Z" fill="#408CD9"/>
<path d="M15.9175 23.9009C15.4468 23.5889 14.8119 23.7172 14.4995 24.1879L12.6237 27.0151C12.4 27.3523 12.3961 27.7895 12.6134 28.1306L14.4892 31.0732C14.6843 31.3793 15.015 31.5465 15.3529 31.5465C15.541 31.5465 15.7314 31.4947 15.9018 31.386C16.3783 31.0824 16.5183 30.4499 16.2145 29.9734L14.6963 27.5919L16.2042 25.3191C16.5168 24.8483 16.3884 24.2133 15.9175 23.9009Z" fill="#408CD9"/>
<path d="M66.496 0.761719H57.8123C57.2472 0.761719 56.7892 1.21973 56.7892 1.78479C56.7892 2.34984 57.2472 2.80785 57.8123 2.80785H66.496C67.4377 2.80785 68.204 3.57402 68.204 4.51588V8.55045H2.29613V4.51588C2.29613 3.57416 3.0623 2.80785 4.00416 2.80785H53.101C53.666 2.80785 54.124 2.34984 54.124 1.78479C54.124 1.21973 53.666 0.761719 53.101 0.761719H4.00416C1.9341 0.761719 0.25 2.44582 0.25 4.51588V45.7317C0.25 47.8017 1.9341 49.4857 4.00416 49.4857H29.5002C29.4207 49.9829 29.3197 50.6076 29.2035 51.309C29.1111 51.8662 29.4881 52.3932 30.0455 52.4854C30.6025 52.5779 31.1297 52.2009 31.222 51.6432C31.3654 50.778 31.4865 50.0242 31.5721 49.4857H38.9273C39.241 51.4637 40.032 56.3227 40.6921 59.282H29.8076C29.982 58.5 30.1773 57.5321 30.3917 56.3875C30.4957 55.8322 30.1299 55.2976 29.5745 55.1936C29.019 55.0901 28.4846 55.4555 28.3806 56.0109C28.1256 57.372 27.9007 58.467 27.7089 59.2821H26.4072C25.8421 59.2821 25.3841 59.7401 25.3841 60.3052C25.3841 60.8703 25.8421 61.3283 26.4072 61.3283H44.0931C44.6582 61.3283 45.1162 60.8703 45.1162 60.3052C45.1162 59.7401 44.6582 59.2821 44.0931 59.2821H42.791C42.1693 56.6425 41.3594 51.7336 40.9997 49.4858H66.496C68.566 49.4858 70.25 47.8019 70.25 45.7318V4.51588C70.25 2.44582 68.5659 0.761719 66.496 0.761719ZM2.29613 15.7004H40.5673V39.5795H2.29613V15.7004ZM68.2039 45.7315C68.2039 46.6732 67.4377 47.4396 66.4958 47.4396H4.00416C3.06244 47.4396 2.29613 46.6734 2.29613 45.7315V41.6256H68.204V45.7315H68.2039ZM68.2039 39.5795H42.6134V15.7004H68.204V39.5795H68.2039ZM68.2039 13.6543H41.5903H2.29613V10.5966H68.204V13.6543H68.2039Z" fill="#408CD9"/>
</svg>
