<svg width="71" height="71" viewBox="0 0 71 71" fill="none" xmlns="http://www.w3.org/2000/svg">
<path d="M61.9578 18.2747C61.1066 18.274 60.2604 18.4042 59.4489 18.6608C59.5259 18.0492 59.5648 17.4332 59.5655 16.8168C59.4141 7.79966 51.9815 0.612587 42.9642 0.76407C36.3842 0.874584 30.5136 4.92425 28.0734 11.0362C23.3542 8.10991 17.1564 9.56351 14.2302 14.2827C13.2776 15.8189 12.7568 17.5837 12.7227 19.391C11.4522 18.6575 10.0106 18.2723 8.54355 18.2747C4.03433 18.2747 0.378906 21.9302 0.378906 26.4394C0.378906 30.9486 4.03433 34.604 8.54355 34.604C9.18768 34.604 9.70992 34.0818 9.70992 33.4376C9.70992 32.7935 9.18768 32.2713 8.54355 32.2713C5.32303 32.2189 2.75482 29.5659 2.80716 26.3453C2.8595 23.1248 5.51257 20.5566 8.73308 20.609C10.6935 20.6409 12.5066 21.6556 13.559 23.3098C13.9118 23.8489 14.6347 23.9998 15.1737 23.6471C15.6395 23.3422 15.8249 22.7507 15.6165 22.2344C15.2492 21.3486 15.0575 20.3999 15.0519 19.441C15.0987 15.214 18.5581 11.8226 22.785 11.8595C24.6684 11.867 26.4853 12.5564 27.8996 13.8004C28.3851 14.2238 29.1219 14.1733 29.5452 13.6878C29.6599 13.5563 29.7436 13.4006 29.7903 13.2323C31.9245 5.80603 39.6747 1.51595 47.1009 3.65012C52.9972 5.34458 57.1019 10.6828 57.2246 16.8166C57.2197 18.0393 57.0489 19.2557 56.7173 20.4324C56.5448 21.0531 56.908 21.696 57.5286 21.8685C57.8644 21.9618 58.2244 21.9001 58.51 21.7002C59.5189 20.9888 60.7233 20.6071 61.9578 20.6073C65.1786 20.6073 67.7897 23.2184 67.7897 26.4392C67.7897 29.66 65.1786 32.2711 61.9578 32.2711C61.3137 32.2711 60.7914 32.7934 60.7914 33.4375C60.7914 34.0816 61.3137 34.6039 61.9578 34.6039C66.467 34.6039 70.1224 30.9485 70.1224 26.4392C70.1224 21.9302 66.467 18.2747 61.9578 18.2747Z" fill="#408CD9"/>
<path d="M55.0739 45.1055H15.4171C13.4846 45.1055 11.918 46.6721 11.918 48.6046V53.2701C11.918 55.2027 13.4846 56.7692 15.4171 56.7692H55.0739C57.0065 56.7692 58.5731 55.2027 58.5731 53.2701V48.6046C58.5731 46.6721 57.0065 45.1055 55.0739 45.1055ZM56.2403 53.2701C56.2403 53.9142 55.7181 54.4365 55.0739 54.4365H15.4171C14.773 54.4365 14.2507 53.9142 14.2507 53.2701V48.6046C14.2507 47.9605 14.773 47.4382 15.4171 47.4382H55.0739C55.7181 47.4382 56.2403 47.9605 56.2403 48.6046V53.2701Z" fill="#408CD9"/>
<path d="M51.8441 48.6758C50.6012 48.6836 49.5977 49.6932 49.5977 50.9361C49.6035 52.1876 50.6206 53.1985 51.8721 53.1966C53.1206 53.1888 54.1263 52.1706 54.1185 50.9221C54.1108 49.6738 53.0926 48.6681 51.8441 48.6758ZM51.8721 51.0097C51.8371 51.0097 51.8138 50.9713 51.8138 50.9363L51.8721 50.8639V51.0097Z" fill="#408CD9"/>
<path d="M39.6752 49.7695H17.514C16.8699 49.7695 16.3477 50.2918 16.3477 50.9359C16.3477 51.58 16.8699 52.1023 17.514 52.1023H39.6752C40.3193 52.1023 40.8416 51.58 40.8416 50.9359C40.8416 50.2918 40.3195 49.7695 39.6752 49.7695Z" fill="#408CD9"/>
<path d="M46.8822 49.7695H43.7797C43.1355 49.7695 42.6133 50.2918 42.6133 50.9359C42.6133 51.58 43.1355 52.1023 43.7797 52.1023H46.8822C47.5264 52.1023 48.0486 51.58 48.0486 50.9359C48.0486 50.2918 47.5265 49.7695 46.8822 49.7695Z" fill="#408CD9"/>
<path d="M55.0739 59.1055H15.4171C13.4846 59.1055 11.918 60.6721 11.918 62.6046V67.2701C11.918 69.2027 13.4846 70.7692 15.4171 70.7692H55.0739C57.0065 70.7692 58.5731 69.2027 58.5731 67.2701V62.6046C58.5731 60.6721 57.0065 59.1055 55.0739 59.1055ZM56.2403 67.2701C56.2403 67.9142 55.7181 68.4365 55.0739 68.4365H15.4171C14.773 68.4365 14.2507 67.9142 14.2507 67.2701V62.6046C14.2507 61.9605 14.773 61.4382 15.4171 61.4382H55.0739C55.7181 61.4382 56.2403 61.9605 56.2403 62.6046V67.2701Z" fill="#408CD9"/>
<path d="M51.8441 62.668C50.6012 62.6757 49.5977 63.6854 49.5977 64.9283C49.6035 66.1798 50.6206 67.1906 51.8721 67.1887C53.1206 67.181 54.1263 66.1628 54.1185 64.9143C54.1108 63.666 53.0926 62.6603 51.8441 62.668ZM51.8721 65.0019C51.8371 65.0019 51.8138 64.9634 51.8138 64.9285L51.8721 64.8561V65.0019Z" fill="#408CD9"/>
<path d="M39.6752 63.7617H17.514C16.8699 63.7617 16.3477 64.284 16.3477 64.9281C16.3477 65.5722 16.8699 66.0945 17.514 66.0945H39.6752C40.3193 66.0945 40.8416 65.5722 40.8416 64.9281C40.8416 64.284 40.3195 63.7617 39.6752 63.7617Z" fill="#408CD9"/>
<path d="M46.8822 63.7617H43.7797C43.1355 63.7617 42.6133 64.284 42.6133 64.9281C42.6133 65.5722 43.1355 66.0945 43.7797 66.0945H46.8822C47.5264 66.0945 48.0486 65.5722 48.0486 64.9281C48.0486 64.284 47.5265 63.7617 46.8822 63.7617Z" fill="#408CD9"/>
<path d="M55.0817 31.1055H15.4249C13.4924 31.1055 11.9258 32.6721 11.9258 34.6046V39.2701C11.9258 41.2026 13.4924 42.7692 15.4249 42.7692H55.0817C57.0143 42.7692 58.5809 41.2026 58.5809 39.2701V34.6046C58.5809 32.6721 57.0143 31.1055 55.0817 31.1055ZM56.2481 39.2701C56.2481 39.9142 55.7259 40.4365 55.0817 40.4365H15.4249C14.7808 40.4365 14.2585 39.9142 14.2585 39.2701V34.6046C14.2585 33.9605 14.7808 33.4382 15.4249 33.4382H55.0817C55.7259 33.4382 56.2481 33.9605 56.2481 34.6046V39.2701Z" fill="#408CD9"/>
<path d="M53.7536 36.6158C53.5288 35.3767 52.3421 34.5544 51.103 34.7792C50.5159 34.8856 49.9939 35.2181 49.6491 35.7049C49.3028 36.1936 49.1675 36.8008 49.2735 37.3903C49.4698 38.476 50.4144 39.266 51.5176 39.267C51.6451 39.2668 51.7722 39.2564 51.8979 39.2355C52.4968 39.1367 53.0306 38.8001 53.378 38.3024C53.7254 37.8137 53.8609 37.2056 53.7536 36.6158ZM51.4582 37.0264L51.5106 36.9342L51.5165 37.08C51.464 37.08 51.4605 37.0509 51.4582 37.0264Z" fill="#408CD9"/>
<path d="M39.4408 35.7695H17.2797C16.6355 35.7695 16.1133 36.2918 16.1133 36.9359C16.1133 37.58 16.6355 38.1023 17.2797 38.1023H39.4408C40.085 38.1023 40.6072 37.58 40.6072 36.9359C40.6072 36.2918 40.0851 35.7695 39.4408 35.7695Z" fill="#408CD9"/>
<path d="M46.1322 35.7695H43.0297C42.3855 35.7695 41.8633 36.2918 41.8633 36.9359C41.8633 37.58 42.3855 38.1023 43.0297 38.1023H46.1322C46.7764 38.1023 47.2986 37.58 47.2986 36.9359C47.2986 36.2918 46.7765 35.7695 46.1322 35.7695Z" fill="#408CD9"/>
<path d="M30.2444 19.7859L26.7453 16.2868C26.2898 15.8315 25.5515 15.8315 25.096 16.2868L21.5969 19.7859C21.1494 20.2493 21.1623 20.9877 21.6256 21.4352C22.0776 21.8717 22.7942 21.8717 23.2462 21.4352L24.7543 19.9271V27.6088C24.7543 28.253 25.2765 28.7752 25.9207 28.7752C26.5648 28.7752 27.087 28.253 27.087 27.6088V19.9271L28.5952 21.4352C29.0585 21.8826 29.797 21.8698 30.2444 21.4065C30.6809 20.9545 30.6809 20.2379 30.2444 19.7859Z" fill="#408CD9"/>
<path d="M48.8721 23.2853C48.4201 22.8488 47.7035 22.8488 47.2514 23.2853L45.7433 24.7935V17.1117C45.7433 16.4676 45.2211 15.9453 44.5769 15.9453C43.9328 15.9453 43.4106 16.4676 43.4106 17.1117V24.7935L41.9024 23.2853C41.4391 22.8377 40.7008 22.8506 40.2532 23.3139C39.8167 23.7659 39.8167 24.4825 40.2532 24.9346L43.7523 28.4337C44.2078 28.889 44.9461 28.889 45.4016 28.4337L48.9007 24.9346C49.3483 24.4712 49.3355 23.7328 48.8721 23.2853Z" fill="#408CD9"/>
</svg>
