<svg width="71" height="67" viewBox="0 0 71 67" fill="none" xmlns="http://www.w3.org/2000/svg">
<path d="M18.8085 53.4575C18.5922 53.3242 18.3098 53.3804 18.1622 53.587C17.6579 54.2925 16.555 55.6811 16.2525 54.7961C15.7982 53.4664 19.4765 46.965 16.2819 45.92C14.2201 45.2454 12.751 47.2022 12.204 48.0968C12.0651 48.3241 12.1356 48.6206 12.3624 48.7605C12.5786 48.8939 12.861 48.8376 13.0087 48.6311C13.5129 47.9256 14.6158 46.5369 14.9183 47.422C15.3726 48.7517 11.6943 55.2529 14.8889 56.298C16.9507 56.9726 18.4199 55.0159 18.9668 54.1212C19.1058 53.8938 19.0352 53.5974 18.8085 53.4575Z" fill="#408CD9"/>
<path d="M15.5899 45.0353C16.304 45.0353 16.8829 44.4564 16.8829 43.7423C16.8829 43.0281 16.304 42.4492 15.5899 42.4492C14.8758 42.4492 14.2969 43.0281 14.2969 43.7423C14.2969 44.4564 14.8758 45.0353 15.5899 45.0353Z" fill="#408CD9"/>
<path d="M57.9022 44.566C58.3314 44.566 58.6793 44.2181 58.6793 43.7889C58.6793 43.3597 58.3314 43.0117 57.9022 43.0117C57.4729 43.0117 57.125 43.3597 57.125 43.7889C57.125 44.2181 57.4729 44.566 57.9022 44.566Z" fill="#408CD9"/>
<path d="M54.9022 44.566C55.3314 44.566 55.6793 44.2181 55.6793 43.7889C55.6793 43.3597 55.3314 43.0117 54.9022 43.0117C54.4729 43.0117 54.125 43.3597 54.125 43.7889C54.125 44.2181 54.4729 44.566 54.9022 44.566Z" fill="#408CD9"/>
<path d="M51.9022 44.566C52.3314 44.566 52.6793 44.2181 52.6793 43.7889C52.6793 43.3597 52.3314 43.0117 51.9022 43.0117C51.4729 43.0117 51.125 43.3597 51.125 43.7889C51.125 44.2181 51.4729 44.566 51.9022 44.566Z" fill="#408CD9"/>
<path d="M55.7268 49.5543H54.0818C53.6527 49.5543 53.3047 49.2063 53.3047 48.7772C53.3047 48.348 53.6527 48 54.0818 48H55.7268C56.1559 48 56.5039 48.348 56.5039 48.7772C56.5039 49.2063 56.1559 49.5543 55.7268 49.5543Z" fill="#408CD9"/>
<path d="M58.8347 52.7262H50.9725C50.5433 52.7262 50.1953 52.3782 50.1953 51.949C50.1953 51.5199 50.5433 51.1719 50.9725 51.1719H58.8347C59.2638 51.1719 59.6118 51.5199 59.6118 51.949C59.6118 52.3782 59.2638 52.7262 58.8347 52.7262Z" fill="#408CD9"/>
<path d="M58.8347 55.8981H50.9725C50.5433 55.8981 50.1953 55.5501 50.1953 55.1209C50.1953 54.6918 50.5433 54.3438 50.9725 54.3438H58.8347C59.2638 54.3438 59.6118 54.6918 59.6118 55.1209C59.6118 55.5501 59.2638 55.8981 58.8347 55.8981Z" fill="#408CD9"/>
<path d="M61.1975 35.4547V30.7701C61.1975 28.6275 59.4543 26.8843 57.3117 26.8843H57.2668V24.4378C57.2668 20.2861 56.1088 16.2683 53.9127 12.7688C54.2278 12.478 54.4437 12.0882 54.5149 11.6614C54.6019 11.1396 54.4692 10.5985 54.1509 10.177C51.9552 7.26886 49.0751 4.87366 45.8216 3.25018C42.5594 1.62219 38.9037 0.761719 35.2499 0.761719C31.596 0.761719 27.9403 1.62219 24.6779 3.25018C21.4248 4.87366 18.5444 7.26886 16.3488 10.177C16.0305 10.5985 15.8979 11.1394 15.9848 11.6614C16.056 12.0882 16.2717 12.478 16.5869 12.7688C14.391 16.2683 13.233 20.2861 13.233 24.4378V26.8842H13.1881C11.0455 26.8842 9.30233 28.6273 9.30233 30.77V35.4545C3.97041 37.859 0.25 43.2248 0.25 49.4435C0.25 53.6731 1.97109 57.5082 4.74959 60.2855V65.1732C4.74959 66.0302 5.44685 66.7275 6.3039 66.7275H8.65403C9.51108 66.7275 10.2083 66.0302 10.2083 65.1732V63.8058C11.8827 64.4349 13.6948 64.7799 15.5864 64.7799C24.043 64.7799 30.9229 57.9001 30.9229 49.4435C30.9229 47.4176 30.5385 45.4674 29.7808 43.6291H32.2112V44.2825C32.2112 45.1696 32.7036 45.9679 33.4963 46.366C33.8299 46.5335 34.1885 46.616 34.545 46.616C35.0357 46.616 35.5227 46.4595 35.9348 46.1529L39.3252 43.6291H40.7192C39.9617 45.4674 39.5771 47.4176 39.5771 49.4435C39.5771 57.9001 46.457 64.7799 54.9136 64.7799C63.3701 64.7799 70.25 57.9001 70.25 49.4435C70.25 43.225 66.5294 37.8592 61.1975 35.4547ZM59.6432 30.7701V34.8547C58.8545 34.5984 58.0384 34.4038 57.1998 34.2779V31.5271C57.1998 30.67 56.5025 29.9727 55.6455 29.9727H54.1784C53.3213 29.9727 52.6241 30.67 52.6241 31.5271V34.2813C51.793 34.4063 50.9765 34.5981 50.1822 34.8555V30.7701C50.1822 29.4845 51.2281 28.4386 52.5137 28.4386H57.3117C58.5974 28.4386 59.6432 29.4844 59.6432 30.7701ZM55.6456 34.1251C55.403 34.1136 55.159 34.1072 54.9136 34.1072C54.6678 34.1072 54.4227 34.1136 54.1785 34.1253V31.5271H55.6456V34.1251ZM17.5893 11.1136C21.7485 5.60496 28.3506 2.31603 35.2501 2.31603C42.1494 2.31603 48.7513 5.60481 52.9105 11.1136C52.996 11.2269 52.9918 11.3454 52.9819 11.406C52.9716 11.4674 52.9366 11.5822 52.8168 11.6629L49.6723 13.7858C49.6723 13.7858 49.6721 13.7858 49.6721 13.7859C49.6721 13.7861 49.6721 13.7859 49.6719 13.7861L49.2352 14.081C49.0689 14.1932 48.8424 14.1576 48.7195 13.9995C45.4654 9.80395 40.5559 7.39787 35.2501 7.39787C29.9441 7.39787 25.0345 9.80379 21.7804 13.999C21.6577 14.1571 21.431 14.1933 21.2647 14.0806L20.8298 13.787C20.8284 13.7861 20.8274 13.7849 20.826 13.7839C20.8246 13.783 20.8231 13.7825 20.8218 13.7816L17.683 11.6628C17.5632 11.5818 17.5284 11.4669 17.518 11.4057C17.508 11.3454 17.5038 11.2269 17.5893 11.1136ZM14.7874 24.4378C14.7874 20.6055 15.8483 16.8958 17.8623 13.6593L19.3255 14.6469C17.5082 17.5903 16.5501 20.9583 16.5501 24.4377V26.884H14.7874V24.4378ZM10.8566 30.7701C10.8566 29.4845 11.9025 28.4386 13.1881 28.4386H17.9861C19.2717 28.4386 20.3176 29.4845 20.3176 30.7701V34.8556C19.5227 34.5981 18.7058 34.4061 17.8742 34.2812V31.5271C17.8742 30.67 17.177 29.9727 16.3199 29.9727H14.8526C13.9956 29.9727 13.2983 30.67 13.2983 31.5271V34.278C12.4604 34.4039 11.6448 34.5984 10.8566 34.8545V30.7701ZM16.3199 34.1253C16.076 34.1136 15.8315 34.1074 15.5863 34.1074C15.3402 34.1074 15.0957 34.1138 14.8525 34.1253V31.5271H16.3198V34.1253H16.3199ZM8.65403 65.1733H6.3039V61.6432C7.03847 62.2033 7.82434 62.6993 8.65403 63.1215V65.1733ZM29.3684 49.4437C29.3684 57.0432 23.1858 63.2258 15.5863 63.2258C7.98676 63.2258 1.80416 57.0432 1.80416 49.4437C1.80416 41.8441 7.98676 35.6615 15.5863 35.6615C18.8861 35.6615 22.0546 36.8396 24.5502 38.9805V41.2978C24.5502 42.5834 25.5961 43.6293 26.8816 43.6293H28.0836C28.9358 45.4508 29.3684 47.4042 29.3684 49.4437ZM39.0678 42.075C38.9007 42.075 38.7378 42.1289 38.6038 42.2287L35.0067 44.9063C34.7659 45.0854 34.4622 45.1121 34.1939 44.9773C33.9256 44.8426 33.7656 44.583 33.7656 44.2827V42.8521C33.7656 42.4228 33.4177 42.075 32.9884 42.075H26.8818C26.4533 42.075 26.1046 41.7263 26.1046 41.2978V22.646C26.1046 22.2175 26.4533 21.8689 26.8818 21.8689H29.5947C30.024 21.8689 30.3719 21.521 30.3719 21.0917C30.3719 20.6624 30.024 20.3145 29.5947 20.3145H26.8818C25.5962 20.3145 24.5503 21.3604 24.5503 22.646V37.0037C23.708 36.3958 22.811 35.8774 21.8721 35.4553V30.7701C21.8721 28.6671 20.1926 26.9502 18.1046 26.8873V24.4378C18.1046 21.2628 18.9751 18.1895 20.6261 15.5004C21.4377 15.8987 22.4408 15.6836 23.0086 14.9517C25.9662 11.1389 30.4281 8.95203 35.2502 8.95203C40.072 8.95203 44.534 11.1388 47.4917 14.9518C47.8707 15.4402 48.4437 15.6992 49.0243 15.6992C49.3129 15.6992 49.6031 15.6343 49.8726 15.5025C51.3492 17.9092 52.21 20.6503 52.3674 23.4783C52.3904 23.8921 52.7333 24.2123 53.1426 24.2123C53.1572 24.2123 53.1718 24.2118 53.1866 24.2111C53.6151 24.1873 53.9431 23.8205 53.9193 23.3918C53.7466 20.2903 52.7988 17.2844 51.1723 14.6484L52.6377 13.6591C54.6518 16.8955 55.7126 20.6054 55.7126 24.4377V26.884H52.5139C50.3712 26.884 48.6281 28.6272 48.6281 30.7698V35.4551C47.689 35.8773 46.792 36.3956 45.9498 37.0035V22.6459C45.9498 21.3603 44.9039 20.3144 43.6184 20.3144H33.9836C33.5543 20.3144 33.2065 20.6622 33.2065 21.0915C33.2065 21.5208 33.5543 21.8687 33.9836 21.8687H43.6184C44.0469 21.8687 44.3955 22.2173 44.3955 22.6459V41.2976C44.3955 41.7262 44.0469 42.0748 43.6184 42.0748L39.0678 42.075ZM54.9136 63.2258C47.3141 63.2258 41.1314 57.0432 41.1314 49.4437C41.1314 47.4042 41.564 45.4508 42.4162 43.6293H43.6182C44.9038 43.6293 45.9497 42.5834 45.9497 41.2978V38.9805C48.4453 36.8397 51.6138 35.6615 54.9136 35.6615C62.5131 35.6615 68.6957 41.8441 68.6957 49.4437C68.6957 57.0432 62.5129 63.2258 54.9136 63.2258Z" fill="#408CD9"/>
<path d="M38.4725 35.8911C38.2563 35.7578 37.9739 35.814 37.8262 36.0206C37.322 36.7261 36.2191 38.1147 35.9166 37.2297C35.4623 35.9 39.1406 29.3986 35.946 28.3536C33.8842 27.679 32.415 29.6358 31.8681 30.5304C31.7291 30.7577 31.7997 31.0542 32.0265 31.1941C32.2427 31.3275 32.5251 31.2712 32.6727 31.0647C33.177 30.3591 34.2799 28.9705 34.5824 29.8556C35.0367 31.1853 31.3584 37.6865 34.553 38.7316C36.6148 39.4062 38.0839 37.4495 38.6309 36.5548C38.7699 36.3276 38.6993 36.0312 38.4725 35.8911V35.8911Z" fill="#408CD9"/>
<path d="M35.2462 27.4689C35.9603 27.4689 36.5392 26.89 36.5392 26.1758C36.5392 25.4617 35.9603 24.8828 35.2462 24.8828C34.532 24.8828 33.9531 25.4617 33.9531 26.1758C33.9531 26.89 34.532 27.4689 35.2462 27.4689Z" fill="#408CD9"/>
</svg>
