<svg width="71" height="64" viewBox="0 0 71 64" fill="none" xmlns="http://www.w3.org/2000/svg">
<path d="M67.8535 0.761719H2.64668C1.32516 0.761719 0.25 1.83688 0.25 3.1584V47.4113C0.25 48.7329 1.32516 49.808 2.64668 49.808H16.124L16.4006 51.0951C16.6948 52.4652 17.8079 53.5067 19.1541 53.747C18.6007 54.7399 18.2839 55.882 18.2839 57.0972C18.2839 60.904 21.381 64.0011 25.1878 64.0011C28.9946 64.0011 32.0917 60.904 32.0917 57.0972C32.0917 55.9038 31.7871 54.7802 31.2519 53.7998H36.9856C36.4503 54.7802 36.1457 55.9038 36.1457 57.0972C36.1457 60.904 39.2428 64.0011 43.0496 64.0011C46.8564 64.0011 49.9535 60.904 49.9535 57.0972C49.9535 55.8957 49.6444 54.7653 49.1024 53.7803C50.5584 53.6304 51.7921 52.5483 52.1044 51.095L59.5643 16.3743H68.1957V47.4113C68.1957 47.6002 68.0421 47.7537 67.8533 47.7537H56.6616C56.0942 47.7537 55.6345 48.2135 55.6345 48.7809C55.6345 49.3482 56.0942 49.808 56.6616 49.808H67.8533C69.1748 49.808 70.25 48.7329 70.25 47.4113V3.1584C70.2501 1.83688 69.175 0.761719 67.8535 0.761719ZM25.1878 61.9468C22.5137 61.9468 20.3381 59.7712 20.3381 57.0971C20.3381 54.423 22.5136 52.2474 25.1878 52.2474C27.862 52.2474 30.0375 54.423 30.0375 57.0971C30.0375 59.7713 27.8619 61.9468 25.1878 61.9468ZM43.0498 61.9468C40.3757 61.9468 38.2001 59.7712 38.2001 57.0971C38.2001 54.423 40.3757 52.2474 43.0498 52.2474C45.7238 52.2474 47.8994 54.423 47.8994 57.0971C47.8993 59.7713 45.7237 61.9468 43.0498 61.9468ZM65.2747 14.32C65.9634 13.6933 66.3963 12.7901 66.3963 11.7878C66.3963 9.89988 64.8604 8.36398 62.9725 8.36398H59.7412C56.5778 8.36398 53.7994 10.6089 53.1347 13.7018L53.0019 14.3199H43.3024C42.735 14.3199 42.2752 14.7797 42.2752 15.347C42.2752 15.9144 42.735 16.3742 43.3024 16.3742H52.5607L51.5183 21.2265H14.2206C13.1813 21.2265 12.2106 21.6903 11.5573 22.4987C10.9042 23.307 10.6549 24.3534 10.8732 25.3696L13.4058 37.1571C13.525 37.7119 14.0709 38.064 14.6257 37.9457C15.1803 37.8265 15.5333 37.2803 15.4142 36.7258L12.8816 24.9383C12.7944 24.5317 12.894 24.1131 13.1553 23.7897C13.4166 23.4665 13.8049 23.281 14.2206 23.281H52.3481C52.8323 23.281 53.2506 22.9429 53.3525 22.4696L55.1435 14.1334C55.606 11.9807 57.5398 10.4185 59.7415 10.4185H62.9727C63.7278 10.4185 64.3422 11.0329 64.3422 11.788C64.3422 12.5431 63.7278 13.1575 62.9727 13.1575H59.7415C58.8222 13.1575 58.0146 13.8099 57.8213 14.709L50.0961 50.6637C49.9614 51.2906 49.3984 51.7456 48.7572 51.7456H47.4055C46.2164 50.7761 44.7001 50.1934 43.0499 50.1934C41.3997 50.1934 39.8833 50.7761 38.6943 51.7456H29.5437C28.3546 50.7761 26.8383 50.1934 25.1881 50.1934C23.5379 50.1934 22.0215 50.7761 20.8325 51.7456H19.7483C19.1071 51.7456 18.544 51.2906 18.4093 50.6637L16.3012 40.8527C16.1821 40.2979 15.6365 39.9462 15.0813 40.0641C14.5266 40.1833 14.1737 40.7295 14.2928 41.284L15.683 47.7538H2.64668C2.45788 47.7538 2.30434 47.6003 2.30434 47.4115V16.3743H38.5514C39.1188 16.3743 39.5786 15.9146 39.5786 15.3472C39.5786 14.7798 39.1188 14.32 38.5514 14.32H2.30434V3.15827C2.30434 2.96946 2.45801 2.81592 2.64668 2.81592H67.8535C68.0423 2.81592 68.1958 2.96946 68.1958 3.15827V14.32H65.2747Z" fill="#408CD9"/>
<path d="M7.83887 10.5293C8.94506 10.5293 9.8418 9.63256 9.8418 8.52637C9.8418 7.42018 8.94506 6.52344 7.83887 6.52344C6.73268 6.52344 5.83594 7.42018 5.83594 8.52637C5.83594 9.63256 6.73268 10.5293 7.83887 10.5293Z" fill="#408CD9"/>
<path d="M13.9326 10.5293C15.0388 10.5293 15.9356 9.63256 15.9356 8.52637C15.9356 7.42018 15.0388 6.52344 13.9326 6.52344C12.8264 6.52344 11.9297 7.42018 11.9297 8.52637C11.9297 9.63256 12.8264 10.5293 13.9326 10.5293Z" fill="#408CD9"/>
<path d="M20.0264 10.5293C21.1326 10.5293 22.0293 9.63256 22.0293 8.52637C22.0293 7.42018 21.1326 6.52344 20.0264 6.52344C18.9202 6.52344 18.0234 7.42018 18.0234 8.52637C18.0234 9.63256 18.9202 10.5293 20.0264 10.5293Z" fill="#408CD9"/>
<path d="M37.1385 43.1719H31.0974C30.8103 43.1719 30.5363 43.2919 30.3419 43.5031C30.1475 43.7144 30.0502 43.9972 30.0738 44.2833L30.3852 48.065C30.4291 48.5978 30.8743 49.008 31.4089 49.008H36.8272C37.3617 49.008 37.807 48.598 37.8508 48.065L38.1621 44.2833C38.1856 43.9972 38.0884 43.7144 37.894 43.5031C37.6994 43.2921 37.4255 43.1719 37.1385 43.1719ZM35.8809 46.9537H32.3548L32.2126 45.2262H36.0234L35.8809 46.9537Z" fill="#408CD9"/>
<path d="M16.9945 31.0445C17.0962 31.5178 17.5146 31.8559 17.9987 31.8559H25.187C25.7705 31.8687 26.2712 31.3249 26.2106 30.7446L25.8993 26.9628C25.8554 26.43 25.4103 26.0198 24.8757 26.0198H17.1862C16.5514 26.004 16.0331 26.6456 16.182 27.2627L16.9945 31.0445ZM23.9297 28.0742L24.0719 29.8016H18.8287L18.4575 28.0742H23.9297Z" fill="#408CD9"/>
<path d="M20.8709 43.1719C20.5605 43.1719 20.2669 43.3122 20.0719 43.5535C19.8769 43.7949 19.8015 44.1114 19.8667 44.4148L20.6792 48.1966C20.7809 48.6699 21.1993 49.008 21.6834 49.008H26.599C26.8861 49.008 27.1601 48.888 27.3545 48.6767C27.5489 48.4655 27.6463 48.1826 27.6226 47.8966L27.3112 44.1148C27.2673 43.582 26.8221 43.1719 26.2876 43.1719H20.8709ZM22.5133 46.9537L22.1421 45.2262H25.3415L25.4837 46.9537H22.5133Z" fill="#408CD9"/>
<path d="M19.0271 34.5938C18.7168 34.5938 18.4233 34.734 18.2282 34.9753C18.0332 35.2168 17.9577 35.5333 18.0229 35.8367L18.8355 39.6186C18.937 40.0919 19.3555 40.43 19.8397 40.43H25.8917C26.1788 40.43 26.4528 40.31 26.6472 40.0987C26.8416 39.8875 26.9389 39.6046 26.9153 39.3186L26.6038 35.5367C26.56 35.0039 26.1148 34.5938 25.5802 34.5938H19.0271ZM20.6696 38.3755L20.2984 36.648H24.6341L24.7763 38.3755H20.6696Z" fill="#408CD9"/>
<path d="M28.9728 30.9129C29.0167 31.4457 29.4619 31.8559 29.9965 31.8559H38.239C38.7736 31.8559 39.2188 31.4459 39.2626 30.9129L39.5739 27.1311C39.6341 26.5508 39.1339 26.007 38.5502 26.0197H29.6849C29.1018 26.007 28.6004 26.5508 28.6613 27.1311L28.9728 30.9129ZM37.4352 28.0741L37.2929 29.8015H30.9424L30.8002 28.0741H37.4352Z" fill="#408CD9"/>
<path d="M42.3394 40.43H48.659C49.1431 40.43 49.5615 40.0919 49.6633 39.6186L50.4759 35.8367C50.5409 35.5333 50.4656 35.2168 50.2705 34.9753C50.0755 34.734 49.7819 34.5938 49.4715 34.5938H42.6509C42.1163 34.5938 41.671 35.0038 41.6273 35.5367L41.316 39.3186C41.2924 39.6046 41.3896 39.8875 41.5841 40.0987C41.7783 40.3098 42.0523 40.43 42.3394 40.43ZM43.5968 36.6481H48.2002L47.829 38.3757H43.4545L43.5968 36.6481Z" fill="#408CD9"/>
<path d="M43.0519 31.8559H50.5079C50.992 31.8559 51.4104 31.5178 51.5122 31.0445L52.3248 27.2627C52.4735 26.6456 51.9552 26.0041 51.3204 26.0198H43.3634C42.8288 26.0198 42.3835 26.4298 42.3398 26.9628L42.0285 30.7446C41.9676 31.3249 42.4684 31.8687 43.0519 31.8559ZM44.3093 28.0742H50.0491L49.6779 29.8016H44.167L44.3093 28.0742Z" fill="#408CD9"/>
<path d="M37.8397 34.5938H30.3865C30.0994 34.5938 29.8254 34.7138 29.631 34.925C29.4366 35.1363 29.3392 35.4191 29.3629 35.7051L29.6742 39.4871C29.7181 40.0199 30.1632 40.43 30.6978 40.43H37.5283C38.0628 40.43 38.5081 40.02 38.5519 39.4871L38.8632 35.7051C38.8867 35.4191 38.7895 35.1363 38.5951 34.925C38.4007 34.7138 38.1267 34.5938 37.8397 34.5938ZM36.5822 38.3755H31.6439L31.5017 36.648H36.7245L36.5822 38.3755Z" fill="#408CD9"/>
<path d="M41.6363 49.008H46.8193C47.3034 49.008 47.7218 48.6699 47.8237 48.1966L48.6363 44.4148C48.7014 44.1114 48.6261 43.7949 48.431 43.5535C48.236 43.3122 47.9423 43.1719 47.632 43.1719H41.9478C41.4132 43.1719 40.9679 43.5819 40.9241 44.1148L40.6128 47.8966C40.5893 48.1826 40.6865 48.4655 40.8809 48.6767C41.0754 48.888 41.3493 49.008 41.6363 49.008ZM42.8939 45.2264H46.3606L45.9894 46.9538H42.7515L42.8939 45.2264Z" fill="#408CD9"/>
<path d="M25.1849 55.332C24.2112 55.332 23.4219 56.1214 23.4219 57.095C23.4219 58.0687 24.2112 58.8582 25.1849 58.8582C26.1586 58.8582 26.9479 58.0687 26.9479 57.095C26.9479 56.1214 26.1586 55.332 25.1849 55.332Z" fill="#408CD9"/>
<path d="M43.0521 55.332C42.0783 55.332 41.2891 56.1214 41.2891 57.095C41.2891 58.0687 42.0783 58.8582 43.0521 58.8582C44.0258 58.8582 44.815 58.0687 44.815 57.095C44.815 56.1214 44.0258 55.332 43.0521 55.332Z" fill="#408CD9"/>
</svg>
