<svg width="44" height="71" viewBox="0 0 44 71" fill="none" xmlns="http://www.w3.org/2000/svg">
<path d="M1.5332 40.2639C2.09949 40.2639 2.55859 39.8049 2.55859 39.2385V5.10117C2.55859 3.83926 3.58535 2.8125 4.84726 2.8125H39.6504C40.9123 2.8125 41.9391 3.83926 41.9391 5.10117V12.6535C41.9391 13.2199 42.3982 13.6789 42.9644 13.6789C43.5307 13.6789 43.9898 13.2199 43.9898 12.6535V5.10117C43.9898 2.70832 42.0431 0.761719 39.6504 0.761719H4.84726C2.45455 0.761719 0.507812 2.70832 0.507812 5.10117V39.2385C0.507812 39.8048 0.966914 40.2639 1.5332 40.2639Z" fill="#408CD9"/>
<path d="M43.9898 17.4355C43.9898 16.8691 43.5307 16.4102 42.9644 16.4102C42.3982 16.4102 41.9391 16.8691 41.9391 17.4355V59.8689H2.55859V44.0205C2.55859 43.4541 2.09949 42.9951 1.5332 42.9951C0.966914 42.9951 0.507812 43.4541 0.507812 44.0205V66.4191C0.507812 68.812 2.45455 70.7586 4.84726 70.7586H31.9094C32.4757 70.7586 32.9348 70.2996 32.9348 69.7332C32.9348 69.1668 32.4757 68.7078 31.9094 68.7078H4.84726C3.58535 68.7078 2.55859 67.6811 2.55859 66.4191V61.9197H41.9391V66.4191C41.9391 67.6811 40.9123 68.7078 39.6504 68.7078H36.6945C36.1282 68.7078 35.6691 69.1668 35.6691 69.7332C35.6691 70.2996 36.1282 70.7586 36.6945 70.7586H39.6504C42.0431 70.7586 43.9898 68.812 43.9898 66.4191V17.4355Z" fill="#408CD9"/>
<path d="M22.2525 40.6016C20.0498 40.6016 18.2578 42.3935 18.2578 44.5963C18.2578 46.7992 20.0498 48.5911 22.2525 48.5911C24.4551 48.5911 26.2471 46.7992 26.2471 44.5963C26.2471 42.3935 24.4551 40.6016 22.2525 40.6016ZM22.2525 46.5402C21.1806 46.5402 20.3086 45.6681 20.3086 44.5962C20.3086 43.5243 21.1806 42.6522 22.2525 42.6522C23.3243 42.6522 24.1963 43.5243 24.1963 44.5962C24.1963 45.6681 23.3243 46.5402 22.2525 46.5402Z" fill="#408CD9"/>
<path d="M33.7587 41.7236C34.3934 41.0346 34.5051 40.0266 34.0367 39.2152L32.8076 37.0865C32.3393 36.2751 31.4103 35.8685 30.4964 36.0729L28.1708 36.5947C28.1489 36.5995 28.1232 36.5925 28.1001 36.5757C27.5312 36.1606 26.9162 35.8053 26.272 35.5197C26.2463 35.5082 26.2279 35.4896 26.2213 35.4686L25.5105 33.1942C25.2312 32.3001 24.414 31.6992 23.4772 31.6992H21.019C20.0822 31.6992 19.2651 32.3001 18.9857 33.1941L18.2749 35.4686C18.2684 35.4896 18.2498 35.5082 18.2239 35.5197C17.58 35.8053 16.965 36.1606 16.396 36.5757C16.3729 36.5925 16.3469 36.5999 16.3256 36.5947L13.9996 36.0729C13.0852 35.8678 12.1568 36.2751 11.6885 37.0863L10.4594 39.2152C9.99101 40.0266 10.1027 41.0346 10.7374 41.7236L12.3524 43.4771C12.3675 43.4934 12.3743 43.5191 12.3713 43.5478C12.3338 43.8982 12.3147 44.253 12.3147 44.6022C12.3147 44.9514 12.3337 45.306 12.3713 45.6568C12.3743 45.6853 12.3675 45.711 12.3524 45.7272L10.7374 47.4808C10.1027 48.1697 9.99101 49.1778 10.4594 49.9892L11.6885 52.1179C12.1568 52.9292 13.0856 53.336 13.9997 53.1315L16.3253 52.6097C16.3475 52.6052 16.3728 52.6118 16.3961 52.6288C16.9657 53.0443 17.5807 53.3996 18.2237 53.6845C18.2495 53.696 18.2682 53.7148 18.2748 53.7358L18.9856 56.0101C19.2649 56.9043 20.0821 57.5052 21.0189 57.5052H23.4771C24.4139 57.5052 25.231 56.9043 25.5104 56.0103L26.2212 53.7358C26.2277 53.7148 26.2465 53.696 26.2719 53.6847C26.9153 53.3996 27.5304 53.0443 28.1002 52.6285C28.1232 52.6117 28.1486 52.6047 28.1704 52.6097L30.4964 53.1315C31.4106 53.3367 32.3392 52.9292 32.8075 52.118L34.0366 49.9892C34.5049 49.1778 34.3933 48.1697 33.7586 47.4808L32.1435 45.7272C32.1285 45.711 32.1217 45.6853 32.1247 45.6566C32.1621 45.3062 32.1813 44.9514 32.1813 44.6022C32.1813 44.253 32.1623 43.8984 32.1247 43.5475C32.1217 43.5191 32.1285 43.4934 32.1435 43.4771L33.7587 41.7236ZM30.0858 43.7659C30.1156 44.0442 30.1308 44.3256 30.1308 44.602C30.1308 44.8785 30.1157 45.1599 30.0859 45.4379C30.0199 46.0537 30.22 46.6655 30.6354 47.1163L32.2505 48.8699C32.2741 48.8956 32.2783 48.9332 32.2608 48.9635L31.0316 51.0925C31.0142 51.1226 30.9794 51.1376 30.9455 51.1301L28.6192 50.6082C28.0212 50.4741 27.3912 50.6067 26.8914 50.9718C26.4395 51.3014 25.9516 51.5833 25.4409 51.8096C24.8756 52.0603 24.4466 52.5394 24.264 53.1236L23.5532 55.3982C23.5428 55.4314 23.5124 55.4538 23.4774 55.4538H21.0192C20.9843 55.4538 20.9537 55.4314 20.9433 55.398L20.2325 53.1236C20.05 52.5394 19.6209 52.0603 19.0552 51.8095C18.545 51.5833 18.057 51.3014 17.6054 50.972C17.2331 50.7001 16.7888 50.5571 16.3391 50.5571C16.1848 50.5571 16.0297 50.5741 15.8767 50.6082L13.551 51.1301C13.5168 51.1383 13.4823 51.1227 13.4648 51.0924L12.2357 48.9635C12.2182 48.9332 12.2223 48.8957 12.246 48.8699L13.8612 47.1163C14.2765 46.6654 14.4766 46.0537 14.4107 45.4382C14.3809 45.1599 14.3657 44.8785 14.3657 44.602C14.3657 44.3256 14.3808 44.0442 14.4106 43.7662C14.4766 43.1504 14.2765 42.5386 13.8611 42.0878L12.246 40.3342C12.2224 40.3085 12.2182 40.2709 12.2357 40.2406L13.4649 38.1116C13.4823 38.0814 13.5167 38.0659 13.551 38.074L15.8773 38.5959C16.4754 38.73 17.1052 38.5974 17.6053 38.2325C18.0566 37.9031 18.5445 37.6212 19.0552 37.3946C19.6208 37.144 20.0498 36.665 20.2325 36.0805L20.9433 33.8059C20.9537 33.7727 20.9842 33.7503 21.0192 33.7503H23.4774C23.5122 33.7503 23.5428 33.7727 23.5532 33.8061L24.264 36.0805C24.4467 36.665 24.8759 37.144 25.4412 37.3946C25.9521 37.6212 26.4401 37.9031 26.8914 38.2325C27.3915 38.5974 28.0212 38.7294 28.6198 38.5959L30.9455 38.074C30.9797 38.0668 31.0142 38.0814 31.0317 38.1117L32.2608 40.2406C32.2783 40.2709 32.2742 40.3084 32.2505 40.3342L30.6353 42.0878C30.22 42.5387 30.0198 43.1504 30.0858 43.7659Z" fill="#408CD9"/>
<path d="M26.8351 8.49609H21.5566C20.9904 8.49609 20.5312 8.95506 20.5312 9.52148C20.5312 10.0879 20.9904 10.5469 21.5566 10.5469H26.8351C27.4014 10.5469 27.8605 10.0879 27.8605 9.52148C27.8605 8.95506 27.4014 8.49609 26.8351 8.49609Z" fill="#408CD9"/>
<path d="M11.8926 10.5469H17.1407C17.707 10.5469 18.1661 10.0879 18.1661 9.52148C18.1661 8.95506 17.707 8.49609 17.1407 8.49609H11.8926C11.3263 8.49609 10.8672 8.95506 10.8672 9.52148C10.8672 10.0879 11.3263 10.5469 11.8926 10.5469Z" fill="#408CD9"/>
<path d="M11.8926 14.9687H23.7864C24.3527 14.9687 24.8118 14.5098 24.8118 13.9434C24.8118 13.3769 24.3527 12.918 23.7864 12.918H11.8926C11.3263 12.918 10.8672 13.3769 10.8672 13.9434C10.8672 14.5098 11.3263 14.9687 11.8926 14.9687Z" fill="#408CD9"/>
<path d="M27.1797 13.9434C27.1797 14.5098 27.6388 14.9687 28.2051 14.9687H32.608C33.1743 14.9687 33.6334 14.5098 33.6334 13.9434C33.6334 13.3769 33.1743 12.918 32.608 12.918H28.2051C27.6388 12.918 27.1797 13.3769 27.1797 13.9434Z" fill="#408CD9"/>
<path d="M11.8926 19.3828H16.8645C17.4308 19.3828 17.8899 18.9238 17.8899 18.3574C17.8899 17.791 17.4308 17.332 16.8645 17.332H11.8926C11.3263 17.332 10.8672 17.791 10.8672 18.3574C10.8672 18.9238 11.3263 19.3828 11.8926 19.3828Z" fill="#408CD9"/>
<path d="M23.7857 17.332H21.2832C20.7169 17.332 20.2578 17.791 20.2578 18.3574C20.2578 18.9238 20.7169 19.3828 21.2832 19.3828H23.7857C24.352 19.3828 24.8111 18.9238 24.8111 18.3574C24.8111 17.791 24.352 17.332 23.7857 17.332Z" fill="#408CD9"/>
<path d="M32.6089 17.332H28.1895C27.6232 17.332 27.1641 17.791 27.1641 18.3574C27.1641 18.9238 27.6232 19.3828 28.1895 19.3828H32.6089C33.1752 19.3828 33.6343 18.9238 33.6343 18.3574C33.6343 17.791 33.1752 17.332 32.6089 17.332Z" fill="#408CD9"/>
<path d="M11.8926 23.8047H23.7864C24.3527 23.8047 24.8118 23.3457 24.8118 22.7793C24.8118 22.2129 24.3527 21.7539 23.7864 21.7539H11.8926C11.3263 21.7539 10.8672 22.2129 10.8672 22.7793C10.8672 23.3457 11.3263 23.8047 11.8926 23.8047Z" fill="#408CD9"/>
<path d="M32.5928 21.7539H28.2051C27.6388 21.7539 27.1797 22.2129 27.1797 22.7793C27.1797 23.3457 27.6388 23.8047 28.2051 23.8047H32.5928C33.1591 23.8047 33.6182 23.3457 33.6182 22.7793C33.6182 22.2129 33.1591 21.7539 32.5928 21.7539Z" fill="#408CD9"/>
<path d="M11.8926 28.2227H13.9641C14.5304 28.2227 14.9895 27.7637 14.9895 27.1973C14.9895 26.6308 14.5304 26.1719 13.9641 26.1719H11.8926C11.3263 26.1719 10.8672 26.6308 10.8672 27.1973C10.8672 27.7637 11.3263 28.2227 11.8926 28.2227Z" fill="#408CD9"/>
<path d="M32.5948 26.1719H18.3848C17.8185 26.1719 17.3594 26.6308 17.3594 27.1973C17.3594 27.7637 17.8185 28.2227 18.3848 28.2227H32.5948C33.1611 28.2227 33.6202 27.7637 33.6202 27.1973C33.6202 26.6308 33.1611 26.1719 32.5948 26.1719Z" fill="#408CD9"/>
<path d="M32.5943 10.5469C33.1606 10.5469 33.6197 10.0879 33.6197 9.52148C33.6197 8.95506 33.1606 8.49609 32.5943 8.49609H31.2285C30.6622 8.49609 30.2031 8.95506 30.2031 9.52148C30.2031 10.0879 30.6622 10.5469 31.2285 10.5469H32.5943Z" fill="#408CD9"/>
<path d="M7.92979 5.29223C7.42324 5.03862 6.80746 5.24425 6.55412 5.75079L5.72547 7.40809C5.58109 7.69684 5.58109 8.03659 5.72547 8.32534L6.55412 9.98264C6.73377 10.3419 7.0958 10.5496 7.47205 10.5496C7.62613 10.5496 7.78254 10.5146 7.92979 10.4411C8.43633 10.1877 8.64168 9.57194 8.38834 9.0654L7.78897 7.86665L8.38834 6.6679C8.64154 6.16149 8.43633 5.54557 7.92979 5.29223Z" fill="#408CD9"/>
<path d="M36.5671 28.1166C36.7143 28.1903 36.8707 28.2251 37.0248 28.2251C37.4009 28.2251 37.7631 28.0173 37.9427 27.6582L38.7714 26.0009C38.9158 25.7121 38.9158 25.3724 38.7714 25.0836L37.9427 23.4263C37.6894 22.9199 37.0738 22.7147 36.5671 22.9677C36.0605 23.2211 35.8552 23.8369 36.1085 24.3434L36.7079 25.5422L36.1085 26.7409C35.8553 27.2475 36.0605 27.8634 36.5671 28.1166Z" fill="#408CD9"/>
</svg>
