<svg width="47" height="46" viewBox="0 0 47 46" fill="none" xmlns="http://www.w3.org/2000/svg">
<path d="M40.9619 11.5074C40.4027 11.5069 39.8466 11.5924 39.3134 11.7611C39.364 11.3592 39.3896 10.9544 39.3901 10.5494C39.2905 4.62445 34.4068 -0.0979909 28.4817 0.00154498C24.1582 0.0741611 20.3007 2.73509 18.6973 6.75111C15.5965 4.82832 11.5241 5.78344 9.60135 8.88428C8.9754 9.89372 8.6332 11.0533 8.61078 12.2408C7.77599 11.7588 6.82872 11.5057 5.86478 11.5074C2.90189 11.5074 0.5 13.9093 0.5 16.8722C0.5 19.835 2.90189 22.2369 5.86478 22.2369C6.28802 22.2369 6.63118 21.8938 6.63118 21.4705C6.63118 21.0473 6.28802 20.7041 5.86478 20.7041C3.74866 20.6697 2.06115 18.9265 2.09554 16.8104C2.12994 14.6942 3.8732 13.0067 5.98932 13.0411C7.27744 13.0621 8.46881 13.7289 9.16029 14.8158C9.39213 15.17 9.8671 15.2691 10.2213 15.0374C10.5274 14.8371 10.6492 14.4484 10.5122 14.1092C10.2709 13.5271 10.1449 12.9037 10.1413 12.2737C10.172 9.49625 12.4451 7.26785 15.2225 7.29209C16.46 7.29698 17.6539 7.75001 18.5831 8.56738C18.9022 8.84558 19.3863 8.81243 19.6644 8.49342C19.7398 8.40701 19.7948 8.30469 19.8255 8.19414C21.2278 3.31449 26.3203 0.495584 31.1999 1.8979C35.0742 3.01128 37.7712 6.51889 37.8519 10.5493C37.8487 11.3527 37.7365 12.1519 37.5185 12.9251C37.4052 13.3329 37.6438 13.7554 38.0517 13.8687C38.2723 13.9301 38.5088 13.8895 38.6965 13.7582C39.3594 13.2907 40.1508 13.0399 40.9619 13.0401C43.0783 13.0401 44.7939 14.7557 44.7939 16.8721C44.7939 18.9884 43.0783 20.704 40.9619 20.704C40.5387 20.704 40.1956 21.0472 40.1956 21.4704C40.1956 21.8937 40.5387 22.2368 40.9619 22.2368C43.9248 22.2368 46.3267 19.8349 46.3267 16.8721C46.3267 13.9093 43.9248 11.5074 40.9619 11.5074Z" fill="url(#paint0_linear_266_5576)"/>
<path d="M36.4348 29.1372H10.3773C9.10749 29.1372 8.07812 30.1666 8.07812 31.4364V34.502C8.07812 35.7718 9.10749 36.8012 10.3773 36.8012H36.4348C37.7047 36.8012 38.734 35.7718 38.734 34.502V31.4364C38.734 30.1666 37.7047 29.1372 36.4348 29.1372ZM37.2012 34.502C37.2012 34.9252 36.8581 35.2684 36.4348 35.2684H10.3773C9.95407 35.2684 9.61092 34.9252 9.61092 34.502V31.4364C9.61092 31.0132 9.95407 30.67 10.3773 30.67H36.4348C36.8581 30.67 37.2012 31.0132 37.2012 31.4364V34.502Z" fill="url(#paint1_linear_266_5576)"/>
<path d="M34.312 31.4829C33.4953 31.488 32.8359 32.1514 32.8359 32.9681C32.8398 33.7905 33.5081 34.4546 34.3304 34.4534C35.1507 34.4483 35.8116 33.7793 35.8065 32.9589C35.8014 32.1387 35.1324 31.4779 34.312 31.4829ZM34.3304 33.0165C34.3074 33.0165 34.2921 32.9912 34.2921 32.9682L34.3304 32.9207V33.0165Z" fill="url(#paint2_linear_266_5576)"/>
<path d="M26.326 32.2012H11.7644C11.3412 32.2012 10.998 32.5443 10.998 32.9676C10.998 33.3908 11.3412 33.734 11.7644 33.734H26.326C26.7492 33.734 27.0924 33.3908 27.0924 32.9676C27.0924 32.5443 26.7493 32.2012 26.326 32.2012Z" fill="url(#paint3_linear_266_5576)"/>
<path d="M31.055 32.2012H29.0164C28.5932 32.2012 28.25 32.5443 28.25 32.9676C28.25 33.3908 28.5932 33.734 29.0164 33.734H31.055C31.4783 33.734 31.8214 33.3908 31.8214 32.9676C31.8214 32.5443 31.4784 32.2012 31.055 32.2012Z" fill="url(#paint4_linear_266_5576)"/>
<path d="M36.4348 38.3359H10.3773C9.10749 38.3359 8.07812 39.3653 8.07812 40.6351V43.7007C8.07812 44.9705 9.10749 45.9999 10.3773 45.9999H36.4348C37.7047 45.9999 38.734 44.9705 38.734 43.7007V40.6351C38.734 39.3653 37.7047 38.3359 36.4348 38.3359ZM37.2012 43.7007C37.2012 44.124 36.8581 44.4671 36.4348 44.4671H10.3773C9.95407 44.4671 9.61092 44.124 9.61092 43.7007V40.6351C9.61092 40.2119 9.95407 39.8687 10.3773 39.8687H36.4348C36.8581 39.8687 37.2012 40.2119 37.2012 40.6351V43.7007Z" fill="url(#paint5_linear_266_5576)"/>
<path d="M34.312 40.6778C33.4953 40.6828 32.8359 41.3463 32.8359 42.1629C32.8398 42.9853 33.5081 43.6495 34.3304 43.6482C35.1507 43.6431 35.8116 42.9741 35.8065 42.1538C35.8014 41.3335 35.1324 40.6727 34.312 40.6778ZM34.3304 42.2113C34.3074 42.2113 34.2921 42.186 34.2921 42.163L34.3304 42.1155V42.2113Z" fill="url(#paint6_linear_266_5576)"/>
<path d="M26.326 41.396H11.7644C11.3412 41.396 10.998 41.7392 10.998 42.1624C10.998 42.5856 11.3412 42.9288 11.7644 42.9288H26.326C26.7492 42.9288 27.0924 42.5856 27.0924 42.1624C27.0924 41.7392 26.7493 41.396 26.326 41.396Z" fill="url(#paint7_linear_266_5576)"/>
<path d="M31.055 41.396H29.0164C28.5932 41.396 28.25 41.7392 28.25 42.1624C28.25 42.5856 28.5932 42.9288 29.0164 42.9288H31.055C31.4783 42.9288 31.8214 42.5856 31.8214 42.1624C31.8214 41.7392 31.4784 41.396 31.055 41.396Z" fill="url(#paint8_linear_266_5576)"/>
<path d="M36.4407 19.9375H10.3832C9.11335 19.9375 8.08398 20.9669 8.08398 22.2367V25.3023C8.08398 26.5721 9.11335 27.6015 10.3832 27.6015H36.4407C37.7105 27.6015 38.7399 26.5721 38.7399 25.3023V22.2367C38.7399 20.9669 37.7105 19.9375 36.4407 19.9375ZM37.2071 25.3023C37.2071 25.7255 36.8639 26.0687 36.4407 26.0687H10.3832C9.95993 26.0687 9.61678 25.7255 9.61678 25.3023V22.2367C9.61678 21.8134 9.95993 21.4703 10.3832 21.4703H36.4407C36.8639 21.4703 37.2071 21.8134 37.2071 22.2367V25.3023Z" fill="url(#paint9_linear_266_5576)"/>
<path d="M35.5685 23.5588C35.4207 22.7446 34.641 22.2042 33.8268 22.352C33.441 22.4219 33.0981 22.6403 32.8715 22.9602C32.644 23.2813 32.5551 23.6803 32.6247 24.0676C32.7537 24.7811 33.3744 25.3001 34.0993 25.3008C34.183 25.3007 34.2665 25.2938 34.3491 25.2801C34.7427 25.2151 35.0934 24.994 35.3217 24.667C35.55 24.3458 35.639 23.9463 35.5685 23.5588ZM34.0602 23.8285L34.0947 23.768L34.0985 23.8638C34.064 23.8638 34.0617 23.8446 34.0602 23.8285Z" fill="url(#paint10_linear_266_5576)"/>
<path d="M26.1717 23.0034H11.6101C11.1869 23.0034 10.8438 23.3466 10.8438 23.7698C10.8438 24.1931 11.1869 24.5362 11.6101 24.5362H26.1717C26.5949 24.5362 26.9381 24.1931 26.9381 23.7698C26.9381 23.3466 26.595 23.0034 26.1717 23.0034Z" fill="url(#paint11_linear_266_5576)"/>
<path d="M30.5648 23.0034H28.5262C28.1029 23.0034 27.7598 23.3466 27.7598 23.7698C27.7598 24.1931 28.1029 24.5362 28.5262 24.5362H30.5648C30.988 24.5362 31.3312 24.1931 31.3312 23.7698C31.3312 23.3466 30.9881 23.0034 30.5648 23.0034Z" fill="url(#paint12_linear_266_5576)"/>
<path d="M20.1198 12.5001L17.8206 10.2009C17.5214 9.90177 17.0362 9.90177 16.737 10.2009L14.4378 12.5001C14.1437 12.8046 14.1522 13.2898 14.4566 13.5838C14.7536 13.8707 15.2245 13.8707 15.5214 13.5838L16.5124 12.5929V17.6404C16.5124 18.0636 16.8556 18.4068 17.2788 18.4068C17.702 18.4068 18.0452 18.0636 18.0452 17.6404V12.5929L19.0361 13.5838C19.3406 13.8778 19.8258 13.8694 20.1198 13.565C20.4067 13.268 20.4067 12.7971 20.1198 12.5001Z" fill="url(#paint13_linear_266_5576)"/>
<path d="M32.3686 14.7995C32.0717 14.5127 31.6008 14.5127 31.3037 14.7995L30.3128 15.7905V10.743C30.3128 10.3197 29.9696 9.97656 29.5464 9.97656C29.1231 9.97656 28.78 10.3197 28.78 10.743V15.7905L27.789 14.7995C27.4846 14.5054 26.9995 14.5138 26.7054 14.8183C26.4185 15.1153 26.4185 15.5861 26.7054 15.8832L29.0045 18.1824C29.3038 18.4816 29.789 18.4816 30.0882 18.1824L32.3874 15.8832C32.6815 15.5787 32.6731 15.0935 32.3686 14.7995Z" fill="url(#paint14_linear_266_5576)"/>
<defs>
<linearGradient id="paint0_linear_266_5576" x1="0.5" y1="11.419" x2="46.3267" y2="11.419" gradientUnits="userSpaceOnUse">
<stop stop-color="#00469F"/>
<stop offset="1" stop-color="#1E79D6"/>
</linearGradient>
<linearGradient id="paint1_linear_266_5576" x1="8.07813" y1="33.0728" x2="38.734" y2="33.0728" gradientUnits="userSpaceOnUse">
<stop stop-color="#00469F"/>
<stop offset="1" stop-color="#1E79D6"/>
</linearGradient>
<linearGradient id="paint2_linear_266_5576" x1="32.8359" y1="33.0083" x2="35.8065" y2="33.0083" gradientUnits="userSpaceOnUse">
<stop stop-color="#00469F"/>
<stop offset="1" stop-color="#1E79D6"/>
</linearGradient>
<linearGradient id="paint3_linear_266_5576" x1="10.998" y1="32.9883" x2="27.0924" y2="32.9883" gradientUnits="userSpaceOnUse">
<stop stop-color="#00469F"/>
<stop offset="1" stop-color="#1E79D6"/>
</linearGradient>
<linearGradient id="paint4_linear_266_5576" x1="28.25" y1="32.9883" x2="31.8214" y2="32.9883" gradientUnits="userSpaceOnUse">
<stop stop-color="#00469F"/>
<stop offset="1" stop-color="#1E79D6"/>
</linearGradient>
<linearGradient id="paint5_linear_266_5576" x1="8.07813" y1="42.2715" x2="38.734" y2="42.2715" gradientUnits="userSpaceOnUse">
<stop stop-color="#00469F"/>
<stop offset="1" stop-color="#1E79D6"/>
</linearGradient>
<linearGradient id="paint6_linear_266_5576" x1="32.8359" y1="42.2031" x2="35.8065" y2="42.2031" gradientUnits="userSpaceOnUse">
<stop stop-color="#00469F"/>
<stop offset="1" stop-color="#1E79D6"/>
</linearGradient>
<linearGradient id="paint7_linear_266_5576" x1="10.998" y1="42.1831" x2="27.0924" y2="42.1831" gradientUnits="userSpaceOnUse">
<stop stop-color="#00469F"/>
<stop offset="1" stop-color="#1E79D6"/>
</linearGradient>
<linearGradient id="paint8_linear_266_5576" x1="28.25" y1="42.1831" x2="31.8214" y2="42.1831" gradientUnits="userSpaceOnUse">
<stop stop-color="#00469F"/>
<stop offset="1" stop-color="#1E79D6"/>
</linearGradient>
<linearGradient id="paint9_linear_266_5576" x1="8.08398" y1="23.8731" x2="38.7399" y2="23.8731" gradientUnits="userSpaceOnUse">
<stop stop-color="#00469F"/>
<stop offset="1" stop-color="#1E79D6"/>
</linearGradient>
<linearGradient id="paint10_linear_266_5576" x1="32.6016" y1="23.8544" x2="35.5921" y2="23.8544" gradientUnits="userSpaceOnUse">
<stop stop-color="#00469F"/>
<stop offset="1" stop-color="#1E79D6"/>
</linearGradient>
<linearGradient id="paint11_linear_266_5576" x1="10.8438" y1="23.7905" x2="26.9381" y2="23.7905" gradientUnits="userSpaceOnUse">
<stop stop-color="#00469F"/>
<stop offset="1" stop-color="#1E79D6"/>
</linearGradient>
<linearGradient id="paint12_linear_266_5576" x1="27.7598" y1="23.7905" x2="31.3312" y2="23.7905" gradientUnits="userSpaceOnUse">
<stop stop-color="#00469F"/>
<stop offset="1" stop-color="#1E79D6"/>
</linearGradient>
<linearGradient id="paint13_linear_266_5576" x1="14.2227" y1="14.3056" x2="20.3349" y2="14.3056" gradientUnits="userSpaceOnUse">
<stop stop-color="#00469F"/>
<stop offset="1" stop-color="#1E79D6"/>
</linearGradient>
<linearGradient id="paint14_linear_266_5576" x1="26.4902" y1="14.3056" x2="32.6026" y2="14.3056" gradientUnits="userSpaceOnUse">
<stop stop-color="#00469F"/>
<stop offset="1" stop-color="#1E79D6"/>
</linearGradient>
</defs>
</svg>
