<svg width="51" height="52" viewBox="0 0 51 52" fill="none" xmlns="http://www.w3.org/2000/svg">
<mask id="path-1-inside-1_266_5564" fill="white">
<path fill-rule="evenodd" clip-rule="evenodd" d="M41.9577 4.75C43.803 4.75 45.4767 5.80485 46.2918 7.42835C48.8767 7.6111 51 9.89505 51 12.5785C51 15.3843 48.8852 17.5 46.0793 17.5H43.0993C44.3759 20.1418 45.05 23.0513 45.05 26C45.05 31.2572 42.9258 36.2824 39.1875 39.951C39.6567 40.3607 40.0545 40.8563 40.3418 41.4283C42.9267 41.6102 45.05 43.895 45.05 46.5785C45.05 49.3843 42.9352 51.5 40.1285 51.5H24.3856C22.6567 51.5 21.25 50.0933 21.25 48.3643C21.25 47.0094 22.1178 45.8636 23.3223 45.4259C13.5643 44.3387 5.95 36.0436 5.95 26C5.95 21.2493 7.61685 16.792 10.6819 13.25H3.13565C1.40675 13.25 0 11.8432 0 10.1143C0 8.3846 1.40675 6.97785 3.13565 6.97785H3.4289V6.4942C3.4289 3.81925 5.60575 1.64325 8.27985 1.64325C9.22505 1.64325 10.1286 1.91185 10.9029 2.4125C11.8099 1.2259 13.2328 0.5 14.7577 0.5C16.603 0.5 18.2767 1.55485 19.091 3.1792C21.0825 3.31945 22.7961 4.71005 23.4795 6.5673C26.3763 6.26555 29.1915 6.6013 31.8622 7.52355C32.7513 6.52565 34.0416 5.89325 35.4799 5.89325C36.425 5.89325 37.3286 6.16185 38.1029 6.6625C39.0099 5.4759 40.4328 4.75 41.9577 4.75ZM26.35 15.8H27.5646C27.3394 15.3673 27.2 14.8837 27.2 14.3644C27.2 12.6346 28.6067 11.2278 30.3356 11.2278H30.6289V10.7442C30.6289 10.1322 30.7479 9.5474 30.9561 9.00765C29.4644 8.5257 27.9267 8.24095 26.35 8.1687V15.8ZM3.13565 8.67785C2.3443 8.67785 1.7 9.32215 1.7 10.1143C1.7 10.9057 2.3443 11.55 3.13565 11.55H18.8793C20.7153 11.55 22.1 10.1653 22.1 8.3285C22.1 6.45255 20.57 4.8673 18.7578 4.8673H18.5257C18.1662 4.8673 17.8458 4.64035 17.725 4.3012C17.2796 3.04405 16.0871 2.2 14.7577 2.2C13.5337 2.2 12.4108 2.92165 11.8966 4.03855C11.781 4.291 11.5464 4.4712 11.2718 4.51965C10.9973 4.56895 10.7151 4.478 10.5196 4.27995C9.92375 3.6756 9.12815 3.34325 8.27985 3.34325C6.54245 3.34325 5.1289 4.7568 5.1289 6.4942V7.82785C5.1289 8.29705 4.74895 8.67785 4.2789 8.67785H3.13565ZM23.8 8.3285C23.8 11.1343 21.6852 13.25 18.8793 13.25V13.2508H13.0347C12.2221 14.0447 11.4852 14.893 10.8485 15.8008H16.0522C16.581 15.8002 16.0982 15.8001 15.9776 15.8C15.9616 15.8 15.952 15.8 15.952 15.8L16.0286 15.8H17.85H17.8636H24.65V8.17975C24.3661 8.19335 24.0813 8.2129 23.7957 8.24095C23.7961 8.2532 23.7969 8.26546 23.7978 8.27777V8.27781L23.7978 8.27788C23.7989 8.29458 23.8 8.3114 23.8 8.3285ZM34.8321 26.85H33.0998C32.7063 30.3894 29.8902 33.2063 26.35 33.5998V34.5H33.7008C34.3816 32.1472 34.765 29.5521 34.8321 26.85ZM41.185 34.5C42.4541 32.1599 43.1978 29.5496 43.327 26.85H36.5322C36.4684 29.5334 36.108 32.1225 35.4654 34.5H41.185ZM17.8899 36.2C19.4438 40.3624 21.8934 43.2643 24.65 43.765V36.2H17.8899ZM16.1738 26.85C16.2452 29.5904 16.6481 32.1939 17.3213 34.5H24.6508V33.5998C21.1106 33.2063 18.2945 30.3894 17.901 26.85H16.1738ZM14.4619 26.85H7.69335C7.82425 29.6065 8.56035 32.2075 9.8073 34.5H15.5117C14.8937 32.1803 14.5257 29.5963 14.4619 26.85ZM9.80305 17.5C8.53315 19.8315 7.81915 22.43 7.6925 25.15H14.4678C14.5316 22.4665 14.892 19.8774 15.5346 17.5H9.80305ZM19.55 26C19.55 29.281 22.2199 31.95 25.5 31.95C28.7801 31.95 31.45 29.281 31.45 26C31.45 22.719 28.7801 20.05 25.5 20.05C22.2199 20.05 19.55 22.719 19.55 26ZM17.9001 25.15C18.2937 21.6106 21.1097 18.7937 24.65 18.4001V17.5H17.2992C16.6183 19.8528 16.235 22.4478 16.1678 25.15H17.9001ZM16.0242 36.2H10.8723C13.0594 39.3263 16.218 41.719 19.9095 42.9405C18.3099 41.311 16.9736 38.9956 16.0242 36.2ZM40.0086 43.1173H39.7766C39.4162 43.1173 39.0957 42.8903 38.975 42.5512C38.5296 41.294 37.3371 40.45 36.0077 40.45C34.7837 40.45 33.6608 41.1716 33.1466 42.2885C33.031 42.541 32.7964 42.7212 32.5219 42.7696C32.2473 42.8181 31.9651 42.728 31.7696 42.5299C31.1737 41.9256 30.3781 41.5933 29.5298 41.5933C27.7924 41.5933 26.3789 43.0068 26.3789 44.7442V46.0778C26.3789 46.547 25.9989 46.9278 25.5289 46.9278H24.3856C23.5943 46.9278 22.95 47.573 22.95 48.3643C22.95 49.1557 23.5943 49.8 24.3856 49.8H40.1293C41.9653 49.8 43.35 48.4153 43.35 46.5785C43.35 44.7025 41.82 43.1173 40.0086 43.1173ZM32.1529 40.6625C33.0599 39.4759 34.4828 38.75 36.0077 38.75C36.5831 38.75 37.1373 38.863 37.6584 39.0526C38.5891 38.1847 39.417 37.2276 40.1344 36.1992H34.9478C34.8126 36.5952 34.6707 36.9854 34.5185 37.3653L32.94 36.7338C32.9833 36.6263 33.0229 36.5152 33.0626 36.4039L33.0627 36.4036L33.0628 36.4034C33.087 36.3354 33.1113 36.2673 33.1364 36.2H26.35V41.09C27.2025 40.3471 28.3126 39.8932 29.5298 39.8932C30.475 39.8932 31.3786 40.1618 32.1529 40.6625ZM36.5287 25.15H43.3219C43.1936 22.4716 42.4618 19.8545 41.1842 17.5H30.6H30.3356H26.35V18.401C29.8902 18.7945 32.7063 21.6115 33.0998 25.1508H34.8287C34.7794 23.1627 34.5661 21.223 34.1725 19.3776L35.836 19.0232C36.2533 20.9833 36.4786 23.0428 36.5287 25.15ZM30.6 15.8H46.0793C47.9153 15.8 49.3 14.4153 49.3 12.5785C49.3 10.7025 47.77 9.1173 45.9578 9.1173H45.7257C45.3662 9.1173 45.0457 8.89035 44.925 8.5512C44.4796 7.29405 43.2871 6.45 41.9577 6.45C40.7337 6.45 39.6108 7.17165 39.0966 8.28855C38.981 8.541 38.7464 8.7212 38.4719 8.76965C38.1982 8.81895 37.9159 8.72885 37.7196 8.52995C37.1237 7.9256 36.3282 7.59325 35.4799 7.59325C33.7425 7.59325 32.3289 9.0068 32.3289 10.7442V12.0778C32.3289 12.547 31.9489 12.9278 31.4789 12.9278H30.3356C29.5443 12.9278 28.9 13.573 28.9 14.3644C28.9 15.1557 29.5443 15.8 30.3356 15.8H30.6ZM45.0491 11.5491V9.84905C46.4805 9.84905 47.6441 11.0136 47.6441 12.4441H45.9441C45.9441 11.9503 45.5421 11.5491 45.0491 11.5491ZM39.1009 45.6838C39.5939 45.6838 39.996 46.085 39.996 46.5788H41.696C41.696 45.1483 40.5323 43.9838 39.1009 43.9838V45.6838ZM17.8045 8.10826V6.40826C19.2359 6.40826 20.3995 7.57276 20.3995 9.00331H18.6995C18.6995 8.50946 18.2975 8.10826 17.8045 8.10826Z"/>
</mask>
<path fill-rule="evenodd" clip-rule="evenodd" d="M41.9577 4.75C43.803 4.75 45.4767 5.80485 46.2918 7.42835C48.8767 7.6111 51 9.89505 51 12.5785C51 15.3843 48.8852 17.5 46.0793 17.5H43.0993C44.3759 20.1418 45.05 23.0513 45.05 26C45.05 31.2572 42.9258 36.2824 39.1875 39.951C39.6567 40.3607 40.0545 40.8563 40.3418 41.4283C42.9267 41.6102 45.05 43.895 45.05 46.5785C45.05 49.3843 42.9352 51.5 40.1285 51.5H24.3856C22.6567 51.5 21.25 50.0933 21.25 48.3643C21.25 47.0094 22.1178 45.8636 23.3223 45.4259C13.5643 44.3387 5.95 36.0436 5.95 26C5.95 21.2493 7.61685 16.792 10.6819 13.25H3.13565C1.40675 13.25 0 11.8432 0 10.1143C0 8.3846 1.40675 6.97785 3.13565 6.97785H3.4289V6.4942C3.4289 3.81925 5.60575 1.64325 8.27985 1.64325C9.22505 1.64325 10.1286 1.91185 10.9029 2.4125C11.8099 1.2259 13.2328 0.5 14.7577 0.5C16.603 0.5 18.2767 1.55485 19.091 3.1792C21.0825 3.31945 22.7961 4.71005 23.4795 6.5673C26.3763 6.26555 29.1915 6.6013 31.8622 7.52355C32.7513 6.52565 34.0416 5.89325 35.4799 5.89325C36.425 5.89325 37.3286 6.16185 38.1029 6.6625C39.0099 5.4759 40.4328 4.75 41.9577 4.75ZM26.35 15.8H27.5646C27.3394 15.3673 27.2 14.8837 27.2 14.3644C27.2 12.6346 28.6067 11.2278 30.3356 11.2278H30.6289V10.7442C30.6289 10.1322 30.7479 9.5474 30.9561 9.00765C29.4644 8.5257 27.9267 8.24095 26.35 8.1687V15.8ZM3.13565 8.67785C2.3443 8.67785 1.7 9.32215 1.7 10.1143C1.7 10.9057 2.3443 11.55 3.13565 11.55H18.8793C20.7153 11.55 22.1 10.1653 22.1 8.3285C22.1 6.45255 20.57 4.8673 18.7578 4.8673H18.5257C18.1662 4.8673 17.8458 4.64035 17.725 4.3012C17.2796 3.04405 16.0871 2.2 14.7577 2.2C13.5337 2.2 12.4108 2.92165 11.8966 4.03855C11.781 4.291 11.5464 4.4712 11.2718 4.51965C10.9973 4.56895 10.7151 4.478 10.5196 4.27995C9.92375 3.6756 9.12815 3.34325 8.27985 3.34325C6.54245 3.34325 5.1289 4.7568 5.1289 6.4942V7.82785C5.1289 8.29705 4.74895 8.67785 4.2789 8.67785H3.13565ZM23.8 8.3285C23.8 11.1343 21.6852 13.25 18.8793 13.25V13.2508H13.0347C12.2221 14.0447 11.4852 14.893 10.8485 15.8008H16.0522C16.581 15.8002 16.0982 15.8001 15.9776 15.8C15.9616 15.8 15.952 15.8 15.952 15.8L16.0286 15.8H17.85H17.8636H24.65V8.17975C24.3661 8.19335 24.0813 8.2129 23.7957 8.24095C23.7961 8.2532 23.7969 8.26546 23.7978 8.27777V8.27781L23.7978 8.27788C23.7989 8.29458 23.8 8.3114 23.8 8.3285ZM34.8321 26.85H33.0998C32.7063 30.3894 29.8902 33.2063 26.35 33.5998V34.5H33.7008C34.3816 32.1472 34.765 29.5521 34.8321 26.85ZM41.185 34.5C42.4541 32.1599 43.1978 29.5496 43.327 26.85H36.5322C36.4684 29.5334 36.108 32.1225 35.4654 34.5H41.185ZM17.8899 36.2C19.4438 40.3624 21.8934 43.2643 24.65 43.765V36.2H17.8899ZM16.1738 26.85C16.2452 29.5904 16.6481 32.1939 17.3213 34.5H24.6508V33.5998C21.1106 33.2063 18.2945 30.3894 17.901 26.85H16.1738ZM14.4619 26.85H7.69335C7.82425 29.6065 8.56035 32.2075 9.8073 34.5H15.5117C14.8937 32.1803 14.5257 29.5963 14.4619 26.85ZM9.80305 17.5C8.53315 19.8315 7.81915 22.43 7.6925 25.15H14.4678C14.5316 22.4665 14.892 19.8774 15.5346 17.5H9.80305ZM19.55 26C19.55 29.281 22.2199 31.95 25.5 31.95C28.7801 31.95 31.45 29.281 31.45 26C31.45 22.719 28.7801 20.05 25.5 20.05C22.2199 20.05 19.55 22.719 19.55 26ZM17.9001 25.15C18.2937 21.6106 21.1097 18.7937 24.65 18.4001V17.5H17.2992C16.6183 19.8528 16.235 22.4478 16.1678 25.15H17.9001ZM16.0242 36.2H10.8723C13.0594 39.3263 16.218 41.719 19.9095 42.9405C18.3099 41.311 16.9736 38.9956 16.0242 36.2ZM40.0086 43.1173H39.7766C39.4162 43.1173 39.0957 42.8903 38.975 42.5512C38.5296 41.294 37.3371 40.45 36.0077 40.45C34.7837 40.45 33.6608 41.1716 33.1466 42.2885C33.031 42.541 32.7964 42.7212 32.5219 42.7696C32.2473 42.8181 31.9651 42.728 31.7696 42.5299C31.1737 41.9256 30.3781 41.5933 29.5298 41.5933C27.7924 41.5933 26.3789 43.0068 26.3789 44.7442V46.0778C26.3789 46.547 25.9989 46.9278 25.5289 46.9278H24.3856C23.5943 46.9278 22.95 47.573 22.95 48.3643C22.95 49.1557 23.5943 49.8 24.3856 49.8H40.1293C41.9653 49.8 43.35 48.4153 43.35 46.5785C43.35 44.7025 41.82 43.1173 40.0086 43.1173ZM32.1529 40.6625C33.0599 39.4759 34.4828 38.75 36.0077 38.75C36.5831 38.75 37.1373 38.863 37.6584 39.0526C38.5891 38.1847 39.417 37.2276 40.1344 36.1992H34.9478C34.8126 36.5952 34.6707 36.9854 34.5185 37.3653L32.94 36.7338C32.9833 36.6263 33.0229 36.5152 33.0626 36.4039L33.0627 36.4036L33.0628 36.4034C33.087 36.3354 33.1113 36.2673 33.1364 36.2H26.35V41.09C27.2025 40.3471 28.3126 39.8932 29.5298 39.8932C30.475 39.8932 31.3786 40.1618 32.1529 40.6625ZM36.5287 25.15H43.3219C43.1936 22.4716 42.4618 19.8545 41.1842 17.5H30.6H30.3356H26.35V18.401C29.8902 18.7945 32.7063 21.6115 33.0998 25.1508H34.8287C34.7794 23.1627 34.5661 21.223 34.1725 19.3776L35.836 19.0232C36.2533 20.9833 36.4786 23.0428 36.5287 25.15ZM30.6 15.8H46.0793C47.9153 15.8 49.3 14.4153 49.3 12.5785C49.3 10.7025 47.77 9.1173 45.9578 9.1173H45.7257C45.3662 9.1173 45.0457 8.89035 44.925 8.5512C44.4796 7.29405 43.2871 6.45 41.9577 6.45C40.7337 6.45 39.6108 7.17165 39.0966 8.28855C38.981 8.541 38.7464 8.7212 38.4719 8.76965C38.1982 8.81895 37.9159 8.72885 37.7196 8.52995C37.1237 7.9256 36.3282 7.59325 35.4799 7.59325C33.7425 7.59325 32.3289 9.0068 32.3289 10.7442V12.0778C32.3289 12.547 31.9489 12.9278 31.4789 12.9278H30.3356C29.5443 12.9278 28.9 13.573 28.9 14.3644C28.9 15.1557 29.5443 15.8 30.3356 15.8H30.6ZM45.0491 11.5491V9.84905C46.4805 9.84905 47.6441 11.0136 47.6441 12.4441H45.9441C45.9441 11.9503 45.5421 11.5491 45.0491 11.5491ZM39.1009 45.6838C39.5939 45.6838 39.996 46.085 39.996 46.5788H41.696C41.696 45.1483 40.5323 43.9838 39.1009 43.9838V45.6838ZM17.8045 8.10826V6.40826C19.2359 6.40826 20.3995 7.57276 20.3995 9.00331H18.6995C18.6995 8.50946 18.2975 8.10826 17.8045 8.10826Z" fill="url(#paint0_linear_266_5564)"/>
<path d="M46.2918 7.42835L46.1131 7.51809L46.1642 7.61982L46.2777 7.62785L46.2918 7.42835ZM43.0993 17.5V17.3H42.7805L42.9192 17.587L43.0993 17.5ZM39.1875 39.951L39.0475 39.8083L38.8933 39.9596L39.056 40.1017L39.1875 39.951ZM40.3418 41.4283L40.1631 41.5181L40.2142 41.6199L40.3278 41.6279L40.3418 41.4283ZM23.3223 45.4259L23.3906 45.6139L23.3444 45.2271L23.3223 45.4259ZM10.6819 13.25L10.8332 13.3809L11.1195 13.05H10.6819V13.25ZM3.4289 6.97785V7.17785H3.6289V6.97785H3.4289ZM10.9029 2.4125L10.7944 2.58045L10.9496 2.68082L11.0618 2.53395L10.9029 2.4125ZM19.091 3.1792L18.9122 3.26883L18.9633 3.3707L19.0769 3.37871L19.091 3.1792ZM23.4795 6.5673L23.2919 6.63637L23.3456 6.78234L23.5003 6.76622L23.4795 6.5673ZM31.8622 7.52355L31.797 7.71259L31.9229 7.75609L32.0116 7.6566L31.8622 7.52355ZM38.1029 6.6625L37.9944 6.83045L38.1496 6.93082L38.2618 6.78395L38.1029 6.6625ZM27.5646 15.8V16H27.8943L27.742 15.7076L27.5646 15.8ZM26.35 15.8H26.15V16H26.35V15.8ZM30.6289 11.2278V11.4278H30.8289V11.2278H30.6289ZM30.9561 9.00765L31.1427 9.07964L31.2189 8.88235L31.0176 8.81734L30.9561 9.00765ZM26.35 8.1687L26.3592 7.96891L26.15 7.95933V8.1687H26.35ZM17.725 4.3012L17.5365 4.36799L17.5366 4.36826L17.725 4.3012ZM11.8966 4.03855L11.7149 3.95491L11.7148 3.95528L11.8966 4.03855ZM11.2718 4.51965L11.2371 4.32269L11.2365 4.3228L11.2718 4.51965ZM10.5196 4.27995L10.3772 4.42037L10.3773 4.42045L10.5196 4.27995ZM18.8793 13.25V13.05H18.6793V13.25H18.8793ZM18.8793 13.2508V13.4508H19.0793V13.2508H18.8793ZM13.0347 13.2508V13.0508H12.9533L12.895 13.1078L13.0347 13.2508ZM10.8485 15.8008L10.6848 15.686L10.464 16.0008H10.8485V15.8008ZM16.0522 15.8008V16.0008H16.0525L16.0522 15.8008ZM15.9776 15.8L15.9776 16H15.9776L15.9776 15.8ZM15.952 15.8L15.952 15.6L15.752 15.6V15.8H15.952ZM16.0286 15.8V15.6H16.0286L16.0286 15.8ZM24.65 15.8V16H24.85V15.8H24.65ZM24.65 8.17975H24.85V7.96994L24.6404 7.97998L24.65 8.17975ZM23.7957 8.24095L23.7762 8.04191L23.5903 8.06016L23.5958 8.24683L23.7957 8.24095ZM23.7978 8.27777H23.9982L23.9973 8.26442L23.7978 8.27777ZM23.7978 8.27781H23.5978V8.28631L23.5985 8.29477L23.7978 8.27781ZM23.7978 8.27788L23.9973 8.26454L23.997 8.26092L23.7978 8.27788ZM33.0998 26.85V26.65H32.9209L32.9011 26.8279L33.0998 26.85ZM34.8321 26.85L35.0321 26.855L35.0372 26.65H34.8321V26.85ZM26.35 33.5998L26.3279 33.4011L26.15 33.4208V33.5998H26.35ZM26.35 34.5H26.15V34.7H26.35V34.5ZM33.7008 34.5V34.7H33.8511L33.8929 34.5556L33.7008 34.5ZM43.327 26.85L43.5268 26.8596L43.5368 26.65H43.327V26.85ZM41.185 34.5V34.7H41.3041L41.3609 34.5953L41.185 34.5ZM36.5322 26.85V26.65H36.3368L36.3322 26.8452L36.5322 26.85ZM35.4654 34.5L35.2723 34.4478L35.2042 34.7H35.4654V34.5ZM24.65 43.765L24.6143 43.9618L24.85 44.0046V43.765H24.65ZM17.8899 36.2V36H17.6018L17.7026 36.2699L17.8899 36.2ZM24.65 36.2H24.85V36H24.65V36.2ZM17.3213 34.5L17.1293 34.556L17.1713 34.7H17.3213V34.5ZM16.1738 26.85V26.65H15.9685L15.9739 26.8552L16.1738 26.85ZM24.6508 34.5V34.7H24.8508V34.5H24.6508ZM24.6508 33.5998H24.8508V33.4208L24.6729 33.4011L24.6508 33.5998ZM17.901 26.85L18.0998 26.8279L18.08 26.65H17.901V26.85ZM7.69335 26.85V26.65H7.48363L7.49357 26.8595L7.69335 26.85ZM14.4619 26.85L14.6618 26.8454L14.6573 26.65H14.4619V26.85ZM9.8073 34.5L9.63161 34.5956L9.68841 34.7H9.8073V34.5ZM15.5117 34.5V34.7H15.7719L15.7049 34.4485L15.5117 34.5ZM7.6925 25.15L7.49272 25.1407L7.48297 25.35H7.6925V25.15ZM9.80305 17.5V17.3H9.68424L9.62741 17.4043L9.80305 17.5ZM14.4678 25.15V25.35H14.6632L14.6678 25.1547L14.4678 25.15ZM15.5346 17.5L15.7277 17.5522L15.7958 17.3H15.5346V17.5ZM24.65 18.4001L24.6721 18.5989L24.85 18.5791V18.4001H24.65ZM17.9001 25.15V25.35H18.0791L18.0989 25.1721L17.9001 25.15ZM24.65 17.5H24.85V17.3H24.65V17.5ZM17.2992 17.5V17.3H17.1489L17.1071 17.4444L17.2992 17.5ZM16.1678 25.15L15.9679 25.145L15.9628 25.35H16.1678V25.15ZM10.8723 36.2V36H10.4884L10.7085 36.3146L10.8723 36.2ZM16.0242 36.2L16.2136 36.1357L16.1675 36H16.0242V36.2ZM19.9095 42.9405L19.8467 43.1304L20.0523 42.8004L19.9095 42.9405ZM38.975 42.5512L38.7865 42.618L38.7866 42.6183L38.975 42.5512ZM33.1466 42.2885L32.9649 42.2049L32.9648 42.2053L33.1466 42.2885ZM32.5219 42.7696L32.5566 42.9666H32.5566L32.5219 42.7696ZM31.7696 42.5299L31.6272 42.6704L31.6273 42.6704L31.7696 42.5299ZM32.1529 40.6625L32.0444 40.8305L32.1996 40.9308L32.3118 40.784L32.1529 40.6625ZM37.6584 39.0526L37.59 39.2405L37.7052 39.2824L37.7948 39.1989L37.6584 39.0526ZM40.1344 36.1992L40.2985 36.3136L40.5178 35.9991H40.1344V36.1992ZM34.9478 36.1992V35.9991H34.8047L34.7585 36.1346L34.9478 36.1992ZM34.5185 37.3653L34.4442 37.551L34.6298 37.6253L34.7042 37.4397L34.5185 37.3653ZM32.94 36.7338L32.7545 36.6592L32.6798 36.8451L32.8658 36.9195L32.94 36.7338ZM33.0626 36.4039L32.8756 36.3327L32.8742 36.3367L33.0626 36.4039ZM33.0628 36.4034L33.2497 36.4746L33.2511 36.4706L33.0628 36.4034ZM33.1364 36.2L33.3238 36.2699L33.4245 36H33.1364V36.2ZM26.35 36.2V36H26.15V36.2H26.35ZM26.35 41.09H26.15V41.5296L26.4814 41.2408L26.35 41.09ZM43.3219 25.15V25.35H43.5318L43.5217 25.1404L43.3219 25.15ZM36.5287 25.15L36.3288 25.1548L36.3335 25.35H36.5287V25.15ZM41.1842 17.5L41.36 17.4046L41.3032 17.3H41.1842V17.5ZM26.35 17.5V17.3H26.15V17.5H26.35ZM26.35 18.401H26.15V18.58L26.3279 18.5998L26.35 18.401ZM33.0998 25.1508L32.9011 25.173L32.9209 25.3508H33.0998V25.1508ZM34.8287 25.1508V25.3508H35.0338L35.0287 25.1459L34.8287 25.1508ZM34.1725 19.3776L34.1309 19.182L33.9352 19.2237L33.9769 19.4194L34.1725 19.3776ZM35.836 19.0232L36.0316 18.9815L35.99 18.7859L35.7943 18.8276L35.836 19.0232ZM44.925 8.5512L44.7365 8.61799L44.7366 8.61826L44.925 8.5512ZM39.0966 8.28855L38.9149 8.20491L38.9148 8.20528L39.0966 8.28855ZM38.4719 8.76965L38.4371 8.57269L38.4364 8.57282L38.4719 8.76965ZM37.7196 8.52995L37.5772 8.67037L37.5773 8.67045L37.7196 8.52995ZM45.0491 9.84905V9.64905H44.8491V9.84905H45.0491ZM45.0491 11.5491H44.8491V11.7491H45.0491V11.5491ZM47.6441 12.4441V12.6441H47.8441V12.4441H47.6441ZM45.9441 12.4441H45.7441V12.6441H45.9441V12.4441ZM39.996 46.5788H39.796V46.7788H39.996V46.5788ZM39.1009 45.6838H38.9009V45.8838H39.1009V45.6838ZM41.696 46.5788V46.7788H41.896V46.5788H41.696ZM39.1009 43.9838V43.7838H38.9009V43.9838H39.1009ZM17.8045 6.40826V6.20826H17.6045V6.40826H17.8045ZM17.8045 8.10826H17.6045V8.30826H17.8045V8.10826ZM20.3995 9.00331V9.20331H20.5995V9.00331H20.3995ZM18.6995 9.00331H18.4995V9.20331H18.6995V9.00331ZM46.4706 7.33861C45.622 5.64843 43.8797 4.55 41.9577 4.55V4.95C43.7264 4.95 45.3314 5.96127 46.1131 7.51809L46.4706 7.33861ZM51.2 12.5785C51.2 9.7926 48.998 7.41918 46.306 7.22885L46.2777 7.62785C48.7554 7.80302 50.8 9.9975 50.8 12.5785H51.2ZM46.0793 17.7C48.9957 17.7 51.2 15.4948 51.2 12.5785H50.8C50.8 15.2739 48.7747 17.3 46.0793 17.3V17.7ZM43.0993 17.7H46.0793V17.3H43.0993V17.7ZM45.25 26C45.25 23.0209 44.569 20.0817 43.2793 17.413L42.9192 17.587C44.1829 20.2019 44.85 23.0818 44.85 26H45.25ZM39.3276 40.0938C43.1041 36.3878 45.25 31.3112 45.25 26H44.85C44.85 31.2033 42.7476 36.1771 39.0475 39.8083L39.3276 40.0938ZM40.5206 41.3386C40.2208 40.7416 39.8063 40.2258 39.3191 39.8004L39.056 40.1017C39.5072 40.4957 39.8883 40.971 40.1631 41.5181L40.5206 41.3386ZM45.25 46.5785C45.25 43.7927 43.0481 41.4183 40.3559 41.2288L40.3278 41.6279C42.8053 41.8022 44.85 43.9974 44.85 46.5785H45.25ZM40.1285 51.7C43.0457 51.7 45.25 49.4948 45.25 46.5785H44.85C44.85 49.2739 42.8247 51.3 40.1285 51.3V51.7ZM24.3856 51.7H40.1285V51.3H24.3856V51.7ZM21.05 48.3643C21.05 50.2037 22.5463 51.7 24.3856 51.7V51.3C22.7672 51.3 21.45 49.9828 21.45 48.3643H21.05ZM23.254 45.2379C21.9744 45.703 21.05 46.9212 21.05 48.3643H21.45C21.45 47.0977 22.2613 46.0243 23.3906 45.6139L23.254 45.2379ZM5.75 26C5.75 36.1468 13.4422 44.5264 23.3002 45.6247L23.3444 45.2271C13.6864 44.1511 6.15 35.9404 6.15 26H5.75ZM10.5307 13.1191C7.43404 16.6976 5.75 21.2015 5.75 26H6.15C6.15 21.2972 7.79966 16.8863 10.8332 13.3809L10.5307 13.1191ZM3.13565 13.45H10.6819V13.05H3.13565V13.45ZM-0.2 10.1143C-0.2 11.9537 1.29629 13.45 3.13565 13.45V13.05C1.51721 13.05 0.2 11.7328 0.2 10.1143H-0.2ZM3.13565 6.77785C1.29626 6.77785 -0.2 8.27418 -0.2 10.1143H0.2C0.2 8.49502 1.51724 7.17785 3.13565 7.17785V6.77785ZM3.4289 6.77785H3.13565V7.17785H3.4289V6.77785ZM3.2289 6.4942V6.97785H3.6289V6.4942H3.2289ZM8.27985 1.44325C5.49532 1.44325 3.2289 3.70877 3.2289 6.4942H3.6289C3.6289 3.92973 5.71618 1.84325 8.27985 1.84325V1.44325ZM11.0115 2.24455C10.2047 1.72286 9.26336 1.44325 8.27985 1.44325V1.84325C9.18674 1.84325 10.0525 2.10084 10.7944 2.58045L11.0115 2.24455ZM14.7577 0.3C13.1692 0.3 11.688 1.05601 10.744 2.29105L11.0618 2.53395C11.9318 1.39579 13.2964 0.7 14.7577 0.7V0.3ZM19.2698 3.08957C18.422 1.39844 16.6797 0.3 14.7577 0.3V0.7C16.5264 0.7 18.1314 1.71126 18.9122 3.26883L19.2698 3.08957ZM23.6672 6.49823C22.9589 4.57321 21.1814 3.12591 19.105 2.97969L19.0769 3.37871C20.9837 3.51299 22.6334 4.84689 23.2919 6.63637L23.6672 6.49823ZM31.9275 7.3345C29.2294 6.40277 26.3848 6.06359 23.4588 6.36838L23.5003 6.76622C26.3679 6.46751 29.1537 6.79983 31.797 7.71259L31.9275 7.3345ZM35.4799 5.69325C33.9816 5.69325 32.6379 6.35233 31.7129 7.3905L32.0116 7.6566C32.8648 6.69897 34.1017 6.09325 35.4799 6.09325V5.69325ZM38.2115 6.49455C37.4047 5.97286 36.4634 5.69325 35.4799 5.69325V6.09325C36.3867 6.09325 37.2525 6.35084 37.9944 6.83045L38.2115 6.49455ZM41.9577 4.55C40.3692 4.55 38.888 5.30601 37.944 6.54105L38.2618 6.78395C39.1318 5.64579 40.4964 4.95 41.9577 4.95V4.55ZM27.5646 15.6H26.35V16H27.5646V15.6ZM27 14.3644C27 14.9203 27.1494 15.4354 27.3873 15.8924L27.742 15.7076C27.5294 15.2993 27.4 14.8471 27.4 14.3644H27ZM30.3356 11.0279C28.4963 11.0279 27 12.5242 27 14.3644H27.4C27.4 12.745 28.7172 11.4278 30.3356 11.4278V11.0279ZM30.6289 11.0279H30.3356V11.4278H30.6289V11.0279ZM30.4289 10.7442V11.2278H30.8289V10.7442H30.4289ZM30.7696 8.93566C30.553 9.49688 30.4289 10.106 30.4289 10.7442H30.8289C30.8289 10.1584 30.9428 9.59792 31.1427 9.07964L30.7696 8.93566ZM26.3408 8.36849C27.8993 8.4399 29.4194 8.72134 30.8947 9.19796L31.0176 8.81734C29.5094 8.33006 27.9542 8.042 26.3592 7.96891L26.3408 8.36849ZM26.55 15.8V8.1687H26.15V15.8H26.55ZM1.9 10.1143C1.9 9.43253 2.45483 8.87785 3.13565 8.87785V8.47785C2.23377 8.47785 1.5 9.21177 1.5 10.1143H1.9ZM3.13565 11.35C2.45476 11.35 1.9 10.7952 1.9 10.1143H1.5C1.5 11.0162 2.23384 11.75 3.13565 11.75V11.35ZM18.8793 11.35H3.13565V11.75H18.8793V11.35ZM21.9 8.3285C21.9 10.0549 20.6049 11.35 18.8793 11.35V11.75C20.8258 11.75 22.3 10.2758 22.3 8.3285H21.9ZM18.7578 5.0673C20.453 5.0673 21.9 6.55632 21.9 8.3285H22.3C22.3 6.34878 20.687 4.6673 18.7578 4.6673V5.0673ZM18.5257 5.0673H18.7578V4.6673H18.5257V5.0673ZM17.5366 4.36826C17.6856 4.78674 18.0812 5.0673 18.5257 5.0673V4.6673C18.2512 4.6673 18.0059 4.49396 17.9135 4.23414L17.5366 4.36826ZM14.7577 2.4C16.0021 2.4 17.1193 3.1904 17.5365 4.36799L17.9136 4.23441C17.44 2.8977 16.1721 2 14.7577 2V2.4ZM12.0783 4.1222C12.5601 3.07578 13.6123 2.4 14.7577 2.4V2C13.4551 2 12.2616 2.76752 11.7149 3.95491L12.0783 4.1222ZM11.3066 4.71661C11.6453 4.65685 11.9352 4.43462 12.0784 4.12182L11.7148 3.95528C11.6268 4.14738 11.4475 4.28555 11.2371 4.32269L11.3066 4.71661ZM10.3773 4.42045C10.6186 4.66494 10.9671 4.77758 11.3072 4.7165L11.2365 4.3228C11.0275 4.36032 10.8116 4.29106 10.6619 4.13945L10.3773 4.42045ZM8.27985 3.54325C9.07468 3.54325 9.81896 3.85419 10.3772 4.42037L10.662 4.13953C10.0285 3.49701 9.18162 3.14325 8.27985 3.14325V3.54325ZM5.3289 6.4942C5.3289 4.86726 6.65291 3.54325 8.27985 3.54325V3.14325C6.43199 3.14325 4.9289 4.64634 4.9289 6.4942H5.3289ZM5.3289 7.82785V6.4942H4.9289V7.82785H5.3289ZM4.2789 8.87785C4.85954 8.87785 5.3289 8.40738 5.3289 7.82785H4.9289C4.9289 8.18672 4.63836 8.47785 4.2789 8.47785V8.87785ZM3.13565 8.87785H4.2789V8.47785H3.13565V8.87785ZM18.8793 13.45C21.7957 13.45 24 11.2448 24 8.3285H23.6C23.6 11.0239 21.5747 13.05 18.8793 13.05V13.45ZM19.0793 13.2508V13.25H18.6793V13.2508H19.0793ZM13.0347 13.4508H18.8793V13.0508H13.0347V13.4508ZM11.0123 15.9157C11.6409 15.0193 12.3696 14.1803 13.1745 13.3939L12.895 13.1078C12.0747 13.9092 11.3295 14.7668 10.6848 15.686L11.0123 15.9157ZM16.0522 15.6008H10.8485V16.0008H16.0522V15.6008ZM15.9776 16C16.0379 16 16.1886 16.0001 16.2581 16.0002C16.2758 16.0002 16.2873 16.0003 16.291 16.0003C16.2979 16.0004 16.2879 16.0004 16.2787 15.9997C16.2762 15.9995 16.2688 15.9987 16.264 15.998C16.2511 15.9955 16.1593 15.9475 16.1082 15.8724C16.112 15.7191 16.2413 15.6076 16.2597 15.6034C16.2657 15.6025 16.2746 15.6014 16.2776 15.6011C16.2821 15.6007 16.2856 15.6006 16.2862 15.6005C16.2874 15.6005 16.2884 15.6005 16.2889 15.6004C16.2905 15.6004 16.2915 15.6004 16.2911 15.6004C16.2902 15.6004 16.2868 15.6004 16.2798 15.6005C16.253 15.6006 16.1843 15.6007 16.052 15.6008L16.0525 16.0008C16.1846 16.0007 16.2539 16.0006 16.2814 16.0005C16.288 16.0004 16.2931 16.0004 16.296 16.0004C16.2965 16.0004 16.2982 16.0003 16.3002 16.0003C16.3008 16.0003 16.3018 16.0002 16.3032 16.0002C16.3038 16.0002 16.3074 16 16.3119 15.9996C16.3149 15.9993 16.3238 15.9982 16.3298 15.9973C16.3482 15.9931 16.4775 15.8816 16.4813 15.7283C16.4302 15.6532 16.3385 15.6052 16.3256 15.6027C16.3207 15.602 16.3133 15.6012 16.3107 15.601C16.3067 15.6007 16.3035 15.6005 16.3028 15.6005C16.3015 15.6005 16.3005 15.6004 16.3 15.6004C16.2988 15.6004 16.2979 15.6004 16.2974 15.6004C16.2963 15.6003 16.2953 15.6003 16.2946 15.6003C16.2891 15.6003 16.2759 15.6002 16.2588 15.6002C16.1889 15.6001 16.0379 15.6 15.9777 15.6L15.9776 16ZM15.752 15.8C15.8036 15.9341 15.9368 15.9994 15.9418 15.9997C15.9435 15.9998 15.9461 15.9999 15.9469 15.9999C15.9482 16 15.9493 16 15.9495 16C15.9501 16 15.9506 16 15.9507 16C15.9511 16 15.9513 16 15.9514 16C15.9516 16 15.9517 16 15.9518 16C15.9519 16 15.9521 16 15.9523 16C15.9526 16 15.9531 16 15.9537 16C15.9548 16 15.9565 16 15.9587 16C15.9632 16 15.9696 16 15.9776 16L15.9777 15.6C15.9697 15.6 15.9633 15.6 15.9589 15.6C15.9567 15.6 15.955 15.6 15.9539 15.6C15.9533 15.6 15.9529 15.6 15.9526 15.6C15.9525 15.6 15.9525 15.6 15.9525 15.6C15.9525 15.6 15.9525 15.6 15.9525 15.6C15.9526 15.6 15.9526 15.6 15.9527 15.6C15.9527 15.6 15.953 15.6 15.9533 15.6C15.9534 15.6 15.9539 15.6 15.9546 15.6C15.9548 15.6 15.9558 15.6 15.9571 15.6001C15.958 15.6001 15.9605 15.6002 15.9622 15.6003C15.9672 15.6006 16.1004 15.6659 16.152 15.8H15.752ZM16.0286 15.6L15.952 15.6L15.952 16L16.0286 16L16.0286 15.6ZM17.85 15.6H16.0286V16H17.85V15.6ZM17.8636 15.6H17.85V16H17.8636V15.6ZM24.65 15.6H17.8636V16H24.65V15.6ZM24.45 8.17975V15.8H24.85V8.17975H24.45ZM23.8153 8.43999C24.097 8.41232 24.3784 8.39299 24.6596 8.37952L24.6404 7.97998C24.3538 7.99371 24.0657 8.01348 23.7762 8.04191L23.8153 8.43999ZM23.9973 8.26442C23.9964 8.25147 23.9959 8.24296 23.9957 8.23507L23.5958 8.24683C23.5963 8.26345 23.5974 8.27945 23.5982 8.29112L23.9973 8.26442ZM23.9978 8.27781V8.27777H23.5978V8.27781H23.9978ZM23.997 8.26092L23.997 8.26085L23.5985 8.29477L23.5985 8.29484L23.997 8.26092ZM24 8.3285C24 8.30364 23.9984 8.28022 23.9973 8.26455L23.5982 8.29121C23.5994 8.30894 23.6 8.31916 23.6 8.3285H24ZM33.0998 27.05H34.8321V26.65H33.0998V27.05ZM26.3721 33.7986C30.0053 33.3947 32.8947 30.5044 33.2986 26.8721L32.9011 26.8279C32.5179 30.2744 29.7752 33.0179 26.3279 33.4011L26.3721 33.7986ZM26.55 34.5V33.5998H26.15V34.5H26.55ZM33.7008 34.3H26.35V34.7H33.7008V34.3ZM34.6322 26.845C34.5654 29.5318 34.1843 32.1097 33.5087 34.4444L33.8929 34.5556C34.579 32.1847 34.9646 29.5725 35.0321 26.855L34.6322 26.845ZM43.1273 26.8404C42.9995 29.5095 42.2642 32.0906 41.0092 34.4047L41.3609 34.5953C42.644 32.2293 43.3962 29.5897 43.5268 26.8596L43.1273 26.8404ZM36.5322 27.05H43.327V26.65H36.5322V27.05ZM35.6585 34.5522C36.3056 32.1579 36.668 29.5528 36.7321 26.8547L36.3322 26.8452C36.2688 29.5141 35.9104 32.0872 35.2723 34.4478L35.6585 34.5522ZM41.185 34.3H35.4654V34.7H41.185V34.3ZM24.6857 43.5682C23.365 43.3283 22.1008 42.5098 20.9691 41.2236C19.8378 39.9379 18.848 38.1947 18.0773 36.1301L17.7026 36.2699C18.4857 38.3678 19.4976 40.1567 20.6688 41.4878C21.8395 42.8183 23.1784 43.701 24.6143 43.9618L24.6857 43.5682ZM24.45 36.2V43.765H24.85V36.2H24.45ZM17.8899 36.4H24.65V36H17.8899V36.4ZM17.5133 34.444C16.8453 32.1557 16.4447 29.5693 16.3737 26.8448L15.9739 26.8552C16.0457 29.6115 16.4509 32.2322 17.1293 34.556L17.5133 34.444ZM24.6508 34.3H17.3213V34.7H24.6508V34.3ZM24.4508 33.5998V34.5H24.8508V33.5998H24.4508ZM17.7022 26.8721C18.1061 30.5044 20.9955 33.3947 24.6288 33.7986L24.6729 33.4011C21.2257 33.0179 18.483 30.2744 18.0998 26.8279L17.7022 26.8721ZM16.1738 27.05H17.901V26.65H16.1738V27.05ZM7.69335 27.05H14.4619V26.65H7.69335V27.05ZM9.98299 34.4044C8.75067 32.1389 8.02261 29.5674 7.89312 26.8405L7.49357 26.8595C7.62588 29.6457 8.37003 32.2762 9.63161 34.5956L9.98299 34.4044ZM15.5117 34.3H9.8073V34.7H15.5117V34.3ZM14.262 26.8546C14.326 29.6157 14.6961 32.2155 15.3184 34.5515L15.7049 34.4485C15.0913 32.1452 14.7253 29.577 14.6618 26.8454L14.262 26.8546ZM7.89228 25.1593C8.01757 22.4685 8.72375 19.8997 9.97869 17.5957L9.62741 17.4043C8.34255 19.7634 7.62073 22.3915 7.49272 25.1407L7.89228 25.1593ZM14.4678 24.95H7.6925V25.35H14.4678V24.95ZM15.3415 17.4478C14.6944 19.8421 14.332 22.4472 14.2679 25.1452L14.6678 25.1547C14.7312 22.4859 15.0896 19.9128 15.7277 17.5522L15.3415 17.4478ZM9.80305 17.7H15.5346V17.3H9.80305V17.7ZM25.5 31.75C22.3303 31.75 19.75 29.1705 19.75 26H19.35C19.35 29.3915 22.1094 32.15 25.5 32.15V31.75ZM31.25 26C31.25 29.1705 28.6697 31.75 25.5 31.75V32.15C28.8906 32.15 31.65 29.3915 31.65 26H31.25ZM25.5 20.25C28.6697 20.25 31.25 22.8295 31.25 26H31.65C31.65 22.6085 28.8906 19.85 25.5 19.85V20.25ZM19.75 26C19.75 22.8295 22.3303 20.25 25.5 20.25V19.85C22.1094 19.85 19.35 22.6085 19.35 26H19.75ZM24.6279 18.2014C20.9947 18.6053 18.1053 21.4956 17.7014 25.1279L18.0989 25.1721C18.4821 21.7256 21.2248 18.9821 24.6721 18.5989L24.6279 18.2014ZM24.45 17.5V18.4001H24.85V17.5H24.45ZM17.2992 17.7H24.65V17.3H17.2992V17.7ZM16.3678 25.155C16.4346 22.4682 16.8157 19.8903 17.4913 17.5556L17.1071 17.4444C16.421 19.8153 16.0354 22.4275 15.9679 25.145L16.3678 25.155ZM17.9001 24.95H16.1678V25.35H17.9001V24.95ZM10.8723 36.4H16.0242V36H10.8723V36.4ZM19.9724 42.7506C16.3225 41.543 13.199 39.177 11.0362 36.0854L10.7085 36.3146C12.9198 39.4756 16.1135 41.8951 19.8467 43.1304L19.9724 42.7506ZM15.8348 36.2643C16.7912 39.0805 18.1409 41.4245 19.7668 43.0806L20.0523 42.8004C18.4788 41.1976 17.1561 38.9108 16.2136 36.1357L15.8348 36.2643ZM39.7766 43.3173H40.0086V42.9173H39.7766V43.3173ZM38.7866 42.6183C38.9356 43.0368 39.3313 43.3173 39.7766 43.3173V42.9173C39.5011 42.9173 39.2559 42.7438 39.1635 42.4841L38.7866 42.6183ZM36.0077 40.65C37.2521 40.65 38.3693 41.4404 38.7865 42.618L39.1636 42.4844C38.69 41.1477 37.4221 40.25 36.0077 40.25V40.65ZM33.3283 42.3722C33.8101 41.3258 34.8623 40.65 36.0077 40.65V40.25C34.7051 40.25 33.5116 41.0175 32.9649 42.2049L33.3283 42.3722ZM32.5566 42.9666C32.8953 42.9068 33.1852 42.6846 33.3284 42.3718L32.9648 42.2053C32.8768 42.3974 32.6975 42.5356 32.4871 42.5727L32.5566 42.9666ZM31.6273 42.6704C31.8689 42.9153 32.2173 43.0265 32.5566 42.9666L32.4871 42.5727C32.2773 42.6097 32.0613 42.5407 31.9119 42.3894L31.6273 42.6704ZM29.5298 41.7933C30.3247 41.7933 31.069 42.1042 31.6272 42.6704L31.912 42.3895C31.2785 41.747 30.4316 41.3932 29.5298 41.3932V41.7933ZM26.5789 44.7442C26.5789 43.1173 27.9029 41.7933 29.5298 41.7933V41.3932C27.682 41.3932 26.1789 42.8963 26.1789 44.7442H26.5789ZM26.5789 46.0778V44.7442H26.1789V46.0778H26.5789ZM25.5289 47.1278C26.1095 47.1278 26.5789 46.6574 26.5789 46.0778H26.1789C26.1789 46.4367 25.8884 46.7278 25.5289 46.7278V47.1278ZM24.3856 47.1278H25.5289V46.7278H24.3856V47.1278ZM23.15 48.3643C23.15 47.6833 23.7049 47.1278 24.3856 47.1278V46.7278C23.4837 46.7278 22.75 47.4627 22.75 48.3643H23.15ZM24.3856 49.6C23.7048 49.6 23.15 49.0452 23.15 48.3643H22.75C22.75 49.2662 23.4838 50 24.3856 50V49.6ZM40.1293 49.6H24.3856V50H40.1293V49.6ZM43.15 46.5785C43.15 48.3049 41.8549 49.6 40.1293 49.6V50C42.0758 50 43.55 48.5258 43.55 46.5785H43.15ZM40.0086 43.3173C41.7029 43.3173 43.15 44.8063 43.15 46.5785H43.55C43.55 44.5988 41.9371 42.9173 40.0086 42.9173V43.3173ZM36.0077 38.55C34.4192 38.55 32.938 39.306 31.994 40.541L32.3118 40.784C33.1818 39.6458 34.5464 38.95 36.0077 38.95V38.55ZM37.7268 38.8646C37.1869 38.6683 36.6096 38.55 36.0077 38.55V38.95C36.5567 38.95 37.0878 39.0578 37.59 39.2405L37.7268 38.8646ZM39.9704 36.0847C39.261 37.1018 38.4424 38.0482 37.522 38.9063L37.7948 39.1989C38.7359 38.3213 39.5731 37.3535 40.2985 36.3136L39.9704 36.0847ZM34.9478 36.3992H40.1344V35.9991H34.9478V36.3992ZM34.7042 37.4397C34.8579 37.0558 35.001 36.6623 35.137 36.2637L34.7585 36.1346C34.6242 36.5282 34.4834 36.915 34.3328 37.291L34.7042 37.4397ZM32.8658 36.9195L34.4442 37.551L34.5928 37.1797L33.0143 36.5481L32.8658 36.9195ZM32.8742 36.3367C32.8343 36.4486 32.796 36.556 32.7545 36.6592L33.1256 36.8084C33.1706 36.6966 33.2115 36.5817 33.251 36.4711L32.8742 36.3367ZM32.8758 36.3324L32.8757 36.3327L33.2495 36.4751L33.2496 36.4748L32.8758 36.3324ZM32.8759 36.3322L32.8758 36.3324L33.2496 36.4748L33.2497 36.4746L32.8759 36.3322ZM32.949 36.1301C32.9233 36.199 32.8985 36.2685 32.8744 36.3362L33.2511 36.4706C33.2755 36.4023 33.2993 36.3357 33.3238 36.2699L32.949 36.1301ZM26.35 36.4H33.1364V36H26.35V36.4ZM26.55 41.09V36.2H26.15V41.09H26.55ZM29.5298 39.6932C28.2618 39.6932 27.1056 40.1663 26.2186 40.9393L26.4814 41.2408C27.2995 40.528 28.3635 40.0933 29.5298 40.0933V39.6932ZM32.2615 40.4945C31.4547 39.9729 30.5134 39.6932 29.5298 39.6932V40.0933C30.4367 40.0933 31.3025 40.3508 32.0444 40.8305L32.2615 40.4945ZM43.3219 24.95H36.5287V25.35H43.3219V24.95ZM41.0084 17.5954C42.2716 19.9235 42.9953 22.5113 43.1222 25.1596L43.5217 25.1404C43.3919 22.432 42.6519 19.7855 41.36 17.4046L41.0084 17.5954ZM30.6 17.7H41.1842V17.3H30.6V17.7ZM30.3356 17.7H30.6V17.3H30.3356V17.7ZM26.35 17.7H30.3356V17.3H26.35V17.7ZM26.55 18.401V17.5H26.15V18.401H26.55ZM33.2986 25.1287C32.8947 21.4964 30.0053 18.6061 26.3721 18.2022L26.3279 18.5998C29.7752 18.983 32.5179 21.7265 32.9011 25.173L33.2986 25.1287ZM34.8287 24.9508H33.0998V25.3508H34.8287V24.9508ZM33.9769 19.4194C34.3676 21.2513 34.5798 23.1786 34.6288 25.1558L35.0287 25.1459C34.9791 23.1468 34.7646 21.1947 34.3681 19.3359L33.9769 19.4194ZM35.7943 18.8276L34.1309 19.182L34.2142 19.5733L35.8777 19.2188L35.7943 18.8276ZM36.7287 25.1452C36.6783 23.0271 36.4518 20.9551 36.0316 18.9815L35.6404 19.0648C36.0549 21.0115 36.2789 23.0586 36.3288 25.1548L36.7287 25.1452ZM46.0793 15.6H30.6V16H46.0793V15.6ZM49.1 12.5785C49.1 14.3049 47.8049 15.6 46.0793 15.6V16C48.0258 16 49.5 14.5258 49.5 12.5785H49.1ZM45.9578 9.3173C47.653 9.3173 49.1 10.8063 49.1 12.5785H49.5C49.5 10.5988 47.887 8.9173 45.9578 8.9173V9.3173ZM45.7257 9.3173H45.9578V8.9173H45.7257V9.3173ZM44.7366 8.61826C44.8856 9.03675 45.2812 9.3173 45.7257 9.3173V8.9173C45.4512 8.9173 45.2059 8.74395 45.1135 8.48414L44.7366 8.61826ZM41.9577 6.65C43.2021 6.65 44.3193 7.4404 44.7365 8.61799L45.1136 8.48441C44.64 7.1477 43.3721 6.25 41.9577 6.25V6.65ZM39.2783 8.37219C39.7601 7.32578 40.8123 6.65 41.9577 6.65V6.25C40.6551 6.25 39.4616 7.01752 38.9149 8.20491L39.2783 8.37219ZM38.5066 8.96661C38.8453 8.90685 39.1352 8.68461 39.2784 8.37182L38.9148 8.20528C38.8268 8.39738 38.6475 8.53555 38.4371 8.57269L38.5066 8.96661ZM37.5773 8.67045C37.8196 8.91591 38.1681 9.02757 38.5073 8.96648L38.4364 8.57282C38.2282 8.61033 38.0123 8.54178 37.8619 8.38944L37.5773 8.67045ZM35.4799 7.79325C36.2747 7.79325 37.019 8.10419 37.5772 8.67037L37.862 8.38953C37.2285 7.74701 36.3816 7.39325 35.4799 7.39325V7.79325ZM32.5289 10.7442C32.5289 9.11726 33.8529 7.79325 35.4799 7.79325V7.39325C33.632 7.39325 32.1289 8.89634 32.1289 10.7442H32.5289ZM32.5289 12.0778V10.7442H32.1289V12.0778H32.5289ZM31.4789 13.1278C32.0595 13.1278 32.5289 12.6574 32.5289 12.0778H32.1289C32.1289 12.4367 31.8384 12.7278 31.4789 12.7278V13.1278ZM30.3356 13.1278H31.4789V12.7278H30.3356V13.1278ZM29.1 14.3644C29.1 13.6833 29.6549 13.1278 30.3356 13.1278V12.7278C29.4337 12.7278 28.7 13.4627 28.7 14.3644H29.1ZM30.3356 15.6C29.6548 15.6 29.1 15.0452 29.1 14.3644H28.7C28.7 15.2662 29.4338 16 30.3356 16V15.6ZM30.6 15.6H30.3356V16H30.6V15.6ZM44.8491 9.84905V11.5491H45.2491V9.84905H44.8491ZM47.8441 12.4441C47.8441 10.9031 46.591 9.64905 45.0491 9.64905V10.0491C46.37 10.0491 47.4441 11.124 47.4441 12.4441H47.8441ZM45.9441 12.6441H47.6441V12.2441H45.9441V12.6441ZM45.0491 11.7491C45.4317 11.7491 45.7441 12.0608 45.7441 12.4441H46.1441C46.1441 11.8397 45.6524 11.3491 45.0491 11.3491V11.7491ZM40.196 46.5788C40.196 45.9744 39.7043 45.4838 39.1009 45.4838V45.8838C39.4836 45.8838 39.796 46.1955 39.796 46.5788H40.196ZM41.696 46.3788H39.996V46.7788H41.696V46.3788ZM39.1009 44.1838C40.4218 44.1838 41.496 45.2587 41.496 46.5788H41.896C41.896 45.0378 40.6428 43.7838 39.1009 43.7838V44.1838ZM39.3009 45.6838V43.9838H38.9009V45.6838H39.3009ZM17.6045 6.40826V8.10826H18.0045V6.40826H17.6045ZM20.5995 9.00331C20.5995 7.46235 19.3464 6.20826 17.8045 6.20826V6.60826C19.1254 6.60826 20.1995 7.68317 20.1995 9.00331H20.5995ZM18.6995 9.20331H20.3995V8.80331H18.6995V9.20331ZM17.8045 8.30826C18.1871 8.30826 18.4995 8.62004 18.4995 9.00331H18.8995C18.8995 8.39888 18.4078 7.90826 17.8045 7.90826V8.30826Z" fill="white" mask="url(#path-1-inside-1_266_5564)"/>
<defs>
<linearGradient id="paint0_linear_266_5564" x1="0" y1="26.6892" x2="51" y2="26.6892" gradientUnits="userSpaceOnUse">
<stop stop-color="#00469F"/>
<stop offset="1" stop-color="#1E79D6"/>
</linearGradient>
</defs>
</svg>
