<svg width="60" height="60" viewBox="0 0 60 60" fill="none" xmlns="http://www.w3.org/2000/svg">
<rect width="60" height="60" fill="white"/>
<path fill-rule="evenodd" clip-rule="evenodd" d="M41.6571 11.1381C41.3052 11.2913 40.7528 11.895 40.6846 12.2009C40.6578 12.3209 40.6242 12.591 40.6099 12.8012C40.5846 13.1715 40.567 13.189 40.0463 13.3615C39.7506 13.4593 39.2623 13.6552 38.9612 13.7966L38.4136 14.0538L37.9932 13.7492C36.9067 12.9622 36.1153 13.1647 34.7785 14.5719C34.0194 15.3711 33.7911 15.7751 33.7911 16.319C33.7911 16.7888 33.946 17.1537 34.3025 17.5231L34.6062 17.8382L34.2567 18.5982C34.0645 19.0162 33.8556 19.5233 33.7927 19.7248C33.6857 20.0673 33.6528 20.0913 33.2917 20.0913C33.0791 20.0913 32.763 20.1508 32.5891 20.2234C32.1863 20.3918 31.6498 20.9997 31.5752 21.3725C31.5116 21.6909 31.4171 21.6895 30.7613 21.3609C30.5731 21.2666 30.0013 21.0561 29.4907 20.8931C25.8926 19.7444 21.9452 20.025 18.6062 21.6668C17.0742 22.42 16.067 23.1489 14.7778 24.4376C12.9912 26.2233 11.9707 27.8581 11.2138 30.1473C10.8628 31.2089 10.5297 32.787 10.5297 33.3888C10.5297 33.6951 10.4163 33.8046 9.94046 33.9577C9.25728 34.1774 8.1033 34.947 7.37389 35.6693C6.26155 36.7709 5.58071 37.9336 5.1925 39.3944C4.9202 40.4192 4.93985 42.4558 5.23198 43.4796C6.0391 46.309 8.14689 48.4724 10.9374 49.3359L11.6537 49.5576L26.7052 49.5883C42.4195 49.6204 42.4614 49.6195 43.9069 49.199C47.418 48.1774 50.1609 45.1171 50.9426 41.3491C51.1324 40.4342 51.1592 38.6981 50.9979 37.7817C50.6319 35.7046 49.5667 33.704 48.0628 32.2697L47.4817 31.7153L47.8208 31.5536C48.1588 31.3925 48.1609 31.3929 48.4768 31.6976C48.848 32.0557 49.2124 32.2107 49.6828 32.2107C50.2267 32.2107 50.6307 31.9824 51.4299 31.2233C52.8371 29.8865 53.0396 29.0952 52.2526 28.0086L51.948 27.5883L52.2052 27.0406C52.3466 26.7395 52.5425 26.2512 52.6403 25.9556C52.8128 25.4348 52.8303 25.4172 53.2006 25.3919C53.8265 25.3493 54.0011 25.2843 54.3775 24.9539C54.9137 24.4831 55 24.1815 55 22.7791C55 20.8597 54.6241 20.267 53.3025 20.1026C52.825 20.0432 52.8172 20.0367 52.6531 19.5538C52.5619 19.285 52.3708 18.8356 52.2287 18.5552C51.9165 17.9397 51.9105 17.8299 52.1756 17.59C52.6754 17.1376 52.8466 16.1465 52.5286 15.5443C52.346 15.1981 50.7533 13.6171 50.4112 13.4421C49.8488 13.1546 48.8451 13.3474 48.4118 13.8262C48.1719 14.0913 48.0621 14.0853 47.4466 13.7731C47.1662 13.631 46.7168 13.44 46.448 13.3487C45.9651 13.1846 45.9587 13.1769 45.8992 12.6993C45.7972 11.879 45.4837 11.4334 44.8105 11.1521C44.3432 10.9569 42.0959 10.9468 41.6571 11.1381ZM44.2489 13.4673C44.3102 14.4145 44.4045 14.5142 45.5684 14.8611C46.0522 15.0052 46.8066 15.3174 47.245 15.5548C48.2897 16.1206 48.4792 16.1147 49.0869 15.4977C49.3517 15.2289 49.6127 15.009 49.6671 15.009C49.7997 15.009 50.9928 16.1972 50.9928 16.3294C50.9928 16.3866 50.7729 16.6501 50.5041 16.9149C49.8885 17.5213 49.8836 17.6932 50.4508 18.7688C50.6903 19.2228 51.0025 19.981 51.1446 20.4537C51.4881 21.5965 51.5901 21.6918 52.5345 21.7529L53.2896 21.8017L53.3175 22.7442L53.3453 23.6866L52.57 23.7218C51.6401 23.764 51.4524 23.8935 51.2801 24.6117C51.1147 25.3015 50.7715 26.1503 50.3621 26.8824C49.8768 27.75 49.8989 27.9943 50.522 28.6531L51.0286 29.1888L50.3538 29.8687L49.679 30.5487L49.1867 30.0626C48.5656 29.4492 48.2606 29.3794 47.6697 29.7155C46.9339 30.1341 46.2113 30.4429 45.3584 30.703C44.3479 31.0112 44.2489 31.1345 44.2489 32.0859V32.7971H43.2716H42.2942V32.1554C42.2942 31.1475 42.1278 30.9459 41.083 30.6878C40.7125 30.5962 39.9499 30.2857 39.3882 29.9977C38.8265 29.7097 38.2803 29.4741 38.1745 29.4741C38.0686 29.4741 37.7495 29.694 37.4654 29.9628C37.1812 30.2315 36.9101 30.4515 36.863 30.4515C36.7474 30.4515 35.5504 29.2594 35.5504 29.1443C35.5504 29.0942 35.7703 28.8206 36.039 28.5364C36.3078 28.2523 36.5277 27.9332 36.5277 27.8273C36.5277 27.7215 36.2921 27.1753 36.0042 26.6136C35.7161 26.0519 35.4056 25.2893 35.314 24.9188C35.0559 23.8741 34.8543 23.7076 33.8464 23.7076H33.2047V22.7302V21.7529H33.9159C34.8673 21.7529 34.9906 21.654 35.2988 20.6435C35.559 19.7905 35.8677 19.0679 36.2863 18.3321C36.6224 17.7413 36.5527 17.4362 35.9393 16.8151L35.4531 16.3228L36.1331 15.648L36.813 14.9733L37.3487 15.4798C37.7385 15.8484 37.9608 15.9864 38.1653 15.9864C38.3199 15.9864 38.9102 15.7508 39.477 15.4627C40.0439 15.1747 40.8185 14.8629 41.1983 14.7698C42.1227 14.5432 42.2359 14.4033 42.28 13.4318L42.3152 12.6565L43.2576 12.6844L44.2001 12.7122L44.2489 13.4673ZM42.1988 18.8797C41.093 19.1768 40.1157 20.0054 39.619 21.0668C39.1042 22.1669 39.1557 23.7375 39.7377 24.685C40.3018 25.6034 41.1305 26.2754 42.085 26.5885C42.8969 26.8547 44.1143 26.7669 44.9351 26.3828C46.6649 25.5733 47.6231 23.588 47.146 21.8017C46.5546 19.588 44.3684 18.2967 42.1988 18.8797ZM44.2395 20.6593C45.0229 21.019 45.5382 21.8324 45.5436 22.7179C45.5495 23.6996 45.0938 24.4205 44.2001 24.843C43.3273 25.2556 42.3152 25.074 41.6216 24.3802C40.9294 23.6881 40.747 22.6785 41.1557 21.8011C41.7105 20.6095 43.0506 20.1133 44.2395 20.6593ZM27.3821 22.1101C28.38 22.2976 29.519 22.659 30.4533 23.0847C31.3108 23.4756 31.5426 23.6577 31.5447 23.9427C31.5475 24.3023 31.9723 24.917 32.3759 25.1456C32.6032 25.2743 32.9325 25.3666 33.1683 25.3676C33.6231 25.3693 33.7139 25.4495 33.8891 26.0044C33.957 26.2194 34.1394 26.678 34.2944 27.0235L34.5764 27.6517L34.3356 27.9032C33.7992 28.4631 33.6617 29.2368 33.9781 29.9139C34.2121 30.4148 35.6835 31.8633 36.1581 32.0601C36.8157 32.3327 37.5607 32.1815 38.0987 31.6662L38.3501 31.4254L38.9783 31.7074C39.3238 31.8624 39.7824 32.0449 39.9974 32.1127C40.5523 32.2879 40.6325 32.3787 40.6342 32.8335C40.6365 33.3768 40.9837 33.9623 41.4654 34.2351C41.8184 34.435 41.9838 34.4556 43.252 34.4571C44.2677 34.4583 44.7217 34.421 44.9136 34.3208C45.355 34.0901 45.7368 33.6122 45.8567 33.1399L45.9705 32.6917L46.6352 33.2785C48.3361 34.78 49.2837 36.7413 49.4012 39.0034C49.6102 43.0242 46.9723 46.6372 43.0675 47.6783L42.2453 47.8975H27.0961H11.9469L11.1365 47.6231C9.08233 46.9278 7.42999 45.1286 6.85588 42.9618C6.59238 41.9676 6.63744 40.4756 6.96056 39.4921C7.50359 37.8392 8.61104 36.5257 10.0992 35.77L10.8529 35.3872L13.8164 35.3383C16.7187 35.2904 16.7844 35.2849 16.9974 35.0717C17.2951 34.7738 17.2884 34.249 16.9829 33.9238L16.7508 33.6768H14.465H12.1792L12.2436 33.2125C12.4726 31.5617 12.7914 30.5069 13.5081 29.0292C15.9952 23.9017 21.7199 21.0467 27.3821 22.1101Z" fill="url(#paint0_linear_2542_26889)"/>
<defs>
<linearGradient id="paint0_linear_2542_26889" x1="5" y1="30.8219" x2="55" y2="30.8219" gradientUnits="userSpaceOnUse">
<stop stop-color="#00469F"/>
<stop offset="1" stop-color="#1E79D6"/>
</linearGradient>
</defs>
</svg>
