<svg width="648" height="322" viewBox="0 0 648 322" fill="none" xmlns="http://www.w3.org/2000/svg">
<path d="M45 180.5C45 159.813 53.2178 139.974 67.8457 125.346C82.4735 110.718 102.313 102.5 123 102.5C143.687 102.5 163.526 110.718 178.154 125.346C192.782 139.974 201 159.813 201 180.5C201 201.187 192.782 221.026 178.154 235.654C163.526 250.282 143.687 258.5 123 258.5C102.313 258.5 82.4735 250.282 67.8457 235.654C53.2178 221.026 45 201.187 45 180.5ZM118.125 113.001C111.592 114.99 105.109 120.996 99.7267 131.087C98.3325 133.7 97.0358 136.547 95.8755 139.589C102.749 141.12 110.228 142.095 118.125 142.387V113.001ZM86.4277 137.005C87.8122 133.261 89.3918 129.751 91.1175 126.495C92.8033 123.307 94.7502 120.264 96.9383 117.398C88.6378 120.838 81.0969 125.88 74.7473 132.237C78.2768 134.031 82.1865 135.64 86.4277 137.015V137.005ZM79.2127 175.625C79.5638 165.192 81.0457 155.277 83.4637 146.297C78.1861 144.609 73.0776 142.432 68.205 139.794C60.4396 150.22 55.8305 162.656 54.9255 175.625H79.203H79.2127ZM92.8628 148.9C90.5642 157.634 89.2559 166.599 88.9627 175.625H118.125V152.137C109.253 151.845 100.741 150.723 92.8628 148.9ZM127.875 152.128V175.625H157.027C156.738 166.599 155.433 157.634 153.137 148.9C145.259 150.723 136.747 151.835 127.875 152.137V152.128ZM88.9725 185.375C89.3138 194.998 90.6885 204.037 92.8628 212.1C101.161 210.217 109.62 209.136 118.125 208.872V185.375H88.9725ZM127.875 185.375V208.863C136.747 209.155 145.259 210.277 153.137 212.1C155.311 204.037 156.686 194.998 157.037 185.375H127.875ZM95.8755 221.411C97.0455 224.453 98.3325 227.3 99.7267 229.913C105.109 240.004 111.602 246.001 118.125 247.999V218.622C110.228 218.915 102.749 219.89 95.8755 221.421V221.411ZM96.948 243.602C94.7565 240.736 92.8063 237.693 91.1175 234.505C89.3218 231.107 87.755 227.592 86.4277 223.985C82.4169 225.274 78.5118 226.871 74.7473 228.762C81.0969 235.12 88.6378 240.162 96.9383 243.602H96.948ZM83.4637 214.703C80.9324 205.121 79.5029 195.281 79.203 185.375H54.9255C55.83 198.344 60.4391 210.78 68.205 221.206C72.7875 218.691 77.9062 216.507 83.4637 214.703ZM149.062 243.602C157.358 240.164 164.895 235.125 171.243 228.772C167.482 226.881 163.58 225.284 159.572 223.995C158.245 227.599 156.678 231.11 154.883 234.505C153.197 237.693 151.25 240.736 149.062 243.602ZM127.875 218.613V247.999C134.408 246.01 140.891 240.004 146.273 229.913C147.668 227.3 148.964 224.453 150.124 221.411C142.808 219.807 135.361 218.873 127.875 218.622V218.613ZM162.536 214.703C168.094 216.507 173.212 218.691 177.795 221.206C185.561 210.78 190.17 198.344 191.075 185.375H166.797C166.497 195.281 165.068 205.121 162.536 214.703ZM191.075 175.625C190.17 162.656 185.561 150.22 177.795 139.794C173.212 142.309 168.094 144.493 162.536 146.297C164.954 155.267 166.436 165.192 166.797 175.625H191.075ZM154.883 126.495C156.608 129.751 158.188 133.261 159.582 137.005C163.586 135.716 167.485 134.119 171.243 132.228C164.894 125.879 157.357 120.843 149.062 117.408C151.187 120.167 153.137 123.228 154.883 126.495ZM150.124 139.589C149.017 136.678 147.731 133.839 146.273 131.087C140.891 120.996 134.408 115 127.875 113.001V142.378C135.772 142.085 143.251 141.11 150.124 139.579V139.589Z" fill="#BBC1D8"/>
<g clip-path="url(#clip0_266_5485)">
<path d="M465.5 130.973C463.395 130.973 461.311 131.387 459.366 132.193C457.422 132.998 455.655 134.179 454.167 135.667C452.679 137.155 451.498 138.922 450.693 140.866C449.887 142.811 449.473 144.895 449.473 147C449.473 149.104 449.887 151.189 450.693 153.133C451.498 155.078 452.679 156.844 454.167 158.333C455.655 159.821 457.422 161.001 459.366 161.807C461.311 162.612 463.395 163.027 465.5 163.027C469.75 163.027 473.827 161.338 476.833 158.333C479.838 155.327 481.527 151.25 481.527 147C481.527 142.749 479.838 138.673 476.833 135.667C473.827 132.661 469.75 130.973 465.5 130.973ZM454.41 147C454.41 144.059 455.579 141.238 457.658 139.158C459.738 137.079 462.559 135.91 465.5 135.91C468.441 135.91 471.262 137.079 473.341 139.158C475.421 141.238 476.589 144.059 476.589 147C476.589 149.941 475.421 152.762 473.341 154.841C471.262 156.921 468.441 158.089 465.5 158.089C462.559 158.089 459.738 156.921 457.658 154.841C455.579 152.762 454.41 149.941 454.41 147Z" fill="#BBC1D8"/>
<path d="M474.367 114.13C471.765 105.292 459.234 105.292 456.632 114.13L456.168 115.705C455.986 116.322 455.668 116.891 455.238 117.369C454.808 117.847 454.277 118.223 453.683 118.469C453.089 118.716 452.447 118.826 451.805 118.792C451.162 118.758 450.536 118.58 449.971 118.273L448.529 117.483C440.432 113.078 431.579 121.936 435.988 130.029L436.773 131.471C437.081 132.035 437.258 132.662 437.292 133.304C437.326 133.946 437.216 134.588 436.97 135.182C436.724 135.776 436.348 136.308 435.869 136.738C435.391 137.168 434.823 137.485 434.206 137.667L432.631 138.131C423.792 140.733 423.792 153.265 432.631 155.867L434.206 156.331C434.823 156.513 435.391 156.83 435.869 157.26C436.348 157.69 436.724 158.222 436.97 158.816C437.216 159.41 437.326 160.052 437.292 160.694C437.258 161.336 437.081 161.963 436.773 162.527L435.983 163.969C431.579 172.067 440.432 180.925 448.529 176.51L449.971 175.725C450.536 175.418 451.162 175.24 451.805 175.206C452.447 175.172 453.089 175.282 453.683 175.529C454.277 175.775 454.808 176.151 455.238 176.629C455.668 177.107 455.986 177.676 456.168 178.293L456.632 179.868C459.234 188.706 471.765 188.706 474.367 179.868L474.831 178.293C475.013 177.676 475.331 177.107 475.761 176.629C476.19 176.151 476.722 175.775 477.316 175.529C477.91 175.282 478.552 175.172 479.194 175.206C479.837 175.24 480.463 175.418 481.028 175.725L482.47 176.515C490.567 180.925 499.425 172.062 495.011 163.969L494.226 162.527C493.918 161.963 493.741 161.336 493.707 160.694C493.673 160.052 493.783 159.41 494.029 158.816C494.275 158.222 494.651 157.69 495.13 157.26C495.608 156.83 496.176 156.513 496.793 156.331L498.368 155.867C507.207 153.265 507.207 140.733 498.368 138.131L496.793 137.667C496.176 137.485 495.608 137.168 495.13 136.738C494.651 136.308 494.275 135.776 494.029 135.182C493.783 134.588 493.673 133.946 493.707 133.304C493.741 132.662 493.918 132.035 494.226 131.471L495.016 130.029C499.425 121.931 490.562 113.078 482.47 117.488L481.028 118.273C480.463 118.58 479.837 118.758 479.194 118.792C478.552 118.826 477.91 118.716 477.316 118.469C476.722 118.223 476.19 117.847 475.761 117.369C475.331 116.891 475.013 116.322 474.831 115.705L474.367 114.13ZM461.367 115.527C462.581 111.405 468.418 111.405 469.632 115.527L470.096 117.102C470.486 118.426 471.168 119.646 472.091 120.672C473.013 121.698 474.154 122.504 475.429 123.032C476.704 123.56 478.081 123.796 479.459 123.723C480.837 123.649 482.181 123.268 483.393 122.608L484.83 121.818C488.602 119.769 492.73 123.891 490.676 127.669L489.891 129.11C489.231 130.322 488.851 131.666 488.779 133.044C488.706 134.422 488.942 135.798 489.471 137.073C489.999 138.347 490.806 139.487 491.832 140.409C492.858 141.331 494.078 142.012 495.401 142.402L496.971 142.866C501.094 144.081 501.094 149.917 496.971 151.132L495.396 151.596C494.072 151.986 492.853 152.667 491.827 153.59C490.801 154.513 489.994 155.654 489.466 156.929C488.938 158.204 488.702 159.581 488.776 160.959C488.849 162.337 489.23 163.681 489.891 164.892L490.681 166.329C492.73 170.102 488.607 174.229 484.83 172.175L483.393 171.39C482.181 170.73 480.837 170.349 479.458 170.276C478.08 170.203 476.703 170.439 475.428 170.968C474.153 171.496 473.012 172.303 472.089 173.33C471.167 174.356 470.486 175.576 470.096 176.9L469.632 178.471C468.418 182.593 462.581 182.593 461.367 178.471L460.903 176.896C460.512 175.573 459.831 174.354 458.909 173.328C457.986 172.303 456.846 171.496 455.572 170.968C454.297 170.441 452.921 170.205 451.543 170.278C450.166 170.351 448.822 170.731 447.611 171.39L446.169 172.18C442.397 174.229 438.269 170.106 440.323 166.329L441.108 164.892C441.77 163.681 442.151 162.336 442.225 160.957C442.299 159.579 442.064 158.201 441.536 156.926C441.008 155.65 440.201 154.509 439.174 153.586C438.148 152.662 436.927 151.981 435.603 151.591L434.028 151.127C429.905 149.912 429.905 144.076 434.028 142.861L435.603 142.397C436.925 142.007 438.143 141.326 439.168 140.403C440.194 139.481 440.999 138.342 441.527 137.068C442.055 135.794 442.291 134.419 442.219 133.042C442.146 131.665 441.767 130.322 441.108 129.11L440.318 127.669C438.269 123.896 442.392 119.769 446.169 121.823L447.611 122.608C448.822 123.267 450.166 123.647 451.543 123.72C452.921 123.793 454.297 123.557 455.572 123.029C456.846 122.502 457.986 121.695 458.909 120.67C459.831 119.644 460.512 118.425 460.903 117.102L461.367 115.527Z" fill="#BBC1D8"/>
</g>
<g clip-path="url(#clip1_266_5485)">
<path d="M558.999 201.356C557.667 201.356 556.348 201.618 555.117 202.128C553.887 202.638 552.768 203.385 551.827 204.327C550.885 205.269 550.137 206.387 549.628 207.618C549.118 208.849 548.855 210.168 548.855 211.5C548.855 212.832 549.118 214.151 549.628 215.382C550.137 216.612 550.885 217.73 551.827 218.672C552.768 219.614 553.887 220.362 555.117 220.871C556.348 221.381 557.667 221.643 558.999 221.643C561.69 221.643 564.27 220.575 566.172 218.672C568.074 216.77 569.143 214.19 569.143 211.5C569.143 208.809 568.074 206.229 566.172 204.327C564.27 202.425 561.69 201.356 558.999 201.356ZM551.98 211.5C551.98 209.638 552.72 207.853 554.036 206.537C555.352 205.22 557.138 204.481 558.999 204.481C560.861 204.481 562.646 205.22 563.962 206.537C565.278 207.853 566.018 209.638 566.018 211.5C566.018 213.361 565.278 215.146 563.962 216.463C562.646 217.779 560.861 218.518 558.999 218.518C557.138 218.518 555.352 217.779 554.036 216.463C552.72 215.146 551.98 213.361 551.98 211.5Z" fill="#BBC1D8"/>
<path d="M564.613 190.696C562.966 185.103 555.035 185.103 553.388 190.696L553.094 191.693C552.979 192.084 552.778 192.443 552.506 192.746C552.234 193.049 551.898 193.287 551.521 193.443C551.145 193.599 550.739 193.668 550.333 193.647C549.926 193.625 549.53 193.513 549.172 193.318L548.26 192.818C543.135 190.031 537.532 195.637 540.322 200.759L540.819 201.671C541.014 202.029 541.126 202.425 541.148 202.832C541.169 203.238 541.099 203.644 540.944 204.02C540.788 204.397 540.55 204.733 540.247 205.005C539.944 205.277 539.585 205.478 539.194 205.593L538.197 205.887C532.604 207.534 532.604 215.465 538.197 217.112L539.194 217.406C539.585 217.521 539.944 217.722 540.247 217.994C540.55 218.266 540.788 218.602 540.944 218.978C541.099 219.354 541.169 219.761 541.148 220.167C541.126 220.574 541.014 220.97 540.819 221.328L540.319 222.24C537.532 227.365 543.135 232.971 548.26 230.178L549.172 229.681C549.53 229.486 549.926 229.374 550.333 229.352C550.739 229.331 551.145 229.4 551.521 229.556C551.898 229.712 552.234 229.95 552.506 230.253C552.778 230.555 552.979 230.915 553.094 231.306L553.388 232.303C555.035 237.896 562.966 237.896 564.613 232.303L564.907 231.306C565.022 230.915 565.223 230.555 565.495 230.253C565.767 229.95 566.103 229.712 566.479 229.556C566.855 229.4 567.262 229.331 567.668 229.352C568.075 229.374 568.471 229.486 568.829 229.681L569.741 230.181C574.866 232.971 580.472 227.362 577.679 222.24L577.182 221.328C576.987 220.97 576.875 220.574 576.853 220.167C576.832 219.761 576.901 219.354 577.057 218.978C577.213 218.602 577.451 218.266 577.754 217.994C578.056 217.722 578.416 217.521 578.807 217.406L579.804 217.112C585.397 215.465 585.397 207.534 579.804 205.887L578.807 205.593C578.416 205.478 578.056 205.277 577.754 205.005C577.451 204.733 577.213 204.397 577.057 204.02C576.901 203.644 576.832 203.238 576.853 202.832C576.875 202.425 576.987 202.029 577.182 201.671L577.682 200.759C580.472 195.634 574.863 190.031 569.741 192.821L568.829 193.318C568.471 193.513 568.075 193.625 567.668 193.647C567.262 193.668 566.855 193.599 566.479 193.443C566.103 193.287 565.767 193.049 565.495 192.746C565.223 192.443 565.022 192.084 564.907 191.693L564.613 190.696ZM556.385 191.581C557.154 188.971 560.847 188.971 561.616 191.581L561.91 192.578C562.157 193.415 562.588 194.187 563.172 194.837C563.756 195.486 564.478 195.996 565.285 196.331C566.092 196.665 566.963 196.814 567.836 196.768C568.708 196.721 569.559 196.48 570.325 196.062L571.235 195.562C573.622 194.265 576.235 196.874 574.935 199.265L574.438 200.178C574.021 200.944 573.78 201.795 573.734 202.667C573.688 203.539 573.838 204.41 574.172 205.217C574.506 206.023 575.017 206.745 575.667 207.329C576.316 207.912 577.088 208.343 577.925 208.59L578.919 208.884C581.529 209.653 581.529 213.346 578.919 214.115L577.922 214.409C577.084 214.656 576.313 215.087 575.663 215.671C575.014 216.255 574.503 216.977 574.169 217.784C573.835 218.591 573.686 219.463 573.732 220.335C573.779 221.207 574.02 222.058 574.438 222.824L574.938 223.734C576.235 226.121 573.625 228.734 571.235 227.434L570.325 226.937C569.558 226.519 568.707 226.278 567.835 226.232C566.963 226.185 566.091 226.335 565.284 226.669C564.477 227.004 563.755 227.515 563.171 228.164C562.587 228.814 562.156 229.586 561.91 230.424L561.616 231.418C560.847 234.028 557.154 234.028 556.385 231.418L556.091 230.421C555.844 229.584 555.413 228.812 554.829 228.163C554.245 227.514 553.523 227.004 552.717 226.67C551.91 226.336 551.039 226.187 550.167 226.233C549.296 226.279 548.445 226.519 547.679 226.937L546.766 227.437C544.379 228.734 541.766 226.124 543.066 223.734L543.563 222.824C543.981 222.057 544.223 221.206 544.27 220.334C544.317 219.461 544.167 218.589 543.833 217.782C543.499 216.975 542.988 216.252 542.339 215.668C541.689 215.084 540.917 214.652 540.079 214.406L539.082 214.112C536.472 213.343 536.472 209.649 539.082 208.881L540.079 208.587C540.915 208.34 541.686 207.909 542.335 207.325C542.984 206.741 543.494 206.02 543.828 205.214C544.162 204.408 544.312 203.537 544.266 202.666C544.22 201.794 543.98 200.944 543.563 200.178L543.063 199.265C541.766 196.878 544.375 194.265 546.766 195.565L547.679 196.062C548.445 196.479 549.296 196.72 550.167 196.766C551.039 196.812 551.91 196.663 552.717 196.329C553.523 195.995 554.245 195.485 554.829 194.835C555.413 194.186 555.844 193.415 556.091 192.578L556.385 191.581Z" fill="#BBC1D8"/>
</g>
<rect x="210" y="108.5" width="251" height="170" rx="10" fill="white" stroke="#0D1E67" stroke-width="4"/>
<rect x="223" y="119.5" width="226" height="124" fill="#0D1E67"/>
<circle cx="335" cy="265.5" r="5" stroke="black" stroke-width="2"/>
<rect x="272" y="303.5" width="126" height="12" rx="4" stroke="black" stroke-width="2"/>
<line x1="304" y1="280.5" x2="304" y2="302.5" stroke="black" stroke-width="2"/>
<line x1="366" y1="280.5" x2="366" y2="302.5" stroke="black" stroke-width="2"/>
<rect x="305" y="280.5" width="60" height="22" fill="#C4C4C4"/>
<rect x="234" y="201.5" width="44" height="7" fill="#868FB3"/>
<rect x="234" y="125.5" width="44" height="7" fill="#868FB3"/>
<rect x="286" y="126.5" width="35" height="35" fill="#868FB3"/>
<rect x="286" y="165.5" width="35" height="34" fill="#868FB3"/>
<rect x="325" y="126.5" width="35" height="35" fill="#868FB3"/>
<rect x="325" y="165.5" width="35" height="34" fill="#868FB3"/>
<rect x="364" y="126.5" width="35" height="73" fill="#868FB3"/>
<rect x="403" y="126.5" width="35" height="35" fill="#868FB3"/>
<rect x="403" y="164.5" width="35" height="35" fill="#868FB3"/>
<rect x="364" y="203.5" width="35" height="35" fill="#868FB3"/>
<rect x="286" y="203.5" width="74" height="35" fill="#868FB3"/>
<rect x="403" y="203.5" width="35" height="35" fill="#868FB3"/>
<rect x="234" y="216.5" width="44" height="7" fill="#868FB3"/>
<rect x="234" y="229.5" width="44" height="7" fill="#868FB3"/>
<path d="M221.3 316.5H136.7C135.453 316.5 134.258 315.942 133.377 314.95C132.495 313.958 132 312.612 132 311.208V194.792C132 193.388 132.495 192.042 133.377 191.05C134.258 190.058 135.453 189.5 136.7 189.5H204.5L226 210V311.208C226 312.612 225.505 313.958 224.623 314.95C223.742 315.942 222.547 316.5 221.3 316.5Z" fill="white" stroke="black" stroke-width="2" stroke-linecap="round" stroke-linejoin="round"/>
<path d="M204 190.5V210.5H225" fill="#0D1E67"/>
<rect x="154" y="274.5" width="35" height="6" fill="#0D1E67"/>
<rect x="154" y="283.5" width="56" height="6" fill="#0D1E67"/>
<rect x="154" y="292.5" width="46" height="6" fill="#0D1E67"/>
<path d="M205 238.5C205 244.038 203.358 249.451 200.281 254.056C197.204 258.661 192.831 262.249 187.715 264.369C182.599 266.488 176.969 267.042 171.537 265.962C166.106 264.882 161.117 262.215 157.201 258.299C153.285 254.383 150.618 249.394 149.538 243.963C148.458 238.531 149.012 232.901 151.131 227.785C153.251 222.669 156.839 218.296 161.444 215.219C166.049 212.142 171.462 210.5 177 210.5V238.5H205Z" fill="#0D1E67"/>
<path d="M204 236C204 232.914 203.392 229.858 202.211 227.007C201.03 224.156 199.299 221.565 197.117 219.383C194.935 217.201 192.344 215.47 189.493 214.289C186.642 213.108 183.586 212.5 180.5 212.5L180.5 236H204Z" fill="#007AFB"/>
<rect x="432" y="39.5" width="87" height="60" rx="11" fill="white"/>
<rect x="433" y="40.5" width="85" height="58" rx="7" stroke="#0D1E67" stroke-width="2"/>
<rect x="432" y="75.5" width="87" height="11" fill="#0D1E67"/>
<mask id="path-37-inside-1_266_5485" fill="white">
<rect x="435" y="213.5" width="159" height="103" rx="11"/>
</mask>
<rect x="435" y="213.5" width="159" height="103" rx="11" stroke="#0D1E67" stroke-width="30" mask="url(#path-37-inside-1_266_5485)"/>
<rect x="450" y="228.5" width="129" height="73" fill="white"/>
<rect x="462" y="238.5" width="22" height="21" fill="#007AFB"/>
<rect x="539" y="263.5" width="12" height="12" fill="#007AFB"/>
<rect x="556" y="263.5" width="12" height="12" fill="#007AFB"/>
<rect x="556" y="280.5" width="12" height="12" fill="#007AFB"/>
<rect x="539" y="280.5" width="12" height="12" fill="#007AFB"/>
<rect x="488" y="238.5" width="80" height="2" fill="#0D1E67"/>
<rect x="488" y="244.5" width="80" height="2" fill="#0D1E67"/>
<rect x="488" y="251.5" width="80" height="2" fill="#0D1E67"/>
<rect x="488" y="257.5" width="80" height="2" fill="#0D1E67"/>
<rect x="462" y="269.5" width="72" height="2" fill="#0D1E67"/>
<rect x="488" y="263.5" width="46" height="2" fill="#0D1E67"/>
<rect x="462" y="263.5" width="9" height="2" fill="#0D1E67"/>
<rect x="475" y="263.5" width="9" height="2" fill="#007AFB"/>
<rect x="462" y="275.5" width="73" height="2" fill="#0D1E67"/>
<rect x="462" y="281.5" width="73" height="2" fill="#0D1E67"/>
<rect x="462" y="288.5" width="73" height="2" fill="#0D1E67"/>
<circle cx="442.5" cy="269" r="3.5" fill="white"/>
<path d="M277.512 96.0432L280.012 106.543H394.512L396.512 96.0432C363.712 77.6433 363.845 46.3766 368.012 33.0432C343.612 22.6432 316.845 28.7098 306.512 33.0432C314.512 67.8432 290.512 89.5432 277.512 96.0432Z" fill="#BBC1D8"/>
<path d="M422.511 106.543H409.011L412.512 85.543C374.912 76.3431 378.178 41.3764 384.512 25.043C351.712 4.24297 308.179 15.043 290.512 23.043C300.912 63.443 280.512 79.543 269.012 82.543C262.212 82.543 261.512 87.2096 262.012 89.543L269.012 106.543H253.012L247.01 85.543C246.61 75.1431 258.177 71.8764 264.01 71.543C284.81 63.943 281.678 40.043 277.512 29.043C274.712 17.843 283.012 12.7097 287.512 11.543C329.112 -8.45697 371.512 3.2097 387.512 11.543C398.712 15.143 398.511 23.7097 397.011 27.543C385.411 61.143 406.178 72.2097 418.011 73.543C425.211 76.743 426.011 82.8764 425.511 85.543L422.511 106.543Z" fill="#BBC1D8"/>
<path d="M242.065 135.006H123.065C108.666 131.806 105.065 121.673 105.065 117.006C103.865 97.0059 119.565 93.6725 127.565 94.5059C126.365 76.1059 142.732 73.8393 151.065 75.006C158.265 50.206 178.398 44.3392 187.565 44.5058C213.565 44.1058 223.398 64.6726 225.065 75.006C252.265 62.206 265.732 84.3393 269.065 97.006C271.865 121.806 252.232 132.673 242.065 135.006Z" fill="#EAECF1" stroke="#393E50" stroke-width="2"/>
<rect x="132.062" y="104.006" width="104" height="16" rx="8" stroke="#393E50"/>
<circle cx="147.062" cy="112.006" r="3.5" fill="url(#paint0_linear_266_5485)"/>
<circle cx="165.062" cy="112.006" r="3.5" fill="url(#paint1_linear_266_5485)"/>
<circle cx="181.062" cy="112.006" r="3.5" fill="#393E50"/>
<circle cx="199.062" cy="112.006" r="3.5" fill="#393E50"/>
<rect x="207.562" y="113.506" width="18" height="2" rx="1" fill="#393E50"/>
<path d="M523 197.001C526.784 197.001 529.854 194.371 529.854 191.126H516.146C516.146 194.371 519.216 197.001 523 197.001ZM546.077 183.258C544.007 181.352 540.134 178.485 540.134 169.094C540.134 161.962 534.297 156.252 526.426 154.851V130.5C526.426 128.878 524.892 125.5 523 125.5C521.108 125.5 519.574 128.878 519.574 130.5V154.851C511.703 156.252 505.866 161.962 505.866 169.094C505.866 178.485 501.993 181.352 499.923 183.258C499.28 183.85 498.995 184.558 499 185.251C499.012 186.756 500.391 188.188 502.439 188.188H543.561C545.609 188.188 546.989 186.756 547 185.251C547.005 184.558 546.72 183.849 546.077 183.258Z" fill="#0D1E67"/>
<path d="M103.402 311.048L107.135 316H110.868L114.602 311.048V286.286H103.402V296.191L105.268 298.667L103.402 301.143V303.619L105.268 306.096L103.402 308.572V311.048Z" fill="#0D1E67"/>
<path d="M95.9333 269.943C96.4 267.714 97.8 266.105 99.3867 265.486C101.627 264.867 105.08 264 109 264C112.92 264 116.373 264.867 118.613 265.486C120.2 266.105 121.6 267.714 122.067 269.943C122.533 272.048 123 275.019 123 278.238C123 281.457 122.533 284.429 122.067 286.533C121.6 288.762 120.293 290.371 118.613 290.867C116.373 291.61 112.92 292.476 109 292.476C105.08 292.476 101.627 291.61 99.3867 290.99C97.7067 290.495 96.4 288.762 95.9333 286.657C95.4667 284.552 95 281.581 95 278.362C95 275.019 95.4667 272.048 95.9333 269.943ZM104.333 276.381H113.667C114.693 276.381 115.533 275.267 115.533 273.905V271.429C115.533 270.686 112.64 270.19 109 270.19C105.36 270.19 102.467 270.686 102.467 271.429V273.905C102.467 275.267 103.307 276.381 104.333 276.381Z" fill="#0D1E67"/>
<path d="M236.5 316.5V236.5C230.481 236.722 222.764 238.403 217.394 240.215C214.873 241.066 213.957 243.897 214.466 246.509C216.039 254.578 211.56 260.864 206.801 263.562C204.377 264.937 202.01 267.287 202.276 270.062C204.895 297.389 225.186 316.5 236.5 316.5Z" fill="#0D1E67" stroke="black"/>
<path d="M236 316.5V236.5C242.376 236.5 249.878 238.282 255.128 240.157C257.634 241.052 258.543 243.897 258.034 246.509C256.461 254.578 260.94 260.862 265.698 263.56C268.123 264.935 270.49 267.285 270.229 270.06C267.659 297.386 247.785 316.5 236 316.5Z" fill="#011752" stroke="black"/>
<rect y="316.5" width="648" height="5" fill="#132048"/>
<defs>
<linearGradient id="paint0_linear_266_5485" x1="143.562" y1="112.1" x2="150.562" y2="112.1" gradientUnits="userSpaceOnUse">
<stop stop-color="#00469F"/>
<stop offset="1" stop-color="#1E79D6"/>
</linearGradient>
<linearGradient id="paint1_linear_266_5485" x1="161.562" y1="112.1" x2="168.562" y2="112.1" gradientUnits="userSpaceOnUse">
<stop stop-color="#00469F"/>
<stop offset="1" stop-color="#1E79D6"/>
</linearGradient>
<clipPath id="clip0_266_5485">
<rect width="79" height="79" fill="white" transform="translate(426 107.5)"/>
</clipPath>
<clipPath id="clip1_266_5485">
<rect width="50" height="50" fill="white" transform="translate(534 186.5)"/>
</clipPath>
</defs>
</svg>
