<svg width="41" height="33" viewBox="0 0 41 33" fill="none" xmlns="http://www.w3.org/2000/svg">
<path fill-rule="evenodd" clip-rule="evenodd" d="M15.5433 0.0405005C14.925 0.150264 14.5246 0.393287 14.2886 0.801913C14.1082 1.11419 14.064 1.27618 13.9284 2.122C13.7067 3.50481 13.5052 4.01818 12.9677 4.56948C12.1982 5.35867 10.862 5.81739 9.91516 5.61741C9.44121 5.51729 8.82705 5.1729 8.10466 4.60205C7.25532 3.93096 7.01488 3.80305 6.53726 3.7684C6.18165 3.74259 6.1265 3.75504 5.74107 3.94831C4.99941 4.32026 4.14758 5.29962 3.99148 5.95989C3.8511 6.55367 3.99298 6.99115 4.65634 8.01023C5.38551 9.13029 5.521 9.49953 5.51456 10.3486C5.51095 10.8278 5.4823 11.026 5.36374 11.391C5.05944 12.3285 4.45815 13.1287 3.78607 13.4905C3.37643 13.711 3.02242 13.8124 2.16048 13.9561C1.33541 14.0935 1.02522 14.189 0.713029 14.4018C0.171221 14.7711 -0.0317406 15.4061 0.00396538 16.6206C0.0242339 17.3103 0.0382281 17.3906 0.198044 17.7362C0.49613 18.3805 0.871292 18.5727 2.10801 18.7151C3.59316 18.8861 4.02069 19.0479 4.63385 19.6711C5.05905 20.1032 5.34958 20.6033 5.53578 21.2235C5.85369 22.2826 5.70548 23.1077 5.00824 24.1604C4.85681 24.3891 4.60642 24.7663 4.45188 24.9988C3.87825 25.8615 3.84138 26.4375 4.31172 27.1903C4.72609 27.8536 5.57231 28.5807 6.123 28.7466C6.7571 28.9377 7.11161 28.8181 8.29951 28.0122C9.21454 27.3915 9.56555 27.225 10.1296 27.1439C11.0643 27.0096 12.2375 27.4167 12.9913 28.1368C13.5958 28.7144 13.8024 29.2278 13.9877 30.613C14.1239 31.6309 14.2091 31.9454 14.4344 32.261C14.7922 32.7622 15.4303 33 16.4171 33C17.3198 33 17.9081 32.7859 18.2473 32.3342C18.478 32.0269 18.567 31.7108 18.7104 30.6898C18.8489 29.7046 19.0485 29.0814 19.365 28.6466C19.8918 27.923 21.0198 27.3428 22.0403 27.2705C22.8196 27.2153 23.4199 27.439 24.5743 28.2149C24.9062 28.4379 25.28 28.667 25.4049 28.7241C26.2934 29.1293 26.9643 28.919 27.9267 27.9338C28.517 27.3295 28.7487 26.9356 28.796 26.4563C28.8393 26.0177 28.6807 25.6514 28.1162 24.8861C27.2826 23.756 27.0935 23.3221 27.0935 22.5392C27.0935 21.9333 27.1998 21.5052 27.5149 20.8426C27.9312 19.967 28.5622 19.3895 29.3981 19.119C29.5508 19.0696 29.9869 18.9619 30.3673 18.8798C30.7476 18.7976 31.1695 18.6823 31.3048 18.6234C32.1275 18.2656 32.4775 17.4469 32.4095 16.0396C32.3549 14.9107 31.994 14.3534 31.1747 14.1321C31.0527 14.0991 30.628 14.0216 30.231 13.9598C29.0658 13.7784 28.5943 13.5669 28.0671 12.9891C27.7104 12.5982 27.3092 11.812 27.1796 11.2502C27.1332 11.0487 27.0948 10.6927 27.0944 10.4591C27.0928 9.65826 27.3146 9.11288 28.0708 8.05824C28.681 7.20707 28.7861 6.97255 28.7865 6.4607C28.7868 6.08582 28.7653 5.99775 28.5962 5.68097C28.2214 4.97878 27.2564 4.13809 26.6043 3.94578C26.0182 3.77285 25.5388 3.92972 24.4726 4.6434C23.4937 5.29872 22.962 5.50281 22.2334 5.50281C21.2806 5.50281 20.0117 4.92621 19.4633 4.24402C19.2382 3.96403 18.9643 3.42581 18.8776 3.09348C18.8431 2.96146 18.7533 2.49665 18.6779 2.06053C18.4607 0.803829 18.188 0.38399 17.4336 0.144516C17.0109 0.0103547 16.0202 -0.0441886 15.5433 0.0405005ZM28.3707 4.2279C28.3707 4.23946 28.4733 4.35992 28.5986 4.49555C28.9069 4.82912 29.2326 5.33968 29.3633 5.69399C29.6997 6.60636 29.5332 7.22623 28.5977 8.54311C28.3455 8.89815 28.0908 9.28491 28.0317 9.40245C27.8439 9.77597 27.7453 10.2766 27.7852 10.6544L27.8215 10.9982L28.6653 11.0038C29.3877 11.0086 29.589 11.0308 30.0644 11.1578C32.1158 11.7057 33.6643 13.2728 34.2105 15.3536C34.3717 15.9674 34.4083 17.0869 34.2899 17.7777C34.0475 19.1913 33.2503 20.5079 32.0997 21.3949C31.6412 21.7483 30.7554 22.1921 30.2011 22.3461C29.5949 22.5145 28.7113 22.5971 28.1844 22.5346L27.7482 22.4829L27.7849 22.7688C27.8407 23.2037 28.0452 23.5975 28.6206 24.379C28.9091 24.7707 29.2093 25.2334 29.2878 25.4072C29.6562 26.2239 29.5515 26.9973 28.9584 27.8408C28.6708 28.2497 27.9679 28.9398 27.6533 29.1222C27.5291 29.1941 27.4274 29.2701 27.4272 29.2911C27.4262 29.3726 28.0464 29.5589 28.4347 29.594C28.9018 29.636 29.4547 29.5514 29.7667 29.3899C30.1862 29.1726 30.3152 28.8667 30.5047 27.6398C30.6051 26.9898 30.7611 26.5437 31.0005 26.2225C31.2157 25.9337 31.751 25.5591 32.1863 25.3927C33.18 25.013 33.826 25.1304 34.9423 25.894C35.6084 26.3496 35.7963 26.4301 36.2005 26.433C36.6825 26.4364 37.0001 26.2737 37.5088 25.7625C38.0392 25.2296 38.2261 24.8975 38.2236 24.4924C38.2213 24.119 38.1475 23.9651 37.629 23.252C37.0971 22.5206 36.9627 22.2094 36.9331 21.641C36.895 20.9084 37.1805 20.1285 37.6884 19.5776C38.1105 19.1197 38.4576 18.9513 39.395 18.7496C40.6916 18.4707 40.9922 18.1002 40.9995 16.7721C41.003 16.1231 40.9918 16.0427 40.8558 15.7479C40.6203 15.2373 40.3674 15.11 39.2567 14.9431C38.6309 14.849 38.1466 14.6576 37.8151 14.3732C37.5255 14.1247 37.2125 13.5894 37.0526 13.0688C36.9326 12.6782 36.9126 12.523 36.9327 12.1364C36.9625 11.5627 37.1056 11.2233 37.637 10.4668C37.846 10.1694 38.0632 9.83728 38.1198 9.72881C38.2705 9.44003 38.2581 8.92536 38.0926 8.60187C37.9148 8.2541 37.1801 7.53039 36.8391 7.36704C36.247 7.08333 35.8507 7.15895 35.019 7.7143C34.7373 7.90239 34.3448 8.13346 34.1468 8.22785C33.0782 8.73705 31.5181 8.24988 30.8634 7.20245C30.6703 6.89339 30.5672 6.54409 30.4531 5.81153C30.2989 4.82152 30.0263 4.45143 29.3289 4.28487C29.0399 4.2159 28.3707 4.17607 28.3707 4.2279ZM17.82 8.93556C20.8338 9.55109 23.1236 11.9326 23.6832 15.0335C23.7879 15.6133 23.8009 16.8719 23.7084 17.4739C23.5504 18.5032 23.1216 19.613 22.5317 20.5192C22.1489 21.1075 21.0835 22.1896 20.5132 22.5695C19.2324 23.4227 17.8966 23.8318 16.3762 23.8366C15.0647 23.8407 13.9851 23.5656 12.8237 22.9313C10.9444 21.9049 9.61852 20.1202 9.1158 17.9399C8.9892 17.3909 8.96965 17.1809 8.96793 16.3495C8.96577 15.3269 9.02951 14.8842 9.30822 13.9849C9.78711 12.4399 10.8485 11.0128 12.2314 10.0544C12.7058 9.72565 13.718 9.2489 14.2986 9.08076C15.4062 8.75998 16.6992 8.70668 17.82 8.93556Z" fill="url(#paint0_linear_3091_48817)"/>
<defs>
<linearGradient id="paint0_linear_3091_48817" x1="0" y1="16.9459" x2="41" y2="16.9459" gradientUnits="userSpaceOnUse">
<stop stop-color="#00469F"/>
<stop offset="1" stop-color="#1E79D6"/>
</linearGradient>
</defs>
</svg>
