<svg width="42" height="33" viewBox="0 0 42 33" fill="none" xmlns="http://www.w3.org/2000/svg">
<path fill-rule="evenodd" clip-rule="evenodd" d="M16.0433 0.0405005C15.425 0.150264 15.0246 0.393287 14.7886 0.801913C14.6082 1.11419 14.564 1.27618 14.4284 2.122C14.2067 3.50481 14.0052 4.01818 13.4677 4.56948C12.6982 5.35867 11.362 5.81739 10.4152 5.61741C9.94121 5.51729 9.32705 5.1729 8.60466 4.60205C7.75532 3.93096 7.51488 3.80305 7.03726 3.7684C6.68165 3.74259 6.6265 3.75504 6.24107 3.94831C5.49941 4.32026 4.64758 5.29962 4.49148 5.95989C4.3511 6.55367 4.49298 6.99115 5.15634 8.01023C5.88551 9.13029 6.021 9.49953 6.01456 10.3486C6.01095 10.8278 5.9823 11.026 5.86374 11.391C5.55944 12.3285 4.95815 13.1287 4.28607 13.4905C3.87643 13.711 3.52242 13.8124 2.66048 13.9561C1.83541 14.0935 1.52522 14.189 1.21303 14.4018C0.671221 14.7711 0.468259 15.4061 0.503965 16.6206C0.524234 17.3103 0.538228 17.3906 0.698044 17.7362C0.99613 18.3805 1.37129 18.5727 2.60801 18.7151C4.09316 18.8861 4.52069 19.0479 5.13385 19.6711C5.55905 20.1032 5.84958 20.6033 6.03578 21.2235C6.35369 22.2826 6.20548 23.1077 5.50824 24.1604C5.35681 24.3891 5.10642 24.7663 4.95188 24.9988C4.37825 25.8615 4.34138 26.4375 4.81172 27.1903C5.22609 27.8536 6.07231 28.5807 6.623 28.7466C7.2571 28.9377 7.61161 28.8181 8.79951 28.0122C9.71454 27.3915 10.0655 27.225 10.6296 27.1439C11.5643 27.0096 12.7375 27.4167 13.4913 28.1368C14.0958 28.7144 14.3024 29.2278 14.4877 30.613C14.6239 31.6309 14.7091 31.9454 14.9344 32.261C15.2922 32.7622 15.9303 33 16.9171 33C17.8198 33 18.4081 32.7859 18.7473 32.3342C18.978 32.0269 19.067 31.7108 19.2104 30.6898C19.3489 29.7046 19.5485 29.0814 19.865 28.6466C20.3918 27.923 21.5198 27.3428 22.5403 27.2705C23.3196 27.2153 23.9199 27.439 25.0743 28.2149C25.4062 28.4379 25.78 28.667 25.9049 28.7241C26.7934 29.1293 27.4643 28.919 28.4267 27.9338C29.017 27.3295 29.2487 26.9356 29.296 26.4563C29.3393 26.0177 29.1807 25.6514 28.6162 24.8861C27.7826 23.756 27.5935 23.3221 27.5935 22.5392C27.5935 21.9333 27.6998 21.5052 28.0149 20.8426C28.4312 19.967 29.0622 19.3895 29.8981 19.119C30.0508 19.0696 30.4869 18.9619 30.8673 18.8798C31.2476 18.7976 31.6695 18.6823 31.8048 18.6234C32.6275 18.2656 32.9775 17.4469 32.9095 16.0396C32.8549 14.9107 32.494 14.3534 31.6747 14.1321C31.5527 14.0991 31.128 14.0216 30.731 13.9598C29.5658 13.7784 29.0943 13.5669 28.5671 12.9891C28.2104 12.5982 27.8092 11.812 27.6796 11.2502C27.6332 11.0487 27.5948 10.6927 27.5944 10.4591C27.5928 9.65826 27.8146 9.11288 28.5708 8.05824C29.181 7.20707 29.2861 6.97255 29.2865 6.4607C29.2868 6.08582 29.2653 5.99775 29.0962 5.68097C28.7214 4.97878 27.7564 4.13809 27.1043 3.94578C26.5182 3.77285 26.0388 3.92972 24.9726 4.6434C23.9937 5.29872 23.462 5.50281 22.7334 5.50281C21.7806 5.50281 20.5117 4.92621 19.9633 4.24402C19.7382 3.96403 19.4643 3.42581 19.3776 3.09348C19.3431 2.96146 19.2533 2.49665 19.1779 2.06053C18.9607 0.803829 18.688 0.38399 17.9336 0.144516C17.5109 0.0103547 16.5202 -0.0441886 16.0433 0.0405005ZM28.8707 4.2279C28.8707 4.23946 28.9733 4.35992 29.0986 4.49555C29.4069 4.82912 29.7326 5.33968 29.8633 5.69399C30.1997 6.60636 30.0332 7.22623 29.0977 8.54311C28.8455 8.89815 28.5908 9.28491 28.5317 9.40245C28.3439 9.77597 28.2453 10.2766 28.2852 10.6544L28.3215 10.9982L29.1653 11.0038C29.8877 11.0086 30.089 11.0308 30.5644 11.1578C32.6158 11.7057 34.1643 13.2728 34.7105 15.3536C34.8717 15.9674 34.9083 17.0869 34.7899 17.7777C34.5475 19.1913 33.7503 20.5079 32.5997 21.3949C32.1412 21.7483 31.2554 22.1921 30.7011 22.3461C30.0949 22.5145 29.2113 22.5971 28.6844 22.5346L28.2482 22.4829L28.2849 22.7688C28.3407 23.2037 28.5452 23.5975 29.1206 24.379C29.4091 24.7707 29.7093 25.2334 29.7878 25.4072C30.1562 26.2239 30.0515 26.9973 29.4584 27.8408C29.1708 28.2497 28.4679 28.9398 28.1533 29.1222C28.0291 29.1941 27.9274 29.2701 27.9272 29.2911C27.9262 29.3726 28.5464 29.5589 28.9347 29.594C29.4018 29.636 29.9547 29.5514 30.2667 29.3899C30.6862 29.1726 30.8152 28.8667 31.0047 27.6398C31.1051 26.9898 31.2611 26.5437 31.5005 26.2225C31.7157 25.9337 32.251 25.5591 32.6863 25.3927C33.68 25.013 34.326 25.1304 35.4423 25.894C36.1084 26.3496 36.2963 26.4301 36.7005 26.433C37.1825 26.4364 37.5001 26.2737 38.0088 25.7625C38.5392 25.2296 38.7261 24.8975 38.7236 24.4924C38.7213 24.119 38.6475 23.9651 38.129 23.252C37.5971 22.5206 37.4627 22.2094 37.4331 21.641C37.395 20.9084 37.6805 20.1285 38.1884 19.5776C38.6105 19.1197 38.9576 18.9513 39.895 18.7496C41.1916 18.4707 41.4922 18.1002 41.4995 16.7721C41.503 16.1231 41.4918 16.0427 41.3558 15.7479C41.1203 15.2373 40.8674 15.11 39.7567 14.9431C39.1309 14.849 38.6466 14.6576 38.3151 14.3732C38.0255 14.1247 37.7125 13.5894 37.5526 13.0688C37.4326 12.6782 37.4126 12.523 37.4327 12.1364C37.4625 11.5627 37.6056 11.2233 38.137 10.4668C38.346 10.1694 38.5632 9.83728 38.6198 9.72881C38.7705 9.44003 38.7581 8.92536 38.5926 8.60187C38.4148 8.2541 37.6801 7.53039 37.3391 7.36704C36.747 7.08333 36.3507 7.15895 35.519 7.7143C35.2373 7.90239 34.8448 8.13346 34.6468 8.22785C33.5782 8.73705 32.0181 8.24988 31.3634 7.20245C31.1703 6.89339 31.0672 6.54409 30.9531 5.81153C30.7989 4.82152 30.5263 4.45143 29.8289 4.28487C29.5399 4.2159 28.8707 4.17607 28.8707 4.2279ZM18.32 8.93556C21.3338 9.55109 23.6236 11.9326 24.1832 15.0335C24.2879 15.6133 24.3009 16.8719 24.2084 17.4739C24.0504 18.5032 23.6216 19.613 23.0317 20.5192C22.6489 21.1075 21.5835 22.1896 21.0132 22.5695C19.7324 23.4227 18.3966 23.8318 16.8762 23.8366C15.5647 23.8407 14.4851 23.5656 13.3237 22.9313C11.4444 21.9049 10.1185 20.1202 9.6158 17.9399C9.4892 17.3909 9.46965 17.1809 9.46793 16.3495C9.46577 15.3269 9.52951 14.8842 9.80822 13.9849C10.2871 12.4399 11.3485 11.0128 12.7314 10.0544C13.2058 9.72565 14.218 9.2489 14.7986 9.08076C15.9062 8.75998 17.1992 8.70668 18.32 8.93556Z" fill="white"/>
</svg>
