<svg width="47" height="46" viewBox="0 0 47 46" fill="none" xmlns="http://www.w3.org/2000/svg">
<path d="M23 40.25C32.5269 40.25 40.25 32.5269 40.25 23C40.25 13.4731 32.5269 5.75 23 5.75C13.4731 5.75 5.75 13.4731 5.75 23C5.75 32.5269 13.4731 40.25 23 40.25Z" stroke="white" stroke-width="2" stroke-miterlimit="10"/>
<path d="M5.75 23H40.25" stroke="white" stroke-width="2" stroke-linecap="round" stroke-linejoin="round"/>
<path d="M23 39.7824C26.9695 39.7824 30.1875 32.2685 30.1875 22.9996C30.1875 13.7307 26.9695 6.2168 23 6.2168C19.0305 6.2168 15.8125 13.7307 15.8125 22.9996C15.8125 32.2685 19.0305 39.7824 23 39.7824Z" stroke="white" stroke-width="2" stroke-miterlimit="10"/>
<path d="M32.6562 36.6168V32.7188C32.6562 32.5779 32.7122 32.4427 32.8118 32.3431C32.9115 32.2435 33.0466 32.1875 33.1875 32.1875H43.8125C43.9534 32.1875 44.0885 32.2435 44.1882 32.3431C44.2878 32.4427 44.3438 32.5779 44.3438 32.7188V36.6168C44.3438 42.1949 39.609 44.041 38.666 44.3531C38.5589 44.3928 38.4411 44.3928 38.334 44.3531C37.391 44.041 32.6562 42.1949 32.6562 36.6168Z" stroke="white" stroke-width="1.5" stroke-linecap="round" stroke-linejoin="round"/>
<path fill-rule="evenodd" clip-rule="evenodd" d="M32.6562 32.7188V36.6168C32.6562 42.1949 37.391 44.041 38.334 44.3531C38.4411 44.3928 38.5589 44.3928 38.666 44.3531C39.609 44.041 44.3438 42.1949 44.3438 36.6168V32.7188C44.3438 32.5779 44.2878 32.4427 44.1882 32.3431C44.0885 32.2435 43.9534 32.1875 43.8125 32.1875H33.1875C33.0466 32.1875 32.9115 32.2435 32.8118 32.3431C32.7122 32.4427 32.6562 32.5779 32.6562 32.7188ZM41.9396 36.4489C42.2393 36.163 42.2505 35.6883 41.9645 35.3885C41.6786 35.0888 41.2039 35.0777 40.9042 35.3636L37.5243 38.588L36.0963 37.2234C35.7968 36.9372 35.3221 36.948 35.0359 37.2475C34.7497 37.5469 34.7605 38.0217 35.06 38.3078L37.0057 40.1672C37.2954 40.4441 37.7516 40.4443 38.0415 40.1677L41.9396 36.4489Z" fill="white"/>
</svg>
