<svg width="536" height="456" viewBox="0 0 536 456" fill="none" xmlns="http://www.w3.org/2000/svg">
<path d="M336.77 353.594L356.728 341.847" stroke="url(#paint0_linear_410_2970)"/>
<path d="M475.578 273.681L516.535 246.078" stroke="url(#paint1_linear_410_2970)"/>
<path d="M212.733 266.05L197.48 277.75" stroke="url(#paint2_linear_410_2970)"/>
<path d="M201.547 342.864L219.158 353.437" stroke="url(#paint3_linear_410_2970)"/>
<path d="M337.289 101.74L359.659 115.984" stroke="url(#paint4_linear_410_2970)"/>
<path d="M354.067 184.658L332.074 198.53" stroke="url(#paint5_linear_410_2970)"/>
<path d="M195.957 118.527L215.785 104.792" stroke="url(#paint6_linear_410_2970)"/>
<path d="M19.4688 223.353L76.9855 186.185" stroke="url(#paint7_linear_410_2970)"/>
<path d="M139.441 220.784V161.005L200.779 124.34V183.322L139.441 220.784Z" fill="url(#paint8_linear_410_2970)"/>
<path d="M75.707 124.34L134.655 161.005V220.784L75.707 186.51V124.34Z" fill="url(#paint9_linear_410_2970)"/>
<path d="M138.36 82.2314L75.707 118.761L137.045 156.222L200.772 118.761L138.36 82.2314Z" fill="url(#paint10_linear_410_2970)"/>
<path d="M278.078 138.618V77.5323L339.129 42.2903V101.027L278.078 138.618Z" fill="url(#paint11_linear_410_2970)"/>
<path d="M214.676 42.2903L273.379 78.707L272.205 138.618L214.676 104.551V42.2903Z" fill="url(#paint12_linear_410_2970)"/>
<path d="M276.906 0L215.855 36.4167L276.906 74.0082L335.609 36.4167L276.906 0Z" fill="url(#paint13_linear_410_2970)"/>
<path d="M416.613 220.85V159.764L477.664 124.522V183.258L416.613 220.85Z" fill="url(#paint14_linear_410_2970)"/>
<path d="M353.211 124.522L411.914 160.938L410.74 220.85L353.211 186.783V124.522Z" fill="url(#paint15_linear_410_2970)"/>
<path d="M415.442 82.2314L354.391 118.648L415.442 156.24L474.144 118.648L415.442 82.2314Z" fill="url(#paint16_linear_410_2970)"/>
<path opacity="0.68" d="M276.441 301.267L277.739 239.054L336.14 202.576V262.31L276.441 301.267Z" fill="url(#paint17_linear_410_2970)"/>
<path opacity="0.68" d="M212.32 204.403L271.244 238.936L271.023 301.267L212.32 266.664V204.403Z" fill="url(#paint18_linear_410_2970)"/>
<path opacity="0.68" d="M274.551 162.113L213.5 198.53L274.492 236.339L333.543 198.68L274.551 162.113Z" fill="url(#paint19_linear_410_2970)"/>
<path d="M141.887 380.613V319.527L202.938 284.285V343.022L141.887 380.613Z" fill="url(#paint20_linear_410_2970)"/>
<path d="M78.4844 284.285L137.187 320.702L136.013 380.613L78.4844 346.546V284.285Z" fill="url(#paint21_linear_410_2970)"/>
<path d="M140.715 241.995L79.6641 278.411L140.715 316.003L199.418 278.411L140.715 241.995Z" fill="url(#paint22_linear_410_2970)"/>
<path d="M280.43 455.796V394.71L341.481 359.468V418.205L280.43 455.796Z" fill="url(#paint23_linear_410_2970)"/>
<path d="M217.027 359.468L275.73 395.885L274.556 455.796L217.027 421.729V359.468Z" fill="url(#paint24_linear_410_2970)"/>
<path d="M279.258 317.178L218.207 353.594L279.258 391.186L337.961 353.594L279.258 317.178Z" fill="url(#paint25_linear_410_2970)"/>
<path d="M418.961 375.915V314.828L480.012 279.586V338.323L418.961 375.915Z" fill="url(#paint26_linear_410_2970)"/>
<path d="M355.559 279.586L414.261 316.003L413.087 375.915L355.559 341.847V279.586Z" fill="url(#paint27_linear_410_2970)"/>
<path d="M417.789 237.296L356.738 273.713L417.789 311.304L476.492 273.713L417.789 237.296Z" fill="url(#paint28_linear_410_2970)"/>
<ellipse cx="11.0286" cy="229.197" rx="7.13799" ry="7.14211" fill="url(#paint29_linear_410_2970)"/>
<path d="M21.5629 229.196C21.5629 235.017 16.8475 239.734 11.0314 239.734C5.21536 239.734 0.5 235.017 0.5 229.196C0.5 223.376 5.21536 218.659 11.0314 218.659C16.8475 218.659 21.5629 223.376 21.5629 229.196Z" stroke="url(#paint30_linear_410_2970)"/>
<ellipse cx="524.966" cy="240.884" rx="7.13799" ry="7.14211" fill="url(#paint31_linear_410_2970)"/>
<path d="M535.5 240.884C535.5 246.704 530.785 251.421 524.969 251.421C519.153 251.421 514.438 246.704 514.438 240.884C514.438 235.063 519.153 230.346 524.969 230.346C530.785 230.346 535.5 235.063 535.5 240.884Z" stroke="url(#paint32_linear_410_2970)"/>
<defs>
<linearGradient id="paint0_linear_410_2970" x1="336.77" y1="347.88" x2="356.728" y2="347.88" gradientUnits="userSpaceOnUse">
<stop stop-color="#00469F"/>
<stop offset="1" stop-color="#1E79D6"/>
</linearGradient>
<linearGradient id="paint1_linear_410_2970" x1="475.578" y1="260.252" x2="516.535" y2="260.252" gradientUnits="userSpaceOnUse">
<stop stop-color="#00469F"/>
<stop offset="1" stop-color="#1E79D6"/>
</linearGradient>
<linearGradient id="paint2_linear_410_2970" x1="197.48" y1="272.058" x2="212.733" y2="272.058" gradientUnits="userSpaceOnUse">
<stop stop-color="#00469F"/>
<stop offset="1" stop-color="#1E79D6"/>
</linearGradient>
<linearGradient id="paint3_linear_410_2970" x1="201.547" y1="348.293" x2="219.158" y2="348.293" gradientUnits="userSpaceOnUse">
<stop stop-color="#00469F"/>
<stop offset="1" stop-color="#1E79D6"/>
</linearGradient>
<linearGradient id="paint4_linear_410_2970" x1="337.289" y1="109.054" x2="359.659" y2="109.054" gradientUnits="userSpaceOnUse">
<stop stop-color="#00469F"/>
<stop offset="1" stop-color="#1E79D6"/>
</linearGradient>
<linearGradient id="paint5_linear_410_2970" x1="332.074" y1="191.781" x2="354.067" y2="191.781" gradientUnits="userSpaceOnUse">
<stop stop-color="#00469F"/>
<stop offset="1" stop-color="#1E79D6"/>
</linearGradient>
<linearGradient id="paint6_linear_410_2970" x1="195.957" y1="111.846" x2="215.785" y2="111.846" gradientUnits="userSpaceOnUse">
<stop stop-color="#00469F"/>
<stop offset="1" stop-color="#1E79D6"/>
</linearGradient>
<linearGradient id="paint7_linear_410_2970" x1="19.4688" y1="205.271" x2="76.9855" y2="205.271" gradientUnits="userSpaceOnUse">
<stop stop-color="#00469F"/>
<stop offset="1" stop-color="#1E79D6"/>
</linearGradient>
<linearGradient id="paint8_linear_410_2970" x1="139.441" y1="173.865" x2="200.779" y2="173.865" gradientUnits="userSpaceOnUse">
<stop stop-color="#00469F"/>
<stop offset="1" stop-color="#1E79D6"/>
</linearGradient>
<linearGradient id="paint9_linear_410_2970" x1="75.707" y1="173.865" x2="134.655" y2="173.865" gradientUnits="userSpaceOnUse">
<stop stop-color="#00469F"/>
<stop offset="1" stop-color="#1E79D6"/>
</linearGradient>
<linearGradient id="paint10_linear_410_2970" x1="75.707" y1="120.227" x2="200.772" y2="120.227" gradientUnits="userSpaceOnUse">
<stop stop-color="#00469F"/>
<stop offset="1" stop-color="#1E79D6"/>
</linearGradient>
<linearGradient id="paint11_linear_410_2970" x1="278.078" y1="91.7561" x2="339.129" y2="91.7561" gradientUnits="userSpaceOnUse">
<stop stop-color="#00469F"/>
<stop offset="1" stop-color="#1E79D6"/>
</linearGradient>
<linearGradient id="paint12_linear_410_2970" x1="214.676" y1="91.7561" x2="273.379" y2="91.7561" gradientUnits="userSpaceOnUse">
<stop stop-color="#00469F"/>
<stop offset="1" stop-color="#1E79D6"/>
</linearGradient>
<linearGradient id="paint13_linear_410_2970" x1="215.855" y1="38.0042" x2="335.609" y2="38.0042" gradientUnits="userSpaceOnUse">
<stop stop-color="#00469F"/>
<stop offset="1" stop-color="#1E79D6"/>
</linearGradient>
<linearGradient id="paint14_linear_410_2970" x1="416.613" y1="173.988" x2="477.664" y2="173.988" gradientUnits="userSpaceOnUse">
<stop stop-color="#00469F"/>
<stop offset="1" stop-color="#1E79D6"/>
</linearGradient>
<linearGradient id="paint15_linear_410_2970" x1="353.211" y1="173.988" x2="411.914" y2="173.988" gradientUnits="userSpaceOnUse">
<stop stop-color="#00469F"/>
<stop offset="1" stop-color="#1E79D6"/>
</linearGradient>
<linearGradient id="paint16_linear_410_2970" x1="354.391" y1="120.236" x2="474.144" y2="120.236" gradientUnits="userSpaceOnUse">
<stop stop-color="#00469F"/>
<stop offset="1" stop-color="#1E79D6"/>
</linearGradient>
<linearGradient id="paint17_linear_410_2970" x1="276.441" y1="253.255" x2="336.14" y2="253.255" gradientUnits="userSpaceOnUse">
<stop stop-color="#00469F"/>
<stop offset="1" stop-color="#1E79D6"/>
</linearGradient>
<linearGradient id="paint18_linear_410_2970" x1="212.32" y1="254.144" x2="271.244" y2="254.144" gradientUnits="userSpaceOnUse">
<stop stop-color="#00469F"/>
<stop offset="1" stop-color="#1E79D6"/>
</linearGradient>
<linearGradient id="paint19_linear_410_2970" x1="213.5" y1="200.229" x2="333.543" y2="200.229" gradientUnits="userSpaceOnUse">
<stop stop-color="#00469F"/>
<stop offset="1" stop-color="#1E79D6"/>
</linearGradient>
<linearGradient id="paint20_linear_410_2970" x1="141.887" y1="333.751" x2="202.938" y2="333.751" gradientUnits="userSpaceOnUse">
<stop stop-color="#00469F"/>
<stop offset="1" stop-color="#1E79D6"/>
</linearGradient>
<linearGradient id="paint21_linear_410_2970" x1="78.4844" y1="333.751" x2="137.187" y2="333.751" gradientUnits="userSpaceOnUse">
<stop stop-color="#00469F"/>
<stop offset="1" stop-color="#1E79D6"/>
</linearGradient>
<linearGradient id="paint22_linear_410_2970" x1="79.6641" y1="279.999" x2="199.418" y2="279.999" gradientUnits="userSpaceOnUse">
<stop stop-color="#00469F"/>
<stop offset="1" stop-color="#1E79D6"/>
</linearGradient>
<linearGradient id="paint23_linear_410_2970" x1="280.43" y1="408.934" x2="341.481" y2="408.934" gradientUnits="userSpaceOnUse">
<stop stop-color="#00469F"/>
<stop offset="1" stop-color="#1E79D6"/>
</linearGradient>
<linearGradient id="paint24_linear_410_2970" x1="217.027" y1="408.934" x2="275.73" y2="408.934" gradientUnits="userSpaceOnUse">
<stop stop-color="#00469F"/>
<stop offset="1" stop-color="#1E79D6"/>
</linearGradient>
<linearGradient id="paint25_linear_410_2970" x1="218.207" y1="355.182" x2="337.961" y2="355.182" gradientUnits="userSpaceOnUse">
<stop stop-color="#00469F"/>
<stop offset="1" stop-color="#1E79D6"/>
</linearGradient>
<linearGradient id="paint26_linear_410_2970" x1="418.961" y1="329.052" x2="480.012" y2="329.052" gradientUnits="userSpaceOnUse">
<stop stop-color="#00469F"/>
<stop offset="1" stop-color="#1E79D6"/>
</linearGradient>
<linearGradient id="paint27_linear_410_2970" x1="355.559" y1="329.052" x2="414.261" y2="329.052" gradientUnits="userSpaceOnUse">
<stop stop-color="#00469F"/>
<stop offset="1" stop-color="#1E79D6"/>
</linearGradient>
<linearGradient id="paint28_linear_410_2970" x1="356.738" y1="275.3" x2="476.492" y2="275.3" gradientUnits="userSpaceOnUse">
<stop stop-color="#00469F"/>
<stop offset="1" stop-color="#1E79D6"/>
</linearGradient>
<linearGradient id="paint29_linear_410_2970" x1="3.89063" y1="229.39" x2="18.1666" y2="229.39" gradientUnits="userSpaceOnUse">
<stop stop-color="#00469F"/>
<stop offset="1" stop-color="#1E79D6"/>
</linearGradient>
<linearGradient id="paint30_linear_410_2970" x1="0" y1="229.495" x2="22.0629" y2="229.495" gradientUnits="userSpaceOnUse">
<stop stop-color="#00469F"/>
<stop offset="1" stop-color="#1E79D6"/>
</linearGradient>
<linearGradient id="paint31_linear_410_2970" x1="517.828" y1="241.077" x2="532.104" y2="241.077" gradientUnits="userSpaceOnUse">
<stop stop-color="#00469F"/>
<stop offset="1" stop-color="#1E79D6"/>
</linearGradient>
<linearGradient id="paint32_linear_410_2970" x1="513.938" y1="241.182" x2="536" y2="241.182" gradientUnits="userSpaceOnUse">
<stop stop-color="#00469F"/>
<stop offset="1" stop-color="#1E79D6"/>
</linearGradient>
</defs>
</svg>
