<svg width="456" height="203" viewBox="0 0 456 203" fill="none" xmlns="http://www.w3.org/2000/svg">
<g style="mix-blend-mode:multiply">
<path d="M100.51 17.3L70.8897 0.22C70.6414 0.0778238 70.3601 0.00351552 70.074 0.00451511C69.7879 0.0055147 69.5071 0.0817993 69.2598 0.225707C69.0126 0.369614 68.8075 0.576079 68.6653 0.824339C68.5231 1.0726 68.4487 1.35391 68.4497 1.64001V38.64L100.51 20.15C100.767 20.0111 100.981 19.8053 101.131 19.5545C101.28 19.3037 101.359 19.017 101.359 18.725C101.359 18.433 101.28 18.1464 101.131 17.8955C100.981 17.6447 100.767 17.4389 100.51 17.3Z" fill="#444446"/>
</g>
<g style="mix-blend-mode:multiply">
<path d="M100.51 37.2L68.4497 18.73V55.73C68.4505 56.0153 68.5261 56.2953 68.669 56.5422C68.812 56.789 69.0172 56.9941 69.2641 57.1368C69.5111 57.2795 69.7913 57.355 70.0765 57.3555C70.3618 57.3561 70.6422 57.2818 70.8897 57.14L100.51 40.06C100.769 39.9219 100.986 39.7159 101.137 39.464C101.289 39.2121 101.368 38.9238 101.368 38.63C101.368 38.3362 101.289 38.0479 101.137 37.796C100.986 37.5441 100.769 37.3381 100.51 37.2Z" fill="#498AC9"/>
</g>
<g style="mix-blend-mode:multiply">
<path d="M85.6699 28.66L53.5999 10.17C53.3516 10.029 53.0708 9.95519 52.7852 9.95599C52.4997 9.95679 52.2193 10.0321 51.9718 10.1746C51.7243 10.317 51.5183 10.5216 51.3741 10.7681C51.23 11.0146 51.1527 11.2945 51.1499 11.58V45.73C51.1497 46.0167 51.2251 46.2985 51.3685 46.5467C51.512 46.795 51.7183 47.001 51.9669 47.144C52.2154 47.2871 52.4972 47.362 52.7839 47.3613C53.0706 47.3606 53.3521 47.2843 53.5999 47.14L85.6699 28.66Z" fill="#C7C8CA"/>
</g>
<path d="M233.67 33.28C233.569 33.2796 233.472 33.2402 233.4 33.17L226.64 26.73L217.24 24.1C217.159 24.0779 217.087 24.0296 217.037 23.9627C216.986 23.8958 216.959 23.8139 216.96 23.73V13.22C216.958 13.1332 216.986 13.0485 217.04 12.98L216.35 13.47C216.266 13.5289 216.162 13.5525 216.061 13.5357C215.96 13.5188 215.87 13.4629 215.81 13.38C215.751 13.2962 215.727 13.1926 215.744 13.0915C215.761 12.9905 215.817 12.9001 215.9 12.84L226.48 5.26C226.558 5.20418 226.654 5.17925 226.75 5.18999L241.79 6.93002C241.888 6.94421 241.977 6.99406 242.04 7.07L250.12 16.47C250.163 16.5157 250.194 16.5723 250.208 16.634C250.222 16.6956 250.219 16.7599 250.2 16.82L247.99 25.07C247.968 25.1618 247.913 25.2424 247.836 25.296C247.758 25.3496 247.663 25.3724 247.57 25.36L239.17 24.36L233.99 33.07C233.961 33.1203 233.921 33.163 233.872 33.1943C233.823 33.2256 233.767 33.2447 233.71 33.25L233.67 33.28ZM217.73 23.43L226.94 26.01C227.003 26.0257 227.061 26.0566 227.11 26.1L233.58 32.27L238.64 23.77C238.678 23.705 238.734 23.6524 238.802 23.6187C238.869 23.585 238.945 23.5716 239.02 23.58L247.34 24.58L249.41 16.85L241.56 7.73L226.79 5.98L217.2 12.85C217.258 12.8333 217.32 12.83 217.379 12.8406C217.439 12.8511 217.496 12.8751 217.545 12.9107C217.594 12.9464 217.634 12.9928 217.663 13.0463C217.692 13.0999 217.708 13.1593 217.71 13.22L217.73 23.43Z" fill="#C7C8CA"/>
<path d="M226.98 26.73C226.922 26.7296 226.864 26.7159 226.812 26.6899C226.76 26.6639 226.715 26.6263 226.68 26.58L216.03 13.36C215.99 13.3217 215.959 13.2755 215.939 13.2244C215.918 13.1732 215.909 13.1183 215.911 13.0633C215.914 13.0083 215.927 12.9544 215.952 12.9052C215.977 12.8559 216.012 12.8125 216.054 12.7776C216.097 12.7428 216.146 12.7174 216.2 12.7031C216.253 12.6888 216.308 12.6859 216.363 12.6946C216.417 12.7034 216.469 12.7235 216.515 12.7537C216.561 12.784 216.6 12.8236 216.63 12.87L226.63 25.24V6.43001C226.644 6.33856 226.691 6.25532 226.762 6.19527C226.832 6.13522 226.922 6.10225 227.015 6.10225C227.107 6.10225 227.197 6.13522 227.268 6.19527C227.338 6.25532 227.385 6.33856 227.4 6.43001V26.38C227.399 26.4607 227.373 26.5392 227.327 26.6053C227.281 26.6713 227.215 26.7217 227.14 26.75L226.98 26.73Z" fill="#C7C8CA"/>
<path d="M234.36 32.92C234.276 32.9207 234.194 32.8937 234.127 32.843C234.06 32.7924 234.012 32.721 233.99 32.64L230.31 20.01L216.17 13.73C216.12 13.7109 216.075 13.682 216.037 13.6449C215.999 13.6078 215.969 13.5634 215.949 13.5143C215.929 13.4652 215.919 13.4126 215.92 13.3595C215.921 13.3065 215.933 13.2542 215.954 13.2058C215.976 13.1574 216.008 13.114 216.047 13.0782C216.086 13.0424 216.132 13.015 216.182 12.9976C216.232 12.9802 216.285 12.9732 216.338 12.9771C216.391 12.9809 216.443 12.9955 216.49 13.02L230.79 19.4C230.84 19.4246 230.885 19.4595 230.921 19.5026C230.958 19.5457 230.984 19.5959 231 19.65L234.73 32.46C234.758 32.5581 234.746 32.6633 234.698 32.7531C234.649 32.8428 234.567 32.9099 234.47 32.94L234.36 32.92Z" fill="#C7C8CA"/>
<path d="M235.79 16.86C235.735 16.8613 235.68 16.8502 235.63 16.8277C235.58 16.8052 235.536 16.7719 235.5 16.73L225.84 6.24002C225.801 6.2034 225.77 6.15921 225.749 6.11017C225.728 6.06113 225.717 6.00829 225.718 5.95493C225.718 5.90157 225.729 5.84881 225.75 5.79993C225.772 5.75105 225.803 5.70706 225.842 5.67072C225.881 5.63438 225.927 5.60645 225.977 5.58866C226.028 5.57086 226.081 5.56358 226.134 5.56726C226.188 5.57095 226.24 5.58553 226.287 5.61008C226.334 5.63463 226.376 5.66865 226.41 5.71002L236.07 16.21C236.107 16.2446 236.136 16.2864 236.156 16.3329C236.177 16.3793 236.187 16.4294 236.187 16.48C236.187 16.5306 236.177 16.5807 236.156 16.6271C236.136 16.6736 236.107 16.7154 236.07 16.75C236.033 16.7864 235.989 16.815 235.941 16.8339C235.893 16.8528 235.842 16.8617 235.79 16.86Z" fill="#C7C8CA"/>
<path d="M249.84 17.14H235.79C235.738 17.1414 235.687 17.1322 235.639 17.1131C235.591 17.094 235.547 17.0653 235.511 17.0288C235.474 16.9923 235.446 16.9488 235.427 16.9009C235.408 16.8529 235.398 16.8016 235.4 16.75C235.4 16.6466 235.441 16.5474 235.514 16.4742C235.587 16.4011 235.686 16.36 235.79 16.36H249.79C249.892 16.3625 249.99 16.4044 250.063 16.477C250.135 16.5496 250.177 16.6474 250.18 16.75C250.181 16.8453 250.146 16.9377 250.084 17.0095C250.021 17.0814 249.934 17.1278 249.84 17.14Z" fill="#C7C8CA"/>
<path d="M238.97 24.5H238.91C238.809 24.4805 238.719 24.4229 238.66 24.3391C238.6 24.2553 238.575 24.1518 238.59 24.05L241.37 7.24999C241.378 7.1997 241.397 7.15163 241.424 7.10861C241.451 7.06558 241.487 7.02849 241.529 6.99957C241.571 6.97064 241.618 6.95044 241.668 6.94021C241.718 6.92998 241.77 6.92991 241.82 6.94C241.92 6.9572 242.009 7.01282 242.069 7.095C242.129 7.17717 242.154 7.27942 242.14 7.38L239.35 24.18C239.335 24.2701 239.289 24.3519 239.219 24.4107C239.15 24.4694 239.061 24.5011 238.97 24.5Z" fill="#C7C8CA"/>
<path d="M239.18 24.5C239.119 24.5 239.059 24.4855 239.005 24.4577C238.951 24.4298 238.905 24.3895 238.87 24.34C238.839 24.299 238.817 24.2522 238.805 24.2025C238.793 24.1529 238.791 24.1013 238.8 24.0509C238.808 24.0005 238.827 23.9523 238.854 23.9091C238.882 23.866 238.918 23.8289 238.96 23.8L249.61 16.23C249.693 16.1845 249.791 16.1712 249.884 16.1925C249.976 16.2138 250.058 16.2684 250.113 16.3459C250.169 16.4234 250.194 16.5184 250.184 16.6131C250.174 16.7078 250.13 16.7957 250.06 16.86L239.41 24.43C239.342 24.477 239.262 24.5015 239.18 24.5Z" fill="#C7C8CA"/>
<path d="M216.13 16.46C217.958 16.46 219.44 14.9781 219.44 13.15C219.44 11.3219 217.958 9.84 216.13 9.84C214.302 9.84 212.82 11.3219 212.82 13.15C212.82 14.9781 214.302 16.46 216.13 16.46Z" fill="#444446"/>
<path d="M226.71 8.89C228.538 8.89 230.02 7.40806 230.02 5.58C230.02 3.75194 228.538 2.27 226.71 2.27C224.882 2.27 223.4 3.75194 223.4 5.58C223.4 7.40806 224.882 8.89 226.71 8.89Z" fill="#498AC9"/>
<path d="M217.52 25.97C218.762 25.97 219.77 24.9626 219.77 23.72C219.77 22.4774 218.762 21.47 217.52 21.47C216.277 21.47 215.27 22.4774 215.27 23.72C215.27 24.9626 216.277 25.97 217.52 25.97Z" fill="#498AC9"/>
<path d="M226.99 28.81C228.332 28.81 229.42 27.7221 229.42 26.38C229.42 25.0379 228.332 23.95 226.99 23.95C225.648 23.95 224.56 25.0379 224.56 26.38C224.56 27.7221 225.648 28.81 226.99 28.81Z" fill="#444446"/>
<path d="M233.67 35.14C235.028 35.14 236.13 34.0386 236.13 32.68C236.13 31.3214 235.028 30.22 233.67 30.22C232.311 30.22 231.21 31.3214 231.21 32.68C231.21 34.0386 232.311 35.14 233.67 35.14Z" fill="#444446"/>
<path d="M238.98 27.26C240.797 27.26 242.27 25.787 242.27 23.97C242.27 22.153 240.797 20.68 238.98 20.68C237.163 20.68 235.69 22.153 235.69 23.97C235.69 25.787 237.163 27.26 238.98 27.26Z" fill="#498AC9"/>
<path d="M249.84 19.87C251.679 19.87 253.17 18.3791 253.17 16.54C253.17 14.7009 251.679 13.21 249.84 13.21C248.001 13.21 246.51 14.7009 246.51 16.54C246.51 18.3791 248.001 19.87 249.84 19.87Z" fill="#498AC9"/>
<path d="M247.63 26.87C248.679 26.87 249.53 26.0193 249.53 24.97C249.53 23.9207 248.679 23.07 247.63 23.07C246.58 23.07 245.73 23.9207 245.73 24.97C245.73 26.0193 246.58 26.87 247.63 26.87Z" fill="#444446"/>
<path d="M235.68 18.44C236.729 18.44 237.58 17.5893 237.58 16.54C237.58 15.4907 236.729 14.64 235.68 14.64C234.63 14.64 233.78 15.4907 233.78 16.54C233.78 17.5893 234.63 18.44 235.68 18.44Z" fill="#444446"/>
<path d="M230.64 21.62C231.689 21.62 232.54 20.7693 232.54 19.72C232.54 18.6707 231.689 17.82 230.64 17.82C229.59 17.82 228.74 18.6707 228.74 19.72C228.74 20.7693 229.59 21.62 230.64 21.62Z" fill="#498AC9"/>
<path d="M241.76 9.61C243.03 9.61 244.06 8.58025 244.06 7.31C244.06 6.03974 243.03 5.01 241.76 5.01C240.489 5.01 239.46 6.03974 239.46 7.31C239.46 8.58025 240.489 9.61 241.76 9.61Z" fill="#498AC9"/>
<path d="M233.88 57.21C237.738 57.2245 241.561 56.4789 245.131 55.0157C248.702 53.5526 251.948 51.4006 254.687 48.6826C257.425 45.9647 259.602 42.7339 261.091 39.1749C262.581 35.6159 263.355 31.7982 263.37 27.94C263.382 20.7769 260.742 13.8628 255.96 8.53C250.41 2.32 240.51 -1.72 232.19 0.940003C232.161 0.940003 232.133 0.951601 232.112 0.97223C232.091 0.992859 232.08 1.02085 232.08 1.05002C232.08 1.07919 232.091 1.10718 232.112 1.12781C232.133 1.14844 232.161 1.16 232.19 1.16C250.59 1.44 255.19 12.9 255.19 17.69C255.19 22.48 253.7 22.26 253.7 24.02C253.7 25.78 255.6 28.26 256.99 30.53C258.38 32.8 257.25 33.53 255.6 33.69C253.95 33.85 254.37 34.33 254.37 36.34C254.37 37.52 254.37 37.46 252.73 38.34C252.911 38.4639 253.06 38.6302 253.162 38.8245C253.265 39.0188 253.319 39.2353 253.319 39.455C253.319 39.6748 253.265 39.8912 253.162 40.0855C253.06 40.2798 252.911 40.4461 252.73 40.57C252.361 40.8266 252.083 41.1926 251.934 41.6161C251.785 42.0396 251.773 42.4993 251.9 42.93C252.2 43.54 254.03 47.75 245.9 47.12C237.95 46.49 238.9 45.93 232.9 56.81C232.875 56.8509 232.862 56.8976 232.861 56.9454C232.86 56.9932 232.872 57.0404 232.895 57.0821C232.919 57.1238 232.953 57.1585 232.994 57.1828C233.035 57.207 233.082 57.2198 233.13 57.22L233.88 57.21Z" fill="url(#paint0_linear_232_4325)"/>
<g style="mix-blend-mode:multiply" opacity="0.81">
<g style="mix-blend-mode:multiply" opacity="0.81">
<path d="M242.41 46.83C238.09 46.64 237.84 47.83 232.93 56.83C232.905 56.8709 232.891 56.9176 232.891 56.9654C232.89 57.0132 232.902 57.0604 232.925 57.1021C232.949 57.1438 232.983 57.1785 233.024 57.2028C233.065 57.227 233.112 57.2399 233.16 57.24H234.52C234.472 57.2387 234.426 57.2252 234.385 57.201C234.344 57.1768 234.31 57.1426 234.286 57.1015C234.262 57.0605 234.249 57.0141 234.248 56.9666C234.247 56.9191 234.258 56.8721 234.28 56.83C238.63 48.9 239.32 47.03 242.41 46.83Z" fill="#498AC9"/>
</g>
</g>
<g style="mix-blend-mode:multiply" opacity="0.81">
<g style="mix-blend-mode:multiply" opacity="0.81">
<path d="M253.29 42.91C253.164 42.4802 253.175 42.0218 253.322 41.5987C253.469 41.1756 253.744 40.8089 254.11 40.55C254.291 40.4261 254.44 40.2598 254.542 40.0655C254.645 39.8712 254.699 39.6547 254.699 39.435C254.699 39.2152 254.645 38.9988 254.542 38.8045C254.44 38.6102 254.291 38.4439 254.11 38.32C255.79 37.46 255.76 37.52 255.76 36.32C255.76 34.32 255.34 33.8 256.99 33.67C258.64 33.54 259.75 32.77 258.37 30.51C256.99 28.25 255.08 25.75 255.08 24C255.08 22.25 256.58 22.53 256.58 17.67C256.58 12.81 251.86 1.14 232.9 1.14C234.66 0.523923 236.506 0.186524 238.37 0.140002C236.278 0.0552597 234.187 0.332683 232.19 0.960009C232.161 0.960009 232.133 0.971576 232.112 0.992205C232.091 1.01283 232.08 1.04082 232.08 1.06999C232.08 1.09917 232.091 1.12715 232.112 1.14778C232.133 1.16841 232.161 1.18001 232.19 1.18001C250.59 1.46001 255.19 12.92 255.19 17.71C255.19 22.5 253.7 22.28 253.7 24.04C253.7 25.8 255.6 28.28 256.99 30.55C258.38 32.82 257.25 33.55 255.6 33.71C253.95 33.87 254.37 34.35 254.37 36.36C254.37 37.54 254.37 37.48 252.73 38.36C252.911 38.4839 253.06 38.6502 253.162 38.8445C253.265 39.0388 253.319 39.2552 253.319 39.475C253.319 39.6947 253.265 39.9112 253.162 40.1055C253.06 40.2998 252.911 40.4661 252.73 40.59C252.361 40.8466 252.083 41.2126 251.934 41.6361C251.785 42.0596 251.773 42.5193 251.9 42.95C252.17 43.5 253.67 46.95 248.11 47.19C255.28 47.43 253.58 43.5 253.29 42.91Z" fill="#498AC9"/>
</g>
</g>
<g opacity="0.33">
<path opacity="0.33" d="M248.14 47.15L247.27 47.1C245.656 46.9161 244.034 46.826 242.41 46.83C243.36 46.83 244.49 46.98 245.92 47.1C246.658 47.1596 247.399 47.1763 248.14 47.15Z" fill="#FCEE23"/>
</g>
<path d="M442.01 130.12C437.29 125.4 425.12 124.73 419.79 124.73C414.46 124.73 402.23 125.42 397.52 130.14C397.52 130.14 392.88 151.28 410.97 169.01C411.73 169.76 412.53 170.5 413.38 171.23C414.466 172.177 415.633 173.113 416.88 174.04C417.722 174.664 418.742 175 419.79 175C420.838 175 421.858 174.664 422.7 174.04C447.58 155.54 442.01 130.12 442.01 130.12Z" fill="#498AC9"/>
<path d="M419.79 143.84C424.87 170.08 444.39 141.4 442.06 130.12C437.29 125.4 425.12 124.73 419.79 124.73C414.46 124.73 402.23 125.42 397.52 130.14C411.91 124.22 426.35 133.78 419.79 143.84Z" fill="url(#paint1_linear_232_4325)"/>
<path d="M397.47 130.12C397.47 130.12 392.83 151.26 410.92 168.99C411.68 169.74 412.48 170.48 413.33 171.21C411.66 165.55 407.15 146.8 419.74 144.09C419.74 144.01 419.74 143.93 419.74 143.85C426.35 133.78 411.91 124.22 397.47 130.12Z" fill="url(#paint2_linear_232_4325)"/>
<path d="M442.01 130.12C444.34 141.37 424.94 169.9 419.78 144.12C405.02 150.38 411.44 167.87 413.37 171.24C414.456 172.187 415.623 173.123 416.87 174.05C417.712 174.674 418.732 175.01 419.78 175.01C420.827 175.01 421.848 174.674 422.69 174.05C447.58 155.54 442.01 130.12 442.01 130.12Z" fill="url(#paint3_linear_232_4325)"/>
<path d="M419.74 144.92C422.452 144.92 424.65 142.722 424.65 140.01C424.65 137.298 422.452 135.1 419.74 135.1C417.028 135.1 414.83 137.298 414.83 140.01C414.83 142.722 417.028 144.92 419.74 144.92Z" fill="white"/>
<path d="M429.4 153.73C429.319 151.22 428.265 148.841 426.462 147.094C424.658 145.347 422.246 144.371 419.735 144.371C417.224 144.371 414.812 145.347 413.008 147.094C411.204 148.841 410.151 151.22 410.07 153.73V153.82C410.075 154.469 410.337 155.09 410.797 155.547C411.258 156.004 411.881 156.26 412.53 156.26H426.94C427.588 156.263 428.211 156.008 428.672 155.553C429.133 155.098 429.395 154.478 429.4 153.83V153.73Z" fill="white"/>
<path d="M419.46 153.25C419.262 153.251 419.07 153.18 418.92 153.05L416.6 151.15C416.425 151.007 416.314 150.8 416.291 150.575C416.269 150.35 416.337 150.125 416.48 149.95C416.623 149.775 416.83 149.664 417.055 149.642C417.28 149.619 417.505 149.687 417.68 149.83L419.36 151.22L422.71 147.38C422.86 147.213 423.069 147.11 423.294 147.095C423.518 147.08 423.739 147.154 423.91 147.3C423.995 147.373 424.065 147.462 424.115 147.562C424.166 147.662 424.195 147.771 424.203 147.883C424.21 147.995 424.195 148.107 424.159 148.213C424.122 148.319 424.065 148.417 423.99 148.5L420.1 152.96C420.019 153.05 419.921 153.123 419.81 153.173C419.7 153.222 419.581 153.249 419.46 153.25Z" fill="#498AC9"/>
<path d="M151.75 135.7C155.61 135.7 158.74 132.57 158.74 128.71C158.74 124.85 155.61 121.72 151.75 121.72C147.889 121.72 144.76 124.85 144.76 128.71C144.76 132.57 147.889 135.7 151.75 135.7Z" fill="#498AC9"/>
<path d="M155.2 138.34C154.11 138.808 152.936 139.05 151.75 139.05C150.564 139.05 149.39 138.808 148.3 138.34C149.39 138.808 150.564 139.05 151.75 139.05C152.936 139.05 154.11 138.808 155.2 138.34Z" fill="#498AC9"/>
<path d="M157.44 136.91C155.863 138.289 153.839 139.049 151.745 139.049C149.65 139.049 147.626 138.289 146.05 136.91C144.091 137.794 142.363 139.117 140.998 140.777C139.634 142.436 138.669 144.388 138.18 146.48H165.32C164.829 144.387 163.863 142.435 162.497 140.775C161.13 139.116 159.4 137.793 157.44 136.91Z" fill="#498AC9"/>
<path d="M134.72 139.48C137.967 139.48 140.6 136.847 140.6 133.6C140.6 130.353 137.967 127.72 134.72 127.72C131.472 127.72 128.84 130.353 128.84 133.6C128.84 136.847 131.472 139.48 134.72 139.48Z" fill="#C7C8CA"/>
<path d="M134.72 141.58C132.719 141.583 130.762 140.999 129.09 139.9C127.946 140.645 126.963 141.611 126.197 142.74C125.431 143.87 124.898 145.142 124.63 146.48H136.86C137.342 144.213 138.334 142.086 139.76 140.26C138.222 141.128 136.486 141.582 134.72 141.58Z" fill="#C7C8CA"/>
<path d="M168.78 139.48C172.027 139.48 174.66 136.847 174.66 133.6C174.66 130.353 172.027 127.72 168.78 127.72C165.532 127.72 162.9 130.353 162.9 133.6C162.9 136.847 165.532 139.48 168.78 139.48Z" fill="#444446"/>
<path d="M168.79 141.58C170.79 141.582 172.747 140.998 174.42 139.9C175.562 140.647 176.544 141.613 177.31 142.742C178.076 143.872 178.609 145.142 178.88 146.48H166.64C166.154 144.213 165.159 142.086 163.73 140.26C165.274 141.129 167.017 141.584 168.79 141.58Z" fill="#444446"/>
<path d="M173.16 152.61L178.56 151.41L178.68 148.51H166.92C166.92 148.88 166.92 149.25 166.92 149.62C166.972 151.651 166.617 153.672 165.876 155.563C165.134 157.455 164.022 159.179 162.604 160.633C161.186 162.088 159.491 163.244 157.619 164.034C155.747 164.823 153.736 165.23 151.705 165.23C149.673 165.23 147.662 164.823 145.79 164.034C143.918 163.244 142.224 162.088 140.806 160.633C139.388 159.179 138.275 157.455 137.534 155.563C136.793 153.672 136.438 151.651 136.49 149.62C136.49 149.25 136.49 148.88 136.49 148.51H124.91L124.81 151.08L130.4 152.44C130.54 153.227 130.727 154.005 130.96 154.77C131.216 155.833 131.551 156.876 131.96 157.89L128.41 161.89L131.41 166.45L136.25 164.45C137.696 165.955 139.353 167.242 141.17 168.27L140.71 173.06L145.84 174.96L148.42 170.78C149.502 170.941 150.595 171.021 151.69 171.02C152.751 171.019 153.81 170.942 154.86 170.79L157.25 174.86L162.52 173.38L162.13 168.31C163.933 167.3 165.58 166.033 167.02 164.55L171.69 166.55L175.08 162.26L171.41 157.94C171.6 157.49 171.77 157.03 171.93 156.57C172.466 155.292 172.877 153.966 173.16 152.61Z" fill="#231F20"/>
<g style="mix-blend-mode:multiply" opacity="0.33">
<g style="mix-blend-mode:multiply" opacity="0.33">
<path d="M158.79 128.73C158.79 126.873 158.052 125.093 156.74 123.78C155.427 122.467 153.646 121.73 151.79 121.73V135.73C153.646 135.73 155.427 134.993 156.74 133.68C158.052 132.367 158.79 130.587 158.79 128.73Z" fill="#498AC9"/>
</g>
</g>
<path d="M140.6 133.6C140.6 132.041 139.98 130.545 138.878 129.442C137.775 128.34 136.279 127.72 134.72 127.72V139.48C136.279 139.48 137.775 138.86 138.878 137.758C139.98 136.655 140.6 135.159 140.6 133.6Z" fill="#E6E7E7"/>
<path d="M134.72 141.58V146.48H136.86C137.342 144.213 138.334 142.086 139.76 140.26C138.222 141.128 136.485 141.582 134.72 141.58Z" fill="#E6E7E7"/>
<path d="M174.66 133.6C174.657 132.044 174.038 130.552 172.938 129.452C171.837 128.352 170.346 127.733 168.79 127.73V139.49C169.562 139.489 170.326 139.335 171.039 139.039C171.752 138.742 172.4 138.308 172.945 137.761C173.49 137.214 173.922 136.565 174.216 135.851C174.51 135.137 174.661 134.372 174.66 133.6Z" fill="#818285"/>
<path d="M174.41 139.9C172.737 140.998 170.78 141.582 168.78 141.58V146.48H178.87C178.599 145.142 178.066 143.872 177.3 142.742C176.534 141.613 175.552 140.647 174.41 139.9Z" fill="#818285"/>
<g style="mix-blend-mode:multiply" opacity="0.33">
<g style="mix-blend-mode:multiply" opacity="0.33">
<path d="M157.44 136.91C155.866 138.291 153.844 139.052 151.75 139.05V146.48H165.32C164.829 144.387 163.863 142.435 162.497 140.775C161.13 139.116 159.4 137.793 157.44 136.91Z" fill="#498AC9"/>
</g>
</g>
<path d="M45.3698 170.42H9.85982V134.91H30.2998V130.36H5.31982V174.97H49.9298V149.67H45.3698V170.42Z" fill="#231F20"/>
<path d="M30.3098 167.86H42.5598V155.61H30.3098V167.86Z" fill="#444446"/>
<path d="M12.6797 155.61V167.86H24.9297V155.61H12.6797Z" fill="#C7C8CA"/>
<path d="M12.6797 149.67H24.9297V137.42H12.6797L12.6797 149.67Z" fill="#C7C8CA"/>
<path d="M59.8198 120.15H33.8398V146.13H59.8198V120.15Z" fill="#498AC9"/>
<g style="mix-blend-mode:multiply" opacity="0.33">
<g style="mix-blend-mode:multiply" opacity="0.33">
<path d="M33.8398 146.13H59.8198V120.15L33.8398 146.13Z" fill="#498AC9"/>
</g>
</g>
<path d="M12.6797 167.86H24.9297L12.6797 155.61V167.86Z" fill="#E6E7E7"/>
<path d="M24.9297 137.42L12.6797 149.67H24.9297V137.42Z" fill="#E6E7E7"/>
<path d="M30.2998 167.86H42.5598V155.61L30.2998 167.86Z" fill="#818285"/>
<path d="M301.02 129.67C298.656 127.311 295.647 125.704 292.371 125.054C289.096 124.403 285.701 124.738 282.615 126.015C279.529 127.293 276.892 129.456 275.034 132.231C273.177 135.007 272.184 138.27 272.18 141.61C272.18 143.692 272.574 145.754 273.34 147.69C274.393 150.033 275.789 152.206 277.48 154.14C278.835 155.713 280.009 157.434 280.98 159.27C281.665 160.693 282.136 162.209 282.38 163.77H282.03C281.741 163.77 281.463 163.885 281.259 164.089C281.055 164.294 280.94 164.571 280.94 164.86V169.54C280.938 169.684 280.966 169.827 281.02 169.96C281.074 170.094 281.154 170.215 281.255 170.317C281.357 170.42 281.477 170.501 281.61 170.556C281.743 170.612 281.886 170.64 282.03 170.64H282.97C283.266 171.585 283.768 172.453 284.44 173.18C285.076 173.893 285.865 174.453 286.748 174.818C287.631 175.183 288.586 175.345 289.54 175.29C291.135 175.1 292.612 174.353 293.71 173.18C294.382 172.453 294.884 171.585 295.18 170.64H296.18C296.324 170.64 296.466 170.612 296.599 170.556C296.732 170.501 296.853 170.42 296.954 170.317C297.055 170.215 297.135 170.094 297.19 169.96C297.244 169.827 297.271 169.684 297.27 169.54V164.86C297.27 164.571 297.155 164.294 296.95 164.089C296.746 163.885 296.469 163.77 296.18 163.77H295.79C296.033 162.209 296.505 160.693 297.19 159.27C298.16 157.434 299.334 155.713 300.69 154.14C302.363 152.216 303.745 150.056 304.79 147.73C305.974 144.686 306.246 141.363 305.573 138.166C304.9 134.97 303.311 132.038 301 129.73L301.02 129.67ZM292.82 170.67C292.633 171.036 292.393 171.373 292.11 171.67C291.182 172.194 290.135 172.469 289.07 172.469C288.004 172.469 286.957 172.194 286.03 171.67C285.752 171.37 285.517 171.034 285.33 170.67H292.82ZM287.99 163.73H284.59C284.335 161.842 283.785 160.007 282.96 158.29C281.923 156.299 280.662 154.433 279.2 152.73C277.643 150.97 276.355 148.988 275.38 146.85C274.511 144.622 274.198 142.215 274.47 139.839C274.741 137.463 275.588 135.189 276.938 133.215C278.287 131.24 280.098 129.624 282.213 128.508C284.328 127.392 286.683 126.808 289.075 126.808C291.466 126.808 293.822 127.392 295.937 128.508C298.052 129.624 299.862 131.24 301.212 133.215C302.561 135.189 303.408 137.463 303.68 139.839C303.951 142.215 303.639 144.622 302.77 146.85C301.794 148.988 300.507 150.97 298.95 152.73C297.488 154.436 296.223 156.301 295.18 158.29C294.363 160.01 293.814 161.844 293.55 163.73H290.18H287.99ZM293.66 167.89H283.94C283.94 167.41 283.6 167.42 283.63 166.89C283.63 166.56 285.33 167.09 285.33 166.76L293.33 166.37C293.33 166.7 293.76 166.89 293.78 167.21L292.78 166.89C292.85 167.47 293.7 167.45 293.66 167.93V167.89Z" fill="url(#paint4_linear_232_4325)"/>
<path d="M289.09 122.29C289.379 122.29 289.656 122.175 289.861 121.971C290.065 121.766 290.18 121.489 290.18 121.2V117.45C290.194 117.297 290.177 117.143 290.129 116.998C290.08 116.853 290.002 116.719 289.899 116.605C289.796 116.492 289.67 116.401 289.53 116.339C289.39 116.277 289.238 116.245 289.085 116.245C288.932 116.245 288.78 116.277 288.64 116.339C288.5 116.401 288.374 116.492 288.271 116.605C288.168 116.719 288.089 116.853 288.041 116.998C287.993 117.143 287.975 117.297 287.99 117.45V121.2C287.99 121.344 288.018 121.487 288.074 121.619C288.129 121.752 288.21 121.873 288.313 121.974C288.415 122.076 288.536 122.156 288.67 122.21C288.803 122.264 288.946 122.291 289.09 122.29Z" fill="#444446"/>
<path d="M278.11 124.43C278.177 124.565 278.27 124.684 278.385 124.781C278.5 124.879 278.634 124.951 278.778 124.994C278.922 125.038 279.073 125.051 279.222 125.034C279.372 125.016 279.516 124.969 279.646 124.893C279.776 124.818 279.89 124.717 279.979 124.596C280.069 124.475 280.133 124.337 280.167 124.19C280.201 124.044 280.204 123.892 280.177 123.744C280.15 123.596 280.093 123.455 280.01 123.33L278.14 120.09C277.992 119.839 277.751 119.655 277.47 119.58C277.331 119.54 277.186 119.53 277.043 119.549C276.9 119.568 276.763 119.616 276.64 119.69C276.514 119.762 276.404 119.857 276.316 119.972C276.228 120.086 276.163 120.217 276.126 120.356C276.089 120.496 276.08 120.641 276.099 120.785C276.119 120.928 276.166 121.066 276.24 121.19L278.11 124.43Z" fill="#444446"/>
<path d="M267.93 130.3L271.17 132.17C271.336 132.268 271.526 132.32 271.72 132.32C271.961 132.319 272.195 132.239 272.387 132.091C272.578 131.944 272.715 131.738 272.778 131.505C272.84 131.272 272.824 131.025 272.733 130.802C272.641 130.578 272.478 130.392 272.27 130.27L269.02 128.4C268.896 128.328 268.759 128.282 268.617 128.263C268.475 128.244 268.33 128.254 268.192 128.291C268.053 128.328 267.924 128.392 267.81 128.48C267.696 128.567 267.601 128.676 267.53 128.8C267.456 128.924 267.409 129.062 267.389 129.205C267.37 129.348 267.379 129.494 267.416 129.634C267.453 129.773 267.518 129.904 267.606 130.018C267.694 130.133 267.804 130.229 267.93 130.3Z" fill="#444446"/>
<path d="M270.13 141.25C270.13 140.958 270.014 140.678 269.808 140.472C269.601 140.266 269.321 140.15 269.03 140.15H265.29C265.137 140.135 264.983 140.153 264.838 140.201C264.692 140.25 264.559 140.328 264.445 140.431C264.332 140.534 264.241 140.66 264.179 140.8C264.117 140.94 264.085 141.092 264.085 141.245C264.085 141.398 264.117 141.55 264.179 141.69C264.241 141.83 264.332 141.956 264.445 142.059C264.559 142.162 264.692 142.24 264.838 142.289C264.983 142.337 265.137 142.355 265.29 142.34H269.03C269.174 142.341 269.317 142.314 269.45 142.26C269.583 142.206 269.705 142.126 269.807 142.024C269.909 141.923 269.99 141.802 270.046 141.669C270.101 141.537 270.13 141.394 270.13 141.25Z" fill="#444446"/>
<path d="M272 150.21C271.719 150.14 271.422 150.179 271.17 150.32L267.93 152.2C267.804 152.271 267.694 152.367 267.606 152.482C267.518 152.596 267.453 152.727 267.416 152.866C267.379 153.006 267.37 153.151 267.389 153.295C267.409 153.438 267.456 153.575 267.53 153.7C267.678 153.947 267.916 154.127 268.194 154.201C268.472 154.276 268.768 154.24 269.02 154.1L272.27 152.22C272.453 152.109 272.6 151.947 272.693 151.754C272.786 151.56 272.82 151.344 272.791 151.131C272.762 150.919 272.672 150.719 272.531 150.558C272.391 150.396 272.206 150.278 272 150.22V150.21Z" fill="#444446"/>
<path d="M279.15 158.73C279.025 158.657 278.887 158.609 278.744 158.589C278.601 158.57 278.456 158.579 278.316 158.616C278.176 158.653 278.046 158.718 277.931 158.806C277.817 158.894 277.721 159.005 277.65 159.13L276.24 161.3C276.166 161.424 276.119 161.562 276.099 161.705C276.08 161.849 276.089 161.994 276.126 162.134C276.163 162.273 276.228 162.404 276.316 162.518C276.404 162.633 276.514 162.729 276.64 162.8C276.893 162.94 277.191 162.977 277.47 162.902C277.75 162.827 277.99 162.648 278.14 162.4L279.55 160.23C279.623 160.106 279.671 159.968 279.69 159.825C279.71 159.681 279.701 159.536 279.663 159.396C279.626 159.257 279.562 159.126 279.473 159.012C279.385 158.897 279.275 158.801 279.15 158.73Z" fill="#444446"/>
<path d="M298.91 158.86C299.034 158.787 299.172 158.739 299.315 158.719C299.458 158.7 299.604 158.709 299.743 158.746C299.883 158.783 300.014 158.848 300.128 158.936C300.243 159.024 300.338 159.135 300.41 159.26L301.83 161.43C301.974 161.683 302.012 161.984 301.935 162.265C301.858 162.546 301.673 162.785 301.42 162.93C301.166 163.072 300.866 163.108 300.586 163.032C300.305 162.955 300.066 162.771 299.92 162.52L298.51 160.35C298.37 160.098 298.334 159.802 298.409 159.524C298.483 159.246 298.663 159.008 298.91 158.86Z" fill="#444446"/>
<path d="M310.24 152.2L307 150.32C306.747 150.179 306.45 150.14 306.17 150.21C305.963 150.268 305.778 150.386 305.638 150.548C305.497 150.709 305.407 150.909 305.379 151.121C305.35 151.334 305.384 151.55 305.477 151.744C305.569 151.937 305.716 152.099 305.9 152.21L309.15 154.09C309.403 154.23 309.701 154.267 309.98 154.192C310.26 154.117 310.5 153.938 310.65 153.69C310.791 153.438 310.827 153.14 310.75 152.861C310.674 152.582 310.49 152.345 310.24 152.2Z" fill="#444446"/>
<path d="M312.88 140.15H309.14C308.987 140.135 308.833 140.153 308.688 140.201C308.542 140.25 308.409 140.328 308.295 140.431C308.182 140.534 308.091 140.66 308.029 140.8C307.967 140.94 307.935 141.092 307.935 141.245C307.935 141.398 307.967 141.55 308.029 141.69C308.091 141.83 308.182 141.956 308.295 142.059C308.409 142.162 308.542 142.24 308.688 142.289C308.833 142.337 308.987 142.355 309.14 142.34H312.88C313.032 142.355 313.186 142.337 313.332 142.289C313.477 142.24 313.611 142.162 313.724 142.059C313.838 141.956 313.929 141.83 313.991 141.69C314.053 141.55 314.085 141.398 314.085 141.245C314.085 141.092 314.053 140.94 313.991 140.8C313.929 140.66 313.838 140.534 313.724 140.431C313.611 140.328 313.477 140.25 313.332 140.201C313.186 140.153 313.032 140.135 312.88 140.15Z" fill="#444446"/>
<path d="M306.45 132.32C306.643 132.32 306.833 132.268 307 132.17L310.24 130.3C310.428 130.193 310.579 130.032 310.675 129.839C310.772 129.645 310.808 129.427 310.78 129.213C310.752 128.998 310.661 128.797 310.519 128.635C310.376 128.472 310.189 128.356 309.98 128.3C309.841 128.26 309.696 128.25 309.553 128.269C309.41 128.288 309.273 128.336 309.15 128.41L305.9 130.28C305.691 130.402 305.529 130.588 305.437 130.812C305.345 131.035 305.329 131.282 305.392 131.515C305.454 131.748 305.592 131.954 305.783 132.101C305.974 132.249 306.208 132.329 306.45 132.33V132.32Z" fill="#444446"/>
<path d="M298.56 124.83C298.684 124.903 298.822 124.951 298.965 124.971C299.108 124.99 299.254 124.981 299.393 124.944C299.533 124.907 299.664 124.842 299.778 124.754C299.893 124.666 299.988 124.556 300.06 124.43L301.93 121.19C302.004 121.065 302.052 120.926 302.071 120.781C302.09 120.637 302.08 120.49 302.04 120.35C302.007 120.21 301.945 120.078 301.857 119.964C301.769 119.85 301.657 119.757 301.53 119.69C301.406 119.616 301.269 119.568 301.126 119.549C300.983 119.53 300.838 119.54 300.7 119.58C300.418 119.655 300.177 119.839 300.03 120.09L298.16 123.33C298.019 123.586 297.98 123.886 298.05 124.17C298.125 124.449 298.309 124.686 298.56 124.83Z" fill="#444446"/>
<path d="M298.97 139.26C297.955 138.936 297.099 138.242 296.573 137.315C296.046 136.389 295.888 135.298 296.13 134.26C296.088 133.236 295.663 132.266 294.938 131.542C294.214 130.817 293.243 130.392 292.22 130.35C291.669 130.321 291.118 130.407 290.602 130.601C290.085 130.796 289.615 131.095 289.22 131.48C289.165 131.525 289.115 131.575 289.07 131.63L288.91 131.48C288.515 131.095 288.044 130.796 287.528 130.601C287.012 130.407 286.461 130.321 285.91 130.35C284.615 130.472 283.374 130.926 282.306 131.667C281.238 132.408 280.379 133.411 279.811 134.581C279.243 135.75 278.986 137.047 279.065 138.344C279.143 139.642 279.555 140.898 280.26 141.99C279.849 142.639 279.634 143.392 279.64 144.16C279.642 144.984 279.893 145.788 280.361 146.466C280.828 147.144 281.49 147.665 282.26 147.96C282.18 148.287 282.14 148.623 282.14 148.96C282.142 150.039 282.572 151.072 283.335 151.835C284.097 152.598 285.131 153.027 286.21 153.03H286.35C286.906 153.01 287.452 152.87 287.95 152.62V163.73H290.14V152.66C290.637 152.91 291.183 153.05 291.74 153.07H291.88C292.958 153.067 293.992 152.638 294.755 151.875C295.517 151.112 295.947 150.079 295.95 149C295.95 148.663 295.91 148.327 295.83 148C296.599 147.705 297.261 147.184 297.729 146.506C298.196 145.828 298.448 145.024 298.45 144.2C297.974 143.439 297.763 142.542 297.85 141.648C297.936 140.755 298.316 139.915 298.93 139.26H298.97ZM287.97 149.1C287.973 149.553 287.801 149.99 287.49 150.32C287.179 150.65 286.752 150.847 286.3 150.87C286.048 150.878 285.798 150.836 285.563 150.746C285.328 150.655 285.113 150.519 284.931 150.345C284.75 150.171 284.605 149.962 284.505 149.731C284.405 149.5 284.352 149.252 284.35 149C284.351 148.719 284.416 148.442 284.54 148.19C285.189 148.059 285.797 147.77 286.309 147.35C286.822 146.93 287.224 146.391 287.48 145.78C287.566 145.581 287.591 145.36 287.552 145.146C287.512 144.932 287.409 144.735 287.256 144.58C287.103 144.426 286.908 144.32 286.695 144.277C286.482 144.234 286.26 144.256 286.06 144.34C285.926 144.394 285.804 144.473 285.7 144.575C285.597 144.676 285.516 144.797 285.46 144.93C285.359 145.171 285.21 145.389 285.02 145.569C284.831 145.75 284.606 145.888 284.36 145.977C284.114 146.065 283.852 146.101 283.591 146.083C283.331 146.064 283.077 145.992 282.845 145.869C282.614 145.747 282.411 145.578 282.249 145.373C282.087 145.168 281.969 144.931 281.904 144.678C281.839 144.425 281.827 144.161 281.869 143.903C281.911 143.645 282.007 143.399 282.15 143.18C282.511 143.28 282.885 143.331 283.26 143.33C283.832 143.333 284.398 143.214 284.92 142.98C285.184 142.86 285.391 142.64 285.494 142.368C285.597 142.097 285.588 141.795 285.47 141.53C285.348 141.267 285.128 141.063 284.857 140.96C284.586 140.857 284.285 140.864 284.02 140.98C283.781 141.087 283.522 141.142 283.26 141.14C283.002 141.159 282.743 141.124 282.499 141.039C282.256 140.953 282.032 140.818 281.843 140.642C281.653 140.466 281.502 140.253 281.399 140.016C281.296 139.779 281.243 139.523 281.243 139.265C281.243 139.007 281.296 138.751 281.399 138.514C281.502 138.277 281.653 138.064 281.843 137.888C282.032 137.712 282.256 137.577 282.499 137.491C282.743 137.406 283.002 137.371 283.26 137.39C284.02 138.122 285.034 138.53 286.09 138.53C286.381 138.53 286.661 138.414 286.868 138.208C287.074 138.002 287.19 137.722 287.19 137.43C287.19 137.138 287.074 136.858 286.868 136.652C286.661 136.446 286.381 136.33 286.09 136.33C285.832 136.33 285.578 136.278 285.341 136.176C285.105 136.074 284.892 135.925 284.716 135.738C284.54 135.55 284.404 135.328 284.317 135.086C284.23 134.844 284.193 134.587 284.21 134.33C284.232 133.858 284.43 133.411 284.765 133.078C285.1 132.745 285.548 132.549 286.02 132.53C286.272 132.518 286.523 132.558 286.759 132.648C286.994 132.737 287.209 132.874 287.39 133.05C287.572 133.225 287.717 133.434 287.817 133.666C287.917 133.898 287.969 134.148 287.97 134.4V149.1ZM293.21 142.98C293.732 143.214 294.298 143.333 294.87 143.33C295.245 143.331 295.618 143.28 295.98 143.18C296.175 143.477 296.28 143.825 296.28 144.18C296.278 144.613 296.128 145.032 295.853 145.367C295.578 145.701 295.197 145.931 294.772 146.017C294.348 146.103 293.907 146.039 293.524 145.838C293.141 145.636 292.839 145.308 292.67 144.91C292.631 144.756 292.56 144.612 292.46 144.488C292.36 144.364 292.235 144.263 292.093 144.192C291.95 144.122 291.794 144.083 291.636 144.078C291.477 144.073 291.319 144.103 291.172 144.165C291.026 144.227 290.895 144.32 290.788 144.438C290.681 144.556 290.601 144.695 290.554 144.847C290.506 144.998 290.491 145.158 290.511 145.316C290.532 145.474 290.586 145.625 290.67 145.76C290.926 146.371 291.328 146.91 291.84 147.33C292.353 147.75 292.96 148.039 293.61 148.17C293.733 148.422 293.798 148.699 293.8 148.98C293.797 149.477 293.598 149.952 293.246 150.303C292.893 150.653 292.417 150.85 291.92 150.85H291.85C291.397 150.827 290.971 150.63 290.66 150.3C290.348 149.97 290.177 149.533 290.18 149.08V134.45C290.181 134.198 290.233 133.948 290.332 133.716C290.432 133.484 290.577 133.275 290.76 133.1C291.108 132.763 291.575 132.576 292.06 132.58H292.13C292.602 132.599 293.049 132.795 293.385 133.128C293.72 133.461 293.918 133.908 293.94 134.38C293.95 134.634 293.909 134.888 293.818 135.125C293.727 135.362 293.588 135.578 293.41 135.76C293.236 135.942 293.026 136.087 292.794 136.185C292.562 136.283 292.312 136.332 292.06 136.33C291.768 136.33 291.488 136.446 291.282 136.652C291.076 136.858 290.96 137.138 290.96 137.43C290.96 137.722 291.076 138.002 291.282 138.208C291.488 138.414 291.768 138.53 292.06 138.53C293.115 138.53 294.129 138.122 294.89 137.39C295.147 137.371 295.406 137.406 295.65 137.491C295.894 137.577 296.117 137.712 296.307 137.888C296.496 138.064 296.647 138.277 296.75 138.514C296.853 138.751 296.907 139.007 296.907 139.265C296.907 139.523 296.853 139.779 296.75 140.016C296.647 140.253 296.496 140.466 296.307 140.642C296.117 140.818 295.894 140.953 295.65 141.039C295.406 141.124 295.147 141.159 294.89 141.14C294.628 141.142 294.369 141.087 294.13 140.98C293.869 140.887 293.583 140.895 293.328 141.003C293.074 141.111 292.869 141.312 292.756 141.564C292.642 141.817 292.628 142.102 292.716 142.365C292.804 142.627 292.987 142.847 293.23 142.98H293.21Z" fill="url(#paint5_linear_232_4325)"/>
<path d="M292.79 170.64C292.603 171.006 292.364 171.343 292.08 171.64C291.699 172.07 291.231 172.415 290.707 172.651C290.183 172.887 289.615 173.009 289.04 173.009C288.465 173.009 287.897 172.887 287.373 172.651C286.849 172.415 286.381 172.07 286 171.64C285.722 171.34 285.487 171.003 285.3 170.64" fill="url(#paint6_linear_232_4325)"/>
<path d="M294.92 165.96H283.26V168.57H294.92V165.96Z" fill="url(#paint7_linear_232_4325)"/>
<path d="M5.39989 79.66H3.12988V68.99H10.6799V70.99H5.39989V73.23H10.5699V75.23H5.39989V79.66Z" fill="#231F20"/>
<path d="M20.3797 78.73C19.9903 79.1253 19.5217 79.4338 19.0047 79.6355C18.4877 79.8371 17.934 79.9272 17.3797 79.9C16.8251 79.9305 16.2704 79.8418 15.753 79.64C15.2355 79.4382 14.7673 79.1279 14.3797 78.73C13.6602 77.9415 13.2612 76.9125 13.2612 75.845C13.2612 74.7775 13.6602 73.7485 14.3797 72.96C14.7673 72.5621 15.2355 72.2518 15.753 72.05C16.2704 71.8482 16.8251 71.7595 17.3797 71.79C17.934 71.7628 18.4877 71.8529 19.0047 72.0545C19.5217 72.2561 19.9903 72.5647 20.3797 72.96C21.0993 73.7485 21.4982 74.7775 21.4982 75.845C21.4982 76.9125 21.0993 77.9415 20.3797 78.73ZM17.3797 78.09C17.6561 78.1041 17.9319 78.0537 18.1854 77.9426C18.4388 77.8315 18.6629 77.6628 18.8397 77.45C19.1985 76.9914 19.3859 76.422 19.3697 75.84C19.3863 75.264 19.1986 74.7008 18.8397 74.25C18.6577 74.0452 18.4344 73.8813 18.1845 73.7691C17.9345 73.6569 17.6637 73.5988 17.3897 73.5988C17.1157 73.5988 16.8449 73.6569 16.595 73.7691C16.345 73.8813 16.1217 74.0452 15.9397 74.25C15.5837 74.7017 15.3994 75.2651 15.4197 75.84C15.3998 76.4209 15.5838 76.9905 15.9397 77.45C16.1215 77.6537 16.3478 77.8129 16.6009 77.9152C16.8541 78.0175 17.1274 78.0602 17.3997 78.04L17.3797 78.09Z" fill="#231F20"/>
<path d="M26.6499 79.66H24.6499V71.93H26.6499V72.93C26.9629 72.5712 27.3392 72.2729 27.7599 72.05C28.1762 71.8289 28.6387 71.709 29.1099 71.7V73.7C28.927 73.6812 28.7428 73.6812 28.5599 73.7C28.1829 73.7048 27.8113 73.7901 27.4699 73.95C27.14 74.0737 26.8544 74.2931 26.6499 74.58V79.66Z" fill="#231F20"/>
<path d="M40.9398 79.66H38.7898L37.1598 74.4L35.5298 79.66H33.3498L30.9998 71.93H33.1098L34.5498 77.13L36.2498 71.93H38.0598L39.7498 77.13L41.1898 71.93H43.3198L40.9398 79.66Z" fill="#231F20"/>
<path d="M52.5899 79.66H50.5899V78.84C50.2852 79.1829 49.9058 79.4514 49.4811 79.6247C49.0564 79.7981 48.5975 79.8717 48.1399 79.84C47.4614 79.8441 46.8042 79.6026 46.2899 79.16C46.0171 78.9314 45.801 78.6427 45.6587 78.3165C45.5164 77.9902 45.4518 77.6354 45.4699 77.28C45.4438 76.9256 45.5028 76.57 45.6419 76.243C45.7811 75.916 45.9964 75.627 46.2699 75.4C46.807 74.9923 47.4657 74.7774 48.1399 74.79C48.5928 74.7508 49.0487 74.8151 49.4731 74.9779C49.8976 75.1408 50.2794 75.3979 50.5899 75.73V74.73C50.5936 74.547 50.5527 74.3658 50.4708 74.2021C50.389 74.0383 50.2685 73.8969 50.1199 73.79C49.7592 73.5419 49.3271 73.4189 48.8899 73.44C48.0595 73.4418 47.2627 73.7684 46.6699 74.35L45.8699 72.93C46.788 72.1297 47.9723 71.7017 49.1899 71.73C50.0565 71.6893 50.9129 71.9315 51.6299 72.42C51.9708 72.6798 52.2409 73.0211 52.4157 73.4124C52.5904 73.8038 52.664 74.2328 52.6299 74.66L52.5899 79.66ZM48.9099 78.48C49.2163 78.5071 49.5248 78.4594 49.8087 78.3409C50.0926 78.2225 50.3436 78.0369 50.5399 77.8V76.8C50.3425 76.5645 50.0914 76.3798 49.8077 76.2615C49.5241 76.1431 49.2162 76.0946 48.9099 76.12C48.5499 76.1104 48.1974 76.2232 47.9099 76.44C47.7765 76.5349 47.6684 76.6612 47.5952 76.8076C47.5219 76.9541 47.4858 77.1163 47.4899 77.28C47.4858 77.4437 47.5219 77.6059 47.5952 77.7524C47.6684 77.8988 47.7765 78.0251 47.9099 78.12C48.1944 78.347 48.546 78.4736 48.9099 78.48Z" fill="#231F20"/>
<path d="M58.2197 79.66H56.2197V71.93H58.2197V72.93C58.5328 72.5712 58.909 72.2729 59.3297 72.05C59.7444 71.8249 60.2079 71.7047 60.6797 71.7V73.7C60.4935 73.6812 60.3059 73.6812 60.1197 73.7C59.743 73.7069 59.3718 73.7921 59.0297 73.95C58.704 74.0765 58.4225 74.2955 58.2197 74.58V79.66Z" fill="#231F20"/>
<path d="M70.9099 79.66H68.8599V78.66C68.5832 79.0316 68.2223 79.3324 67.8068 79.5375C67.3913 79.7426 66.9331 79.8463 66.4698 79.84C66.0045 79.8534 65.542 79.7624 65.1163 79.5738C64.6907 79.3852 64.3126 79.1037 64.0099 78.75C63.3795 77.8918 63.0396 76.8548 63.0396 75.79C63.0396 74.7252 63.3795 73.6882 64.0099 72.83C64.3121 72.475 64.6898 72.192 65.1154 72.0017C65.541 71.8114 66.0038 71.7186 66.4698 71.73C66.934 71.7187 67.3939 71.8202 67.8102 72.0257C68.2264 72.2312 68.5866 72.5347 68.8599 72.91V68.98H70.9099V79.66ZM67.1099 78.04C67.4573 78.039 67.7998 77.9568 68.1099 77.8C68.4116 77.656 68.6702 77.4353 68.8599 77.16V74.43C68.6725 74.1551 68.413 73.9371 68.1099 73.8C67.8022 73.6357 67.4587 73.5498 67.1099 73.55C66.842 73.5418 66.5757 73.5931 66.3302 73.7004C66.0846 73.8076 65.8659 73.968 65.6898 74.17C65.34 74.6396 65.1511 75.2095 65.1511 75.795C65.1511 76.3805 65.34 76.9504 65.6898 77.42C65.8645 77.6237 66.083 77.7853 66.3289 77.8926C66.5748 78 66.8417 78.0504 67.1099 78.04Z" fill="#231F20"/>
<path d="M77.7897 76.65H73.9897V74.92H77.7897V76.65Z" fill="#231F20"/>
<path d="M83.5098 79.85C83.2181 79.8945 82.9201 79.8705 82.6393 79.7799C82.3585 79.6892 82.1027 79.5344 81.8921 79.3277C81.6815 79.121 81.522 78.8681 81.4261 78.5891C81.3303 78.31 81.3007 78.0125 81.3398 77.72V73.72H80.0598V71.93H81.3398V69.82H83.3398V71.93H84.9098V73.73H83.3398V77.2C83.3296 77.4209 83.3929 77.6389 83.5198 77.82C83.5814 77.8982 83.6606 77.9608 83.751 78.0025C83.8413 78.0442 83.9403 78.0639 84.0398 78.06C84.1684 78.0727 84.2982 78.0579 84.4207 78.0165C84.5431 77.9751 84.6553 77.9081 84.7498 77.82L85.1798 79.38C84.6971 79.731 84.1047 79.8977 83.5098 79.85Z" fill="#231F20"/>
<path d="M95.1897 79.66H93.1897V74.96C93.2166 74.7677 93.1984 74.5717 93.1364 74.3877C93.0744 74.2036 92.9704 74.0365 92.8326 73.8997C92.6947 73.7628 92.5269 73.66 92.3424 73.5993C92.158 73.5386 91.9619 73.5217 91.7697 73.55C91.426 73.5438 91.0861 73.6216 90.7793 73.7767C90.4726 73.9318 90.2084 74.1595 90.0097 74.44V79.66H87.9597V68.99H90.0097V72.92C90.3429 72.5339 90.7584 72.2275 91.2257 72.0233C91.693 71.8191 92.2001 71.7223 92.7097 71.74C93.0501 71.7138 93.3923 71.757 93.7154 71.867C94.0386 71.977 94.336 72.1515 94.5897 72.38C94.809 72.6212 94.9777 72.9038 95.0859 73.2112C95.1941 73.5187 95.2396 73.8447 95.2197 74.17L95.1897 79.66Z" fill="#231F20"/>
<path d="M99.7897 71.1C99.6308 71.1026 99.473 71.0719 99.3266 71.0099C99.1803 70.9479 99.0485 70.856 98.9397 70.74C98.8267 70.6274 98.7375 70.4933 98.6774 70.3455C98.6173 70.1978 98.5874 70.0395 98.5897 69.88C98.5891 69.641 98.6599 69.4073 98.7929 69.2088C98.926 69.0102 99.1153 68.856 99.3366 68.7657C99.5579 68.6755 99.8011 68.6534 100.035 68.7023C100.269 68.7511 100.483 68.8687 100.65 69.04C100.764 69.1473 100.854 69.2777 100.915 69.4225C100.975 69.5673 101.004 69.7232 101 69.88C101.001 70.0397 100.971 70.1982 100.91 70.3461C100.85 70.4941 100.761 70.6287 100.649 70.7421C100.536 70.8555 100.403 70.9455 100.255 71.0069C100.108 71.0684 99.9495 71.1 99.7897 71.1ZM100.79 79.66H98.7897V71.93H100.79V79.66Z" fill="#231F20"/>
<path d="M111.72 79.66H109.67V74.99C109.7 74.7958 109.684 74.5973 109.623 74.4103C109.563 74.2233 109.46 74.0531 109.322 73.9131C109.184 73.7732 109.015 73.6675 108.829 73.6045C108.643 73.5414 108.444 73.5228 108.25 73.55C107.907 73.5488 107.569 73.6288 107.263 73.7835C106.957 73.9382 106.692 74.1632 106.49 74.44V79.66H104.49V71.93H106.49V72.93C106.802 72.5729 107.188 72.2865 107.62 72.09C108.11 71.8578 108.647 71.7415 109.19 71.75C109.533 71.7239 109.878 71.769 110.204 71.8826C110.529 71.9961 110.827 72.1757 111.08 72.41C111.302 72.6519 111.472 72.9358 111.582 73.2451C111.692 73.5543 111.739 73.8824 111.72 74.21V79.66Z" fill="#231F20"/>
<path d="M122.87 79.66H120.33L118.33 76.66L117.4 77.66V79.66H115.4V68.99H117.4V75.37L120.33 71.93H122.79L119.73 75.44L122.87 79.66Z" fill="#231F20"/>
<path d="M126.5 71.1C126.342 71.1024 126.186 71.0716 126.041 71.0096C125.897 70.9475 125.767 70.8557 125.66 70.74C125.545 70.6289 125.454 70.495 125.394 70.3469C125.334 70.1988 125.305 70.0398 125.31 69.88C125.312 69.5643 125.438 69.262 125.661 69.0378C125.883 68.8136 126.184 68.6852 126.5 68.68C126.662 68.6765 126.823 68.7067 126.973 68.7686C127.122 68.8306 127.258 68.923 127.37 69.04C127.482 69.1488 127.571 69.2795 127.631 69.4239C127.692 69.5683 127.722 69.7235 127.72 69.88C127.722 70.0395 127.692 70.1978 127.632 70.3455C127.572 70.4933 127.483 70.6274 127.37 70.74C127.258 70.857 127.122 70.9494 126.973 71.0114C126.823 71.0733 126.662 71.1035 126.5 71.1ZM127.5 79.66H125.5V71.93H127.5V79.66Z" fill="#231F20"/>
<path d="M138.41 79.66H136.36V74.99C136.39 74.7958 136.374 74.5972 136.313 74.4103C136.253 74.2233 136.15 74.053 136.012 73.9131C135.874 73.7732 135.705 73.6675 135.519 73.6044C135.333 73.5414 135.134 73.5227 134.94 73.55C134.597 73.548 134.258 73.6276 133.952 73.7824C133.646 73.9372 133.381 74.1626 133.18 74.44V79.66H131.18V71.93H133.18V72.93C133.49 72.5706 133.876 72.2838 134.31 72.09C134.8 71.8578 135.337 71.7415 135.88 71.75C136.223 71.7256 136.568 71.7716 136.893 71.8851C137.218 71.9986 137.516 72.1772 137.77 72.41C137.991 72.6519 138.162 72.9358 138.272 73.245C138.382 73.5542 138.429 73.8824 138.41 74.21V79.66Z" fill="#231F20"/>
<path d="M145.18 82.8C143.964 82.841 142.777 82.4274 141.85 81.64L142.76 80.19C143.073 80.5102 143.451 80.7597 143.868 80.9218C144.286 81.0839 144.733 81.1549 145.18 81.13C145.718 81.1439 146.247 80.9863 146.69 80.68C146.911 80.4951 147.084 80.2592 147.193 79.9927C147.303 79.7262 147.347 79.437 147.32 79.15V78.4C147.044 78.7767 146.683 79.0822 146.265 79.2909C145.848 79.4996 145.387 79.6056 144.92 79.6C144.464 79.6197 144.008 79.5405 143.586 79.3679C143.163 79.1953 142.782 78.9333 142.47 78.6C141.774 77.8033 141.415 76.7667 141.47 75.71C141.416 74.6505 141.775 73.6114 142.47 72.81C142.782 72.4767 143.163 72.2147 143.586 72.0421C144.008 71.8695 144.464 71.7903 144.92 71.81C145.385 71.8029 145.845 71.9062 146.262 72.1113C146.679 72.3164 147.042 72.6176 147.32 72.99V71.99H149.32V79.21C149.336 79.8272 149.21 80.4399 148.95 81C148.732 81.4677 148.385 81.8633 147.95 82.14C147.539 82.3856 147.094 82.5709 146.63 82.69C146.153 82.7839 145.666 82.8208 145.18 82.8ZM145.58 77.8C145.929 77.8015 146.273 77.7155 146.58 77.55C146.883 77.4037 147.147 77.1878 147.35 76.92V74.41C147.138 74.151 146.873 73.9403 146.573 73.792C146.273 73.6437 145.944 73.5612 145.61 73.55C145.345 73.54 145.081 73.5855 144.835 73.6837C144.588 73.7818 144.365 73.9305 144.18 74.12C143.829 74.5645 143.639 75.114 143.639 75.68C143.639 76.246 143.829 76.7955 144.18 77.24C144.364 77.4225 144.582 77.5662 144.823 77.6624C145.063 77.7586 145.321 77.8054 145.58 77.8Z" fill="#231F20"/>
<path d="M6.54979 200C5.80333 200.025 5.0594 199.901 4.36087 199.637C3.66234 199.373 3.02304 198.973 2.47979 198.46C1.42937 197.394 0.840576 195.957 0.840576 194.46C0.840576 192.963 1.42937 191.526 2.47979 190.46C3.02304 189.947 3.66234 189.548 4.36087 189.283C5.0594 189.019 5.80333 188.895 6.54979 188.92C7.4637 188.883 8.3691 189.109 9.15808 189.572C9.94706 190.034 10.5864 190.714 10.9998 191.53L9.04979 192.53C8.8154 192.082 8.47139 191.7 8.04979 191.42C7.61495 191.129 7.10281 190.976 6.57979 190.98C6.13046 190.969 5.68375 191.052 5.2686 191.224C4.85345 191.396 4.47909 191.654 4.16978 191.98C3.56294 192.671 3.22831 193.56 3.22831 194.48C3.22831 195.4 3.56294 196.289 4.16978 196.98C4.47909 197.306 4.85345 197.564 5.2686 197.736C5.68375 197.908 6.13046 197.991 6.57979 197.98C7.10281 197.984 7.61495 197.831 8.04979 197.54C8.47139 197.26 8.8154 196.878 9.04979 196.43L10.9998 197.38C10.5849 198.195 9.94554 198.875 9.15714 199.339C8.36873 199.804 7.4641 200.033 6.54979 200Z" fill="#231F20"/>
<path d="M21.1798 199.81H19.1798V195.1C19.205 194.908 19.1854 194.714 19.1227 194.531C19.0599 194.348 18.9556 194.182 18.818 194.047C18.6804 193.911 18.5133 193.809 18.3296 193.749C18.146 193.689 17.951 193.672 17.7598 193.7C17.4162 193.695 17.0766 193.773 16.77 193.928C16.4634 194.083 16.199 194.31 15.9998 194.59V199.81H13.9998V189.14H15.9998V193.07C16.3315 192.682 16.7468 192.375 17.2144 192.17C17.682 191.966 18.1898 191.87 18.6998 191.89C19.0402 191.863 19.3827 191.905 19.706 192.015C20.0294 192.125 20.3267 192.301 20.5798 192.53C20.8022 192.769 20.9737 193.051 21.0837 193.359C21.1937 193.667 21.24 193.994 21.2198 194.32L21.1798 199.81Z" fill="#231F20"/>
<path d="M31.4798 199.81H29.4798V198.99C29.1751 199.333 28.7957 199.601 28.371 199.775C27.9463 199.948 27.4874 200.022 27.0298 199.99C26.355 199.99 25.7024 199.749 25.1898 199.31C24.9151 199.082 24.6972 198.794 24.5531 198.468C24.4091 198.142 24.3429 197.786 24.3598 197.43C24.3337 197.076 24.3927 196.72 24.5318 196.393C24.671 196.066 24.8863 195.777 25.1598 195.55C25.8059 195.094 26.5907 194.878 27.3792 194.938C28.1676 194.998 28.9105 195.331 29.4798 195.88V194.88C29.4863 194.698 29.4478 194.516 29.3675 194.352C29.2873 194.188 29.1678 194.047 29.0198 193.94C28.6591 193.692 28.227 193.569 27.7898 193.59C26.9565 193.592 26.1568 193.919 25.5598 194.5L24.7598 193.07C25.6918 192.252 26.9003 191.819 28.1398 191.86C29.0058 191.824 29.8607 192.066 30.5798 192.55C30.9193 192.811 31.1885 193.152 31.363 193.544C31.5376 193.935 31.6121 194.363 31.5798 194.79L31.4798 199.81ZM27.7898 198.62C28.0955 198.65 28.404 198.605 28.6882 198.488C28.9723 198.371 29.2235 198.186 29.4198 197.95V196.95C29.2246 196.712 28.9738 196.525 28.6896 196.407C28.4054 196.288 28.0964 196.241 27.7898 196.27C27.4318 196.263 27.0813 196.372 26.7898 196.58C26.6549 196.676 26.546 196.804 26.4726 196.952C26.3993 197.1 26.364 197.265 26.3698 197.43C26.3657 197.594 26.4018 197.756 26.475 197.902C26.5483 198.049 26.6564 198.175 26.7898 198.27C27.0763 198.492 27.4273 198.615 27.7898 198.62Z" fill="#231F20"/>
<path d="M42.3399 199.81H40.3399V195.14C40.3681 194.945 40.3506 194.747 40.2889 194.56C40.2271 194.373 40.1228 194.203 39.9841 194.063C39.8455 193.924 39.6762 193.818 39.4898 193.755C39.3034 193.692 39.1049 193.673 38.9099 193.7C38.5671 193.699 38.2289 193.779 37.923 193.934C37.617 194.088 37.3521 194.313 37.1499 194.59V199.81H35.1499V192.08H37.1499V193.08C37.4646 192.725 37.8493 192.439 38.2799 192.24C38.7734 192.007 39.3141 191.89 39.8599 191.9C40.201 191.875 40.5435 191.92 40.8668 192.032C41.19 192.143 41.487 192.32 41.7399 192.55C41.962 192.794 42.133 193.079 42.243 193.39C42.3529 193.701 42.3994 194.031 42.3799 194.36L42.3399 199.81Z" fill="#231F20"/>
<path d="M49.1097 202.94C47.8957 202.982 46.7093 202.572 45.7797 201.79L46.6997 200.34C47.0109 200.66 47.387 200.909 47.8027 201.072C48.2185 201.234 48.6642 201.305 49.1097 201.28C49.6528 201.295 50.1862 201.134 50.6297 200.82C50.852 200.638 51.0258 200.404 51.1357 200.139C51.2457 199.874 51.2883 199.586 51.2597 199.3V198.54C50.9859 198.919 50.6247 199.225 50.2069 199.434C49.789 199.643 49.3268 199.748 48.8597 199.74C48.4021 199.758 47.9458 199.679 47.5215 199.506C47.0972 199.334 46.7147 199.073 46.3997 198.74C45.7832 197.901 45.4507 196.886 45.4507 195.845C45.4507 194.804 45.7832 193.789 46.3997 192.95C46.7139 192.616 47.0962 192.354 47.5207 192.182C47.9452 192.009 48.4019 191.93 48.8597 191.95C49.325 191.94 49.7857 192.043 50.2033 192.248C50.6209 192.453 50.9832 192.756 51.2597 193.13V192.13H53.2597V199.35C53.2731 199.968 53.143 200.581 52.8797 201.14C52.6598 201.606 52.3133 202.001 51.8797 202.28C51.4663 202.521 51.0223 202.706 50.5597 202.83C50.0823 202.922 49.5957 202.959 49.1097 202.94ZM49.5097 197.94C49.848 197.93 50.1799 197.846 50.4822 197.694C50.7845 197.542 51.0499 197.325 51.2597 197.06V194.55C51.0507 194.285 50.7851 194.07 50.4823 193.922C50.1794 193.773 49.8471 193.694 49.5097 193.69C49.2463 193.68 48.9838 193.726 48.7391 193.824C48.4945 193.922 48.2732 194.071 48.0897 194.26C47.9004 194.469 47.7543 194.714 47.6599 194.98C47.5655 195.246 47.5247 195.528 47.5397 195.81C47.5094 196.385 47.707 196.949 48.0897 197.38C48.2744 197.568 48.4958 197.715 48.7402 197.813C48.9845 197.912 49.2465 197.958 49.5097 197.95V197.94Z" fill="#231F20"/>
<path d="M60.5398 200C59.9901 200.025 59.4409 199.939 58.9254 199.747C58.4098 199.554 57.9385 199.259 57.5398 198.88C57.1497 198.499 56.8439 198.041 56.6424 197.534C56.4408 197.028 56.348 196.485 56.3698 195.94C56.3575 195.409 56.4511 194.881 56.6451 194.386C56.8391 193.892 57.1297 193.441 57.4998 193.06C57.8707 192.676 58.3174 192.374 58.8115 192.173C59.3057 191.971 59.8364 191.875 60.3698 191.89C60.8933 191.871 61.4146 191.966 61.898 192.168C62.3813 192.37 62.8152 192.675 63.1698 193.06C63.9036 193.91 64.2861 195.008 64.2398 196.13V196.61H58.4998C58.563 197.096 58.8099 197.54 59.1898 197.85C59.626 198.189 60.168 198.362 60.7198 198.34C61.0981 198.333 61.4729 198.266 61.8298 198.14C62.1809 198.026 62.5021 197.834 62.7698 197.58L63.6798 198.93C62.8051 199.669 61.6839 200.051 60.5398 200ZM62.3298 195.2C62.2912 194.765 62.0999 194.358 61.7898 194.05C61.4068 193.73 60.9237 193.555 60.4248 193.555C59.9259 193.555 59.4428 193.73 59.0598 194.05C58.7476 194.36 58.5561 194.771 58.5198 195.21L62.3298 195.2Z" fill="#231F20"/>
<path d="M114.37 199.81H112.08V191.14H108.97V189.14H117.48V191.14H114.37V199.81Z" fill="#231F20"/>
<path d="M122.55 200C122 200.025 121.451 199.939 120.935 199.747C120.42 199.554 119.949 199.259 119.55 198.88C119.16 198.499 118.854 198.041 118.652 197.534C118.451 197.028 118.358 196.485 118.38 195.94C118.369 195.408 118.464 194.88 118.66 194.385C118.856 193.891 119.148 193.44 119.52 193.06C119.888 192.676 120.333 192.374 120.826 192.172C121.318 191.97 121.848 191.874 122.38 191.89C122.903 191.871 123.425 191.965 123.908 192.167C124.392 192.369 124.826 192.674 125.18 193.06C125.918 193.908 126.301 195.007 126.25 196.13V196.61H120.51C120.581 197.094 120.826 197.535 121.2 197.85C121.636 198.189 122.178 198.362 122.73 198.34C123.108 198.334 123.483 198.267 123.84 198.14C124.192 198.028 124.514 197.837 124.78 197.58L125.69 198.93C124.815 199.669 123.694 200.051 122.55 200ZM124.34 195.2C124.301 194.767 124.113 194.361 123.81 194.05C123.625 193.876 123.406 193.741 123.167 193.655C122.928 193.569 122.673 193.533 122.42 193.55C122.173 193.535 121.926 193.57 121.694 193.654C121.462 193.739 121.249 193.87 121.07 194.04C120.758 194.35 120.566 194.761 120.53 195.2H124.34Z" fill="#231F20"/>
<path d="M136.05 199.81H134.05V198.99C133.745 199.333 133.366 199.601 132.941 199.775C132.516 199.948 132.057 200.022 131.6 199.99C130.922 199.991 130.266 199.75 129.75 199.31C129.477 199.081 129.261 198.793 129.119 198.466C128.976 198.14 128.912 197.785 128.93 197.43C128.902 197.075 128.96 196.719 129.1 196.392C129.239 196.065 129.455 195.776 129.73 195.55C130.266 195.139 130.924 194.92 131.6 194.93C132.054 194.892 132.51 194.958 132.934 195.122C133.359 195.287 133.74 195.546 134.05 195.88V194.88C134.054 194.697 134.014 194.515 133.932 194.351C133.85 194.188 133.729 194.046 133.58 193.94C133.219 193.692 132.787 193.569 132.35 193.59C131.517 193.594 130.718 193.921 130.12 194.5L129.32 193.07C130.253 192.254 131.461 191.821 132.7 191.86C133.566 191.819 134.423 192.061 135.14 192.55C135.472 192.815 135.732 193.159 135.898 193.55C136.064 193.941 136.13 194.367 136.09 194.79L136.05 199.81ZM132.37 198.62C132.677 198.649 132.987 198.603 133.272 198.487C133.558 198.37 133.811 198.186 134.01 197.95V196.95C133.811 196.713 133.559 196.527 133.273 196.409C132.988 196.291 132.678 196.243 132.37 196.27C132.012 196.265 131.662 196.373 131.37 196.58C131.237 196.677 131.13 196.805 131.058 196.954C130.987 197.102 130.953 197.266 130.96 197.43C130.955 197.593 130.989 197.754 131.061 197.901C131.132 198.047 131.238 198.174 131.37 198.27C131.657 198.491 132.008 198.614 132.37 198.62Z" fill="#231F20"/>
<path d="M151.28 199.81H149.28V194.93C149.28 194.11 148.89 193.7 148.13 193.7C147.8 193.698 147.477 193.792 147.2 193.97C146.94 194.134 146.713 194.344 146.53 194.59V199.81H144.53V194.93C144.53 194.11 144.14 193.7 143.37 193.7C143.052 193.706 142.741 193.79 142.463 193.946C142.186 194.101 141.951 194.322 141.78 194.59V199.81H139.78V192.08H141.78V193.08C142.055 192.747 142.395 192.475 142.78 192.28C143.244 192.032 143.763 191.901 144.29 191.9C144.754 191.844 145.224 191.952 145.616 192.206C146.009 192.46 146.301 192.843 146.44 193.29C146.716 192.873 147.09 192.529 147.53 192.29C148.004 192.015 148.542 191.87 149.09 191.87C149.394 191.849 149.7 191.889 149.989 191.989C150.278 192.088 150.543 192.245 150.77 192.45C150.982 192.688 151.144 192.967 151.245 193.27C151.346 193.572 151.386 193.892 151.36 194.21L151.28 199.81Z" fill="#231F20"/>
<path d="M163.86 199.81H161.69L160.05 194.54L158.42 199.81H156.24L153.89 192.08H156.01L157.45 197.28L159.14 192.08H160.95L162.65 197.28L164.09 192.08H166.21L163.86 199.81Z" fill="#231F20"/>
<path d="M175.38 198.82C174.992 199.219 174.524 199.53 174.007 199.734C173.49 199.937 172.935 200.028 172.38 200C171.824 200.031 171.269 199.942 170.751 199.738C170.233 199.534 169.765 199.221 169.38 198.82C168.659 198.034 168.259 197.006 168.259 195.94C168.259 194.874 168.659 193.846 169.38 193.06C169.767 192.662 170.236 192.352 170.753 192.15C171.271 191.948 171.825 191.86 172.38 191.89C172.934 191.863 173.488 191.953 174.005 192.155C174.522 192.356 174.99 192.665 175.38 193.06C176.101 193.846 176.501 194.874 176.501 195.94C176.501 197.006 176.101 198.034 175.38 198.82ZM172.38 198.19C172.657 198.205 172.934 198.153 173.188 198.04C173.442 197.927 173.665 197.756 173.84 197.54C174.183 197.079 174.369 196.52 174.369 195.945C174.369 195.37 174.183 194.811 173.84 194.35C173.665 194.134 173.442 193.963 173.188 193.85C172.934 193.737 172.657 193.685 172.38 193.7C172.107 193.688 171.835 193.74 171.587 193.853C171.338 193.966 171.12 194.136 170.95 194.35C170.606 194.811 170.421 195.37 170.421 195.945C170.421 196.52 170.606 197.079 170.95 197.54C171.122 197.756 171.343 197.928 171.596 198.041C171.848 198.154 172.124 198.205 172.4 198.19H172.38Z" fill="#231F20"/>
<path d="M181.65 199.81H179.65V192.08H181.65V193.08C181.965 192.719 182.345 192.42 182.77 192.2C183.185 191.975 183.648 191.855 184.12 191.85V193.85C183.934 193.831 183.746 193.831 183.56 193.85C183.182 193.859 182.811 193.948 182.47 194.11C182.143 194.234 181.858 194.449 181.65 194.73V199.81Z" fill="#231F20"/>
<path d="M194.53 199.81H191.99L189.94 196.81L189.01 197.81V199.81H187.01V189.14H189.01V195.52L191.94 192.08H194.44L191.38 195.58L194.53 199.81Z" fill="#231F20"/>
<path d="M246.72 199.81H244.45V189.14H246.72V199.81Z" fill="#231F20"/>
<path d="M257.65 199.81H255.6V195.14C255.628 194.945 255.61 194.747 255.549 194.56C255.487 194.373 255.383 194.203 255.244 194.063C255.105 193.924 254.936 193.818 254.75 193.755C254.563 193.692 254.365 193.673 254.17 193.7C253.827 193.699 253.489 193.779 253.183 193.934C252.877 194.088 252.612 194.313 252.41 194.59V199.81H250.41V192.08H252.41V193.08C252.724 192.725 253.109 192.439 253.54 192.24C254.034 192.008 254.574 191.892 255.12 191.9C255.461 191.875 255.803 191.92 256.127 192.032C256.45 192.143 256.747 192.32 257 192.55C257.223 192.793 257.396 193.079 257.507 193.389C257.619 193.7 257.667 194.03 257.65 194.36V199.81Z" fill="#231F20"/>
<path d="M268.51 199.81H266.46V195.14C266.49 194.946 266.474 194.747 266.413 194.56C266.353 194.373 266.25 194.203 266.112 194.063C265.974 193.923 265.805 193.817 265.619 193.754C265.433 193.691 265.234 193.673 265.04 193.7C264.697 193.698 264.358 193.778 264.052 193.932C263.746 194.087 263.481 194.313 263.28 194.59V199.81H261.28V192.08H263.28V193.08C263.59 192.721 263.976 192.434 264.41 192.24C264.9 192.008 265.437 191.892 265.98 191.9C266.322 191.876 266.666 191.921 266.991 192.033C267.316 192.145 267.614 192.32 267.87 192.55C268.092 192.794 268.263 193.079 268.373 193.39C268.483 193.701 268.529 194.031 268.51 194.36V199.81Z" fill="#231F20"/>
<path d="M278.67 198.82C278.282 199.219 277.814 199.53 277.297 199.734C276.78 199.937 276.225 200.028 275.67 200C275.114 200.031 274.559 199.942 274.041 199.738C273.523 199.534 273.055 199.221 272.67 198.82C271.949 198.034 271.549 197.006 271.549 195.94C271.549 194.874 271.949 193.846 272.67 193.06C273.057 192.662 273.526 192.352 274.043 192.15C274.561 191.948 275.115 191.86 275.67 191.89C276.224 191.863 276.778 191.953 277.295 192.155C277.812 192.356 278.28 192.665 278.67 193.06C279.391 193.846 279.791 194.874 279.791 195.94C279.791 197.006 279.391 198.034 278.67 198.82ZM275.67 198.19C275.947 198.205 276.224 198.153 276.478 198.04C276.732 197.927 276.955 197.756 277.13 197.54C277.473 197.079 277.659 196.52 277.659 195.945C277.659 195.37 277.473 194.811 277.13 194.35C276.948 194.145 276.725 193.981 276.475 193.869C276.225 193.757 275.954 193.699 275.68 193.699C275.406 193.699 275.135 193.757 274.885 193.869C274.635 193.981 274.412 194.145 274.23 194.35C273.893 194.813 273.711 195.372 273.711 195.945C273.711 196.518 273.893 197.077 274.23 197.54C274.405 197.756 274.628 197.927 274.882 198.04C275.136 198.153 275.412 198.205 275.69 198.19H275.67Z" fill="#231F20"/>
<path d="M287.1 199.81H284.91L281.81 192.08H283.98L285.98 197.46L287.98 192.08H290.16L287.1 199.81Z" fill="#231F20"/>
<path d="M299.41 199.81H297.36V198.99C297.055 199.333 296.676 199.601 296.251 199.775C295.826 199.948 295.368 200.022 294.91 199.99C294.232 199.99 293.577 199.749 293.06 199.31C292.787 199.081 292.571 198.793 292.429 198.466C292.286 198.14 292.222 197.785 292.24 197.43C292.212 197.075 292.27 196.719 292.41 196.392C292.549 196.065 292.765 195.776 293.04 195.55C293.576 195.139 294.235 194.92 294.91 194.93C295.364 194.892 295.82 194.958 296.244 195.122C296.669 195.287 297.05 195.546 297.36 195.88V194.88C297.364 194.697 297.324 194.515 297.242 194.351C297.16 194.188 297.039 194.046 296.89 193.94C296.529 193.692 296.097 193.569 295.66 193.59C294.829 193.592 294.033 193.918 293.44 194.5L292.64 193.07C293.568 192.253 294.774 191.82 296.01 191.86C296.877 191.819 297.733 192.061 298.45 192.55C298.791 192.81 299.061 193.151 299.236 193.542C299.41 193.934 299.484 194.363 299.45 194.79L299.41 199.81ZM295.72 198.62C296.027 198.65 296.337 198.605 296.623 198.488C296.909 198.371 297.162 198.186 297.36 197.95V196.95C297.163 196.712 296.91 196.525 296.624 196.407C296.338 196.288 296.028 196.241 295.72 196.27C295.362 196.265 295.012 196.373 294.72 196.58C294.587 196.677 294.48 196.805 294.408 196.954C294.337 197.102 294.303 197.266 294.31 197.43C294.305 197.593 294.339 197.754 294.411 197.901C294.482 198.047 294.588 198.174 294.72 198.27C295.007 198.491 295.358 198.614 295.72 198.62Z" fill="#231F20"/>
<path d="M305.6 200C305.308 200.044 305.01 200.02 304.728 199.929C304.447 199.839 304.191 199.684 303.98 199.478C303.768 199.271 303.608 199.019 303.511 198.74C303.414 198.461 303.383 198.163 303.42 197.87V193.87H302.14V192.09H303.42V189.98H305.42V192.09H306.99V193.87H305.42V197.34C305.413 197.562 305.479 197.78 305.61 197.96C305.67 198.039 305.749 198.103 305.84 198.145C305.931 198.187 306.03 198.206 306.13 198.2C306.257 198.213 306.385 198.199 306.506 198.157C306.627 198.116 306.738 198.048 306.83 197.96L307.26 199.51C306.785 199.871 306.195 200.045 305.6 200Z" fill="#231F20"/>
<path d="M311.02 191.25C310.861 191.251 310.704 191.22 310.557 191.158C310.411 191.096 310.279 191.005 310.17 190.89C310.058 190.777 309.969 190.642 309.909 190.495C309.849 190.347 309.819 190.189 309.82 190.03C309.819 189.791 309.89 189.557 310.023 189.359C310.156 189.16 310.345 189.006 310.567 188.916C310.788 188.826 311.031 188.803 311.265 188.852C311.499 188.901 311.713 189.019 311.88 189.19C311.996 189.297 312.087 189.427 312.149 189.572C312.211 189.716 312.242 189.873 312.24 190.03C312.241 190.19 312.21 190.349 312.148 190.497C312.086 190.645 311.995 190.779 311.88 190.89C311.77 191.007 311.636 191.099 311.488 191.161C311.34 191.223 311.18 191.253 311.02 191.25ZM312.02 199.81H310.02V192.08H312.02V199.81Z" fill="#231F20"/>
<path d="M322.22 198.82C321.832 199.219 321.364 199.53 320.847 199.734C320.33 199.937 319.775 200.028 319.22 200C318.664 200.031 318.109 199.942 317.591 199.738C317.073 199.534 316.605 199.221 316.22 198.82C315.499 198.034 315.099 197.006 315.099 195.94C315.099 194.874 315.499 193.846 316.22 193.06C316.607 192.662 317.076 192.352 317.593 192.15C318.111 191.948 318.665 191.86 319.22 191.89C319.774 191.863 320.328 191.953 320.845 192.155C321.362 192.356 321.83 192.665 322.22 193.06C322.941 193.846 323.341 194.874 323.341 195.94C323.341 197.006 322.941 198.034 322.22 198.82ZM319.22 198.19C319.497 198.205 319.774 198.153 320.028 198.04C320.282 197.927 320.505 197.756 320.68 197.54C321.023 197.079 321.209 196.52 321.209 195.945C321.209 195.37 321.023 194.811 320.68 194.35C320.498 194.145 320.275 193.981 320.025 193.869C319.775 193.757 319.504 193.699 319.23 193.699C318.956 193.699 318.685 193.757 318.435 193.869C318.185 193.981 317.962 194.145 317.78 194.35C317.443 194.813 317.261 195.372 317.261 195.945C317.261 196.518 317.443 197.077 317.78 197.54C317.955 197.756 318.178 197.927 318.432 198.04C318.686 198.153 318.963 198.205 319.24 198.19H319.22Z" fill="#231F20"/>
<path d="M333.73 199.81H331.68V195.14C331.708 194.945 331.69 194.747 331.629 194.56C331.567 194.373 331.463 194.203 331.324 194.063C331.185 193.924 331.016 193.818 330.83 193.755C330.643 193.692 330.445 193.673 330.25 193.7C329.907 193.699 329.569 193.779 329.263 193.934C328.957 194.088 328.692 194.313 328.49 194.59V199.81H326.49V192.08H328.49V193.08C328.804 192.725 329.189 192.439 329.62 192.24C330.114 192.008 330.654 191.892 331.2 191.9C331.541 191.875 331.883 191.92 332.207 192.032C332.53 192.143 332.827 192.32 333.08 192.55C333.303 192.793 333.476 193.079 333.587 193.389C333.699 193.7 333.747 194.03 333.73 194.36V199.81Z" fill="#231F20"/>
<path d="M385.79 199.81H383.52V189.14H385.79V199.81Z" fill="#231F20"/>
<path d="M396.67 199.81H394.62V195.14C394.65 194.946 394.634 194.747 394.573 194.56C394.513 194.373 394.41 194.203 394.272 194.063C394.134 193.923 393.965 193.817 393.779 193.754C393.593 193.691 393.394 193.673 393.2 193.7C392.857 193.699 392.519 193.779 392.213 193.933C391.907 194.088 391.642 194.313 391.44 194.59V199.81H389.44V192.08H391.44V193.08C391.752 192.723 392.138 192.437 392.57 192.24C393.06 192.008 393.597 191.891 394.14 191.9C394.482 191.875 394.826 191.92 395.151 192.032C395.476 192.144 395.775 192.32 396.03 192.55C396.252 192.794 396.423 193.079 396.533 193.39C396.643 193.701 396.689 194.031 396.67 194.36V199.81Z" fill="#231F20"/>
<path d="M402.86 200C402.568 200.045 402.27 200.021 401.989 199.93C401.708 199.839 401.453 199.684 401.242 199.478C401.031 199.271 400.872 199.018 400.776 198.739C400.68 198.46 400.651 198.162 400.69 197.87V193.87H399.41V192.09H400.69V189.98H402.69V192.09H404.26V193.87H402.69V197.34C402.679 197.561 402.743 197.779 402.87 197.96C402.931 198.038 403.01 198.101 403.101 198.142C403.191 198.184 403.29 198.204 403.39 198.2C403.518 198.213 403.648 198.198 403.771 198.157C403.893 198.115 404.005 198.048 404.1 197.96L404.53 199.51C404.052 199.872 403.458 200.047 402.86 200Z" fill="#231F20"/>
<path d="M410.91 200C410.36 200.024 409.811 199.937 409.296 199.745C408.78 199.553 408.309 199.258 407.91 198.88C407.52 198.499 407.214 198.041 407.012 197.534C406.811 197.028 406.718 196.485 406.74 195.94C406.729 195.408 406.824 194.88 407.02 194.385C407.215 193.891 407.508 193.44 407.88 193.06C408.249 192.677 408.694 192.374 409.186 192.173C409.679 191.971 410.208 191.875 410.74 191.89C411.263 191.869 411.785 191.963 412.269 192.166C412.753 192.368 413.186 192.673 413.54 193.06C414.281 193.907 414.667 195.006 414.62 196.13V196.61H408.87C408.943 197.095 409.192 197.537 409.57 197.85C410.006 198.189 410.548 198.362 411.1 198.34C411.478 198.333 411.853 198.266 412.21 198.14C412.559 198.028 412.877 197.836 413.14 197.58L414.06 198.93C413.182 199.671 412.057 200.053 410.91 200ZM412.7 195.2C412.661 194.767 412.473 194.361 412.17 194.05C411.785 193.73 411.3 193.554 410.8 193.554C410.299 193.554 409.814 193.73 409.43 194.05C409.124 194.364 408.937 194.774 408.9 195.21L412.7 195.2Z" fill="#231F20"/>
<path d="M420.9 202.94C419.685 202.986 418.497 202.575 417.57 201.79L418.48 200.34C418.793 200.66 419.171 200.91 419.588 201.072C420.005 201.234 420.453 201.305 420.9 201.28C421.44 201.295 421.97 201.134 422.41 200.82C422.632 200.638 422.806 200.404 422.916 200.139C423.026 199.874 423.068 199.586 423.04 199.3V198.54C422.766 198.919 422.405 199.225 421.987 199.434C421.569 199.643 421.107 199.748 420.64 199.74C420.182 199.757 419.726 199.677 419.302 199.504C418.878 199.332 418.496 199.071 418.18 198.74C417.563 197.901 417.231 196.886 417.231 195.845C417.231 194.804 417.563 193.789 418.18 192.95C418.495 192.617 418.877 192.356 419.302 192.184C419.726 192.011 420.182 191.931 420.64 191.95C421.105 191.94 421.566 192.043 421.983 192.248C422.401 192.453 422.763 192.756 423.04 193.13V192.13H425.04V199.35C425.056 199.967 424.93 200.58 424.67 201.14C424.452 201.608 424.105 202.003 423.67 202.28C423.256 202.521 422.812 202.706 422.35 202.83C421.872 202.924 421.386 202.961 420.9 202.94ZM421.3 197.94C421.649 197.941 421.993 197.856 422.3 197.69C422.603 197.544 422.866 197.328 423.07 197.06V194.55C422.865 194.29 422.605 194.079 422.31 193.93C422 193.772 421.657 193.69 421.31 193.69C421.045 193.679 420.78 193.724 420.534 193.822C420.287 193.92 420.064 194.069 419.88 194.26C419.692 194.47 419.547 194.715 419.454 194.981C419.362 195.247 419.323 195.529 419.34 195.81C419.307 196.384 419.501 196.948 419.88 197.38C420.064 197.568 420.286 197.715 420.53 197.813C420.775 197.912 421.037 197.958 421.3 197.95V197.94Z" fill="#231F20"/>
<path d="M430.72 199.81H428.72V192.08H430.72V193.08C431.033 192.721 431.409 192.423 431.83 192.2C432.244 191.975 432.708 191.855 433.18 191.85V193.85C432.994 193.83 432.806 193.83 432.62 193.85C432.245 193.86 431.877 193.948 431.54 194.11C431.213 194.234 430.928 194.449 430.72 194.73V199.81Z" fill="#231F20"/>
<path d="M437.05 191.25C436.892 191.252 436.736 191.222 436.591 191.16C436.447 191.098 436.317 191.006 436.21 190.89C436.096 190.778 436.006 190.644 435.946 190.496C435.886 190.348 435.856 190.19 435.86 190.03C435.862 189.714 435.988 189.412 436.211 189.188C436.433 188.964 436.734 188.835 437.05 188.83C437.212 188.826 437.373 188.857 437.523 188.919C437.672 188.981 437.808 189.073 437.92 189.19C438.032 189.299 438.121 189.429 438.182 189.574C438.242 189.718 438.272 189.873 438.27 190.03C438.271 190.189 438.241 190.347 438.181 190.495C438.121 190.642 438.032 190.777 437.92 190.89C437.808 191.007 437.672 191.099 437.523 191.161C437.373 191.223 437.212 191.254 437.05 191.25ZM438.05 199.81H436.05V192.08H438.05V199.81Z" fill="#231F20"/>
<path d="M444.29 200C443.998 200.044 443.699 200.02 443.418 199.929C443.137 199.839 442.881 199.684 442.67 199.478C442.458 199.271 442.298 199.019 442.201 198.74C442.104 198.461 442.072 198.163 442.11 197.87V193.87H440.79V192.09H442.07V189.98H444.07V192.09H445.64V193.87H444.07V197.34C444.063 197.562 444.129 197.78 444.26 197.96C444.32 198.039 444.399 198.103 444.49 198.145C444.581 198.187 444.68 198.206 444.78 198.2C444.907 198.213 445.035 198.199 445.156 198.157C445.277 198.116 445.388 198.048 445.48 197.96L445.91 199.51C445.446 199.863 444.871 200.037 444.29 200Z" fill="#231F20"/>
<path d="M448.45 202.82L448.74 201.01C448.942 201.096 449.16 201.141 449.38 201.14C449.594 201.167 449.811 201.127 450.002 201.027C450.194 200.927 450.35 200.771 450.45 200.58L450.74 199.9L447.6 192.08H449.79L451.79 197.46L453.79 192.08H455.97L452.34 201.08C452.147 201.674 451.75 202.18 451.22 202.51C450.663 202.807 450.041 202.958 449.41 202.95C449.085 202.954 448.762 202.91 448.45 202.82Z" fill="#231F20"/>
<path d="M208.63 79.66H201.79V68.99H204.08V77.66H208.59L208.63 79.66Z" fill="#231F20"/>
<path d="M215.17 79.85C214.62 79.8741 214.071 79.7874 213.556 79.595C213.041 79.4026 212.569 79.1084 212.17 78.73C211.779 78.3497 211.473 77.8913 211.272 77.3847C211.07 76.8781 210.977 76.3347 211 75.79C210.99 75.2599 211.086 74.7333 211.282 74.2406C211.477 73.7479 211.769 73.299 212.14 72.92C212.507 72.5332 212.951 72.2282 213.444 72.0249C213.937 71.8216 214.467 71.7245 215 71.74C215.525 71.7193 216.047 71.8143 216.531 72.0182C217.015 72.2221 217.448 72.53 217.8 72.92C218.543 73.7614 218.93 74.8586 218.88 75.98V76.46H213.13C213.203 76.9452 213.452 77.3865 213.83 77.7C214.264 78.0427 214.807 78.2168 215.36 78.19C215.738 78.1833 216.113 78.1157 216.47 77.99C216.819 77.8751 217.139 77.6876 217.41 77.44L218.32 78.78C217.445 79.525 216.318 79.9078 215.17 79.85ZM216.96 75.05C216.921 74.6171 216.734 74.211 216.43 73.9C216.045 73.5795 215.561 73.404 215.06 73.404C214.559 73.404 214.074 73.5795 213.69 73.9C213.384 74.2136 213.197 74.6236 213.16 75.06L216.96 75.05Z" fill="#231F20"/>
<path d="M228.68 79.66H226.63V78.84C226.325 79.1829 225.946 79.4514 225.521 79.6247C225.096 79.7981 224.637 79.8717 224.18 79.84C223.501 79.8441 222.844 79.6026 222.33 79.16C222.057 78.9314 221.841 78.6427 221.699 78.3165C221.556 77.9902 221.492 77.6354 221.51 77.28C221.484 76.9256 221.543 76.57 221.682 76.243C221.821 75.916 222.036 75.627 222.31 75.4C222.847 74.9923 223.506 74.7774 224.18 74.79C224.633 74.7508 225.088 74.8151 225.513 74.9779C225.937 75.1408 226.319 75.3979 226.63 75.73V74.73C226.633 74.5481 226.593 74.3681 226.513 74.2046C226.433 74.0412 226.315 73.8991 226.17 73.79C225.806 73.5397 225.37 73.4167 224.93 73.44C224.099 73.4418 223.302 73.7684 222.71 74.35L221.91 72.93C222.844 72.1163 224.052 71.6875 225.29 71.73C226.156 71.6943 227.011 71.9361 227.73 72.42C228.06 72.6864 228.32 73.0302 228.485 73.421C228.651 73.8117 228.718 74.2373 228.68 74.66V79.66ZM225 78.48C225.306 78.5071 225.615 78.4594 225.899 78.3409C226.182 78.2225 226.433 78.0369 226.63 77.8V76.8C226.432 76.5645 226.181 76.3798 225.898 76.2615C225.614 76.1431 225.306 76.0946 225 76.12C224.64 76.1104 224.287 76.2232 224 76.44C223.866 76.5349 223.758 76.6612 223.685 76.8076C223.612 76.9541 223.576 77.1163 223.58 77.28C223.576 77.4437 223.612 77.6059 223.685 77.7524C223.758 77.8988 223.866 78.0251 224 78.12C224.284 78.347 224.636 78.4736 225 78.48Z" fill="#231F20"/>
<path d="M234.31 79.66H232.31V71.93H234.31V72.93C234.623 72.5712 234.999 72.2729 235.42 72.05C235.843 71.8321 236.314 71.7222 236.79 71.73V73.73C236.604 73.7112 236.416 73.7112 236.23 73.73C235.856 73.736 235.488 73.8212 235.15 73.98C234.82 74.1037 234.534 74.3231 234.33 74.61L234.31 79.66Z" fill="#231F20"/>
<path d="M246.9 79.66H244.85V74.99C244.88 74.7958 244.864 74.5973 244.803 74.4103C244.743 74.2233 244.64 74.0531 244.502 73.9132C244.364 73.7732 244.195 73.6675 244.009 73.6045C243.823 73.5414 243.624 73.5228 243.43 73.55C243.087 73.548 242.748 73.6276 242.442 73.7824C242.136 73.9372 241.871 74.1626 241.67 74.44V79.66H239.67V71.93H241.67V72.93C241.982 72.5729 242.368 72.2865 242.8 72.09C243.29 71.8579 243.827 71.7415 244.37 71.75C244.713 71.7245 245.058 71.7699 245.383 71.8834C245.708 71.997 246.007 72.1762 246.26 72.41C246.481 72.6519 246.652 72.9359 246.762 73.2451C246.872 73.5543 246.919 73.8824 246.9 74.21V79.66Z" fill="#231F20"/>
<path d="M251.51 71.1C251.351 71.1013 251.194 71.0701 251.047 71.0082C250.901 70.9463 250.769 70.855 250.66 70.74C250.547 70.6274 250.457 70.4933 250.397 70.3455C250.337 70.1978 250.307 70.0395 250.31 69.88C250.309 69.641 250.38 69.4073 250.513 69.2088C250.646 69.0102 250.835 68.856 251.057 68.7657C251.278 68.6755 251.521 68.6534 251.755 68.7023C251.989 68.7511 252.203 68.8687 252.37 69.04C252.485 69.1468 252.577 69.2769 252.639 69.4216C252.701 69.5664 252.732 69.7225 252.73 69.88C252.732 70.0404 252.702 70.1997 252.64 70.3478C252.578 70.4958 252.486 70.6294 252.37 70.74C252.259 70.8567 252.126 70.9491 251.978 71.0111C251.83 71.0731 251.67 71.1033 251.51 71.1ZM252.51 79.66H250.51V71.93H252.51V79.66Z" fill="#231F20"/>
<path d="M263.41 79.66H261.36V74.99C261.39 74.7958 261.374 74.5973 261.313 74.4103C261.253 74.2233 261.15 74.0531 261.012 73.9131C260.874 73.7732 260.705 73.6675 260.519 73.6045C260.333 73.5414 260.134 73.5228 259.94 73.55C259.597 73.5488 259.259 73.6288 258.953 73.7835C258.647 73.9382 258.382 74.1632 258.18 74.44V79.66H256.18V71.93H258.18V72.93C258.492 72.5729 258.878 72.2865 259.31 72.09C259.8 71.8578 260.337 71.7415 260.88 71.75C261.223 71.7239 261.568 71.769 261.894 71.8826C262.219 71.9961 262.517 72.1757 262.77 72.41C262.991 72.6519 263.162 72.9358 263.272 73.2451C263.382 73.5543 263.429 73.8824 263.41 74.21V79.66Z" fill="#231F20"/>
<path d="M270.18 82.8C268.964 82.839 267.778 82.4257 266.85 81.64L267.76 80.19C268.073 80.5091 268.452 80.758 268.869 80.92C269.286 81.0821 269.733 81.1536 270.18 81.13C270.718 81.1453 271.247 80.9876 271.69 80.68C271.913 80.4961 272.087 80.2607 272.199 79.9941C272.31 79.7275 272.355 79.4378 272.33 79.15V78.4C272.053 78.7781 271.69 79.0844 271.271 79.2932C270.851 79.502 270.388 79.6072 269.92 79.6C269.463 79.6197 269.008 79.5405 268.585 79.3679C268.162 79.1953 267.782 78.9333 267.47 78.6C266.79 77.7962 266.45 76.7601 266.52 75.71C266.452 74.6573 266.793 73.6189 267.47 72.81C267.782 72.4767 268.162 72.2147 268.585 72.0421C269.008 71.8695 269.463 71.7903 269.92 71.81C270.386 71.8013 270.848 71.9038 271.267 72.109C271.686 72.3142 272.05 72.6162 272.33 72.99V71.99H274.33V79.21C274.343 79.828 274.213 80.4407 273.95 81C273.732 81.4677 273.385 81.8633 272.95 82.14C272.54 82.389 272.095 82.5745 271.63 82.69C271.152 82.7839 270.666 82.8208 270.18 82.8ZM270.58 77.8C270.928 77.7998 271.272 77.714 271.58 77.55C271.881 77.401 272.144 77.1856 272.35 76.92V74.41C272.143 74.1505 271.88 73.9418 271.58 73.8C271.273 73.6337 270.929 73.5477 270.58 73.55C270.316 73.5389 270.053 73.5839 269.808 73.6822C269.564 73.7805 269.342 73.9297 269.16 74.12C268.804 74.5623 268.61 75.1126 268.61 75.68C268.61 76.2474 268.804 76.7978 269.16 77.24C269.344 77.427 269.566 77.5733 269.811 77.6697C270.055 77.7662 270.317 77.8105 270.58 77.8Z" fill="#231F20"/>
<path d="M328.35 79.66H324.13V68.99H328.34C329.84 68.9276 331.304 69.4553 332.42 70.46C333.43 71.4949 333.996 72.8838 333.996 74.33C333.996 75.7762 333.43 77.1651 332.42 78.2C331.305 79.1986 329.845 79.7224 328.35 79.66ZM328.35 77.66C328.804 77.6756 329.257 77.5945 329.677 77.4221C330.098 77.2497 330.477 76.9899 330.79 76.66C331.392 76.0165 331.716 75.161 331.69 74.28C331.722 73.3975 331.41 72.5372 330.82 71.88C330.499 71.5595 330.114 71.3109 329.69 71.1506C329.266 70.9903 328.812 70.9219 328.36 70.95H326.41V77.62L328.35 77.66Z" fill="#231F20"/>
<path d="M340.79 79.85C340.24 79.8741 339.691 79.7874 339.176 79.595C338.661 79.4026 338.189 79.1084 337.79 78.73C337.399 78.3497 337.093 77.8913 336.891 77.3847C336.69 76.8781 336.597 76.3347 336.62 75.79C336.61 75.2599 336.706 74.7333 336.902 74.2406C337.097 73.7479 337.389 73.299 337.76 72.92C338.127 72.5332 338.571 72.2282 339.064 72.0249C339.557 71.8216 340.087 71.7245 340.62 71.74C341.144 71.7193 341.667 71.8143 342.151 72.0182C342.635 72.2221 343.068 72.53 343.42 72.92C344.159 73.763 344.543 74.8599 344.49 75.98V76.46H338.79C338.863 76.9452 339.112 77.3865 339.49 77.7C339.924 78.0427 340.467 78.2168 341.02 78.19C341.398 78.1833 341.773 78.1157 342.13 77.99C342.477 77.8776 342.794 77.6897 343.06 77.44L343.98 78.78C343.094 79.5348 341.951 79.9182 340.79 79.85ZM342.58 75.05C342.541 74.6171 342.353 74.211 342.05 73.9C341.665 73.5795 341.18 73.404 340.68 73.404C340.179 73.404 339.694 73.5795 339.31 73.9C339.004 74.2136 338.817 74.6236 338.78 75.06L342.58 75.05Z" fill="#231F20"/>
<path d="M351.79 79.66H349.6L346.49 71.93H348.67L350.67 77.31L352.67 71.93H354.84L351.79 79.66Z" fill="#231F20"/>
<path d="M361.06 79.85C360.51 79.8753 359.961 79.7891 359.445 79.5966C358.93 79.4041 358.458 79.1094 358.06 78.73C357.669 78.3497 357.363 77.8913 357.161 77.3847C356.96 76.8781 356.867 76.3347 356.89 75.79C356.88 75.2599 356.976 74.7333 357.172 74.2406C357.367 73.7479 357.659 73.299 358.03 72.92C358.396 72.5327 358.841 72.2274 359.334 72.024C359.826 71.8206 360.357 71.7238 360.89 71.74C361.414 71.7207 361.937 71.8163 362.42 72.0201C362.904 72.224 363.337 72.5311 363.69 72.92C364.426 73.7651 364.809 74.8605 364.76 75.98V76.46H359.02C359.056 76.7126 359.143 76.9552 359.276 77.1734C359.408 77.3916 359.583 77.5809 359.79 77.73C360.224 78.0727 360.767 78.2468 361.32 78.22C361.698 78.2132 362.073 78.1457 362.43 78.02C362.778 77.9051 363.099 77.7176 363.37 77.47L364.28 78.81C363.383 79.5624 362.228 79.9354 361.06 79.85ZM362.85 75.05C362.811 74.6149 362.62 74.2076 362.31 73.9C361.927 73.5803 361.444 73.4051 360.945 73.4051C360.446 73.4051 359.963 73.5803 359.58 73.9C359.268 74.2101 359.076 74.6214 359.04 75.06L362.85 75.05Z" fill="#231F20"/>
<path d="M369.9 79.66H367.9V68.99H369.9V79.66Z" fill="#231F20"/>
<path d="M380.08 78.73C379.69 79.1253 379.222 79.4338 378.705 79.6355C378.188 79.8371 377.634 79.9272 377.08 79.9C376.525 79.9305 375.971 79.8418 375.453 79.64C374.936 79.4382 374.467 79.1279 374.08 78.73C373.34 77.9521 372.937 76.9133 372.96 75.84C372.946 75.3096 373.038 74.7819 373.23 74.2875C373.423 73.793 373.711 73.3418 374.08 72.96C374.467 72.5621 374.936 72.2518 375.453 72.05C375.971 71.8482 376.525 71.7595 377.08 71.79C377.634 71.7628 378.188 71.8529 378.705 72.0545C379.222 72.2561 379.69 72.5647 380.08 72.96C380.799 73.7485 381.198 74.7775 381.198 75.845C381.198 76.9125 380.799 77.9415 380.08 78.73ZM377.08 78.09C377.356 78.1041 377.632 78.0537 377.885 77.9426C378.139 77.8315 378.363 77.6628 378.54 77.45C378.899 76.9914 379.086 76.422 379.07 75.84C379.086 75.264 378.899 74.7008 378.54 74.25C378.358 74.0452 378.134 73.8813 377.885 73.7691C377.635 73.6569 377.364 73.5988 377.09 73.5988C376.816 73.5988 376.545 73.6569 376.295 73.7691C376.045 73.8813 375.822 74.0452 375.64 74.25C375.284 74.7017 375.099 75.2651 375.12 75.84C375.1 76.4209 375.284 76.9905 375.64 77.45C375.822 77.6537 376.048 77.8129 376.301 77.9152C376.554 78.0175 376.827 78.0602 377.1 78.04L377.08 78.09Z" fill="#231F20"/>
<path d="M388.79 79.85C388.327 79.8563 387.868 79.7526 387.453 79.5475C387.038 79.3424 386.677 79.0417 386.4 78.67V82.6H384.4V71.93H386.4V72.93C386.672 72.5516 387.031 72.2448 387.447 72.0358C387.863 71.8268 388.324 71.7219 388.79 71.73C389.256 71.716 389.719 71.8057 390.146 71.9924C390.573 72.1792 390.954 72.4584 391.26 72.81C391.877 73.6772 392.209 74.7154 392.209 75.78C392.209 76.8446 391.877 77.8828 391.26 78.75C390.957 79.1063 390.577 79.3901 390.15 79.5805C389.722 79.7708 389.258 79.8629 388.79 79.85ZM388.15 78.04C388.418 78.0504 388.685 78 388.931 77.8926C389.177 77.7853 389.395 77.6237 389.57 77.42C389.92 76.9505 390.109 76.3806 390.109 75.795C390.109 75.2095 389.92 74.6396 389.57 74.17C389.394 73.968 389.175 73.8076 388.93 73.7004C388.684 73.5932 388.418 73.5418 388.15 73.55C387.801 73.5522 387.458 73.6379 387.15 73.8C386.847 73.9371 386.587 74.1551 386.4 74.43V77.15C386.602 77.4146 386.862 77.63 387.16 77.78C387.448 77.9396 387.77 78.0287 388.1 78.04H388.15Z" fill="#231F20"/>
<path d="M406.88 79.66H404.88V74.78C404.88 73.96 404.5 73.55 403.73 73.55C403.403 73.5487 403.084 73.6425 402.81 73.82C402.548 73.9839 402.317 74.194 402.13 74.44V79.66H400.08V74.78C400.08 73.96 399.7 73.55 398.93 73.55C398.612 73.5603 398.3 73.6464 398.022 73.8012C397.744 73.956 397.506 74.175 397.33 74.44V79.66H395.33V71.93H397.33V72.93C397.604 72.5964 397.944 72.3239 398.33 72.13C398.777 71.8803 399.278 71.7431 399.79 71.73C400.253 71.6762 400.72 71.7856 401.11 72.0394C401.501 72.2931 401.791 72.6754 401.93 73.12C402.21 72.7024 402.587 72.3592 403.03 72.12C403.502 71.84 404.041 71.6947 404.59 71.7C405.204 71.666 405.807 71.8742 406.27 72.28C406.48 72.5195 406.641 72.7985 406.742 73.1006C406.843 73.4028 406.883 73.7222 406.86 74.04L406.88 79.66Z" fill="#231F20"/>
<path d="M414.13 79.85C413.58 79.8753 413.031 79.7891 412.515 79.5966C412 79.4041 411.528 79.1094 411.13 78.73C410.739 78.3497 410.433 77.8913 410.232 77.3847C410.03 76.8781 409.937 76.3348 409.96 75.79C409.95 75.26 410.046 74.7333 410.242 74.2406C410.437 73.7479 410.729 73.299 411.1 72.92C411.466 72.5327 411.911 72.2274 412.404 72.024C412.896 71.8207 413.427 71.7239 413.96 71.74C414.484 71.72 415.007 71.8153 415.491 72.0192C415.975 72.223 416.408 72.5306 416.76 72.92C417.496 73.7651 417.879 74.8606 417.83 75.98V76.46H412.09C412.146 76.9593 412.398 77.4159 412.79 77.73C413.224 78.0728 413.767 78.2468 414.32 78.22C414.698 78.2141 415.073 78.1466 415.43 78.02C415.78 77.9077 416.101 77.7199 416.37 77.47L417.28 78.81C416.401 79.5452 415.274 79.9171 414.13 79.85ZM415.92 75.05C415.881 74.615 415.69 74.2076 415.38 73.9C414.997 73.5803 414.514 73.4052 414.015 73.4052C413.516 73.4052 413.033 73.5803 412.65 73.9C412.338 74.2102 412.146 74.6214 412.11 75.06L415.92 75.05Z" fill="#231F20"/>
<path d="M428.21 79.66H426.16V74.99C426.19 74.7958 426.174 74.5972 426.113 74.4103C426.053 74.2233 425.95 74.053 425.812 73.9131C425.674 73.7732 425.505 73.6675 425.319 73.6044C425.133 73.5414 424.934 73.5227 424.74 73.55C424.397 73.548 424.058 73.6276 423.752 73.7824C423.446 73.9372 423.181 74.1626 422.98 74.44V79.66H420.98V71.93H422.98V72.93C423.289 72.5731 423.671 72.2866 424.1 72.09C424.594 71.858 425.134 71.7417 425.68 71.75C426.023 71.7256 426.368 71.7716 426.693 71.8851C427.018 71.9986 427.316 72.1772 427.57 72.41C427.79 72.6531 427.959 72.9373 428.069 73.2462C428.179 73.5551 428.227 73.8826 428.21 74.21V79.66Z" fill="#231F20"/>
<path d="M434.4 79.85C434.108 79.8941 433.809 79.8699 433.528 79.7793C433.247 79.6886 432.991 79.534 432.78 79.3276C432.568 79.1212 432.408 78.8686 432.311 78.5896C432.213 78.3107 432.182 78.013 432.22 77.72V73.72H430.94V71.93H432.22V69.82H434.22V71.93H435.79V73.73H434.23V77.2C434.22 77.4209 434.283 77.6389 434.41 77.82C434.471 77.8989 434.55 77.9619 434.64 78.0037C434.731 78.0454 434.83 78.0647 434.93 78.06C435.057 78.0739 435.185 78.0596 435.306 78.0181C435.427 77.9767 435.538 77.909 435.63 77.82L436.07 79.38C435.586 79.7294 434.994 79.8959 434.4 79.85Z" fill="#231F20"/>
<path d="M404.46 15.35L396.45 3.39L387.28 15.35H393.55V52.41H355.78V57.05H398.18V15.35H404.46Z" fill="#231F20"/>
<path d="M389.93 18.01H380.97V49.33H389.93V18.01Z" fill="#444446"/>
<path d="M364.74 35.49H355.78V49.32H364.74V35.49Z" fill="#C7C8CA"/>
<path d="M364.73 35.49H360.25V49.32H364.73V35.49Z" fill="#E6E7E7"/>
<path d="M377.33 26.64H368.37V49.33H377.33V26.64Z" fill="#498AC9"/>
<g style="mix-blend-mode:multiply" opacity="0.33">
<g style="mix-blend-mode:multiply" opacity="0.33">
<path d="M377.33 26.64H372.85V49.33H377.33V26.64Z" fill="#498AC9"/>
</g>
</g>
<path d="M389.93 18.01H385.45V49.33H389.93V18.01Z" fill="#818285"/>
<defs>
<linearGradient id="paint0_linear_232_4325" x1="247.74" y1="57.21" x2="247.74" y2="0.11" gradientUnits="userSpaceOnUse">
<stop stop-color="#498AC9"/>
<stop offset="0.28" stop-color="#4888C6"/>
<stop offset="0.47" stop-color="#4482BD"/>
<stop offset="0.64" stop-color="#3D76AE"/>
<stop offset="0.78" stop-color="#336799"/>
<stop offset="0.92" stop-color="#27537E"/>
<stop offset="1" stop-color="#1E4469"/>
</linearGradient>
<linearGradient id="paint1_linear_232_4325" x1="408.6" y1="118.98" x2="437.16" y2="147.54" gradientUnits="userSpaceOnUse">
<stop stop-color="#1E4469"/>
<stop offset="1" stop-color="#498AC9"/>
</linearGradient>
<linearGradient id="paint2_linear_232_4325" x1="409.16" y1="171.21" x2="409.16" y2="128.31" gradientUnits="userSpaceOnUse">
<stop stop-color="#9FA3AA"/>
<stop offset="0.39" stop-color="#BABDC1"/>
<stop offset="0.74" stop-color="#CBCDCF"/>
<stop offset="1" stop-color="#D1D3D4"/>
</linearGradient>
<linearGradient id="paint3_linear_232_4325" x1="410.27" y1="152.55" x2="442.54" y2="152.55" gradientUnits="userSpaceOnUse">
<stop stop-color="#393839"/>
<stop offset="0.02" stop-color="#3A393A"/>
<stop offset="0.6" stop-color="#4B4B4D"/>
<stop offset="1" stop-color="#515254"/>
</linearGradient>
<linearGradient id="paint4_linear_232_4325" x1="289.07" y1="175.32" x2="289.07" y2="124.73" gradientUnits="userSpaceOnUse">
<stop stop-color="#1E4469"/>
<stop offset="1" stop-color="#498AC9"/>
</linearGradient>
<linearGradient id="paint5_linear_232_4325" x1="289.09" y1="163.77" x2="289.09" y2="130.38" gradientUnits="userSpaceOnUse">
<stop stop-color="#393839"/>
<stop offset="0.02" stop-color="#3A393A"/>
<stop offset="0.6" stop-color="#4B4B4D"/>
<stop offset="1" stop-color="#515254"/>
</linearGradient>
<linearGradient id="paint6_linear_232_4325" x1="289.07" y1="173.05" x2="289.07" y2="170.64" gradientUnits="userSpaceOnUse">
<stop stop-color="#D1D3D4"/>
<stop offset="0.26" stop-color="#CBCDCF"/>
<stop offset="0.61" stop-color="#BABDC1"/>
<stop offset="1" stop-color="#9FA3AA"/>
</linearGradient>
<linearGradient id="paint7_linear_232_4325" x1="283.26" y1="167.26" x2="294.92" y2="167.26" gradientUnits="userSpaceOnUse">
<stop stop-color="#D1D3D4"/>
<stop offset="0.26" stop-color="#CBCDCF"/>
<stop offset="0.61" stop-color="#BABDC1"/>
<stop offset="1" stop-color="#9FA3AA"/>
</linearGradient>
</defs>
</svg>
