<svg width="626" height="364" viewBox="0 0 626 364" fill="none" xmlns="http://www.w3.org/2000/svg">
<g style="mix-blend-mode:multiply">
<path style="mix-blend-mode:multiply" d="M451.844 242.249H416.736L398.977 211.508L416.531 181.135L417.745 181.83L400.586 211.508L417.54 240.845H451.844V242.249Z" fill="url(#paint0_linear_357_5106)"/>
<path style="mix-blend-mode:multiply" d="M504.18 272.281H468.716L450.984 241.54L468.716 210.813H504.18L521.911 241.54L504.18 272.281ZM469.48 270.919H503.375L520.37 241.54L503.416 212.216H469.48L452.526 241.54L469.48 270.919Z" fill="url(#paint1_linear_357_5106)"/>
<path style="mix-blend-mode:multiply" d="M504.388 271.262L503.184 271.957L520.54 301.99L521.745 301.295L504.388 271.262Z" fill="url(#paint2_linear_357_5106)"/>
<path style="mix-blend-mode:multiply" d="M556.393 301.959L555.179 301.264L572.338 271.573L554.961 241.54L556.175 240.845L573.948 271.573L556.393 301.959Z" fill="url(#paint3_linear_357_5106)"/>
<path style="mix-blend-mode:multiply" d="M572.519 211.15L554.969 241.543L556.186 242.245L573.736 211.852L572.519 211.15Z" fill="url(#paint4_linear_357_5106)"/>
<path style="mix-blend-mode:multiply" d="M610.49 270.878H573.145V272.281H610.49V270.878Z" fill="url(#paint5_linear_357_5106)"/>
<path style="mix-blend-mode:multiply" d="M393.167 143.949L410.135 173.327L393.167 202.705H359.204L342.223 173.327L359.204 143.949H393.167ZM394.04 142.436H358.331L340.477 173.327L358.331 204.218H394.04L411.895 173.327L394.04 142.436Z" fill="url(#paint6_linear_357_5106)"/>
<path style="mix-blend-mode:multiply" d="M471.825 211.426C471.828 211.877 471.697 212.318 471.448 212.694C471.199 213.07 470.845 213.364 470.429 213.538C470.013 213.712 469.554 213.759 469.111 213.673C468.669 213.587 468.261 213.371 467.942 213.054C467.622 212.736 467.403 212.33 467.314 211.889C467.225 211.447 467.27 210.989 467.442 210.572C467.614 210.155 467.906 209.799 468.28 209.549C468.655 209.298 469.096 209.164 469.547 209.164C470.149 209.164 470.726 209.402 471.153 209.826C471.58 210.25 471.822 210.825 471.825 211.426Z" fill="url(#paint7_linear_357_5106)"/>
<path style="mix-blend-mode:multiply" d="M575.407 211.426C575.41 211.877 575.278 212.319 575.029 212.695C574.78 213.072 574.424 213.366 574.007 213.539C573.591 213.713 573.131 213.76 572.688 213.672C572.245 213.585 571.838 213.368 571.519 213.049C571.199 212.73 570.982 212.323 570.895 211.88C570.807 211.438 570.853 210.979 571.028 210.563C571.202 210.146 571.496 209.791 571.872 209.542C572.249 209.293 572.691 209.161 573.143 209.164C573.744 209.164 574.319 209.402 574.744 209.827C575.169 210.251 575.407 210.826 575.407 211.426Z" fill="url(#paint8_linear_357_5106)"/>
<path style="mix-blend-mode:multiply" d="M523.411 302.436C523.411 302.886 523.278 303.326 523.027 303.701C522.777 304.075 522.421 304.366 522.005 304.539C521.589 304.711 521.131 304.756 520.689 304.668C520.247 304.58 519.841 304.364 519.523 304.045C519.204 303.727 518.987 303.322 518.899 302.88C518.811 302.439 518.856 301.981 519.029 301.565C519.201 301.15 519.493 300.794 519.868 300.544C520.242 300.294 520.683 300.161 521.133 300.161C521.737 300.161 522.317 300.4 522.744 300.827C523.171 301.254 523.411 301.833 523.411 302.436Z" fill="url(#paint9_linear_357_5106)"/>
<path style="mix-blend-mode:multiply" d="M471.349 271.586C471.349 272.036 471.215 272.476 470.965 272.851C470.715 273.225 470.359 273.517 469.943 273.689C469.526 273.861 469.068 273.906 468.626 273.818C468.185 273.73 467.779 273.514 467.46 273.195C467.142 272.877 466.925 272.472 466.837 272.03C466.749 271.589 466.794 271.131 466.966 270.716C467.139 270.3 467.431 269.944 467.805 269.694C468.18 269.444 468.62 269.311 469.071 269.311C469.675 269.311 470.254 269.551 470.682 269.977C471.109 270.404 471.349 270.983 471.349 271.586Z" fill="url(#paint10_linear_357_5106)"/>
<path style="mix-blend-mode:multiply" d="M610.489 271.586C610.489 272.036 610.356 272.476 610.105 272.851C609.855 273.225 609.499 273.517 609.083 273.689C608.667 273.861 608.209 273.906 607.767 273.818C607.325 273.73 606.919 273.514 606.601 273.195C606.282 272.877 606.065 272.472 605.977 272.03C605.889 271.589 605.935 271.131 606.107 270.716C606.279 270.3 606.571 269.944 606.946 269.694C607.321 269.444 607.761 269.311 608.211 269.311C608.816 269.311 609.395 269.551 609.822 269.977C610.249 270.404 610.489 270.983 610.489 271.586Z" fill="url(#paint11_linear_357_5106)"/>
<path style="mix-blend-mode:multiply" d="M575.407 271.586C575.407 272.037 575.273 272.477 575.022 272.852C574.771 273.226 574.415 273.518 573.998 273.69C573.581 273.862 573.122 273.906 572.68 273.817C572.238 273.728 571.832 273.51 571.514 273.19C571.196 272.871 570.98 272.464 570.894 272.022C570.807 271.579 570.854 271.121 571.029 270.706C571.203 270.29 571.497 269.936 571.874 269.687C572.25 269.439 572.692 269.308 573.143 269.311C573.442 269.311 573.737 269.37 574.013 269.484C574.288 269.599 574.538 269.766 574.749 269.978C574.959 270.189 575.126 270.44 575.239 270.716C575.352 270.992 575.409 271.288 575.407 271.586Z" fill="url(#paint12_linear_357_5106)"/>
<path style="mix-blend-mode:multiply" d="M402.099 211.426C402.101 211.877 401.97 212.318 401.721 212.694C401.473 213.07 401.118 213.364 400.702 213.538C400.286 213.712 399.828 213.759 399.385 213.673C398.942 213.587 398.535 213.371 398.215 213.054C397.895 212.736 397.677 212.33 397.588 211.889C397.499 211.447 397.543 210.989 397.715 210.572C397.887 210.155 398.179 209.799 398.554 209.549C398.929 209.298 399.37 209.164 399.821 209.164C400.423 209.164 401 209.402 401.427 209.826C401.853 210.25 402.095 210.825 402.099 211.426Z" fill="url(#paint13_linear_357_5106)"/>
<path style="mix-blend-mode:multiply" d="M419.833 181.571C419.833 182.021 419.699 182.461 419.449 182.835C419.199 183.209 418.843 183.501 418.427 183.673C418.011 183.845 417.553 183.89 417.111 183.803C416.669 183.715 416.263 183.498 415.944 183.18C415.626 182.862 415.409 182.456 415.321 182.015C415.233 181.573 415.278 181.116 415.451 180.7C415.623 180.284 415.915 179.929 416.29 179.679C416.664 179.429 417.105 179.295 417.555 179.295C417.854 179.295 418.151 179.354 418.427 179.468C418.703 179.583 418.954 179.75 419.166 179.962C419.377 180.173 419.545 180.424 419.66 180.7C419.774 180.976 419.833 181.272 419.833 181.571Z" fill="url(#paint14_linear_357_5106)"/>
<path style="mix-blend-mode:multiply" d="M153.8 114.216L151.072 112.649L151.549 111.831L154.277 113.398L153.8 114.216ZM149.571 111.777L146.844 110.21L147.307 109.392L150.035 110.946L149.571 111.777ZM145.275 109.338L142.547 107.771L143.024 106.953L145.752 108.506L145.275 109.338ZM141.047 106.885L138.319 105.332L138.796 104.5L141.524 106.067L141.047 106.885ZM136.818 104.446L134.09 102.892L134.568 102.061L137.296 103.628L136.818 104.446ZM132.576 102.007L129.848 100.44L130.326 99.6221L133.054 101.176L132.576 102.007ZM128.348 99.5676L125.62 98.0006L126.097 97.183L128.825 98.7364L128.348 99.5676ZM124.12 97.1149L121.392 95.5615L121.869 94.7439L124.597 96.2973L124.12 97.1149ZM119.878 94.6758L117.15 93.1224L117.627 92.3048L120.355 93.8582L119.878 94.6758ZM115.649 92.2367L112.921 90.6833L113.385 89.8521L116.113 91.4191L115.649 92.2367ZM111.407 89.7976L108.679 88.2305L109.157 87.4129L111.885 88.98L111.407 89.7976ZM107.233 87.3448L104.505 85.7778L104.983 84.9602L107.711 86.5136L107.233 87.3448ZM103.005 84.8921L100.277 83.3387L100.755 82.5211L103.483 84.0745L103.005 84.8921ZM98.7631 82.453L96.0352 80.8996L96.5125 80.0684L99.2405 81.6354L98.7631 82.453Z" fill="url(#paint15_linear_357_5106)"/>
<path style="mix-blend-mode:multiply" d="M162.681 190.823L162.203 190.005L164.931 188.438L165.408 189.256L162.681 190.823ZM166.909 188.37L166.431 187.553L169.159 185.986L169.637 186.803L166.909 188.37ZM171.137 185.918L170.66 185.1L173.388 183.533L173.865 184.351L171.137 185.918ZM175.366 183.465L174.888 182.647L177.616 181.08L178.094 181.911L175.366 183.465ZM179.594 181.026L179.117 180.195L181.844 178.627L182.322 179.459L179.594 181.026ZM183.822 178.573L183.345 177.742L186.073 176.188L186.55 177.006L183.822 178.573ZM188.051 176.12L187.573 175.303L190.301 173.736L190.779 174.553L188.051 176.12ZM192.279 173.668L191.802 172.85L194.53 171.283L195.007 172.1L192.279 173.668ZM196.507 171.215L196.03 170.397L198.758 168.83L199.235 169.648L196.507 171.215ZM200.736 168.762L200.258 167.944L202.986 166.377L203.464 167.195L200.736 168.762ZM204.964 166.323L204.487 165.492L207.215 163.925L207.692 164.756L204.964 166.323ZM209.192 163.87L208.715 163.039L211.443 161.472L211.92 162.303L209.192 163.87ZM213.421 161.417L212.943 160.586L215.671 159.033L216.149 159.85L213.421 161.417ZM217.649 158.965L217.172 158.147L219.9 156.58L220.377 157.398L217.649 158.965Z" fill="url(#paint16_linear_357_5106)"/>
<path style="mix-blend-mode:multiply" d="M5.16906 114.338L4.80078 113.466L7.66515 112.267L8.03342 113.139L5.16906 114.338ZM9.64292 112.472L9.28828 111.6L12.139 110.4L12.5073 111.272L9.64292 112.472ZM14.1304 110.605L13.7621 109.733L16.6265 108.534L16.9812 109.406L14.1304 110.605ZM18.6043 108.724L18.236 107.866L21.1004 106.667L21.4687 107.539L18.6043 108.724ZM23.0782 106.858L22.7099 105.999L25.5742 104.8L25.9425 105.672L23.0782 106.858ZM27.552 105.059L27.1974 104.2L30.0481 103.001L30.4164 103.873L27.552 105.059ZM32.0668 103.124L31.6985 102.252L34.5629 101.066L34.9175 101.938L32.0668 103.124ZM36.5407 101.257L36.1724 100.385L39.0368 99.1996L39.405 100.072L36.5407 101.257ZM41.0145 99.3903L40.6599 98.5182L43.5106 97.3328L43.8789 98.2048L41.0145 99.3903ZM45.4884 97.5235L45.1338 96.6514L47.9981 95.466L48.3528 96.338L45.4884 97.5235ZM49.9759 95.6567L49.6076 94.7846L52.472 93.5991L52.8266 94.4712L49.9759 95.6567ZM54.4498 93.7899L54.0815 92.9178L56.9459 91.7323L57.3141 92.5908L54.4498 93.7899ZM58.9236 91.9231L58.569 91.051L61.4197 89.8655L61.788 90.724L58.9236 91.9231ZM63.4384 90.0699L63.0701 89.1978L65.9345 88.0124L66.2891 88.8708L63.4384 90.0699ZM67.9123 88.2031L67.5304 87.3447L70.3947 86.1455L70.763 87.0176L67.9123 88.2031ZM72.3861 86.3363L72.0179 85.4642L74.8822 84.2651L75.2505 85.1372L72.3861 86.3363ZM76.86 84.4695L76.5054 83.5974L79.3561 82.3983L79.7244 83.2704L76.86 84.4695ZM81.3475 82.6027L80.9792 81.7306L83.8436 80.5315L84.1982 81.4036L81.3475 82.6027ZM85.8214 80.7359L85.4531 79.8638L88.3175 78.6647L88.6857 79.5368L85.8214 80.7359ZM220.856 77.5746L218.128 75.9531L218.619 75.1218L221.347 76.757L220.856 77.5746ZM95.7239 75.9394L95.2465 75.0946L97.9745 73.5276L98.4519 74.3724L95.7239 75.9394ZM216.586 75.0265L213.858 73.3913L214.35 72.5601L217.077 74.1953L216.586 75.0265ZM100.061 73.4731L99.584 72.6282L102.312 71.0612L102.789 71.906L100.061 73.4731ZM212.317 72.4783L209.589 70.8432L210.08 70.012L212.808 71.6471L212.317 72.4783ZM104.358 70.9931L103.881 70.1482L106.608 68.5812L107.086 69.426L104.358 70.9931ZM208.021 69.8893L205.293 68.2542L205.784 67.4366L208.512 69.0581L208.021 69.8893ZM108.709 68.5267L108.232 67.6819L110.96 66.1148L111.437 66.9597L108.709 68.5267ZM203.751 67.3412L201.023 65.7061L201.514 64.8749L204.242 66.51L203.751 67.3412ZM113.046 66.074L112.569 65.2291L115.297 63.6621L115.774 64.5069L113.046 66.074ZM199.482 64.7113L196.754 63.0898L197.245 62.2586L199.973 63.8801L199.482 64.7113ZM117.384 63.5395L116.907 62.7083L119.635 61.1276L120.112 61.9724L117.384 63.5395ZM195.213 62.1768L192.485 60.5417L192.976 59.7105L195.704 61.3456L195.213 62.1768ZM121.721 61.1004L121.244 60.2555L123.972 58.6885L124.449 59.5333L121.721 61.1004ZM190.944 59.6287L188.216 57.9936L188.707 57.1624L191.435 58.7975L190.944 59.6287ZM126.086 58.7294L125.609 57.8982L128.337 56.3175L128.814 57.1624L126.086 58.7294ZM186.702 57.1624L183.974 55.5272L184.465 54.7096L187.193 56.3311L186.702 57.1624ZM130.424 56.2766L129.946 55.4318L132.674 53.8648L133.165 54.7096L130.424 56.2766ZM182.432 54.6415L179.704 53.0063L180.195 52.1751L182.923 53.8103L182.432 54.6415ZM134.761 53.8375L134.284 53.0063L137.012 51.4257L137.503 52.2705L134.761 53.8375ZM178.163 52.0797L175.435 50.4446L175.926 49.627L178.654 51.2485L178.163 52.0797ZM139.099 51.3848L138.621 50.54L141.349 48.9729L141.84 49.8178L139.099 51.3848ZM173.921 49.4771L171.193 47.8283L171.684 46.9971L174.412 48.6323L173.921 49.4771ZM143.463 48.8775L142.986 48.0327L145.714 46.4521L146.191 47.2969L143.463 48.8775ZM169.652 46.9154L166.924 45.2938L167.415 44.4626L170.143 46.0978L169.652 46.9154ZM147.828 46.4112L147.351 45.5663L150.079 43.9993L150.556 44.8442L147.828 46.4112ZM165.41 44.3672L162.682 42.7321L163.173 41.9009L165.901 43.536L165.41 44.3672ZM152.179 43.9585L151.688 43.1136L154.416 41.533L154.893 42.3778L152.179 43.9585Z" fill="url(#paint17_linear_357_5106)"/>
<path style="mix-blend-mode:multiply" d="M290.227 38.658V40.77H291.018L291.782 41.5467L292.436 40.9063L290.227 38.658ZM293.637 42.1054L292.982 42.7595L295.11 44.8988L295.751 44.2584L293.637 42.1054ZM291.154 42.4733H290.227V45.4847H291.222V42.4733H291.154ZM296.951 45.4711L296.296 46.1116L298.424 48.2509L299.065 47.6105L296.951 45.4711ZM291.222 47.188H290.295V50.1995H291.222V47.188ZM300.334 48.8232L299.679 49.4636L301.807 51.6166L302.461 50.9625L300.334 48.8232ZM291.222 51.9164H290.295V54.9142H291.222V51.9164ZM303.648 52.1889L302.993 52.843L305.121 54.9823L305.776 54.3419L303.648 52.1889ZM306.963 55.5546L306.308 56.195L308.436 58.3344L309.09 57.6939L306.963 55.5546ZM291.222 56.6175H290.295V59.6289H291.222V56.6175ZM310.318 58.8931L309.663 59.5335L311.682 61.6864L312.337 61.0324L310.209 58.8931H310.318ZM291.222 61.3322H290.295V64.3436H291.222V61.3322ZM313.592 62.2451L312.937 62.8992L315.065 65.0385L315.719 64.3981L313.592 62.2451ZM316.906 65.6108L316.251 66.2513L318.379 68.3906L319.034 67.7502L316.906 65.6108ZM291.222 66.0469H290.295V69.0583H291.222V66.0469ZM320.221 68.9629L319.579 69.6033L321.694 71.7563L322.348 71.1159L320.221 68.9629ZM291.222 70.7616H290.295V73.7185H291.222V70.7071V70.7616ZM323.467 72.3559L322.826 72.9963L324.94 75.1356L325.595 74.4952L323.467 72.3559ZM291.222 75.4763H290.295V78.4877H291.222V75.4763ZM326.849 75.6807L326.208 76.3211L328.323 78.4605L328.977 77.82L326.849 75.6807ZM330.164 79.0328L329.523 79.6732L331.637 81.8261L332.292 81.1857L330.164 79.0328ZM291.222 80.191H290.295V83.2569H291.222V80.2455V80.191ZM333.506 82.3848L332.851 83.0389L334.965 85.1782L335.62 84.5378L333.506 82.3848ZM291.222 84.9057H290.295V87.9171H291.222V84.9057ZM336.807 85.7505L336.152 86.391L338.266 88.5303L338.921 87.8899L336.807 85.7505ZM340.121 89.1026L339.466 89.743L341.581 91.896L342.235 91.2556L340.121 89.1026ZM291.222 89.6204H290.295V92.6318H291.222V89.6204ZM343.436 92.4547L342.781 93.1088L344.895 95.2481L345.55 94.6076L343.436 92.4547ZM291.222 94.3351H290.295V97.3465H291.222V94.3351ZM346.75 95.8204L346.095 96.4608L348.209 98.6002L348.864 97.9597L346.75 95.8204ZM291.222 99.0498H290.295V102.061H291.222V99.0498ZM350.064 99.1725L349.41 99.8129L351.524 101.966L352.179 101.312L350.064 99.1725ZM353.379 102.525L352.724 103.179L354.838 105.318L355.493 104.677L353.379 102.525ZM291.222 103.765H290.295V106.776H291.222V103.765ZM356.693 105.89L356.039 106.531L358.153 108.67L358.808 108.03L356.693 105.89ZM291.222 108.479H290.295V111.491H291.222V108.479ZM360.008 109.242L359.353 109.883L361.467 112.036L362.122 111.382L360.008 109.242ZM363.322 112.594L362.668 113.248L363.35 113.943L364.004 113.303L363.322 112.594Z" fill="url(#paint18_linear_357_5106)"/>
<path style="mix-blend-mode:multiply" d="M67.2289 40.7156H64.1054V39.7617H67.2289V40.7156ZM62.3459 40.7156H59.2223V39.7617H62.3459V40.7156ZM57.4492 40.7156H54.3256V39.7617H57.4492V40.7156ZM52.5661 40.7156H49.4426V39.7617H52.5252L52.5661 40.7156ZM47.6694 40.7156H44.5459V39.7617H47.6694V40.7156ZM42.7863 40.7156H39.6628V39.7617H42.7863V40.7156ZM37.9033 40.7156H34.7934V39.7617H37.9169L37.9033 40.7156ZM33.0066 40.7156H29.8831V39.7617H33.0066V40.7156ZM28.1235 40.7156H25V39.7617H28.1235V40.7156Z" fill="url(#paint19_linear_357_5106)"/>
<path style="mix-blend-mode:multiply" d="M94.8094 151.879L94.332 151.021L97.1418 149.454L97.6329 150.312L94.8094 151.879ZM99.2151 149.426L98.7377 148.568L101.561 146.987L102.039 147.846L99.2151 149.426ZM103.634 146.96L103.143 146.102L105.912 144.575L106.39 145.434L103.634 146.96ZM108.04 144.494L107.563 143.635L110.372 142.068L110.85 142.927L108.04 144.494ZM112.446 142.041L111.968 141.182L114.778 139.602L115.256 140.46L112.446 142.041ZM116.851 139.575L116.374 138.716L119.197 137.149L119.675 138.007L116.851 139.575ZM121.257 137.108L120.78 136.263L123.603 134.683L124.08 135.541L121.257 137.108ZM125.676 134.655L125.199 133.797L128.009 132.23L128.486 133.075L125.676 134.655ZM130.082 132.189L129.605 131.331L132.414 129.764L132.892 130.622L130.082 132.189ZM134.488 129.736L134.01 128.878L136.834 127.297L137.311 128.156L134.488 129.736ZM138.893 127.27L138.416 126.411L141.239 124.844L141.717 125.703L138.893 127.27ZM143.313 124.804L142.835 123.959L145.645 122.378L146.122 123.237L143.313 124.804ZM147.718 122.351L147.241 121.492L150.051 119.925L150.528 120.77L147.718 122.351ZM152.124 119.884L151.647 119.026L154.47 117.459L154.947 118.317L152.124 119.884Z" fill="url(#paint20_linear_357_5106)"/>
<path style="mix-blend-mode:multiply" d="M136.272 78.7329H91.6835L69.1914 39.8161L91.4789 1.23999L92.6656 1.92131L70.76 39.8161L92.461 77.3839H136.272V78.7329Z" fill="url(#paint21_linear_357_5106)"/>
<path style="mix-blend-mode:multiply" d="M157.761 192.449L135.711 230.711L136.881 231.384L158.931 193.122L157.761 192.449Z" fill="url(#paint22_linear_357_5106)"/>
<path style="mix-blend-mode:multiply" d="M202.797 116.982H157.785L135.32 78.0515L157.812 39.1348H202.824L225.316 78.0515L202.797 116.982ZM158.604 115.619H202.005L223.72 78.0515L202.005 40.4974H158.604L136.889 78.0515L158.604 115.619Z" fill="url(#paint23_linear_357_5106)"/>
<path style="mix-blend-mode:multiply" d="M202.795 193.453H157.811L135.523 154.877L136.696 154.195L158.602 192.09H202.018L223.719 154.536L201.827 116.641L203 115.96L225.287 154.536L202.795 193.453Z" fill="url(#paint24_linear_357_5106)"/>
<path style="mix-blend-mode:multiply" d="M136.668 155.218H91.6835L69.1914 116.301L91.6835 77.384H136.272V78.733H92.461L70.76 116.301L92.461 153.855H135.877L157.782 115.96L158.955 116.641L136.668 155.218Z" fill="url(#paint25_linear_357_5106)"/>
<path style="mix-blend-mode:multiply" d="M269.207 154.877L268.021 154.196L289.926 116.301L268.225 78.733H224.414V77.384H269.003L291.495 116.301L269.207 154.877Z" fill="url(#paint26_linear_357_5106)"/>
<path style="mix-blend-mode:multiply" d="M290.11 39.4652L268.027 77.7073L269.209 78.3882L291.292 40.1461L290.11 39.4652Z" fill="url(#paint27_linear_357_5106)"/>
<path style="mix-blend-mode:multiply" d="M366.242 115.619H290.719V116.982H366.242V115.619Z" fill="url(#paint28_linear_357_5106)"/>
<path style="mix-blend-mode:multiply" d="M69.9697 115.619H2.20703V116.982H69.9697V115.619Z" fill="url(#paint29_linear_357_5106)"/>
<path style="mix-blend-mode:multiply" d="M138.454 154.536C138.454 154.973 138.325 155.401 138.081 155.764C137.838 156.127 137.492 156.41 137.087 156.577C136.683 156.744 136.238 156.786 135.809 156.7C135.38 156.614 134.986 156.402 134.678 156.092C134.369 155.782 134.16 155.387 134.076 154.958C133.992 154.529 134.038 154.085 134.207 153.682C134.377 153.279 134.662 152.935 135.027 152.694C135.392 152.453 135.821 152.326 136.258 152.329C136.842 152.332 137.401 152.566 137.812 152.98C138.224 153.394 138.454 153.953 138.454 154.536Z" fill="url(#paint30_linear_357_5106)"/>
<path style="mix-blend-mode:multiply" d="M94.2748 154.536C94.2748 154.973 94.1448 155.401 93.9014 155.764C93.658 156.127 93.3121 156.41 92.9075 156.577C92.503 156.744 92.058 156.786 91.629 156.7C91.2 156.614 90.8063 156.402 90.4978 156.092C90.1894 155.782 89.98 155.387 89.8963 154.958C89.8126 154.529 89.8583 154.085 90.0276 153.682C90.1969 153.279 90.4823 152.935 90.8475 152.694C91.2126 152.453 91.6412 152.326 92.0788 152.329C92.6613 152.336 93.2178 152.571 93.6285 152.984C94.0392 153.397 94.2712 153.954 94.2748 154.536Z" fill="url(#paint31_linear_357_5106)"/>
<path style="mix-blend-mode:multiply" d="M138.454 231.021C138.454 231.458 138.325 231.885 138.081 232.249C137.838 232.612 137.492 232.895 137.087 233.061C136.683 233.228 136.238 233.271 135.809 233.185C135.38 233.098 134.986 232.887 134.678 232.577C134.369 232.267 134.16 231.872 134.076 231.443C133.992 231.014 134.038 230.57 134.207 230.166C134.377 229.763 134.662 229.42 135.027 229.179C135.392 228.938 135.821 228.811 136.258 228.813C136.548 228.813 136.835 228.87 137.102 228.982C137.369 229.093 137.612 229.255 137.816 229.461C138.02 229.666 138.182 229.909 138.291 230.177C138.401 230.445 138.456 230.731 138.454 231.021Z" fill="url(#paint32_linear_357_5106)"/>
<path style="mix-blend-mode:multiply" d="M160.568 116.301C160.568 116.738 160.438 117.165 160.194 117.529C159.951 117.892 159.605 118.175 159.2 118.341C158.796 118.508 158.351 118.551 157.922 118.465C157.493 118.378 157.099 118.167 156.791 117.857C156.482 117.547 156.273 117.152 156.189 116.723C156.106 116.294 156.151 115.85 156.321 115.447C156.49 115.043 156.775 114.7 157.14 114.459C157.506 114.218 157.934 114.091 158.372 114.093C158.955 114.097 159.514 114.331 159.925 114.745C160.337 115.158 160.568 115.718 160.568 116.301Z" fill="url(#paint33_linear_357_5106)"/>
<path style="mix-blend-mode:multiply" d="M160.568 192.772C160.568 193.209 160.438 193.636 160.194 194C159.951 194.363 159.605 194.646 159.2 194.812C158.796 194.979 158.351 195.022 157.922 194.936C157.493 194.849 157.099 194.638 156.791 194.328C156.482 194.018 156.273 193.623 156.189 193.194C156.106 192.765 156.151 192.321 156.321 191.917C156.49 191.514 156.775 191.171 157.14 190.93C157.506 190.689 157.934 190.562 158.372 190.564C158.661 190.564 158.948 190.621 159.215 190.733C159.483 190.844 159.725 191.006 159.929 191.212C160.133 191.417 160.295 191.66 160.405 191.928C160.514 192.196 160.57 192.482 160.568 192.772Z" fill="url(#paint34_linear_357_5106)"/>
<path style="mix-blend-mode:multiply" d="M204.962 116.301C204.962 116.737 204.833 117.164 204.59 117.527C204.347 117.89 204.002 118.173 203.598 118.34C203.194 118.507 202.75 118.551 202.322 118.466C201.893 118.381 201.499 118.17 201.19 117.862C200.881 117.553 200.671 117.16 200.585 116.731C200.5 116.303 200.544 115.859 200.711 115.456C200.878 115.053 201.162 114.708 201.525 114.465C201.888 114.223 202.316 114.093 202.753 114.093C203.339 114.093 203.901 114.326 204.315 114.74C204.729 115.154 204.962 115.715 204.962 116.301Z" fill="url(#paint35_linear_357_5106)"/>
<path style="mix-blend-mode:multiply" d="M204.962 39.8162C204.962 40.2527 204.833 40.6795 204.59 41.0426C204.347 41.4056 204.002 41.6885 203.598 41.8556C203.194 42.0227 202.75 42.0664 202.322 41.9812C201.893 41.896 201.499 41.6858 201.19 41.3771C200.881 41.0683 200.671 40.675 200.585 40.2468C200.5 39.8186 200.544 39.3748 200.711 38.9714C200.878 38.568 201.162 38.2233 201.525 37.9807C201.888 37.7381 202.316 37.6087 202.753 37.6087C203.043 37.6069 203.331 37.6627 203.6 37.773C203.869 37.8833 204.114 38.0459 204.319 38.2512C204.525 38.4565 204.687 38.7006 204.798 38.9692C204.908 39.2379 204.964 39.5258 204.962 39.8162Z" fill="url(#paint36_linear_357_5106)"/>
<path style="mix-blend-mode:multiply" d="M160.415 39.8161C160.415 40.2527 160.286 40.6795 160.043 41.0425C159.8 41.4055 159.455 41.6885 159.051 41.8555C158.648 42.0226 158.203 42.0663 157.775 41.9812C157.346 41.896 156.952 41.6857 156.643 41.377C156.334 41.0683 156.124 40.675 156.039 40.2468C155.953 39.8186 155.997 39.3747 156.164 38.9713C156.332 38.568 156.615 38.2232 156.978 37.9807C157.342 37.7381 157.769 37.6086 158.206 37.6086C158.496 37.6086 158.783 37.6657 159.051 37.7767C159.319 37.8876 159.563 38.0502 159.768 38.2552C159.973 38.4602 160.136 38.7035 160.247 38.9713C160.358 39.2392 160.415 39.5262 160.415 39.8161Z" fill="url(#paint37_linear_357_5106)"/>
<path style="mix-blend-mode:multiply" d="M292.911 116.301C292.911 116.737 292.782 117.164 292.539 117.527C292.296 117.89 291.951 118.173 291.547 118.34C291.144 118.507 290.699 118.551 290.271 118.466C289.842 118.381 289.448 118.17 289.139 117.862C288.83 117.553 288.62 117.16 288.535 116.731C288.449 116.303 288.493 115.859 288.66 115.456C288.828 115.053 289.111 114.708 289.474 114.465C289.838 114.223 290.265 114.093 290.702 114.093C291.288 114.093 291.85 114.326 292.264 114.74C292.679 115.154 292.911 115.715 292.911 116.301Z" fill="url(#paint38_linear_357_5106)"/>
<path style="mix-blend-mode:multiply" d="M368.439 116.301C368.439 116.738 368.309 117.165 368.066 117.529C367.822 117.892 367.476 118.175 367.072 118.341C366.667 118.508 366.222 118.551 365.793 118.465C365.364 118.378 364.97 118.167 364.662 117.857C364.353 117.547 364.144 117.152 364.06 116.723C363.977 116.294 364.022 115.85 364.192 115.447C364.361 115.043 364.646 114.7 365.011 114.459C365.377 114.218 365.805 114.091 366.243 114.093C366.827 114.097 367.385 114.331 367.797 114.745C368.208 115.158 368.439 115.718 368.439 116.301Z" fill="url(#paint39_linear_357_5106)"/>
<path style="mix-blend-mode:multiply" d="M72.181 116.301C72.181 116.737 72.0514 117.164 71.8086 117.527C71.5658 117.89 71.2207 118.173 70.817 118.34C70.4132 118.507 69.9689 118.551 69.5403 118.466C69.1117 118.381 68.7179 118.17 68.4089 117.862C68.0999 117.553 67.8894 117.16 67.8042 116.731C67.7189 116.303 67.7627 115.859 67.9299 115.456C68.0972 115.053 68.3804 114.708 68.7438 114.465C69.1071 114.223 69.5343 114.093 69.9714 114.093C70.5563 114.097 71.1163 114.331 71.5299 114.744C71.9435 115.157 72.1775 115.716 72.181 116.301Z" fill="url(#paint40_linear_357_5106)"/>
<path style="mix-blend-mode:multiply" d="M4.40368 116.301C4.40368 116.737 4.27409 117.164 4.03129 117.527C3.78849 117.89 3.44339 118.173 3.03963 118.34C2.63587 118.507 2.19158 118.551 1.76295 118.466C1.33432 118.381 0.940594 118.17 0.631568 117.862C0.322543 117.553 0.112094 117.16 0.0268336 116.731C-0.0584263 116.303 -0.014667 115.859 0.152576 115.456C0.31982 115.053 0.603036 114.708 0.966411 114.465C1.32979 114.223 1.757 114.093 2.19403 114.093C2.78007 114.093 3.3421 114.326 3.75649 114.74C4.17088 115.154 4.40368 115.715 4.40368 116.301Z" fill="url(#paint41_linear_357_5106)"/>
<path style="mix-blend-mode:multiply" d="M138.454 78.0515C138.457 78.4893 138.329 78.9179 138.088 79.283C137.846 79.6481 137.501 79.9332 137.097 80.102C136.692 80.2707 136.247 80.3156 135.817 80.2308C135.387 80.1461 134.992 79.9356 134.682 79.626C134.373 79.3165 134.162 78.9219 134.077 78.4925C133.992 78.063 134.037 77.618 134.206 77.2141C134.375 76.8102 134.66 76.4656 135.026 76.2241C135.391 75.9825 135.82 75.855 136.258 75.8577C136.841 75.8577 137.399 76.0888 137.811 76.5003C138.223 76.9117 138.454 77.4697 138.454 78.0515Z" fill="url(#paint42_linear_357_5106)"/>
<path style="mix-blend-mode:multiply" d="M94.2747 78.0515C94.2774 78.4893 94.1498 78.9179 93.908 79.283C93.6663 79.6481 93.3213 79.9332 92.917 80.102C92.5127 80.2707 92.0673 80.3156 91.6374 80.2308C91.2075 80.1461 90.8125 79.9356 90.5027 79.626C90.1928 79.3165 89.9821 78.9219 89.8973 78.4925C89.8124 78.063 89.8574 77.618 90.0263 77.2141C90.1952 76.8102 90.4805 76.4656 90.846 76.2241C91.2115 75.9825 91.6405 75.855 92.0787 75.8577C92.66 75.8613 93.2165 76.0936 93.6276 76.5042C94.0386 76.9149 94.2712 77.4708 94.2747 78.0515Z" fill="url(#paint43_linear_357_5106)"/>
<path style="mix-blend-mode:multiply" d="M270.763 78.0515C270.766 78.4887 270.638 78.9168 270.397 79.2816C270.156 79.6464 269.812 79.9315 269.408 80.1006C269.005 80.2698 268.56 80.3155 268.131 80.2318C267.701 80.1482 267.306 79.939 266.996 79.6309C266.685 79.3227 266.474 78.9294 266.387 78.5008C266.301 78.0722 266.344 77.6277 266.511 77.2236C266.677 76.8194 266.961 76.4738 267.324 76.2307C267.688 75.9875 268.116 75.8577 268.553 75.8577C269.137 75.8577 269.697 76.0884 270.111 76.4994C270.525 76.9104 270.759 77.4684 270.763 78.0515Z" fill="url(#paint44_linear_357_5106)"/>
<path style="mix-blend-mode:multiply" d="M292.911 39.8162C292.911 40.2527 292.782 40.6795 292.539 41.0426C292.296 41.4056 291.951 41.6885 291.547 41.8556C291.144 42.0227 290.699 42.0664 290.271 41.9812C289.842 41.896 289.448 41.6858 289.139 41.3771C288.83 41.0683 288.62 40.675 288.535 40.2468C288.449 39.8186 288.493 39.3748 288.66 38.9714C288.828 38.568 289.111 38.2233 289.474 37.9807C289.838 37.7381 290.265 37.6087 290.702 37.6087C290.993 37.6069 291.281 37.6627 291.55 37.773C291.818 37.8833 292.063 38.0459 292.268 38.2512C292.474 38.4565 292.637 38.7006 292.747 38.9692C292.857 39.2379 292.913 39.5258 292.911 39.8162Z" fill="url(#paint45_linear_357_5106)"/>
<path style="mix-blend-mode:multiply" d="M226.54 78.0515C226.543 78.4887 226.416 78.9168 226.175 79.2816C225.933 79.6464 225.589 79.9315 225.186 80.1007C224.782 80.2698 224.338 80.3155 223.908 80.2319C223.479 80.1482 223.084 79.9391 222.773 79.6309C222.463 79.3227 222.251 78.9294 222.165 78.5009C222.078 78.0723 222.121 77.6277 222.288 77.2236C222.455 76.8194 222.738 76.4739 223.102 76.2307C223.465 75.9875 223.893 75.8577 224.331 75.8577C224.62 75.8559 224.907 75.9113 225.175 76.0208C225.443 76.1302 225.687 76.2915 225.892 76.4954C226.098 76.6993 226.261 76.9418 226.372 77.2088C226.483 77.4759 226.54 77.7623 226.54 78.0515Z" fill="url(#paint46_linear_357_5106)"/>
<path style="mix-blend-mode:multiply" d="M204.962 192.772C204.962 193.208 204.833 193.635 204.59 193.998C204.347 194.361 204.002 194.644 203.598 194.811C203.194 194.978 202.75 195.022 202.322 194.937C201.893 194.852 201.499 194.641 201.19 194.333C200.881 194.024 200.671 193.631 200.585 193.202C200.5 192.774 200.544 192.33 200.711 191.927C200.878 191.524 201.162 191.179 201.525 190.936C201.888 190.694 202.316 190.564 202.753 190.564C203.043 190.562 203.331 190.618 203.6 190.729C203.869 190.839 204.114 191.001 204.319 191.207C204.525 191.412 204.687 191.656 204.798 191.925C204.908 192.193 204.964 192.481 204.962 192.772Z" fill="url(#paint47_linear_357_5106)"/>
<path style="mix-blend-mode:multiply" d="M226.54 154.536C226.54 154.973 226.411 155.399 226.168 155.762C225.925 156.126 225.58 156.408 225.176 156.576C224.773 156.743 224.328 156.786 223.9 156.701C223.471 156.616 223.077 156.406 222.768 156.097C222.459 155.788 222.249 155.395 222.164 154.967C222.078 154.539 222.122 154.095 222.289 153.691C222.457 153.288 222.74 152.943 223.103 152.701C223.467 152.458 223.894 152.329 224.331 152.329C224.917 152.329 225.479 152.561 225.893 152.975C226.308 153.389 226.54 153.951 226.54 154.536Z" fill="url(#paint48_linear_357_5106)"/>
<path style="mix-blend-mode:multiply" d="M270.763 154.536C270.763 154.973 270.633 155.399 270.391 155.762C270.148 156.126 269.803 156.408 269.399 156.576C268.995 156.743 268.551 156.786 268.122 156.701C267.694 156.616 267.3 156.406 266.991 156.097C266.682 155.788 266.471 155.395 266.386 154.967C266.301 154.539 266.345 154.095 266.512 153.691C266.679 153.288 266.962 152.943 267.326 152.701C267.689 152.458 268.116 152.329 268.553 152.329C269.138 152.332 269.698 152.566 270.112 152.979C270.526 153.392 270.759 153.952 270.763 154.536Z" fill="url(#paint49_linear_357_5106)"/>
<path style="mix-blend-mode:multiply" d="M72.181 39.8161C72.181 40.2527 72.0514 40.6795 71.8086 41.0425C71.5658 41.4055 71.2207 41.6885 70.817 41.8555C70.4132 42.0226 69.9689 42.0663 69.5403 41.9812C69.1117 41.896 68.7179 41.6857 68.4089 41.377C68.0999 41.0683 67.8894 40.675 67.8042 40.2468C67.7189 39.8186 67.7627 39.3747 67.9299 38.9713C68.0972 38.568 68.3804 38.2232 68.7438 37.9807C69.1071 37.7381 69.5343 37.6086 69.9714 37.6086C70.2616 37.6086 70.5489 37.6657 70.817 37.7767C71.0851 37.8876 71.3287 38.0502 71.5338 38.2552C71.739 38.4602 71.9018 38.7035 72.0128 38.9713C72.1239 39.2392 72.181 39.5262 72.181 39.8161Z" fill="url(#paint50_linear_357_5106)"/>
<path style="mix-blend-mode:multiply" d="M94.2748 2.20751C94.2748 2.64468 94.1448 3.07201 93.9014 3.43531C93.658 3.79862 93.3121 4.08154 92.9075 4.24821C92.503 4.41488 92.058 4.45779 91.629 4.3715C91.2 4.28522 90.8063 4.07362 90.4978 3.76354C90.1894 3.45345 89.98 3.05885 89.8963 2.62975C89.8126 2.20065 89.8583 1.75638 90.0276 1.35326C90.1969 0.950145 90.4823 0.606335 90.8475 0.365422C91.2126 0.124509 91.6412 -0.00265653 92.0788 4.20762e-05C92.6613 0.00717282 93.2178 0.242458 93.6285 0.655285C94.0392 1.06811 94.2712 1.62549 94.2748 2.20751Z" fill="url(#paint51_linear_357_5106)"/>
<g style="mix-blend-mode:multiply">
<path d="M179.77 59.7651C179.705 59.7223 179.629 59.6995 179.551 59.6995C179.474 59.6995 179.398 59.7223 179.333 59.7651C179.262 59.7994 179.202 59.8537 179.161 59.9214C179.119 59.9891 179.099 60.0674 179.101 60.1466V63.7576C175.286 63.9747 171.696 65.6302 169.055 68.3896C166.415 71.149 164.921 74.8067 164.875 78.6239C164.875 82.3071 166.257 85.8565 168.749 88.5711C168.827 88.654 168.935 88.7029 169.049 88.7074C169.137 88.7074 169.223 88.6787 169.294 88.6256L172.813 85.9003C172.897 85.8211 172.95 85.715 172.963 85.6006C172.965 85.4842 172.921 85.3718 172.841 85.2871C171.089 83.5281 170.108 81.1462 170.113 78.6648C170.138 76.2353 171.078 73.9045 172.747 72.1367C174.415 70.369 176.689 69.2941 179.115 69.1263V72.7373C179.112 72.8149 179.132 72.8917 179.173 72.9575C179.215 73.0232 179.275 73.0748 179.347 73.1052C179.413 73.1449 179.488 73.1658 179.565 73.1658C179.642 73.1658 179.717 73.1449 179.783 73.1052L183.875 69.8485H183.957L185.526 68.5813L187.981 66.66C188.031 66.6185 188.072 66.5665 188.1 66.5076C188.129 66.4488 188.144 66.3846 188.145 66.3193C188.142 66.2564 188.126 66.1948 188.097 66.1384C188.069 66.0821 188.03 66.0323 187.981 65.9923L179.77 59.7651Z" fill="url(#paint52_linear_357_5106)"/>
</g>
<g style="mix-blend-mode:multiply">
<path d="M190.287 68.0635L186.482 70.9931C186.435 71.0312 186.398 71.079 186.372 71.1331C186.346 71.1873 186.332 71.2465 186.332 71.3066C186.327 71.3647 186.335 71.4232 186.357 71.4775C186.378 71.5318 186.411 71.5806 186.454 71.62C187.423 72.5003 188.196 73.5734 188.725 74.7703C189.253 75.9671 189.525 77.2612 189.523 78.5694C189.523 81.0991 188.517 83.5253 186.727 85.3141C184.936 87.1029 182.508 88.1078 179.975 88.1078V84.3742C179.977 84.2969 179.956 84.2209 179.915 84.1555C179.873 84.0901 179.814 84.0382 179.744 84.0063C179.678 83.9666 179.602 83.9457 179.525 83.9457C179.448 83.9457 179.373 83.9666 179.307 84.0063L175.283 87.1676C175.208 87.1865 175.141 87.2296 175.092 87.2902L171.341 90.179C171.295 90.217 171.257 90.2648 171.231 90.319C171.206 90.3732 171.192 90.4324 171.191 90.4924C171.192 90.5545 171.205 90.6157 171.231 90.6721C171.257 90.7285 171.295 90.7787 171.341 90.8195L179.307 97.292C179.38 97.355 179.47 97.3932 179.566 97.401C179.625 97.4135 179.685 97.4135 179.744 97.401C179.815 97.3705 179.876 97.319 179.917 97.2532C179.959 97.1875 179.979 97.1107 179.975 97.0331V93.5311C181.964 93.5709 183.941 93.2152 185.79 92.4849C187.64 91.7546 189.326 90.6641 190.75 89.277C192.174 87.8898 193.308 86.2337 194.086 84.4048C194.863 82.5759 195.269 80.6109 195.279 78.6239C195.278 76.664 194.885 74.7241 194.124 72.9178C193.363 71.1114 192.249 69.475 190.846 68.1044C190.772 68.0353 190.676 67.9937 190.574 67.9863C190.472 67.9789 190.371 68.0061 190.287 68.0635Z" fill="url(#paint53_linear_357_5106)"/>
</g>
<path style="mix-blend-mode:multiply" d="M403.505 212.53L403.055 213.293L405.564 214.778L406.015 214.015L403.505 212.53ZM407.433 214.86L406.983 215.623L409.493 217.095L409.943 216.332L407.433 214.86ZM411.361 217.176L410.911 217.939L413.421 219.425L413.871 218.662L411.361 217.176ZM415.344 219.52L414.894 220.283L417.404 221.768L417.854 221.005L415.344 219.52ZM419.272 221.85L418.822 222.613L421.332 224.085L421.782 223.335L419.272 221.85ZM423.201 224.167L422.751 224.93L425.26 226.415L425.71 225.652L423.201 224.167ZM427.129 226.483L426.679 227.246L429.175 228.731L429.639 227.968L427.129 226.483ZM431.057 228.813L430.593 229.576L433.103 231.062L433.553 230.299L431.057 228.813ZM434.972 231.13L434.522 231.893L437.031 233.378L437.482 232.615L434.972 231.13ZM438.9 233.46L438.45 234.223L440.96 235.695L441.41 234.931L438.9 233.46ZM442.828 235.776L442.378 236.539L444.888 238.025L445.352 237.234L442.842 235.749L442.828 235.776ZM446.757 238.093L446.307 238.856L448.816 240.341L449.266 239.578L446.716 238.066L446.757 238.093Z" fill="url(#paint54_linear_357_5106)"/>
<path style="mix-blend-mode:multiply" d="M472.495 270.128L472.031 269.324L474.677 267.798L475.141 268.602L472.495 270.128ZM476.587 267.744L476.123 266.94L478.756 265.414L479.233 266.217L476.587 267.744ZM480.679 265.359L480.215 264.555L482.861 263.029L483.325 263.833L480.679 265.359ZM484.771 262.974L484.307 262.17L486.953 260.644L487.417 261.448L484.771 262.974ZM488.863 260.576L488.399 259.772L491.032 258.246L491.495 259.05L488.863 260.576ZM492.955 258.192L492.491 257.388L495.137 255.861L495.601 256.665L492.955 258.192ZM497.047 255.807L496.583 255.003L499.229 253.477L499.693 254.281L497.047 255.807ZM501.139 253.422L500.675 252.618L503.321 251.092L503.785 251.896L501.139 253.422ZM505.231 251.024L504.767 250.234L507.399 248.708L507.877 249.498L505.231 251.024ZM509.323 248.639L508.859 247.836L511.505 246.309L511.969 247.113L509.323 248.639ZM513.414 246.255L512.951 245.451L515.597 243.925L516.061 244.729L513.414 246.255ZM517.506 243.87L517.043 243.066L519.675 241.54L520.139 242.344L517.506 243.87ZM521.598 241.486L521.135 240.682L523.781 239.156L524.245 239.96L521.598 241.486ZM525.69 239.087L525.227 238.284L527.873 236.757L528.336 237.561L525.69 239.087ZM529.782 236.703L529.919 235.872L532.647 234.373L533.11 235.177L529.782 236.703ZM533.874 234.318L533.41 233.514L536.057 231.988L536.52 232.792L533.874 234.318ZM537.966 231.934L537.502 231.13L540.831 229.604L541.294 230.407L537.966 231.934ZM542.058 229.535L541.594 228.731L544.241 227.205L544.704 228.009L542.058 229.535ZM546.15 227.151L545.686 226.347L548.319 224.821L548.783 225.625L546.15 227.151ZM550.242 224.766L549.778 223.962L552.424 222.436L552.888 223.24L550.242 224.766ZM554.334 222.382L553.87 221.578L556.516 220.051L556.98 220.855L554.334 222.382ZM558.426 219.983L557.949 219.179L560.595 217.653L561.058 218.471L558.426 219.983ZM562.518 217.599L562.054 216.795L564.7 215.269L565.164 216.073L562.518 217.599ZM566.61 215.214L566.146 214.41L568.792 212.884L569.256 213.688L566.61 215.214Z" fill="url(#paint55_linear_357_5106)"/>
<g style="mix-blend-mode:multiply" opacity="0.4">
<path style="mix-blend-mode:multiply" opacity="0.4" d="M308.175 49.4772L309.758 51.1124C309.827 51.1899 309.914 51.2505 310.011 51.2893C310.108 51.3281 310.212 51.3442 310.317 51.3363C310.421 51.3284 310.522 51.2967 310.611 51.2437C310.701 51.1907 310.778 51.1178 310.835 51.0306C313.677 46.8176 315.109 41.8135 314.927 36.7366C314.71 30.304 311.949 24.2196 307.25 19.8163C302.551 15.4131 296.297 13.05 289.857 13.2448C288.944 13.2746 288.033 13.3565 287.129 13.4901C282.927 14.0942 278.957 15.7866 275.612 18.3991C272.268 21.0117 269.667 24.4532 268.067 28.3817C266.467 32.3101 265.924 36.5885 266.492 40.7914C267.061 44.9943 268.721 48.9754 271.307 52.3387C271.375 52.4167 271.459 52.4792 271.553 52.5221C271.647 52.5649 271.749 52.5871 271.853 52.5871C271.956 52.5871 272.058 52.5649 272.152 52.5221C272.247 52.4792 272.33 52.4167 272.398 52.3387L273.871 50.5537C273.966 50.4282 274.018 50.2751 274.018 50.1176C274.018 49.9602 273.966 49.8071 273.871 49.6816C271.646 46.6424 270.293 43.0544 269.957 39.3038C269.622 35.5533 270.317 31.7824 271.967 28.3973C273.618 25.0121 276.162 22.1408 279.325 20.0927C282.488 18.0447 286.15 16.8973 289.917 16.7743C293.684 16.6512 297.413 17.5571 300.704 19.3944C303.994 21.2318 306.72 23.9309 308.588 27.2011C310.456 30.4714 311.397 34.1888 311.307 37.9532C311.217 41.7176 310.102 45.3863 308.08 48.5642C307.979 48.7009 307.933 48.8703 307.951 49.0392C307.968 49.2081 308.048 49.3643 308.175 49.4772Z" fill="url(#paint56_linear_357_5106)"/>
</g>
<g style="mix-blend-mode:multiply" opacity="0.6">
<path style="mix-blend-mode:multiply" opacity="0.6" d="M302.46 43.1818L304.356 45.1031C304.446 45.2096 304.561 45.2912 304.692 45.3398C304.822 45.3884 304.963 45.4025 305.1 45.3805C305.238 45.3585 305.367 45.3013 305.476 45.2145C305.584 45.1277 305.669 45.0142 305.72 44.8851C306.765 42.6194 307.283 40.1468 307.236 37.6527C307.188 35.1586 306.576 32.7075 305.445 30.4834C304.314 28.2592 302.694 26.3196 300.706 24.8099C298.719 23.3002 296.414 22.2596 293.967 21.7661C291.519 21.2726 288.991 21.339 286.573 21.9603C284.154 22.5816 281.908 23.7418 280.002 25.3537C278.097 26.9657 276.581 28.9877 275.569 31.2682C274.556 33.5486 274.074 36.0284 274.158 38.5216C274.235 41.0895 274.922 43.6023 276.163 45.8525C276.223 45.9761 276.313 46.0822 276.426 46.1607C276.539 46.2393 276.67 46.2878 276.807 46.3014C276.943 46.3151 277.081 46.2935 277.207 46.2388C277.334 46.1841 277.443 46.098 277.527 45.9888L279.273 43.904C279.371 43.7891 279.434 43.6479 279.453 43.4978C279.473 43.3477 279.448 43.1953 279.382 43.0591C278.522 41.1921 278.138 39.1413 278.265 37.09C278.392 35.0387 279.026 33.0508 280.11 31.3039C281.193 29.557 282.694 28.1055 284.476 27.0793C286.258 26.053 288.268 25.4839 290.324 25.4227C292.38 25.3616 294.42 25.8103 296.26 26.7289C298.101 27.6475 299.684 29.0072 300.87 30.6866C302.056 32.366 302.807 34.3128 303.056 36.3529C303.305 38.3931 303.044 40.463 302.297 42.3778C302.245 42.5135 302.232 42.6612 302.261 42.8036C302.29 42.9461 302.359 43.0773 302.46 43.1818Z" fill="url(#paint57_linear_357_5106)"/>
</g>
<path style="mix-blend-mode:multiply" d="M305.013 58.6068L304.781 51.7937C304.805 51.2887 304.678 50.7879 304.416 50.3557C304.153 49.9235 303.767 49.5796 303.308 49.3682C302.739 49.1884 302.122 49.2373 301.589 49.5045H301.425C301.334 49.1137 301.124 48.7608 300.823 48.4947C300.523 48.2286 300.147 48.0624 299.748 48.0192C299.38 47.9521 299.003 47.961 298.64 48.0454C298.276 48.1297 297.933 48.2878 297.633 48.5097C297.417 48.0716 297.061 47.7175 296.622 47.503C296.183 47.2885 295.684 47.2256 295.205 47.3242C294.828 47.3652 294.463 47.4846 294.134 47.6747C293.805 47.8647 293.52 48.1213 293.296 48.428L293.105 42.6368C293.105 41.5058 292.996 40.3612 292.996 39.2302C292.926 38.6437 292.643 38.1033 292.2 37.7114C291.758 37.3196 291.186 37.1037 290.595 37.1045C290.244 37.1129 289.897 37.1934 289.578 37.3411C289.259 37.4887 288.974 37.7004 288.74 37.963C288.323 38.5169 288.133 39.2088 288.208 39.8979V50.3629C288.208 50.5946 288.317 55.9497 288.317 55.9497C287.84 55.5 287.322 54.9822 286.858 54.4917C285.656 53.3876 284.131 52.6995 282.507 52.5295C281.972 52.4441 281.424 52.5555 280.965 52.8429L280.652 53.1427C280.296 53.4409 280.044 53.8449 279.934 54.2958C279.823 54.7468 279.86 55.2212 280.038 55.6499C280.285 55.9769 280.608 56.2388 280.979 56.413C281.713 56.7418 282.379 57.2039 282.943 57.7756C284.021 59.1383 286.503 61.8635 288.017 63.4578C288.331 63.635 288.999 64.2481 289.299 64.4116C290.01 64.7941 290.677 65.2509 291.291 65.7743C291.748 66.0846 292.232 66.3537 292.737 66.5782C294.234 67.3499 295.91 67.7119 297.592 67.6275C299.652 67.6275 301.521 67.6275 302.857 66.3602H302.939V66.2648C303.63 65.608 304.174 64.8139 304.539 63.9338C304.903 63.0536 305.078 62.107 305.053 61.155C305.081 60.7462 305.026 58.9475 305.013 58.6068Z" fill="url(#paint58_linear_357_5106)"/>
<path style="mix-blend-mode:multiply" d="M290.432 31.9129C289.288 31.9829 288.188 32.3842 287.268 33.0679C286.348 33.7516 285.647 34.6881 285.251 35.7631C284.854 36.8381 284.78 38.0051 285.036 39.1216C285.293 40.2382 285.869 41.256 286.695 42.0509V39.6527C286.697 38.7619 287 37.8979 287.554 37.1999C288.015 36.6409 288.622 36.2207 289.308 35.9862C289.994 35.7517 290.732 35.712 291.439 35.8717C292.146 36.0313 292.795 36.384 293.313 36.8904C293.831 37.3968 294.199 38.037 294.374 38.7397C294.445 39.0388 294.482 39.3452 294.483 39.6527V42.1599C295.132 41.5738 295.635 40.8455 295.955 40.0322C296.274 39.219 296.401 38.3428 296.325 37.4725C296.278 35.9556 295.632 34.5189 294.528 33.4769C293.423 32.4349 291.951 31.8726 290.432 31.9129Z" fill="url(#paint59_linear_357_5106)"/>
<g style="mix-blend-mode:multiply">
<path d="M180.645 148.418C175.302 148.398 170.157 150.438 166.282 154.114C165.977 154.399 165.732 154.743 165.561 155.124C165.39 155.506 165.296 155.917 165.286 156.335C165.275 156.753 165.346 157.169 165.496 157.56C165.645 157.95 165.871 158.307 166.159 158.61C166.459 158.923 166.819 159.172 167.218 159.343C167.616 159.514 168.045 159.603 168.478 159.605C169.291 159.606 170.073 159.294 170.66 158.733C173.35 156.183 176.916 154.761 180.624 154.761C184.332 154.761 187.899 156.183 190.588 158.733C191.204 159.308 192.022 159.617 192.864 159.594C193.706 159.571 194.506 159.218 195.089 158.61C195.377 158.307 195.6 157.949 195.748 157.559C195.895 157.168 195.964 156.752 195.949 156.335C195.942 155.917 195.85 155.504 195.679 155.122C195.508 154.741 195.261 154.397 194.953 154.114C191.091 150.452 185.969 148.413 180.645 148.418Z" fill="url(#paint60_linear_357_5106)"/>
</g>
<g style="mix-blend-mode:multiply">
<path d="M201.663 145.393C195.969 140.024 188.433 137.038 180.603 137.051C172.773 137.064 165.246 140.073 159.57 145.461C158.961 146.044 158.607 146.844 158.587 147.687C158.566 148.529 158.881 149.346 159.461 149.958C159.759 150.268 160.117 150.515 160.513 150.684C160.91 150.852 161.336 150.939 161.766 150.939C162.584 150.944 163.371 150.631 163.962 150.067C168.461 145.801 174.427 143.422 180.63 143.422C186.833 143.422 192.799 145.801 197.298 150.067C197.913 150.639 198.73 150.945 199.57 150.92C200.41 150.894 201.206 150.539 201.786 149.93C202.075 149.628 202.302 149.271 202.451 148.88C202.601 148.49 202.672 148.073 202.659 147.655C202.651 147.231 202.559 146.812 202.388 146.424C202.217 146.036 201.971 145.685 201.663 145.393Z" fill="url(#paint61_linear_357_5106)"/>
</g>
<g style="mix-blend-mode:multiply">
<path d="M181.148 159.959C179.92 159.959 178.72 160.323 177.7 161.004C176.679 161.686 175.884 162.654 175.414 163.787C174.944 164.92 174.821 166.166 175.061 167.369C175.3 168.572 175.891 169.676 176.759 170.544C177.627 171.411 178.733 172.001 179.937 172.24C181.141 172.48 182.388 172.357 183.523 171.887C184.657 171.418 185.626 170.624 186.308 169.604C186.99 168.584 187.354 167.386 187.354 166.159C187.354 164.515 186.7 162.938 185.536 161.775C184.372 160.613 182.794 159.959 181.148 159.959ZM181.148 166.159H181.066H181.188H181.148Z" fill="url(#paint62_linear_357_5106)"/>
</g>
<g style="mix-blend-mode:multiply">
<path d="M133.285 24.759L129.779 21.2571C129.186 20.6792 128.473 20.2383 127.69 19.9652C126.908 19.6921 126.075 19.5935 125.251 19.6764C123.581 19.8355 122.02 20.5787 120.845 21.7749L114.134 28.479C113.988 28.6269 113.86 28.7916 113.752 28.9696C113.033 28.7526 112.277 28.6785 111.529 28.7516C109.848 28.9033 108.274 29.6414 107.083 30.8364L96.3753 41.5331C95.2015 42.6907 94.4602 44.2152 94.2748 45.8526C94.1793 46.6916 94.2717 47.5413 94.5453 48.3402C94.819 49.1391 95.267 49.8673 95.857 50.4719L99.3624 53.9603C99.8891 54.479 100.513 54.8881 101.199 55.1641C101.885 55.4401 102.619 55.5775 103.359 55.5682C103.563 55.5817 103.768 55.5817 103.973 55.5682C105.615 55.395 107.145 54.6526 108.297 53.4697L114.421 47.3515C114.747 47.0351 114.979 46.634 115.089 46.1933C115.729 46.4177 116.402 46.5328 117.081 46.5339C118.015 46.525 118.938 46.3314 119.798 45.9643C120.657 45.5971 121.435 45.0636 122.086 44.3946L132.794 33.6843C133.975 32.5319 134.718 31.0046 134.894 29.3647C134.991 28.5255 134.897 27.6752 134.618 26.8776C134.339 26.08 133.883 25.3558 133.285 24.759ZM113.248 37.7722C113.125 37.6632 113.139 37.4043 113.152 37.2953C113.218 36.8426 113.434 36.4252 113.766 36.1098C113.903 35.9724 114.027 35.8218 114.134 35.6601L115.921 37.4452C116.015 37.5854 116.049 37.7568 116.017 37.9221C115.956 38.3764 115.739 38.7955 115.403 39.1076C115.268 39.2489 115.15 39.4042 115.048 39.5709L113.248 37.7722ZM119.563 33.8206L117.817 32.0764L124.473 25.4131C124.784 25.0828 125.198 24.8668 125.646 24.7999C125.732 24.7785 125.822 24.7759 125.909 24.7923C125.996 24.8088 126.079 24.8439 126.151 24.8953L129.643 28.3837C129.766 28.5063 129.752 28.7652 129.752 28.8742C129.68 29.3249 129.465 29.7406 129.138 30.0597L121.159 38.0311C121.2 37.2571 121.079 36.483 120.804 35.7581C120.53 35.0332 120.107 34.3734 119.563 33.8206ZM110.82 43.7405L104.696 49.8587C104.38 50.19 103.962 50.4059 103.509 50.4719C103.339 50.5021 103.164 50.4681 103.018 50.3765L99.5261 46.8746C99.4342 46.7336 99.3955 46.5645 99.417 46.3976C99.4857 45.9429 99.7069 45.5249 100.044 45.2122L108.024 37.2408C107.979 38.0152 108.097 38.7905 108.372 39.516C108.647 40.2415 109.072 40.9009 109.62 41.4513L111.447 43.2772C111.216 43.399 111.004 43.5552 110.82 43.7405Z" fill="url(#paint63_linear_357_5106)"/>
</g>
<g style="mix-blend-mode:multiply">
<path d="M549.246 261.762H545.891C545.424 261.762 544.977 261.947 544.647 262.276C544.317 262.606 544.131 263.053 544.131 263.519V266.872C544.134 267.319 544.308 267.749 544.617 268.073C544.926 268.397 545.348 268.591 545.795 268.616V273.017L541.376 276.097V257.905L542.058 258.859C542.261 259.141 542.543 259.357 542.868 259.479C543.193 259.601 543.547 259.624 543.886 259.546C544.224 259.467 544.532 259.29 544.77 259.037C545.008 258.784 545.165 258.466 545.223 258.123C545.271 257.888 545.269 257.645 545.217 257.41C545.166 257.176 545.065 256.954 544.922 256.761L541.049 251.31C540.883 251.088 540.667 250.907 540.418 250.784C540.169 250.661 539.894 250.598 539.617 250.602C539.337 250.6 539.061 250.662 538.81 250.785C538.559 250.908 538.34 251.088 538.171 251.31L534.297 256.761C534.163 256.949 534.068 257.163 534.017 257.388C533.966 257.614 533.96 257.847 533.999 258.075C534.038 258.303 534.122 258.52 534.246 258.716C534.37 258.911 534.531 259.08 534.72 259.214C535.017 259.429 535.376 259.544 535.743 259.541H536.029C536.49 259.464 536.901 259.21 537.175 258.832L537.857 257.878V279.476L533.765 276.614V271.028C534.216 271.003 534.641 270.808 534.953 270.481C535.265 270.154 535.44 269.721 535.443 269.27V265.85C535.439 265.382 535.251 264.935 534.919 264.606C534.586 264.276 534.138 264.092 533.67 264.092H530.328C530.096 264.09 529.865 264.134 529.65 264.222C529.435 264.309 529.24 264.438 529.075 264.602C528.91 264.765 528.779 264.96 528.69 265.174C528.601 265.388 528.555 265.618 528.555 265.85V269.188C528.554 269.64 528.728 270.076 529.041 270.403C529.353 270.73 529.78 270.925 530.232 270.946V277.446C530.231 277.729 530.298 278.009 530.429 278.261C530.559 278.512 530.749 278.728 530.983 278.89L537.802 283.605C536.857 284.007 536.066 284.702 535.545 285.588C535.024 286.473 534.802 287.502 534.911 288.523C535.019 289.544 535.453 290.504 536.148 291.26C536.843 292.017 537.762 292.531 538.771 292.726C539.781 292.921 540.826 292.788 541.753 292.346C542.681 291.903 543.442 291.175 543.924 290.268C544.407 289.362 544.585 288.324 544.434 287.309C544.282 286.293 543.808 285.353 543.081 284.627C542.616 284.162 542.058 283.8 541.444 283.564V280.225C541.585 280.176 541.719 280.108 541.84 280.021L548.66 275.279C548.892 275.116 549.082 274.9 549.212 274.649C549.343 274.397 549.411 274.118 549.41 273.835V268.575C549.864 268.554 550.292 268.36 550.607 268.033C550.921 267.706 551.098 267.271 551.101 266.817V263.465C551.094 263.23 551.041 263 550.943 262.786C550.845 262.573 550.706 262.381 550.533 262.223C550.36 262.064 550.157 261.941 549.936 261.862C549.715 261.783 549.481 261.749 549.246 261.762ZM540.899 288.129C540.893 288.417 540.787 288.695 540.6 288.915C540.413 289.135 540.155 289.284 539.87 289.336C539.586 289.388 539.292 289.341 539.039 289.201C538.786 289.062 538.588 288.84 538.48 288.572C538.372 288.304 538.36 288.007 538.446 287.731C538.532 287.455 538.71 287.217 538.951 287.058C539.193 286.898 539.481 286.827 539.769 286.856C540.057 286.884 540.326 287.012 540.53 287.216C540.754 287.453 540.884 287.762 540.899 288.088V288.129Z" fill="url(#paint64_linear_357_5106)"/>
</g>
<g style="mix-blend-mode:multiply">
<path d="M605.267 196.042L596.947 186.272C598.981 183.942 600.08 180.944 600.033 177.853C599.987 174.762 598.798 171.798 596.695 169.531C594.592 167.263 591.724 165.853 588.643 165.571C585.561 165.289 582.485 166.156 580.005 168.004C577.525 169.852 575.816 172.552 575.209 175.582C574.601 178.613 575.137 181.762 576.714 184.421C578.29 187.081 580.795 189.065 583.748 189.99C586.7 190.915 589.89 190.717 592.705 189.433L601.244 199.462C601.488 199.755 601.795 199.991 602.142 200.151C602.489 200.311 602.867 200.392 603.249 200.389C603.755 200.394 604.252 200.252 604.68 199.982C605.107 199.712 605.448 199.325 605.661 198.866C605.874 198.407 605.951 197.897 605.881 197.396C605.811 196.895 605.598 196.425 605.267 196.042ZM587.536 170.656C589.009 170.656 590.448 171.093 591.673 171.91C592.898 172.728 593.852 173.89 594.416 175.249C594.98 176.608 595.127 178.104 594.84 179.548C594.552 180.991 593.843 182.317 592.802 183.357C591.76 184.398 590.433 185.106 588.989 185.393C587.544 185.68 586.046 185.533 584.686 184.97C583.325 184.407 582.162 183.453 581.343 182.23C580.525 181.006 580.088 179.568 580.088 178.096C580.092 176.124 580.878 174.234 582.274 172.839C583.669 171.445 585.562 170.66 587.536 170.656Z" fill="url(#paint65_linear_357_5106)"/>
</g>
<path style="mix-blend-mode:multiply" d="M249.852 291.535C240.156 291.489 230.691 288.572 222.655 283.152C214.619 277.732 208.372 270.053 204.704 261.086C201.037 252.12 200.114 242.268 202.051 232.776C203.989 223.285 208.7 214.581 215.59 207.766C222.479 200.95 231.237 196.328 240.756 194.485C250.275 192.641 260.127 193.66 269.067 197.411C278.007 201.162 285.632 207.477 290.979 215.557C296.325 223.638 299.153 233.121 299.105 242.808C299.018 255.787 293.786 268.203 284.555 277.336C275.323 286.469 262.844 291.575 249.852 291.535ZM250.302 198.876C241.65 198.833 233.179 201.354 225.962 206.121C218.744 210.887 213.104 217.685 209.753 225.654C206.403 233.624 205.494 242.406 207.14 250.892C208.787 259.378 212.916 267.185 219.004 273.326C225.092 279.467 232.867 283.667 241.344 285.394C249.822 287.121 258.622 286.297 266.631 283.028C274.64 279.758 281.499 274.189 286.34 267.025C291.18 259.861 293.786 251.424 293.826 242.78C293.874 231.195 289.317 220.064 281.156 211.833C272.995 203.601 261.898 198.941 250.302 198.876Z" fill="url(#paint66_linear_357_5106)"/>
<path style="mix-blend-mode:multiply" d="M249.797 301.837C234.066 301.747 219.012 295.424 207.942 284.258C196.872 273.091 190.689 257.992 190.75 242.276H195.306C195.26 253.101 198.428 263.696 204.41 272.722C210.391 281.748 218.917 288.8 228.909 292.986C238.902 297.172 249.912 298.304 260.549 296.239C271.185 294.174 280.97 289.005 288.666 281.385C296.362 273.765 301.624 264.037 303.786 253.43C305.948 242.823 304.914 231.813 300.813 221.794C296.713 211.774 289.731 203.194 280.75 197.138C271.769 191.082 261.192 187.822 250.357 187.771V183.22C266.093 183.297 281.153 189.617 292.226 200.788C303.298 211.959 309.474 227.067 309.396 242.787C309.319 258.508 302.993 273.554 291.811 284.615C280.629 295.676 265.506 301.846 249.77 301.769L249.797 301.837Z" fill="url(#paint67_linear_357_5106)"/>
<path style="mix-blend-mode:multiply" d="M299.241 292.489L296.035 289.26C308.331 277.059 315.283 260.486 315.367 243.173C315.451 225.86 308.661 209.22 296.485 196.9L299.718 193.698C312.747 206.873 320.013 224.672 319.924 243.192C319.834 261.712 312.396 279.44 299.241 292.489Z" fill="url(#paint68_linear_357_5106)"/>
<path style="mix-blend-mode:multiply" d="M342.618 237.193L317.984 237.071V236.621L342.632 236.744L342.618 237.193Z" fill="url(#paint69_linear_357_5106)"/>
<path style="mix-blend-mode:multiply" d="M305.979 256.083L305.977 256.533L355.57 256.775L355.573 256.325L305.979 256.083Z" fill="url(#paint70_linear_357_5106)"/>
<path style="mix-blend-mode:multiply" d="M284.983 273.43L284.98 273.88L369.151 274.291L369.153 273.841L284.983 273.43Z" fill="url(#paint71_linear_357_5106)"/>
<path style="mix-blend-mode:multiply" d="M339.93 237.234C339.93 236.695 340.09 236.168 340.389 235.72C340.689 235.272 341.115 234.923 341.614 234.716C342.112 234.51 342.661 234.456 343.19 234.561C343.719 234.667 344.205 234.926 344.587 235.307C344.968 235.688 345.228 236.174 345.333 236.703C345.438 237.231 345.384 237.779 345.178 238.277C344.972 238.775 344.622 239.201 344.173 239.5C343.725 239.8 343.197 239.96 342.658 239.96C341.934 239.96 341.24 239.672 340.729 239.161C340.217 238.65 339.93 237.957 339.93 237.234Z" fill="url(#paint72_linear_357_5106)"/>
<path style="mix-blend-mode:multiply" d="M352.902 256.202C352.902 255.663 353.062 255.136 353.362 254.688C353.662 254.24 354.088 253.891 354.586 253.684C355.085 253.478 355.633 253.424 356.162 253.529C356.692 253.635 357.178 253.894 357.559 254.275C357.941 254.656 358.201 255.142 358.306 255.671C358.411 256.199 358.357 256.747 358.151 257.245C357.944 257.743 357.594 258.169 357.146 258.468C356.697 258.768 356.17 258.928 355.63 258.928C354.907 258.928 354.213 258.64 353.701 258.129C353.19 257.618 352.902 256.925 352.902 256.202Z" fill="url(#paint73_linear_357_5106)"/>
<path style="mix-blend-mode:multiply" d="M366.445 274.025C366.445 273.486 366.605 272.959 366.905 272.511C367.205 272.063 367.631 271.714 368.129 271.507C368.628 271.301 369.176 271.247 369.706 271.352C370.235 271.458 370.721 271.717 371.102 272.098C371.484 272.479 371.744 272.965 371.849 273.494C371.954 274.022 371.9 274.57 371.694 275.068C371.487 275.566 371.138 275.992 370.689 276.291C370.24 276.591 369.713 276.751 369.173 276.751C368.45 276.751 367.756 276.463 367.244 275.952C366.733 275.441 366.445 274.748 366.445 274.025Z" fill="url(#paint74_linear_357_5106)"/>
<g style="mix-blend-mode:multiply">
<path d="M269.969 231.784H266.669V227.464C266.546 223.233 264.777 219.215 261.737 216.265C258.698 213.315 254.627 211.665 250.389 211.665C246.152 211.665 242.081 213.315 239.041 216.265C236.002 219.215 234.233 223.233 234.11 227.464V231.784H231.055C230.204 231.784 229.387 232.121 228.784 232.721C228.18 233.321 227.84 234.136 227.836 234.986V266.327C227.84 267.177 228.18 267.992 228.784 268.592C229.387 269.192 230.204 269.529 231.055 269.529H270.038C270.888 269.529 271.703 269.191 272.304 268.591C272.905 267.99 273.243 267.176 273.243 266.327V234.986C273.243 234.56 273.158 234.138 272.993 233.745C272.827 233.352 272.585 232.996 272.28 232.697C271.975 232.399 271.614 232.165 271.217 232.008C270.82 231.851 270.396 231.775 269.969 231.784ZM253.683 255.398C253.683 256.248 253.346 257.062 252.745 257.663C252.143 258.263 251.328 258.6 250.478 258.6C249.628 258.6 248.813 258.263 248.212 257.663C247.61 257.062 247.273 256.248 247.273 255.398V245.86C247.273 245.011 247.61 244.196 248.212 243.596C248.813 242.995 249.628 242.658 250.478 242.658C251.328 242.658 252.143 242.995 252.745 243.596C253.346 244.196 253.683 245.011 253.683 245.86V255.398ZM260.176 231.784H240.466V227.464C240.561 224.917 241.641 222.505 243.479 220.736C245.317 218.967 247.769 217.979 250.321 217.979C252.873 217.979 255.326 218.967 257.164 220.736C259.001 222.505 260.081 224.917 260.176 227.464V231.784Z" fill="url(#paint75_linear_357_5106)"/>
</g>
<g style="mix-blend-mode:multiply">
<path d="M463.737 106.285H491.726C492.337 106.285 492.924 106.043 493.356 105.611C493.788 105.179 494.031 104.593 494.031 103.982V81.5263C494.027 80.9179 493.783 80.3356 493.351 79.9067C492.919 79.4778 492.335 79.237 491.726 79.237H470.543V76.8524C470.557 75.941 470.752 75.0414 471.115 74.2052C471.478 73.369 472.003 72.6126 472.659 71.9796C473.316 71.3466 474.091 70.8493 474.94 70.5163C475.79 70.1833 476.696 70.0212 477.609 70.0393C479.111 70.0216 480.581 70.4803 481.807 71.3494C483.032 72.2186 483.95 73.4535 484.429 74.8766C484.509 75.1306 484.646 75.3632 484.828 75.5576C485.011 75.7519 485.235 75.9029 485.483 75.9996C485.732 76.0963 485.999 76.1362 486.265 76.1164C486.531 76.0965 486.789 76.0175 487.02 75.885L487.934 75.3535C488.293 75.1459 488.569 74.821 488.715 74.4337C488.862 74.0465 488.87 73.6206 488.739 73.2278C487.829 70.6455 486.042 68.4635 483.688 67.0613C481.334 65.6591 478.563 65.1255 475.856 65.5532C473.15 65.9809 470.679 67.3429 468.873 69.4024C467.068 71.4618 466.042 74.0883 465.974 76.8252V79.2098H463.778C463.169 79.2098 462.585 79.4505 462.153 79.8794C461.721 80.3084 461.476 80.8906 461.473 81.499V103.955C461.466 104.564 461.7 105.15 462.124 105.587C462.548 106.023 463.128 106.275 463.737 106.285ZM475.426 89.3478C475.402 89.0314 475.443 88.7134 475.548 88.4137C475.652 88.114 475.817 87.8391 476.033 87.6062C476.249 87.3734 476.511 87.1876 476.802 87.0605C477.093 86.9335 477.407 86.8679 477.725 86.8679C478.042 86.8679 478.357 86.9335 478.648 87.0605C478.939 87.1876 479.2 87.3734 479.416 87.6062C479.632 87.8391 479.797 88.114 479.902 88.4137C480.006 88.7134 480.047 89.0314 480.023 89.3478V96.1609C480.047 96.4773 480.006 96.7953 479.902 97.095C479.797 97.3947 479.632 97.6696 479.416 97.9025C479.2 98.1353 478.939 98.3211 478.648 98.4482C478.357 98.5752 478.042 98.6408 477.725 98.6408C477.407 98.6408 477.093 98.5752 476.802 98.4482C476.511 98.3211 476.249 98.1353 476.033 97.9025C475.817 97.6696 475.652 97.3947 475.548 97.095C475.443 96.7953 475.402 96.4773 475.426 96.1609V89.3478Z" fill="url(#paint76_linear_357_5106)"/>
</g>
<path style="mix-blend-mode:multiply" d="M512.037 54.0693C511.796 53.8515 511.519 53.6764 511.219 53.5514L509.855 53.0336C489.183 44.939 466.215 44.939 445.543 53.0336L445.229 53.1563C444.107 53.596 443.143 54.3624 442.462 55.3561C441.781 56.3499 441.414 57.5251 441.41 58.7295V108.575C441.406 109.497 441.633 110.406 442.068 111.22C442.504 112.034 443.136 112.726 443.906 113.235L474.76 133.674C475.637 134.261 476.67 134.575 477.726 134.575C478.783 134.575 479.815 134.261 480.693 133.674L511.451 113.235C512.25 112.702 512.904 111.981 513.356 111.134C513.809 110.288 514.044 109.343 514.042 108.384V56.6446C514.045 56.0531 513.848 55.4779 513.485 55.0111C513.121 54.5442 512.612 54.2125 512.037 54.0693ZM446.716 58.6477C446.718 58.5432 446.75 58.4414 446.808 58.3544C446.866 58.2674 446.948 58.1989 447.043 58.1571C466.771 50.4243 488.695 50.4243 508.423 58.1571L508.75 58.2798V108.493C508.752 108.579 508.732 108.665 508.691 108.741C508.651 108.817 508.591 108.882 508.518 108.929L478.088 129.15C478.001 129.209 477.899 129.241 477.794 129.241C477.69 129.241 477.588 129.209 477.501 129.15L447.03 108.929C446.957 108.882 446.897 108.817 446.857 108.741C446.816 108.665 446.796 108.579 446.798 108.493L446.716 58.6477Z" fill="url(#paint77_linear_357_5106)"/>
<path style="mix-blend-mode:multiply" d="M608.238 212.298H572.775L555.043 181.571L572.775 150.844H608.238L625.97 181.571L608.238 212.298ZM573.525 210.936H607.434L624.388 181.598L607.434 152.261H573.566L556.612 181.598L573.525 210.936Z" fill="url(#paint78_linear_357_5106)"/>
<path style="mix-blend-mode:multiply" d="M128.62 163.748L145.07 192.268L128.62 220.747H95.7072L79.2575 192.268L95.7072 163.802L128.62 163.748ZM129.493 162.235H94.807L77.4844 192.213L94.807 222.245H129.466L146.802 192.268L129.466 162.29L129.493 162.235Z" fill="url(#paint79_linear_357_5106)"/>
<g style="mix-blend-mode:multiply">
<path d="M114.887 194.121H113.66C113.523 194.121 113.469 193.984 113.455 193.944C113.32 193.546 113.156 193.159 112.964 192.785C112.943 192.753 112.933 192.715 112.933 192.676C112.933 192.638 112.943 192.6 112.964 192.567L113.851 191.668C114.015 191.505 114.146 191.31 114.235 191.096C114.324 190.882 114.37 190.653 114.37 190.421C114.37 190.189 114.324 189.96 114.235 189.746C114.146 189.532 114.015 189.338 113.851 189.174L111.927 187.253C111.764 187.091 111.571 186.963 111.358 186.876C111.145 186.79 110.916 186.746 110.686 186.749C110.454 186.746 110.224 186.789 110.008 186.876C109.793 186.962 109.597 187.09 109.431 187.253L108.531 188.152C108.498 188.173 108.461 188.184 108.422 188.184C108.383 188.184 108.346 188.173 108.313 188.152C107.933 187.963 107.541 187.8 107.14 187.662C107.14 187.662 106.976 187.662 106.976 187.471V186.217C106.973 185.75 106.784 185.303 106.452 184.974C106.12 184.644 105.671 184.46 105.203 184.46H102.475C102.007 184.46 101.558 184.644 101.226 184.974C100.894 185.303 100.705 185.75 100.702 186.217V187.471C100.702 187.594 100.579 187.648 100.538 187.662C100.14 187.797 99.7529 187.961 99.3788 188.152C99.3436 188.173 99.3036 188.183 99.2629 188.183C99.2222 188.183 99.1822 188.173 99.1469 188.152L98.2467 187.253C98.0837 187.091 97.89 186.963 97.6769 186.876C97.4638 186.79 97.2355 186.746 97.0055 186.749C96.7734 186.746 96.543 186.789 96.3276 186.876C96.1123 186.962 95.9162 187.09 95.7506 187.253L93.8274 189.174C93.6629 189.338 93.5323 189.532 93.4432 189.746C93.3541 189.96 93.3082 190.189 93.3082 190.421C93.3082 190.653 93.3541 190.882 93.4432 191.096C93.5323 191.31 93.6629 191.505 93.8274 191.668L94.714 192.554C94.7358 192.588 94.7473 192.629 94.7473 192.67C94.7473 192.71 94.7358 192.751 94.714 192.785C94.5225 193.159 94.3584 193.546 94.223 193.944C94.223 193.944 94.223 194.121 94.0184 194.121H92.7908C92.3229 194.124 91.8754 194.313 91.5458 194.644C91.2162 194.976 91.0312 195.425 91.0313 195.892V198.617C91.0312 199.085 91.2162 199.533 91.5458 199.865C91.8754 200.197 92.3229 200.385 92.7908 200.389H94.0047C94.0437 200.387 94.0821 200.398 94.1142 200.42C94.1463 200.442 94.1701 200.474 94.182 200.511C94.3309 200.976 94.5085 201.431 94.714 201.874C94.7328 201.9 94.743 201.931 94.743 201.963C94.743 201.995 94.7328 202.026 94.714 202.051L93.8547 202.91C93.6901 203.073 93.5596 203.267 93.4704 203.481C93.3813 203.695 93.3355 203.925 93.3355 204.157C93.3355 204.388 93.3813 204.618 93.4704 204.832C93.5596 205.046 93.6901 205.24 93.8547 205.403L95.7779 207.256C95.9428 207.421 96.1384 207.551 96.3538 207.64C96.5691 207.729 96.7998 207.775 97.0328 207.774C97.2637 207.774 97.4922 207.728 97.7053 207.64C97.9184 207.551 98.1117 207.42 98.274 207.256L99.1333 206.412C99.159 206.393 99.1901 206.383 99.222 206.383C99.2538 206.383 99.2849 206.393 99.3106 206.412C99.7516 206.622 100.207 206.8 100.675 206.943C100.714 206.96 100.747 206.989 100.769 207.026C100.791 207.062 100.801 207.105 100.797 207.147V208.319C100.797 208.789 100.984 209.24 101.317 209.572C101.649 209.904 102.1 210.091 102.571 210.091H105.299C105.769 210.091 106.22 209.904 106.552 209.572C106.885 209.24 107.072 208.789 107.072 208.319V207.147C107.07 207.105 107.081 207.063 107.103 207.027C107.124 206.991 107.156 206.962 107.194 206.943C107.662 206.8 108.118 206.622 108.558 206.412C108.584 206.393 108.615 206.383 108.647 206.383C108.679 206.383 108.71 206.393 108.736 206.412L109.595 207.256C109.925 207.585 110.371 207.771 110.836 207.774C111.067 207.774 111.296 207.728 111.509 207.64C111.722 207.551 111.915 207.42 112.078 207.256L114.001 205.335C114.165 205.172 114.296 204.978 114.385 204.764C114.474 204.55 114.52 204.32 114.52 204.088C114.52 203.857 114.474 203.627 114.385 203.413C114.296 203.199 114.165 203.005 114.001 202.842L113.141 201.969C113.124 201.946 113.114 201.917 113.114 201.888C113.114 201.858 113.124 201.83 113.141 201.806C113.349 201.364 113.527 200.909 113.673 200.443C113.69 200.408 113.717 200.378 113.752 200.359C113.786 200.339 113.825 200.331 113.864 200.334H115.065C115.533 200.331 115.98 200.142 116.31 199.811C116.639 199.479 116.824 199.03 116.824 198.563V195.838C116.818 195.595 116.762 195.357 116.659 195.137C116.557 194.917 116.41 194.72 116.228 194.56C116.047 194.399 115.834 194.277 115.603 194.201C115.373 194.126 115.129 194.098 114.887 194.121ZM108.804 197.255C108.796 198.232 108.498 199.185 107.949 199.993C107.399 200.801 106.622 201.429 105.716 201.797C104.81 202.164 103.815 202.256 102.857 202.059C101.899 201.863 101.02 201.387 100.333 200.692C99.6448 199.997 99.1784 199.115 98.9922 198.156C98.8059 197.196 98.9083 196.203 99.2863 195.302C99.6643 194.401 100.301 193.632 101.116 193.092C101.931 192.552 102.888 192.265 103.866 192.268C104.519 192.267 105.166 192.397 105.769 192.648C106.371 192.899 106.918 193.268 107.377 193.732C107.836 194.195 108.199 194.746 108.444 195.35C108.689 195.955 108.811 196.602 108.804 197.255ZM130.737 184.01H129.891C129.809 184.01 129.768 183.915 129.755 183.887C129.661 183.611 129.547 183.343 129.414 183.083C129.399 183.061 129.391 183.035 129.391 183.008C129.391 182.982 129.399 182.956 129.414 182.933L130.028 182.32C130.141 182.208 130.23 182.074 130.291 181.927C130.353 181.779 130.384 181.621 130.384 181.462C130.384 181.302 130.353 181.144 130.291 180.997C130.23 180.85 130.141 180.716 130.028 180.603L128.664 179.241C128.433 179.018 128.124 178.896 127.804 178.9C127.484 178.896 127.175 179.018 126.945 179.241L126.331 179.868C126.306 179.881 126.278 179.888 126.249 179.888C126.221 179.888 126.193 179.881 126.167 179.868C125.91 179.745 125.646 179.635 125.376 179.541C125.376 179.541 125.254 179.541 125.254 179.418V178.641C125.254 178.32 125.126 178.011 124.898 177.784C124.67 177.556 124.362 177.428 124.04 177.428H122.226C121.904 177.428 121.595 177.556 121.367 177.784C121.139 178.011 121.012 178.32 121.012 178.641V179.513C121.012 179.595 120.93 179.622 120.902 179.636C120.629 179.731 120.36 179.84 120.098 179.963C120.075 179.976 120.049 179.983 120.023 179.983C119.996 179.983 119.971 179.976 119.948 179.963L119.32 179.336C119.093 179.117 118.79 178.995 118.475 178.995C118.159 178.995 117.856 179.117 117.629 179.336L116.265 180.699C116.152 180.81 116.063 180.943 116.002 181.089C115.941 181.235 115.91 181.392 115.91 181.55C115.91 181.709 115.941 181.866 116.002 182.012C116.063 182.158 116.152 182.291 116.265 182.402L116.865 183.015C116.88 183.038 116.888 183.064 116.888 183.09C116.888 183.117 116.88 183.143 116.865 183.165C116.737 183.427 116.624 183.695 116.524 183.969C116.518 184.002 116.502 184.031 116.477 184.054C116.452 184.076 116.421 184.089 116.388 184.092H115.542C115.22 184.092 114.911 184.22 114.684 184.447C114.456 184.674 114.328 184.983 114.328 185.304V187.171C114.328 187.493 114.456 187.801 114.684 188.029C114.911 188.256 115.22 188.384 115.542 188.384H116.374C116.401 188.383 116.427 188.39 116.449 188.404C116.471 188.419 116.488 188.441 116.497 188.466C116.606 188.766 116.729 189.065 116.865 189.351C116.88 189.369 116.887 189.39 116.887 189.413C116.887 189.435 116.88 189.457 116.865 189.474L116.279 190.074C116.166 190.186 116.076 190.32 116.015 190.467C115.954 190.615 115.922 190.773 115.922 190.932C115.922 191.092 115.954 191.25 116.015 191.397C116.076 191.544 116.166 191.678 116.279 191.791L117.643 193.153C117.873 193.376 118.182 193.498 118.502 193.494C118.817 193.494 119.121 193.372 119.348 193.153L119.948 192.554C119.964 192.544 119.983 192.539 120.002 192.539C120.021 192.539 120.04 192.544 120.057 192.554C120.347 192.703 120.648 192.83 120.957 192.935C120.985 192.945 121.008 192.963 121.023 192.988C121.038 193.013 121.044 193.043 121.039 193.071V193.875C121.039 194.197 121.167 194.506 121.394 194.733C121.622 194.96 121.931 195.088 122.253 195.088H124.121C124.443 195.088 124.752 194.96 124.98 194.733C125.208 194.506 125.335 194.197 125.335 193.875V193.071C125.334 193.041 125.343 193.012 125.36 192.987C125.377 192.962 125.402 192.944 125.431 192.935C125.735 192.828 126.031 192.7 126.317 192.554C126.337 192.544 126.358 192.539 126.379 192.539C126.4 192.539 126.421 192.544 126.44 192.554L127.027 193.153C127.257 193.376 127.566 193.498 127.886 193.494C128.206 193.498 128.515 193.376 128.745 193.153L130.109 191.791C130.222 191.678 130.312 191.544 130.373 191.397C130.434 191.25 130.466 191.092 130.466 190.932C130.466 190.773 130.434 190.615 130.373 190.467C130.312 190.32 130.222 190.186 130.109 190.074L129.509 189.474C129.5 189.455 129.495 189.434 129.495 189.413C129.495 189.392 129.5 189.371 129.509 189.351C129.657 189.067 129.781 188.771 129.877 188.466C129.886 188.441 129.903 188.419 129.925 188.404C129.947 188.39 129.974 188.383 130 188.384H130.832C130.992 188.384 131.15 188.353 131.297 188.292C131.444 188.231 131.578 188.141 131.691 188.029C131.803 187.916 131.893 187.783 131.954 187.635C132.015 187.488 132.046 187.331 132.046 187.171V185.304C132.059 185.13 132.033 184.955 131.971 184.792C131.91 184.628 131.814 184.48 131.689 184.357C131.565 184.234 131.415 184.139 131.251 184.079C131.087 184.019 130.911 183.996 130.737 184.01ZM126.563 186.163C126.56 186.833 126.359 187.488 125.984 188.044C125.609 188.6 125.078 189.033 124.457 189.288C123.836 189.543 123.154 189.608 122.496 189.475C121.838 189.343 121.234 189.019 120.76 188.544C120.287 188.069 119.965 187.464 119.835 186.806C119.705 186.148 119.773 185.467 120.03 184.848C120.288 184.229 120.723 183.699 121.281 183.327C121.839 182.955 122.496 182.756 123.167 182.756C124.069 182.76 124.933 183.12 125.569 183.759C126.206 184.397 126.563 185.262 126.563 186.163Z" fill="url(#paint80_linear_357_5106)"/>
</g>
</g>
<path style="mix-blend-mode:multiply" opacity="0.5" d="M572.941 150.462L572.136 151.825L555.181 181.148H521.3L508.001 158.202L504.646 152.397L504.332 151.852L503.759 150.857H471.733C471.621 150.447 471.396 150.077 471.084 149.788C470.772 149.499 470.386 149.303 469.968 149.223C469.551 149.142 469.119 149.18 468.722 149.331C468.324 149.483 467.978 149.743 467.721 150.082C467.464 150.42 467.307 150.824 467.267 151.247C467.228 151.67 467.308 152.096 467.499 152.476C467.689 152.856 467.982 153.175 468.345 153.397C468.708 153.619 469.125 153.735 469.551 153.732C470.015 153.735 470.469 153.593 470.85 153.327C471.231 153.061 471.521 152.684 471.678 152.247H502.927L519.895 181.612L502.955 210.922H469.046L468.95 210.745V212.312H503.759L520.932 182.606H555.986L573.718 151.879L572.941 150.462Z" fill="url(#paint81_linear_357_5106)"/>
<g style="mix-blend-mode:multiply" opacity="0.2">
<path style="mix-blend-mode:multiply" opacity="0.2" d="M268.977 78.9101H224.143L201.719 40.1159L224.143 1.32178H268.977L291.387 40.1159L268.977 78.9101ZM224.92 77.5474H268.199L289.859 40.1159L268.199 2.68441H224.92L203.274 40.1159L224.92 77.5474Z" fill="url(#paint82_linear_357_5106)"/>
</g>
<g style="mix-blend-mode:multiply" opacity="0.2">
<path style="mix-blend-mode:multiply" opacity="0.2" d="M136.492 308.268H91.6583L69.2344 269.488L91.6583 230.694H136.492L158.916 269.488L136.492 308.268ZM92.4357 306.906H135.729L157.375 269.474L135.729 232.043H92.4357L70.7893 269.488L92.4357 306.906Z" fill="url(#paint83_linear_357_5106)"/>
</g>
<g style="mix-blend-mode:multiply" opacity="0.2">
<path style="mix-blend-mode:multiply" opacity="0.2" d="M401.406 79.169H356.572L334.148 40.4157L356.572 1.62158H401.406L423.83 40.4157L401.406 79.169ZM357.35 77.8064H400.629L422.262 40.3612L400.629 2.97059H357.35L335.717 40.4157L357.35 77.8064Z" fill="url(#paint84_linear_357_5106)"/>
</g>
<g style="mix-blend-mode:multiply" opacity="0.2">
<path style="mix-blend-mode:multiply" opacity="0.2" d="M401.406 318.611H356.572L334.148 279.817L356.572 241.022H401.406L423.83 279.817L401.406 318.611ZM357.35 317.248H400.629L422.262 279.817L400.629 242.371H357.35L335.717 279.817L357.35 317.248Z" fill="url(#paint85_linear_357_5106)"/>
</g>
<g style="mix-blend-mode:multiply" opacity="0.2">
<path style="mix-blend-mode:multiply" opacity="0.2" d="M496.012 363.959H451.178L428.754 325.165L451.178 286.371H496.012L518.436 325.165L496.012 363.959ZM451.955 362.597H495.234L516.867 325.151L495.234 287.706H451.955L430.35 325.206L451.955 362.597Z" fill="url(#paint86_linear_357_5106)"/>
</g>
<path d="M363 183C364.648 179.692 365.503 176.048 365.496 172.355C365.498 170.559 365.903 168.786 366.682 167.167C367.462 165.548 368.596 164.124 370 163" stroke="url(#paint87_linear_357_5106)" stroke-width="2" stroke-linecap="round" stroke-linejoin="round"/>
<path d="M377 173C377.009 178.948 375.288 184.799 372 190" stroke="url(#paint88_linear_357_5106)" stroke-width="2" stroke-linecap="round" stroke-linejoin="round"/>
<path d="M371 172.777C371 171.245 371.632 169.775 372.757 168.692C373.883 167.609 375.409 167 377 167C378.591 167 380.117 167.609 381.243 168.692C382.368 169.775 383 171.245 383 172.777C383.012 178.732 381.648 184.615 379.006 190" stroke="url(#paint89_linear_357_5106)" stroke-width="2" stroke-linecap="round" stroke-linejoin="round"/>
<path d="M393.016 183C393.669 179.601 393.998 176.147 394 172.684C394 167.994 392.156 163.496 388.875 160.18C385.593 156.863 381.142 155 376.501 155C371.86 155 367.409 156.863 364.128 160.18C360.846 163.496 359.003 167.994 359.003 172.684C359.008 174.693 358.669 176.687 358 178.579" stroke="url(#paint90_linear_357_5106)" stroke-width="2" stroke-linecap="round" stroke-linejoin="round"/>
<path d="M370 178C369.427 181.161 368.415 184.199 367 187" stroke="url(#paint91_linear_357_5106)" stroke-width="2" stroke-linecap="round" stroke-linejoin="round"/>
<path d="M375 161.089C375.516 161.032 376.036 161.002 376.556 161C379.856 161 383.021 162.194 385.355 164.319C387.689 166.445 389 169.328 389 172.333C388.998 174.228 388.868 176.12 388.611 178" stroke="url(#paint92_linear_357_5106)" stroke-width="2" stroke-linecap="round" stroke-linejoin="round"/>
<path d="M387 184C386.706 185.011 386.373 186.023 386 187" stroke="url(#paint93_linear_357_5106)" stroke-width="2" stroke-linecap="round" stroke-linejoin="round"/>
<defs>
<linearGradient id="paint0_linear_357_5106" x1="610.394" y1="211.685" x2="290.731" y2="211.685" gradientUnits="userSpaceOnUse">
<stop stop-color="#83A4D4"/>
<stop offset="0.95" stop-color="#B4F7FD"/>
<stop offset="1" stop-color="#B6FBFF"/>
</linearGradient>
<linearGradient id="paint1_linear_357_5106" x1="610.393" y1="241.54" x2="290.73" y2="241.54" gradientUnits="userSpaceOnUse">
<stop stop-color="#83A4D4"/>
<stop offset="0.95" stop-color="#B4F7FD"/>
<stop offset="1" stop-color="#B6FBFF"/>
</linearGradient>
<linearGradient id="paint2_linear_357_5106" x1="610.415" y1="286.598" x2="290.767" y2="286.6" gradientUnits="userSpaceOnUse">
<stop stop-color="#83A4D4"/>
<stop offset="0.95" stop-color="#B4F7FD"/>
<stop offset="1" stop-color="#B6FBFF"/>
</linearGradient>
<linearGradient id="paint3_linear_357_5106" x1="610.83" y1="271.409" x2="287.401" y2="271.409" gradientUnits="userSpaceOnUse">
<stop stop-color="#83A4D4"/>
<stop offset="0.95" stop-color="#B4F7FD"/>
<stop offset="1" stop-color="#B6FBFF"/>
</linearGradient>
<linearGradient id="paint4_linear_357_5106" x1="610.821" y1="226.711" x2="287.338" y2="226.711" gradientUnits="userSpaceOnUse">
<stop stop-color="#83A4D4"/>
<stop offset="0.95" stop-color="#B4F7FD"/>
<stop offset="1" stop-color="#B6FBFF"/>
</linearGradient>
<linearGradient id="paint5_linear_357_5106" x1="596.605" y1="271.573" x2="395.309" y2="271.573" gradientUnits="userSpaceOnUse">
<stop stop-color="#83A4D4"/>
<stop offset="0.95" stop-color="#B4F7FD"/>
<stop offset="1" stop-color="#B6FBFF"/>
</linearGradient>
<linearGradient id="paint6_linear_357_5106" x1="340.477" y1="173.327" x2="411.895" y2="173.327" gradientUnits="userSpaceOnUse">
<stop stop-color="#83A4D4"/>
<stop offset="0.95" stop-color="#B4F7FD"/>
<stop offset="1" stop-color="#B6FBFF"/>
</linearGradient>
<linearGradient id="paint7_linear_357_5106" x1="396.969" y1="211.426" x2="698.343" y2="211.426" gradientUnits="userSpaceOnUse">
<stop stop-color="#83A4D4"/>
<stop offset="0.95" stop-color="#B4F7FD"/>
<stop offset="1" stop-color="#B6FBFF"/>
</linearGradient>
<linearGradient id="paint8_linear_357_5106" x1="396.943" y1="211.426" x2="698.398" y2="211.426" gradientUnits="userSpaceOnUse">
<stop stop-color="#83A4D4"/>
<stop offset="0.95" stop-color="#B4F7FD"/>
<stop offset="1" stop-color="#B6FBFF"/>
</linearGradient>
<linearGradient id="paint9_linear_357_5106" x1="396.983" y1="302.436" x2="698.343" y2="302.436" gradientUnits="userSpaceOnUse">
<stop stop-color="#83A4D4"/>
<stop offset="0.95" stop-color="#B4F7FD"/>
<stop offset="1" stop-color="#B6FBFF"/>
</linearGradient>
<linearGradient id="paint10_linear_357_5106" x1="396.943" y1="271.573" x2="698.412" y2="271.573" gradientUnits="userSpaceOnUse">
<stop stop-color="#83A4D4"/>
<stop offset="0.95" stop-color="#B4F7FD"/>
<stop offset="1" stop-color="#B6FBFF"/>
</linearGradient>
<linearGradient id="paint11_linear_357_5106" x1="374.956" y1="271.573" x2="676.425" y2="271.573" gradientUnits="userSpaceOnUse">
<stop stop-color="#83A4D4"/>
<stop offset="0.95" stop-color="#B4F7FD"/>
<stop offset="1" stop-color="#B6FBFF"/>
</linearGradient>
<linearGradient id="paint12_linear_357_5106" x1="396.945" y1="271.573" x2="698.397" y2="271.573" gradientUnits="userSpaceOnUse">
<stop stop-color="#83A4D4"/>
<stop offset="0.95" stop-color="#B4F7FD"/>
<stop offset="1" stop-color="#B6FBFF"/>
</linearGradient>
<linearGradient id="paint13_linear_357_5106" x1="397.557" y1="211.426" x2="699.025" y2="211.426" gradientUnits="userSpaceOnUse">
<stop stop-color="#83A4D4"/>
<stop offset="0.95" stop-color="#B4F7FD"/>
<stop offset="1" stop-color="#B6FBFF"/>
</linearGradient>
<linearGradient id="paint14_linear_357_5106" x1="415.291" y1="181.571" x2="716.664" y2="181.571" gradientUnits="userSpaceOnUse">
<stop stop-color="#83A4D4"/>
<stop offset="0.95" stop-color="#B4F7FD"/>
<stop offset="1" stop-color="#B6FBFF"/>
</linearGradient>
<linearGradient id="paint15_linear_357_5106" x1="96.0624" y1="97.1558" x2="154.277" y2="97.1558" gradientUnits="userSpaceOnUse">
<stop stop-color="#83A4D4"/>
<stop offset="0.95" stop-color="#B4F7FD"/>
<stop offset="1" stop-color="#B6FBFF"/>
</linearGradient>
<linearGradient id="paint16_linear_357_5106" x1="162.203" y1="173.695" x2="220.35" y2="173.695" gradientUnits="userSpaceOnUse">
<stop stop-color="#83A4D4"/>
<stop offset="0.95" stop-color="#B4F7FD"/>
<stop offset="1" stop-color="#B6FBFF"/>
</linearGradient>
<linearGradient id="paint17_linear_357_5106" x1="4.77019" y1="78.0439" x2="221.37" y2="77.7033" gradientUnits="userSpaceOnUse">
<stop stop-color="#83A4D4"/>
<stop offset="0.95" stop-color="#B4F7FD"/>
<stop offset="1" stop-color="#B6FBFF"/>
</linearGradient>
<linearGradient id="paint18_linear_357_5106" x1="290.227" y1="76.3075" x2="363.936" y2="76.3075" gradientUnits="userSpaceOnUse">
<stop stop-color="#83A4D4"/>
<stop offset="0.95" stop-color="#B4F7FD"/>
<stop offset="1" stop-color="#B6FBFF"/>
</linearGradient>
<linearGradient id="paint19_linear_357_5106" x1="25" y1="40.2386" x2="67.2289" y2="40.2386" gradientUnits="userSpaceOnUse">
<stop stop-color="#83A4D4"/>
<stop offset="0.95" stop-color="#B4F7FD"/>
<stop offset="1" stop-color="#B6FBFF"/>
</linearGradient>
<linearGradient id="paint20_linear_357_5106" x1="94.2775" y1="134.669" x2="154.893" y2="134.669" gradientUnits="userSpaceOnUse">
<stop stop-color="#83A4D4"/>
<stop offset="0.95" stop-color="#B4F7FD"/>
<stop offset="1" stop-color="#B6FBFF"/>
</linearGradient>
<linearGradient id="paint21_linear_357_5106" x1="48.3225" y1="-3.47472" x2="307.223" y2="255.682" gradientUnits="userSpaceOnUse">
<stop stop-color="#83A4D4"/>
<stop offset="0.95" stop-color="#B4F7FD"/>
<stop offset="1" stop-color="#B6FBFF"/>
</linearGradient>
<linearGradient id="paint22_linear_357_5106" x1="-9.93101" y1="54.771" x2="248.94" y2="313.911" gradientUnits="userSpaceOnUse">
<stop stop-color="#83A4D4"/>
<stop offset="0.95" stop-color="#B4F7FD"/>
<stop offset="1" stop-color="#B6FBFF"/>
</linearGradient>
<linearGradient id="paint23_linear_357_5106" x1="73.5046" y1="-28.6426" x2="332.405" y2="230.528" gradientUnits="userSpaceOnUse">
<stop stop-color="#83A4D4"/>
<stop offset="0.95" stop-color="#B4F7FD"/>
<stop offset="1" stop-color="#B6FBFF"/>
</linearGradient>
<linearGradient id="paint24_linear_357_5106" x1="35.1889" y1="9.63374" x2="294.103" y2="268.804" gradientUnits="userSpaceOnUse">
<stop stop-color="#83A4D4"/>
<stop offset="0.95" stop-color="#B4F7FD"/>
<stop offset="1" stop-color="#B6FBFF"/>
</linearGradient>
<linearGradient id="paint25_linear_357_5106" x1="21.2065" y1="23.6146" x2="280.107" y2="282.771" gradientUnits="userSpaceOnUse">
<stop stop-color="#83A4D4"/>
<stop offset="0.95" stop-color="#B4F7FD"/>
<stop offset="1" stop-color="#B6FBFF"/>
</linearGradient>
<linearGradient id="paint26_linear_357_5106" x1="98.723" y1="-53.8375" x2="357.637" y2="205.333" gradientUnits="userSpaceOnUse">
<stop stop-color="#83A4D4"/>
<stop offset="0.95" stop-color="#B4F7FD"/>
<stop offset="1" stop-color="#B6FBFF"/>
</linearGradient>
<linearGradient id="paint27_linear_357_5106" x1="132.744" y1="-87.8216" x2="391.644" y2="171.335" gradientUnits="userSpaceOnUse">
<stop stop-color="#83A4D4"/>
<stop offset="0.95" stop-color="#B4F7FD"/>
<stop offset="1" stop-color="#B6FBFF"/>
</linearGradient>
<linearGradient id="paint28_linear_357_5106" x1="128.446" y1="-83.5294" x2="387.359" y2="175.627" gradientUnits="userSpaceOnUse">
<stop stop-color="#83A4D4"/>
<stop offset="0.95" stop-color="#B4F7FD"/>
<stop offset="1" stop-color="#B6FBFF"/>
</linearGradient>
<linearGradient id="paint29_linear_357_5106" x1="-17.748" y1="62.5176" x2="241.166" y2="321.688" gradientUnits="userSpaceOnUse">
<stop stop-color="#83A4D4"/>
<stop offset="0.95" stop-color="#B4F7FD"/>
<stop offset="1" stop-color="#B6FBFF"/>
</linearGradient>
<linearGradient id="paint30_linear_357_5106" x1="270.406" y1="154.536" x2="-24.9913" y2="154.536" gradientUnits="userSpaceOnUse">
<stop stop-color="#83A4D4"/>
<stop offset="0.95" stop-color="#B4F7FD"/>
<stop offset="1" stop-color="#B6FBFF"/>
</linearGradient>
<linearGradient id="paint31_linear_357_5106" x1="270.419" y1="154.536" x2="-24.9918" y2="154.536" gradientUnits="userSpaceOnUse">
<stop stop-color="#83A4D4"/>
<stop offset="0.95" stop-color="#B4F7FD"/>
<stop offset="1" stop-color="#B6FBFF"/>
</linearGradient>
<linearGradient id="paint32_linear_357_5106" x1="270.406" y1="231.021" x2="-24.9914" y2="231.021" gradientUnits="userSpaceOnUse">
<stop stop-color="#83A4D4"/>
<stop offset="0.95" stop-color="#B4F7FD"/>
<stop offset="1" stop-color="#B6FBFF"/>
</linearGradient>
<linearGradient id="paint33_linear_357_5106" x1="270.396" y1="116.301" x2="-24.9615" y2="116.301" gradientUnits="userSpaceOnUse">
<stop stop-color="#83A4D4"/>
<stop offset="0.95" stop-color="#B4F7FD"/>
<stop offset="1" stop-color="#B6FBFF"/>
</linearGradient>
<linearGradient id="paint34_linear_357_5106" x1="270.396" y1="192.772" x2="-24.9616" y2="192.772" gradientUnits="userSpaceOnUse">
<stop stop-color="#83A4D4"/>
<stop offset="0.95" stop-color="#B4F7FD"/>
<stop offset="1" stop-color="#B6FBFF"/>
</linearGradient>
<linearGradient id="paint35_linear_357_5106" x1="270.42" y1="116.301" x2="-25.032" y2="116.301" gradientUnits="userSpaceOnUse">
<stop stop-color="#83A4D4"/>
<stop offset="0.95" stop-color="#B4F7FD"/>
<stop offset="1" stop-color="#B6FBFF"/>
</linearGradient>
<linearGradient id="paint36_linear_357_5106" x1="270.42" y1="39.8161" x2="-25.0322" y2="39.8161" gradientUnits="userSpaceOnUse">
<stop stop-color="#83A4D4"/>
<stop offset="0.95" stop-color="#B4F7FD"/>
<stop offset="1" stop-color="#B6FBFF"/>
</linearGradient>
<linearGradient id="paint37_linear_357_5106" x1="270.394" y1="39.8161" x2="-24.9644" y2="39.8161" gradientUnits="userSpaceOnUse">
<stop stop-color="#83A4D4"/>
<stop offset="0.95" stop-color="#B4F7FD"/>
<stop offset="1" stop-color="#B6FBFF"/>
</linearGradient>
<linearGradient id="paint38_linear_357_5106" x1="292.911" y1="116.301" x2="288.492" y2="116.301" gradientUnits="userSpaceOnUse">
<stop stop-color="#83A4D4"/>
<stop offset="0.95" stop-color="#B4F7FD"/>
<stop offset="1" stop-color="#B6FBFF"/>
</linearGradient>
<linearGradient id="paint39_linear_357_5106" x1="368.439" y1="116.301" x2="364.033" y2="116.301" gradientUnits="userSpaceOnUse">
<stop stop-color="#83A4D4"/>
<stop offset="0.95" stop-color="#B4F7FD"/>
<stop offset="1" stop-color="#B6FBFF"/>
</linearGradient>
<linearGradient id="paint40_linear_357_5106" x1="270.409" y1="116.301" x2="-24.9892" y2="116.301" gradientUnits="userSpaceOnUse">
<stop stop-color="#83A4D4"/>
<stop offset="0.95" stop-color="#B4F7FD"/>
<stop offset="1" stop-color="#B6FBFF"/>
</linearGradient>
<linearGradient id="paint41_linear_357_5106" x1="270.408" y1="116.301" x2="-24.9902" y2="116.301" gradientUnits="userSpaceOnUse">
<stop stop-color="#83A4D4"/>
<stop offset="0.95" stop-color="#B4F7FD"/>
<stop offset="1" stop-color="#B6FBFF"/>
</linearGradient>
<linearGradient id="paint42_linear_357_5106" x1="270.406" y1="78.0652" x2="-24.9919" y2="78.0652" gradientUnits="userSpaceOnUse">
<stop stop-color="#83A4D4"/>
<stop offset="0.95" stop-color="#B4F7FD"/>
<stop offset="1" stop-color="#B6FBFF"/>
</linearGradient>
<linearGradient id="paint43_linear_357_5106" x1="270.42" y1="78.0652" x2="-24.9921" y2="78.0652" gradientUnits="userSpaceOnUse">
<stop stop-color="#83A4D4"/>
<stop offset="0.95" stop-color="#B4F7FD"/>
<stop offset="1" stop-color="#B6FBFF"/>
</linearGradient>
<linearGradient id="paint44_linear_357_5106" x1="270.408" y1="78.0651" x2="-24.9489" y2="78.0651" gradientUnits="userSpaceOnUse">
<stop stop-color="#83A4D4"/>
<stop offset="0.95" stop-color="#B4F7FD"/>
<stop offset="1" stop-color="#B6FBFF"/>
</linearGradient>
<linearGradient id="paint45_linear_357_5106" x1="292.911" y1="39.8161" x2="288.492" y2="39.8161" gradientUnits="userSpaceOnUse">
<stop stop-color="#83A4D4"/>
<stop offset="0.95" stop-color="#B4F7FD"/>
<stop offset="1" stop-color="#B6FBFF"/>
</linearGradient>
<linearGradient id="paint46_linear_357_5106" x1="270.406" y1="78.0652" x2="-24.9921" y2="78.0652" gradientUnits="userSpaceOnUse">
<stop stop-color="#83A4D4"/>
<stop offset="0.95" stop-color="#B4F7FD"/>
<stop offset="1" stop-color="#B6FBFF"/>
</linearGradient>
<linearGradient id="paint47_linear_357_5106" x1="270.42" y1="192.772" x2="-25.0322" y2="192.772" gradientUnits="userSpaceOnUse">
<stop stop-color="#83A4D4"/>
<stop offset="0.95" stop-color="#B4F7FD"/>
<stop offset="1" stop-color="#B6FBFF"/>
</linearGradient>
<linearGradient id="paint48_linear_357_5106" x1="270.406" y1="154.536" x2="-24.992" y2="154.536" gradientUnits="userSpaceOnUse">
<stop stop-color="#83A4D4"/>
<stop offset="0.95" stop-color="#B4F7FD"/>
<stop offset="1" stop-color="#B6FBFF"/>
</linearGradient>
<linearGradient id="paint49_linear_357_5106" x1="270.408" y1="154.536" x2="-24.9488" y2="154.536" gradientUnits="userSpaceOnUse">
<stop stop-color="#83A4D4"/>
<stop offset="0.95" stop-color="#B4F7FD"/>
<stop offset="1" stop-color="#B6FBFF"/>
</linearGradient>
<linearGradient id="paint50_linear_357_5106" x1="270.409" y1="39.8161" x2="-24.9892" y2="39.8161" gradientUnits="userSpaceOnUse">
<stop stop-color="#83A4D4"/>
<stop offset="0.95" stop-color="#B4F7FD"/>
<stop offset="1" stop-color="#B6FBFF"/>
</linearGradient>
<linearGradient id="paint51_linear_357_5106" x1="270.419" y1="2.20751" x2="-24.9918" y2="2.20751" gradientUnits="userSpaceOnUse">
<stop stop-color="#83A4D4"/>
<stop offset="0.95" stop-color="#B4F7FD"/>
<stop offset="1" stop-color="#B6FBFF"/>
</linearGradient>
<linearGradient id="paint52_linear_357_5106" x1="164.875" y1="74.5954" x2="188.145" y2="74.5954" gradientUnits="userSpaceOnUse">
<stop stop-color="#00469F"/>
<stop offset="1" stop-color="#1E79D6"/>
</linearGradient>
<linearGradient id="paint53_linear_357_5106" x1="171.191" y1="83.0954" x2="195.279" y2="83.0954" gradientUnits="userSpaceOnUse">
<stop stop-color="#00469F"/>
<stop offset="1" stop-color="#1E79D6"/>
</linearGradient>
<linearGradient id="paint54_linear_357_5106" x1="403.055" y1="226.429" x2="449.212" y2="226.429" gradientUnits="userSpaceOnUse">
<stop stop-color="#83A4D4"/>
<stop offset="0.95" stop-color="#B4F7FD"/>
<stop offset="1" stop-color="#B6FBFF"/>
</linearGradient>
<linearGradient id="paint55_linear_357_5106" x1="475.823" y1="267.526" x2="570.901" y2="212.857" gradientUnits="userSpaceOnUse">
<stop stop-color="#83A4D4"/>
<stop offset="0.95" stop-color="#B4F7FD"/>
<stop offset="1" stop-color="#B6FBFF"/>
</linearGradient>
<linearGradient id="paint56_linear_357_5106" x1="277.513" y1="24.3094" x2="371.807" y2="118.711" gradientUnits="userSpaceOnUse">
<stop stop-color="#83A4D4"/>
<stop offset="0.95" stop-color="#B4F7FD"/>
<stop offset="1" stop-color="#B6FBFF"/>
</linearGradient>
<linearGradient id="paint57_linear_357_5106" x1="277.431" y1="24.3911" x2="371.725" y2="118.792" gradientUnits="userSpaceOnUse">
<stop stop-color="#83A4D4"/>
<stop offset="0.95" stop-color="#B4F7FD"/>
<stop offset="1" stop-color="#B6FBFF"/>
</linearGradient>
<linearGradient id="paint58_linear_357_5106" x1="274.064" y1="34.6926" x2="344.485" y2="105.183" gradientUnits="userSpaceOnUse">
<stop stop-color="#83A4D4"/>
<stop offset="0.95" stop-color="#B4F7FD"/>
<stop offset="1" stop-color="#B6FBFF"/>
</linearGradient>
<linearGradient id="paint59_linear_357_5106" x1="280.816" y1="27.9613" x2="351.237" y2="98.4521" gradientUnits="userSpaceOnUse">
<stop stop-color="#83A4D4"/>
<stop offset="0.95" stop-color="#B4F7FD"/>
<stop offset="1" stop-color="#B6FBFF"/>
</linearGradient>
<linearGradient id="paint60_linear_357_5106" x1="165.285" y1="154.163" x2="195.951" y2="154.163" gradientUnits="userSpaceOnUse">
<stop stop-color="#00469F"/>
<stop offset="1" stop-color="#1E79D6"/>
</linearGradient>
<linearGradient id="paint61_linear_357_5106" x1="158.586" y1="144.183" x2="202.66" y2="144.183" gradientUnits="userSpaceOnUse">
<stop stop-color="#00469F"/>
<stop offset="1" stop-color="#1E79D6"/>
</linearGradient>
<linearGradient id="paint62_linear_357_5106" x1="174.941" y1="166.327" x2="187.354" y2="166.327" gradientUnits="userSpaceOnUse">
<stop stop-color="#00469F"/>
<stop offset="1" stop-color="#1E79D6"/>
</linearGradient>
<linearGradient id="paint63_linear_357_5106" x1="94.2383" y1="38.0987" x2="134.931" y2="38.0987" gradientUnits="userSpaceOnUse">
<stop stop-color="#00469F"/>
<stop offset="1" stop-color="#1E79D6"/>
</linearGradient>
<linearGradient id="paint64_linear_357_5106" x1="528.555" y1="272.278" x2="551.101" y2="272.278" gradientUnits="userSpaceOnUse">
<stop stop-color="#00469F"/>
<stop offset="1" stop-color="#1E79D6"/>
</linearGradient>
<linearGradient id="paint65_linear_357_5106" x1="574.965" y1="183.425" x2="605.906" y2="183.425" gradientUnits="userSpaceOnUse">
<stop stop-color="#00469F"/>
<stop offset="1" stop-color="#1E79D6"/>
</linearGradient>
<linearGradient id="paint66_linear_357_5106" x1="341.821" y1="335.111" x2="169.115" y2="160.522" gradientUnits="userSpaceOnUse">
<stop stop-color="#83A4D4"/>
<stop offset="0.95" stop-color="#B4F7FD"/>
<stop offset="1" stop-color="#B6FBFF"/>
</linearGradient>
<linearGradient id="paint67_linear_357_5106" x1="341.821" y1="335.111" x2="169.115" y2="160.522" gradientUnits="userSpaceOnUse">
<stop stop-color="#83A4D4"/>
<stop offset="0.95" stop-color="#B4F7FD"/>
<stop offset="1" stop-color="#B6FBFF"/>
</linearGradient>
<linearGradient id="paint68_linear_357_5106" x1="307.37" y1="343.225" x2="308.559" y2="97.7693" gradientUnits="userSpaceOnUse">
<stop stop-color="#83A4D4"/>
<stop offset="0.95" stop-color="#B4F7FD"/>
<stop offset="1" stop-color="#B6FBFF"/>
</linearGradient>
<linearGradient id="paint69_linear_357_5106" x1="379.231" y1="286.267" x2="223.251" y2="128.605" gradientUnits="userSpaceOnUse">
<stop stop-color="#83A4D4"/>
<stop offset="0.95" stop-color="#B4F7FD"/>
<stop offset="1" stop-color="#B6FBFF"/>
</linearGradient>
<linearGradient id="paint70_linear_357_5106" x1="390.591" y1="316.769" x2="172.709" y2="96.5513" gradientUnits="userSpaceOnUse">
<stop stop-color="#83A4D4"/>
<stop offset="0.95" stop-color="#B4F7FD"/>
<stop offset="1" stop-color="#B6FBFF"/>
</linearGradient>
<linearGradient id="paint71_linear_357_5106" x1="388.396" y1="335.749" x2="147.226" y2="91.9978" gradientUnits="userSpaceOnUse">
<stop stop-color="#83A4D4"/>
<stop offset="0.95" stop-color="#B4F7FD"/>
<stop offset="1" stop-color="#B6FBFF"/>
</linearGradient>
<linearGradient id="paint72_linear_357_5106" x1="346.646" y1="241.248" x2="328.625" y2="223.032" gradientUnits="userSpaceOnUse">
<stop stop-color="#83A4D4"/>
<stop offset="0.95" stop-color="#B4F7FD"/>
<stop offset="1" stop-color="#B6FBFF"/>
</linearGradient>
<linearGradient id="paint73_linear_357_5106" x1="359.621" y1="260.266" x2="341.587" y2="242.051" gradientUnits="userSpaceOnUse">
<stop stop-color="#83A4D4"/>
<stop offset="0.95" stop-color="#B4F7FD"/>
<stop offset="1" stop-color="#B6FBFF"/>
</linearGradient>
<linearGradient id="paint74_linear_357_5106" x1="373.172" y1="278.142" x2="355.138" y2="259.912" gradientUnits="userSpaceOnUse">
<stop stop-color="#83A4D4"/>
<stop offset="0.95" stop-color="#B4F7FD"/>
<stop offset="1" stop-color="#B6FBFF"/>
</linearGradient>
<linearGradient id="paint75_linear_357_5106" x1="227.836" y1="241.379" x2="273.243" y2="241.379" gradientUnits="userSpaceOnUse">
<stop stop-color="#00469F"/>
<stop offset="1" stop-color="#1E79D6"/>
</linearGradient>
<linearGradient id="paint76_linear_357_5106" x1="461.473" y1="86.3997" x2="494.031" y2="86.3997" gradientUnits="userSpaceOnUse">
<stop stop-color="#00469F"/>
<stop offset="1" stop-color="#1E79D6"/>
</linearGradient>
<linearGradient id="paint77_linear_357_5106" x1="413.012" y1="18.5863" x2="560.435" y2="166.169" gradientUnits="userSpaceOnUse">
<stop stop-color="#83A4D4"/>
<stop offset="0.95" stop-color="#B4F7FD"/>
<stop offset="1" stop-color="#B6FBFF"/>
</linearGradient>
<linearGradient id="paint78_linear_357_5106" x1="551.197" y1="142.327" x2="617.284" y2="208.48" gradientUnits="userSpaceOnUse">
<stop stop-color="#83A4D4"/>
<stop offset="0.95" stop-color="#B4F7FD"/>
<stop offset="1" stop-color="#B6FBFF"/>
</linearGradient>
<linearGradient id="paint79_linear_357_5106" x1="77.5117" y1="192.213" x2="146.829" y2="192.213" gradientUnits="userSpaceOnUse">
<stop stop-color="#83A4D4"/>
<stop offset="0.95" stop-color="#B4F7FD"/>
<stop offset="1" stop-color="#B6FBFF"/>
</linearGradient>
<linearGradient id="paint80_linear_357_5106" x1="91.0313" y1="194.201" x2="132.049" y2="194.201" gradientUnits="userSpaceOnUse">
<stop stop-color="#00469F"/>
<stop offset="1" stop-color="#1E79D6"/>
</linearGradient>
<linearGradient id="paint81_linear_357_5106" x1="467.273" y1="180.74" x2="573.745" y2="180.74" gradientUnits="userSpaceOnUse">
<stop stop-color="#83A4D4"/>
<stop offset="0.95" stop-color="#B4F7FD"/>
<stop offset="1" stop-color="#B6FBFF"/>
</linearGradient>
<linearGradient id="paint82_linear_357_5106" x1="201.719" y1="40.1159" x2="291.387" y2="40.1159" gradientUnits="userSpaceOnUse">
<stop stop-color="#83A4D4"/>
<stop offset="0.95" stop-color="#B4F7FD"/>
<stop offset="1" stop-color="#B6FBFF"/>
</linearGradient>
<linearGradient id="paint83_linear_357_5106" x1="69.2344" y1="269.488" x2="158.903" y2="269.488" gradientUnits="userSpaceOnUse">
<stop stop-color="#83A4D4"/>
<stop offset="0.95" stop-color="#B4F7FD"/>
<stop offset="1" stop-color="#B6FBFF"/>
</linearGradient>
<linearGradient id="paint84_linear_357_5106" x1="334.148" y1="40.4157" x2="423.83" y2="40.4157" gradientUnits="userSpaceOnUse">
<stop stop-color="#83A4D4"/>
<stop offset="0.95" stop-color="#B4F7FD"/>
<stop offset="1" stop-color="#B6FBFF"/>
</linearGradient>
<linearGradient id="paint85_linear_357_5106" x1="334.148" y1="279.817" x2="423.83" y2="279.817" gradientUnits="userSpaceOnUse">
<stop stop-color="#83A4D4"/>
<stop offset="0.95" stop-color="#B4F7FD"/>
<stop offset="1" stop-color="#B6FBFF"/>
</linearGradient>
<linearGradient id="paint86_linear_357_5106" x1="428.754" y1="325.206" x2="518.436" y2="325.206" gradientUnits="userSpaceOnUse">
<stop stop-color="#83A4D4"/>
<stop offset="0.95" stop-color="#B4F7FD"/>
<stop offset="1" stop-color="#B6FBFF"/>
</linearGradient>
<linearGradient id="paint87_linear_357_5106" x1="363" y1="173.27" x2="370" y2="173.27" gradientUnits="userSpaceOnUse">
<stop stop-color="#00469F"/>
<stop offset="1" stop-color="#1E79D6"/>
</linearGradient>
<linearGradient id="paint88_linear_357_5106" x1="372" y1="181.73" x2="377" y2="181.73" gradientUnits="userSpaceOnUse">
<stop stop-color="#00469F"/>
<stop offset="1" stop-color="#1E79D6"/>
</linearGradient>
<linearGradient id="paint89_linear_357_5106" x1="371" y1="178.811" x2="383" y2="178.811" gradientUnits="userSpaceOnUse">
<stop stop-color="#00469F"/>
<stop offset="1" stop-color="#1E79D6"/>
</linearGradient>
<linearGradient id="paint90_linear_357_5106" x1="358" y1="169.378" x2="394" y2="169.378" gradientUnits="userSpaceOnUse">
<stop stop-color="#00469F"/>
<stop offset="1" stop-color="#1E79D6"/>
</linearGradient>
<linearGradient id="paint91_linear_357_5106" x1="367" y1="182.622" x2="370" y2="182.622" gradientUnits="userSpaceOnUse">
<stop stop-color="#00469F"/>
<stop offset="1" stop-color="#1E79D6"/>
</linearGradient>
<linearGradient id="paint92_linear_357_5106" x1="375" y1="169.73" x2="389" y2="169.73" gradientUnits="userSpaceOnUse">
<stop stop-color="#00469F"/>
<stop offset="1" stop-color="#1E79D6"/>
</linearGradient>
<linearGradient id="paint93_linear_357_5106" x1="386" y1="185.541" x2="387" y2="185.541" gradientUnits="userSpaceOnUse">
<stop stop-color="#00469F"/>
<stop offset="1" stop-color="#1E79D6"/>
</linearGradient>
</defs>
</svg>
