<svg width="648" height="492" viewBox="0 0 648 492" fill="none" xmlns="http://www.w3.org/2000/svg">
<rect x="147" width="242" height="233" rx="10" fill="white"/>
<path d="M196.112 35.7916L181.72 26.6241C181.599 26.5462 181.46 26.5035 181.318 26.5002C181.175 26.4969 181.035 26.5333 180.911 26.6054C180.786 26.6776 180.683 26.7831 180.61 26.9109C180.538 27.0387 180.5 27.1842 180.5 27.3325V45.6675C180.5 45.8158 180.538 45.9613 180.61 46.0891C180.683 46.2169 180.786 46.3224 180.911 46.3946C181.035 46.4667 181.175 46.5031 181.318 46.4998C181.46 46.4965 181.599 46.4538 181.72 46.3759L196.112 37.2084C196.23 37.1356 196.328 37.032 196.396 36.9078C196.464 36.7836 196.5 36.643 196.5 36.5C196.5 36.357 196.464 36.2165 196.396 36.0922C196.328 35.968 196.23 35.8644 196.112 35.7916Z" fill="url(#paint0_linear_1108_12001)"/>
<path d="M220.699 33H225.067C227.173 33 228.479 31.9199 228.479 30.1904V30.1768C228.479 28.8848 227.487 27.9141 226.113 27.8115V27.7705C227.2 27.627 228.021 26.7041 228.021 25.624V25.6104C228.021 24.0928 226.852 23.1357 224.992 23.1357H220.699V33ZM224.459 24.667C225.423 24.667 225.99 25.1182 225.99 25.9043V25.918C225.99 26.7725 225.368 27.2578 224.206 27.2578H222.764V24.667H224.459ZM224.452 28.6592C225.717 28.6592 226.373 29.1445 226.373 30.0469V30.0605C226.373 30.9766 225.724 31.4619 224.541 31.4619H222.764V28.6592H224.452ZM231.979 33.1504C233.086 33.1504 233.838 32.6309 234.214 31.79H234.255V33H236.251V25.6719H234.255V29.8828C234.255 30.8398 233.688 31.4961 232.792 31.4961C231.896 31.4961 231.445 30.9424 231.445 29.9854V25.6719H229.449V30.4023C229.449 32.1182 230.365 33.1504 231.979 33.1504ZM240.564 33.1504C242.451 33.1504 243.771 32.207 243.771 30.7715V30.7646C243.771 29.6846 243.142 29.083 241.61 28.7617L240.366 28.4951C239.628 28.3379 239.375 28.0918 239.375 27.7158V27.709C239.375 27.2373 239.806 26.9297 240.496 26.9297C241.234 26.9297 241.665 27.3262 241.733 27.8525L241.74 27.9072H243.579V27.8389C243.531 26.5537 242.444 25.5215 240.496 25.5215C238.63 25.5215 237.427 26.4238 237.427 27.8184V27.8252C237.427 28.9189 238.145 29.6299 239.566 29.9307L240.811 30.1904C241.528 30.3477 241.774 30.5732 241.774 30.9629V30.9697C241.774 31.4414 241.316 31.7354 240.564 31.7354C239.765 31.7354 239.334 31.4004 239.204 30.8262L239.19 30.7646H237.242L237.249 30.8262C237.406 32.2139 238.534 33.1504 240.564 33.1504ZM245.794 24.7285C246.396 24.7285 246.86 24.2568 246.86 23.6895C246.86 23.1221 246.396 22.6504 245.794 22.6504C245.192 22.6504 244.728 23.1221 244.728 23.6895C244.728 24.2568 245.192 24.7285 245.794 24.7285ZM244.796 33H246.792V25.6719H244.796V33ZM248.132 33H250.128V28.7891C250.128 27.832 250.695 27.1758 251.591 27.1758C252.486 27.1758 252.938 27.7227 252.938 28.6797V33H254.934V28.2695C254.934 26.5537 254.018 25.5215 252.404 25.5215C251.297 25.5215 250.545 26.0342 250.169 26.875H250.128V25.6719H248.132V33ZM259.534 33.1504C261.626 33.1504 262.638 31.9131 262.863 30.833L262.884 30.7578H261.052L261.038 30.7988C260.895 31.209 260.396 31.6602 259.575 31.6602C258.557 31.6602 257.921 30.9766 257.9 29.8076H262.945V29.1924C262.945 26.9775 261.599 25.5215 259.452 25.5215C257.306 25.5215 255.932 27.0117 255.932 29.3428V29.3496C255.932 31.6943 257.292 33.1504 259.534 33.1504ZM259.486 27.0117C260.313 27.0117 260.908 27.5381 261.031 28.5498H257.921C258.051 27.5586 258.666 27.0117 259.486 27.0117ZM266.992 33.1504C268.879 33.1504 270.198 32.207 270.198 30.7715V30.7646C270.198 29.6846 269.569 29.083 268.038 28.7617L266.794 28.4951C266.056 28.3379 265.803 28.0918 265.803 27.7158V27.709C265.803 27.2373 266.233 26.9297 266.924 26.9297C267.662 26.9297 268.093 27.3262 268.161 27.8525L268.168 27.9072H270.007V27.8389C269.959 26.5537 268.872 25.5215 266.924 25.5215C265.058 25.5215 263.854 26.4238 263.854 27.8184V27.8252C263.854 28.9189 264.572 29.6299 265.994 29.9307L267.238 30.1904C267.956 30.3477 268.202 30.5732 268.202 30.9629V30.9697C268.202 31.4414 267.744 31.7354 266.992 31.7354C266.192 31.7354 265.762 31.4004 265.632 30.8262L265.618 30.7646H263.67L263.677 30.8262C263.834 32.2139 264.962 33.1504 266.992 33.1504ZM274.197 33.1504C276.084 33.1504 277.403 32.207 277.403 30.7715V30.7646C277.403 29.6846 276.774 29.083 275.243 28.7617L273.999 28.4951C273.261 28.3379 273.008 28.0918 273.008 27.7158V27.709C273.008 27.2373 273.438 26.9297 274.129 26.9297C274.867 26.9297 275.298 27.3262 275.366 27.8525L275.373 27.9072H277.212V27.8389C277.164 26.5537 276.077 25.5215 274.129 25.5215C272.263 25.5215 271.06 26.4238 271.06 27.8184V27.8252C271.06 28.9189 271.777 29.6299 273.199 29.9307L274.443 30.1904C275.161 30.3477 275.407 30.5732 275.407 30.9629V30.9697C275.407 31.4414 274.949 31.7354 274.197 31.7354C273.397 31.7354 272.967 31.4004 272.837 30.8262L272.823 30.7646H270.875L270.882 30.8262C271.039 32.2139 272.167 33.1504 274.197 33.1504ZM280.705 33H282.872L283.617 30.6074H287.104L287.849 33H290.016L286.577 23.1357H284.15L280.705 33ZM285.34 25.0498H285.381L286.625 29.0625H284.096L285.34 25.0498ZM293.105 33.1504C294.213 33.1504 294.965 32.6309 295.341 31.79H295.382V33H297.378V25.6719H295.382V29.8828C295.382 30.8398 294.814 31.4961 293.919 31.4961C293.023 31.4961 292.572 30.9424 292.572 29.9854V25.6719H290.576V30.4023C290.576 32.1182 291.492 33.1504 293.105 33.1504ZM301.589 33.1504C302.006 33.1504 302.327 33.1094 302.553 33.0752V31.6123C302.43 31.626 302.3 31.6465 302.122 31.6465C301.521 31.6465 301.213 31.4141 301.213 30.7305V27.1758H302.553V25.6719H301.213V23.8809H299.196V25.6719H298.178V27.1758H299.196V30.9492C299.196 32.5215 299.962 33.1504 301.589 33.1504ZM306.907 33.1504C309.122 33.1504 310.537 31.7285 310.537 29.3359V29.3223C310.537 26.9502 309.095 25.5215 306.9 25.5215C304.713 25.5215 303.277 26.9639 303.277 29.3223V29.3359C303.277 31.7217 304.679 33.1504 306.907 33.1504ZM306.914 31.585C305.93 31.585 305.308 30.7715 305.308 29.3359V29.3223C305.308 27.9072 305.937 27.0869 306.9 27.0869C307.871 27.0869 308.507 27.9072 308.507 29.3223V29.3359C308.507 30.7646 307.885 31.585 306.914 31.585ZM311.569 33H313.565V28.5771C313.565 27.75 314.078 27.1758 314.837 27.1758C315.575 27.1758 316.02 27.6406 316.02 28.4268V33H317.94V28.543C317.94 27.7295 318.439 27.1758 319.198 27.1758C319.971 27.1758 320.395 27.6406 320.395 28.4883V33H322.391V27.9893C322.391 26.5127 321.427 25.5215 319.991 25.5215C318.918 25.5215 318.043 26.1094 317.715 27.0322H317.674C317.428 26.0684 316.683 25.5215 315.657 25.5215C314.673 25.5215 313.907 26.0684 313.606 26.9023H313.565V25.6719H311.569V33ZM325.836 33.1162C326.8 33.1162 327.579 32.6582 327.996 31.9062H328.037V33H330.033V27.9756C330.033 26.499 328.81 25.5215 326.916 25.5215C324.981 25.5215 323.819 26.4922 323.71 27.8457L323.703 27.9277H325.528L325.542 27.8662C325.638 27.3945 326.089 27.0459 326.834 27.0459C327.613 27.0459 328.037 27.4492 328.037 28.0986V28.5498L326.226 28.6592C324.407 28.7754 323.375 29.5547 323.375 30.8877V30.9014C323.375 32.1934 324.366 33.1162 325.836 33.1162ZM325.351 30.7988V30.7852C325.351 30.2656 325.754 29.9375 326.526 29.8896L328.037 29.7939V30.3203C328.037 31.0859 327.381 31.6602 326.485 31.6602C325.795 31.6602 325.351 31.3389 325.351 30.7988ZM334.237 33.1504C334.654 33.1504 334.976 33.1094 335.201 33.0752V31.6123C335.078 31.626 334.948 31.6465 334.771 31.6465C334.169 31.6465 333.861 31.4141 333.861 30.7305V27.1758H335.201V25.6719H333.861V23.8809H331.845V25.6719H330.826V27.1758H331.845V30.9492C331.845 32.5215 332.61 33.1504 334.237 33.1504ZM337.341 24.7285C337.942 24.7285 338.407 24.2568 338.407 23.6895C338.407 23.1221 337.942 22.6504 337.341 22.6504C336.739 22.6504 336.274 23.1221 336.274 23.6895C336.274 24.2568 336.739 24.7285 337.341 24.7285ZM336.343 33H338.339V25.6719H336.343V33ZM343.042 33.1504C345.257 33.1504 346.672 31.7285 346.672 29.3359V29.3223C346.672 26.9502 345.229 25.5215 343.035 25.5215C340.848 25.5215 339.412 26.9639 339.412 29.3223V29.3359C339.412 31.7217 340.813 33.1504 343.042 33.1504ZM343.049 31.585C342.064 31.585 341.442 30.7715 341.442 29.3359V29.3223C341.442 27.9072 342.071 27.0869 343.035 27.0869C344.006 27.0869 344.642 27.9072 344.642 29.3223V29.3359C344.642 30.7646 344.02 31.585 343.049 31.585ZM347.704 33H349.7V28.7891C349.7 27.832 350.268 27.1758 351.163 27.1758C352.059 27.1758 352.51 27.7227 352.51 28.6797V33H354.506V28.2695C354.506 26.5537 353.59 25.5215 351.977 25.5215C350.869 25.5215 350.117 26.0342 349.741 26.875H349.7V25.6719H347.704V33Z" fill="url(#paint1_linear_1108_12001)"/>
<path d="M220.556 48.7588H222.582V50.6338H223.827V48.7588H225.858V47.5137H223.827V45.6338H222.582V47.5137H220.556V48.7588ZM228.48 51H229.94V43.9541H228.476L226.654 45.2188V46.5273L228.451 45.3066H228.48V51ZM232.104 51.083C232.543 51.083 232.895 50.7314 232.895 50.292C232.895 49.8477 232.543 49.501 232.104 49.501C231.659 49.501 231.312 49.8477 231.312 50.292C231.312 50.7314 231.659 51.083 232.104 51.083ZM233.808 51H238.93V49.8281H235.736V49.7695L237.211 48.4219C238.427 47.3037 238.832 46.7471 238.832 45.8926V45.8828C238.832 44.6816 237.807 43.832 236.317 43.832C234.828 43.832 233.725 44.7646 233.725 46.0928V46.1318H235.092L235.097 46.0879C235.116 45.4531 235.604 44.9795 236.327 44.9795C236.952 44.9795 237.392 45.3896 237.396 45.9658V45.9756C237.396 46.4639 237.206 46.8105 236.298 47.6602L233.808 49.9893V51ZM239.931 51H241.244V46.2344H241.283L243.188 51H244.115L246.015 46.2344H246.059V51H247.372V43.9541H245.668L243.666 49.0176H243.637L241.635 43.9541H239.931V51ZM251.425 51H252.924L253.866 47.2988H253.896L254.843 51H256.361L257.748 45.7656H256.342L255.546 49.6475H255.517L254.584 45.7656H253.217L252.289 49.6475H252.26L251.469 45.7656H250.033L251.425 51ZM259.687 51.083C260.375 51.083 260.932 50.7559 261.229 50.2188H261.259V51H262.685V47.4111C262.685 46.3564 261.811 45.6582 260.458 45.6582C259.076 45.6582 258.246 46.3516 258.168 47.3184L258.163 47.377H259.467L259.477 47.333C259.545 46.9961 259.867 46.7471 260.399 46.7471C260.956 46.7471 261.259 47.0352 261.259 47.499V47.8213L259.965 47.8994C258.666 47.9824 257.929 48.5391 257.929 49.4912V49.501C257.929 50.4238 258.637 51.083 259.687 51.083ZM259.34 49.4277V49.418C259.34 49.0469 259.628 48.8125 260.18 48.7783L261.259 48.71V49.0859C261.259 49.6328 260.79 50.043 260.15 50.043C259.657 50.043 259.34 49.8135 259.34 49.4277ZM265.688 51.1074C265.985 51.1074 266.215 51.0781 266.376 51.0537V50.0088C266.288 50.0186 266.195 50.0332 266.068 50.0332C265.639 50.0332 265.419 49.8672 265.419 49.3789V46.8398H266.376V45.7656H265.419V44.4863H263.979V45.7656H263.251V46.8398H263.979V49.5352C263.979 50.6582 264.525 51.1074 265.688 51.1074ZM269.477 51.1074C270.873 51.1074 271.776 50.2383 271.845 49.0957V49.0664H270.517L270.512 49.1104C270.414 49.6377 270.058 49.9893 269.486 49.9893C268.783 49.9893 268.344 49.4082 268.344 48.3828V48.3779C268.344 47.377 268.783 46.7764 269.481 46.7764C270.072 46.7764 270.419 47.1572 270.507 47.6553L270.517 47.6992H271.84V47.665C271.786 46.5322 270.883 45.6582 269.462 45.6582C267.895 45.6582 266.894 46.6982 266.894 48.373V48.3779C266.894 50.0674 267.88 51.1074 269.477 51.1074ZM272.567 51H273.993V48.002C273.993 47.3184 274.398 46.8398 275.028 46.8398C275.678 46.8398 276.039 47.2744 276.039 48.0068V51H277.465V47.7139C277.465 46.4492 276.762 45.6582 275.629 45.6582C274.843 45.6582 274.291 46.0195 274.022 46.6689H273.993V43.9541H272.567V51ZM279.125 45.0918C279.555 45.0918 279.887 44.7549 279.887 44.3496C279.887 43.9443 279.555 43.6074 279.125 43.6074C278.695 43.6074 278.363 43.9443 278.363 44.3496C278.363 44.7549 278.695 45.0918 279.125 45.0918ZM278.412 51H279.838V45.7656H278.412V51ZM280.795 51H282.221V47.9922C282.221 47.3086 282.626 46.8398 283.266 46.8398C283.905 46.8398 284.228 47.2305 284.228 47.9141V51H285.653V47.6211C285.653 46.3955 284.999 45.6582 283.847 45.6582C283.056 45.6582 282.519 46.0244 282.25 46.625H282.221V45.7656H280.795V51ZM289.003 52.8164C290.575 52.8164 291.557 52.0205 291.557 50.8535V45.7656H290.131V46.6592H290.102C289.818 46.0488 289.247 45.6582 288.51 45.6582C287.187 45.6582 286.366 46.6494 286.366 48.3193V48.3242C286.366 49.9502 287.177 50.9268 288.485 50.9268C289.242 50.9268 289.828 50.5801 290.102 50.0332H290.131V50.834C290.131 51.4199 289.74 51.8008 289.003 51.8008C288.407 51.8008 288.026 51.5762 287.914 51.3174L287.899 51.2832H286.513L286.518 51.3271C286.654 52.167 287.562 52.8164 289.003 52.8164ZM288.979 49.8818C288.266 49.8818 287.816 49.3008 287.816 48.3584V48.3535C287.816 47.416 288.271 46.8398 288.979 46.8398C289.672 46.8398 290.136 47.4209 290.136 48.3535V48.3584C290.136 49.2959 289.677 49.8818 288.979 49.8818Z" fill="#393E50"/>
<line x1="167" y1="72.5" x2="369" y2="72.5" stroke="#393E50" stroke-opacity="0.2"/>
<path d="M192.67 102.535H188.973V95.5449H187.203V104H192.67V102.535ZM193.602 104H195.312V97.7188H193.602V104ZM194.457 97.0273C194.973 97.0273 195.371 96.6348 195.371 96.1426C195.371 95.6445 194.973 95.2578 194.457 95.2578C193.941 95.2578 193.543 95.6445 193.543 96.1426C193.543 96.6348 193.941 97.0273 194.457 97.0273ZM202.197 97.7188H200.41L199.109 102.488H199.074L197.768 97.7188H195.934L198.107 104H200.041L202.197 97.7188ZM205.438 98.8496C206.199 98.8496 206.721 99.4004 206.756 100.203H204.09C204.148 99.418 204.688 98.8496 205.438 98.8496ZM206.779 102.078C206.621 102.559 206.141 102.869 205.514 102.869C204.641 102.869 204.072 102.254 204.072 101.357V101.252H208.402V100.73C208.402 98.8203 207.248 97.584 205.42 97.584C203.562 97.584 202.391 98.8848 202.391 100.889C202.391 102.898 203.551 104.135 205.484 104.135C207.037 104.135 208.162 103.309 208.35 102.078H206.779ZM211.812 95.5449V104H213.582V101.334H215.164C216.945 101.334 218.182 100.174 218.182 98.4395C218.182 96.6992 216.986 95.5449 215.252 95.5449H211.812ZM213.582 96.9453H214.783C215.797 96.9453 216.383 97.4844 216.383 98.4453C216.383 99.4121 215.791 99.9512 214.777 99.9512H213.582V96.9453ZM219.084 104H220.795V100.49C220.795 99.6055 221.287 99.0898 222.131 99.0898C222.377 99.0898 222.611 99.1309 222.752 99.1895V97.6836C222.635 97.6484 222.465 97.6191 222.266 97.6191C221.527 97.6191 220.994 98.0527 220.771 98.8496H220.736V97.7188H219.084V104ZM226.127 104.135C228.025 104.135 229.238 102.922 229.238 100.854C229.238 98.8145 228.008 97.584 226.127 97.584C224.246 97.584 223.016 98.8203 223.016 100.854C223.016 102.916 224.229 104.135 226.127 104.135ZM226.127 102.828C225.283 102.828 224.75 102.119 224.75 100.859C224.75 99.6113 225.295 98.8906 226.127 98.8906C226.959 98.8906 227.498 99.6113 227.498 100.859C227.498 102.119 226.965 102.828 226.127 102.828ZM230.123 104H231.834V100.209C231.834 99.5059 232.273 99.0137 232.924 99.0137C233.557 99.0137 233.938 99.4121 233.938 100.086V104H235.584V100.186C235.584 99.4883 236.012 99.0137 236.662 99.0137C237.324 99.0137 237.688 99.4121 237.688 100.139V104H239.398V99.7109C239.398 98.4453 238.572 97.6016 237.342 97.6016C236.422 97.6016 235.672 98.0996 235.391 98.8906H235.355C235.145 98.0703 234.512 97.6016 233.604 97.6016C232.748 97.6016 232.074 98.0996 231.811 98.8555H231.775V97.7188H230.123V104ZM243.365 104.135C245.264 104.135 246.477 102.922 246.477 100.854C246.477 98.8145 245.246 97.584 243.365 97.584C241.484 97.584 240.254 98.8203 240.254 100.854C240.254 102.916 241.467 104.135 243.365 104.135ZM243.365 102.828C242.521 102.828 241.988 102.119 241.988 100.859C241.988 99.6113 242.533 98.8906 243.365 98.8906C244.197 98.8906 244.736 99.6113 244.736 100.859C244.736 102.119 244.203 102.828 243.365 102.828ZM247.818 96.2715V97.7188H246.934V99.0078H247.818V102.307C247.818 103.531 248.393 104.023 249.869 104.023C250.215 104.023 250.508 103.994 250.684 103.953V102.693C250.578 102.711 250.42 102.723 250.268 102.723C249.764 102.723 249.529 102.494 249.529 102.014V99.0078H250.689V97.7188H249.529V96.2715H247.818ZM251.656 104H253.367V97.7188H251.656V104ZM252.512 97.0273C253.027 97.0273 253.426 96.6348 253.426 96.1426C253.426 95.6445 253.027 95.2578 252.512 95.2578C251.996 95.2578 251.598 95.6445 251.598 96.1426C251.598 96.6348 251.996 97.0273 252.512 97.0273ZM257.393 104.135C259.291 104.135 260.504 102.922 260.504 100.854C260.504 98.8145 259.273 97.584 257.393 97.584C255.512 97.584 254.281 98.8203 254.281 100.854C254.281 102.916 255.494 104.135 257.393 104.135ZM257.393 102.828C256.549 102.828 256.016 102.119 256.016 100.859C256.016 99.6113 256.561 98.8906 257.393 98.8906C258.225 98.8906 258.764 99.6113 258.764 100.859C258.764 102.119 258.23 102.828 257.393 102.828ZM261.389 104H263.1V100.396C263.1 99.582 263.586 99.0195 264.354 99.0195C265.121 99.0195 265.508 99.4883 265.508 100.309V104H267.219V99.9512C267.219 98.4805 266.434 97.6016 265.039 97.6016C264.072 97.6016 263.41 98.0586 263.076 98.8379H263.041V97.7188H261.389V104Z" fill="#393E50" fill-opacity="0.4"/>
<g filter="url(#filter0_d_1108_12001)">
<rect x="186.5" y="120" width="40" height="40" rx="20" fill="white" shape-rendering="crispEdges"/>
<path d="M209.83 139.646L203.534 135.062C203.481 135.023 203.42 135.002 203.358 135C203.296 134.998 203.234 135.017 203.18 135.053C203.125 135.089 203.08 135.142 203.048 135.205C203.017 135.269 203 135.342 203 135.416V144.584C203 144.658 203.017 144.731 203.048 144.795C203.08 144.858 203.125 144.911 203.18 144.947C203.234 144.983 203.296 145.002 203.358 145C203.42 144.998 203.481 144.977 203.534 144.938L209.83 140.354C209.882 140.318 209.925 140.266 209.955 140.204C209.984 140.142 210 140.072 210 140C210 139.928 209.984 139.858 209.955 139.796C209.925 139.734 209.882 139.682 209.83 139.646Z" fill="#393E50" fill-opacity="0.3"/>
</g>
<rect x="238.5" y="130" width="111" height="6" rx="3" fill="#EDF6F3"/>
<rect x="238.5" y="144" width="77" height="6" rx="3" fill="#EDF6F3"/>
<g filter="url(#filter1_d_1108_12001)">
<rect x="186.5" y="173" width="40" height="40" rx="20" fill="white" shape-rendering="crispEdges"/>
<path d="M209.83 192.646L203.534 188.062C203.481 188.023 203.42 188.002 203.358 188C203.296 187.998 203.234 188.017 203.18 188.053C203.125 188.089 203.08 188.142 203.048 188.205C203.017 188.269 203 188.342 203 188.416V197.584C203 197.658 203.017 197.731 203.048 197.795C203.08 197.858 203.125 197.911 203.18 197.947C203.234 197.983 203.296 198.002 203.358 198C203.42 197.998 203.481 197.977 203.534 197.938L209.83 193.354C209.882 193.318 209.925 193.266 209.955 193.204C209.984 193.142 210 193.072 210 193C210 192.928 209.984 192.858 209.955 192.796C209.925 192.734 209.882 192.682 209.83 192.646Z" fill="#393E50" fill-opacity="0.3"/>
</g>
<rect x="238.5" y="183" width="111" height="6" rx="3" fill="#EDF6F3"/>
<rect x="238.5" y="197" width="77" height="6" rx="3" fill="#EDF6F3"/>
<rect y="250" width="293" height="242" rx="20" fill="white"/>
<path d="M29.6602 284.803H24.1143V274.317H21.46V287H29.6602V284.803ZM31.0576 287H33.624V277.578H31.0576V287ZM32.3408 276.541C33.1143 276.541 33.7119 275.952 33.7119 275.214C33.7119 274.467 33.1143 273.887 32.3408 273.887C31.5674 273.887 30.9697 274.467 30.9697 275.214C30.9697 275.952 31.5674 276.541 32.3408 276.541ZM43.9512 277.578H41.2705L39.3193 284.732H39.2666L37.3066 277.578H34.5557L37.8164 287H40.7168L43.9512 277.578ZM48.8115 279.274C49.9541 279.274 50.7363 280.101 50.7891 281.305H46.79C46.8779 280.127 47.6865 279.274 48.8115 279.274ZM50.8242 284.117C50.5869 284.838 49.8662 285.304 48.9258 285.304C47.6162 285.304 46.7637 284.381 46.7637 283.036V282.878H53.2588V282.096C53.2588 279.23 51.5273 277.376 48.7852 277.376C45.999 277.376 44.2412 279.327 44.2412 282.333C44.2412 285.348 45.9814 287.202 48.8818 287.202C51.2109 287.202 52.8984 285.963 53.1797 284.117H50.8242ZM61.0283 274.317H58.374V282.518C58.374 285.312 60.4395 287.22 63.6914 287.22C66.9346 287.22 69 285.312 69 282.518V274.317H66.3457V282.254C66.3457 283.88 65.3877 284.943 63.6914 284.943C61.9863 284.943 61.0283 283.88 61.0283 282.254V274.317ZM76.4004 277.429C75.0381 277.429 73.9922 278.114 73.4824 279.222H73.4297V277.578H70.8984V290.076H73.4648V285.418H73.5176C74.0186 286.481 75.0732 287.149 76.4443 287.149C78.7998 287.149 80.2588 285.321 80.2588 282.289C80.2588 279.248 78.791 277.429 76.4004 277.429ZM75.5391 285.084C74.2822 285.084 73.4561 283.994 73.4561 282.289C73.4561 280.602 74.2822 279.485 75.5391 279.485C76.8223 279.485 77.6309 280.584 77.6309 282.289C77.6309 284.003 76.8223 285.084 75.5391 285.084ZM85.084 287.149C86.4727 287.149 87.5625 286.42 88.0195 285.383H88.0635V287H90.5947V274.317H88.0283V279.195H87.9756C87.5186 278.149 86.4639 277.429 85.1016 277.429C82.7373 277.429 81.2432 279.283 81.2432 282.271C81.2432 285.286 82.7285 287.149 85.084 287.149ZM85.9541 279.485C87.2285 279.485 88.0459 280.575 88.0459 282.289C88.0459 284.012 87.2285 285.084 85.9541 285.084C84.6621 285.084 83.8711 284.021 83.8711 282.289C83.8711 280.566 84.6621 279.485 85.9541 279.485ZM95.9473 285.295C95.0771 285.295 94.4971 284.855 94.4971 284.152C94.4971 283.484 95.042 283.054 96 282.983L97.9863 282.86V283.546C97.9863 284.565 97.0635 285.295 95.9473 285.295ZM95.1035 287.149C96.2812 287.149 97.4502 286.561 97.9775 285.559H98.0303V287H100.509V280.522C100.509 278.624 98.9355 277.376 96.5186 277.376C94.0225 277.376 92.4668 278.633 92.3701 280.461H94.7168C94.8398 279.767 95.4463 279.292 96.4043 279.292C97.3711 279.292 97.9863 279.802 97.9863 280.681V281.305L95.6133 281.445C93.2666 281.586 91.9482 282.579 91.9482 284.293C91.9482 285.989 93.3105 287.149 95.1035 287.149ZM102.855 275.407V277.578H101.528V279.512H102.855V284.46C102.855 286.297 103.717 287.035 105.932 287.035C106.45 287.035 106.89 286.991 107.153 286.93V285.04C106.995 285.066 106.758 285.084 106.529 285.084C105.773 285.084 105.422 284.741 105.422 284.021V279.512H107.162V277.578H105.422V275.407H102.855ZM112.655 279.274C113.798 279.274 114.58 280.101 114.633 281.305H110.634C110.722 280.127 111.53 279.274 112.655 279.274ZM114.668 284.117C114.431 284.838 113.71 285.304 112.77 285.304C111.46 285.304 110.607 284.381 110.607 283.036V282.878H117.103V282.096C117.103 279.23 115.371 277.376 112.629 277.376C109.843 277.376 108.085 279.327 108.085 282.333C108.085 285.348 109.825 287.202 112.726 287.202C115.055 287.202 116.742 285.963 117.023 284.117H114.668Z" fill="#393E50"/>
<path d="M271.5 278C272.328 278 273 277.328 273 276.5C273 275.672 272.328 275 271.5 275C270.672 275 270 275.672 270 276.5C270 277.328 270.672 278 271.5 278Z" fill="black"/>
<path d="M271.5 286C272.328 286 273 285.328 273 284.5C273 283.672 272.328 283 271.5 283C270.672 283 270 283.672 270 284.5C270 285.328 270.672 286 271.5 286Z" fill="black"/>
<line x1="20" y1="307.5" x2="273" y2="307.5" stroke="#393E50" stroke-opacity="0.2"/>
<path d="M20 345C20 335.572 20 330.858 22.9289 327.929C25.8579 325 30.5719 325 40 325H253C262.428 325 267.142 325 270.071 327.929C273 330.858 273 335.572 273 345V370C273 379.428 273 384.142 270.071 387.071C267.142 390 262.428 390 253 390H40C30.5719 390 25.8579 390 22.9289 387.071C20 384.142 20 379.428 20 370V345Z" fill="#ECF9FF"/>
<path d="M39.3232 351.463H40.8877C42.3203 351.463 43.1904 352.166 43.1904 353.326C43.1904 354.398 42.2588 355.146 40.9316 355.146C39.5342 355.146 38.6553 354.442 38.5762 353.37H36.0361C36.1592 355.708 38.0312 357.281 40.8965 357.281C43.8232 357.281 45.8887 355.77 45.8887 353.493C45.8887 351.735 44.667 350.593 42.7773 350.435V350.382C44.333 350.101 45.3965 348.976 45.3965 347.42C45.3965 345.39 43.5947 344.036 40.958 344.036C38.207 344.036 36.3789 345.565 36.2822 347.912H38.7256C38.7959 346.805 39.6133 346.075 40.8438 346.075C42.1621 346.075 42.8916 346.752 42.8916 347.78C42.8916 348.826 42.0742 349.547 40.8613 349.547H39.3232V351.463ZM48.2354 357H51.0215L56.3125 346.453V344.317H47.2422V346.427H53.6934V346.479L48.2354 357ZM63.1592 347.358C63.1592 345.346 62.043 344.071 60.2676 344.071C58.501 344.071 57.376 345.346 57.376 347.358C57.376 349.38 58.501 350.646 60.2676 350.646C62.043 350.646 63.1592 349.38 63.1592 347.358ZM60.2676 349.09C59.6963 349.09 59.3447 348.439 59.3447 347.35C59.3447 346.26 59.6963 345.601 60.2676 345.601C60.8389 345.601 61.1904 346.26 61.1904 347.35C61.1904 348.439 60.8389 349.09 60.2676 349.09ZM60.7598 357L65.2246 350.874L70.0059 344.317H67.8877L63.5547 350.259L58.6328 357H60.7598ZM71.2627 353.889C71.2627 351.876 70.1465 350.602 68.3711 350.602C66.6045 350.602 65.4795 351.876 65.4795 353.889C65.4795 355.91 66.6045 357.185 68.3711 357.185C70.1465 357.185 71.2627 355.91 71.2627 353.889ZM68.3711 355.62C67.7998 355.62 67.4482 354.97 67.4482 353.88C67.4482 352.79 67.7998 352.131 68.3711 352.131C68.9424 352.131 69.2939 352.79 69.2939 353.88C69.2939 354.97 68.9424 355.62 68.3711 355.62Z" fill="url(#paint2_linear_1108_12001)"/>
<path d="M43.5176 368.449V367.494H39.9551V368.783H41.7949L41.7891 368.918C41.7539 369.967 40.9512 370.676 39.7969 370.676C38.3906 370.676 37.5 369.557 37.5 367.723C37.5 365.924 38.3379 364.863 39.7324 364.863C40.6875 364.863 41.4082 365.391 41.666 366.275H43.4414C43.1895 364.564 41.7012 363.398 39.7266 363.398C37.2422 363.398 35.6953 365.039 35.6953 367.746C35.6953 370.494 37.2422 372.146 39.7676 372.146C42.123 372.146 43.5176 370.752 43.5176 368.449ZM44.543 372H46.2539V368.49C46.2539 367.605 46.7461 367.09 47.5898 367.09C47.8359 367.09 48.0703 367.131 48.2109 367.189V365.684C48.0938 365.648 47.9238 365.619 47.7246 365.619C46.9863 365.619 46.4531 366.053 46.2305 366.85H46.1953V365.719H44.543V372ZM51.5859 372.135C53.4844 372.135 54.6973 370.922 54.6973 368.854C54.6973 366.814 53.4668 365.584 51.5859 365.584C49.7051 365.584 48.4746 366.82 48.4746 368.854C48.4746 370.916 49.6875 372.135 51.5859 372.135ZM51.5859 370.828C50.7422 370.828 50.209 370.119 50.209 368.859C50.209 367.611 50.7539 366.891 51.5859 366.891C52.418 366.891 52.957 367.611 52.957 368.859C52.957 370.119 52.4238 370.828 51.5859 370.828ZM64.3359 365.719H62.6484L61.6934 370.377H61.6582L60.5391 365.719H58.8984L57.7852 370.377H57.75L56.8008 365.719H55.0781L56.748 372H58.5469L59.6777 367.559H59.7129L60.8496 372H62.6719L64.3359 365.719ZM65.4609 364.271V365.719H64.5762V367.008H65.4609V370.307C65.4609 371.531 66.0352 372.023 67.5117 372.023C67.8574 372.023 68.1504 371.994 68.3262 371.953V370.693C68.2207 370.711 68.0625 370.723 67.9102 370.723C67.4062 370.723 67.1719 370.494 67.1719 370.014V367.008H68.332V365.719H67.1719V364.271H65.4609ZM69.3105 372H71.0215V368.414C71.0215 367.588 71.4961 367.02 72.3047 367.02C73.084 367.02 73.4824 367.512 73.4824 368.32V372H75.1934V367.957C75.1934 366.504 74.3965 365.602 73.002 365.602C72.0469 365.602 71.3613 366.047 71.0273 366.838H70.9922V363.545H69.3105V372ZM78.668 372H80.3789V368.49C80.3789 367.605 80.8711 367.09 81.7148 367.09C81.9609 367.09 82.1953 367.131 82.3359 367.189V365.684C82.2188 365.648 82.0488 365.619 81.8496 365.619C81.1113 365.619 80.5781 366.053 80.3555 366.85H80.3203V365.719H78.668V372ZM85.3125 370.863C84.7324 370.863 84.3457 370.57 84.3457 370.102C84.3457 369.656 84.709 369.369 85.3477 369.322L86.6719 369.24V369.697C86.6719 370.377 86.0566 370.863 85.3125 370.863ZM84.75 372.1C85.5352 372.1 86.3145 371.707 86.666 371.039H86.7012V372H88.3535V367.682C88.3535 366.416 87.3047 365.584 85.6934 365.584C84.0293 365.584 82.9922 366.422 82.9277 367.641H84.4922C84.5742 367.178 84.9785 366.861 85.6172 366.861C86.2617 366.861 86.6719 367.201 86.6719 367.787V368.203L85.0898 368.297C83.5254 368.391 82.6465 369.053 82.6465 370.195C82.6465 371.326 83.5547 372.1 84.75 372.1ZM89.918 364.271V365.719H89.0332V367.008H89.918V370.307C89.918 371.531 90.4922 372.023 91.9688 372.023C92.3145 372.023 92.6074 371.994 92.7832 371.953V370.693C92.6777 370.711 92.5195 370.723 92.3672 370.723C91.8633 370.723 91.6289 370.494 91.6289 370.014V367.008H92.7891V365.719H91.6289V364.271H89.918ZM96.4512 366.85C97.2129 366.85 97.7344 367.4 97.7695 368.203H95.1035C95.1621 367.418 95.7012 366.85 96.4512 366.85ZM97.793 370.078C97.6348 370.559 97.1543 370.869 96.5273 370.869C95.6543 370.869 95.0859 370.254 95.0859 369.357V369.252H99.416V368.73C99.416 366.82 98.2617 365.584 96.4336 365.584C94.5762 365.584 93.4043 366.885 93.4043 368.889C93.4043 370.898 94.5645 372.135 96.498 372.135C98.0508 372.135 99.1758 371.309 99.3633 370.078H97.793Z" fill="#393E50"/>
<path d="M185 357.5C188.667 334.167 197.833 334.167 212.5 357.5C227.167 380.833 236.333 380.833 240 357.5" stroke="url(#paint3_linear_1108_12001)" stroke-width="2"/>
<path d="M20 427C20 417.572 20 412.858 22.9289 409.929C25.8579 407 30.5719 407 40 407H253C262.428 407 267.142 407 270.071 409.929C273 412.858 273 417.572 273 427V452C273 461.428 273 466.142 270.071 469.071C267.142 472 262.428 472 253 472H40C30.5719 472 25.8579 472 22.9289 469.071C20 466.142 20 461.428 20 452V427Z" fill="#ECF9FF"/>
<path d="M41.8936 434.966V432.725H36.1191V434.966H41.8936ZM44.5479 439H47.334L52.625 428.453V426.317H43.5547V428.427H50.0059V428.479L44.5479 439ZM59.4717 429.358C59.4717 427.346 58.3555 426.071 56.5801 426.071C54.8135 426.071 53.6885 427.346 53.6885 429.358C53.6885 431.38 54.8135 432.646 56.5801 432.646C58.3555 432.646 59.4717 431.38 59.4717 429.358ZM56.5801 431.09C56.0088 431.09 55.6572 430.439 55.6572 429.35C55.6572 428.26 56.0088 427.601 56.5801 427.601C57.1514 427.601 57.5029 428.26 57.5029 429.35C57.5029 430.439 57.1514 431.09 56.5801 431.09ZM57.0723 439L61.5371 432.874L66.3184 426.317H64.2002L59.8672 432.259L54.9453 439H57.0723ZM67.5752 435.889C67.5752 433.876 66.459 432.602 64.6836 432.602C62.917 432.602 61.792 433.876 61.792 435.889C61.792 437.91 62.917 439.185 64.6836 439.185C66.459 439.185 67.5752 437.91 67.5752 435.889ZM64.6836 437.62C64.1123 437.62 63.7607 436.97 63.7607 435.88C63.7607 434.79 64.1123 434.131 64.6836 434.131C65.2549 434.131 65.6064 434.79 65.6064 435.88C65.6064 436.97 65.2549 437.62 64.6836 437.62Z" fill="#CF5034"/>
<path d="M35.9062 445.545V454H37.6758V451.334H39.2578C41.0391 451.334 42.2754 450.174 42.2754 448.439C42.2754 446.699 41.0801 445.545 39.3457 445.545H35.9062ZM37.6758 446.945H38.877C39.8906 446.945 40.4766 447.484 40.4766 448.445C40.4766 449.412 39.8848 449.951 38.8711 449.951H37.6758V446.945ZM43.1777 454H44.8887V450.49C44.8887 449.605 45.3809 449.09 46.2246 449.09C46.4707 449.09 46.7051 449.131 46.8457 449.189V447.684C46.7285 447.648 46.5586 447.619 46.3594 447.619C45.6211 447.619 45.0879 448.053 44.8652 448.85H44.8301V447.719H43.1777V454ZM47.5781 454H49.2891V447.719H47.5781V454ZM48.4336 447.027C48.9492 447.027 49.3477 446.635 49.3477 446.143C49.3477 445.645 48.9492 445.258 48.4336 445.258C47.918 445.258 47.5195 445.645 47.5195 446.143C47.5195 446.635 47.918 447.027 48.4336 447.027ZM56.1387 450.057C56.0625 448.633 54.9844 447.584 53.2852 447.584C51.4043 447.584 50.2031 448.838 50.2031 450.854C50.2031 452.904 51.4043 454.135 53.2969 454.135C54.9492 454.135 56.0566 453.18 56.1445 451.697H54.5508C54.4453 452.383 54 452.793 53.3145 452.793C52.4648 452.793 51.9375 452.09 51.9375 450.854C51.9375 449.641 52.4648 448.926 53.3086 448.926C54.0117 448.926 54.4512 449.395 54.5508 450.057H56.1387ZM59.7891 448.85C60.5508 448.85 61.0723 449.4 61.1074 450.203H58.4414C58.5 449.418 59.0391 448.85 59.7891 448.85ZM61.1309 452.078C60.9727 452.559 60.4922 452.869 59.8652 452.869C58.9922 452.869 58.4238 452.254 58.4238 451.357V451.252H62.7539V450.73C62.7539 448.82 61.5996 447.584 59.7715 447.584C57.9141 447.584 56.7422 448.885 56.7422 450.889C56.7422 452.898 57.9023 454.135 59.8359 454.135C61.3887 454.135 62.5137 453.309 62.7012 452.078H61.1309ZM66.4746 454H68.1855V449.008H69.3926V447.748H68.1445V447.332C68.1445 446.887 68.3906 446.641 68.9531 446.641C69.123 446.641 69.293 446.652 69.416 446.676V445.545C69.2168 445.504 68.8594 445.469 68.543 445.469C67.0547 445.469 66.4746 446.043 66.4746 447.273V447.748H65.6191V449.008H66.4746V454ZM72.3926 452.863C71.8125 452.863 71.4258 452.57 71.4258 452.102C71.4258 451.656 71.7891 451.369 72.4277 451.322L73.752 451.24V451.697C73.752 452.377 73.1367 452.863 72.3926 452.863ZM71.8301 454.1C72.6152 454.1 73.3945 453.707 73.7461 453.039H73.7812V454H75.4336V449.682C75.4336 448.416 74.3848 447.584 72.7734 447.584C71.1094 447.584 70.0723 448.422 70.0078 449.641H71.5723C71.6543 449.178 72.0586 448.861 72.6973 448.861C73.3418 448.861 73.752 449.201 73.752 449.787V450.203L72.1699 450.297C70.6055 450.391 69.7266 451.053 69.7266 452.195C69.7266 453.326 70.6348 454.1 71.8301 454.1ZM76.582 454H78.293V445.545H76.582V454ZM79.4883 454H81.1992V445.545H79.4883V454Z" fill="#393E50"/>
<path d="M167 439.5C170.667 416.167 179.833 416.167 194.5 439.5C209.167 462.833 204 423.5 222 439.5" stroke="url(#paint4_linear_1108_12001)" stroke-width="2"/>
<rect x="407" y="60" width="217" height="222" rx="20" fill="white"/>
<path d="M433.878 97.2197C436.989 97.2197 439.16 95.4268 439.459 92.5967H436.875C436.594 94.0996 435.46 95.0225 433.887 95.0225C431.856 95.0225 430.582 93.3525 430.582 90.6455C430.582 87.9736 431.874 86.2949 433.878 86.2949C435.425 86.2949 436.62 87.3145 436.866 88.8701H439.45C439.248 86.0312 436.928 84.0977 433.878 84.0977C430.204 84.0977 427.875 86.5674 427.875 90.6543C427.875 94.75 430.187 97.2197 433.878 97.2197ZM440.944 97H443.511V84.3174H440.944V97ZM445.286 97H447.853V87.5781H445.286V97ZM446.569 86.541C447.343 86.541 447.94 85.9521 447.94 85.2139C447.94 84.4668 447.343 83.8867 446.569 83.8867C445.796 83.8867 445.198 84.4668 445.198 85.2139C445.198 85.9521 445.796 86.541 446.569 86.541ZM453.794 89.2744C454.937 89.2744 455.719 90.1006 455.771 91.3047H451.772C451.86 90.127 452.669 89.2744 453.794 89.2744ZM455.807 94.1172C455.569 94.8379 454.849 95.3037 453.908 95.3037C452.599 95.3037 451.746 94.3809 451.746 93.0361V92.8779H458.241V92.0957C458.241 89.2305 456.51 87.376 453.768 87.376C450.981 87.376 449.224 89.3271 449.224 92.333C449.224 95.3477 450.964 97.2021 453.864 97.2021C456.193 97.2021 457.881 95.9629 458.162 94.1172H455.807ZM459.568 97H462.135V91.5947C462.135 90.373 462.864 89.5293 464.016 89.5293C465.167 89.5293 465.747 90.2324 465.747 91.4629V97H468.313V90.9268C468.313 88.7207 467.136 87.4023 465.044 87.4023C463.594 87.4023 462.601 88.0879 462.1 89.2568H462.047V87.5781H459.568V97ZM470.625 85.4072V87.5781H469.298V89.5117H470.625V94.46C470.625 96.2969 471.486 97.0352 473.701 97.0352C474.22 97.0352 474.659 96.9912 474.923 96.9297V95.04C474.765 95.0664 474.527 95.084 474.299 95.084C473.543 95.084 473.191 94.7412 473.191 94.0205V89.5117H474.932V87.5781H473.191V85.4072H470.625ZM476.18 90.3467C476.18 91.7354 477.094 92.667 478.878 93.0713L480.618 93.458C481.462 93.6602 481.778 93.9238 481.778 94.3984C481.778 95.0137 481.189 95.4004 480.214 95.4004C479.194 95.4004 478.57 94.9434 478.447 94.1523H475.942C476.083 95.9893 477.63 97.2021 480.144 97.2021C482.631 97.2021 484.336 95.9805 484.336 94.126C484.336 92.7197 483.571 91.9727 481.682 91.5508L479.88 91.1641C479.054 90.9707 478.649 90.6543 478.649 90.1885C478.649 89.582 479.229 89.1777 480.117 89.1777C481.066 89.1777 481.673 89.6436 481.726 90.3994H484.09C484.055 88.5713 482.517 87.376 480.152 87.376C477.735 87.376 476.18 88.5537 476.18 90.3467Z" fill="#393E50"/>
<path d="M597.5 88C598.328 88 599 87.3284 599 86.5C599 85.6716 598.328 85 597.5 85C596.672 85 596 85.6716 596 86.5C596 87.3284 596.672 88 597.5 88Z" fill="black"/>
<path d="M597.5 96C598.328 96 599 95.3284 599 94.5C599 93.6716 598.328 93 597.5 93C596.672 93 596 93.6716 596 94.5C596 95.3284 596.672 96 597.5 96Z" fill="black"/>
<line x1="427" y1="117.5" x2="604" y2="117.5" stroke="#393E50" stroke-opacity="0.2"/>
<rect x="427.5" y="135.5" width="32" height="32" rx="16" fill="#F13434" fill-opacity="0.2" stroke="white"/>
<rect x="480" y="139" width="119" height="8" rx="4" fill="#EDF6F3"/>
<rect x="480" y="156" width="72" height="8" rx="4" fill="#EDF6F3"/>
<rect x="427" y="182" width="33" height="33" rx="16.5" fill="#EDF6F3"/>
<rect x="480" y="186" width="119" height="8" rx="4" fill="#EDF6F3"/>
<rect x="480" y="203" width="72" height="8" rx="4" fill="#EDF6F3"/>
<rect x="427" y="229" width="33" height="33" rx="16.5" fill="#EDF6F3"/>
<rect x="480" y="233" width="119" height="8" rx="4" fill="#EDF6F3"/>
<rect x="480" y="250" width="72" height="8" rx="4" fill="#EDF6F3"/>
<rect x="309" y="299" width="241" height="65" rx="7" fill="white"/>
<path d="M361.1 320.262C361.1 319.954 361.23 319.658 361.463 319.44C361.695 319.222 362.009 319.1 362.338 319.1H366.463C366.791 319.1 367.106 319.222 367.338 319.44C367.57 319.658 367.7 319.954 367.7 320.262V324.137C367.7 324.445 367.57 324.741 367.338 324.959C367.106 325.177 366.791 325.3 366.463 325.3C366.134 325.3 365.82 325.177 365.588 324.959C365.355 324.741 365.225 324.445 365.225 324.137V323.068L357.85 329.996C357.618 330.214 357.303 330.336 356.975 330.336C356.647 330.336 356.333 330.214 356.101 329.996L352.025 326.168L345.062 332.709C344.949 332.823 344.812 332.914 344.66 332.978C344.509 333.042 344.345 333.076 344.179 333.078C344.012 333.081 343.847 333.052 343.693 332.994C343.539 332.936 343.399 332.849 343.282 332.738C343.164 332.628 343.071 332.496 343.009 332.351C342.947 332.207 342.916 332.052 342.919 331.896C342.922 331.74 342.959 331.586 343.026 331.443C343.094 331.3 343.191 331.172 343.313 331.066L351.151 323.703C351.383 323.485 351.697 323.363 352.025 323.363C352.353 323.363 352.668 323.485 352.9 323.703L356.975 327.532L363.476 321.425H362.338C362.009 321.425 361.695 321.302 361.463 321.084C361.23 320.866 361.1 320.57 361.1 320.262ZM344.188 337.7C344.516 337.7 344.831 337.822 345.063 338.04C345.295 338.258 345.425 338.554 345.425 338.862V342.737C345.425 343.045 345.295 343.341 345.063 343.559C344.831 343.777 344.516 343.9 344.188 343.9C343.859 343.9 343.545 343.777 343.313 343.559C343.08 343.341 342.95 343.045 342.95 342.737V338.862C342.95 338.554 343.08 338.258 343.313 338.04C343.545 337.822 343.859 337.7 344.188 337.7ZM352.025 334.212C352.025 333.904 351.895 333.608 351.663 333.39C351.431 333.172 351.116 333.05 350.788 333.05C350.459 333.05 350.145 333.172 349.913 333.39C349.68 333.608 349.55 333.904 349.55 334.212V342.737C349.55 343.045 349.68 343.341 349.913 343.559C350.145 343.777 350.459 343.9 350.788 343.9C351.116 343.9 351.431 343.777 351.663 343.559C351.895 343.341 352.025 343.045 352.025 342.737V334.212ZM357.388 336.15C357.716 336.15 358.031 336.272 358.263 336.49C358.495 336.708 358.625 337.004 358.625 337.312V342.737C358.625 343.045 358.495 343.341 358.263 343.559C358.031 343.777 357.716 343.9 357.388 343.9C357.059 343.9 356.745 343.777 356.513 343.559C356.28 343.341 356.15 343.045 356.15 342.737V337.312C356.15 337.004 356.28 336.708 356.513 336.49C356.745 336.272 357.059 336.15 357.388 336.15ZM365.225 331.112C365.225 330.804 365.095 330.508 364.863 330.29C364.631 330.072 364.316 329.95 363.988 329.95C363.659 329.95 363.345 330.072 363.113 330.29C362.88 330.508 362.75 330.804 362.75 331.112V342.737C362.75 343.045 362.88 343.341 363.113 343.559C363.345 343.777 363.659 343.9 363.988 343.9C364.316 343.9 364.631 343.777 364.863 343.559C365.095 343.341 365.225 343.045 365.225 342.737V331.112Z" fill="#1D4ED8" fill-opacity="0.3"/>
<path d="M380.995 337.5V327.062H377.476V325.6H386.299V327.062H382.797V337.5H380.995ZM387.021 337.5V329.068H388.636L388.789 330.666C389.084 330.111 389.492 329.674 390.013 329.357C390.546 329.028 391.186 328.864 391.934 328.864V330.751H391.441C390.942 330.751 390.495 330.836 390.098 331.006C389.713 331.165 389.401 331.442 389.163 331.839C388.936 332.224 388.823 332.763 388.823 333.454V337.5H387.021ZM396.335 337.704C395.621 337.704 395.032 337.585 394.567 337.347C394.102 337.109 393.757 336.797 393.53 336.412C393.303 336.015 393.19 335.585 393.19 335.12C393.19 334.304 393.507 333.658 394.142 333.182C394.777 332.706 395.683 332.468 396.862 332.468H399.072V332.315C399.072 331.658 398.891 331.165 398.528 330.836C398.177 330.507 397.718 330.343 397.151 330.343C396.652 330.343 396.216 330.468 395.842 330.717C395.479 330.955 395.258 331.312 395.179 331.788H393.377C393.434 331.176 393.638 330.655 393.989 330.224C394.352 329.782 394.805 329.448 395.349 329.221C395.904 328.983 396.511 328.864 397.168 328.864C398.347 328.864 399.259 329.176 399.905 329.799C400.551 330.411 400.874 331.25 400.874 332.315V337.5H399.31L399.157 336.055C398.919 336.52 398.573 336.911 398.12 337.228C397.667 337.545 397.072 337.704 396.335 337.704ZM396.692 336.242C397.179 336.242 397.587 336.129 397.916 335.902C398.256 335.664 398.517 335.352 398.698 334.967C398.891 334.582 399.01 334.157 399.055 333.692H397.049C396.335 333.692 395.825 333.817 395.519 334.066C395.224 334.315 395.077 334.627 395.077 335.001C395.077 335.386 395.219 335.692 395.502 335.919C395.797 336.134 396.193 336.242 396.692 336.242ZM406.97 337.704C406.143 337.704 405.4 337.517 404.743 337.143C404.097 336.769 403.587 336.253 403.213 335.596C402.85 334.927 402.669 334.157 402.669 333.284C402.669 332.411 402.85 331.646 403.213 330.989C403.587 330.32 404.097 329.799 404.743 329.425C405.4 329.051 406.143 328.864 406.97 328.864C408.013 328.864 408.885 329.136 409.588 329.68C410.302 330.224 410.761 330.961 410.965 331.89H409.078C408.965 331.425 408.715 331.063 408.33 330.802C407.945 330.541 407.491 330.411 406.97 330.411C406.528 330.411 406.12 330.524 405.746 330.751C405.372 330.966 405.072 331.289 404.845 331.72C404.618 332.139 404.505 332.661 404.505 333.284C404.505 333.907 404.618 334.434 404.845 334.865C405.072 335.284 405.372 335.607 405.746 335.834C406.12 336.061 406.528 336.174 406.97 336.174C407.491 336.174 407.945 336.044 408.33 335.783C408.715 335.522 408.965 335.154 409.078 334.678H410.965C410.772 335.585 410.319 336.316 409.605 336.871C408.891 337.426 408.013 337.704 406.97 337.704ZM412.919 337.5V325.26H414.721V332.553L417.951 329.068H420.11L416.523 332.893L420.637 337.5H418.359L414.721 333.182V337.5H412.919ZM426.317 337.5V329.068H427.915L428.051 330.547C428.311 330.026 428.691 329.618 429.19 329.323C429.7 329.017 430.283 328.864 430.941 328.864C431.961 328.864 432.76 329.181 433.338 329.816C433.927 330.451 434.222 331.397 434.222 332.655V337.5H432.437V332.842C432.437 331.21 431.768 330.394 430.431 330.394C429.762 330.394 429.207 330.632 428.765 331.108C428.334 331.584 428.119 332.264 428.119 333.148V337.5H426.317ZM440.288 337.704C439.461 337.704 438.724 337.523 438.078 337.16C437.443 336.786 436.945 336.27 436.582 335.613C436.219 334.956 436.038 334.191 436.038 333.318C436.038 332.434 436.214 331.658 436.565 330.989C436.928 330.32 437.426 329.799 438.061 329.425C438.707 329.051 439.455 328.864 440.305 328.864C441.132 328.864 441.852 329.051 442.464 329.425C443.076 329.788 443.552 330.275 443.892 330.887C444.232 331.499 444.402 332.173 444.402 332.91C444.402 333.023 444.396 333.148 444.385 333.284C444.385 333.409 444.379 333.55 444.368 333.709H437.806C437.863 334.525 438.129 335.148 438.605 335.579C439.092 335.998 439.653 336.208 440.288 336.208C440.798 336.208 441.223 336.095 441.563 335.868C441.914 335.63 442.175 335.313 442.345 334.916H444.147C443.92 335.709 443.467 336.372 442.787 336.905C442.118 337.438 441.285 337.704 440.288 337.704ZM440.288 330.343C439.687 330.343 439.155 330.524 438.69 330.887C438.225 331.238 437.942 331.771 437.84 332.485H442.6C442.566 331.828 442.334 331.306 441.903 330.921C441.472 330.536 440.934 330.343 440.288 330.343ZM447.623 337.5L445.141 329.068H446.943L448.575 335.426L450.411 329.068H452.417L454.253 335.426L455.885 329.068H457.687L455.205 337.5H453.352L451.414 330.87L449.476 337.5H447.623ZM465.817 337.5L462.655 329.068H464.542L466.888 335.783L469.234 329.068H471.104L467.959 337.5H465.817ZM473.605 327.47C473.265 327.47 472.982 327.368 472.755 327.164C472.54 326.949 472.432 326.682 472.432 326.365C472.432 326.048 472.54 325.787 472.755 325.583C472.982 325.368 473.265 325.26 473.605 325.26C473.945 325.26 474.223 325.368 474.438 325.583C474.665 325.787 474.778 326.048 474.778 326.365C474.778 326.682 474.665 326.949 474.438 327.164C474.223 327.368 473.945 327.47 473.605 327.47ZM472.704 337.5V329.068H474.506V337.5H472.704ZM480.251 337.704C479.186 337.704 478.307 337.443 477.616 336.922C476.925 336.401 476.528 335.709 476.426 334.848H478.245C478.336 335.233 478.551 335.568 478.891 335.851C479.231 336.123 479.679 336.259 480.234 336.259C480.778 336.259 481.175 336.146 481.424 335.919C481.673 335.692 481.798 335.432 481.798 335.137C481.798 334.706 481.622 334.417 481.271 334.27C480.931 334.111 480.455 333.97 479.843 333.845C479.367 333.743 478.891 333.607 478.415 333.437C477.95 333.267 477.559 333.029 477.242 332.723C476.936 332.406 476.783 331.981 476.783 331.448C476.783 330.711 477.066 330.099 477.633 329.612C478.2 329.113 478.993 328.864 480.013 328.864C480.954 328.864 481.713 329.091 482.291 329.544C482.88 329.997 483.226 330.638 483.328 331.465H481.594C481.537 331.102 481.367 330.819 481.084 330.615C480.812 330.411 480.444 330.309 479.979 330.309C479.526 330.309 479.174 330.405 478.925 330.598C478.676 330.779 478.551 331.017 478.551 331.312C478.551 331.607 478.721 331.839 479.061 332.009C479.412 332.179 479.871 332.332 480.438 332.468C481.005 332.593 481.526 332.74 482.002 332.91C482.489 333.069 482.88 333.307 483.175 333.624C483.47 333.941 483.617 334.406 483.617 335.018C483.628 335.789 483.328 336.429 482.716 336.939C482.115 337.449 481.294 337.704 480.251 337.704ZM486.604 327.47C486.264 327.47 485.981 327.368 485.754 327.164C485.539 326.949 485.431 326.682 485.431 326.365C485.431 326.048 485.539 325.787 485.754 325.583C485.981 325.368 486.264 325.26 486.604 325.26C486.944 325.26 487.222 325.368 487.437 325.583C487.664 325.787 487.777 326.048 487.777 326.365C487.777 326.682 487.664 326.949 487.437 327.164C487.222 327.368 486.944 327.47 486.604 327.47ZM485.703 337.5V329.068H487.505V337.5H485.703ZM493.42 337.5C492.593 337.5 491.935 337.302 491.448 336.905C490.961 336.497 490.717 335.777 490.717 334.746V330.581H489.272V329.068H490.717L490.938 326.926H492.519V329.068H494.899V330.581H492.519V334.746C492.519 335.211 492.615 335.534 492.808 335.715C493.012 335.885 493.358 335.97 493.845 335.97H494.814V337.5H493.42ZM500.485 337.704C499.681 337.704 498.955 337.523 498.309 337.16C497.675 336.786 497.17 336.27 496.796 335.613C496.422 334.944 496.235 334.168 496.235 333.284C496.235 332.4 496.422 331.629 496.796 330.972C497.182 330.303 497.697 329.788 498.343 329.425C498.989 329.051 499.709 328.864 500.502 328.864C501.307 328.864 502.027 329.051 502.661 329.425C503.307 329.788 503.817 330.303 504.191 330.972C504.577 331.629 504.769 332.4 504.769 333.284C504.769 334.168 504.577 334.944 504.191 335.613C503.817 336.27 503.307 336.786 502.661 337.16C502.015 337.523 501.29 337.704 500.485 337.704ZM500.485 336.157C500.916 336.157 501.313 336.049 501.675 335.834C502.049 335.619 502.35 335.301 502.576 334.882C502.803 334.451 502.916 333.919 502.916 333.284C502.916 332.649 502.803 332.122 502.576 331.703C502.361 331.272 502.066 330.949 501.692 330.734C501.33 330.519 500.933 330.411 500.502 330.411C500.072 330.411 499.669 330.519 499.295 330.734C498.933 330.949 498.638 331.272 498.411 331.703C498.185 332.122 498.071 332.649 498.071 333.284C498.071 333.919 498.185 334.451 498.411 334.882C498.638 335.301 498.933 335.619 499.295 335.834C499.658 336.049 500.055 336.157 500.485 336.157ZM506.718 337.5V329.068H508.333L508.486 330.666C508.781 330.111 509.189 329.674 509.71 329.357C510.243 329.028 510.883 328.864 511.631 328.864V330.751H511.138C510.639 330.751 510.192 330.836 509.795 331.006C509.41 331.165 509.098 331.442 508.86 331.839C508.633 332.224 508.52 332.763 508.52 333.454V337.5H506.718ZM516.542 337.704C515.477 337.704 514.598 337.443 513.907 336.922C513.216 336.401 512.819 335.709 512.717 334.848H514.536C514.627 335.233 514.842 335.568 515.182 335.851C515.522 336.123 515.97 336.259 516.525 336.259C517.069 336.259 517.466 336.146 517.715 335.919C517.964 335.692 518.089 335.432 518.089 335.137C518.089 334.706 517.913 334.417 517.562 334.27C517.222 334.111 516.746 333.97 516.134 333.845C515.658 333.743 515.182 333.607 514.706 333.437C514.241 333.267 513.85 333.029 513.533 332.723C513.227 332.406 513.074 331.981 513.074 331.448C513.074 330.711 513.357 330.099 513.924 329.612C514.491 329.113 515.284 328.864 516.304 328.864C517.245 328.864 518.004 329.091 518.582 329.544C519.171 329.997 519.517 330.638 519.619 331.465H517.885C517.828 331.102 517.658 330.819 517.375 330.615C517.103 330.411 516.735 330.309 516.27 330.309C515.817 330.309 515.465 330.405 515.216 330.598C514.967 330.779 514.842 331.017 514.842 331.312C514.842 331.607 515.012 331.839 515.352 332.009C515.703 332.179 516.162 332.332 516.729 332.468C517.296 332.593 517.817 332.74 518.293 332.91C518.78 333.069 519.171 333.307 519.466 333.624C519.761 333.941 519.908 334.406 519.908 335.018C519.919 335.789 519.619 336.429 519.007 336.939C518.406 337.449 517.585 337.704 516.542 337.704Z" fill="#1D4ED8"/>
<defs>
<filter id="filter0_d_1108_12001" x="166.5" y="100" width="80" height="80" filterUnits="userSpaceOnUse" color-interpolation-filters="sRGB">
<feFlood flood-opacity="0" result="BackgroundImageFix"/>
<feColorMatrix in="SourceAlpha" type="matrix" values="0 0 0 0 0 0 0 0 0 0 0 0 0 0 0 0 0 0 127 0" result="hardAlpha"/>
<feOffset/>
<feGaussianBlur stdDeviation="10"/>
<feComposite in2="hardAlpha" operator="out"/>
<feColorMatrix type="matrix" values="0 0 0 0 0 0 0 0 0 0 0 0 0 0 0 0 0 0 0.1 0"/>
<feBlend mode="normal" in2="BackgroundImageFix" result="effect1_dropShadow_1108_12001"/>
<feBlend mode="normal" in="SourceGraphic" in2="effect1_dropShadow_1108_12001" result="shape"/>
</filter>
<filter id="filter1_d_1108_12001" x="166.5" y="153" width="80" height="80" filterUnits="userSpaceOnUse" color-interpolation-filters="sRGB">
<feFlood flood-opacity="0" result="BackgroundImageFix"/>
<feColorMatrix in="SourceAlpha" type="matrix" values="0 0 0 0 0 0 0 0 0 0 0 0 0 0 0 0 0 0 127 0" result="hardAlpha"/>
<feOffset/>
<feGaussianBlur stdDeviation="10"/>
<feComposite in2="hardAlpha" operator="out"/>
<feColorMatrix type="matrix" values="0 0 0 0 0 0 0 0 0 0 0 0 0 0 0 0 0 0 0.1 0"/>
<feBlend mode="normal" in2="BackgroundImageFix" result="effect1_dropShadow_1108_12001"/>
<feBlend mode="normal" in="SourceGraphic" in2="effect1_dropShadow_1108_12001" result="shape"/>
</filter>
<linearGradient id="paint0_linear_1108_12001" x1="180.5" y1="36.7703" x2="196.5" y2="36.7703" gradientUnits="userSpaceOnUse">
<stop stop-color="#00469F"/>
<stop offset="1" stop-color="#1E79D6"/>
</linearGradient>
<linearGradient id="paint1_linear_1108_12001" x1="219.5" y1="28.7297" x2="355.5" y2="28.7297" gradientUnits="userSpaceOnUse">
<stop stop-color="#00469F"/>
<stop offset="1" stop-color="#1E79D6"/>
</linearGradient>
<linearGradient id="paint2_linear_1108_12001" x1="35" y1="350.784" x2="72" y2="350.784" gradientUnits="userSpaceOnUse">
<stop stop-color="#00469F"/>
<stop offset="1" stop-color="#1E79D6"/>
</linearGradient>
<linearGradient id="paint3_linear_1108_12001" x1="185" y1="357.973" x2="240" y2="357.973" gradientUnits="userSpaceOnUse">
<stop stop-color="#00469F"/>
<stop offset="1" stop-color="#1E79D6"/>
</linearGradient>
<linearGradient id="paint4_linear_1108_12001" x1="167" y1="434.89" x2="222" y2="434.89" gradientUnits="userSpaceOnUse">
<stop stop-color="#9E3131"/>
<stop offset="1" stop-color="#F45B5B"/>
</linearGradient>
</defs>
</svg>
