<svg width="452" height="283" viewBox="0 0 452 283" fill="none" xmlns="http://www.w3.org/2000/svg">
<g clip-path="url(#clip0_232_3916)">
<path d="M170.94 281.87H168.58V270.77H170.94V281.87Z" fill="#231F20"/>
<path d="M184.83 281.87H182.56L177.27 274.64V281.87H174.91V270.77H177.34L182.47 277.77V270.77H184.83V281.87Z" fill="#231F20"/>
<path d="M198.72 281.87H196.44L191.16 274.64V281.87H188.8V270.77H191.23L196.36 277.77V270.77H198.72V281.87Z" fill="#231F20"/>
<path d="M208 282.05C207.232 282.076 206.467 281.947 205.751 281.67C205.034 281.393 204.381 280.975 203.83 280.44C202.778 279.326 202.192 277.852 202.192 276.32C202.192 274.788 202.778 273.314 203.83 272.2C204.964 271.161 206.447 270.584 207.985 270.584C209.523 270.584 211.006 271.161 212.14 272.2C213.186 273.313 213.769 274.783 213.769 276.31C213.769 277.837 213.186 279.307 212.14 280.42C211.597 280.958 210.949 281.38 210.238 281.661C209.526 281.941 208.765 282.073 208 282.05ZM205.55 278.93C205.868 279.255 206.247 279.514 206.666 279.69C207.085 279.867 207.535 279.958 207.99 279.958C208.445 279.958 208.895 279.867 209.314 279.69C209.733 279.514 210.112 279.255 210.43 278.93C211.026 278.191 211.351 277.27 211.351 276.32C211.351 275.37 211.026 274.449 210.43 273.71C210.123 273.376 209.746 273.114 209.326 272.941C208.906 272.768 208.454 272.689 208 272.71C207.542 272.687 207.084 272.764 206.659 272.937C206.234 273.11 205.852 273.374 205.54 273.71C204.916 274.433 204.588 275.365 204.62 276.32C204.575 277.271 204.894 278.204 205.51 278.93H205.55Z" fill="#231F20"/>
<path d="M222.91 281.87H219.91L215.64 270.79H218.31L221.39 279.3L224.46 270.79H227.14L222.91 281.87Z" fill="#231F20"/>
<path d="M239.54 281.87H236.86L236.16 279.99H231.41L230.71 281.87H228L232.27 270.79H235.27L239.54 281.87ZM235.54 277.87L233.81 273.1L232.06 277.87H235.54Z" fill="#231F20"/>
<path d="M246.21 281.87H243.84V272.87H240.6V270.77H249.44V272.87H246.21V281.87Z" fill="#231F20"/>
<path d="M255.09 281.87H252.73V270.77H255.09V281.87Z" fill="#231F20"/>
<path d="M264.32 282.05C263.554 282.075 262.791 281.945 262.076 281.669C261.361 281.392 260.71 280.974 260.16 280.44C259.108 279.326 258.522 277.852 258.522 276.32C258.522 274.788 259.108 273.314 260.16 272.2C261.294 271.161 262.777 270.584 264.315 270.584C265.854 270.584 267.336 271.161 268.47 272.2C269.516 273.313 270.099 274.783 270.099 276.31C270.099 277.837 269.516 279.307 268.47 280.42C267.925 280.959 267.276 281.381 266.562 281.661C265.849 281.941 265.086 282.073 264.32 282.05ZM261.88 278.93C262.198 279.255 262.577 279.514 262.996 279.69C263.415 279.867 263.865 279.958 264.32 279.958C264.775 279.958 265.225 279.867 265.644 279.69C266.063 279.514 266.443 279.255 266.76 278.93C267.356 278.191 267.681 277.27 267.681 276.32C267.681 275.37 267.356 274.449 266.76 273.71C266.442 273.384 266.061 273.126 265.641 272.949C265.222 272.772 264.771 272.681 264.315 272.681C263.86 272.681 263.409 272.772 262.989 272.949C262.569 273.126 262.189 273.384 261.87 273.71C261.246 274.433 260.918 275.365 260.95 276.32C260.917 277.277 261.249 278.21 261.88 278.93Z" fill="#231F20"/>
<path d="M283.46 281.87H281.18L275.9 274.64V281.87H273.54V270.77H276L281.13 277.77V270.77H283.49L283.46 281.87Z" fill="#231F20"/>
<path d="M171.27 264.79C170.355 264.815 169.467 264.477 168.8 263.85C168.171 263.206 167.819 262.341 167.819 261.44C167.819 260.539 168.171 259.674 168.8 259.03C169.468 258.406 170.356 258.071 171.27 258.1C171.823 258.076 172.371 258.212 172.849 258.493C173.326 258.773 173.712 259.185 173.96 259.68L172.78 260.26C172.636 259.983 172.418 259.751 172.15 259.59C171.89 259.414 171.584 259.32 171.27 259.32C170.998 259.311 170.728 259.361 170.476 259.464C170.224 259.567 169.997 259.723 169.81 259.92C169.447 260.335 169.247 260.868 169.247 261.42C169.247 261.972 169.447 262.505 169.81 262.92C169.997 263.117 170.224 263.273 170.476 263.376C170.728 263.479 170.998 263.529 171.27 263.52C171.583 263.524 171.89 263.433 172.15 263.26C172.419 263.096 172.637 262.86 172.78 262.58L173.96 263.16C173.715 263.661 173.331 264.081 172.854 264.37C172.377 264.659 171.828 264.805 171.27 264.79Z" fill="#231F20"/>
<path d="M178.9 264.79C178.453 264.805 178.007 264.729 177.589 264.568C177.172 264.406 176.791 264.162 176.47 263.85C175.853 263.201 175.509 262.34 175.509 261.445C175.509 260.55 175.853 259.689 176.47 259.04C177.132 258.436 177.995 258.102 178.89 258.102C179.786 258.102 180.649 258.436 181.31 259.04C181.926 259.687 182.27 260.546 182.27 261.44C182.27 262.334 181.926 263.193 181.31 263.84C180.994 264.154 180.617 264.4 180.203 264.563C179.789 264.726 179.345 264.804 178.9 264.79ZM177.47 262.96C177.656 263.149 177.878 263.299 178.123 263.402C178.367 263.504 178.63 263.557 178.895 263.557C179.16 263.557 179.423 263.504 179.668 263.402C179.912 263.299 180.134 263.149 180.32 262.96C180.654 262.531 180.836 262.003 180.836 261.46C180.836 260.917 180.654 260.389 180.32 259.96C180.141 259.763 179.922 259.607 179.676 259.503C179.431 259.4 179.166 259.351 178.9 259.36C178.632 259.348 178.365 259.395 178.118 259.499C177.87 259.603 177.649 259.76 177.47 259.96C177.131 260.386 176.947 260.915 176.947 261.46C176.947 262.005 177.131 262.534 177.47 262.96Z" fill="#231F20"/>
<path d="M190.06 264.67H188.73L185.65 260.45V264.67H184.28V258.2H185.69L188.69 262.26V258.2H190.06V264.67Z" fill="#231F20"/>
<path d="M195.26 264.67H193.87V259.42H192V258.2H197.16V259.42H195.28L195.26 264.67Z" fill="#231F20"/>
<path d="M200.43 264.67H199.06V258.2H200.43V264.67Z" fill="#231F20"/>
<path d="M208.54 264.67H207.21L204.13 260.45V264.67H202.75V258.2H204.16L207.16 262.26V258.2H208.54V264.67Z" fill="#231F20"/>
<path d="M216 264.05C215.375 264.53 214.608 264.79 213.82 264.79C213.032 264.79 212.265 264.53 211.64 264.05C211.384 263.786 211.186 263.472 211.059 263.128C210.932 262.784 210.877 262.417 210.9 262.05V258.17H212.3V262.01C212.289 262.212 212.317 262.414 212.384 262.604C212.451 262.795 212.555 262.97 212.69 263.12C212.839 263.264 213.017 263.374 213.211 263.445C213.406 263.516 213.613 263.544 213.82 263.53C214.025 263.544 214.231 263.515 214.424 263.445C214.617 263.374 214.793 263.263 214.94 263.12C215.075 262.97 215.179 262.795 215.246 262.604C215.313 262.414 215.341 262.212 215.33 262.01V258.17H216.74V262.05C216.763 262.417 216.708 262.784 216.581 263.128C216.454 263.472 216.256 263.786 216 264.05Z" fill="#231F20"/>
<path d="M222.08 264.79C221.632 264.805 221.187 264.729 220.769 264.568C220.352 264.406 219.971 264.162 219.65 263.85C219.033 263.201 218.689 262.34 218.689 261.445C218.689 260.55 219.033 259.689 219.65 259.04C220.311 258.436 221.174 258.102 222.07 258.102C222.965 258.102 223.828 258.436 224.49 259.04C225.106 259.687 225.45 260.546 225.45 261.44C225.45 262.334 225.106 263.193 224.49 263.84C224.174 264.154 223.797 264.4 223.383 264.563C222.968 264.726 222.525 264.804 222.08 264.79ZM220.65 262.96C220.836 263.149 221.058 263.299 221.302 263.402C221.547 263.504 221.81 263.557 222.075 263.557C222.34 263.557 222.603 263.504 222.847 263.402C223.092 263.299 223.314 263.149 223.5 262.96C223.834 262.531 224.015 262.003 224.015 261.46C224.015 260.917 223.834 260.389 223.5 259.96C223.321 259.763 223.101 259.607 222.856 259.503C222.611 259.4 222.346 259.351 222.08 259.36C221.812 259.348 221.545 259.395 221.297 259.499C221.05 259.603 220.829 259.76 220.65 259.96C220.311 260.386 220.126 260.915 220.126 261.46C220.126 262.005 220.311 262.534 220.65 262.96Z" fill="#231F20"/>
<path d="M232.55 264.05C231.926 264.529 231.162 264.789 230.375 264.789C229.589 264.789 228.824 264.529 228.2 264.05C227.942 263.788 227.743 263.474 227.616 263.129C227.488 262.785 227.435 262.417 227.46 262.05V258.17H228.85V262.01C228.838 262.212 228.868 262.415 228.936 262.606C229.005 262.797 229.112 262.972 229.25 263.12C229.563 263.386 229.96 263.532 230.37 263.532C230.78 263.532 231.177 263.386 231.49 263.12C231.627 262.97 231.732 262.795 231.801 262.605C231.869 262.414 231.9 262.212 231.89 262.01V258.17H233.29V262.05C233.313 262.417 233.258 262.784 233.131 263.128C233.004 263.472 232.806 263.786 232.55 264.05Z" fill="#231F20"/>
<path d="M237.91 264.79C237.408 264.817 236.906 264.742 236.433 264.57C235.961 264.398 235.528 264.133 235.16 263.79L235.92 262.71C236.18 262.994 236.497 263.219 236.85 263.371C237.204 263.522 237.586 263.597 237.97 263.59C238.264 263.605 238.555 263.536 238.81 263.39C238.897 263.336 238.969 263.26 239.019 263.171C239.07 263.082 239.098 262.982 239.1 262.88C239.097 262.79 239.069 262.702 239.02 262.626C238.97 262.551 238.901 262.49 238.82 262.45C238.61 262.32 238.375 262.235 238.13 262.2C237.86 262.2 237.56 262.07 237.24 261.98C236.932 261.896 236.632 261.789 236.34 261.66C236.059 261.533 235.82 261.328 235.65 261.07C235.452 260.775 235.354 260.425 235.37 260.07C235.37 259.801 235.431 259.536 235.547 259.294C235.662 259.052 235.831 258.839 236.04 258.67C236.552 258.277 237.186 258.079 237.83 258.11C238.755 258.075 239.657 258.397 240.35 259.01L239.58 260.01C239.072 259.535 238.396 259.28 237.7 259.3C237.465 259.289 237.232 259.348 237.03 259.47C236.954 259.522 236.892 259.592 236.85 259.674C236.808 259.756 236.788 259.848 236.79 259.94C236.796 260.025 236.826 260.106 236.875 260.174C236.925 260.243 236.992 260.297 237.07 260.33C237.283 260.442 237.513 260.52 237.75 260.56C238.03 260.62 238.33 260.69 238.65 260.79C238.954 260.883 239.251 260.997 239.54 261.13C239.817 261.259 240.055 261.459 240.23 261.71C240.422 262.007 240.516 262.357 240.5 262.71C240.51 262.994 240.455 263.276 240.341 263.535C240.227 263.795 240.056 264.026 239.84 264.21C239.289 264.633 238.603 264.839 237.91 264.79Z" fill="#231F20"/>
<path d="M140.2 40.26L138.58 38.79C139.76 37.49 140.99 36.19 142.22 34.95L143.77 36.49C142.56 37.71 141.36 38.98 140.2 40.26ZM302.2 34.79C300.96 33.59 299.67 32.41 298.38 31.27L299.82 29.63C301.14 30.79 302.45 32 303.72 33.22L302.2 34.79ZM148.11 32.3L146.65 30.68C147.95 29.5 149.3 28.34 150.65 27.22L152.04 28.9C150.75 30 149.43 31.14 148.15 32.3H148.11ZM293.73 27.38C292.38 26.32 290.98 25.26 289.58 24.26L290.85 22.48C292.28 23.48 293.7 24.58 295.08 25.67L293.73 27.38ZM156.12 25.69L154.81 23.94C156.45 22.71 158.14 21.51 159.81 20.37L161.02 22.18C159.43 23.3 157.77 24.48 156.16 25.69H156.12ZM285.29 21.33C283.61 20.23 281.87 19.16 280.13 18.16L281.22 16.27C282.99 17.27 284.77 18.38 286.49 19.5L285.29 21.33ZM165.44 19.39L164.31 17.52C165.81 16.61 167.36 15.72 168.9 14.88L169.9 16.8C168.47 17.63 167 18.5 165.48 19.39H165.44ZM275.57 15.67C274.04 14.88 272.47 14.11 270.9 13.39L271.82 11.39C273.41 12.12 275.01 12.9 276.57 13.71L275.57 15.67ZM175.34 14.05L174.4 12.05C175.99 11.29 177.61 10.56 179.23 9.88L180.08 11.88C178.53 12.59 176.94 13.31 175.38 14.05H175.34ZM265.34 11.05C263.74 10.42 262.1 9.81 260.47 9.25L261.18 7.17999C262.84 7.74999 264.51 8.36999 266.18 9.01999L265.34 11.05ZM184.92 10.05L184.16 8.04999C186.09 7.34999 188.06 6.67999 190.02 6.04999L190.66 8.13998C188.77 8.67998 186.83 9.32999 185 10.02L184.92 10.05ZM255.52 7.66998C253.59 7.10998 251.62 6.59 249.66 6.13L250.16 4C252.16 4.47 254.16 5.00001 256.16 5.57001L255.52 7.66998ZM195.65 6.66998L195.11 4.54999C196.81 4.11999 198.54 3.71001 200.26 3.35001L200.71 5.48999C199.05 5.86999 197.35 6.24999 195.68 6.67999L195.65 6.66998ZM244.58 5.01999C242.88 4.70999 241.16 4.43 239.45 4.19L239.75 2.03C241.49 2.27 243.25 2.55 244.97 2.88L244.58 5.01999ZM206.67 4.41998L206.34 2.26001C208.07 1.99001 209.84 1.76999 211.59 1.57999L211.82 3.75C210.13 3.95 208.4 4.16999 206.7 4.42999L206.67 4.41998ZM233.42 3.51999C231.71 3.37999 229.97 3.26999 228.24 3.20999L228.32 1.01999C230.08 1.08999 231.86 1.20001 233.61 1.35001L233.42 3.51999ZM217 3.34L216.87 1.14999C218.87 1.02999 220.99 0.959982 223.04 0.949982V3.13C221.06 3.15 219 3.22 217 3.34Z" fill="#454546"/>
<path d="M296.88 38.67L311.64 42.51L307.58 27.81L296.88 38.67Z" fill="#454546"/>
<path d="M199.67 228.42C197.95 228.05 196.22 227.64 194.52 227.19L195.08 225.07C196.74 225.51 198.44 225.92 200.13 226.28L199.67 228.42ZM188.59 225.42C186.92 224.88 185.24 224.3 183.59 223.69L184.36 221.64C185.97 222.24 187.62 222.81 189.26 223.34L188.59 225.42ZM178.68 221.72C176.79 220.92 174.9 220.05 173.06 219.15L174.06 217.15C175.86 218.03 177.71 218.88 179.56 219.67L178.68 221.72ZM168.37 216.72C166.83 215.87 165.29 214.98 163.79 214.06L164.93 212.2C166.4 213.1 167.93 213.97 169.42 214.8L168.37 216.72ZM158.61 210.72C157.16 209.72 155.72 208.72 154.32 207.62L155.64 205.88C157.01 206.88 158.43 207.94 159.85 208.88L158.61 210.72ZM150.17 204.33C148.6 203.01 147.04 201.64 145.54 200.25L147.03 198.65C148.5 200.01 150.03 201.36 151.57 202.65L150.17 204.33ZM141.75 196.55C140.52 195.3 139.3 194 138.13 192.69L139.76 191.23C140.91 192.52 142.1 193.79 143.31 195.02L141.75 196.55ZM134.15 187.97C133.05 186.6 131.97 185.19 130.94 183.77L132.7 182.48C133.7 183.88 134.78 185.26 135.85 186.61L134.15 187.97ZM127.92 179.42C126.79 177.71 125.7 175.95 124.66 174.18L126.54 173.07C127.54 174.81 128.64 176.54 129.74 178.21L127.92 179.42ZM122.08 169.55C121.26 167.99 120.47 166.4 119.72 164.81L121.72 163.88C122.45 165.44 123.23 167 124.04 168.53L122.08 169.55ZM117.24 159.15C116.58 157.52 115.95 155.86 115.36 154.2L117.42 153.47C117.99 155.1 118.62 156.73 119.26 158.33L117.24 159.15ZM113.71 149.15C113.12 147.15 112.57 145.15 112.08 143.15L114.21 142.63C114.68 144.58 115.21 146.55 115.8 148.47L113.71 149.15ZM111 138.03C110.66 136.31 110.36 134.55 110.1 132.81L112.26 132.49C112.52 134.2 112.81 135.92 113.14 137.61L111 138.03ZM109.36 126.68C109.2 124.93 109.08 123.15 109 121.4L111.18 121.3C111.26 123.02 111.38 124.76 111.54 126.48L109.36 126.68ZM111.06 116.11H108.87C108.87 114.11 108.93 112 109.04 109.96L111.22 110.08C111.11 112.08 111.06 114.08 111.06 116.08V116.11ZM111.62 104.87L109.44 104.65C109.62 102.91 109.83 101.14 110.09 99.4L112.25 99.71C112 101.42 111.74 103.15 111.57 104.87H111.62ZM113.29 93.74L111.14 93.31C111.49 91.59 111.88 89.85 112.31 88.15L114.43 88.68C114 90.35 113.58 92.05 113.24 93.74H113.29Z" fill="#498AC9"/>
<path d="M120.42 91.39L116.36 76.68L105.66 87.55L120.42 91.39Z" fill="#498AC9"/>
<path d="M255.59 226.53L254.99 224.43C256.64 223.96 258.31 223.43 259.99 222.89L260.68 224.96C259 225.52 257.28 226.05 255.59 226.53ZM266.44 222.83L265.63 220.83C267.24 220.19 268.84 219.51 270.41 218.83L271.31 220.83C269.71 221.48 268.07 222.18 266.44 222.87V222.83ZM276.09 218.47L275.09 216.47C276.88 215.56 278.67 214.59 280.41 213.58L281.51 215.48C279.74 216.55 277.92 217.54 276.09 218.47ZM286.09 212.77L284.91 210.93C286.36 210 287.81 209.02 289.22 208.03L290.48 209.81C289 210.87 287.52 211.87 286 212.77H286.09ZM295.42 206.11L294 204.39C295.35 203.32 296.7 202.21 298 201.07L299.43 202.72C298.12 203.87 296.75 205.01 295.37 206.11H295.42ZM303.42 199.11L301.91 197.53C303.36 196.14 304.8 194.69 306.18 193.23L307.77 194.72C306.3 196.26 304.83 197.74 303.35 199.15L303.42 199.11ZM311.3 190.78L309.64 189.36C310.76 188.05 311.86 186.7 312.92 185.36L314.65 186.7C313.5 188.1 312.37 189.48 311.23 190.87L311.3 190.78ZM318.3 181.7L316.51 180.45C317.51 179.04 318.45 177.58 319.37 176.12L321.22 177.28C320.22 178.81 319.24 180.3 318.24 181.74L318.3 181.7ZM323.94 172.7L322.04 171.62C323.04 169.87 323.99 168.08 324.89 166.28L326.89 167.28C325.87 169.17 324.89 171 323.88 172.78L323.94 172.7ZM329.11 162.47L327.11 161.59C327.81 160.01 328.48 158.4 329.11 156.8L331.11 157.59C330.44 159.3 329.76 160.95 329.05 162.55L329.11 162.47ZM333.17 151.87L331.1 151.19C331.64 149.55 332.1 147.88 332.61 146.19L334.71 146.78C334.24 148.49 333.72 150.19 333.17 151.87ZM336 141.67L333.87 141.18C334.32 139.18 334.73 137.18 335.07 135.24L337.22 135.61C336.88 137.63 336.47 139.67 336 141.67ZM338 130.38L335.84 130.11C336.05 128.4 336.23 126.66 336.36 124.94L338.54 125.11C338.41 126.87 338.23 128.64 338 130.38ZM338.86 118.95L336.68 118.89C336.68 117.96 336.68 117.01 336.68 116.08C336.68 115.15 336.68 114.49 336.68 113.7L338.86 113.65C338.86 114.463 338.86 115.273 338.86 116.08C338.91 117.03 338.9 117.99 338.87 118.95H338.86ZM336.46 108.51C336.32 106.51 336.13 104.51 335.89 102.51L338.06 102.25C338.31 104.25 338.5 106.35 338.64 108.39L336.46 108.51ZM335.15 97.34C334.86 95.64 334.53 93.92 334.15 92.24L336.29 91.78C336.66 93.5 336.99 95.25 337.29 96.98L335.15 97.34ZM332.74 86.34C332.29 84.68 331.79 83 331.26 81.34L333.34 80.67C333.88 82.34 334.34 84.05 334.85 85.75L332.74 86.34Z" fill="#C7C8CA"/>
<path d="M254.3 217.85L243.6 228.71L258.36 232.55L254.3 217.85Z" fill="#C7C8CA"/>
<path d="M266.74 99.09C269.269 105.541 270.312 112.478 269.793 119.387C269.273 126.296 267.205 133 263.74 139L281.14 151.36L299.9 159.87C307.015 147.518 311.023 133.622 311.578 119.378C312.134 105.135 309.221 90.9689 303.09 78.1L266.74 99.09Z" fill="url(#paint0_linear_232_3916)"/>
<path d="M259.91 87.29L296.26 66.29C288.2 54.5316 277.395 44.9149 264.782 38.2727C252.168 31.6304 238.126 28.1628 223.87 28.17L222.67 48.4L223.87 69.9C230.799 69.8971 237.639 71.4595 243.88 74.4707C250.121 77.482 255.6 81.8642 259.91 87.29Z" fill="url(#paint1_linear_232_3916)"/>
<path d="M184 139L165.9 147.37L147.9 159.87C155.029 172.215 165.057 182.638 177.117 190.238C189.177 197.838 202.907 202.386 217.12 203.49V161.49C210.263 160.474 203.724 157.924 197.99 154.03C192.256 150.136 187.473 144.998 184 139Z" fill="#498AC9"/>
<path d="M230.68 161.53V203.53C244.897 202.423 258.629 197.869 270.69 190.261C282.751 182.654 292.777 172.223 299.9 159.87L263.76 139C260.295 145.001 255.521 150.143 249.794 154.044C244.067 157.945 237.533 160.504 230.68 161.53Z" fill="url(#paint2_linear_232_3916)"/>
<path d="M223.87 69.87V28.18C209.613 28.1711 195.568 31.638 182.953 38.2803C170.337 44.9226 159.531 54.5401 151.47 66.3L187.83 87.3C192.136 81.8668 197.614 77.477 203.855 74.4587C210.095 71.4405 216.938 69.8718 223.87 69.87Z" fill="url(#paint3_linear_232_3916)"/>
<path d="M177.81 115.97C177.802 110.193 178.885 104.466 181 99.09L144.65 78.09C138.509 90.9576 135.59 105.126 136.144 119.373C136.698 133.62 140.709 147.518 147.83 159.87L184 139C179.94 132.004 177.804 124.058 177.81 115.97Z" fill="url(#paint4_linear_232_3916)"/>
<path d="M322.18 72.94C330.216 72.94 336.73 66.4257 336.73 58.39C336.73 50.3543 330.216 43.84 322.18 43.84C314.144 43.84 307.63 50.3543 307.63 58.39C307.63 66.4257 314.144 72.94 322.18 72.94Z" fill="#D1D3D4"/>
<path d="M330.74 54.29C330.685 54.1938 330.596 54.1217 330.49 54.0884C330.384 54.055 330.27 54.0627 330.17 54.11C330.074 54.163 330.003 54.2504 329.969 54.3544C329.936 54.4584 329.943 54.5713 329.99 54.67C330.642 55.9027 330.985 57.2753 330.99 58.67C330.988 60.3041 330.53 61.9052 329.668 63.2936C328.806 64.6819 327.574 65.8026 326.111 66.5296C324.647 67.2567 323.01 67.5614 321.383 67.4096C319.756 67.2577 318.203 66.6553 316.9 65.67C316.936 65.5604 316.953 65.4454 316.95 65.33C316.95 65.0966 316.881 64.8685 316.751 64.6744C316.621 64.4804 316.437 64.3291 316.221 64.2398C316.006 64.1505 315.769 64.1272 315.54 64.1727C315.311 64.2182 315.1 64.3306 314.935 64.4956C314.77 64.6606 314.658 64.8709 314.613 65.0998C314.567 65.3287 314.59 65.566 314.68 65.7816C314.769 65.9972 314.92 66.1815 315.114 66.3111C315.308 66.4408 315.536 66.51 315.77 66.51C315.99 66.5134 316.206 66.4507 316.39 66.33C318.127 67.6528 320.262 68.3455 322.445 68.2943C324.627 68.243 326.728 67.4508 328.4 66.0478C330.073 64.6449 331.219 62.7146 331.65 60.5743C332.08 58.4339 331.77 56.2107 330.77 54.27L330.74 54.29Z" fill="#231F20"/>
<path d="M322.18 68.44C320.08 68.4379 318.036 67.7613 316.35 66.51C316.163 66.6111 315.953 66.6627 315.74 66.66C315.478 66.66 315.223 66.5823 315.006 66.4368C314.788 66.2913 314.619 66.0846 314.519 65.8428C314.42 65.601 314.394 65.3351 314.446 65.0788C314.498 64.8224 314.624 64.5873 314.81 64.4031C314.996 64.2189 315.232 64.094 315.489 64.0442C315.745 63.9944 316.011 64.0219 316.252 64.1234C316.493 64.2248 316.698 64.3956 316.842 64.614C316.986 64.8323 317.062 65.0885 317.06 65.35C317.07 65.4464 317.07 65.5436 317.06 65.64C318.347 66.5967 319.875 67.1768 321.473 67.3153C323.071 67.4538 324.676 67.1453 326.108 66.4243C327.541 65.7033 328.745 64.5982 329.586 63.2324C330.427 61.8666 330.871 60.2939 330.87 58.69C330.881 57.2995 330.555 55.9269 329.92 54.69C329.887 54.6243 329.867 54.5528 329.862 54.4796C329.857 54.4064 329.866 54.3329 329.89 54.2632C329.913 54.1936 329.949 54.1292 329.998 54.0737C330.046 54.0183 330.104 53.9728 330.17 53.94C330.236 53.9072 330.307 53.8876 330.38 53.8824C330.453 53.8772 330.527 53.8865 330.597 53.9097C330.666 53.9329 330.731 53.9696 330.786 54.0177C330.842 54.0658 330.887 54.1243 330.92 54.19C331.681 55.6766 332.049 57.3338 331.987 59.003C331.925 60.6722 331.435 62.2975 330.565 63.7234C329.695 65.1493 328.474 66.3281 327.018 67.1469C325.562 67.9657 323.92 68.3972 322.25 68.4L322.18 68.44ZM316.37 66.2L316.44 66.25C318.094 67.4971 320.108 68.1742 322.18 68.18C323.807 68.1801 325.406 67.762 326.825 66.9659C328.243 66.1697 329.434 65.0222 330.281 63.6336C331.129 62.2449 331.605 60.6618 331.664 59.0361C331.723 57.4104 331.364 55.7967 330.62 54.35C330.584 54.2827 330.523 54.2323 330.45 54.2098C330.377 54.1873 330.298 54.1946 330.23 54.23C330.197 54.2469 330.168 54.2702 330.144 54.2985C330.12 54.3268 330.102 54.3596 330.09 54.3949C330.079 54.4303 330.075 54.4675 330.079 54.5044C330.082 54.5413 330.093 54.5772 330.11 54.61C330.809 55.9696 331.147 57.4861 331.092 59.014C331.036 60.5419 330.589 62.0299 329.793 63.3352C328.997 64.6404 327.878 65.7191 326.545 66.4677C325.212 67.2163 323.709 67.6096 322.18 67.61C320.236 67.6078 318.345 66.9763 316.79 65.81L316.72 65.75V65.66C316.735 65.5606 316.735 65.4594 316.72 65.36C316.73 65.1505 316.677 64.9428 316.568 64.7637C316.459 64.5846 316.298 64.4422 316.108 64.355C315.917 64.2678 315.704 64.2398 315.497 64.2744C315.291 64.3091 315.099 64.405 314.947 64.5497C314.795 64.6943 314.69 64.8811 314.645 65.0861C314.601 65.291 314.618 65.5046 314.696 65.6994C314.774 65.8942 314.908 66.0612 315.082 66.179C315.255 66.2967 315.46 66.3598 315.67 66.36C315.868 66.3634 316.063 66.3077 316.23 66.2H316.37Z" fill="#231F20"/>
<path d="M313.39 58.69C313.388 57.0752 313.832 55.4912 314.672 54.1121C315.512 52.733 316.716 51.6124 318.152 50.8733C319.587 50.1343 321.199 49.8055 322.81 49.9231C324.42 50.0407 325.967 50.6002 327.28 51.54C327.215 51.6918 327.182 51.8549 327.18 52.02C327.178 52.2562 327.247 52.4876 327.377 52.6848C327.507 52.8821 327.692 53.0361 327.91 53.1274C328.128 53.2187 328.368 53.2432 328.6 53.1976C328.832 53.152 329.045 53.0384 329.212 52.8714C329.379 52.7044 329.492 52.4914 329.538 52.2597C329.583 52.0279 329.559 51.7878 329.468 51.57C329.376 51.3521 329.222 51.1664 329.025 51.0364C328.828 50.9064 328.596 50.838 328.36 50.84C328.195 50.8375 328.031 50.8716 327.88 50.94C326.232 49.7174 324.232 49.0613 322.18 49.07C320.545 49.0664 318.936 49.4803 317.505 50.2723C316.074 51.0643 314.869 52.2084 314.004 53.5962C313.139 54.984 312.642 56.5696 312.561 58.2029C312.48 59.8362 312.817 61.4633 313.54 62.93C313.561 62.9846 313.593 63.0343 313.634 63.0759C313.675 63.1174 313.725 63.1499 313.779 63.1713C313.834 63.1926 313.892 63.2024 313.95 63.1999C314.009 63.1975 314.066 63.1828 314.118 63.1569C314.171 63.1311 314.217 63.0945 314.255 63.0497C314.292 63.0048 314.32 62.9526 314.336 62.8964C314.352 62.8402 314.357 62.7813 314.349 62.7234C314.341 62.6654 314.321 62.6098 314.29 62.56C313.693 61.3575 313.385 60.0324 313.39 58.69Z" fill="#231F20"/>
<path d="M313.91 63.3C313.808 63.2991 313.707 63.2696 313.621 63.2148C313.534 63.16 313.465 63.0822 313.42 62.99C312.455 61.0351 312.172 58.813 312.618 56.6788C313.064 54.5446 314.212 52.6214 315.88 51.2166C317.547 49.8117 319.637 49.0063 321.816 48.929C323.995 48.8517 326.137 49.5069 327.9 50.79C328.047 50.7337 328.203 50.7065 328.36 50.71C328.632 50.7143 328.897 50.8047 329.114 50.9684C329.332 51.132 329.493 51.3605 329.573 51.621C329.653 51.8815 329.648 52.1607 329.56 52.4184C329.472 52.6762 329.304 52.8993 329.081 53.0559C328.858 53.2124 328.591 53.2942 328.318 53.2896C328.046 53.2851 327.782 53.1944 327.564 53.0305C327.346 52.8666 327.186 52.638 327.106 52.3774C327.026 52.1168 327.031 51.8377 327.12 51.58C325.544 50.4872 323.65 49.9484 321.735 50.048C319.82 50.1476 317.992 50.88 316.539 52.1303C315.085 53.3806 314.087 55.0781 313.702 56.9566C313.316 58.8351 313.566 60.7884 314.41 62.51C314.437 62.5749 314.451 62.6446 314.451 62.715C314.451 62.7854 314.437 62.8551 314.41 62.92C314.39 62.9894 314.356 63.0538 314.309 63.109C314.263 63.1641 314.205 63.2088 314.14 63.24C314.069 63.2768 313.99 63.2973 313.91 63.3ZM322.18 49.2C319.663 49.2 317.249 50.1998 315.47 51.9796C313.69 53.7593 312.69 56.1731 312.69 58.69C312.691 60.1425 313.033 61.5744 313.69 62.87C313.706 62.9039 313.729 62.9342 313.757 62.9591C313.784 62.9841 313.817 63.0032 313.853 63.0153C313.888 63.0274 313.925 63.0323 313.963 63.0297C314 63.0271 314.037 63.017 314.07 63C314.139 62.9684 314.193 62.9109 314.22 62.84C314.235 62.8052 314.243 62.7678 314.243 62.73C314.243 62.6922 314.235 62.6548 314.22 62.62C313.345 60.8374 313.09 58.8138 313.495 56.8699C313.901 54.9259 314.943 53.1728 316.457 51.8882C317.971 50.6036 319.871 49.861 321.855 49.778C323.839 49.695 325.794 50.2763 327.41 51.43L327.5 51.49L327.45 51.59C327.391 51.7256 327.36 51.872 327.36 52.02C327.348 52.2322 327.4 52.4431 327.509 52.6254C327.619 52.8077 327.78 52.9528 327.973 53.0421C328.166 53.1313 328.382 53.1605 328.591 53.1258C328.801 53.0911 328.995 52.9941 329.149 52.8475C329.303 52.7009 329.41 52.5115 329.454 52.3037C329.499 52.0959 329.481 51.8795 329.401 51.6824C329.321 51.4854 329.184 51.3169 329.007 51.1987C328.831 51.0806 328.623 51.0183 328.41 51.02C328.265 51.0192 328.122 51.0499 327.99 51.11H327.92L327.85 51.06C326.211 49.8426 324.221 49.1899 322.18 49.2Z" fill="#231F20"/>
<path d="M329 56.2C328.492 54.8004 327.565 53.5911 326.346 52.7365C325.127 51.882 323.674 51.4235 322.185 51.4235C320.696 51.4235 319.243 51.882 318.024 52.7365C316.805 53.5911 315.878 54.8004 315.37 56.2C315.366 56.2197 315.366 56.2402 315.37 56.26C315.02 57.2545 314.892 58.3133 314.994 59.3625C315.095 60.4117 315.425 61.4262 315.959 62.3351C316.492 63.2441 317.218 64.0257 318.085 64.6255C318.952 65.2252 319.939 65.6287 320.978 65.8079C322.017 65.987 323.082 65.9375 324.1 65.6628C325.117 65.388 326.063 64.8946 326.87 64.217C327.678 63.5394 328.328 62.6938 328.775 61.7393C329.222 60.7847 329.456 59.7441 329.46 58.69C329.458 57.863 329.319 57.0419 329.05 56.26L329 56.2ZM315.77 58.69C315.77 58.0464 315.865 57.4063 316.05 56.79H318.48C318.398 57.42 318.358 58.0547 318.36 58.69C318.359 59.312 318.399 59.9333 318.48 60.55H316C315.829 59.9452 315.748 59.3184 315.76 58.69H315.77ZM319.19 58.69C319.19 58.0541 319.237 57.4191 319.33 56.79H321.77V60.55H319.32C319.232 59.9338 319.185 59.3124 319.18 58.69H319.19ZM324.19 54.04C324.484 54.6484 324.706 55.2895 324.85 55.95H322.56V52.34C323.314 52.6682 323.91 53.2784 324.22 54.04H324.19ZM321.73 52.34V55.95H319.44C319.587 55.2891 319.812 54.648 320.11 54.04C320.416 53.279 321.008 52.6686 321.76 52.34H321.73ZM321.73 61.34V65C320.992 64.6616 320.412 64.0531 320.11 63.3C319.805 62.6636 319.58 61.9918 319.44 61.3L321.73 61.34ZM322.56 65V61.34H324.86C324.716 62.0306 324.491 62.7019 324.19 63.34C323.891 64.089 323.319 64.6967 322.59 65.04L322.56 65ZM322.56 60.51V56.75H325C325.093 57.3791 325.14 58.0141 325.14 58.65C325.143 59.2724 325.099 59.8941 325.01 60.51H322.56ZM325.85 56.75H328.28C328.473 57.3647 328.571 58.0055 328.57 58.65C328.569 59.2804 328.474 59.9072 328.29 60.51H325.85C325.935 59.8936 325.978 59.2722 325.98 58.65C325.987 58.0285 325.953 57.4072 325.88 56.79L325.85 56.75ZM327.96 55.91H325.7C325.489 54.7104 325.007 53.5749 324.29 52.59C325.099 52.8776 325.844 53.3225 326.481 53.8992C327.117 54.4758 327.634 55.1728 328 55.95L327.96 55.91ZM320 52.63C319.276 53.6118 318.79 54.7483 318.58 55.95H316.33C316.693 55.1822 317.204 54.4937 317.834 53.924C318.464 53.3543 319.2 52.9145 320 52.63ZM316.31 61.38H318.57C318.781 62.5953 319.271 63.7452 320 64.74C319.199 64.4496 318.464 64.003 317.838 63.4262C317.211 62.8494 316.705 62.1539 316.35 61.38H316.31ZM324.31 64.74C325.036 63.7443 325.522 62.5944 325.73 61.38H328C327.64 62.1564 327.13 62.8535 326.498 63.4304C325.866 64.0073 325.126 64.4525 324.32 64.74H324.31Z" fill="#231F20"/>
<path d="M322.18 66.07C320.995 66.0751 319.827 65.7952 318.773 65.2542C317.719 64.7131 316.811 63.9266 316.124 62.9609C315.438 61.9953 314.994 60.8789 314.83 59.7057C314.665 58.5326 314.785 57.3371 315.18 56.22V56.15C315.7 54.7278 316.645 53.4998 317.886 52.6322C319.128 51.7647 320.605 51.2994 322.12 51.2994C323.634 51.2994 325.112 51.7647 326.353 52.6322C327.595 53.4998 328.539 54.7278 329.06 56.15V56.23C329.341 57.0196 329.483 57.8519 329.48 58.69C329.477 60.6327 328.71 62.4963 327.344 63.8775C325.978 65.2587 324.122 66.0463 322.18 66.07ZM322.18 51.56C320.718 51.5656 319.293 52.0178 318.096 52.856C316.898 53.6943 315.985 54.8785 315.48 56.25V56.3C315.128 57.2795 314.995 58.3241 315.089 59.3606C315.184 60.3971 315.505 61.4002 316.029 62.2995C316.553 63.1989 317.267 63.9726 318.122 64.5665C318.976 65.1603 319.951 65.5598 320.976 65.7369C322.002 65.914 323.054 65.8644 324.058 65.5916C325.063 65.3189 325.995 64.8295 326.791 64.158C327.586 63.4864 328.224 62.6488 328.661 61.7042C329.098 60.7596 329.323 59.7308 329.32 58.69C329.32 57.8791 329.182 57.074 328.91 56.31C328.91 56.31 328.91 56.31 328.91 56.26C328.408 54.8794 327.492 53.6873 326.288 52.8462C325.083 52.0051 323.649 51.5559 322.18 51.56ZM321.89 65.22L321.72 65.16C320.945 64.8131 320.335 64.1783 320.02 63.39C319.708 62.7553 319.479 62.0831 319.34 61.39V61.23H321.93L321.89 65.22ZM319.63 61.51C319.774 62.1201 319.982 62.7134 320.25 63.28C320.531 63.9371 321.014 64.4873 321.63 64.85V61.51H319.63ZM322.46 65.22V61.22H325.05V61.38C324.902 62.0723 324.671 62.744 324.36 63.38C324.048 64.1707 323.437 64.8066 322.66 65.15L322.46 65.22ZM322.73 61.51V64.87C323.342 64.5061 323.822 63.956 324.1 63.3C324.377 62.737 324.585 62.1427 324.72 61.53L322.73 61.51ZM320.43 65.02L320 64.87C319.178 64.5772 318.422 64.1242 317.777 63.5371C317.131 62.95 316.609 62.2406 316.24 61.45L316.15 61.26H318.73V61.37C318.935 62.5634 319.415 63.6929 320.13 64.67L320.43 65.02ZM316.56 61.51C317.222 62.8224 318.322 63.8622 319.67 64.45C319.099 63.552 318.702 62.5547 318.5 61.51H316.56ZM323.93 65.02L324.21 64.66C324.925 63.6829 325.404 62.5533 325.61 61.36V61.25H328.18L328.09 61.44C327.721 62.2306 327.198 62.94 326.553 63.5271C325.907 64.1142 325.152 64.5672 324.33 64.86L323.93 65.02ZM325.85 61.51C325.646 62.5527 325.253 63.5491 324.69 64.45C326.033 63.8589 327.128 62.8197 327.79 61.51H325.85ZM328.42 60.68H325.73V60.53C325.814 59.9202 325.857 59.3055 325.86 58.69C325.857 58.0612 325.814 57.4332 325.73 56.81V56.66H328.41V56.75C328.601 57.3789 328.699 58.0326 328.7 58.69C328.696 59.3334 328.602 59.973 328.42 60.59V60.68ZM326.03 60.42H328.22C328.382 59.8575 328.466 59.2754 328.47 58.69C328.469 58.0905 328.381 57.4943 328.21 56.92H326C326.072 57.5072 326.109 58.0983 326.11 58.69C326.108 59.2684 326.072 59.8461 326 60.42H326.03ZM325.15 60.68H322.46V56.68H325.15V56.79C325.248 57.4253 325.294 58.0673 325.29 58.71C325.292 59.339 325.249 59.9673 325.16 60.59L325.15 60.68ZM322.73 60.42H324.93C325.002 59.8461 325.039 59.2684 325.04 58.69C325.041 58.0979 325.001 57.5065 324.92 56.92H322.73V60.42ZM321.89 60.68H319.2V60.57C319.111 59.9473 319.067 59.319 319.07 58.69C319.07 58.0475 319.117 57.4058 319.21 56.77V56.66H321.9L321.89 60.68ZM319.43 60.42H321.63V56.92H319.43C319.349 57.5065 319.309 58.0979 319.31 58.69C319.309 59.2688 319.349 59.8469 319.43 60.42ZM318.62 60.68H315.93V60.59C315.739 59.9746 315.642 59.3342 315.64 58.69C315.639 58.0317 315.74 57.3774 315.94 56.75V56.66H318.61V56.81C318.529 57.4334 318.489 58.0614 318.49 58.69C318.489 59.3053 318.529 59.92 318.61 60.53L318.62 60.68ZM316.13 60.42H318.32C318.248 59.8461 318.211 59.2684 318.21 58.69C318.211 58.0983 318.247 57.5072 318.32 56.92H316.14C315.972 57.4948 315.887 58.091 315.89 58.69C315.89 59.275 315.97 59.8572 316.13 60.42ZM328.19 56.09H325.63V55.98C325.414 54.7987 324.936 53.6811 324.23 52.71L323.95 52.36L324.38 52.51C326.015 53.0944 327.353 54.3024 328.1 55.87L328.19 56.09ZM325.84 55.82H327.77C327.105 54.5292 326.018 53.5055 324.69 52.92C325.252 53.8239 325.642 54.8241 325.84 55.87V55.82ZM325.04 56.09H322.46V52.15L322.63 52.21C323.405 52.5569 324.014 53.1916 324.33 53.98C324.634 54.6002 324.862 55.255 325.01 55.93L325.04 56.09ZM322.73 55.82H324.73C324.594 55.225 324.389 54.6478 324.12 54.1C323.845 53.4421 323.364 52.8911 322.75 52.53L322.73 55.82ZM321.89 56.09H319.31V55.93C319.454 55.2554 319.679 54.6007 319.98 53.98C320.298 53.1934 320.907 52.5595 321.68 52.21L321.85 52.15L321.89 56.09ZM319.64 55.82H321.64V52.53C321.022 52.89 320.538 53.441 320.26 54.1C319.983 54.6632 319.775 55.2574 319.64 55.87V55.82ZM318.72 56.09H316.16L316.25 55.9C316.998 54.3191 318.343 53.0998 319.99 52.51L320.43 52.36L320.14 52.71C319.437 53.682 318.962 54.7996 318.75 55.98L318.72 56.09ZM316.58 55.82H318.51C318.717 54.7908 319.11 53.808 319.67 52.92C318.328 53.5141 317.235 54.5573 316.58 55.87V55.82Z" fill="#231F20"/>
<path d="M224.58 244.45C232.616 244.45 239.13 237.936 239.13 229.9C239.13 221.864 232.616 215.35 224.58 215.35C216.544 215.35 210.03 221.864 210.03 229.9C210.03 237.936 216.544 244.45 224.58 244.45Z" fill="#498AC9"/>
<path d="M224.58 221.66C223.717 221.659 222.863 221.827 222.066 222.156C221.269 222.486 220.545 222.969 219.935 223.578C219.324 224.187 218.84 224.911 218.51 225.707C218.18 226.504 218.01 227.358 218.01 228.22C218.009 229.028 218.162 229.829 218.46 230.58C218.868 231.501 219.415 232.354 220.08 233.11C220.627 233.74 221.1 234.432 221.49 235.17C221.788 235.802 221.987 236.477 222.08 237.17H221.78C221.702 237.173 221.628 237.205 221.574 237.261C221.52 237.317 221.49 237.392 221.49 237.47V239.33C221.49 239.408 221.52 239.483 221.574 239.539C221.628 239.595 221.702 239.627 221.78 239.63H222.26C222.371 240.005 222.57 240.347 222.84 240.63C223.292 241.104 223.906 241.389 224.56 241.43C225.09 241.403 225.599 241.21 226.013 240.878C226.428 240.546 226.728 240.092 226.87 239.58H227.35C227.429 239.578 227.503 239.545 227.559 239.489C227.615 239.434 227.647 239.359 227.65 239.28V237.42C227.647 237.341 227.615 237.266 227.559 237.211C227.503 237.155 227.429 237.122 227.35 237.12H227.04C227.133 236.427 227.332 235.752 227.63 235.12C228.023 234.384 228.496 233.693 229.04 233.06C229.705 232.304 230.251 231.451 230.66 230.53C230.958 229.779 231.111 228.978 231.11 228.17C231.11 226.43 230.419 224.762 229.188 223.531C227.958 222.301 226.29 221.61 224.55 221.61L224.58 221.66ZM222.68 230.74C222.929 230.701 223.163 230.598 223.361 230.443C223.559 230.287 223.713 230.083 223.81 229.85C223.826 229.815 223.835 229.778 223.836 229.74C223.838 229.701 223.831 229.663 223.817 229.628C223.803 229.592 223.782 229.56 223.755 229.532C223.728 229.505 223.695 229.484 223.66 229.47C223.624 229.453 223.586 229.444 223.547 229.443C223.508 229.442 223.469 229.448 223.433 229.462C223.396 229.476 223.363 229.497 223.335 229.524C223.307 229.552 223.285 229.584 223.27 229.62C223.202 229.781 223.088 229.919 222.942 230.015C222.796 230.111 222.625 230.162 222.45 230.16C222.334 230.161 222.219 230.14 222.111 230.096C222.004 230.052 221.907 229.987 221.825 229.905C221.743 229.823 221.678 229.726 221.634 229.618C221.59 229.511 221.568 229.396 221.57 229.28C221.569 229.073 221.639 228.871 221.77 228.71C221.929 228.77 222.099 228.801 222.27 228.8C222.477 228.801 222.682 228.757 222.87 228.67C222.941 228.637 222.996 228.578 223.024 228.505C223.052 228.433 223.05 228.352 223.02 228.28C223.005 228.244 222.982 228.212 222.954 228.184C222.926 228.157 222.893 228.136 222.857 228.122C222.82 228.108 222.781 228.102 222.742 228.103C222.703 228.104 222.665 228.113 222.63 228.13C222.516 228.18 222.394 228.207 222.27 228.21C222.146 228.223 222.02 228.21 221.901 228.172C221.783 228.133 221.673 228.07 221.58 227.987C221.488 227.903 221.413 227.801 221.363 227.687C221.312 227.573 221.286 227.45 221.286 227.325C221.286 227.2 221.312 227.077 221.363 226.963C221.413 226.849 221.488 226.747 221.58 226.663C221.673 226.58 221.783 226.517 221.901 226.478C222.02 226.44 222.146 226.427 222.27 226.44H222.33C222.467 226.582 222.632 226.696 222.814 226.773C222.996 226.85 223.192 226.89 223.39 226.89C223.433 226.898 223.478 226.896 223.52 226.885C223.563 226.874 223.602 226.854 223.636 226.826C223.67 226.797 223.697 226.762 223.716 226.722C223.735 226.682 223.744 226.639 223.744 226.595C223.744 226.551 223.735 226.508 223.716 226.468C223.697 226.428 223.67 226.393 223.636 226.364C223.602 226.336 223.563 226.316 223.52 226.305C223.478 226.294 223.433 226.292 223.39 226.3C223.149 226.298 222.919 226.201 222.75 226.03C222.633 225.906 222.554 225.751 222.522 225.583C222.491 225.415 222.508 225.242 222.573 225.084C222.637 224.926 222.745 224.79 222.885 224.691C223.024 224.593 223.189 224.537 223.36 224.53C223.478 224.525 223.596 224.544 223.706 224.587C223.816 224.631 223.916 224.696 224 224.78C224.087 224.86 224.156 224.957 224.203 225.066C224.249 225.174 224.272 225.292 224.27 225.41V231.23C224.27 231.444 224.189 231.651 224.042 231.807C223.895 231.963 223.694 232.057 223.48 232.07C223.244 232.07 223.017 231.976 222.85 231.809C222.684 231.642 222.59 231.416 222.59 231.18C222.581 231.028 222.612 230.876 222.68 230.74ZM226.4 226C226.231 226.171 226 226.268 225.76 226.27C225.716 226.262 225.672 226.264 225.629 226.275C225.587 226.286 225.547 226.306 225.513 226.334C225.48 226.363 225.452 226.398 225.434 226.438C225.415 226.477 225.405 226.521 225.405 226.565C225.405 226.609 225.415 226.652 225.434 226.692C225.452 226.732 225.48 226.767 225.513 226.796C225.547 226.824 225.587 226.844 225.629 226.855C225.672 226.866 225.716 226.868 225.76 226.86C225.958 226.861 226.154 226.822 226.336 226.745C226.519 226.667 226.683 226.553 226.82 226.41H226.89C227.108 226.433 227.31 226.536 227.457 226.7C227.604 226.863 227.686 227.075 227.686 227.295C227.686 227.515 227.604 227.727 227.457 227.89C227.31 228.053 227.108 228.157 226.89 228.18C226.765 228.18 226.643 228.152 226.53 228.1C226.494 228.077 226.453 228.063 226.411 228.057C226.369 228.051 226.326 228.054 226.285 228.066C226.244 228.078 226.206 228.099 226.174 228.127C226.142 228.155 226.116 228.189 226.098 228.228C226.08 228.267 226.07 228.309 226.07 228.351C226.07 228.394 226.078 228.436 226.095 228.475C226.113 228.514 226.138 228.549 226.17 228.577C226.202 228.606 226.239 228.627 226.28 228.64C226.471 228.728 226.679 228.772 226.89 228.77C227.057 228.77 227.223 228.74 227.38 228.68C227.51 228.841 227.581 229.043 227.58 229.25C227.581 229.366 227.559 229.481 227.516 229.588C227.472 229.696 227.407 229.793 227.325 229.875C227.243 229.957 227.145 230.022 227.038 230.066C226.931 230.109 226.816 230.131 226.7 230.13C226.525 230.132 226.354 230.081 226.207 229.985C226.061 229.889 225.947 229.751 225.88 229.59C225.866 229.554 225.844 229.522 225.817 229.495C225.79 229.468 225.758 229.447 225.722 229.433C225.687 229.419 225.649 229.412 225.61 229.413C225.572 229.415 225.534 229.424 225.5 229.44C225.463 229.453 225.43 229.474 225.402 229.5C225.374 229.527 225.351 229.559 225.336 229.595C225.321 229.631 225.314 229.669 225.314 229.708C225.315 229.747 225.324 229.785 225.34 229.82C225.436 230.053 225.591 230.257 225.788 230.413C225.986 230.569 226.221 230.671 226.47 230.71C226.54 230.836 226.577 230.976 226.58 231.12C226.58 231.354 226.487 231.579 226.323 231.746C226.158 231.912 225.934 232.007 225.7 232.01C225.486 231.997 225.285 231.903 225.138 231.747C224.991 231.591 224.909 231.384 224.91 231.17V225.35C224.907 225.232 224.93 225.114 224.977 225.006C225.023 224.897 225.092 224.8 225.18 224.72C225.265 224.635 225.366 224.569 225.478 224.526C225.59 224.483 225.71 224.464 225.83 224.47C225.999 224.479 226.163 224.536 226.301 224.635C226.439 224.734 226.546 224.87 226.609 225.028C226.672 225.186 226.689 225.358 226.657 225.525C226.625 225.692 226.546 225.846 226.43 225.97L226.4 226ZM227 238.27C227.02 238.516 227.02 238.764 227 239.01H222.13C222.114 238.764 222.114 238.516 222.13 238.27C222.13 238.09 222.13 237.92 222.13 237.75H227C226.99 237.923 226.99 238.097 227 238.27ZM225.86 240.27C225.513 240.629 225.047 240.849 224.55 240.89C224.051 240.854 223.584 240.633 223.24 240.27C223.067 240.086 222.934 239.868 222.85 239.63H226.24C226.162 239.856 226.044 240.067 225.89 240.25L225.86 240.27ZM230.11 230.39C229.721 231.254 229.201 232.053 228.57 232.76C227.997 233.428 227.504 234.159 227.1 234.94C226.763 235.643 226.543 236.396 226.45 237.17H224.85V232.38C225.072 232.548 225.341 232.643 225.62 232.65H225.68C225.874 232.65 226.066 232.612 226.245 232.537C226.424 232.463 226.586 232.354 226.723 232.216C226.859 232.078 226.967 231.915 227.041 231.736C227.114 231.556 227.151 231.364 227.15 231.17C227.148 231.007 227.121 230.845 227.07 230.69C227.379 230.602 227.651 230.415 227.846 230.159C228.04 229.904 228.147 229.592 228.15 229.27C228.146 228.954 228.044 228.647 227.86 228.39C228.058 228.204 228.201 227.967 228.273 227.705C228.346 227.444 228.345 227.167 228.271 226.906C228.196 226.644 228.051 226.409 227.852 226.224C227.652 226.04 227.406 225.914 227.14 225.86C227.188 225.694 227.212 225.522 227.21 225.35C227.193 224.979 227.038 224.628 226.775 224.365C226.512 224.102 226.161 223.947 225.79 223.93C225.591 223.92 225.393 223.951 225.207 224.022C225.021 224.093 224.852 224.201 224.71 224.34C224.71 224.382 224.693 224.423 224.663 224.453C224.633 224.483 224.592 224.5 224.55 224.5C224.507 224.5 224.467 224.483 224.437 224.453C224.407 224.423 224.39 224.382 224.39 224.34C224.248 224.201 224.079 224.093 223.893 224.022C223.707 223.951 223.508 223.92 223.31 223.93C222.939 223.947 222.587 224.102 222.325 224.365C222.062 224.628 221.907 224.979 221.89 225.35C221.888 225.522 221.911 225.694 221.96 225.86C221.693 225.914 221.447 226.04 221.248 226.224C221.048 226.409 220.903 226.644 220.829 226.906C220.755 227.167 220.754 227.444 220.826 227.705C220.899 227.967 221.042 228.204 221.24 228.39C221.058 228.648 220.96 228.955 220.96 229.27C220.96 229.591 221.065 229.902 221.258 230.159C221.451 230.415 221.722 230.601 222.03 230.69C221.979 230.845 221.952 231.007 221.95 231.17C221.95 231.563 222.106 231.939 222.383 232.216C222.661 232.494 223.037 232.65 223.43 232.65H223.48C223.758 232.643 224.028 232.548 224.25 232.38V237.17H222.65C222.552 236.397 222.332 235.644 222 234.94C221.592 234.159 221.095 233.427 220.52 232.76C219.894 232.046 219.381 231.24 219 230.37C218.73 229.685 218.59 228.956 218.59 228.22C218.726 226.73 219.415 225.344 220.52 224.335C221.626 223.326 223.068 222.767 224.565 222.767C226.061 222.767 227.504 223.326 228.609 224.335C229.715 225.344 230.403 226.73 230.54 228.22C230.542 228.955 230.407 229.685 230.14 230.37L230.11 230.39Z" fill="white"/>
<path d="M224.58 220.42C224.659 220.417 224.733 220.385 224.789 220.329C224.845 220.274 224.877 220.199 224.88 220.12V218.63C224.88 218.55 224.848 218.474 224.792 218.418C224.736 218.362 224.659 218.33 224.58 218.33C224.5 218.33 224.424 218.362 224.368 218.418C224.311 218.474 224.28 218.55 224.28 218.63V220.12C224.282 220.199 224.315 220.274 224.37 220.329C224.426 220.385 224.501 220.417 224.58 220.42Z" fill="white"/>
<path d="M220.34 221.33C220.367 221.376 220.404 221.414 220.45 221.44C220.496 221.466 220.548 221.48 220.6 221.48C220.649 221.494 220.701 221.494 220.75 221.48C220.784 221.461 220.814 221.436 220.838 221.406C220.862 221.375 220.879 221.34 220.889 221.303C220.9 221.266 220.902 221.227 220.897 221.189C220.892 221.15 220.88 221.113 220.86 221.08L220.11 219.79C220.092 219.756 220.066 219.726 220.036 219.703C220.006 219.679 219.971 219.661 219.933 219.651C219.896 219.641 219.857 219.638 219.819 219.643C219.781 219.648 219.744 219.661 219.71 219.68C219.643 219.722 219.595 219.787 219.574 219.863C219.554 219.939 219.563 220.02 219.6 220.09L220.34 221.33Z" fill="white"/>
<path d="M217.84 223.87L216.55 223.13C216.481 223.093 216.4 223.083 216.323 223.104C216.247 223.124 216.182 223.173 216.14 223.24C216.121 223.273 216.108 223.31 216.103 223.349C216.098 223.387 216.101 223.426 216.111 223.463C216.121 223.5 216.139 223.535 216.163 223.566C216.187 223.596 216.216 223.621 216.25 223.64L217.54 224.39C217.59 224.399 217.641 224.399 217.69 224.39C217.742 224.388 217.794 224.373 217.839 224.347C217.884 224.321 217.922 224.284 217.95 224.24C217.976 224.175 217.98 224.103 217.96 224.036C217.94 223.969 217.898 223.91 217.84 223.87Z" fill="white"/>
<path d="M216.92 228.08C216.92 228 216.888 227.924 216.832 227.868C216.776 227.812 216.699 227.78 216.62 227.78H215.14C215.06 227.78 214.984 227.812 214.928 227.868C214.871 227.924 214.84 228 214.84 228.08C214.84 228.16 214.871 228.236 214.928 228.292C214.984 228.348 215.06 228.38 215.14 228.38H216.62C216.699 228.38 216.776 228.348 216.832 228.292C216.888 228.236 216.92 228.16 216.92 228.08Z" fill="white"/>
<path d="M217.54 231.8L216.25 232.54C216.183 232.582 216.134 232.647 216.114 232.723C216.093 232.799 216.103 232.881 216.14 232.95C216.166 232.996 216.204 233.034 216.25 233.06C216.295 233.086 216.347 233.1 216.4 233.1C216.449 233.114 216.501 233.114 216.55 233.1L217.84 232.36C217.909 232.32 217.959 232.255 217.98 232.178C218 232.101 217.99 232.019 217.95 231.95C217.91 231.881 217.844 231.831 217.768 231.81C217.691 231.789 217.609 231.8 217.54 231.84V231.8Z" fill="white"/>
<path d="M220.75 234.71C220.681 234.673 220.6 234.663 220.523 234.684C220.447 234.704 220.382 234.753 220.34 234.82L219.6 236.11C219.563 236.179 219.554 236.261 219.574 236.337C219.595 236.413 219.643 236.478 219.71 236.52C219.76 236.529 219.811 236.529 219.86 236.52C219.911 236.519 219.962 236.505 220.005 236.479C220.049 236.452 220.086 236.415 220.11 236.37L220.86 235.08C220.886 235.015 220.89 234.943 220.87 234.876C220.85 234.809 220.808 234.75 220.75 234.71Z" fill="white"/>
<path d="M228.82 234.87C228.8 234.836 228.774 234.806 228.743 234.782C228.711 234.758 228.676 234.74 228.638 234.73C228.6 234.72 228.56 234.717 228.521 234.722C228.482 234.728 228.444 234.74 228.41 234.76C228.376 234.78 228.346 234.806 228.322 234.837C228.298 234.868 228.28 234.904 228.27 234.942C228.26 234.98 228.257 235.02 228.262 235.059C228.267 235.098 228.28 235.136 228.3 235.17L229.05 236.46C229.075 236.505 229.111 236.542 229.155 236.569C229.199 236.595 229.249 236.609 229.3 236.61C229.35 236.619 229.4 236.619 229.45 236.61C229.517 236.568 229.566 236.503 229.586 236.427C229.607 236.351 229.597 236.27 229.56 236.2L228.82 234.87Z" fill="white"/>
<path d="M232.91 232.54L231.62 231.8C231.551 231.76 231.469 231.749 231.392 231.77C231.315 231.791 231.25 231.841 231.21 231.91C231.17 231.979 231.16 232.061 231.18 232.138C231.201 232.215 231.251 232.28 231.32 232.32L232.61 233.06C232.659 233.074 232.711 233.074 232.76 233.06C232.813 233.06 232.865 233.046 232.91 233.02C232.956 232.994 232.994 232.956 233.02 232.91C233.046 232.845 233.05 232.773 233.03 232.706C233.01 232.639 232.968 232.58 232.91 232.54Z" fill="white"/>
<path d="M234 227.78H232.51C232.43 227.78 232.354 227.812 232.298 227.868C232.242 227.924 232.21 228 232.21 228.08C232.21 228.16 232.242 228.236 232.298 228.292C232.354 228.348 232.43 228.38 232.51 228.38H234C234.08 228.38 234.156 228.348 234.212 228.292C234.268 228.236 234.3 228.16 234.3 228.08C234.3 228 234.268 227.924 234.212 227.868C234.156 227.812 234.08 227.78 234 227.78Z" fill="white"/>
<path d="M231.47 224.4C231.519 224.409 231.57 224.409 231.62 224.4L232.91 223.65C232.944 223.631 232.973 223.606 232.997 223.576C233.021 223.545 233.039 223.51 233.049 223.473C233.059 223.436 233.062 223.397 233.057 223.359C233.052 223.32 233.039 223.283 233.02 223.25C232.978 223.183 232.913 223.134 232.837 223.114C232.76 223.093 232.679 223.103 232.61 223.14L231.32 223.88C231.262 223.913 231.218 223.964 231.192 224.025C231.167 224.086 231.163 224.154 231.18 224.218C231.197 224.281 231.234 224.338 231.287 224.378C231.339 224.418 231.404 224.44 231.47 224.44V224.4Z" fill="white"/>
<path d="M228.41 221.44C228.459 221.454 228.511 221.454 228.56 221.44C228.613 221.44 228.664 221.426 228.71 221.4C228.756 221.374 228.794 221.336 228.82 221.29L229.56 220.01C229.597 219.941 229.606 219.859 229.586 219.783C229.566 219.707 229.517 219.642 229.45 219.6C229.417 219.58 229.38 219.568 229.341 219.563C229.303 219.558 229.264 219.561 229.227 219.571C229.189 219.581 229.155 219.599 229.124 219.623C229.094 219.646 229.069 219.676 229.05 219.71L228.3 221C228.273 221.035 228.255 221.075 228.246 221.117C228.237 221.16 228.238 221.204 228.249 221.246C228.259 221.289 228.279 221.328 228.307 221.362C228.335 221.395 228.37 221.422 228.41 221.44Z" fill="white"/>
<path d="M124.84 74.17C132.876 74.17 139.39 67.6557 139.39 59.62C139.39 51.5843 132.876 45.07 124.84 45.07C116.804 45.07 110.29 51.5843 110.29 59.62C110.29 67.6557 116.804 74.17 124.84 74.17Z" fill="#444446"/>
<path d="M133.52 55.17C133.487 55.1056 133.442 55.0484 133.387 55.0015C133.332 54.9546 133.268 54.919 133.2 54.8967C133.131 54.8744 133.058 54.8659 132.986 54.8716C132.914 54.8773 132.844 54.8972 132.78 54.93C132.652 54.9982 132.555 55.1135 132.51 55.2515C132.466 55.3896 132.476 55.5396 132.54 55.67C133.19 56.8857 133.533 58.2416 133.54 59.62C133.537 61.916 132.624 64.1172 131 65.7406C129.377 67.3641 127.176 68.2774 124.88 68.28C123.027 68.2724 121.223 67.6772 119.73 66.58C119.739 66.4836 119.739 66.3865 119.73 66.29C119.73 66.0039 119.636 65.7256 119.463 65.4978C119.29 65.2701 119.047 65.1052 118.771 65.0286C118.495 64.9519 118.202 64.9676 117.936 65.0733C117.67 65.179 117.446 65.3689 117.298 65.6139C117.15 65.8589 117.087 66.1455 117.117 66.43C117.148 66.7146 117.271 66.9813 117.467 67.1895C117.663 67.3976 117.922 67.5358 118.204 67.5829C118.487 67.6299 118.777 67.5832 119.03 67.45C120.715 68.6968 122.754 69.373 124.85 69.38C126.52 69.3761 128.161 68.9441 129.617 68.1253C131.073 67.3065 132.294 66.1282 133.165 64.703C134.035 63.2777 134.526 61.653 134.59 59.9841C134.654 58.3152 134.289 56.6577 133.53 55.17H133.52Z" fill="white"/>
<path d="M117.07 63.44C116.484 62.2523 116.183 60.9444 116.19 59.62C116.192 58.0396 116.627 56.49 117.447 55.1391C118.267 53.7882 119.441 52.6873 120.842 51.956C122.243 51.2246 123.817 50.8905 125.395 50.99C126.972 51.0894 128.492 51.6185 129.79 52.52C129.699 52.7823 129.693 53.0668 129.774 53.3323C129.855 53.5979 130.019 53.8309 130.241 53.9976C130.463 54.1643 130.732 54.2562 131.01 54.2599C131.287 54.2636 131.559 54.179 131.786 54.0183C132.012 53.8576 132.181 53.6291 132.27 53.3658C132.358 53.1025 132.36 52.818 132.276 52.5533C132.192 52.2887 132.026 52.0576 131.802 51.8935C131.578 51.7293 131.308 51.6405 131.03 51.64C130.872 51.6389 130.716 51.6695 130.57 51.73C128.807 50.4469 126.665 49.7917 124.486 49.869C122.307 49.9463 120.217 50.7517 118.55 52.1566C116.882 53.5614 115.734 55.4846 115.288 57.6188C114.842 59.753 115.125 61.9751 116.09 63.93C116.134 64.0218 116.204 64.099 116.291 64.1522C116.378 64.2054 116.478 64.2324 116.58 64.23C116.662 64.2289 116.744 64.212 116.82 64.18C116.95 64.1118 117.05 63.9977 117.1 63.86C117.125 63.7919 117.135 63.7192 117.13 63.6468C117.125 63.5743 117.105 63.5038 117.07 63.44Z" fill="white"/>
<path d="M120.94 64.89C121.591 64.89 122.12 64.3617 122.12 63.71C122.12 63.0583 121.591 62.53 120.94 62.53C120.288 62.53 119.76 63.0583 119.76 63.71C119.76 64.3617 120.288 64.89 120.94 64.89Z" fill="white"/>
<path d="M120.94 61.92C121.591 61.92 122.12 61.3917 122.12 60.74C122.12 60.0883 121.591 59.56 120.94 59.56C120.288 59.56 119.76 60.0883 119.76 60.74C119.76 61.3917 120.288 61.92 120.94 61.92Z" fill="white"/>
<path d="M124.41 64.89C125.062 64.89 125.59 64.3617 125.59 63.71C125.59 63.0583 125.062 62.53 124.41 62.53C123.758 62.53 123.23 63.0583 123.23 63.71C123.23 64.3617 123.758 64.89 124.41 64.89Z" fill="white"/>
<path d="M124.41 61.92C125.062 61.92 125.59 61.3917 125.59 60.74C125.59 60.0883 125.062 59.56 124.41 59.56C123.758 59.56 123.23 60.0883 123.23 60.74C123.23 61.3917 123.758 61.92 124.41 61.92Z" fill="white"/>
<path d="M124.41 58.95C125.062 58.95 125.59 58.4217 125.59 57.77C125.59 57.1183 125.062 56.59 124.41 56.59C123.758 56.59 123.23 57.1183 123.23 57.77C123.23 58.4217 123.758 58.95 124.41 58.95Z" fill="white"/>
<path d="M127.88 64.89C128.532 64.89 129.06 64.3617 129.06 63.71C129.06 63.0583 128.532 62.53 127.88 62.53C127.228 62.53 126.7 63.0583 126.7 63.71C126.7 64.3617 127.228 64.89 127.88 64.89Z" fill="white"/>
<path d="M127.88 61.92C128.532 61.92 129.06 61.3917 129.06 60.74C129.06 60.0883 128.532 59.56 127.88 59.56C127.228 59.56 126.7 60.0883 126.7 60.74C126.7 61.3917 127.228 61.92 127.88 61.92Z" fill="white"/>
<path d="M127.88 58.95C128.532 58.95 129.06 58.4217 129.06 57.77C129.06 57.1183 128.532 56.59 127.88 56.59C127.228 56.59 126.7 57.1183 126.7 57.77C126.7 58.4217 127.228 58.95 127.88 58.95Z" fill="white"/>
<path d="M127.88 55.98C128.532 55.98 129.06 55.4517 129.06 54.8C129.06 54.1483 128.532 53.62 127.88 53.62C127.228 53.62 126.7 54.1483 126.7 54.8C126.7 55.4517 127.228 55.98 127.88 55.98Z" fill="white"/>
<path d="M331.53 36.4H323.69V25.32H331.53V27.39H326.05V29.72H331.41V31.8H326.05V34.32H331.53V36.4Z" fill="#231F20"/>
<path d="M345.2 36.4H342.38L339.61 32.34L336.81 36.4H334L338 30.72L334.23 25.32H337.03L339.58 29.1L342.08 25.32H345L341.23 30.7L345.2 36.4Z" fill="#231F20"/>
<path d="M350.39 36.4H348V25.32H353.18C353.679 25.2895 354.18 25.3626 354.649 25.5347C355.119 25.7068 355.548 25.9742 355.91 26.32C356.547 27.0123 356.901 27.9189 356.901 28.86C356.901 29.801 356.547 30.7077 355.91 31.4C355.547 31.7443 355.118 32.0107 354.649 32.1827C354.179 32.3547 353.679 32.4286 353.18 32.4H350.36L350.39 36.4ZM352.88 30.4C353.31 30.4131 353.73 30.2672 354.06 29.99C354.212 29.8573 354.332 29.6923 354.411 29.5071C354.491 29.322 354.528 29.1214 354.52 28.92C354.53 28.7154 354.494 28.5111 354.415 28.3223C354.335 28.1336 354.214 27.9653 354.06 27.83C353.73 27.5528 353.31 27.4068 352.88 27.42H350.39V30.42L352.88 30.4Z" fill="#231F20"/>
<path d="M367.15 36.4H360.09V25.32H362.46V34.32H367.15V36.4Z" fill="#231F20"/>
<path d="M375.34 36.6C374.574 36.6251 373.811 36.4955 373.096 36.2188C372.381 35.9422 371.73 35.5243 371.18 34.99C370.128 33.8762 369.542 32.4021 369.542 30.87C369.542 29.3379 370.128 27.8638 371.18 26.75C372.312 25.7092 373.793 25.1316 375.33 25.1316C376.867 25.1316 378.349 25.7092 379.48 26.75C380.529 27.8633 381.114 29.3352 381.114 30.865C381.114 32.3947 380.529 33.8667 379.48 34.98C378.936 35.5164 378.288 35.9366 377.577 36.2151C376.865 36.4936 376.104 36.6246 375.34 36.6ZM372.9 33.47C373.209 33.8047 373.588 34.0677 374.009 34.2404C374.431 34.4132 374.885 34.4916 375.34 34.47C375.794 34.4928 376.247 34.415 376.667 34.2422C377.087 34.0693 377.464 33.8056 377.77 33.47C378.372 32.7353 378.701 31.8148 378.701 30.865C378.701 29.9152 378.372 28.9947 377.77 28.26C377.453 27.9347 377.073 27.6761 376.654 27.4996C376.235 27.3231 375.785 27.2321 375.33 27.2321C374.875 27.2321 374.425 27.3231 374.006 27.4996C373.587 27.6761 373.208 27.9347 372.89 28.26C372.292 28.9963 371.965 29.9162 371.965 30.865C371.965 31.8138 372.292 32.7337 372.89 33.47H372.9Z" fill="#231F20"/>
<path d="M393.55 36.4H390.82L388.65 32.46H386.92V36.4H384.56V25.32H389.74C390.239 25.2966 390.737 25.3729 391.206 25.5446C391.675 25.7164 392.104 25.98 392.47 26.32C392.803 26.6595 393.064 27.0634 393.236 27.507C393.408 27.9506 393.487 28.4245 393.47 28.9C393.506 29.6996 393.25 30.485 392.75 31.11C392.307 31.645 391.704 32.0236 391.03 32.19L393.55 36.4ZM389.41 30.4C389.84 30.4188 390.261 30.2761 390.59 30C390.746 29.8617 390.869 29.6902 390.951 29.4982C391.032 29.3061 391.069 29.0983 391.06 28.89C391.066 28.6879 391.027 28.487 390.946 28.3019C390.865 28.1168 390.743 27.9522 390.59 27.82C390.262 27.5411 389.841 27.3949 389.41 27.41H386.92V30.41L389.41 30.4Z" fill="#231F20"/>
<path d="M407.35 36.4H404.68L403.98 34.52H399.23L398.53 36.4H395.86L400.13 25.32H403.08L407.35 36.4ZM403.35 32.4L401.62 27.64L399.9 32.4H403.35Z" fill="#231F20"/>
<path d="M414 36.4H411.62V27.4H408.39V25.33H417.22V27.4H414V36.4Z" fill="#231F20"/>
<path d="M422.9 36.4H420.54V25.32H422.9V36.4Z" fill="#231F20"/>
<path d="M432.14 36.6C431.374 36.6263 430.61 36.4972 429.895 36.2205C429.18 35.9438 428.529 35.5252 427.98 34.99C426.928 33.8762 426.342 32.4021 426.342 30.87C426.342 29.3379 426.928 27.8638 427.98 26.75C429.111 25.7092 430.593 25.1316 432.13 25.1316C433.667 25.1316 435.149 25.7092 436.28 26.75C437.329 27.8633 437.913 29.3352 437.913 30.865C437.913 32.3947 437.329 33.8667 436.28 34.98C435.736 35.5164 435.088 35.9366 434.376 36.2151C433.665 36.4936 432.904 36.6246 432.14 36.6ZM429.7 33.47C430.016 33.7963 430.394 34.0558 430.813 34.2329C431.231 34.4101 431.681 34.5014 432.135 34.5014C432.589 34.5014 433.039 34.4101 433.457 34.2329C433.875 34.0558 434.254 33.7963 434.57 33.47C435.165 32.7321 435.489 31.8128 435.489 30.865C435.489 29.9171 435.165 28.9979 434.57 28.26C434.252 27.9347 433.873 27.6761 433.454 27.4996C433.035 27.3231 432.585 27.2321 432.13 27.2321C431.675 27.2321 431.225 27.3231 430.806 27.4996C430.387 27.6761 430.008 27.9347 429.69 28.26C429.091 28.9963 428.765 29.9162 428.765 30.865C428.765 31.8138 429.091 32.7337 429.69 33.47H429.7Z" fill="#231F20"/>
<path d="M451.28 36.4H449L443.72 29.17V36.4H441.36V25.32H443.78L448.92 32.32V25.32H451.28V36.4Z" fill="#231F20"/>
<path d="M326.37 19.33C325.919 19.345 325.469 19.2705 325.047 19.1109C324.625 18.9513 324.239 18.7097 323.91 18.4C323.276 17.758 322.921 16.8922 322.921 15.99C322.921 15.0878 323.276 14.2219 323.91 13.58C324.239 13.2703 324.625 13.0287 325.047 12.8691C325.469 12.7095 325.919 12.635 326.37 12.65C326.923 12.6268 327.471 12.7623 327.95 13.0405C328.428 13.3187 328.817 13.7279 329.07 14.22L327.89 14.81C327.741 14.5338 327.524 14.2999 327.26 14.13C326.995 13.96 326.686 13.8698 326.37 13.87C326.099 13.8657 325.83 13.9167 325.579 14.0199C325.328 14.123 325.1 14.2762 324.91 14.47C324.553 14.8882 324.357 15.4201 324.357 15.97C324.357 16.5199 324.553 17.0518 324.91 17.47C325.1 17.6638 325.328 17.817 325.579 17.9201C325.83 18.0233 326.099 18.0743 326.37 18.07C326.686 18.0702 326.995 17.9799 327.26 17.81C327.524 17.6401 327.741 17.4062 327.89 17.13L329.07 17.7C328.823 18.2016 328.438 18.6219 327.959 18.9108C327.481 19.1998 326.929 19.3453 326.37 19.33Z" fill="#231F20"/>
<path d="M334 19.33C333.552 19.3453 333.106 19.2699 332.689 19.1083C332.271 18.9468 331.891 18.7024 331.57 18.39C330.96 17.7395 330.621 16.8814 330.621 15.99C330.621 15.0985 330.96 14.2405 331.57 13.59C332.233 12.9857 333.098 12.6507 333.995 12.6507C334.892 12.6507 335.757 12.9857 336.42 13.59C337.029 14.2405 337.369 15.0985 337.369 15.99C337.369 16.8814 337.029 17.7395 336.42 18.39C336.101 18.7026 335.722 18.9472 335.306 19.1088C334.89 19.2704 334.446 19.3456 334 19.33ZM332.58 17.51C332.766 17.6975 332.987 17.8462 333.231 17.9478C333.474 18.0493 333.736 18.1016 334 18.1016C334.264 18.1016 334.525 18.0493 334.769 17.9478C335.013 17.8462 335.234 17.6975 335.42 17.51C335.759 17.0836 335.944 16.5548 335.944 16.01C335.944 15.4652 335.759 14.9364 335.42 14.51C335.246 14.3044 335.028 14.1402 334.782 14.0294C334.536 13.9187 334.269 13.8642 334 13.87C333.732 13.8599 333.465 13.9084 333.219 14.012C332.972 14.1156 332.75 14.2719 332.57 14.47C332.227 14.8949 332.04 15.4242 332.04 15.97C332.04 16.5158 332.227 17.0451 332.57 17.47L332.58 17.51Z" fill="#231F20"/>
<path d="M345.17 19.22H343.84L340.76 15V19.22H339.38V12.75H340.8L343.8 16.81V12.75H345.18L345.17 19.22Z" fill="#231F20"/>
<path d="M350.36 19.22H349V13.96H347.11V12.75H352.26V13.96H350.38L350.36 19.22Z" fill="#231F20"/>
<path d="M355.54 19.22H354.16V12.75H355.54V19.22Z" fill="#231F20"/>
<path d="M363.64 19.22H362.31L359.23 15V19.22H357.86V12.75H359.27L362.27 16.81V12.75H363.64V19.22Z" fill="#231F20"/>
<path d="M371.05 18.6C370.423 19.0729 369.66 19.3288 368.875 19.3288C368.09 19.3288 367.326 19.0729 366.7 18.6C366.445 18.3361 366.247 18.022 366.12 17.6777C365.992 17.3334 365.938 16.9664 365.96 16.6V12.72H367.35V16.56C367.34 16.7622 367.371 16.9643 367.439 17.1548C367.508 17.3453 367.613 17.5203 367.75 17.67C368.065 17.9345 368.463 18.0795 368.875 18.0795C369.286 18.0795 369.685 17.9345 370 17.67C370.135 17.5199 370.239 17.3445 370.306 17.154C370.373 16.9635 370.401 16.7616 370.39 16.56V12.72H371.79V16.6C371.814 16.9666 371.76 17.3341 371.633 17.6787C371.505 18.0232 371.306 18.3372 371.05 18.6Z" fill="#231F20"/>
<path d="M377.18 19.33C376.732 19.3453 376.287 19.2699 375.869 19.1083C375.451 18.9468 375.071 18.7024 374.75 18.39C374.14 17.7395 373.801 16.8814 373.801 15.99C373.801 15.0985 374.14 14.2405 374.75 13.59C375.413 12.9857 376.278 12.6507 377.175 12.6507C378.072 12.6507 378.937 12.9857 379.6 13.59C380.216 14.2371 380.56 15.0964 380.56 15.99C380.56 16.8836 380.216 17.7429 379.6 18.39C379.281 18.7026 378.903 18.9472 378.487 19.1088C378.071 19.2704 377.626 19.3456 377.18 19.33ZM375.76 17.51C375.946 17.6975 376.167 17.8462 376.411 17.9478C376.655 18.0493 376.916 18.1016 377.18 18.1016C377.444 18.1016 377.705 18.0493 377.949 17.9478C378.193 17.8462 378.414 17.6975 378.6 17.51C378.939 17.0836 379.124 16.5548 379.124 16.01C379.124 15.4652 378.939 14.9364 378.6 14.51C378.422 14.3116 378.203 14.155 377.957 14.0513C377.712 13.9476 377.446 13.8993 377.18 13.91C376.912 13.8999 376.646 13.9483 376.399 14.052C376.152 14.1556 375.93 14.3119 375.75 14.51C375.407 14.9349 375.221 15.4642 375.221 16.01C375.221 16.5558 375.407 17.0851 375.75 17.51H375.76Z" fill="#231F20"/>
<path d="M387.66 18.6C387.032 19.0738 386.267 19.33 385.48 19.33C384.693 19.33 383.928 19.0738 383.3 18.6C383.045 18.3361 382.847 18.022 382.72 17.6777C382.592 17.3334 382.538 16.9664 382.56 16.6V12.72H384V16.56C383.988 16.7616 384.017 16.9635 384.084 17.154C384.151 17.3445 384.255 17.5199 384.39 17.67C384.539 17.8136 384.717 17.9242 384.911 17.9949C385.106 18.0655 385.313 18.0945 385.52 18.08C385.725 18.0943 385.931 18.0652 386.124 17.9946C386.317 17.9239 386.493 17.8133 386.64 17.67C386.775 17.5199 386.879 17.3445 386.946 17.154C387.013 16.9635 387.041 16.7616 387.03 16.56V12.72H388.44V16.6C388.457 16.9693 388.396 17.3381 388.261 17.6825C388.127 18.027 387.922 18.3395 387.66 18.6Z" fill="#231F20"/>
<path d="M393 19.33C392.498 19.3579 391.995 19.2836 391.523 19.1118C391.05 18.9399 390.617 18.6739 390.25 18.33L391 17.25C391.262 17.533 391.581 17.7576 391.936 17.9092C392.291 18.0609 392.674 18.1361 393.06 18.13C393.352 18.1491 393.642 18.0756 393.89 17.92C393.979 17.8684 394.053 17.794 394.104 17.7044C394.155 17.6147 394.181 17.5131 394.18 17.41C394.176 17.321 394.15 17.2344 394.102 17.159C394.055 17.0836 393.989 17.0218 393.91 16.98C393.695 16.8612 393.462 16.78 393.22 16.74C392.94 16.69 392.64 16.61 392.32 16.52C392.016 16.4315 391.718 16.3212 391.43 16.19C391.147 16.0698 390.907 15.8678 390.74 15.61C390.539 15.3167 390.44 14.9651 390.46 14.61C390.457 14.3409 390.516 14.0749 390.632 13.8322C390.749 13.5895 390.919 13.3766 391.13 13.21C391.636 12.8145 392.269 12.6156 392.91 12.65C393.835 12.6119 394.738 12.9346 395.43 13.55L394.67 14.55C394.158 14.0812 393.484 13.8301 392.79 13.85C392.554 13.8325 392.319 13.8921 392.12 14.02C392.044 14.0719 391.982 14.1422 391.94 14.2243C391.898 14.3065 391.877 14.3978 391.88 14.49C391.885 14.5723 391.913 14.6515 391.961 14.7187C392.008 14.7859 392.074 14.8383 392.15 14.87C392.365 14.9888 392.598 15.0699 392.84 15.11C393.11 15.17 393.41 15.24 393.73 15.34C394.033 15.433 394.33 15.5431 394.62 15.67C394.899 15.8009 395.137 16.0048 395.31 16.26C395.51 16.5539 395.608 16.9051 395.59 17.26C395.601 17.5446 395.546 17.8279 395.43 18.088C395.313 18.3481 395.139 18.578 394.92 18.76C394.37 19.1752 393.688 19.3776 393 19.33Z" fill="#231F20"/>
<path d="M3.13002 36.4H0.77002V25.32H3.13002V36.4Z" fill="#231F20"/>
<path d="M17.0001 36.4H14.7401L9.4601 29.17V36.4H7.1001V25.32H9.5201L14.6601 32.32V25.32H17.0001V36.4Z" fill="#231F20"/>
<path d="M27.0498 36.4H24.0498L19.7798 25.32H22.4998L25.5698 33.82L28.6398 25.32H31.3198L27.0498 36.4Z" fill="#231F20"/>
<path d="M42.0002 36.4H34.1602V25.32H42.0002V27.39H36.5201V29.72H41.8801V31.8H36.5201V34.32H42.0002V36.4Z" fill="#231F20"/>
<path d="M49.5398 36.6C48.675 36.6406 47.8109 36.5056 46.9997 36.2031C46.1885 35.9006 45.4469 35.4369 44.8198 34.84L46.1198 32.99C46.5669 33.4757 47.1116 33.8613 47.7183 34.1216C48.3249 34.3818 48.9798 34.5108 49.6398 34.5C50.1413 34.5347 50.6411 34.4123 51.0698 34.15C51.2199 34.0566 51.3443 33.9272 51.4316 33.7735C51.519 33.6198 51.5665 33.4467 51.5698 33.27C51.5643 33.1173 51.5178 32.9689 51.4351 32.8404C51.3523 32.712 51.2365 32.6082 51.0998 32.54C50.7365 32.3248 50.3364 32.179 49.9198 32.11C49.4498 32.02 48.9198 31.9 48.3798 31.74C47.8543 31.5886 47.3398 31.4015 46.8398 31.18C46.332 30.9502 45.904 30.5747 45.6101 30.101C45.3163 29.6273 45.17 29.077 45.1898 28.52C45.184 28.0584 45.2847 27.6017 45.4841 27.1855C45.6836 26.7692 45.9764 26.4046 46.3398 26.12C47.1877 25.4379 48.2523 25.083 49.3398 25.12C50.926 25.0588 52.4743 25.6143 53.6598 26.67L52.3498 28.43C51.4772 27.6181 50.3213 27.1802 49.1298 27.21C48.7245 27.1872 48.3223 27.2922 47.9798 27.51C47.8494 27.5978 47.7434 27.7173 47.6717 27.8572C47.6 27.9971 47.565 28.1529 47.5698 28.31C47.5761 28.4549 47.6237 28.5949 47.7069 28.7136C47.7902 28.8324 47.9057 28.9248 48.0398 28.98C48.4103 29.1731 48.8083 29.308 49.2198 29.38C49.6865 29.48 50.1965 29.61 50.7498 29.77C51.272 29.9296 51.7831 30.1234 52.2798 30.35C52.7844 30.584 53.2095 30.9605 53.5027 31.4332C53.7959 31.9058 53.9444 32.454 53.9298 33.01C53.9466 33.4982 53.8527 33.9838 53.6553 34.4306C53.4579 34.8773 53.162 35.2737 52.7898 35.59C51.8603 36.301 50.7086 36.6589 49.5398 36.6Z" fill="#231F20"/>
<path d="M62.0499 36.4H59.6799V27.4H56.4399V25.33H65.2699V27.4H62.0499V36.4Z" fill="#231F20"/>
<path d="M80.5798 36.4H78.1998V28.4L75.0798 36.4H74.0798L70.9498 28.4V36.4H68.5898V25.32H71.8998L74.5898 32.24L77.2798 25.32H80.6098L80.5798 36.4Z" fill="#231F20"/>
<path d="M92.3898 36.4H84.5498V25.32H92.3898V27.39H86.8998V29.72H92.2698V31.8H86.8998V34.32H92.3898V36.4Z" fill="#231F20"/>
<path d="M105.93 36.4H103.65L98.37 29.17V36.4H96V25.32H98.42L103.56 32.32V25.32H105.92L105.93 36.4Z" fill="#231F20"/>
<path d="M114.83 36.4H112.45V27.4H109.22V25.33H118.05V27.4H114.83V36.4Z" fill="#231F20"/>
<path d="M3.44985 19.33C2.53598 19.3585 1.64797 19.0242 0.979858 18.4C0.350726 17.7555 -0.00146484 16.8906 -0.00146484 15.99C-0.00146484 15.0894 0.350726 14.2244 0.979858 13.58C1.64797 12.9558 2.53598 12.6215 3.44985 12.65C4.0028 12.6268 4.55084 12.7623 5.02927 13.0405C5.50769 13.3187 5.89653 13.7279 6.14986 14.22L4.95985 14.81C4.81448 14.5342 4.60106 14.3002 4.33985 14.13C4.07345 13.9616 3.76503 13.8714 3.44985 13.87C3.17852 13.8657 2.90916 13.9167 2.65816 14.0199C2.40716 14.123 2.17978 14.2762 1.98985 14.47C1.63276 14.8882 1.43658 15.4201 1.43658 15.97C1.43658 16.5199 1.63276 17.0518 1.98985 17.47C2.17978 17.6638 2.40716 17.817 2.65816 17.9201C2.90916 18.0233 3.17852 18.0743 3.44985 18.07C3.76503 18.0685 4.07345 17.9784 4.33985 17.81C4.60106 17.6398 4.81448 17.4058 4.95985 17.13L6.14986 17.7C5.9021 18.2009 5.51627 18.6205 5.03788 18.9093C4.55949 19.1981 4.00848 19.344 3.44985 19.33Z" fill="#231F20"/>
<path d="M11.0799 19.33C10.6324 19.3453 10.1864 19.2699 9.76884 19.1083C9.35123 18.9468 8.97063 18.7024 8.6499 18.39C8.04036 17.7395 7.70117 16.8814 7.70117 15.99C7.70117 15.0985 8.04036 14.2405 8.6499 13.59C9.31296 12.9857 10.1778 12.6507 11.0749 12.6507C11.972 12.6507 12.8368 12.9857 13.4999 13.59C14.1094 14.2405 14.4486 15.0985 14.4486 15.99C14.4486 16.8814 14.1094 17.7395 13.4999 18.39C13.1814 18.7026 12.8026 18.9472 12.3865 19.1088C11.9705 19.2704 11.5259 19.3456 11.0799 19.33ZM9.6599 17.51C9.84583 17.6975 10.067 17.8462 10.3107 17.9478C10.5545 18.0493 10.8159 18.1016 11.0799 18.1016C11.3439 18.1016 11.6053 18.0493 11.8491 17.9478C12.0928 17.8462 12.314 17.6975 12.4999 17.51C12.839 17.0836 13.0236 16.5548 13.0236 16.01C13.0236 15.4652 12.839 14.9364 12.4999 14.51C12.322 14.3116 12.1024 14.155 11.857 14.0513C11.6115 13.9476 11.3462 13.8993 11.0799 13.91C10.8122 13.8999 10.5456 13.9483 10.2986 14.052C10.0516 14.1556 9.83022 14.3119 9.6499 14.51C9.28307 14.9295 9.08995 15.4731 9.1099 16.03C9.0989 16.5752 9.29551 17.1043 9.6599 17.51Z" fill="#231F20"/>
<path d="M22.25 19.22H20.92L17.84 15V19.22H16.46V12.75H17.87L20.87 16.81V12.75H22.25V19.22Z" fill="#231F20"/>
<path d="M27.4402 19.22H26.0502V13.96H24.1602V12.75H29.3202V13.96H27.4402V19.22Z" fill="#231F20"/>
<path d="M32.6202 19.22H31.2402V12.75H32.6202V19.22Z" fill="#231F20"/>
<path d="M40.7202 19.22H39.3902L36.3102 15V19.22H34.9302V12.75H36.3502L39.3502 16.81V12.75H40.7302L40.7202 19.22Z" fill="#231F20"/>
<path d="M48.1302 18.6C47.5037 19.0729 46.7401 19.3288 45.9552 19.3288C45.1702 19.3288 44.4066 19.0729 43.7802 18.6C43.5235 18.3372 43.325 18.0232 43.1975 17.6787C43.07 17.3341 43.0164 16.9666 43.0402 16.6V12.72H44.4302V16.56C44.4183 16.7624 44.4477 16.9652 44.5164 17.156C44.5852 17.3468 44.6919 17.5216 44.8302 17.67C45.1429 17.9356 45.5398 18.0815 45.9502 18.0815C46.3605 18.0815 46.7574 17.9356 47.0702 17.67C47.2065 17.5203 47.312 17.3453 47.3807 17.1548C47.4493 16.9643 47.4797 16.7622 47.4702 16.56V12.72H48.8702V16.6C48.8921 16.9664 48.8376 17.3334 48.7102 17.6777C48.5828 18.022 48.3853 18.3361 48.1302 18.6Z" fill="#231F20"/>
<path d="M54.2601 19.33C53.8126 19.3453 53.3666 19.2699 52.949 19.1083C52.5314 18.9468 52.1508 18.7024 51.8301 18.39C51.2205 17.7395 50.8813 16.8814 50.8813 15.99C50.8813 15.0985 51.2205 14.2405 51.8301 13.59C52.4931 12.9857 53.3579 12.6507 54.2551 12.6507C55.1522 12.6507 56.017 12.9857 56.6801 13.59C57.2896 14.2405 57.6288 15.0985 57.6288 15.99C57.6288 16.8814 57.2896 17.7395 56.6801 18.39C56.3615 18.7026 55.9828 18.9472 55.5667 19.1088C55.1507 19.2704 54.7061 19.3456 54.2601 19.33ZM52.8401 17.51C53.026 17.6975 53.2472 17.8462 53.4909 17.9478C53.7346 18.0493 53.9961 18.1016 54.2601 18.1016C54.5241 18.1016 54.7855 18.0493 55.0292 17.9478C55.2729 17.8462 55.4942 17.6975 55.6801 17.51C56.0192 17.0836 56.2038 16.5548 56.2038 16.01C56.2038 15.4652 56.0192 14.9364 55.6801 14.51C55.5021 14.3116 55.2826 14.155 55.0371 14.0513C54.7917 13.9476 54.5263 13.8993 54.2601 13.91C53.9924 13.8999 53.7258 13.9483 53.4788 14.052C53.2318 14.1556 53.0104 14.3119 52.8301 14.51C52.4632 14.9295 52.2701 15.4731 52.2901 16.03C52.2791 16.5752 52.4757 17.1043 52.8401 17.51Z" fill="#231F20"/>
<path d="M64.73 18.6C64.1035 19.0729 63.3399 19.3288 62.555 19.3288C61.77 19.3288 61.0065 19.0729 60.38 18.6C60.1248 18.3361 59.9273 18.022 59.7999 17.6777C59.6725 17.3334 59.6181 16.9664 59.64 16.6V12.72H61V16.56C60.9904 16.7622 61.0208 16.9643 61.0895 17.1548C61.1581 17.3453 61.2636 17.5203 61.4 17.67C61.7152 17.9345 62.1135 18.0795 62.525 18.0795C62.9365 18.0795 63.3348 17.9345 63.65 17.67C63.785 17.5199 63.889 17.3445 63.9559 17.154C64.0229 16.9635 64.0514 16.7616 64.04 16.56V12.72H65.44V16.6C65.4677 16.9645 65.4188 17.3307 65.2965 17.6751C65.1743 18.0196 64.9813 18.3346 64.73 18.6Z" fill="#231F20"/>
<path d="M70.1001 19.33C69.5979 19.3579 69.0953 19.2836 68.6226 19.1117C68.15 18.9399 67.7171 18.6739 67.3501 18.33L68.1001 17.25C68.3617 17.534 68.6806 17.7593 69.0357 17.911C69.3908 18.0627 69.774 18.1373 70.1601 18.13C70.4609 18.1365 70.7556 18.0453 71.0001 17.87C71.088 17.8169 71.1609 17.7422 71.2117 17.6529C71.2624 17.5636 71.2894 17.4627 71.2901 17.36C71.2866 17.2697 71.2588 17.182 71.2095 17.1063C71.1602 17.0306 71.0913 16.9697 71.0101 16.93C70.7998 16.8094 70.5694 16.7281 70.3301 16.69C70.0501 16.64 69.7501 16.56 69.4301 16.47C69.1232 16.3798 68.8225 16.2695 68.5301 16.14C68.251 16.014 68.0122 15.8133 67.8401 15.56C67.647 15.2634 67.5525 14.9134 67.5701 14.56C67.5673 14.2909 67.6263 14.0249 67.7424 13.7822C67.8586 13.5395 68.0288 13.3266 68.2401 13.16C68.7455 12.7629 69.3784 12.5638 70.0201 12.6C70.945 12.5619 71.8485 12.8846 72.5401 13.5L71.7701 14.5C71.2588 14.0302 70.5841 13.779 69.8901 13.8C69.6575 13.7839 69.426 13.8436 69.2301 13.97C69.1514 14.0201 69.087 14.0897 69.0432 14.172C68.9993 14.2544 68.9776 14.3467 68.9801 14.44C68.9858 14.5234 69.0152 14.6034 69.0648 14.6707C69.1144 14.738 69.1821 14.7898 69.2601 14.82C69.4734 14.9417 69.7073 15.023 69.9501 15.06C70.2201 15.12 70.5201 15.19 70.8401 15.29C71.1428 15.383 71.44 15.4931 71.7301 15.62C72.0322 15.7522 72.2883 15.9709 72.4663 16.2486C72.6443 16.5262 72.736 16.8503 72.7301 17.18C72.7385 17.4643 72.6826 17.7469 72.5666 18.0066C72.4506 18.2663 72.2774 18.4965 72.0601 18.68C71.5105 19.1332 70.8116 19.365 70.1001 19.33Z" fill="#231F20"/>
</g>
<defs>
<linearGradient id="paint0_linear_232_3916" x1="287.71" y1="159.87" x2="287.71" y2="78.1" gradientUnits="userSpaceOnUse">
<stop stop-color="#9FA3AA"/>
<stop offset="0.39" stop-color="#BABDC1"/>
<stop offset="0.74" stop-color="#CBCDCF"/>
<stop offset="1" stop-color="#D1D3D4"/>
</linearGradient>
<linearGradient id="paint1_linear_232_3916" x1="222.67" y1="57.74" x2="296.26" y2="57.74" gradientUnits="userSpaceOnUse">
<stop stop-color="#9FA3AA"/>
<stop offset="0.39" stop-color="#BABDC1"/>
<stop offset="0.74" stop-color="#CBCDCF"/>
<stop offset="1" stop-color="#D1D3D4"/>
</linearGradient>
<linearGradient id="paint2_linear_232_3916" x1="238.11" y1="207.78" x2="274.3" y2="145.09" gradientUnits="userSpaceOnUse">
<stop offset="0.49" stop-color="#498AC9"/>
<stop offset="0.59" stop-color="#4787C4"/>
<stop offset="0.7" stop-color="#417DB7"/>
<stop offset="0.81" stop-color="#376DA1"/>
<stop offset="0.92" stop-color="#295682"/>
<stop offset="1" stop-color="#1E4469"/>
</linearGradient>
<linearGradient id="paint3_linear_232_3916" x1="151.47" y1="57.74" x2="223.87" y2="57.74" gradientUnits="userSpaceOnUse">
<stop offset="0.43" stop-color="#515254"/>
<stop offset="0.66" stop-color="#4B4B4D"/>
<stop offset="0.99" stop-color="#3A393A"/>
<stop offset="1" stop-color="#393839"/>
</linearGradient>
<linearGradient id="paint4_linear_232_3916" x1="173.43" y1="145.09" x2="137.22" y2="82.39" gradientUnits="userSpaceOnUse">
<stop stop-color="#393839"/>
<stop offset="0.01" stop-color="#3A393A"/>
<stop offset="0.34" stop-color="#4B4B4D"/>
<stop offset="0.57" stop-color="#515254"/>
</linearGradient>
<clipPath id="clip0_232_3916">
<rect width="451.28" height="281.1" fill="white" transform="translate(0 0.949997)"/>
</clipPath>
</defs>
</svg>
