<svg width="450" height="250" viewBox="0 0 450 250" fill="none" xmlns="http://www.w3.org/2000/svg">
<path d="M241.016 53.3513V177.212C241.098 178.987 241.704 180.703 242.761 182.159C243.819 183.614 245.284 184.748 246.986 185.427L383.549 248.697C391.622 252.43 401.719 247.846 401.719 240.482V116.296C401.63 114.516 401.02 112.796 399.958 111.337C398.897 109.879 397.428 108.741 395.723 108.055L259.186 45.1358C251.088 41.4288 241.016 45.9873 241.016 53.3513Z" fill="url(#paint0_linear_232_4125)"/>
<g style="mix-blend-mode:multiply">
<path d="M262.223 96.2579L348.532 58.6865C350.39 57.8874 352.403 57.4745 354.437 57.4745C356.472 57.4745 358.484 57.8874 360.342 58.6865L443.9 96.2579C451.921 99.8647 452.077 108.932 444.16 112.689L359.097 153.016C357.153 153.919 355.024 154.388 352.867 154.388C350.71 154.388 348.58 153.919 346.637 153.016L261.834 112.94C253.839 108.982 253.995 99.8146 262.223 96.2579Z" fill="#498AC9"/>
</g>
<g style="mix-blend-mode:multiply">
<path d="M8.66195e-05 82.8073V235.247C8.66195e-05 242.561 10.0197 247.144 18.1704 243.513L190.113 166.241C191.842 165.569 193.335 164.433 194.415 162.968C195.496 161.504 196.12 159.771 196.213 157.975V12.3735C196.213 1.70322 186.142 -2.32953 178.043 1.32742L6.10013 72.6129C4.18461 73.5773 2.59353 75.0483 1.51319 76.8538C0.432856 78.6592 -0.0920312 80.7244 8.66195e-05 82.8073Z" fill="#42B5E8"/>
</g>
<g style="mix-blend-mode:multiply">
<path d="M37.3273 171.075L121.352 133.253C123.226 132.43 125.262 132.003 127.322 132.003C129.382 132.003 131.418 132.43 133.292 133.253L218.407 171.125C226.506 174.732 226.636 183.874 218.615 187.606L134.097 227.006C132.174 227.885 130.073 228.34 127.945 228.34C125.817 228.34 123.716 227.885 121.793 227.006L37.1715 187.556C29.2026 183.924 29.2804 174.707 37.3273 171.075Z" fill="#42B5E8"/>
</g>
<defs>
<linearGradient id="paint0_linear_232_4125" x1="240.964" y1="146.904" x2="401.719" y2="146.904" gradientUnits="userSpaceOnUse">
<stop stop-color="#D1D3D4"/>
<stop offset="0.26" stop-color="#CBCDCF"/>
<stop offset="0.61" stop-color="#BABDC1"/>
<stop offset="1" stop-color="#9FA3AA"/>
</linearGradient>
</defs>
</svg>
