<svg width="37" height="33" viewBox="0 0 37 33" fill="none" xmlns="http://www.w3.org/2000/svg">
<path fill-rule="evenodd" clip-rule="evenodd" d="M2.34146 12.2422C2.233 12.2422 2 12.366 2 12.7056V20.0227C2 20.3623 2.233 20.4861 2.34146 20.4861H9.04878C9.15724 20.4861 9.39024 20.3623 9.39024 20.0227V12.7056C9.39024 12.366 9.15724 12.2422 9.04878 12.2422H2.34146ZM0 12.7056C0 11.4288 0.968183 10.2422 2.34146 10.2422H9.04878C10.4221 10.2422 11.3902 11.4288 11.3902 12.7056V20.0227C11.3902 21.2995 10.4221 22.4861 9.04878 22.4861H2.34146C0.968183 22.4861 0 21.2995 0 20.0227V12.7056Z" fill="url(#paint0_linear_2542_26790)"/>
<path fill-rule="evenodd" clip-rule="evenodd" d="M26.2895 2C26.0757 2 25.9023 2.17335 25.9023 2.3872V10.7104C25.9023 10.9242 26.0757 11.0976 26.2895 11.0976H34.6127C34.8266 11.0976 34.9999 10.9242 34.9999 10.7104V2.3872C34.9999 2.17335 34.8266 2 34.6127 2H26.2895ZM23.9023 2.3872C23.9023 1.06878 24.9711 0 26.2895 0H34.6127C35.9311 0 36.9999 1.06878 36.9999 2.3872V10.7104C36.9999 12.0288 35.9311 13.0976 34.6127 13.0976H26.2895C24.9711 13.0976 23.9023 12.0288 23.9023 10.7104V2.3872Z" fill="url(#paint1_linear_2542_26790)"/>
<path fill-rule="evenodd" clip-rule="evenodd" d="M26.2895 21.6328C26.0757 21.6328 25.9023 21.8062 25.9023 22.02V30.3432C25.9023 30.557 26.0757 30.7304 26.2895 30.7304H34.6127C34.8266 30.7304 34.9999 30.557 34.9999 30.3432V22.02C34.9999 21.8062 34.8266 21.6328 34.6127 21.6328H26.2895ZM23.9023 22.02C23.9023 20.7016 24.9711 19.6328 26.2895 19.6328H34.6127C35.9311 19.6328 36.9999 20.7016 36.9999 22.02V30.3432C36.9999 31.6616 35.9311 32.7304 34.6127 32.7304H26.2895C24.9711 32.7304 23.9023 31.6616 23.9023 30.3432V22.02Z" fill="url(#paint2_linear_2542_26790)"/>
<path fill-rule="evenodd" clip-rule="evenodd" d="M9.39062 16.3672C9.39062 15.8149 9.83834 15.3672 10.3906 15.3672H18.0736C18.6258 15.3672 19.0736 15.8149 19.0736 16.3672C19.0736 16.9195 18.6258 17.3672 18.0736 17.3672H10.3906C9.83834 17.3672 9.39062 16.9195 9.39062 16.3672Z" fill="url(#paint3_linear_2542_26790)"/>
<path fill-rule="evenodd" clip-rule="evenodd" d="M22.1657 7.97659C21.7565 7.9749 21.3515 8.05284 20.974 8.20548C20.5966 8.3581 20.2549 8.58215 19.9681 8.86381C19.6814 9.14544 19.4552 9.47906 19.3018 9.84493C19.1485 10.2108 19.0706 10.6022 19.0723 10.9967L19.0723 11.001L19.0723 21.7369C19.0706 22.1315 19.1485 22.5228 19.3018 22.8887C19.4552 23.2546 19.6814 23.5882 19.9681 23.8698C20.2549 24.1515 20.5966 24.3755 20.974 24.5281C21.3515 24.6808 21.7565 24.7587 22.1657 24.757L22.1698 24.757L24.9015 24.757C25.4538 24.757 25.9015 25.2047 25.9015 25.757C25.9015 26.3093 25.4538 26.757 24.9015 26.757H22.1715C21.5041 26.7594 20.8423 26.6322 20.2242 26.3823C19.6053 26.132 19.0418 25.7633 18.5667 25.2967C18.0916 24.83 17.7142 24.2746 17.4574 23.662C17.2008 23.05 17.0698 22.3935 17.0723 21.7306V11.003C17.0698 10.3401 17.2008 9.68364 17.4574 9.07165C17.7142 8.459 18.0916 7.90357 18.5667 7.43692C19.0418 6.9703 19.6053 6.60165 20.2242 6.35136C20.8424 6.10135 21.5043 5.97413 22.1718 5.9766H24.9015C25.4538 5.9766 25.9015 6.42431 25.9015 6.9766C25.9015 7.52888 25.4538 7.9766 24.9015 7.9766L22.1657 7.97659Z" fill="url(#paint4_linear_2542_26790)"/>
<defs>
<linearGradient id="paint0_linear_2542_26790" x1="0" y1="16.8075" x2="36.9999" y2="16.8075" gradientUnits="userSpaceOnUse">
<stop stop-color="#00469F"/>
<stop offset="1" stop-color="#1E79D6"/>
</linearGradient>
<linearGradient id="paint1_linear_2542_26790" x1="0" y1="16.8075" x2="36.9999" y2="16.8075" gradientUnits="userSpaceOnUse">
<stop stop-color="#00469F"/>
<stop offset="1" stop-color="#1E79D6"/>
</linearGradient>
<linearGradient id="paint2_linear_2542_26790" x1="0" y1="16.8075" x2="36.9999" y2="16.8075" gradientUnits="userSpaceOnUse">
<stop stop-color="#00469F"/>
<stop offset="1" stop-color="#1E79D6"/>
</linearGradient>
<linearGradient id="paint3_linear_2542_26790" x1="0" y1="16.8075" x2="36.9999" y2="16.8075" gradientUnits="userSpaceOnUse">
<stop stop-color="#00469F"/>
<stop offset="1" stop-color="#1E79D6"/>
</linearGradient>
<linearGradient id="paint4_linear_2542_26790" x1="0" y1="16.8075" x2="36.9999" y2="16.8075" gradientUnits="userSpaceOnUse">
<stop stop-color="#00469F"/>
<stop offset="1" stop-color="#1E79D6"/>
</linearGradient>
</defs>
</svg>
