<svg width="37" height="36" viewBox="0 0 37 36" fill="none" xmlns="http://www.w3.org/2000/svg">
<path d="M1.10122 3.14706L12.6612 33.9738C12.7761 34.2771 12.9811 34.5381 13.2486 34.7215C13.5162 34.905 13.8335 35.0021 14.1578 35C14.4822 34.9978 14.7982 34.8964 15.0632 34.7094C15.3283 34.5224 15.5298 34.2588 15.6406 33.9539L20.2686 21.222C20.3491 21.0036 20.476 20.8052 20.6406 20.6406C20.8052 20.476 21.0036 20.3491 21.222 20.2686L33.9539 15.6406C34.2588 15.5298 34.5224 15.3283 34.7094 15.0632C34.8964 14.7982 34.9978 14.4822 35 14.1578C35.0021 13.8335 34.905 13.5162 34.7215 13.2486C34.5381 12.9811 34.2771 12.7761 33.9738 12.6612L3.14706 1.10122C2.86138 0.994061 2.55088 0.97142 2.25268 1.036C1.95447 1.10058 1.68116 1.24966 1.46541 1.46541C1.24966 1.68116 1.10058 1.95447 1.036 2.25268C0.97142 2.55088 0.994061 2.86138 1.10122 3.14706V3.14706Z" stroke="white" stroke-width="2" stroke-linecap="round" stroke-linejoin="round"/>
<path d="M21 21L36 35" stroke="white" stroke-width="2" stroke-linecap="round" stroke-linejoin="round"/>
</svg>
