<svg width="36" height="35" viewBox="0 0 36 35" fill="none" xmlns="http://www.w3.org/2000/svg">
<path fill-rule="evenodd" clip-rule="evenodd" d="M10.0159 0.0759484C9.72104 0.209803 9.41569 0.581896 9.36185 0.873094C9.338 1.00235 9.32845 2.00024 9.3407 3.09063C9.36178 4.96043 9.37156 5.08466 9.51344 5.27446C9.79938 5.6572 10.0324 5.77654 10.4937 5.77654C10.955 5.77654 11.1881 5.65706 11.4739 5.27431C11.618 5.08138 11.6243 4.98086 11.6243 2.89521C11.6243 0.809558 11.618 0.70904 11.4739 0.5161C11.3912 0.405296 11.2377 0.250579 11.1329 0.172309C10.8914 -0.00793852 10.3112 -0.0579789 10.0159 0.0759484ZM3.01314 2.41428C2.52565 2.62662 2.25356 3.18159 2.35729 3.75231C2.39953 3.98479 2.62252 4.24134 3.84253 5.46142C5.38904 7.00786 5.47213 7.06264 6.09515 6.94571C6.45419 6.87838 6.89054 6.44202 6.95787 6.08299C7.07335 5.4674 7.0109 5.37031 5.54573 3.89011C4.79673 3.13345 4.07829 2.4687 3.94918 2.41297C3.65747 2.28706 3.30412 2.2875 3.01314 2.41428ZM17.0223 2.41596C16.9019 2.47016 16.1906 3.13359 15.4416 3.89018C13.9764 5.37031 13.9139 5.4674 14.0295 6.08299C14.0968 6.44202 14.5332 6.87838 14.8922 6.94571C15.5152 7.06264 15.5983 7.00786 17.1448 5.46142C18.3648 4.24134 18.5878 3.98479 18.6301 3.75231C18.8063 2.78258 17.8932 2.02359 17.0223 2.41596ZM0.678896 9.41534C0.195343 9.62958 -0.0818493 10.1875 0.0215141 10.7383C0.0853411 11.0788 0.449192 11.482 0.780509 11.5795C0.951711 11.6299 1.77045 11.6498 3.06632 11.6351C4.97245 11.6135 5.0966 11.6038 5.28663 11.4617C5.66937 11.1758 5.78871 10.9427 5.78871 10.4815C5.78871 10.0203 5.6693 9.78722 5.28663 9.50127C5.09565 9.35859 4.97821 9.34998 2.99337 9.33379C1.36495 9.32059 0.852068 9.3386 0.678896 9.41534ZM10.0195 9.41738C9.61578 9.59683 9.32757 10.0333 9.32568 10.468C9.32524 10.5758 10.9236 15.998 12.8776 22.5175C16.3448 34.0859 16.4366 34.3775 16.6934 34.6386C17.0994 35.0513 17.7509 35.1042 18.1884 34.7599C18.2964 34.675 19.2683 33.2808 20.3482 31.6617C21.4282 30.0426 22.3356 28.7178 22.3648 28.7178C22.394 28.7178 23.8135 30.1106 25.5193 31.8129C28.8776 35.1645 28.771 35.079 29.4412 34.9579C29.6799 34.9148 30.0466 34.5765 32.3177 32.3055C34.5887 30.0345 34.927 29.6677 34.9701 29.429C35.0912 28.7587 35.178 28.8668 31.8092 25.4912C29.5613 23.2388 28.7203 22.352 28.7779 22.2945C28.8217 22.2506 30.1651 21.3392 31.7633 20.269C33.3614 19.1988 34.736 18.2305 34.8179 18.1172C34.9274 17.9658 34.9668 17.7982 34.9668 17.4842C34.9668 17.0301 34.8448 16.7855 34.4881 16.5241C34.2637 16.3595 10.7787 9.31336 10.4678 9.31723C10.3417 9.31883 10.1399 9.36384 10.0195 9.41738ZM21.7299 15.0768C26.8438 16.6103 31.0391 17.8755 31.053 17.8883C31.0668 17.9011 29.9472 18.666 28.5649 19.5881C27.1825 20.5103 25.9821 21.353 25.8973 21.4609C25.708 21.7015 25.6339 22.0637 25.6997 22.4263C25.7432 22.6661 26.1473 23.0985 28.9715 25.9281L32.1936 29.1564L30.681 30.6689L29.1685 32.1814L25.9403 28.9593C23.1107 26.1352 22.6782 25.7311 22.4384 25.6875C22.0758 25.6217 21.7137 25.6958 21.473 25.8851C21.3651 25.97 20.5225 27.1703 19.6003 28.5527C18.6782 29.935 17.9132 31.0547 17.9005 31.0408C17.8876 31.027 16.6225 26.8316 15.089 21.7178C13.5555 16.604 12.2824 12.372 12.2599 12.3135C12.2324 12.2416 12.2538 12.2202 12.3256 12.2477C12.3842 12.2703 16.6162 13.5433 21.7299 15.0768ZM5.35104 14.0872C5.23068 14.1414 4.51939 14.8048 3.77039 15.5614C2.30521 17.0415 2.2427 17.1386 2.35824 17.7542C2.42557 18.1133 2.86193 18.5496 3.22096 18.6169C3.84399 18.7339 3.92707 18.6791 5.47358 17.1327C6.69359 15.9126 6.91659 15.656 6.95882 15.4235C7.13506 14.4538 6.222 13.6948 5.35104 14.0872Z" fill="white"/>
</svg>
