<svg width="33" height="37" viewBox="0 0 33 37" fill="none" xmlns="http://www.w3.org/2000/svg">
<path d="M17.158 27.7105C19.7014 27.7105 21.7633 25.6487 21.7633 23.1053C21.7633 20.5618 19.7014 18.5 17.158 18.5C14.6146 18.5 12.5527 20.5618 12.5527 23.1053C12.5527 25.6487 14.6146 27.7105 17.158 27.7105Z" stroke="white" stroke-width="2" stroke-linecap="round" stroke-linejoin="round"/>
<path d="M17.1582 27.7109V32.3162" stroke="white" stroke-width="2" stroke-linecap="round" stroke-linejoin="round"/>
<path d="M30.5132 13.8945H2.88158C2.11855 13.8945 1.5 14.5131 1.5 15.2761V34.6182C1.5 35.3812 2.11855 35.9998 2.88158 35.9998H30.5132C31.2762 35.9998 31.8947 35.3812 31.8947 34.6182V15.2761C31.8947 14.5131 31.2762 13.8945 30.5132 13.8945Z" stroke="white" stroke-width="2" stroke-linecap="round" stroke-linejoin="round"/>
<path d="M10.7109 13.8947V7.44737C10.7109 5.73742 11.3417 4.09751 12.4644 2.88839C13.5872 1.67927 15.11 1 16.6978 1C18.2856 1 19.8084 1.67927 20.9311 2.88839C22.0539 4.09751 22.6846 5.73742 22.6846 7.44737V13.8947" stroke="white" stroke-width="2" stroke-linecap="round" stroke-linejoin="round"/>
</svg>
