<svg width="42" height="41" viewBox="0 0 42 41" fill="none" xmlns="http://www.w3.org/2000/svg">
<path d="M1.5 15.1646V2.6989C1.5 2.24833 1.68677 1.8162 2.01922 1.4976C2.35167 1.17899 2.80257 1 3.27273 1H38.7273C39.1974 1 39.6483 1.17899 39.9808 1.4976C40.3132 1.8162 40.5 2.24833 40.5 2.6989V15.1646C40.5 33.0031 24.7006 38.9068 21.554 39.9049C21.1965 40.0317 20.8035 40.0317 20.446 39.9049C17.2994 38.9068 1.5 33.0031 1.5 15.1646Z" stroke="url(#paint0_linear_3086_25579)" stroke-width="1.73333" stroke-linecap="round" stroke-linejoin="round"/>
<path d="M21.4336 8.80078V22.6674" stroke="url(#paint1_linear_3086_25579)" stroke-width="1.73333" stroke-linecap="round" stroke-linejoin="round"/>
<path d="M21.4335 33.9333C23.3481 33.9333 24.9001 32.3813 24.9001 30.4667C24.9001 28.5521 23.3481 27 21.4335 27C19.5189 27 17.9668 28.5521 17.9668 30.4667C17.9668 32.3813 19.5189 33.9333 21.4335 33.9333Z" fill="url(#paint2_linear_3086_25579)"/>
<defs>
<linearGradient id="paint0_linear_3086_25579" x1="1.5" y1="21.027" x2="40.5" y2="21.027" gradientUnits="userSpaceOnUse">
<stop stop-color="#00469F"/>
<stop offset="1" stop-color="#1E79D6"/>
</linearGradient>
<linearGradient id="paint1_linear_3086_25579" x1="21.4336" y1="15.9215" x2="22.4336" y2="15.9215" gradientUnits="userSpaceOnUse">
<stop stop-color="#00469F"/>
<stop offset="1" stop-color="#1E79D6"/>
</linearGradient>
<linearGradient id="paint2_linear_3086_25579" x1="17.9668" y1="30.5604" x2="24.9001" y2="30.5604" gradientUnits="userSpaceOnUse">
<stop stop-color="#00469F"/>
<stop offset="1" stop-color="#1E79D6"/>
</linearGradient>
</defs>
</svg>
