<svg width="47" height="47" viewBox="0 0 47 47" fill="none" xmlns="http://www.w3.org/2000/svg">
<path d="M1 17.3438V2.96027C1 2.44038 1.2155 1.94177 1.5991 1.57415C1.9827 1.20653 2.50297 1 3.04545 1H43.9545C44.497 1 45.0173 1.20653 45.4009 1.57415C45.7845 1.94177 46 2.44038 46 2.96027V17.3438C46 37.9266 27.7699 44.7386 24.1392 45.8902C23.7267 46.0366 23.2732 46.0366 22.8608 45.8902C19.2301 44.7386 1 37.9266 1 17.3438Z" stroke="white" stroke-width="2" stroke-linecap="round" stroke-linejoin="round"/>
<path d="M24 10V26" stroke="white" stroke-width="2" stroke-linecap="round" stroke-linejoin="round"/>
<path d="M24 39C26.2091 39 28 37.2091 28 35C28 32.7909 26.2091 31 24 31C21.7909 31 20 32.7909 20 35C20 37.2091 21.7909 39 24 39Z" fill="white"/>
</svg>
