<svg width="38" height="36" viewBox="0 0 38 36" fill="none" xmlns="http://www.w3.org/2000/svg">
<path d="M1.60122 3.14706L13.1612 33.9738C13.2761 34.2771 13.4811 34.5381 13.7486 34.7215C14.0162 34.905 14.3335 35.0021 14.6578 35C14.9822 34.9978 15.2982 34.8964 15.5632 34.7094C15.8283 34.5224 16.0298 34.2588 16.1406 33.9539L20.7686 21.222C20.8491 21.0036 20.976 20.8052 21.1406 20.6406C21.3052 20.476 21.5036 20.3491 21.722 20.2686L34.4539 15.6406C34.7588 15.5298 35.0224 15.3283 35.2094 15.0632C35.3964 14.7982 35.4978 14.4822 35.5 14.1578C35.5021 13.8335 35.405 13.5162 35.2215 13.2486C35.0381 12.9811 34.7771 12.7761 34.4738 12.6612L3.64706 1.10122C3.36138 0.994061 3.05088 0.97142 2.75268 1.036C2.45447 1.10058 2.18116 1.24966 1.96541 1.46541C1.74966 1.68116 1.60058 1.95447 1.536 2.25268C1.47142 2.55088 1.49406 2.86138 1.60122 3.14706V3.14706Z" stroke="url(#paint0_linear_1_624)" stroke-width="2" stroke-linecap="round" stroke-linejoin="round"/>
<path d="M21.5 21L36.5 35" stroke="url(#paint1_linear_1_624)" stroke-width="2" stroke-linecap="round" stroke-linejoin="round"/>
<defs>
<linearGradient id="paint0_linear_1_624" x1="1.5" y1="18.4595" x2="35.5" y2="18.4595" gradientUnits="userSpaceOnUse">
<stop stop-color="#00469F"/>
<stop offset="1" stop-color="#1E79D6"/>
</linearGradient>
<linearGradient id="paint1_linear_1_624" x1="21.5" y1="28.1892" x2="36.5" y2="28.1892" gradientUnits="userSpaceOnUse">
<stop stop-color="#00469F"/>
<stop offset="1" stop-color="#1E79D6"/>
</linearGradient>
</defs>
</svg>
