<svg width="1920" height="360" viewBox="0 0 1920 360" fill="none" xmlns="http://www.w3.org/2000/svg">
<g clip-path="url(#clip0_71_1592)">
<rect width="1920" height="360" fill="url(#paint0_linear_71_1592)"/>
<path d="M1287.29 90.5896L1150.25 -55.6678L1476.23 -55.6836L1338.84 90.5896C1330.2 99.3553 1315.85 101.174 1309.75 100.988C1302.37 100.875 1291.7 94.0088 1287.29 90.5896Z" fill="url(#paint1_linear_71_1592)"/>
<path d="M1092.84 195.169L694.632 622.876H203.625L596.486 203.858C610.602 190.573 602.368 170.645 596.486 162.342L300.66 -153.461H796.224L1091.53 164.062C1102.73 176.767 1097.07 190.094 1092.84 195.169Z" fill="url(#paint2_linear_71_1592)"/>
<path d="M1108.86 466.704C1090.52 487.006 1099.66 497.722 1106.53 500.542L1599.98 500.909L1367.44 250.142C1357.23 239.446 1343.59 236.884 1338.05 236.94C1324.75 237.006 1312.38 245.769 1307.86 250.142L1108.86 466.704Z" fill="url(#paint3_linear_71_1592)"/>
</g>
<defs>
<linearGradient id="paint0_linear_71_1592" x1="0" y1="184.865" x2="1920" y2="184.865" gradientUnits="userSpaceOnUse">
<stop stop-color="#00469F"/>
<stop offset="1" stop-color="#1E79D6"/>
</linearGradient>
<linearGradient id="paint1_linear_71_1592" x1="1150.25" y1="24.7757" x2="1476.23" y2="24.7757" gradientUnits="userSpaceOnUse">
<stop stop-color="#00469F"/>
<stop offset="1" stop-color="#1E79D6"/>
</linearGradient>
<linearGradient id="paint2_linear_71_1592" x1="203.625" y1="245.198" x2="1098.08" y2="245.198" gradientUnits="userSpaceOnUse">
<stop stop-color="#00469F"/>
<stop offset="1" stop-color="#1E79D6"/>
</linearGradient>
<linearGradient id="paint3_linear_71_1592" x1="1098.08" y1="372.491" x2="1599.98" y2="372.491" gradientUnits="userSpaceOnUse">
<stop stop-color="#00469F"/>
<stop offset="1" stop-color="#1E79D6"/>
</linearGradient>
<clipPath id="clip0_71_1592">
<rect width="1920" height="360" fill="white"/>
</clipPath>
</defs>
</svg>
